<svg xmlns="http://www.w3.org/2000/svg" viewBox="0 0 320 512"><!-- Font Awesome Pro 6.0.0-alpha2 by @fontawesome - https://fontawesome.com License - https://fontawesome.com/license (Commercial License) --><path d="M320 447.994C320 465.685 305.672 480 288 480H32.004C18.754 480 6.879 471.842 2.129 459.465C-2.621 447.119 0.739 433.085 10.582 424.208L212.001 242.642C227.673 227.233 236.845 205.572 236.845 182.537C236.845 159.532 227.673 137.872 211.017 121.525C176.189 87.362 119.597 87.425 84.8 121.525L54.191 150.999C41.473 163.252 21.207 162.908 8.942 150.124C-3.308 137.403 -2.917 117.118 9.817 104.866L40.207 75.61C99.487 17.411 196.33 17.443 255.829 75.829C284.86 104.303 300.844 142.185 300.844 182.537C300.844 222.919 284.86 260.802 255.829 289.276L115.3 415.988H288C305.672 415.988 320 430.303 320 447.994Z"/></svg>