<svg xmlns="http://www.w3.org/2000/svg" viewBox="0 0 320 512"><!-- Font Awesome Pro 6.0.0-alpha2 by @fontawesome - https://fontawesome.com License - https://fontawesome.com/license (Commercial License) --><path d="M267.529 249.193C290.02 226.117 304 194.701 304 160C304 89.406 246.594 32 176 32H144C73.406 32 16 89.406 16 160C16 194.701 29.98 226.117 52.471 249.193C20.818 272.516 0 309.744 0 352C0 422.594 57.406 480 128 480H192C262.594 480 320 422.594 320 352C320 309.744 299.182 272.516 267.529 249.193ZM144 96H176C211.281 96 240 124.719 240 160S211.281 224 176 224H144C108.719 224 80 195.281 80 160S108.719 96 144 96ZM192 416H128C92.719 416 64 387.281 64 352S92.719 288 128 288H192C227.281 288 256 316.719 256 352S227.281 416 192 416Z"/></svg>