<svg xmlns="http://www.w3.org/2000/svg" viewBox="0 0 512 512"><!-- Font Awesome Pro 6.0.0-alpha2 by @fontawesome - https://fontawesome.com License - https://fontawesome.com/license (Commercial License) --><path d="M272 288H208C163.82 288 128 323.816 128 368C128 376.836 135.164 384 144 384H336C344.836 384 352 376.836 352 368C352 323.816 316.184 288 272 288ZM240 256C275.348 256 304 227.346 304 192S275.348 128 240 128C204.656 128 176 156.654 176 192S204.656 256 240 256ZM496 320H480V416H496C504.836 416 512 408.836 512 400V336C512 327.164 504.836 320 496 320ZM496 64H480V160H496C504.836 160 512 152.836 512 144V80C512 71.164 504.836 64 496 64ZM496 192H480V288H496C504.836 288 512 280.836 512 272V208C512 199.164 504.836 192 496 192ZM384 0H96C60.654 0 32 28.652 32 64V448C32 483.346 60.654 512 96 512H384C419.346 512 448 483.346 448 448V64C448 28.652 419.346 0 384 0ZM400 448C400 456.836 392.836 464 384 464H96C87.164 464 80 456.836 80 448V64C80 55.162 87.164 48 96 48H384C392.836 48 400 55.162 400 64V448Z"/></svg>