<svg xmlns="http://www.w3.org/2000/svg" viewBox="0 0 512 512"><!-- Font Awesome Pro 6.0.0-alpha2 by @fontawesome - https://fontawesome.com License - https://fontawesome.com/license (Commercial License) --><path d="M96 0C42.98 0 0 42.98 0 96C0 114.949 5.672 132.496 15.148 147.375L161.057 25.785C143.932 9.914 121.191 0 96 0ZM256.014 64C132.303 64 32.014 164.289 32.014 288C32.014 341.207 50.646 390.016 81.635 428.441L39.045 471.031C34.357 475.719 32.014 481.859 32.014 488C32.014 500.79 42.312 512 56.014 512C62.154 512 68.295 509.656 72.982 504.969L115.572 462.379C153.998 493.367 202.807 512 256.014 512S358.029 493.367 396.455 462.379L439.045 504.969C443.732 509.656 449.873 512 456.014 512C469.723 512 480.014 500.79 480.014 488C480.014 481.859 477.67 475.719 472.982 471.031L430.393 428.441C461.381 390.016 480.014 341.207 480.014 288C480.014 164.289 379.725 64 256.014 64ZM256.014 464C158.967 464 80.014 385.047 80.014 288S158.967 112 256.014 112S432.014 190.953 432.014 288S353.061 464 256.014 464ZM416 0C390.809 0 368.068 9.914 350.943 25.785L496.852 147.375C506.328 132.496 512 114.949 512 96C512 42.98 469.02 0 416 0ZM313.607 336H248.357L332.342 231C335.814 226.652 337.603 221.341 337.603 215.988C337.603 197.309 320.518 192 313.607 192H198.42C185.17 192 174.42 202.75 174.42 216S185.17 240 198.42 240H263.67L179.686 345C176.213 349.348 174.424 354.659 174.424 360.012C174.424 378.691 191.509 384 198.42 384H313.607C326.857 384 337.607 373.25 337.607 360S326.857 336 313.607 336Z "></path></svg>