<svg xmlns="http://www.w3.org/2000/svg" viewBox="0 0 512 512"><!-- Font Awesome Pro 6.0.0-alpha2 by @fontawesome - https://fontawesome.com License - https://fontawesome.com/license (Commercial License) --><path d="M480.031 24C480.031 10.75 469.278 0 456.027 0H55.975C42.723 0 31.97 10.75 31.97 24V48H480.031V24ZM496.033 104C496.033 90.75 485.282 80 472.03 80H39.971C26.72 80 15.969 90.75 15.969 104V128H496.033V104ZM256.001 437.781C330.409 437.781 393.667 394.76 397.515 339.01C401.463 280.104 338.204 229.781 256.001 229.781S110.539 280.104 114.486 339.01C118.334 394.76 181.593 437.781 256.001 437.781ZM256.001 320C272.627 320 286.003 330.125 285.879 342.125C285.756 354.125 272.377 363.875 256.001 363.875C239.624 363.875 226.248 354.25 226.123 342.125C225.997 330 239.374 320 256.001 320ZM480.031 160H31.97C7.704 160 -1.012 181.822 0.092 194.875L23.696 453.809C26.7 486.768 54.34 512 87.439 512H424.563C457.662 512 485.301 486.768 488.306 453.809L511.909 194.875C513.015 181.795 504.086 160 480.031 160ZM440.498 449.453C439.742 457.746 432.892 464 424.563 464H87.439C79.11 464 72.26 457.746 71.504 449.451L49.492 208H462.51L440.498 449.453Z"/></svg>