<svg xmlns="http://www.w3.org/2000/svg" viewBox="0 0 448 512"><!-- Font Awesome Pro 6.0.0-alpha2 by @fontawesome - https://fontawesome.com License - https://fontawesome.com/license (Commercial License) --><path d="M224 0C100.25 0 0 87.994 0 232.484C0 344.229 134.25 456.971 194.875 502.344C212.125 515.219 235.875 515.219 253.125 502.344C313.75 456.971 448 344.229 448 232.484C448 87.994 347.75 0 224 0ZM223.625 463.846C113.625 381.727 48 295.232 48 232.484C48 122.117 118.75 47.996 224 47.996S400 122.117 400 232.484C400 295.232 334.375 381.727 223.625 463.846ZM129.875 223.986H97.75C89 223.986 81.75 231.111 81.75 239.984C81.875 284.107 117.625 319.98 161.75 319.98H193.75C202.625 319.98 209.75 312.855 209.75 303.98C209.875 259.859 173.999 223.986 129.875 223.986ZM352 224L321.75 223.986C277.625 223.986 241.75 259.859 241.75 303.98C241.875 312.855 249 319.98 257.75 319.98H289.75C333.999 319.98 369.75 284.107 369.875 239.984C369.875 231.111 360.875 224 352 224Z"/></svg>