<svg xmlns="http://www.w3.org/2000/svg" viewBox="0 0 448 512"><!-- Font Awesome Pro 6.0.0-alpha2 by @fontawesome - https://fontawesome.com License - https://fontawesome.com/license (Commercial License) --><path d="M20.875 88H267.125C278.654 88 288 78.654 288 67.125V60.875C288 49.346 278.654 40 267.125 40H20.875C9.346 40 0 49.346 0 60.875V67.125C0 78.654 9.346 88 20.875 88ZM20.875 344H267.125C278.654 344 288 334.654 288 323.125V316.875C288 305.346 278.654 296 267.125 296H20.875C9.346 296 0 305.346 0 316.875V323.125C0 334.654 9.346 344 20.875 344ZM424 168H24C10.745 168 0 178.745 0 192V192C0 205.255 10.745 216 24 216H424C437.255 216 448 205.255 448 192V192C448 178.745 437.255 168 424 168ZM424 424H24C10.745 424 0 434.745 0 448V448C0 461.255 10.745 472 24 472H424C437.255 472 448 461.255 448 448V448C448 434.745 437.255 424 424 424Z"/></svg>