<svg xmlns="http://www.w3.org/2000/svg" viewBox="0 0 512 512"><!-- Font Awesome Pro 6.0.0-alpha2 by @fontawesome - https://fontawesome.com License - https://fontawesome.com/license (Commercial License) --><path d="M384 336C392.875 336 400 328.875 400 320S392.875 304 384 304S368 311.125 368 320S375.125 336 384 336ZM320 336C328.875 336 336 328.875 336 320S328.875 304 320 304S304 311.125 304 320S311.125 336 320 336ZM416 384C424.875 384 432 376.875 432 368S424.875 352 416 352S400 359.125 400 368S407.125 384 416 384ZM352 384C360.875 384 368 376.875 368 368S360.875 352 352 352S336 359.125 336 368S343.125 384 352 384ZM128 400C119.125 400 112 407.125 112 416S119.125 432 128 432S144 424.875 144 416S136.875 400 128 400ZM192 400C183.125 400 176 407.125 176 416S183.125 432 192 432S208 424.875 208 416S200.875 400 192 400ZM288 384C296.875 384 304 376.875 304 368S296.875 352 288 352S272 359.125 272 368S279.125 384 288 384ZM384 400C375.125 400 368 407.125 368 416S375.125 432 384 432S400 424.875 400 416S392.875 400 384 400ZM320 400C311.125 400 304 407.125 304 416S311.125 432 320 432S336 424.875 336 416S328.875 400 320 400ZM256 400C247.125 400 240 407.125 240 416S247.125 432 256 432S272 424.875 272 416S264.875 400 256 400ZM256 336C264.875 336 272 328.875 272 320S264.875 304 256 304S240 311.125 240 320S247.125 336 256 336ZM192 152C178.75 152 168 162.75 168 176S178.75 200 192 200S216 189.25 216 176S205.25 152 192 152ZM112 152C98.75 152 88 162.75 88 176S98.75 200 112 200S136 189.25 136 176S125.25 152 112 152ZM448 80H402.5C377.75 52.75 321.5 0 256 0S134.25 52.75 109.5 80H64C28.654 80 0 108.652 0 144V448C0 483.346 28.654 512 64 512H448C483.346 512 512 483.346 512 448V144C512 108.652 483.346 80 448 80ZM256 48C282.875 48 310 62.75 332.25 80H179.75C202 62.75 229.125 48 256 48ZM464 448C464 456.836 456.836 464 448 464H64C55.164 464 48 456.836 48 448V272H464V448ZM464 224H48V144C48 135.162 55.164 128 64 128H448C456.836 128 464 135.162 464 144V224ZM96 384C104.875 384 112 376.875 112 368S104.875 352 96 352S80 359.125 80 368S87.125 384 96 384ZM192 336C200.875 336 208 328.875 208 320S200.875 304 192 304S176 311.125 176 320S183.125 336 192 336ZM224 384C232.875 384 240 376.875 240 368S232.875 352 224 352S208 359.125 208 368S215.125 384 224 384ZM128 336C136.875 336 144 328.875 144 320S136.875 304 128 304S112 311.125 112 320S119.125 336 128 336ZM160 384C168.875 384 176 376.875 176 368S168.875 352 160 352S144 359.125 144 368S151.125 384 160 384ZM320 152C306.75 152 296 162.75 296 176S306.75 200 320 200S344 189.25 344 176S333.25 152 320 152ZM400 152C386.75 152 376 162.75 376 176S386.75 200 400 200S424 189.25 424 176S413.25 152 400 152Z"/></svg>