<svg xmlns="http://www.w3.org/2000/svg" viewBox="0 0 448 512"><!-- Font Awesome Pro 6.0.0-alpha2 by @fontawesome - https://fontawesome.com License - https://fontawesome.com/license (Commercial License) --><path d="M213.881 388.005L92.231 252L213.881 115.995C217.974 111.433 220.006 105.714 220.006 99.995C220.006 93.401 217.318 86.838 212.006 82.119C202.132 73.275 186.945 74.119 178.133 83.994L42.14 235.999C33.953 245.125 33.953 258.875 42.14 268.001L178.133 420.006C186.945 429.881 202.132 430.725 212.006 421.881C221.912 413.068 222.724 397.849 213.881 388.005ZM234.13 235.999C225.943 245.125 225.943 258.875 234.13 268.001L370.122 420.006C378.934 429.881 394.121 430.725 403.996 421.881C413.901 413.068 414.714 397.849 405.87 388.005L284.221 252L405.87 115.995C409.964 111.433 411.995 105.714 411.995 99.995C411.995 93.401 409.308 86.838 403.996 82.119C394.121 73.275 378.934 74.119 370.122 83.994L234.13 235.999Z"/></svg>