<svg xmlns="http://www.w3.org/2000/svg" viewBox="0 0 384 512"><!-- Font Awesome Pro 6.0.0-alpha2 by @fontawesome - https://fontawesome.com License - https://fontawesome.com/license (Commercial License) --><path d="M55.995 241.881L192 120.231L328.005 241.881C332.567 245.974 338.286 248.006 344.005 248.006C350.599 248.006 357.162 245.318 361.881 240.006C370.725 230.132 369.881 214.945 360.006 206.133L208.001 70.14C198.875 61.953 185.125 61.953 175.999 70.14L23.994 206.133C14.119 214.945 13.275 230.132 22.119 240.006C30.932 249.912 46.151 250.724 55.995 241.881ZM208.001 262.13C198.875 253.943 185.125 253.943 175.999 262.13L23.994 398.122C14.119 406.934 13.275 422.121 22.119 431.996C30.932 441.901 46.151 442.714 55.995 433.87L192 312.221L328.005 433.87C332.567 437.964 338.286 439.995 344.005 439.995C350.599 439.995 357.162 437.308 361.881 431.996C370.725 422.121 369.881 406.934 360.006 398.122L208.001 262.13Z"/></svg>