<svg xmlns="http://www.w3.org/2000/svg" viewBox="0 0 320 512"><!-- Font Awesome Pro 6.0.0-alpha2 by @fontawesome - https://fontawesome.com License - https://fontawesome.com/license (Commercial License) --><path d="M296 272H227.125C256.5 235.625 281.875 184.125 281.875 137.125C281.875 53 227.375 0 160 0S38.125 53 38.125 137.125C38.125 184.125 63.5 235.625 92.875 272H24C10.745 272 0 282.745 0 296V296C0 309.255 10.745 320 24 320H136V488C136 501.255 146.745 512 160 512H160C173.255 512 184 501.255 184 488V320H296C309.255 320 320 309.255 320 296V296C320 282.745 309.255 272 296 272ZM160 48C204.25 48 233.875 83.875 233.875 137.125C233.875 191 184.25 256.625 160 270.5C135.75 256.625 86.125 191 86.125 137.125C86.125 83.875 115.75 48 160 48Z"/></svg>