<svg xmlns="http://www.w3.org/2000/svg" viewBox="0 0 512 512"><!-- Font Awesome Pro 6.0.0-alpha2 by @fontawesome - https://fontawesome.com License - https://fontawesome.com/license (Commercial License) --><path d="M256 16C123.451 16 16 123.451 16 256S123.451 496 256 496S496 388.549 496 256S388.549 16 256 16ZM417.156 152H251.381L299.248 69.094C348.482 80.488 390.469 110.789 417.156 152ZM320.666 255.998L288.332 312H223.666L191.334 256.002L223.668 200H288.334L320.666 255.998ZM246.492 64.48L163.625 208.008L115.826 125.221C148.859 89.838 195 67.021 246.492 64.48ZM85.346 168.414L168.246 312H72.381C66.963 294.27 64 275.479 64 256C64 224.438 71.795 194.709 85.346 168.414ZM94.844 360H260.619L212.752 442.906C163.518 431.512 121.531 401.211 94.844 360ZM265.508 447.52L348.375 303.992L396.174 386.779C363.141 422.162 317 444.979 265.508 447.52ZM426.654 343.586L343.754 200H439.619C445.037 217.73 448 236.521 448 256C448 287.562 440.205 317.291 426.654 343.586Z"/></svg>