<svg xmlns="http://www.w3.org/2000/svg" viewBox="0 0 512 512"><!-- Font Awesome Pro 6.0.0-alpha2 by @fontawesome - https://fontawesome.com License - https://fontawesome.com/license (Commercial License) --><path d="M352.001 175.992C338.751 175.992 328.001 186.742 328.001 199.992S338.751 223.992 352.001 223.992H431.999C445.249 223.992 455.999 213.242 455.999 199.992S445.249 175.992 431.999 175.992H415.999V55.992C415.999 47.336 411.343 39.367 403.814 35.117C396.282 30.805 387.032 31.023 379.657 35.398L339.657 59.398C328.282 66.242 324.595 80.961 331.407 92.336C338.22 103.68 352.907 107.398 364.345 100.586L368.001 98.367V175.992H352.001ZM391.999 256C343.398 256 303.997 295.398 303.997 344C303.997 386.055 333.546 421.102 372.982 429.812L357.437 448.812C349.03 459.062 350.53 474.188 360.812 482.562C365.249 486.219 370.624 488 375.999 488C382.937 488 389.843 485 394.562 479.188C465.101 392.973 479.999 382.535 479.999 344C479.999 295.398 440.601 256 391.999 256ZM421.249 370.82L419.806 372.582C412.597 379.594 402.825 384 391.999 384C369.943 384 351.997 366.055 351.997 344S369.943 304 391.999 304S431.999 321.945 431.999 344C431.999 354.398 427.777 363.699 421.249 370.82ZM206.372 335.961L151.999 394.914V56.023C151.999 42.758 141.249 32 127.999 32S103.999 42.758 103.999 56.023V394.914L49.626 335.961C44.907 330.836 38.47 328.242 32.001 328.242C26.189 328.242 20.345 330.336 15.722 334.617C5.972 343.594 5.378 358.797 14.378 368.555L110.374 472.633C119.437 482.453 136.562 482.453 145.624 472.633L241.62 368.555C250.62 358.797 250.027 343.594 240.277 334.617C230.497 325.547 215.31 326.203 206.372 335.961Z"/></svg>