<svg xmlns="http://www.w3.org/2000/svg" viewBox="0 0 512 512"><!-- Font Awesome Pro 6.0.0-alpha2 by @fontawesome - https://fontawesome.com License - https://fontawesome.com/license (Commercial License) --><path d="M415.999 320H319.999C302.4 320 287.999 334.398 287.999 352V448C287.999 465.602 302.4 480 319.999 480H415.999C433.599 480 447.999 465.602 447.999 448V352C447.999 334.398 433.599 320 415.999 320ZM399.999 432H335.999V368H399.999V432ZM479.999 32H319.999C302.325 32 287.999 46.328 287.999 64V224C287.999 241.672 302.325 256 319.999 256H479.999C497.673 256 511.999 241.672 511.999 224V64C511.999 46.328 497.673 32 479.999 32ZM463.999 208H335.999V80H463.999V208ZM145.624 39.367C136.562 29.547 119.437 29.547 110.374 39.367L14.378 143.445C5.378 153.203 5.972 168.406 15.722 177.383C20.345 181.664 26.189 183.758 32.001 183.758C38.47 183.758 44.907 181.164 49.626 176.039L103.999 117.086V455.977C103.999 469.242 114.749 480 127.999 480S151.999 469.242 151.999 455.977V117.086L206.372 176.039C215.31 185.797 230.497 186.453 240.277 177.383C250.027 168.406 250.62 153.203 241.62 143.445L145.624 39.367Z"/></svg>