<svg xmlns="http://www.w3.org/2000/svg" viewBox="0 0 512 512"><!-- Font Awesome Pro 6.0.0-alpha2 by @fontawesome - https://fontawesome.com License - https://fontawesome.com/license (Commercial License) --><path d="M327.993 80H390.929L309.056 185.242C303.433 192.492 302.402 202.305 306.431 210.523C310.462 218.773 318.837 223.992 327.993 223.992H439.989C453.238 223.992 463.988 213.242 463.988 199.992S453.238 175.992 439.989 175.992H377.054L458.925 70.75C464.55 63.5 465.581 53.688 461.55 45.469C457.519 37.219 449.144 32 439.989 32H327.993C314.743 32 303.995 42.75 303.995 56S314.743 80 327.993 80ZM477.456 445.266L405.458 301.266C397.335 284.961 370.648 284.961 362.523 301.266L290.527 445.266C284.589 457.109 289.402 471.516 301.277 477.453C313.181 483.391 327.525 478.609 333.462 466.703L338.821 455.984H429.161L434.521 466.703C438.739 475.141 447.206 479.984 456.019 479.984C459.613 479.984 463.269 479.172 466.706 477.453C478.581 471.516 483.394 457.109 477.456 445.266ZM362.821 407.984L383.991 365.641L405.163 407.984H362.821ZM206.372 335.961L151.999 394.914V56.023C151.999 42.758 141.249 32 127.999 32S103.999 42.758 103.999 56.023V394.914L49.626 335.961C44.907 330.836 38.47 328.242 32.001 328.242C26.189 328.242 20.345 330.336 15.722 334.617C5.972 343.594 5.378 358.797 14.378 368.555L110.374 472.633C119.437 482.453 136.562 482.453 145.624 472.633L241.62 368.555C250.62 358.797 250.027 343.594 240.277 334.617C230.497 325.547 215.31 326.203 206.372 335.961Z"/></svg>