<svg xmlns="http://www.w3.org/2000/svg" viewBox="0 0 512 512"><!-- Font Awesome Pro 6.0.0-alpha2 by @fontawesome - https://fontawesome.com License - https://fontawesome.com/license (Commercial License) --><path d="M327.993 80H390.929L309.056 185.242C303.433 192.492 302.402 202.305 306.431 210.523C310.462 218.773 318.837 223.992 327.993 223.992H439.989C453.238 223.992 463.988 213.242 463.988 199.992S453.238 175.992 439.989 175.992H377.054L458.925 70.75C464.55 63.5 465.581 53.688 461.55 45.469C457.519 37.219 449.144 32 439.989 32H327.993C314.743 32 303.995 42.75 303.995 56S314.743 80 327.993 80ZM477.456 445.266L405.458 301.27C397.335 284.961 370.648 284.961 362.523 301.27L290.527 445.266C284.589 457.109 289.402 471.516 301.277 477.453C313.181 483.391 327.525 478.609 333.462 466.703L338.821 455.984H429.161L434.521 466.703C438.739 475.141 447.206 479.984 456.019 479.984C459.613 479.984 463.269 479.172 466.706 477.453C478.581 471.516 483.394 457.109 477.456 445.266ZM362.82 407.984L383.991 365.641L405.161 407.984H362.82ZM145.624 39.367C136.562 29.547 119.437 29.547 110.374 39.367L14.378 143.445C5.378 153.203 5.972 168.406 15.722 177.383C20.345 181.664 26.189 183.758 32.001 183.758C38.47 183.758 44.907 181.164 49.626 176.039L103.999 117.086V455.977C103.999 469.242 114.749 480 127.999 480S151.999 469.242 151.999 455.977V117.086L206.372 176.039C215.31 185.797 230.497 186.453 240.277 177.383C250.027 168.406 250.62 153.203 241.62 143.445L145.624 39.367Z"/></svg>