<svg xmlns="http://www.w3.org/2000/svg" viewBox="0 0 512 512"><!-- Font Awesome Pro 6.0.0-alpha2 by @fontawesome - https://fontawesome.com License - https://fontawesome.com/license (Commercial License) --><path d="M439.989 432H377.054L458.925 326.75C464.55 319.5 465.581 309.688 461.55 301.469C457.519 293.219 449.144 288 439.989 288H327.993C314.743 288 303.995 298.75 303.995 312S314.743 336 327.993 336H390.929L309.056 441.25C303.433 448.5 302.402 458.312 306.431 466.531C310.462 474.781 318.837 480 327.993 480H439.989C453.238 480 463.988 469.25 463.988 456S453.238 432 439.989 432ZM477.456 189.281L405.458 45.281C397.335 28.969 370.648 28.969 362.523 45.281L290.527 189.281C284.589 201.125 289.402 215.531 301.277 221.469C313.181 227.406 327.525 222.625 333.462 210.719L338.821 200H429.161L434.521 210.719C438.739 219.156 447.206 224 456.019 224C459.613 224 463.269 223.188 466.706 221.469C478.581 215.531 483.394 201.125 477.456 189.281ZM362.82 152L383.991 109.656L405.163 152H362.82ZM206.372 335.961L151.999 394.914V56.023C151.999 42.758 141.249 32 127.999 32S103.999 42.758 103.999 56.023V394.914L49.626 335.961C44.907 330.836 38.47 328.242 32.001 328.242C26.189 328.242 20.345 330.336 15.722 334.617C5.972 343.594 5.378 358.797 14.378 368.555L110.374 472.633C119.437 482.453 136.562 482.453 145.624 472.633L241.62 368.555C250.62 358.797 250.027 343.594 240.277 334.617C230.497 325.547 215.31 326.203 206.372 335.961Z"/></svg>