<svg xmlns="http://www.w3.org/2000/svg" viewBox="0 0 448 512"><!-- Font Awesome Pro 6.0.0-alpha2 by @fontawesome - https://fontawesome.com License - https://fontawesome.com/license (Commercial License) --><path d="M424 320C437.254 320 448 330.746 448 344V416C448 469.02 405.02 512 352 512H96C42.98 512 0 469.02 0 416V344C0 330.746 10.742 320 24 320C37.254 320 48 330.746 48 344V416C48 442.4 69.602 464 96 464H352C378.398 464 400 442.4 400 416V344C400 330.746 410.742 320 424 320ZM207.562 6.539L71.562 134.536C61.875 143.63 61.438 158.817 70.531 168.442C79.594 178.098 94.781 178.566 104.438 169.473L200 79.557V328.001C200 341.25 210.75 352 224 352S248 341.25 248 328.001V79.557L343.562 169.473C353.219 178.566 368.406 178.098 377.469 168.442C381.844 163.817 384 157.911 384 152.004C384 145.63 381.469 139.255 376.438 134.536L240.438 6.539C231.219 -2.18 216.781 -2.18 207.562 6.539Z"/></svg>