<svg xmlns="http://www.w3.org/2000/svg" viewBox="0 0 384 512"><!-- Font Awesome Pro 6.0.0-alpha2 by @fontawesome - https://fontawesome.com License - https://fontawesome.com/license (Commercial License) --><path d="M360 431.968H24C10.75 431.968 0 442.725 0 455.984C0 469.243 10.75 480 24 480H360C373.25 480 384 469.243 384 455.984C384 442.725 373.25 431.968 360 431.968ZM302.531 207.679L216 299.654V56.016C216 42.757 205.25 32 192 32S168 42.757 168 56.016V299.654L81.469 207.679C76.75 202.644 70.375 200.111 64 200.111C58.094 200.111 52.188 202.269 47.562 206.647C37.906 215.716 37.438 230.913 46.531 240.576L174.531 376.666C183.594 386.36 200.406 386.36 209.469 376.666L337.469 240.576C346.562 230.913 346.094 215.716 336.437 206.647C326.812 197.547 311.625 197.985 302.531 207.679Z"/></svg>