<svg xmlns="http://www.w3.org/2000/svg" viewBox="0 0 512 512"><!-- Font Awesome Pro 6.0.0-alpha2 by @fontawesome - https://fontawesome.com License - https://fontawesome.com/license (Commercial License) --><path d="M448.005 32H320.003C302.329 32 288.003 46.328 288.003 64V192C288.003 209.672 302.329 224 320.003 224H448.005C465.679 224 480.005 209.672 480.005 192V64C480.005 46.328 465.679 32 448.005 32ZM432.005 176H336.003V80H432.005V176ZM492.132 438.875L409.005 301.75C403.63 293.125 394.13 288 384.005 288C373.878 288 364.503 293.125 359.128 301.75L275.876 438.875C264.876 457.125 278.626 480 300.878 480H467.13C489.382 480 503.132 457.125 492.132 438.875ZM336.253 432L384.005 353.125L431.755 432H336.253ZM241.62 368.553C250.62 358.795 250.027 343.596 240.277 334.619C235.654 330.338 229.81 328.24 223.997 328.24C217.529 328.24 211.091 330.838 206.372 335.963L151.999 394.916V56.021C151.999 42.76 141.249 32.002 127.999 32.002S103.999 42.76 103.999 56.021V394.916L49.626 335.963C40.689 326.205 25.501 325.549 15.722 334.619C5.972 343.596 5.378 358.795 14.378 368.553L110.374 472.635C119.437 482.455 136.562 482.455 145.624 472.635L241.62 368.553Z"/></svg>