<svg xmlns="http://www.w3.org/2000/svg" viewBox="0 0 448 512"><!-- Font Awesome Pro 6.0.0-alpha2 by @fontawesome - https://fontawesome.com License - https://fontawesome.com/license (Commercial License) --><path d="M418.217 368C413.78 375.688 405.717 380 397.405 380C393.342 380 389.217 378.969 385.436 376.781L248.217 297.564V456C248.217 469.25 237.467 480 224.217 480S200.217 469.25 200.217 456V297.564L62.998 376.781C59.217 378.969 55.092 380 51.03 380C42.717 380 34.655 375.688 30.217 368C23.592 356.531 27.53 341.844 38.998 335.219L176.221 256L38.998 176.781C27.53 170.156 23.592 155.469 30.217 144C36.811 132.562 51.498 128.531 62.998 135.219L200.217 214.436V56C200.217 42.75 210.967 32 224.217 32S248.217 42.75 248.217 56V214.436L385.436 135.219C396.967 128.531 411.592 132.562 418.217 144C424.842 155.469 420.905 170.156 409.436 176.781L272.213 256L409.436 335.219C420.905 341.844 424.842 356.531 418.217 368Z"/></svg>