<svg xmlns="http://www.w3.org/2000/svg" viewBox="0 0 640 512"><!-- Font Awesome Pro 6.0.0-alpha2 by @fontawesome - https://fontawesome.com License - https://fontawesome.com/license (Commercial License) --><path d="M95.999 432C87.177 432 79.999 424.822 79.999 416V159.396L31.999 121.775V416C31.999 451.346 60.654 480 95.999 480H489.048L427.806 432H95.999ZM173.013 232.299L130.531 317.266C124.593 329.125 129.406 343.531 141.281 349.469C153.156 355.438 167.562 350.594 173.468 338.734L182.835 320H265.163L274.531 338.734C278.749 347.141 287.218 352 296.031 352C299.624 352 303.281 351.188 306.718 349.469C309.843 347.906 312.402 345.713 314.482 343.178L233.874 280H202.835L211.574 262.521L173.013 232.299ZM630.812 469.109L600.076 445.02C604.699 436.234 607.999 426.65 607.999 416V96C607.999 60.652 579.347 32 543.999 32H95.999C89.353 32 83.038 33.178 77.037 35.074L38.812 5.113C28.343 -3.059 13.312 -1.246 5.109 9.191C-3.063 19.629 -1.235 34.723 9.187 42.895L601.187 506.891C605.593 510.328 610.796 512 615.984 512C623.109 512 630.156 508.844 634.89 502.812C643.062 492.375 641.234 477.281 630.812 469.109ZM419.679 303.629L383.999 275.664V208H415.999C442.468 208 463.999 229.531 463.999 256C463.999 281.209 444.406 301.713 419.679 303.629ZM559.999 413.607L464.212 338.533C492.652 321.852 511.999 291.287 511.999 256C511.999 203.062 468.937 160 415.999 160H359.999C346.749 160 335.999 170.75 335.999 184V238.043L134.359 80H543.999C552.822 80 559.999 87.178 559.999 96V413.607Z"/></svg>