<svg xmlns="http://www.w3.org/2000/svg" viewBox="0 0 576 512"><!-- Font Awesome Pro 6.0.0-alpha2 by @fontawesome - https://fontawesome.com License - https://fontawesome.com/license (Commercial License) --><path d="M512 32H64C28.654 32 0 60.652 0 96V416C0 451.346 28.654 480 64 480H512C547.348 480 576 451.346 576 416V96C576 60.652 547.348 32 512 32ZM528 416C528 424.822 520.822 432 512 432H64C55.178 432 48 424.822 48 416V96C48 87.178 55.178 80 64 80H512C520.822 80 528 87.178 528 96V416ZM213.469 173.266C205.344 157.016 178.656 157.016 170.531 173.266L98.531 317.266C92.594 329.125 97.406 343.531 109.281 349.469C121.156 355.438 135.562 350.594 141.469 338.734L150.836 320H233.164L242.531 338.734C246.75 347.141 255.219 352 264.031 352C267.625 352 271.281 351.188 274.719 349.469C286.594 343.531 291.406 329.125 285.469 317.266L213.469 173.266ZM170.836 280L192 237.672L213.164 280H170.836ZM384 160H328C314.75 160 304 170.75 304 184V328C304 341.25 314.75 352 328 352H384C436.938 352 480 308.938 480 256S436.938 160 384 160ZM384 304H352V208H384C410.469 208 432 229.531 432 256S410.469 304 384 304Z"/></svg>