<svg xmlns="http://www.w3.org/2000/svg" viewBox="0 0 640 512"><!-- Font Awesome Pro 6.0.0-alpha2 by @fontawesome - https://fontawesome.com License - https://fontawesome.com/license (Commercial License) --><path d="M9.374 434.734C-3.125 447.234 -3.125 467.492 9.374 479.992L32.008 502.625C38.258 508.875 46.448 512 54.637 512S71.016 508.875 77.264 502.625L308.438 271.437L240.563 203.562L9.374 434.734ZM525.75 160L472.813 107.062L502.627 77.25C515.125 64.75 515.125 44.488 502.627 31.992L480.008 9.375C473.76 3.125 465.571 0 457.381 0S441.002 3.125 434.752 9.375L404.938 39.188L375.125 9.375C368.875 3.125 360.688 0 352.5 0S336.125 3.125 329.875 9.375L233.377 105.859C220.879 118.352 220.879 138.613 233.375 151.109L384 301.734V416H416C539.711 416 640 315.711 640 192V160H525.75ZM432 367.277V281.852L417.942 267.793L278.635 128.484L352.5 54.633L370.999 73.129L404.93 107.062L491.809 193.941L505.87 208H591.28C583.651 292.312 516.313 359.648 432 367.277Z"/></svg>