<svg xmlns="http://www.w3.org/2000/svg" viewBox="0 0 512 512"><!-- Font Awesome Pro 6.0.0-alpha2 by @fontawesome - https://fontawesome.com License - https://fontawesome.com/license (Commercial License) --><path d="M488.001 95.943H456.001C425.073 95.943 400.001 121.018 400.001 151.95V191.956H293.251L189.126 28.183C179.876 13.681 164.751 3.68 147.251 0.804C130.126 -1.946 112.876 2.43 99.751 12.806C41.126 59.688 -0.249 138.698 0.001 215.959C0.251 266.091 17.626 315.473 60.251 354.728C21.009 364.825 -6.913 403.713 1.505 447.658C7.466 478.775 32.366 504.152 63.433 510.345C114.971 520.619 160.001 481.658 160.001 431.989C160.001 423.113 158.251 414.737 155.626 406.735C177.251 412.736 200.251 415.987 224.001 415.987S270.876 412.736 292.376 406.735C286.57 424.434 285.044 443.967 297.271 466.689C311.641 493.395 338.86 512.427 369.181 511.991C412.885 511.363 448.001 475.851 448.001 431.989C448.001 394.734 422.251 363.604 387.751 354.728C425.001 320.349 448.001 274.592 448.001 223.96V151.95C448.001 147.55 451.601 143.949 456.001 143.949H488.001C501.201 143.949 512.001 133.148 512.001 119.946V119.946C512.001 106.744 501.201 95.943 488.001 95.943ZM80.001 463.993C62.376 463.993 48.001 449.616 48.001 431.989C48.001 414.361 62.376 399.984 80.001 399.984S112.001 414.361 112.001 431.989C112.001 449.616 97.626 463.993 80.001 463.993ZM400.001 431.989C400.001 449.616 385.626 463.993 368.001 463.993S336.001 449.616 336.001 431.989C336.001 414.361 350.376 399.984 368.001 399.984S400.001 414.361 400.001 431.989ZM224.001 367.98C133.626 367.98 58.751 311.847 49.126 239.962H398.876C389.251 311.847 314.376 367.98 224.001 367.98Z"/></svg>