<svg xmlns="http://www.w3.org/2000/svg" viewBox="0 0 512 512"><!-- Font Awesome Pro 6.0.0-alpha2 by @fontawesome - https://fontawesome.com License - https://fontawesome.com/license (Commercial License) --><path d="M223.751 64C216.75 64 209.607 66.305 203.462 71.406L11.439 231.379C-3.813 244.252 -3.813 267.748 11.439 280.621L203.462 440.594C209.607 445.693 216.751 448 223.751 448C240.255 448 255.968 435.191 255.968 415.973V96.027C255.968 76.811 240.253 64 223.751 64ZM207.968 381.873L56.875 256L207.968 130.125V381.873ZM495.375 67.953C485.125 62.328 472.687 62.781 462.843 69.016L299.125 173.188C287.937 180.297 284.625 195.141 291.75 206.328C298.843 217.516 313.687 220.812 324.875 213.688L464 125.172V386.828L324.875 298.312C313.687 291.188 298.843 294.484 291.75 305.672C284.625 316.859 287.937 331.703 299.125 338.812L462.812 442.969C468.031 446.312 474.031 447.984 480 447.984C485.281 447.984 490.593 446.672 495.375 444.047C505.625 438.422 512 427.672 512 415.984V96.016C512 84.328 505.625 73.578 495.375 67.953Z"/></svg>