<svg xmlns="http://www.w3.org/2000/svg" viewBox="0 0 512 512"><!-- Font Awesome Pro 6.0.0-alpha2 by @fontawesome - https://fontawesome.com License - https://fontawesome.com/license (Commercial License) --><path d="M112 320H218.25L122.25 224H112C103.25 224 96 231.25 96 240V304C96 312.75 103.25 320 112 320ZM320.625 128C305 128 292 116.75 289.25 102.125C288.5 98.5 285.25 96 281.5 96H265.25C260.25 96 256.625 100.5 257.25 105.375C261.875 136.25 288.5 160 320.625 160C336.25 160 349.25 171.25 352 185.875C352.75 189.5 356 192 359.75 192H375.875C380.875 192 384.625 187.5 383.875 182.625C379.25 151.75 352.75 128 320.625 128ZM256 0C114.625 0 0 114.625 0 256S114.625 512 256 512S512 397.375 512 256S397.375 0 256 0ZM256 464C141.25 464 48 370.75 48 256C48 207.25 65 162.5 93.125 127L385 418.875C349.5 447 304.75 464 256 464ZM289.875 256H384V288H321.875L289.875 256ZM418.875 385L353.875 320H400C408.75 320 416 312.75 416 304V240C416 231.25 408.75 224 400 224H257.875L127 93.125C162.5 65 207.25 48 256 48C370.75 48 464 141.25 464 256C464 304.75 447 349.5 418.875 385Z"/></svg>