<svg xmlns="http://www.w3.org/2000/svg" viewBox="0 0 640 512"><!-- Font Awesome Pro 6.0.0-alpha2 by @fontawesome - https://fontawesome.com License - https://fontawesome.com/license (Commercial License) --><path d="M616 232H24C10.75 232 0 242.75 0 256S10.75 280 24 280H616C629.25 280 640 269.25 640 256S629.25 232 616 232ZM272 56C272 42.8 261.2 32 248 32H248C234.8 32 224 42.8 224 56V192H272V56ZM384 56C384 42.8 373.2 32 360 32H360C346.8 32 336 42.8 336 56V192H384V56ZM191.982 47.998C191.982 39.199 184.785 32 175.984 32C167.186 32 159.988 39.199 159.988 47.998V192H191.982V47.998ZM495.996 47.998C495.996 39.199 488.797 32 479.998 32S464 39.199 464 47.998V192H495.996V47.998ZM112 56C112 42.8 101.2 32 88 32H88C74.8 32 64 42.8 64 56V192H112V56ZM576 56C576 42.8 565.2 32 552 32L552 32C538.8 32 528 42.8 528 56V192H576V56ZM464 464.002C464 472.801 471.199 480 479.998 480S495.996 472.801 495.996 464.002V320H464V464.002ZM528 456C528 469.2 538.8 480 552 480L552 480C565.2 480 576 469.2 576 456V320H528V456ZM64 456C64 469.2 74.8 480 88 480H88C101.2 480 112 469.2 112 456V320H64V456ZM336 456C336 469.2 346.8 480 360 480H360C373.2 480 384 469.2 384 456V320H336V456ZM224 456C224 469.2 234.8 480 248 480H248C261.2 480 272 469.2 272 456V320H224V456ZM159.988 464.002C159.988 472.801 167.186 480 175.986 480C184.785 480 191.982 472.801 191.982 464.002V320H159.988V464.002Z"/></svg>