<svg xmlns="http://www.w3.org/2000/svg" viewBox="0 0 640 512"><!-- Font Awesome Pro 6.0.0-alpha2 by @fontawesome - https://fontawesome.com License - https://fontawesome.com/license (Commercial License) --><path d="M630.81 469.102L548.431 404.535C565.064 392.977 575.999 373.789 575.999 352V320C593.673 320 607.999 305.674 607.999 288V224C607.999 206.326 593.673 192 575.999 192V160C575.999 124.654 547.345 96 511.999 96H154.779L38.814 5.109C34.407 1.672 29.189 0 24.032 0C16.907 0 9.845 3.156 5.126 9.188C-3.061 19.625 -1.249 34.717 9.189 42.889L601.185 506.883C611.685 515.086 626.747 513.211 634.872 502.805C643.06 492.367 641.247 477.273 630.81 469.102ZM527.999 352C527.999 360.822 520.822 368 511.999 368H501.818L216.021 144H511.999C520.822 144 527.999 151.178 527.999 160V352ZM95.999 368C87.177 368 79.999 360.822 79.999 352V160C79.999 159.812 80.101 159.66 80.107 159.475L40.599 128.51C35.28 137.842 31.999 148.49 31.999 160V352C31.999 387.346 60.654 416 95.999 416H407.402L346.159 368H95.999Z"/></svg>