<svg xmlns="http://www.w3.org/2000/svg" viewBox="0 0 576 512"><!-- Font Awesome Pro 6.0.0-alpha2 by @fontawesome - https://fontawesome.com License - https://fontawesome.com/license (Commercial License) --><path d="M48 352V160C48 151.178 55.178 144 64 144H200V96H64C28.654 96 0 124.654 0 160V352C0 387.346 28.654 416 64 416H192C192 397.943 198.197 381.406 208.324 368H64C55.178 368 48 360.822 48 352ZM544 192V160C544 124.654 515.346 96 480 96H344V144H480C488.822 144 496 151.178 496 160V352C496 360.822 488.822 368 480 368H335.678C345.805 381.406 352 397.943 352 416H480C515.346 416 544 387.346 544 352V320C561.674 320 576 305.674 576 288V224C576 206.326 561.674 192 544 192ZM272 336C285.256 336 296 325.254 296 312V88C296 74.744 285.256 64 272 64S248 74.744 248 88V312C248 325.254 258.744 336 272 336ZM272 384C254.361 384 240 398.354 240 416.002C240 433.643 254.361 448 272 448S304 433.643 304 416.002C304 398.354 289.639 384 272 384Z"/></svg>