<svg xmlns="http://www.w3.org/2000/svg" viewBox="0 0 512 512"><!-- Font Awesome Pro 6.0.0-alpha2 by @fontawesome - https://fontawesome.com License - https://fontawesome.com/license (Commercial License) --><path d="M80 160C80 142.4 94.4 128 112 128H208C225.6 128 240 142.4 240 160V192H272V160C272 142.4 286.4 128 304 128H400C417.6 128 432 142.4 432 160V192H480V96C480 60.8 451.2 32 416 32H96C60.8 32 32 60.8 32 96V192H80V160ZM448 224H64C28.654 224 0 252.654 0 288V456C0 469.255 10.745 480 24 480H24C37.255 480 48 469.255 48 456V416H464V456C464 469.255 474.745 480 488 480L488 480C501.255 480 512 469.255 512 456V288C512 252.654 483.346 224 448 224ZM464 368H48V288C48 279.125 55.125 272 64 272H448C456.875 272 464 279.125 464 288V368Z"/></svg>