<svg xmlns="http://www.w3.org/2000/svg" viewBox="0 0 640 512"><!-- Font Awesome Pro 6.0.0-alpha2 by @fontawesome - https://fontawesome.com License - https://fontawesome.com/license (Commercial License) --><path d="M241.996 253.875C214.123 177.262 246.996 93.277 315.742 54.156C307.242 48.535 298.242 43.66 288.244 40.035C218.998 14.914 142.504 50.656 117.256 119.773C116.506 121.898 102.631 160.266 101.881 162.391C72.758 242.5 35.512 256.75 14.512 267.375C-5.611 277.746 -4.986 307.992 17.512 316.238L260.746 404.727C269.244 385.602 280.244 359.234 257.496 296.617C247.746 269.625 251.246 279.496 241.996 253.875ZM138.129 444.219C165.752 454.219 195.625 443.844 211.873 420.969L96.506 378.977C94.258 406.852 110.381 434.094 138.129 444.219ZM501.854 476.211C529.477 466.086 545.727 438.969 543.477 410.973L428.109 452.969C444.358 475.711 474.231 486.211 501.854 476.211ZM625.596 299.367C604.598 288.746 567.225 274.496 538.227 194.387C537.352 192.262 523.479 153.891 522.729 151.766C502.977 97.699 451.863 64.055 397.393 64.055C382.233 64.055 366.815 66.66 351.74 72.156C282.619 97.277 246.871 173.766 272.121 243.004C272.871 245.125 286.869 283.371 287.744 285.621C316.867 365.73 297.369 400.477 288.244 422.223C280.629 439.918 294.277 459.27 312.518 459.27C315.535 459.27 318.674 458.742 321.867 457.59L622.471 348.234C642.971 340.734 647.346 310.617 625.596 299.367ZM347.553 397.168C353.582 368.273 353.934 327.207 332.553 268.41C331.231 264.926 318.365 229.773 317.215 226.559C309.408 205.148 310.41 181.988 320.035 161.34C329.66 140.695 346.742 125.043 368.182 117.254C377.643 113.805 387.469 112.055 397.393 112.055C433.117 112.055 465.367 134.633 477.465 167.742C477.58 168.07 489.68 201.66 493.094 210.723C514.215 269.074 540.783 300.195 564.012 318.422L347.553 397.168Z"/></svg>