<svg xmlns="http://www.w3.org/2000/svg" viewBox="0 0 576 512"><!-- Font Awesome Pro 6.0.0-alpha2 by @fontawesome - https://fontawesome.com License - https://fontawesome.com/license (Commercial License) --><path d="M287.964 112.031C306.591 112.031 324.218 115.779 340.845 121.652C354.095 111.281 364.347 97.285 370.347 80.914C345.095 70.041 317.343 63.918 288.089 63.918C258.962 63.918 231.21 69.916 205.956 80.789C211.833 97.285 222.208 111.281 235.46 121.527C251.962 115.779 269.462 112.031 287.964 112.031ZM387.849 396.078C391.974 412.074 400.351 426.695 412.351 438.566C459.855 403.076 491.484 347.842 495.359 285.109C488.234 283.109 480.732 282.109 473.232 282.109C463.982 282.109 455.23 283.984 446.605 286.732C442.48 330.971 420.603 369.711 387.849 396.078ZM163.702 438.691C175.704 426.82 184.079 412.199 188.206 396.203C155.327 369.836 133.325 330.971 129.325 286.732C120.823 283.859 112.073 282.109 102.821 282.109C95.321 282.109 87.696 283.109 80.32 285.234C84.446 347.967 116.198 403.201 163.702 438.691ZM575.491 283.484C562.364 244.369 535.987 211.504 501.359 191.135C483.859 180.762 465.107 174.514 446.105 171.264C452.105 153.52 456.105 134.775 456.105 115.029C456.105 74.041 441.605 34.301 415.101 2.811C412.601 -0.189 408.476 -0.814 405.101 1.061C401.851 2.936 400.351 7.059 401.476 10.809C405.976 24.555 408.101 37.051 408.101 49.297C408.101 117.029 354.345 172.139 288.089 172.139S168.079 117.029 168.079 49.297C168.079 37.176 170.329 24.555 174.704 10.809C175.829 7.059 174.329 2.936 171.079 1.061C167.704 -0.814 163.577 -0.189 161.077 2.811C134.7 34.301 120.073 74.041 120.073 115.029C120.073 134.775 123.948 153.52 130.075 171.264C111.198 174.514 92.321 180.762 74.82 191.135C40.193 211.629 13.814 244.369 0.439 283.484C-0.811 287.232 0.689 291.232 3.939 293.232C7.314 295.23 11.439 294.605 13.939 291.732C23.316 280.859 32.941 272.611 43.193 266.613C100.446 232.748 173.954 252.867 207.081 311.602C240.21 370.211 220.458 445.564 163.202 479.432C152.952 485.555 141.2 489.803 127.325 492.803C123.698 493.678 120.948 497.051 120.948 500.926C121.073 504.924 123.698 508.174 127.45 508.924C167.204 516.672 208.081 509.674 242.71 489.178C260.712 478.682 275.589 464.686 287.964 449.189C300.341 464.686 315.343 478.682 333.343 489.178C367.847 509.674 408.851 516.672 448.48 508.924C452.355 508.174 454.855 504.924 454.98 500.926C454.98 497.051 452.355 493.678 448.605 492.803C434.728 489.928 422.978 485.555 412.851 479.432C355.472 445.564 335.845 370.211 368.847 311.602C401.976 252.867 475.482 232.748 532.862 266.613C542.987 272.736 552.614 280.859 561.989 291.732C564.489 294.605 568.741 295.23 571.991 293.232C575.366 291.232 576.866 287.232 575.491 283.484ZM287.964 320.1C261.462 320.1 239.96 298.605 239.96 272.111C239.96 245.619 261.462 224.125 287.964 224.125C314.468 224.125 335.97 245.619 335.97 272.111C335.97 298.605 314.468 320.1 287.964 320.1Z"/></svg>