<svg xmlns="http://www.w3.org/2000/svg" viewBox="0 0 512 512"><!-- Font Awesome Pro 6.0.0-alpha2 by @fontawesome - https://fontawesome.com License - https://fontawesome.com/license (Commercial License) --><path d="M494.775 432.406C490.557 419.844 477.057 413.094 464.402 417.219C451.84 421.437 445.027 435 449.215 447.594L454.684 464H57.316L62.785 447.594C66.973 435 60.16 421.438 47.598 417.219C34.912 413.094 21.443 419.844 17.225 432.406L1.225 480.406C-1.213 487.719 0.037 495.781 4.537 502.031S16.287 512 24.006 512H487.994C495.713 512 502.963 508.281 507.463 502.031S513.213 487.719 510.775 480.406L494.775 432.406ZM494.775 304.406C490.557 291.844 477.057 285.094 464.402 289.219C451.84 293.437 445.027 307 449.215 319.594L454.684 336H57.316L62.785 319.594C66.973 307 60.16 293.438 47.598 289.219C34.912 285.125 21.443 291.844 17.225 304.406L1.225 352.406C-1.213 359.719 0.037 367.781 4.537 374.031S16.287 384 24.006 384H487.994C495.713 384 502.963 380.281 507.463 374.031S513.213 359.719 510.775 352.406L494.775 304.406ZM494.221 46.742C504.377 43.947 511.994 35.041 511.994 24C511.994 10.75 501.244 0 487.994 0H24.006C10.756 0 0.006 10.75 0.006 24C0.006 35.041 7.625 43.947 17.779 46.742L1.225 96.406C-1.213 103.719 0.037 111.781 4.537 118.031S16.287 128 24.006 128H144.002V164.408C116.102 174.326 96.004 200.697 96.004 232C96.004 271.764 128.24 304 168.002 304C207.766 304 240 271.764 240 232C240 200.697 219.902 174.326 192.002 164.408V48H444.018L454.684 80H224V128H487.994C495.713 128 502.963 124.281 507.463 118.031S513.213 103.719 510.775 96.406L494.221 46.742ZM57.316 80L67.983 48H144.002V80H57.316ZM168.002 256C154.768 256 144.002 245.234 144.002 232S154.768 208 168.002 208S192.002 218.766 192.002 232S181.236 256 168.002 256ZM494.775 176.406C490.557 163.844 477.057 157.125 464.402 161.219C451.84 165.437 445.027 179 449.215 191.594L454.684 208H268.943C270.779 215.736 272 223.701 272 232S270.779 248.264 268.943 256H487.994C495.713 256 502.963 252.281 507.463 246.031S513.213 231.719 510.775 224.406L494.775 176.406ZM47.598 161.219C34.912 157.156 21.443 163.844 17.225 176.406L1.225 224.406C-1.213 231.719 0.037 239.781 4.537 246.031S16.287 256 24.006 256H67.061C65.225 248.264 64.004 240.299 64.004 232S65.225 215.736 67.061 208H57.316L62.785 191.594C66.973 179 60.16 165.438 47.598 161.219Z"/></svg>