<svg xmlns="http://www.w3.org/2000/svg" viewBox="0 0 640 512"><!-- Font Awesome Pro 6.0.0-alpha2 by @fontawesome - https://fontawesome.com License - https://fontawesome.com/license (Commercial License) --><path d="M407.983 159.983C414.139 159.983 420.264 157.64 424.951 152.953L472.948 104.958C482.322 95.584 482.322 80.398 472.948 71.024C463.573 61.65 448.387 61.65 439.013 71.024L391.016 119.019C381.642 128.393 381.642 143.579 391.016 152.953C395.703 157.64 401.828 159.983 407.983 159.983ZM319.99 127.987C333.239 127.987 343.988 117.238 343.988 103.989V23.998C343.988 10.749 333.239 0 319.99 0C306.741 0 295.991 10.749 295.991 23.998V103.989C295.991 117.238 306.741 127.987 319.99 127.987ZM215.028 152.953C219.716 157.64 225.84 159.983 231.996 159.983S244.276 157.64 248.964 152.953C258.338 143.579 258.338 128.393 248.964 119.019L200.967 71.024C191.593 61.65 176.406 61.65 167.032 71.024S157.658 95.584 167.032 104.958L215.028 152.953ZM582.471 198.386C538.818 181.887 488.915 198.636 466.136 237.569C463.198 242.631 456.73 245.225 451.73 244.662L373.236 227.102C360.268 224.071 347.488 232.32 344.582 245.256S349.8 271.034 362.737 273.909L442.606 291.751C468.417 295.938 494.759 283.908 507.758 261.504C518.694 242.787 543.411 235.007 565.504 243.256C584.127 250.318 594.97 269.566 591.283 288.939L590.564 292.72C587.721 307.656 575.878 319.654 559.504 324.091C546.067 327.872 536.318 338.59 534.037 352.089C531.787 365.4 537.349 378.523 548.786 386.46C561.848 395.334 568.253 409.864 565.472 424.456L564.816 428.049C560.973 448.11 543.099 463.171 522.257 463.921C500.039 464.046 479.541 450.485 475.822 430.612L475.635 429.299C471.635 403.771 451.137 383.71 426.513 379.773L319.99 353.557L215.372 379.398C188.843 383.71 168.344 403.771 164.407 429.049L164.095 430.83C160.282 450.578 140.44 465.108 117.692 463.89C96.881 463.171 79.007 448.11 75.195 428.174L74.476 424.362C71.726 409.864 78.132 395.334 91.381 386.335C102.63 378.523 108.192 365.4 105.942 352.089C103.661 338.59 93.912 327.872 80.319 324.06C64.102 319.654 52.259 307.656 49.415 292.657L48.728 289.033C45.009 269.566 55.852 250.318 74.507 243.256C96.474 235.038 121.285 242.787 132.284 261.629C145.221 283.908 171.313 296.219 198.748 291.47L277.243 273.909C290.179 271.034 298.304 258.192 295.398 245.256C292.523 232.32 279.649 224.102 266.744 227.102L189.624 244.381C182.937 245.475 176.75 242.6 173.656 237.257C151.064 198.604 101.099 181.919 57.54 198.386C17.042 213.665 -6.487 255.536 1.575 298.063L2.294 301.719C7.231 327.654 23.698 349.433 46.978 362.088C30.042 381.617 22.48 407.708 27.323 433.205L28.042 437.049C36.01 478.888 73.007 510.353 115.973 511.853C162.72 514.478 204.56 481.575 211.685 437.33L211.904 436.111C212.935 431.424 217.435 427.675 224.965 426.393L319.99 402.99L416.92 426.768C422.607 427.706 427.013 431.393 428.138 436.455L428.295 437.33C435.232 480.419 474.448 511.947 520.319 511.947C521.538 511.947 522.757 511.916 523.975 511.885C566.972 510.353 603.97 478.888 611.969 436.924L612.625 433.299C617.5 407.708 609.938 381.554 593.033 362.056C616.312 349.401 632.78 327.654 637.686 301.781L638.436 297.969C646.467 255.536 622.937 213.665 582.471 198.386Z"/></svg>