<svg xmlns="http://www.w3.org/2000/svg" viewBox="0 0 448 512"><!-- Font Awesome Pro 6.0.0-alpha2 by @fontawesome - https://fontawesome.com License - https://fontawesome.com/license (Commercial License) --><path d="M424 400C437.25 400 448 389.25 448 376V24C448 10.75 437.25 0 424 0H80C35.891 0 0 35.875 0 80V432C0 476.125 35.891 512 80 512H424C437.25 512 448 501.25 448 488S437.25 464 424 464H416V400H424ZM368 464H80C62.359 464 48 449.656 48 432S62.359 400 80 400H368V464ZM400 352H80C68.625 352 57.797 354.375 48 358.688V80C48 62.344 62.359 48 80 48H192V207.971C192 221.385 207.52 228.846 217.996 220.463L272 176.002L326.004 220.463C336.48 228.846 352 221.385 352 207.971V48H400V352Z"/></svg>