<svg xmlns="http://www.w3.org/2000/svg" viewBox="0 0 448 512"><!-- Font Awesome Pro 6.0.0-alpha2 by @fontawesome - https://fontawesome.com License - https://fontawesome.com/license (Commercial License) --><path d="M191.971 194.875V208C191.971 216.875 199.096 224 207.971 224H271.971C280.846 224 287.971 216.875 287.971 208V194.875C307.346 183.25 319.971 164.875 319.971 144C319.971 108.625 284.096 80 239.971 80S159.971 108.625 159.971 144C159.971 164.875 172.596 183.25 191.971 194.875ZM271.971 128C280.846 128 287.971 135.125 287.971 144S280.846 160 271.971 160S255.971 152.875 255.971 144S263.096 128 271.971 128ZM207.971 128C216.846 128 223.971 135.125 223.971 144S216.846 160 207.971 160S191.971 152.875 191.971 144S199.096 128 207.971 128ZM424 400C437.25 400 448 389.25 448 376V24C448 10.75 437.25 0 424 0H80C35.891 0 0 35.875 0 80V432C0 476.125 35.891 512 80 512H424C437.25 512 448 501.25 448 488S437.25 464 424 464H416V400H424ZM368 464H80C62.359 464 48 449.656 48 432S62.359 400 80 400H368V464ZM400 352H80C68.625 352 57.797 354.375 48 358.688V80C48 62.344 62.359 48 80 48H400V352ZM128.828 309.062C131.062 315.75 137.297 320 144 320C145.672 320 147.375 319.75 149.062 319.188L240 288.875L330.938 319.188C332.625 319.75 334.328 320 336 320C342.703 320 348.938 315.75 351.172 309.062C353.969 300.687 349.438 291.625 341.062 288.812L290.625 272L341.062 255.188C349.438 252.375 353.969 243.312 351.172 234.938C348.391 226.562 339.391 222 330.938 224.812L240 255.125L149.062 224.812C140.578 222 131.609 226.562 128.828 234.938C126.031 243.313 130.562 252.375 138.938 255.188L189.375 272L138.938 288.812C130.562 291.625 126.031 300.688 128.828 309.062Z"/></svg>