<svg xmlns="http://www.w3.org/2000/svg" viewBox="0 0 448 512"><!-- Font Awesome Pro 6.0.0-alpha2 by @fontawesome - https://fontawesome.com License - https://fontawesome.com/license (Commercial License) --><path d="M160 223.996H208V271.996C208 280.797 215.199 288 224 288H256C264.801 288 272 280.797 272 271.996V223.996H320C328.801 223.996 336 216.797 336 208V175.996C336 167.195 328.801 160 320 160H272V112C272 103.199 264.801 96 256 96H224C215.199 96 208 103.199 208 112V160H160C151.199 160 144 167.195 144 175.996V208C144 216.797 151.199 223.996 160 223.996ZM424 400C437.25 400 448 389.25 448 376V24C448 10.75 437.25 0 424 0H80C35.891 0 0 35.875 0 80V432C0 476.125 35.891 512 80 512H424C437.25 512 448 501.25 448 488S437.25 464 424 464H416V400H424ZM368 464H80C62.359 464 48 449.656 48 432S62.359 400 80 400H368V464ZM400 352H80C68.625 352 57.797 354.375 48 358.688V80C48 62.344 62.359 48 80 48H400V352Z"/></svg>