<svg xmlns="http://www.w3.org/2000/svg" viewBox="0 0 576 512"><!-- Font Awesome Pro 6.0.0-alpha2 by @fontawesome - https://fontawesome.com License - https://fontawesome.com/license (Commercial License) --><path d="M520 160H480V208H520C524.406 208 528 211.594 528 216V320H48V216C48 211.594 51.594 208 56 208H96V160H56C25.125 160 0 185.125 0 216V456C0 486.875 25.125 512 56 512H520C550.875 512 576 486.875 576 456V216C576 185.125 550.875 160 520 160ZM528 456C528 460.406 524.406 464 520 464H56C51.594 464 48 460.406 48 456V368H528V456ZM160 256H416C433.674 256 448 241.672 448 224V32C448 14.328 433.674 0 416 0H160C142.328 0 128 14.328 128 32V224C128 241.672 142.328 256 160 256ZM176 48H400V208H176V48Z"/></svg>