<svg xmlns="http://www.w3.org/2000/svg" viewBox="0 0 640 512"><!-- Font Awesome Pro 6.0.0-alpha2 by @fontawesome - https://fontawesome.com License - https://fontawesome.com/license (Commercial License) --><path d="M228.254 344.129L320 192.029L69.76 160.133C62.885 159.258 56.26 162.76 53.26 169.014L1.762 271.832C-2.863 281.088 2.012 292.096 11.762 294.848L209.754 351.385C216.754 353.385 224.379 350.383 228.254 344.129ZM528 412.762L344 458.529V320C344 306.75 333.25 296 320 296S296 306.75 296 320V458.584L112 412.766V358.17L64 344.496V425.492C64 440.16 74 452.838 88.25 456.318L304.375 510.137C309.5 511.379 314.719 512 319.922 512S330.313 511.379 335.375 510.137L551.75 456.318C566 452.713 576 440.035 576 425.492V344.496L528 358.127V412.762ZM638.293 271.758L586.786 169.008C583.786 162.758 577.036 159.258 570.159 160.133L320 192.008L411.762 344.135C415.514 350.385 423.139 353.385 430.266 351.385L628.166 294.885C638.043 292.01 642.793 281.01 638.293 271.758ZM194.256 143.975C192.881 138.842 192.006 133.584 192.006 128.199C192.006 92.895 220.76 64.1 256.014 64.1S320.02 92.895 320.02 128.199C320.02 139.467 316.895 149.734 311.77 158.998L320.02 160L475.286 140.219L511.04 41.814C514.04 33.426 509.79 24.287 501.415 21.283L445.909 1.002C437.657 -2.004 428.407 2.254 425.407 10.641L383.776 125.195C382.026 55.836 325.77 0 256.014 0C185.256 0 128 57.34 128 128.199C128 130.703 128.625 133.082 128.75 135.586L194.256 143.975Z"/></svg>