<svg xmlns="http://www.w3.org/2000/svg" viewBox="0 0 640 512"><!-- Font Awesome Pro 6.0.0-alpha2 by @fontawesome - https://fontawesome.com License - https://fontawesome.com/license (Commercial License) --><path d="M228.254 216.129L320 64.029L69.76 32.133C62.885 31.258 56.26 34.76 53.26 41.014L1.762 143.832C-2.863 153.088 2.012 164.096 11.762 166.848L209.754 223.385C216.754 225.385 224.379 222.383 228.254 216.129ZM638.293 143.758L586.786 41.008C583.786 34.758 577.036 31.258 570.159 32.133L320 64.008L411.762 216.135C415.514 222.385 423.139 225.385 430.266 223.385L628.166 166.885C638.043 164.01 642.793 153.01 638.293 143.758ZM528 380.762L344 426.529V192C344 178.75 333.25 168 320 168S296 178.75 296 192V426.584L112 380.766V230.17L64 216.496V393.492C64 408.16 74 420.838 88.25 424.318L304.375 478.137C309.5 479.379 314.719 480 319.922 480S330.313 479.379 335.375 478.137L551.75 424.318C566 420.713 576 408.035 576 393.492V216.496L528 230.127V380.762Z"/></svg>