<svg xmlns="http://www.w3.org/2000/svg" viewBox="0 0 256 512"><!-- Font Awesome Pro 6.0.0-alpha2 by @fontawesome - https://fontawesome.com License - https://fontawesome.com/license (Commercial License) --><path d="M200 32H120C89.072 32 64 57.072 64 88V165.5C64 176.065 59.803 186.197 52.333 193.667L7 239C2.5 243.5 0 249.625 0 256C0 262.375 2.5 268.5 7 273L52.333 318.333C59.803 325.803 64 335.935 64 346.5V424C64 454.928 89.072 480 120 480H200C213.255 480 224 469.255 224 456V456C224 442.745 213.255 432 200 432H120C115.6 432 112 428.4 112 424V346.5C112 323.062 102.663 300.59 86.053 284.054L57.875 256L86.053 227.946C102.663 211.41 112 188.938 112 165.5V88C112 83.6 115.6 80 120 80H200C213.255 80 224 69.255 224 56V56C224 42.745 213.255 32 200 32Z"/></svg>