<svg xmlns="http://www.w3.org/2000/svg" viewBox="0 0 512 512"><!-- Font Awesome Pro 6.0.0-alpha2 by @fontawesome - https://fontawesome.com License - https://fontawesome.com/license (Commercial License) --><path d="M512 296.016C512 268.496 502.17 242.938 485.135 223.162C487.021 215.658 488 207.889 488 200.01C488 167.566 471.92 138.723 446.896 121.369C442.516 92.607 425.402 67.855 400.937 53.459C387.484 22.057 356.27 0 320 0C294.809 0 272.057 10.639 256 27.662C239.943 10.639 217.191 0 192 0C155.732 0 124.518 22.057 111.064 53.459C86.6 67.855 69.484 92.607 65.104 121.369C40.082 138.723 24 167.566 24 200.01C24 207.889 24.98 215.658 26.867 223.162C9.832 242.938 0 268.496 0 296.016C0 325.672 11.893 353.631 32.018 374.209C32.006 374.812 32 375.416 32 376.02C32 423.141 66.125 462.441 110.957 470.508C127.301 495.625 155.584 512 188 512C214.914 512 239.162 500.385 256 481.904C272.84 500.385 297.088 512 324 512C356.416 512 384.701 495.625 401.045 470.508C445.877 462.441 480 423.141 480 376.02C480 375.416 479.994 374.813 479.982 374.209C500.109 353.631 512 325.672 512 296.016ZM232 419.998C232 444.299 212.301 464 188 464C164.061 464 144.68 444.855 144.105 421.053C139.049 422.863 133.68 424.023 128 424.023C101.49 424.023 80 402.531 80 376.02C80 368.09 82.105 360.723 85.51 354.131C63.424 344.041 48 321.883 48 296.016C48 268.777 65.082 245.672 89.059 236.43C78.707 227.623 72 214.664 72 200.01C72 175.18 90.92 154.992 115.092 152.5C113.193 147.336 112 141.828 112 136.006C112 112.18 129.402 92.553 152.16 88.791C152.154 88.512 152 88.281 152 88.002C152 65.908 169.908 48 192 48S232 65.908 232 88.002V419.998ZM426.49 354.131C429.895 360.723 432 368.09 432 376.02C432 402.531 410.51 424.023 384 424.023C378.32 424.023 372.951 422.863 367.895 421.053C367.32 444.855 347.939 464 324 464C299.699 464 280 444.299 280 419.998V88.002C280 65.908 297.908 48 320 48S360 65.908 360 88.002C360 88.281 359.846 88.512 359.84 88.791C382.598 92.553 400 112.18 400 136.006C400 141.828 398.807 147.336 396.908 152.5C421.08 154.992 440 175.18 440 200.01C440 214.664 433.293 227.623 422.941 236.43C446.918 245.672 464 268.777 464 296.016C464 321.883 448.576 344.041 426.49 354.131Z"/></svg>