<svg xmlns="http://www.w3.org/2000/svg" viewBox="0 0 512 512"><!-- Font Awesome Pro 6.0.0-alpha2 by @fontawesome - https://fontawesome.com License - https://fontawesome.com/license (Commercial License) --><path d="M296.969 191.031C287.594 181.656 272.406 181.656 263.031 191.031S253.656 215.594 263.031 224.969L302.062 264H152C138.75 264 128 274.75 128 288S138.75 312 152 312H302.062L263.031 351.031C258.344 355.719 256 361.844 256 368S258.344 380.281 263.031 384.969C272.406 394.344 287.594 394.344 296.969 384.969L376.969 304.969C386.344 295.594 386.344 280.406 376.969 271.031L296.969 191.031ZM448 96H384V64C384 28.652 355.346 0 320 0H192C156.654 0 128 28.652 128 64V96H64C28.654 96 0 124.652 0 160V416C0 451.346 28.654 480 64 480H448C483.346 480 512 451.346 512 416V160C512 124.652 483.346 96 448 96ZM176 64C176 55.162 183.164 48 192 48H320C328.836 48 336 55.162 336 64V96H176V64ZM464 416C464 424.799 456.801 432 448 432H64C55.199 432 48 424.799 48 416V160C48 151.199 55.199 144 64 144H448C456.801 144 464 151.199 464 160V416Z"/></svg>