<svg xmlns="http://www.w3.org/2000/svg" viewBox="0 0 576 512"><!-- Font Awesome Pro 6.0.0-alpha2 by @fontawesome - https://fontawesome.com License - https://fontawesome.com/license (Commercial License) --><path d="M512 0H160C124.654 0 96 28.652 96 64V352C96 387.348 124.654 416 160 416H512C547.346 416 576 387.348 576 352V64C576 28.652 547.346 0 512 0ZM528 352C528 360.824 520.822 368 512 368H160C151.178 368 144 360.824 144 352V128H528V352ZM48 432V96C21.49 96 0 117.492 0 144V448C0 483.344 28.654 512 64 512H432C458.51 512 480 490.508 480 464H80C62.326 464 48 449.672 48 432Z"/></svg>