<svg xmlns="http://www.w3.org/2000/svg" viewBox="0 0 512 512"><!-- Font Awesome Pro 6.0.0-alpha2 by @fontawesome - https://fontawesome.com License - https://fontawesome.com/license (Commercial License) --><path d="M488 264H400V196.807L471.188 138.562C481.469 130.187 482.969 115.062 474.563 104.812C466.188 94.5 451.031 93.031 440.813 101.437L369.236 160H142.764L71.188 101.438C61.031 93.062 45.812 94.5 37.438 104.812C29.031 115.062 30.531 130.188 40.812 138.562L112 196.807V264H24C10.75 264 0 274.75 0 288S10.75 312 24 312H112V336C112 354.375 115.783 371.807 122.084 387.979L39.031 471.031C29.656 480.406 29.656 495.594 39.031 504.969C43.719 509.656 49.844 512 56 512S68.281 509.656 72.969 504.969L147.863 430.074C174.281 460.404 212.711 480 256 480S337.719 460.404 364.137 430.074L439.031 504.969C443.719 509.656 449.844 512 456 512S468.281 509.656 472.969 504.969C482.344 495.594 482.344 480.406 472.969 471.031L389.916 387.979C396.217 371.807 400 354.375 400 336V312H488C501.25 312 512 301.25 512 288S501.25 264 488 264ZM352 336C352 380.602 321.289 417.859 280 428.592V280C280 266.75 269.25 256 256 256S232 266.75 232 280V428.592C190.711 417.859 160 380.602 160 336V209.186C160.48 208.74 161.07 208.49 161.52 208H350.48C350.93 208.49 351.52 208.74 352 209.186V336ZM184 128C197.25 128 208 117.25 208 104V96C208 69.531 229.531 48 256 48S304 69.531 304 96V104C304 117.25 314.75 128 328 128S352 117.25 352 104V96C352 43.062 308.938 0 256 0S160 43.062 160 96V104C160 117.25 170.75 128 184 128Z"/></svg>