<svg xmlns="http://www.w3.org/2000/svg" viewBox="0 0 512 512"><!-- Font Awesome Pro 6.0.0-alpha2 by @fontawesome - https://fontawesome.com License - https://fontawesome.com/license (Commercial License) --><path d="M256 112C176.441 112 112.004 176.406 112.004 256S176.441 400 256 400S399.996 335.594 399.996 256S335.559 112 256 112ZM256 352C203.145 352 159.91 308.875 159.91 256S203.145 160 256 160S352.09 203.125 352.09 256S308.855 352 256 352ZM256 16C123.461 16 16 123.418 16 256C16 388.578 123.461 496 256 496S496 388.578 496 256C496 123.418 388.539 16 256 16ZM256 448C149.857 448 64.061 362.172 64.061 256S149.857 64 256 64S447.939 149.828 447.939 256S362.143 448 256 448ZM256 208C229.49 208 208 229.492 208 256S229.49 304 256 304S304 282.508 304 256S282.51 208 256 208Z"/></svg>