<svg xmlns="http://www.w3.org/2000/svg" viewBox="0 0 512 512"><!-- Font Awesome Pro 6.0.0-alpha2 by @fontawesome - https://fontawesome.com License - https://fontawesome.com/license (Commercial License) --><path d="M351.998 176C360.873 176 367.998 168.875 367.998 160S360.873 144 351.998 144S335.998 151.125 335.998 160S343.123 176 351.998 176ZM255.998 144C264.873 144 271.998 136.875 271.998 128S264.873 112 255.998 112S239.998 119.125 239.998 128S247.123 144 255.998 144ZM512 288C512 264.75 501.625 242.625 483.875 227.625C484.375 227.125 484.75 226.625 485.125 226.125C499.375 203 499.625 174 485.75 150.75C442.25 78.75 352.248 32.125 255.998 32C159.871 32.125 69.746 78.75 26.246 150.75C12.369 174 12.619 203 26.871 226.125C27.246 226.625 27.621 227.125 28.121 227.625C-5.381 255.875 -9.506 306 18.746 339.375C23.121 344.625 28.246 349.25 33.746 353.125C33.121 355.875 32.121 358.625 32.121 361.625V396.25C32.121 442.5 69.621 480 115.746 480H396.373C442.625 480 480 442.5 480.125 396.25V361.625C480.125 358.625 479 355.875 478.375 353.125C499.5 338.125 512 313.875 512 288ZM67.371 175.5C102.246 117.625 176.371 80.125 255.998 80C335.748 80.125 409.75 117.625 444.75 175.5C449.25 183.25 449.25 193 444.5 200.75C441.625 205.375 437.125 208.125 432.25 208.125H79.621C74.871 208.125 70.371 205.375 67.496 200.75C62.871 193 62.746 183.25 67.371 175.5ZM432 396.25C432 416 416 432 396.248 432H115.621C95.996 432 79.996 416 79.996 396.25V370.75H432V396.25ZM432 320H79.996C62.371 320 47.996 305.625 47.996 288S62.371 256 79.996 256H223.998L319.998 304L416 256H432C449.625 256 464 270.375 464 288S449.625 320 432 320ZM159.996 176C168.871 176 175.996 168.875 175.996 160S168.871 144 159.996 144S143.996 151.125 143.996 160S151.121 176 159.996 176Z"/></svg>