<svg xmlns="http://www.w3.org/2000/svg" viewBox="0 0 512 512"><!-- Font Awesome Pro 6.0.0-alpha2 by @fontawesome - https://fontawesome.com License - https://fontawesome.com/license (Commercial License) --><path d="M511.957 123.048C511.957 90.547 490.706 61.921 459.705 52.295C453.454 31.92 438.704 15.294 419.203 6.544C399.703 -2.207 377.452 -2.082 358.076 6.794C317.324 -11.082 269.823 7.544 252.072 48.295L33.939 266.553C-11.313 311.805 -11.313 385.308 33.939 430.559L81.441 478.061C126.692 523.313 200.195 523.313 245.447 478.061L463.705 259.928C504.456 242.177 523.082 194.676 505.206 153.924C509.707 144.299 511.957 133.673 511.957 123.048ZM163.444 464.061C145.443 464.061 128.067 456.935 115.442 444.185L67.815 396.558C59.69 388.308 53.815 378.182 50.814 366.932C70.565 372.932 91.191 375.932 111.942 376.057C204.07 376.057 282.698 317.93 313.699 236.552C346.575 229.052 380.827 231.552 412.328 243.427L211.57 444.185C198.82 456.935 181.569 464.061 163.444 464.061ZM268.323 99.922C275.948 119.048 279.823 139.424 279.948 160.049C279.948 252.678 204.57 328.056 111.942 328.056C92.691 327.931 73.565 324.556 55.44 317.93C58.69 311.555 62.815 305.555 67.815 300.43L268.323 99.922Z"/></svg>