<svg xmlns="http://www.w3.org/2000/svg" viewBox="0 0 576 512"><!-- Font Awesome Pro 6.0.0-alpha2 by @fontawesome - https://fontawesome.com License - https://fontawesome.com/license (Commercial License) --><path d="M176 304C158.375 304 144 318.375 144 336S158.375 368 176 368S208 353.625 208 336S193.625 304 176 304ZM528 232V152C528 138.75 517.25 128 504 128H496V80C496 35.25 403.875 0 288 0S80 35.25 80 80V128H72C58.75 128 48 138.75 48 152V232C48 245.25 58.75 256 72 256C76.768 256 48 275.228 48 320V384C48 413.859 68.445 438.615 96 445.746V480C96 497.625 110.375 512 128 512S160 497.625 160 480V448H416V480C416 497.625 430.375 512 448 512S480 497.625 480 480V445.746C507.555 438.615 528 413.859 528 384V320C528 272.684 498.322 256 504 256C517.25 256 528 245.25 528 232ZM128 84.375C140.25 71.125 197 48 288 48S435.75 71.125 448 84.375V112H368C368 94.375 353.625 80 336 80H240C222.375 80 208 94.375 208 112H128V84.375ZM448 160V224H304V160H448ZM128 160H272V224H128V160ZM480 384C480 392.875 472.875 400 464 400H112C103.125 400 96 392.875 96 384V320C96 293.5 117.5 272 144 272H432C458.5 272 480 293.5 480 320V384ZM400 304C382.375 304 368 318.375 368 336S382.375 368 400 368S432 353.625 432 336S417.625 304 400 304Z"/></svg>