<svg xmlns="http://www.w3.org/2000/svg" viewBox="0 0 512 512"><!-- Font Awesome Pro 6.0.0-alpha2 by @fontawesome - https://fontawesome.com License - https://fontawesome.com/license (Commercial License) --><path d="M240 130C231.125 130 224 137.125 224 146C224 154.75 231.125 162 240 162S256 154.75 256 146C256 137.125 248.875 130 240 130ZM272 354C263.125 354 256 361.125 256 370C256 378.75 263.125 386 272 386S288 378.75 288 370C288 361.125 280.875 354 272 354ZM464 224C437.5 224 416 245.5 416 272V336C416 344.875 408.875 352 400 352H352V101.375C352 49.375 313.125 2.875 261.125 0.125C259.375 0 257.75 0 256 0C203 0 160 43 160 96V224H112C103.125 224 96 216.875 96 208V144C96 117.5 74.5 96 48 96S0 117.5 0 144V208C0 269.875 50.125 320 112 320H160V480C160 497.625 174.375 512 192 512H320C337.625 512 352 497.625 352 480V448H400C461.875 448 512 397.875 512 336V272C512 245.5 490.5 224 464 224ZM304 464H208V96C208 69.5 229.5 48 256 48L258.625 48.125C283.625 49.375 304 73.375 304 101.375V464Z"/></svg>