<svg xmlns="http://www.w3.org/2000/svg" viewBox="0 0 448 512"><!-- Font Awesome Pro 6.0.0-alpha2 by @fontawesome - https://fontawesome.com License - https://fontawesome.com/license (Commercial License) --><path d="M160.969 344.969L200 305.938V408C200 421.25 210.75 432 224 432S248 421.25 248 408V305.938L287.031 344.969C296.406 354.344 311.594 354.344 320.969 344.969S330.344 320.406 320.969 311.031L240.969 231.031C236.281 226.344 230.141 224 224 224S211.719 226.344 207.031 231.031L127.031 311.031C117.656 320.406 117.656 335.594 127.031 344.969S151.594 354.344 160.969 344.969ZM384 64H344V24C344 10.75 333.25 0 320 0S296 10.75 296 24V64H152V24C152 10.75 141.25 0 128 0S104 10.75 104 24V64H64C28.654 64 0 92.652 0 128V448C0 483.348 28.654 512 64 512H384C419.346 512 448 483.348 448 448V128C448 92.652 419.346 64 384 64ZM400 448C400 456.824 392.822 464 384 464H64C55.178 464 48 456.824 48 448V192H400V448Z"/></svg>