<svg xmlns="http://www.w3.org/2000/svg" viewBox="0 0 448 512"><!-- Font Awesome Pro 6.0.0-alpha2 by @fontawesome - https://fontawesome.com License - https://fontawesome.com/license (Commercial License) --><path d="M296.488 295.516L248.482 247.508L266.717 229.273C273.746 222.242 285.16 222.242 292.191 229.273L314.727 251.805C321.756 258.836 321.756 270.242 314.727 277.277L296.488 295.516ZM135.178 415.863L182.789 406.344C185.111 405.875 187.244 404.734 188.92 403.062L279.502 312.496L231.498 264.492L140.922 355.063C139.246 356.742 138.104 358.875 137.641 361.195L128.119 408.805C127.281 413 130.98 416.703 135.178 415.863ZM448 128V448C448 483.348 419.346 512 384 512H64C28.654 512 0 483.348 0 448V128C0 92.652 28.654 64 64 64H104V24C104 10.75 114.75 0 128 0S152 10.75 152 24V64H296V24C296 10.75 306.75 0 320 0S344 10.75 344 24V64H384C419.346 64 448 92.652 448 128ZM400 192H48V448C48 456.824 55.178 464 64 464H384C392.822 464 400 456.824 400 448V192Z"/></svg>