<svg xmlns="http://www.w3.org/2000/svg" viewBox="0 0 640 512"><!-- Font Awesome Pro 6.0.0-alpha2 by @fontawesome - https://fontawesome.com License - https://fontawesome.com/license (Commercial License) --><path d="M630.812 469.109L485.105 354.908C516.81 317.383 535.999 268.984 535.999 216C535.999 96.707 439.294 0 319.999 0C248.294 0 185.226 35.297 145.953 89.088L38.812 5.113C28.343 -3.059 13.312 -1.246 5.109 9.191C-3.063 19.629 -1.235 34.723 9.187 42.895L601.187 506.891C605.593 510.328 610.796 512 615.984 512C623.109 512 630.156 508.844 634.89 502.812C643.062 492.375 641.234 477.281 630.812 469.109ZM371.65 265.984L259.189 177.84C271.943 157.586 294.347 144 319.999 144C359.701 144 391.999 176.299 391.999 216C391.999 235.445 384.234 253.064 371.65 265.984ZM409.456 295.615C428.408 274.477 439.999 246.65 439.999 216C439.999 149.725 386.275 96 319.999 96C278.953 96 243.134 116.887 221.548 148.338L183.999 118.908C214.306 76.158 263.675 48 319.999 48C412.636 48 487.999 123.363 487.999 216C487.999 257.768 472.374 295.701 447.005 325.045L409.456 295.615ZM201.406 464L239.017 416.158C264.042 426.295 291.339 432 319.999 432C350.474 432 379.433 425.617 405.724 414.232L360.24 378.582C347.281 381.797 333.939 384 319.999 384C227.365 384 151.999 308.635 151.999 216C151.999 215.799 152.058 215.615 152.058 215.414L107.201 180.256C105.255 191.908 103.999 203.795 103.999 216C103.999 289.221 140.523 353.818 196.249 392.881L133.124 473.172C127.468 480.391 126.406 490.219 130.406 498.484C134.437 506.75 142.812 512 151.999 512H530.464L469.222 464H201.406Z"/></svg>