<svg xmlns="http://www.w3.org/2000/svg" viewBox="0 0 512 512"><!-- Font Awesome Pro 6.0.0-alpha2 by @fontawesome - https://fontawesome.com License - https://fontawesome.com/license (Commercial License) --><path d="M448 32H271.107C261.17 32 251.371 34.312 242.482 38.758L192 64H160V48C160 39.162 152.836 32 144 32H80C71.164 32 64 39.162 64 48V64C28.654 64 0 92.652 0 128V416C0 451.346 28.654 480 64 480H448C483.346 480 512 451.346 512 416V96C512 60.652 483.346 32 448 32ZM464 416C464 424.836 456.836 432 448 432H64C55.164 432 48 424.836 48 416V240H132.525C129.861 250.285 128 260.883 128 272C128 342.691 185.309 400 256 400C326.693 400 384 342.691 384 272C384 260.883 382.139 250.285 379.475 240H464V416ZM176 272C176 227.887 211.889 192 256 192S336 227.887 336 272C336 316.111 300.111 352 256 352S176 316.111 176 272ZM464 192H355.182C331.717 162.953 296.25 144 256 144C215.752 144 180.283 162.953 156.818 192H48V128C48 119.162 55.164 112 64 112H203.332L272 80H448C456.836 80 464 87.162 464 96V192Z"/></svg>