<svg xmlns="http://www.w3.org/2000/svg" viewBox="0 0 512 512"><!-- Font Awesome Pro 6.0.0-alpha2 by @fontawesome - https://fontawesome.com License - https://fontawesome.com/license (Commercial License) --><path d="M448 96H432V80C432 71.125 424.875 64 416 64H320C311.125 64 304 71.125 304 80V96H208V80C208 71.125 200.875 64 192 64H96C87.125 64 80 71.125 80 80V96H64C28.801 96 0 124.799 0 160V384C0 419.199 28.801 448 64 448H448C483.199 448 512 419.199 512 384V160C512 124.799 483.199 96 448 96ZM464 384C464 392.836 456.836 400 448 400H64C55.164 400 48 392.836 48 384V160C48 151.162 55.164 144 64 144H448C456.836 144 464 151.162 464 160V384ZM416 224H384V192C384 183.164 376.836 176 368 176S352 183.164 352 192V224H320C311.164 224 304 231.164 304 240S311.164 256 320 256H352V288C352 296.836 359.164 304 368 304S384 296.836 384 288V256H416C424.836 256 432 248.836 432 240S424.836 224 416 224ZM192 224H96C87.164 224 80 231.164 80 240S87.164 256 96 256H192C200.836 256 208 248.836 208 240S200.836 224 192 224Z"/></svg>