<svg xmlns="http://www.w3.org/2000/svg" viewBox="0 0 512 512"><!-- Font Awesome Pro 6.0.0-alpha2 by @fontawesome - https://fontawesome.com License - https://fontawesome.com/license (Commercial License) --><path d="M488 432H48V56C48 42.75 37.25 32 24 32S0 42.75 0 56V448C0 465.594 14.406 480 32 480H488C501.25 480 512 469.25 512 456S501.25 432 488 432ZM384 192C419.346 192 448 163.346 448 128S419.346 64 384 64S320 92.654 320 128S348.654 192 384 192ZM384 112C392.822 112 400 119.178 400 128S392.822 144 384 144S368 136.822 368 128S375.178 112 384 112ZM352 352C387.346 352 416 323.346 416 288S387.346 224 352 224S288 252.654 288 288S316.654 352 352 352ZM352 272C360.822 272 368 279.178 368 288S360.822 304 352 304S336 296.822 336 288S343.178 272 352 272ZM176 352C202.51 352 224 330.51 224 304S202.51 256 176 256S128 277.49 128 304S149.49 352 176 352ZM240 224C266.51 224 288 202.51 288 176S266.51 128 240 128S192 149.49 192 176S213.49 224 240 224Z"/></svg>