<svg xmlns="http://www.w3.org/2000/svg" viewBox="0 0 512 512"><!-- Font Awesome Pro 6.0.0-alpha2 by @fontawesome - https://fontawesome.com License - https://fontawesome.com/license (Commercial License) --><path d="M488 432H48V56C48 42.744 37.254 32 24 32S0 42.744 0 56V448C0 465.6 14.4 480 32 480H488C501.254 480 512 469.254 512 456C512 442.744 501.254 432 488 432ZM168 352C181.25 352 192 341.25 192 328V280C192 266.75 181.25 256 168 256S144 266.75 144 280V328C144 341.25 154.75 352 168 352ZM264 352C277.25 352 288 341.25 288 328V152C288 138.75 277.25 128 264 128S240 138.75 240 152V328C240 341.25 250.75 352 264 352ZM360 352C373.25 352 384 341.25 384 328V216C384 202.75 373.25 192 360 192S336 202.75 336 216V328C336 341.25 346.75 352 360 352ZM456 352C469.25 352 480 341.25 480 328V120C480 106.75 469.25 96 456 96S432 106.75 432 120V328C432 341.25 442.75 352 456 352Z"/></svg>