<svg xmlns="http://www.w3.org/2000/svg" viewBox="0 0 512 512"><!-- Font Awesome Pro 6.0.0-alpha2 by @fontawesome - https://fontawesome.com License - https://fontawesome.com/license (Commercial License) --><path d="M461.26 288H224.01V50.75C224.01 41.875 216.885 34.5 208.26 34.5C207.51 34.5 206.885 34.5 206.135 34.625C87.135 51.5 -3.99 155.375 0.135 280.125C4.26 404.125 107.885 507.75 231.885 511.875C234.635 512 237.385 512 240.01 512C361.01 512 460.885 422.375 477.385 305.875C478.635 296.375 470.885 288 461.26 288ZM240.01 464C237.885 464 235.635 464 233.51 463.875C134.51 460.625 51.385 377.5 48.135 278.5C45.26 193.25 98.385 118.375 176.01 91.125V336H420.76C394.135 411 322.01 464 240.01 464ZM288.76 0C288.51 0 288.135 0 287.76 0C279.135 0 272.01 7.5 272.01 16.25V240H495.76C504.885 240 512.635 232.25 512.01 223.25C503.76 103.75 408.26 8.25 288.76 0Z"/></svg>