<svg xmlns="http://www.w3.org/2000/svg" viewBox="0 0 512 512"><!-- Font Awesome Pro 6.0.0-alpha2 by @fontawesome - https://fontawesome.com License - https://fontawesome.com/license (Commercial License) --><path d="M48 224H160V64H48C21.6 64 0 85.6 0 112V176C0 202.4 21.6 224 48 224ZM48 112H112V176H48V112ZM464 288H384C384 279.162 376.836 272 368 272S352 279.162 352 288H256V336H352V400H256V448H352C352 456.836 359.164 464 368 464S384 456.836 384 448H464C490.4 448 512 426.4 512 400V336C512 309.6 490.4 288 464 288ZM464 400H384V336H464V400ZM0 336V400C0 426.4 21.6 448 48 448H224V288H48C21.6 288 0 309.6 0 336ZM176 400H48V336H176V400ZM464 64H288C288 55.162 280.836 48 272 48S256 55.162 256 64H192V112H256V176H192V224H256C256 232.836 263.164 240 272 240S288 232.836 288 224H464C490.4 224 512 202.4 512 176V112C512 85.6 490.4 64 464 64ZM464 176H288V112H464V176Z"/></svg>