<svg xmlns="http://www.w3.org/2000/svg" viewBox="0 0 512 512"><!-- Font Awesome Pro 6.0.0-alpha2 by @fontawesome - https://fontawesome.com License - https://fontawesome.com/license (Commercial License) --><path d="M480.969 158.888C471.594 149.513 456.406 149.513 447.031 158.888L192 413.919L64.969 286.888C55.594 277.513 40.406 277.513 31.031 286.888S21.656 311.45 31.031 320.825L175.031 464.825C179.719 469.513 185.844 471.856 192 471.856S204.281 469.513 208.969 464.825L480.969 192.825C490.344 183.45 490.344 168.263 480.969 158.888ZM175.031 240.825C179.719 245.513 185.844 247.856 192 247.856S204.281 245.513 208.969 240.825L384.969 64.825C394.344 55.45 394.344 40.263 384.969 30.888S360.406 21.513 351.031 30.888L192 189.919L112.969 110.888C103.594 101.513 88.406 101.513 79.031 110.888S69.656 135.45 79.031 144.825L175.031 240.825Z"/></svg>