<svg xmlns="http://www.w3.org/2000/svg" viewBox="0 0 512 512"><!-- Font Awesome Pro 6.0.0-alpha2 by @fontawesome - https://fontawesome.com License - https://fontawesome.com/license (Commercial License) --><path d="M176 319.875C149.5 319.875 128 341.375 128 367.875S149.5 415.875 176 415.875S224 394.375 224 367.875S202.5 319.875 176 319.875ZM299.875 32H298.375C291.25 32.125 284.25 34.5 278.75 39L0 255.875V448C0 465.625 14.375 480 32 480H480C497.625 480 512 465.625 512 448V255.875C512 136 417.999 38.25 299.875 32ZM196.5 163.75C204.625 181.875 223.125 193 242.875 191.875C262.75 190.625 279.75 177.375 285.75 158.5S285.5 119 269.999 106.625L303.625 80.5C391.375 88.125 459.25 159.875 463.25 247.875H409.375C400.875 233 385.125 223.875 368 223.875S335.125 233 326.625 247.875H88.5L196.5 163.75ZM464 432H48V295.875H326.625C335.125 310.75 350.875 319.875 368 319.875S400.875 310.75 409.375 295.875H464V432Z"/></svg>