<svg xmlns="http://www.w3.org/2000/svg" viewBox="0 0 512 512"><!-- Font Awesome Pro 6.0.0-alpha2 by @fontawesome - https://fontawesome.com License - https://fontawesome.com/license (Commercial License) --><path d="M497.625 279.125C506.625 273.25 512 263.25 512 252.5V192C512 174.4 497.6 160 480 160H288C270.4 160 256 174.4 256 192V252.5C256 263.375 261.5 273.5 268.75 278L296 299.625V374.375C291 378.875 288 385.25 288 392V416L262.375 435.25C258.375 438.25 256 443 256 448C256 443 253.625 438.25 249.625 435.25L224 416V392C223.875 381.625 217.125 372.5 207.125 369.5C203.375 344.5 200.75 319.25 200.75 294V256H208C216.837 256 224 248.837 224 240V224C224 215.163 216.837 208 208 208H204.875L231.75 127.625C235.065 117.847 231.787 106.97 223.083 100.53C218.804 97.365 213.436 96 208.114 96L144.75 96V64H160.75C169.55 64 176.75 56.8 176.75 48V48C176.75 39.2 169.55 32 160.75 32H144.75V16C144.75 7.2 137.55 0 128.75 0H128.75C119.95 0 112.75 7.2 112.75 16V32H96.75C87.95 32 80.75 39.2 80.75 48V48C80.75 56.8 87.95 64 96.75 64H112.75V96L49.386 96C44.064 96 38.696 97.365 34.417 100.53C25.713 106.97 22.435 117.847 25.75 127.625L52.75 208H48C39.163 208 32 215.163 32 224V240C32 248.837 39.163 256 48 256H56.75V294C56.75 319.125 54.25 344.25 50.375 369.125C39.875 371.75 32 380.75 32 392V416L6.365 435.257C2.358 438.268 0 442.988 0 448V496C0 504.837 7.163 512 16 512H240C248.875 512 256 504.875 256 496C256 504.875 263.125 512 272 512H496C504.837 512 512 504.837 512 496V448C512 442.988 509.642 438.268 505.635 435.257L480 416V392C480 385.25 477 378.875 472 374.375V299.5L497.625 279.125ZM175.75 144L159.375 192.75L154.25 208H103.375L98.25 192.75L81.875 144H175.75ZM158.75 368H98.875C102.375 342.75 104.75 317.875 104.75 294V256H152.75V294C152.75 317.875 155.125 342.75 158.75 368ZM48 464L60.75 454.375L80 440V416H176V440L195.25 454.375L208 464H48ZM304 464L316.75 454.375L336 440V416H432V440L451.25 454.375L464 464H304ZM464 244.625L424 276.375V368H344V276.375L304 244.875V208H336V232H368V208H400V232H432V208H464V244.625ZM384 288C375.125 288 368 295.125 368 304V336H400V304C400 295.125 392.875 288 384 288Z"/></svg>