<svg xmlns="http://www.w3.org/2000/svg" viewBox="0 0 256 512"><!-- Font Awesome Pro 6.0.0-alpha2 by @fontawesome - https://fontawesome.com License - https://fontawesome.com/license (Commercial License) --><path d="M249.625 435.386L224 416.17V392.212C224 378.986 213.25 368.255 200 368.255H202.625C201.125 352.283 200 336.311 200 320.34V288.396H208C216.875 288.396 224 281.284 224 272.425V256.453C223.875 248.592 218.125 242.103 210.375 240.98C219.25 226.381 223.875 209.661 224 192.566C224.25 152.013 199 115.702 160.875 101.852C122.625 87.877 79.875 99.481 54 130.801C28.125 161.995 24.75 206.167 45.625 240.98C37.875 242.103 32 248.592 32 256.453V272.425C32 281.284 39.125 288.396 48 288.396H56V320.34C56 336.311 54.875 352.283 53.375 368.255H56C42.75 368.255 32 378.986 32 392.212V416.17L6.375 435.386C2.375 438.38 0 443.122 0 448.113V496.028C0 504.888 7.125 512 16 512H240C248.875 512 256 504.888 256 496.028V448.113C256 443.122 253.625 438.38 249.625 435.386ZM152 288.396V318.343C152 335.064 153 351.659 154.5 368.255H101.5C103 351.659 104 335.064 104 318.343V288.396H152ZM128 144.651C154.5 144.651 176 166.113 176 192.566S154.5 240.481 128 240.481S80 219.019 80 192.566S101.5 144.651 128 144.651ZM48 464.085L80 440.127V416.17H176V440.127L208 464.085H48Z"/></svg>