<svg xmlns="http://www.w3.org/2000/svg" viewBox="0 0 448 512"><!-- Font Awesome Pro 6.0.0-alpha2 by @fontawesome - https://fontawesome.com License - https://fontawesome.com/license (Commercial License) --><path d="M64 96V160H128V96H64ZM256 96H192V160H256V96ZM192 416H256V352H192V416ZM64 416H128V352H64V416ZM64 224V288H128V224H64ZM384 288V224H320V288H384ZM384 416V352H320V416H384ZM320 160H384V96H320V160ZM256 224H320V160H256V224ZM384 32H64C28.801 32 0 60.801 0 96V416C0 451.199 28.801 480 64 480H384C419.201 480 448 451.199 448 416V96C448 60.801 419.201 32 384 32ZM400 416C400 424.674 392.674 432 384 432H64C55.328 432 48 424.674 48 416V96C48 87.326 55.328 80 64 80H384C392.674 80 400 87.326 400 96V416ZM192 160H128V224H192V160ZM192 288H256V224H192V288ZM128 288V352H192V288H128ZM256 352H320V288H256V352Z"/></svg>