<svg xmlns="http://www.w3.org/2000/svg" viewBox="0 0 448 512"><!-- Font Awesome Pro 6.0.0-alpha2 by @fontawesome - https://fontawesome.com License - https://fontawesome.com/license (Commercial License) --><path d="M207.406 265.344C216.719 274.219 231.281 274.219 240.594 265.344L424.599 89.344C434.162 80.188 434.506 65 425.349 55.406C420.63 50.469 414.318 48 408.005 48C402.036 48 396.067 50.219 391.411 54.656L224 214.781L56.589 54.656C46.995 45.531 31.807 45.812 22.651 55.406S13.838 80.188 23.401 89.344L207.406 265.344ZM408.005 240C402.036 240 396.067 242.219 391.411 246.656L224 406.781L56.589 246.656C46.995 237.531 31.807 237.812 22.651 247.406S13.838 272.188 23.401 281.344L207.406 457.344C216.719 466.219 231.281 466.219 240.594 457.344L424.599 281.344C434.162 272.188 434.506 257 425.349 247.406C420.63 242.469 414.318 240 408.005 240Z"/></svg>