<svg xmlns="http://www.w3.org/2000/svg" viewBox="0 0 512 512"><!-- Font Awesome Pro 6.0.0-alpha2 by @fontawesome - https://fontawesome.com License - https://fontawesome.com/license (Commercial License) --><path d="M256 16C123.451 16 16 123.451 16 256S123.451 496 256 496S496 388.549 496 256S388.549 16 256 16ZM256 448C150.131 448 64 361.869 64 256S150.131 64 256 64S448 150.131 448 256S361.869 448 256 448ZM284 176H164C152.955 176 144 184.953 144 196V316C144 327.045 152.955 336 164 336H284C295.045 336 304 327.045 304 316V196C304 184.953 295.045 176 284 176ZM379.838 194.277L336 224.514V287.477L379.838 317.676C388.324 323.514 400 317.559 400 307.357V204.596C400 194.434 388.363 188.434 379.838 194.277Z"/></svg>