<svg xmlns="http://www.w3.org/2000/svg" viewBox="0 0 512 512"><!-- Font Awesome Pro 6.0.0-alpha2 by @fontawesome - https://fontawesome.com License - https://fontawesome.com/license (Commercial License) --><path d="M225.938 192H323.297C336.547 192 347.297 181.25 347.297 168S336.547 144 323.297 144H168C154.75 144 144 154.75 144 168V323.281C144 336.531 154.75 347.281 168 347.281S192 336.531 192 323.281V225.938L327.031 360.969C331.719 365.656 337.859 368 344 368S356.281 365.656 360.969 360.969C370.344 351.594 370.344 336.406 360.969 327.031L225.938 192ZM256 16C123.451 16 16 123.453 16 256S123.451 496 256 496S496 388.547 496 256S388.549 16 256 16ZM256 448C150.131 448 64 361.867 64 256S150.131 64 256 64S448 150.133 448 256S361.869 448 256 448Z"/></svg>