<svg xmlns="http://www.w3.org/2000/svg" viewBox="0 0 512 512"><!-- Font Awesome Pro 6.0.0-alpha2 by @fontawesome - https://fontawesome.com License - https://fontawesome.com/license (Commercial License) --><path d="M370.734 146.531C358.875 140.641 344.469 145.406 338.531 157.266L256 322.328L173.469 157.266C167.547 145.406 153.188 140.641 141.266 146.531C129.406 152.469 124.609 166.875 130.531 178.734L234.531 386.734C238.594 394.859 246.906 400 256 400S273.406 394.859 277.469 386.734L381.469 178.734C387.391 166.875 382.594 152.469 370.734 146.531ZM256 16C123.451 16 16 123.451 16 256S123.451 496 256 496S496 388.549 496 256S388.549 16 256 16ZM256 448C150.131 448 64 361.869 64 256S150.131 64 256 64S448 150.131 448 256S361.869 448 256 448Z"/></svg>