<svg xmlns="http://www.w3.org/2000/svg" viewBox="0 0 512 512"><!-- Font Awesome Pro 6.0.0-alpha2 by @fontawesome - https://fontawesome.com License - https://fontawesome.com/license (Commercial License) --><path d="M282.021 196.037L311.781 170.094C321.75 161.375 322.813 146.219 314.094 136.219C309.344 130.781 302.688 128 296 128C290.406 128 284.781 129.938 280.219 133.906L200.281 203.594C187.549 214.711 160 246.699 160 288C160 340.938 203.062 384 256 384S352 340.938 352 288C352 244.141 322.268 207.467 282.021 196.037ZM256 336C229.531 336 208 314.469 208 288C208 283.281 208.656 278.688 209.969 274.281C216 254.094 234.938 240 256 240C282.469 240 304 261.531 304 288S282.469 336 256 336ZM256 16C123.451 16 16 123.451 16 256S123.451 496 256 496S496 388.549 496 256S388.549 16 256 16ZM256 448C150.131 448 64 361.869 64 256S150.131 64 256 64S448 150.131 448 256S361.869 448 256 448Z"/></svg>