<svg xmlns="http://www.w3.org/2000/svg" viewBox="0 0 512 512"><!-- Font Awesome Pro 6.0.0-alpha2 by @fontawesome - https://fontawesome.com License - https://fontawesome.com/license (Commercial License) --><path d="M273.625 159.719C269.094 154.812 262.688 152 256 152S242.906 154.812 238.375 159.719L142.375 263.719C135.906 270.719 134.188 280.906 138 289.625C141.844 298.344 150.469 304 160 304H352C361.531 304 370.156 298.344 374 289.625C377.812 280.906 376.094 270.719 369.625 263.719L273.625 159.719ZM256 16C123.451 16 16 123.453 16 256S123.451 496 256 496S496 388.547 496 256S388.549 16 256 16ZM256 448C150.131 448 64 361.867 64 256S150.131 64 256 64S448 150.133 448 256S361.869 448 256 448Z"/></svg>