<svg xmlns="http://www.w3.org/2000/svg" viewBox="0 0 512 512"><!-- Font Awesome Pro 6.0.0-alpha2 by @fontawesome - https://fontawesome.com License - https://fontawesome.com/license (Commercial License) --><path d="M240.969 127.031C231.594 117.656 216.406 117.656 207.031 127.031S197.656 151.594 207.031 160.969L302.062 256L207.031 351.031C197.656 360.406 197.656 375.594 207.031 384.969S231.594 394.344 240.969 384.969L352.969 272.969C357.656 268.281 360 262.156 360 256S357.656 243.719 352.969 239.031L240.969 127.031ZM256 16C123.453 16 16 123.453 16 256S123.453 496 256 496S496 388.547 496 256S388.547 16 256 16ZM256 448C150.133 448 64 361.867 64 256S150.133 64 256 64S448 150.133 448 256S361.867 448 256 448Z"/></svg>