<svg xmlns="http://www.w3.org/2000/svg" viewBox="0 0 512 512"><!-- Font Awesome Pro 6.0.0-alpha2 by @fontawesome - https://fontawesome.com License - https://fontawesome.com/license (Commercial License) --><path d="M256 16C123.451 16 16 123.451 16 256S123.451 496 256 496S496 388.549 496 256S388.549 16 256 16ZM256 448C150.131 448 64 361.869 64 256S150.131 64 256 64S448 150.131 448 256S361.869 448 256 448ZM352 232H280V160C280 146.745 269.255 136 256 136H256C242.745 136 232 146.745 232 160V232H160C146.745 232 136 242.745 136 256V256C136 269.255 146.745 280 160 280H232V352C232 365.255 242.745 376 256 376H256C269.255 376 280 365.255 280 352V280H352C365.255 280 376 269.255 376 256V256C376 242.745 365.255 232 352 232Z"/></svg>