<svg xmlns="http://www.w3.org/2000/svg" viewBox="0 0 512 512"><!-- Font Awesome Pro 6.0.0-alpha2 by @fontawesome - https://fontawesome.com License - https://fontawesome.com/license (Commercial License) --><path d="M256 16C123.451 16 16 123.453 16 256S123.451 496 256 496S496 388.547 496 256S388.549 16 256 16ZM256 448C150.131 448 64 361.867 64 256S150.131 64 256 64S448 150.133 448 256S361.869 448 256 448ZM336 160H320V144C320 135.156 312.844 128 304 128S288 135.156 288 144V160H224V144C224 135.156 216.844 128 208 128S192 135.156 192 144V160H176C158.328 160 144 174.328 144 192V336C144 353.672 158.328 368 176 368H336C353.674 368 368 353.672 368 336V192C368 174.328 353.674 160 336 160ZM320 320H192V240H320V320Z"/></svg>