<svg xmlns="http://www.w3.org/2000/svg" viewBox="0 0 512 512"><!-- Font Awesome Pro 6.0.0-alpha2 by @fontawesome - https://fontawesome.com License - https://fontawesome.com/license (Commercial License) --><path d="M496 256C496 388.344 388.344 496 256 496S16 388.344 16 256C16 150.172 83.875 58.016 184.906 26.719C197.562 22.828 211 29.875 214.938 42.531C218.844 55.203 211.75 68.641 199.094 72.563C118.281 97.609 64 171.328 64 256C64 361.875 150.125 448 256 448S448 361.875 448 256C448 171.312 393.719 97.594 312.906 72.562C300.25 68.641 293.156 55.203 297.062 42.531C301 29.922 314.531 22.844 327.094 26.719C428.125 58.016 496 150.156 496 256Z"/></svg>