<svg xmlns="http://www.w3.org/2000/svg" viewBox="0 0 512 512"><!-- Font Awesome Pro 6.0.0-alpha2 by @fontawesome - https://fontawesome.com License - https://fontawesome.com/license (Commercial License) --><path d="M256 16C123.451 16 16 123.451 16 256S123.451 496 256 496S496 388.549 496 256S388.549 16 256 16ZM256 448C150.131 448 64 361.869 64 256S150.131 64 256 64S448 150.131 448 256S361.869 448 256 448ZM328 272H320V221.344C320 208.094 309.25 197.344 296 197.344S272 208.094 272 221.344V272H206.469L254.047 161.5C259.281 149.312 253.672 135.188 241.484 129.969C229.266 124.656 215.188 130.344 209.953 142.5L147.953 286.5C144.766 293.938 145.516 302.438 149.953 309.188S161.922 320 170 320H272V360C272 373.25 282.75 384 296 384S320 373.25 320 360V320H328C341.25 320 352 309.25 352 296S341.25 272 328 272Z"/></svg>