<svg xmlns="http://www.w3.org/2000/svg" viewBox="0 0 512 512"><!-- Font Awesome Pro 6.0.0-alpha2 by @fontawesome - https://fontawesome.com License - https://fontawesome.com/license (Commercial License) --><path d="M224.404 269.656L183.031 311.031C176.172 317.906 174.109 328.219 177.828 337.188S190.297 352 200 352H328C341.25 352 352 341.25 352 328V200C352 190.281 346.156 181.531 337.188 177.812C334.219 176.594 331.094 176 328 176C321.766 176 315.625 178.438 311.031 183.031L269.658 224.406L205.088 159.836C195.719 150.465 180.516 150.465 171.146 159.836L159.834 171.148C150.465 180.516 150.465 195.719 159.834 205.09L224.404 269.656ZM256 496C388.549 496 496 388.547 496 256S388.549 16 256 16S16 123.453 16 256S123.451 496 256 496ZM256 64C361.869 64 448 150.133 448 256S361.869 448 256 448S64 361.867 64 256S150.131 64 256 64Z"/></svg>