<svg xmlns="http://www.w3.org/2000/svg" viewBox="0 0 512 512"><!-- Font Awesome Pro 6.0.0-alpha2 by @fontawesome - https://fontawesome.com License - https://fontawesome.com/license (Commercial License) --><path d="M256 16C123.451 16 16 123.451 16 256S123.451 496 256 496S496 388.549 496 256S388.549 16 256 16ZM256 448C150.131 448 64 361.869 64 256S150.131 64 256 64S448 150.131 448 256S361.869 448 256 448ZM256 128C203.062 128 160 171.062 160 224C160 267.859 189.732 304.533 229.979 315.963L200.219 341.906C190.25 350.625 189.187 365.781 197.906 375.781C202.656 381.219 209.312 384 216 384C221.594 384 227.219 382.062 231.781 378.094L311.719 308.406C324.451 297.289 352 265.301 352 224C352 171.062 308.938 128 256 128ZM302.031 237.719C296 257.906 277.062 272 256 272C229.531 272 208 250.469 208 224S229.531 176 256 176S304 197.531 304 224C304 228.719 303.344 233.312 302.031 237.719Z"/></svg>