<svg xmlns="http://www.w3.org/2000/svg" viewBox="0 0 512 512"><!-- Font Awesome Pro 6.0.0-alpha2 by @fontawesome - https://fontawesome.com License - https://fontawesome.com/license (Commercial License) --><path d="M256 16C123.451 16 16 123.451 16 256S123.451 496 256 496S496 388.549 496 256S388.549 16 256 16ZM256 448C150.131 448 64 361.869 64 256S150.131 64 256 64S448 150.131 448 256S361.869 448 256 448ZM328 336H246.188L309.25 278.812C326.25 262.125 335.625 239.906 335.625 216.25S326.25 170.375 309.25 153.688C274.453 119.5 217.797 119.5 183 153.688L172 164.469C162.531 173.719 162.375 188.938 171.656 198.406C180.969 207.875 196.141 208.062 205.594 198.719L216.609 187.938C232.875 172 259.391 172 275.625 187.938C283.359 195.531 287.625 205.594 287.625 216.25S283.359 236.969 276.313 243.906L167.875 342.219C160.531 348.875 158.031 359.375 161.609 368.625C165.188 377.906 174.078 384 184 384H328C341.25 384 352 373.25 352 360S341.25 336 328 336Z"/></svg>