<svg xmlns="http://www.w3.org/2000/svg" viewBox="0 0 512 512"><!-- Font Awesome Pro 6.0.0-alpha2 by @fontawesome - https://fontawesome.com License - https://fontawesome.com/license (Commercial License) --><path d="M256 16C123.451 16 16 123.449 16 256S123.451 496 256 496S496 388.551 496 256S388.549 16 256 16ZM256 448C150.131 448 64 361.867 64 256S150.131 64 256 64S448 150.133 448 256S361.869 448 256 448ZM136.752 172.805C131.379 175 128 180.094 128 185.547V341.859C128 346.906 133.643 350.406 138.562 348.266C189.08 326.289 228.188 345.039 240 352V168.953C230.098 164.891 215.014 160.336 195.896 160.016C178.324 159.688 157.977 164.125 136.752 172.805ZM375.242 172.805C354.012 164.156 333.607 159.863 316.104 160.016C296.986 160.336 281.902 164.891 272 168.953V351.996C283.809 345.035 322.902 326.281 373.438 348.266C378.357 350.406 384 346.906 384 341.859V185.555C384 180.094 380.621 175 375.242 172.805Z"/></svg>