<svg xmlns="http://www.w3.org/2000/svg" viewBox="0 0 512 512"><!-- Font Awesome Pro 6.0.0-alpha2 by @fontawesome - https://fontawesome.com License - https://fontawesome.com/license (Commercial License) --><path d="M327.031 151.031L192 286.062V188.719C192 175.469 181.25 164.719 168 164.719S144 175.469 144 188.719V344C144 357.25 154.75 368 168 368H323.297C336.547 368 347.297 357.25 347.297 344S336.547 320 323.297 320H225.938L360.969 184.969C370.344 175.594 370.344 160.406 360.969 151.031S336.406 141.656 327.031 151.031ZM256 16C123.451 16 16 123.453 16 256S123.451 496 256 496S496 388.547 496 256S388.549 16 256 16ZM256 448C150.131 448 64 361.867 64 256S150.131 64 256 64S448 150.133 448 256S361.869 448 256 448Z"/></svg>