<svg xmlns="http://www.w3.org/2000/svg" viewBox="0 0 512 512"><!-- Font Awesome Pro 6.0.0-alpha2 by @fontawesome - https://fontawesome.com License - https://fontawesome.com/license (Commercial License) --><path d="M360 224L272 224.004V168.004C272 158.473 266.344 149.848 257.625 146.004C248.875 142.191 238.719 143.91 231.719 150.379L135.719 239.133C130.781 243.664 128 250.07 128 256.758C128.312 264.539 130.875 270.008 135.844 274.508L231.846 361.754C238.877 368.16 249.033 369.785 257.721 365.941S272.002 353.504 272.002 344.004L272 288.004L360 288C373.25 288 384 277.25 384 264V248C384 234.75 373.25 224 360 224ZM256 16C123.453 16 16 123.453 16 256S123.453 496 256 496S496 388.547 496 256S388.547 16 256 16ZM256 448C150.133 448 64 361.867 64 256S150.133 64 256 64S448 150.133 448 256S361.867 448 256 448Z"/></svg>