<svg xmlns="http://www.w3.org/2000/svg" viewBox="0 0 512 512"><!-- Font Awesome Pro 6.0.0-alpha2 by @fontawesome - https://fontawesome.com License - https://fontawesome.com/license (Commercial License) --><path d="M368 208C368 163.891 332.125 128 288 128H184C170.75 128 160 138.75 160 152V360C160 373.25 170.75 384 184 384S208 373.25 208 360V288H253.969L316.594 374.109C321.281 380.578 328.594 384 336.031 384C340.906 384 345.844 382.516 350.125 379.406C360.844 371.609 363.219 356.609 355.406 345.891L310.641 284.338C343.688 274.5 368 244.195 368 208ZM288 240H208V176H288C305.656 176 320 190.359 320 208S305.656 240 288 240ZM256 16C123.451 16 16 123.451 16 256S123.451 496 256 496S496 388.549 496 256S388.549 16 256 16ZM256 448C150.131 448 64 361.869 64 256S150.131 64 256 64S448 150.131 448 256S361.869 448 256 448Z"/></svg>