<svg xmlns="http://www.w3.org/2000/svg" viewBox="0 0 512 512"><!-- Font Awesome Pro 6.0.0-alpha2 by @fontawesome - https://fontawesome.com License - https://fontawesome.com/license (Commercial License) --><path d="M256 128C185.422 128 128 185.422 128 256S185.422 384 256 384S384 326.578 384 256S326.578 128 256 128ZM256 336C211.891 336 176 300.109 176 256S211.891 176 256 176S336 211.891 336 256S300.109 336 256 336ZM256 16C123.451 16 16 123.451 16 256S123.451 496 256 496S496 388.549 496 256S388.549 16 256 16ZM256 448C150.131 448 64 361.869 64 256S150.131 64 256 64S448 150.131 448 256S361.869 448 256 448Z"/></svg>