<svg xmlns="http://www.w3.org/2000/svg" viewBox="0 0 512 512"><!-- Font Awesome Pro 6.0.0-alpha2 by @fontawesome - https://fontawesome.com License - https://fontawesome.com/license (Commercial License) --><path d="M287.596 242.344L328.969 200.969C335.828 194.094 337.891 183.781 334.172 174.812S321.703 160 312 160H184C170.75 160 160 170.75 160 184V312C160 321.719 165.844 330.469 174.812 334.188C177.781 335.406 180.906 336 184 336C190.234 336 196.375 333.562 200.969 328.969L242.342 287.594L306.912 352.164C316.281 361.535 331.484 361.535 340.854 352.164L352.166 340.852C361.535 331.484 361.535 316.281 352.166 306.91L287.596 242.344ZM256 16C123.451 16 16 123.453 16 256S123.451 496 256 496S496 388.547 496 256S388.549 16 256 16ZM256 448C150.131 448 64 361.867 64 256S150.131 64 256 64S448 150.133 448 256S361.869 448 256 448Z"/></svg>