<svg xmlns="http://www.w3.org/2000/svg" viewBox="0 0 512 512"><!-- Font Awesome Pro 6.0.0-alpha2 by @fontawesome - https://fontawesome.com License - https://fontawesome.com/license (Commercial License) --><path d="M347.5 272H164.5C148 272 139.875 291.875 151.375 303.375L243 394.625C246.5 398 251.125 400 256 400S265.625 398 269.125 394.625L360.625 303.375C372.125 291.875 364 272 347.5 272ZM256 16C123.451 16 16 123.453 16 256S123.451 496 256 496S496 388.547 496 256S388.549 16 256 16ZM256 448C150.131 448 64 361.867 64 256S150.131 64 256 64S448 150.133 448 256S361.869 448 256 448ZM269.125 117.375C265.625 114 260.875 112 256 112S246.5 114 243 117.375L151.375 208.625C139.875 220.125 148 240 164.5 240H347.5C364 240 372.125 220.125 360.625 208.625L269.125 117.375ZM197.35 208L256.053 149.531L314.682 208H197.35Z"/></svg>