<svg xmlns="http://www.w3.org/2000/svg" viewBox="0 0 512 512"><!-- Font Awesome Pro 6.0.0-alpha2 by @fontawesome - https://fontawesome.com License - https://fontawesome.com/license (Commercial License) --><path d="M90.185 123.729C79.3 112.844 61.038 114.76 52.8 127.764C38.382 150.527 27.69 175.885 21.581 202.98C18.22 217.887 29.884 232 45.163 232H45.222C56.603 232 66.181 223.969 68.737 212.879C73.614 191.727 81.993 171.914 93.241 154.062C99.345 144.373 98.302 131.846 90.204 123.748L90.185 123.729ZM213.19 443.104C192.112 438.313 172.36 430.035 154.536 418.918C144.858 412.881 132.386 413.951 124.321 422.018C113.409 432.93 115.36 451.254 128.435 459.451C151.165 473.701 176.45 484.244 203.452 490.238C218.339 493.543 232.397 481.889 232.397 466.641V466.639C232.397 455.225 224.319 445.633 213.19 443.104ZM442.614 212.865C445.175 223.959 454.751 232 466.138 232H466.192C481.468 232 493.138 217.895 489.774 202.994C483.743 176.275 473.249 151.254 459.122 128.736C450.925 115.67 432.606 113.732 421.7 124.639L421.696 124.641C413.628 132.709 412.563 145.184 418.601 154.867C429.597 172.506 437.806 192.033 442.614 212.865ZM68.737 299.119C66.181 288.029 56.603 280 45.222 280H45.163C29.884 280 18.22 294.113 21.581 309.02C27.69 336.113 38.382 361.471 52.8 384.236C61.038 397.24 79.3 399.154 90.185 388.27L90.204 388.25C98.302 380.154 99.345 367.625 93.241 357.938C81.993 340.086 73.614 320.273 68.737 299.119ZM387.931 421.475C379.831 413.375 367.3 412.338 357.606 418.441C339.938 429.566 320.351 437.879 299.442 442.773C288.39 445.361 280.397 454.924 280.397 466.275V466.371C280.397 481.676 294.556 493.355 309.474 489.937C336.284 483.795 361.38 473.16 383.931 458.869C396.927 450.633 398.831 432.375 387.95 421.496L387.931 421.475ZM203.452 21.762C176.45 27.756 151.165 38.299 128.435 52.547C115.36 60.744 113.409 79.07 124.321 89.982C132.386 98.049 144.858 99.119 154.536 93.08C172.36 81.963 192.112 73.687 213.19 68.896C224.319 66.365 232.397 56.773 232.397 45.359C232.397 30.109 218.339 18.457 203.452 21.762ZM466.192 280H466.138C454.751 280 445.175 288.039 442.614 299.135C437.806 319.967 429.597 339.494 418.601 357.131C412.563 366.814 413.628 379.289 421.696 387.357L421.7 387.361C432.606 398.268 450.925 396.328 459.122 383.262C473.249 360.746 483.743 335.723 489.774 309.004C493.138 294.105 481.468 280 466.192 280ZM309.474 22.062C294.556 18.645 280.397 30.322 280.397 45.629V45.725C280.397 57.076 288.39 66.639 299.442 69.227C320.351 74.119 339.938 82.432 357.606 93.559C367.3 99.662 379.831 98.625 387.931 90.523L387.95 90.504C398.831 79.625 396.927 61.365 383.931 53.131C361.38 38.84 336.284 28.203 309.474 22.062Z"/></svg>