<svg xmlns="http://www.w3.org/2000/svg" viewBox="0 0 512 512"><!-- Font Awesome Pro 6.0.0-alpha2 by @fontawesome - https://fontawesome.com License - https://fontawesome.com/license (Commercial License) --><path d="M352 208H160C150.469 208 141.844 213.656 138 222.375C134.188 231.094 135.906 241.281 142.375 248.281L238.375 352.281C242.906 357.188 249.312 360 256 360S269.094 357.188 273.625 352.281L369.625 248.281C376.094 241.281 377.812 231.094 374 222.375C370.156 213.656 361.531 208 352 208ZM256 16C123.451 16 16 123.453 16 256S123.451 496 256 496S496 388.547 496 256S388.549 16 256 16ZM256 448C150.131 448 64 361.867 64 256S150.131 64 256 64S448 150.133 448 256S361.869 448 256 448Z"/></svg>