<svg xmlns="http://www.w3.org/2000/svg" viewBox="0 0 512 512"><!-- Font Awesome Pro 6.0.0-alpha2 by @fontawesome - https://fontawesome.com License - https://fontawesome.com/license (Commercial License) --><path d="M256 16C123.451 16 16 123.449 16 256S123.451 496 256 496S496 388.551 496 256S388.549 16 256 16ZM256 448C150.131 448 64 361.867 64 256S150.131 64 256 64S448 150.133 448 256S361.869 448 256 448ZM256 288C253.969 288 251.969 287.625 250.062 286.859L128 238.035V320C128 337.672 142.326 352 160 352H352C369.674 352 384 337.672 384 320V238.035L261.938 286.859C260.031 287.625 258.031 288 256 288ZM352 160H160C142.326 160 128 174.326 128 192V203.566L256 254.766L384 203.566V192C384 174.326 369.674 160 352 160Z"/></svg>