<svg xmlns="http://www.w3.org/2000/svg" viewBox="0 0 512 512"><!-- Font Awesome Pro 6.0.0-alpha2 by @fontawesome - https://fontawesome.com License - https://fontawesome.com/license (Commercial License) --><path d="M256 16C123.453 16 16 123.453 16 256S123.453 496 256 496S496 388.547 496 256C496 123.449 388.547 16 256 16ZM256 448C150.133 448 64 361.867 64 256S150.133 64 256 64S448 150.129 448 256C448 361.867 361.867 448 256 448ZM248.281 142.375C241.281 135.906 231.094 134.188 222.375 138C213.656 141.844 208 150.469 208 160V352C208 361.531 213.656 370.156 222.375 374C231.094 377.812 241.281 376.094 248.281 369.625L352.281 273.625C357.188 269.094 360 262.688 360 256S357.188 242.906 352.281 238.375L248.281 142.375Z"/></svg>