<svg xmlns="http://www.w3.org/2000/svg" viewBox="0 0 512 512"><!-- Font Awesome Pro 6.0.0-alpha2 by @fontawesome - https://fontawesome.com License - https://fontawesome.com/license (Commercial License) --><path d="M359.5 133.672C349.391 125.094 334.219 126.375 325.672 136.5L256 218.84L186.328 136.5C177.781 126.406 162.609 125.141 152.5 133.672C142.375 142.234 141.109 157.391 149.672 167.5L224.557 256L149.672 344.5C141.109 354.609 142.375 369.766 152.5 378.328C157 382.141 162.516 384 167.984 384C174.797 384 181.578 381.109 186.328 375.5L256 293.16L325.672 375.5C330.422 381.109 337.203 384 344.016 384C349.484 384 355 382.141 359.5 378.328C369.625 369.766 370.891 354.609 362.328 344.5L287.443 256L362.328 167.5C370.891 157.391 369.625 142.234 359.5 133.672ZM256 16C123.451 16 16 123.451 16 256S123.451 496 256 496S496 388.549 496 256S388.549 16 256 16ZM256 448C150.131 448 64 361.869 64 256S150.131 64 256 64S448 150.131 448 256S361.869 448 256 448Z"/></svg>