<svg xmlns="http://www.w3.org/2000/svg" viewBox="0 0 512 512"><!-- Font Awesome Pro 6.0.0-alpha2 by @fontawesome - https://fontawesome.com License - https://fontawesome.com/license (Commercial License) --><path d="M383.062 145.062C370.406 141.234 356.953 148.266 353.062 160.938L313.531 289.391L279.172 161.766C276.359 151.281 266.859 144 256 144S235.641 151.281 232.828 161.766L198.469 289.391L158.938 160.938C155.031 148.266 141.594 141.203 128.938 145.062C116.266 148.953 109.156 162.391 113.062 175.062L177.062 383.062C180.203 393.266 189.688 399.984 200.422 400C211.125 399.812 220.391 392.562 223.172 382.234L256 260.312L288.828 382.234C291.609 392.562 300.875 399.812 311.578 400H312C322.516 400 331.844 393.141 334.938 383.062L398.938 175.062C402.844 162.391 395.734 148.953 383.062 145.062ZM256 16C123.451 16 16 123.451 16 256S123.451 496 256 496S496 388.549 496 256S388.549 16 256 16ZM256 448C150.131 448 64 361.869 64 256S150.131 64 256 64S448 150.131 448 256S361.869 448 256 448Z"/></svg>