<svg xmlns="http://www.w3.org/2000/svg" viewBox="0 0 512 512"><!-- Font Awesome Pro 6.0.0-alpha2 by @fontawesome - https://fontawesome.com License - https://fontawesome.com/license (Commercial License) --><path d="M262.046 232.75L253.765 230.547C213.921 219.734 215.062 213.625 216.39 206.562C218.624 194.641 241.265 188.734 268.874 192.641C276.062 193.687 285.156 195.984 296.687 199.656C309.343 203.766 322.843 196.734 326.843 184.094C330.874 171.469 323.906 157.969 311.281 153.938C298.911 149.982 289.019 147.564 280.046 145.998V128C280.046 114.75 269.296 104 256.046 104S232.046 114.75 232.046 128V145.223C198.316 150.605 174.556 169.279 169.203 197.719C158.578 254.453 216.484 270.156 241.203 276.875L249.796 279.156C293.749 290.766 297.374 295.828 295.577 305.438C293.327 317.359 270.718 323.297 242.953 319.344C231.765 317.781 217.999 313.203 205.874 309.156L199.453 307.031C186.781 302.922 173.281 309.766 169.171 322.375C165.046 334.969 171.921 348.516 184.515 352.656L190.703 354.703C203.546 358.984 217.933 363.5 232.046 365.941V384C232.046 397.25 242.796 408 256.046 408S280.046 397.25 280.046 384V366.811C313.728 361.406 337.429 342.689 342.765 314.281C353.499 256.891 296.249 241.781 262.046 232.75ZM256 16C123.451 16 16 123.451 16 256S123.451 496 256 496S496 388.549 496 256S388.549 16 256 16ZM256 448C150.131 448 64 361.869 64 256S150.131 64 256 64S448 150.131 448 256S361.869 448 256 448Z"/></svg>