<svg xmlns="http://www.w3.org/2000/svg" viewBox="0 0 512 512"><!-- Font Awesome Pro 6.0.0-alpha2 by @fontawesome - https://fontawesome.com License - https://fontawesome.com/license (Commercial License) --><path d="M7.147 224.505C6.407 224.153 5.681 223.996 4.993 223.996C2.279 223.996 0.163 226.442 0.163 229.044C0.163 230.239 0.609 231.466 1.648 232.505L86.767 317.628C92.767 323.628 96.142 331.753 96.142 340.253V384.002H139.889C148.389 384.002 156.513 387.377 162.513 393.377L279.631 510.5C280.669 511.539 281.888 511.985 283.069 511.985C285.632 511.985 288.021 509.884 288.021 507.185C288.021 502.633 208.79 320.189 7.147 224.505ZM246.758 29.633C252.757 35.633 256.007 43.758 256.007 52.258V96.007H299.754C308.254 96.007 316.378 99.382 322.378 105.382L374.625 157.631C380.624 163.631 383.999 171.756 383.999 180.256V224.005H427.747C436.246 224.005 444.371 227.38 450.37 233.38L503.492 286.504C504.531 287.542 505.758 287.988 506.952 287.988C509.554 287.988 512 285.872 512 283.158C512 282.47 511.843 281.744 511.491 281.004C418.519 84.019 234.86 0 228.855 0C226.141 0 224.024 2.446 224.024 5.048C224.024 6.242 224.47 7.47 225.509 8.508L246.758 29.633ZM511.976 479.967C511.976 475.43 511.006 470.839 508.992 466.501L507.492 463.501C363.327 155.18 67.575 0.061 32.08 0.061C21.055 0.061 0 8.603 0 32.605C0 40.382 2.739 47.792 7.772 52.758L152.138 232.505V296.004H214.135L280.006 362.002V424.001H344.502L459.495 504.5C465.119 509.25 472.369 512 479.993 512C486.368 512 492.743 510 498.367 506.125C507.166 499.914 511.976 490.072 511.976 479.967ZM359.626 376.002H328.003V342.003L234.008 248.004H200.135V215.505L92.892 82.132C277.006 188.88 382.749 335.378 435.871 429.376L359.626 376.002Z "></path></svg>