<svg xmlns="http://www.w3.org/2000/svg" viewBox="0 0 512 512"><!-- Font Awesome Pro 6.0.0-alpha2 by @fontawesome - https://fontawesome.com License - https://fontawesome.com/license (Commercial License) --><path d="M256 32C176.152 32 103.738 75.566 64 142.094V56C64 42.75 53.25 32 40 32S16 42.75 16 56V200C16 213.25 26.75 224 40 224H168C181.25 224 192 213.25 192 200S181.25 176 168 176H99.537C129.225 118.281 189.455 80 256 80C353.031 80 432 158.969 432 256S353.031 432 256 432C214.906 432 174.906 417.531 143.375 391.25C133.219 382.75 118.063 384.094 109.563 394.312C101.063 404.5 102.438 419.625 112.625 428.125C152.781 461.562 203.688 480 256 480C379.5 480 480 379.5 480 256S379.5 32 256 32ZM256 128C242.75 128 232 138.75 232 152V272C232 279.75 235.75 287.031 242.047 291.531L298.047 331.531C302.281 334.562 307.156 336 311.984 336C319.469 336 326.844 332.5 331.531 325.938C339.234 315.156 336.734 300.188 325.953 292.469L280 259.656V152C280 138.75 269.25 128 256 128Z"/></svg>