<svg xmlns="http://www.w3.org/2000/svg" viewBox="0 0 512 512"><!-- Font Awesome Pro 6.0.0-alpha2 by @fontawesome - https://fontawesome.com License - https://fontawesome.com/license (Commercial License) --><path d="M448 0H224C188.654 0 160 28.652 160 64V288C160 323.346 188.654 352 224 352H448C483.348 352 512 323.346 512 288V64C512 28.652 483.348 0 448 0ZM464 288C464 296.822 456.822 304 448 304H224C215.178 304 208 296.822 208 288V64C208 55.178 215.178 48 224 48H448C456.822 48 464 55.178 464 64V288ZM304 448C304 456.822 296.822 464 288 464H64C55.178 464 48 456.822 48 448V224C48 215.178 55.178 208 64 208H128V160H64C28.654 160 0 188.652 0 224V448C0 483.346 28.654 512 64 512H288C323.348 512 352 483.346 352 448V384H304V448Z"/></svg>