<svg xmlns="http://www.w3.org/2000/svg" viewBox="0 0 512 512"><!-- Font Awesome Pro 6.0.0-alpha2 by @fontawesome - https://fontawesome.com License - https://fontawesome.com/license (Commercial License) --><path d="M410.75 104.25C397.25 61.75 358 32 312 32C298.5 32 285.25 34.625 272.75 39.75C250.25 14.5 218.375 0 184 0C120 0 67.625 50.25 64.25 113.375C25.625 130.375 0 168.5 0 212C0 271.5 48.375 320 108 320H404C463.625 320 512 271.5 512 212C512 154.75 467.125 107.75 410.75 104.25ZM404 272H108C74.875 272 48 245.125 48 212C48 184 67.125 160 94.375 153.75L115.25 148.875L112.375 124C112.25 122.75 112 121.375 112 120C112 80.25 144.25 48 184 48C209.25 48 232.25 61.125 245.375 83.125L258.75 105.25L279.75 90.25C289.375 83.625 300.5 80 312 80C340.625 80 364.375 101.75 367.25 130.375L369.5 152H404C437.125 152 464 178.875 464 212S437.125 272 404 272ZM352 424C338.75 424 328 434.75 328 448V488C328 501.25 338.75 512 352 512S376 501.25 376 488V448C376 434.75 365.25 424 352 424ZM448 352C434.75 352 424 362.75 424 376V416C424 429.25 434.75 440 448 440S472 429.25 472 416V376C472 362.75 461.25 352 448 352ZM160 424C146.75 424 136 434.75 136 448V488C136 501.25 146.75 512 160 512S184 501.25 184 488V448C184 434.75 173.25 424 160 424ZM64 352C50.75 352 40 362.75 40 376V416C40 429.25 50.75 440 64 440S88 429.25 88 416V376C88 362.75 77.25 352 64 352ZM256 352C242.75 352 232 362.75 232 376V416C232 429.25 242.75 440 256 440S280 429.25 280 416V376C280 362.75 269.25 352 256 352Z"/></svg>