<svg xmlns="http://www.w3.org/2000/svg" viewBox="0 0 640 512"><!-- Font Awesome Pro 6.0.0-alpha2 by @fontawesome - https://fontawesome.com License - https://fontawesome.com/license (Commercial License) --><path d="M543.348 214.469C543.475 212.285 544 210.217 544 208C544 146.145 493.855 96 432 96C420.594 96 409.807 98.207 399.438 101.377C368.885 59.506 319.801 32 264 32C170.801 32 95.412 107.928 96.08 200.793C40.236 220.607 0 273.363 0 336C0 415.529 64.471 480 144 480H504C579.111 480 640 419.109 640 344C640 282.668 599.135 231.428 543.348 214.469ZM504 432H144C91.064 432 48 388.934 48 336C48 295.797 73.771 259.641 112.131 246.029L144.32 234.607C144.047 195.984 144.096 201.461 144.027 197.436C145.395 132.445 198.688 80 264 80C302.396 80 337.629 98.104 360.662 129.67L380.799 157.268L413.471 147.279C462.334 132.338 497.697 172.838 495.428 211.68L493.234 249.402L529.387 260.393C566.838 271.777 592 305.377 592 344C592 392.523 552.523 432 504 432ZM363.26 176.719L235.26 223.969C228.51 226.094 224.01 232.219 224.01 239.219V337.969C218.76 336.719 213.385 335.969 208.01 335.969C181.51 335.969 160.01 350.344 160.01 367.969S181.51 399.969 208.01 399.969S256.01 385.594 256.01 367.969V283.094L352.01 245.594V305.969C346.76 304.719 341.385 303.969 336.01 303.969C309.51 303.969 288.01 318.344 288.01 335.969S309.51 367.969 336.01 367.969S384.01 353.594 384.01 335.969V191.969C384.01 186.844 381.635 182.094 377.51 179.094S368.01 175.219 363.26 176.719Z"/></svg>