<svg xmlns="http://www.w3.org/2000/svg" viewBox="0 0 640 512"><!-- Font Awesome Pro 6.0.0-alpha2 by @fontawesome - https://fontawesome.com License - https://fontawesome.com/license (Commercial License) --><path d="M128.002 208C128.02 247.154 156.192 279.602 193.34 286.502C199.899 277.951 207.262 269.975 215.5 262.844C226.784 226.477 250.332 195.887 280.545 174.738C267.893 147.225 240.264 128.02 208 128.02C163.828 128.02 128.022 163.824 128.002 208ZM96.004 208C96.02 146.146 146.153 96.014 208 96.014C252.246 96.014 290.137 121.893 308.33 159.145C329.321 149.684 352.157 144 376 144C385.805 144 395.477 145.035 405.01 146.709L413.778 134.072C418.922 126.658 414.674 116.404 405.793 114.799L317.225 98.791L301.219 10.207C299.614 1.324 289.36 -2.922 281.946 2.225L208 53.545L134.055 2.225C126.641 -2.922 116.387 1.324 114.782 10.207L98.776 98.791L10.207 114.799C1.326 116.404 -2.922 126.658 2.223 134.072L53.512 208L2.223 281.928C-2.922 289.342 1.326 299.596 10.207 301.201L98.776 317.209L114.782 405.793C116.387 414.676 126.641 418.922 134.055 413.775L161.112 394.996C160.854 391.295 160 387.766 160 384C160 359.807 165.698 336.191 175.996 314.783C129.856 300.945 96.018 258.652 96.004 208ZM582.75 296.375C575.25 246.375 532 208 480 208C474.875 208 469.75 208.375 464.75 209.125C440.5 188 409.25 176 376 176C312 176 257.75 221.25 243.625 281.25C211.625 305.125 192 343 192 384C192 454.625 249.375 512 320 512H524C588 512 640 460 640 396C640 354.25 617.25 316.75 582.75 296.375ZM524 464H320C275.75 464 240 428.25 240 384C240 351.25 259.75 323 288.125 310.75C288.75 262.75 327.75 224 376 224C407.25 224 434.375 240.25 450.125 264.75C458.75 259.25 469 256 480 256C510.875 256 536 281.125 536 312C536 317.875 534.75 323.5 533.125 328.875C566.25 333.375 592 361.5 592 396C592 433.625 561.625 464 524 464Z"/></svg>