<svg xmlns="http://www.w3.org/2000/svg" viewBox="0 0 640 512"><!-- Font Awesome Pro 6.0.0-alpha2 by @fontawesome - https://fontawesome.com License - https://fontawesome.com/license (Commercial License) --><path d="M148.004 176C148.014 194.994 157.016 211.721 170.791 222.711C184.328 189.768 209.883 162.648 243.453 147.906C245.877 143.383 248.746 139.197 251.563 134.975C240.623 123.361 225.213 116.018 208 116.018C174.873 116.018 148.02 142.869 148.004 176ZM162.483 250.955C137.119 235.516 120.014 207.867 120.004 176C120.02 127.4 159.408 88.014 208 88.014C231.744 88.014 253.201 97.516 269.031 112.805C279.856 101.562 292.356 92.186 305.91 84.586L300.42 83.594L286.877 8.637C285.52 1.121 276.842 -2.473 270.569 1.883L208 45.309L145.432 1.883C139.158 -2.473 130.481 1.121 129.123 8.637L115.58 83.594L40.637 97.141C33.123 98.498 29.528 107.176 33.881 113.449L77.276 176L33.881 238.551C29.528 244.824 33.123 253.502 40.637 254.859L115.58 268.406L129.123 343.363C130.481 350.879 139.158 354.473 145.432 350.117L172.024 331.662C164.5 314.52 160 295.807 160 276C160 267.453 161.008 259.133 162.483 250.955ZM555.375 183.375C543.375 146.625 508.75 120 468 120C464.875 120 461.875 120.25 458.875 120.5C437.25 104.75 411.25 96 384 96C331.625 96 286.375 127.25 266.75 173.25C223.375 187.25 192 228 192 276C192 323.523 222.932 363.445 265.596 377.879C262.162 361.426 267.07 343.951 279.735 332.469L279.922 332.299C256.717 324.008 240 302.047 240 276C240 242.875 266.875 216 300 216C301.625 216 303.25 216.375 304.75 216.5C308.625 175.875 342.375 144 384 144C409.25 144 431.375 155.875 446.125 174.125C452.625 170.25 460 168 468 168C492.25 168 512 187.75 512 212C512 213.75 511.75 215.375 511.5 217.25C539.125 222.625 560 246.75 560 276C560 302.273 542.983 324.375 519.459 332.492C525.117 337.48 529.971 343.422 532.781 350.688C536.168 359.463 536.621 368.869 534.76 377.768C577.242 363.232 608 323.393 608 276C608 237.25 587.25 202.375 555.375 183.375ZM488 352H423.906L467.594 246.094C470.438 239.188 468.11 231.219 461.985 226.906C455.891 222.625 447.594 223.156 442.031 228.156L301.235 356.156C296.344 360.594 294.688 367.594 297.078 373.781C299.453 379.938 305.391 384 312 384H376.094L332.406 489.906C329.563 496.812 331.891 504.781 338.016 509.094C340.781 511.031 344 512 347.203 512C351.078 512 354.938 510.594 357.969 507.844L498.766 379.844C503.656 375.406 505.313 368.406 502.922 362.219C500.547 356.062 494.61 352 488 352Z"/></svg>