<svg xmlns="http://www.w3.org/2000/svg" viewBox="0 0 512 512"><!-- Font Awesome Pro 6.0.0-alpha2 by @fontawesome - https://fontawesome.com License - https://fontawesome.com/license (Commercial License) --><path d="M500.312 255.719C507.719 243.25 511.656 228.937 511.656 214C511.656 168.844 474.906 132.094 429.75 132.094C411.75 132.094 390.812 136.375 367.156 144.844C375.625 121.188 379.906 100.25 379.906 82.25C379.906 36.906 343.156 0 298 0C283 0 268.375 4.125 255.719 11.688C243.25 4.281 228.938 0.344 214 0.344C168.844 0.344 132.094 37.094 132.094 82.25C132.094 100.25 136.375 121.188 144.844 144.844C121.188 136.375 100.25 132.094 82.25 132.094C36.906 132.094 0 168.844 0 214C0 229 4.125 243.625 11.688 256.281C4.281 268.75 0.344 283.062 0.344 298C0.344 343.156 37.094 379.906 82.25 379.906C100.25 379.906 121.188 375.625 144.844 367.156C136.375 390.812 132.094 411.75 132.094 429.75C132.094 475.094 168.844 512 214 512C229 512 243.625 507.875 256.281 500.312C268.75 507.719 283.063 511.656 298 511.656C343.156 511.656 379.906 474.906 379.906 429.75C379.906 411.75 375.625 390.812 367.156 367.156C390.812 375.625 411.75 379.906 429.75 379.906C475.094 379.906 512 343.156 512 298C512 283 507.875 268.375 500.312 255.719ZM429.75 331.906C406.5 331.906 371.156 319.75 330.188 297.688C320.906 292.656 309.375 294.344 301.844 301.844C294.344 309.344 292.656 320.875 297.688 330.188C319.75 371.156 331.906 406.5 331.906 429.75C331.906 448.438 316.688 463.656 298 463.656C288.688 463.656 279.969 459.938 273.5 453.219C268.969 448.531 262.75 445.875 256.219 445.875H256.094C249.531 445.906 243.281 448.625 238.781 453.406C232.312 460.25 223.531 464 214 464C195.312 464 180.094 448.625 180.094 429.75C180.094 406.5 192.25 371.156 214.312 330.188C219.344 320.875 217.656 309.344 210.156 301.844C205.531 297.219 199.406 294.812 193.188 294.812C189.312 294.812 185.375 295.75 181.812 297.688C140.844 319.75 105.5 331.906 82.25 331.906C63.562 331.906 48.344 316.688 48.344 298C48.344 288.688 52.062 279.969 58.781 273.5C63.5 268.969 66.156 262.656 66.125 256.094S63.375 243.281 58.594 238.781C51.75 232.312 48 223.531 48 214C48 195.312 63.375 180.094 82.25 180.094C105.5 180.094 140.844 192.25 181.812 214.312C191.125 219.344 202.656 217.656 210.156 210.156S219.344 191.125 214.312 181.812C192.25 140.844 180.094 105.5 180.094 82.25C180.094 63.562 195.312 48.344 214 48.344C223.312 48.344 232.031 52.062 238.5 58.781C243.031 63.469 249.25 66.125 255.781 66.125C262.875 67.375 268.688 63.375 273.219 58.594C279.688 51.75 288.469 48 298 48C316.688 48 331.906 63.375 331.906 82.25C331.906 105.5 319.75 140.844 297.688 181.812C292.656 191.125 294.344 202.656 301.844 210.156C309.375 217.656 320.938 219.375 330.188 214.312C371.156 192.25 406.5 180.094 429.75 180.094C448.438 180.094 463.656 195.312 463.656 214C463.656 223.312 459.938 232.031 453.219 238.5C448.5 243.031 445.844 249.344 445.875 255.906S448.625 268.719 453.406 273.219C460.25 279.688 464 288.469 464 298C464 316.688 448.625 331.906 429.75 331.906Z"/></svg>