<svg xmlns="http://www.w3.org/2000/svg" viewBox="0 0 512 512"><!-- Font Awesome Pro 6.0.0-alpha2 by @fontawesome - https://fontawesome.com License - https://fontawesome.com/license (Commercial License) --><path d="M278.456 94.44C278.185 89.698 275.823 85.326 272.016 82.506L171.62 8.099C166.617 4.346 159.927 3.945 154.49 6.853C149.025 9.825 145.757 15.645 146.111 21.854L149.297 77.763L133.323 78.673C84.871 81.435 47.712 123.085 50.473 171.538L60.72 351.315C28.98 363.383 7.096 394.6 9.131 430.308C11.645 474.42 49.443 508.14 93.554 505.626C137.666 503.111 171.386 465.315 168.872 421.203C166.837 385.496 141.549 356.967 108.642 348.584L98.396 168.806C97.14 146.78 114.028 127.851 136.055 126.595L152.029 125.685L155.215 181.594C155.569 187.802 159.477 193.214 165.244 195.546C167.454 196.421 169.791 196.789 172.1 196.657C175.766 196.448 179.329 194.993 182.122 192.361L273.414 107.029C276.876 103.795 278.726 99.183 278.456 94.44ZM120.95 423.935C121.954 441.551 108.438 456.7 90.822 457.704C73.206 458.708 58.057 445.192 57.053 427.577C56.049 409.961 69.565 394.812 87.18 393.808C104.796 392.804 119.945 406.319 120.95 423.935ZM417.67 6.377C373.56 8.891 339.838 46.687 342.352 90.799C344.387 126.506 369.676 155.035 402.582 163.418L412.828 343.196C414.084 365.222 397.196 384.151 375.169 385.407L359.195 386.317L356.008 330.408C355.655 324.2 351.747 318.788 345.98 316.456C340.265 314.216 333.662 315.343 329.102 319.641L237.81 404.973C234.348 408.207 232.498 412.819 232.768 417.562C233.038 422.304 235.4 426.677 239.208 429.496L339.604 503.903C342.677 506.201 346.383 507.241 350.049 507.033C352.342 506.902 354.638 506.27 356.734 505.149C362.199 502.177 365.467 496.357 365.113 490.148L361.926 434.239L377.9 433.329C426.353 430.567 463.512 388.917 460.75 340.464L450.504 160.687C482.246 148.619 504.128 117.402 502.093 81.694C499.579 37.583 461.782 3.862 417.67 6.377ZM424.043 118.194C406.427 119.198 391.278 105.683 390.274 88.067C389.27 70.452 402.786 55.303 420.401 54.299C438.017 53.295 453.166 66.81 454.171 84.426S441.659 117.19 424.043 118.194Z"/></svg>