<svg xmlns="http://www.w3.org/2000/svg" viewBox="0 0 512 512"><!-- Font Awesome Pro 6.0.0-alpha2 by @fontawesome - https://fontawesome.com License - https://fontawesome.com/license (Commercial License) --><path d="M324.191 149.273C317.16 142.242 305.746 142.242 298.717 149.273L280.482 167.508L328.488 215.516L346.726 197.277C353.756 190.242 353.756 178.836 346.726 171.805L324.191 149.273ZM172.922 275.062C171.246 276.742 170.103 278.875 169.64 281.195L160.119 328.805C159.281 333 162.98 336.703 167.178 335.863L214.789 326.344C217.111 325.875 219.244 324.734 220.92 323.062L311.502 232.496L263.498 184.492L172.922 275.062ZM256.033 32C114.678 32 0.068 125.125 0.068 240C0.068 287.625 19.941 331.25 52.935 366.25C38.062 405.75 7.066 439.125 6.566 439.5C-0.057 446.5 -1.807 456.75 1.943 465.5C5.816 474.25 14.441 480 24.064 480C85.556 480 134.051 454.25 163.172 433.75C192.043 442.75 223.289 448 256.033 448C397.39 448 512 354.875 512 240S397.39 32 256.033 32ZM256.033 400C229.287 400 202.916 395.875 177.67 387.875L154.922 380.75L135.426 394.5C121.178 404.625 101.555 415.875 77.933 423.5C85.306 411.375 92.306 397.75 97.805 383.25L108.428 355.25L87.806 333.375C69.808 314.125 48.062 282.25 48.062 240C48.062 151.75 141.299 80 256.033 80C370.769 80 464.006 151.75 464.006 240S370.769 400 256.033 400Z"/></svg>