<svg xmlns="http://www.w3.org/2000/svg" viewBox="0 0 512 512"><!-- Font Awesome Pro 6.0.0-alpha2 by @fontawesome - https://fontawesome.com License - https://fontawesome.com/license (Commercial License) --><path d="M255.943 32C114.568 32 0.068 125.125 0.068 240C0.068 287.625 19.943 331.25 52.943 366.25C38.068 405.75 7.068 439.125 6.568 439.5C-0.057 446.5 -1.807 456.75 1.943 465.5C5.693 474.25 14.443 480 23.943 480C85.443 480 133.943 454.25 163.068 433.75C193.068 443.125 224.443 448 255.943 448C397.318 448 511.943 354.875 511.943 240S397.318 32 255.943 32ZM255.943 400C229.318 400 202.943 395.875 177.568 387.875L154.943 380.75L135.443 394.5C117.818 407 98.443 416.75 77.943 423.5C85.818 410.75 92.443 397.25 97.818 383.25L108.443 355.25L87.818 333.375C69.693 314.125 47.943 282.25 47.943 240C47.943 151.75 141.318 80 255.943 80C370.693 80 463.943 151.75 463.943 240S370.693 400 255.943 400ZM331.068 128.75L203.193 176C196.443 178.125 191.943 184.25 191.943 191.25V290C186.693 288.75 181.318 288 175.943 288C149.443 288 127.943 302.375 127.943 320S149.443 352 175.943 352S223.943 337.625 223.943 320V235.125L319.943 197.625V258C314.693 256.75 309.318 256 303.943 256C277.443 256 255.943 270.375 255.943 288S277.443 320 303.943 320S351.943 305.625 351.943 288V144C351.943 138.875 349.568 134.125 345.443 131.125S336.068 127.25 331.193 128.75H331.068Z"/></svg>