<svg xmlns="http://www.w3.org/2000/svg" viewBox="0 0 640 512"><!-- Font Awesome Pro 6.0.0-alpha2 by @fontawesome - https://fontawesome.com License - https://fontawesome.com/license (Commercial License) --><path d="M208 220C196.955 220 188 228.953 188 240C188 251.045 196.955 260 208 260S228 251.045 228 240C228 228.953 219.045 220 208 220ZM221.766 88H191.063C166.672 88 146.828 107.844 146.828 132.234C146.828 141.078 153.985 148.234 162.828 148.234S178.828 141.078 178.828 132.234C178.828 125.484 184.313 120 191.063 120H221.766C230.266 120 237.172 126.906 237.172 135.406C237.172 141.281 233.907 146.562 228.657 149.188L200.844 163.094C195.422 165.812 192 171.344 192 177.406V192C192 200.844 199.157 208 208 208S224 200.844 224 192V187.297L242.953 177.812C259.125 169.75 269.172 153.5 269.172 135.406C269.172 109.266 247.907 88 221.766 88ZM599.594 443.736C624.828 413.945 640 376.635 640 336C640 238.797 554.039 160 448 160C447.686 160 447.381 160.041 447.067 160.043C447.534 165.328 448 170.613 448 176C448 274.617 368.321 357.248 261.879 378.523C282.659 455.143 357.987 512 448 512C481.694 512 513.323 503.992 540.848 490.018C565.244 502.02 596.086 512 632.34 512C635.399 512 638.1 510.275 639.36 507.395C640.588 504.516 640.018 501.246 637.918 499.041C637.567 498.689 615.868 475.266 599.594 443.736ZM542.469 317.812L458.469 405.812C454.75 409.703 449.61 411.937 444.235 412H444C438.703 412 433.61 409.891 429.86 406.141L389.86 366.141C382.047 358.328 382.047 345.672 389.86 337.859S410.328 330.047 418.141 337.859L443.672 363.391L513.532 290.187C521.188 282.187 533.828 281.891 541.813 289.531C549.797 297.156 550.094 309.812 542.469 317.812ZM416 176C416 78.797 322.875 0 208 0S0 78.797 0 176C0 217.627 17.176 255.812 45.729 285.947C29.385 317.377 7.26 341.516 6.739 341.906C-0.007 349.057 -1.896 359.715 2.018 368.889C5.93 378.062 14.969 384 24.952 384C79.129 384 123.268 364.764 153.942 345.783C171.207 349.711 189.268 352 208 352C322.875 352 416 273.201 416 176ZM208 304C193.84 304 179.235 302.311 164.59 298.979L145.411 294.617L128.686 304.965C111.686 315.484 94.262 323.355 76.547 328.537C80.731 321.869 84.739 314.971 88.315 308.092L104.09 277.754L80.573 252.934C65.713 237.25 48 211.174 48 176C48 105.42 119.776 48 208 48S368 105.42 368 176S296.225 304 208 304Z"/></svg>