<svg xmlns="http://www.w3.org/2000/svg" viewBox="0 0 512 512"><!-- Font Awesome Pro 6.0.0-alpha2 by @fontawesome - https://fontawesome.com License - https://fontawesome.com/license (Commercial License) --><path d="M256.033 32C114.678 32 0.068 125.125 0.068 240C0.068 287.625 19.941 331.25 52.935 366.25C38.062 405.75 7.066 439.125 6.566 439.5C-0.057 446.5 -1.807 456.75 1.943 465.5C5.816 474.25 14.441 480 24.064 480C85.556 480 134.051 454.25 163.172 433.75C192.043 442.75 223.289 448 256.033 448C397.39 448 512 354.875 512 240S397.39 32 256.033 32ZM256.033 400C229.287 400 202.916 395.875 177.67 387.875L154.922 380.75L135.426 394.5C121.178 404.625 101.555 415.875 77.933 423.5C85.306 411.375 92.306 397.75 97.805 383.25L108.428 355.25L87.806 333.375C69.808 314.125 48.062 282.25 48.062 240C48.062 151.75 141.299 80 256.033 80C370.769 80 464.006 151.75 464.006 240S370.769 400 256.033 400ZM176 192C193.625 192 208 177.625 208 160S193.625 128 176 128S144 142.375 144 160S158.375 192 176 192ZM311.978 167.125C309.012 162.672 304.015 160 298.666 160S288.32 162.672 285.353 167.125L231.849 247.383L219.594 230.574C216.582 226.441 211.777 224 206.666 224S196.75 226.441 193.738 230.574L147.072 294.574C143.523 299.437 143.008 305.883 145.738 311.25C148.467 316.621 153.978 320 160 320H384C389.9 320 395.322 316.754 398.107 311.551C400.89 306.348 400.586 300.035 397.312 295.125L311.978 167.125Z"/></svg>