<svg xmlns="http://www.w3.org/2000/svg" viewBox="0 0 512 512"><!-- Font Awesome Pro 6.0.0-alpha2 by @fontawesome - https://fontawesome.com License - https://fontawesome.com/license (Commercial License) --><path d="M256.033 32C114.678 32 0.068 125.125 0.068 240C0.068 287.625 19.941 331.25 52.935 366.25C38.062 405.75 7.066 439.125 6.566 439.5C-0.057 446.5 -1.807 456.75 1.943 465.5C5.816 474.25 14.441 480 24.064 480C85.556 480 134.051 454.25 163.172 433.75C192.043 442.75 223.289 448 256.033 448C397.39 448 512 354.875 512 240S397.39 32 256.033 32ZM256.033 400C229.287 400 202.916 395.875 177.67 387.875L154.922 380.75L135.426 394.5C121.178 404.625 101.555 415.875 77.933 423.5C85.306 411.375 92.306 397.75 97.805 383.25L108.428 355.25L87.806 333.375C69.808 314.125 48.062 282.25 48.062 240C48.062 151.75 141.299 80 256.033 80C370.769 80 464.006 151.75 464.006 240S370.769 400 256.033 400ZM336.973 159.031C327.598 149.656 312.41 149.656 303.035 159.031L256.004 206.063L208.973 159.031C199.598 149.656 184.41 149.656 175.035 159.031S165.66 183.594 175.035 192.969L222.066 240L175.035 287.031C165.66 296.406 165.66 311.594 175.035 320.969C184.408 330.34 199.592 330.348 208.973 320.969L256.004 273.938L303.035 320.969C312.408 330.34 327.592 330.348 336.973 320.969C346.348 311.594 346.348 296.406 336.973 287.031L289.941 240L336.973 192.969C346.348 183.594 346.348 168.406 336.973 159.031Z"/></svg>