<svg xmlns="http://www.w3.org/2000/svg" viewBox="0 0 512 512"><!-- Font Awesome Pro 6.0.0-alpha2 by @fontawesome - https://fontawesome.com License - https://fontawesome.com/license (Commercial License) --><path d="M508.653 475.781L435.56 352.275C422.275 361.266 408.451 369.35 393.951 376.213L467.341 500.219C471.825 507.797 479.809 512 488.012 512C492.168 512 496.387 510.922 500.215 508.656C511.621 501.906 515.403 487.188 508.653 475.781ZM502.871 236.375C509.699 225.031 506.043 210.281 494.684 203.438C483.34 196.625 468.575 200.266 461.747 211.625C417.873 284.5 340.952 328 256 328C221.694 328 188.851 320.594 158.812 307.336L229.541 187.826C238.002 190.273 246.762 192 256 192S273.998 190.273 282.459 187.826L336.598 279.305C351.454 273.133 365.459 265.26 378.463 255.803L323.964 163.715C341.272 146.342 351.999 122.404 351.999 96C351.999 43.062 308.937 0 256 0S160.001 43.062 160.001 96C160.001 122.404 170.728 146.342 188.036 163.715L117.066 283.633C90.653 264.812 67.745 240.68 50.253 211.625C43.394 200.25 28.628 196.594 17.316 203.438C5.957 210.281 2.301 225.031 9.129 236.375C30.831 272.424 59.538 302.064 92.618 324.943L3.347 475.781C-3.403 487.188 0.379 501.906 11.785 508.656C15.613 510.922 19.832 512 23.988 512C32.191 512 40.175 507.797 44.659 500.219L134.301 348.752C171.708 366.158 212.866 376 256 376C357.936 376 450.232 323.812 502.871 236.375ZM256 48C282.468 48 303.999 69.531 303.999 96S282.468 144 256 144S208.001 122.469 208.001 96S229.532 48 256 48Z"/></svg>