<svg xmlns="http://www.w3.org/2000/svg" viewBox="0 0 448 512"><!-- Font Awesome Pro 6.0.0-alpha2 by @fontawesome - https://fontawesome.com License - https://fontawesome.com/license (Commercial License) --><path d="M136 320H24C10.746 320 0 330.742 0 344C0 357.254 10.746 368 24 368H112V456C112 469.254 122.746 480 136 480S160 469.254 160 456V344C160 330.742 149.254 320 136 320ZM312 192H424C437.254 192 448 181.254 448 168C448 154.742 437.254 144 424 144H336V56C336 42.742 325.254 32 312 32S288 42.742 288 56V168C288 181.254 298.746 192 312 192ZM136 32C122.746 32 112 42.742 112 56V144H24C10.746 144 0 154.742 0 168C0 181.254 10.746 192 24 192H136C149.254 192 160 181.254 160 168V56C160 42.742 149.254 32 136 32ZM424 320H312C298.746 320 288 330.742 288 344V456C288 469.254 298.746 480 312 480S336 469.254 336 456V368H424C437.254 368 448 357.254 448 344C448 330.742 437.254 320 424 320Z"/></svg>