<svg xmlns="http://www.w3.org/2000/svg" viewBox="0 0 640 512"><!-- Font Awesome Pro 6.0.0-alpha2 by @fontawesome - https://fontawesome.com License - https://fontawesome.com/license (Commercial License) --><path d="M128 368C110.25 368 96 382.25 96 400S110.25 432 128 432S160 417.75 160 400S145.75 368 128 368ZM160 256H304C319.223 256 333.016 250.465 344 241.59C354.984 250.465 368.777 256 384 256H480C515.346 256 544 227.346 544 192V128C544 92.652 515.346 64 480 64H384C378.441 64 373.143 64.932 368 66.264V64C368 28.652 339.346 0 304 0H160C124.654 0 96 28.652 96 64V192C96 227.346 124.654 256 160 256ZM368 128C368 119.178 375.178 112 384 112H480C488.822 112 496 119.178 496 128V192C496 200.822 488.822 208 480 208H384C375.178 208 368 200.822 368 192V128ZM144 64C144 55.178 151.178 48 160 48H304C312.822 48 320 55.178 320 64V192C320 200.822 312.822 208 304 208H160C151.178 208 144 200.822 144 192V64ZM512 368C494.25 368 480 382.25 480 400S494.25 432 512 432S544 417.75 544 400S529.75 368 512 368ZM320 368C302.25 368 288 382.25 288 400S302.25 432 320 432S352 417.75 352 400S337.75 368 320 368ZM528 288H112C50.145 288 0 338.145 0 400S50.145 512 112 512H528C589.855 512 640 461.855 640 400S589.855 288 528 288ZM528 464H112C76.711 464 48 435.289 48 400C48 364.709 76.711 336 112 336H528C563.289 336 592 364.709 592 400C592 435.289 563.289 464 528 464Z"/></svg>