<svg xmlns="http://www.w3.org/2000/svg" viewBox="0 0 512 512"><!-- Font Awesome Pro 6.0.0-alpha2 by @fontawesome - https://fontawesome.com License - https://fontawesome.com/license (Commercial License) --><path d="M256 16C123.42 16 16 123.418 16 256S123.42 496 256 496S496 388.582 496 256S388.58 16 256 16ZM256 448C150.131 448 64 361.867 64 256S150.131 64 256 64S448 150.133 448 256S361.869 448 256 448ZM255.094 176C255.125 176 255.125 176 255.125 176C276.188 176 296.031 184.312 310.938 199.375C320.313 208.719 335.469 208.875 344.906 199.531C354.312 190.188 354.375 175 345.062 165.563C321.062 141.344 289.125 128 255.125 128C255.125 128 255.125 128 255.094 128C221.125 128 189.156 141.344 165.156 165.562C115.719 215.438 115.719 296.562 165.156 346.438C189.156 370.656 221.125 384 255.094 384C255.125 384 255.125 384 255.125 384C289.125 384 321.063 370.656 345.063 346.438C354.375 337 354.313 321.813 344.906 312.469C335.469 303.156 320.313 303.25 310.938 312.625C296.031 327.688 276.188 336 255.125 336C255.125 336 255.125 336 255.094 336C234 336 214.156 327.688 199.219 312.625C168.281 281.406 168.281 230.594 199.219 199.375C214.156 184.312 234 176 255.094 176Z"/></svg>