<svg xmlns="http://www.w3.org/2000/svg" viewBox="0 0 512 512"><!-- Font Awesome Pro 6.0.0-alpha2 by @fontawesome - https://fontawesome.com License - https://fontawesome.com/license (Commercial License) --><path d="M507.713 167.996C493.964 132.122 467.966 102.373 434.218 83.998C430.843 67.124 421.594 51.999 407.97 41.499C372.847 14.75 329.725 0.125 285.478 0C269.979 0.125 254.48 2 239.356 5.75C224.857 -0.375 208.609 -1.625 193.36 2.25C99.116 25.624 25.621 99.123 2.123 193.371C-1.627 208.495 -0.377 224.495 5.622 238.87C-8.252 297.493 4.872 359.242 41.37 407.241C51.619 420.491 66.368 429.741 82.867 433.24C101.366 467.49 131.489 493.864 167.861 507.739C214.733 525.363 263.23 485.739 254.98 436.24L239.106 341.242C240.731 339.367 242.106 337.493 243.481 335.493C261.605 334.743 278.854 327.243 291.728 314.368L314.351 291.744C327.35 278.744 334.1 261.744 335.225 244.12C337.475 242.745 339.725 241.12 341.849 239.37L436.218 255.119C486.09 263.369 525.337 214.37 507.713 167.996ZM111.74 382.242C100.241 391.241 85.992 386.616 79.492 378.117C57.619 349.492 47.619 314.868 48.744 280.244C49.744 280.619 50.744 281.244 51.869 281.494L187.11 323.118L111.74 382.242ZM184.985 462.865C164.862 455.115 147.363 441.865 134.489 424.616C136.863 423.241 139.238 421.616 141.488 419.991L196.484 376.867L207.609 444.24C208.609 450.115 206.359 456.24 201.609 460.115C196.984 463.865 190.61 464.99 184.985 462.865ZM280.354 257.869L257.73 280.494C251.106 287.119 241.231 289.619 232.232 286.869L65.993 235.62C52.994 231.62 45.37 218.245 48.744 204.995C67.868 127.997 127.989 67.874 204.984 48.749C218.108 45.499 231.607 52.999 235.607 65.999L286.728 232.12C289.603 241.245 287.103 251.119 280.354 257.744V257.869ZM323.351 187.996L281.479 51.999C281.104 50.749 280.479 49.624 280.104 48.374C281.854 48.249 283.728 47.999 285.478 47.999C319.226 47.999 352.099 59.124 378.972 79.623C387.471 86.123 391.971 100.498 382.972 111.873L323.351 187.996ZM444.217 207.745L377.472 196.621L420.844 141.497C422.344 139.372 423.844 137.247 425.094 134.997C442.093 147.747 455.217 165.121 462.841 184.996C464.966 190.621 463.841 196.996 460.091 201.746C456.217 206.37 450.217 208.745 444.217 207.745Z"/></svg>