<svg xmlns="http://www.w3.org/2000/svg" viewBox="0 0 512 512"><!-- Font Awesome Pro 6.0.0-alpha2 by @fontawesome - https://fontawesome.com License - https://fontawesome.com/license (Commercial License) --><path d="M488 232H470.625C459.625 131.875 380.125 52.375 280 41.375V24C280 10.745 269.255 0 256 0H256C242.745 0 232 10.745 232 24V41.375C131.875 52.375 52.375 131.875 41.375 232H24C10.745 232 0 242.745 0 256V256C0 269.255 10.745 280 24 280H41.375C52.375 380.125 131.875 459.625 232 470.625V488C232 501.255 242.745 512 256 512H256C269.255 512 280 501.255 280 488V470.625C380.125 459.625 459.625 380.125 470.625 280H488C501.255 280 512 269.255 512 256V256C512 242.745 501.255 232 488 232ZM280 422.25V392C280 378.745 269.255 368 256 368H256C242.745 368 232 378.745 232 392V422.25C158.375 411.875 100.125 353.5 89.75 280H120C133.255 280 144 269.255 144 256V256C144 242.745 133.255 232 120 232H89.75C100.125 158.375 158.5 100.125 232 89.75V120C232 133.255 242.745 144 256 144H256C269.255 144 280 133.255 280 120V89.75C353.625 100.125 411.875 158.5 422.25 232H392C378.745 232 368 242.745 368 256V256C368 269.255 378.745 280 392 280H422.25C411.875 353.625 353.5 411.875 280 422.25ZM288 256C288 273.625 273.625 288 256 288C238.375 288 224 273.625 224 256S238.375 224 256 224C273.625 224 288 238.375 288 256Z"/></svg>