<svg xmlns="http://www.w3.org/2000/svg" viewBox="0 0 576 512"><!-- Font Awesome Pro 6.0.0-alpha2 by @fontawesome - https://fontawesome.com License - https://fontawesome.com/license (Commercial License) --><path d="M536 96C513.908 96 496 113.908 496 136C496 144.998 499.521 152.889 504.537 159.57L414.91 231.271C408.955 236.035 401.922 238.291 394.975 238.291C383.367 238.291 371.998 231.994 366.297 220.596L308.699 105.398C320.037 98.34 328 86.342 328 72C328 49.908 310.092 32 288 32S248 49.908 248 72C248 86.342 255.963 98.34 267.301 105.398L209.703 220.596C204.002 231.996 192.637 238.291 181.025 238.291C174.08 238.291 167.045 236.035 161.09 231.271L71.463 159.57C76.479 152.889 80 144.998 80 136C80 113.908 62.092 96 40 96S0 113.908 0 136S17.908 176 40 176C40.248 176 40.453 175.863 40.701 175.859L91.223 453.725C93.988 468.939 107.242 480 122.707 480H453.293C468.758 480 482.012 468.939 484.777 453.725L535.299 175.859C535.547 175.863 535.752 176 536 176C558.092 176 576 158.092 576 136S558.092 96 536 96ZM439.941 432H136.061L102.17 245.605L131.105 268.754C145.242 280.063 162.971 286.291 181.025 286.291C211.555 286.291 238.992 269.344 252.637 242.063L288 171.332L323.365 242.064C337.008 269.344 364.445 286.291 394.975 286.291C413.031 286.291 430.76 280.063 444.896 268.754L473.832 245.605L439.941 432Z"/></svg>