<svg xmlns="http://www.w3.org/2000/svg" viewBox="0 0 640 512"><!-- Font Awesome Pro 6.0.0-alpha2 by @fontawesome - https://fontawesome.com License - https://fontawesome.com/license (Commercial License) --><path d="M456.5 262.812L377.375 183.688L448.75 112.312L414.875 78.437L293.75 199.437C281.999 211.062 273.875 225.812 270.25 241.812L241.875 364.312L135.031 471.031C130.344 475.719 128 481.859 128 488C128 494.861 133.368 512 152 512C158.156 512 164.281 509.656 168.969 504.969L275.875 398.187L398.375 369.937C414.375 366.312 429.125 358.062 440.75 346.437L561.999 225.437L528 191.438L456.5 262.812ZM406.75 312.562C401.5 317.812 394.875 321.562 387.5 323.187L295.75 344.437L317 252.688C318.625 245.312 322.375 238.688 327.75 233.438L343.5 217.562L422.625 296.812L406.75 312.562ZM640 200C640 206.861 634.632 224 616 224C609.844 224 603.719 221.656 599.031 216.969L475.563 93.531C475.523 93.492 475.514 93.437 475.475 93.398L423.031 40.969C418.344 36.281 416 30.141 416 24C416 10.291 427.21 0 440 0C446.141 0 452.281 2.344 456.969 7.031L580.437 130.469C580.477 130.508 580.486 130.563 580.525 130.602L632.969 183.031C637.656 187.719 640 193.859 640 200ZM55.258 202.682L40.969 216.969C36.281 221.656 30.156 224 24 224C5.205 224 0 206.802 0 200C0 193.859 2.344 187.719 7.031 183.031L59.475 130.602C59.514 130.563 59.523 130.508 59.563 130.469L183.031 7.031C187.719 2.344 193.859 0 200 0C213.709 0 224 11.21 224 24C224 30.141 221.656 36.281 216.969 40.969L202.314 55.619L297.361 150.6L271.135 176.799C268.525 179.381 266.256 182.246 263.91 185.047L168.428 89.496L164.525 93.398C164.486 93.438 164.477 93.492 164.438 93.531L89.26 168.689L223.314 302.637L212.77 348.154L207.93 352.988C205.061 350.754 201.832 349.02 199.25 346.438L55.258 202.682ZM504.969 471.031C509.656 475.719 512 481.859 512 488C512 494.861 506.632 512 488 512C481.844 512 475.719 509.656 471.031 504.969L374.283 408.334L405.566 401.119C413.119 399.408 420.352 396.697 427.396 393.549L504.969 471.031Z "></path></svg>