<svg xmlns="http://www.w3.org/2000/svg" viewBox="0 0 384 512"><!-- Font Awesome Pro 6.0.0-alpha2 by @fontawesome - https://fontawesome.com License - https://fontawesome.com/license (Commercial License) --><path d="M341.793 128L216 128V24C216 10.745 205.255 0 192 0H192C178.745 0 168 10.745 168 24V128L42.206 128C21.279 128 2.249 143.099 0.201 163.926C-2.155 187.888 16.531 208 40 208C59.25 208 74.625 194.125 78.375 176H112V408L175.375 503.125C179.375 509 185.625 512 192 512S204.625 509 208.625 503.125L272 408V176H305.625C309.375 194.125 324.75 208 344 208C367.468 208 386.155 187.888 383.799 163.926C381.751 143.099 362.721 128 341.793 128ZM224 393.5L192 441.5L160 393.5V176H224V393.5Z"/></svg>