<svg xmlns="http://www.w3.org/2000/svg" viewBox="0 0 576 512"><!-- Font Awesome Pro 6.0.0-alpha2 by @fontawesome - https://fontawesome.com License - https://fontawesome.com/license (Commercial License) --><path d="M400 159.961C391.25 159.961 384 167.209 384 175.957C384 184.705 391.25 191.953 400 191.953S416 184.705 416 175.957C416 167.209 408.75 159.961 400 159.961ZM536 95.977C520.5 95.977 507.5 105.099 500.75 117.971C495 113.847 488.5 110.598 481.375 108.598L412.75 89.228C415.75 85.854 418.875 82.855 421.375 79.231L439.5 51.987C444.375 44.614 442.375 34.741 435.125 29.743L421.75 20.87C414.375 15.996 404.5 17.996 399.625 25.244L381.5 52.487C377.625 58.236 372.25 62.985 366.125 66.109L317.25 90.478L316 91.103L307 88.603L307.75 87.729C315.625 77.731 320 65.359 320 52.737V15.996C320 7.248 312.75 0 304 0H288C279.25 0 272 7.248 272 15.996V52.737C272 54.612 271.375 56.361 270.25 57.736L256.875 74.607L245.875 71.482C242.5 70.483 240.125 67.358 240.125 63.734V15.996C240.125 7.248 232.875 0 224.125 0H208.125C199.25 0 192.125 7.248 192.125 15.996V63.734C192.125 88.728 208.875 110.973 233 117.721L296.75 135.592L282.25 159.961H88C39.5 159.961 0 199.451 0 247.939V311.924H48V319.172L37.625 346.915C31.375 363.661 30.25 381.782 35 400.152L59.5 481.633C64 499.503 79.875 512 98.25 512H162.125C174.5 512 185.999 506.376 193.625 496.629C201.25 486.881 203.875 474.384 200.625 461.262L176.625 380.657L187.25 352.039H256V472.01C256 494.129 273.875 512 296 512H360C382.125 512 400 494.129 400 472.01V302.301L421.875 263.936H464C499.25 263.936 528 235.193 528 199.951V174.332C530.75 174.957 533.25 175.957 536 175.957C558.125 175.957 576 158.086 576 135.967S558.125 95.977 536 95.977ZM480 199.951C480 208.699 472.75 215.947 464 215.947H394.125L352 289.554V463.887H304V303.926H153.999L125.875 378.658L151.25 463.887H104.25L81.125 387.405C79.125 379.532 79.625 371.284 82.375 363.661L96.5 331.919L96 263.936H48V247.939C48 225.82 65.875 207.949 88 207.949H309.75L344.25 149.214C351.75 134.217 368.75 126.719 385 131.218L468.25 154.712C475.25 156.587 480 162.96 480 170.083V199.951Z"/></svg>