<svg xmlns="http://www.w3.org/2000/svg" viewBox="0 0 640 512"><!-- Font Awesome Pro 6.0.0-alpha2 by @fontawesome - https://fontawesome.com License - https://fontawesome.com/license (Commercial License) --><path d="M368 320H272C245.49 320 224 341.49 224 368V464C224 490.51 245.49 512 272 512H368C394.51 512 416 490.51 416 464V368C416 341.49 394.51 320 368 320ZM368 464H272V368H368V464ZM591.832 0H495.832C469.322 0 447.832 21.49 447.832 48V144C447.832 170.51 469.322 192 495.832 192H591.832C618.342 192 639.832 170.51 639.832 144V48C639.832 21.49 618.342 0 591.832 0ZM591.832 144H495.832V48H591.832V144ZM392 72H192V48C192 21.49 170.51 0 144 0H48C21.49 0 0 21.49 0 48V144C0 170.51 21.49 192 48 192H138.066L195.156 291.906C199.594 299.656 207.688 304 216.031 304C220.063 304 224.156 302.969 227.906 300.844C239.406 294.25 243.406 279.594 236.844 268.094L182.307 172.652C188.314 164.637 192 154.787 192 144V120H392C405.25 120 416 109.25 416 96S405.25 72 392 72ZM144 144H48V48H144V144Z"/></svg>