<svg xmlns="http://www.w3.org/2000/svg" viewBox="0 0 640 512"><!-- Font Awesome Pro 6.0.0-alpha2 by @fontawesome - https://fontawesome.com License - https://fontawesome.com/license (Commercial License) --><path d="M608 296C608 283 597 272 584 272H56C43 272 32 283 32 296S43 320 56 320H178L267 468C272 476 280 480 288 480H584C597 480 608 469 608 456S597 432 584 432H302L234 320H584C597 320 608 309 608 296ZM56 240H248C256 240 264 236 269 228L358 80H584C597 80 608 69 608 56S597 32 584 32H344C336 32 328 36 323 44L234 192H56C43 192 32 203 32 216S43 240 56 240Z"/></svg>