<svg xmlns="http://www.w3.org/2000/svg" viewBox="0 0 512 512"><!-- Font Awesome Pro 6.0.0-alpha2 by @fontawesome - https://fontawesome.com License - https://fontawesome.com/license (Commercial License) --><path d="M232 376H176C153.938 376 136 358.062 136 336V224H176C202.51 224 224 202.51 224 176V48C224 21.49 202.51 0 176 0H48C21.49 0 0 21.49 0 48V176C0 202.51 21.49 224 48 224H88V336C88 384.531 127.469 424 176 424H232C245.25 424 256 413.25 256 400S245.25 376 232 376ZM48 176V48H176V176H48ZM464 288H336C309.49 288 288 309.49 288 336V464C288 490.51 309.49 512 336 512H464C490.51 512 512 490.51 512 464V336C512 309.49 490.51 288 464 288ZM464 464H336V336H464V464Z"/></svg>