<svg xmlns="http://www.w3.org/2000/svg" viewBox="0 0 512 512"><!-- Font Awesome Pro 6.0.0-alpha2 by @fontawesome - https://fontawesome.com License - https://fontawesome.com/license (Commercial License) --><path d="M463.875 116.108L271.875 4.219C267 1.406 261.5 0 256 0S245 1.406 240.125 4.219L48.125 116.108C38.125 121.984 32 132.735 32 144.486V367.514C32 379.265 38.125 390.016 48.125 395.892L240.125 507.781C245 510.594 250.5 512 256 512S267 510.594 271.875 507.781L463.875 395.892C473.875 390.016 480 379.265 480 367.514V144.486C480 132.735 473.875 121.984 463.875 116.108ZM256 87.854L328.5 183.991H183.5L256 87.854ZM256 339.26L187.75 231.997H324.25L256 339.26ZM145.125 254.5L208.5 354.012L125.125 334.635L145.125 254.5ZM366.875 254.5L386.875 334.635L303.5 354.012L366.875 254.5ZM383.5 177.24L313.125 83.854L419.125 145.612L383.5 177.24ZM128.5 177.24L92.875 145.612L198.875 83.854L128.5 177.24ZM104.25 219.871L80 317.007V198.368L104.25 219.871ZM232 408.769V447.398L121.75 383.141L232 408.769ZM280 408.769L390.25 383.141L280 447.398V408.769ZM432 317.007L407.75 219.871L432 198.368V317.007Z "></path></svg>