<svg xmlns="http://www.w3.org/2000/svg" viewBox="0 0 448 512"><!-- Font Awesome Pro 6.0.0-alpha2 by @fontawesome - https://fontawesome.com License - https://fontawesome.com/license (Commercial License) --><path d="M424 232H24C10.75 232 0 242.75 0 256S10.75 280 24 280H424C437.25 280 448 269.25 448 256S437.25 232 424 232ZM224 144C250.509 144 272 122.509 272 96S250.509 48 224 48S176 69.491 176 96S197.491 144 224 144ZM224 368C197.491 368 176 389.491 176 416S197.491 464 224 464S272 442.509 272 416S250.509 368 224 368Z"/></svg>