<svg xmlns="http://www.w3.org/2000/svg" viewBox="0 0 576 512"><!-- Font Awesome Pro 6.0.0-alpha2 by @fontawesome - https://fontawesome.com License - https://fontawesome.com/license (Commercial License) --><path d="M368 224C350.375 224 336 238.375 336 256S350.375 288 368 288S400 273.625 400 256S385.625 224 368 224ZM552 464H480V64C480 28.799 451.199 0 416 0H160C124.801 0 96 28.799 96 64V464H24C10.746 464 0 474.744 0 488C0 501.254 10.746 512 24 512H552C565.254 512 576 501.254 576 488C576 474.744 565.254 464 552 464ZM432 464H144V64C144 55.162 151.164 48 160 48H416C424.836 48 432 55.162 432 64V464Z"/></svg>