<svg xmlns="http://www.w3.org/2000/svg" viewBox="0 0 512 512"><!-- Font Awesome Pro 6.0.0-alpha2 by @fontawesome - https://fontawesome.com License - https://fontawesome.com/license (Commercial License) --><path d="M448 304H394.5L346.5 352H448C456.822 352 464 359.178 464 368V448C464 456.822 456.822 464 448 464H64C55.178 464 48 456.822 48 448V368C48 359.178 55.178 352 64 352H165.5L117.5 304H64C28.654 304 0 332.654 0 368V448C0 483.346 28.654 512 64 512H448C483.348 512 512 483.346 512 448V368C512 332.654 483.348 304 448 304ZM432 408C432 394.744 421.254 384 408 384S384 394.744 384 408C384 421.254 394.746 432 408 432S432 421.254 432 408ZM239.031 368.969C243.719 373.656 249.844 376 256 376S268.281 373.656 272.969 368.969L408.969 232.969C418.344 223.594 418.344 208.406 408.969 199.031S384.406 189.656 375.031 199.031L280 294.062V24C280 10.75 269.25 0 256 0S232 10.75 232 24V294.062L136.969 199.031C127.594 189.656 112.406 189.656 103.031 199.031S93.656 223.594 103.031 232.969L239.031 368.969Z"/></svg>