<svg xmlns="http://www.w3.org/2000/svg" viewBox="0 0 384 512"><!-- Font Awesome Pro 6.0.0-alpha2 by @fontawesome - https://fontawesome.com License - https://fontawesome.com/license (Commercial License) --><path d="M169.75 374.625C176 380.875 184.188 384 192.375 384S208.75 380.875 215 374.625L350.908 224.176C378.793 193.309 356.887 144 315.289 144H272.375V80C272.375 53.492 250.885 32 224.375 32H160.375C133.865 32 112.375 53.492 112.375 80V144H69.088C27.457 144 5.564 193.371 33.512 224.227L169.75 374.625ZM160.375 192V80H224.375V192H313.742L192.375 329.367L71.008 192H160.375ZM360 432H24C10.75 432 0 442.75 0 456S10.75 480 24 480H360C373.25 480 384 469.25 384 456S373.25 432 360 432Z"/></svg>