<svg xmlns="http://www.w3.org/2000/svg" viewBox="0 0 384 512"><!-- Font Awesome Pro 6.0.0-alpha2 by @fontawesome - https://fontawesome.com License - https://fontawesome.com/license (Commercial License) --><path d="M109.255 112L109.255 112L232.003 234.746L265.943 268.687L299.884 234.746L336 198.633V384H150.633L186.747 347.887L220.689 313.945L186.748 280.004L64 157.254L109.209 112.004C109.214 112 109.231 112 109.255 112M109.255 64C96.97 64 84.686 68.684 75.313 78.059L30.059 123.312C11.313 142.059 11.315 172.453 30.059 191.195L152.807 313.945L89.375 377.375C80.219 386.531 77.485 400.281 82.437 412.25C87.391 424.219 99.063 432 112 432H352C369.672 432 384 417.688 384 400V160C384 147.062 376.203 135.375 364.25 130.438C360.283 128.766 356.117 127.957 351.987 127.957C343.674 127.957 335.503 131.238 329.375 137.375L265.944 200.805L143.196 78.059C133.823 68.684 121.539 64 109.255 64L109.255 64Z"/></svg>