<svg xmlns="http://www.w3.org/2000/svg" viewBox="0 0 448 512"><!-- Font Awesome Pro 6.0.0-alpha2 by @fontawesome - https://fontawesome.com License - https://fontawesome.com/license (Commercial License) --><path d="M440.969 39.031C431.594 29.656 416.406 29.656 407.031 39.031L294.719 151.344L217.125 73.75C210.625 67.25 202 64 193.5 64C184.875 64 176.375 67.25 169.875 73.75L19.625 224C7 236.5 0 253.5 0 271.25V413.125C0 450.125 29.875 480 66.875 480H208.75C226.375 480 243.375 473 256 460.375L406.25 310.25C419.25 297.125 419.25 276 406.25 262.875L328.656 185.281L440.969 72.969C450.344 63.594 450.344 48.406 440.969 39.031ZM222.125 426.5C218.5 430.125 213.75 432 208.75 432H66.875C56.5 432 48 423.5 48 413.125V271.25C48 266.25 50 261.5 53.5 258L106.75 204.75L275.25 373.25L222.125 426.5ZM309.25 339.25L140.75 170.75L193.375 118.125L362 286.625L309.25 339.25Z"/></svg>