<svg xmlns="http://www.w3.org/2000/svg" viewBox="0 0 640 512"><!-- Font Awesome Pro 6.0.0-alpha2 by @fontawesome - https://fontawesome.com License - https://fontawesome.com/license (Commercial License) --><path d="M288 136C288 122.75 277.25 112 264 112H166.375C163.125 102.375 154.125 96 144 96S124.875 102.375 121.625 112H24C10.75 112 0 122.75 0 136S10.75 160 24 160H264C277.25 160 288 149.25 288 136ZM472 237.625L375.125 208.625C339.125 197.75 300.75 197.75 264.75 208.625L168 237.625V192H120V256C120 273.75 134.375 288 152 288H197.5C167.25 317.375 148.25 356.375 144.125 398.25C143.625 402.75 145.125 407.25 148.125 410.625C151.25 414.001 155.5 416 160.125 416H176.375C184.625 416 191.125 409.375 192 401.125C195.5 369.625 210.375 340.5 233.875 319.25L251 336.375C261 346.375 274.5 352 288.75 352H351.125C365.25 352 378.875 346.375 388.875 336.375L405.999 319.25C429.5 340.5 444.375 369.625 447.875 401.125C448.75 409.375 455.25 416 463.5 416H479.75C484.375 416 488.625 414.001 491.75 410.625C494.75 407.25 496.25 402.75 495.75 398.25C491.625 356.375 472.625 317.375 442.5 288H487.875C505.625 288 519.875 273.75 519.875 256V192H471.875L472 237.625ZM355 302.5C353.875 303.375 352.625 304 351.125 304H288.75C287.25 304 285.875 303.375 284.875 302.5L246.625 264.125L278.5 254.625C305.5 246.5 334.375 246.5 361.25 254.625L393.25 264.125L355 302.5ZM616.375 112.125L518.5 112.375C515.375 102.625 506.25 96 496 96S476.625 102.75 473.5 112.5L375.5 112.875C362.75 113.125 352.5 123.625 352.5 136.5C352.625 149.25 362.875 159.75 375.75 159.875L616.5 159.125C629.375 158.875 639.625 148.375 639.5 135.5C639.5 122.75 629.25 112.25 616.375 112.125Z"/></svg>