<svg xmlns="http://www.w3.org/2000/svg" viewBox="0 0 448 512"><!-- Font Awesome Pro 6.0.0-alpha2 by @fontawesome - https://fontawesome.com License - https://fontawesome.com/license (Commercial License) --><path d="M368.002 32C323.939 32 288.002 67.938 288.002 112S323.939 192 368.002 192S448 156.062 448 112S412.064 32 368.002 32ZM368.002 144C350.357 144 336.002 129.645 336.002 112S350.357 80 368.002 80S400 94.355 400 112S385.646 144 368.002 144ZM159.99 32C148.74 32 137.457 38.32 133.438 51.361C90.938 189.281 0 226.906 0 324.141C0 410.219 71.562 480 160 480S320 410.219 320 324.141C320 226.359 229.271 190.047 186.562 51.361C182.932 38.596 171.479 32 159.99 32ZM272 324.141C272 383.613 221.758 432 160 432S48 383.613 48 324.141C48 290.197 63.762 266.875 93.967 225.211C114.818 196.451 139.463 162.457 159.984 116.799C180.592 162.73 205.311 196.717 226.219 225.459C256.301 266.82 272 289.994 272 324.141Z"/></svg>