<svg xmlns="http://www.w3.org/2000/svg" viewBox="0 0 320 512"><!-- Font Awesome Pro 6.0.0-alpha2 by @fontawesome - https://fontawesome.com License - https://fontawesome.com/license (Commercial License) --><path d="M186.562 51.361C182.932 38.596 171.479 32 159.99 32C148.74 32 137.457 38.32 133.438 51.361C90.938 189.283 0 226.908 0 324.141C0 410.219 71.562 480 160 480S320 410.219 320 324.141C320 226.361 229.273 190.049 186.562 51.361ZM160 432C98.242 432 48 383.615 48 324.141C48 290.197 63.762 266.877 93.967 225.213C114.816 196.453 139.463 162.457 159.986 116.799C180.592 162.73 205.313 196.717 226.219 225.461C256.301 266.822 272 289.994 272 324.141C272 383.615 221.758 432 160 432ZM120 304C133.312 304 144 293.312 144 280S133.312 256 120 256S96 266.688 96 280S106.688 304 120 304ZM196.688 260.688L100.688 356.688C94.438 362.938 94.438 373.063 100.688 379.312C103.812 382.438 107.906 384 112 384S120.188 382.438 123.312 379.312L219.312 283.312C225.562 277.062 225.562 266.937 219.312 260.688S202.938 254.438 196.688 260.688ZM200 336C186.688 336 176 346.688 176 360S186.688 384 200 384S224 373.312 224 360S213.312 336 200 336Z"/></svg>