<svg xmlns="http://www.w3.org/2000/svg" viewBox="0 0 512 512"><!-- Font Awesome Pro 6.0.0-alpha2 by @fontawesome - https://fontawesome.com License - https://fontawesome.com/license (Commercial License) --><path d="M240 64C142.953 64 64 145.25 64 245.125C64 258.375 74.75 269.125 88 269.125S112 258.375 112 245.125C112 171.719 169.422 112 240 112S368 171.719 368 245.125C368 292.094 350.484 336.312 318.688 369.656L313.063 375.562L312.203 383.687C307.359 429.469 270.375 464 226.188 464C212.938 464 202.188 474.75 202.188 488S212.938 512 226.188 512C292.297 512 347.969 463.094 358.828 396.906C395.75 355.375 416 301.781 416 245.125C416 145.25 337.047 64 240 64ZM168 320C161.859 320 155.719 322.344 151.031 327.031L7.031 471.031C2.344 475.719 0 481.859 0 488C0 501.709 11.21 512 24 512C30.141 512 36.281 509.656 40.969 504.969L184.969 360.969C189.656 356.281 192 350.141 192 344C192 330.291 180.79 320 168 320ZM512 24C512 10.291 500.79 0 488 0C481.859 0 475.719 2.344 471.031 7.031L407.031 71.031C402.344 75.719 400 81.859 400 88C400 101.709 411.21 112 424 112C430.141 112 436.281 109.656 440.969 104.969L504.969 40.969C509.656 36.281 512 30.141 512 24ZM240 200C262.062 200 280 217.938 280 240C280 253.25 290.75 264 304 264S328 253.25 328 240C328 191.469 288.531 152 240 152S152 191.469 152 240C152 253.25 162.75 264 176 264S200 253.25 200 240C200 217.938 217.938 200 240 200Z "></path></svg>