<svg xmlns="http://www.w3.org/2000/svg" viewBox="0 0 448 512"><!-- Font Awesome Pro 6.0.0-alpha2 by @fontawesome - https://fontawesome.com License - https://fontawesome.com/license (Commercial License) --><path d="M48.014 352H399.986C441.607 352 463.48 302.371 435.359 271.619L259.373 79.48C249.873 69.168 236.938 64.012 224 64.012C211.064 64.012 198.127 69.168 188.627 79.48L12.641 271.619C-15.48 302.246 6.393 352 48.014 352ZM223.863 112.027C223.877 112.023 223.928 112.012 224 112.012L223.977 111.9L399.986 304L48.037 304.039L223.863 112.027ZM424 400H24C10.746 400 0 410.744 0 424C0 437.254 10.746 448 24 448H424C437.256 448 448 437.254 448 424C448 410.744 437.256 400 424 400Z"/></svg>