<svg xmlns="http://www.w3.org/2000/svg" viewBox="0 0 512 512"><!-- Font Awesome Pro 6.0.0-alpha2 by @fontawesome - https://fontawesome.com License - https://fontawesome.com/license (Commercial License) --><path d="M257.281 304C268.328 304 277.281 295.031 277.281 284V273.746C299.643 268.953 315.486 255.219 319.109 234.312C326.594 191.031 285.078 179.125 262.781 172.75L257.234 171.156C233.531 164.188 234.094 160.969 234.859 156.5C236.234 148.688 251.453 146.781 265.125 148.875C270.719 149.719 276.859 151.688 282.719 153.719C293.109 157.313 304.547 151.781 308.172 141.375C311.797 130.938 306.281 119.531 295.844 115.906C288.625 113.422 282.734 111.828 277.281 110.633V100C277.281 88.969 268.328 80 257.281 80S237.281 88.969 237.281 100V109.992C214.859 114.762 199.09 128.75 195.453 149.688C188.047 192.531 228.641 204.438 245.969 209.531L251.781 211.219C281.062 219.594 280.578 222.406 279.703 227.5C278.328 235.312 263.109 237.25 249.391 235.125C242.453 234.094 233.578 230.906 225.734 228.094L221.266 226.469C210.859 222.875 199.438 228.281 195.75 238.688C192.078 249.094 197.531 260.531 207.953 264.219L212.219 265.719C219.977 268.508 228.6 271.309 237.281 273.23V284C237.281 295.031 246.234 304 257.281 304ZM476.762 214.162H476.76C468.516 214.162 460.531 217.053 454.199 222.33L297.25 353.141C274.566 372.045 237.447 372.047 214.764 353.143L57.801 222.33C51.469 217.053 43.484 214.162 35.242 214.162H35.238C15.777 214.162 0 229.938 0 249.4V448C0 483.346 28.654 512 64 512H448C483.346 512 512 483.346 512 448V249.4C512 229.938 496.223 214.162 476.762 214.162ZM464 448C464 456.822 456.822 464 448 464H64C55.178 464 48 456.822 48 448V276.662L184.062 390.047C204.25 406.828 229.781 416.078 256 416.078S307.75 406.828 327.969 390.031L464 276.664V448ZM112 225.865V56C112 51.594 115.594 48 120 48H392C396.406 48 400 51.594 400 56V225.846L433.719 197.75C438.066 194.129 442.939 191.316 448 188.912V56C448 25.125 422.875 0 392 0H120C89.125 0 64 25.125 64 56V188.918C69.064 191.328 73.941 194.148 78.297 197.781L112 225.865Z"/></svg>