<svg xmlns="http://www.w3.org/2000/svg" viewBox="0 0 640 512"><!-- Font Awesome Pro 6.0.0-alpha2 by @fontawesome - https://fontawesome.com License - https://fontawesome.com/license (Commercial License) --><path d="M544 32H192C156.654 32 128 60.654 128 96V320C128 355.346 156.654 384 192 384H544C579.348 384 608 355.346 608 320V96C608 60.654 579.348 32 544 32ZM560 320C560 328.822 552.822 336 544 336H192C183.178 336 176 328.822 176 320V161.918L296.062 261.969C316.25 278.75 341.781 288 368 288S419.75 278.75 439.969 261.953L560 161.92V320ZM560 99.42L409.25 225.063C386.062 244.344 349.906 244.328 326.781 225.078L176 99.418V96C176 87.178 183.178 80 192 80H544C552.822 80 560 87.178 560 96V99.42ZM80 400V96C53.49 96 32 117.492 32 144V416C32 451.346 60.654 480 96 480H464C490.51 480 512 458.508 512 432H112C94.326 432 80 417.672 80 400Z"/></svg>