<svg xmlns="http://www.w3.org/2000/svg" viewBox="0 0 512 512"><!-- Font Awesome Pro 6.0.0-alpha2 by @fontawesome - https://fontawesome.com License - https://fontawesome.com/license (Commercial License) --><path d="M295.945 308C295.945 288.75 267.246 266.5 224.5 264C220.746 263.625 217.113 266.375 216.266 270.25C215.418 274 217.355 277.875 220.988 279.375L237.941 286.625C250.898 292.125 258.648 300.125 258.648 308.125S250.898 324.125 237.941 329.625L220.988 336.75C215.297 339.25 215.055 349 220.988 351.625L237.941 358.75C250.898 364.25 258.648 372.25 258.648 380.25S250.898 396.25 237.941 401.75L220.988 409C217.355 410.5 215.418 414.375 216.266 418.25C217.113 421.75 220.383 424.375 224.137 424.375H224.621C267.367 421.875 296.066 399.625 296.066 380.375C296.066 367.375 282.746 353.125 260.949 344.375C282.625 335.25 295.945 321 295.945 308ZM240 448C134.131 448 48 361.869 48 256S134.131 64 240 64S432 150.131 432 256C432 274.406 429.246 292.154 424.389 309.018C440.834 314.436 454.963 325.295 464.635 339.873C474.404 313.73 480 285.551 480 256C480 123.451 372.549 16 240 16S0 123.451 0 256S107.451 496 240 496C279.32 496 316.322 486.359 349.076 469.598L335.729 422.186C307.51 438.506 274.875 448 240 448ZM127.988 208C127.988 225.75 142.277 240 159.957 240C177.758 240 192.047 225.75 192.047 208S177.758 176 159.957 176C142.277 176 127.988 190.25 127.988 208ZM379.863 222.125C375.867 196.875 345.715 180 320.043 180C294.25 180 264.098 196.875 260.102 222.125C258.406 233.375 271.605 240.375 279.961 233L289.527 224.5C304.301 211.25 335.664 211.25 350.438 224.5L360.004 233C368.48 240.375 381.559 233.25 379.863 222.125ZM509.037 402.5C500.912 381.75 477.037 371 455.162 376.625L446.662 378.75L444.287 370.375C438.287 349 416.912 333.875 394.537 337.375C368.912 341.375 353.287 366 359.912 390L383.162 472.625C384.787 477.875 390.287 481.125 395.787 479.75L480.162 458.25C504.662 451.875 518.412 426.375 509.037 402.5Z"/></svg>