<svg xmlns="http://www.w3.org/2000/svg" viewBox="0 0 512 512"><!-- Font Awesome Pro 6.0.0-alpha2 by @fontawesome - https://fontawesome.com License - https://fontawesome.com/license (Commercial License) --><path d="M208.773 255.75C213.254 256.875 217.977 254.25 219.309 249.75L238.684 179.75C244.254 159.5 231.297 138.75 209.863 135.25C191.336 132.25 173.535 145.125 168.449 163.25L166.391 170.25L159.246 168.375C141.082 163.75 121.102 172.75 114.441 190.375C106.691 210.625 118.195 232.25 138.66 237.625L208.773 255.75ZM361.594 304.625C335.68 312.875 297.172 317.75 256 317.75S176.441 312.875 150.406 304.625C140.598 301.5 131.031 309.875 132.727 319.875C140.598 367.125 204.051 399.875 256 399.875S371.281 367 379.273 319.875C380.848 310.125 371.645 301.5 361.594 304.625ZM397.559 190.375C390.898 172.75 370.918 163.75 352.754 168.375L345.609 170.25L343.551 163.25C338.586 145.125 320.785 132.25 302.137 135.25C280.703 138.75 267.746 159.5 273.316 179.75L292.691 249.75C293.902 254.25 298.625 256.875 303.227 255.75L373.34 237.5C393.805 232.25 405.309 210.625 397.559 190.375ZM256 16C123.451 16 16 123.451 16 256S123.451 496 256 496S496 388.549 496 256S388.549 16 256 16ZM256 448C150.131 448 64 361.869 64 256S150.131 64 256 64S448 150.131 448 256S361.869 448 256 448Z"/></svg>