<svg xmlns="http://www.w3.org/2000/svg" viewBox="0 0 512 512"><!-- Font Awesome Pro 6.0.0-alpha2 by @fontawesome - https://fontawesome.com License - https://fontawesome.com/license (Commercial License) --><path d="M175.957 189.375C188.309 189.375 199.812 197.25 207.441 211L217.008 228C219.066 231.75 223.184 232.75 226.332 231.75C229.844 230.625 232.266 227.25 232.023 223.375C228.754 181.25 199.812 152 175.957 152C152.223 152 123.281 181.25 120.012 223.375C119.648 227.125 122.07 230.625 125.703 231.75C129.215 232.75 133.09 231.25 135.027 228L144.473 211C152.223 197.25 163.727 189.375 175.957 189.375ZM256 400C307.949 400 371.281 367.125 379.273 320C380.969 310.125 371.645 301.5 361.594 304.75C335.68 313 297.172 317.75 256 317.75S176.441 313 150.406 304.75C140.598 301.625 131.031 310 132.727 320C140.719 367.125 204.051 400 256 400ZM391.988 223.375C388.719 181.25 359.777 152 336.043 152C312.188 152 283.246 181.25 279.977 223.375C279.734 227.125 282.156 230.625 285.668 231.75C289.18 232.75 293.055 231.25 294.992 228L304.559 211C312.187 197.25 323.691 189.375 336.043 189.375C348.273 189.375 359.777 197.25 367.527 211L376.973 228C379.152 231.625 383.148 232.625 386.297 231.75C389.93 230.625 392.352 227.25 391.988 223.375ZM456 176C446.15 176 436.838 174.074 427.99 171.184C440.678 196.801 448 225.529 448 256C448 361.869 361.869 448 256 448S64 361.869 64 256S150.131 64 256 64C298.285 64 337.293 77.906 369.051 101.158C368.639 97.832 368 94.568 368 91.139C368 80.104 372.336 66.371 379.861 50.715C343.668 28.828 301.383 16 256 16C123.451 16 16 123.451 16 256S123.451 496 256 496S496 388.549 496 256C496 226.473 490.412 198.314 480.658 172.189C472.783 174.426 464.617 176 456 176ZM456 144C486.871 144 512 120.379 512 91.139C512 68.643 478.686 23.229 463.465 3.691C459.732 -1.23 452.268 -1.23 448.535 3.691C433.168 23.229 400 68.643 400 91.139C400 120.379 425.129 144 456 144Z"/></svg>