<svg xmlns="http://www.w3.org/2000/svg" viewBox="0 0 512 512"><!-- Font Awesome Pro 6.0.0-alpha2 by @fontawesome - https://fontawesome.com License - https://fontawesome.com/license (Commercial License) --><path d="M175.957 240C193.758 240 208.047 225.75 208.047 208S193.758 176 175.957 176C158.277 176 143.988 190.25 143.988 208S158.277 240 175.957 240ZM344.035 320H167.965C154.766 320 143.988 330.75 143.988 344S154.766 368 167.965 368H344.035C357.234 368 368.012 357.25 368.012 344S357.234 320 344.035 320ZM336.043 176C318.242 176 303.953 190.25 303.953 208S318.242 240 336.043 240C353.723 240 368.012 225.75 368.012 208S353.723 176 336.043 176ZM256 16C123.451 16 16 123.451 16 256S123.451 496 256 496S496 388.549 496 256S388.549 16 256 16ZM256 448C150.131 448 64 361.869 64 256S150.131 64 256 64S448 150.131 448 256S361.869 448 256 448Z"/></svg>