<svg xmlns="http://www.w3.org/2000/svg" viewBox="0 0 512 512"><!-- Font Awesome Pro 6.0.0-alpha2 by @fontawesome - https://fontawesome.com License - https://fontawesome.com/license (Commercial License) --><path d="M159.973 180C134.301 180 104.148 196.875 100.152 222.125C99.426 227.125 101.848 232.125 106.328 234.5C110.688 236.875 116.258 236.25 120.012 232.875L129.457 224.375C144.352 211.25 175.715 211.25 190.488 224.375L200.055 232.875C202.477 235.125 208.047 237.625 213.738 234.5C218.098 232.125 220.641 227.125 219.793 222.125C215.918 196.875 185.645 180 159.973 180ZM256 16C123.451 16 16 123.451 16 256.002C16 366.65 90.979 459.557 192.828 487.32C209.475 502.182 230.947 511.66 254.697 511.998H254.715C279.924 511.998 302.467 502.445 319.645 487.199C421.254 459.275 496 366.48 496 256.002C496 123.451 388.549 16 256 16ZM320.059 416.002C320.059 451.627 290.875 480.502 255.152 480.002C220.035 479.502 191.941 450.252 191.941 415.002V364.252L209.742 355.377C224.758 347.877 241.227 357.127 244.617 371.877L247.402 384.002C249.461 393.252 262.66 393.252 264.719 384.002L267.504 371.877C270.895 357.127 287.242 347.752 302.379 355.377L320.059 364.252V416.002ZM351.418 422.332C351.561 420.199 352.059 418.17 352.059 416.002V364.471C366.207 352.102 376.369 336.988 379.273 320.002C380.969 310.127 371.645 301.502 361.594 304.752C335.68 313.002 297.172 317.752 256 317.752S176.441 313.002 150.406 304.752C140.477 301.627 131.031 310.002 132.727 320.002C135.631 336.988 145.793 352.102 159.941 364.471V415.002C159.941 417.531 160.49 419.916 160.682 422.398C103.02 389.234 64 327.16 64 256.002C64 150.131 150.131 64 256 64S448 150.131 448 256.002C448 327.117 409.023 389.154 351.418 422.332ZM336.043 184C322.723 184 311.945 194.75 311.945 208S322.723 232 336.043 232C349.242 232 360.02 221.25 360.02 208S349.242 184 336.043 184ZM336.043 128C291.844 128 256 163.75 256 208C256 252.252 291.844 288.002 336.043 288.002S415.965 252.252 415.965 208C415.965 163.75 380.242 128 336.043 128ZM336.043 256.002C309.523 256.002 287.969 234.5 287.969 208S309.523 160 336.043 160C362.441 160 383.996 181.5 383.996 208S362.441 256.002 336.043 256.002Z"/></svg>