<svg xmlns="http://www.w3.org/2000/svg" viewBox="0 0 512 512"><!-- Font Awesome Pro 6.0.0-alpha2 by @fontawesome - https://fontawesome.com License - https://fontawesome.com/license (Commercial License) --><path d="M361.594 304.625C335.68 312.875 297.172 317.75 256 317.75S176.441 312.875 150.406 304.625C140.598 301.5 131.031 309.875 132.727 319.875C140.598 367 204.051 399.875 256 399.875S371.281 367 379.273 319.875C380.848 310.125 371.645 301.5 361.594 304.625ZM336.043 152C312.188 152 283.246 181.25 279.977 223.375C279.734 227.125 282.156 230.625 285.668 231.75C289.18 232.75 293.055 231.25 294.992 228L304.559 211C312.187 197.25 323.691 189.375 336.043 189.375C348.273 189.375 359.777 197.25 367.527 211L376.973 228C379.152 231.75 383.148 232.75 386.297 231.75C389.93 230.625 392.352 227.25 391.988 223.375C388.719 181.25 359.777 152 336.043 152ZM144.473 211C152.223 197.25 163.727 189.375 175.957 189.375C188.309 189.375 199.812 197.25 207.441 211L217.008 228C219.066 231.75 223.184 232.75 226.332 231.75C229.844 230.625 232.266 227.25 232.023 223.375C228.754 181.25 199.812 152 175.957 152C152.223 152 123.281 181.25 120.012 223.375C119.648 227.125 122.07 230.625 125.703 231.75C129.215 232.75 133.09 231.25 135.027 228L144.473 211ZM256 16C123.451 16 16 123.451 16 256S123.451 496 256 496S496 388.549 496 256S388.549 16 256 16ZM256 448C150.131 448 64 361.869 64 256S150.131 64 256 64S448 150.131 448 256S361.869 448 256 448Z"/></svg>