<svg xmlns="http://www.w3.org/2000/svg" viewBox="0 0 640 512"><!-- Font Awesome Pro 6.0.0-alpha2 by @fontawesome - https://fontawesome.com License - https://fontawesome.com/license (Commercial License) --><path d="M224 64C100.289 64 0 164.287 0 288C0 411.711 100.289 512 224 512S448 411.711 448 288C448 164.287 347.711 64 224 64ZM224 464C126.953 464 48 385.047 48 288S126.953 112 224 112S400 190.953 400 288S321.047 464 224 464ZM143.969 272C161.77 272 176.059 257.75 176.059 240S161.77 208 143.969 208C126.289 208 112 222.25 112 240S126.289 272 143.969 272ZM304.031 272C321.711 272 336 257.75 336 240S321.711 208 304.031 208C286.23 208 271.941 222.25 271.941 240S286.23 272 304.031 272ZM306.465 328.75C285.637 353.75 254.879 368.125 222.426 368.125S159.215 353.875 138.387 328.75C129.91 318.5 114.773 317.25 104.602 325.625C94.43 334.125 93.098 349.25 101.574 359.375C131.484 395.375 175.684 416 222.426 416S313.367 395.375 343.277 359.375C351.875 349.25 350.422 334.125 340.25 325.625C330.078 317.25 314.941 318.5 306.465 328.75ZM616 72H568V24C568 10.75 557.25 0 544 0S520 10.75 520 24V72H472C458.75 72 448 82.75 448 96S458.75 120 472 120H520V168C520 181.25 530.75 192 544 192S568 181.25 568 168V120H616C629.25 120 640 109.25 640 96S629.25 72 616 72Z"/></svg>