<svg xmlns="http://www.w3.org/2000/svg" viewBox="0 0 576 512"><!-- Font Awesome Pro 6.0.0-alpha2 by @fontawesome - https://fontawesome.com License - https://fontawesome.com/license (Commercial License) --><path d="M400 224H336C327.125 224 320 231.125 320 240V304C320 312.875 327.125 320 336 320H400C408.875 320 416 312.875 416 304V240C416 231.125 408.875 224 400 224ZM572.625 246.25L517.053 135.105C513.75 128.5 508.252 123.246 501.5 120.25L381 66.75C372.715 63.07 363.258 63.074 354.975 66.762L234.5 120.375C229.375 122.625 223.5 128.375 224 128.375C222 130.375 220.25 132.75 218.875 135.25L163.375 246.25C161.156 250.689 160 255.584 160 260.547V480C160 497.672 174.326 512 192 512H544C561.674 512 576 497.672 576 480V260.547C576 255.584 574.844 250.689 572.625 246.25ZM528 464H416V416C416 398.326 401.674 384 384 384H352C334.326 384 320 398.326 320 416V464H208V264.25L259.25 161.875L368 113.5L476.75 161.875L528 264.25V464ZM136 144H48V112C48 76.719 76.719 48 112 48C138.562 48 161.969 64 171.656 88.75C176.469 101.094 190.438 107.188 202.75 102.344C215.094 97.531 221.188 83.594 216.344 71.25C199.438 27.969 158.469 0 112 0C50.25 0 0 50.25 0 112V488C0 501.25 10.75 512 24 512S48 501.25 48 488V192H136C149.25 192 160 181.25 160 168S149.25 144 136 144Z"/></svg>