<svg xmlns="http://www.w3.org/2000/svg" viewBox="0 0 512 512"><!-- Font Awesome Pro 6.0.0-alpha2 by @fontawesome - https://fontawesome.com License - https://fontawesome.com/license (Commercial License) --><path d="M481.152 0C480.395 0 479.635 0.027 478.865 0.082C362.48 8.434 -2.975 61.971 75.107 402.955L7.031 471.031C-2.344 480.406 -2.344 495.594 7.031 504.969C11.719 509.656 17.844 512 24 512S36.281 509.656 40.969 504.969L108.998 436.939C141.432 444.373 171.404 448 198.84 448C459.949 448 504.359 138.461 511.918 33.135C513.217 15.039 498.967 0 481.152 0ZM198.84 400C183.459 400 167.043 398.26 150.213 395.725L193.938 352H335.102C284.73 392.031 231.611 400 198.84 400ZM380.244 304H241.938L289.938 256H409.762C400.621 274.359 390.604 289.859 380.244 304ZM429.482 208H337.938L344.969 200.969C354.344 191.594 354.344 176.406 344.969 167.031S320.406 157.656 311.031 167.031L115.922 362.141C105.002 291.377 116.414 233.57 150.643 186.357C224.199 84.895 389.211 57.109 462.402 49.691C456.482 113.705 444.631 165.152 429.482 208Z"/></svg>