<svg xmlns="http://www.w3.org/2000/svg" viewBox="0 0 512 512"><!-- Font Awesome Pro 6.0.0-alpha2 by @fontawesome - https://fontawesome.com License - https://fontawesome.com/license (Commercial License) --><path d="M467.12 44.872C438.247 15.999 401.625 0 361.628 0C314.882 0 263.636 21.874 214.765 70.621L129.021 156.365C54.027 231.486 56.777 352.853 72.776 405.35L7.031 470.971C-2.344 480.346 -2.344 495.595 7.031 504.969C16.405 514.344 31.654 514.344 41.028 504.969L106.648 439.348C124.022 444.598 149.02 448.473 177.518 448.473C234.638 448.473 305.508 432.974 355.629 382.977L441.372 297.232C531.99 206.612 529.615 107.493 467.12 44.872ZM147.395 398.601L194.016 351.979H318.007C273.51 393.851 211.265 400.476 177.518 400.476C166.018 400.476 156.144 399.601 147.395 398.601ZM350.629 319.98H226.014L290.009 255.984H413.749C411.5 258.359 409.75 260.859 407.375 263.234L350.629 319.98ZM438.872 223.986H322.006L344.505 201.488C353.879 192.113 353.879 176.864 344.505 167.49C335.13 158.115 319.882 158.115 310.507 167.49L113.522 364.478C108.273 318.606 113.272 240.235 163.019 190.363C163.019 190.363 181.767 171.74 248.762 104.619C285.759 67.621 324.756 47.997 361.628 47.997C388.251 47.997 412.999 58.746 433.123 78.87C472.245 117.993 473.12 171.115 438.872 223.986Z"/></svg>