<svg xmlns="http://www.w3.org/2000/svg" viewBox="0 0 384 512"><!-- Font Awesome Pro 6.0.0-alpha2 by @fontawesome - https://fontawesome.com License - https://fontawesome.com/license (Commercial License) --><path d="M365.256 93.383L290.627 18.746C278.625 6.742 262.348 0 245.373 0H64C28.654 0 0 28.652 0 64L0.02 448C0.02 483.344 28.674 512 64.02 512H320C355.199 512 384 483.199 384 448V138.641C384 121.664 377.258 105.383 365.256 93.383ZM336.002 448C336.002 456.836 328.838 464 320.002 464H64.018C55.18 464 48.018 456.836 48.018 448L48 64.125C48 55.289 55.164 48.125 64 48.125H224.008V128C224.008 145.672 238.334 160 256.008 160H336.002V448ZM179.5 298.5C178.125 297.25 177.375 295.875 177.375 294.625C177.375 291.5 181.75 288 187.75 288H192C200.801 288 208 280.797 208 272C208 263.199 200.801 256 192 256H187.75C164.375 256 145.375 273.375 145.375 294.625C145.375 305.25 150.25 315.5 158.625 322.75L180.5 341.5C181.875 342.75 182.625 344.125 182.625 345.375C182.625 348.5 178.25 352 172.25 352H168C159.199 352 152 359.199 152 368C152 376.797 159.199 384 168 384H172.25C195.625 384 214.625 366.625 214.625 345.375C214.625 334.75 209.75 324.5 201.375 317.25L179.5 298.5ZM112 288C120.801 288 128 280.797 128 272C128 263.199 120.801 256 112 256C85.49 256 64 277.492 64 304V336C64 362.508 85.49 384 112 384C120.801 384 128 376.797 128 368C128 359.199 120.801 352 112 352C103.164 352 96 344.836 96 336V304C96 295.164 103.164 288 112 288ZM256 272C256 263.199 248.801 256 240 256S224 263.199 224 272V284.75C224 320.25 236.875 353.75 260.25 378.875C263.25 382.125 267.5 384 272 384S280.75 382.125 283.75 378.875C307.125 353.75 320 320.25 320 284.75V272C320 263.199 312.801 256 304 256S288 263.199 288 272V284.75C288 305.125 282.25 325 272 341.625C261.75 325 256 305.125 256 284.75V272Z"/></svg>