<svg xmlns="http://www.w3.org/2000/svg" viewBox="0 0 448 512"><!-- Font Awesome Pro 6.0.0-alpha2 by @fontawesome - https://fontawesome.com License - https://fontawesome.com/license (Commercial License) --><path d="M298.666 189.332C298.666 182 292.668 176 285.334 176H258.666C251.332 176 245.334 182 245.334 189.332V229.332H205.334C198 229.332 192 235.332 192 242.664V269.332C192 276.664 198 282.664 205.334 282.664H245.334V322.664C245.334 329.996 251.332 336 258.666 336H285.334C292.668 336 298.666 329.996 298.666 322.664V282.664H338.666C346 282.664 352 276.664 352 269.332V242.664C352 235.332 346 229.332 338.666 229.332H298.666V189.332ZM48 432V96C21.49 96 0 117.492 0 144V448C0 483.344 28.654 512 64 512H304C330.51 512 352 490.508 352 464H80C62.326 464 48 449.672 48 432ZM429.256 93.383L354.627 18.746C342.625 6.742 326.348 0 309.373 0H160C124.654 0 96 28.652 96 64L96.02 352C96.02 387.344 124.674 416 160.02 416H384C419.199 416 448 387.199 448 352V138.641C448 121.664 441.258 105.383 429.256 93.383ZM400.002 352C400.002 360.836 392.838 368 384.002 368H160.018C151.18 368 144.018 360.836 144.018 352L144 64.125C144 55.289 151.164 48.125 160 48.125H288.008V128C288.008 145.672 302.334 160 320.008 160H400.002V352Z"/></svg>