<svg xmlns="http://www.w3.org/2000/svg" viewBox="0 0 384 512"><!-- Font Awesome Pro 6.0.0-alpha2 by @fontawesome - https://fontawesome.com License - https://fontawesome.com/license (Commercial License) --><path d="M365.256 93.383L290.627 18.746C278.625 6.742 262.348 0 245.373 0H64C28.654 0 0 28.652 0 64L0.02 448C0.02 483.344 28.674 512 64.02 512H320C355.199 512 384 483.199 384 448V138.641C384 121.664 377.258 105.383 365.256 93.383ZM336.002 448C336.002 456.836 328.838 464 320.002 464H64.018C55.18 464 48.018 456.836 48.018 448L48 64.125C48 55.289 55.164 48.125 64 48.125H224.008V128C224.008 145.672 238.334 160 256.008 160H336.002V448ZM206.5 311.875C228.963 299.586 243.441 274.68 239.291 246.367C234.633 214.586 205.611 192 173.49 192H96C87.164 192 80 199.164 80 208V360.055C80 373.277 90.721 384 103.947 384H104.053C117.279 384 128 373.277 128 360.055V320H146.75L205.999 379.25L181.572 403.781C172.254 413.133 172.27 428.27 181.607 437.605L181.631 437.629C190.979 446.977 206.271 446.977 215.619 437.633L240 413.25L264.35 437.699C273.734 447.125 289.066 447.098 298.42 437.641L298.443 437.617C307.74 428.219 307.699 413.07 298.35 403.723L273.999 379.375L298.248 355.023C307.615 345.617 307.559 330.391 298.119 321.055C288.719 311.758 273.574 311.801 264.225 321.148L240 345.375L206.5 311.875ZM176 272H128V240H176C184.875 240 192 247.125 192 256S184.875 272 176 272Z"/></svg>