<svg xmlns="http://www.w3.org/2000/svg" viewBox="0 0 384 512"><!-- Font Awesome Pro 6.0.0-alpha2 by @fontawesome - https://fontawesome.com License - https://fontawesome.com/license (Commercial License) --><path d="M365.256 93.383L290.627 18.746C278.625 6.743 262.347 0 245.373 0H64C28.654 0 0 28.654 0 64L0.02 448C0.02 483.346 28.673 512 64.02 512H320C355.2 512 384 483.2 384 448V138.639C384 121.665 377.258 105.386 365.256 93.383ZM320.002 464H64.017C55.181 464 48.017 456.837 48.017 448.001L48.001 64.126C48 55.289 55.164 48.125 64.001 48.125H224.008V128C224.008 145.673 238.335 160 256.008 160H336.002V448C336.002 456.837 328.839 464 320.002 464Z"/></svg>