<svg xmlns="http://www.w3.org/2000/svg" viewBox="0 0 512 512"><!-- Font Awesome Pro 6.0.0-alpha2 by @fontawesome - https://fontawesome.com License - https://fontawesome.com/license (Commercial License) --><path d="M502.625 217L295 9.375C289 3.375 280.75 0 272.25 0C264.125 0 255.875 3.125 249.75 9.375L162.5 96.5L72.89 7.007C63.531 -2.34 48.368 -2.335 39.015 7.018L39.015 7.018C29.662 16.371 29.662 31.536 39.015 40.889L128.625 130.5L28.125 231C-9.375 268.375 -9.375 329.25 28.125 366.75L145.25 483.875C164 502.625 188.625 512 213.125 512C237.75 512 262.25 502.625 281 483.875L502.625 262.375C515.125 249.75 515.125 229.5 502.625 217ZM409 288H49.375C51.375 279.375 55.625 271.375 62 264.875L162.5 164.5L232.375 234.375C241.75 243.75 257 243.75 266.375 234.375C275.75 225 275.75 209.75 266.375 200.375L196.5 130.5L272.25 54.625L457.375 239.75L409 288Z"/></svg>