<svg xmlns="http://www.w3.org/2000/svg" viewBox="0 0 576 512"><!-- Font Awesome Pro 6.0.0-alpha2 by @fontawesome - https://fontawesome.com License - https://fontawesome.com/license (Commercial License) --><path d="M48 400V96C21.49 96 0 117.492 0 144V416C0 451.344 28.654 480 64 480H432C458.51 480 480 458.508 480 432H80C62.326 432 48 417.672 48 400ZM512 32H160C124.654 32 96 60.654 96 96V320C96 355.346 124.654 384 160 384H512C547.346 384 576 355.346 576 320V96C576 60.654 547.346 32 512 32ZM208 336H160C151.178 336 144 328.822 144 320V280H208V336ZM208 232H144V184H208V232ZM208 136H144V96C144 87.178 151.178 80 160 80H208V136ZM416 336H256V232H416V336ZM416 184H256V80H416V184ZM528 320C528 328.822 520.822 336 512 336H464V280H528V320ZM528 232H464V184H528V232ZM528 136H464V80H512C520.822 80 528 87.178 528 96V136Z"/></svg>