<svg xmlns="http://www.w3.org/2000/svg" viewBox="0 0 576 512"><!-- Font Awesome Pro 6.0.0-alpha2 by @fontawesome - https://fontawesome.com License - https://fontawesome.com/license (Commercial License) --><path d="M544 128H320V80H328C341.254 80 352 69.254 352 56C352 42.744 341.254 32 328 32H256V16C256 7.162 248.836 0 240 0H112C103.164 0 96 7.162 96 16V32H24C10.746 32 0 42.744 0 56C0 69.254 10.746 80 24 80H32V464H24C10.746 464 0 474.744 0 488C0 501.254 10.746 512 24 512H328C341.254 512 352 501.254 352 488C352 474.744 341.254 464 328 464H320V416H480C497.625 416 512 401.625 512 384V352C512 334.375 526.375 320 544 320S576 305.625 576 288V160C576 142.375 561.625 128 544 128ZM272 464H80V80H272V464ZM440 360C440 368.875 432.875 376 424 376H408C399.125 376 392 368.875 392 360V344C392 335.125 399.125 328 408 328H424C432.875 328 440 335.125 440 344V360ZM440 200C440 208.875 432.875 216 424 216H408C399.125 216 392 208.875 392 200V184C392 175.125 399.125 168 408 168H424C432.875 168 440 175.125 440 184V200ZM536 200C536 208.875 528.875 216 520 216H504C495.125 216 488 208.875 488 200V184C488 175.125 495.125 168 504 168H520C528.875 168 536 175.125 536 184V200Z"/></svg>