<svg xmlns="http://www.w3.org/2000/svg" viewBox="0 0 512 512"><!-- Font Awesome Pro 6.0.0-alpha2 by @fontawesome - https://fontawesome.com License - https://fontawesome.com/license (Commercial License) --><path d="M440 120H488C501.25 120 512 109.25 512 96S501.25 72 488 72H440C426.75 72 416 82.75 416 96S426.75 120 440 120ZM488 232H344C330.75 232 320 242.75 320 256S330.75 280 344 280H488C501.25 280 512 269.25 512 256S501.25 232 488 232ZM329.518 64H22.482C3.582 64 -6.85 85.5 5.07 99.877L112 225.793V368C112 375.828 115.812 383.172 122.252 387.656L202.25 443.641C206.533 446.639 211.275 448 215.906 448C228.34 448 240 438.201 240 423.982V225.793L346.93 99.877C358.85 85.5 348.416 64 329.518 64ZM203.412 194.723L192 208.162V377.881L160 355.486V208.162L148.588 194.723L78.336 112H273.662L203.412 194.723ZM488 392H344C330.75 392 320 402.75 320 416S330.75 440 344 440H488C501.25 440 512 429.25 512 416S501.25 392 488 392Z"/></svg>