<svg xmlns="http://www.w3.org/2000/svg" viewBox="0 0 512 512"><!-- Font Awesome Pro 6.0.0-alpha2 by @fontawesome - https://fontawesome.com License - https://fontawesome.com/license (Commercial License) --><path d="M503.375 5.562C497.922 1.031 490.766 -0.844 483.703 0.375L307.703 32.375C296.297 34.469 288 44.406 288 56H200V24C200 10.75 189.25 0 176 0S152 10.75 152 24V56H120C53.844 56 0 109.844 0 176C0 189.25 10.75 200 24 200S48 189.25 48 176C48 136.312 80.312 104 120 104H152V130.719C101.705 141.727 64 186.402 64 240V480C64 497.672 78.328 512 96 512H256C273.674 512 288 497.672 288 480V240C288 186.402 250.295 141.727 200 130.719V104H288C288 115.594 296.297 125.531 307.703 127.625L483.703 159.625C485.141 159.875 486.578 160 488 160C493.578 160 499.031 158.062 503.375 154.438C508.844 149.875 512 143.125 512 136V24C512 16.875 508.844 10.125 503.375 5.562ZM240 464H112V432H240V464ZM240 240V384H112V240C112 204.711 140.711 176 176 176C211.291 176 240 204.711 240 240Z"/></svg>