<svg xmlns="http://www.w3.org/2000/svg" viewBox="0 0 384 512"><!-- Font Awesome Pro 6.0.0-alpha2 by @fontawesome - https://fontawesome.com License - https://fontawesome.com/license (Commercial License) --><path d="M192 0C86.25 93.5 0 214.375 0 298.125C0 424 79 512 192 512S384 424 384 298.125C384 214.125 296.75 92.5 192 0ZM192 65.25C243.375 116.25 336 223.75 336 298.125C336 327.625 330.375 353.75 320.875 376.5C317.375 301.75 237.25 218.625 192 167.75C146.25 219.25 66.625 301.5 63.125 376.5C53.75 353.75 48 327.5 48 298.125C48 223.875 140.625 116.375 192 65.25ZM173.875 462.25C135.75 454.75 110.5 423.5 110.5 381.125C110.5 360.5 124 316.5 192 240C260 316.5 273.5 360.5 273.5 381.125C273.5 423.5 248.25 454.75 210.125 462.25C189.25 464.625 194.75 464.625 173.875 462.25Z"/></svg>