<svg xmlns="http://www.w3.org/2000/svg" viewBox="0 0 384 512"><!-- Font Awesome Pro 6.0.0-alpha2 by @fontawesome - https://fontawesome.com License - https://fontawesome.com/license (Commercial License) --><path d="M192 0C79.75 101.375 0 220.875 0 300.5C0 425 79 512 192 512S384 425 384 300.5C384 220.625 303.75 100.875 192 0ZM192 464C105.875 464 48 398.25 48 300.5C48 254.25 93.25 163.875 192 66.125C278.25 152 336 244.875 336 300.5C336 398.25 278.125 464 192 464ZM237.125 239.625C217.125 222.625 198.375 206.625 198.375 181.5C198.375 178.001 195.625 176.75 194.375 176.375C192 175.625 188.625 175.75 186.375 178.75C131.5 253.375 216 248 216 302.001C216 325.25 197.25 344 174 344C150.75 344 132 325.25 132 302.001V272C132 269.625 130.5 267.375 128.25 266.5C126 265.5 123.5 266.001 121.75 267.75C115.375 274.001 96 294.5 96 327.625C96 376.375 139 416 192 416S288 376.375 288 327.625C288 283.25 262.125 261.125 237.125 239.625Z"/></svg>