<svg xmlns="http://www.w3.org/2000/svg" viewBox="0 0 512 512"><!-- Font Awesome Pro 6.0.0-alpha2 by @fontawesome - https://fontawesome.com License - https://fontawesome.com/license (Commercial License) --><path d="M476.234 0C469.869 0 463.256 1.344 456.928 4.227C411.24 25.082 377.369 32.168 349.094 32.168C289.133 32.168 254.291 0.309 185.217 0.301H185.189C150.559 0.301 107.34 8.309 48 32.352V24C48 10.746 37.256 0 24 0C10.746 0 0 10.746 0 24V488C0 501.254 10.746 512 24 512C37.256 512 48 501.254 48 488V383.977C101.592 360.113 144.02 352.16 180.85 352.16C254.479 352.16 305.775 383.941 379.402 383.941C411.316 383.941 447.42 377.973 491.365 360.852C504.053 355.852 512 344.352 512 332.102V30.727C512 11.996 495.246 0 476.234 0ZM152 32C160.836 32 168 39.164 168 48S160.836 64 152 64S136 56.836 136 48S143.164 32 152 32ZM152 88C160.836 88 168 95.164 168 104S160.836 120 152 120S136 112.836 136 104S143.164 88 152 88ZM88 48C96.836 48 104 55.164 104 64S96.836 80 88 80S72 72.836 72 64S79.164 48 88 48ZM88 112C96.836 112 104 119.164 104 128S96.836 144 88 144S72 136.836 72 128S79.164 112 88 112ZM464 319.84C433.688 330.664 405.922 335.941 379.402 335.941C348.6 335.941 321.088 328.941 291.961 321.531C259.953 313.391 223.674 304.16 180.85 304.16C138.496 304.16 94.859 313.25 48 331.891V283.84L66.025 276.539C113.42 257.336 152.408 248 185.211 248C213.449 248.004 234.336 254.711 258.518 262.48C283.893 270.629 312.65 279.867 349.094 279.867C384.521 279.867 421.334 271.371 464 253.262V319.84ZM464 201.582C461.629 202.238 459.25 202.871 456.928 203.926C411.24 224.781 377.369 231.867 349.094 231.867C289.133 231.867 254.291 200.008 185.217 200H185.189C150.559 200 107.34 208.008 48 232.051V187.84L66.025 180.539C113.42 161.336 152.408 152 185.211 152C213.449 152.004 234.336 158.711 258.518 166.48C283.893 174.629 312.65 183.867 349.094 183.867C384.521 183.867 421.334 175.371 464 157.262V201.582ZM464 105.582C461.629 106.238 459.25 106.871 456.928 107.926C411.24 128.781 377.369 135.867 349.094 135.867C296.127 135.867 262.676 111.086 208 105.281V49.961C225.697 52.383 241.318 57.258 258.518 62.781C283.893 70.93 312.65 80.168 349.094 80.168C384.521 80.168 421.334 71.672 464 53.563V105.582Z"/></svg>