<svg xmlns="http://www.w3.org/2000/svg" viewBox="0 0 512 512"><!-- Font Awesome Pro 6.0.0-alpha2 by @fontawesome - https://fontawesome.com License - https://fontawesome.com/license (Commercial License) --><path d="M476.234 0C469.869 0 463.256 1.344 456.928 4.227C411.24 25.082 377.369 32.168 349.094 32.168C289.133 32.168 254.291 0.309 185.217 0.301H185.189C150.559 0.301 107.34 8.309 48 32.352V24C48 10.746 37.256 0 24 0S0 10.746 0 24V488C0 501.254 10.744 512 24 512S48 501.254 48 488V383.977C101.592 360.113 144.02 352.16 180.85 352.16C254.479 352.16 305.775 383.941 379.402 383.941C411.316 383.941 447.42 377.973 491.365 360.852C504.053 355.852 512 344.352 512 332.102V30.727C512 11.996 495.246 0 476.234 0ZM120 310.422C96.699 315.008 72.822 322.016 48 331.891V283.84L66.025 276.539C85.492 268.652 103.215 262.844 120 258.25V310.422ZM120 208.609C98.807 213.664 75.271 221 48 232.051V187.84L66.025 180.539C85.492 172.652 103.215 166.844 120 162.25V208.609ZM120 112.609C98.807 117.664 75.271 125 48 136.051V84.141L66.025 76.84C85.492 68.953 103.215 63.148 120 58.551V112.609ZM240 309.727C221.703 306.445 202.09 304.16 180.85 304.16C176.602 304.16 172.275 304.664 168 304.844V249.172C173.826 248.648 179.74 248 185.211 248C206.053 248 222.887 251.68 240 256.719V309.727ZM240 207.133C223.719 203.062 206.127 200 185.217 200H185.189C179.816 200 173.814 200.594 168 201.008V153.172C173.826 152.648 179.74 152 185.211 152C206.053 152 222.887 155.68 240 160.719V207.133ZM240 111.133C223.719 107.062 206.127 104 185.217 104H185.189C179.816 104 173.814 104.594 168 105.008V49.473C173.826 48.953 179.74 48.301 185.211 48.301C206.053 48.305 222.887 51.984 240 57.023V111.133ZM360 334.902C336.752 332.781 314.826 327.348 291.961 321.531C290.686 321.207 289.289 320.879 288 320.551V271.184C306.07 276 325.912 279.867 349.094 279.867C352.686 279.867 356.377 279.391 360 279.215V334.902ZM360 231.168C356.373 231.391 352.543 231.867 349.094 231.867C326.162 231.867 306.904 227.195 288 221.438V175.184C306.07 180 325.912 183.867 349.094 183.867C352.686 183.867 356.377 183.391 360 183.215V231.168ZM360 135.168C356.373 135.391 352.543 135.867 349.094 135.867C326.162 135.867 306.904 131.195 288 125.438V71.484C306.07 76.305 325.912 80.168 349.094 80.168C352.686 80.168 356.377 79.691 360 79.516V135.168ZM464 319.84C444.355 326.852 425.859 331.297 408 333.727V272.172C425.734 267.797 444.189 261.672 464 253.262V319.84ZM464 201.582C461.629 202.238 459.25 202.871 456.928 203.926C438.732 212.23 422.84 217.844 408 222.203V176.172C425.734 171.797 444.189 165.672 464 157.262V201.582ZM464 105.582C461.629 106.238 459.25 106.871 456.928 107.926C438.732 116.23 422.84 121.844 408 126.203V72.473C425.734 68.098 444.189 61.969 464 53.562V105.582Z"/></svg>