<svg xmlns="http://www.w3.org/2000/svg" viewBox="0 0 512 512"><!-- Font Awesome Pro 6.0.0-alpha2 by @fontawesome - https://fontawesome.com License - https://fontawesome.com/license (Commercial License) --><path d="M476.234 0C469.869 0 463.256 1.344 456.928 4.227C411.24 25.082 377.369 32.168 349.094 32.168C289.133 32.168 254.291 0.309 185.217 0.301H185.189C150.559 0.301 107.34 8.309 48 32.352V24C48 10.746 37.254 0 24 0S0 10.746 0 24V488C0 501.254 10.746 512 24 512S48 501.254 48 488V383.977C101.592 360.113 144.02 352.16 180.85 352.16C254.479 352.16 305.775 383.941 379.402 383.941C411.316 383.941 447.42 377.973 491.365 360.852C504.053 355.852 512 344.352 512 332.102V30.727C512 11.996 495.246 0 476.234 0ZM464 319.84C433.688 330.664 405.92 335.941 379.402 335.941C348.6 335.941 321.088 328.941 291.961 321.531C259.953 313.391 223.674 304.16 180.85 304.16C138.496 304.16 94.859 313.25 48 331.891V84.141L66.025 76.84C113.42 57.637 152.406 48.301 185.211 48.301C213.449 48.305 234.334 55.012 258.518 62.781C283.893 70.93 312.65 80.168 349.094 80.168C384.521 80.168 421.334 71.672 464 53.562V319.84Z"/></svg>