<svg xmlns="http://www.w3.org/2000/svg" viewBox="0 0 640 512"><!-- Font Awesome Pro 6.0.0-alpha2 by @fontawesome - https://fontawesome.com License - https://fontawesome.com/license (Commercial License) --><path d="M608 96H576C513.375 96 452.25 114.5 400.125 149.25L384 160H48C21.5 160 0 181.5 0 208V304C0 330.5 21.5 352 48 352H384L400.125 362.75C452.25 397.5 513.375 416 576 416H608C625.625 416 640 401.625 640 384V128C640 110.375 625.625 96 608 96ZM544 365.625C502.125 360.875 461.875 346.125 426.75 322.75L398.5 304H48V208H398.5L426.75 189.25C461.875 165.875 502.125 151.25 544 146.375V365.625ZM284 232H260C246.75 232 236 242.75 236 256C236 269.25 246.75 280 260 280H284C297.25 280 308 269.25 308 256C308 242.75 297.25 232 284 232Z"/></svg>