<svg xmlns="http://www.w3.org/2000/svg" viewBox="0 0 448 512"><!-- Font Awesome Pro 6.0.0-alpha2 by @fontawesome - https://fontawesome.com License - https://fontawesome.com/license (Commercial License) --><path d="M224 256C188.799 256 160 284.799 160 320C160 355.199 188.799 384 224 384C259.199 384 288 355.199 288 320C288 284.799 259.199 256 224 256ZM434 130L350.053 46.053C341.055 37.055 328.85 32 316.125 32H64C28.654 32 0 60.652 0 96V416C0 451.346 28.654 480 64 480H384C419.346 480 448 451.346 448 416V163.799C448 151.123 442.965 138.963 434 130ZM128 80H272V160H128V80ZM400 416C400 424.836 392.836 432 384 432H64C55.164 432 48 424.836 48 416V96C48 87.162 55.164 80 64 80H80V184C80 197.254 90.746 208 104 208H296C309.254 208 320 197.254 320 184V83.875L398.25 162.125C399.371 163.244 400 164.766 400 166.35V416Z"/></svg>