<svg xmlns="http://www.w3.org/2000/svg" viewBox="0 0 512 512"><!-- Font Awesome Pro 6.0.0-alpha2 by @fontawesome - https://fontawesome.com License - https://fontawesome.com/license (Commercial License) --><path d="M48 432V96C21.49 96 0 117.492 0 144V448C0 483.344 28.654 512 64 512H368C394.51 512 416 490.508 416 464H80C62.326 464 48 449.672 48 432ZM497.945 97.945L414.055 14.053C405.055 5.055 392.852 0 380.125 0H160C124.654 0 96 28.652 96 64V352C96 387.346 124.654 416 160 416H448C483.346 416 512 387.346 512 352V131.875C512 119.148 506.945 106.943 497.945 97.945ZM224 48H336V96H224V48ZM464 352C464 360.836 456.836 368 448 368H160C151.164 368 144 360.836 144 352V64C144 55.162 151.164 48 160 48H176V120C176 133.254 186.746 144 200 144H360C373.254 144 384 133.254 384 120V51.875L462.232 130.107C463.363 131.238 464 132.773 464 134.375V352ZM304 192C268.799 192 240 220.799 240 256C240 291.199 268.799 320 304 320C339.199 320 368 291.199 368 256C368 220.799 339.199 192 304 192Z"/></svg>