<svg xmlns="http://www.w3.org/2000/svg" viewBox="0 0 512 512"><!-- Font Awesome Pro 6.0.0-alpha2 by @fontawesome - https://fontawesome.com License - https://fontawesome.com/license (Commercial License) --><path d="M448 96H275.883L226.746 50.746C214.742 38.742 198.465 32 181.492 32H64C28.656 32 0 60.656 0 96V416C0 451.344 28.656 480 64 480H448C483.344 480 512 451.344 512 416V160C512 124.656 483.344 96 448 96ZM464 416C464 424.824 456.82 432 448 432H64C55.18 432 48 424.824 48 416V96C48 87.176 55.18 80 64 80H181.492C185.766 80 189.781 81.664 192.805 84.688L256 144H448C456.82 144 464 151.176 464 160V416ZM336.969 207.031C327.594 197.656 312.406 197.656 303.031 207.031L256 254.062L208.969 207.031C199.594 197.656 184.406 197.656 175.031 207.031S165.656 231.594 175.031 240.969L222.062 288L175.031 335.031C165.656 344.406 165.656 359.594 175.031 368.969C184.406 378.34 199.586 378.348 208.969 368.969L256 321.938L303.031 368.969C312.406 378.34 327.586 378.348 336.969 368.969C346.344 359.594 346.344 344.406 336.969 335.031L289.938 288L336.969 240.969C346.344 231.594 346.344 216.406 336.969 207.031Z"/></svg>