<svg xmlns="http://www.w3.org/2000/svg" viewBox="0 0 512 512"><!-- Font Awesome Pro 6.0.0-alpha2 by @fontawesome - https://fontawesome.com License - https://fontawesome.com/license (Commercial License) --><path d="M448 96H275.883L226.746 50.746C214.742 38.742 198.465 32 181.49 32H64C28.654 32 0 60.656 0 96V416C0 451.344 28.654 480 64 480H448C483.346 480 512 451.344 512 416V160C512 124.656 483.346 96 448 96ZM464 416C464 424.824 456.822 432 448 432H64C55.178 432 48 424.824 48 416V96C48 87.176 55.178 80 64 80H181.49C185.764 80 189.783 81.664 192.805 84.688L256 144H448C456.822 144 464 151.176 464 160V416ZM338.459 303.277C339.375 298.309 340 293.234 340 288S339.375 277.691 338.459 272.719L358.766 261C361.576 259.375 362.973 256.016 361.994 252.918C359.742 245.777 356.895 238.754 352.994 232S344.436 219.266 339.381 213.75C337.188 211.352 333.576 210.875 330.766 212.504L310.242 224.352C302.539 217.777 293.734 212.605 284 209.141V185.5C284 182.254 281.785 179.363 278.613 178.664C271.305 177.047 263.799 176 256 176S240.693 177.047 233.387 178.664C230.215 179.363 228 182.254 228 185.5V209.141C218.266 212.605 209.461 217.777 201.756 224.352L181.234 212.504C178.422 210.875 174.812 211.352 172.617 213.75C167.564 219.266 162.904 225.246 159.004 232C155.105 238.754 152.258 245.777 150.004 252.914C149.027 256.016 150.422 259.375 153.234 261L173.539 272.719C172.623 277.691 172 282.766 172 288S172.623 298.309 173.539 303.277L153.234 315C150.422 316.621 149.027 319.984 150.004 323.082C152.258 330.219 155.105 337.246 159.004 344C162.904 350.754 167.564 356.73 172.617 362.25C174.812 364.648 178.422 365.125 181.234 363.496L201.756 351.648C209.461 358.219 218.266 363.391 228 366.855V390.5C228 393.742 230.215 396.637 233.387 397.336C240.693 398.953 248.201 400 256 400S271.305 398.953 278.613 397.336C281.785 396.637 284 393.742 284 390.5V366.855C293.734 363.391 302.539 358.219 310.242 351.648L330.766 363.496C333.576 365.125 337.188 364.648 339.381 362.25C344.436 356.73 349.094 350.754 352.994 344S359.742 330.219 361.996 323.082C362.973 319.984 361.576 316.621 358.766 315L338.459 303.277ZM256 323C236.668 323 221 307.332 221 288S236.668 253 256 253C275.33 253 291 268.668 291 288S275.33 323 256 323Z"/></svg>