<svg xmlns="http://www.w3.org/2000/svg" viewBox="0 0 448 512"><!-- Font Awesome Pro 6.0.0-alpha2 by @fontawesome - https://fontawesome.com License - https://fontawesome.com/license (Commercial License) --><path d="M448 48V384C384.906 406.535 365.664 416 328.531 416C265.711 416 241.93 384 179.199 384C157.508 384 140.721 387.791 125.465 392.766C110.951 397.5 96 386.98 96 371.713V370.967C96 361.691 101.734 353.363 110.42 350.105C129.951 342.781 150.189 336 179.199 336C241.93 336 265.711 368 328.531 368C354.031 368 371.379 363.396 400 353.303V113.303C379.23 120.627 357.707 128 328.539 128C328.535 128 328.535 128 328.531 128C265.723 128 241.922 96 179.203 96C122.102 96 98.805 122.145 48 126.99V456C48 469.254 37.254 480 24 480S0 469.254 0 456V56C0 42.744 10.746 32 24 32S48 42.744 48 56V78.99C98.801 74.145 122.094 48 179.199 48H179.203C241.973 48 265.654 80 328.531 80C366.143 80 386.822 69.848 448 48Z"/></svg>