<svg xmlns="http://www.w3.org/2000/svg" viewBox="0 0 512 512"><!-- Font Awesome Pro 6.0.0-alpha2 by @fontawesome - https://fontawesome.com License - https://fontawesome.com/license (Commercial License) --><path d="M504.905 145.422C495.515 136.094 480.296 136.125 470.968 145.547L337.735 279.719C319.107 298.412 295.839 297.406 271.337 272.904L82.425 463.937L48.065 428.766L242.829 244.912C217.216 219.299 216.011 193.506 234.189 175.219L367.564 40.906C376.907 31.5 376.845 16.312 367.439 6.969C358.048 -2.359 342.829 -2.328 333.501 7.094L200.126 141.391C174.972 166.719 168.956 203.969 182.925 235.062L14.941 394.016C5.63 402.953 0.192 415.5 0.005 428.406C-0.183 441.344 4.958 454.047 14.081 463.234L48.331 497.734C57.347 506.828 69.769 512 82.519 512H83.191C96.112 511.812 108.644 506.297 117.269 497.203L279.751 331.813C310.095 345.344 346.595 338.938 371.798 313.531L505.03 179.359C514.374 169.953 514.312 154.766 504.905 145.422ZM333.626 225.625C338.298 230.266 344.423 232.594 350.532 232.594C356.704 232.594 362.876 230.234 367.564 225.5L459.202 133.203C468.546 123.797 468.483 108.609 459.077 99.266C449.687 89.937 434.468 89.969 425.14 99.391L333.501 191.688C324.157 201.094 324.22 216.281 333.626 225.625ZM287.798 179.484C292.47 184.125 298.595 186.453 304.704 186.453C310.876 186.453 317.048 184.094 321.735 179.359L413.374 87.062C422.718 77.656 422.655 62.469 413.249 53.125C403.858 43.797 388.642 43.828 379.314 53.25L287.673 145.547C278.329 154.953 278.392 170.141 287.798 179.484Z"/></svg>