<svg xmlns="http://www.w3.org/2000/svg" viewBox="0 0 512 512"><!-- Font Awesome Pro 6.0.0-alpha2 by @fontawesome - https://fontawesome.com License - https://fontawesome.com/license (Commercial License) --><path d="M506.486 266.864H506.361C489.111 193.739 428.111 134.739 354.611 120.114C334.611 115.989 313.986 114.989 293.736 117.114C305.236 96.614 322.986 80.614 344.486 71.239C360.111 64.864 369.111 48.614 366.361 31.989C363.986 15.364 350.486 2.489 333.736 0.989C311.361 -1.261 288.736 0.364 266.861 5.489C193.736 22.864 134.736 83.864 120.111 157.364C115.986 177.489 115.111 197.989 117.236 218.239C96.736 206.864 80.611 188.989 71.236 167.489C64.736 151.989 48.486 142.989 31.986 145.614C15.361 147.989 2.486 161.489 0.986 178.239C-1.264 200.614 0.361 223.239 5.611 245.114C22.861 318.239 83.861 377.239 157.361 391.989C177.361 395.989 197.861 396.989 218.236 394.864C206.736 415.364 188.986 431.364 167.486 440.739C151.986 447.239 143.111 463.489 145.611 479.989C148.111 496.614 161.486 509.364 178.236 510.989C184.736 511.614 191.361 511.989 197.986 511.989C213.861 511.989 229.611 510.114 245.111 506.489C318.236 489.114 377.236 428.114 391.861 354.614C395.986 334.489 396.861 313.989 394.736 293.739C415.236 305.114 431.361 322.989 440.736 344.489C447.236 359.864 463.486 368.864 479.986 366.364C496.611 363.864 509.236 350.489 510.986 333.864C513.236 311.364 511.736 288.739 506.486 266.864ZM365.986 233.864C357.611 232.614 349.361 235.864 343.986 242.239C338.611 248.739 336.986 257.489 339.736 265.364C348.486 291.114 350.361 318.614 344.861 345.114C333.486 401.864 286.611 451.114 223.861 461.739C253.111 437.489 272.361 403.489 278.111 365.989C279.361 357.739 276.111 349.364 269.736 343.989C263.236 338.614 254.486 336.989 246.611 339.739C220.861 348.489 193.361 350.239 166.861 344.864C109.861 333.489 60.611 286.114 50.236 223.989C74.486 253.114 108.486 272.364 145.986 278.114C154.361 279.364 162.611 276.114 167.986 269.739C173.361 263.239 174.986 254.489 172.236 246.614C163.486 220.989 161.611 193.364 167.111 166.864C178.486 110.114 225.361 60.864 288.111 50.239C258.861 74.489 239.611 108.489 233.861 145.989C232.611 154.364 235.861 162.614 242.236 167.989C248.736 173.364 257.486 174.989 265.361 172.239C290.986 163.489 318.611 161.614 345.111 167.114C401.986 178.489 451.361 225.739 461.736 288.114C437.486 258.864 403.486 239.614 365.986 233.864ZM255.986 215.989C233.861 215.989 215.986 233.864 215.986 255.989C215.986 278.114 233.861 295.989 255.986 295.989S295.986 278.114 295.986 255.989C295.986 233.864 278.111 215.989 255.986 215.989Z"/></svg>