<svg xmlns="http://www.w3.org/2000/svg" viewBox="0 0 384 512"><!-- Font Awesome Pro 6.0.0-alpha2 by @fontawesome - https://fontawesome.com License - https://fontawesome.com/license (Commercial License) --><path d="M320 0H64C28.801 0 0 28.801 0 64V448C0 483.199 28.801 512 64 512H256C326.693 512 384 454.693 384 384V64C384 28.801 355.201 0 320 0ZM336 384C336 428.111 300.111 464 256 464H64C55.328 464 48 456.674 48 448V64C48 55.326 55.328 48 64 48H320C328.674 48 336 55.326 336 64V384ZM112 240H256C273.625 240 288 225.625 288 208V112C288 103.125 280.875 96 272 96H112C103.125 96 96 103.125 96 112V224C96 232.875 103.125 240 112 240ZM160 320H144V304C144 295.199 136.801 288 128 288S112 295.199 112 304V320H96C87.199 320 80 327.199 80 336C80 344.799 87.199 352 96 352H112V368C112 376.799 119.199 384 128 384S144 376.799 144 368V352H160C168.801 352 176 344.799 176 336C176 327.199 168.801 320 160 320ZM232 336C218.75 336 208 346.75 208 360S218.75 384 232 384S256 373.25 256 360S245.25 336 232 336ZM280 288C266.75 288 256 298.75 256 312S266.75 336 280 336S304 325.25 304 312S293.25 288 280 288Z"/></svg>