<svg xmlns="http://www.w3.org/2000/svg" viewBox="0 0 512 512"><!-- Font Awesome Pro 6.0.0-alpha2 by @fontawesome - https://fontawesome.com License - https://fontawesome.com/license (Commercial License) --><path d="M512 216C512 206.921 504.991 192.116 488.282 192.116C482.543 192.116 476.789 194.18 472.195 198.258L313.742 39.805C317.82 35.212 319.885 29.457 319.885 23.719C319.885 7.028 305.218 0 296 0C289.859 0 283.719 2.344 279.031 7.031L151.031 135.031C146.344 139.719 144 145.859 144 152C144 164.79 154.298 176 168 176C173.689 176 179.27 173.766 183.805 169.742L246.062 232L175.02 303.043L169.363 297.387C163.113 291.139 154.927 288.015 146.74 288.015S130.367 291.139 124.117 297.387L9.375 412.133C3.125 418.381 0 426.567 0 434.754S3.125 451.127 9.375 457.375L54.621 502.625C60.871 508.875 69.058 512 77.245 512S93.619 508.875 99.869 502.625L214.611 387.883C220.862 381.632 223.987 373.446 223.987 365.259C223.987 357.074 220.863 348.888 214.613 342.637L208.957 336.98L280 265.938L342.258 328.195C338.18 332.788 336.115 338.543 336.115 344.281C336.115 360.972 350.782 368 360 368C366.141 368 372.281 365.656 376.969 360.969L504.969 232.969C509.656 228.281 512 222.141 512 216ZM376 294.062L217.938 136L280 73.938L438.062 232L376 294.062Z "></path></svg>