<svg xmlns="http://www.w3.org/2000/svg" viewBox="0 0 384 512"><!-- Font Awesome Pro 6.0.0-alpha2 by @fontawesome - https://fontawesome.com License - https://fontawesome.com/license (Commercial License) --><path d="M192 0C190 0 188.125 0 186.125 0.125C81 3.25 0 94.875 0 200V464C0 473.625 7.875 480 16.125 480C20 480 24 478.5 27.375 475.25L52.25 456.75C55.125 454.625 58.5 453.625 61.75 453.625C66.25 453.625 70.625 455.375 73.75 459L116.75 507.375C119.875 510.5 123.875 512 128 512C132.125 512 136.25 510.5 139.375 507.375L180 461.5C183.25 457.875 187.625 456.125 192 456.125S200.75 457.875 204 461.5L244.625 507.375C247.75 510.5 251.875 512 256 512C260.125 512 264.125 510.5 267.25 507.375L310.25 459C315.75 452.75 325.125 451.75 331.75 456.75L356.625 475.25C360 478.5 364 480 367.875 480C376.125 480 384 473.625 384 464V192C384 86.001 298 0 192 0ZM336 407.125C331.5 406.125 326.875 405.625 322.25 405.625C304 405.625 286.5 413.375 274.375 427.125L256 447.75L239.875 429.625C227.75 415.875 210.25 408.125 192 408.125S156.25 415.875 144.125 429.625L128 447.75L109.625 427.125C97.5 413.375 80 405.625 61.75 405.625C57.125 405.625 52.5 406.125 48 407.125V200C48 118.5 110.625 50.375 187.5 48.125L192 48C271.375 48 336 112.625 336 192V407.125ZM128 160C110.375 160 96 174.375 96 192S110.375 224 128 224S160 209.625 160 192S145.625 160 128 160ZM256 160C238.375 160 224 174.375 224 192S238.375 224 256 224C273.625 224 288 209.625 288 192S273.625 160 256 160Z"/></svg>