<svg xmlns="http://www.w3.org/2000/svg" viewBox="0 0 448 512"><!-- Font Awesome Pro 6.0.0-alpha2 by @fontawesome - https://fontawesome.com License - https://fontawesome.com/license (Commercial License) --><path d="M192.029 96C183.281 96 176.032 103.25 176.032 112S183.281 128 192.029 128S208.026 120.75 208.026 112S200.777 96 192.029 96ZM224.023 336C215.275 336 208.026 343.25 208.026 352S215.275 368 224.023 368S240.02 360.75 240.02 352S232.771 336 224.023 336ZM446.731 226.625C439.107 179.875 398.24 145.625 348.749 144.125C349.624 138.25 349.999 132.125 349.999 126.001C349.999 92.25 336.876 60.75 313.131 36.875C289.261 13.125 257.767 0 224.023 0S158.785 13.125 134.915 36.875C111.17 60.75 98.047 92.25 98.047 126.001C98.047 132.125 98.422 138.125 99.297 144.125C49.931 145.625 8.939 179.875 1.315 226.625C-3.434 255.75 4.815 285.375 23.811 307.75C35.184 321.125 49.556 331 65.553 336.875L58.555 345.375C40.558 367 31.935 395.625 34.934 423.875C37.809 450.875 50.806 474.75 71.677 491C89.049 504.5 110.795 512 133.04 512C162.785 512 190.779 498.875 209.776 476L224.023 459L238.27 476C257.267 498.875 285.261 512 315.006 512C337.251 512 358.997 504.5 376.494 490.875C397.24 474.75 410.237 450.875 413.237 423.75C416.236 395.5 407.613 366.875 389.616 345.25L382.618 336.75C398.615 330.875 412.862 321 424.235 307.75C443.231 285.375 451.355 255.75 446.731 226.625ZM347.999 295H316.755C308.632 295 302.008 301.625 302.008 309.75C302.008 313.25 303.258 316.625 305.383 319.25L352.749 376C371.62 398.75 370.245 434.75 346.875 453C321.379 472.875 290.01 463.25 275.013 445.25L244.019 408C238.77 401.75 231.397 398.625 224.023 398.625S209.276 401.75 204.027 408L172.908 445.25C157.911 463.375 126.542 472.875 101.046 453C77.801 434.75 76.301 398.75 95.298 376L142.539 319.25C144.788 316.625 145.913 313.25 145.913 309.75C145.913 301.625 139.289 295 131.166 295H100.047C33.184 295 28.06 192 102.796 192H163.285C169.034 192 171.783 184.125 167.784 179.875C154.286 165.875 146.038 146.875 146.038 126.001C146.038 82.875 180.906 48 224.023 48S302.008 82.875 302.008 126.001C302.008 146.875 293.76 165.875 280.262 179.875C276.263 184.125 278.888 192 284.761 192H345.25C419.986 192 414.987 295 347.999 295ZM224.023 272C215.275 272 208.026 279.25 208.026 288S215.275 304 224.023 304S240.02 296.75 240.02 288S232.771 272 224.023 272ZM256.017 96C247.269 96 240.02 103.25 240.02 112S247.269 128 256.017 128S272.014 120.75 272.014 112S264.765 96 256.017 96ZM224.023 208C215.275 208 208.026 215.25 208.026 224S215.275 240 224.023 240S240.02 232.75 240.02 224S232.771 208 224.023 208Z"/></svg>