<svg xmlns="http://www.w3.org/2000/svg" viewBox="0 0 576 512"><!-- Font Awesome Pro 6.0.0-alpha2 by @fontawesome - https://fontawesome.com License - https://fontawesome.com/license (Commercial License) --><path d="M574.125 280.371L528.75 98.618C522.875 74.993 507.125 54.617 485.75 42.867C464.25 31.117 438.75 28.742 415.5 36.492L400.25 41.617C391.875 44.367 387.375 53.492 390.25 61.868L395.25 76.993C398 85.368 407.125 89.868 415.5 87.118L428.625 82.743C439.5 79.118 451.625 79.118 461.875 84.493S479.375 98.993 482.25 110.243L520.625 264.121C498.5 257.246 470.875 251.621 439.5 251.621C399.5 251.621 353.875 260.871 306.375 287.997H269.625C222.25 260.871 176.5 251.621 136.5 251.621C105.125 251.621 77.5 257.246 55.375 264.121L93.75 110.243C96.625 98.993 103.875 89.868 114.25 84.493C124.375 79.118 136.5 79.118 147.375 82.743L160.5 87.118C168.875 89.868 178 85.368 180.75 76.993L185.75 61.868C188.625 53.492 184.125 44.367 175.625 41.617L160.375 36.492C137.25 28.742 111.625 31.117 90.25 42.867C68.875 54.617 53.125 74.993 47.25 98.618L1.875 280.371C0.625 285.372 0 290.622 0 295.872V366.123C0 428.999 51.625 480 115.25 480H152.375C212.625 480 262.75 433.999 267.25 374.623L270.125 335.997H305.875L308.75 374.623C313.25 433.999 363.375 480 423.625 480H460.75C524.375 480 576 428.999 576 366.123V295.872C576 290.622 575.375 285.497 574.125 280.371ZM219.375 370.998C216.75 405.249 187.25 431.999 152.25 431.999H115.25C78.125 431.999 48 402.499 48 366.123V317.622C67.75 309.497 99.25 299.622 136.625 299.622C166.375 299.622 195.5 305.872 223.375 318.122L219.375 370.998ZM528 366.123C528 402.499 497.875 431.999 460.75 431.999H423.625C388.75 431.999 359.25 405.249 356.625 370.998L352.625 318.122C380.625 305.872 409.625 299.622 439.5 299.622C476.875 299.622 508.25 309.497 528 317.622V366.123Z"/></svg>