<svg xmlns="http://www.w3.org/2000/svg" viewBox="0 0 384 512"><!-- Font Awesome Pro 6.0.0-alpha2 by @fontawesome - https://fontawesome.com License - https://fontawesome.com/license (Commercial License) --><path d="M160 201.898C164.625 214.773 176.5 224.023 190.875 224.023C209.25 224.023 224 209.273 224 190.898C224 176.523 214.75 164.648 201.875 160.023C211.5 186.773 186.25 211.273 160 201.898ZM176 281.898C180.625 294.773 192.5 304.023 206.875 304.023C225.25 304.023 240 289.273 240 270.898C240 256.523 230.75 244.648 217.875 240.023C227.5 266.773 202.25 291.273 176 281.898ZM240 217.898C244.625 230.773 256.5 240.023 270.875 240.023C289.25 240.023 304 225.273 304 206.898C304 192.523 294.75 180.648 281.875 176.023C291.5 202.773 266.25 227.273 240 217.898ZM96 400C96 417.672 110.326 432 128 432S160 446.328 160 464V512H224V464C224 446.328 238.326 432 256 432S288 417.672 288 400V384H96V400ZM192 0C86.125 0 0 86.125 0 192C0 254.75 30.75 313.656 82.25 349.562C93.094 357.062 108.062 354.438 115.672 343.594C123.25 332.719 120.578 317.781 109.719 310.188C71.062 283.25 48 239.062 48 192C48 112.594 112.594 48 192 48S336 112.594 336 192C336 239.062 312.938 283.25 274.281 310.188C263.422 317.781 260.75 332.719 268.328 343.594C273 350.281 280.453 353.875 288.031 353.875C292.781 353.875 297.563 352.469 301.75 349.563C353.25 313.656 384 254.75 384 192C384 86.125 297.875 0 192 0Z"/></svg>