<svg xmlns="http://www.w3.org/2000/svg" viewBox="0 0 640 512"><!-- Font Awesome Pro 6.0.0-alpha2 by @fontawesome - https://fontawesome.com License - https://fontawesome.com/license (Commercial License) --><path d="M623.953 136.914L341.215 35.684C334.35 33.229 327.174 32 320 32S305.652 33.229 298.785 35.684L16.047 136.914C6.438 140.352 0 149.617 0 160S6.438 179.648 16.047 183.086L76.008 204.555C64.121 220.359 55.811 238.734 51.518 258.531C40.047 263.395 32 274.758 32 288C32 297.953 36.814 306.488 43.939 312.359L19.105 461.367C17.48 471.121 25 480 34.887 480H93.113C103 480 110.52 471.121 108.895 461.367L84.061 312.359C91.186 306.488 96 297.953 96 288C96 277.707 90.826 268.969 83.277 263.113C87.529 245.352 96.154 229.289 108.213 216.086L298.785 284.316C305.652 286.771 312.826 288 320 288S334.35 286.771 341.215 284.316L623.953 183.086C633.562 179.648 640 170.383 640 160S633.562 140.352 623.953 136.914ZM325.053 239.119C320.625 240.703 316.855 239.801 314.965 239.125L175.496 189.191L324.703 143.281C333.156 140.687 337.891 131.75 335.297 123.281C332.703 114.844 323.734 110 315.297 112.719L125.24 171.197L93.965 160L314.947 80.881C319.375 79.297 323.145 80.197 325.035 80.875L546.035 160L325.053 239.119ZM452.277 278.539L464 390.656C464 401.281 414.484 432 320 432S176 401.281 176 390.656L187.723 278.539L141.639 262.041L128.125 388.187C128 449.312 224.594 480 320 480S512 449.312 511.875 388.188L498.361 262.041L452.277 278.539Z"/></svg>