<svg xmlns="http://www.w3.org/2000/svg" viewBox="0 0 576 512"><!-- Font Awesome Pro 6.0.0-alpha2 by @fontawesome - https://fontawesome.com License - https://fontawesome.com/license (Commercial License) --><path d="M414.773 198.076C419.771 181.535 432.318 169.156 448 164.074V96C448 60.654 419.346 32 384 32H64C28.654 32 0 60.654 0 96V416C0 451.346 28.654 480 64 480H343.396C328.723 457.549 320 430.895 320 402.172C320 370.494 330.48 345.719 344 323.412V280H373.445C389 257.586 404.201 233.088 414.773 198.076ZM104 432H64C55.178 432 48 424.822 48 416V280H104V432ZM104 232H48V96C48 87.178 55.178 80 64 80H104V232ZM200 432H152V280H200V432ZM200 232H152V80H200V232ZM296 432H248V280H296V432ZM296 232H248V80H296V232ZM344 80H384C392.822 80 400 87.178 400 96V232H344V80ZM482.594 205.83C477.562 187.783 451.094 187.002 445.406 205.83C415.656 304.344 352 331.219 352 400.672C352 462.156 402.094 512 464 512S576 462.156 576 400.672C576 330.828 512.49 304.891 482.594 205.83Z"/></svg>