<svg xmlns="http://www.w3.org/2000/svg" viewBox="0 0 448 512"><!-- Font Awesome Pro 6.0.0-alpha2 by @fontawesome - https://fontawesome.com License - https://fontawesome.com/license (Commercial License) --><path d="M33.938 353.469C37.844 362.562 46.688 368 56 368C59.156 368 62.375 367.375 65.469 366.062L401.469 222.062C410.281 218.281 416 209.594 416 200S410.281 181.719 401.469 177.938L65.469 33.938C53.219 28.75 39.188 34.344 33.938 46.531C28.719 58.719 34.375 72.844 46.531 78.062L331.062 200L46.531 321.938C34.375 327.156 28.719 341.281 33.938 353.469ZM424 432H24C10.75 432 0 442.75 0 456S10.75 480 24 480H424C437.25 480 448 469.25 448 456S437.25 432 424 432Z"/></svg>