<svg xmlns="http://www.w3.org/2000/svg" viewBox="0 0 448 512"><!-- Font Awesome Pro 6.0.0-alpha2 by @fontawesome - https://fontawesome.com License - https://fontawesome.com/license (Commercial License) --><path d="M364 192C358.605 192 353.275 192.537 348.078 193.578C337.549 185.615 325.244 180.025 312 177.506V80C312 35.889 276.113 0 232 0C187.889 0 152 35.889 152 80V177.457C119.592 183.434 93.35 207.223 83.84 238.262L66.016 252.52L48.566 266.479C27.871 283.035 16 307.732 16 334.236V373.025C16 391.674 22.164 410.156 33.355 425.072L45.006 440.602C78.303 484.977 131.299 511.467 186.771 511.467H296.615C378.057 511.467 444.684 446.822 447.881 366.15L447.996 365.664L448 276C448 229.682 410.318 192 364 192ZM400 360C400 360.033 399.982 360.047 399.982 360.08L400 360.082C400 417.18 353.713 463.467 296.615 463.467H186.771C146.104 463.467 107.809 444.324 83.4 411.795L71.748 396.264C66.719 389.561 64 381.406 64 373.025V334.236C64 322.459 69.354 311.318 78.551 303.961L96 290.002V320C96 328.836 103.164 336 112 336S128 328.836 128 320V264C128 241.908 145.908 224 168 224C181.439 224 192.746 231.059 200 241.225V80C200 62.326 214.326 48 232 48S264 62.326 264 80V241.225C271.254 231.059 282.561 224 296 224C315.449 224 330.896 238.152 334.496 256.547C340.939 246.811 351.451 240 364 240C383.883 240 400 256.117 400 276V360Z"/></svg>