<svg xmlns="http://www.w3.org/2000/svg" viewBox="0 0 640 512"><!-- Font Awesome Pro 6.0.0-alpha2 by @fontawesome - https://fontawesome.com License - https://fontawesome.com/license (Commercial License) --><path d="M575.992 383.992H640V127.963H506.053C488.078 107.797 444.588 66.312 383.375 56.861C360.873 53.506 337.984 60.467 319.969 75.074C302.021 60.467 279.084 53.416 256.531 56.861C216.58 63.029 184.48 82.838 161.771 101.48L38.814 5.109C34.408 1.672 29.189 0 24.033 0C16.908 0 9.846 3.156 5.127 9.188C-3.061 19.625 -1.248 34.717 9.189 42.889L601.186 506.883C611.686 515.086 626.748 513.211 634.873 502.805C643.061 492.367 641.248 477.273 630.811 469.102L339.645 240.893L373.594 206.939C382.969 197.564 382.969 182.375 373.594 172.998C364.219 163.623 349.031 163.623 339.656 172.998L301.592 211.066L273.734 189.234L347.156 114.336C354.969 106.49 365.688 102.584 376.094 104.303C435.844 113.523 476.281 167.029 476.656 167.592C479.744 171.746 483.92 174.537 488.492 175.969H544V351.996C544 369.666 558.324 383.992 575.992 383.992ZM592 320.004C600.75 320.004 608 327.125 608 336.002C608 344.744 600.75 351.996 592 351.996S576 344.744 576 336.002C576 327.125 583.25 320.004 592 320.004ZM235.711 159.432L200.611 131.922C217.24 119.758 238.645 108.189 263.812 104.303C271.27 103.342 278.797 104.973 285.373 108.787L235.711 159.432ZM372.531 404.182C370.188 407.057 367.188 407.744 365.625 407.9C363.969 408.057 361.063 408.025 358.813 406.182L326.406 378.521L310.656 392.273L307.844 395.211C302 402.369 293.75 406.869 284.563 407.807C275.094 408.619 266.313 406.057 260.063 401.025L170.281 319.797H96V171.928L40.166 128.166H0V383.867H64C75.744 383.867 85.572 377.232 91.139 367.803H151.781L228.844 437.467C243.719 449.561 261.906 456 280.844 456C283.719 456 286.625 455.875 289.5 455.562C303.125 454.156 315.906 449.498 326.969 442.061L327.875 442.873C339.906 452.75 355.156 457.281 370.562 455.656C383.75 454.281 395.844 448.623 404.469 440.311C415.789 444.705 428.135 444.742 439.58 441.219L380.947 395.264L372.531 404.182ZM48 351.996C39.25 351.996 32 344.744 32 336.002C32 327.125 39.25 320.004 48 320.004S64 327.125 64 336.002C64 344.744 56.75 351.996 48 351.996Z"/></svg>