<svg xmlns="http://www.w3.org/2000/svg" viewBox="0 0 512 512"><!-- Font Awesome Pro 6.0.0-alpha2 by @fontawesome - https://fontawesome.com License - https://fontawesome.com/license (Commercial License) --><path d="M320 408C320 401.572 319.154 395.338 317.566 389.402C338.205 376.729 352 353.945 352 328C352 321.572 351.154 315.338 349.566 309.402C370.205 296.729 384 273.945 384 248C384 245.295 383.852 242.627 383.559 240H440C479.701 240 512 207.701 512 168S479.701 96 440 96H243.689C227.533 76.514 203.232 64 176 64H126.125C94.021 64 64.471 81.102 49.002 108.633L17.648 164.463C6.104 185.084 0 208.373 0 231.812V339.688C0 417.055 64.598 480 144 480H248C287.701 480 320 447.701 320 408ZM280 304C293.234 304 304 314.781 304 328S293.234 352 280 352H232C218.766 352 208 341.219 208 328S218.766 304 232 304H280ZM312 224C325.234 224 336 234.781 336 248S325.234 272 312 272H264C260.971 272 258.125 271.299 255.455 270.27C260.736 259.926 264 248.391 264 236V224H312ZM440 144C453.234 144 464 154.781 464 168S453.234 192 440 192H264V152C264 149.314 263.443 146.783 263.207 144.16C263.486 144.15 263.719 144 264 144H440ZM48 339.688V231.812C48 216.562 51.984 201.406 59.516 187.937L90.859 132.156C97.844 119.719 111.359 112 126.125 112H176C198.062 112 216 129.938 216 152V236C216 251.438 203.438 264 188 264S160 251.438 160 236V184C160 170.75 149.25 160 136 160S112 170.75 112 184V236C112 269.234 133.578 297.246 163.355 307.545C161.273 314.041 160 320.861 160 328C160 333.041 161.166 337.836 162.178 342.658C137.365 354.035 120 378.965 120 408C120 415.684 121.557 422.941 123.836 429.869C80.564 420.926 48 383.934 48 339.688ZM192 432C178.766 432 168 421.219 168 408S178.766 384 192 384H248C261.234 384 272 394.781 272 408S261.234 432 248 432H192Z"/></svg>