<svg xmlns="http://www.w3.org/2000/svg" viewBox="0 0 448 512"><!-- Font Awesome Pro 6.0.0-alpha2 by @fontawesome - https://fontawesome.com License - https://fontawesome.com/license (Commercial License) --><path d="M32 338.906V385.875C32 417.979 49.102 447.529 76.633 462.998L132.463 494.352C153.084 505.896 176.373 512 199.812 512H307.687C385.055 512 448 447.402 448 368V270C448 230.078 416.811 197.438 377.957 196.047C364.324 178.551 343.332 168 321.219 168H307.687C304.131 168 300.586 168.273 297.082 168.814C284.607 159.205 269.441 154 253.531 154H240V72C240 32.299 207.701 0 168 0C128.299 0 96 32.299 96 72V241.721L63.426 270.953C43.455 287.473 32 312.242 32 338.906ZM80 338.906C80 326.594 85.281 315.141 94.5 307.516L112 291.828V336C112 344.844 119.156 352 128 352S144 344.844 144 336V72C144 58.766 154.781 48 168 48C181.219 48 192 58.766 192 72V208C192 217.578 199.941 224.04 208.146 224.04C214.579 224.04 220.453 220.024 222.875 213.875C223.344 212.844 228.312 202 240 202H253.531C274.497 202 271.454 221.583 287.805 221.583C296.016 221.583 297.651 216 307.687 216H321.219C346.765 216 339.486 244.227 359.876 244.227C360.032 244.227 360.188 244.224 360.344 244.219L375.375 244C388.969 244 400 255.656 400 270V368C400 420.938 358.594 464 307.687 464H199.812C184.562 464 169.406 460.016 155.938 452.484L100.156 421.141C87.719 414.156 80 400.641 80 385.875V338.906Z"/></svg>