<svg xmlns="http://www.w3.org/2000/svg" viewBox="0 0 640 512"><!-- Font Awesome Pro 6.0.0-alpha2 by @fontawesome - https://fontawesome.com License - https://fontawesome.com/license (Commercial License) --><path d="M513.984 112.006H513.977L425.414 112.053C400.184 113.828 376.965 123.74 357.709 138.756C357.379 135.023 356.764 131.269 355.697 127.535C351.311 112.141 341.168 99.36 327.137 91.555C321.895 88.631 316.246 86.518 310.414 85.278C319.967 64.616 317.309 39.357 301.561 20.963C291.119 8.773 276.553 1.395 260.539 0.178C259.016 0.059 257.459 0 255.908 0C241.619 0 227.779 5.141 216.936 14.476L196.846 31.697C190.789 20.408 181.178 11.096 169.127 5.519C161.197 1.869 152.801 0.025 144.135 0.025C120.725 0.025 99.254 13.777 89.439 35.056L15.83 199.757C5.326 223.286 0 248.264 0 274.004C0 343.479 56.531 400.002 126.016 400.002L214.586 399.955C239.816 398.179 263.033 388.268 282.291 373.254C282.619 376.986 283.236 380.738 284.303 384.473C288.689 399.867 298.834 412.648 312.863 420.453C318.109 423.37 323.76 425.478 329.592 426.716C320.033 447.378 322.688 472.645 338.439 491.045C348.881 503.235 363.447 510.613 379.461 511.83C380.941 511.951 382.498 512 384.078 512C398.365 512 412.207 506.865 423.055 497.539L443.154 480.311C449.211 491.6 458.824 500.912 470.873 506.488C478.811 510.141 487.215 511.986 495.881 511.986C519.281 511.986 540.742 498.235 550.561 476.952L624.17 312.251C634.676 288.722 640 263.744 640 238.004C640 168.529 583.471 112.006 513.984 112.006ZM315.484 153.709C312.891 158.38 308.641 161.771 303.516 163.224L209.078 190.208L233.438 198.427C257.859 206.661 276.75 225.223 285.281 249.332C287.047 254.395 286.766 259.801 284.469 264.613V264.629C282.172 269.441 278.141 273.066 273.109 274.863C262.703 278.488 251.25 273.004 247.562 262.723C241.484 245.535 225.188 234.004 207 234.004C183.297 234.004 164 253.301 164 277.004C164 300.706 183.297 320.003 207 320.003C221.375 320.003 234.75 312.862 242.75 300.878C248.938 291.738 261.359 289.285 270.5 295.363C274.953 298.347 277.969 302.878 279 308.128C280.047 313.378 278.984 318.706 276 323.143C261.984 344.081 238.234 358.205 214.031 359.987L126.016 360.002C78.594 360.002 40 321.425 40 274.004C40 253.91 44.156 234.41 52.359 216.067L125.813 51.71C130.313 41.929 142.734 37.413 152.391 41.867C157.203 44.085 160.906 48.07 162.75 53.085C164.609 58.116 164.406 63.538 162.172 68.382L127.266 144.021L243.016 44.804C246.891 41.492 252.062 39.851 257.297 40.054C262.875 40.476 267.734 42.945 271.203 47.007C274.672 51.054 276.359 56.226 275.937 61.554C275.531 66.882 273.078 71.725 269.031 75.194L170.516 159.646L292.5 124.772C297.703 123.318 303.062 123.943 307.688 126.49C312.391 129.131 315.766 133.396 317.219 138.521C318.688 143.631 318.078 149.021 315.484 153.709ZM587.641 295.941L514.187 460.298C511.937 465.235 507.922 468.938 502.859 470.798C500.625 471.61 498.297 472.032 496 472.032C493.109 472.032 490.25 471.391 487.578 470.126C482.797 467.923 479.094 463.938 477.25 458.923C475.391 453.892 475.594 448.47 477.828 443.626L512.734 367.987L396.984 467.204C393.047 470.594 387.891 472.329 382.609 471.954C377.125 471.532 372.266 469.063 368.797 465.001C365.328 460.954 363.641 455.782 364.062 450.454C364.469 445.126 366.922 440.282 370.969 436.814L469.484 352.362L347.5 387.236C342.469 388.736 337.031 388.143 332.297 385.502C327.609 382.877 324.234 378.611 322.781 373.486C321.312 368.377 321.922 362.987 324.516 358.299C327.109 353.627 331.359 350.237 336.484 348.784L430.922 321.8L406.562 313.581C382.141 305.347 363.25 286.785 354.719 262.676C352.953 257.613 353.234 252.207 355.531 247.395C357.828 242.567 361.859 238.942 366.891 237.145C377.562 233.52 388.719 238.957 392.437 249.285C398.516 266.473 414.812 278.004 433 278.004C456.703 278.004 476 258.707 476 235.004S456.703 192.005 433 192.005C418.625 192.005 405.25 199.145 397.25 211.13C391.047 220.301 378.625 222.77 369.469 216.63C365.047 213.661 362.031 209.13 361 203.88C359.953 198.63 361.016 193.302 364 188.864C378.016 167.927 401.766 153.802 425.969 152.021L513.984 152.005C561.406 152.005 600 190.583 600 238.004C600 258.098 595.844 277.597 587.641 295.941Z"/></svg>