<svg xmlns="http://www.w3.org/2000/svg" viewBox="0 0 640 512"><!-- Font Awesome Pro 6.0.0-alpha2 by @fontawesome - https://fontawesome.com License - https://fontawesome.com/license (Commercial License) --><path d="M448 176V296H480V176C480 167.199 472.801 160 464 160S448 167.199 448 176ZM464 128C477.25 128 488 116 488 101.375C488 86.625 464 48 464 48S440 86.625 440 101.375C440 116 450.75 128 464 128ZM320 80C333.25 80 344 68 344 53.375C344 38.625 320 0 320 0S296 38.625 296 53.375C296 68 306.75 80 320 80ZM400 128C413.25 128 424 116 424 101.375C424 86.625 400 48 400 48S376 86.625 376 101.375C376 116 386.75 128 400 128ZM512 176V296H544V176C544 167.199 536.801 160 528 160S512 167.199 512 176ZM616 128C629.25 128 640 116 640 101.375C640 86.625 616 48 616 48S592 86.625 592 101.375C592 116 602.75 128 616 128ZM528 128C541.25 128 552 116 552 101.375C552 86.625 528 48 528 48S504 86.625 504 101.375C504 116 514.75 128 528 128ZM384 176V296H416V176C416 167.199 408.801 160 400 160S384 167.199 384 176ZM24 128C37.25 128 48 116 48 101.375C48 86.625 24 48 24 48S0 86.625 0 101.375C0 116 10.75 128 24 128ZM240 128C253.25 128 264 116 264 101.375C264 86.625 240 48 240 48S216 86.625 216 101.375C216 116 226.75 128 240 128ZM96 176V296H128V176C128 167.199 120.801 160 112 160S96 167.199 96 176ZM616 160C602.746 160 592 170.744 592 184V294.25C592 317.213 573.213 336 550.25 336H344V136C344 122.744 333.254 112 320 112S296 122.744 296 136V336H89.75C66.787 336 48 317.213 48 294.25V184C48 170.744 37.254 160 24 160S0 170.744 0 184V294.25C0 343.816 40.182 384 89.75 384H296V464H144C130.746 464 120 474.744 120 488C120 501.254 130.746 512 144 512H496C509.254 512 520 501.254 520 488C520 474.744 509.254 464 496 464H344V384H550.25C599.818 384 640 343.816 640 294.25V184C640 170.744 629.254 160 616 160ZM112 128C125.25 128 136 116 136 101.375C136 86.625 112 48 112 48S88 86.625 88 101.375C88 116 98.75 128 112 128ZM224 176V296H256V176C256 167.199 248.801 160 240 160S224 167.199 224 176ZM176 128C189.25 128 200 116 200 101.375C200 86.625 176 48 176 48S152 86.625 152 101.375C152 116 162.75 128 176 128ZM160 176V296H192V176C192 167.199 184.801 160 176 160S160 167.199 160 176Z"/></svg>