<svg xmlns="http://www.w3.org/2000/svg" viewBox="0 0 512 512"><!-- Font Awesome Pro 6.0.0-alpha2 by @fontawesome - https://fontawesome.com License - https://fontawesome.com/license (Commercial License) --><path d="M304 344C290.746 344 280 354.744 280 368C280 381.254 290.746 392 304 392C317.256 392 328 381.254 328 368C328 354.744 317.256 344 304 344ZM448 32H64C28.654 32 0 60.654 0 96V416C0 451.346 28.654 480 64 480H448C483.348 480 512 451.346 512 416V96C512 60.654 483.348 32 448 32ZM464 416C464 424.822 456.822 432 448 432H64C55.178 432 48 424.822 48 416V320C48 311.178 55.178 304 64 304H448C456.822 304 464 311.178 464 320V416ZM464 258.264C458.857 256.932 453.559 256 448 256H64C58.441 256 53.143 256.932 48 258.264V96C48 87.178 55.178 80 64 80H448C456.822 80 464 87.178 464 96V258.264ZM400 344C386.746 344 376 354.744 376 368C376 381.254 386.746 392 400 392C413.256 392 424 381.254 424 368C424 354.744 413.256 344 400 344Z"/></svg>