<svg xmlns="http://www.w3.org/2000/svg" viewBox="0 0 512 512"><!-- Font Awesome Pro 6.0.0-alpha2 by @fontawesome - https://fontawesome.com License - https://fontawesome.com/license (Commercial License) --><path d="M320 208V176C320 167.199 312.801 160 304 160H256V112C256 103.199 248.801 96 240 96H208C199.199 96 192 103.199 192 112V160H144C135.199 160 128 167.199 128 176V208C128 216.799 135.199 224 144 224H192V272C192 280.799 199.199 288 208 288H240C248.801 288 256 280.799 256 272V224H304C312.801 224 320 216.799 320 208ZM509.223 275C488.223 227.875 460.727 123.25 436.104 88.25C397.606 33.625 334.487 0 266.117 0H199.998C95.506 0 4.139 80.125 0.139 184.5C-2.111 244.375 23.137 298.125 64.008 334.875V488C64.008 501.256 74.754 512 88.008 512C101.26 512 112.004 501.256 112.004 488.002V313.375L96.006 299.125C49.135 257 33.012 187.375 63.883 126.625C89.256 76.75 143.127 48 198.998 48H266.117C318.114 48 366.985 73.375 396.856 115.875C408.106 131.75 424.854 181.5 437.229 217.875C443.727 237.25 450.102 255.75 456.227 272H399.981V384C399.981 392.836 392.817 400 383.981 400H303.989V488C303.989 501.256 314.733 512 327.989 512C341.24 512 351.985 501.256 351.985 488.002V448H383.983C419.326 448 447.977 419.348 447.977 384.004V320H479.975C503.098 320 518.596 296.125 509.223 275Z"/></svg>