<svg xmlns="http://www.w3.org/2000/svg" viewBox="0 0 448 512"><!-- Font Awesome Pro 6.0.0-alpha2 by @fontawesome - https://fontawesome.com License - https://fontawesome.com/license (Commercial License) --><path d="M448 456C448 469.25 437.25 480 424 480H312C298.75 480 288 469.25 288 456S298.75 432 312 432H344V280H104V432H136C149.25 432 160 442.75 160 456S149.25 480 136 480H24C10.75 480 0 469.25 0 456S10.75 432 24 432H56V80H24C10.75 80 0 69.25 0 56S10.75 32 24 32H136C149.25 32 160 42.75 160 56S149.25 80 136 80H104V232H344V80H312C298.75 80 288 69.25 288 56S298.75 32 312 32H424C437.25 32 448 42.75 448 56S437.25 80 424 80H392V432H424C437.25 432 448 442.75 448 456Z"/></svg>