<svg xmlns="http://www.w3.org/2000/svg" viewBox="0 0 640 512"><!-- Font Awesome Pro 6.0.0-alpha2 by @fontawesome - https://fontawesome.com License - https://fontawesome.com/license (Commercial License) --><path d="M480 360C466.75 360 456 370.75 456 384S466.75 408 480 408S504 397.25 504 384S493.25 360 480 360ZM477.223 275C456.223 227.875 428.727 123.25 404.104 88.25C365.606 33.625 302.487 0 234.117 0H199.998C95.506 0 4.139 80.125 0.139 184.5C-2.111 244.375 23.137 298.125 64.008 334.875V488C64.008 501.256 74.754 512 88.008 512C101.26 512 112.004 501.256 112.004 488.002V313.375L96.006 299.125C49.135 257 33.012 187.375 63.883 126.625C89.256 76.75 143.127 48 198.998 48H234.117C286.114 48 334.985 73.375 364.856 115.875C376.106 131.75 392.854 181.5 405.229 217.875C411.727 237.25 418.102 255.75 424.227 272H367.981V324.574L311.758 332.605C298.127 334.553 288 346.229 288 360S298.127 385.445 311.758 387.395L367.981 395.426V416C367.981 424.836 360.817 432 351.981 432H271.989V488C271.989 501.256 282.733 512 295.989 512C309.24 512 319.985 501.256 319.985 488.002V480H351.983C387.326 480 415.977 451.348 415.977 416.004V320H447.975C471.098 320 486.596 296.125 477.223 275ZM608 360C594.75 360 584 370.75 584 384S594.75 408 608 408S632 397.25 632 384S621.25 360 608 360ZM608 312C621.25 312 632 301.25 632 288S621.25 264 608 264S584 274.75 584 288S594.75 312 608 312ZM544 408C530.75 408 520 418.75 520 432S530.75 456 544 456S568 445.25 568 432S557.25 408 544 408ZM544 312C530.75 312 520 322.75 520 336S530.75 360 544 360S568 349.25 568 336S557.25 312 544 312ZM608 456C594.75 456 584 466.75 584 480S594.75 504 608 504S632 493.25 632 480S621.25 456 608 456ZM320.002 224C337.627 224 352 209.625 352 192S337.627 160 320.002 160C302.379 160 288.006 174.375 288.006 192S302.379 224 320.002 224Z"/></svg>