<svg xmlns="http://www.w3.org/2000/svg" viewBox="0 0 640 512"><!-- Font Awesome Pro 6.0.0-alpha2 by @fontawesome - https://fontawesome.com License - https://fontawesome.com/license (Commercial License) --><path d="M316.469 416H551.702C567.325 416 582.45 409.375 593.198 397.875C603.698 386.5 609.073 371.125 607.823 355.75C597.948 233.25 497.455 136.375 375.965 128.75V48H551.952C565.205 48 575.95 37.254 575.95 24C575.95 10.744 565.205 0 551.952 0H151.856C138.657 0 127.858 10.799 127.858 24C127.858 37.199 138.657 48 151.856 48H327.969V128H148.231L112.145 80.047C104.541 69.941 92.631 64 79.987 64H39.991C27.491 64 15.993 69.625 8.368 79.375S-1.882 101.625 1.368 114.625L31.866 219.027C34.627 228.479 41.584 236.131 50.727 239.777L201.102 299.75L271.543 393.553C282.157 407.686 298.797 416 316.469 416ZM407.961 182C489.58 202.125 552.827 272.875 559.952 359.5C560.076 362.25 558.952 364.125 557.827 365.25C556.952 366.25 554.827 368 551.702 368H407.961V182ZM75.862 198.125L50.739 112H75.987L124.108 176H359.965V368H316.469C313.969 368 311.594 366.875 310.094 364.75L231.475 260.25L75.862 198.125ZM632.969 439.031C623.594 429.656 608.407 429.656 599.032 439.031C583.157 454.906 561.188 464 538.75 464H248C234.75 464 224 474.75 224 488S234.75 512 248 512H538.75C574.344 512 607.797 498.141 632.969 472.969C642.344 463.594 642.344 448.406 632.969 439.031Z"/></svg>