<svg xmlns="http://www.w3.org/2000/svg" viewBox="0 0 512 512"><!-- Font Awesome Pro 6.0.0-alpha2 by @fontawesome - https://fontawesome.com License - https://fontawesome.com/license (Commercial License) --><path d="M505.824 233.367L400.437 54.164C392.32 40.516 377.5 32 361.387 32H150.613C134.5 32 119.68 40.516 111.563 54.164L6.176 233.367C-2.059 247.367 -2.059 264.633 6.176 278.633L111.563 457.832C119.68 471.484 134.5 480 150.613 480H361.387C377.5 480 392.32 471.484 400.437 457.832L505.824 278.633C514.059 264.633 514.059 247.367 505.824 233.367ZM359.945 432H152.057L48.551 256L152.053 80H359.945L463.449 256L359.945 432Z"/></svg>