<svg xmlns="http://www.w3.org/2000/svg" viewBox="0 0 640 512"><!-- Font Awesome Pro 6.0.0-alpha2 by @fontawesome - https://fontawesome.com License - https://fontawesome.com/license (Commercial License) --><path d="M592.863 302.871H435.836L411.33 351.266L528 352V464L417.695 463.734C397.65 463.734 379.145 455.223 365.99 440.797L356.359 459.812C352.189 468.352 347.078 476.145 341.574 483.574C362.424 501.629 389.109 512 417.695 512H592.863C618.896 512 640 490.391 640 463.734V351.133C640 324.484 618.896 302.871 592.863 302.871ZM592.863 463.734H560V351.133H592.863V463.734ZM221.891 267.047L248.541 214.828L175.137 69.891L217.363 48.273L275.451 162.102L302.045 109.992L259.143 25.922C250.74 9.457 234.336 0 217.328 0C210.24 0 203.049 1.645 196.287 5.105L154.061 26.719C142.77 32.496 134.215 42.672 130.312 54.961C126.406 67.25 127.48 80.633 133.293 92.109L221.891 267.047ZM509.688 54.961C505.785 42.672 497.23 32.496 485.939 26.719L443.713 5.105C436.951 1.645 429.76 0 422.672 0C405.664 0 389.26 9.457 380.857 25.922L239.525 302.871H47.137C21.104 302.871 0 324.484 0 351.133V463.734C0 490.391 21.104 512 47.137 512H222.305C267.305 512 307.73 486.461 327.807 445.352L506.707 92.109C512.52 80.633 513.594 67.25 509.688 54.961ZM80 463.734H47.137V351.133H80V463.734ZM285.645 423.77C273.615 448.402 249.311 463.734 222.305 463.734L112 464V352L248.941 351.133C260.971 351.133 271.773 344.348 276.93 333.797L422.637 48.273L464.863 69.891L285.645 423.77Z"/></svg>