<svg xmlns="http://www.w3.org/2000/svg" viewBox="0 0 512 512"><!-- Font Awesome Pro 6.0.0-alpha2 by @fontawesome - https://fontawesome.com License - https://fontawesome.com/license (Commercial License) --><path d="M256.001 95.977C282.501 95.977 304.001 74.482 304.001 47.988S282.501 0 256.001 0S208.001 21.495 208.001 47.988S229.501 95.977 256.001 95.977ZM287.876 143.965C287.876 170.458 309.376 191.953 335.876 191.953S383.876 170.458 383.876 143.965S362.376 95.977 335.876 95.977S287.876 117.471 287.876 143.965ZM176.001 191.828C202.501 191.828 224.001 170.333 224.001 143.84S202.501 95.852 176.001 95.852S128.001 117.346 128.001 143.84S149.501 191.828 176.001 191.828ZM452.001 336.168C437.626 334.668 422.751 331.919 408.126 327.67C401.001 325.671 396.751 319.047 398.251 312.549C401.751 298.302 406.626 284.805 412.376 272.558C421.251 253.813 408.501 231.693 387.376 229.944C310.001 223.071 292.501 192.078 256.001 192.078C218.376 192.078 203.126 222.946 124.626 229.944C103.251 231.818 90.751 254.063 99.626 272.558C105.501 284.93 110.251 298.427 113.751 312.674C115.251 319.172 111.001 325.795 103.876 327.795C89.126 332.044 74.251 334.793 60.001 336.168C40.751 338.167 25.251 358.787 35.001 378.908C49.376 408.65 57.001 443.017 57.251 477.884C57.251 502.127 78.751 512 92.126 512C98.001 512 103.876 510.5 109.376 507.501C141.626 490.005 176.876 479.133 211.501 476.009C232.751 474.134 245.376 452.015 236.501 433.394C230.626 421.022 225.876 407.526 222.376 393.404C215.751 367.16 296.126 367.16 289.501 393.404C286.001 407.651 281.251 421.022 275.376 433.394C266.626 452.14 279.251 474.134 300.376 476.009C335.001 479.133 370.251 490.005 402.501 507.501C408.001 510.5 413.876 512 419.751 512C433.001 512 454.626 502.252 454.751 477.884C454.876 443.017 462.501 408.65 476.876 378.908C487.126 357.788 470.376 337.918 452.001 336.168ZM219.126 332.044C186.876 341.167 167.876 373.159 175.876 405.026C178.251 414.024 180.751 422.772 183.876 431.27C156.751 435.894 130.251 444.267 104.376 456.264C102.376 429.895 96.876 404.651 87.876 380.657C97.626 378.783 107.251 376.658 117.001 373.784C149.251 364.661 168.251 332.669 160.251 300.802C157.876 291.804 155.251 283.056 152.251 274.558C179.251 269.934 206.126 261.436 231.751 249.439C233.751 275.683 239.251 301.176 248.251 325.171C238.501 326.92 228.751 329.17 219.126 332.044ZM407.626 456.264C381.876 444.267 355.251 435.894 328.126 431.27C331.251 422.772 333.751 414.024 336.126 405.026C343.251 376.658 328.751 348.29 302.876 335.918C301.001 321.922 285.001 300.677 280.001 250.939C280.001 250.439 280.126 249.939 280.251 249.439C305.751 261.311 332.751 269.809 359.751 274.558C356.626 283.056 354.001 291.804 351.751 300.802C343.751 332.669 362.751 364.661 394.876 373.784C404.626 376.658 414.251 378.783 424.001 380.657C415.126 404.651 409.626 429.895 407.626 456.264Z"/></svg>