<svg xmlns="http://www.w3.org/2000/svg" viewBox="0 0 576 512"><!-- Font Awesome Pro 6.0.0-alpha2 by @fontawesome - https://fontawesome.com License - https://fontawesome.com/license (Commercial License) --><path d="M181.332 261.332V229.332H213.332C219.223 229.332 223.998 224.557 223.998 218.666V197.332C223.998 191.441 219.223 186.666 213.332 186.666H181.332V154.666C181.332 148.773 176.557 144 170.666 144H149.334C143.443 144 138.668 148.773 138.668 154.666V186.666H106.668C100.777 186.666 96.002 191.441 96.002 197.332V218.666C96.002 224.557 100.777 229.332 106.668 229.332H138.668V261.332C138.668 267.223 143.443 272 149.334 272H170.666C176.557 272 181.332 267.223 181.332 261.332ZM228 400H188C181.375 400 176 405.375 176 412V452C176 458.625 181.375 464 188 464H228C234.625 464 240 458.625 240 452V412C240 405.375 234.625 400 228 400ZM256 64H64C28.654 64 0 92.654 0 128L0.473 488.025C0.488 501.271 11.229 512 24.473 512C37.738 512 48.488 501.238 48.473 487.973L48 128C47.99 119.166 55.148 112 63.982 112H256.02C264.82 112 272.012 119.199 272 128L271.5 488C271.5 501.254 282.246 512 295.5 512S319.5 501.254 319.5 488L320 128C320 92.654 291.346 64 256 64ZM228 304H188C181.375 304 176 309.375 176 316V356C176 362.625 181.375 368 188 368H228C234.625 368 240 362.625 240 356V316C240 309.375 234.625 304 228 304ZM132 304H92C85.375 304 80 309.375 80 316V356C80 362.625 85.375 368 92 368H132C138.625 368 144 362.625 144 356V316C144 309.375 138.625 304 132 304ZM132 400H92C85.375 400 80 405.375 80 412V452C80 458.625 85.375 464 92 464H132C138.625 464 144 458.625 144 452V412C144 405.375 138.625 400 132 400ZM512 0H344C330.746 0 320 10.744 320 24C320 37.254 330.746 48 344 48H512.02C520.818 48 528.01 55.199 528 63.998L527.5 488C527.5 501.254 538.246 512 551.5 512S575.5 501.254 575.5 488L576 64C576 28.654 547.346 0 512 0ZM483.998 272H443.998C437.373 272 431.998 277.375 431.998 284V324C431.998 330.625 437.373 336 443.998 336H483.998C490.623 336 495.998 330.625 495.998 324V284C495.998 277.375 490.623 272 483.998 272ZM483.998 368H443.998C437.373 368 431.998 373.375 431.998 380V420C431.998 426.625 437.373 432 443.998 432H483.998C490.623 432 495.998 426.625 495.998 420V380C495.998 373.375 490.623 368 483.998 368ZM387.998 368H352V432H387.998C394.625 432 399.998 426.627 399.998 420V380C399.998 373.373 394.625 368 387.998 368ZM387.998 272H352V336H387.998C394.625 336 399.998 330.627 399.998 324V284C399.998 277.373 394.625 272 387.998 272ZM437.33 197.332V165.332H469.33C475.221 165.332 479.996 160.557 479.996 154.666V133.332C479.996 127.441 475.221 122.666 469.33 122.666H437.33V90.666C437.33 84.773 432.555 80 426.664 80H405.332C399.441 80 394.666 84.773 394.666 90.666V122.666H362.666C356.775 122.666 352 127.441 352 133.332V154.666C352 160.557 356.775 165.332 362.666 165.332H394.666V197.332C394.666 203.223 399.441 208 405.332 208H426.664C432.555 208 437.33 203.223 437.33 197.332Z"/></svg>