<svg xmlns="http://www.w3.org/2000/svg" viewBox="0 0 640 512"><!-- Font Awesome Pro 6.0.0-alpha2 by @fontawesome - https://fontawesome.com License - https://fontawesome.com/license (Commercial License) --><path d="M112 224C170.286 224 200.186 181.549 200.186 179.216C200.186 176.691 198.033 173.922 194.889 173.922C193.165 173.922 187.797 175.593 177.342 175.593C128.819 175.593 89.687 136.097 89.687 87.861C89.687 30.923 136.703 13.634 136.703 7.06C136.703 6.294 136.268 2.54 132.5 1.875C125.75 0.75 118.875 0.125 112 0C50.125 0 0 50.125 0 112S50.125 224 112 224ZM117.375 362.625L100.75 323C99.875 321.125 98 320 96 320C94 320 92.125 321.125 91.25 323L74.625 362.625L35 379.25C33.25 380.125 32 382 32 384S33.25 387.875 35 388.75L74.75 405.375L91.25 445C92.125 446.875 94 448 96 448C98.125 448 99.875 446.875 100.875 445L117.375 405.375L157.125 388.75C158.875 387.875 160 386 160 384S158.875 380.125 157.125 379.25L117.375 362.625ZM195 68.75L234.75 85.375L251.25 125C252.125 126.875 254 128 256 128C258.125 128 259.875 126.875 260.875 125L277.375 85.375L317.125 68.75C318.875 67.875 320 66 320 64S318.875 60.125 317.125 59.25L277.375 42.625L260.75 3C259.875 1.125 258 0 256 0C254 0 252.125 1.125 251.25 3L234.625 42.625L195 59.25C193.25 60.125 192 62 192 64S193.25 67.875 195 68.75ZM639.999 312.017C639.999 305.399 637.275 298.81 631.938 294.062L576 244.34V152C576 138.75 565.25 128 552 128S528 138.75 528 152V201.674L415.938 102.063C411.393 98.023 405.696 96.003 400 96.003S388.607 98.023 384.062 102.062L168.062 294.062C162.725 298.81 160.001 305.399 160.001 312.017C160.001 325.181 170.678 335.996 183.992 335.996C189.68 335.996 195.381 333.988 199.937 329.938L224 308.551V464C224 490.51 245.49 512 272 512H528C554.51 512 576 490.51 576 464V308.551L600.062 329.938C604.625 334 610.312 336 616 336C629.193 336 639.999 325.291 639.999 312.017ZM528 464H272V265.889L400 152.125L528 265.889V464ZM352 304V368C352 376.836 359.164 384 368 384H432C440.838 384 448 376.836 448 368V304C448 295.164 440.838 288 432 288H368C359.164 288 352 295.164 352 304Z "></path></svg>