<svg xmlns="http://www.w3.org/2000/svg" viewBox="0 0 640 512"><!-- Font Awesome Pro 6.0.0-alpha2 by @fontawesome - https://fontawesome.com License - https://fontawesome.com/license (Commercial License) --><path d="M628.207 432.625L581.715 378.875C590.838 374.25 598.461 366.75 603.211 357.125C611.209 340.625 609.084 320.875 597.711 306.5L541.598 235C551.471 230 559.469 221.75 564.092 211.125C571.717 193.5 568.092 173.125 554.844 159.125L418.869 15.125C409.746 5.375 397.248 0 384 0S358.254 5.375 349.131 15L263.611 105.568L299.137 137.871L384 48L519.977 192H446.863L559.969 336H481.107L591.963 464H416V464.188C416 482.188 409.771 498.633 399.656 512H591.963C610.709 512 627.832 501 635.705 483.875C643.453 466.75 640.578 446.75 628.207 432.625ZM224 288H160C151.125 288 144 295.125 144 304V368C144 376.875 151.125 384 160 384H224C232.875 384 240 376.875 240 368V304C240 295.125 232.875 288 224 288ZM215.477 105.078C208.82 99.025 200.408 96 191.996 96S175.172 99.025 168.514 105.078L17.141 242.689C6.225 252.613 0 266.684 0 281.438V464C0 490.51 21.49 512 48 512H335.992C362.502 512 383.992 490.693 383.992 464.184C383.996 423.518 384 365.59 384 320.627V281.107C384 266.455 377.818 252.656 366.977 242.801L215.477 105.078ZM335.992 464H48V281.438C48 280.209 48.521 279.031 49.43 278.207L191.996 148.602L334.689 278.318C335.559 279.109 336 280.047 336 281.107L335.992 464Z"/></svg>