<svg xmlns="http://www.w3.org/2000/svg" viewBox="0 0 576 512"><!-- Font Awesome Pro 6.0.0-alpha2 by @fontawesome - https://fontawesome.com License - https://fontawesome.com/license (Commercial License) --><path d="M280.491 239.724C270.084 229.479 256.044 223.99 242.093 223.99C208.516 223.99 191.987 252.454 191.987 273.763C191.987 286.588 196.958 299.419 206.912 309.255L279.528 380.556C281.885 382.849 284.937 383.996 287.99 383.996S294.094 382.849 296.45 380.556L369.066 309.255C379.009 299.43 383.981 286.617 383.981 273.808C383.981 252.675 367.175 223.99 333.811 223.99C319.839 223.99 305.739 229.479 295.272 239.724L287.884 247.019L280.491 239.724ZM575.994 247.992C575.994 241.19 573.117 234.435 567.523 229.679L511.993 182.56V55.986C511.993 42.736 501.243 31.986 487.993 31.986S463.994 42.736 463.994 55.986V141.833L303.528 5.672C299.043 1.891 293.52 0 287.997 0S276.95 1.891 272.466 5.672L8.471 229.679C2.876 234.435 0 241.19 0 247.992C0 264.023 13.694 271.992 24.016 271.992C29.5 271.992 35.016 270.125 39.533 266.305L64.001 245.541V448C64.001 483.346 92.654 512 128 512H447.993C483.339 512 511.993 483.346 511.993 448V245.541L536.461 266.305C540.977 270.118 546.492 271.993 551.976 271.993C562.137 271.993 575.994 263.963 575.994 247.992ZM463.994 447.998C463.994 456.798 456.794 463.998 447.994 463.998H128C119.2 463.998 112 456.798 112 447.998V207.991C112 207.028 111.562 206.208 111.451 205.274L287.997 55.455L463.994 204.809V447.998Z "></path></svg>