<svg xmlns="http://www.w3.org/2000/svg" viewBox="0 0 640 512"><!-- Font Awesome Pro 6.0.0-alpha2 by @fontawesome - https://fontawesome.com License - https://fontawesome.com/license (Commercial License) --><path d="M24 224C10.75 224 0 234.75 0 248S10.75 272 24 272C143.094 272 240 368.906 240 488C240 501.25 250.75 512 264 512S288 501.25 288 488C288 342.438 169.562 224 24 224ZM24 320C10.75 320 0 330.75 0 344S10.75 368 24 368C90.156 368 144 421.844 144 488C144 501.25 154.75 512 168 512S192 501.25 192 488C192 395.375 116.625 320 24 320ZM24 416C10.75 416 0 426.75 0 440S10.75 464 24 464C37.219 464 48 474.781 48 488C48 501.25 58.75 512 72 512S96 501.25 96 488C96 448.312 63.688 416 24 416ZM432 287.998C440.838 287.998 448 280.834 448 271.998V207.998C448 199.162 440.838 191.996 432 191.996H368C359.164 191.996 352 199.162 352 207.998V271.998C352 280.834 359.164 287.998 368 287.998H432ZM639.999 216.015C639.999 209.397 637.275 202.808 631.938 198.061L576 148.338V55.996C576 42.748 565.25 31.996 552 31.996S528 42.748 528 55.996V105.672L415.938 6.059C411.393 2.019 405.697 -0.001 400 -0.001C394.304 -0.001 388.607 2.019 384.062 6.059L168.062 198.061C162.725 202.808 160.001 209.397 160.001 216.015C160.001 229.204 170.703 239.992 183.993 239.992C189.68 239.992 195.381 237.985 199.937 233.936L224 212.549V248.004C224 261.26 234.744 272.004 248 272.004C261.254 272.004 272 261.26 272 248.004V169.887L400 56.121L528 169.887V368H344C330.744 368 320 378.744 320 391.998V392C320 405.254 330.744 416 344 416H528C554.51 416 576 394.51 576 368V212.549L600.062 233.936C604.625 237.998 610.312 239.998 616 239.998C629.193 239.998 639.999 229.289 639.999 216.015Z "></path></svg>