<svg xmlns="http://www.w3.org/2000/svg" viewBox="0 0 576 512"><!-- Font Awesome Pro 6.0.0-alpha2 by @fontawesome - https://fontawesome.com License - https://fontawesome.com/license (Commercial License) --><path d="M207.999 216V296C207.999 318.062 225.936 336 247.999 336H327.998C350.061 336 367.998 318.062 367.998 296V216C367.998 193.938 350.061 176 327.998 176H247.999C225.936 176 207.999 193.938 207.999 216ZM255.999 224H319.998V288H255.999V224ZM575.997 247.991C575.997 241.189 573.12 234.433 567.526 229.678L511.995 182.561V55.987C511.995 42.735 501.245 31.985 487.995 31.985S463.996 42.735 463.996 55.987V141.832L303.53 5.672C299.045 1.891 293.522 0 287.998 0S276.952 1.891 272.467 5.672L8.471 229.678C2.877 234.433 0 241.189 0 247.991C0 264.019 13.69 271.992 24.01 271.992C29.493 271.992 35.009 270.125 39.533 266.305L64.002 245.541V448C64.002 483.345 92.656 512 128.001 512H447.996C483.341 512 511.995 483.345 511.995 448V245.541L536.464 266.305C540.979 270.117 546.495 271.992 551.979 271.992C562.14 271.992 575.997 263.962 575.997 247.991ZM463.996 447.998C463.996 456.797 456.796 463.998 447.996 463.998H128.001C119.201 463.998 112.001 456.797 112.001 447.998V207.99C112.001 207.027 111.564 206.207 111.453 205.273L287.998 55.455L463.996 204.809V447.998Z "></path></svg>