<svg xmlns="http://www.w3.org/2000/svg" viewBox="0 0 576 512"><!-- Font Awesome Pro 6.0.0-alpha2 by @fontawesome - https://fontawesome.com License - https://fontawesome.com/license (Commercial License) --><path d="M575.993 248.025C575.993 241.218 573.115 234.455 567.525 229.695L511.994 182.579V56.012C511.994 42.762 501.244 32.013 487.994 32.013C474.744 32.013 463.994 42.762 463.994 56.012V141.854L303.528 5.701C299.048 1.9 293.522 0 287.996 0S276.945 1.9 272.465 5.701L8.468 229.695C2.878 234.455 0 241.218 0 248.025C0 264.156 13.858 272.003 23.998 272.003C29.487 272.003 35.005 270.132 39.53 266.319L63.999 245.556V448.004C63.999 483.348 92.652 512 127.998 512H447.995C483.341 512 511.994 483.348 511.994 448.004V245.556L536.462 266.319C540.994 270.131 546.494 272.006 551.993 272.006C562.129 272.006 575.993 264.02 575.993 248.025ZM463.994 448.002C463.994 456.802 456.795 464.001 447.995 464.001H127.998C119.198 464.001 111.998 456.802 111.998 448.002V208.008C111.998 207.045 111.561 206.225 111.449 205.291L287.996 55.481L463.994 204.827V448.002ZM223.997 224.008C223.997 259.352 252.651 288.006 287.996 288.006S351.996 259.352 351.996 224.008C351.996 188.661 323.342 160.009 287.996 160.009S223.997 188.661 223.997 224.008ZM255.997 320.011C211.814 320.011 175.998 355.825 175.998 400.006C175.998 408.842 183.162 416.005 191.998 416.005H383.995C392.831 416.005 399.995 408.842 399.995 400.006C399.995 355.825 364.179 320.011 319.996 320.011H255.997Z "></path></svg>