<svg xmlns="http://www.w3.org/2000/svg" viewBox="0 0 640 512"><!-- Font Awesome Pro 6.0.0-alpha2 by @fontawesome - https://fontawesome.com License - https://fontawesome.com/license (Commercial License) --><path d="M215.477 105.078C208.82 99.025 200.408 96 191.996 96S175.172 99.025 168.514 105.078L17.141 242.689C6.225 252.613 0 266.684 0 281.438V464C0 490.51 21.49 512 48 512H335.992C362.502 512 383.992 490.693 383.992 464.184C383.996 423.518 384 365.59 384 320.627V281.107C384 266.455 377.818 252.656 366.977 242.801L215.477 105.078ZM335.992 464H48V281.438C48 280.209 48.521 279.031 49.43 278.207L191.996 148.602L334.689 278.318C335.559 279.109 336 280.047 336 281.107L335.992 464ZM452 288H416V352H452C458.625 352 464 346.625 464 340V300C464 293.375 458.625 288 452 288ZM452 192H412C405.375 192 400 197.375 400 204V244C400 250.625 405.375 256 412 256H452C458.625 256 464 250.625 464 244V204C464 197.375 458.625 192 452 192ZM224 288H160C151.125 288 144 295.125 144 304V368C144 376.875 151.125 384 160 384H224C232.875 384 240 376.875 240 368V304C240 295.125 232.875 288 224 288ZM548 192H508C501.375 192 496 197.375 496 204V244C496 250.625 501.375 256 508 256H548C554.625 256 560 250.625 560 244V204C560 197.375 554.625 192 548 192ZM576 0H384C348.654 0 320 28.652 320 64V136C320 149.254 330.746 160 344 160S368 149.254 368 136V64C368 55.162 375.164 48 384 48H576C584.836 48 592 55.162 592 64V488C592 501.254 602.746 512 616 512S640 501.254 640 488V64C640 28.652 611.346 0 576 0ZM452 96H412C405.375 96 400 101.375 400 108V148C400 154.625 405.375 160 412 160H452C458.625 160 464 154.625 464 148V108C464 101.375 458.625 96 452 96ZM548 96H508C501.375 96 496 101.375 496 108V148C496 154.625 501.375 160 508 160H548C554.625 160 560 154.625 560 148V108C560 101.375 554.625 96 548 96ZM548 288H508C501.375 288 496 293.375 496 300V340C496 346.625 501.375 352 508 352H548C554.625 352 560 346.625 560 340V300C560 293.375 554.625 288 548 288Z"/></svg>