<svg xmlns="http://www.w3.org/2000/svg" viewBox="0 0 512 512"><!-- Font Awesome Pro 6.0.0-alpha2 by @fontawesome - https://fontawesome.com License - https://fontawesome.com/license (Commercial License) --><path d="M496 368H440.275L478.719 278.297C481.656 271.437 479.438 263.453 473.406 259.062C467.313 254.641 459.063 255.031 453.469 259.953L325.469 371.953C320.438 376.344 318.688 383.391 321.031 389.625C323.375 395.875 329.344 400 336 400H391.725L353.281 489.703C350.344 496.563 352.562 504.547 358.594 508.938C361.406 510.984 364.719 512 368 512C371.781 512 375.531 510.672 378.531 508.047L506.531 396.047C511.563 391.656 513.313 384.609 510.969 378.375C508.625 372.125 502.656 368 496 368ZM144 343.574C117.5 343.574 96 365.064 96 391.551S117.5 439.525 144 439.525S192 418.037 192 391.551S170.5 343.574 144 343.574ZM101.75 212.891C108.625 219.889 118.125 223.762 127.875 223.762C137.75 223.762 147.125 219.889 154.125 212.891L232.625 134.432C248.5 118.689 256.875 97.074 255.75 74.711C254.75 52.473 244.25 31.609 227 17.49C198.875 -5.623 157.5 -5.373 128 16.615C98.5 -5.373 57 -5.623 29 17.49C11.75 31.609 1.25 52.473 0.125 74.711C-1 97.074 7.375 118.689 23.125 134.557L101.75 212.891ZM59.375 54.473C74.266 42.705 93.406 48.572 103 58.346L128 83.207L152.875 58.346C165.125 46.102 184.375 44.477 196.5 54.473C206.461 62.436 215.549 83.908 198.875 100.574L128 171.287L57.125 100.574C48.043 91.678 41.246 69.572 59.375 54.473ZM482.25 0C480.75 0 479.375 0.125 477.875 0.375L329.375 23.113C314.75 25.361 303.875 38.855 303.875 54.846V161.543C298.625 160.418 293.25 159.918 287.875 159.793C252.5 159.793 223.875 181.408 223.875 207.895C223.875 234.506 252.5 255.994 287.875 255.994S351.875 234.506 351.875 207.895V68.215L463.875 50.973V129.559C458.625 128.434 453.25 127.934 447.875 127.811C412.5 127.811 383.875 149.299 383.875 175.785S412.5 223.762 447.875 223.762S511.875 202.271 511.875 175.785V31.982C511.875 14.117 498.25 0 482.25 0ZM255.875 287.604H228.5L221.375 273.486C217.375 262.74 207.125 255.744 195.75 255.744H92.125C80.625 255.744 70.5 262.74 66.375 273.486L59.375 287.604H32C14.375 287.604 0 301.971 0 319.588V479.756C0 497.371 14.375 511.74 32 511.74H255.875C273.625 511.74 287.875 497.371 287.875 479.756V319.588C287.875 301.971 273.625 287.604 255.875 287.604ZM239.875 463.764H48V335.578H89.25L105 303.596H182.875L198.75 335.578H239.875V463.764Z"/></svg>