<svg xmlns="http://www.w3.org/2000/svg" viewBox="0 0 576 512"><!-- Font Awesome Pro 6.0.0-alpha2 by @fontawesome - https://fontawesome.com License - https://fontawesome.com/license (Commercial License) --><path d="M256 128H320C337.674 128 352 113.672 352 96V32C352 14.326 337.674 0 320 0H256C238.326 0 224 14.326 224 32V96C224 113.672 238.326 128 256 128ZM288 304C323.346 304 352 275.346 352 240C352 204.652 323.346 176 288 176S224 204.652 224 240C224 275.346 252.654 304 288 304ZM512 64H384V112H512C520.822 112 528 119.178 528 128V448C528 456.822 520.822 464 512 464H64C55.178 464 48 456.822 48 448V128C48 119.178 55.178 112 64 112H192V64H64C28.654 64 0 92.654 0 128V448C0 483.346 28.654 512 64 512H512C547.346 512 576 483.346 576 448V128C576 92.654 547.346 64 512 64ZM192 432H384C392.836 432 400 424.836 400 416C400 371.816 364.184 336 320 336H256C211.816 336 176 371.816 176 416C176 424.836 183.164 432 192 432Z"/></svg>