<svg xmlns="http://www.w3.org/2000/svg" viewBox="0 0 576 512"><!-- Font Awesome Pro 6.0.0-alpha2 by @fontawesome - https://fontawesome.com License - https://fontawesome.com/license (Commercial License) --><path d="M288 32C128.941 32 0 160.941 0 320V416C0 451.348 28.654 480 64 480H512C547.346 480 576 451.348 576 416V320C576 160.941 447.059 32 288 32ZM397.268 320C386.229 269.768 341.496 232 288 232S189.771 269.768 178.732 320H144V192H432V320H397.268ZM352 144V88.93C389.324 99.285 422.939 118.41 450.615 144H352ZM480 192H490.66C514.176 229.098 528 272.922 528 320H480V192ZM304 80.811V144H125.385C168.195 104.416 225.232 80 288 80C293.4 80 298.688 80.457 304 80.811ZM85.34 192H96V320H48C48 272.922 61.824 229.098 85.34 192ZM64 432C55.178 432 48 424.822 48 416V368H176V432H64ZM224 432V344C224 308.719 252.719 280 288 280S352 308.719 352 344V432H224ZM512 432H400V368H528V416C528 424.822 520.822 432 512 432Z"/></svg>