<svg xmlns="http://www.w3.org/2000/svg" viewBox="0 0 576 512"><!-- Font Awesome Pro 6.0.0-alpha2 by @fontawesome - https://fontawesome.com License - https://fontawesome.com/license (Commercial License) --><path d="M512 64H64C28.654 64 0 92.652 0 128V384C0 419.346 28.654 448 64 448H512C547.348 448 576 419.346 576 384V128C576 92.652 547.348 64 512 64ZM528 384C528 392.822 520.822 400 512 400H485.195L352.865 201.5C348.906 195.562 342.246 192 335.115 192C327.98 192 321.318 195.562 317.365 201.5L233.709 326.979L203.906 286.098C199.887 280.588 193.48 277.332 186.668 277.332S173.449 280.588 169.428 286.098L86.373 400H64C55.178 400 48 392.822 48 384V128C48 119.178 55.178 112 64 112H512C520.822 112 528 119.178 528 128V384ZM176 160C158.328 160 144 174.328 144 192S158.328 224 176 224C193.676 224 208 209.672 208 192S193.676 160 176 160Z"/></svg>