<svg xmlns="http://www.w3.org/2000/svg" viewBox="0 0 384 512"><!-- Font Awesome Pro 6.0.0-alpha2 by @fontawesome - https://fontawesome.com License - https://fontawesome.com/license (Commercial License) --><path d="M192 256C227.346 256 256 227.346 256 192S227.346 128 192 128S128 156.654 128 192S156.654 256 192 256ZM320 0H64C28.654 0 0 28.652 0 64V448C0 483.346 28.654 512 64 512H320C355.348 512 384 483.346 384 448V64C384 28.652 355.348 0 320 0ZM336 448C336 456.822 328.822 464 320 464H64C55.178 464 48 456.822 48 448V64C48 55.178 55.178 48 64 48H320C328.822 48 336 55.178 336 64V448ZM224 288H160C115.816 288 80 323.816 80 368C80 376.836 87.164 384 96 384H288C296.836 384 304 376.836 304 368C304 323.816 268.184 288 224 288Z"/></svg>