<svg xmlns="http://www.w3.org/2000/svg" viewBox="0 0 640 512"><!-- Font Awesome Pro 6.0.0-alpha2 by @fontawesome - https://fontawesome.com License - https://fontawesome.com/license (Commercial License) --><path d="M630.812 469.109L574.865 425.26C575.322 422.195 575.986 419.195 575.986 416V96C575.986 60.652 547.333 32 511.986 32H127.986C113.552 32 100.429 36.98 89.777 45.059L38.812 5.113C28.343 -3.059 13.312 -1.246 5.109 9.191C-3.063 19.629 -1.235 34.723 9.187 42.895L85.454 102.672L111.986 123.467L168.451 167.723L227.915 214.33L316.417 283.695L453.367 391.031L601.187 506.891C605.593 510.328 610.796 512 615.984 512C623.109 512 630.156 508.844 634.89 502.812C643.062 492.375 641.234 477.281 630.812 469.109ZM527.986 388.516L491.874 360.213L391.214 223.379C387.824 218.768 382.115 216 375.999 216C369.886 216 364.177 218.768 360.787 223.379L344.88 245.002L261.945 180C262.968 176.115 263.999 172.213 263.999 168C263.999 141.492 242.509 120 215.999 120C207.663 120 199.945 122.316 193.12 126.057L134.359 80H511.986C520.808 80 527.986 87.178 527.986 96V388.516ZM254.152 368.338L217.06 322.236C213.619 317.957 208.126 315.428 202.287 315.428C196.445 315.428 190.953 317.957 187.511 322.236L112.003 416.084C112.003 416.055 111.986 416.029 111.986 416V184.467L63.986 146.846V416C63.986 451.346 92.64 480 127.986 480H489.048L287.954 322.387L254.152 368.338Z"/></svg>