<svg xmlns="http://www.w3.org/2000/svg" viewBox="0 0 320 512"><!-- Font Awesome Pro 6.0.0-alpha2 by @fontawesome - https://fontawesome.com License - https://fontawesome.com/license (Commercial License) --><path d="M314.312 429.781C324.375 444.313 320.75 464.25 306.219 474.313C300.656 478.156 294.312 480 288.031 480C277.875 480 267.906 475.188 261.688 466.219L128.117 273.281L64 338.855V448C64 465.688 49.688 480 32 480S0 465.688 0 448V64C0 46.312 14.312 32 32 32S64 46.312 64 64V247.316L265.125 41.625C277.437 29.031 297.75 28.75 310.375 41.125C323 53.469 323.25 73.75 310.875 86.375L173.695 226.668L314.312 429.781Z"/></svg>