<svg xmlns="http://www.w3.org/2000/svg" viewBox="0 0 576 512"><!-- Font Awesome Pro 6.0.0-alpha2 by @fontawesome - https://fontawesome.com License - https://fontawesome.com/license (Commercial License) --><path d="M554.125 83.5L318.375 4.875C308.5 1.625 298.25 0 288 0S267.5 1.625 257.625 4.875L21.875 83.5C8.875 87.875 0 100.125 0 113.875V424.625C0 439.625 10.375 452.625 25 455.875L267.125 509.75C274 511.25 281 512 288 512S302 511.25 308.875 509.75L551 455.875C565.625 452.625 576 439.625 576 424.625V113.875C576 100.125 567.25 87.875 554.125 83.5ZM528 251.5L467.875 236.469C459.234 234.312 450.609 239.531 448.484 248.125C446.328 256.687 451.547 265.375 460.125 267.531L528 284.5V411.875L298.375 462.875C294.25 463.75 286.75 464.875 277.625 462.875L48 411.875V284.5L115.875 267.531C124.453 265.375 129.672 256.688 127.516 248.125C125.375 239.531 116.688 234.344 108.125 236.469L48 251.5V214.25L276.5 145.75C284 143.375 292 143.5 299.5 145.75L528 214.25V251.5ZM528 164.125L313.25 99.75C296.75 94.75 279.25 94.75 262.75 99.75L48 164.125V125.375L272.875 50.5C278.5 48.5 289.875 46 303.125 50.5L528 125.375V164.125ZM316.125 231.531L396.125 251.531C397.422 251.844 398.734 252 400.016 252C407.188 252 413.703 247.156 415.516 239.875C417.672 231.313 412.453 222.625 403.875 220.469L323.875 200.469C315.313 198.344 306.609 203.531 304.484 212.125C302.328 220.688 307.547 229.375 316.125 231.531ZM252.125 200.469L172.125 220.469C163.547 222.625 158.328 231.312 160.484 239.875C162.297 247.156 168.812 252 175.984 252C177.266 252 178.578 251.844 179.875 251.531L259.875 231.531C268.453 229.375 273.672 220.688 271.516 212.125C269.375 203.562 260.609 198.375 252.125 200.469Z"/></svg>