<svg xmlns="http://www.w3.org/2000/svg" viewBox="0 0 576 512"><!-- Font Awesome Pro 6.0.0-alpha2 by @fontawesome - https://fontawesome.com License - https://fontawesome.com/license (Commercial License) --><path d="M512 64H64C28.654 64 0 92.654 0 128V384C0 419.346 28.654 448 64 448H512C547.346 448 576 419.346 576 384V128C576 92.654 547.346 64 512 64ZM528 384C528 392.822 520.822 400 512 400H64C55.178 400 48 392.822 48 384V128C48 119.178 55.178 112 64 112H512C520.822 112 528 119.178 528 128V384ZM140 152H116C109.344 152 104 157.344 104 164V188C104 194.656 109.344 200 116 200H140C146.656 200 152 194.656 152 188V164C152 157.344 146.656 152 140 152ZM196 200H220C226.656 200 232 194.656 232 188V164C232 157.344 226.656 152 220 152H196C189.344 152 184 157.344 184 164V188C184 194.656 189.344 200 196 200ZM276 200H300C306.656 200 312 194.656 312 188V164C312 157.344 306.656 152 300 152H276C269.344 152 264 157.344 264 164V188C264 194.656 269.344 200 276 200ZM356 200H380C386.656 200 392 194.656 392 188V164C392 157.344 386.656 152 380 152H356C349.344 152 344 157.344 344 164V188C344 194.656 349.344 200 356 200ZM460 152H436C429.344 152 424 157.344 424 164V188C424 194.656 429.344 200 436 200H460C466.656 200 472 194.656 472 188V164C472 157.344 466.656 152 460 152ZM140 232H116C109.344 232 104 237.344 104 244V268C104 274.656 109.344 280 116 280H140C146.656 280 152 274.656 152 268V244C152 237.344 146.656 232 140 232ZM196 280H220C226.656 280 232 274.656 232 268V244C232 237.344 226.656 232 220 232H196C189.344 232 184 237.344 184 244V268C184 274.656 189.344 280 196 280ZM276 280H300C306.656 280 312 274.656 312 268V244C312 237.344 306.656 232 300 232H276C269.344 232 264 237.344 264 244V268C264 274.656 269.344 280 276 280ZM356 280H380C386.656 280 392 274.656 392 268V244C392 237.344 386.656 232 380 232H356C349.344 232 344 237.344 344 244V268C344 274.656 349.344 280 356 280ZM460 232H436C429.344 232 424 237.344 424 244V268C424 274.656 429.344 280 436 280H460C466.656 280 472 274.656 472 268V244C472 237.344 466.656 232 460 232ZM400 320H176C167.125 320 160 327.125 160 336V352C160 360.875 167.125 368 176 368H400C408.875 368 416 360.875 416 352V336C416 327.125 408.875 320 400 320Z"/></svg>