<svg xmlns="http://www.w3.org/2000/svg" viewBox="0 0 640 512"><!-- Font Awesome Pro 6.0.0-alpha2 by @fontawesome - https://fontawesome.com License - https://fontawesome.com/license (Commercial License) --><path d="M436 280H460C466.656 280 472 274.656 472 268V244C472 237.344 466.656 232 460 232H436C429.344 232 424 237.344 424 244V268C424 274.656 429.344 280 436 280ZM284 232H260C253.344 232 248 237.344 248 244V268C248 274.656 253.344 280 260 280H284C290.656 280 296 274.656 296 268V244C296 237.344 290.656 232 284 232ZM356 200H380C386.656 200 392 194.656 392 188V164C392 157.344 386.656 152 380 152H356C349.344 152 344 157.344 344 164V188C344 194.656 349.344 200 356 200ZM436 200H460C466.656 200 472 194.656 472 188V164C472 157.344 466.656 152 460 152H436C429.344 152 424 157.344 424 164V188C424 194.656 429.344 200 436 200ZM120.969 159.031C111.594 149.656 96.406 149.656 87.031 159.031L7.031 239.031C2.344 243.719 0 249.859 0 256C0 262.141 2.344 268.281 7.031 272.969L87.031 352.969C91.719 357.656 97.844 360 104 360S116.281 357.656 120.969 352.969C130.344 343.594 130.344 328.406 120.969 319.031L57.938 256L120.969 192.969C130.344 183.594 130.344 168.406 120.969 159.031ZM356 280H380C386.656 280 392 274.656 392 268V244C392 237.344 386.656 232 380 232H356C349.344 232 344 237.344 344 244V268C344 274.656 349.344 280 356 280ZM540 152H516C509.344 152 504 157.344 504 164V188C504 194.656 509.344 200 516 200H540C546.656 200 552 194.656 552 188V164C552 157.344 546.656 152 540 152ZM576 64H224C188.654 64 160 92.654 160 128V384C160 419.346 188.654 448 224 448H576C611.346 448 640 419.346 640 384V128C640 92.654 611.346 64 576 64ZM592 384C592 392.822 584.822 400 576 400H224C215.178 400 208 392.822 208 384V128C208 119.178 215.178 112 224 112H576C584.822 112 592 119.178 592 128V384ZM284 152H260C253.344 152 248 157.344 248 164V188C248 194.656 253.344 200 260 200H284C290.656 200 296 194.656 296 188V164C296 157.344 290.656 152 284 152ZM480 320H320C311.125 320 304 327.125 304 336V352C304 360.875 311.125 368 320 368H480C488.875 368 496 360.875 496 352V336C496 327.125 488.875 320 480 320ZM540 232H516C509.344 232 504 237.344 504 244V268C504 274.656 509.344 280 516 280H540C546.656 280 552 274.656 552 268V244C552 237.344 546.656 232 540 232Z"/></svg>