<svg xmlns="http://www.w3.org/2000/svg" viewBox="0 0 576 512"><!-- Font Awesome Pro 6.0.0-alpha2 by @fontawesome - https://fontawesome.com License - https://fontawesome.com/license (Commercial License) --><path d="M512 32H64C28.654 32 0 60.652 0 96V416C0 451.346 28.654 480 64 480H512C547.346 480 576 451.346 576 416V96C576 60.652 547.346 32 512 32ZM96 432H64C55.199 432 48 424.799 48 416V96C48 87.199 55.199 80 64 80H96V432ZM432 432H144V80H432V432ZM528 416C528 424.799 520.801 432 512 432H480V80H512C520.801 80 528 87.199 528 96V416ZM208 288H256V336C256 344.836 263.164 352 272 352H304C312.836 352 320 344.836 320 336V288H368C376.836 288 384 280.836 384 272V240C384 231.162 376.836 224 368 224H320V176C320 167.162 312.836 160 304 160H272C263.164 160 256 167.162 256 176V224H208C199.164 224 192 231.162 192 240V272C192 280.836 199.164 288 208 288Z"/></svg>