<svg xmlns="http://www.w3.org/2000/svg" viewBox="0 0 384 512"><!-- Font Awesome Pro 6.0.0-alpha2 by @fontawesome - https://fontawesome.com License - https://fontawesome.com/license (Commercial License) --><path d="M381.967 212.75L310.853 20.75C306.355 8.375 294.482 0 281.234 0H102.765C89.517 0 77.769 8.375 73.146 20.75L2.033 212.75C-5.715 233.625 9.656 256 31.652 256H168.254V464H88C74.746 464 64 474.744 64 488C64 501.254 74.746 512 88 512H296C309.254 512 320 501.254 320 488C320 474.744 309.254 464 296 464H215.746V256H352.347C374.344 256 389.715 233.625 381.967 212.75ZM54.523 208L113.763 48H270.236L329.476 208H54.523Z"/></svg>