<svg xmlns="http://www.w3.org/2000/svg" viewBox="0 0 448 512"><!-- Font Awesome Pro 6.0.0-alpha2 by @fontawesome - https://fontawesome.com License - https://fontawesome.com/license (Commercial License) --><path d="M445.486 237.75L367.983 21.75C363.233 8.625 352.357 0 340.357 0H120.598C109.223 0 98.722 7.75 93.597 19.875L3.218 235.875C-6.782 259.75 7.719 288 30.219 288H119.348C94.722 323.125 79.971 366.5 79.971 401.625C79.971 434.25 92.722 465.75 115.973 490.25C128.973 504.125 147.724 512 167.475 512H280.479C300.23 512 318.981 504.125 331.981 490.25C355.232 465.75 367.983 434.25 367.983 401.625C367.983 366.5 353.232 323.125 328.606 288H417.735C439.486 288 454.111 261.625 445.486 237.75ZM319.981 401.625C319.981 422.875 311.231 442.25 297.105 457.25C292.73 461.75 286.73 464 280.479 464H167.475C161.225 464 155.099 461.75 150.849 457.25C136.724 442.25 127.973 422.875 127.973 401.625C127.973 366.875 150.724 314.25 183.601 288H264.229C297.23 314.25 319.981 366.875 319.981 401.625ZM53.47 240L133.849 48H326.481L395.359 240H53.47Z"/></svg>