<svg xmlns="http://www.w3.org/2000/svg" viewBox="0 0 640 512"><!-- Font Awesome Pro 6.0.0-alpha2 by @fontawesome - https://fontawesome.com License - https://fontawesome.com/license (Commercial License) --><path d="M147.154 272H172.846L160 243.094L147.154 272ZM576 64H64C28.654 64 0 92.652 0 128V384C0 419.346 28.654 448 64 448H576C611.346 448 640 419.346 640 384V128C640 92.652 611.346 64 576 64ZM233.75 349.938C230.594 351.344 227.281 352 224 352C214.812 352 206.031 346.688 202.062 337.75L193.996 319.598C193.305 319.658 192.707 320 192 320H128C127.293 320 126.695 319.658 126.004 319.598L117.938 337.75C112.531 349.891 98.25 355.297 86.25 349.938C74.125 344.547 68.688 330.359 74.062 318.25L138.062 174.25C145.75 156.906 174.25 156.906 181.938 174.25L245.938 318.25C251.312 330.359 245.875 344.547 233.75 349.938ZM592 384C592 392.822 584.822 400 576 400H320V112H576C584.822 112 592 119.178 592 128V384ZM528 184H480C480 170.75 469.25 160 456 160S432 170.75 432 184H384C370.75 184 360 194.75 360 208S370.75 232 384 232H475.506C470.066 245.512 463.332 256.84 455.947 266.213C453.975 263.717 451.977 261.301 450.094 258.531C442.687 247.562 427.781 244.703 416.75 252.156C405.812 259.609 402.937 274.531 410.406 285.5C413.602 290.205 416.969 294.406 420.344 298.529C413.131 302.996 407.842 305.414 407.094 305.719C394.844 310.609 388.812 324.5 393.656 336.797C397.406 346.234 406.438 352 416 352C418.938 352 421.906 351.469 424.781 350.328C426.064 349.826 439.271 344.18 455.963 332.143C472.893 344.377 486.219 349.938 487.219 350.328C490.094 351.469 493.062 352 495.969 352C505.469 352 514.437 346.281 518.219 336.906C523.125 324.656 517.156 310.719 504.937 305.719C504.811 305.668 499.33 303.287 491.477 298.344C505.473 281.287 518.455 259.775 526.537 232H528C541.25 232 552 221.25 552 208S541.25 184 528 184Z"/></svg>