<svg xmlns="http://www.w3.org/2000/svg" viewBox="0 0 512 512"><!-- Font Awesome Pro 6.0.0-alpha2 by @fontawesome - https://fontawesome.com License - https://fontawesome.com/license (Commercial License) --><path d="M512 188.031C511.844 174.125 504.656 161.531 492.766 154.344C492.734 154.344 492.703 154.312 492.672 154.312L472.078 142L479.328 76.719C480.703 64.625 476.547 52.719 467.953 44.125S447.516 31.156 435.328 32.656L370 39.938L357.656 19.25C350.5 7.344 337.922 0.156 324.016 0C310.156 -0.719 297.422 6.75 290.031 18.406L257.438 69.625C257.031 69.187 256.609 68.781 256.188 68.344C246.266 58.75 232.344 55 218.891 58.344C216.969 58.812 215.094 59.562 213.344 60.5L206.703 64.062L178.844 32.562C163.75 13.625 131.078 14.531 117.547 31.625L88.922 64.031L82.422 60.5C80.656 59.562 78.781 58.844 76.828 58.344C63.359 54.969 49.297 58.719 39.344 68.5C29.406 78.219 25.312 92.125 28.297 105.219L54.344 231.625L38.625 238.406C24.031 244.625 14.562 258.906 14.5 274.75C14.438 290.656 23.828 305.062 38.141 311.281L126.645 351.418L7.031 471.031C2.344 475.719 0 481.859 0 488C0 494.141 2.344 500.281 7.031 504.969C11.719 509.656 17.859 512 24 512S36.281 509.656 40.969 504.969L160.59 385.348L200.578 473.594C206.953 488.156 221.281 497.5 237.109 497.5H237.266C253.094 497.437 267.359 488 273.594 473.469L280.391 457.687L406.344 483.625C419.859 486.781 433.797 482.594 443.516 472.656C453.234 462.687 457.031 448.687 453.656 435.187C453.172 433.219 452.438 431.344 451.484 429.562L447.953 423.062L479.437 395.219C488.906 387.656 494.344 376.344 494.344 364.187C494.344 352.062 488.906 340.75 480.359 333.937L447.922 305.312L451.5 298.656C452.453 296.906 453.172 295.031 453.656 293.094C457.016 279.688 453.266 265.719 443.641 255.812C443.219 255.375 442.812 254.969 442.375 254.562L493.547 222C505.25 214.594 512.156 201.875 512 188.031ZM339.781 262.938C329.813 269.281 325.938 281.906 330.641 292.719C335.328 303.531 347.094 309.344 358.625 306.438L398.281 296.25L396.641 299.312C391.344 309.125 393.516 321.281 401.875 328.688L442.125 364.188L401.875 399.719C393.5 407.125 391.344 419.313 396.656 429.156L398.781 433.063L270.922 406.719C259.719 404.344 248.531 410.25 244.031 420.719L236.859 437.375L199.594 355.125C198.721 353.197 197.348 351.568 196 349.938L312.969 232.969C322.344 223.594 322.344 208.406 312.969 199.031S288.406 189.656 279.031 199.031L162.051 316.012C160.422 314.676 158.799 313.309 156.875 312.438L74.625 275.125L91.312 267.937C101.75 263.437 107.594 252.219 105.297 241.062L78.938 113.219L82.859 115.312C92.719 120.719 104.859 118.469 112.266 110.125L147.781 69.875L183.344 110.125C190.719 118.437 202.875 120.656 212.703 115.344L215.719 113.719L205.562 153.375C202.641 164.813 208.453 176.688 219.281 181.375C230.109 186.156 242.719 182.188 249.062 172.219L323.359 55.437L336.703 77.812C341.516 85.875 350.672 90.375 359.969 89.344L430.5 81.469L422.656 152.031C421.625 161.375 426.141 170.469 434.219 175.281L456.562 188.656L339.781 262.938Z"/></svg>