<svg xmlns="http://www.w3.org/2000/svg" viewBox="0 0 512 512"><!-- Font Awesome Pro 6.0.0-alpha2 by @fontawesome - https://fontawesome.com License - https://fontawesome.com/license (Commercial License) --><path d="M480.281 144.688C480.125 144.594 478.859 143.75 478.688 143.625C476.766 142.375 474.828 141.125 472.891 139.969C483.672 95.25 465.563 69.5 453.359 57.875C453.344 57.844 453.328 57.844 453.328 57.844C441.344 45.625 415.781 28.531 372.063 39.125C370.672 36.813 369.109 34.375 367.344 31.719C355.047 14 336.234 2.594 315.734 0.375C295.484 -1.594 276 4.875 260.766 19.062C252.422 26.812 246.875 35.906 241.656 44.469C238.984 48.75 236.391 53.094 233.828 57.5C217.938 48.125 199.641 44.812 182.125 48.375C161.422 52.594 143.609 66.219 133.219 85.75C119.453 111.625 121 138.156 123.828 161.219C114.672 160.594 105.344 162.094 96.766 165.625C79.391 172.781 66.422 187.938 61.125 207.438C57.281 222.031 56.969 238.656 60.234 252.875C62.531 263.094 66.156 272.25 69.672 281.094C72.125 287.219 74.625 293.375 76.391 299.969C78.938 309.062 77.828 312.094 75.563 318.344C67.891 341.594 69.938 366.812 81.297 389.312C82.104 390.902 83.283 392.264 84.422 393.641L7.031 471.031C-2.344 480.406 -2.344 495.594 7.031 504.969C11.719 509.656 17.859 512 24 512S36.281 509.656 40.969 504.969L118.303 427.635C119.652 428.752 120.967 429.92 122.531 430.719C145.078 442.187 170.375 444.25 196.453 435.594C199.813 434.344 203.031 433.188 212.375 435.812C218.734 437.5 224.875 440 231.016 442.469C239.844 445.969 248.969 449.594 259.078 451.844C265.75 453.406 272.781 454.156 279.859 454.156C288.234 454.156 296.719 453.094 304.828 450.938C324.094 445.688 339.25 432.719 346.438 415.375C349.984 406.781 351.438 397.563 350.828 388.281C373.891 391.094 400.438 392.625 426.281 378.875C445.797 368.5 459.406 350.688 463.625 330C467.203 312.469 463.891 294.156 454.5 278.219C459.047 275.594 463.578 272.875 468.219 270C476.188 265.125 485.234 259.594 492.875 251.344C507.125 236.062 513.781 216.5 511.609 196.281C509.406 175.812 498 157 480.281 144.688ZM457.719 218.688C454.547 222.094 448.766 225.625 442.125 229.688C433.359 235.156 424.391 240.219 414.828 245.594L406.828 250.125C400.688 253.625 396.406 259.625 395.094 266.594C393.797 273.531 395.625 280.688 400.078 286.156L410.391 298.656C415.875 305.438 418.078 313.156 416.594 320.406C415.219 327.219 410.766 332.781 403.734 336.5C390.969 343.281 376.234 343.094 355.141 340.438C347.922 339.531 340.625 338.813 332.578 338.031L316.375 336.406C306.922 335.281 297.953 339.969 293.188 348.063C288.391 356.125 288.766 366.25 294.125 373.969L297.688 379.031C298.75 380.531 299.469 381.438 300.031 382.406C303.016 387.625 303.766 392.938 302.078 397.031C300.188 401.594 295.672 403.688 292.391 404.594C285.187 406.469 276.781 406.656 269.703 405.062C262.547 403.438 255.672 400.594 248.75 397.844C240.859 394.719 232.937 391.625 225.062 389.531C216.469 387.094 209.109 386.219 202.859 386.219C191.594 386.219 183.859 389.063 178.766 390.938C171.053 393.492 162.867 393.043 154.84 391.098L312.969 232.969C322.344 223.594 322.344 208.406 312.969 199.031S288.406 189.656 279.031 199.031L121.014 357.049C119.123 348.99 118.762 340.66 121.578 332.188C124.094 325.344 129.359 311.094 122.687 287.281C120.5 279.156 117.406 271.219 114.281 263.344C111.531 256.406 108.688 249.531 107.047 242.25C105.453 235.312 105.641 226.875 107.484 219.844C108.422 216.375 110.516 211.875 115.078 209.969C119.125 208.375 124.484 209.062 129.828 212.094C130.75 212.625 131.609 213.312 133.016 214.312L138.156 217.937C145.906 223.312 156.031 223.656 164.078 218.844C172.156 214.062 176.688 205 175.688 195.687L174.063 179.469C173.297 171.406 172.578 164.125 171.672 156.937C169 135.812 168.797 121.062 175.594 108.281C179.328 101.25 184.906 96.813 191.703 95.406C198.984 94 206.672 96.156 213.422 101.625L225.844 111.906C231.328 116.375 238.516 118.312 245.438 116.938C252.391 115.656 258.422 111.375 261.922 105.219L266.781 96.625C272.063 87.281 277.016 78.5 282.969 68.906C286.406 63.281 289.938 57.5 293.453 54.25C299.781 48.313 306.281 47.75 310.625 48.094C317.359 48.844 323.5 52.719 328.172 59.5C329.547 61.594 331.063 63.625 332.297 66.563C339.969 83.656 359.906 92.5 378.797 87C391.359 83.313 408.406 81.063 418.672 91.063C419.172 91.625 419.703 92.188 420.266 92.719C420.531 92.969 420.813 93.219 421.094 93.469C430.938 103.844 428.703 120.75 424.953 133.406C419.531 152.156 428.344 172.094 446.094 180.031C448.344 180.938 450.297 182.406 452.297 183.719C452.297 183.719 452.781 184.031 453.109 184.281C459.344 188.688 463.172 194.75 463.891 201.406C464.344 205.781 463.672 212.281 457.719 218.688Z"/></svg>