<svg xmlns="http://www.w3.org/2000/svg" viewBox="0 0 448 512"><!-- Font Awesome Pro 6.0.0-alpha2 by @fontawesome - https://fontawesome.com License - https://fontawesome.com/license (Commercial License) --><path d="M220.25 445.562C232.203 440.609 240 428.938 240 416V336H400C426.508 336 448 314.51 448 288V224C448 197.49 426.508 176 400 176H240V96C240 83.062 232.203 71.391 220.25 66.438C208.281 61.484 194.531 64.219 185.375 73.375L9.375 233.375C3.125 239.625 0 247.812 0 256S3.125 272.375 9.375 278.625L185.375 438.625C194.531 447.781 208.281 450.516 220.25 445.562ZM54.633 256L192 134.633V224H400V288H192V377.367L54.633 256Z"/></svg>