<svg xmlns="http://www.w3.org/2000/svg" viewBox="0 0 448 512"><!-- Font Awesome Pro 6.0.0-alpha2 by @fontawesome - https://fontawesome.com License - https://fontawesome.com/license (Commercial License) --><path d="M439.921 144.65C455.26 118.265 448.293 82.242 422.957 57.029C397.746 31.706 361.742 24.77 335.344 40.079C326.299 45.297 308.196 43.782 287.265 42.048C236.483 37.72 159.882 31.316 79.625 111.61C-0.648 191.889 5.804 268.544 10.068 319.267C11.817 340.231 13.348 358.337 8.084 367.35C-7.27 393.751 -0.273 429.805 25.001 454.925C41.262 471.296 62.052 480.013 81.827 480.013C92.715 480.013 103.289 477.373 112.662 471.921C121.674 466.672 139.778 468.203 160.741 469.952C211.428 474.186 288.108 480.653 368.38 400.39C448.653 320.111 442.202 243.456 437.937 192.733C436.188 171.769 434.657 153.663 439.921 144.65ZM398.449 120.499C385.578 142.588 387.781 168.91 390.124 196.748C394.279 246.049 398.965 301.943 334.453 366.46C269.926 430.945 213.99 426.243 164.771 422.135C136.92 419.807 110.647 417.605 88.513 430.446C82.374 434.085 69.347 431.477 58.928 420.995C48.541 410.669 45.979 397.64 49.556 391.501C62.427 369.412 60.225 343.09 57.881 315.252C53.726 265.951 49.04 210.057 113.552 145.54C161.818 97.27 205.258 87.741 244.715 87.741C257.992 87.741 270.832 88.818 283.235 89.865C311.132 92.224 337.405 94.427 359.492 81.554C365.616 77.977 378.674 80.523 388.983 90.912L389.077 91.005C399.465 101.331 402.026 114.36 398.449 120.499ZM239.537 124.1C241.693 132.66 236.475 141.346 227.915 143.533C183.585 154.687 122.698 215.579 111.576 259.882C109.733 267.13 103.235 271.973 96.05 271.973C94.769 271.973 93.457 271.817 92.144 271.504C83.585 269.349 78.399 260.632 80.523 252.071C94.675 195.802 163.81 126.662 220.105 112.477C228.759 110.446 237.35 115.539 239.537 124.1Z"/></svg>