<svg xmlns="http://www.w3.org/2000/svg" viewBox="0 0 640 512"><!-- Font Awesome Pro 6.0.0-alpha2 by @fontawesome - https://fontawesome.com License - https://fontawesome.com/license (Commercial License) --><path d="M144 304C91.062 304 48 260.938 48 208S91.062 112 144 112H304C356.938 112 400 155.062 400 208S356.938 304 304 304H272C272 323.234 280.645 340.326 294.143 352H304C383.406 352 448 287.406 448 208S383.406 64 304 64H144C64.594 64 0 128.594 0 208S64.594 352 144 352H167.451C163.061 336.648 160 320.746 160 304H144ZM496 160H472.549C476.939 175.352 480 191.254 480 208H496C548.938 208 592 251.062 592 304S548.938 400 496 400H336C283.062 400 240 356.938 240 304S283.062 208 336 208H368C368 188.766 359.355 171.674 345.857 160H336C256.594 160 192 224.594 192 304S256.594 448 336 448H496C575.406 448 640 383.406 640 304S575.406 160 496 160Z"/></svg>