<svg xmlns="http://www.w3.org/2000/svg" viewBox="0 0 512 512"><!-- Font Awesome Pro 6.0.0-alpha2 by @fontawesome - https://fontawesome.com License - https://fontawesome.com/license (Commercial License) --><path d="M215.969 120H487.969C501.223 120 511.969 109.254 511.969 96C511.969 82.744 501.223 72 487.969 72H215.969C202.715 72 191.969 82.744 191.969 96C191.969 109.254 202.715 120 215.969 120ZM47.969 384C30.303 384 15.969 398.332 15.969 416C15.969 433.666 30.303 448 47.969 448S79.969 433.666 79.969 416C79.969 398.332 65.635 384 47.969 384ZM487.969 232H215.969C202.715 232 191.969 242.744 191.969 256C191.969 269.254 202.715 280 215.969 280H487.969C501.223 280 511.969 269.254 511.969 256C511.969 242.744 501.223 232 487.969 232ZM487.969 392H183.969C170.715 392 159.969 402.744 159.969 416C159.969 429.254 170.715 440 183.969 440H487.969C501.223 440 511.969 429.254 511.969 416C511.969 402.744 501.223 392 487.969 392ZM118.125 39.938L63.063 101.141L40.938 79.031C31.563 69.656 16.375 69.656 7 79.031S-2.375 103.594 7 112.969L47 152.969C51.5 157.484 57.625 160 63.969 160C64.188 160 64.375 160 64.594 159.984C71.188 159.812 77.406 156.953 81.813 152.062L153.813 72.062C162.688 62.203 161.875 47.031 152.031 38.156C142.188 29.312 127.031 30.094 118.125 39.938ZM118.125 199.938L63.063 261.141L40.938 239.031C31.563 229.656 16.375 229.656 7 239.031S-2.375 263.594 7 272.969L47 312.969C51.5 317.484 57.625 320 63.969 320C64.188 320 64.375 320 64.594 319.984C71.188 319.812 77.406 316.953 81.813 312.062L153.813 232.062C162.688 222.203 161.875 207.031 152.031 198.156C142.188 189.312 127.031 190.094 118.125 199.938Z"/></svg>