<svg xmlns="http://www.w3.org/2000/svg" viewBox="0 0 384 512"><!-- Font Awesome Pro 6.0.0-alpha2 by @fontawesome - https://fontawesome.com License - https://fontawesome.com/license (Commercial License) --><path d="M192 0C85.969 0 0 85.969 0 192C0 269.41 26.969 291.035 172.281 501.676C177.047 508.559 184.523 512 192 512S206.953 508.559 211.719 501.676C357.031 291.035 384 269.41 384 192C384 85.969 298.031 0 192 0ZM192 445.836C174.307 420.371 158.582 397.969 144.623 378.086C57.562 254.066 48 238.875 48 192C48 112.598 112.598 48 192 48S336 112.598 336 192C336 238.875 326.438 254.066 239.377 378.086C225.412 397.98 209.684 420.383 192 445.836ZM255.371 112.201C249.904 106.734 242.738 104 235.572 104S221.242 106.734 215.773 112.203L131.736 196.432C127.988 200.18 125.381 204.916 124.219 210.086L112.141 263.793C111.256 268.217 114.695 272.17 118.977 272.17C119.436 272.17 119.902 272.125 120.375 272.029C120.375 272.029 157.391 264.176 174.078 260.246C179.127 259.059 183.645 256.518 187.311 252.852C208.803 231.359 233.91 206.08 271.82 168.17C282.754 157.236 282.713 139.549 271.781 128.613L255.371 112.201Z"/></svg>