<svg xmlns="http://www.w3.org/2000/svg" viewBox="0 0 384 512"><!-- Font Awesome Pro 6.0.0-alpha2 by @fontawesome - https://fontawesome.com License - https://fontawesome.com/license (Commercial License) --><path d="M192 0C85.969 0 0 85.969 0 192C0 269.41 26.969 291.035 172.281 501.676C177.047 508.559 184.523 512 192 512S206.953 508.559 211.719 501.676C357.031 291.035 384 269.41 384 192C384 85.969 298.031 0 192 0ZM192 445.836C174.307 420.371 158.582 397.969 144.623 378.086C57.562 254.066 48 238.875 48 192C48 112.598 112.598 48 192 48S336 112.598 336 192C336 238.875 326.438 254.066 239.377 378.086C225.412 397.98 209.684 420.383 192 445.836ZM192 287.982C174.375 287.982 160 302.355 160 319.98C160 337.604 174.375 351.979 192 351.979S224 337.604 224 319.98C224 302.355 209.625 287.982 192 287.982ZM194.625 79.996C152.875 79.996 117.75 109.244 108.875 148.49C106.625 158.49 114 167.99 124.25 167.99H141.125C148.375 167.99 154.375 162.99 156.5 156.115C161.5 139.867 176.75 127.992 194.625 127.992C220.625 127.992 234.625 148.615 234.625 167.99C234.625 183.988 214.625 195.238 184 210.486C175.875 214.611 170.625 222.861 170.625 231.986V248.109C170.625 256.859 177.75 263.984 186.5 263.984H202.875C211.625 263.984 218.625 256.859 218.625 248.109V246.734C249.875 230.486 282.625 208.986 282.625 167.99C282.625 124.742 249.75 79.996 194.625 79.996Z"/></svg>