<svg xmlns="http://www.w3.org/2000/svg" viewBox="0 0 384 512"><!-- Font Awesome Pro 6.0.0-alpha2 by @fontawesome - https://fontawesome.com License - https://fontawesome.com/license (Commercial License) --><path d="M192 0C85.969 0 0 85.969 0 192C0 269.41 26.969 291.035 172.281 501.676C177.047 508.559 184.523 512 192 512S206.953 508.559 211.719 501.676C357.031 291.035 384 269.41 384 192C384 85.969 298.031 0 192 0ZM192 445.836C174.307 420.371 158.582 397.969 144.623 378.086C57.562 254.066 48 238.875 48 192C48 112.598 112.598 48 192 48S336 112.598 336 192C336 238.875 326.438 254.066 239.377 378.086C225.412 397.98 209.684 420.383 192 445.836ZM249.781 136.375L170.656 228.719L132.969 191.031C123.594 181.656 108.406 181.656 99.031 191.031S89.656 215.594 99.031 224.969L155.031 280.969C159.531 285.469 165.656 288 172 288C172.312 288 172.625 288 172.906 287.969C179.594 287.719 185.875 284.687 190.219 279.625L286.219 167.625C294.844 157.562 293.687 142.406 283.625 133.781C273.594 125.188 258.438 126.344 249.781 136.375Z"/></svg>