<svg xmlns="http://www.w3.org/2000/svg" viewBox="0 0 512 512"><!-- Font Awesome Pro 6.0.0-alpha2 by @fontawesome - https://fontawesome.com License - https://fontawesome.com/license (Commercial License) --><path d="M416 192H384V128C384 57.422 326.578 0 256 0S128 57.422 128 128V192H96C60.654 192 32 220.654 32 256V448C32 483.346 60.654 512 96 512H416C451.346 512 480 483.346 480 448V256C480 220.654 451.346 192 416 192ZM176 128C176 83.891 211.891 48 256 48S336 83.891 336 128V192H176V128ZM432 448C432 456.822 424.822 464 416 464H96C87.178 464 80 456.822 80 448V256C80 247.178 87.178 240 96 240H416C424.822 240 432 247.178 432 256V448Z"/></svg>