<svg xmlns="http://www.w3.org/2000/svg" viewBox="0 0 448 512"><!-- Font Awesome Pro 6.0.0-alpha2 by @fontawesome - https://fontawesome.com License - https://fontawesome.com/license (Commercial License) --><path d="M416 480C398.312 480 384 465.688 384 448V169.688L250.625 369.75C238.75 387.562 209.25 387.562 197.375 369.75L64 169.688V448C64 465.688 49.688 480 32 480S0 465.688 0 448V64C0 49.906 9.219 37.469 22.719 33.375C36.187 29.281 50.812 34.531 58.625 46.25L224 294.312L389.375 46.25C397.188 34.531 411.844 29.281 425.281 33.375C438.781 37.469 448 49.906 448 64V448C448 465.688 433.688 480 416 480Z"/></svg>