<svg xmlns="http://www.w3.org/2000/svg" viewBox="0 0 512 512"><!-- Font Awesome Pro 6.0.0-alpha2 by @fontawesome - https://fontawesome.com License - https://fontawesome.com/license (Commercial License) --><path d="M208 96C160.459 96 121.812 134.5 121.812 182.188C121.812 220.539 178.104 290.688 199.688 316.207C201.729 318.539 204.791 320 208 320S214.271 318.539 216.312 316.207C237.896 290.687 294.188 220.539 294.188 182.187C294.188 134.5 255.541 96 208 96ZM208 208C190.334 208 176 193.664 176 176C176 158.332 190.334 144 208 144S240 158.332 240 176C240 193.664 225.666 208 208 208ZM504.969 471.031L370.959 337.023C399.084 301.547 416 256.785 416 208C416 93.125 322.875 0 208 0S0 93.125 0 208S93.125 416 208 416C256.785 416 301.549 399.086 337.021 370.961L471.031 504.969C475.719 509.656 481.859 512 488 512S500.281 509.656 504.969 504.969C514.344 495.594 514.344 480.406 504.969 471.031ZM208 368C119.775 368 48 296.223 48 208S119.775 48 208 48S368 119.777 368 208S296.225 368 208 368Z"/></svg>