<svg xmlns="http://www.w3.org/2000/svg" viewBox="0 0 512 512"><!-- Font Awesome Pro 6.0.0-alpha2 by @fontawesome - https://fontawesome.com License - https://fontawesome.com/license (Commercial License) --><path d="M504.969 471.031L370.959 337.023C399.084 301.547 416 256.785 416 208C416 93.125 322.875 0 208 0S0 93.125 0 208S93.125 416 208 416C256.785 416 301.549 399.086 337.021 370.961L471.031 504.969C475.719 509.656 481.859 512 488 512S500.281 509.656 504.969 504.969C514.344 495.594 514.344 480.406 504.969 471.031ZM208 368C119.775 368 48 296.223 48 208S119.775 48 208 48S368 119.777 368 208S296.225 368 208 368ZM288.002 184H231.998V128C231.998 114.738 221.258 104 208 104S184.002 114.738 184.002 128V184H127.998C114.738 184 104 194.742 104 208S114.73 232 127.998 232H184.002V288C184.002 301.258 194.734 312 208 312C221.258 312 231.998 301.262 231.998 288V232H288.002C301.262 232 312 221.258 312 208S301.262 184 288.002 184Z"/></svg>