<svg xmlns="http://www.w3.org/2000/svg" viewBox="0 0 512 512"><!-- Font Awesome Pro 6.0.0-alpha2 by @fontawesome - https://fontawesome.com License - https://fontawesome.com/license (Commercial License) --><path d="M256 16C123.451 16 16 123.451 16 256S123.451 496 256 496S496 388.549 496 256S388.549 16 256 16ZM256 448C150.131 448 64 361.869 64 256S150.131 64 256 64S448 150.131 448 256S361.869 448 256 448ZM256 96C167.635 96 96 167.635 96 256S167.635 416 256 416S416 344.365 416 256S344.365 96 256 96ZM366.383 272H336V304H356.768C345.711 327.096 327.096 345.711 304 356.768V336H272V366.383C266.729 367.146 261.479 368 256 368S245.271 367.146 240 366.383V336H208V356.768C184.904 345.711 166.289 327.096 155.232 304H176V272H145.617C144.854 266.729 144 261.479 144 256S144.854 245.271 145.617 240H176V208H155.23C166.287 184.904 184.904 166.287 208 155.23V176H240V145.617C245.271 144.854 250.521 144 256 144S266.729 144.854 272 145.617V176H304V155.23C327.096 166.287 345.713 184.904 356.77 208H336V240H366.383C367.146 245.271 368 250.521 368 256S367.146 266.729 366.383 272ZM208 240H240V208H208V240ZM208 304H240V272H208V304ZM272 304H304V272H272V304ZM272 240H304V208H272V240Z"/></svg>