<svg xmlns="http://www.w3.org/2000/svg" viewBox="0 0 512 512"><!-- Font Awesome Pro 6.0.0-alpha2 by @fontawesome - https://fontawesome.com License - https://fontawesome.com/license (Commercial License) --><path d="M485.53 26.5C467.78 8.875 444.655 0 421.53 0C398.28 0 375.155 8.875 357.53 26.5L321.014 63.016L295.655 37.656C274.53 16.5 237.592 16.5 216.467 37.656L111.092 143.031C101.717 152.406 101.717 167.594 111.092 176.969C115.78 181.656 121.905 184 128.061 184S140.342 181.656 145.03 176.969L250.405 71.594C253.53 68.469 258.592 68.469 261.717 71.594L287.077 96.953L94.03 290C41.53 342.5 8.405 411.375 0.155 485.125V485.375C-1.47 499.75 9.905 512 24.03 512C29.655 512 135.03 505 222.03 418L485.53 154.5C520.905 119.125 520.905 61.875 485.53 26.5ZM188.03 384.125C151.03 421.125 104.03 447 53.28 458.75C65.03 408 90.905 361 127.905 324L201.03 250.875L261.155 311L188.03 384.125ZM451.53 120.625L295.03 277.125L234.905 217L391.405 60.5C399.53 52.375 410.155 48 421.53 48S443.53 52.375 451.53 60.5C459.655 68.5 464.03 79.125 464.03 90.5S459.655 112.5 451.53 120.625Z"/></svg>