<svg xmlns="http://www.w3.org/2000/svg" viewBox="0 0 448 512"><!-- Font Awesome Pro 6.0.0-alpha2 by @fontawesome - https://fontawesome.com License - https://fontawesome.com/license (Commercial License) --><path d="M424 32H312C298.75 32 288 42.75 288 56S298.75 80 312 80H366.065L281.78 164.297C250.477 140.568 213.428 128 176 128C130.958 128 85.917 145.182 51.549 179.549C-17.183 248.281 -17.183 359.719 51.549 428.451C85.917 462.818 130.958 480 176 480S266.084 462.818 300.452 428.451C363.37 365.533 367.987 267.209 315.715 198.236L400 113.939V168C400 181.25 410.75 192 424 192S448 181.25 448 168V56C448 42.75 437.25 32 424 32ZM266.51 394.51C242.334 418.686 210.19 432 176 432S109.667 418.686 85.491 394.51C35.584 344.604 35.584 263.396 85.491 213.49C109.667 189.314 141.811 176 176 176S242.333 189.312 266.508 213.488C266.512 213.492 266.512 213.496 266.516 213.5C266.518 213.502 266.518 213.502 266.52 213.504C316.415 263.41 316.413 344.607 266.51 394.51Z"/></svg>