<svg xmlns="http://www.w3.org/2000/svg" viewBox="0 0 512 512"><!-- Font Awesome Pro 6.0.0-alpha2 by @fontawesome - https://fontawesome.com License - https://fontawesome.com/license (Commercial License) --><path d="M279.962 279.625L501.962 57.625C523.212 36.375 508.212 0 478.212 0H33.712C3.712 0 -11.288 36.375 9.962 57.625L231.962 279.625V463L220.762 464H152.001C138.751 464 128.001 474.75 128.001 488S138.751 512 152.001 512H360.001C373.251 512 384.001 501.25 384.001 488S373.251 464 360.001 464H281.907C280.206 463.779 278.704 463 276.942 463H279.962V279.625ZM255.962 235.75L68.212 48H443.712L255.962 235.75Z"/></svg>