<svg xmlns="http://www.w3.org/2000/svg" viewBox="0 0 448 512"><!-- Font Awesome Pro 6.0.0-alpha2 by @fontawesome - https://fontawesome.com License - https://fontawesome.com/license (Commercial License) --><path d="M428.25 290.438C416.281 285.469 402.531 288.219 393.375 297.375L346.344 344.41L257.939 256L346.344 167.594L393.373 214.625C399.5 220.742 407.67 223.977 416.002 223.977C420.119 223.977 424.277 223.18 428.246 221.562C440.215 216.609 447.996 204.938 447.996 192V56C447.996 42.75 437.252 32 423.996 32H287.998C275.061 32 263.373 39.797 258.436 51.75C253.467 63.719 256.217 77.469 265.373 86.625L312.406 133.656L224.002 222.062L135.594 133.652L182.625 86.625C188.742 80.496 191.977 72.328 191.977 63.992C191.977 59.875 191.18 55.719 189.562 51.75C184.609 39.781 172.938 32 160 32H24C10.75 32 0 42.742 0 56V192C0 204.938 7.797 216.625 19.75 221.562C31.719 226.531 45.469 223.781 54.625 214.625L101.656 167.59L190.064 256L101.656 344.406L54.627 297.375C48.5 291.258 40.33 288.023 31.998 288.023C27.881 288.023 23.723 288.82 19.754 290.438C7.785 295.391 0.004 307.062 0.004 320V456C0.004 469.25 10.748 480 24.004 480H160.002C172.939 480 184.627 472.203 189.564 460.25C194.533 448.281 191.783 434.531 182.627 425.375L135.594 378.344L224.002 289.937L312.406 378.348L265.375 425.375C259.258 431.504 256.023 439.672 256.023 448.008C256.023 452.125 256.82 456.281 258.438 460.25C263.391 472.219 275.062 480 288 480H424C437.25 480 448 469.258 448 456V320C448 307.062 440.203 295.375 428.25 290.438Z"/></svg>