<svg xmlns="http://www.w3.org/2000/svg" viewBox="0 0 512 512"><!-- Font Awesome Pro 6.0.0-alpha2 by @fontawesome - https://fontawesome.com License - https://fontawesome.com/license (Commercial License) --><path d="M325.691 117.273C318.66 110.242 307.246 110.242 300.217 117.273L281.982 135.508L329.988 183.516L348.227 165.277C355.256 158.242 355.256 146.836 348.227 139.805L325.691 117.273ZM174.422 243.062C172.746 244.742 171.604 246.875 171.141 249.195L161.619 296.805C160.781 301 164.48 304.703 168.678 303.863L216.289 294.344C218.611 293.875 220.744 292.734 222.42 291.062L313.002 200.496L264.998 152.492L174.422 243.062ZM448 0H64C28.75 0 0 28.75 0 64V352.002C0 387.252 28.75 416.002 64 416.002H160V500.002C160 509.838 171.023 515.479 179.125 509.627L304 416.002H448C483.25 416.002 512 387.252 512 352.002V64C512 28.75 483.25 0 448 0ZM464 352.002C464 360.752 456.75 368.002 448 368.002H288L208 428.002V368.002H64C55.25 368.002 48 360.752 48 352.002V64C48 55.25 55.25 48 64 48H448C456.75 48 464 55.25 464 64V352.002Z"/></svg>