<svg xmlns="http://www.w3.org/2000/svg" viewBox="0 0 384 512"><!-- Font Awesome Pro 6.0.0-alpha2 by @fontawesome - https://fontawesome.com License - https://fontawesome.com/license (Commercial License) --><path d="M344 192H344C330.745 192 320 202.745 320 216V256C320 330.75 255.5 390.875 179.25 383.375C112.75 376.875 64 317.125 64 250.25V216C64 202.745 53.255 192 40 192H40C26.745 192 16 202.745 16 216V248.125C16 337.75 80 417.75 168 429.875V464H120C106.745 464 96 474.745 96 488V488C96 501.255 106.745 512 120 512H264C277.255 512 288 501.255 288 488V488C288 474.745 277.255 464 264 464H216V430.25C301.75 418.5 368 344.875 368 256V216C368 202.745 357.255 192 344 192ZM192 352C245 352 288 309 288 256V96C288 43 245 0 192 0S96 43 96 96V256C96 309 139 352 192 352ZM144 96C144 69.5 165.5 48 192 48S240 69.5 240 96V256C240 282.5 218.5 304 192 304S144 282.5 144 256V96Z"/></svg>