<svg xmlns="http://www.w3.org/2000/svg" viewBox="0 0 576 512"><!-- Font Awesome Pro 6.0.0-alpha2 by @fontawesome - https://fontawesome.com License - https://fontawesome.com/license (Commercial License) --><path d="M542.076 229.41C516.074 203.41 452.447 190.785 411.195 185.285L311.939 86.16V80H312.016V24C312.016 10.744 301.27 0 288.016 0S264.016 10.744 264.016 24V51.469C264.012 51.604 263.937 51.715 263.937 51.85V86.16L164.807 185.285C123.555 190.785 59.926 203.41 33.924 229.41C-6.078 269.41 -11.453 328.785 21.799 362.16C36.424 376.785 56.176 384.035 77.178 384.035C103.678 384.035 132.18 372.535 154.557 350.16C169.432 335.285 179.807 308.16 187.184 279.91C192.684 284.785 199.809 288.035 207.934 288.035C225.686 288.035 239.936 273.785 239.936 256.035S225.686 224.035 207.934 224.035C204.309 224.035 201.059 225.035 197.684 226.16C198.184 223.785 198.434 221.535 198.684 219.285L263.938 154.035V282.25C235.561 315.125 191.934 371.5 191.934 409.625C191.934 466.25 234.936 512 287.937 512C340.941 512 383.943 466.25 383.943 409.625C383.943 371.5 340.316 315 311.939 282.25V153.91L377.193 219.16C382.693 260.41 395.318 324.035 421.32 350.035C443.695 372.41 472.197 383.91 498.699 383.91C519.699 383.91 539.451 376.785 554.201 362.16C587.453 328.785 582.078 269.41 542.076 229.41ZM120.68 316.16C108.178 328.66 91.928 336.035 77.178 336.035C70.926 336.035 62.176 334.66 55.676 328.285C41.676 314.16 47.301 283.785 67.801 263.285C78.178 252.91 111.178 243.035 147.68 236.41C140.93 272.785 131.055 305.785 120.68 316.16ZM335.941 409.625C335.941 439.625 314.439 464 287.937 464C261.437 464 239.936 439.625 239.936 409.625C239.936 395.75 260.312 362.125 287.937 328.125C315.189 362 335.941 396 335.941 409.625ZM520.199 328.285C513.699 334.66 504.949 336.035 498.699 336.035C483.949 336.035 467.697 328.66 455.322 316.16C444.945 305.785 435.07 272.785 428.445 236.41C464.697 243.035 497.824 253.035 508.199 263.285C528.576 283.785 534.201 314.16 520.199 328.285ZM352.02 64C352.02 46.326 366.346 32 384.021 32C401.695 32 416.021 46.326 416.021 64C416.021 81.672 401.695 96 384.021 96C366.346 96 352.02 81.672 352.02 64Z"/></svg>