<svg xmlns="http://www.w3.org/2000/svg" viewBox="0 0 576 512"><!-- Font Awesome Pro 6.0.0-alpha2 by @fontawesome - https://fontawesome.com License - https://fontawesome.com/license (Commercial License) --><path d="M368 256C368 309.018 332.184 352 288 352S208 309.018 208 256C208 202.98 243.816 160 288 160S368 202.98 368 256ZM576 102.312V385.578C576 414.5 553.297 438.031 525.391 438.031C519.734 438.031 514.172 437.078 508.875 435.219C487.453 427.906 465 424.313 440.422 424.313C392.859 424.313 345 437.422 294.344 451.297C242.844 465.406 189.594 480 135.578 480C97.266 480 62.609 472.719 29.656 457.766C11.656 449.609 0 430.734 0 409.688V126.312C0 97.453 22.703 73.969 50.609 73.969C56.266 73.969 61.828 74.922 67.125 76.781C88.547 84.094 111 87.688 135.578 87.688C183.141 87.688 231 74.578 281.656 60.703C333.156 46.594 386.406 32 440.422 32C478.734 32 513.391 39.281 546.344 54.234C564.359 62.406 576 81.281 576 102.312ZM440.422 376.312C452.127 376.312 463.215 377.568 474.279 378.939C482.322 355.957 502.947 339.102 528 336.564V151.193C496.475 147.217 472 120.605 472 88C472 86.107 472.385 84.336 472.635 82.521C462.211 81.018 451.576 80 440.422 80C392.859 80 345 93.109 294.344 106.984C242.844 121.094 189.594 135.688 135.578 135.688C126.301 135.688 117.607 134.465 108.746 133.605C100.562 159.516 76.615 178.418 48 178.418V360.807C79.525 364.783 104 391.393 104 424C104 425.891 103.615 427.664 103.365 429.479C113.787 430.982 124.422 432 135.578 432C183.141 432 231 418.891 281.656 405.016C333.156 390.906 386.406 376.312 440.422 376.312Z"/></svg>