<svg xmlns="http://www.w3.org/2000/svg" viewBox="0 0 576 512"><!-- Font Awesome Pro 6.0.0-alpha2 by @fontawesome - https://fontawesome.com License - https://fontawesome.com/license (Commercial License) --><path d="M512 64H64C28.654 64 0 92.654 0 128V384C0 419.346 28.654 448 64 448H512C547.346 448 576 419.346 576 384V128C576 92.654 547.346 64 512 64ZM528 384C528 392.822 520.822 400 512 400H64C55.178 400 48 392.822 48 384V128C48 119.178 55.178 112 64 112H512C520.822 112 528 119.178 528 128V384ZM264 208H120C106.75 208 96 218.75 96 232S106.75 256 120 256H264C277.25 256 288 245.25 288 232S277.25 208 264 208ZM232 304H120C106.75 304 96 314.75 96 328S106.75 352 120 352H232C245.25 352 256 341.25 256 328S245.25 304 232 304ZM456 304H408C394.75 304 384 314.75 384 328S394.75 352 408 352H456C469.25 352 480 341.25 480 328S469.25 304 456 304ZM448 160H384C366.326 160 352 174.326 352 192V224C352 241.672 366.326 256 384 256H448C465.674 256 480 241.672 480 224V192C480 174.326 465.674 160 448 160Z"/></svg>