<svg xmlns="http://www.w3.org/2000/svg" viewBox="0 0 384 512"><!-- Font Awesome Pro 6.0.0-alpha2 by @fontawesome - https://fontawesome.com License - https://fontawesome.com/license (Commercial License) --><path d="M360 464H333.999L289.125 100.75C288.375 93.375 285.125 86.5 279.875 81.25L203.25 4.75C200.375 1.625 196.25 0 192 0C187.875 0 183.75 1.5 180.75 4.75L104.125 81.25C98.875 86.5 95.625 93.375 94.875 100.75L49.999 464H24C10.745 464 0 474.745 0 488V488C0 501.255 10.745 512 24 512H360C373.255 512 384 501.255 384 488V488C384 474.745 373.255 464 360 464ZM98.375 464L141.875 111.375L192 61.25L242.125 111.375L285.625 464H98.375ZM216 272H168C154.8 272 144 282.8 144 296V296C144 309.2 154.8 320 168 320H216C229.2 320 240 309.2 240 296V296C240 282.8 229.2 272 216 272Z"/></svg>