<svg xmlns="http://www.w3.org/2000/svg" viewBox="0 0 640 512"><!-- Font Awesome Pro 6.0.0-alpha2 by @fontawesome - https://fontawesome.com License - https://fontawesome.com/license (Commercial License) --><path d="M629.562 379.918C628.898 379.918 628.213 379.98 627.514 380.113C616.275 382.256 605.139 383.283 594.189 383.283C499.381 383.283 419.236 306.139 419.236 207.793C419.236 144.602 453.029 86.496 507.969 55.188C516.436 50.375 514.307 37.523 504.689 35.746C493.488 33.668 475.158 32 463.793 32C352.273 32 259.99 113.74 243.043 220.711C243.721 222.041 244.562 223.262 245.188 224.625C248.781 224.219 252.375 224 256 224C268.018 224 279.412 226.475 290.025 230.525C299.508 165.469 344.494 111.791 404.746 90.213C383.229 125.006 371.236 165.611 371.236 207.793C371.236 307.234 436.363 391.717 526.107 420.629C506.471 428.072 485.414 432 463.793 432C412.662 432 366.703 409.896 334.551 374.891C325.236 388.176 312.57 398.779 297.887 405.969C338.826 451.318 397.863 480 463.793 480C532.828 480 595.852 448.555 637.621 397.066C643.344 389.994 637.99 379.918 629.562 379.918ZM320 320C320 284.75 291.25 256 256 256C244 256 232.875 259.5 223.25 265.25C219.75 224.25 185.875 192 144 192C105.25 192 72.875 219.625 65.625 256.25C65.125 256.25 64.625 256 64 256C28.75 256 0 284.75 0 320S28.75 384 64 384H256C291.25 384 320 355.25 320 320Z"/></svg>