<svg xmlns="http://www.w3.org/2000/svg" viewBox="0 0 512 512"><!-- Font Awesome Pro 6.0.0-alpha2 by @fontawesome - https://fontawesome.com License - https://fontawesome.com/license (Commercial License) --><path d="M421.562 379.918C420.898 379.918 420.213 379.98 419.514 380.113C408.275 382.256 397.139 383.283 386.189 383.283C291.381 383.283 211.236 306.139 211.236 207.793C211.236 144.602 245.029 86.496 299.969 55.188C308.436 50.375 306.307 37.523 296.689 35.746C285.488 33.668 267.158 32 255.793 32C132.26 32 32 132.188 32 256C32 379.648 132.096 480 255.793 480C324.828 480 387.852 448.555 429.621 397.066C435.344 389.994 429.99 379.918 421.562 379.918ZM255.793 432C158.861 432 80 353.047 80 256C80 179.684 128.773 114.555 196.746 90.213C175.229 125.006 163.236 165.611 163.236 207.793C163.236 307.234 228.363 391.717 318.107 420.629C298.471 428.072 277.414 432 255.793 432Z"/></svg>