<svg xmlns="http://www.w3.org/2000/svg" viewBox="0 0 640 512"><!-- Font Awesome Pro 6.0.0-alpha2 by @fontawesome - https://fontawesome.com License - https://fontawesome.com/license (Commercial License) --><path d="M629.842 381.557L503.77 184.045C491.188 164.334 462.405 164.334 449.821 184.045L409.569 247.105L409.573 247.248L279.975 44.217C279.962 44.195 279.876 44.061 279.86 44.037C274.612 36.018 265.258 32 255.913 32C246.512 32 237.116 36.068 231.917 44.217L8.919 393.572C-14.96 430.979 11.913 480 56.296 480H575.895C626.438 480 657.038 424.162 629.842 381.557ZM462.784 427.742C461.237 430.568 458.817 432 455.596 432H56.296C53.073 432 50.655 430.568 49.108 427.742C47.559 424.918 47.653 422.111 49.387 419.395L255.946 95.793L462.506 419.395C464.239 422.109 464.333 424.918 462.784 427.742Z"/></svg>