<svg xmlns="http://www.w3.org/2000/svg" viewBox="0 0 512 512"><!-- Font Awesome Pro 6.0.0-alpha2 by @fontawesome - https://fontawesome.com License - https://fontawesome.com/license (Commercial License) --><path d="M400 160H32C14.25 160 0 174.25 0 192V384C0 437 43 480 96 480H288C341 480 384 437 384 384H400C461.75 384 512 333.75 512 272S461.75 160 400 160ZM336 384C336 410.5 314.5 432 288 432H96C69.5 432 48 410.5 48 384V208H103.367L104 256.312C104.172 269.469 114.891 280 128 280C128.094 280 128.203 280 128.312 280C141.562 279.828 152.172 268.938 152 255.688L151.375 208H336V384ZM400 336H384V208H400C435.25 208 464 236.75 464 272S435.25 336 400 336ZM200.723 89.375L249.223 41C261.721 28.5 281.973 28.5 294.473 41L342.973 89.375C353.473 99.875 354.598 115.75 347.473 128H196.473C189.223 115.75 190.348 99.875 200.723 89.375ZM162.125 128.25H32V64.375C32 46.75 46.25 32.375 64 32.375H176.25C186.375 32.375 195 37.5 200.875 44.75L178.5 67.25C161.875 83.75 156.625 107.25 162.125 128.25Z"/></svg>