<svg xmlns="http://www.w3.org/2000/svg" viewBox="0 0 640 512"><!-- Font Awesome Pro 6.0.0-alpha2 by @fontawesome - https://fontawesome.com License - https://fontawesome.com/license (Commercial License) --><path d="M512 32H112C103.199 32 96 39.199 96 48V288C96 341.02 138.98 384 192 384H384C437.02 384 480 341.02 480 288H506.381C573.209 288 632.955 239.219 639.385 172.701C646.762 96.385 586.814 32 512 32ZM432 288C432 314.4 410.4 336 384 336H192C165.6 336 144 314.4 144 288V80H216V120L185.373 150.627C179.371 156.629 176 164.768 176 173.254V224C176 241.672 190.326 256 208 256H256C273.674 256 288 241.672 288 224V173.254C288 164.768 284.629 156.629 278.627 150.627L248 120V80H432V288ZM512 240H480V80H512C556.125 80 592 115.875 592 160S556.125 240 512 240ZM576 456C576 469.254 565.254 480 552 480H24C10.746 480 0 469.254 0 456C0 442.744 10.746 432 24 432H552C565.254 432 576 442.744 576 456Z"/></svg>