<svg xmlns="http://www.w3.org/2000/svg" viewBox="0 0 576 512"><!-- Font Awesome Pro 6.0.0-alpha2 by @fontawesome - https://fontawesome.com License - https://fontawesome.com/license (Commercial License) --><path d="M416 320H442.381C509.209 320 568.955 271.219 575.385 204.701C582.762 128.385 522.814 64 448 64H48C39.199 64 32 71.199 32 80V352C32 405.02 74.98 448 128 448H320C373.02 448 416 405.02 416 352V320ZM416 112H448C492.125 112 528 147.875 528 192S492.125 272 448 272H416V112ZM368 352C368 378.4 346.4 400 320 400H128C101.6 400 80 378.4 80 352V112H152V152L121.373 182.627C115.371 188.629 112 196.768 112 205.254V256C112 273.672 126.326 288 144 288H192C209.674 288 224 273.672 224 256V205.254C224 196.768 220.629 188.629 214.627 182.627L184 152V112H368V352Z"/></svg>