<svg xmlns="http://www.w3.org/2000/svg" viewBox="0 0 640 512"><!-- Font Awesome Pro 6.0.0-alpha2 by @fontawesome - https://fontawesome.com License - https://fontawesome.com/license (Commercial License) --><path d="M630.812 469.109L351.999 250.582V195.352L489.624 161.975C502.999 157.725 511.999 145.473 511.999 131.473V31.965C511.999 21.715 507.124 12.215 498.874 6.213C490.624 0.088 480.124 -1.537 470.374 1.463L326.374 36.842C313.124 41.092 303.999 53.342 303.999 67.344V212.961L38.812 5.113C28.343 -3.059 13.312 -1.246 5.109 9.191C-3.063 19.629 -1.235 34.723 9.187 42.895L601.187 506.891C605.593 510.328 610.796 512 615.984 512C623.109 512 630.156 508.844 634.89 502.812C643.062 492.375 641.234 477.281 630.812 469.109ZM351.999 79.094L463.999 53.842V119.723L351.999 144.973V79.094ZM303.999 366.488C285.874 357.363 263.874 351.988 239.999 351.988C178.124 351.988 127.999 387.865 127.999 431.994C127.999 476.121 178.124 512 239.999 512S351.999 476.121 351.999 431.994V372.576L303.999 334.955V366.488ZM239.999 463.996C200.249 463.996 175.999 443.244 175.999 431.994C175.999 420.742 200.249 399.992 239.999 399.992S303.999 420.742 303.999 431.994C303.999 443.244 279.749 463.996 239.999 463.996Z"/></svg>