<svg xmlns="http://www.w3.org/2000/svg" viewBox="0 0 384 512"><!-- Font Awesome Pro 6.0.0-alpha2 by @fontawesome - https://fontawesome.com License - https://fontawesome.com/license (Commercial License) --><path d="M352 480C342.688 480 333.625 475.938 327.406 468.5L64 152.375V448C64 465.688 49.688 480 32 480S0 465.688 0 448V64C0 50.531 8.438 38.5 21.094 33.906C33.719 29.344 47.938 33.125 56.594 43.5L320 359.625V64C320 46.312 334.312 32 352 32S384 46.312 384 64V448C384 461.469 375.562 473.5 362.906 478.094C359.344 479.375 355.656 480 352 480Z"/></svg>