<svg xmlns="http://www.w3.org/2000/svg" viewBox="0 0 448 512"><!-- Font Awesome Pro 6.0.0-alpha2 by @fontawesome - https://fontawesome.com License - https://fontawesome.com/license (Commercial License) --><path d="M384 32H64.02C28.674 32 0.02 60.652 0.02 96L0 416C0 451.344 28.654 480 64 480H309.373C326.348 480 342.625 473.258 354.627 461.254L429.256 386.617C441.258 374.613 448 358.336 448 341.359V96C448 60.797 419.199 32 384 32ZM400.002 320H320.008C302.334 320 288.008 334.328 288.008 352V431.875H64C55.164 431.875 48 424.711 48 415.875L48.018 96C48.018 87.164 55.18 80 64.018 80H384.002C392.838 80 400.002 87.164 400.002 96V320Z"/></svg>