<svg xmlns="http://www.w3.org/2000/svg" viewBox="0 0 512 512"><!-- Font Awesome Pro 6.0.0-alpha2 by @fontawesome - https://fontawesome.com License - https://fontawesome.com/license (Commercial License) --><path d="M420.125 200C395.875 200 372.25 209.75 355.125 226.875L330.875 251.125C322.75 259.375 311.375 264 299.875 264H234.5C248.625 242.25 255.375 215.125 249.5 186.25C241 144.625 206.375 111.75 164.375 105.25C131.25 100.25 99.625 110.375 76.625 132C69.5 138.625 70.625 150.25 78.375 156.125L91.5 166.001C97.625 170.5 105.875 169.875 111.75 165C124 154.625 140.375 150.001 157.375 152.875C179 156.375 197 173.25 202.125 194.5C210.75 231.25 183 264 147.625 264L108 264.25C99 264.25 93.25 273.625 97.25 281.625L109.25 305.75C111.25 309.625 115 311.875 119.125 312.25L156 312C197.875 312 232 346.125 232 388S197.875 464 156 464C73.125 464 51.125 443.25 13.375 387.25C9.25 381.125 0 384.375 0 391.375C0 421.125 20.5 512 156 512C224.375 512 280 456.375 280 388C280 359.25 269.75 333 253.25 312H299.875C324 312 347.75 302.25 364.875 285.125L389.125 260.875C397.25 252.625 408.5 248 420.125 248C444.25 248 464 267.75 464 291.875V400C464 417.625 449.625 432 432 432C405.5 432 383.25 426.875 362.625 402.125C359 397.875 352 400.375 352 405.875V433.375C352 447.25 361.75 480 432 480C476.125 480 512 448 512 400V291.875C512 241.25 470.75 200 420.125 200ZM360.625 61C364.625 65 371.25 65 375.375 61L396.875 39.375C398.875 37.375 400 34.75 400 32S398.875 26.625 396.875 24.625L375.375 3C373.375 1.125 370.75 0 368 0S362.5 1.125 360.625 3L339 24.625C337 26.625 336 29.25 336 32S337 37.375 339 39.375L360.625 61ZM376.75 150.75C453 150.75 472.875 130.75 477.125 124.75C479 122.001 480 118.75 480 115.5V80C480 67.25 465.25 59 454.375 67.25C428.625 86.875 400.75 96.75 371.25 96.75C320.5 96.75 282.25 67.625 281.75 67.375C267.875 56.5 248.875 73.375 258.5 88.625C260.125 91.125 299 150.75 376.75 150.75Z"/></svg>