<svg xmlns="http://www.w3.org/2000/svg" viewBox="0 0 512 512"><!-- Font Awesome Pro 6.0.0-alpha2 by @fontawesome - https://fontawesome.com License - https://fontawesome.com/license (Commercial License) --><path d="M344 80H488C501.254 80 512 69.254 512 56C512 42.744 501.254 32 488 32H344C330.746 32 320 42.744 320 56C320 69.254 330.746 80 344 80ZM488 432H414.969L128 41.453C123.469 35.5 116.406 32 108.906 32H24C10.75 32 0 42.75 0 56S10.75 80 24 80H97.031L384 470.547C388.531 476.5 395.594 480 403.094 480H488C501.25 480 512 469.25 512 456S501.25 432 488 432Z"/></svg>