<svg xmlns="http://www.w3.org/2000/svg" viewBox="0 0 512 512"><!-- Font Awesome Pro 6.0.0-alpha2 by @fontawesome - https://fontawesome.com License - https://fontawesome.com/license (Commercial License) --><path d="M456 72H448V120H456C460.375 120 464 123.625 464 128V184C464 210.4 442.4 232 416 232H256C225.072 232 200 257.072 200 288V320H192C174.375 320 160 334.375 160 352V480C160 497.6 174.4 512 192 512H256C273.6 512 288 497.6 288 480V352C288 334.375 273.625 320 256 320H248V288C248 283.625 251.625 280 256 280H416C469.02 280 512 237.02 512 184V128C512 97.072 486.928 72 456 72ZM416 144V48C416 21.5 394.5 0 368 0H48C21.5 0 0 21.5 0 48V144C0 170.5 21.5 192 48 192H368C394.5 192 416 170.5 416 144ZM48 48H368V144H48V48Z"/></svg>