<svg xmlns="http://www.w3.org/2000/svg" viewBox="0 0 640 512"><!-- Font Awesome Pro 6.0.0-alpha2 by @fontawesome - https://fontawesome.com License - https://fontawesome.com/license (Commercial License) --><path d="M192 288H448C483.346 288 512 259.346 512 224V64C512 28.652 483.346 0 448 0H192C156.654 0 128 28.652 128 64V224C128 259.346 156.654 288 192 288ZM176 64C176 55.178 183.178 48 192 48H256C256 70.223 256 128 256 128L320 96L384 128V48H448C456.822 48 464 55.178 464 64V224C464 232.822 456.822 240 448 240H192C183.178 240 176 232.822 176 224V64ZM616 464H568V368H616C629.25 368 640 357.25 640 344S629.25 320 616 320H24C10.75 320 0 330.75 0 344S10.75 368 24 368H72V464H24C10.75 464 0 474.75 0 488S10.75 512 24 512H616C629.25 512 640 501.25 640 488S629.25 464 616 464ZM296 464H120V368H296V464ZM520 464H344V368H520V464Z"/></svg>