<svg xmlns="http://www.w3.org/2000/svg" viewBox="0 0 640 512"><!-- Font Awesome Pro 6.0.0-alpha2 by @fontawesome - https://fontawesome.com License - https://fontawesome.com/license (Commercial License) --><path d="M592.086 64C587.527 64 582.865 64.658 578.207 66.057L578.199 66.059C493.986 91.322 406.994 103.953 320 103.953S146.014 91.322 61.801 66.059L61.793 66.057C57.137 64.658 52.471 64 47.914 64C22.326 63.996 0 84.74 0 112.031V431.969C0 459.258 22.33 480 47.914 480C52.473 480 57.135 479.34 61.793 477.943L61.801 477.941C146.014 452.678 233.006 440.045 320 440.045S493.986 452.678 578.199 477.941L578.207 477.943C582.863 479.34 587.529 480 592.086 480C617.674 480 640 459.26 640 431.969V112.031C640 84.742 617.67 64 592.086 64ZM591.992 431.965C570.395 425.486 548.594 419.84 526.648 414.928L383.197 200.906C379.486 195.34 373.24 192 366.557 192C359.867 192 353.621 195.34 349.916 200.906L271.484 318.543L243.545 280.217C239.775 275.051 233.77 272 227.381 272C220.996 272 214.99 275.051 211.219 280.217L113.805 414.811C91.703 419.746 69.75 425.443 48 431.969L48.008 112.033C136.305 138.521 227.816 151.953 320 151.953C412.133 151.953 503.604 138.535 592 112.031L591.992 431.965ZM144 176C126.328 176 112 190.328 112 208S126.328 240 144 240C161.676 240 176 225.672 176 208S161.676 176 144 176Z"/></svg>