<svg xmlns="http://www.w3.org/2000/svg" viewBox="0 0 512 512"><!-- Font Awesome Pro 6.0.0-alpha2 by @fontawesome - https://fontawesome.com License - https://fontawesome.com/license (Commercial License) --><path d="M492.594 226.594L44.596 34.594C40.537 32.848 36.26 32 32.019 32C23.396 32 14.922 35.5 8.721 42.047C-0.498 51.812 -2.623 66.297 3.377 78.312L96 256L3.377 433.688C-2.623 445.703 -0.498 460.188 8.721 469.953C14.908 476.5 23.377 480 32.002 480C36.252 480 40.533 479.156 44.596 477.406L492.594 285.406C504.375 280.375 512 268.797 512 256S504.375 231.625 492.594 226.594ZM66.92 96.383L383.355 232H137.619L66.92 96.383ZM137.619 280H383.355L66.93 415.613L137.619 280Z"/></svg>