<svg xmlns="http://www.w3.org/2000/svg" viewBox="0 0 512 512"><!-- Font Awesome Pro 6.0.0-alpha2 by @fontawesome - https://fontawesome.com License - https://fontawesome.com/license (Commercial License) --><path d="M256 256C175.265 256 64.036 364.25 64.036 442.75C64.036 484.75 98.029 512 150.77 512C197.511 512 227.13 491.625 256 491.625C284.995 491.625 314.989 512 361.23 512C413.97 512 447.964 484.75 447.964 442.75C447.964 364.25 336.735 256 256 256ZM361.23 464C323.487 464 295.493 443.625 256 443.625C216.757 443.625 189.013 464 150.77 464C136.272 464 112.027 461.25 112.027 442.75C112.027 394.875 198.136 304 256 304S399.973 395 399.973 442.75C399.973 461.25 375.728 464 361.23 464ZM493.456 190.375L447.964 128V195C428.093 201.5 410.471 219.375 403.222 243.375C392.849 278.001 407.972 311.75 437.091 318.75C467.336 326.001 498.705 301.875 508.703 268.625C517.576 239.125 507.203 209.125 493.456 190.375ZM318.488 222.625C358.856 233.25 388.35 186.75 395.974 158.75C404.472 127.75 398.973 97.75 383.976 80L319.988 0V75C303.991 86.25 290.494 105.375 283.995 129.25C272.122 172.625 287.619 214.5 318.488 222.625ZM108.778 243.375C101.529 219.375 83.907 201.5 64.036 194.875V128L18.544 190.375C4.797 209.125 -5.576 239.125 3.297 268.625C13.295 301.875 44.664 326.001 74.909 318.75C104.028 311.75 119.151 278.001 108.778 243.375ZM193.512 222.625C224.381 214.5 239.878 172.625 228.005 129.25C221.506 105.375 208.009 86.25 192.012 75V0L128.024 80C113.027 97.75 107.528 127.75 116.026 158.75C123.65 186.75 153.144 233.25 193.512 222.625Z"/></svg>