<svg xmlns="http://www.w3.org/2000/svg" viewBox="0 0 512 512"><!-- Font Awesome Pro 6.0.0-alpha2 by @fontawesome - https://fontawesome.com License - https://fontawesome.com/license (Commercial License) --><path d="M256 16C123.451 16 16 123.453 16 256S123.451 496 256 496S496 388.547 496 256S388.549 16 256 16ZM448 256C448 292.695 437.469 326.895 419.539 356.082L280 244.449V65.664C374.559 77.535 448 158.277 448 256ZM232 446.336C189.652 441.02 151.576 421.937 122.412 393.621L232 305.949V446.336ZM280 305.949L389.588 393.621C360.424 421.938 322.348 441.02 280 446.336V305.949ZM232 65.664V244.449L92.461 356.082C74.531 326.895 64 292.695 64 256C64 158.277 137.441 77.535 232 65.664Z"/></svg>