<svg xmlns="http://www.w3.org/2000/svg" viewBox="0 0 512 512"><!-- Font Awesome Pro 6.0.0-alpha2 by @fontawesome - https://fontawesome.com License - https://fontawesome.com/license (Commercial License) --><path d="M256 448C150.125 448 64 361.875 64 256S150.125 64 256 64C267.734 64 279.172 65.221 290.33 67.246L329.795 27.725C306.523 20.182 281.754 16 256 16C123.656 16 16 123.656 16 256S123.656 496 256 496C269.25 496 280 485.25 280 472S269.25 448 256 448ZM444.67 221.133C446.76 232.459 448 244.08 448 256C448 310.828 403.406 355.422 348.562 355.422C328.723 355.422 310.314 349.434 294.781 339.377L238.187 350.719C237.687 350.818 237.184 350.781 236.684 350.869C263.742 382.736 303.582 403.422 348.562 403.422C429.875 403.422 496 337.281 496 256C496 230.043 491.732 205.094 484.076 181.662L444.67 221.133ZM207.496 205.693L192.65 280.02C192.214 282.211 192 284.414 192 286.6C192 302.516 204.608 320 225.311 320C227.498 320 229.717 319.781 231.904 319.342L306.039 304.486C314.32 302.842 321.854 298.805 327.916 292.777L494.029 126.391C506.007 114.392 511.999 98.627 511.999 82.863C511.999 67.119 506.022 51.376 494.061 39.385L472.121 17.422C460.525 5.807 444.617 -0.001 428.709 -0.001S396.893 5.807 385.297 17.422L219.09 183.887C213.152 189.883 209.121 197.428 207.496 205.693ZM253.094 217.842L419.238 51.424C421.771 48.887 425.146 47.494 428.709 47.494S435.646 48.887 438.18 51.424L460.119 73.385C462.725 75.995 464.029 79.425 464.029 82.859C464.029 86.302 462.717 89.749 460.088 92.375L296.662 257.32L243.75 267.934L253.094 217.842Z "></path></svg>