<svg xmlns="http://www.w3.org/2000/svg" viewBox="0 0 512 512"><!-- Font Awesome Pro 6.0.0-alpha2 by @fontawesome - https://fontawesome.com License - https://fontawesome.com/license (Commercial License) --><path d="M495.561 49.229L462.74 16.404C451.809 5.471 437.477 0 423.146 0C408.812 0 394.484 5.469 383.547 16.406L167.471 232.523C159.975 240.02 154.762 249.49 152.436 259.832L128.279 367.246C126.512 376.096 133.389 384 141.953 384C142.869 384 143.805 383.908 144.75 383.719C144.75 383.719 218.783 368.014 252.158 360.154C262.254 357.777 271.289 352.695 278.623 345.363C321.605 302.379 419.818 204.164 495.639 128.342C517.508 106.473 517.428 71.098 495.561 49.229ZM461.697 94.4L244.68 311.422C243.629 312.475 242.508 313.113 241.154 313.432C227.453 316.658 206.504 321.289 186.852 325.568L199.266 270.365C199.598 268.887 200.34 267.537 201.416 266.463L417.49 50.346C419.43 48.406 421.637 48 423.146 48S426.861 48.406 428.797 50.342L461.617 83.168C464.789 86.34 464.824 91.273 461.697 94.4ZM424 288C410.75 288 400 298.75 400 312V440C400 453.234 389.219 464 376 464H72C58.781 464 48 453.234 48 440V136C48 122.766 58.781 112 72 112H216C229.25 112 240 101.25 240 88S229.25 64 216 64H72C32.312 64 0 96.297 0 136V440C0 479.703 32.312 512 72 512H376C415.688 512 448 479.703 448 440V312C448 298.75 437.25 288 424 288Z"/></svg>