<svg xmlns="http://www.w3.org/2000/svg" viewBox="0 0 512 512"><!-- Font Awesome Pro 6.0.0-alpha2 by @fontawesome - https://fontawesome.com License - https://fontawesome.com/license (Commercial License) --><path d="M424.845 0C401.345 0 377.97 9.625 361.095 28.75L169.845 240L84.082 268.629C73.937 272.016 65.978 279.979 62.595 290.125L1.998 460.803C-2.662 474.779 0.976 490.189 11.394 500.607C18.806 508.02 28.748 512 38.902 512C43.019 512 47.171 511.346 51.203 510L221.726 449.373C231.875 445.988 239.838 438.023 243.22 427.875L271.845 342L483.095 150.75C544.47 96.375 500.095 0 424.845 0ZM199.845 406.209L88.998 445.627L134.855 399.77C135.255 399.789 135.593 400 136 400C149.255 400 160 389.254 160 376C160 362.744 149.255 352 136 352C122.746 352 112 362.744 112 376C112 376.406 112.211 376.744 112.23 377.145L66.339 423.035L105.755 311.998L185.045 285.529L186.955 284.893L226.953 324.891L226.308 326.82L199.845 406.209ZM450.88 115.166L258.904 288.967L222.879 252.941L397.088 60.508C404.205 52.441 414.062 48 424.845 48C444.347 48 456.711 62.35 461.371 74.639C464.681 83.369 467.771 100.199 450.88 115.166Z"/></svg>