<svg xmlns="http://www.w3.org/2000/svg" viewBox="0 0 512 512"><!-- Font Awesome Pro 6.0.0-alpha2 by @fontawesome - https://fontawesome.com License - https://fontawesome.com/license (Commercial License) --><path d="M343.371 152.031C337.904 146.564 330.738 143.83 323.572 143.83S309.242 146.564 303.773 152.033L179.736 276.262C175.988 280.01 173.381 284.746 172.219 289.916L160.141 343.623C159.256 348.047 162.695 352 166.977 352C167.436 352 167.902 351.955 168.375 351.859C168.375 351.859 205.391 344.006 222.078 340.076C227.127 338.889 231.645 336.348 235.311 332.682C256.803 311.189 321.91 245.91 359.82 208C370.754 197.066 370.713 179.379 359.781 168.443L343.371 152.031ZM256 16C123.451 16 16 123.451 16 256S123.451 496 256 496S496 388.549 496 256S388.549 16 256 16ZM256 448C150.131 448 64 361.869 64 256S150.131 64 256 64S448 150.131 448 256S361.869 448 256 448Z"/></svg>