<svg xmlns="http://www.w3.org/2000/svg" viewBox="0 0 384 512"><!-- Font Awesome Pro 6.0.0-alpha2 by @fontawesome - https://fontawesome.com License - https://fontawesome.com/license (Commercial License) --><path d="M376.969 71.031C367.594 61.656 352.406 61.656 343.031 71.031L7.031 407.031C-2.344 416.406 -2.344 431.594 7.031 440.969C11.719 445.656 17.844 448 24 448S36.281 445.656 40.969 440.969L376.969 104.969C386.344 95.594 386.344 80.406 376.969 71.031ZM64 192C99.348 192 128 163.346 128 128S99.348 64 64 64C28.654 64 0 92.654 0 128S28.654 192 64 192ZM64 112C72.822 112 80 119.178 80 128S72.822 144 64 144S48 136.822 48 128S55.178 112 64 112ZM320 320C284.654 320 256 348.654 256 384S284.654 448 320 448C355.348 448 384 419.346 384 384S355.348 320 320 320ZM320 400C311.178 400 304 392.822 304 384S311.178 368 320 368S336 375.178 336 384S328.822 400 320 400Z"/></svg>