<svg xmlns="http://www.w3.org/2000/svg" viewBox="0 0 512 512"><!-- Font Awesome Pro 6.0.0-alpha2 by @fontawesome - https://fontawesome.com License - https://fontawesome.com/license (Commercial License) --><path d="M432.046 96.023C458.552 96.023 480.056 74.518 480.056 48.012S458.552 0 432.046 0C405.541 0 384.036 21.505 384.036 48.012S405.541 96.023 432.046 96.023ZM119.982 91.647L108.48 114.153C122.858 121.405 139.611 119.029 151.239 109.277L284.016 175.543L345.153 151.162L359.281 193.422C362.657 203.55 369.783 211.802 379.285 216.553L437.422 245.56C449.3 251.561 463.803 246.685 469.679 234.807C475.555 222.929 470.804 208.551 458.802 202.674L403.665 175.043L385.537 120.654C380.661 106.026 369.908 94.023 355.906 87.521C341.903 81.02 325.774 80.645 311.647 86.271L237.131 116.153L164.867 80.27C165.242 65.766 157.74 51.763 143.987 44.761L132.86 66.391H132.61L98.228 59.39C96.353 59.014 94.477 59.64 93.227 61.14C91.226 63.265 91.477 66.641 93.727 68.517L119.982 91.647ZM505.061 452.11C495.684 442.733 480.431 442.858 471.179 452.11C459.052 464.238 440.423 467.364 426.045 460.863L283.016 386.844L332.776 312.326C343.278 296.447 341.278 275.192 327.775 261.814L270.513 204.55L193.622 166.416C191.997 183.045 197.373 199.424 209.251 211.302L289.142 291.196L240.007 364.839L34.965 258.813C23.088 252.687 8.71 257.313 2.708 269.066C-3.418 280.819 1.208 295.322 12.961 301.324L404.916 503.873C416.793 509.374 429.421 512 442.048 512C465.303 512 488.183 502.998 505.061 485.994C514.313 476.741 514.313 461.488 505.061 452.11Z"/></svg>