<svg xmlns="http://www.w3.org/2000/svg" viewBox="0 0 640 512"><!-- Font Awesome Pro 6.0.0-alpha2 by @fontawesome - https://fontawesome.com License - https://fontawesome.com/license (Commercial License) --><path d="M80 95.998C106.5 95.998 128 74.499 128 47.999S106.5 0 80 0S32 21.5 32 47.999S53.5 95.998 80 95.998ZM0 487.991C0 501.241 10.75 511.99 24 511.99S48 501.241 48 487.991V392.118C36 382.618 0.5 354.243 0 353.868V487.991ZM608 0.01H512C494.326 0.01 480 14.336 480 32.009V53.622C480 60.501 481.109 67.335 483.285 73.86L524.285 196.67L281.654 239.995H158.375L126.242 162.477C117.59 141.605 97.219 127.998 74.625 127.998H48C21.49 127.998 0 149.489 0 175.997V288.442C0 305.754 7.812 321.785 21.375 332.472L108.969 401.283C110.906 402.815 112 405.096 112 407.565V488.001C112 501.25 122.75 512 136 512S160 501.25 160 488.001V407.565C160 390.252 152.188 374.221 138.625 363.534L96 330.048V214.746L118.289 268.343C123.238 280.241 134.861 287.995 147.75 287.995H192V496C192 504.836 199.164 512 208 512H224C232.836 512 240 504.836 240 496V400.002H592V496C592 504.836 599.164 512 608 512H624C632.836 512 640 504.836 640 496V32.009C640 14.336 625.674 0.01 608 0.01ZM592 352.003H240V296.192L273.158 290.27C272.682 292.157 272 293.971 272 296.004C272 309.258 282.746 320.004 296 320.004S320 309.258 320 296.004C320 290.977 318.096 286.573 315.455 282.717L592 233.335V352.003ZM592 184.578L572.039 188.143L528.82 58.682C528.277 57.048 528 55.347 528 53.622V48.009H592V184.578Z"/></svg>