<svg xmlns="http://www.w3.org/2000/svg" viewBox="0 0 384 512"><!-- Font Awesome Pro 6.0.0-alpha2 by @fontawesome - https://fontawesome.com License - https://fontawesome.com/license (Commercial License) --><path d="M255.977 128C291.348 128 319.971 99.375 319.971 64S291.348 0 255.977 0S191.982 28.625 191.982 64S220.605 128 255.977 128ZM233.729 287.5C238.354 293.625 245.354 297.5 252.977 298.375C260.602 299.25 268.352 296.875 274.225 291.75L374.217 209.25C385.965 199.25 387.34 181.5 377.215 169.75C367.217 158 349.469 156.625 337.719 166.75L260.352 230L213.605 168.625C201.107 151.5 181.234 142.5 160.111 144.25C139.113 146.125 120.988 158.75 111.115 179.125L64.119 288.5C43.621 330.5 56.994 381.75 95.117 407.875L165.484 456H27.998C12.498 456 0 468.5 0 484S12.498 512 27.998 512H255.977C261.602 512 287.975 507.125 287.975 480C287.975 471.5 284.6 463 277.975 456.75L158.486 344.375L202.482 246.5L233.729 287.5Z"/></svg>