<svg xmlns="http://www.w3.org/2000/svg" viewBox="0 0 384 512"><!-- Font Awesome Pro 6.0.0-alpha2 by @fontawesome - https://fontawesome.com License - https://fontawesome.com/license (Commercial License) --><path d="M240.001 96C266.501 96 288.001 74.5 288.001 48S266.501 0 240.001 0S192.001 21.5 192.001 48S213.501 96 240.001 96ZM121.878 317.625L80.753 482.125C77.501 495 85.378 508 98.251 511.25C100.126 511.75 102.126 512 104.001 512C114.753 512 124.626 504.75 127.251 493.875L160.753 360L133.251 332.375C128.753 328 125.251 322.75 121.878 317.625ZM360.001 160H360.001C346.746 160 336.001 170.745 336.001 184V200H298.876L248.753 142.875C239.251 133.25 226.501 128 212.878 128C189.501 128 169.251 143.875 163.626 166.5L141.126 256.5C136.353 275.591 141.938 295.786 155.84 309.712L229.708 383.707C231.176 385.178 232.001 387.171 232.001 389.25V488C232.001 501.25 242.753 512 256.001 512C269.251 512 280.001 501.25 280.001 488V389.158C280.001 374.33 274.111 360.11 263.626 349.625L213.251 299.25L237.753 203.125L270 239.875C274.532 245.039 281.07 248 287.94 248H336.001V488C336.001 501.255 346.746 512 360.001 512H360.001C373.256 512 384.001 501.255 384.001 488V184C384.001 170.745 373.256 160 360.001 160ZM95.886 276.125L137.009 117C139.259 108.625 133.884 100 125.134 98C81.261 87.375 36.763 113 25.763 155.125L0.513 253.25C-1.737 261.625 3.638 270.25 12.388 272.25L76.011 287.5C84.761 289.625 93.636 284.5 95.886 276.125Z"/></svg>