<svg xmlns="http://www.w3.org/2000/svg" viewBox="0 0 512 512"><!-- Font Awesome Pro 6.0.0-alpha2 by @fontawesome - https://fontawesome.com License - https://fontawesome.com/license (Commercial License) --><path d="M144.008 96.092C170.506 96.092 192.006 74.59 192.006 48.088S170.506 0.084 144.008 0.084S96.01 21.586 96.01 48.088S117.51 96.092 144.008 96.092ZM501.489 66.715L433.867 42.086L436.563 34.736C441.141 22.248 434.729 8.412 422.242 3.834C409.891 -0.695 396.078 5.705 391.549 18.059L388.744 25.711L321.123 1.084C309.998 -3.041 302.5 5.584 300.625 10.584L256.752 130.844C253.752 139.219 258.127 148.346 266.377 151.346L333.998 175.973L318.248 219.477C318.248 219.477 268.252 202.35 268.752 202.975L218.254 144.346C207.754 133.969 193.381 127.969 178.631 127.969H115.76C94.262 127.969 75.262 139.846 65.637 158.846L2.516 285.23C-3.359 297.232 1.391 311.609 13.266 317.484C27.264 324.484 40.639 316.234 45.389 306.732L96.01 205.725V302.357L72.262 484.873C70.512 498.123 79.762 510.125 92.887 511.75C93.887 511.875 95.01 512 96.01 512C107.885 512 118.26 503.248 119.76 491.123L141.008 327.984H155.008L206.254 406.24C207.254 407.615 207.879 409.367 207.879 411.242V487.998C207.879 501.248 218.629 512 231.879 512C245.127 512 255.877 501.248 255.877 487.998V411.242C255.877 398.49 251.627 386.115 245.002 378.113L191.881 296.857V187.223L233.504 235.602C239.627 241.729 247.127 246.354 255.377 249.229L301.75 264.605L287.75 302.857C284.725 311.123 288.971 320.277 297.233 323.307L312.373 328.859C320.748 331.859 329.873 327.609 332.873 319.234L379.121 192.35L446.742 216.977C457.991 221.102 465.366 212.225 467.241 207.35L510.989 87.215C514.114 78.84 509.739 69.715 501.489 66.715ZM433.117 160.971L312.873 117.219L334.748 57.088L454.991 100.842L433.117 160.971Z"/></svg>