<svg xmlns="http://www.w3.org/2000/svg" viewBox="0 0 320 512"><!-- Font Awesome Pro 6.0.0-alpha2 by @fontawesome - https://fontawesome.com License - https://fontawesome.com/license (Commercial License) --><path d="M94.78 347.6C94.78 347.6 94.78 347.6 94.78 347.475L74.28 398.453C72.28 403.451 69.28 408.074 65.405 411.822L7.031 470.297C-2.344 479.668 -2.344 494.911 7.031 504.157C11.781 508.905 17.781 511.154 23.906 511.154S36.281 508.905 40.781 504.157L99.279 445.682C107.779 437.186 114.279 427.19 118.654 416.195L132.154 382.585L95.904 349.099L94.78 347.6ZM207.777 95.959C234.277 95.959 255.777 74.468 255.777 47.979S234.277 0 207.777 0C181.278 0 159.903 21.491 159.903 47.979S181.278 95.959 207.777 95.959ZM312.525 270.758L283.276 241.895C282.276 241.021 281.651 239.896 281.276 238.647L268.276 199.914C253.902 156.807 213.902 127.945 168.528 127.945C133.779 127.945 115.529 136.691 72.78 153.933C51.905 162.305 34.906 178.048 24.656 198.664L10.281 229.776C-3.094 258.513 40.28 278.88 53.78 250.017L67.78 219.655C72.53 210.034 80.655 202.662 90.53 198.664C112.279 189.918 123.654 185.17 134.779 181.547L115.029 260.637C110.279 279.629 115.279 299.496 129.904 315.239L208.902 388.207C214.777 393.705 218.902 400.702 220.777 408.573L240.277 493.412C242.777 504.907 254.652 514.528 268.901 511.404C281.776 508.405 289.776 495.536 286.776 482.542L267.276 397.953C263.276 380.586 254.277 365.092 241.277 353.097L187.528 303.494L213.777 198.664C221.152 208.41 221.277 211.284 235.527 254.14C238.277 262.387 243.027 270.008 249.277 276.256L278.651 305.243C300.901 326.734 335.275 293.373 312.525 270.758Z"/></svg>