<svg xmlns="http://www.w3.org/2000/svg" viewBox="0 0 448 512"><!-- Font Awesome Pro 6.0.0-alpha2 by @fontawesome - https://fontawesome.com License - https://fontawesome.com/license (Commercial License) --><path d="M143.989 95.998H144.028C170.532 95.986 192.008 74.504 192.008 48C192.008 21.49 170.518 0 144.008 0C117.5 0 96.01 21.49 96.01 48C96.01 74.504 117.487 95.986 143.989 95.998ZM92.19 372.332L64.729 482.172C61.51 495.031 69.323 508.062 82.198 511.281C84.135 511.766 86.104 512 88.041 512C98.791 512 108.573 504.719 111.291 493.828L138.371 385.498L95.549 348.789C95.082 356.721 94.118 364.615 92.19 372.332ZM315.473 281.951L230.631 164.482C214.082 141.57 187.539 127.998 159.276 127.998H135.571C102.233 127.998 71.756 146.834 56.848 176.654L2.543 285.264C-3.394 297.123 1.418 311.529 13.293 317.467C16.731 319.186 20.387 319.998 23.981 319.998C32.793 319.998 41.262 315.139 45.481 306.732L96.01 205.67V292.32C96.01 301.662 100.092 310.537 107.184 316.617L205.444 400.844C207.069 402.234 208.006 403.844 208.006 405.25V488C208.006 501.25 218.756 512 232.006 512S256.006 501.25 256.006 488V405.25C256.006 389.812 248.975 374.92 236.694 364.404L192.008 326.105V193.01L276.537 310.045C284.348 320.748 299.286 323.295 310.067 315.451C320.817 307.686 323.223 292.686 315.473 281.951ZM445.223 486.969L329.838 317.162C327.186 321.412 323.78 325.283 319.481 328.389C314.612 331.932 309.016 333.82 303.217 334.891L418.787 504.969C421.881 509.516 426.911 511.969 432.004 511.969C435.129 511.969 438.254 511.078 441.004 509.203C448.317 504.234 450.192 494.281 445.223 486.969Z"/></svg>