<svg xmlns="http://www.w3.org/2000/svg" viewBox="0 0 512 512"><!-- Font Awesome Pro 6.0.0-alpha2 by @fontawesome - https://fontawesome.com License - https://fontawesome.com/license (Commercial License) --><path d="M480.299 320.25L382.098 278.172C360.693 268.891 335.459 275.062 320.896 293.125L293.461 326.625C248.68 300.875 211.166 263.377 185.416 218.627L218.963 191.143C236.867 176.518 243.055 151.439 233.977 130.096L191.729 31.533C181.572 8.33 156.387 -4.326 131.855 1.346L40.607 22.408C16.703 27.861 0 48.83 0 73.393C0 315.25 196.744 512 438.58 512C463.143 512 484.111 495.312 489.58 471.469L510.641 380.125C516.359 355.469 503.609 330.312 480.299 320.25ZM463.877 369.312L442.799 460.719C442.33 462.719 440.689 464 438.58 464C223.213 464 47.998 288.781 47.998 73.393C47.998 71.299 49.295 69.658 51.342 69.189L142.684 48.111C142.996 48.033 143.324 48.002 143.637 48.002C145.371 48.002 146.996 49.049 147.684 50.611L189.822 148.939C190.572 150.705 190.072 152.768 188.572 154.002L139.793 193.971C131.168 201.033 128.543 213.111 133.449 223.111C166.463 290.344 221.713 345.562 288.992 378.594C298.99 383.5 311.084 380.875 318.146 372.25L358.162 323.375C359.271 321.969 361.348 321.437 363.082 322.25L461.346 364.344C463.221 365.156 464.346 367.344 463.893 369.312H463.877ZM312 224H424C437.25 224 448 213.25 448 200S437.25 176 424 176H369.938L504.969 40.969C514.344 31.594 514.344 16.406 504.969 7.031S480.406 -2.344 471.031 7.031L336 142.062V88C336 74.75 325.25 64 312 64S288 74.75 288 88V200C288 213.25 298.75 224 312 224Z"/></svg>