<svg xmlns="http://www.w3.org/2000/svg" viewBox="0 0 512 512"><!-- Font Awesome Pro 6.0.0-alpha2 by @fontawesome - https://fontawesome.com License - https://fontawesome.com/license (Commercial License) --><path d="M370.375 192.25C359 172.25 337.875 160 314.875 160H197.125C174.125 160 153 172.25 141.625 192.25L36.25 376.625C33.5 381.5 32 386.875 32 392.5V448C32 465.625 46.375 480 64 480H448C465.625 480 480 465.625 480 448V392.5C480 386.875 478.5 381.5 475.75 376.625L370.375 192.25ZM432 432H80V396.75L183.25 216C186.125 211.125 191.375 208 197.125 208H314.875C320.625 208 325.875 211.125 328.75 216L432 396.75V432ZM256 256C220.625 256 192 284.625 192 320S220.625 384 256 384S320 355.375 320 320S291.375 256 256 256ZM506.125 123C436.75 65 347.375 32 256 32S75.25 65 5.875 123C2.125 126.125 0 130.75 0 135.625V192C0 200.875 7.125 208 16 208H86.125C92.125 208 97.75 204.625 100.375 199.125L128 128C167.875 110.75 211.25 104 256 104S344.125 110.75 384 128L411.625 199.125C414.25 204.625 419.875 208 425.875 208H496C504.875 208 512 200.875 512 192V135.625C512 130.75 509.875 126.125 506.125 123Z"/></svg>