<svg xmlns="http://www.w3.org/2000/svg" viewBox="0 0 448 512"><!-- Font Awesome Pro 6.0.0-alpha2 by @fontawesome - https://fontawesome.com License - https://fontawesome.com/license (Commercial License) --><path d="M437.312 356.032C448.344 363.375 451.312 378.282 443.969 389.313L424.344 418.75C412.156 437.063 391.719 448 369.688 448C333.469 448 304 418.531 304 382.313V112.002V112H160V284.845C160 311.251 154.156 337.907 143.094 361.938L109.781 434.063C105.75 442.844 97.062 448 88 448C84.625 448 81.188 447.281 77.938 445.781C65.906 440.25 60.656 425.969 66.219 413.938L99.5 341.844C107.656 324.094 112 304.376 112 284.845V112H24C10.746 112 0 101.256 0 88C0 74.746 10.746 64 24 64H424C437.254 64 448 74.746 448 88C448 101.256 437.254 112 424 112H352V112.002V382.313C352 392.063 359.938 400 369.688 400C375.625 400 381.125 397.063 384.406 392.125L404.031 362.688C411.375 351.688 426.281 348.719 437.312 356.032Z"/></svg>