<svg xmlns="http://www.w3.org/2000/svg" viewBox="0 0 576 512"><!-- Font Awesome Pro 6.0.0-alpha2 by @fontawesome - https://fontawesome.com License - https://fontawesome.com/license (Commercial License) --><path d="M544 192H530.498C519.373 166.75 501.746 145.125 479.996 128.625V64H463.994C417.367 64 380.865 91.25 374.615 96H223.984C182.607 96 141.355 113.375 112.228 141.875C89.853 163.75 73.726 192.125 67.101 224H55.976C41.101 224 29.474 210.5 32.474 195.25C34.089 186.506 40.995 178.838 51.618 176.635C58.878 175.127 63.976 168.547 63.976 161.131C63.976 152.185 56.642 145.107 48.128 145.107C46.984 145.107 45.82 145.236 44.65 145.504C21.933 150.701 3.521 168.881 0.474 192.625C-3.901 226.75 22.599 256 55.976 256H63.976C63.976 308.25 89.353 354.125 127.98 383.25V432C127.98 458.4 149.58 480 175.98 480H223.986C250.386 480 271.986 458.4 271.986 432V416H335.988V432C335.988 458.4 357.588 480 383.988 480H431.996C458.396 480 479.996 458.4 479.996 432V383.125C491.621 374.125 502.371 363.75 511.246 352H543.998C561.6 352 576 337.6 576 319.998V224C576 206.4 561.6 192 544 192ZM528 304H487.348L472.943 323.07C467.137 330.758 459.623 338.193 450.611 345.17L431.996 359.582V432H383.988V368H223.986V432H175.98V359.326L156.878 344.924C128.341 323.406 111.976 290.996 111.976 256V243.971L114.097 233.768C118.634 211.934 129.591 192.027 145.798 176.184C166.394 156.031 195.623 144 223.984 144H390.785L403.66 134.215C411.054 128.594 420.953 122.771 431.996 118.5V152.459L450.986 166.865C466.693 178.783 479 194.166 486.572 211.353L499.195 240H528V304ZM424 208C410.746 208 400 218.744 400 232C400 245.254 410.746 256 424 256C437.254 256 448 245.254 448 232C448 218.744 437.254 208 424 208Z"/></svg>