<svg xmlns="http://www.w3.org/2000/svg" viewBox="0 0 640 512"><!-- Font Awesome Pro 6.0.0-alpha2 by @fontawesome - https://fontawesome.com License - https://fontawesome.com/license (Commercial License) --><path d="M630.81 469.102L460.989 336H495.999C534.454 336 607.999 304.846 607.999 256S534.454 176 495.999 176H406.577L306.185 15.574C301.04 6.613 289.62 0 278.716 0H213.214C203.07 0 193.751 4.646 187.65 12.752C181.554 20.846 179.663 31.074 182.462 40.811L214.628 142.908L38.814 5.109C34.407 1.672 29.189 0 24.032 0C16.907 0 9.845 3.156 5.126 9.188C-3.061 19.625 -1.249 34.717 9.189 42.889L601.185 506.883C611.685 515.086 626.747 513.211 634.872 502.805C643.06 492.367 641.247 477.273 630.81 469.102ZM281.456 195.287L235.038 48H269.853L379.991 224H495.999C522.236 224 558.605 245.754 560.003 255.908C558.605 266.246 522.236 288 495.999 288H399.747L281.456 195.287ZM269.853 464H235.044L281.314 317.176L244.089 288H160.003L112.011 352H85.357L113.325 256L86.687 164.631L37.831 126.338C32.779 133.852 30.747 142.889 32.974 151.766L63.329 255.998L33.132 359.65C30.56 369.861 32.677 379.869 38.78 387.693C44.882 395.514 54.073 400 63.995 400H120.003C130.011 400 139.583 395.219 145.605 387.209L184.003 336H225.054L182.579 470.785C179.661 480.914 181.554 491.146 187.654 499.246C193.757 507.352 203.073 512 213.214 512H278.716C290.167 512 300.81 505.818 306.488 495.867L373.249 389.232L335.271 359.467L269.853 464Z"/></svg>