<svg xmlns="http://www.w3.org/2000/svg" viewBox="0 0 384 512"><!-- Font Awesome Pro 6.0.0-alpha2 by @fontawesome - https://fontawesome.com License - https://fontawesome.com/license (Commercial License) --><path d="M40 200H168V328C168 341.25 178.75 352 192 352S216 341.25 216 328V200H344C357.25 200 368 189.25 368 176S357.25 152 344 152H216V24C216 10.75 205.25 0 192 0S168 10.75 168 24V152H40C26.75 152 16 162.75 16 176S26.75 200 40 200ZM352 464H32C18.75 464 8 474.75 8 488S18.75 512 32 512H352C365.25 512 376 501.25 376 488S365.25 464 352 464Z"/></svg>