<svg xmlns="http://www.w3.org/2000/svg" viewBox="0 0 448 512"><!-- Font Awesome Pro 6.0.0-alpha2 by @fontawesome - https://fontawesome.com License - https://fontawesome.com/license (Commercial License) --><path d="M321.938 352L440.969 232.969C450.344 223.594 450.344 208.406 440.969 199.031S416.406 189.656 407.031 199.031L288 318.062L192.291 222.354C246.285 214.383 288 168.172 288 112C288 50.25 237.75 0 176 0H24C10.75 0 0 10.75 0 24V296C0 309.25 10.75 320 24 320S48 309.25 48 296V224H126.062L254.062 352L135.031 471.031C125.656 480.406 125.656 495.594 135.031 504.969C139.719 509.656 145.859 512 152 512S164.281 509.656 168.969 504.969L288 385.938L407.031 504.969C411.719 509.656 417.859 512 424 512S436.281 509.656 440.969 504.969C450.344 495.594 450.344 480.406 440.969 471.031L321.938 352ZM48 48H176C211.297 48 240 76.719 240 112S211.297 176 176 176H48V48Z"/></svg>