<svg xmlns="http://www.w3.org/2000/svg" viewBox="0 0 576 512"><!-- Font Awesome Pro 6.0.0-alpha2 by @fontawesome - https://fontawesome.com License - https://fontawesome.com/license (Commercial License) --><path d="M496 304H80V80H32V320C32 337.602 46.4 352 64 352H264V399.016L192 471.016C182.646 480.367 182.646 495.535 192 504.891L192.006 504.895C201.354 514.242 216.508 514.25 225.865 504.91L288 442.891L350.094 504.984C359.484 514.375 374.723 514.332 384.062 504.891C393.363 495.484 393.32 480.336 383.969 470.984L312 399.016V352H512C529.6 352 544 337.602 544 320V80H496V304ZM552.045 0H23.955C10.725 0 0 10.727 0 23.953V24.047C0 37.273 10.725 48 23.955 48H552.045C565.275 48 576 37.273 576 24.047V23.953C576 10.727 565.275 0 552.045 0Z"/></svg>