<svg xmlns="http://www.w3.org/2000/svg" viewBox="0 0 512 512"><!-- Font Awesome Pro 6.0.0-alpha2 by @fontawesome - https://fontawesome.com License - https://fontawesome.com/license (Commercial License) --><path d="M111.998 48H366.061L400 81.943V160H448V81.943C448 69.213 442.943 57.006 433.943 48.004L400.004 14.061C391.002 5.057 378.793 0 366.061 0H111.998C85.494 0 64.012 21.479 64 47.982V75.422L64.004 130.264C64.002 130.264 64.002 130.264 64 130.264V160H112.006L111.998 48ZM440 192H72C32.297 192 0 224.297 0 264V376C0 389.25 10.75 400 24 400H80V480C80 497.672 94.326 512 112 512H400C417.674 512 432 497.672 432 480V400H488C501.25 400 512 389.25 512 376V264C512 224.297 479.703 192 440 192ZM384 464H128V368H384V464ZM464 352H432C432 334.326 417.674 320 400 320H112C94.326 320 80 334.326 80 352H48V264C48 250.766 58.766 240 72 240H440C453.234 240 464 250.766 464 264V352Z"/></svg>