<svg xmlns="http://www.w3.org/2000/svg" viewBox="0 0 640 512"><!-- Font Awesome Pro 6.0.0-alpha2 by @fontawesome - https://fontawesome.com License - https://fontawesome.com/license (Commercial License) --><path d="M632.969 471.031L553.854 391.914C567.811 371.414 576 346.672 576 320C576 249.309 518.693 192 448 192S320 249.309 320 320S377.307 448 448 448C474.672 448 499.412 439.809 519.914 425.852L599.031 504.969C603.719 509.656 609.844 512 616 512S628.281 509.656 632.969 504.969C642.344 495.594 642.344 480.406 632.969 471.031ZM448 400C403.889 400 368 364.113 368 320S403.889 240 448 240S528 275.887 528 320S492.111 400 448 400ZM111.998 48H366.061L400 81.943V160H448V81.943C448 69.213 442.943 57.006 433.943 48.004L400.004 14.061C391.002 5.057 378.793 0 366.061 0H111.998C85.494 0 64.012 21.479 64 47.982V75.422L64.004 130.264C64.002 130.264 64.002 130.264 64 130.264V160H112.006L111.998 48ZM128 464V368H296.141C291.318 352.756 288 336.84 288 320H112C94.326 320 80 334.326 80 352H48V264C48 250.766 58.766 240 72 240H310.193C321.123 221.223 335.531 204.92 352.879 192H72C32.297 192 0 224.297 0 264V376C0 389.25 10.75 400 24 400H80V480C80 497.672 94.326 512 112 512H400C417.674 512 432 497.672 432 480V478.387C413.32 476.506 395.633 471.746 379.41 464H128Z"/></svg>