<svg xmlns="http://www.w3.org/2000/svg" viewBox="0 0 512 512"><!-- Font Awesome Pro 6.0.0-alpha2 by @fontawesome - https://fontawesome.com License - https://fontawesome.com/license (Commercial License) --><path d="M448 256H352C346.441 256 341.143 256.932 336 258.264V184C336 126.656 382.656 80 440 80H456C469.25 80 480 69.25 480 56S469.25 32 456 32H440C356.188 32 288 100.188 288 184V416C288 451.346 316.654 480 352 480H448C483.346 480 512 451.346 512 416V320C512 284.654 483.346 256 448 256ZM464 416C464 424.822 456.822 432 448 432H352C343.178 432 336 424.822 336 416V320C336 311.178 343.178 304 352 304H448C456.822 304 464 311.178 464 320V416ZM160 256H64C58.441 256 53.143 256.932 48 258.264V184C48 126.656 94.656 80 152 80H168C181.25 80 192 69.25 192 56S181.25 32 168 32H152C68.188 32 0 100.188 0 184V416C0 451.346 28.654 480 64 480H160C195.346 480 224 451.346 224 416V320C224 284.654 195.346 256 160 256ZM176 416C176 424.822 168.822 432 160 432H64C55.178 432 48 424.822 48 416V320C48 311.178 55.178 304 64 304H160C168.822 304 176 311.178 176 320V416Z"/></svg>