<svg xmlns="http://www.w3.org/2000/svg" viewBox="0 0 320 512"><!-- Font Awesome Pro 6.0.0-alpha2 by @fontawesome - https://fontawesome.com License - https://fontawesome.com/license (Commercial License) --><path d="M229.969 309.297C282.668 287.883 320 236.301 320 176C320 96.594 255.406 32 176 32H32C14.328 32 0 46.312 0 64V448C0 465.688 14.328 480 32 480S64 465.688 64 448V320H159.34L261.781 466.344C268.016 475.25 277.938 480 288.031 480C294.359 480 300.766 478.125 306.344 474.219C320.828 464.094 324.344 444.125 314.219 429.656L229.969 309.297ZM64 96H176C220.109 96 256 131.875 256 176S220.109 256 176 256H64V96Z"/></svg>