<svg xmlns="http://www.w3.org/2000/svg" viewBox="0 0 512 512"><!-- Font Awesome Pro 6.0.0-alpha2 by @fontawesome - https://fontawesome.com License - https://fontawesome.com/license (Commercial License) --><path d="M500.378 421.875L404.378 301.25C447.753 290.75 480.003 251.875 480.003 205.625C480.003 157.625 447.253 131.25 437.128 124.625C458.378 17.125 401.003 0 378.877 0C362.002 0 347.752 6.875 336.002 17.375C324.252 6.875 310.127 0 293.252 0H293.127C267.252 0 207.001 22.875 239.501 144C240.377 147.75 241.502 151.5 242.752 155.25C240.502 164.375 240.002 172.75 240.002 178.625V213.625C176.876 228.5 125.376 272.75 99.126 330.625C92.876 329.125 86.626 328 80.001 328C35.75 328 0 363.75 0 408S35.75 488 80.001 488C87.126 488 93.876 486.75 100.501 485C115.126 501.375 136.251 512 160.001 512H320.002C341.002 512 358.877 498.5 365.377 479.625L373.127 489.125C383.752 503.5 400.252 512 418.253 512H456.003C476.378 512 495.128 501 505.003 483.125C516.253 462.875 513.378 438.25 500.378 421.875ZM80.751 439.875C80.501 439.875 80.25 440 80.001 440C71.75 440 63.625 436.875 57.375 430.625C44.875 418.125 44.875 397.875 57.375 385.375C69.75 373 83.251 376.625 84.001 376.75C83.376 379.875 77.625 407.75 80.751 439.875ZM456.003 464H418.253C415.503 464 413.003 462.625 411.503 460.25L341.002 373.5L224.001 432H288.002C305.627 432 320.002 446.375 320.002 464H160.001C142.376 464 128.001 449.625 128.001 432V416C128.001 327.625 199.626 256 288.002 256V178.625C288.002 168.875 290.377 161.625 293.502 155C290.752 147.75 288.002 140 285.752 131.625C274.502 89.375 276.752 52.125 290.752 48.25C304.627 44.625 324.627 74.625 336.002 115.375C347.502 74.5 367.502 44.625 381.252 48.25C395.252 52.125 397.502 89.375 386.252 131.625C384.752 137 383.252 142.125 381.502 147L410.628 164.625C424.128 174.125 432.003 189.375 432.003 205.625C432.003 233.5 409.253 256 381.002 256H352.002V312.5L462.753 451.75C466.128 457.125 462.253 464 456.003 464ZM368.002 192C368.002 183.125 360.877 176 352.002 176C343.127 176 336.002 183.125 336.002 192S343.127 208 352.002 208C360.877 208 368.002 200.875 368.002 192Z"/></svg>