<svg xmlns="http://www.w3.org/2000/svg" viewBox="0 0 448 512"><!-- Font Awesome Pro 6.0.0-alpha2 by @fontawesome - https://fontawesome.com License - https://fontawesome.com/license (Commercial License) --><path d="M352 48C360.822 48 368 55.178 368 64V448C368 456.822 360.822 464 352 464H96C87.178 464 80 456.822 80 448V64C80 55.178 87.178 48 96 48H352M352 0H96C60.654 0 32 28.653 32 64V448C32 483.347 60.654 512 96 512H352C387.346 512 416 483.347 416 448V64C416 28.653 387.346 0 352 0L352 0Z"/></svg>