<svg xmlns="http://www.w3.org/2000/svg" viewBox="0 0 512 512"><!-- Font Awesome Pro 6.0.0-alpha2 by @fontawesome - https://fontawesome.com License - https://fontawesome.com/license (Commercial License) --><path d="M448 112C456.822 112 464 119.178 464 128V384C464 392.822 456.822 400 448 400H64C55.178 400 48 392.822 48 384V128C48 119.178 55.178 112 64 112H448M448 64H64C28.654 64 0 92.653 0 128V384C0 419.347 28.654 448 64 448H448C483.346 448 512 419.347 512 384V128C512 92.653 483.346 64 448 64L448 64Z"/></svg>