<svg xmlns="http://www.w3.org/2000/svg" viewBox="0 0 576 512"><!-- Font Awesome Pro 6.0.0-alpha2 by @fontawesome - https://fontawesome.com License - https://fontawesome.com/license (Commercial License) --><path d="M440 160C426.75 160 416 170.75 416 184V212.408C408.459 209.727 400.461 208 392 208C352.236 208 320 240.236 320 280S352.236 352 392 352C403.111 352 413.508 349.273 422.904 344.779C427.26 349.219 433.293 352 440 352C453.25 352 464 341.25 464 328V184C464 170.75 453.25 160 440 160ZM392 304C378.768 304 368 293.234 368 280S378.768 256 392 256C405.234 256 416 266.766 416 280S405.234 304 392 304ZM512 32H64C28.654 32 0 60.652 0 96V416C0 451.346 28.654 480 64 480H512C547.348 480 576 451.346 576 416V96C576 60.652 547.348 32 512 32ZM528 416C528 424.822 520.822 432 512 432H64C55.178 432 48 424.822 48 416V96C48 87.178 55.178 80 64 80H512C520.822 80 528 87.178 528 96V416ZM229.469 173.266C221.344 157.016 194.656 157.016 186.531 173.266L114.531 317.266C108.594 329.125 113.406 343.531 125.281 349.469C137.156 355.438 151.562 350.594 157.469 338.734L166.836 320H249.164L258.531 338.734C262.75 347.141 271.219 352 280.031 352C283.625 352 287.281 351.188 290.719 349.469C302.594 343.531 307.406 329.125 301.469 317.266L229.469 173.266ZM186.836 280L208 237.672L229.164 280H186.836Z"/></svg>