<svg xmlns="http://www.w3.org/2000/svg" viewBox="0 0 512 512"><!-- Font Awesome Pro 6.0.0-alpha2 by @fontawesome - https://fontawesome.com License - https://fontawesome.com/license (Commercial License) --><path d="M448 32H64C28.654 32 0 60.654 0 96V416C0 451.346 28.654 480 64 480H448C483.346 480 512 451.346 512 416V96C512 60.654 483.346 32 448 32ZM464 416C464 424.822 456.822 432 448 432H64C55.178 432 48 424.822 48 416V96C48 87.178 55.178 80 64 80H448C456.822 80 464 87.178 464 96V416ZM336.969 175.031C327.594 165.656 312.406 165.656 303.031 175.031L256 222.062L208.969 175.031C199.594 165.656 184.406 165.656 175.031 175.031S165.656 199.594 175.031 208.969L222.062 255.998L175.031 303.029C165.656 312.404 165.656 327.592 175.031 336.967C184.404 346.34 199.588 346.348 208.969 336.967L256 289.936L303.031 336.967C312.404 346.34 327.588 346.348 336.969 336.967C346.344 327.592 346.344 312.404 336.969 303.029L289.938 255.998L336.969 208.969C346.344 199.594 346.344 184.406 336.969 175.031Z"/></svg>