<svg xmlns="http://www.w3.org/2000/svg" viewBox="0 0 448 512"><!-- Font Awesome Pro 6.0.0-alpha2 by @fontawesome - https://fontawesome.com License - https://fontawesome.com/license (Commercial License) --><path d="M227.75 66.438C215.797 71.391 208 83.062 208 96V176H48C21.492 176 0 197.49 0 224V288C0 314.51 21.492 336 48 336H208V416C208 428.938 215.797 440.609 227.75 445.562C239.719 450.516 253.469 447.781 262.625 438.625L438.625 278.625C444.875 272.375 448 264.188 448 256S444.875 239.625 438.625 233.375L262.625 73.375C253.469 64.219 239.719 61.484 227.75 66.438ZM393.367 256L256 377.367V288H48V224H256V134.633L393.367 256Z"/></svg>