<svg xmlns="http://www.w3.org/2000/svg" viewBox="0 0 512 512"><!-- Font Awesome Pro 6.0.0-alpha2 by @fontawesome - https://fontawesome.com License - https://fontawesome.com/license (Commercial License) --><path d="M256 384C273.363 384 287.438 369.924 287.438 352.561C287.438 335.199 273.363 321.123 256 321.123S224.562 335.199 224.562 352.561C224.562 369.924 238.637 384 256 384ZM454.723 288.969C441.943 285.219 428.664 292.562 424.977 305.281C403.262 379.906 333.74 432 255.969 432C189.453 432 129.248 393.719 99.555 336H136.016C149.264 336 160.014 325.25 160.014 312S149.264 288 136.016 288H39.998C26.75 288 16 298.75 16 312V408C16 421.25 26.75 432 39.998 432S63.994 421.25 63.994 408V369.883C103.725 436.426 176.111 480 255.969 480C354.955 480 443.412 413.688 471.033 318.719C474.752 305.969 467.441 292.656 454.723 288.969ZM472.002 80C458.754 80 448.006 90.75 448.006 104V142.07C408.264 75.555 335.871 32 256.031 32C157.045 32 68.588 98.312 40.967 193.281C37.248 206.031 44.559 219.344 57.277 223.031C70.119 226.813 83.367 219.406 87.023 206.719C108.738 132.094 178.26 80 256.031 80C322.547 80 382.777 118.281 412.475 176H375.984C362.736 176 351.986 186.75 351.986 200S362.736 224 375.984 224H472.002C485.25 224 496 213.25 496 200V104C496 90.75 485.25 80 472.002 80ZM256 288C269.25 288 280 277.25 280 264V152C280 138.75 269.25 128 256 128S232 138.75 232 152V264C232 277.25 242.75 288 256 288Z"/></svg>