<svg xmlns="http://www.w3.org/2000/svg" viewBox="0 0 512 512"><!-- Font Awesome Pro 6.0.0-alpha2 by @fontawesome - https://fontawesome.com License - https://fontawesome.com/license (Commercial License) --><path d="M424 336H328C305.875 336 288 318.125 288 296S305.875 256 328 256H416C416 256 512 149 512 96S469 0 416 0S320 43 320 96C320 125.75 350.25 172.75 376.875 208H328C279.5 208 240 247.5 240 296S279.5 384 328 384H424C446.125 384 464 401.875 464 424S446.125 464 424 464H135.125C161.75 428.75 192 381.75 192 352C192 299 149 256 96 256S0 299 0 352S96 512 96 512H424C472.5 512 512 472.5 512 424S472.5 336 424 336ZM368 96C368 69.5 389.5 48 416 48S464 69.5 464 95.875C463.5 109.25 443.25 144.125 416 180.25C388.75 144.125 368.5 109.375 368 96ZM96 436.25C68.75 400.125 48.5 365.375 48 352C48 325.5 69.5 304 96 304S144 325.5 144 351.875C143.5 365.25 123.25 400.125 96 436.25Z"/></svg>