<svg xmlns="http://www.w3.org/2000/svg" viewBox="0 0 512 512"><!-- Font Awesome Pro 6.0.0-alpha2 by @fontawesome - https://fontawesome.com License - https://fontawesome.com/license (Commercial License) --><path d="M482.738 11.861C471.41 3.771 458.318 0 445.18 0C424.412 0 403.527 9.422 389.297 26.113L187.922 261.498C178.928 272 186.424 288 200.041 288H331.957C341.326 288 350.195 283.875 356.316 276.75L495.23 114.367C521.59 83.49 516.467 35.863 482.738 11.861ZM458.756 83.164L324.588 240H269.482L425.824 57.256C430.691 51.547 438.107 48 445.18 48C448.875 48 452.127 48.984 454.908 50.971C461.648 55.766 463.389 62.441 463.828 65.992C464.281 69.656 464.219 76.766 458.756 83.164ZM0 512C88.969 512.125 174.104 482.875 239.553 430.875C239.809 430.625 239.936 430.5 240.191 430.375C272.277 404.625 288 366.375 288 328V320H179.984L0 512Z"/></svg>