<svg xmlns="http://www.w3.org/2000/svg" viewBox="0 0 640 512"><!-- Font Awesome Pro 6.0.0-alpha2 by @fontawesome - https://fontawesome.com License - https://fontawesome.com/license (Commercial License) --><path d="M128.002 224C111.004 224 93.879 232.875 85.004 250.5C-1.996 424.75 0.004 416.375 0.004 432C0.004 476.125 57.254 512 128.002 512C198.752 512 256.002 476.125 256.002 432C256.002 415.875 257.377 423.25 170.877 250.5C162.127 232.875 145.002 224 128.002 224ZM55.879 416C62.004 403.375 109.254 309.5 127.752 272C127.752 272 127.877 272 128.002 272C147.877 311.625 194.377 404 200.252 416H55.879ZM520 464H344.002V155.93C373.947 146.457 396.029 120.078 399.211 87.836L527.312 46.844C539.937 42.812 546.891 29.312 542.859 16.687C538.828 4.094 525.344 -2.875 512.687 1.156L389.26 40.656C375.494 16.488 349.803 0 320 0C275.816 0 240 35.816 240 80C240 82.793 240.543 85.434 240.822 88.152L112.687 129.156C100.062 133.188 93.109 146.688 97.141 159.312C100.406 169.5 109.844 176 120 176C122.422 176 124.875 175.625 127.312 174.844L259.982 132.391C269.512 143.297 281.859 151.453 296.002 155.93V480C296.002 497.672 310.328 512 328.002 512H520C533.254 512 544 501.254 544 488C544 474.742 533.254 464 520 464ZM320 112C302.355 112 288 97.645 288 80S302.355 48 320 48S352 62.355 352 80S337.644 112 320 112ZM554.875 122.5C546.125 104.875 529 96 512 96S477.875 104.875 469.125 122.5C382 296.75 384 288.375 384 304C384 348.125 441.25 384 512 384S639.998 348.125 639.998 304C639.998 287.875 641.373 295.25 554.875 122.5ZM439.875 288C446 275.375 511.875 144 512 144C531.875 183.625 578.375 276 584.25 288H439.875Z"/></svg>