<svg xmlns="http://www.w3.org/2000/svg" viewBox="0 0 576 512"><!-- Font Awesome Pro 6.0.0-alpha2 by @fontawesome - https://fontawesome.com License - https://fontawesome.com/license (Commercial License) --><path d="M560 415.951H432.016C423.215 415.951 416.016 423.15 416.016 431.951V463.943C416.016 472.742 423.215 479.943 432.016 479.943H560C568.801 479.943 576 472.742 576 463.943V431.951C576 423.15 568.801 415.951 560 415.951ZM560.002 287.967H432.014C423.215 287.967 416.016 295.166 416.016 303.965S423.215 319.963 432.014 319.963H560.002C568.801 319.963 576 312.764 576 303.965S568.801 287.967 560.002 287.967ZM560.002 351.959H432.014C423.215 351.959 416.016 359.158 416.016 367.957S423.215 383.955 432.014 383.955H560.002C568.801 383.955 576 376.756 576 367.957S568.801 351.959 560.002 351.959ZM560 191.979H432.016C423.215 191.979 416.016 199.18 416.016 207.979V239.971C416.016 248.771 423.215 255.971 432.016 255.971H560C568.801 255.971 576 248.771 576 239.971V207.979C576 199.18 568.801 191.979 560 191.979ZM560 32H432.016C423.215 32 416.016 39.199 416.016 48V79.992C416.016 88.791 423.215 95.992 432.016 95.992H560C568.801 95.992 576 88.791 576 79.992V48C576 39.199 568.801 32 560 32ZM560.002 127.988H432.014C423.215 127.988 416.016 135.186 416.016 143.986C416.016 152.785 423.215 159.982 432.014 159.982H560.002C568.801 159.982 576 152.785 576 143.984C576 135.186 568.801 127.988 560.002 127.988ZM320 32H112C50.145 32 0 82.145 0 144C0 194.422 33.541 236.557 79.363 250.6L6.432 375.955C-6.818 398.953 1.057 428.199 24.055 441.572L79.424 473.568C86.99 477.926 95.246 480 103.391 480C120.004 480 136.152 471.377 145.043 455.945L260.408 256.027L260.42 256H320C337.674 256 352 241.674 352 224V64C352 46.326 337.674 32 320 32ZM103.44 432.008L47.922 400.094L131.754 256H205.006L103.44 432.008ZM304 208H112C76.711 208 48 179.289 48 144S76.711 80 112 80H304V208Z"/></svg>