<svg xmlns="http://www.w3.org/2000/svg" viewBox="0 0 512 512"><!-- Font Awesome Pro 6.0.0-alpha2 by @fontawesome - https://fontawesome.com License - https://fontawesome.com/license (Commercial License) --><path d="M503.409 106.391C509.077 101.647 512 94.836 512 87.978C512 71.91 498.173 63.996 487.992 63.996C482.548 63.996 477.079 65.839 472.597 69.609L287.486 224.701L212.013 161.467C219.441 146.49 224.001 129.85 224.001 112C224.001 50.145 173.857 0 112.001 0S0 50.145 0 112S50.145 224 112.001 224C138.6 224 162.704 214.34 181.917 198.85L250.129 256L181.917 313.15C162.704 297.66 138.6 288 112.001 288C50.145 288 0 338.145 0 400S50.145 512 112.001 512S224.001 461.855 224.001 400C224.001 382.15 219.441 365.51 212.013 350.533L503.409 106.391ZM112.001 176C76.711 176 48 147.289 48 112S76.711 48 112.001 48S176.001 76.711 176.001 112S147.29 176 112.001 176ZM112.001 464C76.711 464 48 435.289 48 400S76.711 336 112.001 336S176.001 364.711 176.001 400S147.29 464 112.001 464ZM349.76 276.877L312.404 308.176L472.597 442.391C477.097 446.156 482.566 448 488.003 448C498.123 448 512 439.993 512 424.022C512 417.164 509.077 410.353 503.409 405.609L349.76 276.877Z"/></svg>