<svg xmlns="http://www.w3.org/2000/svg" viewBox="0 0 640 512"><!-- Font Awesome Pro 6.0.0-alpha2 by @fontawesome - https://fontawesome.com License - https://fontawesome.com/license (Commercial License) --><path d="M224.38 256.009L195.136 304.882C191.262 311.382 191.138 319.506 194.888 326.131C198.639 332.755 205.639 336.879 213.263 336.878L272.76 336.872L302.012 385.74C305.764 392.114 312.638 395.988 320.013 395.988C327.513 395.862 334.387 391.987 338.136 385.612L367.255 336.863L426.752 336.858C434.376 336.857 441.375 332.732 445.25 326.107C448.999 319.607 448.998 311.483 444.998 304.984L415.62 255.991L444.863 207.118C448.738 200.618 448.862 192.494 445.111 185.869C441.361 179.245 434.361 175.121 426.737 175.122L367.24 175.128L337.986 126.26C334.236 119.886 327.361 116.012 319.987 116.012C312.612 116.013 305.613 120.013 301.864 126.388L272.745 175.137L213.248 175.142C205.624 175.143 198.499 179.268 194.75 185.893C191.001 192.393 191.002 200.517 195.002 207.016L224.38 256.009ZM220.761 311.504L239.132 280.63L257.634 311.501L220.761 311.504ZM320.01 366.49L302.258 336.87L337.757 336.866L320.01 366.49ZM419.25 311.486L382.502 311.489L400.873 280.74L419.25 311.486ZM419.239 200.496L400.868 231.37L382.366 200.499L419.239 200.496ZM319.99 145.51L337.616 175.13L302.243 175.134L319.99 145.51ZM287.122 200.508L352.868 200.502L386.121 255.994L352.878 311.492L287.132 311.498L253.879 256.006L287.122 200.508ZM257.498 200.511L239.127 231.26L220.75 200.514L257.498 200.511ZM559.963 0C523.84 0.003 494.343 20.004 484.096 48.003L155.864 48.034C145.612 20.037 116.112 0.042 79.989 0.045C35.117 0.049 -0.004 30.55 0 69.421L0.035 442.639C0.039 481.51 35.165 512.004 80.037 512C116.16 511.997 145.657 491.996 155.903 463.997L484.135 463.966C494.387 491.963 523.888 511.958 560.011 511.955C604.883 511.951 640.004 481.45 640 442.579L639.965 69.361C639.961 30.49 604.835 -0.004 559.963 0ZM112.029 442.628C112.03 454.502 97.657 464.002 80.033 464.004C62.409 464.006 48.033 454.508 48.032 442.634L47.997 69.417C47.996 57.543 62.37 48.043 79.994 48.041S111.993 57.537 111.994 69.411L112.029 442.628ZM480.006 415.971L160.024 416.001L159.994 96.029L479.976 95.999L480.006 415.971ZM592.002 442.583C592.004 454.457 577.63 463.957 560.006 463.959C542.382 463.961 528.007 454.463 528.006 442.589L527.971 69.372C527.97 57.498 542.343 47.998 559.967 47.996C577.591 47.994 591.966 57.492 591.968 69.366L592.002 442.583Z"/></svg>