<svg xmlns="http://www.w3.org/2000/svg" viewBox="0 0 640 512"><!-- Font Awesome Pro 6.0.0-alpha2 by @fontawesome - https://fontawesome.com License - https://fontawesome.com/license (Commercial License) --><path d="M256 208V48C256 21.6 234.4 0 208 0H48C21.6 0 0 21.6 0 48V208C0 234.4 21.6 256 48 256H208C234.4 256 256 234.4 256 208ZM48 48H208V208H48V48ZM592 256H432C405.6 256 384 277.6 384 304V464C384 490.4 405.6 512 432 512H592C618.4 512 640 490.4 640 464V304C640 277.6 618.4 256 592 256ZM592 464H432V304H592V464ZM480 224V160C480 124.652 451.346 96 416 96H288V224C288 259.346 259.346 288 224 288H160V352C160 387.346 188.654 416 224 416H352V288C352 252.652 380.654 224 416 224H480Z"/></svg>