<svg xmlns="http://www.w3.org/2000/svg" viewBox="0 0 576 512"><!-- Font Awesome Pro 6.0.0-alpha2 by @fontawesome - https://fontawesome.com License - https://fontawesome.com/license (Commercial License) --><path d="M448 208.018C448 201.049 444.969 194.425 439.688 189.863L263.688 37.873C253.688 29.154 238.531 30.279 229.844 40.341C221.188 50.372 222.281 65.527 232.312 74.183L359.494 184.019H152C68.188 184.019 0 252.202 0 336.009V456.002C0 469.251 10.75 480 24 480S48 469.251 48 456.002V336.009C48 278.669 94.656 232.016 152 232.016H359.494L232.312 341.853C222.281 350.508 221.188 365.664 229.844 375.694C234.594 381.194 241.281 384.006 248 384.006C253.562 384.006 259.156 382.1 263.688 378.163L439.688 226.173C444.969 221.611 448 214.986 448 208.018ZM567.688 189.863L391.688 37.873C381.688 29.154 366.531 30.279 357.844 40.341C349.188 50.372 350.281 65.527 360.312 74.183L515.281 208.018L360.312 341.853C350.281 350.508 349.188 365.664 357.844 375.694C362.594 381.194 369.281 384.006 376 384.006C381.562 384.006 387.156 382.1 391.688 378.163L567.688 226.173C572.969 221.611 576 214.986 576 208.018C576 201.049 572.969 194.425 567.688 189.863Z"/></svg>