<svg xmlns="http://www.w3.org/2000/svg" viewBox="0 0 448 512"><!-- Font Awesome Pro 6.0.0-alpha2 by @fontawesome - https://fontawesome.com License - https://fontawesome.com/license (Commercial License) --><path d="M256 152V328C256 341.25 266.75 352 280 352S304 341.25 304 328V152C304 85.828 250.156 32 184 32H40C26.75 32 16 42.75 16 56V456C16 469.25 26.75 480 40 480S64 469.25 64 456V80H184C223.688 80 256 112.297 256 152ZM408 32C394.75 32 384 42.75 384 56V360C384 399.764 351.764 432 312 432H192V184C192 170.75 181.25 160 168 160S144 170.75 144 184V456C144 469.254 154.746 480 168 480H312C378.273 480 432 426.273 432 360V56C432 42.75 421.25 32 408 32Z"/></svg>