<svg xmlns="http://www.w3.org/2000/svg" viewBox="0 0 512 512"><!-- Font Awesome Pro 6.0.0-alpha2 by @fontawesome - https://fontawesome.com License - https://fontawesome.com/license (Commercial License) --><path d="M466.5 83.68L274.5 3.672C269.625 1.641 261.344 0 256.062 0C250.75 0 242.5 1.641 237.594 3.672L45.594 83.68C27.688 91.07 16 108.574 16 127.984C16 385.157 205.164 512 255.953 512C307.975 512 496 383.813 496 127.984C496 108.574 484.312 91.07 466.5 83.68ZM256.086 48H256.082C256.068 47.992 256.053 47.984 256.037 47.98L256.086 48ZM255.969 464.016C163.536 425.488 64.057 303.952 64.057 128.138C64.057 128.088 64.057 128.038 64.057 127.988L254.873 48.426C255.205 48.324 255.789 48.195 256.322 48.098L448 127.984C448 330.477 322.371 436.332 255.969 464.016ZM176 232C162.74 232 152.002 242.742 152.002 256C152.002 269.254 162.732 279.996 176 279.996H336.004C349.264 279.996 360.002 269.258 360.002 256S349.264 232 336.004 232H176Z "></path></svg>