<svg xmlns="http://www.w3.org/2000/svg" viewBox="0 0 640 512"><!-- Font Awesome Pro 6.0.0-alpha2 by @fontawesome - https://fontawesome.com License - https://fontawesome.com/license (Commercial License) --><path d="M635.748 176.125L544.248 16.125C538.546 6.153 527.939 0 516.451 0H123.546C112.058 0 101.451 6.153 95.748 16.125L4.248 176.125C-7.877 197.5 7.373 224 31.998 224H63.998L64 464C64 490.51 85.49 512 112 512H336C362.51 512 384 490.51 384 464L383.998 224H527.998V488C527.998 501.2 538.798 512 551.998 512H551.998C565.198 512 575.998 501.2 575.998 488V224H607.998C632.623 224 647.873 197.5 635.748 176.125ZM335.998 464H111.998V368.25H335.998V464ZM335.998 320.25H111.998V224H335.998V320.25ZM59.623 176L132.748 48H507.248L580.248 176H59.623Z"/></svg>