<svg xmlns="http://www.w3.org/2000/svg" viewBox="0 0 640 512"><!-- Font Awesome Pro 6.0.0-alpha2 by @fontawesome - https://fontawesome.com License - https://fontawesome.com/license (Commercial License) --><path d="M575.998 426.146V224H607.998C632.623 224 647.873 197.5 635.748 176.125L544.248 16.125C538.545 6.152 527.94 0 516.452 0H123.545C112.059 0 101.452 6.152 95.748 16.125L82.477 39.332L38.813 5.109C28.36 -3.062 13.282 -1.234 5.11 9.188C-3.062 19.625 -1.234 34.719 9.188 42.891L601.188 506.891C605.594 510.328 610.797 512 615.985 512C623.11 512 630.157 508.844 634.891 502.812C643.063 492.375 641.235 477.281 630.813 469.109L575.998 426.146ZM527.998 388.525L318.086 224H527.998V388.525ZM132.748 48H507.248L580.248 176H256.846L120.62 69.229L132.748 48ZM111.998 320.25V224H163.018L101.776 176H59.623L72.661 153.18L34.483 123.256L4.248 176.125C-7.877 197.5 7.373 224 31.998 224H63.998L64 464C64 490.51 85.491 512 112 512H336C362.51 512 384 490.51 384 464V397.203L285.819 320.25H111.998ZM335.998 464H111.998V368.25H335.998V464Z"/></svg>