<svg xmlns="http://www.w3.org/2000/svg" viewBox="0 0 512 512"><!-- Font Awesome Pro 6.0.0-alpha2 by @fontawesome - https://fontawesome.com License - https://fontawesome.com/license (Commercial License) --><path d="M503.281 72.223L439.781 8.719C428.031 -2.906 409.03 -2.906 397.28 8.719L372.78 33.221C358.655 47.472 350.905 66.473 350.905 86.224C350.905 91.099 351.405 95.975 352.405 100.975C353.78 107.475 356.03 113.601 358.78 119.351L262.029 216.232L220.529 174.729C210.779 164.979 198.029 160.104 185.279 160.104C174.529 160.104 163.779 163.479 154.778 170.479L19.402 274.861C-4.348 293.237 -6.723 328.364 14.652 349.74L162.278 497.374C172.154 507.25 184.904 512 197.654 512C212.404 512 227.279 505.375 237.154 492.624L341.655 357.366C357.03 337.489 355.28 309.238 337.405 291.612L295.905 250.109L392.78 153.228C398.53 156.103 404.655 158.353 411.155 159.729C435.781 164.604 461.031 156.978 478.781 139.227L503.281 114.726C514.906 102.975 514.906 83.974 503.281 72.223ZM303.405 325.489C304.155 326.239 304.28 327.239 303.655 327.989L199.154 463.247C199.029 463.372 198.779 463.622 197.904 463.622C197.529 463.622 196.904 463.497 196.279 463.247L48.653 315.738L48.778 312.863L184.029 208.356C184.279 208.231 184.654 207.981 185.279 207.981L186.654 208.606L303.405 325.489ZM444.781 105.225C438.406 111.726 429.281 114.351 420.531 112.601C409.78 110.475 401.53 102.225 399.405 91.474C397.78 82.599 400.405 73.598 406.78 67.223L418.531 55.347L456.656 93.474L444.781 105.225ZM153.778 265.735L121.778 297.737C112.278 307.112 112.278 322.238 121.778 331.614C126.403 336.239 132.528 338.614 138.778 338.614C144.903 338.614 151.028 336.239 155.778 331.614L187.779 299.612C197.154 290.236 197.154 274.986 187.779 265.735C178.279 256.234 163.153 256.234 153.778 265.735ZM180.404 390.243C185.154 394.993 191.279 397.243 197.404 397.243C203.654 397.243 209.779 394.993 214.404 390.243L246.404 358.241C255.779 348.865 255.779 333.739 246.404 324.364C237.029 315.113 221.779 314.988 212.529 324.364L180.529 356.366C171.029 365.741 171.029 380.867 180.404 390.243Z"/></svg>