<svg xmlns="http://www.w3.org/2000/svg" viewBox="0 0 512 512"><!-- Font Awesome Pro 6.0.0-alpha2 by @fontawesome - https://fontawesome.com License - https://fontawesome.com/license (Commercial License) --><path d="M502.719 89.5L422.473 9.25C416.223 3.125 408.099 0 399.974 0S383.725 3.125 377.6 9.25L345.977 40.875C329.228 57.625 320.103 80.125 320.103 103.375C320.103 123.875 326.978 138.625 331.478 146.625L207.234 270.875L154.486 218.25C148.362 212 140.112 208.875 131.987 208.875C123.738 208.875 115.613 212 109.363 218.25L39.742 287.875C-11.256 338.75 -6.381 472.25 16.618 495.375C26.742 505.375 57.741 512 93.864 512C140.487 512 195.484 501 224.108 472.25L293.729 402.625C306.229 390.125 306.229 369.875 293.729 357.5L241.107 304.75L365.476 180.5C383.225 190.375 399.599 191.875 408.724 191.875C433.348 191.875 456.846 180.25 474.346 162.75L502.719 134.375C515.094 122 515.094 102 502.719 89.5ZM190.234 438.375C174.86 453.75 136.112 464 93.864 464C74.365 464 59.991 461.75 51.991 459.75C44.117 430.375 46.616 348.625 73.615 321.75L131.862 263.375L248.482 380L190.234 438.375ZM440.472 128.75C430.848 138.375 419.348 143.875 407.724 143.875C372.726 143.875 354.601 100.125 379.975 74.75L399.974 54.75L457.221 112L440.472 128.75Z"/></svg>