<svg xmlns="http://www.w3.org/2000/svg" viewBox="0 0 512 512"><!-- Font Awesome Pro 6.0.0-alpha2 by @fontawesome - https://fontawesome.com License - https://fontawesome.com/license (Commercial License) --><path d="M111.998 48H366.061L400 81.943V160H448V81.943C448 69.213 442.943 57.006 433.943 48.004L400.004 14.061C391.002 5.057 378.793 0 366.061 0H111.998C85.494 0 64.012 21.479 64 47.982V75.422L64.004 130.264C64.002 130.264 64.002 130.264 64 130.264V160H112.006L111.998 48ZM440 192H72C32.297 192 0 224.297 0 264V360C0 373.25 10.75 384 24 384H40V488C40 501.25 50.75 512 64 512S88 501.25 88 488V384H136V488C136 501.25 146.75 512 160 512S184 501.25 184 488V384H232V488C232 501.25 242.75 512 256 512S280 501.25 280 488V384H328V488C328 501.25 338.75 512 352 512S376 501.25 376 488V384H424V488C424 501.25 434.75 512 448 512S472 501.25 472 488V384H488C501.25 384 512 373.25 512 360V264C512 224.297 479.703 192 440 192ZM464 336H48V264C48 250.766 58.766 240 72 240H440C453.234 240 464 250.766 464 264V336Z"/></svg>