<svg xmlns="http://www.w3.org/2000/svg" viewBox="0 0 384 512"><!-- Font Awesome Pro 6.0.0-alpha2 by @fontawesome - https://fontawesome.com License - https://fontawesome.com/license (Commercial License) --><path d="M335.999 136V80H83.585L248.621 238.688C253.34 243.219 255.996 249.469 255.996 256S253.34 268.781 248.621 273.312L83.585 432H335.999V376C335.999 362.75 346.749 352 359.999 352C373.25 352 384 362.75 384 376V456C384 469.25 373.25 480 359.999 480H23.99C14.208 480 5.395 474.062 1.739 464.969S0.302 445.5 7.364 438.687L197.37 256L7.364 73.312C0.301 66.5 -1.917 56.125 1.739 47.031S14.208 32 23.99 32H359.999C373.25 32 384 42.75 384 56V136C384 149.25 373.25 160 359.999 160C346.749 160 335.999 149.25 335.999 136Z"/></svg>