<svg xmlns="http://www.w3.org/2000/svg" viewBox="0 0 640 512"><!-- Font Awesome Pro 6.0.0-alpha2 by @fontawesome - https://fontawesome.com License - https://fontawesome.com/license (Commercial License) --><path d="M128 384H64C46.328 384 32 398.328 32 416V480C32 497.672 46.328 512 64 512H128C145.674 512 160 497.672 160 480V416C160 398.328 145.674 384 128 384ZM112 464H80V432H112V464ZM280 256H216C198.328 256 184 270.328 184 288V480C184 497.672 198.328 512 216 512H280C297.674 512 312 497.672 312 480V288C312 270.328 297.674 256 280 256ZM264 464H232V304H264V464ZM584 0H520C502.328 0 488 14.328 488 32V480C488 497.672 502.328 512 520 512H584C601.674 512 616 497.672 616 480V32C616 14.328 601.674 0 584 0ZM568 464H536V48H568V464ZM432 128H368C350.328 128 336 142.328 336 160V480C336 497.672 350.328 512 368 512H432C449.674 512 464 497.672 464 480V160C464 142.328 449.674 128 432 128ZM416 464H384V176H416V464Z"/></svg>