<svg xmlns="http://www.w3.org/2000/svg" viewBox="0 0 512 512"><!-- Font Awesome Pro 6.0.0-alpha2 by @fontawesome - https://fontawesome.com License - https://fontawesome.com/license (Commercial License) --><path d="M200 448C213.254 448 224 437.254 224 424S213.254 400 200 400S176 410.746 176 424S186.746 448 200 448ZM312 448C325.254 448 336 437.254 336 424S325.254 400 312 400S288 410.746 288 424S298.746 448 312 448ZM488 160H280V112H424C437.25 112 448 101.25 448 88S437.25 64 424 64H280V24C280 10.75 269.25 0 256 0S232 10.75 232 24V64H88C74.75 64 64 74.75 64 88S74.75 112 88 112H232V160H24C10.75 160 0 170.75 0 184S10.75 208 24 208H232V256H88C74.75 256 64 266.75 64 280S74.75 304 88 304H232V336H126.469C103.687 336 83.406 347.844 72.187 367.656C60.937 387.469 61.25 410.969 72.937 430.5L107.375 487.906C116.281 502.75 132.594 512 149.938 512H362.062C379.406 512 395.719 502.75 404.625 487.906L439.062 430.5C450.75 410.969 451.062 387.469 439.812 367.656C428.594 347.844 408.312 336 385.531 336H280V304H424C437.25 304 448 293.25 448 280S437.25 256 424 256H280V208H488C501.25 208 512 197.25 512 184S501.25 160 488 160ZM385.531 384C393.094 384 396.813 389.094 398.063 391.312C399.313 393.5 401.781 399.312 397.875 405.812L362.062 464L148.562 463.219L114.125 405.812C110.219 399.312 112.687 393.5 113.937 391.312C115.188 389.094 118.906 384 126.469 384H385.531Z"/></svg>