<svg xmlns="http://www.w3.org/2000/svg" viewBox="0 0 512 512"><!-- Font Awesome Pro 6.0.0-alpha2 by @fontawesome - https://fontawesome.com License - https://fontawesome.com/license (Commercial License) --><path d="M72 192V488C72 501.255 82.745 512 96 512H96C109.255 512 120 501.255 120 488V192H72ZM232 24V368H216C202.75 368 192 378.75 192 392S202.75 416 216 416H296C309.25 416 320 405.25 320 392S309.25 368 296 368H280V24C280 10.75 269.25 0 256 0S232 10.75 232 24ZM392 24V240H376C362.75 240 352 250.75 352 264S362.75 288 376 288H456C469.25 288 480 277.25 480 264S469.25 240 456 240H440V24C440 10.75 429.25 0 416 0S392 10.75 392 24ZM232 448V488C232 501.255 242.745 512 256 512H256C269.255 512 280 501.255 280 488V448H232ZM440 488V320H392V488C392 501.255 402.745 512 416 512H416C429.255 512 440 501.255 440 488ZM160 136C160 122.75 149.25 112 136 112H120V24C120 10.75 109.25 0 96 0S72 10.75 72 24V112H56C42.75 112 32 122.75 32 136S42.75 160 56 160H136C149.25 160 160 149.25 160 136Z"/></svg>