<svg xmlns="http://www.w3.org/2000/svg" viewBox="0 0 640 512"><!-- Font Awesome Pro 6.0.0-alpha2 by @fontawesome - https://fontawesome.com License - https://fontawesome.com/license (Commercial License) --><path d="M343.502 159C336.892 147.531 322.158 143.594 310.72 150.219L293.648 160.076L294.33 157.531C297.189 146.844 290.861 135.875 280.189 133.031C269.548 130.188 258.564 136.5 255.705 147.156L244.67 188.354L199.502 214.432V156.289L229.642 126.156C237.455 118.344 237.455 105.656 229.642 97.844S209.173 90.031 201.361 97.844L199.502 99.705V88C199.502 74.75 188.752 64 175.502 64S151.502 74.75 151.502 88V99.705L149.642 97.844C141.83 90.031 129.173 90.031 121.361 97.844S113.548 118.344 121.361 126.156L151.502 156.289V214.436L101.148 185.365L90.111 144.156C87.252 133.469 76.33 127.188 65.627 130.031C54.955 132.875 48.627 143.844 51.486 154.531L52.172 157.09L42.002 151.219C30.564 144.594 15.83 148.531 9.22 160C2.595 171.469 6.517 186.156 18.002 192.781L28.177 198.656L25.611 199.344C14.955 202.188 8.627 213.156 11.486 223.844C13.877 232.781 21.955 238.656 30.783 238.656C32.502 238.656 34.252 238.438 35.986 237.969L77.14 226.924L127.504 255.998L78.873 284.076L37.72 273.031C27.158 270.156 16.08 276.5 13.22 287.156C10.361 297.844 16.689 308.812 27.345 311.656L29.912 312.344L19.736 318.219C8.252 324.844 4.33 339.531 10.955 351C15.392 358.688 23.47 363 31.752 363C35.83 363 39.955 361.969 43.736 359.781L53.906 353.91L53.22 356.469C50.361 367.156 56.689 378.125 67.361 380.969C69.095 381.438 70.83 381.656 72.548 381.656C81.377 381.656 89.455 375.781 91.845 366.844L102.884 325.633L151.502 297.562V347.711L121.361 377.844C113.548 385.656 113.548 398.344 121.361 406.156S141.83 413.969 149.642 406.156L151.502 404.295V424C151.502 437.25 162.252 448 175.502 448S199.502 437.25 199.502 424V404.295L201.361 406.156C205.267 410.062 210.377 412 215.502 412S225.736 410.062 229.642 406.156C237.455 398.344 237.455 385.656 229.642 377.844L199.502 347.711V297.564L242.933 322.639L253.97 363.844C256.361 372.781 264.439 378.656 273.267 378.656C274.986 378.656 276.72 378.438 278.455 377.969C289.127 375.125 295.455 364.156 292.595 353.469L291.912 350.914L309.002 360.781C312.783 362.969 316.908 364 320.986 364C329.267 364 337.345 359.688 341.783 352C348.408 340.531 344.486 325.844 333.002 319.219L315.898 309.346L318.47 308.656C329.127 305.812 335.455 294.844 332.595 284.156C329.736 273.5 318.814 267.156 308.095 270.031L266.935 281.078L223.494 255.998L268.662 229.92L309.83 240.969C311.564 241.438 313.314 241.656 315.033 241.656C323.861 241.656 331.939 235.781 334.33 226.844C337.189 216.156 330.861 205.188 320.205 202.344L317.623 201.652L334.72 191.781C346.205 185.156 350.127 170.469 343.502 159ZM407.502 240H551.502C600.033 240 639.502 200.531 639.502 152S600.033 64 551.502 64H535.502C522.252 64 511.502 74.75 511.502 88S522.252 112 535.502 112H551.502C573.564 112 591.502 129.938 591.502 152S573.564 192 551.502 192H407.502C394.252 192 383.502 202.75 383.502 216S394.252 240 407.502 240ZM551.502 272H407.502C394.252 272 383.502 282.75 383.502 296S394.252 320 407.502 320H551.502C573.564 320 591.502 337.938 591.502 360S573.564 400 551.502 400H535.502C522.252 400 511.502 410.75 511.502 424S522.252 448 535.502 448H551.502C600.033 448 639.502 408.531 639.502 360S600.033 272 551.502 272Z"/></svg>