<svg xmlns="http://www.w3.org/2000/svg" viewBox="0 0 640 512"><!-- Font Awesome Pro 6.0.0-alpha2 by @fontawesome - https://fontawesome.com License - https://fontawesome.com/license (Commercial License) --><path d="M575.373 25.719C572.388 10.781 559.248 0 543.998 0H96.002C80.752 0 67.611 10.781 64.627 25.719L0.627 345.719C-1.264 355.125 1.174 364.875 7.252 372.281S22.408 384 32.002 384H295.969V464H215.625C202.371 464 191.625 474.744 191.625 488C191.625 501.254 202.371 512 215.625 512H424C437.254 512 448 501.254 448 488C448 474.744 437.254 464 424 464H343.963V384H607.998C617.592 384 626.67 379.688 632.748 372.281S641.263 355.125 639.373 345.719L575.373 25.719ZM553.279 160H437.822L427.156 48H530.879L553.279 160ZM389.605 160H250.394L261.06 48H378.939L389.605 160ZM109.121 48H212.844L202.178 160H86.721L109.121 48ZM77.121 208H197.605L185.416 336H51.521L77.121 208ZM233.631 336L245.822 208H394.178L406.369 336H233.631ZM454.584 336L442.394 208H562.879L588.478 336H454.584Z"/></svg>