<svg xmlns="http://www.w3.org/2000/svg" viewBox="0 0 320 512"><!-- Font Awesome Pro 6.0.0-alpha2 by @fontawesome - https://fontawesome.com License - https://fontawesome.com/license (Commercial License) --><path d="M271.978 288.008H48.147C5.531 288.008 -16.09 339.772 14.279 369.905L126.132 481.934C144.753 500.689 175.247 500.689 193.993 481.934L305.971 369.905C335.965 339.772 314.719 288.008 271.978 288.008ZM160 448.05L48.022 336.021H271.978L160 448.05ZM48.022 223.992H271.853C314.469 223.992 336.09 172.228 305.721 142.095L193.868 30.066C175.247 11.311 144.753 11.311 126.007 30.066L14.029 142.095C-15.965 172.228 5.281 223.992 48.022 223.992ZM160 63.95L271.978 175.979H48.022L160 63.95Z"/></svg>