<svg xmlns="http://www.w3.org/2000/svg" viewBox="0 0 512 512"><!-- Font Awesome Pro 6.0.0-alpha2 by @fontawesome - https://fontawesome.com License - https://fontawesome.com/license (Commercial License) --><path d="M472 232C458.75 232 448 242.75 448 256C448 262.188 447.625 268.609 446.859 275.438C327.328 334.594 184.672 334.594 65.141 275.438C64.375 268.609 64 262.188 64 256C64 200.537 87.775 150.646 125.504 115.564C116.99 128.279 112 143.551 112 160C112 204.182 147.818 240 192 240C236.184 240 272 204.182 272 160C272 115.816 236.184 80 192 80C186.584 80 181.303 80.568 176.189 81.594C200.531 70.408 227.502 64 256 64C298.75 64 340.062 78.484 373.359 104.141C361.344 105.453 352 115.641 352 128C352 141.25 362.75 152 376 152H430C439.047 152 447.344 146.906 451.422 138.828S454.688 121.047 449.328 113.766C404.219 52.547 331.953 16 256 16C123.656 16 16 123.656 16 256C16 268.25 17.125 280.973 19.424 294.914C19.428 294.938 19.418 294.961 19.422 294.984C38.5 411.469 138 496 256 496C323.641 496 388.453 467.188 433.828 416.938C442.719 407.109 441.938 391.938 432.094 383.047C422.281 374.156 407.047 374.906 398.203 384.781C361.922 424.953 310.094 448 256 448C178.83 448 112.195 402.408 81.893 334.992C137.275 356.568 196.508 368 256 368C333.812 368 411.312 348.75 480.125 312.328C486.75 308.812 491.344 302.406 492.562 295.016C494.875 281.031 496 268.281 496 256C496 242.75 485.25 232 472 232ZM192 128C209.645 128 224 142.355 224 160S209.645 192 192 192S160 177.645 160 160S174.355 128 192 128ZM424 184H376C362.75 184 352 194.75 352 208S362.75 232 376 232H424C437.25 232 448 221.25 448 208S437.25 184 424 184Z"/></svg>