<svg xmlns="http://www.w3.org/2000/svg" viewBox="0 0 512 512"><!-- Font Awesome Pro 6.0.0-alpha2 by @fontawesome - https://fontawesome.com License - https://fontawesome.com/license (Commercial License) --><path d="M256 16C123.451 16 16 123.451 16 256S123.451 496 256 496S496 388.549 496 256S388.549 16 256 16ZM192 128C209.645 128 224 142.355 224 160S209.645 192 192 192S160 177.645 160 160S174.355 128 192 128ZM125.498 115.572C116.988 128.283 112 143.553 112 160C112 204.182 147.818 240 192 240C236.184 240 272 204.182 272 160C272 115.816 236.184 80 192 80C186.586 80 181.305 80.568 176.191 81.594C200.533 70.408 227.504 64 256 64C361.869 64 448 150.131 448 256C448 262.303 447.65 268.525 447.055 274.674C389.396 303.418 324.691 320 256 320S122.604 303.418 64.945 274.674C64.35 268.525 64 262.303 64 256C64 200.543 87.773 150.654 125.498 115.572ZM256 448C177.914 448 110.691 401.074 80.721 334C135.078 355.529 193.973 368 256 368S376.922 355.529 431.279 334C401.309 401.074 334.086 448 256 448Z"/></svg>