<svg xmlns="http://www.w3.org/2000/svg" viewBox="0 0 512 512"><!-- Font Awesome Pro 6.0.0-alpha2 by @fontawesome - https://fontawesome.com License - https://fontawesome.com/license (Commercial License) --><path d="M478.387 224.125L286.043 13.25C270.73 -3.625 241.23 -3.563 226.043 13.187L33.605 224.156C10.011 250.062 -1.832 283.406 0.23 318.031C2.324 352.656 18.105 384.406 44.605 407.375C68.793 428.375 99.887 439.938 132.23 439.938C169.855 439.938 205.855 424.156 230.949 396.656L232.012 395.49V464H184.012C170.762 464 160.012 474.75 160.012 488S170.762 512 184.012 512H328.012C341.262 512 352.012 501.25 352.012 488S341.262 464 328.012 464H280.012V395.49L281.074 396.656C305.449 423.406 343.98 440 381.668 440C413.105 440 442.762 428.75 467.387 407.438V407.406C493.949 384.406 509.699 352.656 511.793 318.031C513.855 283.406 502.011 250.062 478.387 224.125ZM435.949 371.125C420.199 384.781 401.418 392 381.668 392C357.449 392 331.887 381.125 316.574 364.344L273.73 317.375C269.168 312.406 262.762 309.562 256.012 309.562S242.855 312.406 238.293 317.375L195.48 364.313C165.668 396.938 109.574 400.219 76.074 371.094C59.355 356.656 49.449 336.781 48.168 315.156C46.855 293.562 54.293 272.719 69.074 256.5L256.012 51.562L442.918 256.469C457.73 272.719 465.168 293.562 463.855 315.156C462.574 336.781 452.668 356.656 435.949 371.125Z"/></svg>