<svg xmlns="http://www.w3.org/2000/svg" viewBox="0 0 640 512"><!-- Font Awesome Pro 6.0.0-alpha2 by @fontawesome - https://fontawesome.com License - https://fontawesome.com/license (Commercial License) --><path d="M456 160C478.092 160 496 142.092 496 120S478.092 80 456 80S416 97.908 416 120S433.908 160 456 160ZM576 0H336C300.654 0 272 28.652 272 64V448C272 483.346 300.654 512 336 512H576C611.346 512 640 483.346 640 448V64C640 28.652 611.346 0 576 0ZM592 448C592 456.822 584.822 464 576 464H336C327.178 464 320 456.822 320 448V64C320 55.178 327.178 48 336 48H576C584.822 48 592 55.178 592 64V448ZM456 224C398.562 224 352 270.562 352 328S398.562 432 456 432S560 385.438 560 328S513.438 224 456 224ZM456 384C425.121 384 400 358.877 400 328C400 297.121 425.121 272 456 272S512 297.121 512 328C512 358.877 486.879 384 456 384ZM184 80C161.908 80 144 97.908 144 120S161.908 160 184 160S224 142.092 224 120S206.092 80 184 80ZM184 272C199.676 272 213.824 278.512 224 288.928V232.346C211.674 227.115 198.24 224 184 224C126.562 224 80 270.562 80 328S126.562 432 184 432C198.24 432 211.674 428.885 224 423.654V367.07C213.824 377.486 199.676 384 184 384C153.121 384 128 358.877 128 328C128 297.121 153.121 272 184 272ZM264.969 0H64C28.654 0 0 28.652 0 64V448C0 483.346 28.654 512 64 512H264.969C253.025 498.756 244.721 482.326 241.617 464H64C55.178 464 48 456.822 48 448V64C48 55.178 55.178 48 64 48H241.617C244.721 29.674 253.025 13.244 264.969 0Z"/></svg>