<svg xmlns="http://www.w3.org/2000/svg" viewBox="0 0 512 512"><!-- Font Awesome Pro 6.0.0-alpha2 by @fontawesome - https://fontawesome.com License - https://fontawesome.com/license (Commercial License) --><path d="M108.873 76.873C91.273 76.873 76.873 91.273 76.873 108.873C76.873 126.572 91.273 140.873 108.873 140.873C126.574 140.873 140.873 126.572 140.873 108.873C140.873 91.273 126.574 76.873 108.873 76.873ZM108.873 371.125C91.273 371.125 76.873 385.426 76.873 403.125C76.873 420.727 91.273 435.125 108.873 435.125C126.574 435.125 140.873 420.727 140.873 403.125C140.873 385.426 126.574 371.125 108.873 371.125ZM256 432C238.301 432 224 446.299 224 464C224 481.699 238.301 496 256 496S288 481.699 288 464C288 446.299 273.699 432 256 432ZM48 224C30.301 224 16 238.299 16 256C16 273.699 30.301 288 48 288S80 273.699 80 256C80 238.299 65.699 224 48 224ZM256 16C238.301 16 224 30.299 224 48C224 65.699 238.301 80 256 80S288 65.699 288 48C288 30.299 273.699 16 256 16ZM464 224C446.301 224 432 238.299 432 256C432 273.699 446.301 288 464 288S496 273.699 496 256C496 238.299 481.699 224 464 224ZM403.127 371.125C385.426 371.125 371.127 385.426 371.127 403.125C371.127 420.727 385.426 435.125 403.127 435.125C420.727 435.125 435.127 420.727 435.127 403.125C435.127 385.426 420.727 371.125 403.127 371.125Z"/></svg>