<svg xmlns="http://www.w3.org/2000/svg" viewBox="0 0 448 512"><!-- Font Awesome Pro 6.0.0-alpha2 by @fontawesome - https://fontawesome.com License - https://fontawesome.com/license (Commercial License) --><path d="M208.969 127.031C199.594 117.656 184.406 117.656 175.031 127.031S165.656 151.594 175.031 160.969L270.062 256L175.031 351.031C165.656 360.406 165.656 375.594 175.031 384.969S199.594 394.344 208.969 384.969L320.969 272.969C325.656 268.281 328 262.156 328 256S325.656 243.719 320.969 239.031L208.969 127.031ZM384 32H64C28.656 32 0 60.656 0 96V416C0 451.344 28.656 480 64 480H384C419.344 480 448 451.344 448 416V96C448 60.656 419.344 32 384 32ZM400 416C400 424.82 392.82 432 384 432H64C55.18 432 48 424.82 48 416V96C48 87.18 55.18 80 64 80H384C392.82 80 400 87.18 400 96V416Z"/></svg>