<svg xmlns="http://www.w3.org/2000/svg" viewBox="0 0 448 512"><!-- Font Awesome Pro 6.0.0-alpha2 by @fontawesome - https://fontawesome.com License - https://fontawesome.com/license (Commercial License) --><path d="M384 32H64C28.654 32 0 60.654 0 96V416C0 451.346 28.654 480 64 480H384C419.346 480 448 451.346 448 416V96C448 60.654 419.346 32 384 32ZM400 416C400 424.822 392.822 432 384 432H64C55.178 432 48 424.822 48 416V96C48 87.178 55.178 80 64 80H384C392.822 80 400 87.178 400 96V416ZM335.391 129.172C325.437 125.922 314.641 129.484 308.547 137.953L224 255.016L139.453 137.953C133.359 129.484 122.469 125.922 112.609 129.172C102.719 132.359 96 141.594 96 152V360C96 373.25 106.75 384 120 384S144 373.25 144 360V226.219L204.547 310.047C213.578 322.547 234.422 322.547 243.453 310.047L304 226.219V360C304 373.25 314.75 384 328 384S352 373.25 352 360V152C352 141.594 345.281 132.359 335.391 129.172Z"/></svg>