<svg xmlns="http://www.w3.org/2000/svg" viewBox="0 0 640 512"><!-- Font Awesome Pro 6.0.0-alpha2 by @fontawesome - https://fontawesome.com License - https://fontawesome.com/license (Commercial License) --><path d="M630.81 469.102L543.999 401.062V96C543.999 60.654 515.347 32 479.999 32H159.999C138.396 32 119.38 42.777 107.79 59.172L38.814 5.109C34.407 1.672 29.189 0 24.032 0C16.907 0 9.845 3.156 5.126 9.188C-3.061 19.625 -1.249 34.717 9.189 42.889L601.185 506.883C611.685 515.086 626.747 513.211 634.872 502.805C643.06 492.367 641.247 477.273 630.81 469.102ZM365.761 261.363L271.999 187.875V176H335.999C362.468 176 383.999 197.531 383.999 224C383.999 239.174 376.786 252.561 365.761 261.363ZM495.999 363.439L403.851 291.217C421.107 273.934 431.999 250.332 431.999 224C431.999 171.062 388.937 128 335.999 128H247.999C235.284 128 225.122 137.984 224.304 150.492L145.806 88.967C148.431 83.709 153.734 80 159.999 80H479.999C488.822 80 495.999 87.178 495.999 96V363.439ZM159.999 432C151.177 432 143.999 424.822 143.999 416V209.549L95.999 171.928V416C95.999 451.346 124.654 480 159.999 480H479.999C482.749 480 485.368 479.527 488.027 479.191L427.818 432H159.999ZM271.999 360V320H284.919L223.999 272.252V360C223.999 373.25 234.749 384 247.999 384S271.999 373.25 271.999 360Z"/></svg>