<svg xmlns="http://www.w3.org/2000/svg" viewBox="0 0 448 512"><!-- Font Awesome Pro 6.0.0-alpha2 by @fontawesome - https://fontawesome.com License - https://fontawesome.com/license (Commercial License) --><path d="M384 32H64C28.654 32 0 60.654 0 96V416C0 451.346 28.654 480 64 480H384C419.346 480 448 451.346 448 416V96C448 60.654 419.346 32 384 32ZM400 416C400 424.822 392.822 432 384 432H64C55.178 432 48 424.822 48 416V96C48 87.178 55.178 80 64 80H384C392.822 80 400 87.178 400 96V416ZM338.734 130.531C326.875 124.641 312.469 129.406 306.531 141.266L224 306.328L141.469 141.266C135.547 129.406 121.188 124.641 109.266 130.531C97.406 136.469 92.609 150.875 98.531 162.734L202.531 370.734C206.594 378.859 214.906 384 224 384S241.406 378.859 245.469 370.734L349.469 162.734C355.391 150.875 350.594 136.469 338.734 130.531Z"/></svg>