<svg xmlns="http://www.w3.org/2000/svg" viewBox="0 0 448 512"><!-- Font Awesome Pro 6.0.0-alpha2 by @fontawesome - https://fontawesome.com License - https://fontawesome.com/license (Commercial License) --><path d="M241.625 175.719C237.094 170.812 230.688 168 224 168S210.906 170.812 206.375 175.719L110.375 279.719C103.906 286.719 102.188 296.906 106 305.625C109.844 314.344 118.469 320 128 320H320C329.531 320 338.156 314.344 342 305.625C345.812 296.906 344.094 286.719 337.625 279.719L241.625 175.719ZM384 32H64C28.654 32 0 60.656 0 96V416C0 451.344 28.654 480 64 480H384C419.346 480 448 451.344 448 416V96C448 60.656 419.346 32 384 32ZM400 416C400 424.82 392.822 432 384 432H64C55.178 432 48 424.82 48 416V96C48 87.18 55.178 80 64 80H384C392.822 80 400 87.18 400 96V416Z"/></svg>