<svg xmlns="http://www.w3.org/2000/svg" viewBox="0 0 448 512"><!-- Font Awesome Pro 6.0.0-alpha2 by @fontawesome - https://fontawesome.com License - https://fontawesome.com/license (Commercial License) --><path d="M384 32H64C28.654 32 0 60.654 0 96V416C0 451.346 28.654 480 64 480H384C419.348 480 448 451.346 448 416V96C448 60.654 419.348 32 384 32ZM384 80C392.838 80 400 87.164 400 96V416C400 424.836 392.838 432 384 432H64C55.164 432 48 424.836 48 416V96C48 87.164 55.164 80 64 80H384ZM144 112C130.75 112 120 122.75 120 136V160H104C90.75 160 80 170.75 80 184S90.75 208 104 208H120V376C120 389.254 130.746 400 144 400C157.256 400 168 389.254 168 376V208H184C197.25 208 208 197.25 208 184S197.25 160 184 160H168V136C168 122.75 157.25 112 144 112ZM304 112C290.75 112 280 122.75 280 136V288H264C250.75 288 240 298.75 240 312S250.75 336 264 336H280V376C280 389.254 290.746 400 304 400C317.256 400 328 389.254 328 376V336H344C357.25 336 368 325.25 368 312S357.25 288 344 288H328V136C328 122.75 317.25 112 304 112Z"/></svg>