<svg xmlns="http://www.w3.org/2000/svg" viewBox="0 0 448 512"><!-- Font Awesome Pro 6.0.0-alpha2 by @fontawesome - https://fontawesome.com License - https://fontawesome.com/license (Commercial License) --><path d="M384 32H64C28.654 32 0 60.652 0 96V416C0 451.346 28.654 480 64 480H384C419.346 480 448 451.346 448 416V96C448 60.652 419.346 32 384 32ZM400 416C400 424.836 392.836 432 384 432H64C55.164 432 48 424.836 48 416V96C48 87.162 55.164 80 64 80H384C392.836 80 400 87.162 400 96V416ZM224 128C210.75 128 200 138.75 200 152V360C200 373.25 210.75 384 224 384S248 373.25 248 360V152C248 138.75 237.25 128 224 128ZM320 288C306.75 288 296 298.75 296 312V360C296 373.25 306.75 384 320 384S344 373.25 344 360V312C344 298.75 333.25 288 320 288ZM128 224C114.75 224 104 234.75 104 248V360C104 373.25 114.75 384 128 384S152 373.25 152 360V248C152 234.75 141.25 224 128 224Z"/></svg>