<svg xmlns="http://www.w3.org/2000/svg" viewBox="0 0 448 512"><!-- Font Awesome Pro 6.0.0-alpha2 by @fontawesome - https://fontawesome.com License - https://fontawesome.com/license (Commercial License) --><path d="M384 32H64C28.656 32 0 60.656 0 96V416C0 451.344 28.656 480 64 480H384C419.344 480 448 451.344 448 416V96C448 60.656 419.344 32 384 32ZM400 416C400 424.82 392.82 432 384 432H64C55.18 432 48 424.82 48 416V96C48 87.18 55.18 80 64 80H384C392.82 80 400 87.18 400 96V416ZM232.344 134.398C222.625 125.398 207.438 125.961 198.406 135.648C189.406 145.367 189.938 160.523 199.656 169.586L266.867 231.992H120C106.75 231.992 96 242.742 96 255.992S106.75 279.992 120 279.992H266.867L199.656 342.398C189.938 351.461 189.406 366.617 198.406 376.336C207.438 386.023 222.625 386.586 232.344 377.586L344.344 273.586C349.219 269.023 352 262.68 352 255.992S349.219 242.961 344.344 238.398L232.344 134.398Z"/></svg>