<svg xmlns="http://www.w3.org/2000/svg" viewBox="0 0 448 512"><!-- Font Awesome Pro 6.0.0-alpha2 by @fontawesome - https://fontawesome.com License - https://fontawesome.com/license (Commercial License) --><path d="M384 32H64C28.654 32 0 60.654 0 96V416C0 451.346 28.654 480 64 480H384C419.346 480 448 451.346 448 416V96C448 60.654 419.346 32 384 32ZM400 416C400 424.822 392.822 432 384 432H64C55.178 432 48 424.822 48 416V96C48 87.178 55.178 80 64 80H384C392.822 80 400 87.178 400 96V416ZM312 128C298.75 128 288 138.75 288 152V232H160V152C160 138.75 149.25 128 136 128S112 138.75 112 152V360C112 373.25 122.75 384 136 384S160 373.25 160 360V280H288V360C288 373.25 298.75 384 312 384S336 373.25 336 360V152C336 138.75 325.25 128 312 128Z"/></svg>