<svg xmlns="http://www.w3.org/2000/svg" viewBox="0 0 448 512"><!-- Font Awesome Pro 6.0.0-alpha2 by @fontawesome - https://fontawesome.com License - https://fontawesome.com/license (Commercial License) --><path d="M384 32H64C28.654 32 0 60.656 0 96V416C0 451.344 28.654 480 64 480H384C419.346 480 448 451.344 448 416V96C448 60.656 419.346 32 384 32ZM400 416C400 424.82 392.822 432 384 432H64C55.178 432 48 424.82 48 416V96C48 87.18 55.178 80 64 80H384C392.822 80 400 87.18 400 96V416ZM304 112H240L272 176L224 208L256 272L176 208L208 176L176 112H144C135.164 112 128 119.162 128 128V224C128 271.539 162.637 310.734 208 318.387V368H176C167.164 368 160 375.162 160 384C160 392.836 167.164 400 176 400H272C280.836 400 288 392.836 288 384C288 375.162 280.836 368 272 368H240V318.387C285.363 310.734 320 271.539 320 224V128C320 119.162 312.836 112 304 112Z"/></svg>