<svg xmlns="http://www.w3.org/2000/svg" viewBox="0 0 448 512"><!-- Font Awesome Pro 6.0.0-alpha2 by @fontawesome - https://fontawesome.com License - https://fontawesome.com/license (Commercial License) --><path d="M384 32H64C28.654 32 0 60.656 0 96V416C0 451.344 28.654 480 64 480H384C419.346 480 448 451.344 448 416V96C448 60.656 419.346 32 384 32ZM400 416C400 424.82 392.822 432 384 432H64C55.178 432 48 424.82 48 416V96C48 87.18 55.178 80 64 80H384C392.822 80 400 87.18 400 96V416ZM264 336H248V248C248 234.75 237.25 224 224 224H192C178.75 224 168 234.75 168 248S178.75 272 192 272H200V336H184C170.75 336 160 346.75 160 360S170.75 384 184 384H264C277.25 384 288 373.25 288 360S277.25 336 264 336ZM224 192C241.674 192 256 177.672 256 160C256 142.326 241.674 128 224 128S192 142.326 192 160C192 177.672 206.326 192 224 192Z"/></svg>