<svg xmlns="http://www.w3.org/2000/svg" viewBox="0 0 576 512"><!-- Font Awesome Pro 6.0.0-alpha2 by @fontawesome - https://fontawesome.com License - https://fontawesome.com/license (Commercial License) --><path d="M576 56C576 69.25 565.25 80 552 80H432V200C432 213.25 421.25 224 408 224H304V328C304 341.25 293.25 352 280 352H176V456C176 469.25 165.25 480 152 480H24C10.75 480 0 469.25 0 456S10.75 432 24 432H128V328C128 314.75 138.75 304 152 304H256V200C256 186.75 266.75 176 280 176H384V56C384 42.75 394.75 32 408 32H552C565.25 32 576 42.75 576 56Z"/></svg>