<svg xmlns="http://www.w3.org/2000/svg" viewBox="0 0 512 512"><!-- Font Awesome Pro 6.0.0-alpha2 by @fontawesome - https://fontawesome.com License - https://fontawesome.com/license (Commercial License) --><path d="M259.636 86L309.384 106.625L330.008 156.375C331.133 158.625 333.508 160 336.007 160C338.507 160 340.882 158.625 342.007 156.375L362.631 106.625L412.254 86C414.629 84.875 416.004 82.5 416.004 80S414.629 75.125 412.254 74L362.631 53.375L342.007 3.75C340.882 1.375 338.507 0 336.007 0C333.508 0 331.133 1.375 330.008 3.75L309.384 53.375L259.636 74C257.386 75.125 256.011 77.5 256.011 80S257.386 84.875 259.636 86ZM509 219.25L469.377 202.625L452.753 163C451.878 161.125 450.003 160 448.003 160C446.003 160 444.128 161.125 443.253 163L426.629 202.625L387.005 219.25C385.13 220.125 384.005 222 384.005 224S385.13 227.875 387.005 228.75L426.629 245.375L443.253 285C444.128 286.875 446.003 288 448.003 288C450.003 288 451.878 286.875 452.753 285L469.377 245.375L509 228.75C510.875 227.875 512 226 512 224S510.875 220.125 509 219.25ZM364.256 267.25L259.511 252L212.638 156.75C208.763 148.875 200.638 143.875 191.889 144C183.139 143.875 175.139 148.875 171.389 156.75L124.516 252L19.646 267.25C0.897 270 -6.728 293.25 7.021 306.5L82.893 380.5L64.894 485.125C62.269 500 74.144 512 87.518 512C91.268 512 94.893 511.125 98.143 509.25L192.014 459.875L285.76 509.25C293.509 513.375 303.009 512.75 310.009 507.625C317.133 502.5 320.633 493.75 319.133 485.125L301.134 380.5L377.131 306.5C390.63 293.25 383.13 270 364.256 267.25ZM249.511 363.75L263.136 443.25L192.014 405.75L120.642 443.25L134.391 363.75L76.643 307.5L156.39 295.875L192.014 223.75L227.637 295.875L307.384 307.5L249.511 363.75Z"/></svg>