<svg xmlns="http://www.w3.org/2000/svg" viewBox="0 0 640 512"><!-- Font Awesome Pro 6.0.0-alpha2 by @fontawesome - https://fontawesome.com License - https://fontawesome.com/license (Commercial License) --><path d="M633.547 127.625L521.547 7.625C512.469 -2.078 497.312 -2.563 487.625 6.453C477.937 15.5 477.406 30.687 486.453 40.375L592 153.453V196.324L453.842 168.693C425.277 124.994 376.102 96 320 96C263.896 96 214.719 124.996 186.156 168.697L48 196.328V153.453L153.547 40.375C162.594 30.688 162.062 15.5 152.375 6.453C142.703 -2.562 127.5 -2.078 118.453 7.625L6.453 127.625C2.312 132.062 0 137.922 0 144V368C0 374.078 2.312 379.938 6.453 384.375L118.453 504.375C123.188 509.438 129.578 512 136 512C141.875 512 147.75 509.859 152.375 505.547C162.063 496.5 162.594 481.312 153.547 471.625L48 358.547V315.672L186.156 343.303C214.719 387.004 263.896 416 320 416C376.102 416 425.277 387.006 453.842 343.307L592 315.676V358.547L486.453 471.625C477.406 481.313 477.938 496.5 487.625 505.547C492.25 509.859 498.125 512 504 512C510.422 512 516.812 509.438 521.547 504.375L633.547 384.375C637.688 379.938 640 374.078 640 368V144C640 137.922 637.688 132.062 633.547 127.625ZM430.375 240H390.125C388.25 232.125 385.125 224.625 380.875 217.75L409.375 189.25C420.5 204.125 427.75 221.625 430.375 240ZM336 145.625C354.375 148.25 371.875 155.5 386.75 166.625L358.25 195.125C351.375 190.875 343.875 187.75 336 185.875V145.625ZM304 145.625V185.875C296.125 187.75 288.625 190.875 281.75 195.125L253.25 166.625C268.125 155.5 285.625 148.25 304 145.625ZM259.125 217.75C254.875 224.625 251.75 232.125 249.875 240H209.625C212.25 221.625 219.5 204.125 230.625 189.25L259.125 217.75ZM48 266.729V245.271L163.758 222.121C161.395 233.061 160 244.354 160 256S161.395 278.939 163.758 289.879L48 266.729ZM209.625 272H249.875C251.75 279.875 254.875 287.375 259.125 294.25L230.625 322.75C219.5 307.875 212.25 290.375 209.625 272ZM304 366.375C285.625 363.75 268.125 356.5 253.25 345.375L281.75 316.875C288.625 321.125 296.125 324.25 304 326.125V366.375ZM296 256C296 242.75 306.75 232 320 232S344 242.75 344 256S333.25 280 320 280S296 269.25 296 256ZM336 366.375V326.125C343.875 324.25 351.375 321.125 358.25 316.875L386.75 345.375C371.875 356.5 354.375 363.75 336 366.375ZM380.875 294.25C385.125 287.375 388.25 279.875 390.125 272H430.375C427.75 290.375 420.5 307.875 409.375 322.75L380.875 294.25ZM476.242 289.883C478.605 278.943 480 267.648 480 256S478.605 233.057 476.242 222.117L592 245.27V266.73L476.242 289.883Z"/></svg>