<svg xmlns="http://www.w3.org/2000/svg" viewBox="0 0 512 512"><!-- Font Awesome Pro 6.0.0-alpha2 by @fontawesome - https://fontawesome.com License - https://fontawesome.com/license (Commercial License) --><path d="M435.61 256L490.731 166.625C505.605 142.375 487.106 112 457.609 112H346.993L289.122 18C281.748 6 268.874 0 256 0S230.252 6 222.878 18L165.007 112H54.391C24.769 112 6.395 142.375 21.269 166.625L76.39 256L21.269 345.375C6.395 369.625 24.769 400 54.391 400H165.007L222.878 494C230.252 506 243.126 512 256 512S281.748 506 289.122 494L346.993 400H457.609C487.231 400 505.605 369.625 490.731 345.375L435.61 256ZM436.985 160L406.738 209.125L376.49 160H436.985ZM377.865 256L318.745 352H193.255L134.135 256L193.255 160H318.745L377.865 256ZM256 58.125L289.247 112H222.753L256 58.125ZM75.015 160H135.51L105.262 209.125L75.015 160ZM75.015 352L105.262 302.875L135.51 352H75.015ZM256 453.875L222.753 400H289.247L256 453.875ZM376.49 352L406.738 302.875L436.985 352H376.49Z"/></svg>