<svg xmlns="http://www.w3.org/2000/svg" viewBox="0 0 512 512"><!-- Font Awesome Pro 6.0.0-alpha2 by @fontawesome - https://fontawesome.com License - https://fontawesome.com/license (Commercial License) --><path d="M364.203 267.096L259.471 251.846L212.603 156.596C208.73 148.721 200.73 143.846 191.982 143.846S175.236 148.721 171.361 156.596L124.494 251.846L19.764 267.096C0.891 269.846 -6.732 292.971 7.016 306.346L82.877 380.346L64.881 484.971C63.756 491.596 65.629 498.471 70.004 503.596C74.379 508.846 80.752 511.846 87.502 511.846C91.25 511.846 94.875 510.846 98.25 509.096L191.982 459.721L285.717 509.096C289.092 510.846 292.715 511.846 296.465 511.846C303.213 511.846 309.588 508.846 313.961 503.596C318.336 498.471 320.211 491.596 319.086 484.971L301.213 380.346L377.076 306.346C390.697 292.971 383.074 269.846 364.203 267.096ZM249.598 363.596L263.221 442.971L191.982 405.471L120.871 442.971L134.492 363.596L76.754 307.346L156.363 295.721L191.982 223.471L227.601 295.721L307.338 307.346L249.598 363.596ZM311.031 200.814C315.719 205.502 321.859 207.846 328 207.846S340.281 205.502 344.969 200.814L504.969 40.814C514.344 31.439 514.344 16.252 504.969 6.877S480.406 -2.498 471.031 6.877L311.031 166.877C301.656 176.252 301.656 191.439 311.031 200.814ZM248 95.846C254.141 95.846 260.281 93.502 264.969 88.814L312.969 40.814C322.344 31.439 322.344 16.252 312.969 6.877S288.406 -2.498 279.031 6.877L231.031 54.877C221.656 64.252 221.656 79.439 231.031 88.814C235.719 93.502 241.859 95.846 248 95.846ZM471.031 198.877L423.031 246.877C413.656 256.252 413.656 271.439 423.031 280.814C427.719 285.502 433.859 287.846 440 287.846S452.281 285.502 456.969 280.814L504.969 232.814C514.344 223.439 514.344 208.252 504.969 198.877S480.406 189.502 471.031 198.877Z"/></svg>