<svg xmlns="http://www.w3.org/2000/svg" viewBox="0 0 576 512"><!-- Font Awesome Pro 6.0.0-alpha2 by @fontawesome - https://fontawesome.com License - https://fontawesome.com/license (Commercial License) --><path d="M480 128C444.654 128 416 156.654 416 192C416 218.844 432.564 241.75 456 251.254V344C456 410.156 402.172 464 336 464C271.717 464 219.514 413.07 216.559 349.518C293.076 337.592 352 271.809 352 192V57.998C352 48.904 346.859 40.592 338.734 36.529L270.734 2.529C258.891 -3.377 244.469 1.404 238.531 13.279C232.609 25.123 237.406 39.529 249.266 45.467L304 72.842V192C304 253.75 253.75 304 192 304S80 253.75 80 192V72.842L134.734 45.467C146.594 39.529 151.391 25.123 145.469 13.279C139.562 1.404 125.156 -3.377 113.266 2.529L45.266 36.529C37.141 40.592 32 48.904 32 57.998V192C32 272.195 91.508 338.178 168.57 349.631C171.617 439.602 245.287 512 336 512C428.641 512 504 436.625 504 344V251.254C527.436 241.75 544 218.844 544 192C544 156.654 515.346 128 480 128ZM480 208C471.178 208 464 200.822 464 192S471.178 176 480 176S496 183.178 496 192S488.822 208 480 208Z"/></svg>