<svg xmlns="http://www.w3.org/2000/svg" viewBox="0 0 512 512"><!-- Font Awesome Pro 6.0.0-alpha2 by @fontawesome - https://fontawesome.com License - https://fontawesome.com/license (Commercial License) --><path d="M328 112C341.25 112 352 101.25 352 88S341.25 64 328 64H288C279.969 64 272.469 68 268.031 74.688L176 212.734L83.969 74.688C79.531 68 72.031 64 64 64H24C10.75 64 0 74.75 0 88S10.75 112 24 112H51.156L147.156 256L51.156 400H24C10.75 400 0 410.75 0 424S10.75 448 24 448H64C72.031 448 79.531 444 83.969 437.312L176 299.266L268.031 437.312C272.469 444 279.969 448 288 448H328C341.25 448 352 437.25 352 424S341.25 400 328 400H300.844L204.844 256L300.844 112H328ZM488 464H472V312C472 298.75 461.25 288 448 288H408C394.75 288 384 298.75 384 312S394.75 336 408 336H424V464H408C394.75 464 384 474.75 384 488S394.75 512 408 512H488C501.25 512 512 501.25 512 488S501.25 464 488 464Z"/></svg>