<svg xmlns="http://www.w3.org/2000/svg" viewBox="0 0 640 512"><!-- Font Awesome Pro 6.0.0-alpha2 by @fontawesome - https://fontawesome.com License - https://fontawesome.com/license (Commercial License) --><path d="M88 319.231H408C421.2 319.231 432 308.431 432 295.232V295.232C432 282.033 421.2 271.233 408 271.233H88C74.8 271.233 64 282.033 64 295.232V295.232C64 308.431 74.8 319.231 88 319.231ZM616 271.233H504C490.8 271.233 480 282.033 480 295.232V295.232C480 308.431 490.8 319.231 504 319.231H616C629.2 319.231 640 308.431 640 295.232V295.232C640 282.033 629.2 271.233 616 271.233ZM200 447.223H88C74.8 447.223 64 458.022 64 471.221V471.221C64 484.42 74.8 495.22 88 495.22H200C213.2 495.22 224 484.42 224 471.221V471.221C224 458.022 213.2 447.223 200 447.223ZM616 447.223H296C282.8 447.223 272 458.022 272 471.221V471.221C272 484.42 282.8 495.22 296 495.22H616C629.2 495.22 640 484.42 640 471.221V471.221C640 458.022 629.2 447.223 616 447.223ZM576 383.227V383.227C576 370.027 565.2 359.228 552 359.228H24C10.8 359.228 0 370.027 0 383.227V383.227C0 396.426 10.8 407.225 24 407.225H552C565.2 407.225 576 396.426 576 383.227ZM194.75 186.739L177.125 95.494L268.125 113.118L320 36.248L371.875 113.118L462.875 95.494L445.25 186.614L499.25 223.236H572.75C569.75 215.987 564.875 209.612 558.25 205.112L498.5 164.615L512.25 93.619C514.75 80.495 510.625 66.871 501.125 57.246C491.5 47.747 477.875 43.497 464.875 46.122L394 59.871L353.625 0C338.5 -22.374 301.75 -22.374 286.625 0L246.25 59.871L175.375 46.122C162.125 43.497 148.625 47.747 139.125 57.246C129.625 66.871 125.375 80.37 128 93.494L141.75 164.49L81.875 204.988C75.25 209.487 70.5 215.987 67.5 223.111H140.875L194.75 186.739ZM217.625 223.236H266.625C273.5 200.238 294.75 183.239 320 183.239S366.5 200.238 373.375 223.236H422.375C414.625 173.489 371.875 135.242 320 135.242S225.375 173.489 217.625 223.236Z"/></svg>