<svg xmlns="http://www.w3.org/2000/svg" viewBox="0 0 576 512"><!-- Font Awesome Pro 6.0.0-alpha2 by @fontawesome - https://fontawesome.com License - https://fontawesome.com/license (Commercial License) --><path d="M552 463.998H491.5L520.875 419.248C528.25 408.123 529.625 393.998 524.5 381.498C519.25 369.123 508.375 359.998 495.25 357.248L424.5 342.748L410 272C407.25 258.75 398.25 247.75 385.75 242.625C373.25 237.375 359.125 238.875 348.125 246.25L287.75 286L227.625 246.125C205.125 231.25 171.125 245.25 165.75 271.75L151.25 342.623L80.625 356.998C67.25 359.748 56.5 368.748 51.25 381.248C46.25 393.748 47.5 407.748 55 418.998L84.75 463.998H24C10.8 463.998 0 474.798 0 487.998V487.998C0 501.198 10.8 511.998 24 511.998H552C565.2 511.998 576 501.198 576 487.998V487.998C576 474.798 565.2 463.998 552 463.998ZM234.625 463.998C239.25 448.373 250.625 434.998 266.75 428.248C295.25 416.498 328.25 430.123 340 458.623C340.75 460.373 341.125 462.248 341.625 463.998H234.625ZM434 463.998H390.75C389.5 455.998 387.625 447.998 384.375 440.248C362.5 387.248 301.5 361.998 248.5 383.873C213.75 398.248 191.125 429.373 185.75 463.998H142.25L101.375 401.873L192.25 383.248L210.75 292.375L288.125 343.623L365.375 292.5L384.125 383.373L474.875 402.123L434 463.998ZM271.031 216.969C280.406 226.344 295.594 226.344 304.969 216.969L384.969 136.969C394.344 127.594 394.344 112.406 384.969 103.031S360.406 93.656 351.031 103.031L312 142.062V24C312 10.75 301.25 0 288 0S264 10.75 264 24V142.062L224.969 103.031C220.281 98.344 214.141 96 208 96S195.719 98.344 191.031 103.031C181.656 112.406 181.656 127.594 191.031 136.969L271.031 216.969Z"/></svg>