<svg xmlns="http://www.w3.org/2000/svg" viewBox="0 0 512 512"><!-- Font Awesome Pro 6.0.0-alpha2 by @fontawesome - https://fontawesome.com License - https://fontawesome.com/license (Commercial License) --><path d="M112 424C125.25 424 136 413.25 136 400S125.25 376 112 376S88 386.75 88 400S98.75 424 112 424ZM480 288H382.375L451.375 219C463.875 206.5 463.875 186.25 451.375 173.75L338.25 60.625C332 54.375 323.875 51.25 315.625 51.25C307.5 51.25 299.25 54.375 293 60.625L224 129.625V32C224 14.375 209.625 0 192 0H32C14.375 0 0 14.375 0 32V400C0 461.875 50.125 512 112 512H480C497.625 512 512 497.625 512 480V320C512 302.375 497.625 288 480 288ZM176 400C176 404.365 175.541 407.873 174.889 411.018C169.643 441.08 143.561 464 112 464C76.666 464 48 435.332 48 400V304H176V400ZM176 256H48V176H176V256ZM176 128H48V48H176V128ZM224 197.5L315.625 105.875L406.125 196.375L224 378.5V197.5ZM464 464H206.375L334.375 336H464V464Z"/></svg>