<svg xmlns="http://www.w3.org/2000/svg" viewBox="0 0 512 512"><!-- Font Awesome Pro 6.0.0-alpha2 by @fontawesome - https://fontawesome.com License - https://fontawesome.com/license (Commercial License) --><path d="M119.015 495.971L330.487 283.25C340.485 273.251 333.361 256.003 319.113 256.003H159.635C155.385 256.003 151.261 257.628 148.261 260.628L16.029 392.985C-5.343 414.357 -5.343 448.852 16.029 470.224L41.776 495.971C63.148 517.343 97.643 517.343 119.015 495.971ZM172.883 303.997H243.123L172.883 374.237L137.763 339.117L172.883 303.997ZM49.9 436.229C47.4 433.729 47.4 429.48 49.9 426.98L115.141 361.739L125.639 372.238L55.774 442.103L49.9 436.229ZM75.646 461.975L69.897 456.226L139.762 386.361L150.261 396.859L85.02 461.975C82.52 464.6 78.271 464.6 75.646 461.975ZM503.213 8.787C491.965 -2.587 473.717 -2.962 461.969 7.912L226.751 224.008H344.235L504.088 50.031C514.962 38.283 514.587 20.035 503.213 8.787Z"/></svg>