<svg xmlns="http://www.w3.org/2000/svg" viewBox="0 0 640 512"><!-- Font Awesome Pro 6.0.0-alpha2 by @fontawesome - https://fontawesome.com License - https://fontawesome.com/license (Commercial License) --><path d="M632 268.25L556 196.5C552.75 193.5 548.375 192 544 192S535.125 193.5 532 196.5L496 230.5V147.875C496 137.125 491.125 127 482.75 120.375L342 7.75C335.75 2.75 328 0 320 0C312.25 0 304.5 2.625 298 7.75L157.25 120.375C148.875 127 144 137.125 144 147.875V230.5L108 196.5C104.75 193.5 100.375 192 96 192S87.25 193.5 84 196.5L8 268.25C2.875 273.125 0 279.375 0 285.875V488C0 501.255 10.745 512 24 512H24C37.255 512 48 501.255 48 488V296.5L96 251.25L144 296.5V488C144 501.255 154.745 512 168 512H168C181.255 512 192 501.255 192 488V154L320 51.625L448 154V488C448 501.255 458.745 512 472 512H472C485.255 512 496 501.255 496 488V296.5L544 251.25L592 296.5V488C592 501.255 602.745 512 616 512L616 512C629.255 512 640 501.255 640 488V285.875C640 279.375 637.125 273.125 632 268.25ZM388 154.25H349.125L324 114.25C322.125 111.25 317.875 111.25 316 114.25L290.875 154.25H252C248.25 154.25 246 158.25 248 161.375L267.125 192L248 222.5C246 225.75 248.25 229.75 252 229.75H290.875L316 269.75C317.875 272.75 322.125 272.75 324 269.75L349.125 229.75H388C391.75 229.75 394 225.75 392 222.625L372.875 192L392.125 161.5C394 158.25 391.75 154.25 388 154.25ZM320 320C284.654 320 256 348.652 256 384V416V448V480C256 497.672 270.326 512 288 512H352C369.674 512 384 497.672 384 480V448V413.25V384C384 348.652 355.346 320 320 320Z"/></svg>