<svg xmlns="http://www.w3.org/2000/svg" viewBox="0 0 512 512"><!-- Font Awesome Pro 6.0.0-alpha2 by @fontawesome - https://fontawesome.com License - https://fontawesome.com/license (Commercial License) --><path d="M416.008 320.002C363.014 320.002 320.016 363.003 320.016 416.003C320.016 469 363.014 512 416.008 512C469.004 512 512 469 512 416.003C512 363.003 469.004 320.002 416.008 320.002ZM416.008 464C389.545 464 368.016 442.468 368.016 416.003C368.016 389.534 389.545 368.003 416.008 368.003S464 389.534 464 416.003C464 442.468 442.471 464 416.008 464ZM93.186 175.087L294.803 376.737C300.07 360.542 308.344 345.873 319.18 333.221L125.566 139.579L158.621 103.328C224.258 37.585 329.217 29.054 397.666 84.008C460.389 134.407 480.799 219.63 448.654 292.752C464.531 296.967 479.135 304.018 491.967 313.557C533.801 220.189 507.908 110.985 427.734 46.562C340.531 -23.556 207.287 -13.524 123.895 70.195L52.943 147.969C3.215 204.271 25.533 275.017 67.322 316.904L82.449 332.096L17.875 388.96C7.029 398.526 0.527 412.312 0.027 426.784C-0.441 441.261 5.123 455.421 15.313 465.707L46.037 496.558C61.551 512.131 79.693 511.973 84.918 511.973C99.422 511.473 113.205 504.941 122.801 493.996L179.313 429.222L193.721 443.667C222.32 472.332 262.297 486.277 303.117 481.742L302.211 473.402C296.039 461.218 291.824 448.046 289.822 434.027C266.471 434.402 244.082 426.167 227.729 409.78L177 358.885L86.639 462.394C86.274 462.811 83.131 465.821 80.043 462.644L49.381 431.882C48.562 431.063 46.597 427.636 49.631 424.972L152.525 334.346L101.328 283.017C80.918 262.541 55.32 217.775 88.639 180.075L93.186 175.087Z"/></svg>