<svg xmlns="http://www.w3.org/2000/svg" viewBox="0 0 640 512"><!-- Font Awesome Pro 6.0.0-alpha2 by @fontawesome - https://fontawesome.com License - https://fontawesome.com/license (Commercial License) --><path d="M576 64H64C28.654 64 0 92.654 0 128V384C0 419.346 28.654 448 64 448H576C611.348 448 640 419.346 640 384V128C640 92.654 611.348 64 576 64ZM592 384C592 392.822 584.822 400 576 400H64C55.178 400 48 392.822 48 384V128C48 119.178 55.178 112 64 112H576C584.822 112 592 119.178 592 128V384ZM336 144H112C94.326 144 80 158.326 80 176V208C80 225.672 94.326 240 112 240H336C353.674 240 368 225.672 368 208V176C368 158.326 353.674 144 336 144ZM352 336H96C87.156 336 80 343.156 80 352S87.156 368 96 368H352C360.844 368 368 360.844 368 352S360.844 336 352 336ZM544 336H416C407.156 336 400 343.156 400 352S407.156 368 416 368H544C552.844 368 560 360.844 560 352S552.844 336 544 336ZM88 304H104C108.418 304 112 300.418 112 296V280C112 275.582 108.418 272 104 272H88C83.582 272 80 275.582 80 280V296C80 300.418 83.582 304 88 304ZM168 304C172.418 304 176 300.418 176 296V280C176 275.582 172.418 272 168 272H152C147.582 272 144 275.582 144 280V296C144 300.418 147.582 304 152 304H168ZM232 304C236.418 304 240 300.418 240 296V280C240 275.582 236.418 272 232 272H216C211.582 272 208 275.582 208 280V296C208 300.418 211.582 304 216 304H232ZM296 304C300.418 304 304 300.418 304 296V280C304 275.582 300.418 272 296 272H280C275.582 272 272 275.582 272 280V296C272 300.418 275.582 304 280 304H296ZM360 272H344C339.582 272 336 275.582 336 280V296C336 300.418 339.582 304 344 304H360C364.418 304 368 300.418 368 296V280C368 275.582 364.418 272 360 272Z"/></svg>