<svg xmlns="http://www.w3.org/2000/svg" viewBox="0 0 576 512"><!-- Font Awesome Pro 6.0.0-alpha2 by @fontawesome - https://fontawesome.com License - https://fontawesome.com/license (Commercial License) --><path d="M480 32H96C42.98 32 0 74.98 0 128V384C0 437.02 42.98 480 96 480H480C533.02 480 576 437.02 576 384V128C576 74.98 533.02 32 480 32ZM528 384C528 410.467 506.467 432 480 432H96C69.533 432 48 410.467 48 384V362.545C63.939 385.184 90.271 400 120 400C141.256 400 160.775 392.426 176 379.834C191.227 392.426 210.744 400 232 400S272.775 392.426 288 379.834C303.227 392.426 322.744 400 344 400S384.775 392.426 400 379.834C415.227 392.426 434.744 400 456 400C485.729 400 512.061 385.184 528 362.545V384ZM93.334 288H146.666C154.062 288 160 293.938 160 301.332V312C160 334.082 142.084 352 120 352S80 334.082 80 312V301.332C80 293.938 85.938 288 93.334 288ZM80 242.666V226.666C80 204.582 97.916 186.666 120 186.666S160 204.582 160 226.666V242.666C160 250.062 154.062 256 146.666 256H93.334C85.938 256 80 250.062 80 242.666ZM205.334 288H258.666C266.062 288 272 293.938 272 301.332V312C272 334.082 254.084 352 232 352S192 334.082 192 312V301.332C192 293.938 197.938 288 205.334 288ZM192 244.57V200C192 177.945 209.945 160 232 160S272 177.945 272 200V244.57C272 250.91 266.91 256 260.57 256H203.43C197.09 256 192 250.91 192 244.57ZM317.334 288H370.666C378.062 288 384 293.938 384 301.332V312C384 334.082 366.084 352 344 352S304 334.082 304 312V301.332C304 293.938 309.938 288 317.334 288ZM304 244.57V200C304 177.945 321.945 160 344 160S384 177.945 384 200V244.57C384 250.91 378.91 256 372.57 256H315.43C309.09 256 304 250.91 304 244.57ZM429.334 288H482.666C490.062 288 496 293.938 496 301.332V312C496 334.082 478.084 352 456 352S416 334.082 416 312V301.332C416 293.938 421.938 288 429.334 288ZM416 242.666V226.666C416 204.582 433.916 186.666 456 186.666S496 204.582 496 226.666V242.666C496 250.062 490.062 256 482.666 256H429.334C421.938 256 416 250.062 416 242.666ZM528 176.121C512.061 153.482 485.729 138.666 456 138.666C441.363 138.666 427.551 142.258 415.395 148.605C399.4 126.447 373.355 112 344 112C322.744 112 303.227 119.574 288 132.166C272.775 119.574 253.256 112 232 112C202.645 112 176.602 126.447 160.605 148.605C148.451 142.258 134.637 138.666 120 138.666C90.271 138.666 63.939 153.482 48 176.121V128C48 101.533 69.533 80 96 80H480C506.467 80 528 101.533 528 128V176.121Z"/></svg>