<svg xmlns="http://www.w3.org/2000/svg" viewBox="0 0 512 512"><!-- Font Awesome Pro 6.0.0-alpha2 by @fontawesome - https://fontawesome.com License - https://fontawesome.com/license (Commercial License) --><path d="M256 112C256 50.125 205.875 0 144 0S32 50.125 32 112V278.5C12.25 303.125 0 334 0 368C0 447.5 64.5 512 144 512S288 447.5 288 368C288 334 275.75 303.125 256 278.5V112ZM144 464C91.125 464 48 420.875 48 368C48 341 59.75 320.75 69.5 308.5L80 295.375V112C80 76.75 108.75 48 144 48S208 76.75 208 112V295.25L218.5 308.375C228.25 320.75 240 341 240 368C240 420.875 196.875 464 144 464ZM160 322.875V160C160 151.25 152.75 144 144 144S128 151.25 128 160V322.875C109.375 329.5 96 347.125 96 368C96 394.5 117.5 416 144 416S192 394.5 192 368C192 347.125 178.625 329.5 160 322.875ZM488 32H344C330.745 32 320 42.745 320 56V56C320 69.255 330.745 80 344 80H488C501.255 80 512 69.255 512 56V56C512 42.745 501.255 32 488 32ZM488 288H376C362.745 288 352 298.745 352 312V312C352 325.255 362.745 336 376 336H488C501.255 336 512 325.255 512 312V312C512 298.745 501.255 288 488 288ZM488 160H344C330.745 160 320 170.745 320 184V184C320 197.255 330.745 208 344 208H488C501.255 208 512 197.255 512 184V184C512 170.745 501.255 160 488 160Z"/></svg>