<svg xmlns="http://www.w3.org/2000/svg" viewBox="0 0 512 512"><!-- Font Awesome Pro 6.0.0-alpha2 by @fontawesome - https://fontawesome.com License - https://fontawesome.com/license (Commercial License) --><path d="M192 368C192 394.5 170.5 416 144 416S96 394.5 96 368C96 347.125 109.375 329.5 128 322.875V112C128 103.25 135.25 96 144 96S160 103.25 160 112V322.875C178.625 329.5 192 347.125 192 368ZM256 278.5C275.75 303.125 288 334 288 368C288 447.5 223.5 512 144 512S0 447.5 0 368C0 334 12.25 303.125 32 278.5V112C32 50.125 82.125 0 144 0S256 50.125 256 112V278.5ZM240 368C240 341 228.25 320.75 218.5 308.375L208 295.25V112C208 76.75 179.25 48 144 48S80 76.75 80 112V295.375L69.5 308.5C59.75 320.75 48 341 48 368C48 420.875 91.125 464 144 464S240 420.875 240 368ZM504.062 153.844C494.219 162.688 479.078 161.906 470.156 152.062L440 118.547V456C440 469.25 429.25 480 416 480S392 469.25 392 456V118.547L361.844 152.062C352.953 161.906 337.797 162.687 327.938 153.844C318.094 144.969 317.297 129.812 326.156 119.938L398.156 39.938C402.719 34.875 409.203 32 416 32S429.281 34.875 433.844 39.938L505.844 119.938C514.703 129.812 513.906 144.969 504.062 153.844Z"/></svg>