<svg xmlns="http://www.w3.org/2000/svg" viewBox="0 0 512 512"><!-- Font Awesome Pro 6.0.0-alpha2 by @fontawesome - https://fontawesome.com License - https://fontawesome.com/license (Commercial License) --><path d="M256 16C123.451 16 16 123.453 16 256S123.451 496 256 496S496 388.547 496 256S388.549 16 256 16ZM229.121 66.105C217.416 150.852 150.852 217.41 66.107 229.117C78.008 144.773 144.775 78.008 229.121 66.105ZM65.379 278.133C177.525 266.289 266.295 177.523 278.137 65.383C366.328 75.566 436.436 145.676 446.621 233.867C334.475 245.711 245.705 334.477 233.863 446.617C145.672 436.434 75.564 366.324 65.379 278.133ZM282.879 445.895C294.584 361.148 361.148 294.59 445.893 282.883C433.992 367.227 367.225 433.992 282.879 445.895Z"/></svg>