<svg xmlns="http://www.w3.org/2000/svg" viewBox="0 0 576 512"><!-- Font Awesome Pro 6.0.0-alpha2 by @fontawesome - https://fontawesome.com License - https://fontawesome.com/license (Commercial License) --><path d="M225.652 239.746L41.65 39.742C32.712 29.961 17.525 29.398 7.743 38.336C-2.007 47.305 -2.632 62.493 6.337 72.243L175.37 255.996L6.337 439.749C-2.632 449.499 -2.007 464.687 7.743 473.656C12.368 477.906 18.181 480 23.994 480C30.462 480 36.931 477.406 41.65 472.25L225.652 272.246C234.121 263.059 234.121 248.933 225.652 239.746ZM552 431.999H247.996C234.746 431.999 223.996 442.749 223.996 456S234.746 480 247.996 480H552C565.25 480 576 469.25 576 456S565.25 431.999 552 431.999Z"/></svg>