<svg xmlns="http://www.w3.org/2000/svg" viewBox="0 0 640 512"><!-- Font Awesome Pro 6.0.0-alpha2 by @fontawesome - https://fontawesome.com License - https://fontawesome.com/license (Commercial License) --><path d="M320 248V296C320 309.25 330.75 320 344 320S368 309.25 368 296V272H456V432H424C410.75 432 400 442.75 400 456S410.75 480 424 480H536C549.25 480 560 469.25 560 456S549.25 432 536 432H504V272H592V296C592 309.25 602.75 320 616 320S640 309.25 640 296V248C640 234.75 629.25 224 616 224H344C330.75 224 320 234.75 320 248ZM0 56L0 136C0 149.25 10.75 160 24 160S48 149.25 48 136V80H168V432H120C106.75 432 96 442.75 96 456S106.75 480 120 480H264C277.25 480 288 469.25 288 456S277.25 432 264 432H216V80H336V136C336 149.25 346.75 160 360 160S384 149.25 384 136V56C384 42.75 373.25 32 360 32H24C10.75 32 0 42.75 0 56Z"/></svg>