<svg xmlns="http://www.w3.org/2000/svg" viewBox="0 0 512 512"><!-- Font Awesome Pro 6.0.0-alpha2 by @fontawesome - https://fontawesome.com License - https://fontawesome.com/license (Commercial License) --><path d="M474.375 165.5C481.25 140.625 474.875 112.875 455.375 93.375L418.625 56.625C404.625 42.625 386.125 34.875 366.25 34.875C359.5 34.875 352.75 35.875 346.375 37.625C333.75 15.125 309.625 0 282 0H230C202.375 0 178.25 15.125 165.625 37.625C159.125 35.875 152.375 34.875 145.75 34.875C125.875 34.875 107.375 42.625 93.375 56.625L56.625 93.375C37.125 112.875 30.75 140.625 37.625 165.5C15.25 178.25 0 202.375 0 230V282C0 309.625 15.25 333.75 37.625 346.5C30.75 371.375 37.125 399.125 56.625 418.625L93.375 455.375C107.375 469.375 125.875 477.125 145.75 477.125C152.5 477.125 159.125 476.125 165.625 474.375C178.25 496.875 202.375 512 230 512H282C309.625 512 333.75 496.875 346.375 474.375C352.875 476.125 359.625 477.125 366.25 477.125C386.125 477.125 404.625 469.375 418.625 455.375L455.375 418.625C474.875 399.125 481.25 371.375 474.375 346.5C496.75 333.75 512 309.625 512 282V230C512 202.375 496.75 178.25 474.375 165.5ZM464 282C464 296.375 452.375 308 438 308H430.375C426.75 320.125 422 331.75 416.125 342.625L421.5 347.875C431.625 358.125 431.625 374.5 421.5 384.75L384.75 421.5C379.625 426.5 373 429.125 366.25 429.125C359.625 429.125 353 426.5 347.875 421.5L342.625 416.125C331.75 422 320.125 426.75 308 430.375V438C308 452.375 296.375 464 282 464H230C215.625 464 204 452.375 204 438V430.375C191.875 426.75 180.25 422 169.375 416.125L164.125 421.5C159 426.5 152.375 429.125 145.75 429.125C139 429.125 132.375 426.5 127.25 421.5L90.5 384.75C80.375 374.5 80.375 358.125 90.5 347.875L95.875 342.625C90 331.625 85.25 320.125 81.625 308H74C59.625 308 48 296.375 48 282V230C48 215.625 59.625 204 74 204H81.625C85.25 191.875 90 180.25 95.875 169.375L90.5 164.125C80.375 153.875 80.375 137.5 90.5 127.25L127.25 90.5C132.375 85.5 139 82.875 145.75 82.875C152.375 82.875 159 85.5 164.125 90.5L169.375 95.875C180.25 90 191.875 85.25 204 81.625V74C204 59.625 215.625 48 230 48H282C296.375 48 308 59.625 308 74V81.625C320.125 85.25 331.75 90 342.625 95.875L347.875 90.5C353 85.5 359.625 82.875 366.25 82.875C373 82.875 379.625 85.5 384.75 90.5L421.5 127.25C431.625 137.5 431.625 153.875 421.5 164.125L416.125 169.375C422 180.25 426.75 191.875 430.375 204H438C452.375 204 464 215.625 464 230V282ZM256 128C185.307 128 128 185.307 128 256C128 326.691 185.307 384 256 384S384 326.691 384 256C384 185.307 326.693 128 256 128ZM180.107 256.576C167.502 252.48 160.604 238.939 164.699 226.334S182.334 206.828 194.939 210.926C207.547 215.021 214.445 228.561 210.35 241.166C206.254 253.773 192.713 260.672 180.107 256.576ZM233.096 328.355C225.305 339.078 210.297 341.457 199.572 333.666C188.85 325.875 186.473 310.865 194.264 300.143C202.055 289.418 217.062 287.041 227.787 294.832C238.51 302.623 240.887 317.633 233.096 328.355ZM256 208C242.746 208 232 197.254 232 184C232 170.744 242.746 160 256 160S280 170.744 280 184C280 197.254 269.254 208 256 208ZM312.428 333.666C301.703 341.457 286.695 339.078 278.904 328.355S273.49 302.623 284.213 294.832C294.938 287.041 309.945 289.418 317.736 300.143C325.527 310.865 323.15 325.875 312.428 333.666ZM331.893 256.576C319.287 260.672 305.746 253.773 301.65 241.166C297.555 228.561 304.453 215.021 317.061 210.926C329.666 206.828 343.205 213.729 347.301 226.334S344.498 252.48 331.893 256.576Z"/></svg>