<svg xmlns="http://www.w3.org/2000/svg" viewBox="0 0 576 512"><!-- Font Awesome Pro 6.0.0-alpha2 by @fontawesome - https://fontawesome.com License - https://fontawesome.com/license (Commercial License) --><path d="M463.995 144C450.745 144 439.994 165.5 439.994 192S450.745 240 463.995 240C477.246 240 487.996 218.5 487.996 192S477.246 144 463.995 144ZM463.995 0H143.981C82.104 0 31.977 86 31.977 192V364.125C31.977 405.25 22.226 426.875 0.85 491C-2.65 501.25 5.1 512 15.976 512H344.865C358.741 512 370.866 503.25 375.241 490.125C386.492 456.625 396.867 426.625 399.367 384H463.995C525.873 384 576 298 576 192C576 86 525.873 0 463.995 0ZM351.99 192V364.125C351.99 405.125 343.99 432.125 333.365 464H60.603C73.103 426.5 79.979 401.75 79.979 364.125V192C79.979 105.375 118.48 48 143.981 48H390.117C366.741 83.25 351.99 134.625 351.99 192ZM463.995 336C438.494 336 399.992 278.625 399.992 192S438.494 48 463.995 48S527.998 105.375 527.998 192S489.496 336 463.995 336ZM207.993 223.984C216.822 223.984 223.986 216.821 223.986 207.992S216.822 192 207.993 192C199.163 192 192 199.163 192 207.992S199.163 223.984 207.993 223.984ZM272.006 224C280.836 224 288 216.836 288 208.006S280.836 192.012 272.006 192.012S256.011 199.176 256.011 208.006S263.175 224 272.006 224ZM128 207.999C128 216.832 135.167 223.999 144 223.999S160 216.832 160 207.999C160 199.166 152.833 192 144 192S128 199.166 128 207.999Z"/></svg>