<svg xmlns="http://www.w3.org/2000/svg" viewBox="0 0 512 512"><!-- Font Awesome Pro 6.0.0-alpha2 by @fontawesome - https://fontawesome.com License - https://fontawesome.com/license (Commercial License) --><path d="M399.998 144C386.746 144 375.996 165.5 375.996 192S386.746 240 399.998 240C413.248 240 423.998 218.5 423.998 192S413.248 144 399.998 144ZM399.998 0H112.002C50.244 0 0 86.131 0 192S50.244 384 112.002 384H128V480C128 497.674 142.326 512 160 512H480C497.674 512 512 497.674 512 480V192C512 86.131 461.756 0 399.998 0ZM112.002 336C86.5 336 48 278.625 48 192S86.5 48 112.002 48H326.162C302.822 83.213 287.994 134.637 287.994 192S302.822 300.787 326.162 336H112.002ZM464 464H176V384H399.998C423.795 384 445.838 371.115 464 349.338V464ZM399.998 336C374.496 336 335.994 278.625 335.994 192S374.496 48 399.998 48C425.498 48 464 105.375 464 192S425.498 336 399.998 336ZM175.992 192C167.164 192 160 199.162 160 207.992C160 216.82 167.164 223.984 175.992 223.984C184.822 223.984 191.986 216.82 191.986 207.992C191.986 199.162 184.822 192 175.992 192ZM240.006 192.012C231.176 192.012 224.012 199.176 224.012 208.006S231.176 224 240.006 224S256 216.836 256 208.006S248.836 192.012 240.006 192.012ZM112 192C103.166 192 96 199.166 96 207.998C96 216.832 103.166 223.998 112 223.998S128 216.832 128 207.998C128 199.166 120.834 192 112 192Z"/></svg>