<svg xmlns="http://www.w3.org/2000/svg" viewBox="0 0 512 512"><!-- Font Awesome Pro 6.0.0-alpha2 by @fontawesome - https://fontawesome.com License - https://fontawesome.com/license (Commercial License) --><path d="M502.627 214.627L425.373 137.373C419.371 131.371 411.232 128 402.746 128H384V88C384 57.125 358.875 32 328 32H184C153.125 32 128 57.125 128 88V128H109.254C100.768 128 92.629 131.371 86.627 137.373L9.373 214.627C3.371 220.629 0 228.768 0 237.254V416C0 451.346 28.654 480 64 480H448C483.346 480 512 451.346 512 416V237.254C512 228.768 508.629 220.629 502.627 214.627ZM176 88C176 83.594 179.594 80 184 80H328C332.406 80 336 83.594 336 88V128H176V88ZM115.883 176H396.119L464 243.883V296H376V280C376 266.745 365.255 256 352 256H352C338.745 256 328 266.745 328 280V296H184V280C184 266.745 173.255 256 160 256H160C146.745 256 136 266.745 136 280V296H48V243.883L115.883 176ZM448 432H64C55.163 432 48 424.837 48 416V344H136V360C136 373.255 146.745 384 160 384H160C173.255 384 184 373.255 184 360V344H328V360C328 373.255 338.745 384 352 384H352C365.255 384 376 373.255 376 360V344H464V416C464 424.837 456.837 432 448 432Z"/></svg>