<svg xmlns="http://www.w3.org/2000/svg" viewBox="0 0 512 512"><!-- Font Awesome Pro 6.0.0-alpha2 by @fontawesome - https://fontawesome.com License - https://fontawesome.com/license (Commercial License) --><path d="M112 288H400C409 288 416 281 416 272S409 256 400 256H112C103 256 96 263 96 272S103 288 112 288ZM333 149C322 136 306 128 289 128H224C206 128 190 136 179 149L121 224H391L333 149ZM256 96C282 96 304 74 304 48S282 0 256 0S208 22 208 48S230 96 256 96ZM336 320H176C167 320 160 327 160 336S167 352 176 352H336C345 352 352 345 352 336S345 320 336 320ZM392 464H352C352 455 345 448 336 448H176C167 448 160 455 160 464H120C107 464 96 475 96 488C96 501 107 512 120 512H392C405 512 416 501 416 488C416 475 405 464 392 464ZM510 364L480 352L468 322C467 321 466 320 464 320S461 321 460 322L448 352L418 364C417 365 416 366 416 368S417 371 418 372L448 384L460 414C461 415 462 416 464 416S467 415 468 414L480 384L510 372C511 371 512 370 512 368S511 365 510 364ZM94 44L64 32L52 2C51 1 50 0 48 0S45 1 44 2L32 32L2 44C1 45 0 46 0 48S1 51 2 52L32 64L44 94C45 95 46 96 48 96S51 95 52 94L64 64L94 52C95 51 96 50 96 48S95 45 94 44ZM336 384H176C167 384 160 391 160 400S167 416 176 416H336C345 416 352 409 352 400S345 384 336 384Z"/></svg>