<svg xmlns="http://www.w3.org/2000/svg" viewBox="0 0 512 512"><!-- Font Awesome Pro 6.0.0-alpha2 by @fontawesome - https://fontawesome.com License - https://fontawesome.com/license (Commercial License) --><path d="M392 464H120C106.746 464 96 474.744 96 488C96 501.254 106.746 512 120 512H392C405.254 512 416 501.254 416 488C416 474.744 405.254 464 392 464ZM93.75 172.375L64 160L51.625 130.25C50.875 128.875 49.5 128 48 128S45.125 128.875 44.375 130.25L32 160L2.25 172.375C0.875 173.125 0 174.5 0 176S0.875 178.875 2.25 179.625L32 192L44.375 221.75C45.125 223.125 46.5 224 48 224S50.875 223.125 51.625 221.75L64 192L93.75 179.625C95.125 178.875 96 177.5 96 176S95.125 173.125 93.75 172.375ZM176 160H336C344.844 160 352 152.844 352 144S344.844 128 336 128H176C167.156 128 160 135.156 160 144S167.156 160 176 160ZM224 32H288C296.844 32 304 24.844 304 16S296.844 0 288 0H224C215.156 0 208 7.156 208 16S215.156 32 224 32ZM509.75 44.375L480 32L467.625 2.25C466.875 0.875 465.5 0 464 0S461.125 0.875 460.375 2.25L448 32L418.25 44.375C416.875 45.125 416 46.5 416 48S416.875 50.875 418.25 51.625L448 64L460.375 93.75C461.125 95.125 462.5 96 464 96S466.875 95.125 467.625 93.75L480 64L509.75 51.625C511.125 50.875 512 49.5 512 48S511.125 45.125 509.75 44.375ZM336 416C344.844 416 352 408.844 352 400S344.844 384 336 384H176C167.156 384 160 391.156 160 400S167.156 416 176 416H336ZM400 256H112C103.156 256 96 263.156 96 272S103.156 288 112 288H400C408.844 288 416 280.844 416 272S408.844 256 400 256Z"/></svg>