<svg xmlns="http://www.w3.org/2000/svg" viewBox="0 0 448 512"><!-- Font Awesome Pro 6.0.0-alpha2 by @fontawesome - https://fontawesome.com License - https://fontawesome.com/license (Commercial License) --><path d="M424 80H349.625L315.625 23.25C306.875 8.875 291.25 0 274.375 0H173.625C156.75 0 141.125 8.875 132.375 23.25L98.375 80H24C10.745 80 0 90.745 0 104V104C0 117.255 10.745 128 24 128H32L53.25 467C54.75 492.25 75.75 512 101.125 512H346.875C372.25 512 393.25 492.25 394.75 467L416 128H424C437.255 128 448 117.255 448 104V104C448 90.745 437.255 80 424 80ZM173.625 48H274.375L293.625 80H154.375L173.625 48ZM346.875 464H101.125L80.125 128H367.875L346.875 464Z"/></svg>