<svg xmlns="http://www.w3.org/2000/svg" viewBox="0 0 448 512"><!-- Font Awesome Pro 6.0.0-alpha2 by @fontawesome - https://fontawesome.com License - https://fontawesome.com/license (Commercial License) --><path d="M424 80H349.625L315.625 23.25C306.984 8.826 291.406 0 274.592 0H173.408C156.594 0 141.016 8.826 132.375 23.25L98.375 80H24C10.746 80 0 90.744 0 104C0 117.254 10.746 128 24 128H32V448C32 483.346 60.654 512 96 512H352C387.346 512 416 483.346 416 448V128H424C437.254 128 448 117.254 448 104C448 90.744 437.254 80 424 80ZM171.875 50.875C172.875 49.125 174.875 48 177 48H271C273.125 48 275.125 49.125 276.125 50.875L293.625 80H154.375L171.875 50.875ZM368 448C368 456.836 360.836 464 352 464H96C87.164 464 80 456.836 80 448V128H368V448ZM201 354.75C205.438 358.281 210.719 360 216 360C223.031 360 230 356.906 234.75 351C243.031 340.656 241.344 325.531 231 317.25L204.422 296H248C270.062 296 288 313.938 288 336V376C288 389.25 298.75 400 312 400S336 389.25 336 376V336C336 287.469 296.531 248 248 248H204.422L231 226.75C241.344 218.469 243.031 203.344 234.75 193C226.438 182.688 211.375 181.031 201 189.25L121 253.25C115.312 257.812 112 264.719 112 272S115.312 286.188 121 290.75L201 354.75Z"/></svg>