<svg xmlns="http://www.w3.org/2000/svg" viewBox="0 0 448 512"><!-- Font Awesome Pro 6.0.0-alpha2 by @fontawesome - https://fontawesome.com License - https://fontawesome.com/license (Commercial License) --><path d="M201 354.75C205.438 358.281 210.719 360 216 360C223.031 360 230 356.906 234.75 351C243.031 340.656 241.344 325.531 231 317.25L204.422 296H240C262.062 296 280 313.938 280 336V360C280 373.25 290.75 384 304 384S328 373.25 328 360V336C328 287.469 288.531 248 240 248H204.422L231 226.75C241.344 218.469 243.031 203.344 234.75 193C226.438 182.688 211.375 181.031 201 189.25L121 253.25C115.312 257.812 112 264.719 112 272S115.312 286.188 121 290.75L201 354.75ZM424 80H349.625L315.625 23.25C306.875 8.875 291.25 0 274.375 0H173.625C156.75 0 141.125 8.875 132.375 23.25L98.375 80H24C10.746 80 0 90.744 0 104C0 117.254 10.746 128 24 128H32L53.25 467C54.75 492.25 75.75 512 101.125 512H346.875C372.25 512 393.25 492.25 394.75 467L416 128H424C437.254 128 448 117.254 448 104C448 90.744 437.254 80 424 80ZM173.625 48H274.375L293.625 80H154.375L173.625 48ZM346.875 464H101.125L80.125 128H367.875L346.875 464Z"/></svg>