<svg xmlns="http://www.w3.org/2000/svg" viewBox="0 0 576 512"><!-- Font Awesome Pro 6.0.0-alpha2 by @fontawesome - https://fontawesome.com License - https://fontawesome.com/license (Commercial License) --><path d="M284.6 464H101.125L80.125 128H367.875L362.996 206.07C378.303 199.539 394.74 195.182 411.912 193.229L416 128H424C437.256 128 448 117.254 448 104C448 90.744 437.256 80 424 80H349.625L315.625 23.25C306.875 8.875 291.25 0 274.375 0H173.625C156.75 0 141.125 8.875 132.375 23.25L98.375 80H24C10.746 80 0 90.744 0 104C0 117.254 10.746 128 24 128H32L53.25 467C54.75 492.25 75.75 512 101.125 512H331.002C312.645 499.1 296.879 482.814 284.6 464ZM173.625 48H274.375L293.625 80H154.375L173.625 48ZM432 224C352.375 224 288 288.375 288 368S352.375 512 432 512S576 447.625 576 368S511.625 224 432 224ZM480 384H425.75C420.375 384 416 379.625 416 374.25V304C416 295.164 423.164 288 432 288C440.838 288 448 295.164 448 304V352H480C488.838 352 496 359.164 496 368S488.838 384 480 384Z"/></svg>