<svg xmlns="http://www.w3.org/2000/svg" viewBox="0 0 512 512"><!-- Font Awesome Pro 6.0.0-alpha2 by @fontawesome - https://fontawesome.com License - https://fontawesome.com/license (Commercial License) --><path d="M500.206 432.625L453.715 378.875C462.838 374.25 470.462 366.75 475.211 357.125C483.209 340.625 481.085 320.875 469.712 306.5L413.597 235C423.47 230 431.469 221.75 436.093 211.125C443.716 193.5 440.092 173.125 426.844 159.125L290.869 15.125C281.745 5.375 269.248 0 256 0C242.752 0 230.255 5.375 221.131 15L85.156 159C71.908 172.875 68.284 193.375 75.907 211C80.531 221.625 88.53 229.875 98.403 234.875L42.288 306.375C30.79 320.75 28.791 340.5 36.789 357C41.538 366.625 49.162 374.25 58.285 378.75L11.794 432.5C-0.579 446.75 -3.453 466.75 4.295 483.875C12.169 501 29.291 512 48.037 512H463.963C482.709 512 499.831 501 507.705 483.875C515.453 466.75 512.579 446.75 500.206 432.625ZM48.037 464L158.892 336H80.032L193.136 192H120.024L256 48L391.976 192H318.864L431.968 336H353.108L463.963 464H48.037Z"/></svg>