<svg xmlns="http://www.w3.org/2000/svg" viewBox="0 0 576 512"><!-- Font Awesome Pro 6.0.0-alpha2 by @fontawesome - https://fontawesome.com License - https://fontawesome.com/license (Commercial License) --><path d="M416.744 64C377.371 64 341.748 75.75 313.749 94.5C295.125 40.125 233.378 0 159.256 0C78.635 0 11.888 47.25 0.263 108.875C-1.612 118.75 6.763 128 18.012 128H64.01L96.009 80L129.507 146.875C125.882 150 122.133 152.625 118.758 156C61.76 213 48.011 293.625 83.384 345.374C89.134 353.749 101.509 354.374 109.508 346.374L234.377 221.5C236.502 320.624 213.503 417.749 201.504 461.499C194.504 486.624 213.128 511.999 239.627 511.999H329.998C349.622 512.124 366.246 497.874 369.371 478.499C386.245 373.624 367.621 260.5 351.872 192H415.994L447.993 144L479.991 192H557.988C569.237 192 577.612 182.75 575.737 172.875C564.112 111.25 497.365 64 416.744 64ZM322.998 463.999H250.502C264.876 409.499 288.25 300.249 280.75 192H302.499C317.249 253.625 337.498 363.874 322.998 463.999Z"/></svg>