<svg xmlns="http://www.w3.org/2000/svg" viewBox="0 0 448 512"><!-- Font Awesome Pro 6.0.0-alpha2 by @fontawesome - https://fontawesome.com License - https://fontawesome.com/license (Commercial License) --><path d="M434.714 357.906L398.98 316.688C405.668 311.75 411.152 305.156 414.824 297.219C423.121 279.344 420.339 258.875 407.527 243.688L376.496 207.25C381.074 203.094 384.793 198 387.339 192.219C394.261 176.469 391.214 158.687 379.402 145.844L258.996 15.031C250.199 5.469 237.48 0 224.074 0H224.058C210.652 0 197.933 5.5 189.183 15.031L68.824 145.844C57.027 158.719 53.996 176.469 60.918 192.219C63.449 198 67.152 203.062 71.714 207.219L40.558 243.781C27.808 258.875 25.043 279.375 33.339 297.219C37.027 305.156 42.496 311.781 49.168 316.688L13.464 357.906C-0.754 374.281 -3.973 396.75 5.058 416.531C13.918 435.938 32.527 448 53.636 448H200.316L200.355 488.031C200.371 501.281 211.105 512 224.355 512C224.355 512 224.371 512 224.386 512C237.636 512 248.371 501.219 248.355 487.969L248.316 448H394.449C415.558 448 434.183 435.938 443.043 416.531C452.074 396.719 448.886 374.25 434.714 357.906ZM399.371 396.594C398.339 398.844 396.683 400 394.449 400H248.269L248.248 377.748L289.027 336.969C298.402 327.594 298.402 312.406 289.027 303.031S264.464 293.656 255.089 303.031L248.181 309.939L248.058 183.969C248.043 170.719 237.308 160 224.058 160C224.058 160 224.043 160 224.027 160C210.777 160 200.043 170.781 200.058 184.031L200.103 230.107L193.027 223.031C183.652 213.656 168.464 213.656 159.089 223.031S149.714 247.594 159.089 256.969L200.169 298.049L200.238 367.082C200.214 367.709 200.214 368.301 200.238 368.928L200.269 400H53.636C51.402 400 49.761 398.875 48.73 396.625C48.043 395.125 47.261 392.187 49.73 389.344L145.746 278.562H79.605L165.261 171.406H110.498L223.668 47.531L337.699 171.406H282.98L368.543 278.563H302.418L398.433 389.344C400.855 392.125 400.058 395.094 399.371 396.594Z"/></svg>