<svg xmlns="http://www.w3.org/2000/svg" viewBox="0 0 512 512"><!-- Font Awesome Pro 6.0.0-alpha2 by @fontawesome - https://fontawesome.com License - https://fontawesome.com/license (Commercial License) --><path d="M500.207 432.625L453.715 378.875C462.838 374.25 470.461 366.75 475.211 357.125C483.209 340.625 481.084 320.875 469.711 306.5L413.597 235C423.47 230 431.468 221.75 436.092 211.125C443.717 193.5 440.092 173.125 426.843 159.125L290.869 15.125C281.746 5.375 269.248 0 256 0S230.254 5.375 221.131 15L85.156 159C71.908 172.875 68.283 193.375 75.908 211C80.531 221.625 88.529 229.875 98.402 234.875L42.289 306.375C30.791 320.75 28.791 340.5 36.789 357C41.539 366.625 49.162 374.25 58.285 378.75L11.793 432.5C-0.578 446.75 -3.453 466.75 4.295 483.875C12.168 501 29.291 512 48.037 512H463.963C482.709 512 499.832 501 507.705 483.875C515.453 466.75 512.578 446.75 500.207 432.625ZM48.037 464L158.892 336H80.031L193.136 192H120.023L256 48L391.976 192H318.863L431.968 336H353.107L463.963 464H48.037ZM192 264C178.746 264 168 274.744 168 288C168 301.254 178.746 312 192 312S216 301.254 216 288C216 274.744 205.254 264 192 264ZM320 392C306.746 392 296 402.744 296 416C296 429.254 306.746 440 320 440S344 429.254 344 416C344 402.744 333.254 392 320 392ZM312 160C312 146.744 301.254 136 288 136S264 146.744 264 160C264 173.254 274.746 184 288 184S312 173.254 312 160Z"/></svg>