<svg xmlns="http://www.w3.org/2000/svg" viewBox="0 0 640 512"><!-- Font Awesome Pro 6.0.0-alpha2 by @fontawesome - https://fontawesome.com License - https://fontawesome.com/license (Commercial License) --><path d="M618.963 201.081L535 117.116C521.475 103.588 503.129 95.99 484 95.99H432C405.49 95.99 384 117.481 384 143.992V220.337L195.656 13.125C188.094 4.781 177.25 0 165.875 0H96C92.684 0 89.525 0.676 86.652 1.893C73.635 5.953 64 17.67 64 32.001V176.004C64 184.832 56.812 192.004 48 192.004S32 184.832 32 176.004V156.8C32 147.957 24.844 140.8 16 140.8S0 147.957 0 156.8V176.004C0 202.473 21.531 224.005 48 224.005S96 202.473 96 176.004V62.503L182.066 239.994H48C21.49 239.994 0 261.484 0 287.995V367.997C0 394.507 21.49 415.998 48 415.998H64C64 469.019 106.98 512 160 512S256 469.019 256 415.998H384C384 469.019 426.98 512 480 512S576 469.019 576 415.998H592C618.51 415.998 640 394.507 640 367.997V251.869C640 232.82 632.434 214.55 618.963 201.081ZM484 143.992C490.445 143.992 496.502 146.499 501.059 151.058L585.025 235.025C586.473 236.472 587.342 238.277 588.355 239.994H432V143.992H484ZM142.309 48.001H162.5L337.023 239.994H235.406L142.309 48.001ZM160 463.999C133.533 463.999 112 442.465 112 415.998S133.533 367.997 160 367.997S208 389.53 208 415.998S186.467 463.999 160 463.999ZM242.686 367.997C226.055 339.422 195.443 319.996 160 319.996S93.945 339.422 77.314 367.997H48V287.995H384V367.997H242.686ZM480 463.999C453.533 463.999 432 442.465 432 415.998S453.533 367.997 480 367.997S528 389.53 528 415.998S506.467 463.999 480 463.999ZM562.686 367.997C546.055 339.422 515.443 319.996 480 319.996C462.424 319.996 446.17 325.064 432 333.31V287.995H592V367.997H562.686Z"/></svg>