<svg xmlns="http://www.w3.org/2000/svg" viewBox="0 0 512 512"><!-- Font Awesome Pro 6.0.0-alpha2 by @fontawesome - https://fontawesome.com License - https://fontawesome.com/license (Commercial License) --><path d="M112 320C94.328 320 80 334.326 80 352C80 369.672 94.328 384 112 384S144 369.672 144 352C144 334.326 129.672 320 112 320ZM400 320C382.328 320 368 334.326 368 352C368 369.672 382.328 384 400 384S432 369.672 432 352C432 334.326 417.672 320 400 320ZM424 0H88C39.469 0 0 39.469 0 88V400C0 423.629 12.951 444.037 32 455.123V512C32 529.672 46.326 544 64 544S96 529.672 96 512V464H416V512C416 529.672 430.326 544 448 544S480 529.672 480 512V455.123C499.049 444.037 512 423.629 512 400V88C512 39.469 472.531 0 424 0ZM464 352V400C464 408.822 456.822 416 448 416H64C55.178 416 48 408.822 48 400V352V336C48 309.533 69.533 288 96 288H416C442.467 288 464 309.533 464 336V352ZM105.844 240L134.188 169.141C140.297 153.875 154.875 144 171.328 144H340.672C357.125 144 371.703 153.875 377.812 169.141L406.156 240H105.844ZM464 253.432C463.635 253.219 463.309 252.949 462.939 252.74L422.375 151.328C408.938 117.719 376.859 96 340.672 96H171.328C135.141 96 103.062 117.719 89.625 151.328L49.061 252.74C48.691 252.949 48.365 253.219 48 253.432V88C48 65.938 65.938 48 88 48H424C446.062 48 464 65.938 464 88V253.432Z"/></svg>