<svg xmlns="http://www.w3.org/2000/svg" viewBox="0 0 640 512"><!-- Font Awesome Pro 6.0.0-alpha2 by @fontawesome - https://fontawesome.com License - https://fontawesome.com/license (Commercial License) --><path d="M616 368H608V251.875C608 232.826 600.434 214.557 586.963 201.088L503 117.125C489.475 103.598 471.129 96 452 96H400C382.326 96 368 110.326 368 128V368H242.75C226.125 339.375 195.5 320 160 320S93.875 339.375 77.25 368H24C10.746 368 0 378.744 0 392C0 405.254 10.746 416 24 416H64C64 469 107 512 160 512S256 469 256 416H384C384 469 427 512 480 512S576 469 576 416H616C629.199 416 640 405.199 640 392C640 378.799 629.199 368 616 368ZM160 464C133.5 464 112 442.5 112 416S133.5 368 160 368S208 389.5 208 416S186.5 464 160 464ZM416 144H452.125C458.375 144 464.625 146.625 469.125 151L542.125 224H416V144ZM480 464C453.5 464 432 442.5 432 416S453.5 368 480 368S528 389.5 528 416S506.5 464 480 464ZM560 363.125C542.75 337.25 513.375 320 480 320C455.25 320 433 329.625 416 344.875V272H560V363.125Z"/></svg>