<svg xmlns="http://www.w3.org/2000/svg" viewBox="0 0 640 512"><!-- Font Awesome Pro 6.0.0-alpha2 by @fontawesome - https://fontawesome.com License - https://fontawesome.com/license (Commercial License) --><path d="M480.299 320.25L382.098 278.172C360.693 268.893 335.459 275.064 320.896 293.125L293.461 326.625C248.68 300.875 211.166 263.377 185.416 218.627L218.963 191.143C236.867 176.518 243.055 151.439 233.977 130.096L191.729 31.533C181.572 8.33 156.387 -4.326 131.855 1.346L40.607 22.408C16.703 27.861 0 48.83 0 73.393C0 315.25 196.744 512 438.58 512C463.143 512 484.111 495.312 489.58 471.469L510.641 380.125C516.359 355.469 503.609 330.312 480.299 320.25ZM463.877 369.312L442.799 460.719C442.33 462.719 440.689 464 438.58 464C223.213 464 47.998 288.781 47.998 73.393C47.998 71.299 49.295 69.658 51.342 69.189L142.684 48.111C142.996 48.033 143.324 48.002 143.637 48.002C145.371 48.002 146.996 49.049 147.684 50.611L189.822 148.939C190.572 150.705 190.072 152.768 188.572 154.002L139.793 193.971C131.168 201.033 128.543 213.111 133.449 223.111C166.463 290.344 221.713 345.562 288.992 378.594C298.99 383.5 311.084 380.875 318.146 372.25L358.162 323.375C359.271 321.969 361.348 321.437 363.082 322.25L461.346 364.344C463.221 365.156 464.346 367.344 463.893 369.312H463.877ZM412.037 64H452.033C458.658 64 464.031 58.625 464.031 52V12C464.031 5.375 458.658 0 452.033 0H412.037C405.414 0 400.039 5.375 400.039 12V52C400.039 58.625 405.414 64 412.037 64ZM316.049 64H356.045C362.668 64 368.043 58.625 368.043 52V12C368.043 5.375 362.668 0 356.045 0H316.049C309.424 0 304.051 5.375 304.051 12V52C304.051 58.625 309.424 64 316.049 64ZM316.049 160H356.045C362.668 160 368.043 154.625 368.043 148V108C368.043 101.375 362.668 96 356.045 96H316.049C309.424 96 304.051 101.375 304.051 108V148C304.051 154.625 309.424 160 316.049 160ZM548.023 0H508.027C501.402 0 496.029 5.375 496.029 12V52C496.029 58.625 501.402 64 508.027 64H548.023C554.646 64 560.021 58.625 560.021 52V12C560.021 5.375 554.646 0 548.023 0ZM644.002 0H604.006C597.381 0 592.008 5.375 592.008 12V52C592.008 58.625 597.381 64 604.006 64H644.002C650.625 64 656 58.625 656 52V12C656 5.375 650.625 0 644.002 0ZM548.012 96H412.037C405.414 96 400.039 101.375 400.039 108V148C400.039 154.625 405.414 160 412.037 160H548.012C554.637 160 560.01 154.625 560.01 148V108C560.01 101.375 554.637 96 548.012 96ZM644.002 96H604.006C597.381 96 592.008 101.375 592.008 108V148C592.008 154.625 597.381 160 604.006 160H644.002C650.625 160 656 154.625 656 148V108C656 101.375 650.625 96 644.002 96Z"/></svg>