<svg xmlns="http://www.w3.org/2000/svg" viewBox="0 0 384 512"><!-- Font Awesome Pro 6.0.0-alpha2 by @fontawesome - https://fontawesome.com License - https://fontawesome.com/license (Commercial License) --><path d="M383.974 281.094C378.912 392.625 287.49 480 175.818 480H88.006C74.756 480 64.006 469.25 64.006 456V270.17L30.193 279.188C28.115 279.734 26.037 280 23.99 280C13.381 280 3.678 272.922 0.818 262.188C-2.604 249.375 5.021 236.219 17.818 232.812L64.006 220.496V174.17L30.193 183.188C28.115 183.734 26.037 184 23.99 184C13.381 184 3.678 176.922 0.818 166.188C-2.604 153.375 5.021 140.219 17.818 136.812L64.006 124.496V56C64.006 42.75 74.756 32 88.006 32S112.006 42.75 112.006 56V111.695L257.818 72.812C270.662 69.375 283.787 77.016 287.193 89.812C290.615 102.625 282.99 115.781 270.193 119.188L112.006 161.371V207.695L257.818 168.812C270.662 165.406 283.787 173 287.193 185.812C290.615 198.625 282.99 211.781 270.193 215.188L112.006 257.371V432H175.818C261.756 432 332.13 364.75 336.037 278.906C336.63 265.688 347.646 254.875 361.099 256.031C374.334 256.625 384.584 267.844 383.974 281.094Z"/></svg>