<svg xmlns="http://www.w3.org/2000/svg" viewBox="0 0 640 512"><!-- Font Awesome Pro 6.0.0-alpha2 by @fontawesome - https://fontawesome.com License - https://fontawesome.com/license (Commercial License) --><path d="M497.438 242.484C492.643 249.936 488.354 257.531 484.582 264.863C511.783 305.047 528 348.523 528 384C528 434.625 488.752 464 288.004 464C288.002 464 288.002 464 288 464S287.998 464 287.996 464C87.248 464 48 434.625 48 384C48 294.186 151.375 153.309 276.275 144.814C291.693 140.074 304.855 138.545 317.594 137.203C335.25 135.344 353.516 133.422 384.562 121C385.828 120.494 386.912 119.906 388.15 119.385C356.914 104.873 323.273 96 288.004 96C288.002 96 288.002 96 288 96S287.998 96 287.996 96C128.998 96 0 269.125 0 384S128.998 512 287.996 512C287.998 512 287.998 512 288 512S288.002 512 288.004 512C447.002 512 576 498.875 576 384C576 334.715 552.135 274.76 512.465 222.303C507.473 228.086 502.457 234.676 497.438 242.484ZM567.031 79.17C589.393 43.287 562.23 -1.037 519.807 0.018C485.197 0.85 460.023 34.002 469.701 66.949C473.887 80.979 471.336 93.977 462.025 106.699C450.107 122.938 426.814 138.566 396.439 150.723C330.256 177.189 312.682 161.832 269.271 181.57C189.76 217.186 184.82 313.324 234.93 364.043C296.209 426.768 411.49 403.537 434.104 305.32C436.85 293.373 449.365 258.066 470.521 225.184C481.459 208.174 492.812 194.746 504.275 185.287C517.855 174.066 537.049 163.906 558.771 173.352C592.305 187.412 635.887 177.834 639.807 132.117C643.111 92.951 603.365 64.789 567.031 79.17Z"/></svg>