<svg xmlns="http://www.w3.org/2000/svg" viewBox="0 0 576 512"><!-- Font Awesome Pro 6.0.0-alpha2 by @fontawesome - https://fontawesome.com License - https://fontawesome.com/license (Commercial License) --><path d="M107.222 330.797C95.534 324.547 81.003 329.094 74.784 340.766L2.784 476.766C-3.403 488.484 1.066 503.016 12.784 509.203C16.347 511.109 20.191 512 23.972 512C32.597 512 40.909 507.359 45.222 499.234L117.222 363.234C123.409 351.516 118.941 336.984 107.222 330.797ZM501.222 340.766C495.034 329.094 480.472 324.547 468.784 330.797C457.066 336.984 452.597 351.516 458.784 363.234L530.784 499.234C535.097 507.359 543.409 512 552.034 512C555.816 512 559.659 511.109 563.222 509.203C574.941 503.016 579.409 488.484 573.222 476.766L501.222 340.766ZM576.003 196C576.003 142.117 512.394 105.355 427.972 86.578C401.101 35.336 348.786 0 288.003 0S174.905 35.336 148.034 86.578C63.612 105.355 0.003 142.117 0.003 196C0.003 277.406 144.878 320 288.003 320S576.003 277.406 576.003 196ZM288.003 48C346.534 48 394.691 94.781 398.847 155.734C330.878 182.359 244.753 182.328 176.847 155.609C180.441 95.656 228.909 48 288.003 48ZM288.003 272C141.503 272 48.003 226.984 48.003 196C48.003 178.434 78.107 156.375 130.827 140.549C129.833 147.881 128.628 155.158 128.628 162.766C128.628 165.656 128.941 168.422 129.534 173.25C130.097 182.078 135.472 189.906 143.503 193.594C186.972 213.484 236.941 224 288.003 224S389.034 213.484 432.503 193.594C440.534 189.906 446.159 180.016 446.691 171.188C447.066 168.422 447.378 165.656 447.378 162.766C447.378 155.158 446.173 147.881 445.179 140.549C497.9 156.375 528.003 178.434 528.003 196C528.003 226.984 434.503 272 288.003 272Z"/></svg>