<svg xmlns="http://www.w3.org/2000/svg" viewBox="0 0 640 512"><!-- Font Awesome Pro 6.0.0-alpha2 by @fontawesome - https://fontawesome.com License - https://fontawesome.com/license (Commercial License) --><path d="M443.517 18.069C409.764 5.732 375.262 0 341.386 0C251.003 0 164.621 41.371 107.993 112.025C101.241 120.374 105.241 132.96 115.368 136.573C303.109 203.573 447.451 258.263 618.406 319.128C620.157 319.751 622.03 320.125 623.907 320.125C632.157 320.125 639.782 313.77 639.907 305.047C643.032 180.686 567.151 62.928 443.517 18.069ZM177.997 108.411C220.875 71.9 275.755 50.343 332.509 48.224C328.008 51.963 295.631 76.636 262.255 138.941L177.997 108.411ZM452.642 208.1L307.383 155.39C321.633 130.218 338.009 108.162 355.511 91.589C380.889 67.664 405.639 57.57 423.017 63.925C440.517 70.28 452.767 93.707 456.77 128.349C459.645 152.399 457.895 179.564 452.642 208.1ZM497.773 224.424C505.148 189.533 509.898 147.664 501.898 106.542C547.651 144.673 579.029 197.882 588.779 257.446L497.773 224.424ZM576.015 488.075C576.015 501.283 565.265 512 552.014 512L24.001 510.405C10.75 510.405 0 499.689 0 486.48C0 473.271 10.75 462.555 24.001 462.555L252.034 463.244L330.382 248.462C341.126 252.397 351.978 256.369 362.609 260.265C366.933 261.85 371.142 263.39 375.443 264.965L303.059 463.398L552.014 464.15C565.265 464.15 576.015 474.866 576.015 488.075Z"/></svg>