<svg xmlns="http://www.w3.org/2000/svg" viewBox="0 0 512 512"><!-- Font Awesome Pro 6.0.0-alpha2 by @fontawesome - https://fontawesome.com License - https://fontawesome.com/license (Commercial License) --><path d="M232.001 440C232.001 453.219 221.219 464 208.001 464S184.001 453.219 184.001 440C184.001 426.75 173.251 416 160.001 416S136.001 426.75 136.001 440C136.001 479.688 168.313 512 208.001 512S280.001 479.688 280.001 440V320H232.001V440ZM280.001 33.096V23.662C280.001 10.594 269.407 0 256.337 0H255.665C242.594 0 232.001 10.594 232.001 23.662V33.096C112.78 43.984 17.03 135.188 0.319 251.625C-2.435 270.812 13.003 288 32.555 288H479.446C498.999 288 514.436 270.812 511.682 251.625C494.971 135.188 399.221 43.984 280.001 33.096ZM51.354 240C73.477 147.582 158.315 80 256.001 80S438.524 147.582 460.647 240H51.354Z"/></svg>