<svg xmlns="http://www.w3.org/2000/svg" viewBox="0 0 512 512"><!-- Font Awesome Pro 6.0.0-alpha2 by @fontawesome - https://fontawesome.com License - https://fontawesome.com/license (Commercial License) --><path d="M183.027 295.031L101.652 376.406L54.623 329.379C48.496 323.262 40.326 320.027 31.994 320.027C27.877 320.027 23.719 320.82 19.75 322.441C7.781 327.395 0 339.066 0 352V488C0 501.254 10.744 512 24 512H159.998C172.936 512 184.623 504.203 189.561 492.25C194.529 480.281 191.779 466.531 182.623 457.375L135.59 410.344L216.965 328.969C226.34 319.594 226.34 304.406 216.965 295.031S192.402 285.656 183.027 295.031ZM487.996 0H351.998C339.061 0 327.373 7.797 322.436 19.75C317.467 31.719 320.217 45.469 329.373 54.625L376.406 101.656L295.031 183.031C285.656 192.406 285.656 207.594 295.031 216.969S319.594 226.344 328.969 216.969L410.344 135.594L457.373 182.621C463.5 188.738 471.67 191.973 480.002 191.973C484.119 191.973 488.277 191.18 492.246 189.559C504.215 184.605 511.996 172.934 511.996 160V24C511.996 10.746 501.252 0 487.996 0Z"/></svg>