<svg xmlns="http://www.w3.org/2000/svg" viewBox="0 0 384 512"><!-- Font Awesome Pro 6.0.0-alpha2 by @fontawesome - https://fontawesome.com License - https://fontawesome.com/license (Commercial License) --><path d="M360 32H24C10.75 32 0 42.75 0 56S10.75 80 24 80H360C373.25 80 384 69.25 384 56S373.25 32 360 32ZM214.25 137.375C208 131.125 199.812 128 191.625 128S175.25 131.125 169 137.375L33.092 287.824C5.207 318.691 27.113 368 68.711 368H111.625V432C111.625 458.508 133.115 480 159.625 480H223.625C250.135 480 271.625 458.508 271.625 432V368H314.912C356.543 368 378.436 318.629 350.488 287.773L214.25 137.375ZM223.625 320V432H159.625V320H70.258L191.625 182.633L312.992 320H223.625Z"/></svg>