<svg xmlns="http://www.w3.org/2000/svg" viewBox="0 0 640 512"><!-- Font Awesome Pro 6.0.0-alpha2 by @fontawesome - https://fontawesome.com License - https://fontawesome.com/license (Commercial License) --><path d="M416 96H64C28.654 96 0 124.654 0 160V352C0 387.346 28.654 416 64 416H416C433.674 416 448 401.674 448 384V128C448 110.326 433.674 96 416 96ZM400 368H64C55.178 368 48 360.822 48 352V160C48 151.178 55.178 144 64 144H400V368ZM608 128H480V384H608C625.674 384 640 369.672 640 352V160C640 142.326 625.674 128 608 128ZM584 312C584 320.875 576.875 328 568 328H552C543.125 328 536 320.875 536 312V296C536 287.125 543.125 280 552 280H568C576.875 280 584 287.125 584 296V312ZM584 216C584 224.875 576.875 232 568 232H552C543.125 232 536 224.875 536 216V200C536 191.125 543.125 184 552 184H568C576.875 184 584 191.125 584 200V216Z"/></svg>