<svg xmlns="http://www.w3.org/2000/svg" viewBox="0 0 640 512"><!-- Font Awesome Pro 6.0.0-alpha2 by @fontawesome - https://fontawesome.com License - https://fontawesome.com/license (Commercial License) --><path d="M224 256C294.693 256 352 198.691 352 128C352 57.307 294.693 0 224 0S96 57.307 96 128C96 198.691 153.307 256 224 256ZM224 48C268.111 48 304 83.887 304 128C304 172.111 268.111 208 224 208S144 172.111 144 128C144 83.887 179.889 48 224 48ZM323.6 464H48.994C56.895 400.945 110.84 352 176 352H272C299.908 352 325.455 361.367 346.512 376.586C357.658 364.734 371.844 355.102 388.309 348.148C357.281 320.756 316.645 304 272 304H176C78.797 304 0 382.797 0 480C0 497.672 14.326 512 32 512H355.193C339.818 498.9 328.807 482.482 323.6 464ZM601.725 160.631L505.725 179.832C490.768 182.824 480 195.957 480 211.211V372.408C469.945 369.727 459.281 368 448 368C394.98 368 352 400.234 352 440C352 479.764 394.98 512 448 512S544 479.764 544 440V300.176L614.275 286.121C629.232 283.131 640 269.996 640 254.742V192.01C640 171.816 621.525 156.672 601.725 160.631Z"/></svg>