<svg xmlns="http://www.w3.org/2000/svg" viewBox="0 0 448 512"><!-- Font Awesome Pro 6.0.0-alpha2 by @fontawesome - https://fontawesome.com License - https://fontawesome.com/license (Commercial License) --><path d="M32 192C59.25 192 83.75 180.5 101.25 162.25C116.25 216.25 165.25 256 224 256C294.75 256 352 198.75 352 128S294.75 0 224 0C173.625 0 130.375 29.375 109.5 71.75C92.125 47.75 64 32 32 32C32 65.375 49.125 94.75 75.125 112C49.125 129.25 32 158.625 32 192ZM176 96H272C289.75 96 304 110.25 304 128H144C144 110.25 158.25 96 176 96ZM447.684 464C450.426 376.445 388.402 303.002 305.795 288L224 397.059L142.205 288C59.604 303.002 -2.428 376.445 0.314 464H0C0 490.51 21.49 512 48 512H400C426.51 512 448 490.51 448 464H447.684ZM48.338 464L48.291 462.496C46.635 409.588 77.17 363.16 123.701 343.326L185.6 425.859L214.207 464H48.338ZM399.67 464H233.793L262.4 425.859L324.301 343.326C370.828 363.16 401.363 409.586 399.707 462.496L399.67 464Z"/></svg>