<svg xmlns="http://www.w3.org/2000/svg" viewBox="0 0 448 512"><!-- Font Awesome Pro 6.0.0-alpha2 by @fontawesome - https://fontawesome.com License - https://fontawesome.com/license (Commercial License) --><path d="M272 304H176C78.797 304 0 382.797 0 480C0 497.672 14.326 512 32 512H416C433.674 512 448 497.672 448 480C448 382.797 369.203 304 272 304ZM48.994 464C56.895 400.945 110.84 352 176 352H272C337.16 352 391.105 400.945 399.006 464H48.994ZM224 256C294.693 256 352 198.691 352 128C352 57.307 294.693 0 224 0S96 57.307 96 128C96 198.691 153.307 256 224 256ZM224 48C268.111 48 304 83.887 304 128C304 172.111 268.111 208 224 208S144 172.111 144 128C144 83.887 179.889 48 224 48Z"/></svg>