<svg xmlns="http://www.w3.org/2000/svg" viewBox="0 0 448 512"><!-- Font Awesome Pro 6.0.0-alpha2 by @fontawesome - https://fontawesome.com License - https://fontawesome.com/license (Commercial License) --><path d="M378.799 339.734L414.062 257.453C417.25 250.031 416.469 241.516 412.031 234.781S400.062 224 392 224H347.475C350.139 213.715 352 203.117 352 192C352 182.508 350.809 173.324 348.848 164.422C389.898 155.619 416 142.582 416 128C416 111.918 384.25 97.719 335.686 89.008C323.805 45.148 304.945 0 277.438 0C267.062 0 257.813 4.5 250.062 10.5C234.812 22.375 213.312 22.375 198.062 10.5C190.312 4.5 181.062 0 170.688 0C143.178 0 124.432 45.156 112.496 88.977C63.826 97.68 32 111.898 32 128C32 142.582 58.102 155.619 99.152 164.422C97.191 173.324 96 182.508 96 192C96 203.117 97.861 213.715 100.525 224H56C47.938 224 40.406 228.047 35.969 234.781S30.75 250.031 33.938 257.453L69.201 339.734C27.41 371.324 0 420.889 0 477.332C0 496.477 15.523 512 34.664 512H413.336C432.477 512 448 496.477 448 477.332C448 420.885 420.59 371.32 378.799 339.734ZM224 272C189.586 272 160.438 250.035 149.17 219.484C154.418 222.143 160.117 224 166.416 224H178.75C195.209 224 209.039 213.605 214.385 199.008C215.895 194.887 219.611 192 224 192S232.105 194.887 233.615 199.008C238.961 213.605 252.791 224 269.25 224H281.584C287.883 224 293.582 222.143 298.83 219.484C287.562 250.035 258.414 272 224 272ZM48.713 464C53.478 419.69 84.06 386.812 89.377 386.812L105.938 425.453C109.844 434.562 118.688 440 128 440C131.156 440 134.375 439.375 137.469 438.062C149.625 432.844 155.281 418.734 150.062 406.547L92.406 272H124.818C139.545 290.229 158.945 304.227 181.471 312.205L208 352L176 464H48.713ZM272 464L240 352L266.529 312.205C289.055 304.227 308.455 290.229 323.182 272H355.594L297.938 406.547C292.719 418.734 298.375 432.844 310.531 438.062C313.625 439.375 316.844 440 320 440C329.312 440 338.156 434.547 342.062 425.453L358.623 386.813C364.399 386.813 394.563 420.066 399.287 464H272Z"/></svg>