<svg xmlns="http://www.w3.org/2000/svg" viewBox="0 0 448 512"><!-- Font Awesome Pro 6.0.0-alpha2 by @fontawesome - https://fontawesome.com License - https://fontawesome.com/license (Commercial License) --><path d="M280 200C297.674 200 312 185.672 312 168C312 150.326 297.674 136 280 136C262.328 136 248 150.326 248 168C248 185.672 262.328 200 280 200ZM128 320H320C355.348 320 384 291.346 384 256V128C384 92.654 355.348 64 320 64H248V24C248 10.75 237.25 0 224 0S200 10.75 200 24V64H128C92.654 64 64 92.654 64 128V256C64 291.346 92.654 320 128 320ZM112 128C112 119.178 119.178 112 128 112H320C328.822 112 336 119.178 336 128V256C336 264.822 328.822 272 320 272H304V240H272V272H240V240H208V272H176V240H144V272H128C119.178 272 112 264.822 112 256V128ZM168 200C185.674 200 200 185.672 200 168C200 150.326 185.674 136 168 136C150.328 136 136 150.326 136 168C136 185.672 150.328 200 168 200ZM416 128V256C433.674 256 448 241.672 448 224V160C448 142.326 433.674 128 416 128ZM32 256V128C14.328 128 0 142.326 0 160V224C0 241.672 14.328 256 32 256ZM352 352H96C42.98 352 0 394.98 0 448V480C0 497.672 14.328 512 32 512H416C433.674 512 448 497.672 448 480V448C448 394.98 405.02 352 352 352ZM400 464H320C320 446.326 305.674 432 288 432H160C142.328 432 128 446.326 128 464H48V448C48 421.533 69.533 400 96 400H352C378.467 400 400 421.533 400 448V464Z"/></svg>