<svg xmlns="http://www.w3.org/2000/svg" viewBox="0 0 640 512"><!-- Font Awesome Pro 6.0.0-alpha2 by @fontawesome - https://fontawesome.com License - https://fontawesome.com/license (Commercial License) --><path d="M630.81 469.102L352.82 251.221C407.505 236.658 447.999 187.271 447.999 128C447.999 57.307 390.693 0 319.999 0C250.204 0 193.695 55.924 192.263 125.379L38.814 5.109C34.407 1.672 29.189 0 24.032 0C16.907 0 9.845 3.156 5.126 9.188C-3.061 19.625 -1.249 34.717 9.189 42.889L601.185 506.883C611.685 515.086 626.747 513.211 634.872 502.805C643.06 492.367 641.247 477.273 630.81 469.102ZM290.138 202.092L255.599 175.02C245.907 161.785 239.999 145.623 239.999 128C239.999 83.887 275.888 48 319.999 48S399.999 83.887 399.999 128C399.999 172.111 364.111 208 319.999 208C309.431 208 299.382 205.832 290.138 202.092ZM144.993 464C152.894 400.945 206.839 352 271.999 352H325.747L264.96 304.355C171.048 308.078 95.999 385.174 95.999 480C95.999 497.672 110.325 512 127.999 512H511.999C516.937 512 521.476 510.676 525.652 508.678L468.646 464H144.993Z"/></svg>