<svg xmlns="http://www.w3.org/2000/svg" viewBox="0 0 512 512"><!-- Font Awesome Pro 6.0.0-alpha2 by @fontawesome - https://fontawesome.com License - https://fontawesome.com/license (Commercial License) --><path d="M480 192H462.314C441.262 124.279 387.719 70.738 320 49.686V32C320 14.326 305.674 0 288 0H224C206.328 0 192 14.326 192 32V49.686C124.281 70.738 70.738 124.279 49.686 192H32C14.326 192 0 206.328 0 224V288C0 305.674 14.326 320 32 320H49.686C70.738 387.721 124.281 441.262 192 462.314V480C192 497.674 206.328 512 224 512H288C305.674 512 320 497.674 320 480V462.314C387.719 441.262 441.262 387.721 462.314 320H480C497.674 320 512 305.674 512 288V224C512 206.328 497.674 192 480 192ZM240 48H272V80H240V48ZM80 272H48V240H80V272ZM272 464H240V432H272V464ZM411.475 319.086C394.404 360.992 360.988 394.406 319.086 411.475C316.803 396.041 304.068 384 288 384H224C207.934 384 195.197 396.041 192.914 411.475C151.012 394.406 117.596 360.992 100.525 319.086C115.959 316.803 128 304.068 128 288V224C128 207.934 115.959 195.197 100.525 192.914C117.596 151.006 151.012 117.594 192.914 100.525C195.197 115.959 207.934 128 224 128H288C304.068 128 316.803 115.959 319.086 100.525C360.988 117.594 394.404 151.006 411.475 192.914C396.041 195.197 384 207.934 384 224V288C384 304.068 396.041 316.803 411.475 319.086ZM464 272H432V240H464V272Z"/></svg>