<svg xmlns="http://www.w3.org/2000/svg" viewBox="0 0 512 512"><!-- Font Awesome Pro 6.0.0-alpha2 by @fontawesome - https://fontawesome.com License - https://fontawesome.com/license (Commercial License) --><path d="M504.969 183.031L328.969 7.031C324.281 2.344 318.141 0 312 0S299.719 2.344 295.031 7.031C285.656 16.406 285.656 31.594 295.031 40.969L310.19 56.127L32.936 332.625C-5.814 371.375 -12.189 434.625 23.561 476.125C44.078 500 72.764 512 101.488 512H101.936C128.311 512 154.686 502 174.811 481.875L455.846 201.783L471.031 216.969C475.719 221.656 481.844 224 488 224S500.281 221.656 504.969 216.969C514.344 207.594 514.344 192.406 504.969 183.031ZM333.449 256H177.746L344.084 90.115L344.127 90.072L421.901 167.846L333.449 256Z"/></svg>