<svg xmlns="http://www.w3.org/2000/svg" viewBox="0 0 512 512"><!-- Font Awesome Pro 6.0.0-alpha2 by @fontawesome - https://fontawesome.com License - https://fontawesome.com/license (Commercial License) --><path d="M488 32H312C298.801 32 288 42.799 288 56C288 69.199 298.801 80 312 80H320V396.459C320 438.223 350.467 475.574 392.033 479.611C439.723 484.244 480 446.754 480 400V80H488C501.199 80 512 69.199 512 56C512 42.799 501.199 32 488 32ZM432 256H368V80H432V256ZM200 32H24C10.801 32 0 42.799 0 56C0 69.199 10.801 80 24 80H32V396.459C32 438.223 62.467 475.574 104.033 479.611C151.723 484.244 192 446.754 192 400V80H200C213.199 80 224 69.199 224 56C224 42.799 213.199 32 200 32ZM144 256H80V80H144V256Z"/></svg>