<svg xmlns="http://www.w3.org/2000/svg" viewBox="0 0 576 512"><!-- Font Awesome Pro 6.0.0-alpha2 by @fontawesome - https://fontawesome.com License - https://fontawesome.com/license (Commercial License) --><path d="M557.609 102.344C546.078 94.938 531.734 93.953 519.328 99.656L416 147.016V128C416 92.654 387.346 64 352 64H64C28.654 64 0 92.654 0 128V384C0 419.346 28.654 448 64 448H352C387.346 448 416 419.346 416 384V364.984L519.328 412.344C524.672 414.797 530.359 416.016 536.016 416.016C543.547 416.016 551.031 413.875 557.609 409.656C569.125 402.25 576 389.672 576 375.984V136.016C576 122.328 569.125 109.75 557.609 102.344ZM368 384C368 392.822 360.822 400 352 400H64C55.178 400 48 392.822 48 384V128C48 119.178 55.178 112 64 112H352C360.822 112 368 119.178 368 128V384ZM528 363.516L416 312.182V199.818L528 148.484V363.516ZM296 144H184C170.75 144 160 154.75 160 168S170.75 192 184 192H238.062L103.031 327.031C93.656 336.406 93.656 351.594 103.031 360.969C107.719 365.656 113.844 368 120 368S132.281 365.656 136.969 360.969L272 225.938V280C272 293.25 282.75 304 296 304S320 293.25 320 280V168C320 154.75 309.25 144 296 144Z"/></svg>