<svg xmlns="http://www.w3.org/2000/svg" viewBox="0 0 640 512"><!-- Font Awesome Pro 6.0.0-alpha2 by @fontawesome - https://fontawesome.com License - https://fontawesome.com/license (Commercial License) --><path d="M512.956 48C526.208 48 536.959 37.25 536.959 24S526.208 0 512.956 0S488.954 10.75 488.954 24S499.705 48 512.956 48ZM464.952 96C478.203 96 488.954 85.25 488.954 72S478.203 48 464.952 48C451.7 48 440.949 58.75 440.949 72S451.7 96 464.952 96ZM474.078 192.75L628.218 38.625C634.468 32.375 634.468 22.25 628.218 16L616.966 4.75C610.716 -1.5 600.59 -1.5 594.339 4.75L440.074 158.875C424.698 146 407.071 135.875 387.569 131.375C368.817 127 323.563 121.375 289.56 155.375C285.809 159 283.059 163.25 280.184 167.375C286.809 216.251 239.305 252.876 194.175 235.626C178.924 240.751 164.797 248.751 153.171 260.501C110.667 302.876 111.292 374.126 149.921 431.751L128.044 446.251C124.043 449.001 121.418 453.251 121.043 458.001C120.543 462.751 122.168 467.501 125.669 470.876L162.047 507.251C165.422 510.751 170.173 512.376 174.923 511.876C179.674 511.501 183.924 508.876 186.674 504.876L201.051 483.126C229.304 502.126 260.807 511.876 290.56 511.876C321.563 511.876 350.816 501.376 372.443 479.751C384.194 468.126 392.195 454.001 397.32 438.751C380.068 393.751 416.572 346.376 465.327 352.876C469.452 350.001 473.828 347.126 477.578 343.376C502.455 318.376 509.956 281.876 501.58 245.501C497.08 225.876 486.954 208.25 474.078 192.75ZM447.825 304.376C386.444 309.376 334.439 367.126 346.69 435.126C341.69 443.876 326.063 463.876 290.685 463.876C269.308 463.876 247.43 456.501 227.804 443.251L232.554 436.001C236.804 429.626 235.929 421.251 230.554 415.876L217.177 402.376C211.677 397.001 203.301 396.126 196.925 400.376L189.675 405.251C176.423 385.501 168.923 363.501 168.923 342.251C168.923 316.001 180.549 296.126 197.801 286.251C266.307 298.626 323.813 246.626 328.688 184.875C338.689 177.625 350.44 176 359.066 176C365.067 176 370.942 176.75 376.693 178.125C387.694 180.625 397.695 186.625 405.946 193.125L317.687 281.376C311.437 287.626 311.437 297.751 317.687 304.001L328.938 315.251C335.189 321.501 345.315 321.501 351.566 315.251L439.949 227.001C446.325 235.376 452.325 245.251 454.826 256.251C459.201 275.126 456.576 292.376 447.825 304.376ZM608.966 96C595.714 96 584.963 106.75 584.963 120S595.714 144 608.966 144C622.217 144 632.968 133.25 632.968 120S622.217 96 608.966 96ZM560.961 144C547.71 144 536.959 154.75 536.959 168S547.71 192 560.961 192S584.963 181.25 584.963 168S574.212 144 560.961 144ZM337.971 6.996C328.595 -2.379 313.406 -2.379 304.03 6.996L0 310.997C-9.376 320.372 -9.376 335.559 0 344.934C4.688 349.622 10.829 351.966 16.97 351.966S29.253 349.622 33.941 344.934L337.971 40.934C347.346 31.559 347.346 16.371 337.971 6.996Z"/></svg>