<svg xmlns="http://www.w3.org/2000/svg" viewBox="0 0 320 512"><!-- Font Awesome Pro 6.0.0-alpha2 by @fontawesome - https://fontawesome.com License - https://fontawesome.com/license (Commercial License) --><path d="M301.109 34.818C296.906 32.922 292.445 31.998 288.014 31.998C280.316 32 272.713 34.785 266.734 40.1L131.84 160.004H48C21.49 160.004 0 181.496 0 208.004V304.002C0 330.51 21.49 352.002 48 352.002H131.84L266.734 471.906C272.719 477.219 280.312 480 288 480C292.438 480 296.906 479.094 301.109 477.188C312.609 472.031 320 460.594 320 448V64.006C320 51.412 312.609 39.975 301.109 34.818ZM272 412.365L150.09 304.002H48V208.004H150.09L272 99.641V412.365Z"/></svg>