<svg xmlns="http://www.w3.org/2000/svg" viewBox="0 0 448 512"><!-- Font Awesome Pro 6.0.0-alpha2 by @fontawesome - https://fontawesome.com License - https://fontawesome.com/license (Commercial License) --><path d="M412.562 181.941C408.094 178.312 402.705 176.541 397.359 176.541C390.41 176.541 383.529 179.535 378.812 185.348C370.406 195.598 371.906 210.723 382.188 219.129C393.5 228.379 400 241.814 400 256.002S393.5 283.627 382.188 292.877C371.906 301.283 370.406 316.408 378.812 326.658C383.531 332.471 390.437 335.471 397.375 335.471C402.719 335.471 408.125 333.689 412.562 330.064C435.094 311.627 448 284.658 448 256.002C448 227.348 435.094 200.379 412.562 181.941ZM301.109 34.818C296.908 32.922 292.443 31.998 288.014 31.998C280.316 31.998 272.715 34.783 266.734 40.1L131.84 160.004H48C21.49 160.004 0 181.496 0 208.004V304.002C0 330.51 21.49 352.002 48 352.002H131.84L266.734 471.906C272.719 477.219 280.312 480 288 480C292.438 480 296.906 479.094 301.109 477.188C312.609 472.031 320 460.594 320 448V64.006C320 51.412 312.609 39.975 301.109 34.818ZM272 412.365L150.09 304.002H48V208.004H150.09L272 99.641V412.365Z"/></svg>