<svg xmlns="http://www.w3.org/2000/svg" viewBox="0 0 640 512"><!-- Font Awesome Pro 6.0.0-alpha2 by @fontawesome - https://fontawesome.com License - https://fontawesome.com/license (Commercial License) --><path d="M624.254 26.476C607.753 6.118 581.501 -3.624 555.749 1.247L406.738 29.098H398.488C387.487 20.606 373.986 15.985 359.985 15.985H279.98C266.104 15.985 252.478 20.606 241.477 29.098H233.226L84.216 1.247C58.589 -3.624 32.462 5.993 15.961 26.226C-0.54 46.458 -4.541 74.06 5.335 98.164L68.965 260.149C65.714 263.147 63.964 267.393 63.964 271.764V303.737C63.964 312.604 71.09 319.723 79.965 319.723H97.717C97.467 319.973 97.092 320.222 96.717 320.472C62.089 354.818 53.589 407.647 75.84 451.11C98.092 494.572 145.97 518.552 194.223 510.434C242.352 502.316 279.73 463.974 286.48 415.64H353.61C360.485 463.724 397.863 501.816 445.866 509.809C493.87 517.927 541.498 493.948 563.75 450.735C586.001 407.522 577.751 354.818 543.248 320.472C542.998 320.222 542.623 319.973 542.248 319.723H559.999C568.875 319.723 576 312.604 576 303.737V271.764C576 267.393 574.25 263.147 571 260.274L634.38 98.663C644.63 74.559 640.63 46.833 624.254 26.476ZM159.971 461.351C137.344 455.856 119.718 438.246 114.218 415.64H159.971V461.351ZM159.971 383.668H114.218C119.718 361.062 137.344 343.452 159.971 337.957V383.668ZM118.843 255.778L49.838 80.054C46.463 72.186 47.838 63.194 53.089 56.575C58.464 49.955 67.09 46.833 75.465 48.332L216.475 74.809C216.35 76.557 215.975 78.181 215.975 79.929V255.778H118.843ZM221.225 444.865C213.1 452.858 202.974 458.603 191.973 461.351V415.64H237.727C234.976 426.631 229.226 436.747 221.225 444.865ZM191.973 383.668V337.957C214.6 343.452 232.226 361.062 237.727 383.668H191.973ZM375.986 255.778H263.978V79.929C263.978 71.062 271.104 63.943 279.98 63.943H359.985C368.861 63.943 375.986 71.062 375.986 79.929V255.778ZM447.991 461.351C425.49 455.856 407.864 438.246 402.238 415.64H447.991V461.351ZM447.991 383.668H402.238C407.864 361.062 425.49 343.452 447.991 337.957V383.668ZM509.246 444.865C501.12 452.858 490.994 458.603 479.994 461.351V415.64H525.747C522.997 426.631 517.371 436.747 509.246 444.865ZM479.994 383.668V337.957C502.62 343.452 520.246 361.062 525.747 383.668H479.994ZM590.001 80.554L521.122 255.778H423.99V79.929C423.99 78.056 423.615 76.308 423.49 74.434L564.625 48.332C573 46.708 581.626 49.83 586.876 56.575C589.501 59.822 595.002 68.564 590.001 80.554Z"/></svg>