<svg xmlns="http://www.w3.org/2000/svg" viewBox="0 0 512 512"><!-- Font Awesome Pro 6.0.0-alpha2 by @fontawesome - https://fontawesome.com License - https://fontawesome.com/license (Commercial License) --><path d="M440 128H120C106.75 128 96 138.75 96 152S106.75 176 120 176H440C453.234 176 464 186.766 464 200V408C464 421.234 453.234 432 440 432H88C65.938 432 48 414.062 48 392V120C48 97.938 65.938 80 88 80H456C469.25 80 480 69.25 480 56S469.25 32 456 32H88C39.469 32 0 71.469 0 120V392C0 440.531 39.469 480 88 480H440C479.703 480 512 447.703 512 408V200C512 160.297 479.703 128 440 128ZM416 304C416 286.326 401.674 272 384 272S352 286.326 352 304C352 321.672 366.326 336 384 336S416 321.672 416 304Z"/></svg>