<svg xmlns="http://www.w3.org/2000/svg" viewBox="0 0 576 512"><!-- Font Awesome Pro 6.0.0-alpha2 by @fontawesome - https://fontawesome.com License - https://fontawesome.com/license (Commercial License) --><path d="M556.201 400.209C535.31 396.477 514.357 384.686 497.201 366.984C488.17 357.672 471.826 357.672 462.795 366.984C442.562 387.854 413.844 399.832 384 399.832S325.437 387.854 305.203 366.984C296.172 357.672 279.828 357.672 270.797 366.984C250.562 387.854 221.844 399.832 192 399.832C159.64 399.832 123.955 386.316 105.205 366.984C96.174 357.672 79.83 357.672 70.799 366.984C51.658 386.74 39.142 396.76 19.799 400.209C6.752 402.529 -1.951 415.041 0.377 428.133C2.689 441.209 15.033 449.959 28.205 447.621C54.392 442.949 72.939 430.861 89.205 416.186C117.205 435.926 155.203 447.998 192 447.998C226.89 447.998 260.812 436.459 288 415.809C342.312 457.061 425.422 457.123 479.795 415.967C500.404 432.334 523.951 443.373 547.795 447.621C549.217 447.873 550.638 447.998 552.029 447.998C563.435 447.998 573.56 439.799 575.623 428.133C577.951 415.041 569.248 402.529 556.201 400.209ZM556.201 256.209C535.31 252.477 514.357 240.686 497.201 222.984C488.17 213.672 471.826 213.672 462.795 222.984C442.562 243.854 413.844 255.832 384 255.832S325.437 243.854 305.203 222.984C296.172 213.672 279.828 213.672 270.797 222.984C250.562 243.854 221.844 255.832 192 255.832C159.64 255.832 123.955 242.316 105.205 222.984C96.174 213.672 79.83 213.672 70.799 222.984C51.658 242.74 39.142 252.76 19.799 256.209C6.752 258.529 -1.951 271.041 0.377 284.133C2.689 297.209 15.033 305.959 28.205 303.621C54.392 298.949 72.939 286.861 89.205 272.186C117.205 291.926 155.203 303.998 192 303.998C226.89 303.998 260.812 292.459 288 271.809C342.312 313.061 425.422 313.123 479.795 271.967C500.404 288.334 523.951 299.373 547.795 303.621C549.217 303.873 550.638 303.998 552.029 303.998C563.435 303.998 573.56 295.799 575.623 284.133C577.951 271.041 569.248 258.529 556.201 256.209ZM28.205 159.621C54.392 154.949 72.939 142.861 89.205 128.186C117.205 147.926 155.203 159.998 192 159.998C226.89 159.998 260.812 148.459 288 127.809C342.312 169.061 425.422 169.123 479.795 127.967C500.404 144.334 523.951 155.373 547.795 159.621C549.217 159.873 550.638 159.998 552.029 159.998C563.435 159.998 573.56 151.799 575.623 140.133C577.951 127.041 569.248 114.529 556.201 112.209C535.31 108.477 514.357 96.686 497.201 78.984C488.17 69.672 471.826 69.672 462.795 78.984C442.562 99.854 413.844 111.832 384 111.832S325.437 99.854 305.203 78.984C296.172 69.672 279.828 69.672 270.797 78.984C250.562 99.854 221.844 111.832 192 111.832C159.64 111.832 123.955 98.316 105.205 78.984C96.174 69.672 79.83 69.672 70.799 78.984C51.658 98.74 39.142 108.76 19.799 112.209C6.752 114.529 -1.951 127.041 0.377 140.133C2.689 153.209 15.033 161.959 28.205 159.621Z"/></svg>