<svg xmlns="http://www.w3.org/2000/svg" viewBox="0 0 640 512"><!-- Font Awesome Pro 6.0.0-alpha2 by @fontawesome - https://fontawesome.com License - https://fontawesome.com/license (Commercial License) --><path d="M320 0H320C306.745 0 296 10.745 296 24V488C296 501.255 306.745 512 320 512H320C333.255 512 344 501.255 344 488V24C344 10.745 333.255 0 320 0ZM224 96H224C210.745 96 200 106.745 200 120V392C200 405.255 210.745 416 224 416H224C237.255 416 248 405.255 248 392V120C248 106.745 237.255 96 224 96ZM416 128H416C402.745 128 392 138.745 392 152V360C392 373.255 402.745 384 416 384H416C429.255 384 440 373.255 440 360V152C440 138.745 429.255 128 416 128ZM512 64H512C498.745 64 488 74.745 488 88V424C488 437.255 498.745 448 512 448H512C525.255 448 536 437.255 536 424V88C536 74.745 525.255 64 512 64ZM128 192H128C114.745 192 104 202.745 104 216V296C104 309.255 114.745 320 128 320H128C141.255 320 152 309.255 152 296V216C152 202.745 141.255 192 128 192ZM32 224H32C18.745 224 8 234.745 8 248V264C8 277.255 18.745 288 32 288H32C45.255 288 56 277.255 56 264V248C56 234.745 45.255 224 32 224ZM608 224L608 224C594.745 224 584 234.745 584 248V264C584 277.255 594.745 288 608 288L608 288C621.255 288 632 277.255 632 264V248C632 234.745 621.255 224 608 224Z"/></svg>