<svg xmlns="http://www.w3.org/2000/svg" viewBox="0 0 512 512"><!-- Font Awesome Pro 6.0.0-alpha2 by @fontawesome - https://fontawesome.com License - https://fontawesome.com/license (Commercial License) --><path d="M479.955 32H32.045C12.549 32 -2.324 49.254 0.301 68.51L56.289 425.109C60.789 456.617 87.783 480 119.778 480H392.723C424.467 480 451.586 456.617 456.086 425.109L511.699 68.51C514.324 49.254 499.451 32 479.955 32ZM392.723 432H119.778C111.656 432 104.94 426.248 103.709 417.664L90.385 332.814C102.008 344.672 118.151 352.076 136.024 352.076H200.012C221.674 352.076 240.86 341.254 252.444 324.732C254.867 328.594 257.742 332.26 261.071 335.656L306.83 381.318C318.92 393.408 334.969 400.088 351.981 400.088S385.041 393.408 397.17 381.279L417.51 360.984L408.569 418.322C407.455 426.119 400.643 432 392.723 432ZM120.028 288.07V224.053C120.028 215.301 127.276 208.049 136.024 208.049H200.012C208.76 208.049 216.008 215.301 216.008 224.053V288.07C216.008 296.824 208.76 304.076 200.012 304.076H136.024C127.276 304.076 120.028 296.824 120.028 288.07ZM295.367 279.443L340.733 234.182C343.733 231.18 347.733 229.43 351.981 229.43C356.231 229.43 360.229 231.18 363.229 234.182L408.594 279.443C414.719 285.695 414.719 295.822 408.594 302.076L363.229 347.338C360.229 350.338 356.231 352.088 351.981 352.088C347.733 352.088 343.733 350.338 340.733 347.338L295.367 302.076C289.244 295.822 289.244 285.82 295.367 279.443ZM436.463 239.447L397.131 200.201C385.051 188.113 368.998 181.43 351.981 181.43S318.91 188.113 306.781 200.252L264.008 242.926V224.053C264.008 188.76 235.299 160.049 200.012 160.049H136.024C102.432 160.049 75.104 186.156 72.528 219.104L50.684 80H461.328L436.463 239.447Z"/></svg>