<svg xmlns="http://www.w3.org/2000/svg" viewBox="0 0 640 512"><!-- Font Awesome Pro 6.0.0-alpha2 by @fontawesome - https://fontawesome.com License - https://fontawesome.com/license (Commercial License) --><path d="M627.658 326.75L339.658 102.75L339.533 102.91C307.365 78.594 267.436 64 224 64C185.148 64 149.055 75.625 118.834 95.465C107.676 76.703 87.412 64 64 64C28.654 64 0 92.652 0 128C0 156.461 18.705 180.305 44.396 188.617C36.514 209.613 32 232.254 32 256C32 362.039 117.961 448 224 448C287.654 448 343.904 416.898 378.838 369.199L529.689 444.625C534.252 446.906 539.127 448 544.002 448C552.283 448 560.471 444.781 566.627 438.625L630.627 374.625C637.127 368.125 640.502 359.187 639.939 350C639.377 340.844 634.908 332.375 627.658 326.75ZM69.029 142.984C67.426 143.523 65.783 144 64 144C55.178 144 48 136.824 48 128S55.178 112 64 112S80 119.176 80 128C80 128.594 79.725 129.094 79.662 129.668C75.918 133.941 72.389 138.387 69.029 142.984ZM540.836 396.533L400.303 326.268L364.057 308.143L343.771 335.84C343.301 336.543 342.76 337.182 342.277 337.879L340.111 340.838C336.291 346.055 332.125 350.885 327.764 355.471C325.98 357.332 324.096 359.037 322.215 360.799C317.148 365.592 311.844 370.041 306.215 374.002C305.443 374.541 304.754 375.174 303.971 375.699C297.07 380.355 289.715 384.188 282.139 387.551C280.859 388.117 279.607 388.695 278.309 389.225C270.602 392.375 262.639 394.881 254.414 396.643C253.158 396.912 251.883 397.078 250.615 397.316C241.928 398.934 233.072 400 224 400C144.473 400 80 335.523 80 256C80 176.467 144.473 112 224 112C255.963 112 285.207 122.758 309.1 140.377C309.588 140.715 310.104 140.834 310.588 141.201L319.385 147.791L391.236 203.676L380.797 217.594C372.844 228.203 375 243.25 385.594 251.203C389.922 254.438 394.969 256 399.984 256C407.281 256 414.484 252.688 419.203 246.406L429.141 233.156L583.869 353.5L540.836 396.533ZM224 208C197.492 208 176.002 229.488 176.002 256C176.002 282.508 197.492 303.998 224 303.998C250.51 303.998 272 282.508 272 256C272 229.488 250.51 208 224 208Z"/></svg>