<svg xmlns="http://www.w3.org/2000/svg" viewBox="0 0 512 512"><!-- Font Awesome Pro 6.0.0-alpha2 by @fontawesome - https://fontawesome.com License - https://fontawesome.com/license (Commercial License) --><path d="M24 184H356C406.719 184 448 142.719 448 92S406.719 0 356 0H320C306.75 0 296 10.75 296 24S306.75 48 320 48H356C380.25 48 400 67.75 400 92S380.25 136 356 136H24C10.75 136 0 146.75 0 160S10.75 184 24 184ZM164 328H24C10.75 328 0 338.75 0 352S10.75 376 24 376H164C188.25 376 208 395.75 208 420S188.25 464 164 464H128C114.75 464 104 474.75 104 488S114.75 512 128 512H164C214.719 512 256 470.719 256 420S214.719 328 164 328ZM420 232H24C10.75 232 0 242.75 0 256S10.75 280 24 280H420C444.25 280 464 299.75 464 324S444.25 368 420 368H384C370.75 368 360 378.75 360 392S370.75 416 384 416H420C470.719 416 512 374.719 512 324S470.719 232 420 232Z"/></svg>