<svg xmlns="http://www.w3.org/2000/svg" viewBox="0 0 512 512"><!-- Font Awesome Pro 6.0.0-alpha2 by @fontawesome - https://fontawesome.com License - https://fontawesome.com/license (Commercial License) --><path d="M488 464H480V32C480 14.4 465.6 0 448 0H64C46.4 0 32 14.4 32 32V464H24C10.745 464 0 474.745 0 488V488C0 501.255 10.745 512 24 512H488C501.255 512 512 501.255 512 488V488C512 474.745 501.255 464 488 464ZM232 464H80V272H232V464ZM232 224H80V48H232V224ZM432 464H280V272H432V464ZM432 224H280V48H432V224Z"/></svg>