<svg xmlns="http://www.w3.org/2000/svg" viewBox="0 0 384 512"><!-- Font Awesome Pro 6.0.0-alpha2 by @fontawesome - https://fontawesome.com License - https://fontawesome.com/license (Commercial License) --><path d="M279.999 512C266.749 512 255.999 501.25 255.999 487.999V324.244C255.999 315.931 260.312 308.212 267.374 303.837C310.343 277.211 335.999 231.584 335.999 181.708C335.999 133.394 311.281 88.955 271.999 62.673V167.207C271.999 172.957 269.937 178.551 266.156 182.895L210.156 247.679C201.031 258.242 182.968 258.242 173.843 247.679L117.844 182.895C114.062 178.551 112 172.957 112 167.207V62.673C72.719 88.955 48 133.394 48 181.708C48 231.584 73.656 277.211 116.625 303.837C123.687 308.212 128 315.931 128 324.244V487.999C128 501.25 117.25 512 104 512S80 501.25 80 487.999V337.057C29.656 300.899 0 243.772 0 181.708C0 101.018 51.437 28.546 127.968 1.358C135.343 -1.205 143.468 -0.111 149.843 4.389C156.218 8.889 160 16.171 160 23.984V158.269L192 195.302L224 158.269V23.984C224 16.171 227.781 8.889 234.156 4.389C240.531 -0.111 248.656 -1.205 256.031 1.358C332.562 28.546 383.999 101.018 383.999 181.708C383.999 243.772 354.343 300.899 303.999 337.057V487.999C303.999 501.25 293.249 512 279.999 512Z"/></svg>