<svg xmlns="http://www.w3.org/2000/svg" viewBox="0 0 320 512"><!-- Font Awesome Pro 6.0.0-alpha2 by @fontawesome - https://fontawesome.com License - https://fontawesome.com/license (Commercial License) --><defs><style>.fa-secondary{opacity:.4}</style></defs><path d="M320 431.963C320 458.484 298.516 480 272 480H48.002C28.409 480 10.768 468.085 3.456 449.883C-3.841 431.682 0.643 410.854 14.8 397.281L188.454 230.779C199.704 219.708 206.126 204.571 206.126 188.496C206.126 172.453 199.704 157.316 188.048 145.87C163.361 121.57 123.174 121.602 98.518 145.839L83.236 162.445C65.237 181.929 34.878 183.149 15.393 165.072C-4.06 147.059 -5.231 116.66 12.768 97.208L29.659 78.944C93.033 16.615 193.501 16.647 255.282 77.287C285.485 106.934 302.125 146.433 302.125 188.496C302.125 230.591 285.485 270.09 255.266 299.769L167.486 383.927H272C298.516 383.927 320 405.443 320 431.963Z" class="fa-secondary"/></svg>