<svg xmlns="http://www.w3.org/2000/svg" viewBox="0 0 320 512"><!-- Font Awesome Pro 6.0.0-alpha2 by @fontawesome - https://fontawesome.com License - https://fontawesome.com/license (Commercial License) --><defs><style>.fa-secondary{opacity:.4}</style></defs><path d="M320.013 336C320.013 415.406 255.419 480 176.013 480H114.606C63.669 480 18.606 447.531 2.481 399.188C-5.909 374.063 7.669 346.875 32.825 338.469C57.95 330.094 85.169 343.656 93.544 368.813C96.575 377.906 105.044 384 114.606 384H176.013C202.481 384 224.013 362.469 224.013 336S202.481 288 176.013 288H48.013C33.638 288 20.013 281.562 10.888 270.438C1.778 259.312 -1.878 244.688 0.95 230.594L32.95 70.594C37.434 48.156 57.138 32 80.013 32H240.013C266.528 32 288.013 53.5 288.013 80S266.528 128 240.013 128H119.356L106.559 192H176.013C255.419 192 320.013 256.594 320.013 336Z" class="fa-secondary"/></svg>