<svg xmlns="http://www.w3.org/2000/svg" viewBox="0 0 320 512"><!-- Font Awesome Pro 6.0.0-alpha2 by @fontawesome - https://fontawesome.com License - https://fontawesome.com/license (Commercial License) --><defs><style>.fa-secondary{opacity:.4}</style></defs><path d="M278.586 246.605C294.445 224.363 304 197.342 304 168C304 93 243 32 168 32H152C77 32 16 93 16 168C16 197.342 25.555 224.363 41.414 246.605C15.955 271.334 0 305.783 0 344C0 419 61 480 136 480H184C259 480 320 419 320 344C320 305.783 304.045 271.334 278.586 246.605ZM152 128H168C190.062 128 208 145.938 208 168S190.062 208 168 208H152C129.938 208 112 190.062 112 168S129.938 128 152 128ZM184 384H136C113.938 384 96 366.062 96 344S113.938 304 136 304H184C206.062 304 224 321.938 224 344S206.062 384 184 384Z" class="fa-secondary"/></svg>