<svg xmlns="http://www.w3.org/2000/svg" viewBox="0 0 384 512"><!-- Font Awesome Pro 6.0.0-alpha2 by @fontawesome - https://fontawesome.com License - https://fontawesome.com/license (Commercial License) --><defs><style>.fa-secondary{opacity:.4}</style></defs><path d="M270 300.268L310.49 241.475C322.926 223.242 347.768 218.492 366.08 230.959C384.328 243.396 389.045 268.285 376.609 286.535L325.447 360.914L270 300.268Z" class="fa-secondary"/><path d="M373.529 413.016L214.186 238.734L250.998 209C274.498 190.031 287.998 161.797 287.998 131.547C287.998 76.656 243.342 32 188.438 32H147.562C92.656 32 48 76.656 48 131.547C48 159.891 58.531 187.031 77.656 207.984L97.75 229.938L43.031 274.141C15.688 296.219 0 329.047 0 364.203C0 428.047 51.938 480 115.781 480H173.25C214.842 480 253.873 461.047 279.592 428.828L314.467 466.984C322.373 475.625 333.154 480 343.998 480C353.654 480 363.311 476.531 370.998 469.516C387.279 454.609 388.436 429.312 373.529 413.016ZM147.562 112H188.438C199.219 112 208 120.766 208 131.547C208 137.484 205.375 143.031 200.75 146.75L160.094 179.578L136.719 154.031C131.094 147.859 128 139.891 128 131.547C128 120.766 136.781 112 147.562 112ZM219.561 375.531C209.094 390.844 191.781 400 173.25 400H115.781C96.062 400 80 383.938 80 364.203C80 353.344 84.844 343.188 93.281 336.375L151.813 289.094L224.998 369.125C222.998 371.016 221.186 373.156 219.561 375.531Z" class="fa-primary"/></svg>