<svg xmlns="http://www.w3.org/2000/svg" viewBox="0 0 576 512"><!-- Font Awesome Pro 6.0.0-alpha2 by @fontawesome - https://fontawesome.com License - https://fontawesome.com/license (Commercial License) --><defs><style>.fa-secondary{opacity:.4}</style></defs><path d="M560 448H544V64H32V448H16C7.125 448 0 455.125 0 464V496C0 504.875 7.125 512 16 512H176C184.875 512 192 504.875 192 496V320C192 267 235 224 288 224S384 267 384 320V496C384 504.875 391.125 512 400 512H560C568.875 512 576 504.875 576 496V464C576 455.125 568.875 448 560 448Z" class="fa-secondary"/><path d="M560 0H16C7.125 0 0 7.125 0 16V48C0 56.875 7.125 64 16 64H560C568.875 64 576 56.875 576 48V16C576 7.125 568.875 0 560 0Z" class="fa-primary"/></svg>