<svg xmlns="http://www.w3.org/2000/svg" viewBox="0 0 320 512"><!-- Font Awesome Pro 6.0.0-alpha2 by @fontawesome - https://fontawesome.com License - https://fontawesome.com/license (Commercial License) --><defs><style>.fa-secondary{opacity:.4}</style></defs><path d="M235.844 414.81C245.339 434.752 236.874 458.615 216.935 468.116L216.935 468.116C196.989 477.619 173.116 469.151 163.618 449.203L117 351.298L143.607 319.992H190.694L235.844 414.81Z" class="fa-secondary"/><path d="M318.449 304.476C314.918 313.82 305.98 319.992 295.996 319.992H143.889L42.281 439.545C37.64 445.014 30.906 447.998 24 447.998C21.218 447.998 18.422 447.514 15.719 446.529C6.281 443.061 0 434.06 0 423.997V55.98C0 46.542 5.531 37.979 14.125 34.104C22.75 30.26 32.828 31.76 39.874 37.979L311.871 277.99C319.355 284.6 321.98 295.147 318.449 304.476Z" class="fa-primary"/></svg>