<svg xmlns="http://www.w3.org/2000/svg" viewBox="0 0 512 512"><!-- Font Awesome Pro 6.0.0-alpha2 by @fontawesome - https://fontawesome.com License - https://fontawesome.com/license (Commercial License) --><defs><style>.fa-secondary{opacity:.4}</style></defs><path d="M492.12 169.113L408.993 32C397.868 13.625 370.243 13.625 359.118 32L275.868 169.113C264.868 187.363 278.618 210.234 300.868 210.234H467.118C489.37 210.234 503.12 187.363 492.12 169.113ZM447.995 274.234H319.993C302.319 274.234 287.993 288.562 287.993 306.234V434.219C287.993 451.891 302.319 466.219 319.993 466.219H447.995C465.669 466.219 479.995 451.891 479.995 434.219V306.234C479.995 288.562 465.669 274.234 447.995 274.234Z" class="fa-secondary"/><path d="M237.623 328.695C250.652 340.648 251.527 360.914 239.591 373.961L151.593 470.055C139.468 483.312 116.531 483.312 104.406 470.055L16.408 373.961C4.472 360.914 5.347 340.648 18.377 328.695C31.968 316.234 52.173 318.211 63.595 330.664L96 366.062V64.031C96 46.328 110.328 32 128 32S160 46.328 160 64.031V366.063L192.404 330.664C204.357 317.656 224.607 316.75 237.623 328.695Z" class="fa-primary"/></svg>