<svg xmlns="http://www.w3.org/2000/svg" viewBox="0 0 512 512"><!-- Font Awesome Pro 6.0.0-alpha2 by @fontawesome - https://fontawesome.com License - https://fontawesome.com/license (Commercial License) --><defs><style>.fa-secondary{opacity:.4}</style></defs><path d="M447.995 274.234H319.993C302.319 274.234 287.993 288.562 287.993 306.234V434.219C287.993 451.891 302.319 466.219 319.993 466.219H447.995C465.669 466.219 479.995 451.891 479.995 434.219V306.234C479.995 288.562 465.669 274.234 447.995 274.234ZM492.12 169.113L408.993 32C397.868 13.625 370.243 13.625 359.118 32L275.868 169.113C264.868 187.363 278.618 210.234 300.868 210.234H467.118C489.37 210.234 503.12 187.363 492.12 169.113Z" class="fa-secondary"/><path d="M239.591 138.039C251.527 151.086 250.652 171.352 237.623 183.305C224.031 195.766 203.826 193.785 192.404 181.332L160 145.938V447.969C160 465.672 145.671 480 128 480S96 465.672 96 447.969V145.938L63.595 181.332C51.642 194.344 31.392 195.25 18.377 183.305C5.347 171.352 4.472 151.086 16.408 138.039L104.406 41.945C116.531 28.684 139.468 28.684 151.593 41.945L239.591 138.039Z" class="fa-primary"/></svg>