<svg xmlns="http://www.w3.org/2000/svg" viewBox="0 0 640 512"><!-- Font Awesome Pro 6.0.0-alpha2 by @fontawesome - https://fontawesome.com License - https://fontawesome.com/license (Commercial License) --><defs><style>.fa-secondary{opacity:.4}</style></defs><path d="M175.998 352C167.161 352 159.998 344.837 159.998 336L160 173.25L201.375 214.625C213.875 227.125 234.125 227.125 246.625 214.625S259.125 181.875 246.625 169.375L150.625 73.375C144.375 67.125 136.187 64 128 64S111.625 67.125 105.375 73.375L9.375 169.375C-3.125 181.875 -3.125 202.125 9.375 214.625S42.125 227.125 54.625 214.625L96 173.25L95.998 351.999C95.998 387.346 124.652 416 159.998 416H306.578C334.949 416 349.288 381.815 329.406 361.576L329.406 361.576C323.389 355.45 315.163 352 306.577 352H175.998Z" class="fa-secondary"/><path d="M630.267 342.625L534.267 438.625C528.017 444.875 519.829 448 511.642 448S495.267 444.875 489.017 438.625L393.017 342.625C380.517 330.125 380.517 309.875 393.017 297.375S425.767 284.875 438.267 297.375L479.642 338.75L479.643 176C479.644 167.163 472.48 160 463.644 160H333.064C324.478 160 316.252 156.55 310.235 150.424L310.235 150.424C290.354 130.185 304.693 96 333.064 96H479.643C514.99 96 543.644 124.654 543.643 160.001L543.642 338.75L585.017 297.375C597.517 284.875 617.767 284.875 630.267 297.375S642.767 330.125 630.267 342.625Z" class="fa-primary"/></svg>