<svg xmlns="http://www.w3.org/2000/svg" viewBox="0 0 448 512"><!-- Font Awesome Pro 6.0.0-alpha2 by @fontawesome - https://fontawesome.com License - https://fontawesome.com/license (Commercial License) --><defs><style>.fa-secondary{opacity:.4}</style></defs><path d="M416 95.999C433.674 95.999 448 81.671 448 63.999S433.674 31.999 416 31.999S384 46.327 384 63.999S398.326 95.999 416 95.999ZM320 95.999C337.674 95.999 352 81.671 352 63.999S337.674 31.999 320 31.999S288 46.327 288 63.999S302.326 95.999 320 95.999ZM224 95.999C241.674 95.999 256 81.671 256 63.999S241.674 31.999 224 31.999S192 46.327 192 63.999S206.326 95.999 224 95.999ZM128 95.999C145.674 95.999 160 81.671 160 63.999S145.674 31.999 128 31.999S96 46.327 96 63.999S110.326 95.999 128 95.999ZM32 95.999C49.674 95.999 64 81.671 64 63.999S49.674 31.999 32 31.999S0 46.327 0 63.999S14.326 95.999 32 95.999Z" class="fa-secondary"/><path d="M365.25 326.625C359 332.875 350.813 336 342.625 336S326.25 332.875 320 326.625L246.625 253.25V432C246.625 449.688 232.313 464 214.625 464S182.625 449.688 182.625 432V253.25L109.25 326.625C96.75 339.125 76.5 339.125 64 326.625S51.5 293.875 64 281.375L192 153.375C204.5 140.875 224.75 140.875 237.25 153.375L365.25 281.375C377.75 293.875 377.75 314.125 365.25 326.625Z" class="fa-primary"/></svg>