<svg xmlns="http://www.w3.org/2000/svg" viewBox="0 0 576 512"><!-- Font Awesome Pro 6.0.0-alpha2 by @fontawesome - https://fontawesome.com License - https://fontawesome.com/license (Commercial License) --><defs><style>.fa-secondary{opacity:.4}</style></defs><path d="M512 205.25L342.625 374.625C336.375 380.875 328.188 384 320 384S303.625 380.875 297.375 374.625L192 269.25L54.625 406.625C48.375 412.875 40.188 416 32 416C13.721 416 0 401.053 0 384C0 375.812 3.125 367.625 9.375 361.375L169.375 201.375C175.625 195.125 183.812 192 192 192S208.375 195.125 214.625 201.375L320 306.75L466.75 160H512V205.25Z" class="fa-secondary"/><path d="M544 320C526.312 320 512 305.672 512 288V160H384C366.312 160 352 145.672 352 128S366.312 96 384 96H544C561.688 96 576 110.328 576 128V288C576 305.672 561.688 320 544 320Z" class="fa-primary"/></svg>