<svg xmlns="http://www.w3.org/2000/svg" viewBox="0 0 512 512"><!-- Font Awesome Pro 6.0.0-alpha2 by @fontawesome - https://fontawesome.com License - https://fontawesome.com/license (Commercial License) --><defs><style>.fa-secondary{opacity:.4}</style></defs><path d="M204.223 290.465C200.313 288.848 196.164 288 192 288H64C46.313 288 32 302.312 32 320S46.313 352 64 352H114.75L9.375 457.375C-3.125 469.875 -3.125 490.125 9.375 502.625S42.125 515.125 54.625 502.625L160 397.25V448C160 465.688 174.313 480 192 480S224 465.688 224 448V320C224 315.836 223.152 311.688 221.535 307.777C218.295 299.945 212.057 293.703 204.223 290.465ZM502.625 9.375C490.133 -3.117 469.883 -3.133 457.375 9.375L352 114.75V64C352 46.312 337.688 32 320 32S288 46.312 288 64V192C288 196.164 288.848 200.312 290.463 204.219C293.705 212.059 299.941 218.297 307.783 221.539C311.689 223.152 315.838 224 320 224H448C465.688 224 480 209.688 480 192S465.688 160 448 160H397.25L502.625 54.625C515.125 42.125 515.125 21.875 502.625 9.375Z" class="fa-secondary"/><path d="M182.625 22.625C164.938 22.625 150.625 36.937 150.625 54.625V105.375L45.25 0C32.75 -12.5 12.5 -12.5 0 0S-12.5 32.75 0 45.25L105.375 150.625H54.625C36.938 150.625 22.625 164.937 22.625 182.625S36.938 214.625 54.625 214.625H182.625C186.789 214.625 190.938 213.777 194.848 212.16C202.68 208.922 208.922 202.68 212.16 194.848C213.777 190.937 214.625 186.789 214.625 182.625V54.625C214.625 36.937 200.313 22.625 182.625 22.625ZM387.875 342.625H438.625C456.313 342.625 470.625 328.313 470.625 310.625S456.313 278.625 438.625 278.625H310.625C306.461 278.625 302.313 279.473 298.406 281.086C290.566 284.328 284.328 290.566 281.086 298.406C279.473 302.313 278.625 306.461 278.625 310.625V438.625C278.625 456.313 292.938 470.625 310.625 470.625S342.625 456.313 342.625 438.625V387.875L448 493.25C460.5 505.75 480.75 505.75 493.25 493.25C505.742 480.758 505.758 460.508 493.25 448L387.875 342.625Z" class="fa-primary"/></svg>