<svg xmlns="http://www.w3.org/2000/svg" viewBox="0 0 448 512"><!-- Font Awesome Pro 6.0.0-alpha2 by @fontawesome - https://fontawesome.com License - https://fontawesome.com/license (Commercial License) --><defs><style>.fa-secondary{opacity:.4}</style></defs><path d="M431.591 138.039L343.593 41.945C331.468 28.684 308.531 28.684 296.406 41.945L208.408 138.039C196.472 151.086 197.347 171.352 210.377 183.305C223.392 195.25 243.642 194.344 255.595 181.332L288 145.938V447.969C288 465.672 302.328 480 320 480S352 465.672 352 447.969V145.938L384.404 181.332C395.826 193.785 416.031 195.766 429.623 183.305C442.652 171.352 443.527 151.086 431.591 138.039Z" class="fa-secondary"/><path d="M237.623 328.695C250.652 340.648 251.527 360.914 239.591 373.961L151.593 470.055C139.468 483.312 116.531 483.312 104.406 470.055L16.408 373.961C4.472 360.914 5.347 340.648 18.377 328.695C31.968 316.234 52.173 318.211 63.595 330.664L96 366.062V64.031C96 46.328 110.328 32 128 32S160 46.328 160 64.031V366.063L192.404 330.664C204.357 317.656 224.607 316.75 237.623 328.695Z" class="fa-primary"/></svg>