<svg xmlns="http://www.w3.org/2000/svg" viewBox="0 0 576 512"><!-- Font Awesome Pro 6.0.0-alpha2 by @fontawesome - https://fontawesome.com License - https://fontawesome.com/license (Commercial License) --><defs><style>.fa-secondary{opacity:.4}</style></defs><path d="M466.75 352L320 205.25L214.625 310.625C208.375 316.875 200.188 320 192 320S175.625 316.875 169.375 310.625L9.375 150.625C3.125 144.375 0 136.188 0 128C0 109.721 14.947 96 32 96C40.188 96 48.375 99.125 54.625 105.375L192 242.75L297.375 137.375C303.625 131.125 311.812 128 320 128S336.375 131.125 342.625 137.375L512 306.75V352H466.75Z" class="fa-secondary"/><path d="M544 416H384C366.312 416 352 401.672 352 384S366.312 352 384 352H512V224C512 206.328 526.312 192 544 192S576 206.328 576 224V384C576 401.672 561.688 416 544 416Z" class="fa-primary"/></svg>