<svg xmlns="http://www.w3.org/2000/svg" viewBox="0 0 448 512"><!-- Font Awesome Pro 6.0.0-alpha2 by @fontawesome - https://fontawesome.com License - https://fontawesome.com/license (Commercial License) --><defs><style>.fa-secondary{opacity:.4}</style></defs><path d="M210.377 328.695C197.347 340.648 196.472 360.914 208.408 373.961L296.406 470.055C308.531 483.312 331.468 483.312 343.593 470.055L431.591 373.961C443.527 360.914 442.652 340.648 429.623 328.695C416.031 316.234 395.826 318.211 384.404 330.664L352 366.062V64.031C352 46.328 337.671 32 320 32S288 46.328 288 64.031V366.063L255.595 330.664C243.642 317.656 223.392 316.75 210.377 328.695Z" class="fa-secondary"/><path d="M16.408 138.039L104.406 41.945C116.531 28.684 139.468 28.684 151.593 41.945L239.591 138.039C251.527 151.086 250.652 171.352 237.623 183.305C224.607 195.25 204.357 194.344 192.404 181.332L160 145.938V447.969C160 465.672 145.671 480 128 480S96 465.672 96 447.969V145.938L63.595 181.332C52.173 193.785 31.968 195.766 18.377 183.305C5.347 171.352 4.472 151.086 16.408 138.039Z" class="fa-primary"/></svg>