<svg xmlns="http://www.w3.org/2000/svg" viewBox="0 0 384 512"><!-- Font Awesome Pro 6.0.0-alpha2 by @fontawesome - https://fontawesome.com License - https://fontawesome.com/license (Commercial License) --><defs><style>.fa-secondary{opacity:.4}</style></defs><path d="M192.002 417.289L152 379.945V80H40C17.906 80 0 62.094 0 40S17.906 0 40 0L192 0C214.094 0 232 17.906 232 40V379.953L192.002 417.289Z" class="fa-secondary"/><path d="M339.298 389.256L219.297 501.265C203.922 515.578 180.078 515.578 164.703 501.265L44.702 389.256C28.561 374.161 27.686 348.846 42.749 332.72C57.827 316.562 83.108 315.687 99.296 330.751L192 417.289L284.704 330.751C292.423 323.563 302.22 320 311.985 320C322.689 320 333.361 324.282 341.251 332.72C356.314 348.846 355.439 374.161 339.298 389.256Z" class="fa-primary"/></svg>