<svg xmlns="http://www.w3.org/2000/svg" viewBox="0 0 448 512"><!-- Font Awesome Pro 6.0.0-alpha2 by @fontawesome - https://fontawesome.com License - https://fontawesome.com/license (Commercial License) --><defs><style>.fa-secondary{opacity:.4}</style></defs><path d="M417.051 368.298L417.051 368.298C403.982 390.933 374.574 397.928 352.714 383.602L263.273 324.988L269.01 432.072C270.405 458.117 249.662 480 223.58 480H223.576C197.494 480 176.751 458.117 178.146 432.072L183.883 324.988L94.382 383.642C72.554 397.946 43.191 390.962 30.142 368.361L30.105 368.298C17.09 345.755 25.608 316.907 48.782 305.05L144.644 256L48.782 206.95C25.608 195.093 17.09 166.245 30.105 143.702L30.105 143.702C43.174 121.067 72.582 114.072 94.442 128.398L183.883 187.012L178.146 79.928C176.751 53.883 197.494 32 223.576 32H223.58C249.662 32 270.405 53.883 269.01 79.928L263.273 187.012L352.714 128.398C374.574 114.072 403.982 121.067 417.051 143.702L417.051 143.702C430.066 166.245 421.548 195.093 398.374 206.95L302.512 256L398.374 305.05C421.548 316.907 430.066 345.755 417.051 368.298Z" class="fa-secondary"/></svg>