<svg xmlns="http://www.w3.org/2000/svg" viewBox="0 0 512 512"><!-- Font Awesome Pro 6.0.0-alpha2 by @fontawesome - https://fontawesome.com License - https://fontawesome.com/license (Commercial License) --><defs><style>.fa-secondary{opacity:.4}</style></defs><path d="M495.999 256.274V277.112C495.999 323.847 466.727 367.455 421.774 380.238C408.821 383.922 396.132 384.973 383.999 384.033V318.726C386.671 319.291 389.163 320.347 391.999 320.347C414.062 320.347 431.999 302.389 431.999 280.301L431.999 264.138C431.999 172.171 364.975 89.788 273.437 80.92C168.609 70.764 79.999 153.356 79.999 256.274C79.999 344.157 144.612 417.22 228.761 430.367C244.382 432.808 255.999 445.992 255.999 461.802V461.802C255.999 481.318 238.581 496.717 219.293 493.742C89.137 473.663 -6.847 348.524 20.757 207.841C39.093 114.392 114.33 39.047 207.782 20.731C361.162 -9.332 495.999 107.993 495.999 256.274Z" class="fa-secondary"/><path d="M384 318.726C365.896 314.901 352 299.55 352 280.301V160.164C352 151.318 344.836 144.146 336 144.146H304C296.701 144.146 290.797 149.138 288.875 155.827C274.051 148.577 257.609 144.146 240 144.146C178.145 144.146 128 194.348 128 256.274S178.145 368.402 240 368.402C266.436 368.402 290.408 358.85 309.566 343.514C327.062 366.329 353.729 381.686 384 384.033V318.726ZM240 304.329C213.533 304.329 192 282.771 192 256.274S213.533 208.219 240 208.219S288 229.777 288 256.274S266.467 304.329 240 304.329Z" class="fa-primary"/></svg>