<svg xmlns="http://www.w3.org/2000/svg" viewBox="0 0 448 512"><!-- Font Awesome Pro 6.0.0-alpha2 by @fontawesome - https://fontawesome.com License - https://fontawesome.com/license (Commercial License) --><defs><style>.fa-secondary{opacity:.4}</style></defs><path d="M0 352C0 369.672 14.328 384 32 384H51.854L78.289 320H32C14.328 320 0 334.328 0 352ZM0 256C0 273.672 14.328 288 32 288H91.508L117.943 224H32C14.328 224 0 238.328 0 256ZM243.51 224H204.49L178.055 288H269.945L243.51 224ZM448 256C448 238.328 433.672 224 416 224H330.057L356.492 288H416C433.672 288 448 273.672 448 256ZM416 320H369.711L396.146 384H416C433.672 384 448 369.672 448 352S433.672 320 416 320ZM164.836 320L138.398 384H309.602L283.164 320H164.836Z" class="fa-secondary"/><path d="M376.007 479.983C360.289 479.983 345.4 470.656 339.025 455.235L224 176.771L108.975 455.235C100.538 475.671 77.117 485.421 56.743 476.937C36.323 468.5 26.604 445.111 35.042 424.706L187.033 56.733C193.22 41.765 207.813 32 224 32S254.78 41.765 260.967 56.733L412.958 424.706C421.396 445.111 411.677 468.5 391.257 476.937C386.272 478.999 381.101 479.983 376.007 479.983Z" class="fa-primary"/></svg>