<svg xmlns="http://www.w3.org/2000/svg" viewBox="0 0 512 512"><!-- Font Awesome Pro 6.0.0-alpha2 by @fontawesome - https://fontawesome.com License - https://fontawesome.com/license (Commercial License) --><defs><style>.fa-secondary{opacity:.4}</style></defs><path d="M101 13.586C97.875 0.584 83.375 -4.543 74.25 4.709C28.625 50.844 0 117.609 0 192S28.625 333.156 74.25 379.291C83.375 388.543 97.875 383.416 101 370.414C106.404 347.768 116.572 327.453 130.219 310.812C152.885 283.172 188.256 269.143 224 269.143V114.857C188.256 114.857 152.885 100.826 130.219 73.187C116.572 56.547 106.404 36.23 101 13.586ZM512 160.869C505.146 99.299 478.543 44.562 439.369 5.08C430.23 -4.129 414.914 0.99 411.871 13.602C405.781 38.846 393.707 61.193 377.461 78.783C355.049 103.047 322.158 114.857 289.127 114.857H288V269.143H289.127C322.158 269.143 355.049 280.953 377.461 305.217C393.707 322.807 405.781 345.152 411.871 370.396C414.914 383.008 430.23 388.129 439.369 378.918C478.543 339.438 505.146 284.701 512 223.131L449.25 192L512 160.869Z" class="fa-secondary"/><path d="M288 64V496C288 504.836 280.836 512 272 512H240C231.164 512 224 504.836 224 496V64C224 46.326 238.328 32 256 32S288 46.326 288 64Z" class="fa-primary"/></svg>