<svg xmlns="http://www.w3.org/2000/svg" viewBox="0 0 640 512"><!-- Font Awesome Pro 6.0.0-alpha2 by @fontawesome - https://fontawesome.com License - https://fontawesome.com/license (Commercial License) --><defs><style>.fa-secondary{opacity:.4}</style></defs><path d="M9.374 434.737C-3.125 447.235 -3.125 467.495 9.374 479.993L32.008 502.627C44.506 515.125 64.768 515.124 77.264 502.625L331.063 248.817L263.182 180.936L9.374 434.737ZM502.627 77.249C515.125 64.75 515.125 44.489 502.627 31.993L480.008 9.374C467.51 -3.125 447.25 -3.125 434.752 9.374L404.928 39.198L472.803 107.073L502.627 77.249ZM576 160.016V192.016C576 280.235 504.219 352.016 416 352.016H384V416.016H416C539.5 416.016 640 315.532 640 192.016V160.016H576Z" class="fa-secondary"/><path d="M384 352.016V416.016H383.996V301.75L233.371 151.125C220.875 138.629 220.877 118.368 233.373 105.874L329.871 9.391C336.121 3.141 344.309 0.016 352.496 0.016S368.871 3.141 375.121 9.391L525.746 160.016H576V192.016C576 280.235 504.219 352.016 416 352.016H384Z" class="fa-primary"/></svg>