<svg xmlns="http://www.w3.org/2000/svg" viewBox="0 0 320 512"><!-- Font Awesome Pro 6.0.0-alpha2 by @fontawesome - https://fontawesome.com License - https://fontawesome.com/license (Commercial License) --><defs><style>.fa-secondary{opacity:.4}</style></defs><path d="M278.574 246.605C294.439 224.359 304 197.34 304 168C304 93.016 242.984 32 168 32H48C21.484 32 0 53.484 0 80V256V432C0 458.516 21.484 480 48 480H184C258.984 480 320 418.984 320 344C320 305.789 304.037 271.336 278.574 246.605ZM96 128H168C190.062 128 208 145.938 208 168S190.062 208 168 208H96V128ZM184 384H96V304H168H184C206.062 304 224 321.938 224 344S206.062 384 184 384Z" class="fa-secondary"/></svg>