<svg xmlns="http://www.w3.org/2000/svg" viewBox="0 0 448 512"><!-- Font Awesome Pro 6.0.0-alpha2 by @fontawesome - https://fontawesome.com License - https://fontawesome.com/license (Commercial License) --><defs><style>.fa-secondary{opacity:.4}</style></defs><path d="M96 384V512H352V384H96ZM176 56C176 51.625 179.625 48 184 48H264C268.375 48 272 51.625 272 56V80H320V56C320 25.125 294.875 0 264 0H184C153.125 0 128 25.125 128 56V80H176V56Z" class="fa-secondary"/><path d="M320 80H128C57.25 80 0 137.25 0 208V448C0 483.375 28.625 512 64 512H96V320C96 302.375 110.375 288 128 288H320C337.625 288 352 302.375 352 320V512H384C419.375 512 448 483.375 448 448V208C448 137.25 390.75 80 320 80ZM320 200C320 204.375 316.375 208 312 208H136C131.625 208 128 204.375 128 200V184C128 179.625 131.625 176 136 176H312C316.375 176 320 179.625 320 184V200Z" class="fa-primary"/></svg>