<svg xmlns="http://www.w3.org/2000/svg" viewBox="0 0 576 512"><!-- Font Awesome Pro 6.0.0-alpha2 by @fontawesome - https://fontawesome.com License - https://fontawesome.com/license (Commercial License) --><defs><style>.fa-secondary{opacity:.4}</style></defs><path d="M564.72 99.678L543.318 75.807L429.69 128.484C380.221 151.422 339.252 190.594 311.236 241.812L289.314 281.891C257.986 339.156 211.97 383.094 156.22 408.937L51.68 457.363L89.108 499.107C96.64 507.516 106.999 512 117.468 512C122.655 512 127.874 510.891 132.796 508.625L225.547 465.631C276.672 441.937 318.891 401.602 347.657 349.012L368.313 311.254C395.422 261.697 435.11 223.75 483.064 201.496L551.939 169.553C563.798 164.066 572.22 153.033 575.033 139.326C577.97 124.98 574.127 110.148 564.72 99.678ZM261.252 266.531L283.174 226.453C314.486 169.188 360.502 125.281 416.221 99.453L520.974 50.889L486.892 12.877C475.61 0.281 458.048 -3.453 443.204 3.359L350.453 46.354C299.328 70.047 257.109 110.383 228.343 162.973L207.687 200.73C180.578 250.287 140.89 288.234 92.936 310.488L24.061 342.432C12.202 347.918 3.78 358.951 0.967 372.658C-1.97 387.004 1.873 401.836 11.28 412.307L29.344 432.453L142.767 379.906C192.251 356.953 233.22 317.75 261.252 266.531Z" class="fa-secondary"/><path d="M542.974 75.807L429.346 128.484C379.877 151.422 338.908 190.594 310.892 241.812L288.97 281.891C257.642 339.156 211.626 383.094 155.876 408.937L51.336 457.363L29 432.453L142.423 379.906C191.907 356.953 232.876 317.75 260.908 266.531L282.83 226.453C314.142 169.187 360.158 125.281 415.877 99.453L520.632 50.889L543.659 76.57L542.974 75.807Z" class="fa-primary"/></svg>