<svg xmlns="http://www.w3.org/2000/svg" viewBox="0 0 448 512"><!-- Font Awesome Pro 6.0.0-alpha2 by @fontawesome - https://fontawesome.com License - https://fontawesome.com/license (Commercial License) --><defs><style>.fa-secondary{opacity:.4}</style></defs><path d="M448 192V432C448 476.182 412.184 512 368 512H80C35.816 512 0 476.182 0 432V192C0 174.326 14.326 160 32 160H104V224C104 237.25 114.75 248 128 248S152 237.25 152 224V160H296V224C296 237.25 306.75 248 320 248S344 237.25 344 224V160H416C433.674 160 448 174.326 448 192Z" class="fa-secondary"/><path d="M320 248C306.75 248 296 237.25 296 224V120C296 80.312 263.703 48 224 48S152 80.312 152 120V224C152 237.25 141.25 248 128 248S104 237.25 104 224V120C104 53.844 157.828 0 224 0S344 53.844 344 120V224C344 237.25 333.25 248 320 248Z" class="fa-primary"/></svg>