<svg xmlns="http://www.w3.org/2000/svg" viewBox="0 0 320 512"><!-- Font Awesome Pro 6.0.0-alpha2 by @fontawesome - https://fontawesome.com License - https://fontawesome.com/license (Commercial License) --><defs><style>.fa-secondary{opacity:.4}</style></defs><path d="M112 368H176V296H112V368ZM112 480C112 497.688 126.312 512 144 512S176 497.688 176 480V448H112V480ZM144 0C126.312 0 112 14.312 112 32V64H172C173.369 64 174.641 64.357 176 64.404V32C176 14.312 161.688 0 144 0ZM112 144V216H172C173.418 216 174.625 215.35 176 215.189V144.811C174.625 144.65 173.418 144 172 144H112Z" class="fa-secondary"/><path d="M271.734 238.246C281.812 221.061 288 201.322 288 180C288 116.031 235.969 64 172 64H40C17.906 64 0 81.906 0 104V256V408C0 430.094 17.906 448 40 448H204C267.969 448 320 395.969 320 332C320 293.379 300.844 259.342 271.734 238.246ZM80 144H172C191.844 144 208 160.156 208 180S191.844 216 172 216H80V144ZM204 368H80V296H172H204C223.844 296 240 312.156 240 332S223.844 368 204 368Z" class="fa-primary"/></svg>