<svg xmlns="http://www.w3.org/2000/svg" viewBox="0 0 576 512"><!-- Font Awesome Pro 6.0.0-alpha2 by @fontawesome - https://fontawesome.com License - https://fontawesome.com/license (Commercial License) --><defs><style>.fa-secondary{opacity:.4}</style></defs><path d="M80 352C35.844 352 0 387.844 0 432S35.844 512 80 512S160 476.156 160 432S124.156 352 80 352ZM288 352C243.844 352 208 387.844 208 432S243.844 512 288 512S368 476.156 368 432S332.156 352 288 352ZM496 352C451.844 352 416 387.844 416 432S451.844 512 496 512S576 476.156 576 432S540.156 352 496 352ZM288 0C243.844 0 208 35.844 208 80S243.844 160 288 160S368 124.156 368 80S332.156 0 288 0Z" class="fa-secondary"/><path d="M176 168C131.844 168 96 203.844 96 248S131.844 328 176 328S256 292.156 256 248S220.156 168 176 168ZM400 168C355.844 168 320 203.844 320 248S355.844 328 400 328S480 292.156 480 248S444.156 168 400 168Z" class="fa-primary"/></svg>