<svg xmlns="http://www.w3.org/2000/svg" viewBox="0 0 640 512"><!-- Font Awesome Pro 6.0.0-alpha2 by @fontawesome - https://fontawesome.com License - https://fontawesome.com/license (Commercial License) --><defs><style>.fa-secondary{opacity:.4}</style></defs><path d="M192 416H448V96H192V416ZM368 184C381.312 184 392 194.703 392 208S381.312 232 368 232S344 221.297 344 208S354.688 184 368 184ZM368 280C381.312 280 392 290.703 392 304S381.312 328 368 328S344 317.297 344 304S354.688 280 368 280ZM272 184C285.312 184 296 194.703 296 208S285.312 232 272 232S248 221.297 248 208S258.688 184 272 184ZM272 280C285.312 280 296 290.703 296 304S285.312 328 272 328S248 317.297 248 304S258.688 280 272 280ZM0 160V352C0 387.297 28.688 416 64 416H160V96H64C28.688 96 0 124.703 0 160ZM576 96H480V416H576C611.312 416 640 387.297 640 352V160C640 124.703 611.312 96 576 96Z" class="fa-secondary"/><path d="M160 416H192V96H160V416ZM448 96V416H480V96H448Z" class="fa-primary"/></svg>