<svg xmlns="http://www.w3.org/2000/svg" viewBox="0 0 576 512"><!-- Font Awesome Pro 6.0.0-alpha2 by @fontawesome - https://fontawesome.com License - https://fontawesome.com/license (Commercial License) --><defs><style>.fa-secondary{opacity:.4}</style></defs><path d="M560 192.01H458.41L469.297 212.947C475.406 224.696 470.828 239.196 459.078 245.289C455.531 247.133 451.75 248.008 448.016 248.008C439.344 248.008 430.984 243.289 426.703 235.071L404.311 192.01H171.689L149.297 235.071C145.016 243.289 136.641 248.008 127.984 248.008C124.25 248.008 120.469 247.133 116.922 245.289C105.172 239.196 100.594 224.696 106.703 212.947L117.59 192.01H16C7.164 192.01 0 199.174 0 208.009V240.008C0 248.844 7.164 256.008 16 256.008H39.111L84.863 461.884C91.371 491.167 117.342 512 147.34 512H428.662C458.658 512 484.631 491.167 491.137 461.884L536.889 256.008H560C568.838 256.008 576 248.844 576 240.008V208.009C576 199.174 568.838 192.01 560 192.01ZM192 432.002C192 440.836 184.834 448.002 176 448.002C167.168 448.002 160 440.836 160 432.002V304.006C160 295.173 167.168 288.007 176 288.007C184.834 288.007 192 295.173 192 304.006V432.002ZM304 432.002C304 440.836 296.834 448.002 288 448.002C279.168 448.002 272 440.836 272 432.002V304.006C272 295.173 279.168 288.007 288 288.007C296.834 288.007 304 295.173 304 304.006V432.002ZM416 432.002C416 440.836 408.834 448.002 400 448.002C391.168 448.002 384 440.836 384 432.002V304.006C384 295.173 391.168 288.007 400 288.007C408.834 288.007 416 295.173 416 304.006V432.002Z" class="fa-secondary"/><path d="M243.083 2.734C231.317 -3.391 216.833 1.203 210.708 12.953L106.708 212.947C100.598 224.696 105.176 239.196 116.926 245.289C120.473 247.133 124.255 248.008 127.989 248.008C136.645 248.008 145.02 243.289 149.301 235.071L253.301 35.077C259.411 23.327 254.833 8.828 243.083 2.734ZM469.301 212.947L365.301 12.953C359.161 1.172 344.723 -3.422 332.926 2.734C321.176 8.828 316.598 23.327 322.708 35.077L426.708 235.071C430.989 243.289 439.348 248.008 448.02 248.008C451.755 248.008 455.536 247.133 459.083 245.289C470.833 239.196 475.411 224.696 469.301 212.947Z" class="fa-primary"/></svg>