<svg xmlns="http://www.w3.org/2000/svg" viewBox="0 0 640 512"><!-- Font Awesome Pro 6.0.0-alpha2 by @fontawesome - https://fontawesome.com License - https://fontawesome.com/license (Commercial License) --><defs><style>.fa-secondary{opacity:.4}</style></defs><path d="M96 352V171.918L40.605 128.5C35.283 137.834 32 148.486 32 160V352C32 387.346 60.654 416 96 416H407.416L325.76 352H96ZM576 192V160C576 124.654 547.346 96 512 96H154.779L236.434 160H512V352H481.398L548.117 404.293C564.869 392.842 576 373.859 576 352V320C593.674 320 608 305.674 608 288V224C608 206.326 593.674 192 576 192Z" class="fa-secondary"/><path d="M24.032 0.032C29.189 0.032 34.407 1.703 38.813 5.141L630.81 469.134C641.248 477.305 643.06 492.399 634.873 502.836C626.748 513.242 611.685 515.117 601.186 506.914L9.189 42.922C-1.249 34.75 -3.061 19.656 5.126 9.219C9.845 3.188 16.907 0.032 24.032 0.032Z" class="fa-primary"/></svg>