<svg xmlns="http://www.w3.org/2000/svg" viewBox="0 0 576 512"><!-- Font Awesome Pro 6.0.0-alpha2 by @fontawesome - https://fontawesome.com License - https://fontawesome.com/license (Commercial License) --><defs><style>.fa-secondary{opacity:.4}</style></defs><path d="M0 160V352C0 387.346 28.654 416 64 416H177.617C176.73 410.77 176 405.479 176 400C176 382.428 181.113 366.18 189.385 352H64V160H192V96H64C28.654 96 0 124.654 0 160ZM544 192V160C544 124.654 515.346 96 480 96H352V160H480V352H354.615C362.887 366.18 368 382.428 368 400C368 405.479 367.27 410.77 366.383 416H480C515.346 416 544 387.346 544 352V320C561.674 320 576 305.674 576 288V224C576 206.326 561.674 192 544 192Z" class="fa-secondary"/><path d="M272 320C289.674 320 304 305.672 304 288V96C304 78.326 289.674 64 272 64S240 78.326 240 96V288C240 305.672 254.326 320 272 320ZM272 360C249.951 360 232 377.943 232 400.002C232 422.053 249.951 440 272 440S312 422.053 312 400.002C312 377.943 294.049 360 272 360Z" class="fa-primary"/></svg>