<svg xmlns="http://www.w3.org/2000/svg" viewBox="0 0 512 512"><!-- Font Awesome Pro 6.0.0-alpha2 by @fontawesome - https://fontawesome.com License - https://fontawesome.com/license (Commercial License) --><defs><style>.fa-secondary{opacity:.4}</style></defs><path d="M432 160H388.098C372.711 170.037 354.895 176 336 176C317.883 176 300.336 170.906 285.084 161.242C284.859 161.393 284.615 161.58 284.365 161.814C263.578 181.279 236.459 192 208 192S152.422 181.279 131.637 161.816C131.385 161.58 131.137 161.389 130.922 161.24C115.67 170.904 98.119 176 80 176C62.764 176 46.459 170.965 32 162.545V448C32 483.346 60.654 512 96 512H320C355.346 512 384 483.346 384 448L464.658 411.984C493.455 399.127 512 370.537 512 339V240C512 195.816 476.184 160 432 160ZM160 432C160 440.875 152.875 448 144 448S128 440.875 128 432V240C128 231.125 135.125 224 144 224S160 231.125 160 240V432ZM224 432C224 440.875 216.875 448 208 448S192 440.875 192 432V240C192 231.125 199.125 224 208 224S224 231.125 224 240V432ZM288 432C288 440.875 280.875 448 272 448S256 440.875 256 432V240C256 231.125 263.125 224 272 224S288 231.125 288 240V432ZM448 339C448 345.25 444.25 351 438.5 353.625L384 377.875V224H432C440.875 224 448 231.125 448 240V339Z" class="fa-secondary"/><path d="M398.538 66.117C393.677 42.971 375.144 23.656 352.179 17.998C334.103 13.543 317.011 16.805 303.288 25.117C289.96 33.189 273.849 32.168 262.47 21.52C248.21 8.178 229.079 0 207.999 0S167.788 8.178 153.528 21.52C142.15 32.168 126.038 33.189 112.71 25.117C98.987 16.805 81.896 13.543 63.819 17.998C40.855 23.656 22.321 42.971 17.46 66.117C8.761 107.525 40.12 144 79.999 144C93.056 144 105.134 140.045 115.196 133.293C127.214 125.23 142.946 128.566 153.509 138.457C167.769 151.812 186.909 160 207.999 160S248.23 151.812 262.489 138.457C273.052 128.566 288.784 125.23 300.802 133.293C310.864 140.045 322.942 144 335.999 144C375.878 144 407.237 107.525 398.538 66.117ZM143.999 224C135.124 224 127.999 231.125 127.999 240V432C127.999 440.875 135.124 448 143.999 448S159.999 440.875 159.999 432V240C159.999 231.125 152.874 224 143.999 224ZM207.999 224C199.124 224 191.999 231.125 191.999 240V432C191.999 440.875 199.124 448 207.999 448S223.999 440.875 223.999 432V240C223.999 231.125 216.874 224 207.999 224ZM271.999 224C263.124 224 255.999 231.125 255.999 240V432C255.999 440.875 263.124 448 271.999 448S287.999 440.875 287.999 432V240C287.999 231.125 280.874 224 271.999 224Z" class="fa-primary"/></svg>