<svg xmlns="http://www.w3.org/2000/svg" viewBox="0 0 640 512"><!-- Font Awesome Pro 6.0.0-alpha2 by @fontawesome - https://fontawesome.com License - https://fontawesome.com/license (Commercial License) --><defs><style>.fa-secondary{opacity:.4}</style></defs><path d="M241.997 253.875C214.124 177.263 246.997 93.277 315.742 54.159C307.242 48.535 298.243 43.661 288.244 40.036C218.998 14.916 142.504 50.66 117.255 119.773C116.505 121.897 102.631 160.266 101.881 162.39C72.758 242.502 35.511 256.749 14.512 267.372C-5.611 277.746 -4.986 307.99 17.512 316.239L260.746 404.724C269.245 385.602 280.244 359.232 257.496 296.617C247.746 269.622 251.246 279.495 241.997 253.875ZM625.596 299.367C604.597 288.744 567.225 274.496 538.227 194.385C537.352 192.26 523.478 153.892 522.728 151.767C497.479 82.654 420.985 46.91 351.739 72.156C282.619 97.277 246.872 173.763 272.12 243.002C272.87 245.126 286.869 283.37 287.744 285.619C316.867 365.731 297.368 400.475 288.244 422.221C279.369 442.842 299.368 465.713 321.866 457.59L622.471 348.234C642.97 340.735 647.344 310.615 625.596 299.367Z" class="fa-secondary"/><path d="M137.83 444.218C165.454 454.216 195.326 443.843 211.575 420.972L96.208 378.979C93.958 406.85 110.082 434.095 137.83 444.218ZM501.556 476.213C529.179 466.089 545.428 438.969 543.178 410.974L427.811 452.967C444.06 475.713 473.933 486.211 501.556 476.213Z" class="fa-primary"/></svg>