<svg xmlns="http://www.w3.org/2000/svg" viewBox="0 0 640 512"><!-- Font Awesome Pro 6.0.0-alpha2 by @fontawesome - https://fontawesome.com License - https://fontawesome.com/license (Commercial License) --><defs><style>.fa-secondary{opacity:.4}</style></defs><path d="M128 424C88.203 424 56 391.797 56 352S88.203 280 128 280C129.686 280 131.262 280.381 132.918 280.494L159.053 228.223C149.061 225.723 138.771 224 128 224C57.25 224 0 281.25 0 352S57.25 480 128 480C193.268 480 246.449 431.096 254.391 368H198.08C190.795 400.057 162.277 424 128 424ZM512 224C498.529 224 485.801 226.648 473.611 230.498L500.971 281.109C504.592 280.549 508.221 280 512 280C551.797 280 584 312.203 584 352S551.797 424 512 424S440 391.797 440 352C440 333.432 447.203 316.688 458.725 303.926L431.363 253.307C402.676 276.77 384 312.004 384 352C384 422.75 441.25 480 512 480S640 422.75 640 352S582.75 224 512 224Z" class="fa-secondary"/><path d="M525.513 326.512L375.385 48.783C369.796 38.443 358.988 32 347.234 32H304C295.163 32 288 39.163 288 48V64C288 72.837 295.163 80 304 80H337.688L372.281 144H222.422L195.594 106.125C191.095 99.774 183.796 96 176.014 96H112C103.163 96 96 103.163 96 112V128C96 136.837 103.163 144 112 144H163.594L185.617 175.096L106.531 333.266C102.813 340.703 103.219 349.547 107.594 356.625C111.969 363.688 119.688 368 128 368H303.983C312.475 368 320.336 363.514 324.656 356.203L409.434 212.734L483.27 349.337C487.471 357.108 497.174 360.005 504.948 355.808L519.039 348.199C526.818 343.999 529.716 334.288 525.513 326.512ZM217.082 219.523L288.246 320H166.844L217.082 219.523ZM316.133 276.297L256.422 192H365.938L316.133 276.297Z" class="fa-primary"/></svg>