<svg xmlns="http://www.w3.org/2000/svg" viewBox="0 0 576 512"><!-- Font Awesome Pro 6.0.0-alpha2 by @fontawesome - https://fontawesome.com License - https://fontawesome.com/license (Commercial License) --><defs><style>.fa-secondary{opacity:.4}</style></defs><path d="M430.102 293.889C424.982 326.852 408.867 355.965 385.348 377.566C386.5 400.34 396.031 422.156 412.512 438.441C459.965 403.006 491.688 347.914 495.66 285.139C473.084 278.965 449.984 282.385 430.102 293.889ZM206.195 80.773C214.596 103.977 231.689 122.787 253.611 132.578C279.836 126.027 298.98 126.553 323.133 132.604C345.061 122.826 362.166 104.023 370.578 80.828C345.344 69.949 317.557 63.863 288.33 63.863C259.148 63.863 231.4 69.924 206.195 80.773ZM81 285.139C84.975 347.928 116.713 403.033 164.184 438.467C180.646 422.211 190.16 400.354 191.275 377.535C167.787 355.949 151.686 326.863 146.563 293.939C127.209 282.693 104.088 278.814 81 285.139Z" class="fa-secondary"/><path d="M575.491 283.484C562.364 244.371 535.987 211.504 501.359 191.135C483.859 180.762 465.107 174.514 446.105 171.266C452.105 153.52 456.105 134.775 456.105 115.029C456.105 74.041 441.605 34.303 415.101 2.811C412.601 -0.189 408.476 -0.812 405.101 1.061C401.851 2.936 400.351 7.059 401.476 10.809C405.976 24.555 408.101 37.051 408.101 49.299C408.101 117.029 354.345 172.141 288.089 172.141S168.079 117.029 168.079 49.299C168.079 37.176 170.329 24.555 174.704 10.809C175.829 7.059 174.329 2.936 171.079 1.061C167.704 -0.812 163.577 -0.189 161.077 2.811C134.7 34.303 120.073 74.041 120.073 115.029C120.073 134.775 123.948 153.52 130.075 171.266C111.198 174.514 92.321 180.762 74.82 191.135C40.193 211.629 13.814 244.371 0.439 283.484C-0.811 287.234 0.689 291.232 3.939 293.232C7.314 295.232 11.439 294.607 13.939 291.732C23.316 280.861 32.941 272.613 43.193 266.615C100.446 232.748 173.954 252.867 207.081 311.602C240.21 370.211 220.458 445.566 163.202 479.432C152.952 485.555 141.2 489.805 127.325 492.803C123.698 493.678 120.948 497.053 120.948 500.926C121.073 504.926 123.698 508.174 127.45 508.924C167.204 516.672 208.081 509.674 242.71 489.18C260.712 478.682 275.589 464.686 287.964 449.189C300.341 464.686 315.343 478.682 333.343 489.18C367.847 509.674 408.851 516.672 448.48 508.924C452.355 508.174 454.855 504.926 454.98 500.926C454.98 497.053 452.355 493.678 448.605 492.803C434.728 489.93 422.978 485.555 412.851 479.432C355.472 445.566 335.845 370.211 368.847 311.602C401.976 252.867 475.482 232.748 532.862 266.615C542.987 272.738 552.614 280.861 561.989 291.732C564.489 294.607 568.741 295.232 571.991 293.232C575.366 291.232 576.866 287.234 575.491 283.484ZM287.964 320.1C261.462 320.1 239.96 298.605 239.96 272.113C239.96 245.619 261.462 224.125 287.964 224.125C314.468 224.125 335.97 245.619 335.97 272.113C335.97 298.605 314.468 320.1 287.964 320.1Z" class="fa-primary"/></svg>