<svg xmlns="http://www.w3.org/2000/svg" viewBox="0 0 576 512"><!-- Font Awesome Pro 6.0.0-alpha2 by @fontawesome - https://fontawesome.com License - https://fontawesome.com/license (Commercial License) --><defs><style>.fa-secondary{opacity:.4}</style></defs><path d="M400 64H558.5L576 0H192V352H480L497.5 288H400C391.199 288 384 280.801 384 272S391.199 256 400 256H506.125L523.625 192H400C391.199 192 384 184.801 384 176S391.199 160 400 160H532.375L549.875 96H400C391.199 96 384 88.801 384 80S391.199 64 400 64Z" class="fa-secondary"/><path d="M115.74 122.625C123.24 123.375 130.24 119.125 132.99 112.375L158.742 49.131C161.867 41.758 158.992 33.258 152.117 29.008L112.865 4.887C98.49 -3.863 80.115 -0.488 68.99 12.01C-23.639 115.625 -23.012 271.484 70.99 374.475C80.865 385.223 100.115 386.973 112.74 379.225L152.117 355.102C158.992 350.852 161.742 342.352 158.742 334.979L132.99 271.734C130.24 264.984 123.24 260.736 115.74 261.486L70.74 265.859C53.488 218.99 53.113 166.119 70.74 118.25L115.74 122.625ZM400 288H497.455L506.181 256H400C391.164 256 384 263.162 384 272C384 280.836 391.164 288 400 288ZM400 192H523.637L532.363 160H400C391.164 160 384 167.162 384 176C384 184.836 391.164 192 400 192ZM400 64C391.164 64 384 71.162 384 80C384 88.836 391.164 96 400 96H549.818L558.545 64H400ZM480 384H224C188.625 384 160 412.625 160 448V480C160 497.625 174.375 512 192 512H512C529.625 512 544 497.625 544 480V448C544 412.625 515.375 384 480 384ZM352 480C334.375 480 320 465.625 320 448S334.375 416 352 416S384 430.375 384 448S369.625 480 352 480Z" class="fa-primary"/></svg>