<svg xmlns="http://www.w3.org/2000/svg" viewBox="0 0 384 512"><!-- Font Awesome Pro 6.0.0-alpha2 by @fontawesome - https://fontawesome.com License - https://fontawesome.com/license (Commercial License) --><defs><style>.fa-secondary{opacity:.4}</style></defs><path d="M381.22 172.812C377.063 164.938 368.907 160 360.001 160H203.438L254.282 32.906C257.251 25.531 256.345 17.125 251.876 10.531S239.97 0 232.001 0H56.001C43.97 0 33.813 8.906 32.22 20.844L0.22 260.844C-0.718 267.688 1.376 274.594 5.938 279.812C10.501 285 17.095 288 24.001 288H170.313L128.532 482.969C126.126 494.187 132.001 505.531 142.532 510.062C145.595 511.375 148.813 512 152.001 512C159.72 512 167.22 508.25 171.813 501.562L379.813 197.562C384.845 190.219 385.376 180.688 381.22 172.812Z" class="fa-secondary"/></svg>