<svg xmlns="http://www.w3.org/2000/svg" viewBox="0 0 448 512"><!-- Font Awesome Pro 6.0.0-alpha2 by @fontawesome - https://fontawesome.com License - https://fontawesome.com/license (Commercial License) --><defs><style>.fa-secondary{opacity:.4}</style></defs><path d="M416 384V448H96C78 448 64 434 64 416C64 398 78 384 96 384H416Z" class="fa-secondary"/><path d="M236 171L228 169C228 169 227 169 226 168C217 170 203 173 200 185C199 194 200 201 237 210L244 212C247 213 251 214 254 215C263 214 277 210 280 199C282 186 274 181 236 171ZM96 384H424C437 384 448 373 448 360V32C448 14 434 0 416 0H96C43 0 0 43 0 96V416C0 469 43 512 96 512H424C437 512 448 501 448 488V472C448 459 437 448 424 448H96C78 448 64 434 64 416S78 384 96 384ZM236 243L228 241C206 235 160 223 169 179C171 167 177 158 186 151C173 142 165 128 169 107C175 75 209 59 257 65C265 66 274 69 287 73C295 75 300 84 297 93C295 101 286 106 277 103C267 100 259 98 252 97C224 93 203 99 200 113C199 122 200 129 237 138L244 140C274 148 320 160 311 205C309 216 303 225 294 233C307 242 315 256 311 277C306 304 280 320 244 320C237 320 231 319 223 318C211 317 197 312 185 308L179 306C171 304 166 295 169 286C171 278 180 273 189 276L195 278C206 281 218 285 228 287C256 291 277 284 280 271C282 258 274 253 236 243Z" class="fa-primary"/></svg>