<svg xmlns="http://www.w3.org/2000/svg" viewBox="0 0 448 512"><!-- Font Awesome Pro 6.0.0-alpha2 by @fontawesome - https://fontawesome.com License - https://fontawesome.com/license (Commercial License) --><defs><style>.fa-secondary{opacity:.4}</style></defs><path d="M416 384V448H96C78.326 448 64 433.672 64 416C64 398.326 78.326 384 96 384H416Z" class="fa-secondary"/><path d="M96 384H424C437.254 384 448 373.254 448 360V32C448 14.326 433.674 0 416 0H96C42.98 0 0 42.98 0 96V416C0 469.02 42.98 512 96 512H424C437.254 512 448 501.254 448 488V472C448 458.744 437.254 448 424 448H96C78.326 448 64 433.672 64 416C64 398.326 78.326 384 96 384ZM144 128H336C344.801 128 352 135.199 352 144C352 152.799 344.801 160 336 160H144C135.199 160 128 152.799 128 144C128 135.199 135.199 128 144 128ZM144 192H336C344.801 192 352 199.199 352 208C352 216.799 344.801 224 336 224H144C135.199 224 128 216.799 128 208C128 199.199 135.199 192 144 192Z" class="fa-primary"/></svg>