<svg xmlns="http://www.w3.org/2000/svg" viewBox="0 0 640 512"><!-- Font Awesome Pro 6.0.0-alpha2 by @fontawesome - https://fontawesome.com License - https://fontawesome.com/license (Commercial License) --><defs><style>.fa-secondary{opacity:.4}</style></defs><path d="M592 160H48C21.49 160 0 181.49 0 208V464C0 490.51 21.49 512 48 512H592C618.51 512 640 490.51 640 464V208C640 181.49 618.51 160 592 160ZM176 448C114.125 448 64 397.875 64 336S114.125 224 176 224S288 274.125 288 336S237.875 448 176 448ZM464 448C402.125 448 352 397.875 352 336S402.125 224 464 224S576 274.125 576 336S525.875 448 464 448Z" class="fa-secondary"/><path d="M176 224C114.125 224 64 274.125 64 336S114.125 448 176 448S288 397.875 288 336S237.875 224 176 224ZM176 400C140.699 400 112 371.299 112 336C112 300.699 140.699 272 176 272S240 300.699 240 336C240 371.299 211.301 400 176 400ZM256 144C256 135.125 248.875 128 240 128H208C199.125 128 192 135.125 192 144V160H256V144ZM552 0H88C57.125 0 32 25.125 32 56V162.938C37.027 161.15 42.359 160 48 160H80V56C80 51.625 83.625 48 88 48H552C556.375 48 560 51.625 560 56V160H592C597.641 160 602.973 161.15 608 162.938V56C608 25.125 582.875 0 552 0ZM448 144C448 135.125 440.875 128 432 128H400C391.125 128 384 135.125 384 144V160H448V144ZM352 144C352 135.125 344.875 128 336 128H304C295.125 128 288 135.125 288 144V160H352V144ZM464 224C402.125 224 352 274.125 352 336S402.125 448 464 448S576 397.875 576 336S525.875 224 464 224ZM464 400C428.699 400 400 371.299 400 336C400 300.699 428.699 272 464 272S528 300.699 528 336C528 371.299 499.301 400 464 400Z" class="fa-primary"/></svg>