<svg xmlns="http://www.w3.org/2000/svg" viewBox="0 0 576 512"><!-- Font Awesome Pro 6.0.0-alpha2 by @fontawesome - https://fontawesome.com License - https://fontawesome.com/license (Commercial License) --><defs><style>.fa-secondary{opacity:.4}</style></defs><path d="M522.068 160.039C527.742 135.066 544 111.762 544 72.055C544 24.059 512 0.062 480.006 0C448 -0.062 416 24.059 416 72.055C416 111.762 432.258 135.066 437.932 160.039H522.068ZM521.604 192.039H438.396C437.197 201.008 434.902 209.969 432.199 218.938C442.252 245.41 448 274 448 304C448 357.82 430.066 407.336 400.145 447.367C407.184 465.273 415.355 481.168 422.422 494.797C427.932 505.422 438.82 512 450.789 512H509.301C521.297 512 532.205 505.391 537.703 494.727C553.748 463.617 576 421.375 576 368.016C576 309.359 529.445 250.695 521.604 192.039ZM122.668 192C107.92 192 96 203.875 96 218.664C96 233.461 107.92 245.336 122.668 245.336C137.414 245.336 149.334 233.461 149.334 218.664C149.334 203.875 137.414 192 122.668 192ZM197.332 146.664C182.586 146.664 170.666 158.539 170.666 173.332S182.586 200 197.332 200C212.08 200 224 188.125 224 173.332S212.08 146.664 197.332 146.664ZM197.332 234.664C182.586 234.664 170.666 246.539 170.666 261.332S182.586 288 197.332 288C212.08 288 224 276.125 224 261.332S212.08 234.664 197.332 234.664Z" class="fa-secondary"/><path d="M437.932 160.039L438.396 192.039H521.604L522.068 160.039H437.932ZM208 96C93.133 96 0 189.098 0 304S93.133 512 208 512S416 418.902 416 304S322.867 96 208 96ZM122.668 245.336C107.92 245.336 96 233.461 96 218.664C96 203.875 107.92 192 122.668 192C137.414 192 149.334 203.875 149.334 218.664C149.334 233.461 137.414 245.336 122.668 245.336ZM197.332 288C182.586 288 170.666 276.125 170.666 261.332S182.586 234.664 197.332 234.664C212.08 234.664 224 246.539 224 261.332S212.08 288 197.332 288ZM197.332 200C182.586 200 170.666 188.125 170.666 173.332S182.586 146.664 197.332 146.664C212.08 146.664 224 158.539 224 173.332S212.08 200 197.332 200Z" class="fa-primary"/></svg>