<svg xmlns="http://www.w3.org/2000/svg" viewBox="0 0 448 512"><!-- Font Awesome Pro 6.0.0-alpha2 by @fontawesome - https://fontawesome.com License - https://fontawesome.com/license (Commercial License) --><defs><style>.fa-secondary{opacity:.4}</style></defs><path d="M447.25 158.75L390.875 53.875C386.5 40.75 374.375 32 360.5 32H239.625V160H446.375C446.75 159.5 446.875 159.25 447.25 158.75ZM207.625 160V32H86.75C72.875 32 60.75 40.75 56.375 53.875L0 158.75C0.375 159.25 0.5 159.5 0.875 160H207.625Z" class="fa-secondary"/><path d="M240 160V32H208V160H0V432C0 458.51 21.49 480 48 480H400C426.51 480 448 458.51 448 432V160H240ZM305.125 341.25L232.5 412.625C227.75 417.25 220.25 417.25 215.5 412.625L142.875 341.25C121.75 320.5 123.125 286.125 146.625 267C167.125 250.25 197.75 253.25 216.625 271.75L224 279.125L231.375 271.75C250.25 253.25 280.75 250.25 301.375 267C324.875 286.125 326.125 320.375 305.125 341.25Z" class="fa-primary"/></svg>