<svg xmlns="http://www.w3.org/2000/svg" viewBox="0 0 576 512"><!-- Font Awesome Pro 6.0.0-alpha2 by @fontawesome - https://fontawesome.com License - https://fontawesome.com/license (Commercial License) --><defs><style>.fa-secondary{opacity:.4}</style></defs><path d="M391.25 53.875C386.875 40.75 374.75 32 360.875 32H240V160H446.75C447.125 159.5 447.25 159.25 447.625 158.75L391.25 53.875ZM208 160V32H87.125C73.25 32 61.125 40.75 56.75 53.875L0.375 158.75C0.75 159.25 0.875 159.5 1.25 160H208ZM0 432C0 458.51 21.49 480 48 480H296.234C271.102 449.568 256 410.549 256 368C256 270.797 334.799 192 432 192H0V432Z" class="fa-secondary"/><path d="M432.002 224C352.463 224 288 288.463 288 368S352.463 512 432.002 512C511.537 512 576 447.537 576 368S511.537 224 432.002 224ZM499.312 341.984L424.656 416.641C421.531 419.766 417.438 421.328 413.344 421.328S405.156 419.766 402.031 416.641L364.688 379.312C358.438 373.062 358.438 362.937 364.688 356.688S381.063 350.438 387.312 356.688L413.344 382.703L476.688 319.359C482.938 313.109 493.063 313.109 499.312 319.359S505.562 335.734 499.312 341.984Z" class="fa-primary"/></svg>