<svg xmlns="http://www.w3.org/2000/svg" viewBox="0 0 512 512"><!-- Font Awesome Pro 6.0.0-alpha2 by @fontawesome - https://fontawesome.com License - https://fontawesome.com/license (Commercial License) --><defs><style>.fa-secondary{opacity:.4}</style></defs><path d="M384.042 480C373.698 480 363.542 475 357.386 465.75C347.573 451.032 351.542 431.189 366.261 421.376C369.479 419.189 448.011 364.378 448.011 256.005S369.479 92.822 366.136 90.54C351.573 80.634 347.698 60.76 357.542 46.166C367.354 31.542 387.073 27.604 401.761 37.385C406.261 40.385 512.011 112.54 512.011 256.005S406.261 471.625 401.761 474.625C396.292 478.25 390.136 480 384.042 480Z" class="fa-secondary"/><path d="M127.906 480C121.844 480 115.688 478.25 110.25 474.625C105.75 471.625 0 399.471 0 256.005S105.75 40.385 110.25 37.385C124.969 27.573 144.812 31.542 154.625 46.26C164.406 60.916 160.469 80.728 145.875 90.54C142.375 92.947 64 147.758 64 256.005C64 364.378 142.531 419.189 145.875 421.47C160.438 431.376 164.313 451.251 154.469 465.844C148.281 475.031 138.188 480 127.906 480Z" class="fa-primary"/></svg>