<svg xmlns="http://www.w3.org/2000/svg" viewBox="0 0 512 512"><!-- Font Awesome Pro 6.0.0-alpha2 by @fontawesome - https://fontawesome.com License - https://fontawesome.com/license (Commercial License) --><defs><style>.fa-secondary{opacity:.4}</style></defs><path d="M184 0C155.102 0 131.594 21.975 128.598 50.078C100.732 57 80 81.992 80 112C80 118.27 81.184 124.207 82.863 129.934C53.896 136.018 32 161.217 32 192C32 207.098 37.445 220.789 46.191 231.734C18.973 244.5 0 271.947 0 304C0 338.262 21.643 367.264 51.92 378.662C49.537 385.365 48 392.479 48 400C48 435.346 76.654 464 112 464C117.766 464 123.246 462.992 128.561 461.562C131.391 489.838 154.979 512 184 512C214.928 512 240 486.928 240 456V56C240 25.072 214.928 0 184 0ZM512 304C512 271.947 493.027 244.5 465.809 231.734C474.555 220.789 480 207.098 480 192C480 161.217 458.104 136.018 429.137 129.934C430.816 124.207 432 118.27 432 112C432 81.992 411.268 57 383.402 50.078C380.406 21.975 356.898 0 328 0C297.072 0 272 25.072 272 56V456C272 486.928 297.072 512 328 512C357.021 512 380.609 489.838 383.439 461.562C388.754 462.992 394.234 464 400 464C435.346 464 464 435.346 464 400C464 392.479 462.463 385.365 460.08 378.662C490.357 367.264 512 338.262 512 304Z" class="fa-secondary"/><path d="M272 56V456H240V56H272Z" class="fa-primary"/></svg>