<svg xmlns="http://www.w3.org/2000/svg" viewBox="0 0 512 512"><!-- Font Awesome Pro 6.0.0-alpha2 by @fontawesome - https://fontawesome.com License - https://fontawesome.com/license (Commercial License) --><defs><style>.fa-secondary{opacity:.4}</style></defs><path d="M256 32C96 32 0 112.035 0 176.965C0 203 21.557 224 56.889 224H64V448C64 465.674 78.328 480 96 480H416C433.674 480 448 465.674 448 448V224H455.111C490.445 224 512 203 512 176.965C512 112.035 416 32 256 32ZM144 416C135.164 416 128 408.836 128 400C128 391.162 135.164 384 144 384S160 391.162 160 400C160 408.836 152.836 416 144 416ZM144 320C135.164 320 128 312.836 128 304C128 295.162 135.164 288 144 288S160 295.162 160 304C160 312.836 152.836 320 144 320ZM240 416C231.164 416 224 408.836 224 400C224 391.162 231.164 384 240 384S256 391.162 256 400C256 408.836 248.836 416 240 416Z" class="fa-secondary"/><path d="M144 384C135.164 384 128 391.162 128 400C128 408.836 135.164 416 144 416S160 408.836 160 400C160 391.162 152.836 384 144 384ZM144 288C135.164 288 128 295.162 128 304C128 312.836 135.164 320 144 320S160 312.836 160 304C160 295.162 152.836 288 144 288ZM240 384C231.164 384 224 391.162 224 400C224 408.836 231.164 416 240 416S256 408.836 256 400C256 391.162 248.836 384 240 384Z" class="fa-primary"/></svg>