<svg xmlns="http://www.w3.org/2000/svg" viewBox="0 0 640 512"><!-- Font Awesome Pro 6.0.0-alpha2 by @fontawesome - https://fontawesome.com License - https://fontawesome.com/license (Commercial License) --><defs><style>.fa-secondary{opacity:.4}</style></defs><path d="M480 192C480 103.625 372.5 32 240 32S0 103.625 0 192C0 227.375 30.875 256 64 256V448C64 465.625 78.375 480 96 480H384C401.625 480 416 465.625 416 448V256C449.125 256 480 227.375 480 192Z" class="fa-secondary"/><path d="M640 192C640 227.375 609.125 256 576 256V448C576 465.625 561.625 480 544 480H384C401.625 480 416 465.625 416 448V256C449.125 256 480 227.375 480 192C480 103.625 372.5 32 240 32H400C532.5 32 640 103.625 640 192Z" class="fa-primary"/></svg>