<svg xmlns="http://www.w3.org/2000/svg" viewBox="0 0 512 512"><!-- Font Awesome Pro 6.0.0-alpha2 by @fontawesome - https://fontawesome.com License - https://fontawesome.com/license (Commercial License) --><defs><style>.fa-secondary{opacity:.4}</style></defs><path d="M480 448C480 457.219 472.906 480 448 480C441.812 480 432.844 476.844 428 472.969L342.969 404.937C308.684 377.529 267.264 360.574 224 354.734V125.266C267.264 119.426 308.689 102.471 343 75.062L428.031 7.031C433.812 2.375 440.875 0 448 0C473.031 0 480 23.25 480 32V448Z" class="fa-secondary"/><path d="M480 184.875V295.125C499.062 284.031 512 263.625 512 240S499.062 195.969 480 184.875ZM64 128C28.656 128 0 156.656 0 192V288C0 323.344 28.656 352 64 352H66.529C55.766 429.799 101.07 495.266 103.344 498.473C109.438 507.041 118.469 512 128 512H192C204.938 512 216.625 502.922 221.562 488.957C226.531 474.994 223.781 458.953 214.625 448.27C214.188 447.76 174.254 398.574 185.979 352H192C202.758 352 213.398 353.303 224 354.734V125.266C213.396 126.697 202.758 128 192 128H64Z" class="fa-primary"/></svg>