<svg xmlns="http://www.w3.org/2000/svg" viewBox="0 0 448 512"><!-- Font Awesome Pro 6.0.0-alpha2 by @fontawesome - https://fontawesome.com License - https://fontawesome.com/license (Commercial License) --><defs><style>.fa-secondary{opacity:.4}</style></defs><path d="M32 480C32 497.672 46.344 512 64 512H96C113.656 512 128 497.672 128 480V448H32V480ZM320 448V480C320 497.672 334.344 512 352 512H384C401.656 512 416 497.672 416 480V448H320ZM96 288H352C369.656 288 384 273.672 384 256V128C384 110.328 369.656 96 352 96H96C78.344 96 64 110.328 64 128V256C64 273.672 78.344 288 96 288Z" class="fa-secondary"/><path d="M0 416C0 433.672 14.344 448 32 448H422.406C438.406 448 448 435.203 448 422.406V80C448 35.203 348.812 0 224 0S0 35.203 0 80V416ZM400 368C400 385.672 385.656 400 368 400S336 385.672 336 368S350.344 336 368 336S400 350.328 400 368ZM64 128C64 110.328 78.344 96 96 96H352C369.656 96 384 110.328 384 128V256C384 273.672 369.656 288 352 288H96C78.344 288 64 273.672 64 256V128ZM80 336C97.656 336 112 350.328 112 368S97.656 400 80 400S48 385.672 48 368S62.344 336 80 336Z" class="fa-primary"/></svg>