<svg xmlns="http://www.w3.org/2000/svg" viewBox="0 0 576 512"><!-- Font Awesome Pro 6.0.0-alpha2 by @fontawesome - https://fontawesome.com License - https://fontawesome.com/license (Commercial License) --><defs><style>.fa-secondary{opacity:.4}</style></defs><path d="M96 480C96 497.625 110.375 512 128 512H160C177.625 512 192 497.625 192 480V448H96V480ZM384 448V480C384 497.625 398.375 512 416 512H448C465.625 512 480 497.625 480 480V448H384ZM448 256V160C448 142.375 433.625 128 416 128H304V288H416C433.625 288 448 273.625 448 256ZM128 160V256C128 273.625 142.375 288 160 288H272V128H160C142.375 128 128 142.375 128 160Z" class="fa-secondary"/><path d="M56 256H64V416C64 433.625 78.375 448 96 448H486.375C502.375 448 512 435.25 512 422.375V256H520C533.25 256 544 245.25 544 232V152C544 138.75 533.25 128 520 128H512V80C512 35.25 412.75 0 288 0S64 35.25 64 80V128H56C42.75 128 32 138.75 32 152V232C32 245.25 42.75 256 56 256ZM464 368C464 385.625 449.625 400 432 400S400 385.625 400 368S414.375 336 432 336S464 350.375 464 368ZM448 160V256C448 273.625 433.625 288 416 288H304V128H416C433.625 128 448 142.375 448 160ZM208 64H368C376.836 64 384 71.162 384 80C384 88.836 376.836 96 368 96H208C199.164 96 192 88.836 192 80C192 71.162 199.164 64 208 64ZM128 160C128 142.375 142.375 128 160 128H272V288H160C142.375 288 128 273.625 128 256V160ZM144 336C161.625 336 176 350.375 176 368S161.625 400 144 400S112 385.625 112 368S126.375 336 144 336Z" class="fa-primary"/></svg>