<svg xmlns="http://www.w3.org/2000/svg" viewBox="0 0 448 512"><!-- Font Awesome Pro 6.0.0-alpha2 by @fontawesome - https://fontawesome.com License - https://fontawesome.com/license (Commercial License) --><defs><style>.fa-secondary{opacity:.4}</style></defs><path d="M400 0H48C21.6 0 0 21.6 0 48V240H448V48C448 21.6 426.4 0 400 0ZM320 152C320 156.375 316.375 160 312 160H296C291.625 160 288 156.375 288 152V128H160V152C160 156.375 156.375 160 152 160H136C131.625 160 128 156.375 128 152V112C128 103.125 135.125 96 144 96H304C312.875 96 320 103.125 320 112V152ZM0 464C0 490.4 21.6 512 48 512H400C426.4 512 448 490.4 448 464V272H0V464ZM128 368C128 359.125 135.125 352 144 352H304C312.875 352 320 359.125 320 368V408C320 412.375 316.375 416 312 416H296C291.625 416 288 412.375 288 408V384H160V408C160 412.375 156.375 416 152 416H136C131.625 416 128 412.375 128 408V368Z" class="fa-secondary"/><path d="M304 96H144C135.125 96 128 103.125 128 112V152C128 156.375 131.625 160 136 160H152C156.375 160 160 156.375 160 152V128H288V152C288 156.375 291.625 160 296 160H312C316.375 160 320 156.375 320 152V112C320 103.125 312.875 96 304 96ZM304 352H144C135.125 352 128 359.125 128 368V408C128 412.375 131.625 416 136 416H152C156.375 416 160 412.375 160 408V384H288V408C288 412.375 291.625 416 296 416H312C316.375 416 320 412.375 320 408V368C320 359.125 312.875 352 304 352Z" class="fa-primary"/></svg>