<svg xmlns="http://www.w3.org/2000/svg" viewBox="0 0 512 512"><!-- Font Awesome Pro 6.0.0-alpha2 by @fontawesome - https://fontawesome.com License - https://fontawesome.com/license (Commercial License) --><defs><style>.fa-secondary{opacity:.4}</style></defs><path d="M511.462 51.875C509.212 43.25 500.462 38.25 491.837 40.625L11.832 168.625C3.332 170.875 -1.793 179.625 0.582 188.25C2.457 195.25 8.832 200 15.957 200C17.332 200 18.707 199.75 20.082 199.5L500.087 71.5C508.712 69.25 513.712 60.375 511.462 51.875ZM80 384H176.001V288H80V384ZM208.002 384H304.003V288H208.002V384ZM336.003 384H432.004V288H336.003V384Z" class="fa-secondary"/><path d="M416.004 224H272.002V132.25L240.002 140.75V224H96.001C60.655 224 32 252.652 32 288V448C32 483.346 60.655 512 96.001 512H416.004C451.35 512 480.005 483.346 480.005 448V288C480.005 252.652 451.35 224 416.004 224ZM176.001 384H80V288H176.001V384ZM304.003 384H208.002V288H304.003V384ZM432.004 384H336.003V288H432.004V384ZM191.959 96C209.709 96 223.959 81.75 223.959 64S209.709 32 191.959 32S159.958 46.25 159.958 64S174.208 96 191.959 96ZM287.96 64C305.71 64 319.96 49.75 319.96 32S305.71 0 287.96 0S255.959 14.25 255.959 32S270.21 64 287.96 64Z" class="fa-primary"/></svg>