<svg xmlns="http://www.w3.org/2000/svg" viewBox="0 0 448 512"><!-- Font Awesome Pro 6.0.0-alpha2 by @fontawesome - https://fontawesome.com License - https://fontawesome.com/license (Commercial License) --><defs><style>.fa-secondary{opacity:.4}</style></defs><path d="M384 224H64C28.654 224 0 252.654 0 288V356.664C9.814 362.766 21.387 367.992 32 367.992C52.641 367.992 77.047 348.258 84.703 340.664C90.953 334.445 101.047 334.445 107.297 340.664C114.953 348.258 139.359 367.992 160 367.992S205.047 348.258 212.703 340.664C218.953 334.445 229.047 334.445 235.297 340.664C242.953 348.258 267.359 367.992 288 367.992S333.047 348.258 340.703 340.664C346.953 334.445 357.047 334.445 363.297 340.664C370.953 348.258 395.359 367.992 416 367.992C426.613 367.992 438.186 362.766 448 356.664V288C448 252.654 419.346 224 384 224ZM96 112C118.092 112 136 94.092 136 72S96 0 96 0S56 49.908 56 72S73.908 112 96 112ZM224 112C246.092 112 264 94.092 264 72S224 0 224 0S184 49.908 184 72S201.908 112 224 112ZM352 112C374.092 112 392 94.092 392 72S352 0 352 0S312 49.908 312 72S329.908 112 352 112Z" class="fa-secondary"/><path d="M416 399.992C390.031 399.992 365.75 384.227 352 373.273C338.25 384.227 313.969 399.992 288 399.992S237.75 384.227 224 373.273C210.25 384.227 185.969 399.992 160 399.992S109.75 384.227 96 373.273C82.25 384.227 57.969 399.992 32 399.992C20.73 399.992 9.91 396.871 0 392.615V480C0 497.674 14.326 512 32 512H416C433.674 512 448 497.674 448 480V392.615C438.09 396.871 427.27 399.992 416 399.992ZM256 160C256 151.164 248.836 144 240 144H208C199.164 144 192 151.164 192 160V224H256V160ZM384 160C384 151.164 376.836 144 368 144H336C327.164 144 320 151.164 320 160V224H384V160ZM128 160C128 151.164 120.836 144 112 144H80C71.164 144 64 151.164 64 160V224H128V160Z" class="fa-primary"/></svg>