<svg xmlns="http://www.w3.org/2000/svg" viewBox="0 0 448 512"><!-- Font Awesome Pro 6.0.0-alpha2 by @fontawesome - https://fontawesome.com License - https://fontawesome.com/license (Commercial License) --><defs><style>.fa-secondary{opacity:.4}</style></defs><path d="M0 464C0 490.5 21.5 512 48 512H400C426.5 512 448 490.5 448 464V192H0V464ZM135.031 343.016C144.406 333.641 159.594 333.641 168.969 343.016L198.656 372.703L277.781 280.359C286.438 270.297 301.594 269.172 311.625 277.766C321.688 286.391 322.844 301.547 314.219 311.609L218.219 423.609C213.875 428.672 207.594 431.703 200.906 431.953C200.625 431.984 200.312 431.984 200 431.984C193.656 431.984 187.531 429.453 183.031 424.953L135.031 376.953C125.656 367.578 125.656 352.391 135.031 343.016Z" class="fa-secondary"/><path d="M400 64H352V32C352 14.327 337.673 0 320 0H320C302.327 0 288 14.327 288 32V64H160V32C160 14.327 145.673 0 128 0H128C110.327 0 96 14.327 96 32V64H48C21.49 64 0 85.49 0 112V192H448V112C448 85.49 426.51 64 400 64ZM277.781 280.359L198.656 372.703L168.969 343.016C159.594 333.641 144.406 333.641 135.031 343.016S125.656 367.578 135.031 376.953L183.031 424.953C187.531 429.453 193.656 431.984 200 431.984C200.312 431.984 200.625 431.984 200.906 431.953C207.594 431.703 213.875 428.672 218.219 423.609L314.219 311.609C322.844 301.547 321.687 286.391 311.625 277.766C301.594 269.172 286.438 270.297 277.781 280.359Z" class="fa-primary"/></svg>