<svg xmlns="http://www.w3.org/2000/svg" viewBox="0 0 576 512"><!-- Font Awesome Pro 6.0.0-alpha2 by @fontawesome - https://fontawesome.com License - https://fontawesome.com/license (Commercial License) --><defs><style>.fa-secondary{opacity:.4}</style></defs><path d="M288 256C323.375 256 352 227.375 352 192S323.375 128 288 128S224 156.625 224 192S252.625 256 288 256ZM575.955 352H0.045L0 352.068V448C0 465.6 14.4 480 32 480H544C561.6 480 576 465.6 576 448V352.068L575.955 352ZM464 432H112C103.164 432 96 424.836 96 416C96 407.162 103.164 400 112 400H464C472.838 400 480 407.162 480 416C480 424.836 472.838 432 464 432Z" class="fa-secondary"/><path d="M575.91 352L511.955 256V80C511.955 53.49 490.465 32 463.955 32H111.955C85.445 32 63.955 53.49 63.955 80V256L0 352H575.91ZM383.955 112C383.955 103.199 391.156 96 399.955 96H431.955C440.756 96 447.955 103.199 447.955 112V144C447.955 152.801 440.756 160 431.955 160H399.955C391.156 160 383.955 152.801 383.955 144V112ZM287.955 128C323.33 128 351.955 156.625 351.955 192S323.33 256 287.955 256S223.955 227.375 223.955 192S252.58 128 287.955 128Z" class="fa-primary"/></svg>