<svg xmlns="http://www.w3.org/2000/svg" viewBox="0 0 640 512"><!-- Font Awesome Pro 6.0.0-alpha2 by @fontawesome - https://fontawesome.com License - https://fontawesome.com/license (Commercial License) --><defs><style>.fa-secondary{opacity:.4}</style></defs><path d="M176 0C78 0 0 27.625 0 62.875V322.625C0 338.875 13.125 352 29.375 352H48V384C48 401.672 62.328 416 80 416H96C113.672 416 128 401.672 128 384V352H192V342C192 312.559 206.988 286.141 231.27 271.004L246.936 224H192V80H273.375C281.375 80 288 86.625 288 94.625V153.705C305.762 138.908 327.969 129.855 352 128.494V62.875C352 27.625 274 0 176 0ZM80 312C66.75 312 56 301.25 56 288S66.75 264 80 264S104 274.75 104 288S93.25 312 80 312ZM160 224H78.625C70.625 224 64 217.375 64 209.375V94.625C64 86.625 70.625 80 78.625 80H160V224Z" class="fa-secondary"/><path d="M606.516 293.551L579.781 213.334C569.164 181.482 539.359 160 505.785 160H358.219C324.645 160 294.836 181.486 284.219 213.34L257.484 293.551C237.938 301.029 224 319.826 224 342V480C224 497.672 238.328 512 256 512H272C289.672 512 304 497.672 304 480V447H560V480C560 497.672 574.328 512 592 512H608C625.672 512 640 497.672 640 480V342C640 319.826 626.062 301.029 606.516 293.551ZM344.934 233.576C346.844 227.848 352.184 224 358.219 224H505.785C511.82 224 517.156 227.846 519.062 233.57L537.203 288H326.797L344.934 233.576ZM304 392C290.746 392 280 381.254 280 368C280 354.744 290.746 344 304 344S328 354.744 328 368C328 381.254 317.254 392 304 392ZM560 392C546.746 392 536 381.254 536 368C536 354.744 546.746 344 560 344S584 354.744 584 368C584 381.254 573.254 392 560 392Z" class="fa-primary"/></svg>