<svg xmlns="http://www.w3.org/2000/svg" viewBox="0 0 512 512"><!-- Font Awesome Pro 6.0.0-alpha2 by @fontawesome - https://fontawesome.com License - https://fontawesome.com/license (Commercial License) --><defs><style>.fa-secondary{opacity:.4}</style></defs><path d="M0 448C0 465.672 14.328 480 32 480H64C81.672 480 96 465.672 96 448V400H0V448ZM416 400V448C416 465.672 430.328 480 448 480H480C497.672 480 512 465.672 512 448V400H416ZM346.805 96H165.195C151.398 96 139.195 104.793 134.836 117.881L110.129 192H401.871L377.164 117.881C372.805 104.793 360.602 96 346.805 96Z" class="fa-secondary"/><path d="M470.789 196.371L437.883 97.643C424.812 58.441 388.129 32 346.805 32H165.195C123.871 32 87.188 58.441 74.117 97.643L41.211 196.371C17.156 205.576 0 228.709 0 256V400H512V256C512 228.709 494.844 205.576 470.789 196.371ZM134.836 117.881C139.195 104.793 151.398 96 165.195 96H346.805C360.602 96 372.805 104.793 377.164 117.881L401.871 192H110.129L134.836 117.881ZM96 320C78.328 320 64 305.672 64 288C64 270.326 78.328 256 96 256S128 270.326 128 288C128 305.672 113.672 320 96 320ZM416 320C398.328 320 384 305.672 384 288C384 270.326 398.328 256 416 256S448 270.326 448 288C448 305.672 433.672 320 416 320Z" class="fa-primary"/></svg>