<svg xmlns="http://www.w3.org/2000/svg" viewBox="0 0 640 512"><!-- Font Awesome Pro 6.0.0-alpha2 by @fontawesome - https://fontawesome.com License - https://fontawesome.com/license (Commercial License) --><defs><style>.fa-secondary{opacity:.4}</style></defs><path d="M256 224V160C256 142.327 241.673 128 224 128H96C78.327 128 64 142.327 64 160V224C64 241.673 78.327 256 96 256H224C241.673 256 256 241.673 256 224ZM416 128H352C334.327 128 320 142.327 320 160V224C320 241.673 334.327 256 352 256H416C433.673 256 448 241.673 448 224V160C448 142.327 433.673 128 416 128ZM192 336C143.399 336 104 375.399 104 424S143.399 512 192 512S280 472.601 280 424S240.601 336 192 336Z" class="fa-secondary"/><path d="M624 352H576V192C576 103.634 504.366 32 416 32H64C28.654 32 0 60.654 0 96V352C0 387.346 28.654 416 64 416H72.81C77 353.53 128.47 304 192 304S307 353.53 311.19 416H624C632.837 416 640 408.837 640 400V368C640 359.163 632.837 352 624 352ZM256 224C256 241.673 241.673 256 224 256H96C78.327 256 64 241.673 64 224V160C64 142.327 78.327 128 96 128H224C241.673 128 256 142.327 256 160V224ZM448 224C448 241.673 433.673 256 416 256H352C334.327 256 320 241.673 320 224V160C320 142.327 334.327 128 352 128H416C433.673 128 448 142.327 448 160V224Z" class="fa-primary"/></svg>