<svg xmlns="http://www.w3.org/2000/svg" viewBox="0 0 640 512"><!-- Font Awesome Pro 6.0.0-alpha2 by @fontawesome - https://fontawesome.com License - https://fontawesome.com/license (Commercial License) --><defs><style>.fa-secondary{opacity:.4}</style></defs><path d="M633.529 44.734C627.42 36.641 618.107 32 607.967 32H185.957L234.717 288H553.123C567.357 288 579.998 278.438 583.889 264.781L638.748 72.797C641.529 63.047 639.623 52.828 633.529 44.734ZM24 144H104C117.256 144 128 133.254 128 120C128 106.744 117.256 96 104 96H24C10.746 96 0 106.744 0 120C0 133.254 10.746 144 24 144ZM24 224H120C133.256 224 144 213.254 144 200C144 186.744 133.256 176 120 176H24C10.746 176 0 186.744 0 200C0 213.254 10.746 224 24 224ZM136 256H24C10.746 256 0 266.744 0 280C0 293.254 10.746 304 24 304H136C149.256 304 160 293.254 160 280C160 266.744 149.256 256 136 256Z" class="fa-secondary"/><path d="M528 416C501.49 416 480 437.49 480 464S501.49 512 528 512S576 490.51 576 464S554.51 416 528 416ZM240 416C213.49 416 192 437.49 192 464S213.49 512 240 512S288 490.51 288 464S266.51 416 240 416ZM552 336H243.859L183.578 19.51C181.422 8.19 171.525 0 160.002 0H88C74.745 0 64 10.745 64 24V24C64 37.255 74.745 48 88 48H140.141L200.424 364.491C202.58 375.811 212.477 384 224 384H552C565.255 384 576 373.255 576 360V360C576 346.745 565.255 336 552 336Z" class="fa-primary"/></svg>