<svg xmlns="http://www.w3.org/2000/svg" viewBox="0 0 640 512"><!-- Font Awesome Pro 6.0.0-alpha2 by @fontawesome - https://fontawesome.com License - https://fontawesome.com/license (Commercial License) --><defs><style>.fa-secondary{opacity:.4}</style></defs><path d="M639.363 433.605C633.045 418.232 618.185 408.909 602.52 408.909C597.425 408.909 592.243 409.897 587.242 411.982L565.118 421.231L526.371 319.245C574.242 284.25 591.241 219.009 560.868 166.516L474.249 16.037C468.386 5.87 457.687 0 446.489 0C442.405 -0.004 438.259 0.777 434.251 2.414L320.009 49.782L205.766 2.414C201.761 0.777 197.61 0 193.529 0C182.328 0 171.632 5.87 165.769 16.037L79.149 166.516C48.901 219.009 65.775 284.25 113.647 319.245L74.9 421.106L52.776 411.858C47.776 409.772 42.601 408.784 37.513 408.784C21.878 408.784 7.068 418.107 0.654 433.48C-1.096 437.604 0.779 442.228 4.904 443.978L167.269 511.344C168.282 511.789 169.337 512 170.376 512C173.428 512 176.336 510.172 177.643 507.094C186.017 486.722 176.393 463.225 156.019 454.727L133.896 445.603L173.268 341.992C177.768 342.492 182.143 343.242 186.392 343.242C238.139 343.242 285.761 310.246 299.76 258.004L320.009 182.639L340.258 258.004C354.257 310.246 401.879 343.242 453.625 343.242C457.875 343.242 462.25 342.492 466.749 341.992L505.997 445.603L483.873 454.727C463.5 463.225 453.75 486.722 462.25 507.094C463.556 510.172 466.533 512 469.622 512C470.673 512 471.735 511.789 472.749 511.344L635.114 443.978C639.113 442.228 641.113 437.729 639.363 433.605ZM237.946 241.443C232.696 261.031 217.92 272.502 202.774 277.036C192.124 280.219 169.444 280.766 151.416 267.588C128.693 250.977 121.463 221.259 134.615 198.438L207.225 72.295L275.756 100.709L237.946 241.443ZM488.668 267.588C470.64 280.766 447.96 280.219 437.31 277.036C422.164 272.502 407.388 261.031 402.138 241.443L364.328 100.709L432.859 72.295L505.47 198.438C518.621 221.259 511.391 250.977 488.668 267.588Z" class="fa-secondary"/><path d="M261.22 154.533L237.87 241.443C232.621 261.031 217.844 272.502 202.699 277.036C192.049 280.219 169.369 280.766 151.341 267.588C128.618 250.977 121.388 221.259 134.539 198.438L179.353 120.585L261.22 154.533ZM505.394 198.438L462.016 123.081L379.461 157.314L402.063 241.443C407.313 261.031 422.089 272.502 437.235 277.036C447.884 280.219 470.564 280.766 488.593 267.588C511.316 250.977 518.546 221.259 505.394 198.438Z" class="fa-primary"/></svg>