<svg xmlns="http://www.w3.org/2000/svg" viewBox="0 0 512 512"><!-- Font Awesome Pro 6.0.0-alpha2 by @fontawesome - https://fontawesome.com License - https://fontawesome.com/license (Commercial License) --><defs><style>.fa-secondary{opacity:.4}</style></defs><path d="M480 416H64V64C64 46.327 49.673 32 32 32H32C14.327 32 0 46.327 0 64V448C0 465.6 14.4 480 32 480H480C497.673 480 512 465.673 512 448V448C512 430.327 497.673 416 480 416Z" class="fa-secondary"/><path d="M371.25 192H332.75C326.375 192 320 198.375 320 204.75V339.25C320 345.625 326.375 352 332.75 352H371.25C377.625 352 384 345.625 384 339.25V204.75C384 198.375 377.625 192 371.25 192ZM467.25 96H428.75C422.375 96 416 102.375 416 108.75V339.25C416 345.625 422.375 352 428.75 352H467.25C473.625 352 480 345.625 480 339.25V108.75C480 102.375 473.625 96 467.25 96ZM275.25 128H236.75C230.375 128 224 134.375 224 140.75V339.25C224 345.625 230.375 352 236.75 352H275.25C281.625 352 288 345.625 288 339.25V140.75C288 134.375 281.625 128 275.25 128ZM179.25 256H140.75C134.375 256 128 262.375 128 268.75V339.25C128 345.625 134.375 352 140.75 352H179.25C185.625 352 192 345.625 192 339.25V268.75C192 262.375 185.625 256 179.25 256Z" class="fa-primary"/></svg>