<svg xmlns="http://www.w3.org/2000/svg" viewBox="0 0 512 512"><!-- Font Awesome Pro 6.0.0-alpha2 by @fontawesome - https://fontawesome.com License - https://fontawesome.com/license (Commercial License) --><defs><style>.fa-secondary{opacity:.4}</style></defs><path d="M480 416H64V64C64 46.327 49.673 32 32 32H32C14.327 32 0 46.327 0 64V448C0 465.6 14.4 480 32 480H480C497.673 480 512 465.673 512 448V448C512 430.327 497.673 416 480 416Z" class="fa-secondary"/><path d="M288 224C270.375 224 256 238.375 256 256S270.375 288 288 288S320 273.625 320 256S305.625 224 288 224ZM384 288C366.375 288 352 302.375 352 320S366.375 352 384 352S416 337.625 416 320S401.625 288 384 288ZM416 96C398.375 96 384 110.375 384 128S398.375 160 416 160S448 145.625 448 128S433.625 96 416 96ZM160 288C142.375 288 128 302.375 128 320S142.375 352 160 352S192 337.625 192 320S177.625 288 160 288ZM192 128C174.375 128 160 142.375 160 160S174.375 192 192 192S224 177.625 224 160S209.625 128 192 128Z" class="fa-primary"/></svg>