<svg xmlns="http://www.w3.org/2000/svg" viewBox="0 0 512 512"><!-- Font Awesome Pro 6.0.0-alpha2 by @fontawesome - https://fontawesome.com License - https://fontawesome.com/license (Commercial License) --><defs><style>.fa-secondary{opacity:.4}</style></defs><path d="M484 416H64V60C64 44.536 51.464 32 36 32H28C12.536 32 0 44.536 0 60V448C0 465.673 14.327 480 32 480H484C499.464 480 512 467.464 512 452V444C512 428.536 499.464 416 484 416Z" class="fa-secondary"/><path d="M480 352H128V233.771C128 226.553 130.441 219.547 134.926 213.891L221.195 105.088C230.805 92.971 249.195 92.971 258.805 105.088L322.586 185.531L365.969 136.158C375.531 125.279 392.469 125.279 402.031 136.158L472.039 215.834C477.172 221.674 480 229.182 480 236.955V352Z" class="fa-primary"/></svg>