<svg xmlns="http://www.w3.org/2000/svg" viewBox="0 0 512 512"><!-- Font Awesome Pro 6.0.0-alpha2 by @fontawesome - https://fontawesome.com License - https://fontawesome.com/license (Commercial License) --><defs><style>.fa-secondary{opacity:.4}</style></defs><path d="M448.045 496C448.045 504.836 440.88 512 432.043 512H80.002C71.163 512 64 504.836 64 496C64 475.119 77.416 457.533 96.033 450.93V432C96.033 423.162 103.198 416 112.035 416H400.068C408.905 416 416.07 423.162 416.07 432V450.947C434.658 457.568 448.045 475.141 448.045 496Z" class="fa-secondary"/><path d="M256 112C286.879 112 312.007 86.875 312.007 56S286.879 0 256 0S199.994 25.125 199.994 56S225.121 112 256 112ZM504.904 184.125L476.401 168.25C468.9 163.25 459.524 165.75 454.148 172.875C443.147 187.5 424.77 194.625 406.893 191.125C383.765 186.875 368.013 164.875 368.013 141.375C368.013 134 362.012 128 354.636 128H315.882C309.881 128 304.256 132 303.005 137.875C298.255 160.125 278.753 176 256 176S213.745 160.125 208.995 137.875C207.744 132 202.244 128 196.118 128H157.364C149.988 128 143.987 134 143.987 141.375C143.987 167.125 124.985 190.125 99.357 191.875C83.105 193 67.478 185.75 57.727 172.75C52.476 165.625 42.975 163.25 35.724 168.25L7.096 184.25C0.345 188.625 -1.905 197.5 1.72 204.625L104.232 416H407.768L510.28 204.625C513.905 197.375 511.655 188.625 504.904 184.125Z" class="fa-primary"/></svg>