<svg xmlns="http://www.w3.org/2000/svg" viewBox="0 0 256 512"><!-- Font Awesome Pro 6.0.0-alpha2 by @fontawesome - https://fontawesome.com License - https://fontawesome.com/license (Commercial License) --><defs><style>.fa-secondary{opacity:.4}</style></defs><path d="M256 473.909V496.014C256 504.881 248.875 512 240 512H16C7.125 512 0 504.881 0 496.014V473.909C0 467.915 3.375 462.295 8.875 459.672L32 448.058V400.101C32 391.234 39.125 384.115 48 384.115H208C216.875 384.115 224 391.234 224 400.101V448.058L247.125 459.672C252.625 462.295 256 467.915 256 473.909Z" class="fa-secondary"/><path d="M64.002 288.202H78.877C76.877 320.548 71.877 352.644 64.002 384.115H192.002C184.127 352.644 179.127 320.548 177.127 288.202H192.002C200.877 288.202 208.002 281.083 208.002 272.216V256.231C208.002 247.364 200.877 240.245 192.002 240.245H175.502C203.377 219.763 214.752 183.671 204.002 150.95C193.127 118.23 162.502 96 128.002 96S62.877 118.23 52.002 150.95C41.252 183.671 52.627 219.763 80.502 240.245H64.002C55.127 240.245 48.002 247.364 48.002 256.231V272.216C48.002 281.083 55.127 288.202 64.002 288.202Z" class="fa-primary"/></svg>