<svg xmlns="http://www.w3.org/2000/svg" viewBox="0 0 448 512"><!-- Font Awesome Pro 6.0.0-alpha2 by @fontawesome - https://fontawesome.com License - https://fontawesome.com/license (Commercial License) --><defs><style>.fa-secondary{opacity:.4}</style></defs><path d="M256.009 256C256.009 246.047 252.322 236.078 244.916 228.344L68.923 44.344C53.642 28.391 28.332 27.828 12.363 43.094C-3.604 58.359 -4.166 83.688 11.113 99.656L160.669 256L11.113 412.344C-4.135 428.312 -3.666 453.641 12.363 468.906C28.332 484.172 53.642 483.609 68.923 467.656L244.916 283.656C252.322 275.922 256.009 265.953 256.009 256Z" class="fa-secondary"/><path d="M436.904 228.344L260.912 44.344C245.632 28.391 220.32 27.828 204.353 43.094C188.384 58.359 187.853 83.688 203.103 99.656L352.658 256L203.103 412.344C187.853 428.312 188.353 453.641 204.353 468.906C220.32 484.172 245.632 483.609 260.912 467.656L436.904 283.656C444.31 275.922 447.997 265.953 447.997 256S444.31 236.078 436.904 228.344Z" class="fa-primary"/></svg>