<svg xmlns="http://www.w3.org/2000/svg" viewBox="0 0 448 512"><!-- Font Awesome Pro 6.0.0-alpha2 by @fontawesome - https://fontawesome.com License - https://fontawesome.com/license (Commercial License) --><defs><style>.fa-secondary{opacity:.4}</style></defs><path d="M224 144C263.751 144 296.001 111.75 296.001 72S263.751 0 224 0S152 32.25 152 72S184.25 144 224 144Z" class="fa-secondary"/><path d="M415.079 110.828C401.188 93.688 376.016 91.031 358.829 104.922L307.625 146.391C260.469 184.578 187.531 184.578 140.375 146.391L89.171 104.922C72.015 91 46.796 93.672 32.921 110.828C19.015 128 21.655 153.188 38.827 167.078L90.015 208.547C101.744 218.043 114.646 225.707 128 232.463V480C128 497.625 142.375 512 160 512H176C193.625 512 208 497.625 208 480V368H240V480C240 497.625 254.375 512 272 512H288C305.625 512 320 497.625 320 480V232.461C333.35 225.705 346.249 218.043 357.969 208.547L409.173 167.078C426.345 153.188 428.985 128 415.079 110.828Z" class="fa-primary"/></svg>