<svg xmlns="http://www.w3.org/2000/svg" viewBox="0 0 512 512"><!-- Font Awesome Pro 6.0.0-alpha2 by @fontawesome - https://fontawesome.com License - https://fontawesome.com/license (Commercial License) --><defs><style>.fa-secondary{opacity:.4}</style></defs><path d="M496 256C496 123.42 388.58 16 256 16S16 123.42 16 256C16 388.582 123.42 496 256 496S496 388.582 496 256ZM173.335 352.631C170.849 346.653 172.23 339.77 176.804 335.196L222.059 289.941L154.177 222.059C141.68 209.562 141.68 189.301 154.177 176.804L176.804 154.177C189.301 141.68 209.562 141.68 222.059 154.177L289.941 222.059L335.196 176.804C339.77 172.23 346.653 170.849 352.631 173.335C358.619 175.81 362.508 181.643 362.508 188.118V346.51C362.508 355.345 355.345 362.508 346.51 362.508H188.118C181.643 362.508 175.81 358.619 173.335 352.631Z" class="fa-secondary"/><path d="M173.531 352.631C171.045 346.653 172.426 339.77 177 335.196L222.255 289.941L154.373 222.059C141.876 209.562 141.876 189.301 154.373 176.804L177 154.177C189.497 141.68 209.758 141.68 222.255 154.177L290.137 222.059L335.392 176.804C339.966 172.23 346.849 170.849 352.827 173.335C358.815 175.81 362.704 181.643 362.704 188.118V346.51C362.704 355.345 355.541 362.508 346.706 362.508H188.314C181.839 362.508 176.006 358.619 173.531 352.631Z" class="fa-primary"/></svg>