<svg xmlns="http://www.w3.org/2000/svg" viewBox="0 0 576 512"><!-- Font Awesome Pro 6.0.0-alpha2 by @fontawesome - https://fontawesome.com License - https://fontawesome.com/license (Commercial License) --><defs><style>.fa-secondary{opacity:.4}</style></defs><path d="M408.402 335.596L352.402 279.596C330.568 257.762 330.568 222.236 352.402 200.404C362.98 189.826 377.043 184 391.998 184S421.016 189.826 431.594 200.404L446.504 215.312L482.322 176.736C449.553 83.195 360.73 16 256 16C123.451 16 16 123.451 16 256S123.451 496 256 496C358.232 496 445.301 431.967 479.889 341.912C470.811 348.16 459.855 351.783 447.998 352C433.258 352 418.826 346.021 408.402 335.596ZM232 152C232 138.75 242.75 128 256 128S280 138.75 280 152V280C280 293.25 269.25 304 256 304S232 293.25 232 280V152ZM256 400C238.637 400 224.562 385.924 224.562 368.561C224.562 351.199 238.637 337.123 256 337.123S287.438 351.199 287.438 368.561C287.438 385.924 273.363 400 256 400Z" class="fa-secondary"/><path d="M569.594 200.328L465.594 312.328C461.156 317.109 454.969 319.875 448.437 320H448C441.641 320 435.531 317.469 431.031 312.969L375.031 256.969C365.656 247.594 365.656 232.406 375.031 223.031S399.594 213.656 408.969 223.031L447.359 261.422L534.406 167.672C543.422 157.953 558.625 157.406 568.328 166.406C578.047 175.438 578.609 190.625 569.594 200.328Z" class="fa-primary"/></svg>