<svg xmlns="http://www.w3.org/2000/svg" viewBox="0 0 512 512"><!-- Font Awesome Pro 6.0.0-alpha2 by @fontawesome - https://fontawesome.com License - https://fontawesome.com/license (Commercial License) --><defs><style>.fa-secondary{opacity:.4}</style></defs><path d="M256 16C123.451 16 16 123.453 16 256S123.451 496 256 496S496 388.547 496 256S388.549 16 256 16ZM208 144C208 117.484 229.484 96 256 96S304 117.484 304 144H264C259.582 144 256 147.582 256 152V168C256 172.418 259.582 176 264 176H304V208H264C259.582 208 256 211.582 256 216V232C256 236.418 259.582 240 264 240H304V256C304 282.516 282.516 304 256 304S208 282.516 208 256V144ZM384 256C384 321.102 334.969 374.406 272 382.383V408C272 412.418 268.418 416 264 416H248C243.582 416 240 412.418 240 408V382.383C177.031 374.406 128 321.102 128 256V232C128 227.582 131.582 224 136 224H152C156.418 224 160 227.582 160 232V252.66C160 301.445 194.98 344.98 243.369 351.188C301.914 358.699 352 313.094 352 256V232C352 227.582 355.582 224 360 224H376C380.418 224 384 227.582 384 232V256Z" class="fa-secondary"/><path d="M256 304C282.516 304 304 282.516 304 256V240H264C259.582 240 256 236.418 256 232V216C256 211.582 259.582 208 264 208H304V176H264C259.582 176 256 172.418 256 168V152C256 147.582 259.582 144 264 144H304C304 117.484 282.516 96 256 96S208 117.484 208 144V256C208 282.516 229.484 304 256 304ZM376 224H360C355.582 224 352 227.582 352 232V256C352 313.092 301.914 358.699 243.369 351.188C194.98 344.98 160 301.447 160 252.66V232C160 227.582 156.418 224 152 224H136C131.582 224 128 227.582 128 232V256C128 321.1 177.031 374.406 240 382.383V408C240 412.418 243.582 416 248 416H264C268.418 416 272 412.418 272 408V382.383C334.969 374.406 384 321.1 384 256V232C384 227.582 380.418 224 376 224Z" class="fa-primary"/></svg>