<svg xmlns="http://www.w3.org/2000/svg" viewBox="0 0 512 512"><!-- Font Awesome Pro 6.0.0-alpha2 by @fontawesome - https://fontawesome.com License - https://fontawesome.com/license (Commercial License) --><defs><style>.fa-secondary{opacity:.4}</style></defs><path d="M256 16C123.451 16 16 123.451 16 256S123.451 496 256 496S496 388.549 496 256S388.549 16 256 16ZM381.469 178.734L277.469 386.734C273.406 394.859 265.094 400 256 400S238.594 394.859 234.531 386.734L130.531 178.734C124.609 166.875 129.406 152.469 141.266 146.531C153.188 140.641 167.547 145.406 173.469 157.266L256 322.328L338.531 157.266C344.469 145.406 358.875 140.641 370.734 146.531C382.594 152.469 387.391 166.875 381.469 178.734Z" class="fa-secondary"/><path d="M370.74 146.531C358.881 140.641 344.474 145.406 338.537 157.266L256.006 322.328L173.474 157.266C167.552 145.406 153.193 140.641 141.271 146.531C129.412 152.469 124.615 166.875 130.537 178.734L234.537 386.734C238.599 394.859 246.912 400 256.006 400S273.412 394.859 277.474 386.734L381.474 178.734C387.396 166.875 382.599 152.469 370.74 146.531Z" class="fa-primary"/></svg>