<svg xmlns="http://www.w3.org/2000/svg" viewBox="0 0 512 512"><!-- Font Awesome Pro 6.0.0-alpha2 by @fontawesome - https://fontawesome.com License - https://fontawesome.com/license (Commercial License) --><defs><style>.fa-secondary{opacity:.4}</style></defs><path d="M16 256C16 388.549 123.451 496 256 496S496 388.549 496 256S388.549 16 256 16S16 123.451 16 256ZM137.451 303.627L191.695 280.377C198.086 277.611 205.594 279.471 209.938 284.861L231.961 311.768C266.586 294.768 294.734 266.627 311.727 232.018L284.812 209.969C279.437 205.578 277.602 198.141 280.32 191.75L303.586 137.469C306.633 130.516 314.172 126.703 321.516 128.406L371.893 140.031C379.018 141.656 384.002 147.922 384.002 155.25C384.002 281.393 281.383 384.002 155.258 384.002C147.922 384.002 141.654 379.018 140.021 371.893L128.396 321.502C126.709 314.205 130.498 306.627 137.451 303.627Z" class="fa-secondary"/><path d="M137.454 303.627L191.698 280.377C198.088 277.611 205.596 279.471 209.94 284.861L231.963 311.768C266.588 294.768 294.737 266.627 311.729 232.018L284.815 209.969C279.44 205.578 277.604 198.141 280.323 191.75L303.588 137.469C306.635 130.516 314.174 126.703 321.518 128.406L371.895 140.031C379.02 141.656 384.004 147.922 384.004 155.25C384.004 281.393 281.385 384.002 155.26 384.002C147.924 384.002 141.657 379.018 140.024 371.893L128.399 321.502C126.711 314.205 130.5 306.627 137.454 303.627Z" class="fa-primary"/></svg>