<svg xmlns="http://www.w3.org/2000/svg" viewBox="0 0 512 512"><!-- Font Awesome Pro 6.0.0-alpha2 by @fontawesome - https://fontawesome.com License - https://fontawesome.com/license (Commercial License) --><defs><style>.fa-secondary{opacity:.4}</style></defs><path d="M256 16C123.451 16 16 123.451 16 256S123.451 496 256 496S496 388.549 496 256S388.549 16 256 16ZM268 384H223.359C195.125 384 170.156 366 161.234 339.219C157.047 326.625 163.844 313.031 176.422 308.844C189 304.781 202.594 311.469 206.766 324.031C209.156 331.188 215.812 336 223.359 336H268C287.844 336 304 319.844 304 300S287.844 264 268 264H216C206.109 264 197.219 257.938 193.625 248.688C190.047 239.469 192.484 229 199.781 222.312L250.297 176H184C170.75 176 160 165.25 160 152S170.75 128 184 128H312C321.891 128 330.781 134.062 334.375 143.312C337.953 152.531 335.516 163 328.219 169.688L277.156 216.5C319.188 221.062 352 256.781 352 300C352 346.312 314.312 384 268 384Z" class="fa-secondary"/><path d="M352.002 300C352.002 346.312 314.314 384 268.002 384H223.361C195.127 384 170.158 366 161.236 339.219C157.048 326.625 163.845 313.031 176.424 308.844C189.002 304.781 202.595 311.469 206.767 324.031C209.158 331.188 215.814 336 223.361 336H268.002C287.845 336 304.002 319.844 304.002 300S287.845 264 268.002 264H216.002C206.111 264 197.22 257.938 193.627 248.688C190.048 239.469 192.486 229 199.783 222.312L250.298 176H184.002C170.752 176 160.002 165.25 160.002 152S170.752 128 184.002 128H312.002C321.892 128 330.783 134.062 334.377 143.312C337.955 152.531 335.517 163 328.22 169.688L277.158 216.5C319.189 221.062 352.002 256.781 352.002 300Z" class="fa-primary"/></svg>