<svg xmlns="http://www.w3.org/2000/svg" viewBox="0 0 512 512"><!-- Font Awesome Pro 6.0.0-alpha2 by @fontawesome - https://fontawesome.com License - https://fontawesome.com/license (Commercial License) --><defs><style>.fa-secondary{opacity:.4}</style></defs><path d="M256 16C123.451 16 16 123.451 16 256S123.451 496 256 496S496 388.549 496 256S388.549 16 256 16ZM345.047 346.438C321.031 370.656 289.078 384 255.094 384C255.094 384 255.094 384 255.078 384C176.132 384 128.073 317.673 128.08 256C128.073 194.896 175.913 128 255.078 128C255.094 128 255.094 128 255.094 128C289.078 128 321.031 141.344 345.047 165.562C354.375 175 354.312 190.188 344.891 199.5C335.5 208.875 320.281 208.75 310.953 199.375C296.016 184.281 276.188 176 255.094 176C205.681 176 176.027 217.863 176.023 256C176.027 293.874 205.632 336 255.094 336C276.188 336 296.016 327.719 310.953 312.625C320.281 303.25 335.5 303.125 344.891 312.5C354.312 321.812 354.375 337 345.047 346.438Z" class="fa-secondary"/><path d="M344.811 312.5C354.232 321.812 354.295 337 344.967 346.438C320.951 370.656 288.998 384 255.014 384C255.014 384 255.014 384 254.998 384C176.053 384 127.992 317.672 128 256C127.992 194.895 175.834 128 254.998 128C255.014 128 255.014 128 255.014 128C288.998 128 320.951 141.344 344.967 165.562C354.295 175 354.232 190.188 344.811 199.5C335.42 208.875 320.201 208.75 310.873 199.375C295.936 184.281 276.107 176 255.014 176C205.602 176 175.947 217.863 175.943 256C175.947 293.873 205.551 336 255.014 336C276.107 336 295.936 327.719 310.873 312.625C320.201 303.25 335.42 303.125 344.811 312.5Z" class="fa-primary"/></svg>