<svg xmlns="http://www.w3.org/2000/svg" viewBox="0 0 512 512"><!-- Font Awesome Pro 6.0.0-alpha2 by @fontawesome - https://fontawesome.com License - https://fontawesome.com/license (Commercial License) --><defs><style>.fa-secondary{opacity:.4}</style></defs><path d="M256.002 16C123.438 16 16 123.438 16 256S123.438 496 256.002 496C388.562 496 496 388.562 496 256S388.562 16 256.002 16ZM256 128C273.674 128 288 142.326 288 160C288 177.672 273.674 192 256 192S224 177.672 224 160C224 142.326 238.326 128 256 128ZM256 384C238.326 384 224 369.672 224 352C224 334.326 238.326 320 256 320S288 334.326 288 352C288 369.672 273.674 384 256 384ZM352.002 280H160.002C146.801 280 136 269.197 136 256C136 242.799 146.801 232 160.002 232H352.002C365.199 232 376 242.799 376 256C376 269.197 365.199 280 352.002 280Z" class="fa-secondary"/><path d="M352.002 232H160.002C146.801 232 136 242.799 136 256C136 269.197 146.801 280 160.002 280H352.002C365.199 280 376 269.197 376 256C376 242.799 365.199 232 352.002 232ZM256 192C273.674 192 288 177.672 288 160C288 142.326 273.674 128 256 128S224 142.326 224 160C224 177.672 238.326 192 256 192ZM256 320C238.326 320 224 334.326 224 352C224 369.672 238.326 384 256 384S288 369.672 288 352C288 334.326 273.674 320 256 320Z" class="fa-primary"/></svg>