<svg xmlns="http://www.w3.org/2000/svg" viewBox="0 0 512 512"><!-- Font Awesome Pro 6.0.0-alpha2 by @fontawesome - https://fontawesome.com License - https://fontawesome.com/license (Commercial License) --><defs><style>.fa-secondary{opacity:.4}</style></defs><path d="M256 16C123.451 16 16 123.451 16 256S123.451 496 256 496S496 388.549 496 256S388.549 16 256 16ZM240 352C228.188 345.041 189.08 326.289 138.562 348.266C133.643 350.406 128 346.908 128 341.861V185.547C128 180.092 131.379 175.002 136.752 172.803C157.977 164.127 178.324 159.689 195.896 160.018C215.014 160.338 230.098 164.891 240 168.951V352ZM384 341.861C384 346.908 378.357 350.406 373.438 348.266C322.902 326.283 283.809 345.035 272 351.996V168.951C281.902 164.891 296.986 160.338 316.104 160.018C333.607 159.863 354.012 164.154 375.242 172.805C380.621 174.998 384 180.096 384 185.553V341.861Z" class="fa-secondary"/><path d="M375.242 172.805C354.012 164.154 333.607 159.863 316.104 160.018C296.986 160.338 281.902 164.891 272 168.951V351.996C283.809 345.035 322.902 326.283 373.438 348.266C378.357 350.406 384 346.908 384 341.861V185.553C384 180.096 380.621 174.998 375.242 172.805ZM136.752 172.803C131.379 175.002 128 180.092 128 185.547V341.861C128 346.908 133.643 350.406 138.562 348.266C189.08 326.289 228.188 345.041 240 352V168.951C230.098 164.891 215.014 160.338 195.896 160.018C178.324 159.689 157.977 164.127 136.752 172.803Z" class="fa-primary"/></svg>