<svg xmlns="http://www.w3.org/2000/svg" viewBox="0 0 512 512"><!-- Font Awesome Pro 6.0.0-alpha2 by @fontawesome - https://fontawesome.com License - https://fontawesome.com/license (Commercial License) --><defs><style>.fa-secondary{opacity:.4}</style></defs><path d="M256 16C123.42 16 16 123.418 16 256C16 388.578 123.42 496 256 496S496 388.578 496 256C496 123.418 388.58 16 256 16ZM310.625 345.375C323.125 357.875 323.125 378.125 310.625 390.625S277.875 403.125 265.375 390.625L153.375 278.625C147.125 272.375 144 264.188 144 256S147.125 239.625 153.375 233.375L265.375 121.375C277.875 108.875 298.125 108.875 310.625 121.375S323.125 154.125 310.625 166.625L221.25 256L310.625 345.375Z" class="fa-secondary"/><path d="M310.625 345.375C323.125 357.875 323.125 378.125 310.625 390.625S277.875 403.125 265.375 390.625L153.375 278.625C147.125 272.375 144 264.188 144 256S147.125 239.625 153.375 233.375L265.375 121.375C277.875 108.875 298.125 108.875 310.625 121.375S323.125 154.125 310.625 166.625L221.25 256L310.625 345.375Z" class="fa-primary"/></svg>