<svg xmlns="http://www.w3.org/2000/svg" viewBox="0 0 512 512"><!-- Font Awesome Pro 6.0.0-alpha2 by @fontawesome - https://fontawesome.com License - https://fontawesome.com/license (Commercial License) --><defs><style>.fa-secondary{opacity:.4}</style></defs><path d="M256 16C123.419 16 16 123.419 16 256S123.419 496 256 496S496 388.581 496 256S388.581 16 256 16ZM352 256C352 308.95 308.95 352 256 352S160 308.95 160 256S203.05 160 256 160S352 203.05 352 256Z" class="fa-secondary"/><path d="M352 256C352 308.95 308.95 352 256 352S160 308.95 160 256S203.05 160 256 160S352 203.05 352 256Z" class="fa-primary"/></svg>