<svg xmlns="http://www.w3.org/2000/svg" viewBox="0 0 512 512"><!-- Font Awesome Pro 6.0.0-alpha2 by @fontawesome - https://fontawesome.com License - https://fontawesome.com/license (Commercial License) --><defs><style>.fa-secondary{opacity:.4}</style></defs><path d="M256 16C123.451 16 16 123.451 16 256S123.451 496 256 496S496 388.549 496 256S388.549 16 256 16ZM372.516 276.48L228.516 364.48C224.68 366.824 220.344 368.004 216 368.004C202.307 368.004 192 356.807 192 344.004V168.004C192 155.314 202.197 144.012 216.006 144.012C220.35 144.012 224.684 145.188 228.516 147.527L372.516 235.527C379.648 239.887 384 247.645 384 256.004S379.648 272.121 372.516 276.48Z" class="fa-secondary"/><path d="M216 368.004C202.308 368.004 192 356.808 192 344.004V168.004C192 155.314 202.198 144.013 216.006 144.013C220.349 144.013 224.683 145.188 228.516 147.528L372.516 235.528C379.648 239.887 384 247.645 384 256.004S379.648 272.121 372.516 276.481L228.516 364.481C224.68 366.825 220.344 368.004 216 368.004Z" class="fa-primary"/></svg>