<svg xmlns="http://www.w3.org/2000/svg" viewBox="0 0 512 512"><!-- Font Awesome Pro 6.0.0-alpha2 by @fontawesome - https://fontawesome.com License - https://fontawesome.com/license (Commercial License) --><defs><style>.fa-secondary{opacity:.4}</style></defs><path d="M256 16C123.451 16 16 123.451 16 256S123.451 496 256 496S496 388.549 496 256S388.549 16 256 16ZM320 328C320 341.254 309.254 352 296 352H152C138.746 352 128 341.254 128 328V184C128 170.744 138.746 160 152 160H296C309.254 160 320 170.744 320 184V328ZM416 307.357C416 317.559 404.324 323.514 395.838 317.676L352 287.477V224.514L395.838 194.277C404.363 188.434 416 194.434 416 204.596V307.357Z" class="fa-secondary"/><path d="M320 328.001C320 341.254 309.254 352.001 296 352.001H152C138.746 352.001 128 341.254 128 328.001V184.001C128 170.745 138.746 160.001 152 160.001H296C309.254 160.001 320 170.745 320 184.001V328.001ZM416 307.358C416 317.559 404.324 323.514 395.838 317.676L352 287.477V224.514L395.838 194.278C404.363 188.434 416 194.434 416 204.596V307.358Z" class="fa-primary"/></svg>