<svg xmlns="http://www.w3.org/2000/svg" viewBox="0 0 512 512"><!-- Font Awesome Pro 6.0.0-alpha2 by @fontawesome - https://fontawesome.com License - https://fontawesome.com/license (Commercial License) --><defs><style>.fa-secondary{opacity:.4}</style></defs><path d="M6.985 224.508C6.245 224.156 5.518 223.999 4.831 223.999C2.116 223.999 0 226.445 0 229.047C0 230.242 0.446 231.469 1.485 232.508L86.606 317.633C92.606 323.633 95.981 331.758 95.981 340.258V384.008H139.729C148.229 384.008 156.354 387.383 162.352 393.383L279.473 510.508C280.512 511.547 281.739 511.992 282.933 511.992C285.535 511.992 287.981 509.876 287.981 507.162C287.981 502.518 208.422 320.097 6.985 224.508ZM506.926 287.992C509.528 287.992 511.974 285.876 511.974 283.162C511.974 282.474 511.817 281.748 511.465 281.008C418.489 84.02 234.827 -0.001 228.821 -0.001C226.107 -0.001 223.99 2.445 223.99 5.047C223.99 6.242 224.436 7.469 225.475 8.508L246.6 29.633C252.6 35.633 255.975 43.758 255.975 52.258V96.008H299.723C308.223 96.008 316.346 99.383 322.346 105.383L374.594 157.633C380.594 163.633 383.969 171.758 383.969 180.258V224.008H427.717C436.217 224.008 444.342 227.383 450.342 233.383L503.465 286.508C504.504 287.547 505.731 287.992 506.926 287.992Z " class="fa-secondary"></path><path d="M204.253 120.384C196.504 114.259 192.004 105.134 192.004 95.259V64.009H134.006C128.006 64.009 122.006 62.134 116.882 59.009C68.818 28.539 13.624 0.006 8.59 0.006C3.764 0.006 0 4.309 0 8.939C0 11.063 0.792 13.256 2.636 15.134L182.629 195.134C188.629 201.134 192.004 209.259 192.004 217.759V256.009H230.252C238.752 256.009 246.877 259.384 252.876 265.384L342.623 355.134C348.623 361.134 351.998 369.259 351.998 377.759V416.009H390.246C398.746 416.009 406.87 419.384 412.87 425.384L496.867 509.384C498.699 511.215 500.859 512 502.964 512C507.609 512 511.987 508.181 511.987 503.361C511.987 498.003 424.409 290.926 204.253 120.384Z " class="fa-primary"></path></svg>