<svg xmlns="http://www.w3.org/2000/svg" viewBox="0 0 384 512"><!-- Font Awesome Pro 6.0.0-alpha2 by @fontawesome - https://fontawesome.com License - https://fontawesome.com/license (Commercial License) --><defs><style>.fa-secondary{opacity:.4}</style></defs><path d="M336 64H256C291.346 64 320 92.652 320 128V144C320 152.836 312.836 160 304 160H80C71.164 160 64 152.836 64 144V128C64 92.652 92.654 64 128 64H48C21.49 64 0 85.49 0 112V464C0 490.51 21.49 512 48 512H336C362.51 512 384 490.51 384 464V112C384 85.49 362.51 64 336 64ZM96 392C82.75 392 72 381.25 72 368S82.75 344 96 344S120 354.75 120 368S109.25 392 96 392ZM96 296C82.75 296 72 285.25 72 272S82.75 248 96 248S120 258.75 120 272S109.25 296 96 296ZM304 384H176C167.199 384 160 376.799 160 368C160 359.199 167.199 352 176 352H304C312.801 352 320 359.199 320 368C320 376.799 312.801 384 304 384ZM304 288H176C167.199 288 160 280.799 160 272C160 263.199 167.199 256 176 256H304C312.801 256 320 263.199 320 272C320 280.799 312.801 288 304 288Z" class="fa-secondary"/><path d="M256 64C256 28.652 227.346 0 192 0S128 28.652 128 64C92.654 64 64 92.652 64 128V144C64 152.836 71.164 160 80 160H304C312.836 160 320 152.836 320 144V128C320 92.652 291.346 64 256 64ZM192 88C178.746 88 168 77.254 168 64C168 50.744 178.746 40 192 40S216 50.744 216 64C216 77.254 205.254 88 192 88ZM96 344C82.75 344 72 354.75 72 368S82.75 392 96 392S120 381.25 120 368S109.25 344 96 344ZM96 248C82.75 248 72 258.75 72 272S82.75 296 96 296S120 285.25 120 272S109.25 248 96 248Z" class="fa-primary"/></svg>