<svg xmlns="http://www.w3.org/2000/svg" viewBox="0 0 448 512"><!-- Font Awesome Pro 6.0.0-alpha2 by @fontawesome - https://fontawesome.com License - https://fontawesome.com/license (Commercial License) --><defs><style>.fa-secondary{opacity:.4}</style></defs><path d="M224 0C100.289 0 0 100.289 0 224S100.289 448 224 448S448 347.711 448 224S347.711 0 224 0ZM307.217 302.406C302.498 308.688 295.295 312 287.998 312C282.982 312 277.936 310.438 273.607 307.188L209.607 259.188C203.576 254.656 200.014 247.562 200.014 240V120C200.014 106.75 210.764 96 224.014 96S248.014 106.75 248.014 120V228L302.42 268.812C313.014 276.75 315.17 291.781 307.217 302.406Z" class="fa-secondary"/><path d="M273.607 307.188C277.936 310.438 282.982 312 287.998 312C295.295 312 302.498 308.688 307.217 302.406C315.17 291.781 313.014 276.75 302.42 268.812L248.014 228V120C248.014 106.75 237.264 96 224.014 96S200.014 106.75 200.014 120V240C200.014 247.562 203.576 254.656 209.607 259.188L273.607 307.188ZM224 448C100.289 448 0 347.711 0 224V464C0 490.508 21.49 512 48 512H400C426.51 512 448 490.508 448 464V224C448 347.711 347.711 448 224 448Z" class="fa-primary"/></svg>