<svg xmlns="http://www.w3.org/2000/svg" viewBox="0 0 512 512"><!-- Font Awesome Pro 6.0.0-alpha2 by @fontawesome - https://fontawesome.com License - https://fontawesome.com/license (Commercial License) --><defs><style>.fa-secondary{opacity:.4}</style></defs><path d="M368 464C368 490.51 389.49 512 416 512S464 490.51 464 464S416 368 416 368S368 437.49 368 464ZM48 464C48 490.51 69.49 512 96 512S144 490.51 144 464S96 368 96 368S48 437.49 48 464ZM208 464C208 490.51 229.49 512 256 512S304 490.51 304 464S256 368 256 368S208 437.49 208 464Z" class="fa-secondary"/><path d="M416 128C415.375 128 414.875 128.25 414.375 128.25C415.5 123 416 117.625 416 112C416 67.75 380.25 32 336 32C311.375 32 289.75 43.25 275 60.75C256.375 24.75 219.25 0 176 0C114.125 0 64 50.125 64 112C64 119.25 64.75 126.25 66.125 133.25C27.75 145.75 0 181.5 0 224C0 277 43 320 96 320H416C469 320 512 277 512 224S469 128 416 128Z" class="fa-primary"/></svg>