<svg xmlns="http://www.w3.org/2000/svg" viewBox="0 0 512 512"><!-- Font Awesome Pro 6.0.0-alpha2 by @fontawesome - https://fontawesome.com License - https://fontawesome.com/license (Commercial License) --><defs><style>.fa-secondary{opacity:.4}</style></defs><path d="M352 424C338.75 424 328 434.75 328 448V488C328 501.25 338.75 512 352 512S376 501.25 376 488V448C376 434.75 365.25 424 352 424ZM448 352C434.75 352 424 362.75 424 376V416C424 429.25 434.75 440 448 440S472 429.25 472 416V376C472 362.75 461.25 352 448 352ZM160 424C146.75 424 136 434.75 136 448V488C136 501.25 146.75 512 160 512S184 501.25 184 488V448C184 434.75 173.25 424 160 424ZM64 352C50.75 352 40 362.75 40 376V416C40 429.25 50.75 440 64 440S88 429.25 88 416V376C88 362.75 77.25 352 64 352ZM256 352C242.75 352 232 362.75 232 376V416C232 429.25 242.75 440 256 440S280 429.25 280 416V376C280 362.75 269.25 352 256 352Z" class="fa-secondary"/><path d="M416 128C415.375 128 414.875 128.25 414.375 128.25C415.5 123 416 117.625 416 112C416 67.75 380.25 32 336 32C311.375 32 289.75 43.25 275 60.75C256.375 24.75 219.25 0 176 0C114.125 0 64 50.125 64 112C64 119.25 64.75 126.25 66.125 133.25C27.75 145.75 0 181.5 0 224C0 277 43 320 96 320H416C469 320 512 277 512 224S469 128 416 128Z" class="fa-primary"/></svg>