<svg xmlns="http://www.w3.org/2000/svg" viewBox="0 0 640 512"><!-- Font Awesome Pro 6.0.0-alpha2 by @fontawesome - https://fontawesome.com License - https://fontawesome.com/license (Commercial License) --><defs><style>.fa-secondary{opacity:.4}</style></defs><path d="M148.559 303.038C104.932 259.296 104.932 188.309 148.559 144.692C192.311 101.075 263.315 101.075 307.067 144.692C316.692 154.44 323.943 165.688 329.318 177.436C339.068 173.687 349.444 171.437 360.069 169.938L389.821 81.079C393.821 69.206 382.57 57.958 370.57 61.832L282.816 91.202L241.314 8.342C235.813 -2.781 219.812 -2.781 214.187 8.342L172.81 91.202L84.931 61.832C73.055 57.958 61.805 69.206 65.68 81.079L95.056 168.813L12.177 210.305C1.052 215.929 1.052 231.801 12.177 237.425L95.056 278.793L65.68 366.652C61.68 378.524 73.055 389.647 84.931 385.773L161.06 360.528C167.06 348.155 175.06 336.782 184.561 327.034C171.56 321.66 159.185 313.661 148.559 303.038ZM143.809 223.803C143.809 264.67 173.06 298.664 211.687 306.163C219.687 301.414 228.063 297.289 236.938 294.415C242.314 250.173 267.94 211.93 304.317 189.434C291.066 160.314 261.815 139.943 227.813 139.943C181.561 139.943 143.809 177.561 143.809 223.803Z" class="fa-secondary"/><path d="M640.023 416.018C640.023 469.008 597.021 512 544.018 512H272.005C219.002 512 176 469.008 176 416.018C176 365.402 215.252 324.409 264.879 320.66C264.754 317.786 264.004 315.036 264.004 312.037C264.004 250.173 314.257 200.057 376.01 200.057C421.387 200.057 460.264 227.177 477.89 266.045C487.765 259.796 499.391 256.047 512.016 256.047C547.268 256.047 576.02 284.667 576.02 320.035C576.02 321.91 575.394 323.66 575.269 325.659C612.771 338.657 640.023 373.9 640.023 416.018Z" class="fa-primary"/></svg>