<svg xmlns="http://www.w3.org/2000/svg" viewBox="0 0 640 512"><!-- Font Awesome Pro 6.0.0-alpha2 by @fontawesome - https://fontawesome.com License - https://fontawesome.com/license (Commercial License) --><defs><style>.fa-secondary{opacity:.4}</style></defs><path d="M207.97 128.007C163.793 128.007 127.981 163.826 127.981 208.012C127.981 228.824 136.123 247.606 149.144 261.838C173.09 221.556 215.789 194.48 265.086 192.144L275.37 177.069C276.518 175.385 278.084 174.131 279.313 172.523C266.203 146.237 239.336 128.007 207.97 128.007ZM317.178 98.782L301.173 10.208C299.568 1.325 289.317 -2.919 281.902 2.225L207.97 53.539L134.035 2.224C126.622 -2.921 116.37 1.325 114.765 10.206L98.761 98.782L10.206 114.787C1.326 116.393 -2.921 126.647 2.223 134.06L53.528 208.014L2.225 281.964C-2.919 289.378 1.326 299.631 10.206 301.235L109.779 318.785C116.757 312.923 124.211 307.559 132.438 303.239C133.254 299.672 134.637 296.375 135.705 292.924C111.601 272.379 95.986 242.17 95.986 208.012C95.986 146.151 146.121 96.005 207.97 96.005C248.352 96.005 283.435 117.58 303.137 149.639C320.551 137.129 340.944 129.122 362.789 128.099C366.007 121.309 370.09 115.08 374.537 109.15L317.178 98.782Z" class="fa-secondary"/><path d="M511.939 319.988H510.314C502.94 283.486 470.695 255.984 431.951 255.984C407.329 255.984 385.707 267.234 370.96 284.736C352.337 248.858 315.218 223.982 271.974 223.982C213.733 223.982 166.365 268.735 161.115 325.613C123.246 338.489 96 373.866 96 415.994C96 468.997 138.994 512 191.986 512H511.939C564.931 512 607.925 468.997 607.925 415.994S564.931 319.988 511.939 319.988ZM559.932 159.978H542.309C534.936 123.475 502.69 95.974 463.946 95.974S392.956 123.475 385.582 159.978H367.96C340.339 159.978 316.218 173.854 301.72 195.105C330.84 201.23 357.212 216.356 377.334 238.358C393.831 228.982 412.703 223.857 431.951 223.857C476.569 223.857 516.188 250.483 534.061 289.736C554.558 293.361 573.18 302.112 589.053 314.237C618.798 302.487 639.92 273.735 639.92 239.858C639.92 195.73 604.175 159.978 559.932 159.978Z" class="fa-primary"/></svg>