<svg xmlns="http://www.w3.org/2000/svg" viewBox="0 0 640 512"><!-- Font Awesome Pro 6.0.0-alpha2 by @fontawesome - https://fontawesome.com License - https://fontawesome.com/license (Commercial License) --><defs><style>.fa-secondary{opacity:.4}</style></defs><path d="M264.041 512C260.713 512 257.338 511.594 253.978 510.719C232.588 505.187 219.744 483.344 225.291 461.969L337.291 29.969C342.838 8.594 364.759 -4.25 386.041 1.281C407.431 6.812 420.275 28.656 414.728 50.031L302.728 482.031C298.056 500.062 281.822 512 264.041 512Z" class="fa-secondary"/><path d="M181.312 124.781C166.297 108.594 140.984 107.656 124.781 122.688L12.781 226.688C4.625 234.25 0 244.875 0 256S4.625 277.75 12.781 285.312L124.781 389.312C132.484 396.469 142.25 400 151.984 400C162.719 400 173.438 395.719 181.312 387.219C196.344 371.031 195.406 345.719 179.219 330.687L98.781 256L179.219 181.312C195.406 166.281 196.344 140.969 181.312 124.781ZM627.219 226.688L515.219 122.688C499.031 107.656 473.703 108.594 458.687 124.781C443.656 140.969 444.594 166.281 460.781 181.313L541.219 256L460.781 330.688C444.594 345.719 443.656 371.031 458.687 387.219C466.562 395.719 477.281 400 488.016 400C497.75 400 507.516 396.469 515.219 389.312L627.219 285.312C635.375 277.75 640 267.125 640 256S635.375 234.25 627.219 226.688Z" class="fa-primary"/></svg>