<svg xmlns="http://www.w3.org/2000/svg" viewBox="0 0 512 512"><!-- Font Awesome Pro 6.0.0-alpha2 by @fontawesome - https://fontawesome.com License - https://fontawesome.com/license (Commercial License) --><defs><style>.fa-secondary{opacity:.4}</style></defs><path d="M48 342.754V160C48 107.062 91.062 64 144 64H192V16C192 9.781 195.594 4.156 201.219 1.5C206.812 -1.094 213.469 -0.312 218.25 3.719L314.25 83.719C317.891 86.75 320 91.25 320 96S317.891 105.25 314.25 108.281L218.25 188.281C215.312 190.75 211.672 192 208 192C205.688 192 203.375 191.5 201.219 190.5C195.594 187.844 192 182.219 192 176V128H144C126.359 128 112 142.344 112 160V342.754C102.189 338.461 91.395 336 80 336S57.812 338.461 48 342.754ZM432 176C420.605 176 409.812 173.539 400 169.246V352C400 369.656 385.641 384 368 384H320V336C320 329.781 316.406 324.156 310.781 321.5C305.219 318.938 298.563 319.688 293.75 323.719L197.75 403.719C194.109 406.75 192 411.25 192 416S194.109 425.25 197.75 428.281L293.75 508.281C296.688 510.75 300.328 512 304 512C306.297 512 308.625 511.5 310.781 510.5C316.406 507.844 320 502.219 320 496V448H368C420.938 448 464 404.938 464 352V169.246C454.189 173.539 443.395 176 432 176Z" class="fa-secondary"/><path d="M80 336C35.818 336 0 371.816 0 416S35.818 496 80 496C124.184 496 160 460.184 160 416S124.184 336 80 336ZM80 440C66.768 440 56 429.234 56 416S66.768 392 80 392C93.234 392 104 402.766 104 416S93.234 440 80 440ZM432 16C387.818 16 352 51.816 352 96S387.818 176 432 176C476.184 176 512 140.184 512 96S476.184 16 432 16ZM432 120C418.768 120 408 109.234 408 96S418.768 72 432 72C445.234 72 456 82.766 456 96S445.234 120 432 120Z" class="fa-primary"/></svg>