<svg xmlns="http://www.w3.org/2000/svg" viewBox="0 0 640 512"><!-- Font Awesome Pro 6.0.0-alpha2 by @fontawesome - https://fontawesome.com License - https://fontawesome.com/license (Commercial License) --><defs><style>.fa-secondary{opacity:.4}</style></defs><path d="M32 224C14.328 224 0 238.312 0 256S14.328 288 32 288H163.225C161.125 277.656 160 266.961 160 256S161.125 234.344 163.225 224H32ZM608 224H476.775C478.875 234.344 480 245.039 480 256S478.875 277.656 476.775 288H608C625.672 288 640 273.688 640 256S625.672 224 608 224Z" class="fa-secondary"/><path d="M320 96C231.635 96 160 167.633 160 256S231.635 416 320 416S480 344.367 480 256S408.365 96 320 96ZM320 336C275.889 336 240 300.113 240 256S275.889 176 320 176S400 211.887 400 256S364.111 336 320 336Z" class="fa-primary"/></svg>