<svg xmlns="http://www.w3.org/2000/svg" viewBox="0 0 448 512"><!-- Font Awesome Pro 6.0.0-alpha2 by @fontawesome - https://fontawesome.com License - https://fontawesome.com/license (Commercial License) --><defs><style>.fa-secondary{opacity:.4}</style></defs><path d="M288 272C288 283.395 290.461 294.188 294.754 304H224C181.488 304 142.451 288.844 112 263.656V358.754C102.189 354.461 91.395 352 80 352S57.812 354.461 48 358.754V153.246C57.812 157.539 68.605 160 80 160C92.48 160 104.143 156.895 114.67 151.797C125.631 202.133 170.43 240 224 240H294.754C290.461 249.812 288 260.605 288 272Z" class="fa-secondary"/><path d="M80 352C35.818 352 0 387.816 0 432S35.818 512 80 512C124.184 512 160 476.184 160 432S124.184 352 80 352ZM80 456C66.768 456 56 445.234 56 432S66.768 408 80 408C93.234 408 104 418.766 104 432S93.234 456 80 456ZM80 0C35.818 0 0 35.816 0 80S35.818 160 80 160C124.184 160 160 124.184 160 80S124.184 0 80 0ZM80 104C66.768 104 56 93.234 56 80S66.768 56 80 56C93.234 56 104 66.766 104 80S93.234 104 80 104ZM368 192C323.818 192 288 227.816 288 272S323.818 352 368 352C412.184 352 448 316.184 448 272S412.184 192 368 192ZM368 296C354.768 296 344 285.234 344 272S354.768 248 368 248C381.234 248 392 258.766 392 272S381.234 296 368 296Z" class="fa-primary"/></svg>