<svg xmlns="http://www.w3.org/2000/svg" viewBox="0 0 448 512"><!-- Font Awesome Pro 6.0.0-alpha2 by @fontawesome - https://fontawesome.com License - https://fontawesome.com/license (Commercial License) --><defs><style>.fa-secondary{opacity:.4}</style></defs><path d="M354.29 387.295C280.765 460.916 177.989 503.461 94.603 466.332C77.651 458.785 72.11 437.23 81.648 421.314L99.614 391.326C131.648 337.889 178.271 295.205 234.355 268.004C294.771 238.701 342.96 189.041 377.47 131.439L379.421 128.186C392.446 106.441 425.712 107.15 435.612 130.482C470.407 212.48 426.642 314.854 354.29 387.295Z" class="fa-secondary"/><path d="M366.133 90.686L346.436 123.562C314.859 176.266 267.205 216.172 212.658 244.447C154.943 274.367 106.877 319.562 73.389 375.42L68.359 383.814C55.332 405.559 22.068 404.85 12.168 381.518C-22.627 299.521 21.139 197.148 93.49 124.705C167.016 51.084 269.791 8.541 353.178 45.668C370.127 53.215 375.67 74.768 366.133 90.686Z" class="fa-primary"/></svg>