<svg xmlns="http://www.w3.org/2000/svg" viewBox="0 0 512 512"><!-- Font Awesome Pro 6.0.0-alpha2 by @fontawesome - https://fontawesome.com License - https://fontawesome.com/license (Commercial License) --><defs><style>.fa-secondary{opacity:.4}</style></defs><path d="M320 128C425.999 128 512 99.25 512 64S425.999 0 320 0C213.999 0 128 28.75 128 64S213.999 128 320 128ZM416 311.375C473.25 300.25 512 279.75 512 256V213.25C488.75 229.75 454.75 240.875 416 247.75V311.375ZM411.25 216.25C471.25 205.5 512 184.25 512 160V117.25C476.5 142.375 415.5 155.875 351.25 159.125C380.75 173.375 402.5 192.625 411.25 216.25Z " class="fa-secondary"></path><path d="M0 405.25V448C0 483.25 85.999 512 192 512C297.999 512 384 483.25 384 448V405.25C342.75 434.375 267.25 448 192 448S41.25 434.375 0 405.25ZM0 300.375V352C0 387.25 85.999 416 192 416C297.999 416 384 387.25 384 352V300.375C342.75 334.375 267.125 352 192 352S41.25 334.375 0 300.375ZM192 320C297.999 320 384 284.25 384 240S297.999 160 192 160C85.999 160 0 195.75 0 240S85.999 320 192 320Z " class="fa-primary"></path></svg>