<svg xmlns="http://www.w3.org/2000/svg" viewBox="0 0 384 512"><!-- Font Awesome Pro 6.0.0-alpha2 by @fontawesome - https://fontawesome.com License - https://fontawesome.com/license (Commercial License) --><defs><style>.fa-secondary{opacity:.4}</style></defs><path d="M96.675 482.375C93.566 495.25 101.488 508.219 114.378 511.344C116.269 511.781 118.16 512 120.019 512C130.847 512 140.675 504.625 143.332 493.625L157.308 435.725C141.953 429.996 127.316 422.24 113.548 412.471L96.675 482.375ZM175.648 155.205L135.064 323.34C138.148 327.396 141.134 331.521 144.8 335.188C154.191 344.572 164.921 351.732 176.279 357.125L227.64 144.348C209.804 143.77 192.023 147.301 175.648 155.205ZM246.724 65.283L255.332 29.625C258.441 16.75 250.519 3.781 237.628 0.656C224.675 -2.344 211.785 5.5 208.675 18.375L197.07 66.451C213.541 64.1 230.171 63.305 246.724 65.283ZM193.623 445.305L184.675 482.375C181.566 495.25 189.488 508.219 202.378 511.344C204.269 511.781 206.16 512 208.019 512C218.847 512 228.675 504.625 231.332 493.625L242.664 446.68C236.453 447.289 230.261 448.25 224.035 448.25C213.837 448.25 203.703 446.93 193.623 445.305ZM264.451 151.879L212.484 367.172C229.64 368.967 247.013 366.785 263.455 360.547L307.968 176.131C303.283 174.643 298.746 172.412 294.707 169.094C285.39 161.498 275.095 156.039 264.451 151.879ZM325.628 0.656C312.738 -2.344 299.8 5.5 296.675 18.375L283.418 73.297C298.812 78.338 313.431 86.1 327.503 95.199L343.332 29.625C346.441 16.75 338.519 3.781 325.628 0.656Z" class="fa-secondary"/><path d="M350.984 348.562C364.953 365.687 362.406 390.875 345.297 404.844C309.719 433.906 266.797 448.25 224.031 448.25C174.766 448.25 125.687 429.219 88.234 391.75C51.969 355.5 32 307.281 32 256S51.969 156.5 88.234 120.25C158.203 50.25 268.734 44.625 345.297 107.156C362.406 121.125 364.953 146.312 350.984 163.438C337.016 180.531 311.812 183.156 294.703 169.094C250.047 132.688 185.609 135.969 144.797 176.812C123.641 197.969 112 226.094 112 256S123.641 314.031 144.797 335.188C185.641 376 250.047 379.312 294.703 342.906C311.797 328.906 337 331.5 350.984 348.562Z" class="fa-primary"/></svg>