<svg xmlns="http://www.w3.org/2000/svg" viewBox="0 0 512 512"><!-- Font Awesome Pro 6.0.0-alpha2 by @fontawesome - https://fontawesome.com License - https://fontawesome.com/license (Commercial License) --><defs><style>.fa-secondary{opacity:.4}</style></defs><path d="M256 32C114.625 32 0 125.125 0 240C0 289.625 21.375 335 57 370.75C44.5 421.125 2.75 466 2.25 466.5C0 468.75 -0.625 472.25 0.75 475.25C2 478.25 4.75 480 8 480C74.25 480 124 448.25 148.625 428.625C181.25 440.875 217.625 448 256 448C397.375 448 512 354.875 512 240S397.375 32 256 32ZM319.965 144C337.713 144 351.961 158.25 351.961 176S337.713 208 319.965 208S287.969 193.75 287.969 176S302.217 144 319.965 144ZM191.982 144C209.73 144 223.979 158.25 223.979 176S209.73 208 191.982 208S159.986 193.75 159.986 176S174.234 144 191.982 144ZM362.209 303.25C335.713 334.25 297.094 352 255.973 352C214.854 352 176.234 334.25 149.738 303.25C141.238 293.25 142.238 278.125 152.363 269.5C162.361 261 177.609 262.125 186.232 272.25C203.48 292.375 228.852 304 255.973 304C283.096 304 308.467 292.375 325.715 272.25C334.338 262.125 349.461 260.875 359.459 269.5C369.584 278.125 370.709 293.25 362.209 303.25Z" class="fa-secondary"/><path d="M319.965 208C337.713 208 351.961 193.75 351.961 176S337.713 144 319.965 144S287.968 158.25 287.968 176S302.216 208 319.965 208ZM191.982 208C209.73 208 223.978 193.75 223.978 176S209.73 144 191.982 144S159.986 158.25 159.986 176S174.234 208 191.982 208ZM359.459 269.5C349.461 260.875 334.338 262.125 325.715 272.25C308.466 292.375 283.095 304 255.972 304C228.851 304 203.48 292.375 186.232 272.25C177.609 262.125 162.361 261 152.363 269.5C142.238 278.125 141.238 293.25 149.738 303.25C176.234 334.25 214.853 352 255.972 352C297.093 352 335.713 334.25 362.209 303.25C370.709 293.25 369.584 278.125 359.459 269.5Z" class="fa-primary"/></svg>