<svg xmlns="http://www.w3.org/2000/svg" viewBox="0 0 640 512"><!-- Font Awesome Pro 6.0.0-alpha2 by @fontawesome - https://fontawesome.com License - https://fontawesome.com/license (Commercial License) --><defs><style>.fa-secondary{opacity:.4}</style></defs><path d="M64 239.997C64 289.59 85.406 334.996 121 370.699C108.5 421.089 66.688 465.994 66.188 466.494C64 468.791 63.406 472.197 64.688 475.197C66 478.197 68.812 479.994 72 479.994C138.312 479.994 188 448.198 212.594 428.589C245.312 440.901 281.594 447.995 320 447.995C357.391 447.995 392.801 441.331 424.82 429.632L82.926 161.662C70.809 185.853 64 212.263 64 239.997ZM320 32C252.262 32 190.854 53.515 145.07 88.405L512.762 376.597C552.033 340.043 576 292.348 576 239.997C576 125.092 461.406 32 320 32Z" class="fa-secondary"/><path d="M601.187 506.874L9.187 42.879C-1.235 34.723 -3.063 19.63 5.109 9.192C13.296 -1.214 28.343 -3.089 38.812 5.13L630.812 469.124C641.234 477.28 643.062 492.374 634.89 502.811C626.706 513.236 611.599 515.071 601.187 506.874Z" class="fa-primary"/></svg>