<svg xmlns="http://www.w3.org/2000/svg" viewBox="0 0 512 512"><!-- Font Awesome Pro 6.0.0-alpha2 by @fontawesome - https://fontawesome.com License - https://fontawesome.com/license (Commercial License) --><defs><style>.fa-secondary{opacity:.4}</style></defs><path d="M256 32C114.594 32 0 125.094 0 240C0 289.594 21.406 335 57 370.703C44.5 421.094 2.688 466 2.188 466.5C0 468.797 -0.594 472.203 0.688 475.203C2 478.203 4.812 480 8 480C74.312 480 124 448.203 148.594 428.594C181.312 440.906 217.594 448 256 448C397.406 448 512 354.906 512 240S397.406 32 256 32ZM317.83 282.312C314.207 303.219 298.363 316.953 276.002 321.746V332C276.002 343.031 267.049 352 256.002 352S236.002 343.031 236.002 332V321.23C227.32 319.309 218.697 316.508 210.939 313.719L206.674 312.219C196.252 308.531 190.799 297.094 194.471 286.688C198.158 276.281 209.58 270.875 219.986 274.469L224.455 276.094C232.299 278.906 241.174 282.094 248.111 283.125C261.83 285.25 277.049 283.313 278.424 275.5C279.299 270.406 279.783 267.594 250.502 259.219L244.689 257.531C227.361 252.438 186.768 240.531 194.174 197.688C197.811 176.75 213.58 162.762 236.002 157.992V148C236.002 136.969 244.955 128 256.002 128S276.002 136.969 276.002 148V158.633C281.455 159.828 287.346 161.422 294.564 163.906C305.002 167.531 310.518 178.938 306.893 189.375C303.268 199.781 291.83 205.312 281.439 201.719C275.58 199.687 269.439 197.719 263.846 196.875C250.174 194.781 234.955 196.688 233.58 204.5C232.814 208.969 232.252 212.188 255.955 219.156L261.502 220.75C283.799 227.125 325.314 239.031 317.83 282.312Z" class="fa-secondary"/><path d="M317.549 282.312C313.926 303.219 298.082 316.953 275.721 321.746V332C275.721 343.031 266.768 352 255.721 352S235.721 343.031 235.721 332V321.23C227.039 319.309 218.416 316.508 210.659 313.719L206.393 312.219C195.971 308.531 190.518 297.094 194.19 286.688C197.877 276.281 209.299 270.875 219.705 274.469L224.174 276.094C232.018 278.906 240.893 282.094 247.83 283.125C261.549 285.25 276.768 283.313 278.143 275.5C279.018 270.406 279.502 267.594 250.221 259.219L244.409 257.531C227.08 252.438 186.487 240.531 193.893 197.688C197.53 176.75 213.299 162.762 235.721 157.992V148C235.721 136.969 244.674 128 255.721 128S275.721 136.969 275.721 148V158.633C281.174 159.828 287.065 161.422 294.284 163.906C304.721 167.531 310.237 178.938 306.612 189.375C302.987 199.781 291.549 205.312 281.159 201.719C275.299 199.687 269.159 197.719 263.565 196.875C249.893 194.781 234.674 196.688 233.299 204.5C232.534 208.969 231.971 212.188 255.674 219.156L261.221 220.75C283.518 227.125 325.034 239.031 317.549 282.312Z" class="fa-primary"/></svg>