<svg xmlns="http://www.w3.org/2000/svg" viewBox="0 0 512 512"><!-- Font Awesome Pro 6.0.0-alpha2 by @fontawesome - https://fontawesome.com License - https://fontawesome.com/license (Commercial License) --><defs><style>.fa-secondary{opacity:.4}</style></defs><path d="M490.273 79.828C499.148 89.703 503.398 104.082 499.148 118.207C495.023 131.586 484.523 141.586 472.021 145.336C479.021 156.336 480.646 170.336 474.896 183.215C469.146 195.969 457.645 203.969 444.77 206.219C450.52 217.719 450.27 231.844 443.145 243.719C436.52 255.473 424.268 262.598 411.518 263.473C416.018 275.352 414.768 289.102 406.766 300.352C405.266 302.352 403.516 303.977 401.891 305.602C350.637 277.102 291.756 268.102 235.377 277.477C244.752 221.094 235.377 162.211 207 111.082C209.375 107.957 212.125 105.207 215.375 102.832C226.502 94.828 240.627 93.578 252.504 98.078C253.379 85.578 260.504 73.453 272.256 66.703C284.131 59.703 298.258 59.703 309.758 65.078C312.008 52.578 320.385 41.074 333.135 35.324C345.887 29.949 360.012 31.449 370.889 38.574C374.764 25.695 385.014 15.445 398.391 11.695C412.518 7.445 426.893 11.695 436.77 21.195C444.145 7.195 459.271 -1.43 475.896 0.195C497.648 2.07 513.65 20.57 512.275 42.074V45.199C511.65 60.578 502.773 73.453 490.273 79.828Z" class="fa-secondary"/><path d="M423.91 359.984C335.902 283.352 202.392 286.977 118.634 370.734L50.753 438.617L96.007 483.871C133.511 521.375 194.265 521.375 231.769 483.871L322.277 393.359L419.91 373.859C426.41 372.484 428.785 364.234 423.91 359.984ZM201.017 284.852C216.517 217.094 200.267 143.586 152.011 88.078C147.761 83.203 139.511 85.578 138.136 91.953L118.634 189.715L28.126 280.227C-9.375 317.727 -9.375 378.484 28.126 415.992L96.007 348.109C126.384 317.727 162.638 296.727 201.017 284.852Z" class="fa-primary"/></svg>