<svg xmlns="http://www.w3.org/2000/svg" viewBox="0 0 512 512"><!-- Font Awesome Pro 6.0.0-alpha2 by @fontawesome - https://fontawesome.com License - https://fontawesome.com/license (Commercial License) --><defs><style>.fa-secondary{opacity:.4}</style></defs><path d="M13.946 266.516C10.754 266.516 7.561 263.313 4.368 263.313C-8.402 324.182 7.561 388.255 42.68 436.309C49.065 442.717 58.643 449.124 65.029 449.124H68.221C74.607 449.124 80.992 445.92 87.377 442.717L208.698 346.607C215.083 343.404 218.276 336.996 218.276 330.589L218.276 330.589L13.946 266.516ZM448.147 67.89C448.147 58.279 441.762 51.872 435.376 45.465C387.487 7.021 323.634 -5.793 262.973 7.021C262.973 10.225 266.166 13.428 266.166 16.632L330.019 224.869L330.019 224.869C336.404 221.665 342.789 218.462 345.982 215.258L441.762 93.519C448.147 83.909 448.147 74.298 448.147 67.89Z" class="fa-secondary"/><path d="M509.243 180.018C499.665 154.389 483.702 128.76 464.546 109.538L387.923 208.851L474.124 224.869C490.088 228.072 509.243 215.258 512.436 199.24C512.436 192.832 512.436 186.425 509.243 180.018ZM234.675 23.039C231.483 7.021 215.519 -2.59 196.364 0.614C100.584 26.243 27.153 99.927 1.612 196.036C-1.581 212.054 7.997 228.072 23.96 234.48L231.483 298.553C244.253 301.756 253.831 298.553 263.409 292.145L292.143 263.313C301.721 253.702 304.914 244.091 298.528 231.276L234.675 23.039ZM209.134 388.255L110.162 465.142C129.318 484.364 154.859 500.382 180.4 509.993C196.364 516.4 215.519 506.789 221.905 490.771C225.097 487.568 225.097 481.16 225.097 474.753L209.134 388.255Z" class="fa-primary"/></svg>