<svg xmlns="http://www.w3.org/2000/svg" viewBox="0 0 512 512"><!-- Font Awesome Pro 6.0.0-alpha2 by @fontawesome - https://fontawesome.com License - https://fontawesome.com/license (Commercial License) --><defs><style>.fa-secondary{opacity:.4}</style></defs><path d="M448 109.25L502.628 54.622C515.124 42.126 515.124 21.867 502.628 9.372L502.628 9.372C490.133 -3.124 469.874 -3.124 457.378 9.372L402.75 64H424C437.25 64 448 74.75 448 88V109.25ZM160 306.75V24C160 10.75 149.25 0 136 0H88C74.75 0 64 10.75 64 24V424C64 437.25 74.75 448 88 448H320V352H205.25L352 205.25V160H306.75L160 306.75ZM488 354.383H448V450.383H488C501.25 450.383 512 439.633 512 426.383V378.383C512 365.133 501.25 354.383 488 354.383Z" class="fa-secondary"/><path d="M0 88V136C0 149.25 10.75 160 24 160H64V64H24C10.75 64 0 74.75 0 88ZM424 64H192V160H352V488C352 501.25 362.75 512 376 512H424C437.25 512 448 501.25 448 488V88C448 74.75 437.25 64 424 64Z" class="fa-primary"/></svg>