<svg xmlns="http://www.w3.org/2000/svg" viewBox="0 0 512 512"><!-- Font Awesome Pro 6.0.0-alpha2 by @fontawesome - https://fontawesome.com License - https://fontawesome.com/license (Commercial License) --><defs><style>.fa-secondary{opacity:.4}</style></defs><path d="M405.305 224H471.062C457.01 128.721 381.523 54.982 288.07 41.037V108.588C316.471 113.939 343.354 127.688 364.871 150.4C385.291 170.82 398.895 196.207 405.305 224ZM109.896 288H41C54.68 383.518 128.553 457.391 224.07 471.07V406.469C196.881 400.318 171.162 386.639 150.471 364.799C129.523 342.689 115.992 315.883 109.896 288ZM406.674 288C400.805 316.293 386.432 343.238 364.871 364.799C342.76 386.91 315.953 400.744 288.07 406.773V471.07C383.588 457.391 457.461 383.518 471.141 288H406.674ZM41.078 224H109.594C115.361 196.811 128.631 171.092 150.471 150.4C171.723 130.266 197.359 117.217 224.07 110.787V41.037C130.617 54.982 55.131 128.721 41.078 224Z" class="fa-secondary"/><path d="M256 352C238.326 352 224 366.326 224 384V480C224 497.672 238.326 512 256 512S288 497.672 288 480V384C288 366.326 273.674 352 256 352ZM128 224H32C14.326 224 0 238.326 0 256C0 273.672 14.326 288 32 288H128C145.674 288 160 273.672 160 256C160 238.326 145.674 224 128 224ZM480 224H384C366.326 224 352 238.326 352 256C352 273.672 366.326 288 384 288H480C497.674 288 512 273.672 512 256C512 238.326 497.674 224 480 224ZM256 0C238.326 0 224 14.326 224 32V128C224 145.672 238.326 160 256 160S288 145.672 288 128V32C288 14.326 273.674 0 256 0ZM256 224C238.326 224 224 238.326 224 256C224 273.672 238.326 288 256 288S288 273.672 288 256C288 238.326 273.674 224 256 224Z" class="fa-primary"/></svg>