<svg xmlns="http://www.w3.org/2000/svg" viewBox="0 0 576 512"><!-- Font Awesome Pro 6.0.0-alpha2 by @fontawesome - https://fontawesome.com License - https://fontawesome.com/license (Commercial License) --><defs><style>.fa-secondary{opacity:.4}</style></defs><path d="M288 32C265.908 32 248 49.906 248 72S265.908 112 288 112S328 94.094 328 72S310.092 32 288 32ZM40 96C17.908 96 0 113.906 0 136S17.908 176 40 176S80 158.094 80 136S62.092 96 40 96ZM536 96C513.908 96 496 113.906 496 136S513.908 176 536 176S576 158.094 576 136S558.092 96 536 96Z" class="fa-secondary"/><path d="M40 176C40.246 176 40.465 175.914 40.711 175.91L40.701 175.859C40.453 175.863 40.248 176 40 176ZM535.299 175.859L535.289 175.91C535.535 175.914 535.754 176 536 176C535.752 176 535.547 175.863 535.299 175.859ZM504.537 159.57L414.91 231.273C399.002 244 375.408 238.816 366.297 220.594L308.699 105.398C302.57 109.215 295.75 112 288 112S273.43 109.215 267.301 105.398L209.703 220.594C200.592 238.816 176.998 244 161.09 231.273L71.463 159.57C64.303 169.113 53.482 175.664 40.711 175.91L91.223 453.727C93.988 468.938 107.242 480 122.707 480H453.293C468.758 480 482.012 468.938 484.777 453.727L535.289 175.91C522.518 175.664 511.697 169.113 504.537 159.57Z" class="fa-primary"/></svg>