<svg xmlns="http://www.w3.org/2000/svg" viewBox="0 0 640 512"><!-- Font Awesome Pro 6.0.0-alpha2 by @fontawesome - https://fontawesome.com License - https://fontawesome.com/license (Commercial License) --><defs><style>.fa-secondary{opacity:.4}</style></defs><path d="M214.578 55.024C220.858 48.745 223.996 40.489 223.996 32.233C223.996 6.952 200.937 0 191.788 0C183.535 0 175.283 3.149 168.989 9.442L9.429 168.986C3.144 175.269 0 183.508 0 191.747C0 199.955 3.121 208.165 9.367 214.443L9.429 214.505C15.721 220.832 23.987 223.996 32.253 223.996C40.491 223.996 48.73 220.854 55.017 214.568L55.592 213.997L186.798 345.304C189.761 348.237 193.447 350.222 196.749 352.741L212.201 337.292L222.927 290.809L100.852 168.74L168.732 100.867L254.568 186.701C259.615 178.662 265.307 171.006 272.078 164.166L297.364 138.913L213.992 55.61L214.578 55.024ZM222.799 290.68L222.927 290.809L223.006 290.473L222.799 290.68ZM640 191.747C640 183.508 636.856 175.269 630.572 168.986L471.01 9.442C464.717 3.149 456.466 0 448.213 0C438.984 0 416.005 7.172 416.005 32.235C416.005 40.49 419.142 48.746 425.422 55.024L584.982 214.568C591.269 220.854 599.509 223.996 607.747 223.996C616.014 223.996 624.28 220.832 630.572 214.505L630.635 214.443C636.879 208.165 640 199.956 640 191.747ZM438.598 393.35C430.719 396.971 422.584 400.088 414.015 402.107L367.573 412.826L462.061 507.313C465.186 510.438 469.28 512 473.373 512C477.467 512 481.561 510.438 484.686 507.313L507.311 484.688C510.436 481.563 511.999 477.469 511.999 473.376S510.436 465.188 507.311 462.063L438.598 393.35Z " class="fa-secondary"></path><path d="M539.144 168.739L462.451 245.43L394.575 177.557L471.268 100.866L426.018 55.616L294.699 186.806C282.074 199.556 273.199 215.556 269.074 233.181L241.323 353.429L132.688 462.063C129.563 465.188 128 469.282 128 473.376S129.563 481.563 132.688 484.688L155.313 507.313C158.438 510.438 162.532 512 166.625 512C170.719 512 174.813 510.438 177.938 507.313L286.574 398.678L406.825 370.928C424.325 366.803 440.451 357.928 453.201 345.304L584.394 213.989L539.144 168.739ZM407.95 300.054C403.7 304.179 398.325 307.179 392.45 308.554L313.199 326.804L331.449 247.555C332.824 241.68 335.824 236.306 339.95 232.056L349.325 222.806L417.2 290.68L407.95 300.054Z " class="fa-primary"></path></svg>