<svg xmlns="http://www.w3.org/2000/svg" viewBox="0 0 384 512"><!-- Font Awesome Pro 6.0.0-alpha2 by @fontawesome - https://fontawesome.com License - https://fontawesome.com/license (Commercial License) --><defs><style>.fa-secondary{opacity:.4}</style></defs><path d="M128 428.875L178.75 504.875C185 514.375 199 514.375 205.375 504.875L256 428.875V192H128V428.875Z" class="fa-secondary"/><path d="M336 128H224V16C224 7.125 216.875 0 208 0H176C167.125 0 160 7.125 160 16V128H48C21.5 128 0 149.5 0 176S21.5 224 48 224C68.875 224 86.5 210.625 93 192H291C297.5 210.625 315.125 224 336 224C362.5 224 384 202.5 384 176S362.5 128 336 128Z" class="fa-primary"/></svg>