<svg xmlns="http://www.w3.org/2000/svg" viewBox="0 0 576 512"><!-- Font Awesome Pro 6.0.0-alpha2 by @fontawesome - https://fontawesome.com License - https://fontawesome.com/license (Commercial License) --><defs><style>.fa-secondary{opacity:.4}</style></defs><path d="M473.375 27.625C469.625 25.125 464.75 26.125 462.25 29.75L444.25 57C439.625 64 433.25 69.625 425.75 73.25L383.125 94.625L349.375 85.125L357.625 74.75C364.375 66.25 368.125 55.75 368.125 44.75V8C368.125 3.625 364.5 0 360.125 0H344.125C339.75 0 336.125 3.625 336.125 8V44.75C336.125 48.375 334.875 51.875 332.625 54.75L315.875 75.75L299.75 71.25C292.875 69.25 288 63 288 55.75V8C288 3.625 284.375 0 280 0H264C259.625 0 256 3.625 256 8V55.75C256 77.25 270.375 96.25 291 102L368.688 123.914L371.324 118.398C377.725 105.602 393.725 99.199 409.725 102.398L427.818 107.57L440 101.875C452.375 95.75 463 86.25 470.75 74.75L488.875 47.625C491.375 43.875 490.375 39 486.625 36.5L473.375 27.625ZM544.125 96C526.451 96 512.125 110.328 512.125 128C512.125 129.375 512.74 130.547 512.908 131.883L516.582 132.93L521.725 134.398C524.76 135.156 527.559 136.5 530.109 138.215C531.822 139.34 533.203 140.836 534.662 142.289C535.289 142.93 536.027 143.434 536.598 144.129C540.437 148.648 542.789 154.129 543.527 159.879C543.738 159.883 543.914 160 544.125 160C561.799 160 576.125 145.672 576.125 128S561.799 96 544.125 96Z" class="fa-secondary"/><path d="M521.6 134.4L409.6 102.4C393.6 99.2 377.6 105.6 371.2 118.4L336 192H96C60.8 192 32 220.8 32 256V320L64 300.8V348.8L51.2 380.8C48 393.6 44.8 406.4 48 419.2L73.6 502.4C76.8 505.6 83.2 512 89.6 512H153.6C163.2 512 169.6 505.6 169.6 496V492.8L144 403.2L163.2 352H320V496C320 505.6 326.4 512 336 512H400C409.6 512 416 505.6 416 496V288L448 224H512C531.2 224 544 211.2 544 192V163.2C544 150.4 534.4 137.6 521.6 134.4ZM448 176C438.4 176 432 169.6 432 160S438.4 144 448 144S464 150.4 464 160S457.6 176 448 176Z" class="fa-primary"/></svg>