<svg xmlns="http://www.w3.org/2000/svg" viewBox="0 0 576 512"><!-- Font Awesome Pro 6.0.0-alpha2 by @fontawesome - https://fontawesome.com License - https://fontawesome.com/license (Commercial License) --><defs><style>.fa-secondary{opacity:.4}</style></defs><path d="M0 128V384C0 419.375 28.625 448 64 448H370.75C387.75 448 404 441.25 416 429.25L566.625 278.625C579.125 266.125 579.125 245.875 566.625 233.375L416 82.75C404 70.75 387.75 64 370.75 64H64C28.625 64 0 92.625 0 128ZM190.062 255.998L143.031 208.969C133.656 199.594 133.656 184.406 143.031 175.031S167.594 165.656 176.969 175.031L224 222.062L271.031 175.031C280.406 165.656 295.594 165.656 304.969 175.031S314.344 199.594 304.969 208.969L257.938 255.998L304.969 303.029C314.344 312.404 314.344 327.592 304.969 336.967C295.596 346.34 280.412 346.348 271.031 336.967L224 289.936L176.969 336.967C167.596 346.34 152.412 346.348 143.031 336.967C133.656 327.592 133.656 312.404 143.031 303.029L190.062 255.998Z" class="fa-secondary"/><path d="M190.063 255.999L143.031 208.968C133.656 199.593 133.656 184.406 143.031 175.031S167.594 165.656 176.969 175.031L224 222.062L271.031 175.031C280.406 165.656 295.594 165.656 304.969 175.031S314.344 199.593 304.969 208.968L257.938 255.999L304.969 303.03C314.344 312.405 314.344 327.592 304.969 336.967C295.596 346.34 280.412 346.348 271.031 336.967L224 289.936L176.969 336.967C167.596 346.34 152.412 346.348 143.031 336.967C133.656 327.592 133.656 312.405 143.031 303.03L190.063 255.999Z" class="fa-primary"/></svg>