<svg xmlns="http://www.w3.org/2000/svg" viewBox="0 0 512 512"><!-- Font Awesome Pro 6.0.0-alpha2 by @fontawesome - https://fontawesome.com License - https://fontawesome.com/license (Commercial License) --><defs><style>.fa-secondary{opacity:.4}</style></defs><path d="M231.627 0C235.77 0 239.812 3.31 239.812 8.524V503.457C239.812 508.529 235.856 512 231.66 512C229.936 512 228.171 511.414 226.624 510.113L3.026 321.302C1.037 319.621 0 317.154 0 314.66C0 312.844 0.55 311.012 1.682 309.459L225.281 3.337C226.971 1.031 229.315 0 231.627 0Z " class="fa-secondary"></path><path d="M511.812 314.66C511.812 317.154 510.775 319.621 508.786 321.302L285.188 510.113C283.641 511.414 281.876 512 280.153 512C275.957 512 272 508.529 272 503.457V8.524C272 3.31 276.042 0 280.185 0C282.497 0 284.841 1.031 286.532 3.337L510.13 309.459C511.262 311.012 511.812 312.844 511.812 314.66Z " class="fa-primary"></path></svg>