<svg xmlns="http://www.w3.org/2000/svg" viewBox="0 0 512 512"><!-- Font Awesome Pro 6.0.0-alpha2 by @fontawesome - https://fontawesome.com License - https://fontawesome.com/license (Commercial License) --><defs><style>.fa-secondary{opacity:.4}</style></defs><path d="M196.644 18.659C196.644 14.358 192.961 10.638 188.641 10.638C187.333 10.638 185.966 10.979 184.626 11.748L33.813 110.341C32.602 111.138 32 112.425 32 113.705C32 115.035 32.649 116.358 33.938 117.122L115.469 165.81L195.407 22.873C196.265 21.478 196.644 20.039 196.644 18.659ZM255.999 0C250.749 0 245.499 2.531 242.374 7.623L146.782 175.997H365.217L269.624 7.623C266.499 2.531 261.249 0 255.999 0ZM479.999 113.694C479.999 112.417 479.397 111.138 478.186 110.341L327.374 11.748C326.033 10.979 324.667 10.638 323.359 10.638C319.038 10.638 315.356 14.358 315.356 18.659C315.356 20.039 315.734 21.478 316.592 22.873L396.53 165.81L478.061 117.122C479.351 116.342 479.999 115.019 479.999 113.694Z " class="fa-secondary"></path><path d="M20.039 317.345C18.004 317.345 16 315.823 16 313.34V150.529C16 148.178 17.91 146.517 20.001 146.517C20.689 146.517 21.397 146.697 22.062 147.092L98.687 193.091L23.406 315.433C22.59 316.753 21.309 317.345 20.039 317.345ZM231.374 405.151L23.125 383.089C18.855 382.607 16.002 378.971 16.002 375.094C16.002 373.693 16.375 372.26 17.187 370.933L122.749 215.059L231.374 405.151ZM31.998 420.065C31.998 418.026 33.507 415.997 35.928 415.997C36.094 415.997 36.264 416.006 36.437 416.026L239.999 438.338V503.994C239.999 508.612 236.213 512 232.018 512C230.905 512 229.763 511.761 228.655 511.243L34.25 423.588C32.688 422.825 31.998 421.443 31.998 420.065ZM356.436 207.997L255.999 383.745L155.562 207.997H255.999H356.436ZM476.069 415.997C478.491 415.997 479.999 418.026 479.999 420.065C479.999 421.443 479.31 422.825 477.747 423.588L283.342 511.243C282.239 511.753 281.102 511.988 279.993 511.988C275.793 511.988 271.999 508.616 271.999 503.994V438.307L475.56 416.026C475.734 416.006 475.903 415.997 476.069 415.997ZM494.81 370.933C495.625 372.264 496 373.703 496 375.109C496 378.981 493.159 382.607 488.872 383.089L280.623 405.151L389.248 215.059L494.81 370.933ZM491.996 146.517C494.087 146.517 495.997 148.178 495.997 150.529V313.34C495.997 315.823 493.982 317.345 491.944 317.345C490.674 317.345 489.395 316.753 488.591 315.433L413.31 193.091L489.935 147.092C490.6 146.697 491.308 146.517 491.996 146.517Z " class="fa-primary"></path></svg>