<svg xmlns="http://www.w3.org/2000/svg" viewBox="0 0 448 512"><!-- Font Awesome Pro 6.0.0-alpha2 by @fontawesome - https://fontawesome.com License - https://fontawesome.com/license (Commercial License) --><defs><style>.fa-secondary{opacity:.4}</style></defs><path d="M384 32H64C28.625 32 0 60.625 0 96V416C0 451.375 28.625 480 64 480H384C419.375 480 448 451.375 448 416V96C448 60.625 419.375 32 384 32ZM128 384C110.375 384 96 369.625 96 352S110.375 320 128 320S160 334.375 160 352S145.625 384 128 384ZM128 288C110.375 288 96 273.625 96 256S110.375 224 128 224S160 238.375 160 256S145.625 288 128 288ZM128 192C110.375 192 96 177.625 96 160S110.375 128 128 128S160 142.375 160 160S145.625 192 128 192ZM320 384C302.375 384 288 369.625 288 352S302.375 320 320 320S352 334.375 352 352S337.625 384 320 384ZM320 288C302.375 288 288 273.625 288 256S302.375 224 320 224S352 238.375 352 256S337.625 288 320 288ZM320 192C302.375 192 288 177.625 288 160S302.375 128 320 128S352 142.375 352 160S337.625 192 320 192Z " class="fa-secondary"></path><path d="M128 320C110.375 320 96 334.375 96 352S110.375 384 128 384S160 369.625 160 352S145.625 320 128 320ZM320 192C337.625 192 352 177.625 352 160S337.625 128 320 128S288 142.375 288 160S302.375 192 320 192ZM128 224C110.375 224 96 238.375 96 256S110.375 288 128 288S160 273.625 160 256S145.625 224 128 224ZM320 320C302.375 320 288 334.375 288 352S302.375 384 320 384S352 369.625 352 352S337.625 320 320 320ZM320 224C302.375 224 288 238.375 288 256S302.375 288 320 288S352 273.625 352 256S337.625 224 320 224ZM128 128C110.375 128 96 142.375 96 160S110.375 192 128 192S160 177.625 160 160S145.625 128 128 128Z " class="fa-primary"></path></svg>