<svg xmlns="http://www.w3.org/2000/svg" viewBox="0 0 320 512"><!-- Font Awesome Pro 6.0.0-alpha2 by @fontawesome - https://fontawesome.com License - https://fontawesome.com/license (Commercial License) --><defs><style>.fa-secondary{opacity:.4}</style></defs><path d="M192.072 66.988L192 31.938C191.969 14.281 177.656 0 160 0C159.969 0 159.969 0 159.938 0C142.25 0.031 127.969 14.391 128 32.062L128.07 65.598C147.67 63.168 169.193 63.561 192.072 66.988ZM128.072 445.018L128 479.938C127.969 497.609 142.25 511.969 159.938 512C159.969 512 159.969 512 160 512C177.656 512 191.969 497.719 192 480.062L192.07 446.395C183.703 447.436 174.994 447.984 165.969 447.984C153.859 447.984 141.182 446.98 128.072 445.018Z" class="fa-secondary"/><path d="M166.044 447.984C153.732 447.984 140.857 447 127.513 444.969C102.325 441.266 76.357 432.156 53.419 424.109L43.044 420.484C22.138 413.281 11.044 390.516 18.263 369.625C25.482 348.75 48.169 337.687 69.107 344.859L79.919 348.625C99.419 355.469 121.544 363.234 139.357 365.844C176.794 371.578 218.95 366.312 223.357 341.391C226.575 323.219 221.044 314.469 149.263 294.453L135.263 290.516C95.107 279.047 1.107 252.156 18.013 156.656C30.044 88.953 100.263 53.016 192.638 67.031C208.95 69.531 227.419 74.359 250.825 82.234C271.763 89.266 283.044 111.953 275.982 132.891C268.95 153.844 246.294 165.109 225.325 158.047C206.669 151.781 192.013 147.875 180.544 146.125C143.388 140.469 101.232 145.688 96.763 170.641C94.357 184.266 92.45 195.062 157.263 213.609L170.763 217.391C226.294 232.891 319.294 258.813 302.107 355.375C291.825 413.266 238.982 447.984 166.044 447.984Z" class="fa-primary"/></svg>