<svg xmlns="http://www.w3.org/2000/svg" viewBox="0 0 384 512"><!-- Font Awesome Pro 6.0.0-alpha2 by @fontawesome - https://fontawesome.com License - https://fontawesome.com/license (Commercial License) --><defs><style>.fa-secondary{opacity:.4}</style></defs><path d="M352 32H32C14.327 32 0 46.327 0 64V64C0 81.673 14.327 96 32 96H352C369.673 96 384 81.673 384 64V64C384 46.327 369.673 32 352 32Z" class="fa-secondary"/><path d="M350.048 302.693C353.83 311.496 352.033 321.723 345.455 328.695L209.455 472.799C200.392 482.4 183.611 482.4 174.548 472.799L38.548 328.695C31.97 321.723 30.173 311.496 33.955 302.693C37.751 293.891 46.423 288.182 56.001 288.182H128.001V160.092C128.001 142.404 142.328 128.068 160.001 128.068H224.001C241.673 128.068 256.001 142.404 256.001 160.092V288.182H328.001C337.58 288.182 346.251 293.891 350.048 302.693Z" class="fa-primary"/></svg>