<svg xmlns="http://www.w3.org/2000/svg" viewBox="0 0 640 512"><!-- Font Awesome Pro 6.0.0-alpha2 by @fontawesome - https://fontawesome.com License - https://fontawesome.com/license (Commercial License) --><defs><style>.fa-secondary{opacity:.4}</style></defs><path d="M551.21 163.338C536.333 176.584 522.829 190.455 510.953 204.451C491.449 178.709 467.32 152.467 439.939 128.098C369.8 190.83 319.915 272.307 319.915 321.668C319.915 409.145 391.554 480 479.947 480S639.978 409.145 639.978 321.668C640.103 285.055 602.97 209.449 551.21 163.338ZM532.581 392.648C517.83 403.271 499.701 409.645 480.072 409.645C431.062 409.645 391.179 376.154 391.179 321.668C391.179 294.551 407.683 270.684 440.564 229.818C445.314 235.318 507.703 317.795 507.703 317.795L547.46 270.809C550.335 275.682 552.835 280.305 555.21 284.805C573.839 321.543 565.962 368.406 532.581 392.648ZM418.81 104.23L418.935 103.98L404.557 32H304.037V159.964H364.799C381.052 140.72 399.056 121.85 418.81 104.23ZM272.031 32.125H171.511L145.881 160.089H272.031V32.125ZM461.318 104.23C479.571 120.475 496.825 137.845 512.453 155.715C518.204 150.092 523.83 144.594 529.831 139.345L551.085 120.35L572.339 139.345C573.465 140.345 574.465 141.469 575.465 142.469C575.34 141.719 575.715 140.97 575.465 140.22L551.46 44.247C549.835 37.124 543.334 32.125 536.082 32.125H437.188L449.44 93.608L461.318 104.23ZM15.981 160.089H113.25L138.88 32.125H39.986C32.734 32.125 26.233 37.124 24.483 44.247L0.478 140.22C-2.023 150.342 5.604 160.089 15.981 160.089Z" class="fa-secondary"/><path d="M32.006 192.08L36.008 224.07H16.004C7.252 224.07 0 231.318 0 240.066V272.057C0 280.805 7.252 288.053 16.004 288.053H44.008L64.012 448.008V464.004C64.012 472.752 71.264 480 80.016 480H112.021C120.773 480 128.025 472.752 128.025 464.004V448.008H336.816C306.686 414.268 288.057 370.154 288.057 321.668C288.057 285.805 307.936 238.816 340.691 192.08H32.006ZM555.232 284.805C552.857 280.305 550.357 275.682 547.482 270.809L507.725 317.795C507.725 317.795 445.336 235.318 440.586 229.818C407.705 270.684 391.201 294.551 391.201 321.668C391.201 376.154 431.084 409.645 480.094 409.645C499.723 409.645 517.852 403.271 532.604 392.648C565.984 368.406 573.861 321.543 555.232 284.805Z" class="fa-primary"/></svg>