<svg xmlns="http://www.w3.org/2000/svg" viewBox="0 0 576 512"><!-- Font Awesome Pro 6.0.0-alpha2 by @fontawesome - https://fontawesome.com License - https://fontawesome.com/license (Commercial License) --><defs><style>.fa-secondary{opacity:.4}</style></defs><path d="M24.478 44.125L0.478 140.125C-2.023 150.25 5.603 160 15.978 160H113.228L138.853 32H39.978C32.728 32 26.228 37 24.478 44.125ZM575.478 140.125L551.478 44.125C549.728 37 543.228 32 535.978 32H437.103L462.728 160H559.978C570.353 160 577.977 150.25 575.478 140.125ZM145.853 160H271.978V32H171.478L145.853 160ZM303.978 32V160H430.103L404.478 32H303.978Z" class="fa-secondary"/><path d="M560 224H540L544 192H32L36 224H16C7.25 224 0 231.25 0 240V272C0 280.75 7.25 288 16 288H44L64 448V464C64 472.75 71.25 480 80 480H112C120.75 480 128 472.75 128 464V448H448V464C448 472.75 455.25 480 464 480H496C504.75 480 512 472.75 512 464V448L532 288H560C568.75 288 576 280.75 576 272V240C576 231.25 568.75 224 560 224Z" class="fa-primary"/></svg>