<svg xmlns="http://www.w3.org/2000/svg" viewBox="0 0 512 512"><!-- Font Awesome Pro 6.0.0-alpha2 by @fontawesome - https://fontawesome.com License - https://fontawesome.com/license (Commercial License) --><defs><style>.fa-secondary{opacity:.4}</style></defs><path d="M309.502 22.293L309.5 56.063C309.5 66.008 304.877 75.383 296.99 81.441L267.127 104.375C262.041 107.75 262.404 115.375 267.975 118.125L278.752 123.625C284.201 126.25 287.592 131.875 287.592 137.875V216C287.592 220.375 284.08 224 279.6 224H276.572C273.545 224 270.76 222.25 269.428 219.625C267.854 216.5 263.494 216.25 261.678 219.25L244.24 248.25C241.334 253 236.127 256 230.557 256H230.193C225.955 256 221.959 257.75 218.932 260.75L213.24 266.375C210.213 269.5 210.213 274.5 213.24 277.625L218.932 283.375C221.959 286.375 223.654 290.375 223.654 294.625V304C223.654 312.875 216.51 320 207.67 320H201.494C195.439 320 189.869 316.625 187.205 311.125L164.561 265.875C162.139 261 155.6 260 151.725 263.875L132.35 283.25C129.322 286.25 125.205 288 120.967 288H18C33.678 405.406 133.959 496 255.623 496C388.162 496 495.623 388.582 495.623 256C495.623 141.977 416.063 46.77 309.502 22.293ZM415.588 358.375C415.588 360.168 415.135 361.895 414.566 363.57C412.172 367.094 409.535 370.438 406.92 373.789L401.42 379.25C398.393 382.25 394.275 384 390.037 384H374.9C370.662 384 366.545 382.25 363.639 379.25L350.561 366.25C343.9 359.625 334.334 357 325.131 359.25L303.939 364.625C302.607 364.875 301.275 365 299.943 365H289.65C285.412 365 281.295 363.375 278.389 360.375L266.4 348.5C264.947 347 264.1 344.875 264.1 342.75V332.625C264.1 329.375 266.037 326.375 269.186 325.125L308.42 309.375C310.479 308.625 312.295 307.625 314.111 306.375L337.725 289.5C339.178 288.5 340.752 288 342.447 288H354.557C357.705 288 360.611 290 361.943 293L367.272 305.75C367.877 307.25 369.33 308.25 370.904 308.25H374.779C376.475 308.25 378.049 307.125 378.533 305.375L382.772 290.875C383.256 289.25 384.83 288 386.646 288H392.701C394.881 288 396.697 289.75 396.697 292V305C396.697 307.125 397.545 309.125 398.998 310.625L410.865 322.5C413.893 325.5 415.588 329.625 415.588 333.875V358.375Z" class="fa-secondary"/><path d="M256 16C274.553 16 292.535 18.309 309.879 22.293L309.877 56.063C309.877 66.008 305.254 75.383 297.367 81.441L267.504 104.375C262.418 107.75 262.781 115.375 268.352 118.125L279.129 123.625C284.578 126.25 287.969 131.875 287.969 137.875V216C287.969 220.375 284.457 224 279.977 224H276.949C273.922 224 271.137 222.25 269.805 219.625C268.23 216.5 263.871 216.25 262.055 219.25L244.617 248.25C241.711 253 236.504 256 230.934 256H230.57C226.332 256 222.336 257.75 219.309 260.75L213.617 266.375C210.59 269.5 210.59 274.5 213.617 277.625L219.309 283.375C222.336 286.375 224.031 290.375 224.031 294.625V304C224.031 312.875 216.887 320 208.047 320H201.871C195.816 320 190.246 316.625 187.582 311.125L164.938 265.875C162.516 261 155.977 260 152.102 263.875L132.727 283.25C129.699 286.25 125.582 288 121.344 288H18.377C16.975 277.508 16 266.879 16 256C16 123.418 123.461 16 256 16ZM399.375 310.625C397.922 309.125 397.074 307.125 397.074 305V292C397.074 289.75 395.258 288 393.078 288H387.023C385.207 288 383.633 289.25 383.148 290.875L378.91 305.375C378.426 307.125 376.852 308.25 375.156 308.25H371.281C369.707 308.25 368.254 307.25 367.648 305.75L362.32 293C360.988 290 358.082 288 354.934 288H342.824C341.129 288 339.555 288.5 338.102 289.5L314.488 306.375C312.672 307.625 310.855 308.625 308.797 309.375L269.563 325.125C266.414 326.375 264.477 329.375 264.477 332.625V342.75C264.477 344.875 265.324 347 266.777 348.5L278.766 360.375C281.672 363.375 285.789 365 290.027 365H300.32C301.652 365 302.984 364.875 304.316 364.625L325.508 359.25C334.711 357 344.277 359.625 350.938 366.25L364.016 379.25C366.922 382.25 371.039 384 375.277 384H390.414C394.652 384 398.77 382.25 401.797 379.25L407.297 373.789C409.912 370.438 412.549 367.094 414.943 363.57C415.512 361.895 415.965 360.168 415.965 358.375V333.875C415.965 329.625 414.27 325.5 411.242 322.5L399.375 310.625Z" class="fa-primary"/></svg>