<svg xmlns="http://www.w3.org/2000/svg" viewBox="0 0 128 512"><!-- Font Awesome Pro 6.0.0-alpha2 by @fontawesome - https://fontawesome.com License - https://fontawesome.com/license (Commercial License) --><defs><style>.fa-secondary{opacity:.4}</style></defs><path d="M128 256C128 220.611 99.375 192 64 192S0 220.611 0 256S28.625 320 64 320S128 291.389 128 256Z" class="fa-secondary"/><path d="M128 64C128 28.611 99.375 0 64 0S0 28.611 0 64S28.625 128 64 128S128 99.389 128 64ZM128 448C128 412.611 99.375 384 64 384S0 412.611 0 448S28.625 512 64 512S128 483.389 128 448Z" class="fa-primary"/></svg>