<svg xmlns="http://www.w3.org/2000/svg" viewBox="0 0 640 512"><!-- Font Awesome Pro 6.0.0-alpha2 by @fontawesome - https://fontawesome.com License - https://fontawesome.com/license (Commercial License) --><defs><style>.fa-secondary{opacity:.4}</style></defs><path d="M392 64H216C202.746 64 192 74.744 192 88C192 101.254 202.746 112 216 112H280V144H328V112H392C405.254 112 416 101.254 416 88C416 74.744 405.254 64 392 64ZM48 168C48 154.744 37.254 144 24 144S0 154.744 0 168V360C0 373.254 10.746 384 24 384S48 373.254 48 360V288H80V240H48V168ZM608 192H576C558.326 192 544 206.326 544 224V416C544 433.672 558.326 448 576 448H608C625.674 448 640 433.672 640 416V224C640 206.326 625.674 192 608 192Z" class="fa-secondary"/><path d="M505.999 211.5L434.723 154.498C426.223 147.703 415.664 144 404.781 144H128C101.49 144 80 165.49 80 192V336C80 362.51 101.49 384 128 384H169.375L219.32 433.945C228.32 442.943 240.523 448 253.25 448H464C490.51 448 512 426.51 512 400V223.98C512 219.125 509.793 214.531 505.999 211.5ZM281.846 206.154C281.846 193.922 291.77 184 304 184S326.154 193.922 326.154 206.154V297.846C326.154 310.076 316.23 320 304 320S281.846 310.076 281.846 297.846V206.154ZM304 397.539C287.688 397.539 274.461 384.312 274.461 368C274.461 351.686 287.688 338.461 304 338.461S333.539 351.686 333.539 368C333.539 384.312 320.312 397.539 304 397.539Z" class="fa-primary"/></svg>