<svg xmlns="http://www.w3.org/2000/svg" viewBox="0 0 640 512"><!-- Font Awesome Pro 6.0.0-alpha2 by @fontawesome - https://fontawesome.com License - https://fontawesome.com/license (Commercial License) --><defs><style>.fa-secondary{opacity:.4}</style></defs><path d="M344.353 222.263C349.304 232.831 351.914 244.345 352.003 256.015C351.513 298.677 320.001 320.018 320.001 320.018S288.52 298.677 288 256.015C288.089 244.346 290.695 232.833 295.64 222.263C303.712 223.43 311.847 224.013 319.982 224.013S336.251 223.43 344.323 222.263H344.353Z " class="fa-secondary"></path><path d="M626.997 239.094L515.122 208.793C510.331 202.232 504.971 195.392 498.991 188.342C500.341 186.272 554.173 100.337 554.173 100.337C556.034 97.368 556.864 94.283 556.864 91.312C556.864 81.957 548.641 73.724 538.504 73.724C536.324 73.724 534.056 74.104 531.762 74.936L411.987 118.298C402.103 113.422 391.859 109.313 381.345 106.008L336.873 10.733C333.533 3.578 326.763 0 319.992 0C313.222 0 306.452 3.578 303.112 10.733L258.64 106.008C248.117 109.308 237.866 113.417 227.978 118.298L108.213 74.936C105.919 74.104 103.651 73.724 101.472 73.724C91.324 73.724 83.095 81.977 83.095 91.353C83.095 94.318 83.917 97.394 85.762 100.357C85.762 100.357 139.604 186.282 140.944 188.362C135.324 194.982 129.947 201.799 124.813 208.813L12.968 239.094C4.323 241.434 0 248.722 0 256.01C0 263.298 4.323 270.586 12.968 272.926L124.843 303.227C129.624 309.768 134.954 316.578 140.914 323.608C139.574 325.698 85.792 411.663 85.792 411.663C83.934 414.636 83.106 417.723 83.106 420.696C83.106 430.067 91.332 438.306 101.472 438.306C103.651 438.306 105.919 437.926 108.213 437.094L227.978 393.732C237.866 398.613 248.117 402.722 258.64 406.022L303.112 501.267C306.452 508.422 313.222 512 319.992 512C326.763 512 333.533 508.422 336.873 501.267L381.345 406.022C391.861 402.721 402.105 398.612 411.987 393.732L531.762 437.094C534.05 437.922 536.312 438.301 538.487 438.301C548.642 438.301 556.884 430.033 556.884 420.658C556.884 417.695 556.06 414.621 554.213 411.663C554.213 411.663 500.431 325.658 499.091 323.608C505.091 316.608 510.381 309.768 515.162 303.227L627.037 272.926C635.677 270.587 640 263.309 640 256.026C640 248.736 635.667 241.441 626.997 239.094L626.997 239.094ZM319.992 352.02C319.989 352.02 319.986 352.02 319.982 352.02C319.979 352.02 319.976 352.02 319.973 352.02C266.97 352.02 223.969 309.055 223.969 256.015C223.969 237.131 229.538 218.667 239.979 202.932C261.9 216.113 289.701 224.013 319.982 224.013C350.264 224.013 378.065 216.113 399.986 202.932C410.822 219.262 416.007 237.695 416.007 255.926C416.007 309.725 372.363 352.02 319.992 352.02Z " class="fa-primary"></path></svg>