<svg xmlns="http://www.w3.org/2000/svg" viewBox="0 0 640 512"><!-- Font Awesome Pro 6.0.0-alpha2 by @fontawesome - https://fontawesome.com License - https://fontawesome.com/license (Commercial License) --><defs><style>.fa-secondary{opacity:.4}</style></defs><path d="M415.836 256.005C415.836 203.01 372.832 160.006 319.836 160.006H319.617C317.316 160.038 314.262 160.448 311.375 160.772C316.605 170.045 319.836 180.6 319.836 192.006C319.836 202.178 317.258 211.646 313 220.139L407.344 294.083C412.582 282.396 415.836 269.662 415.836 256.005ZM604.367 238.978C550.117 115.53 442.773 32.008 319.836 32.008C257.145 32.008 198.605 53.921 149 91.601L223.547 150.03C249.016 126.643 282.539 112.007 319.836 112.007C399.336 112.007 463.836 176.522 463.836 256.005V256.068C463.836 280.919 457.141 304.013 445.898 324.302L526.973 387.844C558.34 355.879 584.937 317.255 604.367 273.029C606.273 268.599 607.836 260.962 607.836 256.005C607.836 251.029 606.273 243.408 604.367 238.978Z" class="fa-secondary"/><path d="M615.984 512C610.796 512 605.593 510.344 601.187 506.875L9.187 42.879C-1.235 34.723 -3.063 19.63 5.109 9.192C13.296 -1.214 28.343 -3.089 38.812 5.13L630.812 469.125C641.234 477.282 643.062 492.375 634.89 502.813C630.156 508.844 623.109 512 615.984 512ZM85.195 155.01L452.836 445.246C442.734 450.793 432.332 455.632 421.711 459.91L67.414 180.201C73.082 171.534 78.945 163.057 85.195 155.01ZM36.848 236.072L344.352 478.839C358.25 477.578 371.898 475.23 385.258 471.898L50.883 207.92C45.914 217.068 41.184 226.408 36.848 236.072ZM292.148 478.39L37.547 277.392C88.156 389.035 182.457 466.988 292.148 478.39Z" class="fa-primary"/></svg>