<svg xmlns="http://www.w3.org/2000/svg" viewBox="0 0 512 512"><!-- Font Awesome Pro 6.0.0-alpha2 by @fontawesome - https://fontawesome.com License - https://fontawesome.com/license (Commercial License) --><defs><style>.fa-secondary{opacity:.4}</style></defs><path d="M256 16C123.461 16 16 123.418 16 256C16 388.578 123.461 496 256 496S496 388.578 496 256C496 123.418 388.539 16 256 16ZM319.695 136.75C327.324 125.25 344.398 125 352.391 136.75C364.742 155.125 367.527 173.625 368.133 192C367.648 210.375 364.742 228.875 352.391 247.25C344.762 258.75 327.688 259 319.695 247.25C307.344 228.875 304.559 210.375 303.953 192C304.559 173.625 307.344 155.125 319.695 136.75ZM159.73 136.75C167.359 125.25 184.434 125 192.426 136.75C204.777 155.125 207.441 173.625 208.047 192C207.563 210.375 204.777 228.875 192.426 247.25C184.797 258.75 167.723 259 159.73 247.25C147.258 228.875 144.594 210.375 143.988 192C144.473 173.625 147.258 155.125 159.73 136.75ZM256 432C195.453 432 121.465 393.75 112.141 338.75C110.203 326.875 121.465 317.125 132.848 320.75C163.121 330.5 208.047 336 256 336S348.879 330.5 379.152 320.75C390.535 317.125 401.676 326.875 399.859 338.75C390.535 393.75 316.547 432 256 432Z" class="fa-secondary"/><path d="M352.402 136.75C344.41 125 327.336 125.25 319.707 136.75C307.355 155.125 304.57 173.625 303.965 192C304.57 210.375 307.355 228.875 319.707 247.25C327.699 259 344.773 258.75 352.402 247.25C364.754 228.875 367.66 210.375 368.145 192C367.539 173.625 364.754 155.125 352.402 136.75ZM159.742 136.75C147.27 155.125 144.484 173.625 144 192C144.605 210.375 147.27 228.875 159.742 247.25C167.734 259 184.809 258.75 192.438 247.25C204.789 228.875 207.574 210.375 208.059 192C207.453 173.625 204.789 155.125 192.438 136.75C184.445 125 167.371 125.25 159.742 136.75Z" class="fa-primary"/></svg>