<svg xmlns="http://www.w3.org/2000/svg" viewBox="0 0 512 512"><!-- Font Awesome Pro 6.0.0-alpha2 by @fontawesome - https://fontawesome.com License - https://fontawesome.com/license (Commercial License) --><defs><style>.fa-secondary{opacity:.4}</style></defs><path d="M256 16C123.461 16 16 123.419 16 256S123.461 496 256 496S496 388.581 496 256S388.539 16 256 16ZM88.01 224C88.01 184.25 120.221 152 159.939 152C199.779 152 231.99 184.25 231.99 224S199.779 296 159.939 296C120.221 296 88.01 263.75 88.01 224ZM320.059 400H191.941C170.75 400 170.75 368 191.941 368H320.059C341.25 368 341.25 400 320.059 400ZM352.027 296C312.187 296 279.977 263.75 279.977 224S312.187 152 352.027 152C391.746 152 423.957 184.25 423.957 224S391.746 296 352.027 296Z" class="fa-secondary"/><path d="M351.977 200C338.656 200 328 210.75 328 224S338.656 248 351.977 248S375.953 237.25 375.953 224S365.297 200 351.977 200ZM159.977 200C146.656 200 136 210.75 136 224S146.656 248 159.977 248S183.953 237.25 183.953 224S173.297 200 159.977 200Z" class="fa-primary"/></svg>