<svg xmlns="http://www.w3.org/2000/svg" viewBox="0 0 512 512"><!-- Font Awesome Pro 6.0.0-alpha2 by @fontawesome - https://fontawesome.com License - https://fontawesome.com/license (Commercial License) --><defs><style>.fa-secondary{opacity:.4}</style></defs><path d="M460.372 130.812C447.938 133.766 434.442 136.461 418.833 138.605L415.118 139.082H412.645C400.981 139.082 389.942 134.004 382.356 125.152C374.77 116.297 371.45 104.586 373.184 93.434C375.563 76.672 378.258 63.188 381.036 51.477C288.579 -5.203 166.184 6.258 86.149 86.293C6.106 166.336 -5.351 288.734 51.333 381.188C63.766 378.234 77.262 375.539 92.872 373.395L96.587 372.918H99.059C110.723 372.918 121.762 377.996 129.348 386.848C136.934 395.703 140.255 407.414 138.52 418.566C136.141 435.328 133.446 448.812 130.669 460.523C223.126 517.203 345.52 505.742 425.555 425.703C505.598 345.664 517.055 223.266 460.372 130.812ZM261.212 100.383C264.481 87.211 283.555 88.82 284.813 102.234L289.469 154.5L341.735 159.156C355.325 160.414 356.587 179.484 343.587 182.758L253.048 205.414C244.383 207.539 236.43 199.586 238.555 190.922L261.212 100.383ZM182.61 343.734C179.337 356.734 160.352 355.387 159.008 341.883L154.352 289.617L102.087 284.961C88.673 283.703 87.063 264.629 100.235 261.359L190.774 238.703C199.524 236.492 207.477 244.445 205.266 253.195L182.61 343.734ZM380.305 380.453C337.489 423.266 258.126 448.535 212.641 416.234C202.786 409.121 204.032 394.266 214.555 388.867C242.856 374.352 278.512 346.477 312.423 312.57C346.329 278.66 374.208 243.004 388.719 214.703C394.29 204.008 409.063 203.195 416.087 212.789C448.387 258.273 423.118 337.637 380.305 380.453Z" class="fa-secondary"/><path d="M97.937 405.016C76.339 407.984 27.695 416.422 13.554 430.562C-4.825 448.945 -4.442 479.02 14.269 497.73S63.054 516.824 81.437 498.445C95.578 484.305 103.929 435.57 106.984 414.062C107.812 408.711 103.289 404.188 97.937 405.016ZM341.882 159.156L289.617 154.5L284.961 102.234C283.703 88.82 264.629 87.211 261.359 100.383L238.703 190.922C236.578 199.586 244.531 207.539 253.195 205.414L343.734 182.758C356.734 179.484 355.472 160.414 341.882 159.156ZM190.922 238.703L100.382 261.359C87.211 264.629 88.82 283.703 102.234 284.961L154.5 289.617L159.156 341.883C160.5 355.387 179.484 356.734 182.757 343.734L205.414 253.195C207.625 244.445 199.672 236.492 190.922 238.703ZM497.73 14.27C479.019 -4.441 448.945 -4.828 430.562 13.555C416.422 27.695 408.07 76.43 405.015 97.934C404.187 103.289 408.711 107.812 414.062 106.984C435.66 104.016 484.304 95.578 498.445 81.438C516.824 63.055 516.441 32.98 497.73 14.27Z" class="fa-primary"/></svg>