<svg xmlns="http://www.w3.org/2000/svg" viewBox="0 0 512 512"><!-- Font Awesome Pro 6.0.0-alpha2 by @fontawesome - https://fontawesome.com License - https://fontawesome.com/license (Commercial License) --><defs><style>.fa-secondary{opacity:.4}</style></defs><path d="M338.17 338.949C349.652 321.164 368.398 309.066 389.592 305.758C393.424 305.16 397.238 304.871 401.012 304.871H401.014C427.051 304.871 450.592 318.68 464.643 339.859C474.406 313.719 480 285.547 480 256C480 123.418 372.539 16 240 16S0 123.418 0 256C0 388.578 107.461 496 240 496C279.316 496 316.318 486.359 349.07 469.602L329.066 398.516C323.479 378.273 326.797 356.562 338.17 338.949ZM159.939 240C142.26 240 127.971 225.75 127.971 208S142.26 176 159.939 176C177.74 176 192.029 190.25 192.029 208S177.74 240 159.939 240ZM295.945 388.098C295.945 407.289 267.246 429.477 224.5 431.969C216.023 432.715 212.391 420.25 220.867 416.641L237.941 409.41C250.898 403.926 258.648 395.949 258.648 387.973C258.648 380 250.898 372.023 237.941 366.539L220.867 359.434C214.934 356.941 214.812 347.219 220.867 344.602L237.941 337.5C250.898 332.016 258.648 324.039 258.648 316.063S250.898 300.109 237.941 294.625L220.867 287.398C212.27 283.781 216.145 270.945 224.5 272.07C267.246 274.563 295.945 296.746 295.945 315.938C295.945 328.898 282.625 343.109 260.828 351.828C282.625 360.93 295.945 375.137 295.945 388.098ZM289.666 212.375L279.979 221C271.623 228.375 258.424 221.25 260.119 210.125C264.115 184.875 294.268 168 320.061 168C345.732 168 375.885 184.875 379.881 210.125C381.576 221.25 368.498 228.375 360.143 220.875L350.576 212.375C335.803 199.25 304.439 199.25 289.666 212.375Z" class="fa-secondary"/><path d="M159.969 176C142.289 176 128 190.25 128 208S142.289 240 159.969 240C177.77 240 192.059 225.75 192.059 208S177.77 176 159.969 176ZM379.91 210.125C375.914 184.875 345.762 168 320.09 168C294.297 168 264.145 184.875 260.148 210.125C258.453 221.25 271.652 228.375 280.008 221L289.695 212.375C304.469 199.25 335.832 199.25 350.605 212.375L360.172 220.875C368.527 228.375 381.605 221.25 379.91 210.125ZM509.066 402.5C500.941 381.75 477.066 371 455.191 376.625L446.691 378.75L444.316 370.375C438.316 349 416.941 333.875 394.566 337.375C368.941 341.375 353.316 366 359.941 390L383.191 472.625C384.816 477.875 390.316 481.125 395.816 479.75L480.191 458.25C504.691 451.875 518.441 426.375 509.066 402.5Z" class="fa-primary"/></svg>