<svg xmlns="http://www.w3.org/2000/svg" viewBox="0 0 512 512"><!-- Font Awesome Pro 6.0.0-alpha2 by @fontawesome - https://fontawesome.com License - https://fontawesome.com/license (Commercial License) --><defs><style>.fa-secondary{opacity:.4}</style></defs><path d="M256 16C123.461 16 16 123.419 16 256S123.461 496 256 496S496 388.581 496 256S388.539 16 256 16ZM98.457 183.625C105.117 166 125.098 156.875 143.262 161.75L150.406 163.625L152.344 156.5C157.43 138.375 175.23 125.625 193.879 128.625C215.313 132 228.27 152.75 222.699 173.125L203.324 243C202.113 247.5 197.391 250.25 192.789 249L122.555 230.75C102.211 225.375 90.707 203.75 98.457 183.625ZM256 432C195.453 432 121.465 393.75 112.141 338.75C110.203 326.875 121.344 317.25 132.848 320.75C163.121 330.5 208.047 336 256 336S348.879 330.5 379.152 320.75C390.535 317.25 401.676 326.875 399.859 338.75C390.535 393.75 316.547 432 256 432ZM389.445 230.75L319.211 248.875C314.73 250.125 310.008 247.375 308.676 242.875L289.301 173C283.73 152.75 296.688 131.875 318.121 128.5C336.648 125.5 354.449 138.25 359.656 156.375L361.594 163.5L368.738 161.625C386.902 156.875 406.883 165.875 413.543 183.5C421.293 203.75 409.789 225.375 389.445 230.75Z" class="fa-secondary"/><path d="M193.854 128.625C175.206 125.625 157.405 138.375 152.319 156.5L150.382 163.625L143.237 161.75C125.073 156.875 105.092 166 98.432 183.625C90.682 203.75 102.186 225.375 122.53 230.75L192.764 249C197.366 250.25 202.089 247.5 203.3 243L222.675 173.125C228.245 152.75 215.288 132 193.854 128.625ZM413.518 183.5C406.858 165.875 386.878 156.875 368.714 161.625L361.569 163.5L359.632 156.375C354.425 138.25 336.624 125.5 318.096 128.5C296.663 131.875 283.706 152.75 289.276 173L308.651 242.875C309.983 247.375 314.706 250.125 319.186 248.875L389.421 230.75C409.764 225.375 421.268 203.75 413.518 183.5Z" class="fa-primary"/></svg>