<svg xmlns="http://www.w3.org/2000/svg" viewBox="0 0 512 512"><!-- Font Awesome Pro 6.0.0-alpha2 by @fontawesome - https://fontawesome.com License - https://fontawesome.com/license (Commercial License) --><defs><style>.fa-secondary{opacity:.4}</style></defs><path d="M256 16C123.461 16 16 123.418 16 256C16 388.578 123.461 496 256 496S496 388.578 496 256C496 123.418 388.539 16 256 16ZM151.98 400H143.988C126.309 400 112.02 385.75 112.02 368V360H151.98V400ZM151.98 344H112.02V336C112.02 318.25 126.309 304 143.988 304H151.98V344ZM144 208C144 190.25 158.275 176 175.939 176C193.725 176 208 190.25 208 208S193.725 240 175.939 240C158.275 240 144 225.75 144 208ZM216.039 400H167.965V360H216.039V400ZM216.039 344H167.965V304H216.039V344ZM279.977 400H232.023V360H279.977V400ZM279.977 344H232.023V304H279.977V344ZM344.035 400H295.961V360H344.035V400ZM344.035 344H295.961V304H344.035V344ZM336.061 240C318.275 240 304 225.75 304 208S318.275 176 336.061 176C353.725 176 368 190.25 368 208S353.725 240 336.061 240ZM399.98 368C399.98 385.75 385.691 400 368.012 400H360.02V360H399.98V368ZM399.98 344H360.02V304H368.012C385.691 304 399.98 318.25 399.98 336V344Z" class="fa-secondary"/><path d="M175.939 176C158.275 176 144 190.25 144 208S158.275 240 175.939 240C193.725 240 208 225.75 208 208S193.725 176 175.939 176ZM336.061 176C318.275 176 304 190.25 304 208S318.275 240 336.061 240C353.725 240 368 225.75 368 208S353.725 176 336.061 176Z" class="fa-primary"/></svg>