<svg xmlns="http://www.w3.org/2000/svg" viewBox="0 0 512 512"><!-- Font Awesome Pro 6.0.0-alpha2 by @fontawesome - https://fontawesome.com License - https://fontawesome.com/license (Commercial License) --><defs><style>.fa-secondary{opacity:.4}</style></defs><path d="M352 256H313.6C297.6 243.199 278.4 233.6 256 227.199V179.199L224 176L192 179.199V227.199C169.6 233.6 150.4 243.199 134.4 256H16C6.4 256 0 262.4 0 272V368C0 377.6 6.4 384 16 384H108.801C128 422.4 172.801 448 224 448S320 422.4 339.199 384H352C371.199 384 384 396.799 384 416C384 435.199 396.801 448 416 448H480C499.199 448 512 435.199 512 416C512 326.4 441.6 256 352 256ZM256 108.799V80C256 70.4 249.6 64 240 64H208C198.4 64 192 70.4 192 80V108.799L224 112L256 108.799Z" class="fa-secondary"/><path d="M384 112V140.799C384 153.6 374.4 160 364.801 160L224 144L83.199 160C73.6 160 64 153.6 64 144V112C64 102.4 73.6 96 83.199 96L224 112L364.801 96C374.4 96 384 102.4 384 112Z" class="fa-primary"/></svg>