<svg xmlns="http://www.w3.org/2000/svg" viewBox="0 0 512 512"><!-- Font Awesome Pro 6.0.0-alpha2 by @fontawesome - https://fontawesome.com License - https://fontawesome.com/license (Commercial License) --><defs><style>.fa-secondary{opacity:.4}</style></defs><path d="M466.849 241.969L351.73 288.02H446.068C438.357 302.871 429.781 317.301 420.195 331.035L287.73 384.026H373.381C314.041 436.74 229.338 464.324 108.873 436.795L344.699 200.969C354.074 191.594 354.074 176.406 344.699 167.031S320.136 157.656 310.761 167.031L74.834 402.959C-3.229 61.977 362.215 8.434 478.595 0.082C497.461 -1.271 513.002 14.27 511.648 33.137C508.39 78.531 498.191 161.838 466.849 241.969Z" class="fa-secondary"/><path d="M24 512C17.844 512 11.719 509.656 7.031 504.969C-2.344 495.594 -2.344 480.406 7.031 471.031L311.031 167.031C320.406 157.656 335.594 157.656 344.969 167.031S354.344 191.594 344.969 200.969L40.969 504.969C36.281 509.656 30.156 512 24 512Z" class="fa-primary"/></svg>