<svg xmlns="http://www.w3.org/2000/svg" viewBox="0 0 512 512"><!-- Font Awesome Pro 6.0.0-alpha2 by @fontawesome - https://fontawesome.com License - https://fontawesome.com/license (Commercial License) --><defs><style>.fa-secondary{opacity:.4}</style></defs><path d="M431.766 352C387.57 352 351.711 387.832 351.711 432C351.711 476.166 387.57 512 431.766 512S511.711 476.166 511.711 432C511.711 387.832 475.961 352 431.766 352ZM506.168 67.77C516.176 53.037 512.258 32.947 497.445 23.08L470.828 5.355C456.25 -4.357 436.586 -0.5 426.734 14.006L351 125.502L430.836 178.674L506.168 67.77Z" class="fa-secondary"/><path d="M351.288 125.502L166.605 397.406C154.577 414.57 131.546 421.209 115.237 411.898C99.737 403.164 95.105 387.611 95.944 375.975C96.437 369.273 98.726 362.785 102.628 357.207L112.452 343.115C127.624 321.355 122.327 291.434 100.616 276.227C78.909 260.992 49.019 266.301 33.882 288.088L24.085 302.148C10.273 321.949 2.058 345.127 0.358 369.121C-3.395 421.363 22.55 469.809 68.148 495.584C90.101 507.988 114.616 513.166 138.882 511.781C179.882 509.439 220.062 488.354 245.64 451.75L431.124 178.674L351.288 125.502Z" class="fa-primary"/></svg>