<svg xmlns="http://www.w3.org/2000/svg" viewBox="0 0 384 512"><!-- Font Awesome Pro 6.0.0-alpha2 by @fontawesome - https://fontawesome.com License - https://fontawesome.com/license (Commercial License) --><defs><style>.fa-secondary{opacity:.4}</style></defs><path d="M256 128V0H48C21.49 0 0 21.492 0 48V464C0 490.508 21.49 512 48 512H336C362.51 512 384 490.508 384 464V128H256ZM284.668 342.314L201.676 427.873C196.289 433.377 187.723 433.377 182.336 427.873L99.344 342.314C75.234 317.299 76.703 276.143 103.629 253.127C127.133 233.111 162.016 236.74 183.437 258.881L191.883 267.635L200.328 258.881C221.875 236.74 256.883 233.111 280.258 253.127C307.312 276.143 308.781 317.299 284.668 342.314Z" class="fa-secondary"/><path d="M255.713 0V128H383.713L255.713 0ZM200.041 258.881L191.595 267.635L183.15 258.881C161.728 236.74 126.845 233.111 103.342 253.127C76.416 276.143 74.947 317.299 99.056 342.314L182.049 427.873C187.435 433.377 196.002 433.377 201.388 427.873L284.381 342.314C308.494 317.299 307.025 276.143 279.97 253.127C256.595 233.111 221.588 236.74 200.041 258.881Z" class="fa-primary"/></svg>