<svg xmlns="http://www.w3.org/2000/svg" viewBox="0 0 384 512"><!-- Font Awesome Pro 6.0.0-alpha2 by @fontawesome - https://fontawesome.com License - https://fontawesome.com/license (Commercial License) --><defs><style>.fa-secondary{opacity:.4}</style></defs><path d="M256 128V0H48C21.49 0 0 21.492 0 48V464C0 490.508 21.49 512 48 512H336C362.51 512 384 490.508 384 464V128H256ZM256 432H128C119.156 432 112 424.844 112 416S119.156 400 128 400H256C264.844 400 272 407.156 272 416S264.844 432 256 432ZM256 288H208V336C208 344.844 200.844 352 192 352S176 344.844 176 336V288H128C119.156 288 112 280.844 112 272S119.156 256 128 256H176V208C176 199.156 183.156 192 192 192S208 199.156 208 208V256H256C264.844 256 272 263.156 272 272S264.844 288 256 288Z" class="fa-secondary"/><path d="M256 0V128H384L256 0ZM256 400H128C119.156 400 112 407.156 112 416S119.156 432 128 432H256C264.844 432 272 424.844 272 416S264.844 400 256 400ZM256 256H208V208C208 199.156 200.844 192 192 192S176 199.156 176 208V256H128C119.156 256 112 263.156 112 272S119.156 288 128 288H176V336C176 344.844 183.156 352 192 352S208 344.844 208 336V288H256C264.844 288 272 280.844 272 272S264.844 256 256 256Z" class="fa-primary"/></svg>