<svg xmlns="http://www.w3.org/2000/svg" viewBox="0 0 448 512"><!-- Font Awesome Pro 6.0.0-alpha2 by @fontawesome - https://fontawesome.com License - https://fontawesome.com/license (Commercial License) --><defs><style>.fa-secondary{opacity:.4}</style></defs><path d="M352 96V0H144C117.49 0 96 21.49 96 48V368C96 394.51 117.49 416 144 416H400C426.51 416 448 394.51 448 368V96H352ZM368 274.285C368 281.859 361.859 288 354.285 288H304V338.285C304 345.859 297.859 352 290.285 352H253.715C246.141 352 240 345.859 240 338.285V288H189.715C182.141 288 176 281.859 176 274.285V237.711C176 230.141 182.141 224 189.715 224H240V173.711C240 166.141 246.141 160 253.715 160H290.285C297.859 160 304 166.141 304 173.711V224H354.285C361.859 224 368 230.141 368 237.711V274.285Z" class="fa-secondary"/><path d="M48 432V96C21.49 96 0 117.492 0 144V448C0 483.346 28.654 512 64 512H304C330.51 512 352 490.508 352 464H80C62.326 464 48 449.672 48 432ZM352 0V96H448L352 0ZM354.285 224H304V173.711C304 166.141 297.859 160 290.285 160H253.715C246.141 160 240 166.141 240 173.711V224H189.715C182.141 224 176 230.141 176 237.711V274.285C176 281.859 182.141 288 189.715 288H240V338.285C240 345.859 246.141 352 253.715 352H290.285C297.859 352 304 345.859 304 338.285V288H354.285C361.859 288 368 281.859 368 274.285V237.711C368 230.141 361.859 224 354.285 224Z" class="fa-primary"/></svg>