<svg xmlns="http://www.w3.org/2000/svg" viewBox="0 0 384 512"><!-- Font Awesome Pro 6.0.0-alpha2 by @fontawesome - https://fontawesome.com License - https://fontawesome.com/license (Commercial License) --><defs><style>.fa-secondary{opacity:.4}</style></defs><path d="M256 128V0H48C21.49 0 0 21.492 0 48V464C0 490.508 21.49 512 48 512H336C362.51 512 384 490.508 384 464V128H256ZM288 384C288 401.625 266.5 416 240 416S192 401.625 192 384S213.5 352 240 352C245.375 352 250.75 352.75 256 354.001V277.625L160 315.125V416C160 433.625 138.5 448 112 448S64 433.625 64 416S85.5 384 112 384C117.375 384 122.75 384.75 128 386.001V271.25C128 264.25 132.5 258.125 139.25 256L267.25 208.75C272 207.25 277.375 208.125 281.5 211.125S288 218.875 288 224V384Z" class="fa-secondary"/><path d="M256 0V128H384L256 0ZM267.25 208.75L139.25 256C132.5 258.125 128 264.25 128 271.25V386C122.75 384.75 117.375 384 112 384C85.5 384 64 398.375 64 416S85.5 448 112 448S160 433.625 160 416V315.125L256 277.625V354C250.75 352.75 245.375 352 240 352C213.5 352 192 366.375 192 384S213.5 416 240 416S288 401.625 288 384V224C288 218.875 285.625 214.125 281.5 211.125S272 207.25 267.25 208.75Z" class="fa-primary"/></svg>