<svg xmlns="http://www.w3.org/2000/svg" viewBox="0 0 384 512"><!-- Font Awesome Pro 6.0.0-alpha2 by @fontawesome - https://fontawesome.com License - https://fontawesome.com/license (Commercial License) --><defs><style>.fa-secondary{opacity:.4}</style></defs><path d="M256 128V0H48C21.49 0 0 21.492 0 48V464C0 490.508 21.49 512 48 512H336C362.51 512 384 490.508 384 464V128H256ZM288.969 360.969L208.969 440.969C199.594 450.344 184.406 450.344 175.031 440.969L95.031 360.969C85.656 351.594 85.656 336.406 95.031 327.031C99.719 322.344 105.844 320 112 320S124.281 322.344 128.969 327.031L168 366.062V248C168 234.75 178.75 224 192 224S216 234.75 216 248V366.062L255.031 327.031C264.406 317.656 279.594 317.656 288.969 327.031S298.344 351.594 288.969 360.969Z" class="fa-secondary"/><path d="M256 0V128H384L256 0ZM255.031 327.031L216 366.062V248C216 234.75 205.25 224 192 224S168 234.75 168 248V366.062L128.969 327.031C124.281 322.344 118.156 320 112 320S99.719 322.344 95.031 327.031C85.656 336.406 85.656 351.594 95.031 360.969L175.031 440.969C184.406 450.344 199.594 450.344 208.969 440.969L288.969 360.969C298.344 351.594 298.344 336.406 288.969 327.031S264.406 317.656 255.031 327.031Z" class="fa-primary"/></svg>