<svg xmlns="http://www.w3.org/2000/svg" viewBox="0 0 448 512"><!-- Font Awesome Pro 6.0.0-alpha2 by @fontawesome - https://fontawesome.com License - https://fontawesome.com/license (Commercial License) --><defs><style>.fa-secondary{opacity:.4}</style></defs><path d="M96 368V48C96 21.49 117.49 0 144 0H352V96H448V368C448 394.51 426.51 416 400 416H144C117.49 416 96 394.51 96 368Z" class="fa-secondary"/><path d="M48 432V96C21.49 96 0 117.492 0 144V448C0 483.346 28.654 512 64 512H304C330.51 512 352 490.508 352 464H80C62.326 464 48 449.672 48 432ZM352 0V96H448L352 0Z" class="fa-primary"/></svg>