<svg xmlns="http://www.w3.org/2000/svg" viewBox="0 0 576 512"><!-- Font Awesome Pro 6.0.0-alpha2 by @fontawesome - https://fontawesome.com License - https://fontawesome.com/license (Commercial License) --><defs><style>.fa-secondary{opacity:.4}</style></defs><path d="M528 32H144C117.49 32 96 53.49 96 80V336C96 362.51 117.49 384 144 384H528C554.51 384 576 362.51 576 336V80C576 53.49 554.51 32 528 32ZM200 327C200 331.969 195.969 336 191 336H161C156.031 336 152 331.969 152 327V297C152 292.031 156.031 288 161 288H191C195.969 288 200 292.031 200 297V327ZM200 223C200 227.969 195.969 232 191 232H161C156.031 232 152 227.969 152 223V193C152 188.031 156.031 184 161 184H191C195.969 184 200 188.031 200 193V223ZM200 119C200 123.969 195.969 128 191 128H161C156.031 128 152 123.969 152 119V89C152 84.031 156.031 80 161 80H191C195.969 80 200 84.031 200 89V119ZM416 320C416 328.836 408.836 336 400 336H272C263.164 336 256 328.836 256 320V240C256 231.162 263.164 224 272 224H400C408.836 224 416 231.162 416 240V320ZM416 176C416 184.836 408.836 192 400 192H272C263.164 192 256 184.836 256 176V96C256 87.162 263.164 80 272 80H400C408.836 80 416 87.162 416 96V176ZM520 327C520 331.969 515.969 336 511 336H481C476.031 336 472 331.969 472 327V297C472 292.031 476.031 288 481 288H511C515.969 288 520 292.031 520 297V327ZM520 223C520 227.969 515.969 232 511 232H481C476.031 232 472 227.969 472 223V193C472 188.031 476.031 184 481 184H511C515.969 184 520 188.031 520 193V223ZM520 119C520 123.969 515.969 128 511 128H481C476.031 128 472 123.969 472 119V89C472 84.031 476.031 80 481 80H511C515.969 80 520 84.031 520 89V119Z" class="fa-secondary"/><path d="M272 336H400C408.836 336 416 328.836 416 320V240C416 231.162 408.836 224 400 224H272C263.164 224 256 231.162 256 240V320C256 328.836 263.164 336 272 336ZM272 192H400C408.836 192 416 184.836 416 176V96C416 87.162 408.836 80 400 80H272C263.164 80 256 87.162 256 96V176C256 184.836 263.164 192 272 192ZM80 432C62.326 432 48 417.672 48 400V96C21.49 96 0 117.492 0 144V416C0 451.344 28.654 480 64 480H432C458.51 480 480 458.508 480 432H80Z" class="fa-primary"/></svg>