<svg xmlns="http://www.w3.org/2000/svg" viewBox="0 0 640 512"><!-- Font Awesome Pro 6.0.0-alpha2 by @fontawesome - https://fontawesome.com License - https://fontawesome.com/license (Commercial License) --><defs><style>.fa-secondary{opacity:.4}</style></defs><path d="M255.621 400C255.621 407.828 259.434 415.172 265.871 419.656L345.871 475.641C361.652 486.688 383.621 475.5 383.621 455.984V397.658L255.621 297.336V400ZM542.92 32H96.322C89.727 32 83.898 33.879 79 36.904L399.283 287.934L568.246 84.186C585.586 63.275 570.408 32 542.92 32Z" class="fa-secondary"/><path d="M630.812 469.102L38.814 5.11C34.407 1.672 29.189 0 24.032 0C16.907 0 9.845 3.157 5.126 9.188C-3.061 19.625 -1.249 34.719 9.189 42.891L601.187 506.883C611.687 515.086 626.749 513.211 634.874 502.805C643.062 492.368 641.249 477.274 630.812 469.102Z" class="fa-primary"/></svg>