<svg xmlns="http://www.w3.org/2000/svg" viewBox="0 0 448 512"><!-- Font Awesome Pro 6.0.0-alpha2 by @fontawesome - https://fontawesome.com License - https://fontawesome.com/license (Commercial License) --><defs><style>.fa-secondary{opacity:.4}</style></defs><path d="M323.5 51.25C302.75 70.5 284 90.75 267.375 111.125C240.125 73.625 206.25 35.5 168 0C69.75 91.125 0 210.001 0 281.625C0 408.875 100.25 512 224 512S448 408.875 448 281.625C448 228.375 396 118.5 323.5 51.25ZM304.125 391.875C282.375 407 255.75 416 226.875 416C154.75 416 96 368.25 96 290.75C96 252.125 120.25 218.125 168.75 160C175.75 168 267.625 285.375 267.625 285.375L326.25 218.5C330.375 225.25 334.125 232 337.5 238.375C364.875 290.625 353.375 357.375 304.125 391.875Z" class="fa-secondary"/><path d="M304.125 391.875C282.375 407 255.75 416 226.875 416C154.75 416 96 368.25 96 290.75C96 252.125 120.25 218.125 168.75 160C175.75 168 267.625 285.375 267.625 285.375L326.25 218.5C330.375 225.25 334.125 232 337.5 238.375C364.875 290.625 353.375 357.375 304.125 391.875Z" class="fa-primary"/></svg>