<svg xmlns="http://www.w3.org/2000/svg" viewBox="0 0 384 512"><!-- Font Awesome Pro 6.0.0-alpha2 by @fontawesome - https://fontawesome.com License - https://fontawesome.com/license (Commercial License) --><defs><style>.fa-secondary{opacity:.4}</style></defs><path d="M56 176H328C341.254 176 352 165.254 352 152C352 138.744 341.254 128 328 128H315.475C303.865 83.174 268.826 48.135 224 36.525V32C224 14.312 209.688 0 192 0S160 14.312 160 32V36.525C115.174 48.135 80.135 83.174 68.525 128H56C42.746 128 32 138.744 32 152C32 165.254 42.746 176 56 176ZM32 272V368C32 376.836 39.164 384 48 384H64V256H48C39.164 256 32 263.162 32 272ZM336 256H320V384H336C344.836 384 352 376.836 352 368V272C352 263.162 344.836 256 336 256Z" class="fa-secondary"/><path d="M336 464H320V176H64V464H48C39.164 464 32 471.162 32 480V496C32 504.836 39.164 512 48 512H336C344.836 512 352 504.836 352 496V480C352 471.162 344.836 464 336 464ZM192 384C156.654 384 128 355.346 128 320C128 284.652 156.654 256 192 256S256 284.652 256 320C256 355.346 227.346 384 192 384Z" class="fa-primary"/></svg>