<svg xmlns="http://www.w3.org/2000/svg" viewBox="0 0 640 512"><!-- Font Awesome Pro 6.0.0-alpha2 by @fontawesome - https://fontawesome.com License - https://fontawesome.com/license (Commercial License) --><defs><style>.fa-secondary{opacity:.4}</style></defs><path d="M148.396 261.055C145.6 248.24 144 234.961 144 221.277C144 165 198.803 71.598 276 0C306.053 27.893 332.67 57.848 354.08 87.312C367.143 71.303 381.875 55.393 398.178 40.268C455.143 93.107 496 179.438 496 221.277C496 234.961 494.4 248.24 491.604 261.055C474.543 265.52 458.418 272.717 444.154 283.09C434.367 271.037 422.811 260.732 410.145 252.07C415.809 229.373 413.107 204.58 402.92 182.76C400.289 177.125 397.281 171.168 393.912 165.039L350.41 218.355L289.361 134.338C285.35 128.818 281.119 123.277 276.693 117.74C241.594 163.744 224 205.135 224 221.277C224 232.256 226.094 242.637 229.186 252.541C216.789 261.113 205.459 271.25 195.846 283.09C181.582 272.717 165.457 265.52 148.396 261.055Z" class="fa-secondary"/><path d="M229.186 252.541C226.094 242.637 224 232.256 224 221.277C224 205.135 241.594 163.744 276.693 117.74C281.119 123.277 285.35 128.818 289.361 134.338L350.41 218.355L393.912 165.039C397.281 171.168 400.289 177.125 402.92 182.76C413.107 204.58 415.809 229.373 410.145 252.07C384.105 234.26 352.967 224 320 224C286.748 224 255.359 234.443 229.186 252.541ZM528 288C490.875 288 458.25 306.25 437.875 334.125C418.375 288.25 373 256 320 256S221.625 288.25 202.125 334.125C181.75 306.25 149.125 288 112 288C50.125 288 0 338.125 0 400S50.125 512 112 512H528C589.875 512 640 461.875 640 400S589.875 288 528 288Z" class="fa-primary"/></svg>