<svg xmlns="http://www.w3.org/2000/svg" viewBox="0 0 576 512"><!-- Font Awesome Pro 6.0.0-alpha2 by @fontawesome - https://fontawesome.com License - https://fontawesome.com/license (Commercial License) --><defs><style>.fa-secondary{opacity:.4}</style></defs><path d="M327.15 64C237.15 64 158.513 129.748 114.863 185.998L27.563 112.663C15.413 101.54 -2.699 113.291 0.338 130.166L28.8 256L0.338 381.784C-2.699 398.659 15.413 410.41 27.45 399.409L114.75 325.999C158.513 382.249 237.15 448 327.15 448C464.512 448 575.999 294.373 575.999 256C575.999 217.624 464.512 64 327.15 64ZM228.688 231.438C222.438 225.188 222.438 215.062 228.688 208.813L292.688 144.813C298.938 138.563 309.063 138.563 315.312 144.813S321.562 161.188 315.312 167.438L251.312 231.438C248.188 234.562 244.094 236.125 240 236.125S231.812 234.562 228.688 231.438ZM267.312 347.312C264.188 350.438 260.094 352 256 352S247.812 350.438 244.688 347.312C238.438 341.062 238.438 330.937 244.688 324.688L404.688 164.688C410.938 158.438 421.063 158.438 427.312 164.688S433.562 181.063 427.312 187.312L267.312 347.312ZM443.312 303.188L379.312 367.188C376.188 370.312 372.094 371.875 368 371.875S359.812 370.313 356.688 367.188C350.438 360.938 350.438 350.812 356.688 344.563L420.688 280.563C426.938 274.313 437.063 274.313 443.312 280.563S449.562 296.938 443.312 303.188Z" class="fa-secondary"/><path d="M228.688 231.438C222.438 225.188 222.438 215.062 228.688 208.813L292.688 144.813C298.938 138.563 309.063 138.563 315.312 144.813S321.562 161.188 315.312 167.438L251.312 231.438C248.188 234.562 244.094 236.125 240 236.125S231.812 234.562 228.688 231.438ZM267.312 347.312C264.188 350.438 260.094 352 256 352S247.812 350.438 244.688 347.312C238.438 341.062 238.438 330.937 244.688 324.688L404.688 164.688C410.938 158.438 421.063 158.438 427.312 164.688S433.562 181.063 427.312 187.312L267.312 347.312ZM443.312 303.188L379.312 367.188C376.188 370.312 372.094 371.875 368 371.875S359.812 370.313 356.688 367.188C350.438 360.938 350.438 350.812 356.688 344.563L420.688 280.563C426.938 274.313 437.063 274.313 443.312 280.563S449.562 296.938 443.312 303.188Z" class="fa-primary"/></svg>