<svg xmlns="http://www.w3.org/2000/svg" viewBox="0 0 448 512"><!-- Font Awesome Pro 6.0.0-alpha2 by @fontawesome - https://fontawesome.com License - https://fontawesome.com/license (Commercial License) --><defs><style>.fa-secondary{opacity:.4}</style></defs><path d="M437.23 403.5L319.992 215V64H327.992C341.238 64 351.988 53.25 351.988 40V24C351.988 10.75 341.238 0 327.992 0H120.007C106.761 0 96.011 10.75 96.011 24V40C96.011 53.25 106.761 64 120.007 64H128.007V215L10.769 403.5C-18.481 450.625 15.269 512 70.886 512H377.113C432.73 512 466.48 450.5 437.23 403.5ZM377.113 448H70.886C65.351 448 62.321 441.813 65.117 437.301L192.007 233.277V64H255.992V233.277L382.894 437.316C385.689 441.818 382.562 448 377.113 448Z" class="fa-secondary"/><path d="M138.011 320H309.871L382.835 437.316C385.628 441.816 382.503 448 377.054 448H70.828C65.292 448 62.261 441.812 65.058 437.301L138.011 320Z" class="fa-primary"/></svg>