<svg xmlns="http://www.w3.org/2000/svg" viewBox="0 0 384 512"><!-- Font Awesome Pro 6.0.0-alpha2 by @fontawesome - https://fontawesome.com License - https://fontawesome.com/license (Commercial License) --><defs><style>.fa-secondary{opacity:.4}</style></defs><path d="M32 256C32 273.688 46.328 288 64 288H136.529L161.574 224H64C46.328 224 32 238.312 32 256ZM320 224H247.471L222.426 288H320C337.672 288 352 273.688 352 256S337.672 224 320 224Z" class="fa-secondary"/><path d="M75.016 480H40C17.906 480 0 462.094 0 440S17.906 400 40 400H75.016C85.422 400 94.875 394.438 97.984 386.5L211.516 96.375C226.562 57.875 265.734 32 308.984 32H344C366.094 32 384 49.906 384 72S366.094 112 344 112H308.984C298.578 112 289.125 117.562 286.016 125.5L172.484 415.625C157.438 454.125 118.266 480 75.016 480Z" class="fa-primary"/></svg>