<svg xmlns="http://www.w3.org/2000/svg" viewBox="0 0 448 512"><!-- Font Awesome Pro 6.0.0-alpha2 by @fontawesome - https://fontawesome.com License - https://fontawesome.com/license (Commercial License) --><defs><style>.fa-secondary{opacity:.4}</style></defs><path d="M416 416H404.678L261.141 57.156C255.062 41.969 240.359 32 224 32S192.938 41.969 186.859 57.156L43.322 416H32C14.326 416 0 430.326 0 448C0 465.672 14.326 480 32 480H128C145.674 480 160 465.672 160 448C160 430.812 146.369 417.031 129.369 416.275L148.682 368H299.318L318.631 416.275C301.631 417.031 288 430.812 288 448C288 465.672 302.326 480 320 480H416C433.674 480 448 465.672 448 448C448 430.326 433.674 416 416 416ZM180.684 288L224 179.719L267.316 288H180.684Z" class="fa-secondary"/></svg>