<svg xmlns="http://www.w3.org/2000/svg" viewBox="0 0 640 512"><!-- Font Awesome Pro 6.0.0-alpha2 by @fontawesome - https://fontawesome.com License - https://fontawesome.com/license (Commercial License) --><defs><style>.fa-secondary{opacity:.4}</style></defs><path d="M96 512C51.817 512 16 476.183 16 432S51.817 352 96 352S176 387.817 176 432S140.183 512 96 512ZM432 432C432 387.817 396.183 352 352 352S272 387.817 272 432S307.817 512 352 512S432 476.183 432 432ZM608 384H544V32C544 14.4 529.6 0 512 0H512C494.4 0 480 14.4 480 32V432C480 440.8 487.2 448 496 448H608C625.6 448 640 433.6 640 416V416C640 398.4 625.6 384 608 384Z" class="fa-secondary"/><path d="M96 320C152.281 320 198.535 361.859 206.383 416H241.617C249.465 361.859 295.719 320 352 320C375.82 320 397.828 327.602 416 340.328V237.125C416 228.375 414.25 219.875 410.75 211.875L332.5 29.125C324.875 11.375 307.625 0 288.25 0H144C117.5 0 96 21.5 96 48V160H48C21.5 160 0 181.5 0 208V375.227C19.531 342.328 55.047 320 96 320ZM160 64H277.75L352 237.125V256H256L160 160V64Z" class="fa-primary"/></svg>