<svg xmlns="http://www.w3.org/2000/svg" viewBox="0 0 320 512"><!-- Font Awesome Pro 6.0.0-alpha2 by @fontawesome - https://fontawesome.com License - https://fontawesome.com/license (Commercial License) --><defs><style>.fa-secondary{opacity:.4}</style></defs><path d="M0 352C0 369.672 14.312 384 32 384H48V320H32C14.312 320 0 334.328 0 352ZM192 320H128V384H192C209.688 384 224 369.672 224 352S209.688 320 192 320Z" class="fa-secondary"/><path d="M320 72C320 94.094 302.094 112 280 112H128V192H248C270.094 192 288 209.906 288 232S270.094 272 248 272H128V440C128 462.094 110.094 480 88 480S48 462.094 48 440V72C48 49.906 65.906 32 88 32H280C302.094 32 320 49.906 320 72Z" class="fa-primary"/></svg>