<svg xmlns="http://www.w3.org/2000/svg" viewBox="0 0 640 512"><!-- Font Awesome Pro 6.0.0-alpha2 by @fontawesome - https://fontawesome.com License - https://fontawesome.com/license (Commercial License) --><defs><style>.fa-secondary{opacity:.4}</style></defs><path d="M638.594 368.203L605.219 156.609C596.375 106.359 556.812 65.844 504.563 53.484H504.5C454.25 41.625 371.594 32 320 32C268.375 32 185.719 41.625 135.5 53.484C83.156 65.844 43.625 106.344 34.781 156.609L1.406 368.203C-8.906 426.719 38.813 479.984 101.5 479.984C151.188 479.984 195.281 449.922 211 405.344L218.5 383.984H421.5L429 405.344C444.719 449.922 488.813 479.984 538.5 479.984C601.187 479.984 648.906 426.719 638.594 368.203ZM280 235.984C280 242.609 274.625 247.984 268 247.984H216V299.984C216 306.609 210.625 311.984 204 311.984H180C173.375 311.984 168 306.609 168 299.984V247.984H116C109.375 247.984 104 242.609 104 235.984V211.984C104 205.359 109.375 199.984 116 199.984H168V147.984C168 141.359 173.375 135.984 180 135.984H204C210.625 135.984 216 141.359 216 147.984V199.984H268C274.625 199.984 280 205.359 280 211.984V235.984ZM432 311.984C409.906 311.984 392 294.062 392 271.984S409.906 231.984 432 231.984S472 249.906 472 271.984S454.094 311.984 432 311.984ZM496 215.984C473.906 215.984 456 198.062 456 175.984S473.906 135.984 496 135.984C518.094 135.984 536 153.906 536 175.984S518.094 215.984 496 215.984Z" class="fa-secondary"/><path d="M280 211.984C280 205.359 274.625 199.984 268 199.984H216V147.984C216 141.359 210.625 135.984 204 135.984H180C173.375 135.984 168 141.359 168 147.984V199.984H116C109.375 199.984 104 205.359 104 211.984V235.984C104 242.609 109.375 247.984 116 247.984H168V299.984C168 306.609 173.375 311.984 180 311.984H204C210.625 311.984 216 306.609 216 299.984V247.984H268C274.625 247.984 280 242.609 280 235.984V211.984Z" class="fa-primary"/></svg>