<svg xmlns="http://www.w3.org/2000/svg" viewBox="0 0 384 512"><!-- Font Awesome Pro 6.0.0-alpha2 by @fontawesome - https://fontawesome.com License - https://fontawesome.com/license (Commercial License) --><defs><style>.fa-secondary{opacity:.4}</style></defs><path d="M336 0H48C21.6 0 0 21.602 0 48V464C0 490.398 21.6 512 48 512H256C326.693 512 384 454.691 384 384V48C384 21.602 362.4 0 336 0ZM160 344C160 348.375 156.375 352 152 352H128V376C128 380.375 124.375 384 120 384H104C99.625 384 96 380.375 96 376V352H72C67.625 352 64 348.375 64 344V328C64 323.625 67.625 320 72 320H96V296C96 291.625 99.625 288 104 288H120C124.375 288 128 291.625 128 296V320H152C156.375 320 160 323.625 160 328V344ZM232 384C218.75 384 208 373.25 208 360S218.75 336 232 336S256 346.75 256 360S245.25 384 232 384ZM112 224C103.125 224 96 216.875 96 208V80C96 71.125 103.125 64 112 64H272C280.875 64 288 71.125 288 80V192C288 209.625 273.625 224 256 224H112ZM296 336C282.75 336 272 325.25 272 312S282.75 288 296 288S320 298.75 320 312S309.25 336 296 336Z" class="fa-secondary"/><path d="M288 80V192C288 209.625 273.625 224 256 224H112C103.125 224 96 216.875 96 208V80C96 71.125 103.125 64 112 64H272C280.875 64 288 71.125 288 80Z" class="fa-primary"/></svg>