<svg xmlns="http://www.w3.org/2000/svg" viewBox="0 0 640 512"><!-- Font Awesome Pro 6.0.0-alpha2 by @fontawesome - https://fontawesome.com License - https://fontawesome.com/license (Commercial License) --><defs><style>.fa-secondary{opacity:.4}</style></defs><path d="M640 161.25V496C640 504.875 632.875 512 624 512H560C551.125 512 544 504.875 544 496V224C544 206.375 529.375 192 511.375 192H128.625C110.625 192 96 206.375 96 224V496C96 504.875 88.875 512 80 512H16C7.125 512 0 504.875 0 496V161.25C0 141.875 11.625 124.5 29.5 117L301.5 3.625C307.375 1.375 313.625 0.25 320 0C326.25 0.25 332.5 1.5 338.375 3.625L610.5 117C628.375 124.5 640 141.875 640 161.25Z" class="fa-secondary"/><path d="M468.605 349.27L446.73 283.637C438.043 257.578 413.656 240 386.188 240H253.816C226.344 240 201.957 257.578 193.27 283.641L171.395 349.27C155.402 355.387 144 370.766 144 388.91V485.816C144 500.277 155.723 512 170.184 512H183.273C197.73 512 209.453 500.277 209.453 485.816V464H430.547V485.816C430.547 500.277 442.27 512 456.727 512H469.816C484.277 512 496 500.277 496 485.816V388.91C496 370.766 484.598 355.387 468.605 349.27ZM238.805 298.82C240.965 292.348 246.996 288 253.816 288H386.188C393.008 288 399.039 292.348 401.191 298.812L418.918 352H221.078L238.805 298.82ZM216 432C202.746 432 192 421.254 192 408C192 394.742 202.746 384 216 384S240 394.742 240 408C240 421.254 229.254 432 216 432ZM424 432C410.746 432 400 421.254 400 408C400 394.742 410.746 384 424 384S448 394.742 448 408C448 421.254 437.254 432 424 432Z" class="fa-primary"/></svg>