<svg xmlns="http://www.w3.org/2000/svg" viewBox="0 0 640 512"><!-- Font Awesome Pro 6.0.0-alpha2 by @fontawesome - https://fontawesome.com License - https://fontawesome.com/license (Commercial License) --><defs><style>.fa-secondary{opacity:.4}</style></defs><path d="M610.5 117L338.375 3.625C332.5 1.5 326.25 0.25 320 0C313.625 0.25 307.375 1.375 301.5 3.625L29.5 117C11.625 124.5 0 141.875 0 161.25V496C0 504.875 7.125 512 16 512H80C88.875 512 96 504.875 96 496V224C96 206.375 110.625 192 128.625 192H511.375C529.375 192 544 206.375 544 224V496C544 504.875 551.125 512 560 512H624C632.875 512 640 504.875 640 496V161.25C640 141.875 628.375 124.5 610.5 117Z" class="fa-secondary"/><path d="M128 512H512V352H128.125L128 512ZM272 416H368C376.875 416 384 423.125 384 432S376.875 448 368 448H272C263.125 448 256 440.875 256 432S263.125 416 272 416ZM128 320H511.5L512 224H128V320Z" class="fa-primary"/></svg>