<svg xmlns="http://www.w3.org/2000/svg" viewBox="0 0 512 512"><!-- Font Awesome Pro 6.0.0-alpha2 by @fontawesome - https://fontawesome.com License - https://fontawesome.com/license (Commercial License) --><defs><style>.fa-secondary{opacity:.4}</style></defs><path d="M320 64C320 28.75 291.25 0 256 0H96C60.75 0 32 28.75 32 64V448H320V64ZM256 192H96V64H256V192Z" class="fa-secondary"/><path d="M336 448H16C7.25 448 0 455.25 0 464V496C0 504.75 7.25 512 16 512H336C344.75 512 352 504.75 352 496V464C352 455.25 344.75 448 336 448ZM493.25 107.25L412.25 26.25C406 20.125 395.75 20.125 389.625 26.25L378.25 37.625C372.125 43.75 372.125 54.001 378.25 60.25L416 97.875V160C416 188.125 436.875 211.25 464 215.25V376C464 389.25 453.25 400 440 400C426.75 400 416 389.25 416 376V344C416 295.375 376.625 256 328 256H320V304H328C350.125 304 368 321.875 368 344V371.75C368 409.5 395 443.75 432.5 447.75C475.5 452 512 418.25 512 376V152.625C512 135.625 505.25 119.25 493.25 107.25Z" class="fa-primary"/></svg>