<svg xmlns="http://www.w3.org/2000/svg" viewBox="0 0 576 512"><!-- Font Awesome Pro 6.0.0-alpha2 by @fontawesome - https://fontawesome.com License - https://fontawesome.com/license (Commercial License) --><defs><style>.fa-secondary{opacity:.4}</style></defs><path d="M288 32.001C129 32.001 0 161.001 0 320.001C0 372.751 14.25 422.251 39 464.751C44.625 474.376 55.375 480.001 66.5 480.001H509.5C520.625 480.001 531.375 474.376 537 464.751C561.75 422.251 576 372.751 576 320.001C576 161.001 447 32.001 288 32.001ZM484 375.626L350 398.001C348.5 404.376 346.375 410.501 343.125 416.001H232.875C227.375 406.501 224 395.751 224 384.001C224 348.626 252.625 320.001 288 320.001C311 320.001 331.125 332.251 342.375 350.626L476 328.376C489.125 326.126 501.5 335.001 503.625 348.001C505.875 361.126 497 373.501 484 375.626Z" class="fa-secondary"/><path d="M484 375.626L350 398.001C348.5 404.376 346.375 410.501 343.125 416.001H232.875C227.375 406.501 224 395.751 224 384.001C224 348.626 252.625 320.001 288 320.001C311 320.001 331.125 332.251 342.375 350.626L476 328.376C489.125 326.126 501.5 335.001 503.625 348.001C505.875 361.126 497 373.501 484 375.626Z" class="fa-primary"/></svg>