<svg xmlns="http://www.w3.org/2000/svg" viewBox="0 0 640 512"><!-- Font Awesome Pro 6.0.0-alpha2 by @fontawesome - https://fontawesome.com License - https://fontawesome.com/license (Commercial License) --><defs><style>.fa-secondary{opacity:.4}</style></defs><path d="M628.871 318.174C627.855 313.334 623.418 309.941 618.475 309.941H584.381C579.055 294.723 571.018 280.963 560.721 268.984L577.813 239.387C578.783 237.707 579.262 235.828 579.262 233.967C579.262 231.074 578.105 228.223 575.846 226.219C559.018 211.297 539.164 199.758 517.328 192.508C512.625 190.947 507.408 193.098 504.93 197.391L488.162 226.432C480.33 224.934 472.295 224 464.029 224C455.893 224 447.99 224.943 440.273 226.395L423.533 197.391C421.053 193.098 415.834 190.947 411.131 192.508C389.299 199.758 369.439 211.297 352.615 226.219C350.355 228.223 349.195 231.076 349.195 233.967C349.195 235.828 349.674 237.705 350.646 239.387L367.57 268.699C357.162 280.74 349.043 294.605 343.678 309.941H309.984C305.043 309.941 300.602 313.334 299.586 318.174C297.299 329.102 296 340.391 296 352C296 363.607 297.299 374.896 299.586 385.824C300.602 390.664 305.043 394.057 309.984 394.057H343.674C349.039 409.393 357.162 423.258 367.57 435.301L350.646 464.613C349.674 466.293 349.195 468.172 349.195 470.033C349.195 472.924 350.355 475.775 352.615 477.781C369.439 492.703 389.299 504.242 411.131 511.492C415.834 513.055 421.053 510.902 423.533 506.609L440.273 477.605C447.986 479.057 455.893 480 464.029 480C472.297 480 480.33 479.066 488.162 477.568L504.93 506.609C507.408 510.902 512.625 513.055 517.328 511.492C539.164 504.242 559.018 492.703 575.846 477.781C578.105 475.775 579.262 472.924 579.262 470.033C579.262 468.172 578.783 466.297 577.812 464.613L560.721 435.016C571.018 423.037 579.059 409.275 584.383 394.057H618.475C623.418 394.057 627.855 390.664 628.871 385.824C631.158 374.896 632.459 363.607 632.459 352C632.459 340.391 631.158 329.102 628.871 318.174ZM464.029 400C437.518 400 416.029 378.51 416.029 352S437.518 304 464.029 304C490.539 304 512.029 325.49 512.029 352S490.539 400 464.029 400Z" class="fa-secondary"/><path d="M285.605 199.955C287.057 192.24 288 184.336 288 176.199C288 167.932 287.066 159.896 285.568 152.066L314.609 135.299C318.902 132.818 321.055 127.604 319.492 122.9C312.242 101.064 300.703 81.211 285.781 64.381C283.775 62.123 280.924 60.967 278.033 60.967C276.172 60.967 274.297 61.445 272.613 62.416L243.016 79.506C231.037 69.211 217.275 61.17 202.057 55.846V21.754C202.057 16.811 198.664 12.373 193.824 11.357C182.897 9.068 171.607 7.77 160 7.77C148.391 7.77 137.102 9.068 126.174 11.357C121.334 12.373 117.941 16.811 117.941 21.754V55.848C102.723 61.172 88.963 69.211 76.984 79.506L47.387 62.416C45.707 61.445 43.828 60.967 41.967 60.967C39.074 60.967 36.223 62.123 34.219 64.381C19.297 81.211 7.758 101.064 0.508 122.9C-1.053 127.604 1.098 132.818 5.391 135.299L34.432 152.066C32.934 159.896 32 167.934 32 176.199C32 184.336 32.943 192.238 34.395 199.953L5.391 216.695C1.098 219.176 -1.053 224.395 0.508 229.098C7.758 250.93 19.297 270.787 34.219 287.613C36.223 289.873 39.076 291.031 41.967 291.031C43.828 291.031 45.705 290.553 47.387 289.582L76.699 272.656C88.74 283.066 102.605 291.186 117.941 296.551V330.244C117.941 335.186 121.334 339.625 126.174 340.641C137.102 342.93 148.391 344.229 160 344.229C171.607 344.229 182.897 342.93 193.824 340.641C198.664 339.625 202.057 335.186 202.057 330.244V296.553C217.393 291.187 231.258 283.066 243.301 272.656L272.613 289.582C274.293 290.553 276.172 291.031 278.033 291.031C280.924 291.031 283.775 289.873 285.781 287.613C300.703 270.787 312.242 250.93 319.492 229.098C321.055 224.395 318.902 219.176 314.609 216.695L285.605 199.955ZM160 224.199C133.49 224.199 112 202.709 112 176.199S133.49 128.199 160 128.199S208 149.689 208 176.199S186.51 224.199 160 224.199Z" class="fa-primary"/></svg>