<svg xmlns="http://www.w3.org/2000/svg" viewBox="0 0 512 512"><!-- Font Awesome Pro 6.0.0-alpha2 by @fontawesome - https://fontawesome.com License - https://fontawesome.com/license (Commercial License) --><defs><style>.fa-secondary{opacity:.4}</style></defs><path d="M509.15 42.903L282.871 494.335C277.445 505.163 266.373 511.999 254.264 511.999H32C14.326 511.999 0 497.671 0 479.999V471.999H52C58.627 471.999 64 466.624 64 459.999S58.627 447.999 52 447.999H0V415.999H52C58.627 415.999 64 410.624 64 403.999S58.627 391.999 52 391.999H0V363.007C0 341.57 20.662 326.199 41.193 332.359L258.947 397.683L452.734 12.673C458.996 0.986 473.549 -3.413 485.232 2.853L499.338 10.419C511.016 16.681 515.408 31.224 509.15 42.903Z" class="fa-secondary"/><path d="M0 447.999H52C58.627 447.999 64 453.374 64 459.999S58.627 471.999 52 471.999H0M0 391.999H52C58.627 391.999 64 397.374 64 403.999S58.627 415.999 52 415.999H0" class="fa-primary"/></svg>