<svg xmlns="http://www.w3.org/2000/svg" viewBox="0 0 384 512"><!-- Font Awesome Pro 6.0.0-alpha2 by @fontawesome - https://fontawesome.com License - https://fontawesome.com/license (Commercial License) --><defs><style>.fa-secondary{opacity:.4}</style></defs><path d="M376.018 269.118C376.018 314.869 338.893 351.87 293.268 351.87H224.018V384.012H160.018V327.87C160.018 314.619 170.768 303.869 184.018 303.869H293.268C312.393 303.869 328.018 288.369 328.018 269.118C328.018 256.993 319.893 246.367 308.143 243.242C231.393 222.617 132.393 273.993 69.518 317.119C51.393 329.495 27.018 312.619 32.893 290.994L106.017 17.736C111.768 -3.64 141.268 -6.515 150.893 13.611C183.018 80.863 243.143 176.115 320.643 196.866C353.268 205.616 376.018 235.242 376.018 269.118Z" class="fa-secondary"/><path d="M384 463.999V496C384 504.875 376.875 512 368 512H16C7.125 512 0 504.875 0 496V463.999C0 455.123 7.125 447.998 16 447.998H32V415.997C32 398.372 46.375 383.996 64 383.996H320C337.625 383.996 352 398.372 352 415.997V447.998H368C376.875 447.998 384 455.123 384 463.999Z" class="fa-primary"/></svg>