<svg xmlns="http://www.w3.org/2000/svg" viewBox="0 0 512 512"><!-- Font Awesome Pro 6.0.0-alpha2 by @fontawesome - https://fontawesome.com License - https://fontawesome.com/license (Commercial License) --><defs><style>.fa-secondary{opacity:.4}</style></defs><path d="M392 0H344C339.582 0 336 3.582 336 8V56C336 60.418 339.582 64 344 64H392C396.418 64 400 60.418 400 56V8C400 3.582 396.418 0 392 0ZM168 0H120C115.582 0 112 3.582 112 8V56C112 60.418 115.582 64 120 64H168C172.418 64 176 60.418 176 56V8C176 3.582 172.418 0 168 0ZM168 448H120C115.582 448 112 451.582 112 456V504C112 508.418 115.582 512 120 512H168C172.418 512 176 508.418 176 504V456C176 451.582 172.418 448 168 448ZM392 448H344C339.582 448 336 451.582 336 456V504C336 508.418 339.582 512 344 512H392C396.418 512 400 508.418 400 504V456C400 451.582 396.418 448 392 448ZM504 336H456C451.582 336 448 339.582 448 344V392C448 396.418 451.582 400 456 400H504C508.418 400 512 396.418 512 392V344C512 339.582 508.418 336 504 336ZM56 336H8C3.582 336 0 339.582 0 344V392C0 396.418 3.582 400 8 400H56C60.418 400 64 396.418 64 392V344C64 339.582 60.418 336 56 336ZM280 336H232C227.582 336 224 339.582 224 344V392C224 396.418 227.582 400 232 400H280C284.418 400 288 396.418 288 392V344C288 339.582 284.418 336 280 336ZM392 224H344C339.582 224 336 227.582 336 232V280C336 284.418 339.582 288 344 288H392C396.418 288 400 284.418 400 280V232C400 227.582 396.418 224 392 224ZM168 224H120C115.582 224 112 227.582 112 232V280C112 284.418 115.582 288 120 288H168C172.418 288 176 284.418 176 280V232C176 227.582 172.418 224 168 224ZM504 112H456C451.582 112 448 115.582 448 120V168C448 172.418 451.582 176 456 176H504C508.418 176 512 172.418 512 168V120C512 115.582 508.418 112 504 112ZM280 112H232C227.582 112 224 115.582 224 120V168C224 172.418 227.582 176 232 176H280C284.418 176 288 172.418 288 168V120C288 115.582 284.418 112 280 112ZM56 112H8C3.582 112 0 115.582 0 120V168C0 172.418 3.582 176 8 176H56C60.418 176 64 172.418 64 168V120C64 115.582 60.418 112 56 112Z" class="fa-secondary"/><path d="M280 0H232C227.582 0 224 3.582 224 8V56C224 60.418 227.582 64 232 64H280C284.418 64 288 60.418 288 56V8C288 3.582 284.418 0 280 0ZM56 0H8C3.582 0 0 3.582 0 8V56C0 60.418 3.582 64 8 64H56C60.418 64 64 60.418 64 56V8C64 3.582 60.418 0 56 0ZM504 0H456C451.582 0 448 3.582 448 8V56C448 60.418 451.582 64 456 64H504C508.418 64 512 60.418 512 56V8C512 3.582 508.418 0 504 0ZM56 448H8C3.582 448 0 451.582 0 456V504C0 508.418 3.582 512 8 512H56C60.418 512 64 508.418 64 504V456C64 451.582 60.418 448 56 448ZM280 448H232C227.582 448 224 451.582 224 456V504C224 508.418 227.582 512 232 512H280C284.418 512 288 508.418 288 504V456C288 451.582 284.418 448 280 448ZM504 448H456C451.582 448 448 451.582 448 456V504C448 508.418 451.582 512 456 512H504C508.418 512 512 508.418 512 504V456C512 451.582 508.418 448 504 448ZM168 336H120C115.582 336 112 339.582 112 344V392C112 396.418 115.582 400 120 400H168C172.418 400 176 396.418 176 392V344C176 339.582 172.418 336 168 336ZM392 336H344C339.582 336 336 339.582 336 344V392C336 396.418 339.582 400 344 400H392C396.418 400 400 396.418 400 392V344C400 339.582 396.418 336 392 336ZM280 224H232C227.582 224 224 227.582 224 232V280C224 284.418 227.582 288 232 288H280C284.418 288 288 284.418 288 280V232C288 227.582 284.418 224 280 224ZM504 224H456C451.582 224 448 227.582 448 232V280C448 284.418 451.582 288 456 288H504C508.418 288 512 284.418 512 280V232C512 227.582 508.418 224 504 224ZM56 224H8C3.582 224 0 227.582 0 232V280C0 284.418 3.582 288 8 288H56C60.418 288 64 284.418 64 280V232C64 227.582 60.418 224 56 224ZM392 112H344C339.582 112 336 115.582 336 120V168C336 172.418 339.582 176 344 176H392C396.418 176 400 172.418 400 168V120C400 115.582 396.418 112 392 112ZM168 112H120C115.582 112 112 115.582 112 120V168C112 172.418 115.582 176 120 176H168C172.418 176 176 172.418 176 168V120C176 115.582 172.418 112 168 112Z" class="fa-primary"/></svg>