<svg xmlns="http://www.w3.org/2000/svg" viewBox="0 0 640 512"><!-- Font Awesome Pro 6.0.0-alpha2 by @fontawesome - https://fontawesome.com License - https://fontawesome.com/license (Commercial License) --><defs><style>.fa-secondary{opacity:.4}</style></defs><path d="M348.857 267.643C345.482 253.021 338.482 239.654 329.74 227.531L295.48 261.793C289.232 268.043 279.101 268.043 272.853 261.793L250.232 239.17C243.984 232.922 243.984 222.791 250.23 216.543L284.496 182.275L284.484 182.264C272.359 173.514 258.988 166.51 244.363 163.137C210.988 155.389 177.365 162.262 154.492 185.139C145.244 194.514 138.242 206.016 134.244 218.641C128.244 237.143 111.117 251.27 92.119 253.02C68.498 255.395 46.373 264.52 29.5 281.521C-16.121 327.023 -7.871 409.029 47.623 464.537C102.996 519.914 184.99 528.041 230.488 482.535C247.486 465.66 256.736 443.66 258.984 419.783C260.736 401.029 274.859 383.654 293.484 377.652C305.982 373.777 317.482 366.777 326.857 357.402C349.73 334.525 356.605 301.023 348.857 267.643ZM207.99 352.025C181.488 352.029 159.992 330.525 159.99 304.023C159.992 277.52 181.492 256.02 207.99 256.02C234.488 256.018 255.988 277.52 255.984 304.023C255.986 330.523 234.486 352.029 207.99 352.025Z" class="fa-secondary"/><path d="M381.557 56.159L428.194 9.39C440.666 -3.118 460.92 -3.132 473.409 9.358L503.093 39.044C515.585 51.536 515.572 71.794 503.064 84.27L456.306 130.911C452.551 134.657 447.976 137.477 442.943 139.149L406.446 151.275L295.935 261.795C289.687 268.043 279.556 268.043 273.308 261.795L250.686 239.171C244.438 232.923 244.438 222.793 250.686 216.544L361.196 106.023L373.323 69.52C374.994 64.488 377.814 59.914 381.557 56.159Z" class="fa-primary"/></svg>