<svg xmlns="http://www.w3.org/2000/svg" viewBox="0 0 512 512"><!-- Font Awesome Pro 6.0.0-alpha2 by @fontawesome - https://fontawesome.com License - https://fontawesome.com/license (Commercial License) --><defs><style>.fa-secondary{opacity:.4}</style></defs><path d="M243.717 223.258C236.093 211.884 234.843 197.26 240.592 184.76L257.84 147.637C261.714 139.388 259.089 129.513 251.59 124.264C244.091 119.139 233.968 120.014 227.469 126.389L189.099 164.762C180.975 172.886 174.726 182.761 170.976 193.51C163.852 213.134 149.354 229.133 130.357 237.883L53.992 273.256C-3.25 296.13 -18.373 370.001 25.121 413.498L98.486 486.869C142.105 530.367 215.97 515.243 238.842 458.121L274.212 381.75C283.086 362.751 299.084 348.127 318.706 341.252C329.455 337.377 339.329 331.128 347.578 323.003L369.075 301.504C375.574 295.005 376.824 284.88 372.074 277.006C367.2 269.131 357.701 265.631 348.952 268.506L325.206 276.006C312.582 279.88 298.834 277.256 288.46 268.881L243.717 223.258ZM181.6 394.374L170.351 405.624C167.227 408.749 162.102 408.749 158.978 405.624L106.36 353.002C102.237 348.878 104.29 343.697 106.36 341.627L117.608 330.378C121.732 326.254 126.912 328.308 128.982 330.378L181.6 383C185.723 387.124 183.67 392.304 181.6 394.374ZM245.591 330.378L234.343 341.627C231.218 344.752 226.094 344.752 222.969 341.627L170.351 289.005C166.228 284.881 168.281 279.701 170.351 277.631L181.6 266.381C185.723 262.258 190.903 264.311 192.973 266.381L245.591 319.003C249.715 323.127 247.661 328.307 245.591 330.378Z" class="fa-secondary"/><path d="M129.004 330.377C126.934 328.307 121.754 326.254 117.631 330.377L106.383 341.627C104.313 343.697 102.26 348.879 106.383 353.002L159 405.623C162.125 408.748 167.248 408.748 170.373 405.623L181.621 394.375C183.692 392.305 185.746 387.123 181.621 383L129.004 330.377ZM511.203 39.518C507.578 20.27 492.58 5.145 473.332 1.27C450.461 -2.98 450.586 0.77 366.723 54.893C357.598 60.768 351.975 70.891 351.975 81.891V115.139L243.739 223.258L288.483 268.881L461.584 96.016C462.334 96.016 463.084 96.391 463.959 96.391C478.207 96.391 491.83 90.016 500.953 79.016C510.078 68.018 513.828 53.643 511.203 39.518ZM192.996 266.381C190.926 264.311 185.746 262.258 181.621 266.381L170.373 277.631C168.303 279.701 166.25 284.881 170.373 289.006L222.993 341.627C226.116 344.752 231.241 344.752 234.366 341.627L245.614 330.377C247.684 328.307 249.737 323.127 245.614 319.004L192.996 266.381Z" class="fa-primary"/></svg>