<svg xmlns="http://www.w3.org/2000/svg" viewBox="0 0 576 512"><!-- Font Awesome Pro 6.0.0-alpha2 by @fontawesome - https://fontawesome.com License - https://fontawesome.com/license (Commercial License) --><defs><style>.fa-secondary{opacity:.4}</style></defs><path d="M353.07 227.406L122.906 490.906C108.844 504.969 90.437 512 72 512S35.156 504.969 21.094 490.906C-7.031 462.781 -7.031 417.219 21.094 389.094L284.66 158.867C287.258 162.773 290.234 166.43 293.574 169.77L342.734 218.914C345.93 222.109 349.414 224.914 353.07 227.406Z" class="fa-secondary"/><path d="M568.503 196.283L545.878 173.658C541.345 169.125 535.32 166.629 528.91 166.629S516.474 169.125 511.939 173.658L506.285 179.314L486.164 159.193C490.759 135.729 483.511 111.291 466.693 94.459L421.441 49.205C389.703 17.475 347.508 0 302.633 0C257.756 0 215.57 17.475 183.846 49.207L176 57.055L272.004 105.057V118.863C272.004 137.811 279.691 156.365 293.096 169.77L342.254 218.912C355.693 232.363 373.644 239.773 392.795 239.773C397.552 239.773 402.306 239.309 406.978 238.387L427.095 258.504L421.441 264.158C412.084 273.516 412.084 288.74 421.439 298.098L444.064 320.723C448.599 325.256 454.627 327.754 461.035 327.754S473.47 325.256 478.004 320.723L568.535 230.225C577.867 220.844 577.845 205.627 568.503 196.283Z" class="fa-primary"/></svg>