<svg xmlns="http://www.w3.org/2000/svg" viewBox="0 0 512 512"><!-- Font Awesome Pro 6.0.0-alpha2 by @fontawesome - https://fontawesome.com License - https://fontawesome.com/license (Commercial License) --><defs><style>.fa-secondary{opacity:.4}</style></defs><path d="M509.382 307.25C504.257 295.5 492.757 288 480.006 288H416.004V80C416.004 58 398.004 40 376.003 40C354.003 40 336.002 58 336.002 80V214C336.002 219.5 331.502 224 326.002 224H306.001C300.501 224 296.001 219.5 296.001 214V40C296.001 18 278.001 0 256 0S215.999 18 215.999 40V214C215.999 219.5 211.499 224 205.999 224H185.998C180.498 224 175.998 219.5 175.998 214V80C175.998 58 157.997 40 135.997 40S95.996 58 95.996 80V288H31.994C19.243 288 7.743 295.5 2.618 307.25C-2.382 318.875 -0.132 332.5 8.618 341.875L111.246 451.875C146.997 490.125 199.748 512 256 512S365.003 490.125 400.754 451.875L503.382 341.875C512.132 332.5 514.382 318.875 509.382 307.25ZM256 416C202.999 416 159.997 352 159.997 352S202.999 288 256 288S352.003 352 352.003 352S309.001 416 256 416Z" class="fa-secondary"/><path d="M288.002 352C288.002 369.625 273.626 384 256.001 384S224 369.625 224 352S238.375 320 256.001 320S288.002 334.375 288.002 352Z" class="fa-primary"/></svg>