<svg xmlns="http://www.w3.org/2000/svg" viewBox="0 0 576 512"><!-- Font Awesome Pro 6.0.0-alpha2 by @fontawesome - https://fontawesome.com License - https://fontawesome.com/license (Commercial License) --><defs><style>.fa-secondary{opacity:.4}</style></defs><path d="M568.197 336.317C555.072 318.505 530.059 314.662 512.264 327.849L392.592 416.018H271.98C263.232 416.018 255.982 408.768 255.982 400.023C255.982 391.277 263.232 384.027 271.98 384.027H350.227C366.225 384.027 380.975 373.152 383.598 357.407C386.848 337.411 371.475 320.036 351.977 320.036H191.986C164.988 320.036 138.865 329.286 117.867 346.286L71.369 384.027H15.998C7.25 384.027 0 391.277 0 400.023V496C0 504.75 7.25 512 15.998 512H362.977C385.006 512 406.896 504.813 424.676 491.723L559.728 392.21C577.51 379.121 581.305 354.094 568.197 336.317Z" class="fa-secondary"/><path d="M275.222 250.523C282.222 257.898 293.722 257.898 300.722 250.523L409.722 136.276C441.222 103.152 439.472 48.153 404.097 17.529C373.222 -9.22 327.347 -4.345 299.222 25.279L287.972 36.903L276.847 25.279C248.722 -4.345 202.722 -9.22 171.972 17.529C136.722 48.153 134.722 103.152 166.347 136.276L275.222 250.523Z" class="fa-primary"/></svg>