<svg xmlns="http://www.w3.org/2000/svg" viewBox="0 0 512 512"><!-- Font Awesome Pro 6.0.0-alpha2 by @fontawesome - https://fontawesome.com License - https://fontawesome.com/license (Commercial License) --><defs><style>.fa-secondary{opacity:.4}</style></defs><path d="M240 416C240 406.852 242.697 398.385 247.143 391.107C224.869 386.941 208 367.467 208 344C208 326.621 217.33 311.535 231.168 303.111C208.883 298.955 192 279.477 192 256C192 243.652 196.797 232.506 204.459 224H40C17.906 224 0 206.094 0 184S17.906 144 40 144H264.916L264.926 143.988H335.994C344.83 143.988 351.994 136.824 351.994 127.988C351.994 119.15 344.83 111.988 335.994 111.988H290.525L314.516 82C323.625 70.625 337.422 64 352 64H400C410.375 64 420.484 67.375 428.797 73.594L454.391 92.781C490.469 119.844 512 162.906 512 208V320C512 323.318 511.662 326.557 511.021 329.686C505.936 404.506 444.09 464 368 464H288C261.484 464 240 442.5 240 416Z" class="fa-secondary"/></svg>