<svg xmlns="http://www.w3.org/2000/svg" viewBox="0 0 640 512"><!-- Font Awesome Pro 6.0.0-alpha2 by @fontawesome - https://fontawesome.com License - https://fontawesome.com/license (Commercial License) --><defs><style>.fa-secondary{opacity:.4}</style></defs><path d="M532.569 128H432.645C400.772 130.289 371.513 147.357 353.538 174.186C343.71 188.873 347.647 208.748 362.319 218.592C376.975 228.404 396.866 224.498 406.725 209.811C414.194 198.654 426.632 191.998 440.007 191.998C462.069 191.998 480.007 209.936 480.007 231.998C480.007 254.059 462.069 271.996 440.007 271.996C423.069 271.996 407.913 261.277 402.272 245.326C396.382 228.67 378.1 219.936 361.429 225.826C344.772 231.717 336.038 249.998 341.929 266.668C352.77 297.313 377.159 320.438 406.888 330.467L327.21 353.229C310.225 358.088 300.382 375.791 305.241 392.791C310.085 409.775 327.804 419.648 344.804 414.76L444.001 386.418L363.179 455.695C349.757 467.195 348.21 487.398 359.71 500.818C371.225 514.24 391.444 515.803 404.835 504.287L505.278 418.193L482.944 466.586C475.554 482.633 482.554 501.646 498.6 509.053C514.616 516.412 533.647 509.475 541.069 493.398L625.091 305.377C634.925 283.371 640.007 259.537 640.007 235.436C640.007 176.1 591.905 128 532.569 128Z" class="fa-secondary"/><path d="M160 280.002C160 302.064 177.938 320.002 200 320.002C213.375 320.002 225.812 313.346 233.281 302.189C243.141 287.502 263.031 283.596 277.688 293.408C292.359 303.252 296.297 323.127 286.469 337.814C268.494 364.643 239.234 381.711 207.361 384H107.438C48.102 384 0 335.9 0 276.564C0 252.463 5.082 228.629 14.916 206.623L98.938 18.602C106.359 2.525 125.391 -4.412 141.406 2.947C157.453 10.354 164.453 29.367 157.062 45.414L134.729 93.807L235.172 7.713C248.562 -3.803 268.781 -2.24 280.297 11.182C291.797 24.602 290.25 44.805 276.828 56.305L196.006 125.582L295.203 97.24C312.203 92.352 329.922 102.225 334.766 119.209C339.625 136.209 329.781 153.912 312.797 158.771L233.119 181.533C262.848 191.562 287.236 214.688 298.078 245.332C303.969 262.002 295.234 280.283 278.578 286.174C261.906 292.064 243.625 283.33 237.734 266.674C232.094 250.723 216.938 240.004 200 240.004C177.938 240.004 160 257.941 160 280.002Z" class="fa-primary"/></svg>