<svg xmlns="http://www.w3.org/2000/svg" viewBox="0 0 640 512"><!-- Font Awesome Pro 6.0.0-alpha2 by @fontawesome - https://fontawesome.com License - https://fontawesome.com/license (Commercial License) --><defs><style>.fa-secondary{opacity:.4}</style></defs><path d="M216.984 236C205.953 222.25 185.781 219.969 172.016 231C158.203 242.062 155.969 262.188 167.016 276L185.873 306.563C194.773 317.696 193.883 333.735 183.807 343.805C172.021 355.594 152.607 354.516 142.195 341.5L80 256.766V103.999C80 81.906 62.092 63.999 40 63.999S0 81.906 0 103.999V308.746C0 323.289 4.949 337.395 14.031 348.75L135.016 500.001C141.082 507.587 150.268 512.001 159.98 512.001H256C273.674 512.001 288 497.673 288 480.001V358.438C288 336.649 280.586 315.512 266.977 298.5L216.984 236ZM600 63.999C577.908 63.999 560 81.906 560 103.999V256.766L497.805 341.5C487.393 354.516 467.979 355.594 456.193 343.805C446.117 333.735 445.227 317.696 454.127 306.563L472.984 276C484.031 262.188 481.797 242.062 467.984 231C454.219 219.969 434.047 222.25 423.016 236L373.023 298.5C359.414 315.512 352 336.649 352 358.438V480.001C352 497.673 366.326 512.001 384 512.001H480.02C489.732 512.001 498.918 507.587 504.984 500.001L625.969 348.75C635.051 337.395 640 323.289 640 308.746V103.999C640 81.906 622.092 63.999 600 63.999Z" class="fa-secondary"/><path d="M435.972 17.53C405.222 -9.22 359.222 -4.345 331.097 25.28L319.972 36.905L308.847 25.28C280.722 -4.345 234.722 -9.22 203.972 17.53C168.722 48.156 166.722 103.156 198.347 136.281L307.222 250.531C314.222 257.906 325.722 257.906 332.722 250.531L441.722 136.281C473.222 103.156 471.347 48.156 435.972 17.53Z" class="fa-primary"/></svg>