<svg xmlns="http://www.w3.org/2000/svg" viewBox="0 0 640 512"><!-- Font Awesome Pro 6.0.0-alpha2 by @fontawesome - https://fontawesome.com License - https://fontawesome.com/license (Commercial License) --><defs><style>.fa-secondary{opacity:.4}</style></defs><path d="M624.039 198.246L512.039 262.992V215.996C512.039 202.742 501.293 191.996 488.039 191.996H320V256C320 282.508 298.51 304 272 304S224 282.508 224 256V159.999H224.018L224.039 121.636C224.039 117.269 225.105 113.108 226.809 109.253C226.951 108.921 227.061 108.573 227.213 108.249C229.088 104.374 231.678 100.847 234.957 97.948L234.947 97.952C236.264 96.788 237.52 95.561 239.039 94.612C271.158 74.596 308.246 63.983 346.094 63.983H408.664L512.039 4.233C527.289 -4.517 546.914 0.733 555.789 15.983L635.742 154.534C644.533 169.773 639.268 189.441 624.039 198.246Z" class="fa-secondary"/><path d="M512.038 215.996V264C512.038 277.25 501.288 288 488.038 288H480.038V336.008C480.038 362.516 458.548 384.009 432.038 384.009C432.038 419.259 403.288 448.013 368.038 448.013H231.413L128.038 507.767C112.788 516.517 93.163 511.267 84.288 496.017L4.288 357.384C-4.587 342.133 0.788 322.504 16.038 313.754L96.038 267.5C96.038 215.742 123.169 167.769 167.528 141.101L234.956 97.948C228.185 103.936 224.038 112.429 224.038 121.636V159.999H223.999V256C223.999 282.508 245.489 304 271.999 304S319.999 282.508 319.999 256V191.996H488.038C501.292 191.996 512.038 202.742 512.038 215.996Z" class="fa-primary"/></svg>