<svg xmlns="http://www.w3.org/2000/svg" viewBox="0 0 576 512"><!-- Font Awesome Pro 6.0.0-alpha2 by @fontawesome - https://fontawesome.com License - https://fontawesome.com/license (Commercial License) --><defs><style>.fa-secondary{opacity:.4}</style></defs><path d="M320.004 319.996H256.02V384H320.004V319.996ZM553.438 416H22.562C10.102 416 0 426.102 0 438.559V438.676C0 445.219 2.781 451.352 7.688 455.68C30.406 475.73 88.992 512 166.359 512H409.57C486.184 512 545.539 475.742 568.305 455.723C573.219 451.398 576 445.258 576 438.707V438.559C576 426.102 565.898 416 553.438 416Z" class="fa-secondary"/><path d="M96 416L206.98 166.395C217.977 141.398 236.723 120.773 260.34 107.148L426.676 4.281C439.176 -2.969 455.047 -0.844 465.168 9.406L534.527 82.023C543.152 90.648 546.152 103.273 542.277 114.773L511.91 192.016L497.91 149.898C493.535 136.773 481.293 128.023 467.543 128.023H428.301C414.559 128.023 402.309 136.773 397.934 149.898L391.684 168.895C386.688 183.77 387.312 200.016 393.559 214.391L481.84 416H351.945V319.996C351.945 302.371 337.574 288 319.953 288H255.969C238.348 288 223.973 302.371 223.973 319.996V416H96ZM223.949 384V416H255.949C238.277 416 223.949 401.672 223.949 384ZM319.949 416H351.949V384C351.949 401.672 337.621 416 319.949 416Z" class="fa-primary"/></svg>