<svg xmlns="http://www.w3.org/2000/svg" viewBox="0 0 512 512"><!-- Font Awesome Pro 6.0.0-alpha2 by @fontawesome - https://fontawesome.com License - https://fontawesome.com/license (Commercial License) --><defs><style>.fa-secondary{opacity:.4}</style></defs><path d="M160.002 179V176C160.002 177 159.752 177.875 159.752 178.875C159.752 178.875 159.877 178.875 160.002 179ZM509.256 275C488.256 227.875 460.756 123.25 436.131 88.25C397.13 32.875 333.754 0 266.128 0H192.002C86.001 0 0 86 0 192C0 246.5 23.25 298.5 64.001 334.875V512H320.004V448H384.005C419.38 448 448.006 419.375 448.006 384V320H480.006C490.881 320 500.881 314.5 506.756 305.375C512.757 296.375 513.632 284.875 509.256 275ZM336.004 208H285.004C287.004 213.125 288.004 218.5 288.004 224C288.004 250.5 266.503 272 240.003 272C234.503 272 229.128 271 224.003 269V320H160.002V269C154.877 271 149.502 272 144.002 272C117.501 272 96.001 250.5 96.001 224C96.001 223 96.251 222.125 96.251 221.125C74.126 213.5 60.751 191 64.626 167.875C68.626 144.875 88.626 128 112.001 128C112.001 101.5 133.502 80 160.002 80C168.252 80 176.377 82.25 183.502 86.375C192.252 72.5 207.503 64 224.003 64C240.503 64 255.753 72.5 264.503 86.375C276.754 79.25 291.504 78 304.879 83C318.129 88 328.504 98.625 333.004 112H336.004C362.505 112 384.005 133.5 384.005 160S362.505 208 336.004 208Z" class="fa-secondary"/><path d="M336.044 208H285.043C287.043 213.125 288.043 218.5 288.043 224C288.043 250.5 266.543 272 240.043 272C234.543 272 229.168 271 224.042 269V320H160.042V269C154.917 271 149.542 272 144.041 272C117.541 272 96.041 250.5 96.041 224C96.041 223 96.291 222.125 96.291 221.125C74.166 213.5 60.79 191 64.665 167.875C68.665 144.875 88.666 128 112.041 128C112.041 101.5 133.541 80 160.042 80C168.292 80 176.417 82.25 183.542 86.375C192.292 72.5 207.542 64 224.042 64C240.543 64 255.793 72.5 264.543 86.375C276.793 79.25 291.543 78 304.918 83C318.169 88 328.544 98.625 333.044 112H336.044C362.544 112 384.045 133.5 384.045 160S362.544 208 336.044 208Z" class="fa-primary"/></svg>