<svg xmlns="http://www.w3.org/2000/svg" viewBox="0 0 512 512"><!-- Font Awesome Pro 6.0.0-alpha2 by @fontawesome - https://fontawesome.com License - https://fontawesome.com/license (Commercial License) --><defs><style>.fa-secondary{opacity:.4}</style></defs><path d="M480.99 255.776L268.749 474.562C261.75 481.813 250.25 481.813 243.126 474.562L31.01 255.901C-12.488 202.767 -10.363 123.504 38.26 73.621L40.76 71.245C83.734 27.215 149.38 20.807 199.907 50.343L239.948 143.792L144.005 207.768L144.122 207.885L144.017 207.955L287.999 351.791L240.059 223.927L336.008 159.947L335.959 159.783L335.996 159.76L335.526 158.338L304.461 54.77C355.759 19.877 426.016 24.902 471.24 71.12L473.74 73.621C522.363 123.504 524.488 202.767 480.99 255.776Z" class="fa-secondary"/><path d="M199.181 48.691C212.651 55.723 225.367 64.557 236.31 75.855L255.997 96.187L275.684 75.855C284.224 67.041 293.97 59.978 304.135 53.738L335.992 159.947L239.996 223.958L287.982 351.791L144 207.955L239.996 143.945L199.181 48.691Z" class="fa-primary"/></svg>