<svg xmlns="http://www.w3.org/2000/svg" viewBox="0 0 640 512"><!-- Font Awesome Pro 6.0.0-alpha2 by @fontawesome - https://fontawesome.com License - https://fontawesome.com/license (Commercial License) --><defs><style>.fa-secondary{opacity:.4}</style></defs><path d="M128 32C128 14.328 142.328 0 160 0H543.996C561.668 0 575.996 14.328 575.996 32S561.668 64 543.996 64H383.998V128H319.998V64H160C142.328 64 128 49.672 128 32ZM613.245 436.625C606.995 430.375 596.996 430.5 590.621 436.625C583.496 443.375 576.746 447.875 565.996 447.875H272.124C245.546 447.875 223.999 469.422 223.999 496C223.999 504.797 231.202 512 239.999 512H565.996C580.875 512 601.257 511.5 634.394 482.477C641.44 476.309 641.991 465.371 635.37 458.75L613.245 436.625Z" class="fa-secondary"/><path d="M303.975 384H575.972C593.449 384 607.945 369.836 607.972 352.359C608.167 228.445 507.844 128 383.974 128H111.977L68.727 70.375C65.716 66.359 60.993 64 55.973 64H15.978C5.603 64 -2.022 73.75 0.478 83.875L31.978 192L191.976 256L278.35 371.25C284.475 379.25 293.85 384 303.975 384ZM415.974 195.5C478.473 208.25 527.973 257.5 540.723 320H415.974V195.5Z" class="fa-primary"/></svg>