<svg xmlns="http://www.w3.org/2000/svg" viewBox="0 0 576 512"><!-- Font Awesome Pro 6.0.0-alpha2 by @fontawesome - https://fontawesome.com License - https://fontawesome.com/license (Commercial License) --><defs><style>.fa-secondary{opacity:.4}</style></defs><path d="M303.877 419.498L339.502 377.873L166.125 204.496L124.625 239.996C113.875 249.498 109.625 264.373 113.875 278.123L126.875 320.873L76 371.873L172.125 468.123L223 417.248L265.752 430.248C279.502 434.498 294.377 430.248 303.877 419.498ZM552 464H248C234.746 464 224 474.744 224 488C224 501.254 234.746 512 248 512H552C565.254 512 576 501.254 576 488C576 474.744 565.254 464 552 464Z" class="fa-secondary"/><path d="M527.877 79.246L464.752 16.121C444.252 -4.379 411.377 -5.504 389.627 13.746L166.125 204.496L339.502 377.873L530.252 154.371C549.502 132.621 548.377 99.746 527.877 79.246ZM71.482 409.617L6.404 474.848C-7.276 488.557 2.412 512 21.756 512H94.295C98.527 512 102.588 510.314 105.582 507.312L137.609 475.211L71.482 409.617Z" class="fa-primary"/></svg>