<svg xmlns="http://www.w3.org/2000/svg" viewBox="0 0 576 512"><!-- Font Awesome Pro 6.0.0-alpha2 by @fontawesome - https://fontawesome.com License - https://fontawesome.com/license (Commercial License) --><defs><style>.fa-secondary{opacity:.4}</style></defs><path d="M124.625 239.998C113.875 249.498 109.625 264.373 113.875 278.123L126.875 320.873L76 371.873L172.125 468.124L223.001 417.248L265.751 430.248C279.501 434.498 294.376 430.248 303.876 419.498L339.501 377.873L166.125 204.497L124.625 239.998Z" class="fa-secondary"/><path d="M527.877 79.246L464.752 16.121C444.252 -4.379 411.377 -5.504 389.627 13.746L166.125 204.496L339.502 377.873L530.252 154.371C549.502 132.621 548.377 99.746 527.877 79.246ZM71.482 409.617L6.404 474.848C-7.276 488.557 2.412 512 21.756 512H94.295C98.527 512 102.588 510.314 105.582 507.312L137.609 475.211L71.482 409.617Z" class="fa-primary"/></svg>