<svg xmlns="http://www.w3.org/2000/svg" viewBox="0 0 576 512"><!-- Font Awesome Pro 6.0.0-alpha2 by @fontawesome - https://fontawesome.com License - https://fontawesome.com/license (Commercial License) --><defs><style>.fa-secondary{opacity:.4}</style></defs><path d="M575.939 76.598C575.957 68.5 572.881 60.703 567.34 54.797C563.561 50.797 558.76 45.68 553.65 40.297C564.709 33.461 573.15 22.809 575.83 9.641C576.686 5.254 573.824 1.004 569.439 0.148C568.932 0.047 568.416 0 567.9 0H447.9C380.885 0 323.584 60 320 121.891V128H160C106.98 128 64 170.98 64 224C64 251.977 76.166 276.93 95.262 294.477L68.82 362.477C64.26 374.633 63.506 387.887 66.66 400.477L88.438 487.77C92.002 502.012 104.799 512 119.48 512H152.463C173.273 512 188.549 492.449 183.512 472.256L162.189 386.859L186 323.266L320 345.578L319.967 480C319.967 497.674 334.295 512 351.967 512H383.967C401.641 512 415.967 497.674 415.967 480L416 318.219C436.512 297.352 448.006 269.258 448 240C448 239.781 447.93 239.578 447.92 239.359V136.891L463.92 144L482.82 181.699C490.271 196.562 507.869 203.242 523.311 197.07L555.859 184.07C568.035 179.211 576.016 167.418 576 154.309L575.939 76.598ZM511.92 96C503.084 96 495.92 88.836 495.92 80S503.084 64 511.92 64S527.92 71.164 527.92 80S520.756 96 511.92 96Z" class="fa-secondary"/><path d="M0 248V304C0 312.836 7.164 320 16 320H32C40.836 320 48 312.836 48 304V248C48 234.758 54.859 223.582 64.775 216.305C66.52 194.691 75.227 175.195 88.914 160H88C39.398 160 0 199.398 0 248ZM511.92 64C503.084 64 495.92 71.164 495.92 80S503.084 96 511.92 96S527.92 88.836 527.92 80S520.756 64 511.92 64Z" class="fa-primary"/></svg>