<svg xmlns="http://www.w3.org/2000/svg" viewBox="0 0 512 512"><!-- Font Awesome Pro 6.0.0-alpha2 by @fontawesome - https://fontawesome.com License - https://fontawesome.com/license (Commercial License) --><defs><style>.fa-secondary{opacity:.4}</style></defs><path d="M488.606 23.394C457.539 -7.798 406.882 -7.798 375.815 23.394L24.462 374.746C3.627 394.71 -4.733 424.401 2.629 452.351C9.989 480.3 31.699 502.01 59.649 509.37C87.596 516.734 117.292 508.374 137.255 487.535L488.606 136.186C519.798 105.12 519.798 54.461 488.606 23.394ZM438.824 118.344C419.235 137.933 401.393 140.925 387.043 143.426C374.068 145.668 364.71 147.293 352.358 159.643C340.005 171.996 338.384 181.353 336.137 194.331C333.643 208.677 330.648 226.519 311.059 246.108S273.628 268.693 259.279 271.185C246.304 273.432 236.945 275.053 224.594 287.406C212.241 299.76 210.619 309.116 208.373 322.091C205.878 336.44 202.884 354.283 183.295 373.871C163.706 393.46 145.864 396.452 131.514 398.953C118.54 401.195 109.181 402.82 96.83 415.17C90.591 421.409 80.484 421.409 74.246 415.17C68.007 408.931 68.007 398.828 74.246 392.585C93.835 372.996 111.678 370.003 126.025 367.511C139.002 365.261 148.359 363.639 160.712 351.29C173.063 338.937 174.685 329.576 176.931 316.602C179.427 302.252 182.422 284.414 202.011 264.825S239.442 242.24 253.79 239.744C266.766 237.501 276.123 235.876 288.476 223.523C300.827 211.173 302.449 201.817 304.695 188.838C307.192 174.492 310.186 156.646 329.775 137.058S367.206 114.477 381.554 111.984C394.53 109.734 403.887 108.116 416.24 95.763C422.478 89.524 432.584 89.524 438.824 95.763C445.061 101.998 445.061 112.109 438.824 118.344Z" class="fa-secondary"/><path d="M208.024 322.091C210.27 309.116 211.892 299.76 224.245 287.406C236.596 275.053 245.955 273.432 258.93 271.185C273.279 268.693 291.122 265.696 310.71 246.108S333.294 208.677 335.788 194.331C338.035 181.353 339.656 171.996 352.009 159.643C364.361 147.293 373.719 145.668 386.694 143.426C401.043 140.925 418.886 137.933 438.475 118.344C444.712 112.109 444.712 101.998 438.475 95.763C432.235 89.524 422.129 89.524 415.891 95.763C403.538 108.116 394.181 109.734 381.205 111.984C366.857 114.477 349.015 117.469 329.426 137.058S306.843 174.492 304.346 188.838C302.1 201.817 300.478 211.173 288.127 223.523C275.774 235.876 266.417 237.501 253.44 239.744C239.093 242.24 221.25 245.236 201.662 264.825S179.078 302.252 176.582 316.602C174.336 329.576 172.714 338.937 160.363 351.29C148.01 363.639 138.653 365.261 125.676 367.511C111.329 370.003 93.486 372.996 73.897 392.585C67.658 398.828 67.658 408.931 73.897 415.17C80.135 421.409 90.242 421.409 96.481 415.17C108.832 402.82 118.191 401.195 131.165 398.953C145.515 396.452 163.357 393.46 182.946 373.871C202.535 354.283 205.529 336.44 208.024 322.091ZM371.867 20.096C347.03 -4.743 308.407 -6.352 285.679 16.369L16.03 286.015C-6.696 308.745 -5.083 347.368 19.755 372.207L23.324 375.739C23.629 375.434 23.802 375.043 24.113 374.746L375.298 23.562L371.867 20.096ZM491.556 139.785L488.089 136.354L136.906 487.535C136.608 487.848 136.217 488.02 135.914 488.324L139.444 491.895C164.281 516.727 202.904 518.344 225.632 495.622L495.281 225.968C518.007 203.246 516.394 164.624 491.556 139.785Z" class="fa-primary"/></svg>