<svg xmlns="http://www.w3.org/2000/svg" viewBox="0 0 576 512"><!-- Font Awesome Pro 6.0.0-alpha2 by @fontawesome - https://fontawesome.com License - https://fontawesome.com/license (Commercial License) --><defs><style>.fa-secondary{opacity:.4}</style></defs><path d="M287.977 74.541L64 270.516V448C64 483.346 92.654 512 128 512H447.971C483.316 512 511.971 483.346 511.971 448V270.531L287.977 74.541ZM400 362C400 370.836 392.836 378 384 378H330V432C330 440.836 322.836 448 314 448H262C253.164 448 246 440.836 246 432V378H192C183.164 378 176 370.836 176 362V310C176 301.162 183.164 294 192 294H246V240C246 231.162 253.164 224 262 224H314C322.836 224 330 231.162 330 240V294H384C392.836 294 400 301.162 400 310V362Z " class="fa-secondary"></path><path d="M565.078 231.908L511.994 185.463V47.984C511.994 39.156 504.838 31.984 495.994 31.984H431.998C423.156 31.984 416 39.156 416 47.984V101.473L309.078 7.922C303.047 2.641 295.523 0 288 0S272.953 2.641 266.922 7.922L10.922 231.908C2.656 239.155 0 248.643 0 256.008C0 280.28 21.989 287.998 32 288C39.477 288 46.99 285.396 53.078 280.092L288 74.541L522.922 280.092C529 285.404 536.516 287.998 543.984 287.998C553.824 287.998 576 280.274 576 256.008C576 248.629 573.329 239.142 565.078 231.908ZM384.023 294H330.023V240C330.023 231.162 322.859 224 314.023 224H262.023C253.188 224 246.023 231.162 246.023 240V294H192.023C183.188 294 176.023 301.162 176.023 310V362C176.023 370.836 183.188 378 192.023 378H246.023V432C246.023 440.836 253.188 448 262.023 448H314.023C322.859 448 330.023 440.836 330.023 432V378H384.023C392.859 378 400.023 370.836 400.023 362V310C400.023 301.162 392.859 294 384.023 294Z " class="fa-primary"></path></svg>