<svg xmlns="http://www.w3.org/2000/svg" viewBox="0 0 640 512"><!-- Font Awesome Pro 6.0.0-alpha2 by @fontawesome - https://fontawesome.com License - https://fontawesome.com/license (Commercial License) --><defs><style>.fa-secondary{opacity:.4}</style></defs><path d="M194.887 173.92C193.164 173.92 187.796 175.591 177.34 175.591C128.817 175.591 89.686 136.097 89.686 87.86C89.686 30.922 136.701 13.632 136.701 7.058C136.701 6.292 136.266 2.538 132.498 1.873C125.748 0.748 118.873 0.123 111.998 -0.002C50.125 -0.002 0 50.123 0 111.998S50.125 223.998 111.998 223.998C170.284 223.998 200.184 181.547 200.184 179.215C200.184 176.689 198.031 173.92 194.887 173.92ZM317.121 59.248L277.373 42.623L260.748 2.998C259.873 1.123 257.996 -0.002 255.998 -0.002C253.996 -0.002 252.123 1.123 251.248 2.998L234.623 42.623L194.998 59.248C193.248 60.123 191.998 61.998 191.998 63.998S193.248 67.873 194.998 68.748L234.748 85.373L251.248 124.998C252.123 126.873 253.996 127.998 255.998 127.998C258.123 127.998 259.873 126.873 260.873 124.998L277.373 85.373L317.121 68.748C318.871 67.873 319.996 65.998 319.996 63.998S318.871 60.123 317.121 59.248ZM117.373 362.623L100.748 322.998C99.873 321.123 97.998 319.998 95.998 319.998S92.125 321.123 91.25 322.998L74.625 362.623L35 379.248C33.25 380.123 32 381.998 32 383.998S33.25 387.873 35 388.748L74.75 405.373L91.25 444.998C92.125 446.873 93.998 447.998 95.998 447.998C98.123 447.998 99.873 446.873 100.873 444.998L117.373 405.373L157.123 388.748C158.873 387.873 159.998 385.998 159.998 383.998S158.873 380.123 157.123 379.248L117.373 362.623Z " class="fa-secondary"></path><path d="M629.699 296.5L575.99 246.921V144C575.99 135.162 568.828 128 559.99 128H527.99C519.156 128 511.992 135.162 511.992 143.998V187.847L421.699 104.5C415.572 98.843 407.787 96 400 96C399.997 96 399.995 96 399.992 96C392.206 96 384.422 98.843 378.293 104.5L170.293 296.5C163.598 302.677 160 311.242 160 320C160 337.544 174.211 352 191.996 352H223.994V464C223.994 490.4 245.596 512 271.994 512H527.99C554.391 512 575.99 490.4 575.99 464V352H607.996C625.816 352 640 337.517 640 320C640 311.242 636.396 302.677 629.699 296.5ZM447.992 368C447.992 376.875 440.867 384 431.992 384H367.992C359.117 384 351.992 376.875 351.992 368V304C351.992 295.125 359.117 288 367.992 288H431.992C440.867 288 447.992 295.125 447.992 304V368Z " class="fa-primary"></path></svg>