<svg xmlns="http://www.w3.org/2000/svg" viewBox="0 0 640 512"><!-- Font Awesome Pro 6.0.0-alpha2 by @fontawesome - https://fontawesome.com License - https://fontawesome.com/license (Commercial License) --><defs><style>.fa-secondary{opacity:.4}</style></defs><path d="M216 175.996C216 153.871 198.125 135.996 176 135.996V135.998H175.998C153.873 135.998 135.998 153.873 135.998 175.998H136V176C136 198.125 153.875 216 176 216V215.998H176.002C198.127 215.998 216.002 198.123 216.002 175.998H216V175.996ZM303.908 59.896C303.908 52.36 297.457 48.048 291.96 48.048C290.728 48.048 289.479 48.237 288.25 48.623L219.25 71.623L186.625 6.623C184.625 2.498 180.5 -0.002 176 -0.002H175.998C171.498 -0.002 167.373 2.498 165.373 6.623L132.873 71.748L63.75 48.748C62.491 48.304 61.189 48.09 59.898 48.09C52.362 48.09 48.05 54.541 48.05 60.038C48.05 61.27 48.239 62.519 48.625 63.748L71.625 132.748L6.625 165.373C2.5 167.373 0 171.498 0 175.998V176C0 180.5 2.5 184.625 6.625 186.625L71.75 219.125L48.75 288.248C48.306 289.507 48.092 290.809 48.092 292.1C48.092 299.636 54.543 303.948 60.04 303.948C61.272 303.948 62.521 303.759 63.75 303.373L132.75 280.373L136.766 288.373C139.979 282.754 143.758 277.443 148.59 272.984L175.689 247.969C136.084 247.797 104 215.645 104 176V175.998H103.998C103.998 136.248 136.248 103.998 175.998 103.998H176V103.996C215.75 103.996 248 136.246 248 175.996V175.998H248.002C248.002 177.971 247.578 179.824 247.422 181.756L293.316 139.391L280.25 132.871L303.25 63.748C303.694 62.489 303.908 61.187 303.908 59.896Z " class="fa-secondary"></path><path d="M629.699 296.5L575.99 246.921V144C575.99 135.162 568.828 128 559.99 128H527.99C519.156 128 511.992 135.162 511.992 143.998V187.847L421.699 104.5C415.572 98.843 407.787 96 400 96C399.997 96 399.995 96 399.992 96C392.206 96 384.422 98.843 378.293 104.5L170.293 296.5C163.598 302.677 160 311.242 160 320C160 337.544 174.211 352 191.996 352H223.994V464C223.994 490.4 245.596 512 271.994 512H527.99C554.391 512 575.99 490.4 575.99 464V352H607.996C625.816 352 640 337.517 640 320C640 311.242 636.396 302.677 629.699 296.5ZM447.992 368C447.992 376.875 440.867 384 431.992 384H367.992C359.117 384 351.992 376.875 351.992 368V304C351.992 295.125 359.117 288 367.992 288H431.992C440.867 288 447.992 295.125 447.992 304V368Z " class="fa-primary"></path></svg>