<svg xmlns="http://www.w3.org/2000/svg" viewBox="0 0 640 512"><!-- Font Awesome Pro 6.0.0-alpha2 by @fontawesome - https://fontawesome.com License - https://fontawesome.com/license (Commercial License) --><defs><style>.fa-secondary{opacity:.4}</style></defs><path d="M375.109 333.453C344.326 345.579 309.289 331.953 294.774 302.327C279.258 270.7 292.146 232.324 323.304 216.573L334.941 210.823L340.447 193.947C349.832 165.445 368.101 140.569 392.502 122.818L263.741 8.938C250.352 -2.938 230.206 -2.938 216.817 8.938L4.719 196.447C-1.038 201.697 -1.663 210.573 3.592 216.448L22.362 237.824C27.493 243.574 36.502 244.199 42.383 239.074L64.031 219.948V384.081C64.031 401.707 78.421 416.082 96.065 416.082H342.199L352.335 375.455C356.214 359.955 363.847 345.704 374.733 333.953L375.109 333.453ZM224.2 272.076C224.2 280.951 217.067 288.076 208.183 288.076H144.115C135.231 288.076 128.098 280.951 128.098 272.076V208.072C128.098 199.197 135.231 192.072 144.115 192.072H208.183C217.067 192.072 224.2 199.197 224.2 208.072V272.076ZM432.419 96.067C458.947 96.067 480.47 74.566 480.47 48.065S458.947 0.063 432.419 0.063C405.891 0.063 384.368 21.564 384.368 48.065S405.891 96.067 432.419 96.067Z" class="fa-secondary"/><path d="M531.27 262.544L516.004 201.791L542.908 212.666C550.04 215.542 555.921 221.042 559.3 228.042L566.057 241.668C569.686 249.168 576.318 254.918 584.326 257.669C592.335 260.294 600.969 259.669 608.602 255.918C624.243 247.918 630.625 228.792 622.742 213.041L616.11 199.416C605.724 178.54 587.955 162.039 566.307 153.289C528.893 138.163 508.997 127.912 472.959 128.037C426.41 128.162 385.367 159.289 370.601 203.916L360.966 233.292L337.566 245.168C321.925 253.168 315.543 272.294 323.301 288.17C327.055 295.67 333.562 301.421 341.57 304.171C349.579 306.796 358.338 306.171 365.846 302.421L389.121 290.67C404.261 282.92 415.648 269.669 420.904 253.668L426.41 237.168L443.553 305.796L398.13 355.548C390.872 363.299 385.742 372.924 383.239 383.175L360.966 472.179C356.711 489.305 367.097 506.68 384.365 511.056C401.509 515.306 418.902 504.805 423.156 487.68L441.426 414.426C444.053 404.051 449.184 394.55 456.316 386.675L516.38 321.297C530.895 305.421 536.401 283.42 531.27 262.544ZM631 457.428L580.948 407.301C574.816 401.175 569.936 393.925 566.808 385.8L546.036 334.297C537.277 346.173 553.919 327.672 498.611 388.05L512.125 421.801C515.379 429.802 520.134 437.177 526.265 443.302L585.828 502.68C598.341 514.556 618.112 514.181 630.375 501.93C642.638 489.68 642.888 469.929 631 457.428Z" class="fa-primary"/></svg>