<svg xmlns="http://www.w3.org/2000/svg" viewBox="0 0 576 512"><!-- Font Awesome Pro 6.0.0-alpha2 by @fontawesome - https://fontawesome.com License - https://fontawesome.com/license (Commercial License) --><defs><style>.fa-secondary{opacity:.4}</style></defs><path d="M528 64H48C21.49 64 0 85.492 0 112V400C0 426.508 21.49 448 48 448H528C554.51 448 576 426.508 576 400V112C576 85.492 554.51 64 528 64ZM175.984 160C193.66 160 207.984 174.328 207.984 192S193.66 224 175.984 224C158.312 224 143.984 209.672 143.984 192S158.312 160 175.984 160ZM446.109 375.551C443.32 380.754 437.898 384 432 384H144C137.977 384 132.469 380.621 129.738 375.25C127.008 369.883 127.523 363.438 131.07 358.574L201.07 262.574C204.086 258.441 208.891 256 214 256C219.109 256 223.914 258.441 226.93 262.574L249.281 293.234L312.023 199.125C314.988 194.672 319.984 192 325.336 192C330.684 192 335.68 194.672 338.648 199.125L445.312 359.125C448.586 364.035 448.891 370.348 446.109 375.551Z" class="fa-secondary"/><path d="M446.11 375.551C443.321 380.754 437.899 384 432.001 384H144.001C137.977 384 132.469 380.621 129.739 375.25C127.008 369.883 127.524 363.438 131.071 358.574L201.071 262.574C204.087 258.441 208.891 256 214 256C219.11 256 223.915 258.441 226.93 262.574L249.282 293.234L312.024 199.125C314.989 194.672 319.985 192 325.337 192C330.684 192 335.68 194.672 338.649 199.125L445.313 359.125C448.587 364.035 448.891 370.348 446.11 375.551Z" class="fa-primary"/></svg>