<svg xmlns="http://www.w3.org/2000/svg" viewBox="0 0 512 512"><!-- Font Awesome Pro 6.0.0-alpha2 by @fontawesome - https://fontawesome.com License - https://fontawesome.com/license (Commercial License) --><defs><style>.fa-secondary{opacity:.4}</style></defs><path d="M404 384H364C357.375 384 352 378.625 352 372V332C352 325.375 357.375 320 364 320H404C410.625 320 416 325.375 416 332V372C416 378.625 410.625 384 404 384ZM276 384H236C229.375 384 224 378.625 224 372V332C224 325.375 229.375 320 236 320H276C282.625 320 288 325.375 288 332V372C288 378.625 282.625 384 276 384ZM148 384H108C101.375 384 96 378.625 96 372V332C96 325.375 101.375 320 108 320H148C154.625 320 160 325.375 160 332V372C160 378.625 154.625 384 148 384Z" class="fa-secondary"/><path d="M475.125 131.763L336 224V152.013C336 133.138 315.125 121.638 299.125 131.763L160 224V64C160 46.327 145.673 32 128 32H32C14.327 32 0 46.327 0 64V448C0 465.673 14.327 480 32 480H480C497.673 480 512 465.673 512 448V152.013C512 133.138 491.125 121.638 475.125 131.763ZM404 384H364C357.375 384 352 378.625 352 372V332C352 325.375 357.375 320 364 320H404C410.625 320 416 325.375 416 332V372C416 378.625 410.625 384 404 384ZM276 384H236C229.375 384 224 378.625 224 372V332C224 325.375 229.375 320 236 320H276C282.625 320 288 325.375 288 332V372C288 378.625 282.625 384 276 384ZM148 384H108C101.375 384 96 378.625 96 372V332C96 325.375 101.375 320 108 320H148C154.625 320 160 325.375 160 332V372C160 378.625 154.625 384 148 384Z" class="fa-primary"/></svg>