<svg xmlns="http://www.w3.org/2000/svg" viewBox="0 0 640 512"><!-- Font Awesome Pro 6.0.0-alpha2 by @fontawesome - https://fontawesome.com License - https://fontawesome.com/license (Commercial License) --><defs><style>.fa-secondary{opacity:.4}</style></defs><path d="M576.002 64H63.998C28.654 64 0 92.652 0 128V384C0 419.346 28.654 448 63.998 448H576.002C611.346 448 640 419.348 640 384V128C640 92.654 611.346 64 576.002 64ZM576.002 384H63.998V128H576.002V384Z" class="fa-secondary"/><path d="M128 352C141.254 352 152 341.254 152 328V184C152 170.744 141.254 160 128 160S104 170.744 104 184V328C104 341.254 114.746 352 128 352Z" class="fa-primary"/></svg>