<svg xmlns="http://www.w3.org/2000/svg" viewBox="0 0 512 512"><!-- Font Awesome Pro 6.0.0-alpha2 by @fontawesome - https://fontawesome.com License - https://fontawesome.com/license (Commercial License) --><defs><style>.fa-secondary{opacity:.4}</style></defs><path d="M224 242.75L9.375 457.375C-3.125 469.875 -3.125 490.125 9.375 502.625C15.625 508.875 23.812 512 32 512S48.375 508.875 54.625 502.625L90.342 466.908L119.432 495.999C131.929 508.495 152.19 508.496 164.687 496L187.314 473.373C187.316 473.371 187.316 473.369 187.318 473.367L208 452.686C220.498 440.19 220.498 419.928 208.001 407.431L178.91 378.34L269.25 288L224 242.75Z" class="fa-secondary"/><path d="M416 0H320C266.98 0 224 42.98 224 96V242.75L269.25 288H416C469.02 288 512 245.02 512 192V96C512 42.98 469.02 0 416 0ZM416 172.799C416 183.402 407.404 192 396.801 192H339.199C328.596 192 320 183.402 320 172.799V115.199C320 104.596 328.596 96 339.199 96H396.801C407.404 96 416 104.596 416 115.199V172.799Z" class="fa-primary"/></svg>