<svg xmlns="http://www.w3.org/2000/svg" viewBox="0 0 640 512"><!-- Font Awesome Pro 6.0.0-alpha2 by @fontawesome - https://fontawesome.com License - https://fontawesome.com/license (Commercial License) --><defs><style>.fa-secondary{opacity:.4}</style></defs><path d="M576 64H224C188.654 64 160 92.652 160 128V384C160 419.346 188.654 448 224 448H576C611.348 448 640 419.346 640 384V128C640 92.652 611.348 64 576 64ZM320 140C320 133.375 325.375 128 332 128H372C378.625 128 384 133.375 384 140V180C384 186.625 378.625 192 372 192H332C325.375 192 320 186.625 320 180V140ZM320 236C320 229.375 325.375 224 332 224H372C378.625 224 384 229.375 384 236V276C384 282.625 378.625 288 372 288H332C325.375 288 320 282.625 320 276V236ZM288 372C288 378.625 282.625 384 276 384H236C229.375 384 224 378.625 224 372V332C224 325.375 229.375 320 236 320H276C282.625 320 288 325.375 288 332V372ZM288 276C288 282.625 282.625 288 276 288H236C229.375 288 224 282.625 224 276V236C224 229.375 229.375 224 236 224H276C282.625 224 288 229.375 288 236V276ZM288 180C288 186.625 282.625 192 276 192H236C229.375 192 224 186.625 224 180V140C224 133.375 229.375 128 236 128H276C282.625 128 288 133.375 288 140V180ZM480 372C480 378.625 474.625 384 468 384H332C325.375 384 320 378.625 320 372V332C320 325.375 325.375 320 332 320H468C474.625 320 480 325.375 480 332V372ZM480 276C480 282.625 474.625 288 468 288H428C421.375 288 416 282.625 416 276V236C416 229.375 421.375 224 428 224H468C474.625 224 480 229.375 480 236V276ZM480 180C480 186.625 474.625 192 468 192H428C421.375 192 416 186.625 416 180V140C416 133.375 421.375 128 428 128H468C474.625 128 480 133.375 480 140V180ZM576 372C576 378.625 570.625 384 564 384H524C517.375 384 512 378.625 512 372V332C512 325.375 517.375 320 524 320H564C570.625 320 576 325.375 576 332V372ZM576 276C576 282.625 570.625 288 564 288H524C517.375 288 512 282.625 512 276V236C512 229.375 517.375 224 524 224H564C570.625 224 576 229.375 576 236V276ZM576 180C576 186.625 570.625 192 564 192H524C517.375 192 512 186.625 512 180V140C512 133.375 517.375 128 524 128H564C570.625 128 576 133.375 576 140V180Z" class="fa-secondary"/><path d="M371.998 224H331.998C325.373 224 319.998 229.375 319.998 236V276C319.998 282.625 325.373 288 331.998 288H371.998C378.623 288 383.998 282.625 383.998 276V236C383.998 229.375 378.623 224 371.998 224ZM275.998 128H235.998C229.373 128 223.998 133.375 223.998 140V180C223.998 186.625 229.373 192 235.998 192H275.998C282.623 192 287.998 186.625 287.998 180V140C287.998 133.375 282.623 128 275.998 128ZM275.998 320H235.998C229.373 320 223.998 325.375 223.998 332V372C223.998 378.625 229.373 384 235.998 384H275.998C282.623 384 287.998 378.625 287.998 372V332C287.998 325.375 282.623 320 275.998 320ZM371.998 128H331.998C325.373 128 319.998 133.375 319.998 140V180C319.998 186.625 325.373 192 331.998 192H371.998C378.623 192 383.998 186.625 383.998 180V140C383.998 133.375 378.623 128 371.998 128ZM275.998 224H235.998C229.373 224 223.998 229.375 223.998 236V276C223.998 282.625 229.373 288 235.998 288H275.998C282.623 288 287.998 282.625 287.998 276V236C287.998 229.375 282.623 224 275.998 224ZM563.998 128H523.998C517.373 128 511.998 133.375 511.998 140V180C511.998 186.625 517.373 192 523.998 192H563.998C570.623 192 575.998 186.625 575.998 180V140C575.998 133.375 570.623 128 563.998 128ZM467.998 224H427.998C421.373 224 415.998 229.375 415.998 236V276C415.998 282.625 421.373 288 427.998 288H467.998C474.623 288 479.998 282.625 479.998 276V236C479.998 229.375 474.623 224 467.998 224ZM563.998 320H523.998C517.373 320 511.998 325.375 511.998 332V372C511.998 378.625 517.373 384 523.998 384H563.998C570.623 384 575.998 378.625 575.998 372V332C575.998 325.375 570.623 320 563.998 320ZM563.998 224H523.998C517.373 224 511.998 229.375 511.998 236V276C511.998 282.625 517.373 288 523.998 288H563.998C570.623 288 575.998 282.625 575.998 276V236C575.998 229.375 570.623 224 563.998 224ZM467.998 128H427.998C421.373 128 415.998 133.375 415.998 140V180C415.998 186.625 421.373 192 427.998 192H467.998C474.623 192 479.998 186.625 479.998 180V140C479.998 133.375 474.623 128 467.998 128ZM116.473 155.201C109.473 152.15 101.324 153.537 95.736 158.725L6.137 241.926C2.045 245.725 0 250.861 0 256C-0.002 261.137 2.045 266.275 6.137 270.076L95.736 353.275C101.324 358.463 109.473 359.852 116.473 356.803C123.473 353.752 127.998 346.838 127.998 339.199V172.801C127.998 165.162 123.473 158.25 116.473 155.201Z" class="fa-primary"/></svg>