<svg xmlns="http://www.w3.org/2000/svg" viewBox="0 0 576 512"><!-- Font Awesome Pro 6.0.0-alpha2 by @fontawesome - https://fontawesome.com License - https://fontawesome.com/license (Commercial License) --><defs><style>.fa-secondary{opacity:.4}</style></defs><path d="M144 410V464C144 472.837 136.837 480 128 480H112C103.163 480 96 472.837 96 464V390.31C111.029 399.027 127.179 405.652 144 410ZM576 224C576.002 282.221 531.396 330.734 473.38 335.61L545.92 471.66C548.729 476.811 554.132 480.012 560 480C561.332 479.996 562.659 479.828 563.95 479.5C571.037 477.694 575.998 471.313 576 464V224ZM208 415.32V464C208 472.837 215.163 480 224 480H240C248.836 480 256 472.837 256 464V405.05C240.508 410.524 224.375 413.975 208 415.32V415.32Z" class="fa-secondary"/><path d="M464 112H448.26C395.463 111.931 343.935 95.804 300.52 65.76C296.46 62.947 292.287 60.3 288 57.82V57.69C258.826 40.81 225.706 31.947 192 32C86 32 0 118 0 224S86 416 192 416C225.706 416.054 258.826 407.19 288 390.31V390.11C290.83 388.5 293.61 386.83 296.33 385.06C342 355.33 393.58 336.1 448 336H464C525.856 336 576 285.856 576 224S525.856 112 464 112ZM464 248C450.745 248 440 237.255 440 224C440 210.745 450.745 200 464 200C477.255 200 488 210.745 488 224C488 237.255 477.255 248 464 248Z" class="fa-primary"/></svg>