<svg xmlns="http://www.w3.org/2000/svg" viewBox="0 0 512 512"><!-- Font Awesome Pro 6.0.0-alpha2 by @fontawesome - https://fontawesome.com License - https://fontawesome.com/license (Commercial License) --><defs><style>.fa-secondary{opacity:.4}</style></defs><path d="M498.002 232.727C491.756 239.477 483.383 244.477 475.387 249.348C462.765 257.219 449.771 264.344 435.525 272.465C439.982 277.934 443.617 282.172 446.963 286.309C469.287 313.914 462.814 351.41 431.472 368.082C409.398 379.82 385.959 378.32 362.053 375.305C349.306 373.68 336.312 372.68 319.818 370.93C324.066 377.055 326.064 379.551 327.566 382.176C342.558 408.289 331.812 437.531 302.949 445.398C291.078 448.527 277.332 448.898 265.336 446.152C248.094 442.277 231.974 433.281 214.73 428.656C194.051 422.873 184.697 428.076 179.062 429.922C159.556 436.344 139.051 433.68 121.308 424.629L312.969 232.969C322.344 223.594 322.344 208.406 312.969 199.031S288.406 189.656 279.031 199.031L87.367 390.695C78.318 372.951 75.656 352.445 82.078 332.938C83.935 327.291 89.154 318.039 83.342 297.27C78.719 280.023 69.721 263.906 65.847 246.664C63.099 234.664 63.472 220.922 66.597 209.051C74.469 180.188 103.709 169.441 129.824 184.434C132.449 185.934 134.947 187.934 141.07 192.18C139.322 175.688 138.32 162.695 136.697 149.945C133.678 126.039 132.176 102.602 143.918 80.527C160.59 49.184 198.088 42.711 225.691 65.039C229.828 68.383 234.066 72.016 239.535 76.473C247.656 62.227 254.777 49.234 262.652 36.613C267.523 28.617 272.523 20.242 279.271 13.996C303.012 -8.121 338.375 -3.371 357.117 23.617C363.916 33.984 367.471 48.904 383.982 44.109C416.971 34.367 440.961 41.234 455.457 56.48L455.396 56.602L455.517 56.539C470.762 71.039 477.635 95.031 467.888 128.016C463.15 144.354 477.615 147.814 488.381 154.883C515.371 173.625 520.121 208.984 498.002 232.727Z" class="fa-secondary"/><path d="M312.969 232.969L40.969 504.969C36.281 509.656 30.141 512 24 512S11.719 509.656 7.031 504.969C-2.344 495.594 -2.344 480.406 7.031 471.031L279.031 199.031C288.406 189.656 303.594 189.656 312.969 199.031S322.344 223.594 312.969 232.969Z" class="fa-primary"/></svg>