<svg xmlns="http://www.w3.org/2000/svg" viewBox="0 0 448 512"><!-- Font Awesome Pro 6.0.0-alpha2 by @fontawesome - https://fontawesome.com License - https://fontawesome.com/license (Commercial License) --><defs><style>.fa-secondary{opacity:.4}</style></defs><path d="M32 64H32C14.327 64 0 78.327 0 96V416C0 433.673 14.327 448 32 448H32C49.673 448 64 433.673 64 416V96C64 78.327 49.673 64 32 64Z" class="fa-secondary"/><path d="M103.2 238.547L247.303 102.547C254.278 95.969 264.502 94.172 273.307 97.953C282.11 101.75 287.817 110.422 287.817 120V192H415.909C433.594 192 447.932 206.326 447.932 224V288C447.932 305.672 433.594 320 415.909 320H287.817V392C287.817 401.578 282.11 410.25 273.307 414.047C264.502 417.828 254.278 416.031 247.303 409.453L103.2 273.453C93.6 264.391 93.6 247.609 103.2 238.547Z" class="fa-primary"/></svg>