<svg xmlns="http://www.w3.org/2000/svg" viewBox="0 0 448 512"><!-- Font Awesome Pro 6.0.0-alpha2 by @fontawesome - https://fontawesome.com License - https://fontawesome.com/license (Commercial License) --><defs><style>.fa-secondary{opacity:.4}</style></defs><path d="M415.999 63.992H415.999C398.327 63.992 384 78.319 384 95.991V416.001C384 433.674 398.326 448 415.999 448H416.001C433.673 448 448 433.673 448 416.001V95.993C448 78.319 433.673 63.992 415.999 63.992Z" class="fa-secondary"/><path d="M351.932 223.996V287.996C351.932 305.67 337.596 319.998 319.908 319.998H191.816V391.998C191.816 401.578 186.109 410.25 177.307 414.047C168.504 417.828 158.277 416.031 151.305 409.453L7.201 273.449C-2.4 264.387 -2.4 247.605 7.201 238.543L151.305 102.541C158.277 95.963 168.504 94.166 177.307 97.947C186.109 101.744 191.816 110.416 191.816 119.994V191.996H319.908C337.596 191.996 351.932 206.322 351.932 223.996Z" class="fa-primary"/></svg>