<svg xmlns="http://www.w3.org/2000/svg" viewBox="0 0 448 512"><!-- Font Awesome Pro 6.0.0-alpha2 by @fontawesome - https://fontawesome.com License - https://fontawesome.com/license (Commercial License) --><defs><style>.fa-secondary{opacity:.4}</style></defs><path d="M427.897 52.101C407.77 31.867 380.313 26.835 362.264 37.335C310.633 67.417 203.654 -9.153 81.252 113.249C-41.152 235.656 35.418 342.632 5.338 394.265C-5.164 412.312 -0.133 439.765 20.104 459.894C40.231 480.132 67.688 485.163 85.736 474.663C137.367 444.581 244.346 521.152 366.748 398.749C489.152 276.343 412.582 169.367 442.662 117.734C453.164 99.687 448.133 72.23 427.897 52.101ZM211.906 127.531C167.563 138.687 106.656 199.593 95.531 243.906C93.688 251.156 87.188 255.999 80 255.999C78.719 255.999 77.406 255.843 76.094 255.531C67.531 253.374 62.344 244.656 64.469 236.093C78.625 179.812 147.781 110.656 204.094 96.468C212.75 94.437 221.344 99.531 223.531 108.093C225.688 116.656 220.469 125.343 211.906 127.531Z" class="fa-secondary"/><path d="M211.913 127.531C167.57 138.688 106.663 199.594 95.538 243.906C93.695 251.156 87.195 256 80.007 256C78.726 256 77.413 255.844 76.101 255.531C67.538 253.375 62.351 244.656 64.476 236.094C78.632 179.812 147.788 110.656 204.101 96.469C212.757 94.438 221.351 99.531 223.538 108.094C225.695 116.656 220.476 125.344 211.913 127.531Z" class="fa-primary"/></svg>