<svg xmlns="http://www.w3.org/2000/svg" viewBox="0 0 384 512"><!-- Font Awesome Pro 6.0.0-alpha2 by @fontawesome - https://fontawesome.com License - https://fontawesome.com/license (Commercial License) --><defs><style>.fa-secondary{opacity:.4}</style></defs><path d="M191.5 0C89.5 0.25 16 83.002 16 176.002C16 220.379 32.5 260.879 59.5 291.754C76.125 310.629 101.875 350.006 111.75 383.256C111.75 383.506 111.875 383.756 111.875 384.006H272.125C272.125 383.756 272.25 383.506 272.25 383.256C282.125 350.006 307.875 310.629 324.5 291.754C351.5 260.879 368 220.379 368 176.002C368 78.627 288.875 -0.25 191.5 0ZM168 88C168 74.75 178.75 64 192 64S216 74.75 216 88V200C216 213.25 205.25 224 192 224S168 213.25 168 200V88ZM192 320C174.326 320 160 305.672 160 288S174.326 256 192 256S224 270.328 224 288S209.674 320 192 320Z" class="fa-secondary"/><path d="M191.75 224C205 224 215.75 213.25 215.75 200V88C215.75 74.75 205 64 191.75 64S167.75 74.75 167.75 88V200C167.75 213.25 178.5 224 191.75 224ZM191.75 320C209.424 320 223.75 305.672 223.75 288S209.424 256 191.75 256S159.75 270.328 159.75 288S174.076 320 191.75 320ZM112 384.006V416.006L112.062 454.326C112.062 460.623 113.938 466.779 117.406 472.029L134.5 497.719C139.75 505.594 151.688 512 161.156 512H222.875C232.312 512 244.25 505.594 249.5 497.719L266.594 472.029C269.531 467.592 271.937 459.654 271.937 454.326L272 416.006V384.006H112Z" class="fa-primary"/></svg>