<svg xmlns="http://www.w3.org/2000/svg" viewBox="0 0 640 512"><!-- Font Awesome Pro 6.0.0-alpha2 by @fontawesome - https://fontawesome.com License - https://fontawesome.com/license (Commercial License) --><defs><style>.fa-secondary{opacity:.4}</style></defs><path d="M147.488 236.039C132.828 230.54 78.318 216.043 53.719 281.591C35.109 331.202 66.719 410.787 80.248 415.846C93.778 420.905 169.898 381.852 188.548 332.151C214.718 262.374 154.488 238.709 147.488 236.039ZM320.488 256.035C304.818 256.035 248.688 261.574 248.688 331.611C248.688 384.602 306.288 448 320.688 448S392.687 384.712 392.687 331.611C392.697 257.035 328.018 256.035 320.488 256.035ZM587.287 281.621C562.687 216.043 508.177 230.57 493.487 236.039C486.487 238.679 426.247 262.344 452.427 332.151C471.077 381.872 547.237 420.905 560.727 415.846C574.217 410.787 605.906 331.232 587.297 281.621H587.287Z" class="fa-secondary"/><path d="M621.936 127.516C587.375 146.035 549.369 160.977 509.205 172.438L531.143 231.41C531.141 231.41 531.141 231.41 531.139 231.41C522.852 230.344 515.03 230.852 508.403 231.988C508.358 231.996 508.322 232 508.278 232.008C505.028 232.57 502.069 233.238 499.518 233.949C499.41 233.977 499.332 234.008 499.227 234.035C496.758 234.734 494.602 235.441 492.994 236.039C492.344 236.281 491.119 236.777 489.664 237.406C489.572 237.445 489.526 237.461 489.43 237.508C484.655 239.582 476.506 243.746 468.403 250.629L444.862 187.336C414.864 192.734 383.969 196.07 352.436 197.484V263.027C337.504 256.609 323.283 256.035 319.996 256.035C313.664 256.035 300.735 257.195 287.565 262.891V197.484C256.031 196.07 225.137 192.734 195.139 187.336L172.225 251.211C172.223 251.211 172.223 251.211 172.221 251.211C163.942 244.016 155.51 239.68 150.602 237.531C150.58 237.523 150.569 237.516 150.547 237.508C148.983 236.828 147.678 236.297 146.996 236.039C145.444 235.457 143.362 234.773 140.996 234.094C140.842 234.047 140.731 234.012 140.572 233.969C138.172 233.293 135.403 232.66 132.373 232.113C132.151 232.074 131.951 232.035 131.729 231.996C128.621 231.461 125.264 231.07 121.69 230.898C121.533 230.891 121.379 230.887 121.223 230.883C117.543 230.719 113.701 230.801 109.721 231.266L130.795 172.438C90.631 160.977 52.625 146.039 18.065 127.516C0.723 118.227 -5.353 96.234 5.231 79.57C14.383 65.172 33.088 59.629 48.03 67.773C123.93 109.141 219.201 131.586 319.99 131.586H320.01C420.799 131.586 516.071 109.141 591.971 67.773C606.912 59.629 625.617 65.168 634.77 79.57C645.354 96.234 639.278 118.227 621.936 127.516Z" class="fa-primary"/></svg>