<svg xmlns="http://www.w3.org/2000/svg" viewBox="0 0 576 512"><!-- Font Awesome Pro 6.0.0-alpha2 by @fontawesome - https://fontawesome.com License - https://fontawesome.com/license (Commercial License) --><defs><style>.fa-secondary{opacity:.4}</style></defs><path d="M0.395 224H63.838C63.838 224 138.597 320 288.005 320S512.171 224 512.171 224H575.605C576.698 233.531 575.56 243.289 571.716 252.398C546.496 312.25 470.275 448 324.702 448H251.298C105.725 448 29.504 312.25 4.284 252.398C0.44 243.289 -0.698 233.531 0.395 224Z" class="fa-secondary"/><path d="M63.444 224H0C0.891 216.227 3.182 208.586 7.38 201.664C53.878 124.598 155.881 64 199.564 64C199.564 64 228.949 64 287.606 109C346.263 64 375.646 64 375.646 64C419.331 64 521.333 124.598 567.83 201.664C572.028 208.586 574.319 216.227 575.211 224H511.777C511.777 224 455.735 192 371.673 192L340.696 200.875C324.169 205.5 305.999 208 287.61 208S251.052 205.5 234.524 200.875L203.548 192C119.485 192 63.444 224 63.444 224Z" class="fa-primary"/></svg>