<svg xmlns="http://www.w3.org/2000/svg" viewBox="0 0 512 512"><!-- Font Awesome Pro 6.0.0-alpha2 by @fontawesome - https://fontawesome.com License - https://fontawesome.com/license (Commercial License) --><defs><style>.fa-secondary{opacity:.4}</style></defs><path d="M128 280H384C397.254 280 408 269.254 408 256C408 242.744 397.254 232 384 232H128C114.746 232 104 242.744 104 256C104 269.254 114.746 280 128 280ZM384 328H128C114.746 328 104 338.744 104 352C104 365.254 114.746 376 128 376H384C397.254 376 408 365.254 408 352C408 338.744 397.254 328 384 328Z" class="fa-secondary"/><path d="M448 32H64C28.654 32 0 60.652 0 96V416C0 451.346 28.654 480 64 480H448C483.346 480 512 451.346 512 416V96C512 60.652 483.346 32 448 32ZM360.02 96H440.029C447.154 96 450.717 104.625 445.654 109.625L405.65 149.631C402.523 152.756 397.523 152.756 394.398 149.631L354.395 109.625C349.705 105 352.207 96 360.02 96ZM448 416H64V192H448V416Z" class="fa-primary"/></svg>