<svg xmlns="http://www.w3.org/2000/svg" viewBox="0 0 512 512"><!-- Font Awesome Pro 6.0.0-alpha2 by @fontawesome - https://fontawesome.com License - https://fontawesome.com/license (Commercial License) --><defs><style>.fa-secondary{opacity:.4}</style></defs><path d="M192 128H480C497.674 128 512 113.674 512 96S497.674 64 480 64H192C174.326 64 160 78.326 160 96S174.326 128 192 128ZM480 384H192C174.326 384 160 398.326 160 416S174.326 448 192 448H480C497.674 448 512 433.674 512 416S497.674 384 480 384ZM480 224H192C174.326 224 160 238.326 160 256S174.326 288 192 288H480C497.674 288 512 273.674 512 256S497.674 224 480 224Z" class="fa-secondary"/><path d="M80 48H16C7.156 48 0 55.156 0 64V128C0 136.844 7.156 144 16 144H80C88.844 144 96 136.844 96 128V64C96 55.156 88.844 48 80 48ZM80 208H16C7.156 208 0 215.156 0 224V288C0 296.844 7.156 304 16 304H80C88.844 304 96 296.844 96 288V224C96 215.156 88.844 208 80 208ZM80 368H16C7.156 368 0 375.156 0 384V448C0 456.844 7.156 464 16 464H80C88.844 464 96 456.844 96 448V384C96 375.156 88.844 368 80 368Z" class="fa-primary"/></svg>