<svg xmlns="http://www.w3.org/2000/svg" viewBox="0 0 384 512"><!-- Font Awesome Pro 6.0.0-alpha2 by @fontawesome - https://fontawesome.com License - https://fontawesome.com/license (Commercial License) --><defs><style>.fa-secondary{opacity:.4}</style></defs><path d="M192 0C86.375 0 0 86.369 0 191.988C0 268.732 25.625 291.232 172.75 502.344C182.375 515.219 201.625 515.219 211.25 502.344C358.375 291.232 384 268.732 384 191.988C384 86.369 297.625 0 192 0ZM168 104C168 90.75 178.75 80 192 80S216 90.75 216 104V216C216 229.25 205.25 240 192 240S168 229.25 168 216V104ZM192 336C174.328 336 160 321.672 160 304C160 286.326 174.328 272 192 272S224 286.326 224 304C224 321.672 209.672 336 192 336Z" class="fa-secondary"/><path d="M192 240C205.25 240 216 229.25 216 216V104C216 90.75 205.25 80 192 80S168 90.75 168 104V216C168 229.25 178.75 240 192 240ZM192 272C174.328 272 160 286.326 160 304C160 321.672 174.328 336 192 336S224 321.672 224 304C224 286.326 209.672 272 192 272Z" class="fa-primary"/></svg>