<svg xmlns="http://www.w3.org/2000/svg" viewBox="0 0 384 512"><!-- Font Awesome Pro 6.0.0-alpha2 by @fontawesome - https://fontawesome.com License - https://fontawesome.com/license (Commercial License) --><defs><style>.fa-secondary{opacity:.4}</style></defs><path d="M192 0C86.375 0 0 86.37 0 191.988C0 268.734 25.625 291.232 172.75 502.344C182.375 515.219 201.625 515.219 211.25 502.344C358.375 291.232 384 268.734 384 191.988C384 86.37 297.625 0 192 0ZM192 351.978C174.375 351.978 160 337.604 160 319.98C160 302.357 174.375 287.982 192 287.982S224 302.357 224 319.98C224 337.604 209.625 351.978 192 351.978ZM218.625 238.735V240.11C218.625 248.86 211.625 255.984 202.875 255.984H186.5C177.75 255.984 170.625 248.86 170.625 240.11V223.986C170.625 214.862 175.875 206.612 184 202.488C214.625 187.239 234.625 175.989 234.625 159.99C234.625 140.616 220.625 119.993 194.625 119.993C176.75 119.993 161.5 131.867 156.5 148.116C154.375 154.991 148.375 159.99 141.125 159.99H124.25C113.999 159.99 106.625 150.491 108.875 140.491C117.75 101.244 152.875 71.996 194.625 71.996C249.75 71.996 282.625 116.743 282.625 159.99C282.625 200.988 249.875 222.486 218.625 238.735Z" class="fa-secondary"/><path d="M191.531 287.984C173.906 287.984 159.531 302.359 159.531 319.98S173.906 351.977 191.531 351.977S223.531 337.602 223.531 319.98S209.156 287.984 191.531 287.984ZM194.156 71.996C152.406 71.996 117.281 101.242 108.406 140.492C106.156 150.492 113.531 159.992 123.781 159.992H140.656C147.906 159.992 153.906 154.992 156.031 148.117C161.031 131.867 176.281 119.992 194.156 119.992C220.156 119.992 234.156 140.617 234.156 159.992C234.156 175.988 214.156 187.238 183.531 202.488C175.406 206.613 170.156 214.859 170.156 223.984V240.109C170.156 248.859 177.281 255.984 186.031 255.984H202.406C211.156 255.984 218.156 248.859 218.156 240.109V238.734C249.406 222.484 282.156 200.988 282.156 159.992C282.156 116.742 249.281 71.996 194.156 71.996Z" class="fa-primary"/></svg>