<svg xmlns="http://www.w3.org/2000/svg" viewBox="0 0 640 512"><!-- Font Awesome Pro 6.0.0-alpha2 by @fontawesome - https://fontawesome.com License - https://fontawesome.com/license (Commercial License) --><defs><style>.fa-secondary{opacity:.4}</style></defs><path d="M319.876 0.004C249.043 0.004 187.498 38.578 154.234 95.67L244.46 166.384C255.201 134.865 284.759 111.998 319.876 111.998C364.001 111.998 399.876 147.873 399.876 191.997C399.876 220.258 385.089 245.012 362.9 259.215L456.942 332.925C500.821 267.722 511.876 240.594 511.876 192.001C511.876 85.971 425.907 0.004 319.876 0.004ZM300.158 501.668C309.689 515.434 330.064 515.434 339.595 501.668C363.632 466.825 384.153 437.556 402.128 411.947L128 197.091C129.252 270.363 158.168 295.847 300.158 501.668Z" class="fa-secondary"/><path d="M630.811 469.102L38.814 5.109C34.407 1.672 29.189 0 24.032 0C16.907 0 9.845 3.156 5.126 9.187C-3.061 19.625 -1.249 34.718 9.189 42.89L601.186 506.883C611.686 515.086 626.749 513.211 634.874 502.805C643.061 492.367 641.249 477.274 630.811 469.102Z" class="fa-primary"/></svg>