<svg xmlns="http://www.w3.org/2000/svg" viewBox="0 0 448 512"><!-- Font Awesome Pro 6.0.0-alpha2 by @fontawesome - https://fontawesome.com License - https://fontawesome.com/license (Commercial License) --><defs><style>.fa-secondary{opacity:.4}</style></defs><path d="M372 160H304C266.898 160 236.18 187.172 227.18 224H220.703C211.828 187.172 181.223 160 144 160H76C69.375 160 64 165.375 64 172V202.75C64 249.75 99.75 288 144 288H166.375C159 300.25 153.875 311.5 150.625 320.875C119.75 325.5 96 351.875 96 384C96 419.5 125.375 448 160.875 448H287C322.5 448 351.875 419.5 351.875 384C351.875 351.875 328.25 325.5 297.25 320.875C294 311.375 288.875 300.25 281.5 288H304C348.25 288 384 249.75 384 202.75V172C384 165.375 378.625 160 372 160ZM224 266.75C244.25 286.625 255.875 305.25 262.75 320H185.25C192.125 305.25 203.75 286.625 224 266.75ZM144 256C117.5 256 96 232.125 96 202.75V192H144C170.5 192 192 215.875 192 245.25V256H144ZM288 352C305.625 352 320 366.375 320 384S305.625 416 288 416H160C142.375 416 128 401.625 128 384S142.375 352 160 352H288ZM352 202.75C352 232.125 330.5 256 304 256H256.047C256.188 256.188 256.312 256.375 256 256V245.25C256 215.875 277.5 192 304 192H352V202.75Z" class="fa-secondary"/><path d="M224 0C100.289 0 0 100.289 0 224V320C0 426.039 85.961 512 192 512H256C362.039 512 448 426.039 448 320V224C448 100.289 347.711 0 224 0ZM384 202.75C384 249.75 348.25 288 304 288H281.5C288.875 300.25 294 311.375 297.25 320.875C328.25 325.5 351.875 351.875 351.875 384C351.875 419.5 322.5 448 287 448H160.875C125.375 448 96 419.5 96 384C96 351.875 119.75 325.5 150.625 320.875C153.875 311.5 159 300.25 166.375 288H144C99.75 288 64 249.75 64 202.75V172C64 165.375 69.375 160 76 160H144C181.223 160 211.828 187.172 220.703 224H227.18C236.18 187.172 266.898 160 304 160H372C378.625 160 384 165.375 384 172V202.75Z" class="fa-primary"/></svg>