<svg xmlns="http://www.w3.org/2000/svg" viewBox="0 0 512 512"><!-- Font Awesome Pro 6.0.0-alpha2 by @fontawesome - https://fontawesome.com License - https://fontawesome.com/license (Commercial License) --><defs><style>.fa-secondary{opacity:.4}</style></defs><path d="M216.251 340.593L54.609 502.603C42.117 515.13 21.855 515.13 9.359 502.615C-3.12 490.111 -3.12 469.655 9.359 457.155L171.021 295.227C182.359 313.731 197.792 329.217 216.251 340.593Z" class="fa-secondary"/><path d="M500.123 209.438L419.369 183.816C405.776 138.783 370.244 103.725 325.022 91.049L297.699 10.688C295.514 4.172 291.83 1.049 288 0C284.17 1.049 280.487 4.172 278.301 10.688L250.979 91.049C205.756 103.725 170.225 138.783 156.631 183.816L75.877 209.438C60.131 214.428 59.996 227.91 75.742 233.166L155.824 260.541C168.475 305.845 203.469 341.443 248.422 355.062L273.994 435.963C276.903 445.179 282.631 448.396 288 446.909C293.369 448.396 299.098 445.179 302.006 435.963L327.578 355.062C372.531 341.443 407.526 305.845 420.176 260.541L500.258 233.166C516.004 227.91 515.869 214.428 500.123 209.438ZM288 255.52C270.375 255.52 256 241.118 256 223.46S270.375 191.401 288 191.401S320 205.802 320 223.46S305.625 255.52 288 255.52Z" class="fa-primary"/></svg>