<svg xmlns="http://www.w3.org/2000/svg" viewBox="0 0 512 512"><!-- Font Awesome Pro 6.0.0-alpha2 by @fontawesome - https://fontawesome.com License - https://fontawesome.com/license (Commercial License) --><defs><style>.fa-secondary{opacity:.4}</style></defs><path d="M208 0C93.125 0 0 93.125 0 208S93.125 416 208 416S416 322.875 416 208S322.875 0 208 0ZM288.002 232H127.998C114.73 232 104 221.258 104 208S114.738 184 127.998 184H288.002C301.262 184 312 194.742 312 208S301.262 232 288.002 232Z" class="fa-secondary"/><path d="M500.285 443.715L380.623 324.055C365.594 346.359 346.361 365.594 324.053 380.625L443.717 500.281C459.338 515.906 484.664 515.906 500.285 500.281C515.904 484.664 515.904 459.336 500.285 443.715ZM288.002 184H127.998C114.738 184 104 194.742 104 208S114.73 232 127.998 232H288.002C301.262 232 312 221.258 312 208S301.262 184 288.002 184Z" class="fa-primary"/></svg>