<svg xmlns="http://www.w3.org/2000/svg" viewBox="0 0 448 512"><!-- Font Awesome Pro 6.0.0-alpha2 by @fontawesome - https://fontawesome.com License - https://fontawesome.com/license (Commercial License) --><defs><style>.fa-secondary{opacity:.4}</style></defs><path d="M240 304C240 339.346 211.346 368 176 368S112 339.346 112 304S140.654 240 176 240S240 268.654 240 304Z" class="fa-secondary"/><path d="M431.971 32H319.399C297.979 32 287.25 57.852 302.397 72.971L332.008 102.527L275.357 159.076C245.332 138.418 210.322 128.076 175.328 128.076C127.338 128.074 79.367 147.518 44.26 186.465C-16.598 253.977 -14.394 361.467 49.008 426.603C83.656 462.199 129.584 480 175.51 480C220.633 480 265.756 462.816 300.184 428.451C361.289 367.457 368.039 272.896 320.693 204.33L377.346 147.783L406.955 177.34C411.854 182.228 417.875 184.416 423.783 184.416C436.145 184.416 448 174.836 448 160.369V48C448 39.162 440.824 32 431.971 32ZM243.514 371.881C224.766 390.594 200.133 399.953 175.51 399.953C150.879 399.953 126.256 390.598 107.504 371.881C70.006 334.451 70.006 273.549 107.504 236.117C126.254 217.402 150.881 208.045 175.51 208.043C200.137 208.043 224.764 217.4 243.514 236.117C281.012 273.547 281.012 334.451 243.514 371.881Z" class="fa-primary"/></svg>