<svg xmlns="http://www.w3.org/2000/svg" viewBox="0 0 640 512"><!-- Font Awesome Pro 6.0.0-alpha2 by @fontawesome - https://fontawesome.com License - https://fontawesome.com/license (Commercial License) --><defs><style>.fa-secondary{opacity:.4}</style></defs><path d="M23.6 135.487C-7.583 166.657 -7.896 217.682 22.85 249.227L91.279 319.434C97.88 326.208 104.877 332.533 112.026 338.658V294.901L45.785 226.922C27.162 207.833 27.35 176.943 46.222 158.088C64.367 139.992 93.638 139.479 112.849 156.092C114.397 144.474 121.699 134.763 132.258 130.57C100.475 104.455 53.083 106.032 23.6 135.487ZM616.4 135.487C586.948 106.018 539.529 104.467 507.744 130.57C518.301 134.763 525.603 144.474 527.151 156.092C546.36 139.479 575.604 139.961 593.778 158.088C612.65 176.943 612.838 207.833 594.215 226.938L527.974 294.901V338.658C535.123 332.533 542.12 326.208 548.721 319.434L617.15 249.242C647.896 217.682 647.583 166.657 616.4 135.487Z" class="fa-secondary"/><path d="M496.156 107.665L479.934 107.562C462.051 107.446 444.592 102.099 429.717 92.179L387.457 64C346.601 36.755 293.346 36.755 252.49 64L209.751 92.499C195.189 102.21 178.097 107.444 160.588 107.558L143.791 107.665C126.199 107.778 112 122.056 112 139.631V318.224C169.549 367.586 243.819 395.566 319.974 395.566S470.398 367.586 527.947 318.224V139.631C527.947 122.056 513.748 107.778 496.156 107.665ZM399.963 315.651H239.984C231.141 315.651 223.986 308.502 223.986 299.668S231.141 283.684 239.984 283.684H399.963C408.806 283.684 415.961 290.833 415.961 299.668S408.806 315.651 399.963 315.651ZM431.959 251.718H207.988C199.145 251.718 191.99 244.569 191.99 235.735C191.99 226.901 199.145 219.752 207.988 219.752H431.959C440.802 219.752 447.957 226.901 447.957 235.735C447.957 244.569 440.802 251.718 431.959 251.718ZM431.959 187.786H207.988C199.145 187.786 191.99 180.637 191.99 171.802S199.145 155.819 207.988 155.819H431.959C440.802 155.819 447.957 162.968 447.957 171.802S440.802 187.786 431.959 187.786Z" class="fa-primary"/></svg>