<svg xmlns="http://www.w3.org/2000/svg" viewBox="0 0 512 512"><!-- Font Awesome Pro 6.0.0-alpha2 by @fontawesome - https://fontawesome.com License - https://fontawesome.com/license (Commercial License) --><defs><style>.fa-secondary{opacity:.4}</style></defs><path d="M448 0H64C28.75 0 0 28.748 0 63.994V351.971C0 387.219 28.75 415.967 64 415.967H160V499.959C160 509.709 171.25 515.459 179.125 509.709L304 415.967H448C483.25 415.967 512 387.219 512 351.971V63.994C512 28.748 483.25 0 448 0ZM350.621 224.969L270.621 304.969C261.246 314.344 246.059 314.344 236.684 304.969L156.684 224.969C147.309 215.594 147.309 200.406 156.684 191.031C161.371 186.344 167.496 184 173.652 184S185.934 186.344 190.621 191.031L229.652 230.063V128C229.652 114.75 240.402 104 253.652 104S277.652 114.75 277.652 128V230.062L316.684 191.031C326.059 181.656 341.246 181.656 350.621 191.031S359.996 215.594 350.621 224.969Z" class="fa-secondary"/><path d="M350.969 224.969L270.969 304.969C261.594 314.344 246.406 314.344 237.031 304.969L157.031 224.969C147.656 215.594 147.656 200.406 157.031 191.031C161.719 186.344 167.844 184 174 184S186.281 186.344 190.969 191.031L230 230.063V128C230 114.75 240.75 104 254 104S278 114.75 278 128V230.062L317.031 191.031C326.406 181.656 341.594 181.656 350.969 191.031S360.344 215.594 350.969 224.969Z" class="fa-primary"/></svg>