<svg xmlns="http://www.w3.org/2000/svg" viewBox="0 0 512 512"><!-- Font Awesome Pro 6.0.0-alpha2 by @fontawesome - https://fontawesome.com License - https://fontawesome.com/license (Commercial License) --><defs><style>.fa-secondary{opacity:.4}</style></defs><path d="M448 0H64C28.75 0 0 28.748 0 63.994V351.971C0 387.219 28.75 415.967 64 415.967H160V499.959C160 509.709 171.25 515.459 179.125 509.709L304 415.967H448C483.25 415.967 512 387.219 512 351.971V63.994C512 28.748 483.25 0 448 0ZM320.025 112C337.773 112 352.021 126.25 352.021 144S337.773 176 320.025 176S288.029 161.75 288.029 144S302.277 112 320.025 112ZM192.043 112C209.791 112 224.039 126.25 224.039 144S209.791 176 192.043 176S160.047 161.75 160.047 144S174.295 112 192.043 112ZM362.27 271.25C335.773 302.25 297.154 320 256.033 320C214.914 320 176.295 302.25 149.799 271.25C141.299 261.25 142.299 246.125 152.424 237.5C162.422 229 177.67 230.125 186.293 240.25C203.541 260.375 228.912 272 256.033 272C283.156 272 308.527 260.375 325.775 240.25C334.398 230.125 349.521 228.875 359.52 237.5C369.645 246.125 370.77 261.25 362.27 271.25Z" class="fa-secondary"/><path d="M319.965 176C337.713 176 351.961 161.75 351.961 144S337.713 112 319.965 112S287.968 126.25 287.968 144S302.216 176 319.965 176ZM191.982 176C209.73 176 223.978 161.75 223.978 144S209.73 112 191.982 112S159.986 126.25 159.986 144S174.234 176 191.982 176ZM359.459 237.5C349.461 228.875 334.338 230.125 325.715 240.25C308.466 260.375 283.095 272 255.972 272C228.851 272 203.48 260.375 186.232 240.25C177.609 230.125 162.361 229 152.363 237.5C142.238 246.125 141.238 261.25 149.738 271.25C176.234 302.25 214.853 320 255.972 320C297.093 320 335.713 302.25 362.209 271.25C370.709 261.25 369.584 246.125 359.459 237.5Z" class="fa-primary"/></svg>