<svg xmlns="http://www.w3.org/2000/svg" viewBox="0 0 640 512"><!-- Font Awesome Pro 6.0.0-alpha2 by @fontawesome - https://fontawesome.com License - https://fontawesome.com/license (Commercial License) --><defs><style>.fa-secondary{opacity:.4}</style></defs><path d="M352 0H64C28.75 0 0 28.748 0 63.994V256.004C0 291.25 28.75 320 64 320L96 320.018V374.264C96 382.262 105.125 386.887 111.5 382.139L194.25 320.018L352 319.875C387.25 320 416 291.25 416 256.004V63.994C416 28.748 387.25 0 352 0ZM208.471 268.471C194.707 268.471 184 257.764 184 244C184 230.234 194.707 219.529 208.471 219.529C222.236 219.529 232.941 230.234 232.941 244C232.941 257.764 222.236 268.471 208.471 268.471ZM261.999 158.941L226.824 180.352V181.881C226.824 191.822 218.412 200.234 208.471 200.234S190.119 191.822 190.119 181.881V169.646C190.119 163.529 193.178 157.412 199.295 153.588L242.883 127.588C248.236 124.529 251.295 119.176 251.295 113.059C251.295 103.881 243.646 96.234 234.471 96.234H194.707C185.529 96.234 177.883 103.881 177.883 113.059C177.883 123 169.471 131.412 159.531 131.412C149.59 131.412 141.178 123 141.178 113.059C141.178 83.234 164.883 59.529 194.707 59.529H234.471C264.295 59.529 288 83.234 288 113.059C288 131.412 278.059 149 261.999 158.941Z" class="fa-secondary"/><path d="M234.293 96.234C243.469 96.234 251.117 103.881 251.117 113.059C251.117 119.176 248.059 124.529 242.705 127.588L199.117 153.588C193 157.412 189.941 163.529 189.941 169.646V181.881C189.941 191.822 198.352 200.234 208.293 200.234S226.646 191.822 226.646 181.881V180.352L261.822 158.941C277.881 149 287.822 131.412 287.822 113.059C287.822 83.234 264.117 59.529 234.293 59.529H194.529C164.705 59.529 141 83.234 141 113.059C141 123 149.412 131.412 159.354 131.412C169.293 131.412 177.705 123 177.705 113.059C177.705 103.881 185.352 96.234 194.529 96.234H234.293ZM575.822 128H447.822V256C447.822 308.871 404.697 351.992 351.822 351.992H255.822V383.969C255.822 419.215 284.572 447.963 319.822 447.963H445.572L528.322 510.082C534.697 514.832 543.822 510.207 543.822 502.209V447.963H575.822C611.072 447.963 639.822 419.215 639.822 383.969V191.994C639.822 156.748 611.072 128 575.822 128ZM208.293 219.529C194.529 219.529 183.822 230.234 183.822 244C183.822 257.764 194.529 268.471 208.293 268.471C222.059 268.471 232.764 257.764 232.764 244C232.764 230.234 222.059 219.529 208.293 219.529Z" class="fa-primary"/></svg>