<svg xmlns="http://www.w3.org/2000/svg" viewBox="0 0 512 512"><!-- Font Awesome Pro 6.0.0-alpha2 by @fontawesome - https://fontawesome.com License - https://fontawesome.com/license (Commercial License) --><defs><style>.fa-secondary{opacity:.4}</style></defs><path d="M448 0H64C28.75 0 0 28.748 0 63.994V351.971C0 387.219 28.75 415.967 64 415.967H160V499.959C160 509.709 171.25 515.459 179.125 509.709L304 415.967H448C483.25 415.967 512 387.219 512 351.971V63.994C512 28.748 483.25 0 448 0ZM336 231.998H280V288.002C280 301.262 269.258 312 256 312C242.734 312 232 301.258 232 288.002V231.998H176C162.73 231.998 152 221.256 152 208C152 194.742 162.738 184.002 176 184.002H232V127.998C232 114.738 242.742 104 256 104S280 114.738 280 127.998V184.002H336C349.262 184.002 360 194.742 360 208S349.262 231.998 336 231.998Z" class="fa-secondary"/><path d="M360 208C360 221.258 349.262 231.998 336.002 231.998H279.998V288.002C279.998 301.262 269.258 312 256 312C242.734 312 232.002 301.258 232.002 288.002V231.998H175.998C162.73 231.998 152 221.256 152 208C152 194.742 162.738 184.002 175.998 184.002H232.002V127.998C232.002 114.738 242.742 104 256 104S279.998 114.738 279.998 127.998V184.002H336.002C349.262 184.002 360 194.742 360 208Z" class="fa-primary"/></svg>