<svg xmlns="http://www.w3.org/2000/svg" viewBox="0 0 576 512"><!-- Font Awesome Pro 6.0.0-alpha2 by @fontawesome - https://fontawesome.com License - https://fontawesome.com/license (Commercial License) --><defs><style>.fa-secondary{opacity:.4}</style></defs><path d="M416 352H96V128H416V352Z" class="fa-secondary"/><path d="M528 32H48C21.5 32 0 53.5 0 80V400C0 426.5 21.5 448 48 448L72 480H120L144 448H432L456 480H504L528 448C554.5 448 576 426.5 576 400V80C576 53.5 554.5 32 528 32ZM416 352H96V128H416V352ZM496 264C482.75 264 472 253.25 472 240S482.75 216 496 216S520 226.75 520 240S509.25 264 496 264ZM496 168C482.75 168 472 157.25 472 144S482.75 120 496 120S520 130.75 520 144S509.25 168 496 168Z" class="fa-primary"/></svg>