<svg xmlns="http://www.w3.org/2000/svg" viewBox="0 0 448 512"><!-- Font Awesome Pro 6.0.0-alpha2 by @fontawesome - https://fontawesome.com License - https://fontawesome.com/license (Commercial License) --><defs><style>.fa-secondary{opacity:.4}</style></defs><path d="M352.014 384H64C46.398 384 32 398.4 32 416V480C32 497.6 46.398 512 64 512H352.014C369.613 512 384.014 497.6 384.014 480V416C384.014 398.4 369.613 384 352.014 384Z" class="fa-secondary"/><path d="M425.021 206.877C397.769 184.252 357.517 187.877 334.892 215.127L314.017 240.127L284.39 111.752C266.388 34.252 189.011 -14.246 111.632 3.752C34.255 21.627 -14.247 98.877 3.753 176.377L63.999 384H351.999L433.146 297.002C455.773 269.752 452.146 229.502 425.021 206.877Z" class="fa-primary"/></svg>