<svg xmlns="http://www.w3.org/2000/svg" viewBox="0 0 384 512"><!-- Font Awesome Pro 6.0.0-alpha2 by @fontawesome - https://fontawesome.com License - https://fontawesome.com/license (Commercial License) --><defs><style>.fa-secondary{opacity:.4}</style></defs><path d="M288 0H96C51.818 0 16 35.816 16 80V432C16 476.182 51.818 512 96 512H288C332.184 512 368 476.182 368 432V80C368 35.816 332.184 0 288 0ZM304 432C304 440.822 296.822 448 288 448H96C87.178 448 80 440.822 80 432V80C80 71.178 87.178 64 96 64H128V80C128 88.836 135.164 96 144 96H240C248.838 96 256 88.836 256 80V64H288C296.822 64 304 71.178 304 80V432Z" class="fa-secondary"/><path d="M288 64H256V80C256 88.836 248.838 96 240 96H144C135.164 96 128 88.836 128 80V64H96C87.178 64 80 71.178 80 80V432C80 440.822 87.178 448 96 448H288C296.822 448 304 440.822 304 432V80C304 71.178 296.822 64 288 64ZM240 416H144C135.164 416 128 408.836 128 400C128 391.162 135.164 384 144 384H240C248.838 384 256 391.162 256 400C256 408.836 248.838 416 240 416Z" class="fa-primary"/></svg>