<svg xmlns="http://www.w3.org/2000/svg" viewBox="0 0 640 512"><!-- Font Awesome Pro 6.0.0-alpha2 by @fontawesome - https://fontawesome.com License - https://fontawesome.com/license (Commercial License) --><defs><style>.fa-secondary{opacity:.4}</style></defs><path d="M576.309 480H456.027C500.404 480 527.271 430.979 503.396 393.572L410 247.234L410.006 247.105L450.252 184.045C462.834 164.334 491.613 164.334 504.193 184.045L630.248 381.557C657.439 424.162 626.844 480 576.309 480Z" class="fa-secondary"/><path d="M279.934 44.217L502.899 393.572C526.773 430.98 499.906 480 455.53 480H56.287C11.91 480 -14.957 430.98 8.917 393.572L231.882 44.217C242.247 27.968 269.29 27.947 279.819 44.038C279.835 44.061 279.921 44.196 279.934 44.217Z" class="fa-primary"/></svg>