<svg xmlns="http://www.w3.org/2000/svg" viewBox="0 0 640 512"><!-- Font Awesome Pro 6.0.0-alpha2 by @fontawesome - https://fontawesome.com License - https://fontawesome.com/license (Commercial License) --><defs><style>.fa-secondary{opacity:.4}</style></defs><path d="M192 356.893C181.945 353.915 171.281 351.995 160 351.995C106.98 351.995 64 387.81 64 431.993C64 476.174 106.98 511.992 160 511.992S255.999 476.174 255.999 431.993V297.318L192 247.156V356.893ZM543.998 0C541.279 0 536.967 0.656 534.373 1.484L214.406 95.973C202.429 99.748 192.783 112.723 192.21 125.336L301.194 210.757L511.998 148.992V292.894C501.944 289.915 491.28 287.996 479.998 287.996C457.852 287.996 437.831 294.622 421.635 305.154L558.695 412.578C569.279 399.822 575.998 384.699 575.998 367.994V31.97C575.967 14.328 561.654 0 543.998 0Z" class="fa-secondary"/><path d="M634.874 502.805C626.749 513.211 611.686 515.086 601.186 506.883L9.189 42.89C-1.249 34.718 -3.061 19.625 5.126 9.187C9.845 3.156 16.907 0 24.032 0C29.189 0 34.407 1.672 38.814 5.109L630.811 469.102C641.249 477.274 643.061 492.367 634.874 502.805Z" class="fa-primary"/></svg>