<svg xmlns="http://www.w3.org/2000/svg" viewBox="0 0 640 512"><!-- Font Awesome Pro 6.0.0-alpha2 by @fontawesome - https://fontawesome.com License - https://fontawesome.com/license (Commercial License) --><defs><style>.fa-secondary{opacity:.4}</style></defs><path d="M467.124 6.325C459.124 0.323 448.624 -1.552 438.999 1.323L342.374 29.826C329.124 33.951 319.999 46.328 319.999 60.328V225.497L383.999 275.658V148.086L456.999 126.709C470.624 122.71 479.999 110.208 479.999 95.956V31.951C479.999 21.824 475.249 12.325 467.124 6.325ZM272 351.995C210.144 351.995 160 387.811 160 431.993S210.144 511.992 272 511.992S383.999 476.176 383.999 431.993S333.855 351.995 272 351.995Z" class="fa-secondary"/><path d="M630.811 469.102L38.814 5.11C34.407 1.672 29.189 0.001 24.032 0.001C16.907 0.001 9.845 3.157 5.126 9.188C-3.061 19.625 -1.249 34.719 9.189 42.891L601.186 506.883C611.686 515.086 626.749 513.211 634.874 502.805C643.061 492.367 641.249 477.274 630.811 469.102Z" class="fa-primary"/></svg>