<svg xmlns="http://www.w3.org/2000/svg" viewBox="0 0 640 512"><!-- Font Awesome Pro 6.0.0-alpha2 by @fontawesome - https://fontawesome.com License - https://fontawesome.com/license (Commercial License) --><defs><style>.fa-secondary{opacity:.4}</style></defs><path d="M608 256V416H624C632.838 416 640 423.164 640 432V496C640 504.836 632.838 512 624 512H560C551.164 512 544 504.836 544 496V480H288V496C288 504.836 280.838 512 272 512H208C199.164 512 192 504.836 192 496V432C192 423.164 199.164 416 208 416H224V352H288V416H544V256H477.082C472.238 242.42 461.592 231.561 448 226.742V192H544V176C544 167.164 551.164 160 560 160H624C632.838 160 640 167.164 640 176V240C640 248.836 632.838 256 624 256H608Z" class="fa-secondary"/><path d="M432 96C440.838 96 448 88.836 448 80V16C448 7.164 440.838 0 432 0H368C359.164 0 352 7.164 352 16V32H96V16C96 7.164 88.838 0 80 0H16C7.164 0 0 7.164 0 16V80C0 88.836 7.164 96 16 96H32V256H16C7.164 256 0 263.164 0 272V336C0 344.836 7.164 352 16 352H80C88.838 352 96 344.836 96 336V320H352V336C352 344.836 359.164 352 368 352H432C440.838 352 448 344.836 448 336V272C448 263.164 440.838 256 432 256H416V96H432ZM352 256H96V96H352V256Z" class="fa-primary"/></svg>