<svg xmlns="http://www.w3.org/2000/svg" viewBox="0 0 512 512"><!-- Font Awesome Pro 6.0.0-alpha2 by @fontawesome - https://fontawesome.com License - https://fontawesome.com/license (Commercial License) --><defs><style>.fa-secondary{opacity:.4}</style></defs><path d="M482.758 157.094L354.789 29.242C346.352 20.805 334.984 16 323.031 16H188.852C177.016 16 165.531 20.805 157.094 29.242L29.242 157.211C20.805 165.648 16 177.016 16 188.969V323.148C16 334.984 20.805 346.469 29.242 354.906L157.211 482.758C165.648 491.195 177.016 496 188.969 496H323.148C334.984 496 346.469 491.195 354.906 482.758L482.758 354.789C491.195 346.352 496 334.984 496 323.031V188.852C496 177.016 491.195 165.531 482.758 157.094ZM336.969 303.029C346.344 312.404 346.344 327.592 336.969 336.967C327.588 346.348 312.404 346.34 303.031 336.967L256 289.936L208.969 336.967C199.588 346.348 184.404 346.34 175.031 336.967C165.656 327.592 165.656 312.404 175.031 303.029L222.062 255.998L175.031 208.969C165.656 199.594 165.656 184.406 175.031 175.031S199.594 165.656 208.969 175.031L256 222.062L303.031 175.031C312.406 165.656 327.594 165.656 336.969 175.031S346.344 199.594 336.969 208.969L289.938 255.998L336.969 303.029Z" class="fa-secondary"/><path d="M289.938 255.999L336.969 208.968C346.344 199.593 346.344 184.406 336.969 175.031S312.406 165.656 303.031 175.031L256 222.062L208.969 175.031C199.594 165.656 184.406 165.656 175.031 175.031S165.656 199.593 175.031 208.968L222.062 255.999L175.031 303.03C165.656 312.405 165.656 327.592 175.031 336.967C184.404 346.34 199.588 346.348 208.969 336.967L256 289.936L303.031 336.967C312.404 346.34 327.588 346.348 336.969 336.967C346.344 327.592 346.344 312.405 336.969 303.03L289.938 255.999Z" class="fa-primary"/></svg>