<svg xmlns="http://www.w3.org/2000/svg" viewBox="0 0 384 512"><!-- Font Awesome Pro 6.0.0-alpha2 by @fontawesome - https://fontawesome.com License - https://fontawesome.com/license (Commercial License) --><defs><style>.fa-secondary{opacity:.4}</style></defs><path d="M372.598 256H11.402C4.266 276.057 0 297.479 0 320C0 342.477 4.062 363.955 11.16 384H372.84C379.938 363.955 384 342.477 384 320C384 297.479 379.734 276.057 372.598 256ZM191.938 96C174.443 96 159.949 81.5 159.949 64S174.443 32 191.938 32S223.928 46.5 223.928 64S209.432 96 191.938 96H247.045C252.543 86.625 255.918 75.75 255.918 64C255.918 28.75 227.176 0 191.938 0S127.959 28.75 127.959 64C127.959 75.75 131.332 86.625 136.83 96H191.938Z" class="fa-secondary"/><path d="M287.84 153.896V112C287.84 103.164 280.678 96 271.84 96H111.84C103.004 96 95.84 103.164 95.84 112V153.896C56.686 176.576 26.615 212.799 11.242 256H372.437C357.064 212.799 326.994 176.576 287.84 153.896ZM11 384C37.385 458.523 108.277 512 191.84 512S346.295 458.523 372.68 384H11Z" class="fa-primary"/></svg>