<svg xmlns="http://www.w3.org/2000/svg" viewBox="0 0 640 512"><!-- Font Awesome Pro 6.0.0-alpha2 by @fontawesome - https://fontawesome.com License - https://fontawesome.com/license (Commercial License) --><defs><style>.fa-secondary{opacity:.4}</style></defs><path d="M638.016 112C630.363 157.363 591.165 192 543.628 192H520.752L428.251 241.75L393 171.25L511.627 112H638.016Z" class="fa-secondary"/><path d="M607.999 32H575.999L562.737 18.738C550.739 6.74 534.465 0 517.498 0H496.998C485.788 0 474.777 2.926 465.046 8.488L311.995 96H255.994C149.953 96 63.988 181.961 63.988 288V289.625C63.988 322.314 48.133 351.74 24.583 374.41C6.292 392.018 -3.624 418.023 1.224 446.162C7.917 485.016 44.062 512 83.491 512H191.993C209.618 512 223.993 497.625 223.993 480S209.618 448 191.993 448H79.991C71.116 448 63.99 440.875 63.99 432S71.116 416 79.991 416H303.994C312.87 416 319.995 408.875 319.995 400C319.995 373.6 298.393 352 271.994 352H223.993L373.496 271.5L447.997 416H527.998C536.873 416 543.998 408.875 543.998 400C543.998 373.6 522.396 352 495.998 352H483.747L393.371 171.25L511.998 112H638.387C639.27 106.77 640 101.48 640 96V64C640 46.4 625.599 32 607.999 32ZM511.998 80C503.123 80 495.998 72.875 495.998 64S503.123 48 511.998 48C520.873 48 527.998 55.125 527.998 64S520.873 80 511.998 80Z" class="fa-primary"/></svg>