<svg xmlns="http://www.w3.org/2000/svg" viewBox="0 0 512 512"><!-- Font Awesome Pro 6.0.0-alpha2 by @fontawesome - https://fontawesome.com License - https://fontawesome.com/license (Commercial License) --><defs><style>.fa-secondary{opacity:.4}</style></defs><path d="M512 255.999C512 268.795 504.375 280.374 492.594 285.405L44.595 477.405C40.533 479.155 36.252 479.999 32.002 479.999C23.377 479.999 14.908 476.499 8.721 469.952C-0.498 460.186 -2.623 445.702 3.377 433.686L77.035 286.37L384 255.999L77.035 225.627L3.377 78.311C-2.623 66.295 -0.498 51.811 8.721 42.045C17.971 32.28 32.283 29.295 44.595 34.592L492.594 226.592C504.375 231.624 512 243.202 512 255.999Z" class="fa-secondary"/><path d="M383.966 255.999L77 286.37V257.014V225.627L383.966 255.999Z" class="fa-primary"/></svg>