<svg xmlns="http://www.w3.org/2000/svg" viewBox="0 0 512 512"><!-- Font Awesome Pro 6.0.0-alpha2 by @fontawesome - https://fontawesome.com License - https://fontawesome.com/license (Commercial License) --><defs><style>.fa-secondary{opacity:.4}</style></defs><path d="M287.58 240.615L410.16 340.184C399.824 359.121 386.045 375.873 369.762 389.783L287.58 322.584V428.953C277.189 430.865 266.523 432 255.58 432S233.971 430.865 223.58 428.953V322.584L141.398 389.783C125.115 375.873 111.336 359.121 101 340.184L223.58 240.615V83.047C233.971 81.135 244.637 80 255.58 80S277.189 81.135 287.58 83.047V240.615Z" class="fa-secondary"/><path d="M256 16C123.451 16 16 123.451 16 256S123.451 496 256 496S496 388.549 496 256S388.549 16 256 16ZM256 432C158.799 432 80 353.201 80 256S158.799 80 256 80S432 158.799 432 256S353.201 432 256 432Z" class="fa-primary"/></svg>