<svg xmlns="http://www.w3.org/2000/svg" viewBox="0 0 512 512"><!-- Font Awesome Pro 6.0.0-alpha2 by @fontawesome - https://fontawesome.com License - https://fontawesome.com/license (Commercial License) --><defs><style>.fa-secondary{opacity:.4}</style></defs><path d="M512 272C512 426.596 270.35 507.496 256 512C256 512 0 437.064 0 272C0 183.637 77.602 112.004 173.33 112C255.434 112 330.672 172.383 330.672 256C330.672 264.844 337.828 272 346.672 272S362.672 264.844 362.672 256C362.672 200.279 334.59 150.619 290.979 118.348C306.156 114.34 322.094 112 338.668 112C434.396 112 512 183.635 512 272Z" class="fa-secondary"/><path d="M146.637 81.814C167.703 79.24 207.115 76.986 251.396 95.703C282.857 87.395 314.648 75.615 365.365 81.813C386.262 67.379 400 43.316 400 16V0H336C291.816 0 256 35.816 256 80C256 35.816 204.184 0 160 0H112V16C112 43.318 125.74 67.381 146.637 81.814Z" class="fa-primary"/></svg>