<svg xmlns="http://www.w3.org/2000/svg" viewBox="0 0 640 512"><!-- Font Awesome Pro 6.0.0-alpha2 by @fontawesome - https://fontawesome.com License - https://fontawesome.com/license (Commercial License) --><defs><style>.fa-secondary{opacity:.4}</style></defs><path d="M158 275.958C105.508 328.451 72.387 397.314 64.139 471.054V471.304C62.514 486.552 75.387 499.425 90.635 497.8C164.498 489.675 233.363 456.556 285.981 403.939L340.455 349.464L196.961 236.998L158 275.958ZM258.61 39.619L189.221 108.933L227.27 138.755L286.856 79.234L320.789 113.167L265.354 168.603L408.848 281.072L482.701 207.218L315.102 39.619C299.479 23.996 274.233 23.996 258.61 39.619ZM561.94 60.115L501.824 0C483.076 -18.749 452.58 -18.749 433.834 0L377.342 56.615L505.322 184.597L561.94 128.105C580.688 109.357 580.688 78.863 561.94 60.115Z" class="fa-secondary"/><path d="M24.032 0C29.189 0 34.407 1.672 38.814 5.109L630.811 469.102C641.249 477.274 643.061 492.367 634.874 502.805C626.749 513.211 611.686 515.086 601.186 506.883L9.189 42.89C-1.249 34.718 -3.061 19.625 5.126 9.187C9.845 3.156 16.907 0 24.032 0Z" class="fa-primary"/></svg>