<svg xmlns="http://www.w3.org/2000/svg" viewBox="0 0 576 512"><!-- Font Awesome Pro 6.0.0-alpha2 by @fontawesome - https://fontawesome.com License - https://fontawesome.com/license (Commercial License) --><defs><style>.fa-secondary{opacity:.4}</style></defs><path d="M562.406 368.4C533.98 365.408 507.643 352.877 491.871 333.689C485.42 325.838 473.787 327.174 467.123 334.846C428.029 379.842 335.92 378.697 300.02 333.689C297.023 329.932 292.486 328.037 287.986 327.998C283.486 328.037 278.977 329.932 275.98 333.689C269.979 341.213 262.023 347.047 253.391 352.109C251.549 353.191 249.613 354.156 247.693 355.139C204.482 376.754 140.039 370.713 108.877 334.846C102.213 327.174 90.58 325.838 84.129 333.689C68.357 352.877 42.02 365.408 13.594 368.4C5.688 369.205 0 376.162 0 384.018V416.049C0.002 425.1 7.637 432.729 16.715 431.943C45.52 429.455 72.824 420.611 96.129 406.189C152.615 440.58 232.99 440.104 287.986 406.268C342.982 440.104 423.385 440.58 479.871 406.189C503.176 420.611 530.48 429.455 559.285 431.943C568.363 432.729 575.998 425.1 576 416.049V384.018C576 376.162 570.312 369.205 562.406 368.4ZM96 96C60.654 96 32 124.652 32 160C32 195.346 60.654 224 96 224S160 195.346 160 160C160 124.652 131.346 96 96 96Z" class="fa-secondary"/><path d="M471.154 110.703L432.561 101.859C383.061 90.531 330.686 95.797 284.998 116.734C251.373 132.141 222.498 155.531 201.779 184.047L179.967 213.25C158.986 241.307 147.389 273.787 145 307.668C157.479 315.416 174.346 320.023 192.381 320.023C217.549 320.023 239.996 311.484 250.959 297.74C259.848 286.592 273.242 280.125 287.707 280L287.984 279.996L288.262 280C302.744 280.125 316.148 286.592 325.035 297.734C336 311.484 358.447 320.023 383.615 320.023C408.344 320.023 431.086 311.531 442.963 297.861C443.83 296.863 444.893 296.115 445.824 295.193L305.467 178.229C307.553 177.158 309.508 175.904 311.654 174.922C344.623 159.812 382.498 156.094 418.248 164.234L456.842 173.078C474.029 177.062 491.217 166.266 495.186 149.031C499.123 131.812 488.373 114.641 471.154 110.703Z" class="fa-primary"/></svg>