<svg xmlns="http://www.w3.org/2000/svg" viewBox="0 0 512 512"><!-- Font Awesome Pro 6.0.0-alpha2 by @fontawesome - https://fontawesome.com License - https://fontawesome.com/license (Commercial License) --><defs><style>.fa-secondary{opacity:.4}</style></defs><path d="M432.014 0C391.221 0 357.633 97.746 352.699 223.986H384.01C401.686 223.986 416.014 238.313 416.014 255.986S401.686 287.986 384.01 287.986H352.695C357.625 414.234 391.221 511.99 432.014 511.99C476.201 511.99 512.02 397.377 512.02 255.996C512.02 114.613 476.201 0 432.014 0ZM272.004 0C245.492 0 224 21.49 224 48C224 48 224 48 224 48.002C224 74.51 245.492 96 272.002 96C298.516 96 320.008 74.512 320.008 48.002S298.518 0 272.004 0Z" class="fa-secondary"/><path d="M383.99 223.986H339.957L313.893 170.736C301.391 145.189 278.422 126.518 252.107 119.799L181.039 98.656C152.873 91.83 123.131 98.133 100.158 115.799L60.529 146.205C46.506 156.957 43.854 177.041 54.607 191.064C65.359 205.088 85.445 207.738 99.471 196.986L139.16 166.58C146.818 160.689 156.6 158.58 164.412 160.439L179.102 164.814L141.66 252.207C129.068 281.789 140.318 316.123 167.975 332.52L252.92 382.693L225.48 470.412C220.184 487.254 229.545 505.201 246.389 510.498C246.398 510.5 246.408 510.504 246.418 510.508C263.242 515.822 281.188 506.494 286.504 489.674C286.518 489.629 286.533 489.582 286.547 489.537L318.174 388.475C324.074 367.541 315.213 345.25 296.547 334.082L235.293 297.939L266.607 219.658L286.891 261.098C294.996 277.506 311.686 287.918 329.986 287.988H383.99C401.666 287.988 415.994 273.66 415.994 255.986C415.994 238.314 401.666 223.986 383.99 223.986ZM113.658 317.473L98.846 351.988H31.965C14.291 352.01 -0.021 366.354 0 384.027C0.022 401.67 14.32 415.969 31.965 415.988H109.408C128.617 416.014 145.984 404.57 153.537 386.912L162.318 366.379L151.662 360.082C134.941 350.092 121.68 335.223 113.658 317.473Z" class="fa-primary"/></svg>