<svg xmlns="http://www.w3.org/2000/svg" viewBox="0 0 448 512"><!-- Font Awesome Pro 6.0.0-alpha2 by @fontawesome - https://fontawesome.com License - https://fontawesome.com/license (Commercial License) --><defs><style>.fa-secondary{opacity:.4}</style></defs><path d="M445.223 486.969L327.924 314.351C324.922 318.88 321.277 323.003 316.805 326.351C312.391 329.669 307.506 332.04 302.373 333.658L418.785 504.969C421.879 509.516 426.91 511.969 432.004 511.969C435.129 511.969 438.254 511.078 441.004 509.203C448.316 504.234 450.191 494.281 445.223 486.969ZM144 96C170.51 96 192 74.51 192 48S170.51 0 144 0S96 21.49 96 48S117.49 96 144 96Z" class="fa-secondary"/><path d="M96.011 348.061L64.98 472.234C60.667 489.391 71.105 506.766 88.261 511.047C90.855 511.703 93.48 512 96.042 512C110.386 512 123.417 502.297 127.042 487.766L149.087 399.588L96.011 346.5V348.061ZM313.587 268.797L236.81 166.375C218.781 142.344 190.062 128 160.001 128H135.566C98.974 128 66.07 148.328 49.697 181.062L3.386 273.688C-4.518 289.5 1.886 308.719 17.699 316.625C22.292 318.922 27.167 320 31.978 320C43.728 320 55.009 313.531 60.634 302.312L96.011 231.553V287.998C96.011 296.482 99.386 304.623 105.386 310.623L192.011 397.25V480C192.011 497.672 206.324 512 224.011 512S256.011 497.672 256.011 480V397.25C256.011 380.154 249.355 364.092 237.261 351.998L192.021 306.758V213.326L262.402 307.203C272.996 321.313 293.025 324.188 307.181 313.609C321.335 303 324.21 282.938 313.587 268.797Z" class="fa-primary"/></svg>