<svg xmlns="http://www.w3.org/2000/svg" viewBox="0 0 512 512"><!-- Font Awesome Pro 6.0.0-alpha2 by @fontawesome - https://fontawesome.com License - https://fontawesome.com/license (Commercial License) --><defs><style>.fa-secondary{opacity:.4}</style></defs><path d="M112 127.918C138.51 127.918 160 106.441 160 79.949S138.51 31.98 112 31.98S64 53.457 64 79.949S85.491 127.918 112 127.918ZM256 0H224V183.883L256 175.887V0ZM191.551 381.156H191.6C204.192 376.961 210.998 363.359 206.801 350.775S188.993 331.391 176.401 335.586L158 341.781C138.869 348.135 117.998 339.27 109.301 321.094L45.7 188.18C39.985 176.217 25.647 171.148 13.676 176.861S-3.367 196.902 2.35 208.867L66 341.781C80.707 372.307 111.6 391.723 145.5 391.75C158.051 391.75 162.45 390.85 191.551 381.156ZM488 287.816C474.762 287.854 464.039 298.57 464 311.801C463.952 325.744 455.27 338.199 442.2 343.08L111.651 465.203C99.047 469.303 92.157 482.838 96.26 495.434S113.907 514.916 126.51 510.814C127.098 510.623 127.678 510.41 128.25 510.174L458.75 388.152C490.666 376.252 511.873 345.844 512 311.801C512 298.555 501.254 287.816 488 287.816Z" class="fa-secondary"/><path d="M307.605 222.881C299.853 216.758 289.685 214.613 280.122 217.084L211.864 234.074L187.78 180.408C176.907 156.234 148.495 145.451 124.321 156.324C100.146 167.197 89.362 195.607 100.235 219.783L128.069 287.84C135.964 306.928 150.755 315.422 167.843 311.125L255.987 289.039V412.16L319.946 388.475V248.064C319.976 238.207 315.413 228.896 307.605 222.881Z" class="fa-primary"/></svg>