<svg xmlns="http://www.w3.org/2000/svg" viewBox="0 0 640 512"><!-- Font Awesome Pro 6.0.0-alpha2 by @fontawesome - https://fontawesome.com License - https://fontawesome.com/license (Commercial License) --><defs><style>.fa-secondary{opacity:.4}</style></defs><path d="M624 352H618.75C616.625 344.75 613.75 337.75 610.125 331.125L613.875 327.5C620.125 321.25 620.125 311 613.875 304.75L591.25 282.125C585 275.875 574.75 275.875 568.5 282.125L564.875 285.875C558.25 282.25 551.25 279.375 544 277.25V272C544 263.125 536.875 256 528 256H496C487.125 256 480 263.125 480 272V277.25C472.75 279.375 465.75 282.25 459.125 285.875L455.5 282.125C449.25 275.875 439.125 275.875 432.875 282.125L410.25 304.75C404 311 404 321.25 410.25 327.5L413.875 331.125C410.25 337.75 407.375 344.75 405.25 352H400C391.125 352 384 359.125 384 368V400C384 408.875 391.125 416 400 416H405.25C407.375 423.25 410.25 430.25 413.875 436.875L410.125 440.5C403.875 446.75 403.875 457 410.125 463.25L432.75 485.875C439 492.125 449.25 492.125 455.5 485.875L459.125 482.125C465.75 485.75 472.75 488.625 480 490.75V496C480 504.875 487.125 512 496 512H528C536.875 512 544 504.875 544 496V490.75C551.25 488.625 558.25 485.75 564.875 482.125L568.625 485.875C574.875 492.125 585 492.125 591.25 485.875L613.875 463.25C620.125 457 620.125 446.75 613.875 440.5L610.125 436.875C613.75 430.25 616.625 423.25 618.75 416H624C632.875 416 640 408.875 640 400V368C640 359.125 632.875 352 624 352ZM512 448C476.625 448 448 419.375 448 384S476.625 320 512 320S576 348.625 576 384S547.375 448 512 448ZM191.375 49.875L133.25 98.625C126.875 104.25 126.25 114.125 131.875 121L172.75 170.125C178.375 177 188.125 178 194.5 172.375L298.75 83.5C305.125 78 305.75 68 300.125 61.125C272 27.25 223.25 22.125 191.375 49.875ZM240 352H234.75C232.625 344.75 229.75 337.75 226.125 331.125L229.875 327.5C236.125 321.25 236.125 311 229.875 304.75L207.25 282.125C201 275.875 190.75 275.875 184.5 282.125L180.875 285.875C174.25 282.25 167.25 279.375 160 277.25V272C160 263.125 152.875 256 144 256H112C103.125 256 96 263.125 96 272V277.25C88.75 279.375 81.75 282.25 75.125 285.875L71.5 282.125C65.25 275.875 55 275.875 48.75 282.125L26.125 304.75C19.875 311 19.875 321.25 26.125 327.5L29.875 331.125C26.25 337.75 23.375 344.75 21.25 352H16C7.125 352 0 359.125 0 368V400C0 408.875 7.125 416 16 416H21.25C23.375 423.25 26.25 430.25 29.875 436.875L26.125 440.5C19.875 446.75 19.875 457 26.125 463.25L48.75 485.875C55 492.125 65.25 492.125 71.5 485.875L75.125 482.125C81.75 485.75 88.75 488.625 96 490.75V496C96 504.875 103.125 512 112 512H144C152.875 512 160 504.875 160 496V490.75C167.25 488.625 174.25 485.75 180.875 482.125L184.5 485.875C190.75 492.125 201 492.125 207.25 485.875L229.875 463.25C236.125 457 236.125 446.75 229.875 440.5L226.125 436.875C229.75 430.25 232.625 423.25 234.75 416H240C248.875 416 256 408.875 256 400V368C256 359.125 248.875 352 240 352ZM128 448C92.625 448 64 419.375 64 384S92.625 320 128 320S192 348.625 192 384S163.375 448 128 448Z" class="fa-secondary"/><path d="M399.937 96C426.437 96 447.937 74.5 447.937 48S426.437 0 399.937 0S351.937 21.5 351.937 48S373.437 96 399.937 96ZM479.937 160H427.187L355.937 103C343.937 93.375 326.812 93.625 315.187 103.625L203.187 199.625C195.562 206.25 191.437 215.875 192.062 225.875C192.562 235.875 197.812 245 206.187 250.625L287.937 305.125V416C287.937 433.625 302.312 448 319.937 448S351.937 433.625 351.937 416V288C351.937 277.25 346.562 267.375 337.687 261.375L296.312 233.75L354.562 183.875L395.937 217C401.562 221.5 408.687 224 415.937 224H479.937C497.562 224 511.937 209.625 511.937 192S497.562 160 479.937 160Z" class="fa-primary"/></svg>