<svg xmlns="http://www.w3.org/2000/svg" viewBox="0 0 512 512"><!-- Font Awesome Pro 6.0.0-alpha2 by @fontawesome - https://fontawesome.com License - https://fontawesome.com/license (Commercial License) --><defs><style>.fa-secondary{opacity:.4}</style></defs><path d="M493.894 471.9C488.287 459.889 474.003 454.693 461.988 460.299C461.986 460.299 461.986 460.299 461.984 460.301C452.72 464.666 442.089 465.135 432.476 461.6L67.576 328.9C57.919 325.426 50.064 318.219 45.771 308.9C40.164 296.889 25.876 291.693 13.861 297.301C1.845 302.906 -3.348 317.188 2.257 329.199C11.902 350.08 29.523 366.219 51.171 374L416.123 506.699C425.642 510.176 435.695 511.969 445.83 512C458.458 512.016 470.931 509.213 482.339 503.801C494.337 498.176 499.507 483.898 493.894 471.9ZM431.976 96C458.494 96 479.99 74.51 479.99 48S458.494 0 431.976 0S383.962 21.49 383.962 48S405.458 96 431.976 96Z" class="fa-secondary"/><path d="M499.273 198.4L387.841 114.9C374.08 104.582 358.746 96.545 342.429 91.1L278.712 69.9L252.605 17.799C244.554 3.158 226.591 -2.828 211.363 4.057C195.255 11.34 188.105 30.297 195.388 46.4L224.498 104.5C230.189 115.854 240.154 124.484 252.205 128.5L268.609 134L227.398 154.6C205.654 165.361 191.921 187.545 191.988 211.799V264.9L117.867 289.6C117.867 289.6 117.865 289.6 117.863 289.602C101.099 295.207 92.054 313.34 97.662 330.1C99.398 335.08 102.396 339.525 106.365 343L130.322 351.68C132.966 351.6 135.589 351.17 138.123 350.4L223.146 322C242.736 315.48 255.941 297.141 255.906 276.5V256L316.421 301.299L296.716 393.299C295.406 400.033 296.367 407.01 299.447 413.139L341.73 428.5C350.765 424.387 357.353 416.281 359.535 406.6L381.439 304.6C385.314 286.32 378.255 267.451 363.336 256.199L311.32 217.199L377.339 186.699L460.861 249.6C475.003 260.203 495.068 257.338 505.673 243.199C516.281 229.061 513.416 209.004 499.273 198.4Z" class="fa-primary"/></svg>