<svg xmlns="http://www.w3.org/2000/svg" viewBox="0 0 512 512"><!-- Font Awesome Pro 6.0.0-alpha2 by @fontawesome - https://fontawesome.com License - https://fontawesome.com/license (Commercial License) --><defs><style>.fa-secondary{opacity:.4}</style></defs><path d="M503.473 373.834C502.348 369.582 497.973 367.082 493.721 368.207L339.564 409.467C329.813 396.588 315.309 387.586 298.682 384.961L239.293 163.287C238.168 159.035 233.793 156.535 229.416 157.66L198.535 165.912C194.285 167.037 191.783 171.414 192.783 175.789L251.797 395.838C231.967 409.66 220.439 434.312 225.893 461.336C230.76 485.449 250.463 505.467 274.539 510.514C313.486 518.68 347.26 491.891 351.816 455.852L505.975 414.592C510.35 413.467 512.85 409.092 511.725 404.84L503.473 373.834ZM288.68 463.979C279.803 463.979 272.676 456.852 272.676 447.975C272.676 439.223 279.803 431.971 288.68 431.971C297.432 431.971 304.682 439.223 304.682 447.975C304.682 456.852 297.557 463.979 288.68 463.979ZM80.01 96.021C106.516 96.021 128.021 74.516 128.021 48.01S106.641 0 80.01 0C53.381 0 32 21.504 32 48.01S53.506 96.021 80.01 96.021Z" class="fa-secondary"/><path d="M0 479.982C0 497.736 14.254 511.988 32.006 511.988C49.76 511.988 64.014 497.736 64.014 479.982V405.465C48.01 391.838 0.5 350.828 0 350.328V479.982ZM140.029 344.076L96.02 306.318V228.051L118.986 271.021C124.551 281.436 135.4 287.939 147.207 287.939H222.797L205.793 223.926H166.785L133.402 162.16C122.275 141.031 100.646 127.904 76.766 127.904H48.01C21.494 127.904 0 149.398 0 175.914V278.938C0 297.691 8.252 315.32 22.379 327.572L98.395 392.713L112.523 485.232C113.523 490.859 122.65 515.865 149.281 511.488C166.785 508.613 178.537 492.109 175.662 474.73L161.533 382.211C159.033 367.332 151.406 353.828 140.029 344.076Z" class="fa-primary"/></svg>