<svg xmlns="http://www.w3.org/2000/svg" viewBox="0 0 384 512"><!-- Font Awesome Pro 6.0.0-alpha2 by @fontawesome - https://fontawesome.com License - https://fontawesome.com/license (Commercial License) --><defs><style>.fa-secondary{opacity:.4}</style></defs><path d="M0 248C0 261.25 10.75 272 24 272H32V224H24C10.75 224 0 234.75 0 248ZM360 192C373.25 192 384 181.25 384 168S373.25 144 360 144H339.773C345.703 159.117 349.666 175.195 351.189 192H360ZM0 168C0 181.25 10.75 192 24 192H32V144H24C10.75 144 0 154.75 0 168ZM360 224H351.189C349.666 240.805 345.703 256.883 339.773 272H360C373.25 272 384 261.25 384 248S373.25 224 360 224ZM112 144V192H270.383C267.279 173.674 258.975 157.244 247.031 144H112ZM112 272H247.031C258.975 258.756 267.279 242.326 270.383 224H112V272Z" class="fa-secondary"/><path d="M176 32H72C49.906 32 32 49.906 32 72V440C32 462.094 49.906 480 72 480S112 462.094 112 440V384H176C273.047 384 352 305.031 352 208S273.047 32 176 32ZM176 304H112V112H176C228.938 112 272 155.062 272 208S228.938 304 176 304Z" class="fa-primary"/></svg>