<svg xmlns="http://www.w3.org/2000/svg" viewBox="0 0 512 512"><!-- Font Awesome Pro 6.0.0-alpha2 by @fontawesome - https://fontawesome.com License - https://fontawesome.com/license (Commercial License) --><defs><style>.fa-secondary{opacity:.4}</style></defs><path d="M208.141 367.454L180.991 334.31L5 404.706L14.786 447.118L208.141 367.454ZM447.237 14.668L404.823 4.884L334.468 180.767L367.618 207.904L447.237 14.668Z" class="fa-secondary"/><path d="M180.877 334.31L163.934 313.627C155.152 302.878 140.278 299.203 127.495 304.639L18.934 351.172C5.025 357.266 -2.598 372.344 0.807 387.032L4.886 404.706L180.877 334.31ZM487.782 24.047L447.123 14.668L367.505 207.904L367.53 207.924C333.53 277.172 277.249 333.469 208.027 367.454L14.672 447.118L24.057 487.782C27.308 502.032 39.84 512 54.495 512C306.779 512 512.001 306.766 512 54.517C512.001 39.846 502.033 27.314 487.782 24.047ZM334.354 180.767L404.709 4.884L386.998 0.797C372.405 -2.576 357.249 4.999 351.25 18.907L304.747 127.391C299.217 140.171 302.936 155.188 313.717 163.875L334.354 180.767Z" class="fa-primary"/></svg>