<svg xmlns="http://www.w3.org/2000/svg" viewBox="0 0 640 512"><!-- Font Awesome Pro 6.0.0-alpha2 by @fontawesome - https://fontawesome.com License - https://fontawesome.com/license (Commercial License) --><defs><style>.fa-secondary{opacity:.4}</style></defs><path d="M26 327.632L48.189 363.086L215.758 291.365L211.682 250.413L26 327.632ZM428.654 250.463L424.564 291.412L592.033 363.09L614.225 327.636L428.654 250.463Z" class="fa-secondary"/><path d="M48.082 363.086L57.328 377.862C65.001 390.151 80.441 395.214 94.044 389.907L199.525 347.776C211.916 342.786 219.533 330.188 218.195 316.922L215.65 291.365L48.082 363.086ZM631.138 256.504C459.582 85.169 180.427 85.159 8.849 256.514C-1.118 266.468 -2.862 281.751 4.619 293.638L25.892 327.632L211.574 250.413C281.765 226.479 358.33 226.491 428.55 250.432L428.546 250.463L614.117 327.636L635.39 293.649C642.861 281.751 641.117 266.468 631.138 256.504ZM421.91 316.902C420.486 330.125 428.169 342.851 440.623 347.776L546.031 389.876C559.57 395.248 575.029 390.098 582.66 377.895L591.925 363.09L424.457 291.412L421.91 316.902Z" class="fa-primary"/></svg>