<svg xmlns="http://www.w3.org/2000/svg" viewBox="0 0 448 512"><!-- Font Awesome Pro 6.0.0-alpha2 by @fontawesome - https://fontawesome.com License - https://fontawesome.com/license (Commercial License) --><defs><style>.fa-secondary{opacity:.4}</style></defs><path d="M433.625 345.281C450.594 359.438 452.859 384.656 438.719 401.625L426.203 416.625C409.625 436.562 385.203 448 359.219 448C311.125 448 272 408.875 272 360.781V144H176V287.5C176 336.656 163.109 385.188 138.734 427.844C131.344 440.781 117.844 448 103.969 448C97.234 448 90.406 446.312 84.156 442.719C64.969 431.781 58.312 407.344 69.266 388.156C86.75 357.562 96 322.75 96 287.5V144H40C17.906 144 0 126.094 0 104S17.906 64 40 64H408C430.094 64 448 81.906 448 104S430.094 144 408 144H352V360.781C352 366.906 360.859 370.156 364.734 365.406L377.281 350.375C391.453 333.406 416.656 331.094 433.625 345.281Z" class="fa-secondary"/></svg>