<svg xmlns="http://www.w3.org/2000/svg" viewBox="0 0 640 512"><!-- Font Awesome Pro 6.0.0-alpha2 by @fontawesome - https://fontawesome.com License - https://fontawesome.com/license (Commercial License) --><defs><style>.fa-secondary{opacity:.4}</style></defs><path d="M32.488 147.881L63.988 256.004L32.488 364.127C29.957 374.221 37.582 384.002 47.988 384.002H87.988C93.02 384.002 97.769 381.627 100.801 377.596L143.988 320.003H246.863L197.832 491.594C194.894 501.813 202.582 512 213.207 512H278.706C284.425 512 289.738 508.922 292.581 503.938L362.813 381.053L41.809 129.459C34.854 132.42 30.502 139.963 32.488 147.881ZM440.559 320.003H511.987C547.33 320.003 607.986 291.347 607.986 256.004S547.33 192.005 511.987 192.005H397.706L292.613 8.07C290.05 3.617 283.831 0.008 278.706 0.008H213.207C202.582 0.008 194.894 10.18 197.832 20.398L238.095 161.318L440.559 320.003Z" class="fa-secondary"/><path d="M634.874 502.805C626.749 513.211 611.686 515.086 601.186 506.883L9.189 42.89C-1.249 34.718 -3.061 19.625 5.126 9.187C9.845 3.156 16.907 0 24.032 0C29.189 0 34.407 1.672 38.814 5.109L630.811 469.102C641.249 477.274 643.061 492.367 634.874 502.805Z" class="fa-primary"/></svg>