<svg xmlns="http://www.w3.org/2000/svg" viewBox="0 0 512 512"><!-- Font Awesome Pro 6.0.0-alpha2 by @fontawesome - https://fontawesome.com License - https://fontawesome.com/license (Commercial License) --><defs><style>.fa-secondary{opacity:.4}</style></defs><path d="M352.031 64H352C334.328 64 320 78.326 320 96V416C320 433.672 334.328 448 352 448H352.031C369.705 448 384.031 433.672 384.031 416V96C384.031 78.326 369.705 64 352.031 64ZM480.031 64H480C462.328 64 448 78.326 448 96V416C448 433.672 462.328 448 480 448H480.031C497.705 448 512.031 433.672 512.031 416V96C512.031 78.326 497.705 64 480.031 64Z" class="fa-secondary"/><path d="M52.508 71.406C31.879 54.283 0 68.656 0 96.027V415.973C0 443.344 31.879 457.715 52.508 440.594L244.531 280.621C259.781 267.748 259.781 244.252 244.531 231.379L52.508 71.406Z" class="fa-primary"/></svg>