<svg xmlns="http://www.w3.org/2000/svg" viewBox="0 0 448 512"><!-- Font Awesome Pro 6.0.0-alpha2 by @fontawesome - https://fontawesome.com License - https://fontawesome.com/license (Commercial License) --><defs><style>.fa-secondary{opacity:.4}</style></defs><path d="M368 224C368 144.471 303.529 80 224 80S80 144.471 80 224C80 268.834 100.92 308.381 133.045 334.791C137.902 322.137 147.172 308.916 165.098 299.756C165.064 299.73 165.441 299.707 165.57 299.682C142.871 282.125 128 254.92 128 224C128 170.98 170.98 128 224 128S320 170.98 320 224C320 254.918 305.129 282.125 282.43 299.682C282.561 299.707 282.937 299.73 282.904 299.756C300.83 308.916 310.098 322.137 314.955 334.791C347.08 308.381 368 268.834 368 224ZM224 0C100.289 0 0 100.289 0 224C0 316.223 55.766 395.365 135.389 429.713C131.908 408.963 129.219 388.125 128.391 371.559C80.082 340.148 48 285.793 48 224C48 126.953 126.953 48 224 48S400 126.953 400 224C400 285.795 367.918 340.148 319.607 371.559C318.773 388.055 316.066 408.924 312.572 429.73C392.215 395.393 448 316.238 448 224C448 100.289 347.713 0 224 0Z" class="fa-secondary"/><path d="M224 312C191.125 312 160 320.625 160 355.75C160 388.875 172.875 460.125 180.625 488.625C185.75 507.625 205.125 512 224 512S262.25 507.625 267.375 488.625C275.125 459.875 288 388.75 288 355.75C288 320.625 256.875 312 224 312ZM224 280C254.953 280 280 254.953 280 224S254.953 168 224 168S168 193.047 168 224S193.047 280 224 280Z" class="fa-primary"/></svg>