<svg xmlns="http://www.w3.org/2000/svg" viewBox="0 0 448 512"><!-- Font Awesome Pro 6.0.0-alpha2 by @fontawesome - https://fontawesome.com License - https://fontawesome.com/license (Commercial License) --><defs><style>.fa-secondary{opacity:.4}</style></defs><path d="M400 192L370.882 483.184C369.246 499.543 355.48 512 339.04 512H108.96C92.52 512 78.754 499.543 77.118 483.184L48 192H400Z" class="fa-secondary"/><path d="M448 168V168C448 181.255 437.255 192 424 192H24C10.745 192 0 181.255 0 168V168C0 154.745 10.745 144 24 144H79.375C86.125 90.25 125.875 46.875 177.875 35.25C183.5 15 202 0 224 0L286.197 0C309.41 0 330.699 15.686 335.083 38.481C340.982 69.152 317.613 96 288 96H224C210.75 96 198.75 90.625 190.125 82.001C158.125 88.75 133.75 113.125 127.375 144H424C437.255 144 448 154.745 448 168Z" class="fa-primary"/></svg>