<svg xmlns="http://www.w3.org/2000/svg" viewBox="0 0 640 512"><!-- Font Awesome Pro 6.0.0-alpha2 by @fontawesome - https://fontawesome.com License - https://fontawesome.com/license (Commercial License) --><defs><style>.fa-secondary{opacity:.4}</style></defs><path d="M384 173.508V90.51L357.49 64H128V192H352.879C313.713 221.166 288 267.414 288 320C288 330.98 289.197 341.662 291.342 352H128V448H352.879C379.527 467.844 412.221 480 448 480C448 497.674 433.674 512 416 512H96C78.326 512 64 497.674 64 480V384H32C14.326 384 0 369.674 0 352V256C0 220.654 28.654 192 64 192V32C64 14.328 78.344 0 96 0H370.75C379.219 0 387.375 3.375 393.375 9.375L438.625 54.625C444.625 60.625 448 68.766 448 77.25V160C425.209 160 403.623 164.92 384 173.508Z" class="fa-secondary"/><path d="M635.281 462.001L557.898 384.625C569.148 365.625 576.025 343.75 576.025 320C576.025 249.25 518.77 192 448.012 192C377.256 192 320 249.25 320 320S377.256 448 448.012 448C471.766 448 493.643 441.125 512.645 429.875L590.027 507.25C596.277 513.5 606.527 513.5 612.779 507.25L635.281 484.75C641.531 478.5 641.531 468.25 635.281 462.001ZM448.012 384C412.635 384 384.006 355.375 384.006 320S412.635 256 448.012 256C483.391 256 512.02 284.625 512.02 320S483.391 384 448.012 384Z" class="fa-primary"/></svg>