<svg xmlns="http://www.w3.org/2000/svg" viewBox="0 0 640 512"><!-- Font Awesome Pro 6.0.0-alpha2 by @fontawesome - https://fontawesome.com License - https://fontawesome.com/license (Commercial License) --><defs><style>.fa-secondary{opacity:.4}</style></defs><path d="M512 136C518.156 136 524.281 133.656 528.969 128.969L584.969 72.969C594.344 63.594 594.344 48.406 584.969 39.031S560.406 29.656 551.031 39.031L495.031 95.031C485.656 104.406 485.656 119.594 495.031 128.969C499.719 133.656 505.844 136 512 136ZM320.879 192H48C21.5 192 0 213.5 0 240V400C0 426.5 21.5 448 48 448H64L77 499.875C78.75 507 85.125 512 92.5 512H131.5C138.875 512 145.25 507 147 499.875L160 448H320.879C281.713 418.834 256 372.586 256 320S281.713 221.166 320.879 192ZM96 352C78.375 352 64 337.625 64 320S78.375 288 96 288S128 302.375 128 320S113.625 352 96 352ZM192 352C174.375 352 160 337.625 160 320S174.375 288 192 288S224 302.375 224 320S209.625 352 192 352ZM280.969 39.031C271.594 29.656 256.406 29.656 247.031 39.031S237.656 63.594 247.031 72.969L303.031 128.969C307.719 133.656 313.844 136 320 136S332.281 133.656 336.969 128.969C346.344 119.594 346.344 104.406 336.969 95.031L280.969 39.031ZM592 192H511.121C550.287 221.166 576 267.414 576 320C576 383.926 538.248 438.664 484.055 464.291L493 499.875C494.75 507 501.125 512 508.5 512H547.5C554.875 512 561.25 507 563 499.875L576 448H592C618.5 448 640 426.5 640 400V240C640 213.5 618.5 192 592 192ZM416 0C402.75 0 392 10.75 392 24V104C392 117.25 402.75 128 416 128S440 117.25 440 104V24C440 10.75 429.25 0 416 0Z" class="fa-secondary"/><path d="M416 160C327.635 160 256 231.635 256 320S327.635 480 416 480S576 408.365 576 320S504.365 160 416 160ZM416 416C362.98 416 320 373.02 320 320S362.98 224 416 224S512 266.98 512 320S469.02 416 416 416ZM96 288C78.328 288 64 302.326 64 320S78.328 352 96 352C113.674 352 128 337.674 128 320S113.674 288 96 288Z" class="fa-primary"/></svg>