<svg xmlns="http://www.w3.org/2000/svg" viewBox="0 0 512 512"><!-- Font Awesome Pro 6.0.0-alpha2 by @fontawesome - https://fontawesome.com License - https://fontawesome.com/license (Commercial License) --><defs><style>.fa-secondary{opacity:.4}</style></defs><path d="M477.569 487.52L384.007 337.85V271.999H391.357C422.645 272.014 448.02 246.662 448.034 215.375C448.043 197.07 439.205 179.888 424.308 169.249L375.657 134.499C374.557 133.959 373.387 133.759 372.277 133.289C380.077 120.799 387.487 103.529 392.817 83.629C404.138 41.389 401.898 4.079 387.817 0.309S353.146 27.719 341.816 69.999C339.231 79.565 337.29 89.294 336.006 99.119C334.733 89.295 332.809 79.567 330.246 69.999C318.915 27.719 298.325 -3.461 284.245 0.309C270.164 4.079 267.924 41.389 279.244 83.629C286.185 109.529 296.615 131.169 306.885 143.249C297.775 151.179 290.985 161.749 288.885 174.799C288.317 178.17 288.022 181.581 288.005 184.999V255.999H274.004C175.695 255.999 96 335.693 96 434V446C96 482.451 125.55 512 162.002 512H304.005C312.842 512 320.006 504.837 320.006 496V480C320.006 462.327 305.678 448 288.005 448H265.434L339.786 387.82L412.698 504.48C415.622 509.159 420.751 512.001 426.268 512H464.009C472.846 511.985 479.997 504.809 479.981 495.972C479.976 492.983 479.134 490.055 477.549 487.52H477.569ZM368.007 207.999C359.17 207.999 352.006 200.836 352.006 191.999S359.17 175.999 368.007 175.999S384.007 183.163 384.007 191.999S376.843 207.999 368.007 207.999Z" class="fa-secondary"/><path d="M96.019 434C96.007 418.882 97.919 403.825 101.709 389.19C78.061 377.207 49.177 386.663 37.194 410.31C25.211 433.957 34.667 462.84 58.314 474.823C72.216 481.867 88.672 481.724 102.449 474.44C98.198 465.563 96 455.842 96.019 446V434ZM368.025 175.999C359.188 175.999 352.025 183.163 352.025 191.999S359.188 207.999 368.025 207.999S384.026 200.836 384.026 191.999S376.862 175.999 368.025 175.999Z" class="fa-primary"/></svg>