<svg xmlns="http://www.w3.org/2000/svg" viewBox="0 0 640 512"><!-- Font Awesome Pro 6.0.0-alpha2 by @fontawesome - https://fontawesome.com License - https://fontawesome.com/license (Commercial License) --><defs><style>.fa-secondary{opacity:.4}</style></defs><path d="M11.836 420.617C-0.937 429.773 -3.771 447.536 5.29 460.078L33.853 500.044C42.95 512.896 60.752 515.686 73.102 506.956L171.227 440.405C178.655 435.367 180.481 425.213 175.272 417.909L131.229 356.148C126.121 348.986 116.18 347.288 108.98 352.348L11.836 420.617ZM485.35 63.561C378.934 63.782 306.842 153.847 290.567 204.958C269.446 271.066 304.181 317.575 374.709 317.429C458.867 317.254 545.763 250.386 569.493 176.032C590.739 110.049 556.003 63.415 485.35 63.561Z" class="fa-secondary"/><path d="M615.256 59.725C559.984 -18.077 432.309 -19.076 331.769 52.107C274.372 92.694 237.107 148.392 224.852 203.091C217.038 238.203 202.671 271.047 183.312 300.777C169.426 322.105 150.862 340.025 130 354.623L175.715 419.012L177.222 417.958C196.47 404.492 217.82 393.782 240.565 387.877C306.964 370.639 351.466 381.424 374.911 381.424C424.431 381.424 479.328 364.315 528.472 329.473C630.637 257.165 669.528 136.403 615.256 59.725ZM569.488 176.616C545.604 250.921 458.569 317.609 374.411 317.609C303.883 317.609 269.244 271.027 290.503 204.964C306.884 153.887 379.163 63.971 485.58 63.971C556.233 63.971 590.872 110.678 569.488 176.616Z" class="fa-primary"/></svg>