<svg xmlns="http://www.w3.org/2000/svg" viewBox="0 0 640 512"><!-- Font Awesome Pro 6.0.0-alpha2 by @fontawesome - https://fontawesome.com License - https://fontawesome.com/license (Commercial License) --><defs><style>.fa-secondary{opacity:.4}</style></defs><path d="M544 256C544 286.781 522.254 312.451 493.295 318.576C494.881 324.15 496 329.918 496 336C496 371.346 467.348 400 432 400C420.932 400 410.678 396.936 401.598 391.99C389.865 406.52 372.129 416 352 416C340.932 416 330.678 412.936 321.598 407.99C309.865 422.52 292.129 432 272 432S234.135 422.52 222.402 407.99C213.32 412.936 203.068 416 192 416C171.871 416 154.135 406.52 142.402 391.99C133.32 396.936 123.068 400 112 400C76.654 400 48 371.346 48 336C48 329.918 49.119 324.15 50.705 318.576C21.748 312.451 0 286.781 0 256S21.748 199.549 50.705 193.424C49.119 187.85 48 182.082 48 176C48 140.654 76.654 112 112 112C123.068 112 133.32 115.064 142.402 120.01C154.135 105.48 171.871 96 192 96C203.068 96 213.32 99.064 222.402 104.01C230.943 93.432 242.652 85.654 256.229 82.193C256.512 82.119 256.732 81.922 257.018 81.852C257.014 81.885 257.008 81.918 257.004 81.951C257.51 81.828 258.064 81.859 258.574 81.746C257.252 87.648 256.32 93.688 256.08 99.889C254.436 142.342 278.393 179.496 313.723 197.125C334.979 207.732 360 192.197 360 168.441C360 156.162 352.832 145.24 341.891 139.664C328.908 133.049 320 119.549 320 104.002C320 80.625 340.139 61.879 363.984 64.195C384.768 66.215 400 84.891 400 105.771V148.07C407.623 145.658 415.58 144 424 144C457.941 144 486.768 165.215 498.391 195.043C524.707 202.979 544 227.098 544 256Z" class="fa-secondary"/><path d="M191.965 415.999C171.836 415.999 154.1 406.519 142.367 391.989C134.152 396.464 124.871 399.071 115 399.589L153.93 496.914C157.574 506.025 166.4 512 176.213 512H199.965C213.219 512 223.965 501.254 223.965 488V409.589C223.471 409.019 222.842 408.577 222.367 407.99C213.287 412.935 203.033 415.999 191.965 415.999ZM351.965 415.999C340.897 415.999 330.643 412.935 321.563 407.99C321.088 408.577 320.459 409.019 319.965 409.589V488C319.965 501.254 330.711 512 343.965 512H367.717C377.529 512 386.356 506.025 390 496.914L428.93 399.589C419.059 399.071 409.777 396.464 401.563 391.989C389.83 406.519 372.094 415.999 351.965 415.999ZM624.309 100.757L571.203 47.651C561.18 37.628 547.586 31.997 533.41 31.997H433.73C413.975 11.698 386.607 -1.115 355.854 0.077C302.371 2.151 258.117 46.403 256.045 99.886C254.4 142.339 278.357 179.494 313.688 197.123C334.943 207.73 359.965 192.195 359.965 168.439C359.965 156.16 352.797 145.238 341.855 139.661C328.873 133.046 319.965 119.546 319.965 103.999C319.965 80.622 340.104 61.876 363.949 64.192C384.732 66.212 399.965 84.888 399.965 105.769V148.068C407.588 145.656 415.545 143.997 423.965 143.997C456.754 143.997 484.857 163.765 497.211 191.998H586.518C606.762 191.998 625.268 180.56 634.32 162.453C644.609 141.876 640.576 117.025 624.309 100.757ZM511.965 111.997C503.129 111.997 495.965 104.833 495.965 95.997S503.129 79.997 511.965 79.997C520.801 79.997 527.965 87.161 527.965 95.997S520.801 111.997 511.965 111.997Z" class="fa-primary"/></svg>