<svg xmlns="http://www.w3.org/2000/svg" viewBox="0 0 576 512"><!-- Font Awesome Pro 6.0.0-alpha2 by @fontawesome - https://fontawesome.com License - https://fontawesome.com/license (Commercial License) --><defs><style>.fa-secondary{opacity:.4}</style></defs><path d="M512 32H64C28.654 32 0 60.654 0 96V416C0 451.346 28.654 480 64 480H512C547.346 480 576 451.346 576 416V96C576 60.654 547.346 32 512 32ZM128 384C110.301 384 96 369.699 96 352C96 334.297 110.301 320 128 320S160 334.297 160 352C160 369.699 145.699 384 128 384ZM128 288C110.301 288 96 273.699 96 256C96 238.297 110.301 224 128 224S160 238.297 160 256C160 273.699 145.699 288 128 288ZM128 192C110.301 192 96 177.699 96 160C96 142.297 110.301 128 128 128S160 142.297 160 160C160 177.699 145.699 192 128 192ZM480 352C480 365.255 469.255 376 456 376H216C202.745 376 192 365.255 192 352V352C192 338.745 202.745 328 216 328H456C469.255 328 480 338.745 480 352V352ZM480 256C480 269.255 469.255 280 456 280H216C202.745 280 192 269.255 192 256V256C192 242.745 202.745 232 216 232H456C469.255 232 480 242.745 480 256V256ZM480 160C480 173.255 469.255 184 456 184H216C202.745 184 192 173.255 192 160V160C192 146.745 202.745 136 216 136H456C469.255 136 480 146.745 480 160V160Z" class="fa-secondary"/><path d="M456 328H216C202.746 328 192 338.746 192 352S202.746 376 216 376H456C469.254 376 480 365.254 480 352S469.254 328 456 328ZM456 232H216C202.746 232 192 242.746 192 256S202.746 280 216 280H456C469.254 280 480 269.254 480 256S469.254 232 456 232ZM216 184H456C469.254 184 480 173.254 480 160S469.254 136 456 136H216C202.746 136 192 146.746 192 160S202.746 184 216 184Z" class="fa-primary"/></svg>