<svg xmlns="http://www.w3.org/2000/svg" viewBox="0 0 512 512"><!-- Font Awesome Pro 6.0.0-alpha2 by @fontawesome - https://fontawesome.com License - https://fontawesome.com/license (Commercial License) --><defs><style>.fa-secondary{opacity:.4}</style></defs><path d="M304 216.375C304 229.813 293.062 240.719 279.625 240.719H224V192H279.625C293.062 192 304 202.938 304 216.375ZM496 256C496 388.578 388.582 496 256 496C123.42 496 16 388.578 16 256S123.42 16 256 16C388.582 16 496 123.422 496 256ZM328.461 289.902C352.256 274.055 368 247.039 368 216.375C368 167.656 328.344 128 279.625 128H192C174.312 128 160 142.312 160 160V352C160 369.688 174.312 384 192 384S224 369.688 224 352V304.719H264.744L293.188 365.562C298.656 377.188 310.156 384 322.219 384C326.75 384 331.375 383.031 335.75 380.969C351.75 373.5 358.656 354.437 351.188 338.437L328.461 289.902Z" class="fa-secondary"/><path d="M328.461 289.902C352.256 274.055 368 247.039 368 216.375C368 167.656 328.344 128 279.625 128H192C174.312 128 160 142.312 160 160V352C160 369.688 174.312 384 192 384S224 369.688 224 352V304.719H264.744L293.188 365.562C298.656 377.188 310.156 384 322.219 384C326.75 384 331.375 383.031 335.75 380.969C351.75 373.5 358.656 354.437 351.188 338.437L328.461 289.902ZM279.625 240.719H224V192H279.625C293.062 192 304 202.938 304 216.375S293.062 240.719 279.625 240.719Z" class="fa-primary"/></svg>