<svg xmlns="http://www.w3.org/2000/svg" viewBox="0 0 640 512"><!-- Font Awesome Pro 6.0.0-alpha2 by @fontawesome - https://fontawesome.com License - https://fontawesome.com/license (Commercial License) --><defs><style>.fa-secondary{opacity:.4}</style></defs><path d="M496 320C409.266 320 337.352 257.199 322.836 174.625C292.049 170.441 258.887 168.465 223.998 168.064V88.018C223.998 67.346 199.717 56.549 184.311 69.846L8.309 221.846C-2.785 231.408 -2.754 248.596 8.309 258.158L184.311 410.158C199.686 423.455 223.998 412.705 223.998 392.002V304.08C379.092 306.314 445.938 344.814 400.594 489.83C395.563 505.924 415 518.393 428.656 508.455C472.406 476.643 512 415.768 512 354.33C512 341.77 510.83 330.312 509.148 319.336C504.791 319.658 500.439 320 496 320Z" class="fa-secondary"/><path d="M496 0C416.375 0 352 64.375 352 144S416.375 288 496 288S640 223.625 640 144S575.625 0 496 0ZM544 160H489.75C484.375 160 480 155.625 480 150.25V80C480 71.164 487.164 64 496 64C504.838 64 512 71.164 512 80V128H544C552.838 128 560 135.164 560 144S552.838 160 544 160Z" class="fa-primary"/></svg>