<svg xmlns="http://www.w3.org/2000/svg" viewBox="0 0 512 512"><!-- Font Awesome Pro 6.0.0-alpha2 by @fontawesome - https://fontawesome.com License - https://fontawesome.com/license (Commercial License) --><defs><style>.fa-secondary{opacity:.4}</style></defs><path d="M471.999 344H160.104V280C160.104 270.453 154.444 261.812 145.687 258C136.933 254.188 126.741 255.922 119.749 262.406L7.679 366.406C-2.56 375.906 -2.56 392.094 7.679 401.594L119.749 505.594C126.741 512.078 136.933 513.812 145.687 510C154.444 506.188 160.104 497.547 160.104 488V424H471.999C494.093 424 511.999 406.094 511.999 384S494.093 344 471.999 344Z" class="fa-secondary"/><path d="M40 168H351.895V232C351.895 241.547 357.555 250.188 366.312 254C375.066 257.812 385.258 256.078 392.25 249.594L504.32 145.594C514.559 136.094 514.559 119.906 504.32 110.406L392.25 6.406C385.258 -0.078 375.066 -1.812 366.312 1.996C357.555 5.812 351.895 14.453 351.895 24V88H40C17.906 88 0 105.906 0 128S17.906 168 40 168Z" class="fa-primary"/></svg>