<svg xmlns="http://www.w3.org/2000/svg" viewBox="0 0 512 512"><!-- Font Awesome Pro 6.0.0-alpha2 by @fontawesome - https://fontawesome.com License - https://fontawesome.com/license (Commercial License) --><defs><style>.fa-secondary{opacity:.4}</style></defs><path d="M96 480H160C177.673 480 192 465.673 192 448V448C192 430.327 177.673 416 160 416H96C78.327 416 64 401.673 64 384V128C64 110.327 78.327 96 96 96H160C177.673 96 192 81.673 192 64V64C192 46.327 177.673 32 160 32H96C42.981 32 0 74.981 0 128V384C0 437.019 42.981 480 96 480Z" class="fa-secondary"/><path d="M504.73 273.451L360.629 409.451C353.654 416.029 343.428 417.826 334.625 414.045C325.822 410.248 320.115 401.576 320.115 391.998V319.998H192.023C174.336 319.998 160 305.672 160 287.998V223.998C160 206.326 174.336 191.998 192.023 191.998H320.115V119.998C320.115 110.42 325.822 101.748 334.625 97.951C343.428 94.17 353.654 95.967 360.629 102.545L504.73 238.545C514.332 247.607 514.332 264.389 504.73 273.451Z" class="fa-primary"/></svg>