<svg xmlns="http://www.w3.org/2000/svg" viewBox="0 0 576 512"><!-- Font Awesome Pro 6.0.0-alpha2 by @fontawesome - https://fontawesome.com License - https://fontawesome.com/license (Commercial License) --><defs><style>.fa-secondary{opacity:.4}</style></defs><path d="M304 384H272C263.164 384 256 391.164 256 400V480H320V400C320 391.164 312.838 384 304 384ZM304 192H272C263.164 192 256 199.164 256 208V304C256 312.836 263.164 320 272 320H304C312.838 320 320 312.836 320 304V208C320 199.164 312.838 192 304 192ZM256 32V112C256 120.836 263.164 128 272 128H304C312.838 128 320 120.836 320 112V32H256Z" class="fa-secondary"/><path d="M573.163 415.855L447.448 63.855C440.626 44.752 422.53 32 402.245 32H319.999V112C319.999 120.836 312.837 128 303.999 128H271.999C263.163 128 255.999 120.836 255.999 112V32H173.755C153.47 32 135.374 44.752 128.552 63.855L2.837 415.855C-8.327 447.115 14.847 480 48.04 480H255.999V400C255.999 391.164 263.163 384 271.999 384H303.999C312.837 384 319.999 391.164 319.999 400V480H527.958C561.153 480 584.327 447.115 573.163 415.855ZM319.999 304C319.999 312.836 312.837 320 303.999 320H271.999C263.163 320 255.999 312.836 255.999 304V208C255.999 199.164 263.163 192 271.999 192H303.999C312.837 192 319.999 199.164 319.999 208V304Z" class="fa-primary"/></svg>