<svg xmlns="http://www.w3.org/2000/svg" viewBox="0 0 512 512"><!-- Font Awesome Pro 6.0.0-alpha2 by @fontawesome - https://fontawesome.com License - https://fontawesome.com/license (Commercial License) --><defs><style>.fa-secondary{opacity:.4}</style></defs><path d="M502.625 457.379L449.66 404.418L426.746 427.334C420.523 433.555 410.342 433.555 404.119 427.334C397.895 421.109 397.896 410.928 404.119 404.703L427.031 381.791L369.658 324.422L346.748 347.334C340.523 353.555 330.344 353.557 324.119 347.334C317.895 341.109 317.896 330.928 324.119 324.703L347.027 301.795L289.654 244.426L266.748 267.334C260.525 273.555 250.342 273.557 244.121 267.334C237.896 261.109 237.896 250.928 244.121 244.705L267.025 221.799L209.65 164.43L186.746 187.334C180.525 193.555 170.342 193.557 164.121 187.334C157.895 181.109 157.896 170.928 164.121 164.705L187.023 141.803L129.648 84.434L106.748 107.334C100.525 113.555 90.342 113.557 84.121 107.334C77.896 101.111 77.898 90.928 84.121 84.705L107.02 61.807L54.625 9.416C45.453 0.228 31.703 -2.553 19.75 2.478C7.797 7.416 0 19.103 0 32.039V480.002C0 497.689 14.328 512 32 512H480C492.938 512 504.609 504.219 509.562 492.252C514.516 480.283 511.781 466.535 502.625 457.379ZM128 384.01V256.021L256 384.01H128Z" class="fa-secondary"/><path d="M426.578 381.791L403.666 404.703C397.443 410.928 397.441 421.109 403.666 427.334C409.888 433.555 420.07 433.555 426.293 427.334L449.207 404.418L426.578 381.791ZM163.668 164.705C157.443 170.928 157.441 181.109 163.668 187.334C169.888 193.557 180.072 193.555 186.293 187.334L209.197 164.43L186.57 141.803L163.668 164.705ZM83.668 84.705C77.445 90.928 77.443 101.111 83.668 107.334C89.888 113.557 100.072 113.555 106.295 107.334L129.195 84.434L106.566 61.807L83.668 84.705ZM243.668 244.705C237.443 250.928 237.443 261.109 243.668 267.334C249.888 273.557 260.072 273.555 266.295 267.334L289.201 244.426L266.572 221.799L243.668 244.705ZM323.666 324.703C317.443 330.928 317.441 341.109 323.666 347.334C329.89 353.557 340.07 353.555 346.295 347.334L369.205 324.422L346.574 301.795L323.666 324.703Z" class="fa-primary"/></svg>