<svg xmlns="http://www.w3.org/2000/svg" viewBox="0 0 640 512"><!-- Font Awesome Pro 6.0.0-alpha2 by @fontawesome - https://fontawesome.com License - https://fontawesome.com/license (Commercial License) --><defs><style>.fa-secondary{opacity:.4}</style></defs><path d="M144 384C108.654 384 80 412.654 80 448S108.654 512 144 512C179.348 512 208 483.346 208 448S179.348 384 144 384ZM496 384C460.654 384 432 412.654 432 448S460.654 512 496 512C531.348 512 560 483.346 560 448S531.348 384 496 384ZM621.129 269.254L562.891 211.002C550.893 199 534.521 192.25 517.523 192.25L416 192L415.932 396.154C432.949 369.727 462.209 352 496 352C537.744 352 572.904 378.805 586.125 416.014H608.006C625.629 416.014 640 401.639 640 384.014V314.504C639.875 297.504 633.127 281.254 621.129 269.254ZM480 288.004V240.002H517.4C521.648 240.002 525.648 241.752 528.646 244.752L572.014 288.004H480Z" class="fa-secondary"/><path d="M511.9 32.002H383.926V16C383.926 7.25 376.678 0 367.928 0H239.953C231.205 0 223.957 7.25 223.957 16V32.002H63.988C28.744 32.002 0 60.752 0 96.004V293.51C0 310.51 6.75 326.762 18.746 338.762L68.873 388.898C86.451 366.592 113.395 352 144 352C185.697 352 220.83 378.744 234.086 415.889H383.926V160.006H575.889C593.76 160.006 608.006 145.254 607.881 127.254C607.506 74.627 564.641 32.002 511.9 32.002ZM255.951 208.008C255.951 216.758 248.701 224.008 239.953 224.008H111.979C103.23 224.008 95.982 216.758 95.982 208.008V144.004C95.982 135.254 103.23 128.004 111.979 128.004H239.953C248.701 128.004 255.951 135.254 255.951 144.004V208.008Z" class="fa-primary"/></svg>