<svg xmlns="http://www.w3.org/2000/svg" viewBox="0 0 512 512"><!-- Font Awesome Pro 6.0.0-alpha2 by @fontawesome - https://fontawesome.com License - https://fontawesome.com/license (Commercial License) --><defs><style>.fa-secondary{opacity:.4}</style></defs><path d="M192.001 96H320.023L367.407 24.875C370.657 20 371.032 13.625 368.282 8.5C365.405 3.25 360.03 0 354.153 0H157.995C151.993 0 146.618 3.25 143.868 8.5C140.991 13.625 141.366 20 144.618 24.875L192.001 96ZM320.023 128H192.001C-10.409 243.375 0.093 396.625 0.093 416C0.093 469 49.226 512 109.737 512H402.288C462.923 512 511.931 469 511.931 416C511.931 397 521.308 242.75 320.023 128ZM327.064 367.828C322.925 391.707 305.29 407.84 280.064 413.568V424C280.064 437.25 269.314 448 256.064 448S232.064 437.25 232.064 424V412.598C222.536 410.379 213.116 407.344 204.626 404.281L199.97 402.625C187.501 398.188 180.939 384.469 185.376 371.984S203.501 352.984 216.032 357.375L220.876 359.125C229.689 362.297 239.657 365.891 247.376 367.047C264.345 369.766 278.564 366.438 279.751 359.656C280.564 354.953 281.064 352.109 249.376 343.047L242.876 341.172C224.689 335.812 176.437 321.625 184.97 272.156C189.12 248.254 206.776 232.229 232.064 226.52V216C232.064 202.75 242.814 192 256.064 192S280.064 202.75 280.064 216V227.252C285.98 228.617 292.298 230.348 299.876 232.984C312.407 237.328 319.032 251 314.689 263.531C310.314 276.047 296.564 282.719 284.126 278.328C275.907 275.469 269.501 273.703 264.532 272.922C247.626 270.344 233.47 273.547 232.282 280.344C231.564 284.406 231.001 287.641 256.407 295.109L262.595 296.906C288.126 304.203 335.689 317.812 327.064 367.828Z" class="fa-secondary"/><path d="M320 96H192C183.164 96 176 103.164 176 112S183.164 128 192 128H320C328.838 128 336 120.836 336 112S328.838 96 320 96ZM262.596 296.906L256.408 295.109C231.002 287.641 231.564 284.406 232.283 280.344C233.471 273.547 247.627 270.344 264.533 272.922C269.502 273.703 275.908 275.469 284.127 278.328C296.564 282.719 310.314 276.047 314.689 263.531C319.033 251 312.408 237.328 299.877 232.984C292.299 230.348 285.98 228.617 280.064 227.252V216C280.064 202.75 269.314 192 256.064 192S232.064 202.75 232.064 216V226.52C206.777 232.229 189.121 248.254 184.971 272.156C176.438 321.625 224.689 335.813 242.877 341.172L249.377 343.047C281.064 352.109 280.564 354.953 279.752 359.656C278.564 366.438 264.346 369.766 247.377 367.047C239.658 365.891 229.689 362.297 220.877 359.125L216.033 357.375C203.502 352.984 189.814 359.5 185.377 371.984S187.502 398.188 199.971 402.625L204.627 404.281C213.117 407.344 222.537 410.379 232.064 412.598V424C232.064 437.25 242.814 448 256.064 448S280.064 437.25 280.064 424V413.568C305.291 407.84 322.926 391.707 327.064 367.828C335.689 317.812 288.127 304.203 262.596 296.906Z" class="fa-primary"/></svg>