<svg xmlns="http://www.w3.org/2000/svg" viewBox="0 0 640 512"><!-- Font Awesome Pro 6.0.0-alpha2 by @fontawesome - https://fontawesome.com License - https://fontawesome.com/license (Commercial License) --><defs><style>.fa-secondary{opacity:.4}</style></defs><path d="M635.247 68.749L607.997 41.374C601.997 35.374 593.872 31.999 585.372 31.999H538.497C521.497 31.999 505.247 38.749 493.247 50.749L209.999 333.998C200.874 342.998 186.499 343.873 176.499 335.998C166.374 328.123 163.749 313.998 170.249 302.998L246.374 175.998H271.999C280.874 175.998 287.998 168.873 287.998 159.998V143.998C287.998 135.124 280.874 127.999 271.999 127.999H16C7.125 127.999 0 135.124 0 143.998V159.998C0 168.873 7.125 175.998 16 175.998H27.5C18.625 207.873 0 280.123 0 319.998C0 381.373 35 434.122 85.75 460.872C108.374 473.622 133.999 480.122 159.999 479.997C237.124 479.997 276.499 428.622 287.998 415.997L534.372 107.999C540.497 100.374 549.622 95.999 559.372 95.999H623.997C638.247 95.999 645.372 78.749 635.247 68.749ZM95.999 343.998C82.75 343.998 72 333.248 72 319.998C72 306.748 82.75 295.998 95.999 295.998S119.999 306.748 119.999 319.998C119.999 333.248 109.249 343.998 95.999 343.998ZM127.999 247.998C114.749 247.998 103.999 237.248 103.999 223.998C103.999 210.748 114.749 199.998 127.999 199.998S151.999 210.748 151.999 223.998C151.999 237.248 141.249 247.998 127.999 247.998Z" class="fa-secondary"/><path d="M128 199.998C114.75 199.998 104 210.748 104 223.998C104 237.248 114.75 247.998 128 247.998S152 237.248 152 223.998C152 210.748 141.25 199.998 128 199.998ZM96 295.998C82.75 295.998 72 306.748 72 319.998C72 333.248 82.75 343.998 96 343.998S120 333.248 120 319.998C120 306.748 109.25 295.998 96 295.998ZM367.998 132.624L356.748 143.998C350.499 150.248 350.499 160.373 356.748 166.623L366.998 176.998L400.998 142.998L390.623 132.624C384.373 126.374 374.248 126.374 367.998 132.624ZM319.999 180.623L308.749 191.998C302.499 198.248 302.499 208.373 308.749 214.623L318.999 224.998L352.999 190.998L342.624 180.623C336.374 174.373 326.249 174.373 319.999 180.623ZM438.623 84.749C432.373 78.499 422.248 78.499 415.998 84.749L404.748 95.999C398.498 102.249 398.498 112.374 404.748 118.624L414.998 128.999L448.998 94.999L438.623 84.749Z" class="fa-primary"/></svg>