<svg xmlns="http://www.w3.org/2000/svg" viewBox="0 0 448 512"><!-- Font Awesome Pro 6.0.0-alpha2 by @fontawesome - https://fontawesome.com License - https://fontawesome.com/license (Commercial License) --><defs><style>.fa-secondary{opacity:.4}</style></defs><path d="M216.84 414.199L192 401V496C192 504.836 199.164 512 208 512H240C248.836 512 256 504.836 256 496V401L231.129 414.199C226.668 416.6 221.301 416.6 216.84 414.199ZM224 0C170.98 0 128 42.98 128 96S170.98 192 224 192S320 149.02 320 96S277.02 0 224 0ZM192 96C183.164 96 176 88.836 176 80S183.164 64 192 64S208 71.164 208 80S200.836 96 192 96ZM256 112C247.164 112 240 104.836 240 96S247.164 80 256 80S272 87.164 272 96S264.836 112 256 112Z" class="fa-secondary"/><path d="M255.997 112C264.833 112 271.997 104.836 271.997 96S264.833 80 255.997 80S239.997 87.164 239.997 96S247.161 112 255.997 112ZM191.997 96C200.833 96 207.997 88.836 207.997 80S200.833 64 191.997 64S175.997 71.164 175.997 80S183.161 96 191.997 96ZM445.747 186.391L445.667 186.301L419.276 160L437.567 141.699C440.715 138.6 440.754 133.535 437.655 130.387C436.129 128.838 434.04 127.977 431.866 128H314.477C296.788 177.982 241.93 204.16 191.95 186.473C164.631 176.805 143.143 155.316 133.477 128H15.997C11.579 127.951 7.958 131.494 7.909 135.912C7.885 138.086 8.749 140.176 10.295 141.699L28.715 160L2.336 186.301C-0.779 189.422 -0.779 194.477 2.336 197.6L28.715 224L10.417 242.301C7.268 245.4 7.229 250.465 10.329 253.613C11.854 255.162 13.944 256.023 16.116 256H122.206L96.206 397.301C94.79 406.021 100.711 414.242 109.434 415.658C112.731 416.193 116.114 415.684 119.106 414.199L151.817 390C156.778 386.299 163.43 385.793 168.897 388.699L216.807 414.199C221.268 416.6 226.635 416.6 231.096 414.199L278.997 388.699C284.467 385.783 291.129 386.291 296.096 390L328.795 414.199C336.647 418.17 346.231 415.023 350.2 407.172C351.741 404.125 352.262 400.664 351.686 397.301L325.875 256H431.936C436.381 255.977 439.967 252.352 439.942 247.906C439.93 245.807 439.1 243.795 437.625 242.301L419.276 224L445.567 197.699C448.739 194.627 448.819 189.562 445.747 186.391Z" class="fa-primary"/></svg>