<svg xmlns="http://www.w3.org/2000/svg" viewBox="0 0 640 512"><!-- Font Awesome Pro 6.0.0-alpha2 by @fontawesome - https://fontawesome.com License - https://fontawesome.com/license (Commercial License) --><defs><style>.fa-secondary{opacity:.4}</style></defs><path d="M96 64.001H544V224.001C568.625 224.001 591 233.626 608 249.001V49.626C608 22.251 586.5 0.001 560 0.001H80C53.5 0.001 32 22.251 32 49.626V249.001C49 233.626 71.375 224.001 96 224.001V64.001Z" class="fa-secondary"/><path d="M320 383.977C355.219 383.844 383.732 355.262 383.732 320S355.219 256.156 320 256.023C284.781 256.156 256.268 284.738 256.268 320S284.781 383.844 320 383.977ZM343.75 416H296.25C256.424 416 224 449.5 224 490.656C224 502.438 233.34 512 244.834 512H395.166C406.66 512 416 502.438 416 490.656C416 449.5 383.576 416 343.75 416ZM567.75 416H520.25C480.424 416 448 449.5 448 490.656C448 502.438 457.34 512 468.834 512H619.166C630.66 512 640 502.438 640 490.656C640 449.5 607.576 416 567.75 416ZM544 383.977C579.219 383.844 607.732 355.262 607.732 320S579.219 256.156 544 256.023C508.781 256.156 480.268 284.738 480.268 320S508.781 383.844 544 383.977ZM96 383.977C131.219 383.844 159.732 355.262 159.732 320S131.219 256.156 96 256.023C60.781 256.156 32.268 284.738 32.268 320S60.781 383.844 96 383.977ZM119.75 416H72.25C32.424 416 0 449.5 0 490.656C0 502.438 9.34 512 20.834 512H171.166C182.66 512 192 502.438 192 490.656C192 449.5 159.576 416 119.75 416Z" class="fa-primary"/></svg>