<svg xmlns="http://www.w3.org/2000/svg" viewBox="0 0 640 512"><!-- Font Awesome Pro 6.0.0-alpha2 by @fontawesome - https://fontawesome.com License - https://fontawesome.com/license (Commercial License) --><defs><style>.fa-secondary{opacity:.4}</style></defs><path d="M383.989 32H63.998C28.624 32 0 60.625 0 96V416C0 451.375 28.624 480 63.998 480H242.493C239.993 476.875 237.243 474 235.243 470.5C220.244 444.75 220.119 413 235.243 387.375L375.989 143.25C390.739 117.375 418.238 101.5 447.987 101.625V96C447.987 60.625 419.363 32 383.989 32ZM95.997 272C95.997 280.875 88.872 288 79.998 288S63.998 280.875 63.998 272V112C63.998 103.125 71.123 96 79.998 96S95.997 103.125 95.997 112V272ZM159.995 272C159.995 280.875 152.871 288 143.996 288S127.996 280.875 127.996 272V112C127.996 103.125 135.121 96 143.996 96S159.995 103.125 159.995 112V272ZM223.994 272C223.994 280.875 216.869 288 207.994 288S191.995 280.875 191.995 272V112C191.995 103.125 199.119 96 207.994 96S223.994 103.125 223.994 112V272Z" class="fa-secondary"/><path d="M80 96C71.125 96 64 103.125 64 112V272C64 280.875 71.125 288 80 288S96 280.875 96 272V112C96 103.125 88.875 96 80 96ZM143.998 96C135.123 96 127.998 103.125 127.998 112V272C127.998 280.875 135.123 288 143.998 288S159.998 280.875 159.998 272V112C159.998 103.125 152.873 96 143.998 96ZM633.109 403.375L492.234 159.25C472.609 125.125 423.359 125.125 403.734 159.25L262.859 403.375C243.234 437.375 267.859 480 307.109 480H588.859C628.109 480 652.734 437.375 633.109 403.375ZM447.984 432C434.734 432 423.984 421.25 423.984 408S434.734 384 447.984 384S471.984 394.75 471.984 408S461.234 432 447.984 432ZM472.002 336C472.002 349.25 461.252 360 448.002 360S424.002 349.25 424.002 336V256C424.002 242.75 434.752 232 448.002 232S472.002 242.75 472.002 256V336ZM207.996 96C199.121 96 191.996 103.125 191.996 112V272C191.996 280.875 199.121 288 207.996 288S223.996 280.875 223.996 272V112C223.996 103.125 216.871 96 207.996 96Z" class="fa-primary"/></svg>