<svg xmlns="http://www.w3.org/2000/svg" viewBox="0 0 640 512"><!-- Font Awesome Pro 6.0.0-alpha2 by @fontawesome - https://fontawesome.com License - https://fontawesome.com/license (Commercial License) --><defs><style>.fa-secondary{opacity:.4}</style></defs><path d="M493.295 318.576C494.881 324.15 496 329.918 496 336C496 371.346 467.346 400 432 400C420.932 400 410.678 396.936 401.598 391.99C389.865 406.52 372.129 416 352 416C340.932 416 330.678 412.936 321.598 407.99C309.865 422.52 292.129 432 272 432S234.135 422.52 222.402 407.99C213.322 412.936 203.068 416 192 416C171.871 416 154.135 406.52 142.402 391.99C133.322 396.936 123.068 400 112 400C76.654 400 48 371.346 48 336C48 329.918 49.119 324.15 50.705 318.576C21.748 312.451 0 286.781 0 256S21.748 199.549 50.705 193.424C49.119 187.85 48 182.082 48 176C48 140.654 76.654 112 112 112C123.068 112 133.322 115.064 142.402 120.01C154.135 105.48 171.871 96 192 96C203.068 96 213.322 99.064 222.402 104.01C234.135 89.48 251.871 80 272 80S309.865 89.48 321.598 104.01C330.678 99.064 340.932 96 352 96C382.781 96 408.451 117.748 414.576 146.705C420.15 145.119 425.918 144 432 144C462.422 144 487.77 165.275 494.273 193.727C522.725 200.23 544 225.578 544 256C544 286.781 522.252 312.451 493.295 318.576Z" class="fa-secondary"/><path d="M191.965 416C171.836 416 154.1 406.52 142.367 391.99C134.152 396.465 124.871 399.072 115 399.59L153.93 496.914C157.574 506.025 166.4 512 176.213 512H199.965C213.219 512 223.965 501.254 223.965 488V409.59C223.471 409.02 222.842 408.578 222.367 407.99C213.287 412.936 203.033 416 191.965 416ZM351.965 416C340.896 416 330.643 412.936 321.563 407.99C321.088 408.578 320.459 409.02 319.965 409.59V488C319.965 501.254 330.711 512 343.965 512H367.717C377.529 512 386.355 506.025 390 496.914L428.93 399.59C419.059 399.072 409.777 396.465 401.562 391.99C389.83 406.52 372.094 416 351.965 416ZM624.309 100.76L571.203 47.654C561.18 37.631 547.586 32 533.41 32H463.965C463.965 14.326 449.639 0 431.965 0S399.965 14.326 399.965 32V117.74C407.094 125.844 412.225 135.752 414.541 146.705C420.115 145.119 425.883 144 431.965 144C461.75 144 486.551 164.445 493.686 192H586.518C606.762 192 625.268 180.562 634.32 162.455C644.609 141.879 640.576 117.027 624.309 100.76ZM511.965 112C503.129 112 495.965 104.836 495.965 96S503.129 80 511.965 80S527.965 87.164 527.965 96S520.801 112 511.965 112Z" class="fa-primary"/></svg>