<svg xmlns="http://www.w3.org/2000/svg" viewBox="0 0 512 512"><!-- Font Awesome Pro 6.0.0-alpha2 by @fontawesome - https://fontawesome.com License - https://fontawesome.com/license (Commercial License) --><defs><style>.fa-secondary{opacity:.4}</style></defs><path d="M466.5 83.68L274.5 3.672C269.625 1.641 261.344 0 256.062 0C250.75 0 242.5 1.641 237.594 3.672L45.594 83.68C27.688 91.072 16 108.574 16 127.982C16 385.157 205.163 512 255.953 512C307.975 512 496 383.811 496 127.982C496 108.574 484.312 91.072 466.5 83.68ZM378.418 192.968C378.418 197.062 376.855 201.157 373.73 204.281L235.391 342.623C232.266 345.747 228.171 347.309 224.076 347.309S215.887 345.747 212.762 342.623L138.422 268.281C135.297 265.157 133.734 261.062 133.734 256.968C133.734 252.873 135.297 248.778 138.422 245.654L149.73 234.344C152.855 231.22 156.95 229.658 161.045 229.658S169.234 231.22 172.359 234.344L224.076 286.062L339.793 170.344C342.918 167.22 347.013 165.658 351.107 165.658S359.297 167.22 362.422 170.344L373.73 181.654C376.855 184.778 378.418 188.873 378.418 192.968Z " class="fa-secondary"></path><path d="M378.684 192.968C378.684 197.062 377.121 201.157 373.996 204.281L235.656 342.623C232.531 345.747 228.437 347.309 224.342 347.309S216.152 345.747 213.027 342.623L138.688 268.281C135.562 265.157 134 261.062 134 256.968C134 252.873 135.562 248.778 138.688 245.654L149.996 234.344C153.121 231.22 157.216 229.658 161.311 229.658S169.5 231.22 172.625 234.344L224.342 286.062L340.059 170.344C343.184 167.22 347.278 165.658 351.373 165.658S359.563 167.22 362.688 170.344L373.996 181.654C377.121 184.778 378.684 188.873 378.684 192.968Z " class="fa-primary"></path></svg>