<svg xmlns="http://www.w3.org/2000/svg" viewBox="0 0 512 512"><!-- Font Awesome Pro 6.0.0-alpha2 by @fontawesome - https://fontawesome.com License - https://fontawesome.com/license (Commercial License) --><defs><style>.fa-secondary{opacity:.4}</style></defs><path d="M466.5 83.68L274.5 3.672C269.625 1.641 261.344 0 256.062 0C250.75 0 242.5 1.641 237.594 3.672L45.594 83.68C27.688 91.07 16 108.574 16 127.984C16 385.157 205.164 512 255.953 512C307.975 512 496 383.813 496 127.984C496 108.574 484.312 91.07 466.5 83.68ZM336.969 303.031C341.656 307.719 344 313.859 344 320C344 333.697 332.798 344 320.001 344C313.859 344 307.719 341.655 303.031 336.969L256 289.938L208.969 336.969C204.279 341.657 198.14 344 192.001 344C178.317 344 168 332.817 168 320C168 313.859 170.344 307.719 175.031 303.031L222.062 256L175.031 208.969C170.344 204.281 168 198.141 168 192C168 179.21 178.298 168 192 168C198.141 168 204.281 170.344 208.969 175.031L256 222.062L303.031 175.031C307.719 170.344 313.859 168 320 168C333.709 168 344 179.21 344 192C344 198.141 341.656 204.281 336.969 208.969L289.938 256L336.969 303.031Z " class="fa-secondary"></path><path d="M336.969 303.031C341.656 307.719 344 313.859 344 320C344 333.697 332.798 344 320.001 344C313.859 344 307.719 341.655 303.031 336.969L256 289.938L208.969 336.969C204.279 341.657 198.14 344 192.001 344C178.317 344 168 332.817 168 320C168 313.859 170.344 307.719 175.031 303.031L222.062 256L175.031 208.969C170.344 204.281 168 198.141 168 192C168 179.21 178.298 168 192 168C198.141 168 204.281 170.344 208.969 175.031L256 222.062L303.031 175.031C307.719 170.344 313.859 168 320 168C333.709 168 344 179.21 344 192C344 198.141 341.656 204.281 336.969 208.969L289.938 256L336.969 303.031Z " class="fa-primary"></path></svg>