<svg xmlns="http://www.w3.org/2000/svg" viewBox="0 0 512 512"><!-- Font Awesome Pro 6.0.0-alpha2 by @fontawesome - https://fontawesome.com License - https://fontawesome.com/license (Commercial License) --><defs><style>.fa-secondary{opacity:.4}</style></defs><path d="M16 127.982C16 138.867 16.484 149.488 17.152 160H224V9.336L45.594 83.68C27.688 91.072 16 108.574 16 127.982ZM224 501.986V224H25.625C53.611 363.098 139.43 460.801 224 501.986ZM288 501.998C359.65 466.549 456.514 375.527 486.504 224H288V501.998ZM466.5 83.68L288 9.297V160H494.773C495.42 149.506 496 138.959 496 127.982C496 108.574 484.312 91.072 466.5 83.68Z " class="fa-secondary"></path><path d="M494.621 160C493.24 182.459 490.365 203.725 486.352 224H287.848V501.998C275.465 508.127 267.65 512 255.801 512C243.513 512 236.213 508.008 223.848 501.986V224H25.473C21.354 203.521 18.414 182.221 17 160H223.848V9.336L237.441 3.672C242.348 1.641 250.598 0 255.91 0C261.191 0 269.473 1.641 274.348 3.672L287.848 9.297V160H494.621Z " class="fa-primary"></path></svg>