<svg xmlns="http://www.w3.org/2000/svg" viewBox="0 0 640 512"><!-- Font Awesome Pro 6.0.0-alpha2 by @fontawesome - https://fontawesome.com License - https://fontawesome.com/license (Commercial License) --><defs><style>.fa-secondary{opacity:.4}</style></defs><path d="M23.54 115.123L5.47 142.256C-8.78 163.505 6.47 192.005 32.095 192.005H121.631L23.54 115.123ZM319.969 384.002H127.969V224.004H63.97V480C63.97 497.75 78.22 512 95.969 512H351.968C369.718 512 383.968 497.75 383.968 480V397.619L319.969 347.458V384.002ZM319.969 225.471L383.968 275.633V224.004H319.969V225.471ZM511.968 375.955L575.968 426.117V224.004H511.968V375.955ZM634.592 142.256L549.218 14.258C543.218 5.258 533.218 0.008 522.593 0.008H117.344C106.719 0.008 96.719 5.258 90.719 14.258L76.921 34.976L277.27 192.005H607.968C633.467 192.005 648.717 163.505 634.592 142.256Z" class="fa-secondary"/><path d="M634.874 502.805C626.749 513.211 611.686 515.086 601.186 506.883L9.189 42.89C-1.249 34.718 -3.061 19.625 5.126 9.187C9.845 3.156 16.907 0 24.032 0C29.189 0 34.407 1.672 38.814 5.109L630.811 469.102C641.249 477.274 643.061 492.367 634.874 502.805Z" class="fa-primary"/></svg>