<svg xmlns="http://www.w3.org/2000/svg" viewBox="0 0 512 512"><!-- Font Awesome Pro 6.0.0-alpha2 by @fontawesome - https://fontawesome.com License - https://fontawesome.com/license (Commercial License) --><defs><style>.fa-secondary{opacity:.4}</style></defs><path d="M64 32H288V480H64C28.654 480 0 451.346 0 416V96C0 60.652 28.654 32 64 32Z" class="fa-secondary"/><path d="M288 32V480H448C483.346 480 512 451.346 512 416V96C512 60.652 483.346 32 448 32H288ZM352 312C352 298.744 362.746 288 376 288H424C437.254 288 448 298.744 448 312C448 325.254 437.254 336 424 336H376C362.746 336 352 325.254 352 312ZM352 216C352 202.744 362.746 192 376 192H424C437.254 192 448 202.744 448 216C448 229.254 437.254 240 424 240H376C362.746 240 352 229.254 352 216ZM352 120C352 106.744 362.746 96 376 96H424C437.254 96 448 106.744 448 120C448 133.254 437.254 144 424 144H376C362.746 144 352 133.254 352 120Z" class="fa-primary"/></svg>