<svg xmlns="http://www.w3.org/2000/svg" viewBox="0 0 640 512"><!-- Font Awesome Pro 6.0.0-alpha2 by @fontawesome - https://fontawesome.com License - https://fontawesome.com/license (Commercial License) --><defs><style>.fa-secondary{opacity:.4}</style></defs><path d="M612.75 350.75L603.375 343.25C596.5 337.75 586.375 338.875 580.875 345.75L570.875 358.25C565.375 365.25 566.5 375.25 573.375 380.75L582.75 388.25C588.625 392.875 591.875 399.875 591.875 407.375C591.875 421 580.875 432 567.25 432H48C39.25 432 32 439.25 32 448V464C32 472.75 39.25 480 48 480H564C603 480 637.75 450.75 639.875 411.75C641.25 387.875 631.25 365.375 612.75 350.75Z" class="fa-secondary"/><path d="M576 128C576 145.75 561.75 160 544 160V256C544 309 501 352 448 352V432H384V352H192V432H128V347.5C72.875 333.25 32 283.625 32 224V96C14.25 96 0 81.75 0 64S14.25 32 32 32H52.75C118.375 32 178.625 69.25 208 128S297.5 224 363.25 224H384C419.25 224 448 195.25 448 160V96H544C561.75 96 576 110.25 576 128Z" class="fa-primary"/></svg>