<svg xmlns="http://www.w3.org/2000/svg" viewBox="0 0 640 512"><!-- Font Awesome Pro 6.0.0-alpha2 by @fontawesome - https://fontawesome.com License - https://fontawesome.com/license (Commercial License) --><defs><style>.fa-secondary{opacity:.4}</style></defs><path d="M320 96C346.25 96 372 102.75 395.125 115.25C404.375 105 415.25 96.75 426.75 89.375C403.75 54.875 364.625 32 320 32C288.375 32 259.875 43.875 237.625 62.75C215.25 25.25 174.75 0 128 0C57.25 0 0 57.25 0 128C0 166.25 17.125 200.125 43.75 223.625C72.25 203.75 106.75 192 144 192C153.875 192 163.5 192.875 173.125 194.5C197.25 136.75 253.75 96 320 96ZM512 96C465.25 96 424.75 121.25 402.375 158.75C380.125 139.875 351.625 128 320 128C268.25 128 224.125 158.75 203.875 202.75C219.5 208.5 234.5 216.25 248 226.25C278 204 314 192 352 192C406.875 192 458 217.875 491 261.125C503.125 257.75 515.5 256 528 256C563.5 256 595.625 269.375 620.75 290.75C632.75 271.25 640 248.625 640 224C640 153.25 582.75 96 512 96Z" class="fa-secondary"/><path d="M528 288C510 288 493.25 292.625 478.25 300.125C454 255 406.75 224 352 224C311 224 274.25 241.25 248 268.75C221.75 241.25 185 224 144 224C64.5 224 0 288.5 0 368S64.5 512 144 512H528C589.875 512 640 461.875 640 400S589.875 288 528 288Z" class="fa-primary"/></svg>