<svg xmlns="http://www.w3.org/2000/svg" viewBox="0 0 512 512"><!-- Font Awesome Pro 6.0.0-alpha2 by @fontawesome - https://fontawesome.com License - https://fontawesome.com/license (Commercial License) --><defs><style>.fa-secondary{opacity:.4}</style></defs><path d="M152.74 180.598L103.756 160C103.756 159.5 104.006 159 104.006 158.5V111.625C104.006 103 96.756 96 88.006 96H72.006C63.256 96 56.006 103 56.006 111.625V140.625L27.756 129.125C19.631 125.875 10.256 129.75 7.006 137.75L1.131 152.25C-2.119 160.375 1.881 169.5 10.006 172.625L144.439 228.426C144.373 226.926 144 225.518 144 224C144 208.639 147.23 194.094 152.873 180.807L152.74 180.598ZM510.869 152.25L504.994 137.75C501.744 129.75 492.369 125.875 484.244 129.125L455.994 140.625V111.625C455.994 103 448.744 96 439.994 96H423.994C415.244 96 407.994 103 407.994 111.625V158.5C407.994 159 408.244 159.5 408.244 160L359.26 180.598L359.051 180.658C364.734 193.986 368 208.578 368 224C368 225.518 367.627 226.926 367.56 228.426L501.994 172.625C510.119 169.5 514.119 160.375 510.869 152.25ZM256 336C247.25 336 240 343.25 240 352S247.25 368 256 368S272 360.75 272 352S264.75 336 256 336ZM256 208C247.25 208 240 215.25 240 224S247.25 240 256 240S272 232.75 272 224S264.75 208 256 208ZM256 272C247.25 272 240 279.25 240 288S247.25 304 256 304S272 296.75 272 288S264.75 272 256 272Z" class="fa-secondary"/><path d="M360.418 263.67C365.123 251.301 368 238.02 368 224C368 194.113 356.115 167.121 337.037 147.037C346.387 132.225 352 114.811 352 96C352 42.98 309.02 0 256 0S160 42.98 160 96C160 114.811 165.613 132.225 174.963 147.037C155.885 167.121 144 194.113 144 224C144 238.02 146.877 251.301 151.582 263.67C117.805 293.006 96 335.75 96 384C96 436.586 121.713 482.834 160.879 512H351.121C390.287 482.834 416 436.586 416 384C416 335.75 394.195 293.006 360.418 263.67ZM224 96C215.25 96 208 88.75 208 80S215.25 64 224 64S240 71.25 240 80S232.75 96 224 96ZM256 368C247.25 368 240 360.75 240 352S247.25 336 256 336S272 343.25 272 352S264.75 368 256 368ZM256 304C247.25 304 240 296.75 240 288S247.25 272 256 272S272 279.25 272 288S264.75 304 256 304ZM256 240C247.25 240 240 232.75 240 224S247.25 208 256 208S272 215.25 272 224S264.75 240 256 240ZM256 152C256 152 240 128.75 240 120S247.25 104 256 104S272 111.25 272 120S256 152 256 152ZM288 96C279.25 96 272 88.75 272 80S279.25 64 288 64S304 71.25 304 80S296.75 96 288 96Z" class="fa-primary"/></svg>