<svg xmlns="http://www.w3.org/2000/svg" viewBox="0 0 512 512"><!-- Font Awesome Pro 6.0.0-alpha2 by @fontawesome - https://fontawesome.com License - https://fontawesome.com/license (Commercial License) --><defs><style>.fa-secondary{opacity:.4}</style></defs><path d="M391.781 188.119C381.197 198.703 366.985 202.639 353.166 201.27C377.161 243.939 371.481 298.922 335.205 335.193C291.706 379.512 220.516 380.178 176.196 336.682S131.209 221.996 174.708 177.678C210.496 141.215 266.369 133.463 310.734 158.807C309.376 145.004 313.32 130.811 323.89 120.238C325.992 118.135 328.648 117.139 331.015 115.508C307.552 102.99 281.92 96.004 255.999 96.004C167.635 96.012 96.004 167.648 96.012 256.012C96.018 344.375 167.657 416.002 256.023 415.996C298.454 415.992 339.146 399.135 369.149 369.133C420.174 318.117 428.807 241.51 396.512 180.996C394.883 183.359 393.883 186.016 391.781 188.119ZM336.908 447.672C258.906 480.518 168.782 462.889 108.905 403.074C39.329 333.506 29.623 226.598 79.418 146.391H79.422C62.736 142.812 48.722 131.564 41.618 116.049C-23.351 215.33 -12.266 349.799 74.961 437.014C151.072 513.328 266.926 533.592 364.423 487.643C362.231 485.84 359.887 484.316 357.835 482.268C348.235 472.541 341.065 460.689 336.908 447.672ZM437.04 74.986C360.93 -1.328 245.077 -21.592 147.582 24.357C149.77 26.16 152.117 27.684 154.164 29.73C163.766 39.455 170.936 51.309 175.093 64.328C253.095 31.482 343.219 49.111 403.094 108.926C472.672 178.492 482.375 285.4 432.581 365.607C449.267 369.186 463.281 380.436 470.383 395.951C535.35 296.67 524.267 162.201 437.04 74.986Z" class="fa-secondary"/><path d="M52.409 52.35C52.406 52.354 52.404 52.357 52.4 52.359C30.532 74.23 30.534 109.688 52.404 131.557C74.275 153.426 109.735 153.424 131.603 131.553C153.471 109.684 153.471 74.229 131.603 52.359C109.737 30.488 74.281 30.484 52.409 52.35ZM256.07 192.002C220.725 192.006 192.074 220.662 192.078 256.008C192.082 291.352 220.739 320.002 256.084 319.998S320.078 291.342 320.078 256C320.076 220.652 291.419 192 256.07 192.002ZM391.851 188.119C410.59 169.373 410.59 138.984 391.851 120.238C373.105 101.492 342.711 101.49 323.965 120.234C305.218 138.98 305.216 169.373 323.961 188.119C342.705 206.865 373.101 206.867 391.847 188.123C391.849 188.121 391.849 188.121 391.851 188.119ZM459.74 380.445C437.87 358.574 402.412 358.572 380.54 380.441S358.667 437.77 380.537 459.641S437.866 481.514 459.738 459.645C459.738 459.643 459.74 459.641 459.74 459.641C481.604 437.77 481.604 402.316 459.74 380.445Z" class="fa-primary"/></svg>