<svg xmlns="http://www.w3.org/2000/svg" viewBox="0 0 512 512"><!-- Font Awesome Pro 6.0.0-alpha2 by @fontawesome - https://fontawesome.com License - https://fontawesome.com/license (Commercial License) --><defs><style>.fa-secondary{opacity:.4}</style></defs><path d="M512 293.5C512 361.031 457.031 416 389.5 416H378.5C342.521 416 310.436 400.111 288 375.318V272C288 263.162 280.836 256 272 256H240C231.164 256 224 263.162 224 272V375.318C201.564 400.111 169.479 416 133.5 416H122.5C54.969 416 0 361.031 0 293.5C0 260.781 12.75 230 35.875 206.875L233.375 9.375C245.875 -3.125 266.125 -3.125 278.625 9.375L476.125 206.875C499.25 230 512 260.781 512 293.5Z" class="fa-secondary"/><path d="M352 485.045C352 499.932 339.93 512 325.047 512H186.953C172.07 512 160 499.932 160 485.045C160 472.678 168.418 461.896 180.418 458.896L203.586 453.104C215.582 450.104 224 439.322 224 426.955V272C224 263.162 231.164 256 240 256H272C280.836 256 288 263.162 288 272V426.955C288 439.322 296.418 450.104 308.418 453.104L331.586 458.896C343.582 461.896 352 472.678 352 485.045Z" class="fa-primary"/></svg>