<svg xmlns="http://www.w3.org/2000/svg" viewBox="0 0 640 512"><!-- Font Awesome Pro 6.0.0-alpha2 by @fontawesome - https://fontawesome.com License - https://fontawesome.com/license (Commercial License) --><defs><style>.fa-secondary{opacity:.4}</style></defs><path d="M638.375 378.85C633.75 391.204 619.875 397.444 607.5 392.702C599.375 389.707 593.125 392.577 576.125 404.057C562.5 413.167 545.25 424.897 523.625 424.897C516.5 424.897 508.875 423.649 500.625 420.53C468 408.051 460.75 379.224 455.375 358.135C453.125 349.4 451.375 343.659 449.375 339.292C432.75 352.894 412.5 365.123 387.75 373.484C397.75 410.422 420 464.081 448 464.081C461.25 464.081 472 474.813 472 488.04C472 501.268 461.25 512 448 512C381.25 512 351 423.525 340.625 383.093C333.875 383.717 327.125 384.216 320 384.216S306.125 383.717 299.375 383.093C289 423.525 258.75 512 192 512C178.75 512 168 501.268 168 488.04C168 474.813 178.75 464.081 192 464.081C220.125 464.081 242.25 410.422 252.25 373.484C227.625 365.123 207.25 352.894 190.625 339.292C188.625 343.659 186.875 349.4 184.625 358.135C179.375 379.224 172 408.051 139.375 420.53C131.25 423.649 123.5 424.897 116.375 424.897C94.75 424.897 77.5 413.167 64 404.057C46.875 392.577 40.75 389.707 32.5 392.702C20.25 397.444 6.25 391.204 1.625 378.85C-3.125 366.496 3.125 352.644 15.5 347.902C48.125 335.548 72.75 352.145 90.875 364.374C107.875 375.855 114.125 378.725 122.25 375.73C130.375 372.611 133.125 366.371 138.125 346.405C141.5 333.302 145.625 317.079 156.125 303.852C153.875 300.857 151.625 297.987 149.75 295.241C139.5 304.85 126.25 312.337 108 312.337C73.999 312.337 57.125 286.631 45.999 269.535C35.375 253.437 31 248.445 24 248.445C10.75 248.445 0 237.714 0 224.486S10.75 200.526 24 200.526C57.999 200.526 74.875 226.233 85.999 243.329C96.625 259.427 101 264.418 108 264.418C125.125 264.418 145.625 203.022 205.25 162.715L186.994 127.281C188.674 127.414 190.285 127.784 192 127.784C213.959 127.784 233.309 116.723 244.836 99.9L263.5 136.135C280.5 131.518 299.125 128.648 320 128.648S359.5 131.518 376.5 136.135L395.164 99.9C406.691 116.723 426.041 127.784 448 127.784C449.715 127.784 451.324 127.414 453.006 127.281L434.75 162.715C494.5 203.147 514.75 264.418 532 264.418C539 264.418 543.375 259.427 554 243.329C565.125 226.233 582 200.526 616 200.526C629.25 200.526 640 211.258 640 224.486S629.25 248.445 616 248.445C609 248.445 604.625 253.437 594 269.535C582.875 286.631 566 312.337 532 312.337C513.75 312.337 500.5 304.85 490.25 295.241C488.375 297.987 486.125 300.857 483.875 303.852C494.375 317.079 498.5 333.302 501.875 346.405C506.875 366.371 509.625 372.611 517.75 375.73C525.875 378.725 532.125 375.855 549.125 364.374C567.125 352.145 591.875 335.423 624.5 347.902C637 352.644 643.125 366.496 638.375 378.85Z" class="fa-secondary"/><path d="M192 0C156.654 0 128 28.606 128 63.892S156.654 127.784 192 127.784S256 99.178 256 63.892S227.346 0 192 0ZM192 79.865C183.178 79.865 176 72.699 176 63.892S183.178 47.919 192 47.919S208 55.085 208 63.892S200.822 79.865 192 79.865ZM448 0C412.654 0 384 28.606 384 63.892S412.654 127.784 448 127.784S512 99.178 512 63.892S483.346 0 448 0ZM448 79.865C439.178 79.865 432 72.699 432 63.892S439.178 47.919 448 47.919S464 55.085 464 63.892S456.822 79.865 448 79.865Z" class="fa-primary"/></svg>