<svg xmlns="http://www.w3.org/2000/svg" viewBox="0 0 640 512"><!-- Font Awesome Pro 6.0.0-alpha2 by @fontawesome - https://fontawesome.com License - https://fontawesome.com/license (Commercial License) --><defs><style>.fa-secondary{opacity:.4}</style></defs><path d="M175.844 224C201.906 224 237.812 239.141 256 257.781V48C256.062 33.219 263.406 11.719 272.406 0H48C21.5 0 0 21.5 0 48V464C0 490.5 21.5 512 48 512H272.406C263.406 500.281 256.062 478.781 256 464V414.219C237.812 432.859 201.906 448 175.844 448C113.999 448 63.844 397.828 63.844 336S113.999 224 175.844 224ZM176 64C202.5 64 224 85.5 224 112S202.5 160 176 160S128 138.5 128 112S149.5 64 176 64ZM592 0H336C309.5 0 288 21.5 288 48V464C288 490.5 309.5 512 336 512H592C618.5 512 640 490.5 640 464V48C640 21.5 618.5 0 592 0ZM464 64C490.5 64 512 85.5 512 112S490.5 160 464 160S416 138.5 416 112S437.5 64 464 64ZM464 448C402.188 448 352 397.828 352 336S402.188 224 464 224S576 274.172 576 336S525.812 448 464 448Z" class="fa-secondary"/><path d="M464 160C490.5 160 512 138.5 512 112S490.5 64 464 64S416 85.5 416 112S437.5 160 464 160ZM464 224C402.188 224 352 274.172 352 336S402.188 448 464 448S576 397.828 576 336S525.812 224 464 224ZM464 400C428.688 400 400 371.328 400 336S428.688 272 464 272S528 300.672 528 336S499.312 400 464 400ZM176 160C202.5 160 224 138.5 224 112S202.5 64 176 64S128 85.5 128 112S149.5 160 176 160ZM64 336C64 397.828 114.188 448 176 448C207.369 448 235.66 435 256 414.191V257.809C235.66 237 207.369 224 176 224C114.188 224 64 274.172 64 336ZM240 336C240 371.328 211.312 400 176 400S112 371.328 112 336S140.688 272 176 272S240 300.672 240 336Z" class="fa-primary"/></svg>