<svg xmlns="http://www.w3.org/2000/svg" viewBox="0 0 512 512"><!-- Font Awesome Pro 6.0.0-alpha2 by @fontawesome - https://fontawesome.com License - https://fontawesome.com/license (Commercial License) --><defs><style>.fa-secondary{opacity:.4}</style></defs><path d="M109 355.125C82.5 355.125 61 376.625 61 403.125S82.5 451.125 109 451.125S157 429.625 157 403.125S135.5 355.125 109 355.125ZM256.125 416C229.625 416 208.125 437.5 208.125 464S229.625 512 256.125 512S304.125 490.5 304.125 464S282.625 416 256.125 416ZM464.125 208C437.625 208 416.125 229.5 416.125 256S437.625 304 464.125 304S512.125 282.5 512.125 256S490.625 208 464.125 208ZM403.25 355.125C376.75 355.125 355.25 376.625 355.25 403.125S376.75 451.125 403.25 451.125S451.25 429.625 451.25 403.125S429.75 355.125 403.25 355.125ZM403.25 156.875C429.75 156.875 451.25 135.375 451.25 108.875S429.75 60.875 403.25 60.875S355.25 82.375 355.25 108.875S376.75 156.875 403.25 156.875Z" class="fa-secondary"/><path d="M48 208C21.5 208 0 229.5 0 256S21.5 304 48 304S96 282.5 96 256S74.5 208 48 208ZM108.875 60.875C82.375 60.875 60.875 82.375 60.875 108.875S82.375 156.875 108.875 156.875S156.875 135.375 156.875 108.875S135.375 60.875 108.875 60.875ZM256 0C229.5 0 208 21.5 208 48S229.5 96 256 96S304 74.5 304 48S282.5 0 256 0Z" class="fa-primary"/></svg>