<svg xmlns="http://www.w3.org/2000/svg" viewBox="0 0 512 512"><!-- Font Awesome Pro 6.0.0-alpha2 by @fontawesome - https://fontawesome.com License - https://fontawesome.com/license (Commercial License) --><defs><style>.fa-secondary{opacity:.4}</style></defs><path d="M471.346 361.447C432.283 441.057 350.662 496 256 496C123.451 496 16 388.549 16 256S123.451 16 256 16C261.209 16 266.301 16.453 271.428 16.779C262.959 16.98 256 24.088 256 32.734V64.791C256 73.312 262.732 79.922 271.223 80.652C271.531 80.68 271.812 80.789 272.121 80.816C266.805 80.33 261.441 80 256 80C158.953 80 80 158.953 80 256S158.953 432 256 432C326.711 432 387.652 389.992 415.609 329.701C415.502 329.932 415.43 330.178 415.322 330.406C411.686 338.127 414.057 347.254 421.447 351.521L449.25 367.574C457.033 372.068 467.238 369.389 471.346 361.447Z" class="fa-secondary"/><path d="M496 256C496 293.785 487.129 329.438 471.535 361.211C467.527 369.373 457.125 372.121 449.25 367.574L421.447 351.521C414.057 347.254 411.686 338.127 415.322 330.406C425.971 307.795 432 282.609 432 256C432 164.08 361.17 88.393 271.223 80.652C262.732 79.922 256 73.312 256 64.791V32.734C256 23.617 263.668 15.949 272.764 16.576C397.492 25.182 496 129.086 496 256Z" class="fa-primary"/></svg>