<svg xmlns="http://www.w3.org/2000/svg" viewBox="0 0 512 512"><!-- Font Awesome Pro 6.0.0-alpha2 by @fontawesome - https://fontawesome.com License - https://fontawesome.com/license (Commercial License) --><defs><style>.fa-secondary{opacity:.4}</style></defs><path d="M449.976 265.121C449.472 265.625 448.968 266.125 448.461 266.617C405.474 308.551 341.338 313.883 290.008 287.563L224.086 221.649C197.752 170.32 203.084 106.171 245.023 63.179C245.517 62.671 246.015 62.167 246.519 61.663C310.808 -2.626 422.933 -23.673 479.06 32.577C535.314 88.703 514.267 200.832 449.976 265.121Z" class="fa-secondary"/><path d="M290.367 287.563L82.973 503.751C78.059 508.908 71.272 511.9 64.122 511.998C57.018 512.095 50.135 509.298 45.1 504.263L7.739 466.9C2.704 461.868 -0.095 454.982 0.002 447.88C0.1 440.728 3.092 433.942 8.249 429.028L224.446 221.649L290.367 287.563Z" class="fa-primary"/></svg>