<svg xmlns="http://www.w3.org/2000/svg" viewBox="0 0 448 512"><!-- Font Awesome Pro 6.0.0-alpha2 by @fontawesome - https://fontawesome.com License - https://fontawesome.com/license (Commercial License) --><defs><style>.fa-secondary{opacity:.4}</style></defs><path d="M384 32H64C28.654 32 0 60.652 0 96V416C0 451.346 28.654 480 64 480H384C419.346 480 448 451.346 448 416V96C448 60.652 419.346 32 384 32ZM310.764 314.281C305.451 342.701 281.738 361.422 248.045 366.818V384C248.045 397.25 237.295 408 224.045 408S200.045 397.25 200.045 384V365.939C185.955 363.51 171.59 359 158.795 354.734L152.514 352.656C139.92 348.531 133.045 334.969 137.17 322.375S154.92 302.922 167.451 307.031L173.951 309.187C186.076 313.219 199.795 317.781 210.951 319.344C238.826 323.359 261.326 317.359 263.576 305.437C265.389 295.828 261.732 290.766 217.795 279.156L209.201 276.875C184.482 270.156 126.576 254.469 137.201 197.719C142.523 169.283 166.266 150.521 200.045 145.156V128C200.045 114.75 210.795 104 224.045 104S248.045 114.75 248.045 128V146.002C256.998 147.568 266.891 149.984 279.264 153.937C291.889 157.953 298.889 171.469 294.857 184.094C290.857 196.719 277.326 203.75 264.701 199.656C253.139 195.969 244.014 193.672 236.857 192.641C209.295 188.703 186.607 194.625 184.389 206.562C183.045 213.625 181.92 219.734 221.764 230.547L230.045 232.75C264.264 241.781 321.514 256.906 310.764 314.281Z" class="fa-secondary"/><path d="M310.85 314.281C305.537 342.701 281.825 361.422 248.131 366.818V384C248.131 397.25 237.381 408 224.131 408S200.131 397.25 200.131 384V365.939C186.041 363.51 171.676 359 158.881 354.734L152.6 352.656C140.006 348.531 133.131 334.969 137.256 322.375S155.006 302.922 167.537 307.031L174.037 309.187C186.162 313.219 199.881 317.781 211.037 319.344C238.912 323.359 261.412 317.359 263.662 305.437C265.475 295.828 261.819 290.766 217.881 279.156L209.287 276.875C184.569 270.156 126.662 254.469 137.287 197.719C142.61 169.283 166.352 150.521 200.131 145.156V128C200.131 114.75 210.881 104 224.131 104S248.131 114.75 248.131 128V146.002C257.084 147.568 266.977 149.984 279.35 153.937C291.975 157.953 298.975 171.469 294.944 184.094C290.944 196.719 277.412 203.75 264.787 199.656C253.225 195.969 244.1 193.672 236.944 192.641C209.381 188.703 186.694 194.625 184.475 206.562C183.131 213.625 182.006 219.734 221.85 230.547L230.131 232.75C264.35 241.781 321.6 256.906 310.85 314.281Z" class="fa-primary"/></svg>