<svg xmlns="http://www.w3.org/2000/svg" viewBox="0 0 448 512"><!-- Font Awesome Pro 6.0.0-alpha2 by @fontawesome - https://fontawesome.com License - https://fontawesome.com/license (Commercial License) --><defs><style>.fa-secondary{opacity:.4}</style></defs><path d="M384 32H64C28.654 32 0 60.656 0 96V416C0 451.344 28.654 480 64 480H384C419.346 480 448 451.344 448 416V96C448 60.656 419.346 32 384 32ZM344 344C344 361.688 329.688 376 312 376H168C150.312 376 136 361.688 136 344S150.312 312 168 312H234.75L113.375 190.625C100.875 178.125 100.875 157.875 113.375 145.375S146.125 132.875 158.625 145.375L280 266.75V200C280 182.312 294.312 168 312 168S344 182.312 344 200V344Z" class="fa-secondary"/><path d="M344 342.958C344 360.646 329.687 374.958 312 374.958H168C150.312 374.958 136 360.646 136 342.958S150.312 310.958 168 310.958H234.75L113.375 189.583C100.875 177.083 100.875 156.833 113.375 144.333S146.125 131.833 158.625 144.333L280 265.708V198.958C280 181.271 294.312 166.958 312 166.958S344 181.271 344 198.958V342.958Z" class="fa-primary"/></svg>