<svg xmlns="http://www.w3.org/2000/svg" viewBox="0 0 448 512"><!-- Font Awesome Pro 6.0.0-alpha2 by @fontawesome - https://fontawesome.com License - https://fontawesome.com/license (Commercial License) --><defs><style>.fa-secondary{opacity:.4}</style></defs><path d="M384 32H64C28.654 32 0 60.652 0 96V416C0 451.344 28.654 480 64 480H384C419.346 480 448 451.344 448 416V96C448 60.652 419.346 32 384 32ZM369.283 231.168L309.709 289.1L323.797 370.934C326.332 385.734 310.73 396.754 297.646 389.891L224 351.248L150.354 389.891C137.27 396.807 121.668 385.734 124.203 370.934L138.291 289.1L78.717 231.168C68.01 220.764 73.926 202.598 88.701 200.463L171.029 188.484L207.834 114.016C214.473 100.578 233.58 100.744 240.166 114.016L276.971 188.484L359.299 200.463C374.074 202.598 379.99 220.764 369.283 231.168Z" class="fa-secondary"/><path d="M369.033 231.168L309.458 289.1L323.546 370.934C326.082 385.734 310.48 396.754 297.396 389.891L223.75 351.248L150.103 389.891C137.019 396.807 121.417 385.734 123.953 370.934L138.041 289.1L78.466 231.168C67.759 220.764 73.675 202.598 88.451 200.463L170.779 188.484L207.583 114.016C214.222 100.578 233.33 100.744 239.916 114.016L276.72 188.484L359.048 200.463C373.824 202.598 379.74 220.764 369.033 231.168Z" class="fa-primary"/></svg>