<svg xmlns="http://www.w3.org/2000/svg" viewBox="0 0 448 512"><!-- Font Awesome Pro 6.0.0-alpha2 by @fontawesome - https://fontawesome.com License - https://fontawesome.com/license (Commercial License) --><defs><style>.fa-secondary{opacity:.4}</style></defs><path d="M384 32H64C28.654 32 0 60.654 0 96V416C0 451.346 28.654 480 64 480H384C419.348 480 448 451.346 448 416V96C448 60.654 419.348 32 384 32ZM352 360C352 373.25 341.25 384 328 384S304 373.25 304 360V226.219L243.453 310.047C234.422 322.547 213.578 322.547 204.547 310.047L144 226.219V360C144 373.25 133.25 384 120 384S96 373.25 96 360V152C96 141.594 102.719 132.359 112.609 129.172C122.469 125.922 133.359 129.484 139.453 137.953L224 255.016L308.547 137.953C314.641 129.484 325.437 125.922 335.391 129.172C345.281 132.359 352 141.594 352 152V360Z" class="fa-secondary"/><path d="M335.391 129.172C325.437 125.922 314.641 129.484 308.547 137.953L224 255.016L139.453 137.953C133.359 129.484 122.469 125.922 112.609 129.172C102.719 132.359 96 141.594 96 152V360C96 373.25 106.75 384 120 384S144 373.25 144 360V226.219L204.547 310.047C213.578 322.547 234.422 322.547 243.453 310.047L304 226.219V360C304 373.25 314.75 384 328 384S352 373.25 352 360V152C352 141.594 345.281 132.359 335.391 129.172Z" class="fa-primary"/></svg>