<svg xmlns="http://www.w3.org/2000/svg" viewBox="0 0 448 512"><!-- Font Awesome Pro 6.0.0-alpha2 by @fontawesome - https://fontawesome.com License - https://fontawesome.com/license (Commercial License) --><defs><style>.fa-secondary{opacity:.4}</style></defs><path d="M384 32H64C28.654 32 0 60.652 0 96V416C0 451.344 28.654 480 64 480H384C419.346 480 448 451.344 448 416V96C448 60.652 419.346 32 384 32ZM330.508 323.883C330.508 330.355 326.619 336.188 320.631 338.664C314.652 341.148 307.77 339.77 303.195 335.195L257.941 289.941L190.059 357.824C177.562 370.321 157.301 370.321 144.804 357.824L122.176 335.196C109.679 322.699 109.679 302.438 122.176 289.941L190.059 222.059L144.805 176.805C140.23 172.227 138.85 165.344 141.334 159.367C143.811 153.383 149.643 149.492 156.117 149.492H314.51C323.345 149.492 330.508 156.655 330.508 165.49V323.883Z" class="fa-secondary"/><path d="M330.704 323.883C330.704 330.355 326.815 336.188 320.827 338.664C314.849 341.148 307.966 339.77 303.392 335.195L258.138 289.941L190.255 357.824C177.759 370.321 157.497 370.321 145.001 357.824L122.373 335.196C109.876 322.699 109.876 302.438 122.373 289.941L190.255 222.059L145.001 176.805C140.427 172.227 139.046 165.344 141.53 159.367C144.007 153.383 149.839 149.492 156.314 149.492H314.706C323.542 149.492 330.704 156.655 330.704 165.49V323.883Z" class="fa-primary"/></svg>