<svg xmlns="http://www.w3.org/2000/svg" viewBox="0 0 448 512"><!-- Font Awesome Pro 6.0.0-alpha2 by @fontawesome - https://fontawesome.com License - https://fontawesome.com/license (Commercial License) --><defs><style>.fa-secondary{opacity:.4}</style></defs><path d="M384 32H64C28.654 32 0 60.654 0 96V416C0 451.346 28.654 480 64 480H384C419.346 480 448 451.346 448 416V96C448 60.654 419.346 32 384 32ZM296 320H288V360C288 373.25 277.25 384 264 384S240 373.25 240 360V320H138C129.922 320 122.391 315.938 117.953 309.188S112.766 293.938 115.953 286.5L177.953 142.5C183.188 130.344 197.266 124.656 209.484 129.969C221.672 135.187 227.281 149.312 222.047 161.5L174.469 272H240V221.344C240 208.094 250.75 197.344 264 197.344S288 208.094 288 221.344V272H296C309.25 272 320 282.75 320 296S309.25 320 296 320Z" class="fa-secondary"/><path d="M319.999 296C319.999 309.25 309.249 320 295.999 320H287.999V360C287.999 373.25 277.249 384 263.999 384S239.999 373.25 239.999 360V320H137.999C129.921 320 122.39 315.938 117.952 309.188S112.765 293.938 115.952 286.5L177.952 142.5C183.187 130.344 197.265 124.656 209.483 129.969C221.671 135.187 227.28 149.312 222.046 161.5L174.468 272H239.999V221.344C239.999 208.094 250.749 197.344 263.999 197.344S287.999 208.094 287.999 221.344V272H295.999C309.249 272 319.999 282.75 319.999 296Z" class="fa-primary"/></svg>