<svg xmlns="http://www.w3.org/2000/svg" viewBox="0 0 512 512"><!-- Font Awesome Pro 6.0.0-alpha2 by @fontawesome - https://fontawesome.com License - https://fontawesome.com/license (Commercial License) --><defs><style>.fa-secondary{opacity:.4}</style></defs><path d="M96 303.982V348.104L156.121 287.982H111.998C103.125 287.982 96 295.107 96 303.982ZM369.857 284.732L402.105 303.357C409.73 307.855 419.605 305.23 423.98 297.607L443.479 263.734L369.857 284.732Z" class="fa-secondary"/><path d="M512 79.996V183.863C512 219.611 488.252 250.984 454.004 260.734L285.139 308.98C272.014 312.73 260.141 319.73 250.516 329.355L74.902 504.969C65.527 514.344 50.402 514.344 41.029 504.969L7.031 470.971C-2.344 461.598 -2.344 446.473 7.031 437.098L182.645 261.484C203.77 240.359 230.018 224.986 258.766 216.736L416.006 171.74V95.994H365.635L354.135 119.117C350.135 126.992 340.51 130.242 332.637 126.242L275.389 97.619C267.516 93.744 264.266 84.119 268.266 76.246L284.264 44.248C297.764 17.123 325.512 0 355.76 0H432.004C476.127 0 512 35.873 512 79.996Z" class="fa-primary"/></svg>