<svg xmlns="http://www.w3.org/2000/svg" viewBox="0 0 512 512"><!-- Font Awesome Pro 6.0.0-alpha2 by @fontawesome - https://fontawesome.com License - https://fontawesome.com/license (Commercial License) --><defs><style>.fa-secondary{opacity:.4}</style></defs><path d="M416 255.996H349.5C333.125 255.996 320 242.87 320 226.495V217.12C320.002 189.813 328.779 163.793 341.393 139.574C350.682 121.741 354.461 100.69 350.391 78.375C343.34 39.73 311.648 8.015 272.922 1.434C212.436 -8.841 160 37.474 160 95.993C160 110.118 163.125 123.493 168.75 135.618C182.1 164.586 192.15 195.202 191.998 227.212C191.922 243.171 178.459 255.996 162.5 255.996H96C42.98 255.996 0 298.977 0 351.997V415.998H512V351.997C512 298.977 469.02 255.996 416 255.996Z" class="fa-secondary"/><path d="M32 512H480V416.008H32V512Z" class="fa-primary"/></svg>