<svg xmlns="http://www.w3.org/2000/svg" viewBox="0 0 512 512"><!-- Font Awesome Pro 6.0.0-alpha2 by @fontawesome - https://fontawesome.com License - https://fontawesome.com/license (Commercial License) --><defs><style>.fa-secondary{opacity:.4}</style></defs><path d="M508.992 219.264L469.369 202.639L452.744 163.01C451.869 161.135 449.994 160.01 447.994 160.01S444.119 161.135 443.244 163.01L426.619 202.639L386.996 219.264C385.121 220.139 383.996 222.014 383.996 224.014S385.121 227.889 386.996 228.764L426.619 245.391L443.244 285.018C444.119 286.893 445.994 288.018 447.994 288.018S451.869 286.893 452.744 285.018L469.369 245.391L508.992 228.764C510.867 227.889 511.992 226.014 511.992 224.014S510.867 220.139 508.992 219.264ZM415.996 80.006C415.996 77.506 414.621 75.129 412.246 74.004L362.621 53.379L341.998 3.75C340.873 1.375 338.498 0 335.998 0S331.123 1.375 329.998 3.75L309.373 53.379L259.75 74.004C257.375 75.129 256 77.506 256 80.006S257.375 84.881 259.75 86.006L309.373 106.631L329.998 156.26C331.123 158.635 333.498 160.01 335.998 160.01S340.873 158.635 341.998 156.26L362.621 106.631L412.246 86.006C414.621 84.881 415.996 82.506 415.996 80.006Z" class="fa-secondary"/><path d="M364.255 267.267L259.508 252.016L212.635 156.76C204.26 139.759 179.886 139.634 171.386 156.76L124.512 252.016L19.766 267.267C0.891 270.017 -6.733 293.269 7.016 306.52L82.889 380.524L64.889 485.156C61.764 504.032 81.639 518.158 98.263 509.282L192.01 459.904L285.757 509.282C293.507 513.408 302.882 512.658 310.006 507.532C317.006 502.407 320.631 493.656 319.131 485.156L301.257 380.524L377.129 306.52C390.754 293.269 383.129 270.017 364.255 267.267Z" class="fa-primary"/></svg>