<svg xmlns="http://www.w3.org/2000/svg" viewBox="0 0 576 512"><!-- Font Awesome Pro 6.0.0-alpha2 by @fontawesome - https://fontawesome.com License - https://fontawesome.com/license (Commercial License) --><defs><style>.fa-secondary{opacity:.4}</style></defs><path d="M560.001 223.654C568.837 223.654 576.001 216.49 576.001 207.654V155.199C576.001 148.475 571.796 142.467 565.477 140.166L311.327 47.562C255.579 27.506 193.612 25.59 139.223 49.15C-4.095 111.223 0.014 256 0.014 256S-4.341 400.666 139.223 462.85C193.612 486.408 255.579 484.494 311.327 464.436L327.655 458.486L227.18 335.68C226.102 335.723 225.094 336 224.008 336C179.212 336.617 142.393 300.801 141.776 256.002C141.161 211.203 176.975 174.387 221.774 173.77S303.391 208.969 304.006 253.768C304.106 260.896 303.264 268.006 301.503 274.914L390.754 384H432.004C448.225 384.006 463.34 392.223 472.167 405.832L565.477 371.834C571.796 369.533 576.001 363.525 576.001 356.801V304.346C576.001 295.51 568.837 288.346 560.001 288.346H416.004V223.654H560.001ZM80.012 272C71.176 272 64.012 264.838 64.012 256C64.012 247.164 71.176 240 80.012 240S96.012 247.164 96.012 256S88.848 272 80.012 272ZM112.012 368C103.176 368 96.012 360.838 96.012 352C96.012 343.164 103.174 336 112.01 336C120.848 336 128.012 343.164 128.012 352C128.01 360.836 120.848 368 112.012 368ZM112.012 176C103.176 176 96.012 168.838 96.012 160C96.012 151.164 103.174 144 112.01 144C120.848 144 128.012 151.164 128.012 160C128.01 168.836 120.848 176 112.012 176Z" class="fa-secondary"/><path d="M127.999 352C127.999 360.836 120.836 367.999 111.999 367.999C103.163 367.999 96 360.836 96 351.999C96 343.163 103.163 336 112 336C120.836 336.001 127.999 343.164 127.999 352ZM112 144C103.163 144 95.999 151.163 95.999 160C95.999 168.836 103.162 176 111.999 176C120.835 176 127.999 168.837 127.999 160.001C127.999 160 127.999 160 127.999 160C128 151.164 120.837 144.001 112.001 144C112 144 112 144 112 144ZM80 240C71.164 240 64 247.163 64 256C64 264.836 71.163 272 80 272C88.836 272 96 264.837 96 256.001C96 256 96 256 96 256C96 247.164 88.838 240.001 80.001 240C80.001 240 80.001 240 80 240V240ZM479.991 432C479.99 458.509 458.5 479.998 431.992 480H367.993C353.594 479.998 339.957 473.534 330.838 462.391L227.169 335.68C226.091 335.723 225.083 336 223.997 336C179.198 336.617 142.381 300.801 141.764 256.002C141.147 211.203 176.964 174.387 221.762 173.77C266.561 173.153 303.378 208.969 303.995 253.768C304.093 260.896 303.251 268.006 301.491 274.914L390.743 384H431.992C458.5 384.002 479.989 405.491 479.991 432ZM255.996 256C255.996 238.327 241.669 224.001 223.996 224.002C206.323 224.002 191.997 238.329 191.998 256.002C191.998 273.674 206.324 288 223.997 288C241.67 288 255.996 273.673 255.996 256Z" class="fa-primary"/></svg>