<svg xmlns="http://www.w3.org/2000/svg" viewBox="0 0 576 512"><!-- Font Awesome Pro 6.0.0-alpha2 by @fontawesome - https://fontawesome.com License - https://fontawesome.com/license (Commercial License) --><defs><style>.fa-secondary{opacity:.4}</style></defs><path d="M514.883 76.631C467.883 23.127 416.258 0 368.883 0C298.258 0 237.008 51.129 214.133 129.386C165.008 269.272 1.383 212.392 0.008 351.654C-1.242 473.288 139.258 516.292 256.008 511.667C343.758 508.291 443.383 474.539 526.508 379.781C596.758 299.774 591.633 164.013 514.883 76.631ZM478.383 337.652C402.258 424.409 314.133 445.411 253.633 447.786C215.883 449.162 122.008 441.286 82.383 401.158C79.883 398.657 22.883 339.403 120.383 297.024C192.008 265.772 252.633 225.768 275.508 147.387C290.383 96.758 327.008 64.005 368.883 64.005C401.383 64.005 435.258 83.007 466.883 118.885C522.008 181.765 527.258 281.898 478.383 337.652Z" class="fa-secondary"/><path d="M467.319 118.885C435.694 83.007 401.819 64.005 369.319 64.005C327.444 64.005 290.819 96.758 275.944 147.387C253.069 225.768 192.444 265.772 120.819 297.024C23.319 339.403 80.319 398.657 82.819 401.158C122.444 441.286 216.319 449.162 254.069 447.786C314.569 445.411 402.694 424.409 478.819 337.652C527.694 281.898 522.444 181.765 467.319 118.885ZM384.444 255.896C366.819 255.896 352.444 241.645 352.444 223.893C352.444 206.267 366.819 191.891 384.444 191.891S416.444 206.267 416.444 223.893C416.444 241.645 402.069 255.896 384.444 255.896Z" class="fa-primary"/></svg>