<svg xmlns="http://www.w3.org/2000/svg" viewBox="0 0 384 512"><!-- Font Awesome Pro 6.0.0-alpha2 by @fontawesome - https://fontawesome.com License - https://fontawesome.com/license (Commercial License) --><defs><style>.fa-secondary{opacity:.4}</style></defs><path d="M351.993 0H95.999C78.4 0 64 14.4 64 32V64C64 81.6 78.4 96 95.999 96H351.993C369.592 96 383.992 81.6 383.992 64V32C383.992 14.4 369.592 0 351.993 0ZM223.996 368C223.996 400.418 237.982 429.379 259.997 449.832L280.745 436C325.243 406.25 351.868 356.5 351.868 302.875V257.6C346.637 256.852 341.431 256 335.993 256C274.139 256 223.996 306.145 223.996 368Z" class="fa-secondary"/><path d="M260.005 449.832L199.005 490.5C177.255 505 152.506 512 128.131 512C86.757 512 46.258 492 21.509 455C-17.74 396.25 -1.74 316.75 57.008 277.5L96.007 251.5V96H351.876V257.6C346.645 256.852 341.439 256 336.001 256C274.147 256 224.004 306.145 224.004 368C224.004 400.418 237.99 429.379 260.005 449.832Z" class="fa-primary"/></svg>