<svg xmlns="http://www.w3.org/2000/svg" viewBox="0 0 448 512"><!-- Font Awesome Pro 6.0.0-alpha2 by @fontawesome - https://fontawesome.com License - https://fontawesome.com/license (Commercial License) --><defs><style>.fa-secondary{opacity:.4}</style></defs><path d="M398.501 190.906L399.094 190.297L425.682 163.725C431.933 157.477 431.935 147.344 425.686 141.094L403.002 118.406C396.755 112.158 386.625 112.157 380.377 118.405L355.686 143.094C327.686 120.094 293.499 104.297 255.999 98.5V64H272.016C289.616 64 304.016 49.6 304.016 32V32C304.016 14.4 289.616 0 272.016 0H176.014C158.414 0 144.014 14.4 144.014 32V32C144.014 49.6 158.414 64 176.014 64H191.997V98.5C94.366 113.481 19.155 196.476 16.092 297.587C12.641 411.509 106.769 510.23 220.73 511.976C337.133 513.76 432.001 419.997 432.001 304C432.001 262.203 419.688 223.297 398.501 190.906ZM192.001 364C203.047 364 212.001 372.969 212.001 384S203.047 404 192.001 404H144.001C132.954 404 124.001 395.031 124.001 384V369.938C124.001 342.719 134.594 317.125 153.844 297.875C165.391 286.312 172.001 270.344 172.001 254.062C172.001 241.125 156.001 243.187 156.001 252C156.001 263.031 147.047 272 136.001 272S116.001 263.031 116.001 252C116.001 225.531 137.532 204 164.001 204S212.001 225.531 212.001 252C212.001 281.281 201.407 306.875 182.157 326.125C172.016 336.281 165.688 349.812 164.297 364H192.001ZM340.001 352C340.001 380.688 316.672 404 288.001 404S236.001 380.688 236.001 352V256C236.001 227.312 259.329 204 288.001 204S340.001 227.312 340.001 256V352ZM288.001 244C281.391 244 276.001 249.375 276.001 256V352C276.001 358.625 281.391 364 288.001 364S300.001 358.625 300.001 352V256C300.001 249.375 294.61 244 288.001 244Z" class="fa-secondary"/><path d="M212 252C212 225.531 190.469 204 164 204S116 225.531 116 252C116 263.031 124.953 272 136 272S156 263.031 156 252C156 243.188 172 241.125 172 254.062C172 270.344 165.391 286.312 153.844 297.875C134.594 317.125 124 342.719 124 369.938V384C124 395.031 132.953 404 144 404H192C203.047 404 212 395.031 212 384S203.047 364 192 364H164.297C165.687 349.812 172.016 336.281 182.156 326.125C201.406 306.875 212 281.281 212 252ZM288 204C259.328 204 236 227.312 236 256V352C236 380.688 259.328 404 288 404S340 380.688 340 352V256C340 227.312 316.672 204 288 204ZM300 352C300 358.625 294.609 364 288 364S276 358.625 276 352V256C276 249.375 281.391 244 288 244S300 249.375 300 256V352Z" class="fa-primary"/></svg>