<svg xmlns="http://www.w3.org/2000/svg" viewBox="0 0 512 512"><!-- Font Awesome Pro 6.0.0-alpha2 by @fontawesome - https://fontawesome.com License - https://fontawesome.com/license (Commercial License) --><defs><style>.fa-secondary{opacity:.4}</style></defs><path d="M256 128C291.375 128 320 99.375 320 64S291.375 0 256 0S192 28.625 192 64S220.625 128 256 128ZM368 343.932V389.641C419.977 395.252 464 405.697 464 424C464 455.576 333.252 464 256 464C178.75 464 48 455.576 48 424C48 404.295 98.686 394.422 144 389.51V343.703C83.852 352.482 0 373.754 0 424C0 493.469 160.922 512 256 512S512 493.469 512 424C512 378.375 442.584 354.785 368 343.932Z" class="fa-secondary"/><path d="M192 304L204.496 403.969C206.498 419.983 220.111 432 236.249 432H275.751C291.889 432 305.502 419.983 307.504 403.969L320 304C337.674 304 352 289.672 352 272V224C352 188.654 323.346 160 288 160H224C188.654 160 160 188.654 160 224V272C160 289.672 174.326 304 192 304Z" class="fa-primary"/></svg>