<svg xmlns="http://www.w3.org/2000/svg" viewBox="0 0 576 512"><!-- Font Awesome Pro 6.0.0-alpha2 by @fontawesome - https://fontawesome.com License - https://fontawesome.com/license (Commercial License) --><defs><style>.fa-secondary{opacity:.4}</style></defs><path d="M286 384.01C250.572 384.01 220.033 403.423 203.476 432.017H368.523C351.967 403.423 321.428 384.01 286 384.01ZM529.435 365.276L420.429 345.573L400.728 236.545C398.754 225.612 386.135 220.386 377.008 226.719L286 289.881L194.99 226.717C185.865 220.384 173.246 225.61 171.269 236.543L151.57 345.573L42.562 365.274C31.633 367.251 26.404 379.872 32.736 388.997L62.582 432.017H168.109C187.101 385.231 232.398 352.004 286 352.004S384.898 385.231 403.89 432.017H509.416L539.262 388.999C545.594 379.872 540.365 367.253 529.435 365.276Z" class="fa-secondary"/><path d="M551.993 463.99H24.003C10.801 463.99 0 474.792 0 487.993V487.993C0 501.197 10.803 512 24.007 512H551.997C565.199 512 576 501.199 576 487.997V487.997C576 474.793 565.197 463.99 551.993 463.99ZM227.984 121L256 98.578V192C256 209.688 270.328 224 288 224S320 209.688 320 192V98.578L348.016 121C361.781 132.031 381.938 129.75 392.984 116C404.031 102.188 401.797 82.062 387.984 71L307.984 7C306.525 5.838 304.818 5.254 303.225 4.379C301.959 3.678 300.84 2.844 299.477 2.316C295.771 0.887 291.918 0 288 0S280.229 0.887 276.523 2.316C275.16 2.844 274.041 3.678 272.775 4.379C271.182 5.254 269.475 5.838 268.016 7L188.016 71C174.203 82.062 171.969 102.188 183.016 116C194.031 129.812 214.203 132.031 227.984 121Z" class="fa-primary"/></svg>