<svg xmlns="http://www.w3.org/2000/svg" viewBox="0 0 640 512"><!-- Font Awesome Pro 6.0.0-alpha2 by @fontawesome - https://fontawesome.com License - https://fontawesome.com/license (Commercial License) --><defs><style>.fa-secondary{opacity:.4}</style></defs><path d="M223.17 233.164C223.35 234.137 224.02 234.83 224.02 235.885V348.941L298.358 267.498L247.092 211.332L223.17 233.164ZM135.02 7.02C125.895 16.145 125.645 30.895 134.395 40.393L384.026 313.889V203.188L168.395 6.395C158.895 -2.355 144.145 -2.105 135.02 7.02ZM505.02 7.02C495.895 -2.105 481.145 -2.355 471.77 6.395L343.645 124.016L381.52 158.764C387.395 156.264 393.77 154.889 400.145 154.889C400.395 154.889 400.52 155.014 400.77 155.014L505.645 40.268C514.395 30.895 514.145 16.145 505.02 7.02Z" class="fa-secondary"/><path d="M401.895 191.762C391.889 181.514 374.631 188.637 374.631 203.012V340.006C374.506 344.256 376.258 348.256 379.258 351.256L434.533 406.504L525.076 315.883L401.895 191.762ZM187.25 224.637L158.5 253.76C146 241.26 125.75 241.26 113.25 253.76S100.75 286.508 113.125 299.008L0 412.129C-12.5 424.629 -12.5 444.877 0 457.377L45.25 502.625C57.75 515.125 78 515.125 90.5 502.625L209.875 384.256C212.875 381.256 214.625 377.131 214.625 372.881V235.885C214.625 221.637 197.25 214.512 187.25 224.637ZM159.125 360.506C150.375 360.506 143.125 353.256 143.125 344.506C143.125 335.633 150.375 328.508 159.125 328.508C168 328.508 175.125 335.633 175.125 344.506C175.125 353.256 168 360.506 159.125 360.506ZM621.246 412.129L536.332 327.258L513.695 349.881L621.246 457.377C633.752 444.877 633.752 424.629 621.246 412.129ZM445.789 417.754L530.703 502.625C543.209 515.125 563.469 515.125 575.975 502.625L468.424 395.129L445.789 417.754ZM479.805 383.881L587.23 491.375L609.99 468.752L502.441 361.256L479.805 383.881Z" class="fa-primary"/></svg>