<svg xmlns="http://www.w3.org/2000/svg" viewBox="0 0 512 512"><!-- Font Awesome Pro 6.0.0-alpha2 by @fontawesome - https://fontawesome.com License - https://fontawesome.com/license (Commercial License) --><defs><style>.fa-secondary{opacity:.4}</style></defs><path d="M208.75 154.125L267.312 212.687C273.562 218.937 273.562 229.062 267.312 235.312C264.188 238.438 260.094 240 256 240S247.812 238.438 244.688 235.312L186.125 176.75L144.75 218.125L203.312 276.687C209.562 282.937 209.562 293.062 203.312 299.312C200.188 302.438 196.094 304 192 304S183.812 302.438 180.688 299.312L122.125 240.75L82.746 280.129C70.742 292.131 64 308.41 64 325.385V414.062L7.031 471.031C2.344 475.719 0 481.859 0 488C0 494.141 2.344 500.281 7.031 504.969C11.719 509.656 17.859 512 24 512S36.281 509.656 40.969 504.969L97.938 448H186.631C203.605 448 219.885 441.256 231.887 429.254L442.113 219.016L292.979 69.896L208.75 154.125Z" class="fa-secondary"/><path d="M504.844 71.031L440.844 7.031C436.156 2.344 430.016 0 423.875 0C417.734 0 411.594 2.344 406.906 7.031C397.531 16.406 397.531 31.594 406.906 40.969L421.938 56L383.875 94.062L328.844 39.031C319.469 29.656 304.281 29.656 294.906 39.031C290.673 43.265 288.455 48.632 288.149 54.115C287.843 59.598 289.448 65.195 292.861 69.889L441.986 219.014C446.176 222.061 450.926 224 455.875 224C462.016 224 468.156 221.656 472.844 216.969C482.219 207.594 482.219 192.406 472.844 183.031L417.813 128L455.875 89.938L470.906 104.969C475.594 109.656 481.734 112 487.875 112S500.156 109.656 504.844 104.969C509.531 100.281 511.875 94.141 511.875 88C511.875 81.859 509.531 75.719 504.844 71.031ZM144.625 218.125L122 240.75L180.562 299.312C183.688 302.438 187.781 304 191.875 304S200.063 302.438 203.188 299.312C209.438 293.062 209.438 282.937 203.188 276.688L144.625 218.125ZM208.625 154.125L186 176.75L244.562 235.312C247.688 238.438 251.781 240 255.875 240S264.063 238.438 267.188 235.312C273.438 229.062 273.438 218.937 267.188 212.688L208.625 154.125Z" class="fa-primary"/></svg>