<svg xmlns="http://www.w3.org/2000/svg" viewBox="0 0 448 512"><!-- Font Awesome Pro 6.0.0-alpha2 by @fontawesome - https://fontawesome.com License - https://fontawesome.com/license (Commercial License) --><defs><style>.fa-secondary{opacity:.4}</style></defs><path d="M384 0.001H64C28.654 0.001 0 28.653 0 64.001V448.001C0 483.346 28.654 512.001 64 512.001H384C419.346 512.001 448 483.346 448 448.001V64.001C448 28.653 419.346 0.001 384 0.001ZM288 448.001C288 456.837 280.837 464.001 272 464.001H176C167.163 464.001 160 456.837 160 448.001V448.001C160 439.164 167.163 432.001 176 432.001H272C280.837 432.001 288 439.164 288 448.001V448.001ZM384 384.001H64V64.001H384V384.001Z" class="fa-secondary"/><path d="M384 384.001H64V64.001H384V384.001Z" class="fa-primary"/></svg>