<svg xmlns="http://www.w3.org/2000/svg" viewBox="0 0 512 512"><!-- Font Awesome Pro 6.0.0-alpha2 by @fontawesome - https://fontawesome.com License - https://fontawesome.com/license (Commercial License) --><defs><style>.fa-secondary{opacity:.4}</style></defs><path d="M448 224V160H362.666V96H298.666V160H213.334V96H149.334V160H64V224H149.334V288H64V352H149.334V416H213.334V352H298.666V416H362.666V352H448V288H362.666V224H448ZM298.666 288H213.334V224H298.666V288Z" class="fa-secondary"/><path d="M448 32H64C28.654 32 0 60.652 0 96V416C0 451.346 28.654 480 64 480H448C483.346 480 512 451.346 512 416V96C512 60.652 483.346 32 448 32ZM448 416H64V96H448V416Z" class="fa-primary"/></svg>