<svg xmlns="http://www.w3.org/2000/svg" viewBox="0 0 640 512"><!-- Font Awesome Pro 6.0.0-alpha2 by @fontawesome - https://fontawesome.com License - https://fontawesome.com/license (Commercial License) --><defs><style>.fa-secondary{opacity:.4}</style></defs><path d="M593.399 46.613C536.877 -9.898 449.217 -14.773 386.444 30.609C382.442 33.486 382.192 39.486 385.694 42.861L597.026 254.277C600.526 257.779 606.53 257.529 609.28 253.527C654.797 190.766 649.92 103.123 593.399 46.613ZM362.934 65.742C359.432 62.24 353.43 62.49 350.68 66.492C305.161 129.254 310.162 216.896 366.561 273.406C423.082 329.918 510.741 334.795 573.516 289.285C577.518 286.41 577.768 280.408 574.266 277.033L362.934 65.742Z" class="fa-secondary"/><path d="M8.366 336H311.663C316.661 336 320.659 331.5 319.911 326.75C307.413 250.5 241.055 192 159.952 192S12.491 250.5 0.118 326.75C-0.757 331.5 3.368 336 8.366 336ZM311.538 368H8.366C3.368 368 -0.757 372.5 0.118 377.25C12.491 453.5 78.848 512 159.952 512S307.413 453.5 319.786 377.25C320.659 372.5 316.536 368 311.538 368Z" class="fa-primary"/></svg>