<svg xmlns="http://www.w3.org/2000/svg" viewBox="0 0 448 512"><!-- Font Awesome Pro 6.0.0-alpha2 by @fontawesome - https://fontawesome.com License - https://fontawesome.com/license (Commercial License) --><defs><style>.fa-secondary{opacity:.4}</style></defs><path d="M0 60.001C0 44.537 12.536 32.001 28 32.001H214.804C227.562 32.001 245.381 39.381 254.402 48.403L431.598 225.605C453.468 247.475 453.467 282.933 431.596 304.802L272.786 463.6C250.917 485.468 215.461 485.467 193.592 463.599L16.402 286.403C7.381 277.382 0 259.562 0 246.805V60.001ZM80 144.001C80 161.678 94.333 176.001 112 176.001S144 161.678 144 144.001S129.667 112.001 112 112.001S80 126.324 80 144.001Z" class="fa-secondary"/></svg>