<svg xmlns="http://www.w3.org/2000/svg" viewBox="0 0 640 512"><!-- Font Awesome Pro 6.0.0-alpha2 by @fontawesome - https://fontawesome.com License - https://fontawesome.com/license (Commercial License) --><defs><style>.fa-secondary{opacity:.4}</style></defs><path d="M96 448C96 465.672 110.326 480 128 480S160 465.672 160 448V339.812L96 360.689V448ZM224 448C224 465.672 238.326 480 256 480S288 465.672 288 448V298.057L224 318.934V448ZM256 32C238.326 32 224 46.326 224 64V251.59L288 230.711V64C288 46.326 273.674 32 256 32ZM128 32C110.326 32 96 46.326 96 64V293.346L160 272.467V64C160 46.326 145.674 32 128 32ZM384 32C366.326 32 352 46.326 352 64V209.834L416 188.955V64C416 46.326 401.674 32 384 32ZM352 448C352 465.672 366.326 480 384 480S416 465.672 416 448V256.301L352 277.178V448ZM512 32C494.326 32 480 46.326 480 64V168.078L544 147.199V64C544 46.326 529.674 32 512 32ZM480 448C480 465.674 494.326 480 512 480S544 465.674 544 448V214.545L480 235.424V448Z" class="fa-secondary"/><path d="M617.871 190.448L41.86 378.353C25.131 383.78 7.012 374.53 1.596 357.798L1.562 357.695C-3.875 340.901 5.334 322.879 22.129 317.445L598.037 129.574C614.889 124.106 632.981 133.342 638.438 150.198V150.198C643.875 166.992 634.666 185.014 617.871 190.448Z" class="fa-primary"/></svg>