<svg xmlns="http://www.w3.org/2000/svg" viewBox="0 0 576 512"><!-- Font Awesome Pro 6.0.0-alpha2 by @fontawesome - https://fontawesome.com License - https://fontawesome.com/license (Commercial License) --><defs><style>.fa-secondary{opacity:.4}</style></defs><path d="M256 320H192C183.125 320 176 327.125 176 336V368C176 394.5 197.5 416 224 416S272 394.5 272 368V336C272 327.125 264.875 320 256 320ZM96 128C69.5 128 48 149.5 48 176V208C48 216.875 55.125 224 64 224H128C136.875 224 144 216.875 144 208V176C144 149.5 122.5 128 96 128ZM224 96C197.535 96 176 117.535 176 144V210.285C176 217.893 182.107 224 189.715 224H258.285C265.893 224 272 217.893 272 210.285V144C272 117.535 250.465 96 224 96ZM128 320H64C55.125 320 48 327.125 48 336V368C48 394.5 69.5 416 96 416S144 394.5 144 368V336C144 327.125 136.875 320 128 320ZM512 320H448C439.125 320 432 327.125 432 336V368C432 394.5 453.5 416 480 416S528 394.5 528 368V336C528 327.125 520.875 320 512 320ZM480 128C453.5 128 432 149.5 432 176V208C432 216.875 439.125 224 448 224H512C520.875 224 528 216.875 528 208V176C528 149.5 506.5 128 480 128ZM352 96C325.535 96 304 117.535 304 144V210.285C304 217.893 310.107 224 317.715 224H386.285C393.893 224 400 217.893 400 210.285V144C400 117.535 378.465 96 352 96ZM384 320H320C311.125 320 304 327.125 304 336V368C304 394.5 325.5 416 352 416S400 394.5 400 368V336C400 327.125 392.875 320 384 320Z" class="fa-secondary"/><path d="M512 288H64C28.654 288 0 316.652 0 352V384C0 437.02 42.98 480 96 480H480C533.02 480 576 437.02 576 384V352C576 316.652 547.346 288 512 288ZM144 368C144 394.5 122.5 416 96 416S48 394.5 48 368V336C48 327.125 55.125 320 64 320H128C136.875 320 144 327.125 144 336V368ZM272 368C272 394.5 250.5 416 224 416S176 394.5 176 368V336C176 327.125 183.125 320 192 320H256C264.875 320 272 327.125 272 336V368ZM400 368C400 394.5 378.5 416 352 416S304 394.5 304 368V336C304 327.125 311.125 320 320 320H384C392.875 320 400 327.125 400 336V368ZM528 368C528 394.5 506.5 416 480 416S432 394.5 432 368V336C432 327.125 439.125 320 448 320H512C520.875 320 528 327.125 528 336V368ZM480 32H96C42.98 32 0 74.98 0 128V192C0 227.346 28.654 256 64 256H512C547.346 256 576 227.346 576 192V128C576 74.98 533.02 32 480 32ZM144 208C144 216.875 136.875 224 128 224H64C55.125 224 48 216.875 48 208V176C48 149.5 69.5 128 96 128S144 149.5 144 176V208ZM272 210.285C272 217.893 265.893 224 258.285 224H189.715C182.107 224 176 217.893 176 210.285V144C176 117.535 197.535 96 224 96S272 117.535 272 144V210.285ZM400 210.285C400 217.893 393.893 224 386.285 224H317.715C310.107 224 304 217.893 304 210.285V144C304 117.535 325.535 96 352 96S400 117.535 400 144V210.285ZM528 208C528 216.875 520.875 224 512 224H448C439.125 224 432 216.875 432 208V176C432 149.5 453.5 128 480 128S528 149.5 528 176V208Z" class="fa-primary"/></svg>