<svg xmlns="http://www.w3.org/2000/svg" viewBox="0 0 320 512"><!-- Font Awesome Pro 6.0.0-alpha2 by @fontawesome - https://fontawesome.com License - https://fontawesome.com/license (Commercial License) --><defs><style>.fa-secondary{opacity:.4}</style></defs><path d="M272 278.501V112.001C272 50.126 221.875 0.001 160 0.001S48 50.126 48 112.001V278.501C28.25 303.251 16 334.001 16 368.001C16 447.501 80.5 512.001 160 512.001S304 447.501 304 368.001C304 334.001 291.75 303.126 272 278.501ZM160 448.001C115.875 448.001 80 412.126 80 368.001C80 342.501 92.25 319.126 112 304.251V112.001C112 85.501 133.5 64.001 160 64.001S208 85.501 208 112.001V304.251C227.75 319.001 240 342.501 240 368.001C240 412.126 204.125 448.001 160 448.001Z" class="fa-secondary"/><path d="M176 322.876V112.001C176 103.251 168.75 96.001 160 96.001S144 103.251 144 112.001V322.876C125.375 329.501 112 347.126 112 368.001C112 394.501 133.5 416.001 160 416.001S208 394.501 208 368.001C208 347.126 194.625 329.501 176 322.876Z" class="fa-primary"/></svg>