<svg xmlns="http://www.w3.org/2000/svg" viewBox="0 0 448 512"><!-- Font Awesome Pro 6.0.0-alpha2 by @fontawesome - https://fontawesome.com License - https://fontawesome.com/license (Commercial License) --><defs><style>.fa-secondary{opacity:.4}</style></defs><path d="M448 72V120C448 142.094 430.094 160 408 160S368 142.094 368 120V112H263.357C263.449 113.107 264 114.057 264 115.188V224H272C289.672 224 304 238.312 304 256S289.672 288 272 288H176C158.328 288 144 273.688 144 256S158.328 224 176 224H184V115.188C184 114.057 184.551 113.107 184.643 112H80V120C80 142.094 62.094 160 40 160S0 142.094 0 120V72C0 49.906 17.906 32 40 32H408C430.094 32 448 49.906 448 72Z" class="fa-secondary"/><path d="M363.188 292.747C353.937 283.373 335.938 288.373 335.938 303.997V351.997H111.938V303.997C111.938 289.748 94.688 282.623 84.688 292.747L4.688 372.747C-1.563 378.997 -1.563 388.997 4.688 395.247L84.688 475.246C93.937 484.621 111.938 479.621 111.938 463.996V415.997H335.938V463.996C335.938 478.246 353.188 485.371 363.188 475.246L443.188 395.247C449.438 388.997 449.438 378.997 443.188 372.747L363.188 292.747Z" class="fa-primary"/></svg>