<svg xmlns="http://www.w3.org/2000/svg" viewBox="0 0 640 512"><!-- Font Awesome Pro 6.0.0-alpha2 by @fontawesome - https://fontawesome.com License - https://fontawesome.com/license (Commercial License) --><defs><style>.fa-secondary{opacity:.4}</style></defs><path d="M640 208V112C640 85.5 618.5 64 592 64H48C21.5 64 0 85.5 0 112V400C0 426.5 21.5 448 48 448H592C618.5 448 640 426.5 640 400V304C613.5 304 592 282.5 592 256S613.5 208 640 208ZM304 288H255.998L200.26 379.725C198.75 382.367 195.936 384 192.902 384H158.172C152.539 383.998 148.463 378.596 150.02 373.178L176.018 288H119.992L98.402 316.795C96.887 318.812 94.512 319.998 91.996 320H71.996C66.793 320 62.979 315.107 64.244 310.061L79.994 256L64.246 201.936C62.98 196.889 66.793 192 71.996 192H91.996C94.51 192 96.887 193.186 98.402 195.203L119.994 224V224.002L176.016 224L150.02 138.811C148.463 133.393 152.537 128 158.172 128H192.902C195.621 128 198.918 129.914 200.275 132.275L256 224H304.002C321.672 224 352 238.328 352 256S321.672 288.002 304 288ZM432 400C423.164 400 416 392.836 416 384C416 375.162 423.164 368 432 368S448 375.162 448 384C448 392.836 440.836 400 432 400ZM432 336C423.164 336 416 328.836 416 320C416 311.162 423.164 304 432 304S448 311.162 448 320C448 328.836 440.836 336 432 336ZM432 272C423.164 272 416 264.836 416 256C416 247.162 423.164 240 432 240S448 247.162 448 256C448 264.836 440.836 272 432 272ZM432 208C423.164 208 416 200.836 416 192C416 183.162 423.164 176 432 176S448 183.162 448 192C448 200.836 440.836 208 432 208ZM432 144C423.164 144 416 136.836 416 128C416 119.162 423.164 112 432 112S448 119.162 448 128C448 136.836 440.836 144 432 144Z" class="fa-secondary"/><path d="M304 288H255.998L200.26 379.725C198.75 382.367 195.936 384 192.902 384H158.172C152.539 383.998 148.463 378.596 150.02 373.178L176.018 288H119.992L98.402 316.795C96.887 318.812 94.512 319.998 91.996 320H71.996C66.793 320 62.979 315.107 64.244 310.061L79.994 256L64.246 201.936C62.98 196.889 66.793 192 71.996 192H91.996C94.51 192 96.887 193.186 98.402 195.203L119.994 224V224.002L176.016 224L150.02 138.811C148.463 133.393 152.537 128 158.172 128H192.902C195.621 128 198.918 129.914 200.275 132.275L256 224H304.002C321.672 224 352 238.328 352 256S321.672 288.002 304 288Z" class="fa-primary"/></svg>