<svg xmlns="http://www.w3.org/2000/svg" viewBox="0 0 640 512"><!-- Font Awesome Pro 6.0.0-alpha2 by @fontawesome - https://fontawesome.com License - https://fontawesome.com/license (Commercial License) --><defs><style>.fa-secondary{opacity:.4}</style></defs><path d="M640 256C640 273.666 625.666 288 608 288H352V358.754C342.188 354.459 331.395 352 320 352S297.811 354.459 288 358.754V288H32C14.334 288 0 273.666 0 256S14.334 224 32 224H96V153.246C105.812 157.541 116.605 160 128 160S150.189 157.541 160 153.246V224H480V153.246C489.812 157.541 500.605 160 512 160S534.189 157.541 544 153.246V224H608C625.666 224 640 238.334 640 256Z" class="fa-secondary"/><path d="M128 0C83.818 0 48 35.82 48 80S83.818 160 128 160C172.184 160 208 124.18 208 80S172.184 0 128 0ZM128 112C110.355 112 96 97.645 96 80S110.355 48 128 48S160 62.355 160 80S145.645 112 128 112ZM320 352C275.816 352 240 387.82 240 432S275.816 512 320 512C364.182 512 400 476.18 400 432S364.182 352 320 352ZM320 464C302.355 464 288 449.645 288 432S302.355 400 320 400S352 414.355 352 432S337.645 464 320 464ZM512 0C467.818 0 432 35.82 432 80S467.818 160 512 160C556.184 160 592 124.18 592 80S556.184 0 512 0ZM512 112C494.355 112 480 97.645 480 80S494.355 48 512 48S544 62.355 544 80S529.645 112 512 112Z" class="fa-primary"/></svg>