<svg xmlns="http://www.w3.org/2000/svg" viewBox="0 0 512 512"><!-- Font Awesome Pro 6.0.0-alpha2 by @fontawesome - https://fontawesome.com License - https://fontawesome.com/license (Commercial License) --><defs><style>.fa-secondary{opacity:.4}</style></defs><path d="M256 96C167.635 96 96 167.635 96 256S167.635 416 256 416S416 344.365 416 256S344.365 96 256 96ZM256 128C278.344 128 299.053 134.262 317.354 144.367L279.418 196.566C272.15 193.699 264.287 192 256 192S239.85 193.699 232.582 196.566L194.646 144.367C212.947 134.262 233.656 128 256 128ZM128 256C128 219.27 143.764 186.346 168.627 162.98L206.809 215.518C197.695 226.574 192 240.553 192 256C192 257.314 192.309 258.545 192.387 259.84L130.424 279.967C128.941 272.186 128 264.207 128 256ZM240 382.383C195.883 376.795 158.859 349.057 140.547 310.324L202.135 290.318C210.717 303.758 224.154 313.633 240 317.736V382.383ZM224 256C224 238.355 238.355 224 256 224S288 238.355 288 256S273.645 288 256 288S224 273.645 224 256ZM272 382.383V317.736C287.846 313.633 301.283 303.758 309.865 290.318L371.453 310.324C353.141 349.057 316.117 376.795 272 382.383ZM319.613 259.84C319.691 258.545 320 257.314 320 256C320 240.553 314.305 226.574 305.191 215.518L343.373 162.98C368.236 186.346 384 219.27 384 256C384 264.207 383.059 272.186 381.576 279.967L319.613 259.84Z" class="fa-secondary"/><path d="M256 224C238.355 224 224 238.355 224 256S238.355 288 256 288S288 273.645 288 256S273.645 224 256 224ZM256 0C114.625 0 0 114.625 0 256S114.625 512 256 512S512 397.375 512 256S397.375 0 256 0ZM256 416C167.635 416 96 344.365 96 256S167.635 96 256 96S416 167.635 416 256S344.365 416 256 416Z" class="fa-primary"/></svg>