<svg xmlns="http://www.w3.org/2000/svg" viewBox="0 0 512 512"><!-- Font Awesome Pro 6.0.0-alpha2 by @fontawesome - https://fontawesome.com License - https://fontawesome.com/license (Commercial License) --><defs><style>.fa-secondary{opacity:.4}</style></defs><path d="M256 128C167.635 128 96 199.635 96 288S167.635 448 256 448S416 376.365 416 288S344.365 128 256 128ZM256 160C278.344 160 299.053 166.262 317.354 176.367L279.418 228.566C272.15 225.699 264.287 224 256 224S239.85 225.699 232.582 228.566L194.646 176.367C212.947 166.262 233.656 160 256 160ZM128 288C128 251.27 143.764 218.346 168.627 194.98L206.809 247.518C197.695 258.574 192 272.553 192 288C192 289.314 192.309 290.545 192.387 291.84L130.424 311.967C128.941 304.186 128 296.207 128 288ZM240 414.383C195.883 408.795 158.859 381.057 140.547 342.324L202.135 322.318C210.717 335.758 224.154 345.633 240 349.736V414.383ZM224 288C224 270.355 238.355 256 256 256S288 270.355 288 288S273.645 320 256 320S224 305.645 224 288ZM272 414.383V349.736C287.846 345.633 301.283 335.758 309.865 322.318L371.453 342.324C353.141 381.057 316.117 408.795 272 414.383ZM319.613 291.84C319.691 290.545 320 289.314 320 288C320 272.553 314.305 258.574 305.191 247.518L343.373 194.98C368.236 218.346 384 251.27 384 288C384 296.207 383.059 304.186 381.576 311.967L319.613 291.84Z" class="fa-secondary"/><path d="M476.418 417.826C498.971 379.781 512 335.449 512 288C512 146.625 397.375 32 256 32S0 146.625 0 288C0 335.449 13.029 379.781 35.582 417.826C15.133 423.324 0 441.814 0 464C0 490.51 21.49 512 48 512H464C490.51 512 512 490.51 512 464C512 441.814 496.867 423.324 476.418 417.826ZM256 448C167.635 448 96 376.365 96 288S167.635 128 256 128S416 199.635 416 288S344.365 448 256 448ZM256 256C238.355 256 224 270.355 224 288S238.355 320 256 320S288 305.645 288 288S273.645 256 256 256Z" class="fa-primary"/></svg>