<svg xmlns="http://www.w3.org/2000/svg" viewBox="0 0 640 512"><!-- Font Awesome Pro 6.0.0-alpha2 by @fontawesome - https://fontawesome.com License - https://fontawesome.com/license (Commercial License) --><defs><style>.fa-secondary{opacity:.4}</style></defs><path d="M480 0H160C135.248 0 112.75 18.92 95.721 49.713L576 426.143V192C576 86 533 0 480 0ZM480 256C462.375 256 448 227.375 448 192S462.375 128 480 128S512 156.625 512 192S497.625 256 480 256ZM64 192C64 298 107 384 160 384H192V480C192 497.672 206.326 512 224 512H529.885L66.529 148.83C64.93 162.727 64 177.135 64 192Z" class="fa-secondary"/><path d="M24.032 0C29.189 0 34.407 1.672 38.814 5.109L630.811 469.102C641.249 477.274 643.061 492.368 634.874 502.805C626.749 513.211 611.686 515.086 601.186 506.883L9.189 42.89C-1.249 34.718 -3.061 19.625 5.126 9.187C9.845 3.156 16.907 0 24.032 0Z" class="fa-primary"/></svg>