<svg xmlns="http://www.w3.org/2000/svg" viewBox="0 0 576 512"><!-- Font Awesome Pro 6.0.0-alpha2 by @fontawesome - https://fontawesome.com License - https://fontawesome.com/license (Commercial License) --><defs><style>.fa-secondary{opacity:.4}</style></defs><path d="M479.997 0H127.981C74.979 0 31.977 86 31.977 192V364.125C31.977 405.25 22.227 426.875 0.85 491C-2.65 501.25 5.1 512 15.977 512H328.874C342.749 512 354.874 503.25 359.249 490.125C372.126 451.625 384.001 417.75 384.001 364.125V192.309C384.001 192.205 383.993 192.104 383.993 192C383.993 86 426.995 0 479.997 0Z" class="fa-secondary"/><path d="M479.586 0C426.584 0 383.582 86 383.582 192C383.582 192.104 383.59 192.205 383.59 192.309V364.125C383.59 371.072 383.375 377.662 383 384H479.59C532.59 383.996 575.59 297.998 575.59 192C575.59 86 532.588 0 479.586 0ZM479.586 256C461.959 256 447.584 227.375 447.584 192S461.959 128 479.586 128C497.211 128 511.588 156.625 511.588 192S497.211 256 479.586 256Z" class="fa-primary"/></svg>