<svg xmlns="http://www.w3.org/2000/svg" viewBox="0 0 512 512"><!-- Font Awesome Pro 6.0.0-alpha2 by @fontawesome - https://fontawesome.com License - https://fontawesome.com/license (Commercial License) --><defs><style>.fa-secondary{opacity:.4}</style></defs><path d="M320 192C320 86 363 0 416 0H96C43 0 0 86 0 192C0 298 43 384 96 384H416C363 384 320 298 320 192ZM63.975 224C55.1 224 47.975 216.875 47.975 208S55.1 192 63.975 192S79.975 199.125 79.975 208S72.85 224 63.975 224ZM127.975 224C119.1 224 111.975 216.875 111.975 208S119.1 192 127.975 192S143.975 199.125 143.975 208S136.85 224 127.975 224ZM191.975 224C183.1 224 175.975 216.875 175.975 208S183.1 192 191.975 192S207.975 199.125 207.975 208S200.85 224 191.975 224ZM255.975 224C247.1 224 239.975 216.875 239.975 208S247.1 192 255.975 192S271.975 199.125 271.975 208S264.85 224 255.975 224Z" class="fa-secondary"/><path d="M416.025 0C363.025 0 320.025 86 320.025 192C320.025 276.035 347.094 347.32 384.703 373.328C394.533 380.127 405.043 384 416.025 384H128.025V480C128.025 497.672 142.352 512 160.025 512H480.025C497.699 512 512.025 497.672 512.025 480V192C512.025 86 469.025 0 416.025 0ZM416.025 256C398.4 256 384.025 227.375 384.025 192S398.4 128 416.025 128S448.025 156.625 448.025 192S433.65 256 416.025 256ZM192 224C200.875 224 208 216.875 208 208S200.875 192 192 192S176 199.125 176 208S183.125 224 192 224ZM256 224C264.875 224 272 216.875 272 208S264.875 192 256 192S240 199.125 240 208S247.125 224 256 224ZM144 208C144 199.125 136.875 192 128 192S112 199.125 112 208S119.125 224 128 224S144 216.875 144 208ZM64 192C55.125 192 48 199.125 48 208S55.125 224 64 224S80 216.875 80 208S72.875 192 64 192Z" class="fa-primary"/></svg>