<svg xmlns="http://www.w3.org/2000/svg" viewBox="0 0 512 512"><!-- Font Awesome Pro 6.0.0-alpha2 by @fontawesome - https://fontawesome.com License - https://fontawesome.com/license (Commercial License) --><defs><style>.fa-secondary{opacity:.4}</style></defs><path d="M384 320V368C384 376.875 376.875 384 368 384H336C327.125 384 320 376.875 320 368V320H192V368C192 376.875 184.875 384 176 384H144C135.125 384 128 376.875 128 368V320H0V448C0 465.625 14.375 480 32 480H480C497.625 480 512 465.625 512 448V320H384ZM176 80H336V128H384V80C384 53.5 362.5 32 336 32H176C149.5 32 128 53.5 128 80V128H176V80Z" class="fa-secondary"/><path d="M512 205.25V320H384V272C384 263.125 376.875 256 368 256H336C327.125 256 320 263.125 320 272V320H192V272C192 263.125 184.875 256 176 256H144C135.125 256 128 263.125 128 272V320H0V205.25C0 196.75 3.375 188.625 9.375 182.625L54.625 137.375C60.625 131.375 68.75 128 77.25 128H434.75C443.25 128 451.375 131.375 457.375 137.375L502.625 182.625C508.625 188.625 512 196.75 512 205.25Z" class="fa-primary"/></svg>