<svg xmlns="http://www.w3.org/2000/svg" viewBox="0 0 448 512"><!-- Font Awesome Pro 6.0.0-alpha2 by @fontawesome - https://fontawesome.com License - https://fontawesome.com/license (Commercial License) --><defs><style>.fa-secondary{opacity:.4}</style></defs><path d="M415.98 128H32.019C10.759 128 -4.591 148.348 1.251 168.791L38.995 300.898C34.874 306.285 31.999 312.695 31.999 320C31.999 337.672 46.327 352 63.999 352H383.999C401.673 352 415.999 337.672 415.999 320C415.999 312.695 413.124 306.285 409.003 300.898L446.749 168.791C452.589 148.348 437.239 128 415.98 128ZM127.999 288H85.232L53.232 176H127.999V288ZM287.999 288H159.999V176H287.999V288ZM362.769 288H319.999V176H394.769L362.769 288Z" class="fa-secondary"/><path d="M96 352V480C96 497.672 110.328 512 128 512H320C337.674 512 352 497.672 352 480V352H96ZM288 96H248V48H264C277.256 48 288 37.254 288 24C288 10.744 277.256 0 264 0H184C170.746 0 160 10.744 160 24C160 37.254 170.746 48 184 48H200V96H160C142.328 96 128 110.326 128 128H320C320 110.326 305.674 96 288 96Z" class="fa-primary"/></svg>