<svg xmlns="http://www.w3.org/2000/svg" viewBox="0 0 640 512"><!-- Font Awesome Pro 6.0.0-alpha2 by @fontawesome - https://fontawesome.com License - https://fontawesome.com/license (Commercial License) --><defs><style>.fa-secondary{opacity:.4}</style></defs><path d="M528 336C479.398 336 440 375.398 440 424C440 472.6 479.398 512 528 512S616 472.6 616 424C616 375.398 576.602 336 528 336ZM528 448C514.746 448 504 437.254 504 424C504 410.744 514.746 400 528 400S552 410.744 552 424C552 437.254 541.254 448 528 448ZM329.999 291.998H322.859C319.896 282.045 315.924 272.422 311 263.279L316.061 258.219C324.65 249.629 324.65 235.701 316.061 227.109L284.9 196C276.309 187.408 262.381 187.408 253.789 196L248.73 201.059C239.586 196.119 229.959 192.127 220 189.148V181.998C220 169.85 210.15 160 197.999 160H153.999C141.85 160 132 169.85 132 181.998V189.139C122.043 192.119 112.416 196.111 103.27 201.049L98.27 196C89.68 187.408 75.752 187.408 67.16 196L36 227.1C27.41 235.691 27.41 249.617 36 258.209L41.061 263.27C36.119 272.412 32.129 282.039 29.15 291.998H21.999C9.85 291.998 0 301.85 0 314V357.998C0 370.148 9.85 380 21.999 380H29.141C32.119 389.955 36.111 399.582 41.051 408.729L36.051 413.729C27.461 422.32 27.461 436.248 36.051 444.84L67.1 475.998C75.691 484.59 89.619 484.59 98.211 475.998L103.27 470.939C112.414 475.879 122.041 479.869 132 482.85V489.998C132 502.148 141.85 512 153.999 512H197.999C210.15 512 220 502.148 220 489.998V482.859C229.953 479.895 239.576 475.922 248.721 471L253.779 476.059C262.371 484.648 276.299 484.648 284.891 476.059L316 444.898C324.59 436.307 324.59 422.381 316 413.789L310.939 408.729C315.881 399.584 319.871 389.957 322.85 380H329.999C342.15 380 352 370.148 352 357.998V314C352 301.85 342.15 291.998 329.999 291.998ZM176 415.998C131.816 415.998 96 380.182 96 335.998C96 291.816 131.816 255.998 176 255.998S256 291.816 256 335.998C256 380.182 220.184 415.998 176 415.998Z" class="fa-secondary"/><path d="M640 192V242.76C640.002 251.246 636.631 259.387 630.631 265.389L579.811 316.199C563.688 308.26 545.971 304.088 528 304C488.859 304 454.449 323 432.539 352H352V314C352 301.85 342.15 292 329.999 292H322.859C319.896 282.043 315.924 272.416 311 263.27L316.061 258.209C324.65 249.619 324.65 235.691 316.061 227.1L284.9 196C276.309 187.41 262.381 187.41 253.789 196L248.73 201.059C239.588 196.111 229.961 192.117 220 189.139V182C220 169.85 210.15 160 197.999 160H308L266.891 64H160V160H153.999C141.85 160 132 169.85 132 182V189.139C122.047 192.102 112.424 196.076 103.279 201L98.221 196C97.523 195.309 96.781 194.664 96 194.07V48C96.027 21.502 117.502 0.027 144 0H277.449C296.674 -0.02 314.049 11.453 321.58 29.139L377.67 160H480V119.799C480.018 89.955 490.451 61.055 509.5 38.08C515.137 31.074 525.385 29.963 532.389 35.6C533.035 36.119 533.641 36.688 534.199 37.299L555.83 61.469C560.699 66.9 561.57 75.16 557.15 80.959C548.631 92.115 544.01 105.762 544 119.799V160H608C625.674 160 640 174.326 640 192Z" class="fa-primary"/></svg>