<svg xmlns="http://www.w3.org/2000/svg" viewBox="0 0 640 512"><!-- Font Awesome Pro 6.0.0-alpha2 by @fontawesome - https://fontawesome.com License - https://fontawesome.com/license (Commercial License) --><defs><style>.fa-secondary{opacity:.4}</style></defs><path d="M640 144V368C640 394.5 618.5 416 592 416S544 394.5 544 368V280.844L501.469 334C483.281 356.75 444.719 356.75 426.531 334L384 280.844V368C384 394.5 362.5 416 336 416S288 394.5 288 368V144C288 123.625 300.875 105.469 320.125 98.719C339.219 91.875 360.719 98.062 373.469 114L464 227.156L554.531 114C567.281 98.094 588.719 91.906 607.875 98.719C627.125 105.469 640 123.625 640 144Z" class="fa-secondary"/><path d="M256 144C256 170.5 234.5 192 208 192H176V368C176 394.5 154.5 416 128 416S80 394.5 80 368V192H48C21.5 192 0 170.5 0 144S21.5 96 48 96H208C234.5 96 256 117.5 256 144Z" class="fa-primary"/></svg>