<svg xmlns="http://www.w3.org/2000/svg" viewBox="0 0 512 512"><!-- Font Awesome Pro 6.0.0-alpha2 by @fontawesome - https://fontawesome.com License - https://fontawesome.com/license (Commercial License) --><defs><style>.fa-secondary{opacity:.4}</style></defs><path d="M400.125 288H111.375L86 352H425.5L400.125 288ZM336.375 128H175.125L149.625 192H361.875L336.375 128Z" class="fa-secondary"/><path d="M362.125 192H149.875L111.625 288H400.375L362.125 192ZM289.75 10.125C287.25 4 281.375 0 274.875 0H237.125C230.625 0 224.75 4 222.25 10.125L175.375 128H336.625L289.75 10.125ZM480 448H464L425.75 352H86.25L48 448H32C14.326 448 0 462.326 0 480S14.326 512 32 512H480C497.674 512 512 497.674 512 480S497.674 448 480 448Z" class="fa-primary"/></svg>