<svg xmlns="http://www.w3.org/2000/svg" viewBox="0 0 512 512"><!-- Font Awesome Pro 6.0.0-alpha2 by @fontawesome - https://fontawesome.com License - https://fontawesome.com/license (Commercial License) --><defs><style>.fa-secondary{opacity:.4}</style></defs><path d="M256 0C114.615 0 0 114.613 0 256V448C0 483.346 28.654 512 64 512H105.375L169.982 447.393C137.502 444.316 112 417.285 112 384V192C112 156.652 140.654 128 176 128H336C371.346 128 400 156.652 400 192V384C400 417.285 374.498 444.316 342.018 447.393L406.625 512H448C483.346 512 512 483.346 512 448V256C512 114.613 397.385 0 256 0ZM214.625 448L150.625 512H361.375L297.375 448H214.625ZM352 297.143V214.855C352 202.268 341.732 192 329.145 192H182.857C170.27 192 160 202.268 160 214.855V297.143C160 309.732 170.27 320 182.857 320H329.145C341.732 320 352 309.732 352 297.143Z" class="fa-secondary"/><path d="M336 128H176C140.654 128 112 156.652 112 192V384C112 419.346 140.654 448 176 448H336C371.346 448 400 419.346 400 384V192C400 156.652 371.346 128 336 128ZM184 400C170.781 400 160 389.219 160 376S170.781 352 184 352S208 362.781 208 376S197.219 400 184 400ZM328 400C314.781 400 304 389.219 304 376S314.781 352 328 352S352 362.781 352 376S341.219 400 328 400ZM352 297.143C352 309.732 341.732 320 329.145 320H182.857C170.27 320 160 309.732 160 297.143V214.855C160 202.268 170.27 192 182.857 192H329.145C341.732 192 352 202.268 352 214.855V297.143Z" class="fa-primary"/></svg>