<svg xmlns="http://www.w3.org/2000/svg" viewBox="0 0 512 512"><!-- Font Awesome Pro 6.0.0-alpha2 by @fontawesome - https://fontawesome.com License - https://fontawesome.com/license (Commercial License) --><defs><style>.fa-secondary{opacity:.4}</style></defs><path d="M256 176C229.491 176 208 197.489 208 224C208 250.509 229.491 272 256 272S304 250.509 304 224C304 197.489 282.509 176 256 176Z" class="fa-secondary"/><path d="M480 0.001H367.631C346.248 0.001 335.541 25.852 350.66 40.971L380.217 70.528L353.107 97.639C326.109 76.854 292.705 64.001 256 64.001C167.635 64.001 96 135.635 96 224.001C96 301.405 150.971 365.948 224 380.776V400.001H192C183.164 400.001 176 407.163 176 416.001V448.001C176 456.837 183.164 464.001 192 464.001H224V496.001C224 504.837 231.164 512.001 240 512.001H272C280.838 512.001 288 504.837 288 496.001V464.001H320C328.838 464.001 336 456.837 336 448.001V416.001C336 407.163 328.838 400.001 320 400.001H288V380.776C361.029 365.948 416 301.405 416 224.001C416 195.616 407.982 169.348 395.02 146.235L425.473 115.784L455.029 145.34C470.148 160.46 496 149.753 496 128.37V16.001C496 7.165 488.836 0.001 480 0.001ZM256 304.001C211.889 304.001 176 268.112 176 224.001C176 179.887 211.889 144.001 256 144.001C300.113 144.001 336 179.887 336 224.001C336 268.112 300.113 304.001 256 304.001Z" class="fa-primary"/></svg>