<svg xmlns="http://www.w3.org/2000/svg" viewBox="0 0 512 512"><!-- Font Awesome Pro 6.0.0-alpha2 by @fontawesome - https://fontawesome.com License - https://fontawesome.com/license (Commercial License) --><defs><style>.fa-secondary{opacity:.4}</style></defs><path d="M506.274 417L292.95 53C276.618 25 235.397 25 218.954 53L5.741 417C-10.591 444.891 9.852 480 42.741 480H469.276C502.051 480 522.606 445 506.274 417ZM232.001 168C232.001 154.75 242.751 144 256.001 144S280.001 154.75 280.001 168V296C280.001 309.25 269.251 320 256.001 320S232.001 309.25 232.001 296V168ZM256.001 416C238.637 416 224.563 401.924 224.563 384.561C224.563 367.199 238.637 353.123 256.001 353.123S287.438 367.199 287.438 384.561C287.438 401.924 273.364 416 256.001 416Z" class="fa-secondary"/><path d="M256.438 320C269.688 320 280.438 309.25 280.438 296V168C280.438 154.75 269.688 144 256.438 144S232.438 154.75 232.438 168V296C232.438 309.25 243.188 320 256.438 320ZM256.438 353.123C239.074 353.123 225 367.199 225 384.561C225 401.924 239.074 416 256.438 416S287.875 401.924 287.875 384.561C287.875 367.199 273.801 353.123 256.438 353.123Z" class="fa-primary"/></svg>