<svg xmlns="http://www.w3.org/2000/svg" viewBox="0 0 640 512"><!-- Font Awesome Pro 6.0.0-alpha2 by @fontawesome - https://fontawesome.com License - https://fontawesome.com/license (Commercial License) --><defs><style>.fa-secondary{opacity:.4}</style></defs><path d="M528 352C492.654 352 464 380.652 464 416C464 451.346 492.654 480 528 480S592 451.346 592 416C592 380.652 563.346 352 528 352ZM80 352C44.654 352 16 380.652 16 416C16 451.346 44.654 480 80 480S144 451.346 144 416C144 380.652 115.346 352 80 352ZM240 352C204.654 352 176 380.652 176 416C176 451.346 204.654 480 240 480S304 451.346 304 416C304 380.652 275.346 352 240 352Z" class="fa-secondary"/><path d="M621.25 237.25L562.951 178.951C550.896 166.896 534.547 160.125 517.5 160.125H464C446.326 160.125 432 174.451 432 192.125V288H32C14.326 288 0 302.326 0 320V363.053C17.191 337.131 46.566 320 80 320S142.809 337.131 160 363.053C177.191 337.131 206.566 320 240 320C281.83 320 317.045 346.92 330.199 384.25H437.801C450.955 346.92 486.17 320 528 320C569.785 320 604.971 346.859 618.16 384.125H624C632.75 384.125 640 376.875 640 368.125V282.516C640 265.537 633.256 249.256 621.25 237.25ZM480 256V208H517.5C521.75 208 525.75 209.75 528.75 212.75L572.125 256H480Z" class="fa-primary"/></svg>