<svg xmlns="http://www.w3.org/2000/svg" viewBox="0 0 512 512"><!-- Font Awesome Pro 6.0.0-alpha2 by @fontawesome - https://fontawesome.com License - https://fontawesome.com/license (Commercial License) --><defs><style>.fa-secondary{opacity:.4}</style></defs><path d="M377.164 149.881C372.805 136.793 360.602 128 346.805 128H165.195C151.398 128 139.195 136.793 134.836 149.881L110.129 224H401.871L377.164 149.881ZM32 423.123V480C32 497.674 46.326 512 64 512H96C113.674 512 128 497.674 128 480V432H64C52.283 432 41.445 428.621 32 423.123ZM448 432H384V480C384 497.674 398.326 512 416 512H448C465.674 512 480 497.674 480 480V423.123C470.555 428.621 459.717 432 448 432Z" class="fa-secondary"/><path d="M448 0H64C28.654 0 0 28.654 0 64V368C0 403.346 28.654 432 64 432H448C483.346 432 512 403.346 512 368V64C512 28.654 483.346 0 448 0ZM134.836 149.881C139.195 136.793 151.398 128 165.195 128H346.805C360.602 128 372.805 136.793 377.164 149.881L401.871 224H110.129L134.836 149.881ZM96 352C78.328 352 64 337.672 64 320C64 302.326 78.328 288 96 288S128 302.326 128 320C128 337.672 113.672 352 96 352ZM416 352C398.328 352 384 337.672 384 320C384 302.326 398.328 288 416 288S448 302.326 448 320C448 337.672 433.672 352 416 352Z" class="fa-primary"/></svg>