<svg xmlns="http://www.w3.org/2000/svg" viewBox="0 0 640 512"><!-- Font Awesome Pro 6.0.0-alpha2 by @fontawesome - https://fontawesome.com License - https://fontawesome.com/license (Commercial License) --><defs><style>.fa-secondary{opacity:.4}</style></defs><path d="M120 304C71.398 304 32 343.398 32 392C32 440.6 71.398 480 120 480S208 440.6 208 392C208 343.398 168.602 304 120 304ZM376 304C327.398 304 288 343.398 288 392C288 440.6 327.398 480 376 480S464 440.6 464 392C464 343.398 424.602 304 376 304Z" class="fa-secondary"/><path d="M598.684 393.375C584.182 378.875 576.057 359.25 576.057 338.75V237.25C576.057 216.75 584.182 197.125 598.684 182.625L635.312 145.875C641.562 139.75 641.562 129.5 635.312 123.25L612.811 100.75C606.559 94.5 596.309 94.5 590.184 100.75L553.43 137.375C526.926 163.875 512.051 199.75 512.051 237.25V288H480.047V224C480.047 206.25 465.795 192 448.043 192H402.164L320.156 55.25C311.531 40.875 295.779 32 278.902 32H168.016C145.889 32 128.012 49.875 128.012 72V192H32.004C14.252 192 0 206.25 0 224V320C0 329.359 4.105 337.564 10.455 343.402C29.131 301.393 71.062 272 120 272C172.172 272 216.121 305.498 232.652 352H263.348C279.879 305.498 323.828 272 376 272S472.121 305.498 488.652 352H513.301C516.426 384.625 530.051 415.25 553.43 438.625L590.184 475.25C596.309 481.5 606.559 481.5 612.811 475.25L635.312 452.75C641.562 446.5 641.562 436.25 635.312 430.125L598.684 393.375ZM192.02 192V96H269.9L327.531 192H192.02Z" class="fa-primary"/></svg>