<svg xmlns="http://www.w3.org/2000/svg" viewBox="0 0 640 512"><!-- Font Awesome Pro 6.0.0-alpha2 by @fontawesome - https://fontawesome.com License - https://fontawesome.com/license (Commercial License) --><defs><style>.fa-secondary{opacity:.4}</style></defs><path d="M176 304C127.398 304 88 343.398 88 392C88 440.6 127.398 480 176 480S264 440.6 264 392C264 343.398 224.602 304 176 304ZM464 304C415.398 304 376 343.398 376 392C376 440.6 415.398 480 464 480S552 440.6 552 392C552 343.398 512.602 304 464 304Z" class="fa-secondary"/><path d="M624 288H608V224C608 206.375 593.625 192 576 192H528L419.25 56C407.125 40.875 388.625 32 369.25 32H256C238.375 32 224 46.375 224 64V192H64C46.375 192 32 206.375 32 224V288H16C7.125 288 0 295.125 0 304V336C0 344.875 7.125 352 16 352H63.348C79.879 305.498 123.828 272 176 272S272.121 305.498 288.652 352H351.348C367.879 305.498 411.828 272 464 272S560.121 305.498 576.652 352H624C632.875 352 640 344.875 640 336V304C640 295.125 632.875 288 624 288ZM288 192V96H369.25L445.999 192H288Z" class="fa-primary"/></svg>