<svg xmlns="http://www.w3.org/2000/svg" viewBox="0 0 512 512"><!-- Font Awesome Pro 6.0.0-alpha2 by @fontawesome - https://fontawesome.com License - https://fontawesome.com/license (Commercial License) --><defs><style>.fa-secondary{opacity:.4}</style></defs><path d="M188 352C181.375 352 176 357.375 176 364V404C176 410.625 181.375 416 188 416H228C234.625 416 240 410.625 240 404V364C240 357.375 234.625 352 228 352H188ZM236 320H276C282.625 320 288 314.625 288 308V268C288 261.375 282.625 256 276 256H236C229.375 256 224 261.375 224 268V308C224 314.625 229.375 320 236 320ZM332 320H372C378.625 320 384 314.625 384 308V268C384 261.375 378.625 256 372 256H332C325.375 256 320 261.375 320 268V308C320 314.625 325.375 320 332 320ZM140 320H180C186.625 320 192 314.625 192 308V268C192 261.375 186.625 256 180 256H140C133.375 256 128 261.375 128 268V308C128 314.625 133.375 320 140 320ZM368 364V404C368 410.625 373.375 416 380 416H420C426.625 416 432 410.625 432 404V364C432 357.375 426.625 352 420 352H380C373.375 352 368 357.375 368 364ZM284 352C277.375 352 272 357.375 272 364V404C272 410.625 277.375 416 284 416H324C330.625 416 336 410.625 336 404V364C336 357.375 330.625 352 324 352H284ZM468 448H428C421.375 448 416 453.375 416 460V500C416 506.625 421.375 512 428 512H468C474.625 512 480 506.625 480 500V460C480 453.375 474.625 448 468 448ZM468 256H428C421.375 256 416 261.375 416 268V308C416 314.625 421.375 320 428 320H468C474.625 320 480 314.625 480 308V268C480 261.375 474.625 256 468 256ZM372 448H140C133.375 448 128 453.375 128 460V500C128 506.625 133.375 512 140 512H372C378.625 512 384 506.625 384 500V460C384 453.375 378.625 448 372 448ZM44 320H84C90.625 320 96 314.625 96 308V268C96 261.375 90.625 256 84 256H44C37.375 256 32 261.375 32 268V308C32 314.625 37.375 320 44 320ZM92 352C85.375 352 80 357.375 80 364V404C80 410.625 85.375 416 92 416H132C138.625 416 144 410.625 144 404V364C144 357.375 138.625 352 132 352H92ZM84 448H44C37.375 448 32 453.375 32 460V500C32 506.625 37.375 512 44 512H84C90.625 512 96 506.625 96 500V460C96 453.375 90.625 448 84 448Z" class="fa-secondary"/><path d="M504.91 102.938C367.664 -34.31 144.342 -34.318 7.08 102.946C-0.895 110.919 -2.289 123.161 3.695 132.684L45.861 200.151C52.002 209.995 64.353 214.049 75.234 209.799L159.619 176.049C169.533 172.053 175.627 161.962 174.556 151.335L169.26 98.057C225.412 78.885 286.664 78.895 342.84 98.075L337.527 151.319C336.389 161.911 342.535 172.104 352.498 176.049L436.824 209.774C447.654 214.077 460.023 209.952 466.129 200.176L508.312 132.692C514.289 123.161 512.894 110.919 504.91 102.938Z" class="fa-primary"/></svg>