<svg xmlns="http://www.w3.org/2000/svg" viewBox="0 0 640 512"><!-- Font Awesome Pro 6.0.0-alpha2 by @fontawesome - https://fontawesome.com License - https://fontawesome.com/license (Commercial License) --><defs><style>.fa-secondary{opacity:.4}</style></defs><path d="M512 448H128C110.327 448 96 462.327 96 480V480C96 497.673 110.327 512 128 512H512C529.673 512 544 497.673 544 480V480C544 462.327 529.673 448 512 448ZM592 0H48C21.5 0 0 21.5 0 48V368C0 394.5 21.5 416 48 416H592C618.5 416 640 394.5 640 368V48C640 21.5 618.5 0 592 0ZM576 352H64V64H576V352Z" class="fa-secondary"/><path d="M576 352.001H64V64.001H576V352.001Z" class="fa-primary"/></svg>