<svg xmlns="http://www.w3.org/2000/svg" viewBox="0 0 576 512"><!-- Font Awesome Pro 6.0.0-alpha2 by @fontawesome - https://fontawesome.com License - https://fontawesome.com/license (Commercial License) --><defs><style>.fa-secondary{opacity:.4}</style></defs><path d="M288.009 0C288.007 0 288.007 0 288.007 0C204.691 0 137.152 67.541 137.152 150.855V150.857C137.152 153.553 137.417 156.184 137.558 158.848C183.486 179.709 234.181 192 288.007 192S392.529 179.709 438.456 158.848C438.597 156.184 438.863 153.553 438.863 150.857C438.865 67.543 371.324 0 288.009 0ZM1.693 481.684C-2.258 489.584 0.943 499.193 8.843 503.146C8.845 503.146 8.847 503.148 8.849 503.148L23.165 510.307C31.068 514.258 40.677 511.055 44.63 503.152L126.316 339.773C127.206 337.961 127.74 335.994 127.886 333.979C112.46 330.285 97.24 325.787 82.285 320.502L1.693 481.684ZM574.306 481.686V481.684L493.722 320.506C478.765 325.789 463.54 330.287 448.113 333.98C448.267 335.994 448.8 337.959 449.683 339.773L531.369 503.152C535.324 511.055 544.933 514.258 552.837 510.307L567.154 503.148C575.056 499.197 578.259 489.588 574.306 481.686Z" class="fa-secondary"/><path d="M432.961 111.334C436.414 124.008 438.859 137.088 438.859 150.857C438.859 153.553 438.594 156.184 438.453 158.848C392.523 179.709 341.828 192 288 192S183.477 179.709 137.547 158.848C137.406 156.184 137.141 153.553 137.141 150.857C137.141 137.088 139.586 124.008 143.039 111.334C57.578 130.76 0 166.725 0 208C0 269.855 128.941 320 288 320S576 269.855 576 208C576 166.725 518.422 130.76 432.961 111.334ZM120 208C120 221.254 109.254 231.998 96 232C82.744 232 72 221.254 71.998 208C71.998 194.746 82.744 184 95.998 184C109.254 184 120 194.744 120 207.998C120 208 120 208 120 208ZM312 256C312 269.254 301.254 279.998 288 280C274.744 280 264 269.254 263.998 256C263.998 242.746 274.744 232 287.998 232C301.254 232 312 242.744 312 255.998C312 256 312 256 312 256ZM504 208C504 221.254 493.254 231.998 480 232C466.744 232 456 221.254 455.998 208C455.998 194.746 466.744 184 479.998 184C493.254 184 504 194.744 504 207.998V208Z" class="fa-primary"/></svg>