<svg xmlns="http://www.w3.org/2000/svg" viewBox="0 0 640 512"><!-- Font Awesome Pro 6.0.0-alpha2 by @fontawesome - https://fontawesome.com License - https://fontawesome.com/license (Commercial License) --><defs><style>.fa-secondary{opacity:.4}</style></defs><path d="M496 240C496 243.146 495.695 246.215 495.531 249.322C441.945 273.66 382.797 288 320 288S198.055 273.66 144.469 249.322C144.305 246.215 144 243.146 144 240C144 142.798 222.798 64 320 64S496 142.798 496 240Z" class="fa-secondary"/><path d="M493.652 212.582C495.147 221.646 495.932 230.814 496 240C496 243.146 495.695 246.215 495.531 249.322C441.945 273.66 382.797 288 320 288S198.055 273.66 144.469 249.322C144.305 246.215 144 243.146 144 240C144.068 230.814 144.853 221.646 146.348 212.582C58.355 235.391 0 274.936 0 320C0 390.691 143.27 448 320 448S640 390.691 640 320C640 274.936 581.645 235.391 493.652 212.582ZM128 360C114.745 360 104 349.255 104 336S114.745 312 128 312S152 322.745 152 336C151.999 349.255 141.255 359.999 128 360ZM320 392C306.745 392 296 381.255 296 368S306.745 344 320 344S344 354.745 344 368C343.999 381.255 333.255 391.999 320 392ZM512 360C498.745 360 488 349.255 488 336S498.745 312 512 312S536 322.745 536 336C535.999 349.255 525.255 359.999 512 360Z" class="fa-primary"/></svg>