<svg xmlns="http://www.w3.org/2000/svg" viewBox="0 0 640 512"><!-- Font Awesome Pro 6.0.0-alpha2 by @fontawesome - https://fontawesome.com License - https://fontawesome.com/license (Commercial License) --><defs><style>.fa-secondary{opacity:.4}</style></defs><path d="M183.906 216C183.906 210.551 184.889 205.371 185.516 200.088C174.613 194.967 162.613 192 149.92 192H88.08C39.438 192 0 233.785 0 285.332C0 295.641 7.887 304 17.615 304H217.07C196.688 280.211 183.906 249.715 183.906 216ZM128 160C172.184 160 208 124.182 208 80S172.184 0 128 0C83.82 0 48 35.818 48 80S83.82 160 128 160ZM368 400C368 383.312 371.398 367.541 376.619 352.637C374.34 352.535 372.193 352 369.887 352H270.113C191.631 352 128 411.693 128 485.332C128 500.059 140.727 512 156.422 512H422.51C389.535 485.611 368 445.518 368 400ZM551.92 192H490.08C477.279 192 465.195 195.037 454.221 200.24C454.834 205.475 455.814 210.604 455.814 216C455.814 237.471 450.189 257.385 441.16 275.344C462.156 263.381 486.107 256 512 256C554.48 256 592.271 274.74 618.629 304H622.385C632.113 304 640 295.641 640 285.332C640 233.785 600.566 192 551.92 192ZM512 160C556.184 160 592 124.182 592 80S556.184 0 512 0C467.82 0 432 35.818 432 80S467.82 160 512 160ZM319.859 112C262.451 112 215.904 158.562 215.904 216C215.904 273.436 262.451 320 319.859 320C377.273 320 423.814 273.436 423.814 216C423.814 158.562 377.273 112 319.859 112Z" class="fa-secondary"/><path d="M597.498 415.818C599.452 405.396 599.452 394.602 597.498 384.182L616.666 373.014C618.901 371.805 619.922 369.199 619.178 366.687C614.153 350.682 605.592 336.072 594.426 323.977C592.752 322.115 589.959 321.65 587.727 322.953L568.559 334.025C560.463 327.139 551.157 321.744 541.108 318.207V295.969C541.108 293.455 539.246 291.223 536.827 290.756C520.266 287.033 503.329 287.127 487.51 290.756C485.092 291.223 483.323 293.455 483.323 295.969V318.207C473.274 321.744 463.967 327.139 455.873 334.025L436.61 322.953C434.471 321.65 431.678 322.115 429.912 323.977C418.745 336.072 410.184 350.682 405.252 366.687C404.508 369.199 405.532 371.805 407.672 373.014L426.84 384.182C424.981 394.602 424.981 405.396 426.84 415.818L407.672 426.984C405.438 428.193 404.508 430.801 405.252 433.312C410.184 449.318 418.745 463.832 429.912 476.021C431.678 477.885 434.379 478.35 436.61 477.047L455.873 465.973C463.967 472.859 473.274 478.256 483.323 481.791V504.031C483.323 506.545 485.092 508.777 487.51 509.242C504.166 512.965 521.01 512.871 536.827 509.242C539.246 508.777 541.108 506.545 541.108 504.031V481.791C551.157 478.256 560.463 472.859 568.559 465.973L587.727 477.047C589.868 478.35 592.752 477.885 594.426 476.021C605.592 463.926 614.153 449.318 619.178 433.312C619.922 430.801 618.901 428.193 616.666 426.984L597.498 415.818ZM512.209 432C494.536 432 480.209 417.672 480.209 400C480.209 382.326 494.536 368 512.209 368S544.209 382.326 544.209 400C544.209 417.672 529.883 432 512.209 432Z" class="fa-primary"/></svg>