<svg xmlns="http://www.w3.org/2000/svg" viewBox="0 0 640 512"><!-- Font Awesome Pro 6.0.0-alpha2 by @fontawesome - https://fontawesome.com License - https://fontawesome.com/license (Commercial License) --><defs><style>.fa-secondary{opacity:.4}</style></defs><path d="M224 256C294.695 256 352 198.691 352 128S294.695 0 224 0C153.312 0 96 57.309 96 128S153.312 256 224 256ZM320 336C320 327.328 321.738 319.129 324.303 311.305C308.568 306.605 291.928 304 274.664 304H173.336C77.609 304 0 381.602 0 477.332C0 496.477 15.523 512 34.664 512H336.408C326.256 498.586 320 482.078 320 464V336Z" class="fa-secondary"/><path d="M592 288H464V208C464 190.375 478.375 176 496 176S528 190.375 528 208V224H576V212.695C576 170.852 545.967 132.656 504.34 128.422C456.486 123.562 416 161.125 416 208V288H400C373.6 288 352 309.602 352 336V464C352 490.398 373.6 512 400 512H592C618.4 512 640 490.398 640 464V336C640 309.602 618.4 288 592 288ZM496 432C478.375 432 464 417.625 464 400S478.375 368 496 368S528 382.375 528 400S513.625 432 496 432Z" class="fa-primary"/></svg>