<svg xmlns="http://www.w3.org/2000/svg" viewBox="0 0 448 512"><!-- Font Awesome Pro 6.0.0-alpha2 by @fontawesome - https://fontawesome.com License - https://fontawesome.com/license (Commercial License) --><defs><style>.fa-secondary{opacity:.4}</style></defs><path d="M352 192C352 262.691 294.693 320 224 320S96 262.691 96 192C96 186.52 96.945 181.299 97.613 176H350.387C351.055 181.299 352 186.52 352 192Z" class="fa-secondary"/><path d="M88 176.001H360C364.375 176.001 368 172.376 368 168.001V136.001C368 131.626 364.375 128.001 360 128.001H352C352 83.001 325.125 42.376 283.625 24.751L256 80.001V16.001C256 7.126 248.875 0.001 240 0.001H208C199.125 0.001 192 7.126 192 16.001V80.001L164.375 24.751C122.875 42.376 96 83.001 96 128.001H88C83.625 128.001 80 131.626 80 136.001V168.001C80 172.376 83.625 176.001 88 176.001ZM314.664 352.001H133.336C59.699 352.001 0 411.696 0 485.333C0 500.059 11.941 512.001 26.664 512.001H421.336C436.059 512.001 448 500.059 448 485.333C448 411.696 388.307 352.001 314.664 352.001Z" class="fa-primary"/></svg>