<svg xmlns="http://www.w3.org/2000/svg" viewBox="0 0 512 512"><!-- Font Awesome Pro 6.0.0-alpha2 by @fontawesome - https://fontawesome.com License - https://fontawesome.com/license (Commercial License) --><defs><style>.fa-secondary{opacity:.4}</style></defs><path d="M128 56C128 42.744 117.254 32 104 32S80 42.744 80 56V64H128V56ZM24 32C10.746 32 0 42.744 0 56V64H48V56C48 42.744 37.254 32 24 32ZM83.156 128L224 221.896V183.438L140.844 128H83.156ZM488 32C474.746 32 464 42.744 464 56V64H512V56C512 42.744 501.254 32 488 32ZM408 32C394.746 32 384 42.744 384 56V64H432V56C432 42.744 421.254 32 408 32ZM288 183.438V221.896L428.844 128H371.156L288 183.438Z" class="fa-secondary"/><path d="M512 64V96C512 113.672 497.674 128 480 128H288V512H224V128H32C14.326 128 0 113.672 0 96V64H224V16C224 7.162 231.164 0 240 0H272C280.836 0 288 7.162 288 16V64H512Z" class="fa-primary"/></svg>