<svg xmlns="http://www.w3.org/2000/svg" viewBox="0 0 384 512"><!-- Font Awesome Pro 6.0.0-alpha2 by @fontawesome - https://fontawesome.com License - https://fontawesome.com/license (Commercial License) --><defs><style>.fa-secondary{opacity:.4}</style></defs><path d="M256 176C256 211.346 227.346 240 192 240S128 211.346 128 176S156.654 112 192 112S256 140.654 256 176Z" class="fa-secondary"/><path d="M368 176.001C368 78.797 289.203 0.001 192 0.001C94.799 0.001 16 78.797 16 176.001C16 262.258 78.1 333.887 160 348.954V384.001H112C103.164 384.001 96 391.163 96 400.001V432.001C96 440.837 103.164 448.001 112 448.001H160V496.001C160 504.837 167.164 512.001 176 512.001H208C216.838 512.001 224 504.837 224 496.001V448.001H272C280.838 448.001 288 440.837 288 432.001V400.001C288 391.163 280.838 384.001 272 384.001H224V348.954C305.902 333.887 368 262.258 368 176.001ZM192 272.001C139.066 272.001 96 228.934 96 176.001C96 123.065 139.066 80.001 192 80.001C244.936 80.001 288 123.065 288 176.001C288 228.934 244.936 272.001 192 272.001Z" class="fa-primary"/></svg>