<svg xmlns="http://www.w3.org/2000/svg" viewBox="0 0 640 512"><!-- Font Awesome Pro 6.0.0-alpha2 by @fontawesome - https://fontawesome.com License - https://fontawesome.com/license (Commercial License) --><defs><style>.fa-secondary{opacity:.4}</style></defs><path d="M624 0H511.631C490.25 0 479.541 25.852 494.66 40.971L524.217 70.527L499.67 95.076C469.697 74.418 434.754 64.076 399.822 64.076C384.641 64.076 369.51 66.256 354.74 70.162C368.295 92.967 377.561 118.521 381.557 145.828C387.645 144.645 393.822 144.043 400.002 144.043C424.584 144.043 449.168 153.4 467.883 172.117C505.312 209.547 505.312 270.451 467.883 307.881C449.17 326.594 424.582 335.953 400.002 335.953C376.449 335.953 353.041 327.121 334.648 309.945C318.727 328.789 299.723 345.043 277.902 357.293C289.354 363.191 298.076 373.594 301.877 386.111C331.451 406.018 365.721 416 400.002 416C445.045 416 490.084 398.816 524.451 364.451C585.445 303.457 592.184 208.896 544.924 140.33L569.473 115.783L599.029 145.34C603.918 150.229 609.93 152.418 615.826 152.418C628.166 152.418 640 142.838 640 128.369V16C640 7.164 632.838 0 624 0ZM176 112C140.654 112 112 140.652 112 176C112 211.346 140.654 240 176 240S240 211.346 240 176C240 140.652 211.346 112 176 112Z" class="fa-secondary"/><path d="M256 384.001H208V348.954C289.902 333.887 352 262.258 352 176.001C352 78.797 273.203 0.001 176 0.001C78.799 0.001 0 78.797 0 176.001C0 262.258 62.1 333.887 144 348.954V384.001H96C87.164 384.001 80 391.163 80 400.001V432.001C80 440.837 87.164 448.001 96 448.001H144V496.001C144 504.837 151.164 512.001 160 512.001H192C200.838 512.001 208 504.837 208 496.001V448.001H256C264.838 448.001 272 440.837 272 432.001V400.001C272 391.163 264.838 384.001 256 384.001ZM176 272.001C123.066 272.001 80 228.934 80 176.001C80 123.065 123.066 80.001 176 80.001C228.936 80.001 272 123.065 272 176.001C272 228.934 228.936 272.001 176 272.001Z" class="fa-primary"/></svg>