<svg xmlns="http://www.w3.org/2000/svg" viewBox="0 0 640 512"><!-- Font Awesome Pro 6.0.0-alpha2 by @fontawesome - https://fontawesome.com License - https://fontawesome.com/license (Commercial License) --><defs><style>.fa-secondary{opacity:.4}</style></defs><path d="M472.752 108.156C462.533 99.822 447.408 101.258 438.97 111.496C430.564 121.734 432.064 136.842 442.314 145.238C476.189 172.987 495.627 213.346 495.627 255.984S476.189 338.981 442.314 366.73C432.064 375.127 430.564 390.234 438.97 400.472C443.72 406.247 450.595 409.243 457.533 409.243C462.908 409.243 468.283 407.464 472.752 403.812C517.783 366.949 543.627 313.043 543.627 255.984S517.783 145.02 472.752 108.156ZM412.189 182.008C401.908 173.674 386.783 175.141 378.439 185.41C370.033 195.648 371.533 210.756 381.814 219.152C393.127 228.391 399.627 241.813 399.627 255.984S393.127 283.577 381.814 292.816C371.533 301.213 370.033 316.32 378.439 326.558C383.158 332.364 390.064 335.361 397.002 335.361C402.345 335.361 407.752 333.581 412.189 329.961C434.72 311.544 447.627 284.607 447.627 255.984S434.72 200.424 412.189 182.008ZM534.002 33.399C523.783 25.065 508.658 26.532 500.22 36.739C491.814 46.977 493.314 62.085 503.564 70.481C559.533 116.272 591.627 183.881 591.627 255.984S559.533 395.697 503.564 441.487C493.314 449.883 491.814 464.991 500.22 475.229C504.97 481.003 511.845 484 518.783 484C524.158 484 529.533 482.221 534.002 478.569C601.127 423.633 639.627 342.508 639.627 255.984S601.127 88.336 534.002 33.399Z" class="fa-secondary"/><path d="M320 64.208V447.762C320 460.341 312.609 471.765 301.109 476.915C296.906 478.819 292.438 479.724 288 479.724C280.312 479.724 272.719 476.946 266.734 471.64L131.84 351.873H48C21.49 351.873 0 330.406 0 303.929V208.041C0 181.564 21.49 160.096 48 160.096H131.84L266.734 40.329C276.156 31.964 289.609 29.873 301.109 35.054C312.609 40.205 320 51.629 320 64.208Z" class="fa-primary"/></svg>