<svg xmlns="http://www.w3.org/2000/svg" viewBox="0 0 640 512"><!-- Font Awesome Pro 6.0.0-alpha2 by @fontawesome - https://fontawesome.com License - https://fontawesome.com/license (Commercial License) --><defs><style>.fa-secondary{opacity:.4}</style></defs><path d="M224.002 256L223.995 58.982C223.995 43.395 212.762 30.076 197.4 27.443L39.507 0.391C13.508 -3.609 -6.992 23.766 2.258 50.141L83.387 256H224.002ZM383.998 56.016C383.998 33.891 366.124 16.016 343.999 16.016H296.001C273.876 16.016 256.002 33.891 256.002 56.016V256H383.998V56.016ZM175.996 288C114.142 288 63.999 338.145 63.999 400S114.142 512 175.996 512S287.993 461.855 287.993 400S237.85 288 175.996 288ZM159.996 461.727C137.618 455.91 120.087 438.379 114.271 416H159.996V461.727ZM159.996 384H114.271C120.087 361.621 137.618 344.09 159.996 338.273V384ZM191.995 461.727V416H237.721C231.905 438.379 214.374 455.91 191.995 461.727ZM191.995 384V338.273C214.374 344.09 231.905 361.621 237.721 384H191.995ZM600.493 0.391L442.587 27.443C427.222 30.074 415.99 43.396 415.99 58.984L415.998 256H556.599L637.742 50.141C646.992 23.766 626.492 -3.609 600.493 0.391ZM463.989 288C402.135 288 351.991 338.145 351.991 400S402.135 512 463.989 512S575.986 461.855 575.986 400S525.842 288 463.989 288ZM447.989 461.727C425.611 455.91 408.08 438.379 402.264 416H447.989V461.727ZM447.989 384H402.264C408.08 361.621 425.611 344.09 447.989 338.273V384ZM479.988 461.727V416H525.714C519.897 438.379 502.366 455.91 479.988 461.727ZM479.988 384V338.273C502.366 344.09 519.897 361.621 525.714 384H479.988Z" class="fa-secondary"/><path d="M575.987 272V304C575.987 312.836 568.823 320 559.987 320H542.209C522.016 300.256 494.462 288 463.99 288C402.136 288 351.993 338.145 351.993 400C351.993 405.48 352.846 410.73 353.606 416H286.381C287.141 410.73 287.994 405.48 287.994 400C287.994 338.145 237.851 288 175.997 288C145.525 288 117.971 300.256 97.778 320H80C71.164 320 64 312.836 64 304V272C64 263.162 71.164 256 80 256H223.996V40C223.996 35.58 227.578 32 231.996 32H247.995C252.413 32 255.995 35.58 255.995 40V256H383.992V40C383.992 35.58 387.574 32 391.992 32H407.991C412.409 32 415.991 35.58 415.991 40V256H559.987C568.823 256 575.987 263.162 575.987 272Z" class="fa-primary"/></svg>