<svg xmlns="http://www.w3.org/2000/svg" viewBox="0 0 448 512"><!-- Font Awesome Pro 6.0.0-alpha2 by @fontawesome - https://fontawesome.com License - https://fontawesome.com/license (Commercial License) --><defs><style>.fa-secondary{opacity:.4}</style></defs><path d="M447.986 448C447.986 483.346 419.335 512 383.993 512S320 483.346 320 448C320 412.652 348.651 384 383.993 384S447.986 412.652 447.986 448Z" class="fa-secondary"/><path d="M319.953 0H190.592C143.722 -0.125 103.602 33.75 95.977 80L0.238 487.75C-1.262 496.5 4.487 504.75 13.236 506.25L44.733 511.75C53.482 513.25 61.731 507.5 63.231 498.75L127.724 224H351.95V392.91C361.408 387.391 372.266 384 384.007 384C395.699 384 406.51 387.367 415.943 392.844V96C415.943 43 372.948 0 319.953 0ZM351.95 160H142.847L159.096 90.75C161.595 75.25 174.969 64 190.592 64H319.953C337.576 64 351.95 78.375 351.95 96V160Z" class="fa-primary"/></svg>