<svg xmlns="http://www.w3.org/2000/svg" viewBox="0 0 640 512"><!-- Font Awesome Pro 6.0.0-alpha2 by @fontawesome - https://fontawesome.com License - https://fontawesome.com/license (Commercial License) --><defs><style>.fa-secondary{opacity:.4}</style></defs><path d="M304 416H144C135.25 416 128 423.25 128 432V496C128 504.75 135.25 512 144 512H304C312.75 512 320 504.75 320 496V432C320 423.25 312.75 416 304 416ZM304 288H144C135.25 288 128 295.25 128 304V368C128 376.75 135.25 384 144 384H304C312.75 384 320 376.75 320 368V304C320 295.25 312.75 288 304 288ZM496 416H368C359.25 416 352 423.25 352 432V496C352 504.75 359.25 512 368 512H496C504.75 512 512 504.75 512 496V432C512 423.25 504.75 416 496 416Z" class="fa-secondary"/><path d="M610.5 117.001L338.375 3.626C332.5 1.501 326.25 0.251 320 0.001C313.625 0.251 307.375 1.376 301.5 3.626L29.5 117.001C11.625 124.501 0 141.876 0 161.251V496.001C0 504.876 7.125 512.001 16 512.001H80C88.875 512.001 96 504.876 96 496.001V256.001C96 238.376 110.625 224.001 128.625 224.001H511.375C529.375 224.001 544 238.376 544 256.001V496.001C544 504.876 551.125 512.001 560 512.001H624C632.875 512.001 640 504.876 640 496.001V161.251C640 141.876 628.375 124.501 610.5 117.001Z" class="fa-primary"/></svg>