<svg xmlns="http://www.w3.org/2000/svg" viewBox="0 0 512 512"><!-- Font Awesome Pro 6.0.0-alpha2 by @fontawesome - https://fontawesome.com License - https://fontawesome.com/license (Commercial License) --><defs><style>.fa-secondary{opacity:.4}</style></defs><path d="M415.928 141.322L54.625 502.625C48.375 508.875 40.187 512 32 512S15.625 508.875 9.375 502.625C-3.125 490.125 -3.125 469.875 9.375 457.375L369.717 97.033C366.646 119.809 368.482 139.045 369.113 143.398C384.859 144.486 400.629 143.541 415.928 141.322Z" class="fa-secondary"/><path d="M144.525 306.387C144.4 259.516 98.4 221.391 92.15 216.641C64.277 241.016 41.402 272.641 40.277 306.137C41.277 334.631 58.9 362.506 81.15 385.129L141.525 324.754C143.15 318.76 144.275 312.76 144.525 306.387ZM31.529 512C37.68 512 43.557 509.65 48.887 506.123C42.865 510.111 35.863 511.881 29 511.508C29.857 511.576 30.67 512 31.529 512ZM243.273 223.006C244.898 217.01 246.146 210.887 246.396 204.516C246.271 157.77 200.273 119.523 194.023 114.898C166.148 139.273 143.275 170.895 142.025 204.391C143.15 232.889 160.771 260.762 183.02 283.26L243.273 223.006ZM345.145 121.137C346.77 115.143 347.895 109.143 348.145 102.77C348.02 55.898 302.02 17.773 295.77 13.023C267.896 37.398 245.021 69.023 243.896 102.52C244.896 131.014 262.52 158.889 284.77 181.512L345.145 121.137ZM409.643 163.641C403.018 163.641 396.643 164.766 390.393 166.391L330.02 226.762C352.77 249.512 380.393 266.883 409.393 267.883C442.641 266.633 475.139 243.012 499.139 215.641C482.139 196.141 448.891 165.016 409.643 163.641ZM307.77 265.516C301.145 265.516 294.77 266.516 288.645 268.141L228.271 328.508C250.896 351.383 278.52 368.758 307.645 369.758C340.768 368.508 373.268 344.883 397.391 317.387C380.393 298.012 347.018 266.766 307.77 265.516ZM206.023 367.258C199.398 367.258 193.023 368.383 186.773 370.008L126.4 430.379C149.15 453.129 176.773 470.5 205.773 471.5C239.021 470.25 271.52 446.629 295.52 419.258C278.52 399.758 245.271 368.633 206.023 367.258ZM481.264 113.523C506.639 86.148 513.637 41.527 511.014 0.531C482.014 -1.344 430.766 0.281 398.391 30.402C361.268 67.773 367.393 134.773 368.643 143.398C410.266 146.273 453.639 139.273 481.264 113.523Z" class="fa-primary"/></svg>