<svg xmlns="http://www.w3.org/2000/svg" viewBox="0 0 640 512"><!-- Font Awesome Pro 6.0.0-alpha2 by @fontawesome - https://fontawesome.com License - https://fontawesome.com/license (Commercial License) --><defs><style>.fa-secondary{opacity:.4}</style></defs><path d="M8.901 201.969C21.12 214.75 41.37 215.094 54.151 202.906C106.657 152.525 171.276 118.904 241.101 104.336L240.058 76.312C239.55 62.602 242.761 49.729 248.276 38.162C159.058 52.516 76.171 93.082 9.839 156.719C-2.911 168.969 -3.317 189.219 8.901 201.969ZM129.495 264C116.245 275.719 114.995 295.938 126.683 309.188C138.464 322.438 158.651 323.688 171.87 312C194.024 292.42 219.696 277.805 247.2 268.35L244.735 202.072C202.384 213.525 162.892 234.514 129.495 264ZM630.151 156.719C563.909 93.168 481.159 52.625 392.081 38.217C396.69 47.947 399.515 58.707 399.933 70.188L399.964 75.969L398.909 104.34C468.726 118.91 533.339 152.529 585.839 202.906C592.058 208.844 600.026 211.812 607.995 211.812C616.401 211.812 624.808 208.531 631.089 201.969C643.308 189.219 642.901 168.969 630.151 156.719ZM395.278 202.078L392.817 268.359C420.313 277.816 445.974 292.428 468.12 312C474.214 317.375 481.776 320 489.308 320C498.151 320 506.964 316.344 513.308 309.188C524.995 295.938 523.745 275.719 510.495 264C477.104 234.518 437.62 213.533 395.278 202.078Z" class="fa-secondary"/><path d="M318.475 327.969C340.592 328.834 359.207 311.137 360.047 288.439L367.969 75.135C368.008 73.932 368.012 72.604 367.969 71.383C366.959 44.197 344.666 22.998 318.174 24.035C291.684 25.07 271.027 47.949 272.035 75.135L279.955 288.439C280.799 309.664 297.436 327.146 318.475 327.969ZM320 368C289.072 368 264 393.072 264 424S289.072 480 320 480S376 454.928 376 424S350.928 368 320 368Z" class="fa-primary"/></svg>