<svg xmlns="http://www.w3.org/2000/svg" viewBox="0 0 512 512"><!-- Font Awesome Pro 6.0.0-alpha2 by @fontawesome - https://fontawesome.com License - https://fontawesome.com/license (Commercial License) --><defs><style>.fa-secondary{opacity:.4}</style></defs><path d="M179.762 423.238L44 287.473L166.01 165.457L301.773 301.227L179.762 423.238ZM507.793 72.57L439.912 4.688C433.66 -1.562 423.535 -1.562 417.285 4.688L394.656 27.312C388.408 33.564 388.41 43.689 394.654 49.941C394.656 49.943 394.654 49.943 394.656 49.945L350.551 94.053L418.432 161.936L462.539 117.828L462.541 117.83C468.795 124.08 479.039 124.078 485.291 117.828L507.918 95.199C514.043 88.945 514.043 78.82 507.793 72.57Z" class="fa-secondary"/><path d="M417.935 161.936L385.41 194.461C405.162 241.094 396.162 296.848 358.158 334.852L199.767 493.25C174.765 518.25 134.261 518.25 109.259 493.25L18.751 402.734C-6.25 377.734 -6.25 337.227 18.751 312.227L43.503 287.473L179.265 423.238L301.277 301.227L165.513 165.457L177.14 153.828C215.144 115.828 270.9 106.824 317.529 126.578L350.054 94.053L417.935 161.936Z" class="fa-primary"/></svg>