<svg xmlns="http://www.w3.org/2000/svg" viewBox="0 0 512 512"><!-- Font Awesome Pro 6.0.0-alpha2 by @fontawesome - https://fontawesome.com License - https://fontawesome.com/license (Commercial License) --><defs><style>.fa-secondary{opacity:.4}</style></defs><path d="M32 256C14.328 256 0 270.328 0 288S14.328 320 32 320H76.062L55.938 256H32ZM152.973 297.92L164.396 256H139.791L152.973 297.92ZM480 256H456.062L435.938 320H480C497.672 320 512 305.672 512 288S497.672 256 480 256ZM359.027 297.92L372.209 256H347.604L359.027 297.92ZM247.318 256L229.879 320H282.121L264.682 256H247.318Z" class="fa-secondary"/><path d="M356.278 479.995C356.028 479.995 355.762 479.995 355.512 479.995C337.747 479.651 322.357 467.636 317.685 450.511L256 224.141L194.315 450.511C189.643 467.636 174.253 479.651 156.488 479.995C139.192 480.276 122.895 468.933 117.567 451.995L1.853 84.003C-4.772 62.926 6.931 40.473 28.008 33.848C49.085 27.255 71.522 38.911 78.162 60.004L152.972 297.921L217.408 61.488C222.157 44.082 237.954 32.005 256 32.005S289.843 44.082 294.592 61.488L359.028 297.921L433.837 60.004C440.462 38.911 462.899 27.239 483.992 33.848C505.069 40.473 516.772 62.926 510.147 84.003L394.433 451.995C389.183 468.683 373.715 479.995 356.278 479.995Z" class="fa-primary"/></svg>