<svg xmlns="http://www.w3.org/2000/svg" viewBox="0 0 576 512"><!-- Font Awesome Pro 6.0.0-alpha2 by @fontawesome - https://fontawesome.com License - https://fontawesome.com/license (Commercial License) --><defs><style>.fa-secondary{opacity:.4}</style></defs><path d="M432 32H144C117.49 32 96 53.492 96 80V400H480V80C480 53.492 458.51 32 432 32ZM368.969 263.031C378.344 272.406 378.344 287.594 368.969 296.969C359.588 306.348 344.404 306.34 335.031 296.969L288 249.938L240.969 296.969C231.588 306.348 216.404 306.34 207.031 296.969C197.656 287.594 197.656 272.406 207.031 263.031L254.062 216L207.031 168.969C197.656 159.594 197.656 144.406 207.031 135.031S231.594 125.656 240.969 135.031L288 182.062L335.031 135.031C344.406 125.656 359.594 125.656 368.969 135.031S378.344 159.594 368.969 168.969L321.938 216L368.969 263.031Z" class="fa-secondary"/><path d="M528 288H480V368H496C504.836 368 512 375.164 512 384S504.836 400 496 400H80C71.164 400 64 392.836 64 384S71.164 368 80 368H96V288H48C21.492 288 0 309.492 0 336V432C0 458.508 21.492 480 48 480H528C554.508 480 576 458.508 576 432V336C576 309.492 554.508 288 528 288ZM207.031 296.969C216.404 306.34 231.588 306.348 240.969 296.969L288 249.937L335.031 296.969C344.404 306.34 359.588 306.348 368.969 296.969C378.344 287.594 378.344 272.406 368.969 263.031L321.938 216L368.969 168.969C378.344 159.594 378.344 144.406 368.969 135.031S344.406 125.656 335.031 135.031L288 182.062L240.969 135.031C231.594 125.656 216.406 125.656 207.031 135.031S197.656 159.594 207.031 168.969L254.062 216L207.031 263.031C197.656 272.406 197.656 287.594 207.031 296.969Z" class="fa-primary"/></svg>