<svg xmlns="http://www.w3.org/2000/svg" viewBox="0 0 320 512"><!-- Font Awesome Pro 6.0.0-alpha2 by @fontawesome - https://fontawesome.com License - https://fontawesome.com/license (Commercial License) --><path d="M160 480C248.219 480 320 408.219 320 320C320 245.945 269.166 184.064 200.74 165.912L245.469 110C262.031 89.281 258.687 59.094 238 42.531C229.125 35.438 218.531 32 208.031 32C193.938 32 180 38.156 170.531 50C24.534 232.488 34.612 219.808 31.994 223.34C11.338 251.201 0 285.291 0 320C0 408.219 71.781 480 160 480ZM224 320C224 355.281 195.281 384 160 384S96 355.281 96 320C96 313.75 96.875 307.594 98.625 301.656C106.656 274.781 131.906 256 160 256C195.281 256 224 284.719 224 320Z"/></svg>