<svg xmlns="http://www.w3.org/2000/svg" viewBox="0 0 512 512"><!-- Font Awesome Pro 6.0.0-alpha2 by @fontawesome - https://fontawesome.com License - https://fontawesome.com/license (Commercial License) --><path d="M192 384C183.164 384 176 391.164 176 400S183.164 416 192 416S208 408.836 208 400S200.836 384 192 384ZM256 384C247.164 384 240 391.164 240 400S247.164 416 256 416S272 408.836 272 400S264.836 384 256 384ZM160 368C168.836 368 176 360.836 176 352S168.836 336 160 336S144 343.164 144 352S151.164 368 160 368ZM128 320C136.836 320 144 312.836 144 304S136.836 288 128 288S112 295.164 112 304S119.164 320 128 320ZM464 96H411.584C389.477 69.158 325.803 0 256 0S122.523 69.158 100.416 96H48C21.49 96 0 117.49 0 144V464C0 490.51 21.49 512 48 512H464C490.51 512 512 490.51 512 464V144C512 117.49 490.51 96 464 96ZM416 152C429.254 152 440 162.746 440 176S429.254 200 416 200S392 189.254 392 176S402.746 152 416 152ZM256 48C286.406 48 320.139 72.025 345.709 96H166.203C191.729 72.027 225.455 48 256 48ZM344 176C344 189.254 333.254 200 320 200S296 189.254 296 176S306.746 152 320 152S344 162.746 344 176ZM216 176C216 189.254 205.254 200 192 200S168 189.254 168 176S178.746 152 192 152S216 162.746 216 176ZM96 152C109.254 152 120 162.746 120 176S109.254 200 96 200S72 189.254 72 176S82.746 152 96 152ZM448 448H64V256H448V448ZM320 384C311.164 384 304 391.164 304 400S311.164 416 320 416S336 408.836 336 400S328.836 384 320 384ZM128 416C136.836 416 144 408.836 144 400S136.836 384 128 384S112 391.164 112 400S119.164 416 128 416ZM384 384C375.164 384 368 391.164 368 400S375.164 416 384 416S400 408.836 400 400S392.836 384 384 384ZM192 320C200.836 320 208 312.836 208 304S200.836 288 192 288S176 295.164 176 304S183.164 320 192 320ZM256 320C264.836 320 272 312.836 272 304S264.836 288 256 288S240 295.164 240 304S247.164 320 256 320ZM224 368C232.836 368 240 360.836 240 352S232.836 336 224 336S208 343.164 208 352S215.164 368 224 368ZM288 368C296.836 368 304 360.836 304 352S296.836 336 288 336S272 343.164 272 352S279.164 368 288 368ZM384 320C392.836 320 400 312.836 400 304S392.836 288 384 288S368 295.164 368 304S375.164 320 384 320ZM352 368C360.836 368 368 360.836 368 352S360.836 336 352 336S336 343.164 336 352S343.164 368 352 368ZM320 320C328.836 320 336 312.836 336 304S328.836 288 320 288S304 295.164 304 304S311.164 320 320 320Z"/></svg>