<svg xmlns="http://www.w3.org/2000/svg" viewBox="0 0 448 512"><!-- Font Awesome Pro 6.0.0-alpha2 by @fontawesome - https://fontawesome.com License - https://fontawesome.com/license (Commercial License) --><path d="M336.014 128C304.013 128 256.011 144 224.022 160C192.009 144 144.008 128.006 112.007 128.004C32.004 128 0.413 210.459 0.003 288C-0.528 387.975 63.997 512 160.001 512C192.002 512 208.002 496 224.003 496C240.003 496 256.004 512 288.005 512C384.008 512 448.408 389.164 447.998 288C447.689 211.578 416.017 128 336.014 128ZM320.013 32V0H288.012C243.831 0 208.01 35.816 208.01 80V112H240.011C284.196 112 320.013 76.184 320.013 32Z"/></svg>