<svg xmlns="http://www.w3.org/2000/svg" viewBox="0 0 384 512"><!-- Font Awesome Pro 6.0.0-alpha2 by @fontawesome - https://fontawesome.com License - https://fontawesome.com/license (Commercial License) --><path d="M287.951 32V0H255.951C211.77 0 175.947 35.816 175.947 80V112H207.949C252.135 112 287.951 76.184 287.951 32ZM287.938 304C287.938 241.072 321.066 186.018 370.729 154.902C353.85 138.357 331.914 128 303.951 128C271.951 128 223.949 144 191.961 160C159.947 144 111.945 128.006 79.945 128.004C51.881 128.002 29.893 138.291 13 154.812C62.744 185.91 95.938 241.012 95.938 304C95.938 364.107 65.76 417.117 19.775 448.869C47.256 486.23 84.289 512 127.939 512C159.939 512 175.939 496 191.941 496C207.941 496 223.941 512 255.943 512C299.701 512 336.779 486.346 364.262 448.99C318.186 417.252 287.938 364.18 287.938 304Z"/></svg>