<svg xmlns="http://www.w3.org/2000/svg" viewBox="0 0 512 512"><!-- Font Awesome Pro 6.0.0-alpha2 by @fontawesome - https://fontawesome.com License - https://fontawesome.com/license (Commercial License) --><path d="M319.998 191.999C319.998 209.687 334.31 223.999 351.998 223.999H415.998C433.685 223.999 447.998 209.687 447.998 191.999S433.685 159.999 415.998 159.999V63.983C415.998 52.796 410.154 42.452 400.623 36.64C391.091 30.858 379.216 30.452 369.279 35.577L337.279 52.171C321.591 60.296 315.466 79.608 323.591 95.3C329.279 106.304 340.435 112.585 351.998 112.585V159.999C334.31 159.999 319.998 174.312 319.998 191.999ZM391.998 255.554C343.396 255.554 303.998 294.952 303.998 343.554C303.998 379.991 326.144 411.253 357.711 424.62L350.029 432.624C339.31 443.78 339.685 461.499 350.841 472.187C356.248 477.405 363.248 479.999 370.216 479.999C377.56 479.999 384.935 477.124 390.404 471.374C460.015 398.843 480 385.983 480 343.554C480 294.952 440.599 255.554 391.998 255.554ZM391.998 367.554C378.763 367.554 367.998 356.788 367.998 343.554S378.763 319.554 391.998 319.554S416 330.319 416 343.554S405.232 367.554 391.998 367.554ZM39.986 191.716C48.658 191.716 57.283 188.216 63.595 181.333L96 145.935V447.966C96 465.669 110.328 479.997 128 479.997S160 465.669 160 447.966V145.935L192.404 181.333C204.357 194.341 224.607 195.247 237.623 183.302C250.652 171.349 251.527 151.083 239.591 138.036L151.593 41.942C139.468 28.685 116.531 28.685 104.406 41.942L16.408 138.036C4.472 151.083 5.347 171.349 18.377 183.302C24.517 188.935 32.267 191.716 39.986 191.716Z"/></svg>