<svg xmlns="http://www.w3.org/2000/svg" viewBox="0 0 512 512"><!-- Font Awesome Pro 6.0.0-alpha2 by @fontawesome - https://fontawesome.com License - https://fontawesome.com/license (Commercial License) --><path d="M264.001 320C277.251 320 288.001 309.25 288.001 296V216C288.001 202.687 277.195 192.001 263.99 192.001C261.444 192.001 258.884 192.404 256.407 193.219L232.407 201.219C222.349 204.592 215.997 213.941 215.997 223.991C215.997 237.331 226.819 248 240.001 248V296C240.001 309.25 250.751 320 264.001 320ZM512.001 287.99C512.001 270.303 497.61 256 479.989 256C466.583 256 454.098 264.469 449.63 277.875C434.866 322.219 393.538 352 346.805 352H96.001C78.329 352 64.001 366.312 64.001 384C64.001 392.188 67.126 400.375 73.376 406.625L169.372 502.625C175.622 508.875 183.809 512 191.997 512C209.05 512 223.997 498.269 223.997 480C223.997 471.812 220.872 463.625 214.622 457.375L173.247 416H346.805C477.76 416 512.001 296.807 512.001 287.99ZM165.196 160H416.001C433.673 160 448.001 145.688 448.001 128C448.001 119.812 444.876 111.625 438.626 105.375L342.63 9.375C336.38 3.125 328.192 0 320.005 0C302.951 0 288.005 13.731 288.005 32C288.005 40.188 291.13 48.375 297.38 54.625L338.755 96H165.196C34.242 96 0 215.193 0 224.01C0 241.697 14.392 256 32.012 256C45.419 256 57.903 247.531 62.372 234.125C77.135 189.781 118.464 160 165.196 160Z "></path></svg>