<svg xmlns="http://www.w3.org/2000/svg" viewBox="0 0 512 512"><!-- Font Awesome Pro 6.0.0-alpha2 by @fontawesome - https://fontawesome.com License - https://fontawesome.com/license (Commercial License) --><path d="M320 192H416C433.673 192 448 177.672 448 160V64C448 46.398 433.599 32 416 32H320C302.326 32 288 46.328 288 64V160C288 177.672 302.326 192 320 192ZM480 256H320C302.326 256 288 270.328 288 288V448C288 465.672 302.326 480 320 480H480C497.673 480 512 465.672 512 448V288C512 270.328 497.673 256 480 256ZM192.404 330.664L160 366.062V64.031C160 46.328 145.671 32 128 32S96 46.328 96 64.031V366.063L63.595 330.664C57.283 323.781 48.658 320.281 39.986 320.281C32.267 320.281 24.517 323.063 18.377 328.695C5.347 340.648 4.472 360.914 16.408 373.961L104.406 470.055C116.531 483.313 139.468 483.313 151.593 470.055L239.591 373.961C251.527 360.914 250.652 340.648 237.623 328.695C224.607 316.75 204.357 317.656 192.404 330.664Z"/></svg>