<svg xmlns="http://www.w3.org/2000/svg" viewBox="0 0 576 512"><!-- Font Awesome Pro 6.0.0-alpha2 by @fontawesome - https://fontawesome.com License - https://fontawesome.com/license (Commercial License) --><path d="M415.998 288H320C302.326 288 288 302.328 288 320S302.326 352 320 352H415.998C433.671 352 447.998 337.672 447.998 320S433.671 288 415.998 288ZM543.998 32H320C302.326 32 288 46.328 288 64S302.326 96 320 96H543.998C561.671 96 575.998 81.672 575.998 64S561.671 32 543.998 32ZM352 416H320C302.326 416 288 430.328 288 448S302.326 480 320 480H352C369.673 480 384 465.672 384 448S369.673 416 352 416ZM479.998 160H320C302.326 160 288 174.328 288 192S302.326 224 320 224H479.998C497.671 224 511.998 209.672 511.998 192S497.671 160 479.998 160ZM192.404 330.664L160 366.062V64.031C160 46.328 145.671 32 128 32S96 46.328 96 64.031V366.063L63.595 330.664C57.283 323.781 48.658 320.281 39.986 320.281C32.267 320.281 24.517 323.063 18.377 328.695C5.347 340.648 4.472 360.914 16.408 373.961L104.406 470.055C116.531 483.313 139.468 483.313 151.593 470.055L239.591 373.961C251.527 360.914 250.652 340.648 237.623 328.695C224.607 316.75 204.357 317.656 192.404 330.664Z"/></svg>