<svg xmlns="http://www.w3.org/2000/svg" viewBox="0 0 512 512"><!-- Font Awesome Pro 6.0.0-alpha2 by @fontawesome - https://fontawesome.com License - https://fontawesome.com/license (Commercial License) --><path d="M320.005 224H448.007C465.681 224 480.007 209.672 480.007 192V64C480.007 46.328 465.681 32 448.007 32H320.005C302.332 32 288.005 46.328 288.005 64V192C288.005 209.672 302.332 224 320.005 224ZM492.132 438.875L409.005 301.75C397.88 283.375 370.255 283.375 359.13 301.75L275.88 438.875C264.88 457.125 278.63 480 300.88 480H467.13C489.382 480 503.132 457.125 492.132 438.875ZM192.404 330.664L160 366.062V64.031C160 46.328 145.671 32 128 32S96 46.328 96 64.031V366.063L63.595 330.664C52.173 318.211 31.968 316.234 18.377 328.695C5.347 340.648 4.472 360.914 16.408 373.961L104.406 470.055C116.531 483.313 139.468 483.313 151.593 470.055L239.591 373.961C251.527 360.914 250.652 340.648 237.623 328.695C224.607 316.75 204.357 317.656 192.404 330.664Z"/></svg>