<svg xmlns="http://www.w3.org/2000/svg" viewBox="0 0 448 512"><!-- Font Awesome Pro 6.0.0-alpha2 by @fontawesome - https://fontawesome.com License - https://fontawesome.com/license (Commercial License) --><path d="M160 127.969C168.188 127.969 176.375 124.844 182.625 118.594L192 109.219V159.969C192 177.66 206.312 191.977 224 191.977S256 177.66 256 159.969V109.219L265.375 118.594C271.625 124.844 279.812 127.969 288 127.969C306.279 127.969 320 113.023 320 95.969C320 87.777 316.875 79.59 310.625 73.34L246.666 9.375C238.621 1.301 228.943 0 224 0C219.102 0 209.404 1.273 201.334 9.375L137.375 73.34C131.125 79.59 128 87.777 128 95.969C128 113.023 141.73 127.969 160 127.969ZM288 383.988C279.812 383.988 271.625 387.117 265.375 393.367L256 402.742V351.984C256 334.297 241.688 319.984 224 319.984S192 334.297 192 351.984V402.742L182.625 393.367C176.375 387.117 168.188 383.988 160 383.988C141.721 383.988 128 398.938 128 415.992C128 424.18 131.125 432.367 137.375 438.617L201.334 502.586C209.344 510.625 219.145 512 224 512C228.848 512 238.654 510.629 246.666 502.586L310.625 438.617C316.875 432.367 320 424.18 320 415.992C320 398.938 306.27 383.988 288 383.988ZM416 223.977H32C14.312 223.977 0 238.289 0 255.977S14.312 287.977 32 287.977H416C433.688 287.977 448 273.664 448 255.977S433.688 223.977 416 223.977Z"/></svg>