<svg xmlns="http://www.w3.org/2000/svg" viewBox="0 0 512 512"><!-- Font Awesome Pro 6.0.0-alpha2 by @fontawesome - https://fontawesome.com License - https://fontawesome.com/license (Commercial License) --><path d="M320.005 224H448.007C465.681 224 480.007 209.672 480.007 192V64C480.007 46.328 465.681 32 448.007 32H320.005C302.332 32 288.005 46.328 288.005 64V192C288.005 209.672 302.332 224 320.005 224ZM151.593 41.945C139.468 28.684 116.531 28.684 104.406 41.945L16.408 138.039C4.472 151.086 5.347 171.352 18.377 183.305C31.392 195.25 51.642 194.344 63.595 181.332L96 145.938V447.969C96 465.672 110.328 480 128 480S160 465.672 160 447.969V145.938L192.404 181.332C203.826 193.785 224.031 195.766 237.623 183.305C250.652 171.352 251.527 151.086 239.591 138.039L151.593 41.945ZM492.132 438.875L409.005 301.75C397.88 283.375 370.255 283.375 359.13 301.75L275.88 438.875C264.88 457.125 278.63 480 300.88 480H467.13C489.382 480 503.132 457.125 492.132 438.875Z"/></svg>