<svg xmlns="http://www.w3.org/2000/svg" viewBox="0 0 512 512"><!-- Font Awesome Pro 6.0.0-alpha2 by @fontawesome - https://fontawesome.com License - https://fontawesome.com/license (Commercial License) --><path d="M480 256H320C302.326 256 288 270.328 288 288V448C288 465.672 302.326 480 320 480H480C497.673 480 512 465.672 512 448V288C512 270.328 497.673 256 480 256ZM320 192H416C433.599 192 448 177.602 448 160V64C448 46.398 433.599 32 416 32H320C302.4 32 288 46.398 288 64V160C288 177.602 302.4 192 320 192ZM151.593 41.945C139.468 28.684 116.531 28.684 104.406 41.945L16.408 138.039C4.472 151.086 5.347 171.352 18.377 183.305C31.392 195.25 51.642 194.344 63.595 181.332L96 145.938V447.969C96 465.672 110.328 480 128 480S160 465.672 160 447.969V145.938L192.404 181.332C198.716 188.215 207.341 191.719 216.013 191.719C223.732 191.719 231.482 188.934 237.623 183.305C250.652 171.352 251.527 151.086 239.591 138.039L151.593 41.945Z"/></svg>