<svg xmlns="http://www.w3.org/2000/svg" viewBox="0 0 384 512"><!-- Font Awesome Pro 6.0.0-alpha2 by @fontawesome - https://fontawesome.com License - https://fontawesome.com/license (Commercial License) --><path d="M288.016 358.305C302 350.217 305.547 328.264 316.891 316.918C328.242 305.568 350.195 302.027 358.289 288.043C366.27 274.256 358.449 253.51 362.656 237.764C366.73 222.535 384 208.514 384 192C384 175.498 366.734 161.484 362.664 146.266C358.457 130.52 366.281 109.773 358.305 95.986C350.219 82.006 328.266 78.459 316.922 67.109C305.57 55.76 302.027 33.807 288.047 25.713C274.258 17.734 253.508 25.555 237.766 21.344C222.535 17.271 208.516 0 192 0C175.5 0 161.484 17.27 146.266 21.336C130.523 25.545 109.773 17.719 95.988 25.695C82.008 33.783 78.461 55.736 67.113 67.082C55.766 78.432 33.809 81.973 25.719 95.957C17.734 109.744 25.555 130.49 21.348 146.236C17.273 161.465 0 175.486 0 192C0 208.502 17.273 222.516 21.34 237.734C25.547 253.48 17.719 274.227 25.695 288.014C33.789 301.994 55.738 305.541 67.082 316.891C78.434 328.24 81.977 350.193 95.957 358.287C109.746 366.266 130.492 358.445 146.238 362.656C161.469 366.729 175.488 384 192 384C208.5 384 222.52 366.73 237.738 362.664C253.484 358.455 274.227 366.281 288.016 358.305ZM112 192C112 147.729 147.812 112 192 112S272 147.729 272 192C272 236.166 236.188 272 192 272S112 236.166 112 192ZM1.719 433.219C-1.531 441.406 -0.063 450.703 5.594 457.469C11.25 464.219 20.125 467.359 28.719 465.609L73.906 456.578L95.344 498.844C99.469 507.031 107.594 512 116.688 512C117.031 512 117.344 511.984 117.688 511.969C127.188 511.594 135.344 505.891 138.938 497.094L172.516 415.016C118.805 410.377 70.504 386.895 34.355 351.068L1.719 433.219ZM349.645 351.07C313.496 386.896 265.195 410.377 211.484 415.016L245.062 497.094C248.656 505.891 256.812 511.594 266.312 511.969C266.656 511.984 266.969 512 267.312 512C276.406 512 284.531 507.031 288.656 498.859L310.094 456.578L355.281 465.609C363.875 467.359 372.75 464.219 378.406 457.469C384.062 450.703 385.531 441.406 382.281 433.219L349.645 351.07Z"/></svg>