<svg xmlns="http://www.w3.org/2000/svg" viewBox="0 0 448 512"><!-- Font Awesome Pro 6.0.0-alpha2 by @fontawesome - https://fontawesome.com License - https://fontawesome.com/license (Commercial License) --><path d="M416 160H344V120C344 53.828 290.172 0 224 0S104 53.828 104 120V160H32C14.326 160 0 174.326 0 192V432C0 476.182 35.816 512 80 512H368C412.184 512 448 476.182 448 432V192C448 174.326 433.674 160 416 160ZM152 120C152 80.297 184.297 48 224 48S296 80.297 296 120V160H152V120ZM128 248C114.75 248 104 237.25 104 224S114.75 200 128 200S152 210.75 152 224S141.25 248 128 248ZM320 248C306.75 248 296 237.25 296 224S306.75 200 320 200S344 210.75 344 224S333.25 248 320 248Z"/></svg>