<svg xmlns="http://www.w3.org/2000/svg" viewBox="0 0 576 512"><!-- Font Awesome Pro 6.0.0-alpha2 by @fontawesome - https://fontawesome.com License - https://fontawesome.com/license (Commercial License) --><path d="M256 248C256 203.812 220.188 168 176 168S96 203.812 96 248S131.812 328 176 328S256 292.188 256 248ZM80 352C35.812 352 0 387.812 0 432S35.812 512 80 512S160 476.188 160 432S124.188 352 80 352ZM288 160C332.188 160 368 124.188 368 80S332.188 0 288 0S208 35.812 208 80S243.812 160 288 160ZM496 352C451.812 352 416 387.812 416 432S451.812 512 496 512S576 476.188 576 432S540.188 352 496 352ZM288 352C243.812 352 208 387.812 208 432S243.812 512 288 512S368 476.188 368 432S332.188 352 288 352ZM480 248C480 203.812 444.188 168 400 168S320 203.812 320 248S355.812 328 400 328S480 292.188 480 248Z"/></svg>