<svg xmlns="http://www.w3.org/2000/svg" viewBox="0 0 512 512"><!-- Font Awesome Pro 6.0.0-alpha2 by @fontawesome - https://fontawesome.com License - https://fontawesome.com/license (Commercial License) --><path d="M96 304C96 312.75 103.25 320 112 320H229.5L133.5 224H112C103.25 224 96 231.25 96 240V304ZM256 0C114.625 0 0 114.625 0 256S114.625 512 256 512S512 397.375 512 256S397.375 0 256 0ZM256 448C150.125 448 64 361.875 64 256C64 214.625 77.25 176.25 99.75 144.875L367.125 412.25C335.75 434.75 297.375 448 256 448ZM301.25 256H384V288H333.25L301.25 256ZM412.25 367.125L365.25 320H400C408.75 320 416 312.75 416 304V240C416 231.25 408.75 224 400 224H269.25L144.875 99.75C176.25 77.25 214.625 64 256 64C361.875 64 448 150.125 448 256C448 297.375 434.75 335.75 412.25 367.125ZM320.625 128C305 128 292 116.75 289.25 102.125C288.5 98.5 285.25 96 281.5 96H265.25C260.25 96 256.625 100.5 257.25 105.375C261.875 136.25 288.5 160 320.625 160C336.25 160 349.25 171.25 352 185.875C352.75 189.5 356 192 359.75 192H375.875C380.875 192 384.625 187.5 383.875 182.625C379.25 151.75 352.75 128 320.625 128Z"/></svg>