<svg xmlns="http://www.w3.org/2000/svg" viewBox="0 0 640 512"><!-- Font Awesome Pro 6.0.0-alpha2 by @fontawesome - https://fontawesome.com License - https://fontawesome.com/license (Commercial License) --><path d="M57.896 397.188C47.506 382.891 27.49 379.734 13.193 390.109C-1.104 400.5 -4.276 420.516 6.115 434.813L52.631 498.813C58.896 507.422 68.646 512 78.553 512C85.068 512 91.662 510.016 97.334 505.891C111.631 495.5 114.803 475.484 104.412 461.187L57.896 397.188ZM496.131 352C452.006 352 416.381 387.75 416.381 432S452.006 512 496.131 512S576.006 476.25 576.006 432S540.256 352 496.131 352ZM627.287 60.178L603.662 27.678C581.037 -3.447 538.912 -8.197 510.037 12.803L307.787 159.678C262.162 192.803 220.412 230.928 183.412 273.428C159.189 301.305 124.228 337.414 79.918 373.049L136.258 450.566C190.045 415.176 235.412 395.273 263.412 383.303C315.287 361.303 364.662 333.428 410.287 300.303L612.537 153.553C642.287 131.803 648.912 90.053 627.287 60.178Z"/></svg>