<svg xmlns="http://www.w3.org/2000/svg" viewBox="0 0 448 512"><!-- Font Awesome Pro 6.0.0-alpha2 by @fontawesome - https://fontawesome.com License - https://fontawesome.com/license (Commercial License) --><path d="M224 512C259.375 512 288 483.375 288 448H160C160 483.375 188.625 512 224 512ZM439.375 362.25C420.125 341.5 383.875 310.25 383.875 208C383.875 130.25 329.5 68.125 256 52.875V32C256 14.375 241.625 0 224 0C206.25 0 192 14.375 192 32V52.875C118.5 68.125 64.125 130.25 64.125 208C64.125 310.25 27.875 341.5 8.625 362.25C3 368.125 0 375.875 0 384C0.125 400.375 13 416 32.125 416H415.875C435 416 447.875 400.375 448 384C448 375.875 445 368.125 439.375 362.25ZM288 264H248V304C248 317.25 237.25 328 224 328S200 317.25 200 304V264H160C146.75 264 136 253.25 136 240S146.75 216 160 216H200V176C200 162.75 210.75 152 224 152S248 162.75 248 176V216H288C301.25 216 312 226.75 312 240S301.25 264 288 264Z"/></svg>