<svg xmlns="http://www.w3.org/2000/svg" viewBox="0 0 640 512"><!-- Font Awesome Pro 6.0.0-alpha2 by @fontawesome - https://fontawesome.com License - https://fontawesome.com/license (Commercial License) --><path d="M368 32H272C254.375 32 240 46.375 240 64V160C240 177.625 254.375 192 272 192H368C385.625 192 400 177.625 400 160V64C400 46.375 385.625 32 368 32ZM208 88H123.25C113.75 64.5 90.875 48 64 48C28.625 48 0 76.625 0 112S28.625 176 64 176C90.875 176 113.75 159.5 123.25 136H203C147.625 168.5 107.125 223.375 93.5 288H142.875C154.125 246.375 179.625 210.75 213.875 186.5C210.125 178.375 208 169.5 208 160V88ZM160 320H64C46.375 320 32 334.375 32 352V448C32 465.625 46.375 480 64 480H160C177.625 480 192 465.625 192 448V352C192 334.375 177.625 320 160 320ZM576 48C549.125 48 526.25 64.5 516.75 88H432V160C432 169.5 429.75 178.375 426.125 186.5C460.375 210.75 485.875 246.375 497.125 288H546.5C532.875 223.375 492.375 168.5 437 136H516.75C526.25 159.5 549.125 176 576 176C611.375 176 640 147.375 640 112S611.375 48 576 48ZM576 320H480C462.375 320 448 334.375 448 352V448C448 465.625 462.375 480 480 480H576C593.625 480 608 465.625 608 448V352C608 334.375 593.625 320 576 320Z"/></svg>