<svg xmlns="http://www.w3.org/2000/svg" viewBox="0 0 448 512"><!-- Font Awesome Pro 6.0.0-alpha2 by @fontawesome - https://fontawesome.com License - https://fontawesome.com/license (Commercial License) --><path d="M448 432V464C448 472.75 440.75 480 432 480H128C57.25 480 0 422.75 0 352V128C0 75.125 43.125 32 96 32H352C404.875 32 448 75.125 448 128C448 128 447.875 309.5 447.625 312.375C443.375 354 405.125 384 363.25 384H128C110.25 384 96 369.75 96 352S110.25 320 128 320H368C376.75 320 384 312.75 384 304S376.75 288 368 288H128C92.75 288 64 316.75 64 352S92.75 416 128 416H432C440.75 416 448 423.25 448 432Z"/></svg>