<svg xmlns="http://www.w3.org/2000/svg" viewBox="0 0 512 512"><!-- Font Awesome Pro 6.0.0-alpha2 by @fontawesome - https://fontawesome.com License - https://fontawesome.com/license (Commercial License) --><path d="M336 64H494.5L512 0H48C21.49 0 0 21.49 0 48V208C0 234.51 21.49 256 48 256H151.25L160 352H416L433.5 288H336C327.199 288 320 280.801 320 272S327.199 256 336 256H442.125L459.625 192H336C327.199 192 320 184.801 320 176S327.199 160 336 160H468.375L485.875 96H336C327.199 96 320 88.801 320 80S327.199 64 336 64ZM64 192V64H133.875L145.5 192H64ZM416 384H160C124.625 384 96 412.625 96 448V480C96 497.625 110.375 512 128 512H448C465.625 512 480 497.625 480 480V448C480 412.625 451.375 384 416 384ZM288 480C270.375 480 256 465.625 256 448S270.375 416 288 416S320 430.375 320 448S305.625 480 288 480Z"/></svg>