<svg xmlns="http://www.w3.org/2000/svg" viewBox="0 0 512 512"><!-- Font Awesome Pro 6.0.0-alpha2 by @fontawesome - https://fontawesome.com License - https://fontawesome.com/license (Commercial License) --><path d="M217.561 96.102C204.607 95.477 192.904 105.258 192.045 118.477C191.186 131.691 201.217 143.129 214.436 143.973C293.965 149.16 362.871 218.059 368.043 297.582C368.871 310.27 379.434 320.016 391.98 320.016C392.496 320.016 393.027 319.984 393.559 319.953C406.777 319.109 416.809 307.676 415.949 294.457C409.262 191.75 320.262 102.758 217.561 96.102ZM224 0C206.328 0 192 14.312 192 32S206.328 64 224 64C347.516 64 448 164.5 448 288C448 305.688 462.328 320 480 320S512 305.688 512 288C512 129.188 382.797 0 224 0ZM172.283 226.758C157.656 223.883 144.027 235.758 144.027 250.633V301.008C144.027 311.258 151.154 319.379 160.781 323.004C178.91 329.754 192.037 347.379 192.037 368C192.037 394.5 170.533 416 144.027 416C117.523 416 96.02 394.5 96.02 368V120.016C96.02 106.766 85.268 96.016 72.014 96.016H24.004C10.752 96.016 0 106.766 0 120.016V368C0 457.496 82.141 528.242 175.035 508.742C229.42 497.242 273.303 453.246 284.807 399C302.184 316.129 247.799 241.758 172.283 226.758Z"/></svg>