<svg xmlns="http://www.w3.org/2000/svg" viewBox="0 0 640 512"><!-- Font Awesome Pro 6.0.0-alpha2 by @fontawesome - https://fontawesome.com License - https://fontawesome.com/license (Commercial License) --><path d="M215.032 152.969C219.719 157.656 225.844 160 232 160S244.282 157.656 248.969 152.969C258.344 143.594 258.344 128.406 248.969 119.031L200.969 71.031C191.594 61.656 176.407 61.656 167.032 71.031S157.657 95.594 167.032 104.969L215.032 152.969ZM408 160C414.157 160 420.282 157.656 424.969 152.969L472.969 104.969C482.344 95.594 482.344 80.406 472.969 71.031S448.407 61.656 439.032 71.031L391.032 119.031C381.657 128.406 381.657 143.594 391.032 152.969C395.719 157.656 401.844 160 408 160ZM320 128C333.25 128 344 117.25 344 104V24C344 10.75 333.25 0 320 0S296 10.75 296 24V104C296 117.25 306.75 128 320 128ZM183.252 253.305C165.532 256.455 148.037 247.539 139.526 231.557L139.383 231.287C121.612 198.199 81.576 182.805 45.408 197.693C12.496 211.244 -4.943 247.926 1.229 283.219L1.991 287.574C6.897 315.619 27.002 338.408 54.039 346.396C64.096 349.471 66.44 362.875 58.033 369.232C35.336 386.061 24.174 414.404 29.08 442.453L29.842 446.807C36.016 482.102 64.848 510.557 100.373 511.941C139.41 513.461 171.807 485.193 177.282 447.971C177.311 447.771 177.34 447.574 177.369 447.375C179.93 429.525 193.42 415.287 211.039 412.154L320 382.959L280 229.725L183.252 253.305ZM594.592 197.693C558.424 182.805 518.389 198.199 500.617 231.287L500.475 231.557C491.963 247.539 474.469 256.455 456.748 253.305L360 229.725L320 382.959L428.961 412.154C446.58 415.287 460.071 429.525 462.631 447.375C462.66 447.574 462.69 447.771 462.719 447.971C468.194 485.193 500.59 513.461 539.627 511.941C575.153 510.557 603.985 482.102 610.158 446.807L610.92 442.453C615.826 414.404 604.664 386.061 581.967 369.232C573.561 362.875 575.905 349.471 585.961 346.396C612.998 338.408 633.104 315.619 638.01 287.574L638.772 283.219C644.944 247.926 627.504 211.244 594.592 197.693Z"/></svg>