<svg xmlns="http://www.w3.org/2000/svg" viewBox="0 0 576 512"><!-- Font Awesome Pro 6.0.0-alpha2 by @fontawesome - https://fontawesome.com License - https://fontawesome.com/license (Commercial License) --><path d="M224.002 480C224.002 497.625 238.377 512 256.004 512H320.004C337.623 512 351.988 497.641 352 480.02V416H224.002V480ZM160.002 0H96C78.375 0 64 14.375 64 32V96H192.002V32C192.002 14.375 177.627 0 160.002 0ZM79.998 352H111.996C120.832 352 127.996 344.836 127.996 336V288.004H175.994C184.83 288.004 191.994 280.84 191.994 272.004V240.004C191.994 231.168 184.83 224.004 175.994 224.004H127.996V176.008C127.996 167.172 120.832 160.008 111.996 160.008H79.998C71.162 160.008 63.998 167.172 63.998 176.008V224.004H16C7.164 224.004 0 231.168 0 240.004V272.004C0 280.84 7.164 288.004 16 288.004H63.998V336C63.998 344.836 71.162 352 79.998 352ZM64 480C64 497.625 78.375 512 96 512H160.002C177.627 512 192.002 497.625 192.002 480V416H64V480ZM459.035 23.641C454.467 6.664 436.887 -3.461 419.879 1.086L358.104 17.609C355.031 18.43 352.484 20.094 349.906 21.68C345.559 9.156 333.975 0 320.004 0H256.004C238.377 0 224.002 14.375 224.002 32V96H346.039L352.043 118.367L475.592 85.32L459.035 23.641ZM574.914 455.316L558.357 393.633L434.807 426.68L451.359 488.344C455.918 505.32 473.512 515.461 490.525 510.91L552.301 494.391C569.309 489.84 579.461 472.297 574.914 455.316ZM224.002 384H352V128H224.002V384ZM483.869 116.156L360.318 149.195L426.531 395.848L550.08 362.805L483.869 116.156Z"/></svg>