<svg xmlns="http://www.w3.org/2000/svg" viewBox="0 0 448 512"><!-- Font Awesome Pro 6.0.0-alpha2 by @fontawesome - https://fontawesome.com License - https://fontawesome.com/license (Commercial License) --><path d="M448 360V24C448 10.744 437.254 0 424 0H96C42.98 0 0 42.98 0 96V416C0 469.02 42.98 512 96 512H424C437.254 512 448 501.254 448 488V472C448 461.582 441.275 452.936 432 449.615V382.385C441.275 379.064 448 370.416 448 360ZM144 144C144 135.125 151.125 128 160 128H208V80C208 71.125 215.125 64 224 64H256C264.875 64 272 71.125 272 80V128H320C328.875 128 336 135.125 336 144V176C336 184.875 328.875 192 320 192H272V304C272 312.875 264.875 320 256 320H224C215.125 320 208 312.875 208 304V192H160C151.125 192 144 184.875 144 176V144ZM384 448H96C78.326 448 64 433.672 64 416C64 398.326 78.326 384 96 384H384V448Z"/></svg>