<svg xmlns="http://www.w3.org/2000/svg" viewBox="0 0 448 512"><!-- Font Awesome Pro 6.0.0-alpha2 by @fontawesome - https://fontawesome.com License - https://fontawesome.com/license (Commercial License) --><path d="M448 360V24C448 10.744 437.254 0 424 0H96C42.98 0 0 42.98 0 96V416C0 469.02 42.98 512 96 512H424C437.254 512 448 501.254 448 488V472C448 461.582 441.273 452.936 432 449.615V382.385C441.273 379.064 448 370.416 448 360ZM129.682 264.844L225.682 72.844C231.119 62 248.869 62 254.307 72.844L350.307 264.844C354.26 272.75 351.057 282.359 343.15 286.312C340.854 287.453 338.416 288 336.01 288C330.135 288 324.494 284.766 321.682 279.156L294.104 224H185.885L158.307 279.156C154.354 287.062 144.744 290.219 136.838 286.312C128.932 282.359 125.729 272.75 129.682 264.844ZM384 448H96C78.328 448 64 433.672 64 416C64 398.326 78.328 384 96 384H384V448ZM239.994 115.781L201.885 192H278.104L239.994 115.781Z"/></svg>