<svg xmlns="http://www.w3.org/2000/svg" viewBox="0 0 576 512"><!-- Font Awesome Pro 6.0.0-alpha2 by @fontawesome - https://fontawesome.com License - https://fontawesome.com/license (Commercial License) --><path d="M576 264V24C576 10.744 565.254 0 552 0H288C234.98 0 192 42.98 192 96V320C192 373.02 234.98 416 288 416H552C565.254 416 576 405.254 576 392V376C576 365.582 569.273 356.936 560 353.615V286.385C569.273 283.064 576 274.416 576 264ZM512 352H288C270.328 352 256 337.672 256 320C256 302.326 270.328 288 288 288H512V352ZM360 448H97.711C81.77 448 66.996 437.106 64.438 421.372C61.178 401.323 76.566 384 96 384H177.805C166.781 365.096 160 343.416 160 320V96H96C42.98 96 0 138.98 0 192V416C0 469.02 42.98 512 96 512H360C373.254 512 384 501.255 384 488V472C384 458.745 373.254 448 360 448Z"/></svg>