<svg xmlns="http://www.w3.org/2000/svg" viewBox="0 0 512 512"><!-- Font Awesome Pro 6.0.0-alpha2 by @fontawesome - https://fontawesome.com License - https://fontawesome.com/license (Commercial License) --><path d="M0 480L32 512H96L128 480L160 512H224L256 480L288 512H352L384 480L416 512H480L512 480V448H0V480ZM352 80V16C352 7.25 344.75 0 336 0H16C7.25 0 0 7.25 0 16V96H336C344.75 96 352 88.75 352 80ZM439.25 285.75L320 256H272C263.2 256 256 248.8 256 240V240C256 231.2 263.2 224 272 224H320V192H272C263.2 192 256 184.8 256 176V176C256 167.2 263.2 160 272 160H320V128H0V416H512V379C512 334.875 481.999 296.5 439.25 285.75Z"/></svg>