<svg xmlns="http://www.w3.org/2000/svg" viewBox="0 0 512 512"><!-- Font Awesome Pro 6.0.0-alpha2 by @fontawesome - https://fontawesome.com License - https://fontawesome.com/license (Commercial License) --><path d="M384 288L448 96H338.596C308.381 96 281.555 76.664 272 48C262.445 19.334 235.619 0 205.404 0H64L128 288H384ZM0 480C0 497.672 14.326 512 32 512H480C497.674 512 512 497.672 512 480V416H0V480ZM480 224H439.064L417.73 288H432C440.836 288 448 295.164 448 304S440.836 320 432 320H80C71.164 320 64 312.836 64 304S71.164 288 80 288H95.219L80.996 224H32C14.326 224 0 238.326 0 256V384H512V256C512 238.326 497.674 224 480 224Z"/></svg>