<svg xmlns="http://www.w3.org/2000/svg" viewBox="0 0 448 512"><!-- Font Awesome Pro 6.0.0-alpha2 by @fontawesome - https://fontawesome.com License - https://fontawesome.com/license (Commercial License) --><path d="M447.625 158.75L391.25 53.875C386.875 40.75 374.75 32 360.875 32H240V160H446.75C447.125 159.5 447.25 159.25 447.625 158.75ZM208 160V32H87.125C73.25 32 61.125 40.75 56.75 53.875L0.375 158.75C0.75 159.25 0.875 159.5 1.25 160H208ZM0 192V432C0 458.51 21.49 480 48 480H400C426.51 480 448 458.51 448 432V192H0ZM305.125 341.25L232.5 412.625C227.75 417.25 220.25 417.25 215.5 412.625L142.875 341.25C121.75 320.5 123.125 286.125 146.625 267C167.125 250.25 197.75 253.25 216.625 271.75L224 279.125L231.375 271.75C250.25 253.25 280.75 250.25 301.375 267C324.875 286.125 326.125 320.375 305.125 341.25Z"/></svg>