<svg xmlns="http://www.w3.org/2000/svg" viewBox="0 0 640 512"><!-- Font Awesome Pro 6.0.0-alpha2 by @fontawesome - https://fontawesome.com License - https://fontawesome.com/license (Commercial License) --><path d="M480 192C480 103.625 372.5 32 240 32S0 103.625 0 192C0 227.375 30.875 256 64 256V448C64 465.625 78.375 480 96 480H384C401.625 480 416 465.625 416 448V256C449.125 256 480 227.375 480 192ZM400 32C397.625 32 395.25 32.25 392.75 32.25C465.25 66.375 512 124.625 512 192C512 234.75 485.125 271 448 283.5V448C447.875 459.25 444.875 470.375 439.125 480H544C561.625 480 576 465.625 576 448V256H580C613.125 256 640 227.375 640 192C640 103.625 532.5 32 400 32Z"/></svg>