<svg xmlns="http://www.w3.org/2000/svg" viewBox="0 0 512 512"><!-- Font Awesome Pro 6.0.0-alpha2 by @fontawesome - https://fontawesome.com License - https://fontawesome.com/license (Commercial License) --><path d="M464 96H384V48C384 21.5 362.5 0 336 0H176C149.5 0 128 21.5 128 48V96H48C21.5 96 0 117.5 0 144V432C0 458.5 21.5 480 48 480H464C490.5 480 512 458.5 512 432V144C512 117.5 490.5 96 464 96ZM176 48H336V96H176V48ZM376.969 304.969L296.969 384.969C287.594 394.344 272.406 394.344 263.031 384.969C258.344 380.281 256 374.156 256 368S258.344 355.719 263.031 351.031L302.062 312H152C138.75 312 128 301.25 128 288S138.75 264 152 264H302.062L263.031 224.969C253.656 215.594 253.656 200.406 263.031 191.031S287.594 181.656 296.969 191.031L376.969 271.031C386.344 280.406 386.344 295.594 376.969 304.969Z"/></svg>