<svg xmlns="http://www.w3.org/2000/svg" viewBox="0 0 640 512"><!-- Font Awesome Pro 6.0.0-alpha2 by @fontawesome - https://fontawesome.com License - https://fontawesome.com/license (Commercial License) --><path d="M64 176V80C64 71.162 71.164 64 80 64H256V48C256 21.6 234.4 0 208 0H48C21.6 0 0 21.6 0 48V208C0 234.4 21.6 256 48 256H128V192H80C71.164 192 64 184.836 64 176ZM480 352V160C480 124.652 451.346 96 416 96H224C188.654 96 160 124.652 160 160V352C160 387.346 188.654 416 224 416H416C451.346 416 480 387.346 480 352ZM592 256H512V320H560C568.836 320 576 327.162 576 336V432C576 440.836 568.836 448 560 448H384V464C384 490.4 405.6 512 432 512H592C618.4 512 640 490.4 640 464V304C640 277.6 618.4 256 592 256Z"/></svg>