<svg xmlns="http://www.w3.org/2000/svg" viewBox="0 0 512 512"><!-- Font Awesome Pro 6.0.0-alpha2 by @fontawesome - https://fontawesome.com License - https://fontawesome.com/license (Commercial License) --><path d="M256 128C185.281 128 128.004 185.25 128.004 256S185.281 384 256 384S383.996 326.75 383.996 256S326.719 128 256 128ZM256 320C220.762 320 191.941 291.25 191.941 256S220.762 192 256 192S320.059 220.75 320.059 256S291.238 320 256 320ZM256 16C123.461 16 16 123.418 16 256C16 388.58 123.461 496 256 496S496 388.58 496 256C496 123.418 388.539 16 256 16ZM256 432C158.703 432 80.055 353.326 80.055 256S158.703 80 256 80S431.945 158.674 431.945 256S353.297 432 256 432Z"/></svg>