<svg xmlns="http://www.w3.org/2000/svg" viewBox="0 0 512 512"><!-- Font Awesome Pro 6.0.0-alpha2 by @fontawesome - https://fontawesome.com License - https://fontawesome.com/license (Commercial License) --><path d="M464 256H48C21.5 256 0 277.5 0 304S21.5 352 48 352H464C490.5 352 512 330.5 512 304S490.5 256 464 256ZM58.625 224H453.25C487.875 224 507.875 180.125 488.125 148.125C448 83.25 359.5 32.125 256 32C152.5 32.125 64 83.25 23.75 148.125C4 180.125 24.125 224 58.625 224ZM384 112C392.875 112 400 119.125 400 128S392.875 144 384 144S368 136.875 368 128S375.125 112 384 112ZM256 80C264.875 80 272 87.125 272 96S264.875 112 256 112S240 104.875 240 96S247.125 80 256 80ZM128 112C136.875 112 144 119.125 144 128S136.875 144 128 144C119.125 144 112 136.875 112 128S119.125 112 128 112ZM480 384H32C23.125 384 16 391.125 16 400V416C16 451.375 44.625 480 80 480H432C467.375 480 496 451.375 496 416V400C496 391.125 488.875 384 480 384Z"/></svg>