<svg xmlns="http://www.w3.org/2000/svg" viewBox="0 0 640 512"><!-- Font Awesome Pro 6.0.0-alpha2 by @fontawesome - https://fontawesome.com License - https://fontawesome.com/license (Commercial License) --><path d="M224.004 268.736V31.973C224.004 25.973 220.629 20.348 215.129 17.723L183.129 1.721C178.254 -0.779 172.254 -0.529 167.629 2.346C162.879 5.223 160.004 10.473 160.004 15.973V268.736C181.129 273.111 202.879 273.111 224.004 268.736ZM370.209 176.459L383.754 98.727C384.754 93.227 382.754 87.727 378.629 84.102C374.504 80.352 368.754 79.102 363.379 80.727L346.129 85.852L326.559 196.998C340.02 188.867 354.725 182.057 370.207 176.461L370.209 176.459ZM263.604 318.332C261.336 314.055 259.821 309.584 258.729 305.027C257.627 301.025 257.127 297.006 256.809 292.912C256.809 292.91 256.807 292.906 256.807 292.904C237.787 299.902 215.684 303.988 192.004 303.988C127.379 303.988 73.879 273.986 65.254 234.984C63.754 228.234 57.004 223.984 50.004 223.984H16.004C11.129 223.984 6.504 226.234 3.504 229.984S-0.621 238.734 0.379 243.484L54.504 486.998C57.754 501.623 70.754 512 85.754 512H272.409C270.209 509.094 268.287 506.025 266.494 502.83C265.944 501.865 265.418 500.898 264.907 499.91C263.518 497.176 262.248 494.412 261.176 491.508C260.389 489.43 259.801 487.275 259.19 485.119C258.582 482.922 257.889 480.783 257.469 478.516C256.569 473.807 256 468.98 256 464C256 449.344 262.604 436.199 272.992 427.387C262.451 415.975 256 400.725 256 384C256 364.977 264.344 347.865 277.563 336.131C271.987 331.174 267.235 325.182 263.604 318.332ZM128.004 258.486V33.098L124.254 13.098C123.254 7.598 119.504 3.096 114.254 1.096C109.129 -0.904 103.254 -0.154 98.879 3.221L70.379 24.848C65.504 28.473 63.129 34.598 64.254 40.6L101.129 237.734C106.504 245.359 115.629 252.609 128.004 258.486ZM50.004 191.982C53.629 191.982 57.004 192.982 60.379 193.732L40.379 86.602L20.629 80.727C15.254 79.102 9.504 80.352 5.379 83.977C1.254 87.727 -0.746 93.227 0.254 98.727L16.504 191.982H50.004ZM319.754 50.725C320.754 45.225 318.754 39.725 314.629 36.098C310.504 32.348 304.754 31.098 299.379 32.723L265.129 42.975C260.879 44.225 258.004 47.475 256.004 51.225V258.486C259.946 256.6 263.483 254.533 266.789 252.402C267.008 252.066 267.088 251.678 267.315 251.344C270.951 246.012 275.16 240.994 279.573 236.094C282.235 233.049 284.996 230.094 287.901 227.199C288.434 225.84 289.121 224.557 289.629 223.234L319.754 50.725ZM624 447.998H304C295.125 447.998 288 455.123 288 463.998C288 490.498 309.5 511.998 336 511.998H592C618.5 511.998 640 490.498 640 463.998C640 455.123 632.875 447.998 624 447.998ZM293.75 269.373C279.25 290.748 293.875 319.998 319.25 319.998H608.75C634.125 319.998 648.75 290.748 634.25 269.373C604.75 226.123 540 192.123 464 191.998S323.25 226.123 293.75 269.373ZM544 239.998C552.875 239.998 560 247.123 560 255.998S552.875 271.998 544 271.998S528 264.873 528 255.998S535.125 239.998 544 239.998ZM464 223.998C472.875 223.998 480 231.123 480 239.998S472.875 255.998 464 255.998S448 248.873 448 239.998S455.125 223.998 464 223.998ZM384 239.998C392.875 239.998 400 247.123 400 255.998S392.875 271.998 384 271.998S368 264.873 368 255.998S375.125 239.998 384 239.998ZM608 351.998H320C302.375 351.998 288 366.373 288 383.998S302.375 415.998 320 415.998H608C625.625 415.998 640 401.623 640 383.998S625.625 351.998 608 351.998Z"/></svg>