<svg xmlns="http://www.w3.org/2000/svg" viewBox="0 0 576 512"><!-- Font Awesome Pro 6.0.0-alpha2 by @fontawesome - https://fontawesome.com License - https://fontawesome.com/license (Commercial License) --><path d="M520 112H496V80C496 35.25 403.875 0 288 0S80 35.25 80 80V112H56C42.75 112 32 122.75 32 136V216C32 229.25 42.75 240 56 240H80V260.875C70.625 266.5 64 276.25 64 288V416C64 433.625 78.375 448 96 448V480C96 497.625 110.375 512 128 512H160C177.625 512 192 497.625 192 480V448H384V480C384 497.625 398.375 512 416 512H448C465.625 512 480 497.625 480 480V448C497.625 448 512 433.625 512 416V288C512 276.25 505.375 266.5 496 260.875V240H520C533.25 240 544 229.25 544 216V136C544 122.75 533.25 112 520 112ZM207.965 64H367.965C376.801 64 383.965 71.162 383.965 80C383.965 88.836 376.801 96 367.965 96H207.965C199.129 96 191.965 88.836 191.965 80C191.965 71.162 199.129 64 207.965 64ZM144 384C126.375 384 112 369.625 112 352S126.375 320 144 320S176 334.375 176 352S161.625 384 144 384ZM272 256H176C158.375 256 144 241.625 144 224V160C144 142.375 158.375 128 176 128H272V256ZM304 256V128H400C417.625 128 432 142.375 432 160V224C432 241.625 417.625 256 400 256H304ZM432 384C414.375 384 400 369.625 400 352S414.375 320 432 320S464 334.375 464 352S449.625 384 432 384Z"/></svg>