<svg xmlns="http://www.w3.org/2000/svg" viewBox="0 0 448 512"><!-- Font Awesome Pro 6.0.0-alpha2 by @fontawesome - https://fontawesome.com License - https://fontawesome.com/license (Commercial License) --><path d="M448 80C448 35.203 348.812 0 224 0S0 35.203 0 80V416C0 433.672 14.344 448 32 448V480C32 497.672 46.344 512 64 512H96C113.656 512 128 497.672 128 480V448H320V480C320 497.672 334.344 512 352 512H384C401.656 512 416 497.672 416 480V448H422.406C438.406 448 448 435.203 448 422.406V80ZM80 400C62.344 400 48 385.672 48 368S62.344 336 80 336S112 350.328 112 368S97.656 400 80 400ZM96 288C78.344 288 64 273.672 64 256V128C64 110.328 78.344 96 96 96H352C369.656 96 384 110.328 384 128V256C384 273.672 369.656 288 352 288H96ZM368 400C350.344 400 336 385.672 336 368S350.344 336 368 336S400 350.328 400 368S385.656 400 368 400Z"/></svg>