<svg xmlns="http://www.w3.org/2000/svg" viewBox="0 0 448 512"><!-- Font Awesome Pro 6.0.0-alpha2 by @fontawesome - https://fontawesome.com License - https://fontawesome.com/license (Commercial License) --><path d="M0 464C0 490.5 21.5 512 48 512H400C426.5 512 448 490.5 448 464V192H0V464ZM200 264C200 250.75 210.75 240 224 240S248 250.75 248 264V344C248 357.25 237.25 368 224 368S200 357.25 200 344V264ZM224 400C241.674 400 256 414.328 256 432S241.674 464 224 464S192 449.672 192 432S206.326 400 224 400ZM400 64H352V32C352 14.4 337.6 0 320 0H320C302.4 0 288 14.4 288 32V64H160V32C160 14.4 145.6 0 128 0H128C110.4 0 96 14.4 96 32V64H48C21.49 64 0 85.49 0 112V160H448V112C448 85.49 426.51 64 400 64Z"/></svg>