<svg xmlns="http://www.w3.org/2000/svg" viewBox="0 0 448 512"><!-- Font Awesome Pro 6.0.0-alpha2 by @fontawesome - https://fontawesome.com License - https://fontawesome.com/license (Commercial License) --><path d="M224 112C170.965 112 128 154.963 128 208C128 261.035 170.965 304 224 304S320 261.035 320 208C320 154.963 277.035 112 224 112ZM384 0H64C28.625 0 0 28.625 0 64V352C0 387.375 28.625 416 64 416H136.75L76.5 450.875C69.625 455.125 64 465.25 64 473.375V485.375C64 500 76 512 90.75 512H357.375C372.125 512 384 500 384 485.375V473.5C384 465.25 378.375 455.125 371.375 450.875L311.25 416H384C419.375 416 448 387.375 448 352V64C448 28.625 419.375 0 384 0ZM224 336C153.223 336 96 278.666 96 208C96 137.332 153.334 80 224 80S352 137.332 352 208C352 278.666 294.666 336 224 336Z"/></svg>