<svg xmlns="http://www.w3.org/2000/svg" viewBox="0 0 512 512"><!-- Font Awesome Pro 6.0.0-alpha2 by @fontawesome - https://fontawesome.com License - https://fontawesome.com/license (Commercial License) --><path d="M256 224C211.908 224 176 259.908 176 304C176 348.09 211.908 384 256 384S336 348.09 336 304C336 259.908 300.092 224 256 224ZM464 32H271.107C261.172 32 251.373 34.312 242.486 38.756L192 64H160V48C160 39.162 152.836 32 144 32H80C71.164 32 64 39.162 64 48V64H48C21.49 64 0 85.49 0 112V432C0 458.51 21.49 480 48 480H464C490.51 480 512 458.51 512 432V80C512 53.49 490.51 32 464 32ZM256 416C194.273 416 144 365.727 144 304C144 242.271 194.273 192 256 192S368 242.271 368 304C368 365.727 317.727 416 256 416ZM448 192H369.979C340.932 162.441 300.617 144 256 144S171.068 162.441 142.021 192H64V128H207.109L271.107 96H448V192Z"/></svg>