<svg xmlns="http://www.w3.org/2000/svg" viewBox="0 0 640 512"><!-- Font Awesome Pro 6.0.0-alpha2 by @fontawesome - https://fontawesome.com License - https://fontawesome.com/license (Commercial License) --><path d="M319.998 383.994H319.873C231.498 383.994 159.874 312.37 159.874 223.997C159.874 223.356 160.055 222.762 160.063 222.126L101.266 176.044C97.893 191.505 95.999 207.52 95.999 223.997C95.999 300.245 134.124 367.369 192.124 407.869L142.999 438.618C133.624 444.493 127.999 454.743 127.999 465.743V479.993C127.999 497.617 142.374 511.992 159.999 511.992H479.997C492.208 511.992 502.513 504.856 507.904 494.758L359.535 378.467C346.82 381.729 333.725 383.994 319.998 383.994ZM630.811 469.102L495.081 362.721C525.505 324.604 543.997 276.621 543.997 223.997C543.997 100.248 443.623 0 319.998 0C247.975 0 184.297 34.242 143.354 87.046L38.814 5.109C34.407 1.672 29.189 0 24.032 0C16.907 0 9.845 3.156 5.126 9.187C-3.061 19.625 -1.249 34.718 9.189 42.89L601.186 506.883C611.686 515.086 626.749 513.211 634.874 502.805C643.061 492.367 641.249 477.274 630.811 469.102ZM319.873 175.997C304.119 175.997 290.832 184.083 282.154 195.833L256.494 175.724C271.041 156.494 293.922 143.998 319.873 143.998C328.748 143.998 335.873 151.123 335.873 159.998C335.873 168.872 328.748 175.997 319.873 175.997ZM444.601 323.155L419.412 303.413C437.031 281.636 447.873 254.246 447.873 223.997C447.873 153.373 390.623 95.999 319.998 95.999H319.873C278.59 95.999 242.366 115.932 219.063 146.384L193.862 126.631C223 88.71 268.326 63.999 319.873 63.999C408.248 63.999 479.872 135.623 479.872 223.997C479.872 261.676 466.468 295.917 444.601 323.155Z"/></svg>