<svg xmlns="http://www.w3.org/2000/svg" viewBox="0 0 448 512"><!-- Font Awesome Pro 6.0.0-alpha2 by @fontawesome - https://fontawesome.com License - https://fontawesome.com/license (Commercial License) --><path d="M400.875 438.625L351.75 407.875C409.875 367.375 448 300.25 448 224C448 100.25 347.625 0 224 0C100.25 0 0 100.25 0 224C0 300.25 38.125 367.375 96.125 407.875L47 438.625C37.625 444.5 32 454.75 32 465.75V480C32 497.625 46.375 512 64 512H384C401.625 512 416 497.625 416 480V465.75C416 454.75 410.25 444.5 400.875 438.625ZM223.875 384C135.5 384 63.875 312.375 63.875 224S135.5 64 223.875 64S383.875 135.625 383.875 224S312.25 384 224 384H223.875ZM223.875 96C153.25 96 95.875 153.25 95.875 224S153.25 352 223.875 352C294.625 352 351.875 294.75 351.875 224C351.875 153.375 294.625 96 224 96H223.875ZM223.875 176C197.375 176 176 197.5 175.875 224C175.875 232.875 168.75 240 159.875 240C151.125 240 143.875 232.875 143.875 224C144 179.875 179.75 144 223.875 144C232.75 144 239.875 151.125 239.875 160S232.75 176 223.875 176Z"/></svg>