<svg xmlns="http://www.w3.org/2000/svg" viewBox="0 0 448 512"><!-- Font Awesome Pro 6.0.0-alpha2 by @fontawesome - https://fontawesome.com License - https://fontawesome.com/license (Commercial License) --><path d="M376 368C336.25 368 304 400.25 304 440C304 448.5 305.75 456.5 308.375 464H256V256C256 238.375 241.625 224 224 224H160V272C160 280.875 152.875 288 144 288S128 280.875 128 272V224H96C78.375 224 64 238.375 64 256V464H16C7.125 464 0 471.125 0 480V496C0 504.875 7.125 512 16 512H376C415.75 512 448 479.75 448 440S415.75 368 376 368ZM376 464C362.75 464 352 453.25 352 440S362.75 416 376 416S400 426.75 400 440S389.25 464 376 464ZM160 192C205.875 192 237.999 159.375 237.999 112.75C237.999 82.75 205.375 37.875 160 0C114.375 38 81.999 82.875 81.999 112.75C81.999 159.375 114.125 192 160 192Z"/></svg>