<svg xmlns="http://www.w3.org/2000/svg" viewBox="0 0 512 512"><!-- Font Awesome Pro 6.0.0-alpha2 by @fontawesome - https://fontawesome.com License - https://fontawesome.com/license (Commercial License) --><path d="M298.231 156.627C245.477 130.877 183.721 146.127 147.967 189.379L203.223 244.629C209.473 250.879 209.473 261.004 203.223 267.254C200.096 270.254 195.971 271.879 191.846 271.879S183.721 270.254 180.596 267.254L130.34 217.004L2.203 479.76C-0.672 485.76 -0.797 493.01 2.203 499.385C7.703 510.51 21.205 515.135 32.207 509.76L165.844 444.508L116.715 395.258C110.338 389.133 110.338 378.883 116.715 372.756C122.965 366.506 133.09 366.506 139.217 372.756L196.221 429.758L298.231 379.883C322.233 368.256 342.735 348.631 355.362 322.756C385.489 261.129 359.862 186.754 298.231 156.627ZM390.239 121.752C409.74 81.002 399.74 32.875 359.987 0C309.733 41.75 307.481 107.502 352.112 151.877L360.112 159.877C404.49 204.504 470.371 202.254 512 152.002C479.121 112.252 430.992 102.252 390.239 121.752Z"/></svg>