<svg xmlns="http://www.w3.org/2000/svg" viewBox="0 0 640 512"><!-- Font Awesome Pro 6.0.0-alpha2 by @fontawesome - https://fontawesome.com License - https://fontawesome.com/license (Commercial License) --><path d="M224 320H576C593.6 320 608 305.602 608 288V64C608 46.398 593.6 32 576 32H448V160L400 128L352 160V32H224C206.4 32 192 46.398 192 64V288C192 305.602 206.4 320 224 320ZM624 384H128V64C128 28.801 99.201 0 64 0H16C7.201 0 0 7.199 0 16V48C0 56.801 7.201 64 16 64H48C56.838 64 64 71.164 64 80V432C64 440.801 71.201 448 80 448H162.938C161.15 453.027 160 458.359 160 464C160 490.508 181.49 512 208 512S256 490.508 256 464C256 458.359 254.85 453.027 253.062 448H450.938C449.15 453.027 448 458.359 448 464C448 490.508 469.49 512 496 512S544 490.508 544 464C544 458.359 542.85 453.027 541.062 448H624C632.801 448 640 440.801 640 432V400C640 391.199 632.801 384 624 384Z"/></svg>