<svg xmlns="http://www.w3.org/2000/svg" viewBox="0 0 640 512"><!-- Font Awesome Pro 6.0.0-alpha2 by @fontawesome - https://fontawesome.com License - https://fontawesome.com/license (Commercial License) --><path d="M544 32.75V32L543.625 32.375C516.875 12.375 484 0 448 0S379.125 12.375 352.375 32.375L352 32V32.75C313.375 61.875 288 107.875 288 160C288 171.5 289.375 183 291.875 194.375C256 199.625 200.125 217.625 160 278V192C160 139 117 96 64 96C46.375 96 32 110.375 32 128S46.375 160 64 160S96 174.375 96 192V448C96 483.375 124.625 512 160 512H336C340.25 512 344.375 510.375 347.375 507.375S352 500.25 352 496V480C352 462.375 337.625 448 320 448H288L416 352V496C416 500.25 417.625 504.375 420.625 507.375S427.75 512 432 512H464C468.25 512 472.375 510.375 475.375 507.375S480 500.25 480 496V316.75C554.5 301.5 608 236 608 160C608 107.875 582.625 61.875 544 32.75ZM448 32C474.125 32 499.625 40.125 521 55L480 96H416L375 55.125C396.375 40.125 421.875 32 448 32ZM504 160C504 168.875 496.875 176 488 176S472 168.875 472 160S479.125 144 488 144C492.25 144 496.375 145.625 499.375 148.625S504 155.75 504 160ZM424 160C424 168.875 416.875 176 408 176S392 168.875 392 160S399.125 144 408 144C412.25 144 416.375 145.625 419.375 148.625S424 155.75 424 160ZM448 288C377.375 287.875 320.125 230.625 320 160C320 127.875 332.375 98.75 352 76.25V160C352 213 395 256 448 256S544 213 544 160V76.25C563.625 98.75 576 127.875 576 160C575.875 230.625 518.625 287.875 448 288ZM163 68.75L202.625 85.375L219.25 125C220.125 126.875 221.999 128 224 128C225.999 128 227.875 126.875 228.75 125L245.375 85.375L285 68.75C286.875 67.875 288 66 288 64S286.875 60.125 285 59.25L245.375 42.625L228.75 3C227.875 1.125 225.999 0 224 0C221.999 0 220.125 1.125 219.25 3L202.625 42.625L163 59.25C161.125 60.125 160 62 160 64S161.125 67.875 163 68.75Z"/></svg>