<svg xmlns="http://www.w3.org/2000/svg" viewBox="0 0 448 512"><!-- Font Awesome Pro 6.0.0-alpha2 by @fontawesome - https://fontawesome.com License - https://fontawesome.com/license (Commercial License) --><path d="M448 212V172C448 165.375 441.75 160 433.999 160H13.999C6.25 160 0 165.375 0 172V212C0 218.625 6.25 224 13.999 224H33.75C12.375 262.5 0 305.25 0 345.625C0 384.625 11.875 416.25 32 441.125V488C32 501.25 42.75 512 56 512S80 501.25 80 488V480.5C119 501.75 169.125 512 224 512S329 501.75 368 480.5V488C368 501.25 378.75 512 392 512S416 501.25 416 488V441.125C436.125 416.25 448 384.625 448 345.625C448 305.25 435.625 262.5 414.25 224H433.999C441.75 224 448 218.625 448 212ZM160 64C177.625 64 192 49.625 192 32S177.625 0 160 0S128 14.375 128 32S142.375 64 160 64ZM272 128C298.5 128 320 106.5 320 80S298.5 32 272 32S224 53.5 224 80S245.5 128 272 128Z"/></svg>