<svg xmlns="http://www.w3.org/2000/svg" viewBox="0 0 384 512"><!-- Font Awesome Pro 6.0.0-alpha2 by @fontawesome - https://fontawesome.com License - https://fontawesome.com/license (Commercial License) --><path d="M294.703 342.906C282.926 352.512 269.738 359.172 256 363.289V148.705C269.734 152.828 282.92 159.492 294.703 169.094C311.781 183.125 337.016 180.531 350.984 163.438C364.953 146.313 362.406 121.125 345.297 107.156C318.633 85.375 287.766 72.391 256 66.988V32C256 14.312 241.672 0 224 0S192 14.312 192 32V67.172C153.977 73.643 117.506 90.959 88.234 120.25C51.969 156.5 32 204.719 32 256S51.969 355.5 88.234 391.75C117.523 421.051 153.963 438.68 192 445.146V480C192 497.688 206.328 512 224 512S256 497.688 256 480V445.557C287.787 440.162 318.607 426.645 345.297 404.844C362.406 390.875 364.953 365.688 350.984 348.562C336.984 331.5 311.766 328.875 294.703 342.906ZM144.797 335.188C123.641 314.031 112 285.906 112 256S123.641 197.969 144.797 176.812C158.412 163.182 174.748 154.135 192 148.947V363.023C174.748 357.836 158.41 348.795 144.797 335.188Z"/></svg>