<svg xmlns="http://www.w3.org/2000/svg" viewBox="0 0 640 512"><!-- Font Awesome Pro 6.0.0-alpha2 by @fontawesome - https://fontawesome.com License - https://fontawesome.com/license (Commercial License) --><path d="M592.002 0H208.002C181.502 0 160.002 22.25 160.002 49.625V96C183.42 96 205.098 102.781 224.002 113.807V64H576.002V352H512.002V304C512.002 295.162 504.838 288 496.002 288H400.002C391.166 288 384.002 295.162 384.002 304V352H287.314C309.389 368.484 326.85 390.496 338.074 416H592.002C618.5 416 640 393.75 640 366.375V49.625C640 22.25 618.5 0 592.002 0ZM160 320C213.02 320 256 277.018 256 224C256 170.98 213.02 128 160 128C106.982 128 64 170.98 64 224C64 277.018 106.982 320 160 320ZM192 352H128C57.307 352 0 409.307 0 480C0 497.672 14.326 512 32 512H288C305.674 512 320 497.672 320 480C320 409.307 262.693 352 192 352Z"/></svg>