<svg xmlns="http://www.w3.org/2000/svg" viewBox="0 0 256 512"><!-- Font Awesome Pro 6.0.0-alpha2 by @fontawesome - https://fontawesome.com License - https://fontawesome.com/license (Commercial License) --><path d="M199.986 464H159.994V347.75C220.733 332.5 263.225 275.75 254.976 212.25L227.981 27.375C225.732 11.75 212.234 0 196.237 0H59.763C43.766 0 30.268 11.75 28.019 27.375L1.024 212.25C-7.225 275.75 35.267 332.5 96.006 347.75V464H56.014C33.893 464 16.021 481.875 16.021 504C16.021 508.375 19.645 512 24.02 512H231.981C236.355 512 239.979 508.375 239.979 504C239.979 481.875 222.107 464 199.986 464ZM61.762 128L73.51 48H182.49L194.238 128H61.762Z"/></svg>