<svg xmlns="http://www.w3.org/2000/svg" viewBox="0 0 640 512"><!-- Font Awesome Pro 6.0.0-alpha2 by @fontawesome - https://fontawesome.com License - https://fontawesome.com/license (Commercial License) --><path d="M639.363 433.606C630.989 413.234 607.615 403.485 587.242 411.984L565.118 421.233L526.371 319.247C574.242 284.252 591.241 219.011 560.868 166.518L474.249 16.039C466.249 2.166 449.25 -3.709 434.251 2.416L320.009 49.784L205.766 2.416C190.767 -3.709 173.768 2.166 165.769 16.039L79.149 166.518C48.901 219.011 65.775 284.252 113.647 319.247L74.9 421.108L52.776 411.859C32.402 403.361 9.154 413.109 0.654 433.481C-1.096 437.606 0.779 442.23 4.904 443.98L167.269 511.346C171.268 513.095 175.893 511.221 177.643 507.096C186.017 486.724 176.393 463.227 156.019 454.728L133.896 445.605L173.268 341.994C177.768 342.494 182.143 343.244 186.392 343.244C238.139 343.244 285.761 310.248 299.76 258.005L320.009 182.641L340.257 258.005C354.257 310.248 401.879 343.244 453.625 343.244C457.875 343.244 462.25 342.494 466.749 341.994L505.997 445.605L483.873 454.728C463.5 463.227 453.75 486.724 462.25 507.096C464 511.221 468.749 513.095 472.749 511.346L635.114 443.98C639.113 442.23 641.113 437.731 639.363 433.606ZM275.887 162.144L163.769 115.65L200.267 52.284L294.76 91.403L275.887 162.144ZM364.131 162.144L345.257 91.403L439.751 52.284L476.249 115.65L364.131 162.144Z"/></svg>