<svg xmlns="http://www.w3.org/2000/svg" viewBox="0 0 512 512"><!-- Font Awesome Pro 6.0.0-alpha2 by @fontawesome - https://fontawesome.com License - https://fontawesome.com/license (Commercial License) --><path d="M480 416H64V64C64 46.327 49.673 32 32 32H32C14.327 32 0 46.327 0 64V448C0 465.6 14.4 480 32 480H480C497.673 480 512 465.673 512 448V448C512 430.327 497.673 416 480 416ZM111.998 143.998C99.503 156.493 99.503 176.753 111.998 189.248L185.375 262.625C197.87 275.12 218.13 275.12 230.625 262.625L304 189.25L366.062 251.312L324.687 292.688C314.609 302.766 321.747 320 336.001 320H464C472.837 320 480 312.837 480 304V176C480 162.68 463.391 153.984 452.688 164.688L411.312 206.063L326.625 121.375C320.375 115.125 312.188 112 304 112S287.625 115.125 281.375 121.375L208 194.75L157.248 143.998C144.753 131.503 124.494 131.503 111.998 143.998L111.998 143.998Z"/></svg>