<svg xmlns="http://www.w3.org/2000/svg" viewBox="0 0 512 512"><!-- Font Awesome Pro 6.0.0-alpha2 by @fontawesome - https://fontawesome.com License - https://fontawesome.com/license (Commercial License) --><path d="M332.75 192H371.25C377.625 192 384 185.625 384 179.25V76.75C384 70.375 377.625 64 371.25 64H332.75C326.375 64 320 70.375 320 76.75V179.25C320 185.625 326.375 192 332.75 192ZM236.75 256H275.25C281.625 256 288 249.625 288 243.25V140.75C288 134.375 281.625 128 275.25 128H236.75C230.375 128 224 134.375 224 140.75V243.25C224 249.625 230.375 256 236.75 256ZM428.75 352H467.25C473.625 352 480 345.625 480 339.25V76.75C480 70.375 473.625 64 467.25 64H428.75C422.375 64 416 70.375 416 76.75V339.25C416 345.625 422.375 352 428.75 352ZM480 416H64V64C64 46.327 49.673 32 32 32H32C14.327 32 0 46.327 0 64V448C0 465.6 14.4 480 32 480H480C497.673 480 512 465.673 512 448V448C512 430.327 497.673 416 480 416ZM140.75 352H179.25C185.625 352 192 345.625 192 339.25V236.75C192 230.375 185.625 224 179.25 224H140.75C134.375 224 128 230.375 128 236.75V339.25C128 345.625 134.375 352 140.75 352Z"/></svg>