<svg xmlns="http://www.w3.org/2000/svg" viewBox="0 0 512 512"><!-- Font Awesome Pro 6.0.0-alpha2 by @fontawesome - https://fontawesome.com License - https://fontawesome.com/license (Commercial License) --><path d="M163.717 252.399C171.529 260.212 181.764 264.118 191.998 264.118S212.467 260.212 220.279 252.399L380.279 92.399C395.904 76.774 395.904 51.462 380.279 35.837S339.342 20.212 323.717 35.837L191.998 167.556L140.279 115.837C124.654 100.212 99.342 100.212 83.717 115.837S68.092 156.774 83.717 172.399L163.717 252.399ZM476.279 163.837C460.654 148.212 435.342 148.212 419.717 163.837L191.998 391.556L92.279 291.837C76.654 276.212 51.342 276.212 35.717 291.837S20.092 332.774 35.717 348.399L163.717 476.399C171.529 484.212 181.764 488.118 191.998 488.118S212.467 484.212 220.279 476.399L476.279 220.399C491.904 204.774 491.904 179.462 476.279 163.837Z"/></svg>