<svg xmlns="http://www.w3.org/2000/svg" viewBox="0 0 576 512"><!-- Font Awesome Pro 6.0.0-alpha2 by @fontawesome - https://fontawesome.com License - https://fontawesome.com/license (Commercial License) --><path d="M480 80C480 53.492 458.51 32 432 32H144C117.49 32 96 53.492 96 80V384H480V80ZM378.875 166.812L290.875 278.812C286.844 283.969 280.875 287.25 274.344 287.875C273.562 287.969 272.781 288 272 288C266.281 288 260.75 285.969 256.375 282.219L200.375 234.219C190.312 225.594 189.156 210.438 197.781 200.375C206.438 190.313 221.594 189.188 231.625 197.781L268.594 229.469L341.125 137.188C349.313 126.781 364.438 124.969 374.813 133.125C385.25 141.312 387.062 156.406 378.875 166.812ZM528 288H512V400C512 408.836 504.836 416 496 416H80C71.164 416 64 408.836 64 400V288H48C21.492 288 0 309.492 0 336V432C0 458.508 21.492 480 48 480H528C554.508 480 576 458.508 576 432V336C576 309.492 554.508 288 528 288Z"/></svg>