<svg xmlns="http://www.w3.org/2000/svg" viewBox="0 0 640 512"><!-- Font Awesome Pro 6.0.0-alpha2 by @fontawesome - https://fontawesome.com License - https://fontawesome.com/license (Commercial License) --><path d="M519.5 243C517.25 240.75 514.25 239.5 511 239.5C507.875 239.5 504.75 240.75 502.5 243L451.625 293.875C449.375 296.125 448.125 299.25 448.125 302.375C448.125 305.625 449.375 308.625 451.625 310.875L457.25 316.5C459.5 318.75 462.625 320.125 465.75 320.125C469 320.125 472 318.75 474.25 316.5L525.125 265.625C527.375 263.375 528.625 260.25 528.625 257.125C528.625 253.875 527.375 250.875 525.125 248.625L519.5 243ZM600 128H544V112C544 103.125 536.875 96 528 96H400C391.25 96 384 103.125 384 112V128H200.25V80H240.125C249 80 256.125 72.75 256.125 64V48C256.125 39.125 249 32 240.125 32H112.125C103.25 32 96.125 39.125 96.125 48V64C96.125 72.75 103.25 80 112.125 80H152.25V128H40C17.875 128 0 145.875 0 168V440C0 462.125 17.875 480 40 480H600C622.125 480 640 462.125 640 440V168C640 145.875 622.125 128 600 128ZM176.375 416C114.5 416 64.375 365.875 64.375 304S114.5 192 176.375 192C238.25 192.125 288.375 242.25 288.375 304.125C288.375 366 238.125 416.125 176.375 416ZM464.375 416C402.5 416 352.375 365.875 352.375 304S402.5 192 464.375 192C526.25 192.125 576.375 242.25 576.375 304.125C576.375 366 526.125 416.125 464.375 416ZM180.375 224.125H172.375C165.75 224.125 160.375 229.5 160.375 236.125V308.125C160.375 314.75 165.75 320.125 172.375 320.125H180.375C187 320.125 192.375 314.75 192.375 308.125V236.125C192.375 229.5 187 224.125 180.375 224.125Z"/></svg>