<svg xmlns="http://www.w3.org/2000/svg" viewBox="0 0 448 512"><!-- Font Awesome Pro 6.0.0-alpha2 by @fontawesome - https://fontawesome.com License - https://fontawesome.com/license (Commercial License) --><path d="M367.937 448H79.937C53.428 448 31.937 469.49 31.937 496V496C31.937 504.837 39.101 512 47.937 512H399.937C408.774 512 415.937 504.837 415.937 496V496C415.937 469.49 394.447 448 367.937 448ZM415.937 160H255.937V112H295.937C300.312 112 303.937 108.375 303.937 104V56C303.937 51.625 300.312 48 295.937 48H255.937V8C255.937 3.625 252.312 0 247.937 0H199.937C195.562 0 191.937 3.625 191.937 8V48H151.937C147.562 48 143.937 51.625 143.937 56V104C143.937 108.375 147.562 112 151.937 112H191.937V160H31.937C21.812 160 12.187 164.875 6.187 173C0.187 181.25 -1.563 191.875 1.437 201.5L74.437 416H373.437L446.437 201.5C449.437 191.875 447.687 181.25 441.687 173C435.687 164.875 426.062 160 415.937 160Z"/></svg>