<svg xmlns="http://www.w3.org/2000/svg" viewBox="0 0 448 512"><!-- Font Awesome Pro 6.0.0-alpha2 by @fontawesome - https://fontawesome.com License - https://fontawesome.com/license (Commercial License) --><path d="M67.654 276.895L224 127.34L380.346 276.895C396.315 292.145 421.643 291.645 436.908 275.645C452.174 259.676 451.611 234.367 435.658 219.086L251.656 43.094C243.922 35.688 233.953 32 224 32S204.078 35.688 196.344 43.094L12.342 219.086C-3.611 234.367 -4.174 259.676 11.092 275.645S51.686 292.145 67.654 276.895ZM251.656 235.086C243.922 227.68 233.953 223.992 224 223.992S204.078 227.68 196.344 235.086L12.342 411.078C-3.611 426.359 -4.174 451.668 11.092 467.637C26.358 483.602 51.686 484.164 67.654 468.887L224 319.328L380.346 468.887C396.315 484.133 421.643 483.664 436.908 467.637C452.174 451.668 451.611 426.359 435.658 411.078L251.656 235.086Z"/></svg>