<svg xmlns="http://www.w3.org/2000/svg" viewBox="0 0 448 512"><!-- Font Awesome Pro 6.0.0-alpha2 by @fontawesome - https://fontawesome.com License - https://fontawesome.com/license (Commercial License) --><path d="M95.34 256L244.895 99.656C260.145 83.688 259.645 58.359 243.645 43.094C227.678 27.828 202.365 28.391 187.086 44.344L11.094 228.344C3.688 236.078 0 246.047 0 256S3.688 275.922 11.094 283.656L187.086 467.656C202.365 483.609 227.678 484.172 243.645 468.906C259.613 453.641 260.145 428.312 244.895 412.344L95.34 256ZM287.33 256L436.887 99.656C452.135 83.688 451.666 58.359 435.637 43.094C419.668 27.828 394.357 28.391 379.076 44.344L203.084 228.344C195.678 236.078 191.99 246.047 191.99 256S195.678 275.922 203.084 283.656L379.076 467.656C394.357 483.609 419.668 484.172 435.637 468.906C451.604 453.641 452.166 428.312 436.887 412.344L287.33 256Z"/></svg>