<svg xmlns="http://www.w3.org/2000/svg" viewBox="0 0 512 512"><!-- Font Awesome Pro 6.0.0-alpha2 by @fontawesome - https://fontawesome.com License - https://fontawesome.com/license (Commercial License) --><path d="M256 16C123.451 16 16 123.451 16 256S123.451 496 256 496S496 388.549 496 256S388.549 16 256 16ZM272.953 384H223.359C195.125 384 170.156 366 161.234 339.219C157.047 326.625 163.844 313.031 176.422 308.844C188.953 304.781 202.578 311.469 206.766 324.031C209.156 331.188 215.812 336 223.359 336H272.953C290.078 336 304 322.062 304 304.938C304 289.188 292.219 275.938 276.594 274.125L189.203 263.844C182.578 263.062 176.594 259.562 172.641 254.188C168.703 248.812 167.172 242.062 168.422 235.531L185.156 147.531C187.312 136.188 197.203 128 208.734 128H312C325.25 128 336 138.75 336 152S325.25 176 312 176H228.594L220.391 219.188L282.187 226.438C321.984 231.125 352 264.844 352 304.938C352 348.531 316.547 384 272.953 384Z"/></svg>