<svg xmlns="http://www.w3.org/2000/svg" viewBox="0 0 512 512"><!-- Font Awesome Pro 6.0.0-alpha2 by @fontawesome - https://fontawesome.com License - https://fontawesome.com/license (Commercial License) --><path d="M256 16C123.451 16 16 123.451 16 256S123.451 496 256 496S496 388.549 496 256S388.549 16 256 16ZM356 377.719C351.406 381.922 345.594 384 339.812 384C333.312 384 326.844 381.375 322.094 376.188L303.469 355.812C288.688 373.594 266.719 384 243.312 384H210.844C174 384 144 354.016 144 317.156C144 296.859 153.062 277.906 168.844 265.172L198.594 241.125L188.25 229.797C177.188 217.687 171.125 202.016 171.125 185.656C171.125 153.859 197 128 228.781 128H251.906C283.688 128 309.562 153.859 309.562 185.656C309.562 203.156 301.75 219.516 288.156 230.516L268.469 246.406L298.207 278.932L319.969 247C327.469 236.078 342.375 233.203 353.344 240.688C364.281 248.141 367.125 263.078 359.656 274.031L331.502 315.344L357.531 343.812C366.469 353.594 365.781 368.766 356 377.719ZM236.031 210.906L257.969 193.172C260.25 191.344 261.563 188.594 261.563 185.656C261.562 180.328 257.219 176 251.906 176H228.781C223.469 176 219.125 180.328 219.125 185.656C219.125 190.016 220.75 194.203 223.688 197.438L236.031 210.906ZM199 302.516C194.531 306.094 192 311.438 192 317.156C192 327.547 200.469 336 210.844 336H243.312C253.344 336 262.688 331.062 268.312 322.797L270.43 319.691L231.062 276.609L199 302.516Z"/></svg>