<svg xmlns="http://www.w3.org/2000/svg" viewBox="0 0 512 512"><!-- Font Awesome Pro 6.0.0-alpha2 by @fontawesome - https://fontawesome.com License - https://fontawesome.com/license (Commercial License) --><path d="M256 16C123.451 16 16 123.451 16 256S123.451 496 256 496S496 388.549 496 256S388.549 16 256 16ZM232 152C232 138.75 242.75 128 256 128S280 138.75 280 152V280C280 293.25 269.25 304 256 304S232 293.25 232 280V152ZM256 400C238.637 400 224.562 385.924 224.562 368.561C224.562 351.199 238.637 337.123 256 337.123S287.438 351.199 287.438 368.561C287.438 385.924 273.363 400 256 400Z"/></svg>