<svg xmlns="http://www.w3.org/2000/svg" viewBox="0 0 512 512"><!-- Font Awesome Pro 6.0.0-alpha2 by @fontawesome - https://fontawesome.com License - https://fontawesome.com/license (Commercial License) --><path d="M464 352H447.5C427.875 378 402.875 399.75 374.5 416H432C440.836 416 448 423.162 448 432C448 440.836 440.836 448 432 448H80C71.164 448 64 440.836 64 432C64 423.162 71.164 416 80 416H137.375C109 399.75 84.125 378 64.375 352H48C21.492 352 0 373.49 0 400V464C0 490.51 21.492 512 48 512H464C490.508 512 512 490.51 512 464V400C512 373.49 490.508 352 464 352ZM256 416C370.875 416 464 322.875 464 208S370.875 0 256 0S48 93.125 48 208S141.125 416 256 416ZM249.375 231.047L242.875 229.172C224.656 223.812 176.375 209.609 184.969 160.125C189.074 136.25 206.762 120.219 232.031 114.506V104C232.031 90.75 242.781 80 256.031 80S280.031 90.75 280.031 104V115.25C285.932 116.613 292.242 118.342 299.844 120.969C312.375 125.312 319 138.969 314.687 151.5C310.375 164 296.719 170.641 284.156 166.344C275.875 163.469 269.438 161.703 264.5 160.922C247.625 158.281 233.438 161.531 232.281 168.312C231.562 172.422 231 175.641 256.406 183.109L262.594 184.906C288.125 192.203 335.719 205.812 327.031 255.859C322.916 279.723 305.297 295.852 280.031 301.574V312C280.031 325.25 269.281 336 256.031 336S232.031 325.25 232.031 312V300.596C222.523 298.379 213.111 295.342 204.625 292.281L199.969 290.625C187.5 286.188 180.938 272.469 185.375 259.984S203.5 240.969 216.031 245.375L220.906 247.125C229.688 250.297 239.656 253.891 247.344 255.047C264.469 257.781 278.562 254.453 279.719 247.687C280.531 242.938 281.031 240.109 249.375 231.047Z"/></svg>