<svg xmlns="http://www.w3.org/2000/svg" viewBox="0 0 512 512"><!-- Font Awesome Pro 6.0.0-alpha2 by @fontawesome - https://fontawesome.com License - https://fontawesome.com/license (Commercial License) --><path d="M256 16C123.451 16 16 123.451 16 256S123.451 496 256 496S496 388.549 496 256S388.549 16 256 16ZM398.938 175.062L334.938 383.062C331.844 393.141 322.516 400 312 400H311.578C300.875 399.812 291.609 392.562 288.828 382.234L256 260.312L223.172 382.234C220.391 392.562 211.125 399.812 200.422 400C189.688 399.984 180.203 393.266 177.062 383.062L113.062 175.062C109.156 162.391 116.266 148.953 128.938 145.062C141.594 141.203 155.031 148.266 158.938 160.938L198.469 289.391L232.828 161.766C235.641 151.281 245.141 144 256 144S276.359 151.281 279.172 161.766L313.531 289.391L353.063 160.937C356.953 148.266 370.406 141.234 383.063 145.062C395.734 148.953 402.844 162.391 398.938 175.062Z"/></svg>