<svg xmlns="http://www.w3.org/2000/svg" viewBox="0 0 512 512"><!-- Font Awesome Pro 6.0.0-alpha2 by @fontawesome - https://fontawesome.com License - https://fontawesome.com/license (Commercial License) --><path d="M256 16C123.451 16 16 123.451 16 256S123.451 496 256 496S496 388.549 496 256S388.549 16 256 16ZM268 384H223.359C195.125 384 170.156 366 161.234 339.219C157.047 326.625 163.844 313.031 176.422 308.844C189 304.781 202.594 311.469 206.766 324.031C209.156 331.188 215.812 336 223.359 336H268C287.844 336 304 319.844 304 300S287.844 264 268 264H216C206.109 264 197.219 257.938 193.625 248.688C190.047 239.469 192.484 229 199.781 222.312L250.297 176H184C170.75 176 160 165.25 160 152S170.75 128 184 128H312C321.891 128 330.781 134.062 334.375 143.312C337.953 152.531 335.516 163 328.219 169.688L277.156 216.5C319.188 221.062 352 256.781 352 300C352 346.312 314.312 384 268 384Z"/></svg>