<svg xmlns="http://www.w3.org/2000/svg" viewBox="0 0 512 512"><!-- Font Awesome Pro 6.0.0-alpha2 by @fontawesome - https://fontawesome.com License - https://fontawesome.com/license (Commercial License) --><path d="M256 240C234.938 240 216 254.094 209.969 274.281C208.656 278.688 208 283.281 208 288C208 314.469 229.531 336 256 336S304 314.469 304 288S282.469 240 256 240ZM256 16C123.451 16 16 123.451 16 256S123.451 496 256 496S496 388.549 496 256S388.549 16 256 16ZM256 384C203.062 384 160 340.938 160 288C160 246.699 187.549 214.711 200.281 203.594L280.219 133.906C284.781 129.938 290.406 128 296 128C302.688 128 309.344 130.781 314.094 136.219C322.812 146.219 321.75 161.375 311.781 170.094L282.021 196.037C322.268 207.467 352 244.141 352 288C352 340.938 308.938 384 256 384Z"/></svg>