<svg xmlns="http://www.w3.org/2000/svg" viewBox="0 0 512 512"><!-- Font Awesome Pro 6.0.0-alpha2 by @fontawesome - https://fontawesome.com License - https://fontawesome.com/license (Commercial License) --><path d="M256 16C123.451 16 16 123.451 16 256S123.451 496 256 496S496 388.549 496 256S388.549 16 256 16ZM355.406 345.891C363.219 356.609 360.844 371.609 350.125 379.406C345.844 382.516 340.906 384 336.031 384C328.594 384 321.281 380.578 316.594 374.109L253.969 288H208V360C208 373.25 197.25 384 184 384S160 373.25 160 360V152C160 138.75 170.75 128 184 128H288C332.125 128 368 163.891 368 208C368 244.195 343.688 274.5 310.641 284.338L355.406 345.891ZM288 176H208V240H288C305.656 240 320 225.641 320 208S305.656 176 288 176Z"/></svg>