<svg xmlns="http://www.w3.org/2000/svg" viewBox="0 0 512 512"><!-- Font Awesome Pro 6.0.0-alpha2 by @fontawesome - https://fontawesome.com License - https://fontawesome.com/license (Commercial License) --><path d="M256 16C123.451 16 16 123.451 16 256S123.451 496 256 496S496 388.549 496 256S388.549 16 256 16ZM341.406 361.5C340.625 373.922 329.891 384 317.453 384H194.547C182.109 384 171.375 373.922 170.594 361.5L160 192H352L341.406 361.5ZM352 160H160C151.164 160 144 152.836 144 144C144 135.162 151.164 128 160 128H208L213.789 116.422C215.145 113.711 217.914 112 220.943 112H291.057C294.086 112 296.857 113.711 298.211 116.422L304 128H352C360.838 128 368 135.162 368 144C368 152.836 360.838 160 352 160Z"/></svg>