<svg xmlns="http://www.w3.org/2000/svg" viewBox="0 0 512 512"><!-- Font Awesome Pro 6.0.0-alpha2 by @fontawesome - https://fontawesome.com License - https://fontawesome.com/license (Commercial License) --><path d="M256 16C123.451 16 16 123.451 16 256S123.451 496 256 496S496 388.549 496 256S388.549 16 256 16ZM383.604 321.502L371.979 371.893C370.346 379.018 364.078 384.002 356.742 384.002C230.617 384.002 127.998 281.393 127.998 155.25C127.998 147.922 132.982 141.656 140.107 140.031L190.484 128.406C197.828 126.703 205.367 130.516 208.414 137.469L231.68 191.75C234.398 198.141 232.563 205.578 227.188 209.969L200.273 232.018C217.266 266.627 245.414 294.768 280.039 311.768L302.062 284.861C306.406 279.471 313.914 277.611 320.305 280.377L374.549 303.627C381.502 306.627 385.291 314.205 383.604 321.502Z"/></svg>