<svg xmlns="http://www.w3.org/2000/svg" viewBox="0 0 512 512"><!-- Font Awesome Pro 6.0.0-alpha2 by @fontawesome - https://fontawesome.com License - https://fontawesome.com/license (Commercial License) --><path d="M256 16C123.451 16 16 123.453 16 256S123.451 496 256 496S496 388.547 496 256S388.549 16 256 16ZM377.594 248.344L273.594 360.344C269.047 365.219 262.672 368 256 368S242.953 365.219 238.406 360.344L134.406 248.344C127.922 241.344 126.188 231.156 130 222.406C133.812 213.656 142.453 208 152 208H360C369.547 208 378.188 213.656 382 222.406C385.812 231.156 384.078 241.344 377.594 248.344Z"/></svg>