<svg xmlns="http://www.w3.org/2000/svg" viewBox="0 0 512 512"><!-- Font Awesome Pro 6.0.0-alpha2 by @fontawesome - https://fontawesome.com License - https://fontawesome.com/license (Commercial License) --><path d="M256 16C123.422 16 16 123.422 16 256S123.422 496 256 496S496 388.578 496 256S388.578 16 256 16ZM406.602 278.648L302.625 382.625C290.125 395.125 269.875 395.125 257.375 382.625S244.875 349.875 257.375 337.375L306.75 288H128C110.312 288 96 273.672 96 256S110.312 224 128 224H306.75L257.375 174.625C244.875 162.125 244.875 141.875 257.375 129.375S290.125 116.875 302.625 129.375L406.602 233.352C414.6 241.336 416 251.102 416 256C416 260.883 414.609 270.656 406.602 278.648Z"/></svg>