<svg xmlns="http://www.w3.org/2000/svg" viewBox="0 0 512 512"><!-- Font Awesome Pro 6.0.0-alpha2 by @fontawesome - https://fontawesome.com License - https://fontawesome.com/license (Commercial License) --><path d="M256 16C123.451 16 16 123.453 16 256S123.451 496 256 496S496 388.547 496 256S388.549 16 256 16ZM360.328 273.594L248.328 377.594C243.797 381.781 237.938 384 232 384C228.75 384 225.5 383.344 222.406 382C213.656 378.188 208 369.531 208 360V152C208 142.469 213.656 133.812 222.406 130C231.188 126.25 241.328 127.938 248.328 134.406L360.328 238.406C365.219 242.969 368 249.312 368 256S365.219 269.031 360.328 273.594Z"/></svg>