<svg xmlns="http://www.w3.org/2000/svg" viewBox="0 0 512 512"><!-- Font Awesome Pro 6.0.0-alpha2 by @fontawesome - https://fontawesome.com License - https://fontawesome.com/license (Commercial License) --><path d="M256 16C123.451 16 16 123.451 16 256S123.451 496 256 496S496 388.549 496 256S388.549 16 256 16ZM328 384H184C175.062 384 166.875 379.047 162.75 371.141C158.594 363.234 159.188 353.672 164.281 346.344L282.188 176H184C170.75 176 160 165.25 160 152S170.75 128 184 128H328C336.938 128 345.125 132.953 349.25 140.859C353.406 148.766 352.812 158.328 347.719 165.656L229.812 336H328C341.25 336 352 346.75 352 360S341.25 384 328 384Z"/></svg>