<svg xmlns="http://www.w3.org/2000/svg" viewBox="0 0 512 512"><!-- Font Awesome Pro 6.0.0-alpha2 by @fontawesome - https://fontawesome.com License - https://fontawesome.com/license (Commercial License) --><path d="M16 256C16 388.58 123.42 496 256 496S496 388.58 496 256C496 123.418 388.58 16 256 16S16 123.418 16 256ZM159.369 173.335C165.347 170.849 172.23 172.23 176.804 176.804L222.059 222.059L289.941 154.177C302.438 141.68 322.699 141.68 335.196 154.177L357.823 176.804C370.32 189.301 370.32 209.562 357.823 222.059L289.941 289.941L335.196 335.196C339.77 339.77 341.151 346.653 338.665 352.631C336.19 358.619 330.357 362.508 323.882 362.508H165.49C156.655 362.508 149.492 355.345 149.492 346.51V188.118C149.492 181.643 153.381 175.81 159.369 173.335Z"/></svg>