<svg xmlns="http://www.w3.org/2000/svg" viewBox="0 0 512 512"><!-- Font Awesome Pro 6.0.0-alpha2 by @fontawesome - https://fontawesome.com License - https://fontawesome.com/license (Commercial License) --><path d="M496 256C496 390.859 384.773 499.734 249.053 495.898C126.41 492.438 23.129 392.086 16.375 269.582C9.703 148.543 92.83 45.91 205.143 21.664C214.887 19.562 224 27.535 224 37.5V70.414C224 77.828 218.803 83.938 211.631 85.809C136.012 105.527 80 174.289 80 256C80 353.941 160.416 433.453 258.689 431.977C349.396 430.617 426.855 356.266 431.738 265.684C436.369 179.758 378.947 106.289 300.35 85.805C293.187 83.938 288 77.836 288 70.438V37.523C288 27.551 297.133 19.562 306.883 21.672C414.957 45.016 496 140.938 496 256Z"/></svg>