<svg xmlns="http://www.w3.org/2000/svg" viewBox="0 0 512 512"><!-- Font Awesome Pro 6.0.0-alpha2 by @fontawesome - https://fontawesome.com License - https://fontawesome.com/license (Commercial License) --><path d="M256 16C123.451 16 16 123.451 16 256S123.451 496 256 496S496 388.549 496 256S388.549 16 256 16ZM419.951 256.055L392.549 299.896C388.561 306.293 380.533 308.928 373.463 306.166L318.629 284.234C312.188 281.639 308.227 275.08 308.924 268.176L312.363 233.553C275.875 221.096 236.072 221.102 199.568 233.564L203.021 268.162C203.762 275.047 199.768 281.67 193.293 284.232L138.496 306.148C131.459 308.945 123.42 306.266 119.455 299.912L92.043 256.061C88.16 249.867 89.066 241.912 94.254 236.725C183.438 147.541 328.557 147.533 417.752 236.73C422.934 241.912 423.84 249.867 419.951 256.055Z"/></svg>