<svg xmlns="http://www.w3.org/2000/svg" viewBox="0 0 512 512"><!-- Font Awesome Pro 6.0.0-alpha2 by @fontawesome - https://fontawesome.com License - https://fontawesome.com/license (Commercial License) --><path d="M256 16C123.451 16 16 123.451 16 256S123.451 496 256 496S496 388.549 496 256S388.549 16 256 16ZM378.219 183.625L280 298.209V376C280 389.25 269.25 400 256 400S232 389.25 232 376V298.209L133.781 183.625C125.156 173.562 126.312 158.406 136.375 149.781C146.453 141.156 161.594 142.344 170.219 152.375L256 252.453L341.781 152.375C350.422 142.328 365.547 141.109 375.625 149.781C385.688 158.406 386.844 173.562 378.219 183.625Z"/></svg>