<svg xmlns="http://www.w3.org/2000/svg" viewBox="0 0 512 512"><!-- Font Awesome Pro 6.0.0-alpha2 by @fontawesome - https://fontawesome.com License - https://fontawesome.com/license (Commercial License) --><path d="M248 224H264C277.219 224 288 213.219 288 200S277.219 176 264 176H248C234.781 176 224 186.781 224 200S234.781 224 248 224ZM256 16C123.451 16 16 123.451 16 256S123.451 496 256 496S496 388.549 496 256S388.549 16 256 16ZM272 384H240C195.875 384 160 348.125 160 304C160 278.938 171.811 256.812 189.896 242.135C181.254 230.258 176 215.773 176 200C176 160.312 208.312 128 248 128H264C303.688 128 336 160.312 336 200C336 215.773 330.746 230.258 322.104 242.135C340.189 256.812 352 278.938 352 304C352 348.125 316.125 384 272 384ZM272 272H240C222.344 272 208 286.344 208 304S222.344 336 240 336H272C289.656 336 304 321.656 304 304S289.656 272 272 272Z"/></svg>