<svg xmlns="http://www.w3.org/2000/svg" viewBox="0 0 512 512"><!-- Font Awesome Pro 6.0.0-alpha2 by @fontawesome - https://fontawesome.com License - https://fontawesome.com/license (Commercial License) --><path d="M256 16C123.451 16 16 123.451 16 256S123.451 496 256 496S496 388.549 496 256S388.549 16 256 16ZM362.328 344.5C370.891 354.609 369.625 369.766 359.5 378.328C355 382.141 349.484 384 344.016 384C337.203 384 330.422 381.109 325.672 375.5L256 293.16L186.328 375.5C181.578 381.109 174.797 384 167.984 384C162.516 384 157 382.141 152.5 378.328C142.375 369.766 141.109 354.609 149.672 344.5L224.557 256L149.672 167.5C141.109 157.391 142.375 142.234 152.5 133.672C162.609 125.141 177.781 126.406 186.328 136.5L256 218.84L325.672 136.5C334.219 126.375 349.391 125.094 359.5 133.672C369.625 142.234 370.891 157.391 362.328 167.5L287.443 256L362.328 344.5Z"/></svg>