<svg xmlns="http://www.w3.org/2000/svg" viewBox="0 0 512 512"><!-- Font Awesome Pro 6.0.0-alpha2 by @fontawesome - https://fontawesome.com License - https://fontawesome.com/license (Commercial License) --><path d="M256 16C123.451 16 16 123.451 16 256S123.451 496 256 496S496 388.549 496 256S388.549 16 256 16ZM384 360C384 373.25 373.25 384 360 384S336 373.25 336 360V226.219L275.453 310.047C266.422 322.547 245.578 322.547 236.547 310.047L176 226.219V360C176 373.25 165.25 384 152 384S128 373.25 128 360V152C128 141.594 134.719 132.359 144.609 129.172C154.469 125.922 165.359 129.484 171.453 137.953L256 255.016L340.547 137.953C346.641 129.484 357.437 125.922 367.391 129.172C377.281 132.359 384 141.594 384 152V360Z"/></svg>