<svg xmlns="http://www.w3.org/2000/svg" viewBox="0 0 512 512"><!-- Font Awesome Pro 6.0.0-alpha2 by @fontawesome - https://fontawesome.com License - https://fontawesome.com/license (Commercial License) --><path d="M256 16C123.451 16 16 123.451 16 256S123.451 496 256 496S496 388.549 496 256S388.549 16 256 16ZM199.25 312.625C214.172 327.688 234 336 255.094 336C276.188 336 296.016 327.719 310.953 312.625C320.281 303.25 335.5 303.125 344.891 312.5C354.313 321.812 354.375 337 345.047 346.438C321.031 370.656 289.078 384 255.094 384C255.094 384 255.094 384 255.078 384C221.094 384 189.156 370.656 165.156 346.438C115.719 296.594 115.719 215.438 165.156 165.562C213.141 117.094 297 117.094 345.047 165.562C354.375 174.969 354.312 190.156 344.891 199.5C335.5 208.812 320.312 208.781 310.953 199.344C281.078 169.219 229.094 169.25 199.25 199.344C168.281 230.594 168.281 281.406 199.25 312.625Z"/></svg>