<svg xmlns="http://www.w3.org/2000/svg" viewBox="0 0 512 512"><!-- Font Awesome Pro 6.0.0-alpha2 by @fontawesome - https://fontawesome.com License - https://fontawesome.com/license (Commercial License) --><path d="M16 256C16 388.58 123.42 496 256 496S496 388.58 496 256C496 123.418 388.58 16 256 16S16 123.418 16 256ZM338.665 159.369C341.151 165.347 339.77 172.23 335.196 176.804L289.941 222.059L357.823 289.941C370.32 302.438 370.32 322.699 357.823 335.196L335.196 357.823C322.699 370.32 302.438 370.32 289.941 357.823L222.059 289.941L176.804 335.196C172.23 339.77 165.347 341.151 159.369 338.665C153.381 336.19 149.492 330.357 149.492 323.882V165.49C149.492 156.655 156.655 149.492 165.49 149.492H323.882C330.357 149.492 336.19 153.381 338.665 159.369Z"/></svg>