<svg xmlns="http://www.w3.org/2000/svg" viewBox="0 0 512 512"><!-- Font Awesome Pro 6.0.0-alpha2 by @fontawesome - https://fontawesome.com License - https://fontawesome.com/license (Commercial License) --><path d="M256 16C123.451 16 16 123.451 16 256S123.451 496 256 496S496 388.549 496 256S388.549 16 256 16ZM368 290.906C368 351.062 317.75 400 256 400S144 351.062 144 290.906V168C144 154.75 154.75 144 168 144S192 154.75 192 168V290.906C192 324.594 220.703 352 256 352S320 324.594 320 290.906V168C320 154.75 330.75 144 344 144S368 154.75 368 168V290.906Z"/></svg>