<svg xmlns="http://www.w3.org/2000/svg" viewBox="0 0 512 512"><!-- Font Awesome Pro 6.0.0-alpha2 by @fontawesome - https://fontawesome.com License - https://fontawesome.com/license (Commercial License) --><path d="M7.011 224.509C6.271 224.157 5.545 224 4.857 224C2.143 224 0.026 226.446 0.026 229.048C0.026 230.243 0.472 231.47 1.511 232.509L86.633 317.634C92.633 323.634 96.007 331.759 96.007 340.259V384.009H139.756C148.255 384.009 156.38 387.384 162.38 393.384L279.5 510.509C280.539 511.547 281.766 511.993 282.961 511.993C285.563 511.993 288.009 509.877 288.009 507.163C288.009 502.526 208.293 320.021 7.011 224.509ZM246.627 29.634C252.626 35.634 256.001 43.759 256.001 52.259V96.009H299.75C308.249 96.009 316.374 99.384 322.374 105.384L374.622 157.634C380.621 163.634 383.996 171.759 383.996 180.259V224.009H427.745C436.244 224.009 444.369 227.384 450.369 233.384L503.492 286.509C504.53 287.547 505.758 287.993 506.952 287.993C509.554 287.993 512 285.877 512 283.163C512 282.475 511.843 281.749 511.491 281.009C418.517 84.02 234.854 0 228.848 0C226.134 0 224.018 2.446 224.018 5.048C224.018 6.243 224.464 7.47 225.502 8.509L246.627 29.634ZM204.253 120.384C196.504 114.259 192.004 105.134 192.004 95.259V64.009H134.006C128.006 64.009 122.006 62.134 116.882 59.009C68.818 28.539 13.624 0.006 8.59 0.006C3.764 0.006 0 4.309 0 8.939C0 11.063 0.792 13.256 2.636 15.134L182.629 195.134C188.629 201.134 192.004 209.259 192.004 217.759V256.009H230.252C238.752 256.009 246.877 259.384 252.876 265.384L342.623 355.134C348.623 361.134 351.998 369.259 351.998 377.759V416.009H390.246C398.746 416.009 406.87 419.384 412.87 425.384L496.867 509.384C498.699 511.215 500.859 512 502.964 512C507.609 512 511.987 508.181 511.987 503.361C511.987 498.003 424.409 290.926 204.253 120.384Z "></path></svg>