<svg xmlns="http://www.w3.org/2000/svg" viewBox="0 0 384 512"><!-- Font Awesome Pro 6.0.0-alpha2 by @fontawesome - https://fontawesome.com License - https://fontawesome.com/license (Commercial License) --><path d="M336 64H282.121C268.896 26.799 233.738 0 192 0S115.104 26.799 101.879 64H48C21.5 64 0 85.484 0 112V464C0 490.516 21.5 512 48 512H336C362.5 512 384 490.516 384 464V112C384 85.484 362.5 64 336 64ZM192 64C209.674 64 224 78.326 224 96C224 113.672 209.674 128 192 128S160 113.672 160 96C160 78.326 174.326 64 192 64ZM192 192C227.346 192 256 220.654 256 256S227.346 320 192 320S128 291.346 128 256S156.654 192 192 192ZM288 448H96C87.164 448 80 440.836 80 432C80 387.816 115.816 352 160 352H224C268.184 352 304 387.816 304 432C304 440.836 296.836 448 288 448Z"/></svg>