<svg xmlns="http://www.w3.org/2000/svg" viewBox="0 0 384 512"><!-- Font Awesome Pro 6.0.0-alpha2 by @fontawesome - https://fontawesome.com License - https://fontawesome.com/license (Commercial License) --><path d="M336 64H282.121C268.896 26.799 233.738 0 192 0S115.104 26.799 101.879 64H48C21.5 64 0 85.484 0 112V464C0 490.516 21.5 512 48 512H336C362.5 512 384 490.516 384 464V112C384 85.484 362.5 64 336 64ZM192 64C209.674 64 224 78.326 224 96C224 113.672 209.674 128 192 128S160 113.672 160 96C160 78.326 174.326 64 192 64ZM96 392C82.75 392 72 381.25 72 368S82.75 344 96 344S120 354.75 120 368S109.25 392 96 392ZM112 288C107.906 288 103.812 286.438 100.688 283.312L68.688 251.312C62.438 245.062 62.438 234.937 68.688 228.688S85.063 222.438 91.312 228.688L112 249.375L164.688 196.688C170.938 190.438 181.063 190.438 187.312 196.688S193.562 213.063 187.312 219.312L123.312 283.312C120.188 286.438 116.094 288 112 288ZM304 384H176C167.199 384 160 376.799 160 368C160 359.199 167.199 352 176 352H304C312.801 352 320 359.199 320 368C320 376.799 312.801 384 304 384ZM304 288H208C199.199 288 192 280.799 192 272C192 263.199 199.199 256 208 256H304C312.801 256 320 263.199 320 272C320 280.799 312.801 288 304 288Z"/></svg>