<svg xmlns="http://www.w3.org/2000/svg" viewBox="0 0 512 512"><!-- Font Awesome Pro 6.0.0-alpha2 by @fontawesome - https://fontawesome.com License - https://fontawesome.com/license (Commercial License) --><path d="M416 128C415.375 128 414.875 128.25 414.375 128.25C415.5 123 416 117.625 416 112C416 67.75 380.25 32 336 32C311.375 32 289.75 43.25 275 60.75C256.375 24.75 219.25 0 176 0C114.125 0 64 50.125 64 112C64 119.25 64.75 126.25 66.125 133.25C27.75 145.75 0 181.5 0 224C0 277 43 320 96 320H416C469 320 512 277 512 224S469 128 416 128ZM384 352C366.25 352 352 366.25 352 384S366.25 416 384 416S416 401.75 416 384S401.75 352 384 352ZM192 448C174.25 448 160 462.25 160 480S174.25 512 192 512S224 497.75 224 480S209.75 448 192 448ZM320 448C302.25 448 288 462.25 288 480S302.25 512 320 512S352 497.75 352 480S337.75 448 320 448ZM256 352C238.25 352 224 366.25 224 384S238.25 416 256 416S288 401.75 288 384S273.75 352 256 352ZM64 448C46.25 448 32 462.25 32 480S46.25 512 64 512S96 497.75 96 480S81.75 448 64 448ZM128 352C110.25 352 96 366.25 96 384S110.25 416 128 416S160 401.75 160 384S145.75 352 128 352Z"/></svg>