<svg xmlns="http://www.w3.org/2000/svg" viewBox="0 0 576 512"><!-- Font Awesome Pro 6.0.0-alpha2 by @fontawesome - https://fontawesome.com License - https://fontawesome.com/license (Commercial License) --><path d="M128.007 320H448.002C501.001 320 544 277 544 224S501.001 128 448.002 128C447.377 128 446.877 128.25 446.377 128.25C447.502 123 448.002 117.625 448.002 112C448.002 67.75 412.252 32 368.003 32C343.378 32 321.754 43.25 307.004 60.75C288.379 24.75 251.255 0 208.005 0C146.131 0 96.007 50.125 96.007 112C96.007 119.25 96.757 126.25 98.132 133.25C59.758 145.75 32.008 181.5 32.008 224C32.008 277 75.007 320 128.007 320ZM113.46 353.938C101.273 348.719 87.163 354.344 81.945 366.531L33.946 478.531C28.727 490.719 34.367 504.844 46.555 510.063C49.633 511.375 52.836 512 55.992 512C65.304 512 74.164 506.562 78.07 497.469L126.069 385.469C131.288 373.281 125.647 359.156 113.46 353.938ZM385.456 353.938C373.237 348.719 359.175 354.344 353.94 366.531L305.941 478.531C300.723 490.719 306.363 504.844 318.55 510.063C321.629 511.375 324.832 512 327.988 512C337.3 512 346.159 506.562 350.066 497.469L398.065 385.469C403.283 373.281 397.643 359.156 385.456 353.938ZM520 392H504.001V376C504.001 362.75 493.251 352 480.001 352C466.751 352 456.001 362.75 456.001 376V392H440.002C426.752 392 416.002 402.75 416.002 416S426.752 440 440.002 440H456.001V456C456.001 469.25 466.751 480 480.001 480C493.251 480 504.001 469.25 504.001 456V440H520C533.25 440 544 429.25 544 416S533.25 392 520 392ZM264.004 392H248.005V376C248.005 362.75 237.255 352 224.005 352C210.755 352 200.005 362.75 200.005 376V392H184.006C170.756 392 160.006 402.75 160.006 416S170.756 440 184.006 440H200.005V456C200.005 469.25 210.755 480 224.005 480C237.255 480 248.005 469.25 248.005 456V440H264.004C277.254 440 288.004 429.25 288.004 416S277.254 392 264.004 392Z"/></svg>