<svg xmlns="http://www.w3.org/2000/svg" viewBox="0 0 576 512"><!-- Font Awesome Pro 6.0.0-alpha2 by @fontawesome - https://fontawesome.com License - https://fontawesome.com/license (Commercial License) --><path d="M342.75 352.75C348.5 343.125 352 332 352 320C352 284.75 323.25 256 288 256C270.75 256 255.25 262.875 243.75 273.875C227.375 244.25 196.25 224 160 224C107 224 64 267 64 320C64 322 64.5 323.75 64.625 325.75C27.125 338.75 0 374.125 0 416C0 469 43 512 96 512H336C380.25 512 416 476.25 416 432C416 390.125 383.75 356.25 342.75 352.75ZM565.25 298.375C472.25 316.125 386.75 244.75 386.75 150.75C386.75 96.5 415.75 46.75 462.875 19.875C470.25 15.75 468.25 4.75 460.125 3.25C448.375 1.125 436.75 0 425 0C319.125 0 233.125 85.875 233.125 192C233.125 200.5 233.75 208.75 234.875 217C240.75 221.25 246.5 225.875 251.625 231.25C263 226.5 275.25 224 288 224C340.875 224 384 267.125 384 320C384 323.625 383.75 327.25 383.375 330.75C407 341.5 425.75 360.25 436.875 383.25C491.25 379.875 540.625 354 573.999 312.875C579.25 306.375 573.5 296.75 565.25 298.375Z"/></svg>