<svg xmlns="http://www.w3.org/2000/svg" viewBox="0 0 512 512"><!-- Font Awesome Pro 6.0.0-alpha2 by @fontawesome - https://fontawesome.com License - https://fontawesome.com/license (Commercial License) --><path d="M416.002 128C415.377 128 414.877 128.25 414.377 128.25C415.502 123 416.002 117.625 416.002 112C416.002 67.75 380.252 32 336.003 32C311.378 32 289.754 43.25 275.004 60.75C256.379 24.75 219.255 0 176.005 0C114.256 0 64.007 50.125 64.007 112C64.007 119.25 64.757 126.25 66.132 133.25C27.758 145.75 0.008 181.5 0.008 224C0.008 277 43.007 320 96.007 320H416.002C469.001 320 512 277 512 224S469.001 128 416.002 128ZM198.786 353.938C186.615 348.719 172.49 354.344 167.271 366.531L119.272 478.531C114.053 490.719 119.694 504.844 131.881 510.063C134.959 511.375 138.162 512 141.318 512C150.631 512 159.49 506.562 163.396 497.469L211.395 385.469C216.614 373.281 210.974 359.156 198.786 353.938ZM81.46 353.938C69.273 348.719 55.163 354.344 49.945 366.531L1.946 478.531C-3.273 490.719 2.367 504.844 14.555 510.063C17.633 511.375 20.836 512 23.992 512C33.304 512 42.164 506.562 46.07 497.469L94.069 385.469C99.288 373.281 93.647 359.156 81.46 353.938ZM316.128 353.938C303.941 348.719 289.832 354.344 284.613 366.531L236.614 478.531C231.395 490.719 237.036 504.844 249.223 510.063C252.301 511.375 255.504 512 258.66 512C267.973 512 276.832 506.562 280.738 497.469L328.737 385.469C333.956 373.281 328.315 359.156 316.128 353.938ZM433.454 353.938C421.283 348.719 407.174 354.344 401.939 366.531L353.94 478.531C348.721 490.719 354.362 504.844 366.549 510.063C369.627 511.375 372.83 512 375.987 512C385.299 512 394.158 506.562 398.064 497.469L446.064 385.469C451.282 373.281 445.642 359.156 433.454 353.938Z"/></svg>