<svg xmlns="http://www.w3.org/2000/svg" viewBox="0 0 512 512"><!-- Font Awesome Pro 6.0.0-alpha2 by @fontawesome - https://fontawesome.com License - https://fontawesome.com/license (Commercial License) --><path d="M320 96C320 91.25 317.891 86.75 314.25 83.719L218.25 3.719C213.469 -0.312 206.812 -1.094 201.219 1.5C195.594 4.156 192 9.781 192 16V64H144C91.062 64 48 107.062 48 160V342.754C19.771 355.109 0 383.211 0 416C0 460.184 35.818 496 80 496C124.184 496 160 460.184 160 416C160 383.211 140.232 355.109 112 342.754V160C112 142.344 126.359 128 144 128H192V176C192 182.219 195.594 187.844 201.219 190.5C203.375 191.5 205.688 192 208 192C211.672 192 215.312 190.75 218.25 188.281L314.25 108.281C317.891 105.25 320 100.75 320 96ZM80 440C66.768 440 56 429.234 56 416S66.768 392 80 392C93.234 392 104 402.766 104 416S93.234 440 80 440ZM432 16C387.818 16 352 51.816 352 96C352 128.789 371.771 156.891 400 169.246V352C400 369.656 385.641 384 368 384H320V336C320 329.781 316.406 324.156 310.781 321.5C305.203 318.938 298.547 319.688 293.75 323.719L197.75 403.719C194.109 406.75 192 411.25 192 416S194.109 425.25 197.75 428.281L293.75 508.281C296.688 510.75 300.328 512 304 512C306.297 512 308.625 511.5 310.781 510.5C316.406 507.844 320 502.219 320 496V448H368C420.938 448 464 404.938 464 352V169.246C492.232 156.891 512 128.789 512 96C512 51.816 476.184 16 432 16ZM432 120C418.768 120 408 109.234 408 96S418.768 72 432 72C445.234 72 456 82.766 456 96S445.234 120 432 120Z"/></svg>