<svg xmlns="http://www.w3.org/2000/svg" viewBox="0 0 576 512"><!-- Font Awesome Pro 6.0.0-alpha2 by @fontawesome - https://fontawesome.com License - https://fontawesome.com/license (Commercial License) --><path d="M200.547 74.979C184.516 59.761 159.188 60.448 144 76.51L0 228.506C-14.625 243.912 -14.625 268.099 0 283.505L144 435.5C151.859 443.813 162.438 448 173.031 448C182.906 448 192.813 444.375 200.547 437.032C216.578 421.844 217.266 396.533 202.063 380.502L84.125 256.005L202.063 131.509C217.266 115.478 216.578 90.166 200.547 74.979ZM554.063 228.506L410.063 76.51C394.859 60.448 369.516 59.761 353.516 74.979C337.484 90.166 336.797 115.478 352 131.509L469.938 256.005L352 380.502C336.797 396.533 337.484 421.844 353.516 437.032C361.25 444.375 371.156 448 381.031 448C391.625 448 402.203 443.813 410.063 435.5L554.063 283.505C568.688 268.099 568.688 243.912 554.063 228.506Z"/></svg>