<svg xmlns="http://www.w3.org/2000/svg" viewBox="0 0 512 512"><!-- Font Awesome Pro 6.0.0-alpha2 by @fontawesome - https://fontawesome.com License - https://fontawesome.com/license (Commercial License) --><path d="M256 32C114.625 32 0 125.125 0 240C0 289.625 21.375 335 57 370.75C44.5 421.125 2.75 466 2.25 466.5C0 468.75 -0.625 472.25 0.75 475.25C1.999 478.25 4.75 480 8 480C74.25 480 124 448.25 148.625 428.625C181.25 440.875 217.625 448 256 448C397.375 448 512 354.875 512 240S397.375 32 256 32ZM249.999 352C235.375 352 224 340.625 224 326S235.375 300 249.999 300C264.625 300 276 311.375 276 326S264.625 352 249.999 352ZM307.666 235.391L269.334 258.521V260.174C269.334 270.912 260.166 280 249.334 280C238.5 280 229.334 270.912 229.334 260.174V246.957C229.334 240.348 232.666 233.738 239.334 229.607L286.834 201.521C292.666 198.217 296 192.434 296 185.826C296 175.912 287.666 167.652 277.666 167.652H234.334C224.334 167.652 216 175.912 216 185.826C216 196.564 206.834 205.652 196 205.652S176 196.564 176 185.826C176 153.607 201.834 128 234.334 128H277.666C310.166 128 336 153.607 336 185.826C336 205.652 325.166 224.652 307.666 235.391Z"/></svg>