<svg xmlns="http://www.w3.org/2000/svg" viewBox="0 0 512 512"><!-- Font Awesome Pro 6.0.0-alpha2 by @fontawesome - https://fontawesome.com License - https://fontawesome.com/license (Commercial License) --><path d="M256 32C114.625 32 0 125.125 0 240C0 289.625 21.375 335 57 370.75C44.5 421.125 2.75 466 2.25 466.5C0 468.75 -0.625 472.25 0.75 475.25C2 478.25 4.75 480 8 480C74.25 480 124 448.25 148.625 428.625C181.25 440.875 217.625 448 256 448C397.375 448 512 354.875 512 240S397.375 32 256 32ZM160 128C177.674 128 192 142.328 192 160S177.674 192 160 192S128 177.672 128 160S142.326 128 160 128ZM414.289 311.197C411.57 316.596 406.043 320 400 320H112C105.723 320 100.023 316.328 97.43 310.611S95.824 298.189 99.959 293.465L155.959 229.465C158.998 225.992 163.387 224 168 224S177.004 225.992 180.041 229.465L202.746 255.414L280.477 150.477C283.494 146.402 288.264 144 293.334 144C298.402 144 303.172 146.402 306.189 150.477L412.857 294.477C416.455 299.332 417.008 305.801 414.289 311.197Z"/></svg>