<svg xmlns="http://www.w3.org/2000/svg" viewBox="0 0 448 512"><!-- Font Awesome Pro 6.0.0-alpha2 by @fontawesome - https://fontawesome.com License - https://fontawesome.com/license (Commercial License) --><path d="M416 0H32C14.375 0 0 14.375 0 32V400C0 408.875 7.125 416 16 416H432C440.875 416 448 408.875 448 400V32C448 14.375 433.625 0 416 0ZM80 356C69 356 60 347 60 336S69 316 80 316S100 325 100 336S91 356 80 356ZM384 344C384 348.375 380.375 352 376 352H232C227.625 352 224 348.375 224 344V328C224 323.625 227.625 320 232 320H376C380.375 320 384 323.625 384 328V344ZM384 224C384 241.625 369.625 256 352 256H96C78.375 256 64 241.625 64 224V96C64 78.375 78.375 64 96 64H352C369.625 64 384 78.375 384 96V224ZM32 512H416V448H32V512Z"/></svg>