<svg xmlns="http://www.w3.org/2000/svg" viewBox="0 0 640 512"><!-- Font Awesome Pro 6.0.0-alpha2 by @fontawesome - https://fontawesome.com License - https://fontawesome.com/license (Commercial License) --><path d="M288 416H128C110.375 416 96 430.375 96 448S110.375 480 128 480H304.375C293.875 466.25 288 449.375 288 432V416ZM0 80V336C0 362.5 21.5 384 48 384H288V320H64V96H288V80C288 62.625 293.875 45.75 304.375 32H48C21.5 32 0 53.5 0 80ZM592 32H368C341.5 32 320 53.5 320 80V432C320 458.5 341.5 480 368 480H592C618.5 480 640 458.5 640 432V80C640 53.5 618.5 32 592 32ZM480 96C497.625 96 512 110.375 512 128S497.625 160 480 160S448 145.625 448 128S462.375 96 480 96ZM480 416C427 416 384 373 384 320S427 224 480 224S576 267 576 320S533 416 480 416ZM480 256C444.625 256 416 284.625 416 320S444.625 384 480 384S544 355.375 544 320S515.375 256 480 256Z"/></svg>