<svg xmlns="http://www.w3.org/2000/svg" viewBox="0 0 640 512"><!-- Font Awesome Pro 6.0.0-alpha2 by @fontawesome - https://fontawesome.com License - https://fontawesome.com/license (Commercial License) --><path d="M634.004 276.75L624.004 262.875V185.875C624.004 174 611.504 166.25 600.879 171.625C590.003 177 581.379 185.125 574.504 194.625L508.753 103.75C490.628 78.75 461.753 64 431.003 64H112.001C63.375 64 24 103.375 24 152V238.375C9.5 250.125 0 267.875 0 288V320H8C43.375 320 72 291.375 72 256V152C72 135.125 82.501 120.875 97.376 115C96.501 119.125 96.001 123.5 96.001 128V432C96.001 440.875 103.126 448 112.001 448H176.001C184.876 448 192.001 440.875 192.001 432V320C201.376 329.375 212.251 336.5 224.002 341.875V368C224.002 376.875 231.252 384 240.002 384C248.877 384 256.002 376.875 256.002 368V350.75C265.127 351.75 268.877 353 288.002 350.625V368C288.002 376.875 295.252 384 304.002 384C312.877 384 320.002 376.875 320.002 368V341.875C331.752 336.5 342.627 329.25 352.002 320V432C352.002 440.875 359.127 448 368.003 448H432.003C440.753 448 448.003 440.875 448.003 432V256L480.003 288V329.5C480.003 342.125 483.753 354.5 490.753 365L532.004 427C540.754 440.125 555.504 448 571.379 448C593.879 448 613.254 432.125 617.629 410L639.379 301.375C641.129 292.75 639.129 283.875 634.004 276.75ZM377.253 167.375L354.377 190.125C332.502 211.75 303.002 224 272.127 224H271.877C241.002 224 211.501 211.75 189.626 190.125L166.751 167.375C151.001 151.75 164.501 128 189.001 128H355.002C379.503 128 393.003 151.75 377.253 167.375ZM576.004 352C567.129 352 560.004 344.875 560.004 336S567.129 320 576.004 320S592.004 327.125 592.004 336S584.879 352 576.004 352Z"/></svg>