<svg xmlns="http://www.w3.org/2000/svg" viewBox="0 0 576 512"><!-- Font Awesome Pro 6.0.0-alpha2 by @fontawesome - https://fontawesome.com License - https://fontawesome.com/license (Commercial License) --><path d="M512 32H64C28.652 32 0 60.654 0 96V416C0 451.346 28.652 480 64 480H512C547.348 480 576 451.346 576 416V96C576 60.654 547.348 32 512 32ZM160 376C160 380.418 156.418 384 152 384H72C67.582 384 64 380.418 64 376V360C64 355.58 67.582 352 72 352H152C156.418 352 160 355.58 160 360V376ZM352 376C352 380.418 348.418 384 344 384H200C195.582 384 192 380.418 192 376V360C192 355.58 195.582 352 200 352H344C348.418 352 352 355.58 352 360V376Z"/></svg>