<svg xmlns="http://www.w3.org/2000/svg" viewBox="0 0 512 512"><!-- Font Awesome Pro 6.0.0-alpha2 by @fontawesome - https://fontawesome.com License - https://fontawesome.com/license (Commercial License) --><path d="M431.965 352.006C387.715 352.006 351.964 387.754 351.964 432.003S387.715 512 431.965 512S511.965 476.251 511.965 432.003S476.215 352.006 431.965 352.006ZM407.906 257.111C413.301 251.715 415.998 244.644 415.998 237.573C415.998 230.503 413.301 223.432 407.906 218.038L373.554 183.687L507.312 49.934C510.438 46.81 512 42.716 512 38.621S510.438 30.432 507.312 27.308L484.691 4.686C481.568 1.562 477.474 0 473.378 0S465.187 1.562 462.062 4.686L328.304 138.439L293.953 104.089C288.558 98.694 281.488 95.997 274.417 95.997S260.277 98.694 254.882 104.089L223.999 134.97V287.992H377.023L407.906 257.111ZM191.999 166.967L9.592 349.365C3.731 355.228 0 363.166 0 371.382C0 474.17 108.873 511.982 140.599 511.982C148.816 511.982 156.758 508.251 162.624 502.387L345.023 319.991H191.999V166.967Z "></path></svg>