<svg xmlns="http://www.w3.org/2000/svg" viewBox="0 0 512 512"><!-- Font Awesome Pro 6.0.0-alpha2 by @fontawesome - https://fontawesome.com License - https://fontawesome.com/license (Commercial License) --><path d="M512 376V424C512 437.255 501.255 448 488 448H448V488C448 501.255 437.255 512 424 512H376C362.745 512 352 501.255 352 488V205.25L205.25 352H320V448H88C74.745 448 64 437.255 64 424V160H24C10.745 160 0 149.255 0 136V88C0 74.745 10.745 64 24 64H64V24C64 10.745 74.745 0 88 0H136C149.255 0 160 10.745 160 24V306.75L306.75 160H192V64H402.75L457.378 9.372C469.874 -3.124 490.133 -3.124 502.628 9.372L502.628 9.372C515.124 21.867 515.124 42.126 502.628 54.622L448 109.25V352H488C501.255 352 512 362.745 512 376Z"/></svg>