<svg xmlns="http://www.w3.org/2000/svg" viewBox="0 0 576 512"><!-- Font Awesome Pro 6.0.0-alpha2 by @fontawesome - https://fontawesome.com License - https://fontawesome.com/license (Commercial License) --><path d="M544 96C526.25 96 512 110.25 512 128C512 129.125 512.5 130 512.625 131L428.75 107.5L439.875 101.875C452.25 95.75 462.875 86.25 470.625 74.75L488.75 47.625C491.25 43.875 490.25 39 486.5 36.5L473.25 27.625C469.5 25.125 464.625 26.125 462.125 29.75L444.125 57C439.5 64 433.125 69.625 425.625 73.25L383 94.625L349.25 85.125L357.5 74.75C364.25 66.25 368 55.75 368 44.75V8C368 3.625 364.375 0 360 0H344C339.625 0 336 3.625 336 8V44.75C336 48.375 334.75 51.875 332.5 54.75L315.75 75.75L299.625 71.25C292.75 69.25 287.875 63 287.875 55.75V8C287.875 3.625 284.25 0 279.875 0H263.875C259.5 0 255.875 3.625 255.875 8V55.75C255.875 77.25 270.25 96.25 290.875 102L369.75 124.25L336 192H96C60.75 192 32 220.75 32 256V320L64 298.75V347.625L52.125 379.375C47.5 391.625 46.75 404.75 49.875 417.375L74.75 499.875C76.625 507 83 512 90.25 512H154.125C164.5 512 172.125 502.25 169.625 492.125L143.25 403.75L162.75 352H320V496C320 504.75 327.25 512 336 512H400C408.75 512 416 504.75 416 496V288L448 224H512C529.75 224 544 209.75 544 192V164.125C544 162.625 543.5 161.25 543.25 159.875C543.5 159.875 543.75 160 544 160C561.75 160 576 145.75 576 128S561.75 96 544 96ZM448 176C439.25 176 432 168.75 432 160S439.25 144 448 144S464 151.25 464 160S456.75 176 448 176Z"/></svg>