<svg xmlns="http://www.w3.org/2000/svg" viewBox="0 0 512 512"><!-- Font Awesome Pro 6.0.0-alpha2 by @fontawesome - https://fontawesome.com License - https://fontawesome.com/license (Commercial License) --><path d="M488.75 133.25L396.75 107.5L407.875 101.875C420.25 95.75 430.875 86.25 438.625 74.75L456.75 47.625C459.25 43.875 458.25 39 454.5 36.5L441.25 27.625C437.5 25.125 432.625 26.125 430.125 29.75L412.125 57C407.5 64 401.125 69.625 393.625 73.25L351 94.625L317.25 85.125L325.5 74.75C332.25 66.25 336 55.75 336 44.75V8C336 3.625 332.375 0 328 0H312C307.625 0 304 3.625 304 8V44.75C304 48.375 302.75 51.875 300.5 54.75L283.75 75.75L267.625 71.25C260.75 69.25 255.875 63 255.875 55.75V8C255.875 3.625 252.25 0 247.875 0H231.875C227.5 0 223.875 3.625 223.875 8V55.75C223.875 77.25 238.25 96.25 258.875 102L337.75 124.25L304 192H64C28.75 192 0 220.75 0 256V320L32 298.75V347.625L20.125 379.375C15.5 391.625 14.75 404.75 17.875 417.375L42.75 499.875C44.625 507 51 512 58.25 512H122.125C132.5 512 140.125 502.25 137.625 492.125L111.25 403.75L130.75 352H288V496C288 504.75 295.25 512 304 512H368C376.75 512 384 504.75 384 496V288L416 224H480C497.75 224 512 209.75 512 192V164.125C512 149.75 502.375 137.25 488.75 133.25ZM416 176C407.25 176 400 168.75 400 160S407.25 144 416 144S432 151.25 432 160S424.75 176 416 176Z"/></svg>