<svg xmlns="http://www.w3.org/2000/svg" viewBox="0 0 448 512"><!-- Font Awesome Pro 6.0.0-alpha2 by @fontawesome - https://fontawesome.com License - https://fontawesome.com/license (Commercial License) --><path d="M7.994 153.479C9.32 153.479 10.681 153.83 11.969 154.598L208 271.47V495.277C208 505.018 200.344 511.986 191.988 511.986C189.3 511.986 186.539 511.265 183.938 509.683L31.781 417.217C12.125 405.279 0 383.311 0 359.53V161.848C0 156.961 3.817 153.479 7.994 153.479ZM426.176 117.163C426.176 119.988 424.824 122.81 422.125 124.411L224 242.565L25.875 124.411C23.191 122.81 21.848 119.988 21.848 117.163C21.848 114.363 23.168 111.561 25.813 109.943L191.781 9.07C201.734 3.023 212.867 0 224 0S246.266 3.023 256.219 9.07L422.187 109.943C424.848 111.561 426.176 114.363 426.176 117.163ZM440.006 153.479C444.183 153.479 448 156.961 448 161.848V359.53C448 383.28 435.875 405.279 416.219 417.217L264.062 509.714C261.469 511.284 258.717 512 256.037 512C247.671 512 240 505.028 240 495.277V271.47L436.031 154.598C437.319 153.83 438.68 153.479 440.006 153.479Z "></path></svg>