<svg xmlns="http://www.w3.org/2000/svg" viewBox="0 0 576 512"><!-- Font Awesome Pro 6.0.0-alpha2 by @fontawesome - https://fontawesome.com License - https://fontawesome.com/license (Commercial License) --><path d="M191.031 167.031C181.656 176.406 181.656 191.594 191.031 200.969L271.031 280.969C280.406 290.344 295.594 290.344 304.969 280.969L384.969 200.969C394.344 191.594 394.344 176.406 384.969 167.031S360.406 157.656 351.031 167.031L312 206.062V24C312 10.75 301.25 0 288 0S264 10.75 264 24V206.062L224.969 167.031C220.281 162.344 214.156 160 208 160S195.719 162.344 191.031 167.031ZM528 0H352V64H512V352H64V64H220.889V0H48C21.5 0 0 21.5 0 48V368C0 394.5 21.5 416 48 416H240L224 464H152C138.75 464 128 474.75 128 488S138.75 512 152 512H424C437.25 512 448 501.25 448 488S437.25 464 424 464H352L336 416H528C554.5 416 576 394.5 576 368V48C576 21.5 554.5 0 528 0Z"/></svg>