<svg xmlns="http://www.w3.org/2000/svg" viewBox="0 0 576 512"><!-- Font Awesome Pro 6.0.0-alpha2 by @fontawesome - https://fontawesome.com License - https://fontawesome.com/license (Commercial License) --><path d="M333.859 270.164C337.766 274.07 342.875 276.008 348 276.008S358.234 274.07 362.141 270.164L410.141 222.164C417.953 214.352 417.953 201.664 410.141 193.852L362.141 145.852C354.328 138.039 341.672 138.039 333.859 145.852S326.047 166.352 333.859 174.164L367.719 208.008L333.859 241.852C326.047 249.664 326.047 262.352 333.859 270.164ZM528 0H48C21.5 0 0 21.5 0 48V368C0 394.5 21.5 416 48 416H240L224 464H152C138.75 464 128 474.75 128 488S138.75 512 152 512H424C437.25 512 448 501.25 448 488S437.25 464 424 464H352L336 416H528C554.5 416 576 394.5 576 368V48C576 21.5 554.5 0 528 0ZM512 352H64V64H512V352ZM213.859 270.164C217.766 274.07 222.875 276.008 228 276.008S238.234 274.07 242.141 270.164C249.953 262.352 249.953 249.664 242.141 241.852L208.281 208.008L242.141 174.164C249.953 166.352 249.953 153.664 242.141 145.852S221.672 138.039 213.859 145.852L165.859 193.852C158.047 201.664 158.047 214.352 165.859 222.164L213.859 270.164Z"/></svg>