<svg xmlns="http://www.w3.org/2000/svg" viewBox="0 0 384 512"><!-- Font Awesome Pro 6.0.0-alpha2 by @fontawesome - https://fontawesome.com License - https://fontawesome.com/license (Commercial License) --><path d="M328 288.182H256V160.092C256 142.404 241.672 128.068 224 128.068H160C142.326 128.068 128 142.404 128 160.092V288.182H56C46.422 288.182 37.75 293.891 33.953 302.693C30.172 311.496 31.969 321.723 38.547 328.695L174.547 472.799C183.609 482.4 200.391 482.4 209.453 472.799L345.453 328.695C352.031 321.723 353.828 311.496 350.047 302.693C346.25 293.891 337.578 288.182 328 288.182ZM352 32H32C14.327 32 0 46.327 0 64V64C0 81.673 14.327 96 32 96H352C369.673 96 384 81.673 384 64V64C384 46.327 369.673 32 352 32Z"/></svg>