<svg xmlns="http://www.w3.org/2000/svg" viewBox="0 0 384 512"><!-- Font Awesome Pro 6.0.0-alpha2 by @fontawesome - https://fontawesome.com License - https://fontawesome.com/license (Commercial License) --><path d="M25.373 134.626L70.629 89.372C83.125 76.876 103.385 76.876 115.883 89.372L245.492 218.984L313.375 151.102C322.523 141.953 336.291 139.215 348.244 144.164C360.211 149.121 368 160.777 368 173.73V400.004C368 408.84 364.42 416.84 358.631 422.629C352.84 428.418 344.842 432 336.002 432H109.729C96.779 432 85.123 424.211 80.162 412.246C75.213 400.293 77.953 386.523 87.102 377.375L154.984 309.496L25.373 179.884C12.875 167.384 12.877 147.126 25.373 134.626Z"/></svg>