<svg xmlns="http://www.w3.org/2000/svg" viewBox="0 0 640 512"><!-- Font Awesome Pro 6.0.0-alpha2 by @fontawesome - https://fontawesome.com License - https://fontawesome.com/license (Commercial License) --><path d="M18.409 255.75L192.012 224L100.773 292.625C90.649 302.75 97.774 320 112.022 320H334.744C325.245 293.5 319.995 265.5 319.995 236.625V194.25L200.261 106.75C176.514 90.875 145.018 92.75 123.27 111.25L5.785 227.625C-6.588 238 2.411 258.001 18.409 255.75ZM575.213 289.875L474.476 239.625C458.228 231.5 447.979 214.875 447.979 196.625V160H511.971L540.093 182.625C546.092 188.625 554.216 192 562.715 192H593.711C605.709 192 616.833 185.125 622.207 174.25L636.581 145.625C641.955 134.75 640.83 121.875 633.581 112.125L559.09 12.75C552.966 4.75 543.467 0 533.469 0H295.999C288.874 0 285.375 8.625 290.374 13.625L351.991 64L292.374 88.75C286.5 91.75 286.5 100.125 292.374 103.125L351.991 128V236.625C351.991 308.625 387.987 376 447.979 416C252.379 422.75 103.523 457 13.909 476.875C5.785 478.625 0.036 485.875 0.036 494.25C0.036 504 8.035 512 17.784 512H516.846C580.088 512 636.455 464.5 639.83 401.25C642.33 354.001 617.083 310.875 575.213 289.875ZM489.099 66.25L534.843 77.625C532.094 88.625 522.345 96.5 510.721 95.875C497.723 95.25 484.85 83.375 489.099 66.25Z"/></svg>