<svg xmlns="http://www.w3.org/2000/svg" viewBox="0 0 448 512"><!-- Font Awesome Pro 6.0.0-alpha2 by @fontawesome - https://fontawesome.com License - https://fontawesome.com/license (Commercial License) --><path d="M416 360.875V151.125C435 140 448 119.625 448 96C448 60.625 419.375 32 384 32C360.375 32 340 45 328.875 64H119.125C108 45 87.625 32 64 32C28.625 32 0 60.625 0 96C0 119.625 13 140 32 151.125V360.875C13 372 0 392.375 0 416C0 451.375 28.625 480 64 480C87.625 480 108 467 119.125 448H328.875C340 467 360.375 480 384 480C419.375 480 448 451.375 448 416C448 392.375 435 372 416 360.875ZM96 360.875V151.125C105.625 145.5 113.5 137.625 119.125 128H328.875C334.5 137.625 342.375 145.5 352 151.125V360.875C342.375 366.5 334.5 374.375 328.875 384H119.125C113.5 374.375 105.625 366.5 96 360.875ZM400 96C400 104.875 392.875 112 384 112S368 104.875 368 96S375.125 80 384 80S400 87.125 400 96ZM64 80C72.875 80 80 87.125 80 96S72.875 112 64 112S48 104.875 48 96S55.125 80 64 80ZM48 416C48 407.125 55.125 400 64 400S80 407.125 80 416S72.875 432 64 432S48 424.875 48 416ZM384 432C375.125 432 368 424.875 368 416S375.125 400 384 400S400 407.125 400 416S392.875 432 384 432Z"/></svg>