<svg xmlns="http://www.w3.org/2000/svg" viewBox="0 0 640 512"><!-- Font Awesome Pro 6.0.0-alpha2 by @fontawesome - https://fontawesome.com License - https://fontawesome.com/license (Commercial License) --><path d="M144.003 333.878C144.003 432.376 222.752 512 320.002 512C372.812 512 420.041 488.403 452.292 451.169L174.776 233.659C156.592 263.935 144.003 294.646 144.003 333.878ZM630.811 469.102L493.755 361.682C495.185 352.622 496.001 343.352 496.001 333.878C496.001 222.129 396.252 180.63 349.252 22.133C341.252 -6.742 299.752 -7.992 290.752 22.133C274.317 77.591 251.317 118.695 228.385 153.691L38.814 5.109C34.407 1.672 29.189 0 24.032 0C16.907 0 9.845 3.156 5.126 9.187C-3.061 19.625 -1.249 34.718 9.189 42.89L601.186 506.883C611.686 515.086 626.749 513.211 634.874 502.805C643.061 492.367 641.249 477.274 630.811 469.102Z"/></svg>