<svg xmlns="http://www.w3.org/2000/svg" viewBox="0 0 448 512"><!-- Font Awesome Pro 6.0.0-alpha2 by @fontawesome - https://fontawesome.com License - https://fontawesome.com/license (Commercial License) --><path d="M133.437 51.361C90.937 189.281 0 226.906 0 324.141C0 410.219 71.562 480 159.999 480S319.999 410.219 319.999 324.141C319.999 226.359 229.27 190.047 186.562 51.361C179.374 26.096 141.562 25.002 133.437 51.361ZM368 32C323.938 32 288.001 67.938 288.001 112S323.938 192 368 192S448 156.062 448 112S412.063 32 368 32ZM368 144C350.25 144 336 129.75 336 112S350.25 80 368 80C385.75 80 400 94.25 400 112S385.75 144 368 144Z"/></svg>