<svg xmlns="http://www.w3.org/2000/svg" viewBox="0 0 576 512"><!-- Font Awesome Pro 6.0.0-alpha2 by @fontawesome - https://fontawesome.com License - https://fontawesome.com/license (Commercial License) --><path d="M448.007 224C501.003 224 544 181 544 128H480.004C480.004 75 437.008 32 384.011 32S288.018 75 288.018 128C288.018 151.125 296.392 172.125 310.141 188.625C316.391 196.125 320.016 205.375 320.016 215.125C320.016 237.75 301.767 256 279.144 256H257.395C225.897 256 177.276 242.75 155.777 219.75C145.778 209 128.029 216.125 128.029 230.625C128.029 315.375 196.649 384 281.393 384H249.396C173.401 384 110.78 328.5 98.531 256H48.16C39.035 256 31.411 263.625 32.036 272.75C40.66 388.625 137.404 480 255.395 480H362.638C418.134 480 473.38 435.5 479.38 380.25C483.879 337.875 464.631 299.875 433.258 277.375C422.509 269.625 416.009 257.125 416.009 243.75C416.009 236.625 418.009 230 421.384 224H448.007ZM384.011 144C375.137 144 368.012 136.875 368.012 128S375.137 112 384.011 112C392.886 112 400.01 119.125 400.01 128S392.886 144 384.011 144Z"/></svg>