<svg xmlns="http://www.w3.org/2000/svg" viewBox="0 0 384 512"><!-- Font Awesome Pro 6.0.0-alpha2 by @fontawesome - https://fontawesome.com License - https://fontawesome.com/license (Commercial License) --><path d="M192 0C86 0 0 86 0 192V368C0 447.5 64.5 512 144 512S288 447.5 288 368V358.125C345.375 324.875 384 263 384 192C384 86 298 0 192 0ZM280 208C266.766 208 256 197.234 256 184C256 153.121 230.879 128 200 128H184C153.121 128 128 153.121 128 184V215.717L141.92 221.293C160.648 228.77 173.586 245.154 176.523 265.111C179.479 285.031 171.852 304.441 156.121 317.033L118.973 346.738C114.637 350.182 109.516 352 104.166 352C96.879 352 89.814 348.633 85.248 342.965C77.004 332.641 78.684 317.51 89.004 309.225L126.127 279.539C129.367 276.947 129.246 273.488 129.043 272.121C128.84 270.748 127.951 267.385 124.094 265.838L95.117 254.256C85.934 250.619 80 241.873 80 231.973V184C80 126.654 126.654 80 184 80H200C257.346 80 304 126.654 304 184C304 197.234 293.234 208 280 208Z"/></svg>