<svg xmlns="http://www.w3.org/2000/svg" viewBox="0 0 512 512"><!-- Font Awesome Pro 6.0.0-alpha2 by @fontawesome - https://fontawesome.com License - https://fontawesome.com/license (Commercial License) --><path d="M256 16C123.461 16 16 123.418 16 256S123.461 496 256 496S496 388.582 496 256S388.539 16 256 16ZM233.355 377.375C227.422 371.375 224.031 363.25 224.031 354.75V322.75C224.031 311.125 217.734 300.375 207.563 294.75C193.152 286.75 172.688 275.75 158.762 268.625C147.258 262.875 136.602 255.5 127.035 246.875L126.309 246.125C119.406 240 113.352 233 108.266 225.5C100.312 213.82 88.406 196.18 78.863 182.016C98.951 134.102 137.988 96.148 186.49 77.223L200.781 84.375C211.437 89.75 224.031 82 224.031 70.125V66.883C234.449 65.125 245.076 64 255.986 64L276.707 84.75C282.883 91 282.883 101.125 276.707 107.375L271.984 112L261.691 122.375C258.543 125.5 258.543 130.5 261.691 133.625L266.293 138.375C269.441 141.5 269.441 146.5 266.293 149.625L258.301 157.625C256.848 159.125 254.789 160 252.73 160H243.648C241.59 160 239.652 160.75 238.078 162.25L228.148 171.875C225.727 174.375 225.121 178.125 226.574 181.25L242.195 212.375C244.859 217.75 240.984 224 235.051 224H229.48C227.543 224 225.605 223.25 224.152 222L214.949 214C210.59 210.25 204.777 209.125 199.328 210.875L168.207 221.25C163.242 222.875 159.973 227.5 159.973 232.625C159.973 237.125 162.516 241.25 166.633 243.25L177.652 248.875C187.098 253.5 197.512 256 208.047 256S230.57 283.25 240.016 288H306.738C315.215 288 323.328 291.375 329.383 297.375L343.066 311C348.758 316.75 352.027 324.5 352.027 332.625C352.027 345 347.062 356.875 338.344 365.625C334.348 369.5 330.352 373.5 326.961 376.875C323.934 379.875 321.875 383.625 320.785 387.625C319.332 393.25 318.121 399 316.062 404.5L302.002 442.195C287.234 445.848 271.881 448 256 448V428.625C257.695 416 248.371 392.375 233.355 377.375ZM425.047 274.25C419.234 272.75 414.148 269.25 410.879 264.25L392.836 237.25C387.508 229.25 387.508 218.75 392.836 210.75L412.453 181.25C414.754 177.875 417.902 175 421.656 173.125L427.52 170.211C440.508 196.07 448 225.148 448 256C448 263.992 447.355 271.82 446.402 279.555L425.047 274.25Z"/></svg>