<svg xmlns="http://www.w3.org/2000/svg" viewBox="0 0 512 512"><!-- Font Awesome Pro 6.0.0-alpha2 by @fontawesome - https://fontawesome.com License - https://fontawesome.com/license (Commercial License) --><path d="M404.132 171.875C373.572 162.586 349.421 138.434 340.132 107.875C317.718 101.061 298.994 86.084 286.808 66.615C190.277 144.531 124.654 176.723 100.763 186.076C31.934 214.647 0 275.95 0 337.355C0 478.463 129.158 512 172.562 512C234.84 512 284.672 492.796 385.808 339.088C409.75 302.422 430.611 265.438 450.224 228.279C428.32 216.33 411.513 196.156 404.132 171.875ZM512 24C512 10.291 500.79 0 488 0C481.859 0 475.718 2.344 471.031 7.031L456.992 21.07C449.314 17.811 440.873 16 432.005 16H304.005C304.005 51.346 332.66 80 368.005 80C368.005 115.346 396.66 144 432.005 144C432.005 179.346 460.66 208 496.005 208V80C496.005 71.129 494.193 62.686 490.931 55.006L504.968 40.969C509.656 36.281 512 30.141 512 24Z"/></svg>