<svg xmlns="http://www.w3.org/2000/svg" viewBox="0 0 640 512"><!-- Font Awesome Pro 6.0.0-alpha2 by @fontawesome - https://fontawesome.com License - https://fontawesome.com/license (Commercial License) --><path d="M608 192H576C558.326 192 544 206.326 544 224V416C544 433.672 558.326 448 576 448H608C625.674 448 640 433.672 640 416V224C640 206.326 625.674 192 608 192ZM434.723 154.498C426.223 147.703 415.664 144 404.781 144H328V112H392C405.254 112 416 101.254 416 88C416 74.744 405.254 64 392 64H216C202.746 64 192 74.744 192 88C192 101.254 202.746 112 216 112H280V144H128C101.49 144 80 165.49 80 192V232H48V152C48 138.744 37.254 128 24 128S0 138.744 0 152V360C0 373.254 10.746 384 24 384S48 373.254 48 360V280H80V336C80 362.51 101.49 384 128 384H169.375L219.32 433.945C228.32 442.943 240.523 448 253.25 448H464C490.51 448 512 426.51 512 400V223.98C512 219.125 509.793 214.531 505.999 211.5L434.723 154.498ZM192 280C178.746 280 168 269.254 168 256C168 242.744 178.746 232 192 232S216 242.744 216 256C216 269.254 205.254 280 192 280ZM288 280C274.746 280 264 269.254 264 256C264 242.744 274.746 232 288 232S312 242.744 312 256C312 269.254 301.254 280 288 280ZM384 280C370.746 280 360 269.254 360 256C360 242.744 370.746 232 384 232S408 242.744 408 256C408 269.254 397.254 280 384 280Z"/></svg>