<svg xmlns="http://www.w3.org/2000/svg" viewBox="0 0 640 512"><!-- Font Awesome Pro 6.0.0-alpha2 by @fontawesome - https://fontawesome.com License - https://fontawesome.com/license (Commercial License) --><path d="M240 128C204.654 128 176 156.652 176 192V297.174L303.367 185.729C300.172 153.369 273.197 128 240 128ZM240 96C266.525 95.9 288 74.455 288 48C288 21.543 266.525 0.1 240 0C213.475 0.1 192 21.543 192 48C192 74.455 213.475 95.9 240 96ZM560 128H448C428.625 128 409.906 135.031 395.312 147.797L161.938 352H80C35.812 352 0 387.812 0 432S35.812 512 80 512H192C211.375 512 230.094 504.969 244.688 492.203L478.062 288H560C604.188 288 640 252.188 640 208S604.188 128 560 128Z"/></svg>