<svg xmlns="http://www.w3.org/2000/svg" viewBox="0 0 512 512"><!-- Font Awesome Pro 6.0.0-alpha2 by @fontawesome - https://fontawesome.com License - https://fontawesome.com/license (Commercial License) --><path d="M512 208V432C512 440.75 504.75 448 496 448H416V320H384V448H320V320H288V448H224V320H192V448H128V320H96V448H16C7.25 448 0 440.75 0 432V208C0 199.25 7.25 192 16 192H64V144C64 135.25 71.25 128 80 128H128V80C128 71.25 135.25 64 144 64H368C376.75 64 384 71.25 384 80V128H432C440.75 128 448 135.25 448 144V192H496C504.75 192 512 199.25 512 208Z"/></svg>