<svg xmlns="http://www.w3.org/2000/svg" viewBox="0 0 640 512"><!-- Font Awesome Pro 6.0.0-alpha2 by @fontawesome - https://fontawesome.com License - https://fontawesome.com/license (Commercial License) --><path d="M640 256C640 248.72 635.657 241.439 626.97 239.127L515.106 208.756C510.356 202.257 504.982 195.382 498.983 188.383C500.357 186.258 554.227 100.394 554.227 100.394C556.054 97.436 556.869 94.366 556.869 91.408C556.869 81.994 548.615 73.705 538.427 73.705C536.262 73.705 534.009 74.079 531.729 74.897L411.991 118.267C402.367 113.517 392.118 109.393 381.369 106.018L336.873 10.78C333.561 3.593 326.781 0 320 0S306.439 3.593 303.127 10.78L258.631 106.018C247.882 109.393 237.633 113.517 228.009 118.267L108.271 74.897C105.991 74.079 103.738 73.705 101.573 73.705C91.385 73.705 83.131 81.994 83.131 91.408C83.131 94.366 83.946 97.436 85.773 100.394C85.773 100.394 139.643 186.259 141.017 188.383C135.393 195.007 130.019 201.757 124.894 208.756L13.03 239.127C4.343 241.439 0 248.72 0 256S4.343 270.561 13.03 272.873L124.894 303.244C129.644 309.743 135.018 316.493 140.893 323.617C139.518 325.617 85.773 411.606 85.773 411.606C83.946 414.564 83.131 417.634 83.131 420.592C83.131 430.006 91.385 438.295 101.573 438.295C103.738 438.295 105.991 437.921 108.271 437.103L228.009 393.733C237.633 398.483 247.882 402.607 258.631 405.982L303.127 501.22C306.439 508.407 313.219 512 320 512S333.561 508.407 336.873 501.22L381.369 405.982C392.118 402.607 402.367 398.483 411.991 393.733L531.729 437.103C534.009 437.921 536.262 438.295 538.427 438.295C548.615 438.295 556.869 430.006 556.869 420.592C556.869 417.634 556.054 414.564 554.227 411.606C554.227 411.606 500.482 325.617 499.108 323.617C504.982 316.493 510.356 309.743 515.106 303.244L626.97 272.873C635.657 270.561 640 263.28 640 256ZM320 351.988C267.005 351.988 224.009 308.994 224.009 256C224.009 236.252 230.009 218.005 240.258 202.757C256.131 212.255 275.004 219.005 295.752 222.004C291.378 231.253 288.003 242.377 288.003 256C288.003 298.62 320 319.992 320 319.992S351.997 298.62 351.997 256C351.997 242.377 348.622 231.253 344.248 222.004C364.996 219.005 383.869 212.255 399.742 202.757C409.991 218.005 415.991 236.252 415.991 256C415.991 308.994 372.995 351.988 320 351.988Z "></path></svg>