<svg xmlns="http://www.w3.org/2000/svg" viewBox="0 0 640 512"><!-- Font Awesome Pro 6.0.0-alpha2 by @fontawesome - https://fontawesome.com License - https://fontawesome.com/license (Commercial License) --><path d="M630.811 469.102L527.136 387.842C558.503 355.877 585.101 317.253 604.53 273.027C606.436 268.597 607.999 260.961 607.999 256.004C607.999 251.027 606.436 243.406 604.53 238.977C550.28 115.529 442.937 32.007 320 32.007C257.309 32.007 198.77 53.921 149.165 91.6L38.814 5.109C34.407 1.672 29.189 0 24.032 0C16.907 0 9.845 3.156 5.126 9.187C-3.061 19.625 -1.249 34.718 9.189 42.89L601.186 506.883C611.686 515.086 626.749 513.211 634.874 502.805C643.061 492.367 641.249 477.274 630.811 469.102ZM463.999 256.066C463.999 280.918 457.304 304.011 446.062 324.3L407.507 294.081C412.746 282.394 416 269.66 416 256.004C416 203.009 372.996 160.005 320 160.005H319.781C317.48 160.037 314.426 160.447 311.539 160.771C316.77 170.044 320 180.599 320 192.005C320 202.177 317.422 211.645 313.164 220.137L223.711 150.029C249.18 126.643 282.703 112.006 320 112.006C399.5 112.006 463.999 176.521 463.999 256.004V256.066ZM36.849 236.071L344.351 478.836C358.25 477.575 371.898 475.227 385.258 471.895L50.884 207.919C45.915 217.067 41.185 226.407 36.849 236.071ZM292.149 478.387L37.548 277.39C88.157 389.033 182.458 466.985 292.149 478.387ZM67.415 180.2L421.711 459.907C432.332 455.63 442.734 450.79 452.835 445.243L85.196 155.009C78.946 163.056 73.083 171.533 67.415 180.2Z"/></svg>