<svg xmlns="http://www.w3.org/2000/svg" viewBox="0 0 512 512"><!-- Font Awesome Pro 6.0.0-alpha2 by @fontawesome - https://fontawesome.com License - https://fontawesome.com/license (Commercial License) --><path d="M50.75 333.25C38.75 345.25 32 361.531 32 378.5V424L0 480L32 512L88 480H133.5C150.469 480 166.75 473.25 178.75 461.25L304 336L176 208L50.75 333.25ZM483.875 28.125C446.406 -9.375 385.594 -9.375 348.125 28.125L271.031 105.219L257.938 92.125C248.5 82.656 233.281 82.812 224 92.125L183.031 133.094C173.656 142.438 173.656 157.656 183.031 167.031L344.969 328.969C354.406 338.406 369.625 338.281 378.906 328.969L419.875 288C429.25 278.625 429.25 263.438 419.875 254.062L406.781 240.969L483.875 163.875C521.375 126.375 521.375 65.625 483.875 28.125Z"/></svg>