<svg xmlns="http://www.w3.org/2000/svg" viewBox="0 0 512 512"><!-- Font Awesome Pro 6.0.0-alpha2 by @fontawesome - https://fontawesome.com License - https://fontawesome.com/license (Commercial License) --><path d="M301.574 379.275C301.275 379.142 301.199 379.118 300.988 379.032C286.699 372.736 269.986 381.087 266.475 396.103L264.658 403.611C262.6 412.572 249.4 412.572 247.342 403.611L245.525 396.103C242.014 381.087 225.303 372.736 210.891 379.032C210.619 379.146 210.561 379.165 209.971 379.439C199.045 384.552 192 395.544 192 407.607V449.146C192 483.294 220.096 511.634 255.092 511.994C290.816 512.478 320 484.505 320 449.994V407.646C320 395.38 312.842 384.122 301.574 379.275ZM256 16C123.461 16 16 123.418 16 256.001C16 356.364 77.633 442.208 165.057 478.048C162.047 468.873 160 459.275 160 449.146V407.607C160 406.04 160.545 404.595 160.662 403.048C135.588 386.802 116.492 364.755 112.141 338.751C110.324 326.751 121.586 317.126 132.848 320.751C163.121 330.501 208.047 336.001 256 336.001S348.879 330.501 379.152 320.751C390.535 317.126 401.797 326.751 399.859 338.751C395.453 364.743 376.369 386.782 351.324 403.025C351.441 404.595 352 406.048 352 407.646V449.994C352 459.798 350.025 469.08 347.158 477.97C434.471 442.079 496 356.282 496 256.001C496 123.418 388.539 16 256 16ZM216.039 233.001L206.473 224.501C191.699 211.251 160.336 211.251 145.441 224.501L135.996 233.001C127.52 240.376 114.441 233.251 116.016 222.251C120.012 197.001 150.164 180.126 175.957 180.126C201.629 180.126 231.781 197.001 235.777 222.251C237.594 233.376 224.273 240.376 216.039 233.001ZM336.121 272.001C300.553 272.001 272 243.501 272 208.001S300.553 144 336.121 144C371.447 144 400 172.501 400 208.001S371.447 272.001 336.121 272.001ZM336.045 184.001C322.707 184.001 312 194.688 312 208.001S322.707 232.001 336.045 232.001C349.293 232.001 360 221.313 360 208.001S349.293 184.001 336.045 184.001Z"/></svg>