<svg xmlns="http://www.w3.org/2000/svg" viewBox="0 0 512 512"><!-- Font Awesome Pro 6.0.0-alpha2 by @fontawesome - https://fontawesome.com License - https://fontawesome.com/license (Commercial License) --><path d="M256 16C123.461 16 16 123.419 16 256S123.461 496 256 496S496 388.581 496 256S388.539 16 256 16ZM102.574 168.875L137.449 163.875L152.949 132.25C155.855 126.5 163.969 126.5 166.875 132.25L182.375 163.875L217.25 168.875C223.547 169.875 226.211 177.5 221.609 182.125L196.18 206.75L202.234 241.625C203.203 247.75 196.906 252.625 191.215 249.5L159.973 233.25L128.73 249.625C123.039 252.75 116.742 247.875 117.711 241.75L123.645 206.75L98.336 182.25C93.734 177.5 96.398 169.875 102.574 168.875ZM256 432C195.453 432 121.465 393.75 112.141 338.75C110.203 326.875 121.465 317.25 132.848 320.75C163.121 330.5 208.047 336 256 336S348.879 330.5 379.152 320.75C390.656 317.125 401.676 326.875 399.859 338.75C390.535 393.75 316.547 432 256 432ZM413.664 182.125L388.355 206.75L394.289 241.625C395.258 247.75 388.961 252.625 383.27 249.5L352.027 233.25L320.664 249.625C314.973 252.75 308.676 247.875 309.645 241.75L315.699 206.75L290.27 182.25C285.789 177.625 288.453 170 294.629 169L329.504 164L345.004 132.375C347.91 126.625 356.023 126.625 358.93 132.375L374.43 164L409.305 169C415.602 169.875 418.266 177.5 413.664 182.125Z"/></svg>