<svg xmlns="http://www.w3.org/2000/svg" viewBox="0 0 512 512"><!-- Font Awesome Pro 6.0.0-alpha2 by @fontawesome - https://fontawesome.com License - https://fontawesome.com/license (Commercial License) --><path d="M16 256C16 388.581 123.461 496 256 496S496 388.581 496 256S388.539 16 256 16S16 123.419 16 256ZM208 208C208 225.75 193.724 240 175.94 240C158.276 240 144 225.75 144 208S158.276 176 175.94 176C193.724 176 208 190.25 208 208ZM376.004 233L366.559 224.5C351.664 211.25 320.301 211.25 305.527 224.5L295.961 233C287.727 240.375 274.406 233.375 276.223 222.25C280.219 197 310.371 180.125 336.043 180.125C361.836 180.125 391.988 197 395.984 222.25C397.559 233.25 384.48 240.375 376.004 233ZM132.848 320.75C163.121 330.5 208.047 336 256 336S348.879 330.5 379.152 320.75C390.414 317.125 401.676 326.75 399.859 338.75C390.656 393.75 316.547 432 256 432S121.465 393.75 112.141 338.75C110.203 326.75 121.465 317.125 132.848 320.75Z"/></svg>