<svg xmlns="http://www.w3.org/2000/svg" viewBox="0 0 512 512"><!-- Font Awesome Pro 6.0.0-alpha2 by @fontawesome - https://fontawesome.com License - https://fontawesome.com/license (Commercial License) --><path d="M256 16C123.461 16 16 123.419 16 256S123.461 496 256 496S496 388.581 496 256S388.539 16 256 16ZM96.035 224C96.035 199.75 109.719 178.75 129.578 168C128.852 170.625 128.004 173.25 128.004 176C128.004 193.75 142.293 208 159.973 208C177.652 208 191.941 193.75 191.941 176C191.941 173.25 191.094 170.625 190.367 168C210.348 178.75 224.031 199.75 224.031 224C224.031 259.25 195.332 288 159.973 288C124.734 288 96.035 259.25 96.035 224ZM320.059 400H191.941C170.75 400 170.75 368 191.941 368H320.059C341.25 368 341.25 400 320.059 400ZM352.027 288C316.668 288 287.969 259.25 287.969 224C287.969 199.75 301.652 178.75 321.633 168C320.906 170.625 320.059 173.25 320.059 176C320.059 193.75 334.348 208 352.027 208S383.996 193.75 383.996 176C383.996 173.25 383.148 170.625 382.422 168C402.281 178.75 415.965 199.75 415.965 224C415.965 259.25 387.266 288 352.027 288Z"/></svg>