<svg xmlns="http://www.w3.org/2000/svg" viewBox="0 0 512 512"><!-- Font Awesome Pro 6.0.0-alpha2 by @fontawesome - https://fontawesome.com License - https://fontawesome.com/license (Commercial License) --><path d="M256 16C123.461 16 16 123.419 16 256S123.461 496 256 496S496 388.581 496 256S388.539 16 256 16ZM276.119 210.125C280.115 184.875 310.267 168 336.06 168C361.732 168 391.884 184.875 395.88 210.125C397.576 221.25 384.497 228.375 376.142 220.875L366.576 212.375C351.802 199.25 320.439 199.25 305.665 212.375L295.978 221C287.622 228.375 274.423 221.25 276.119 210.125ZM159.94 160C177.724 160 192 174.25 192 192S177.724 224 159.94 224C142.276 224 128 209.75 128 192S142.276 160 159.94 160ZM407.871 306C398.973 377 337.908 432 264.044 432H247.956C174.092 432 113.027 377 104.129 306C102.91 296.5 110.467 288 120.096 288H391.904C401.533 288 409.09 296.375 407.871 306Z"/></svg>