<svg xmlns="http://www.w3.org/2000/svg" viewBox="0 0 512 512"><!-- Font Awesome Pro 6.0.0-alpha2 by @fontawesome - https://fontawesome.com License - https://fontawesome.com/license (Commercial License) --><path d="M256 16C123.42 16 16 123.42 16 256S123.42 496 256 496C388.582 496 496 388.58 496 256S388.582 16 256 16ZM120.012 223.375C123.281 181.25 152.223 152 175.957 152C199.812 152 228.754 181.25 232.023 223.375C232.75 232 221.246 235.25 217.129 227.875L207.562 210.875C199.934 197.25 188.43 189.25 176.078 189.25C163.848 189.25 152.344 197.25 144.594 210.875L135.148 227.875C130.789 235.25 119.285 231.875 120.012 223.375ZM370.797 346.25C342.34 380.375 300.441 400 256 400S169.66 380.375 141.203 346.25C127.641 329.875 152.223 309.5 165.785 325.75C188.188 352.625 221.004 367.875 256 367.875S323.812 352.5 346.215 325.75C359.777 309.5 384.359 330 370.797 346.25ZM376.973 227.875L367.527 210.875C359.777 197.25 348.273 189.25 336.043 189.25C323.691 189.25 312.188 197.25 304.559 210.875L294.992 227.875C290.875 235.25 279.371 231.875 280.098 223.375C283.367 181.25 312.309 152 336.043 152C359.898 152 388.84 181.25 392.109 223.375C392.715 232 381.09 235.25 376.973 227.875Z"/></svg>