<svg xmlns="http://www.w3.org/2000/svg" viewBox="0 0 512 512"><!-- Font Awesome Pro 6.0.0-alpha2 by @fontawesome - https://fontawesome.com License - https://fontawesome.com/license (Commercial License) --><path d="M256 16C123.451 16 16 123.451 16 256C16 341.434 60.773 416.24 128 458.77V288C128 279.164 135.164 272 144 272C152.838 272 160 279.164 160 288V475.898C189.414 488.76 221.844 496 256 496S322.586 488.76 352 475.898V288C352 279.164 359.164 272 368 272C376.838 272 384 279.164 384 288V458.77C451.227 416.24 496 341.434 496 256C496 123.451 388.549 16 256 16ZM190.488 224.5C175.715 211.25 144.352 211.25 129.457 224.5L120.012 233C116.258 236.25 110.688 237 106.328 234.625C101.848 232.25 99.426 227.25 100.152 222.25C104.148 197 134.422 180.125 160.094 180.125S216.039 197 220.035 222.25C220.762 227.25 218.34 232.25 213.859 234.625C208.047 237.75 202.719 235.25 200.176 233L190.488 224.5ZM256 416C229.48 416 208.047 387.25 208.047 352S229.48 288 256 288S303.953 316.75 303.953 352S282.52 416 256 416ZM405.793 234.5C399.98 237.625 394.652 235.25 392.109 232.875L382.543 224.375C367.77 211.25 336.406 211.25 321.633 224.375L311.945 233C308.191 236.25 302.742 237 298.262 234.625C293.902 232.25 291.359 227.25 292.207 222.25C296.203 197 326.355 180.125 352.148 180.125C377.82 180.125 407.973 197 411.969 222.25C412.574 227.125 410.152 232.125 405.793 234.5Z"/></svg>