<svg xmlns="http://www.w3.org/2000/svg" viewBox="0 0 512 512"><!-- Font Awesome Pro 6.0.0-alpha2 by @fontawesome - https://fontawesome.com License - https://fontawesome.com/license (Commercial License) --><path d="M483.356 244.239L351.87 287.986H449.61C439.736 298.61 453.359 284.861 403.365 334.857L255.755 383.979H353.995C279.002 457.098 159.39 454.598 107.145 438.974L41.027 504.969C31.653 514.344 16.405 514.344 7.031 504.969C-2.344 495.595 -2.344 480.346 7.031 470.972L266.504 211.742C272.753 205.492 272.753 195.368 266.504 189.119C260.254 182.869 250.13 182.869 243.881 189.119L65.524 367.355C58.775 306.985 68.649 216.617 129.143 156.246C153.89 131.498 136.267 149.122 214.884 70.628C305.5 -19.99 404.614 -17.615 467.108 44.88C517.728 95.376 528.852 169.745 483.356 244.239Z"/></svg>