<svg xmlns="http://www.w3.org/2000/svg" viewBox="0 0 512 512"><!-- Font Awesome Pro 6.0.0-alpha2 by @fontawesome - https://fontawesome.com License - https://fontawesome.com/license (Commercial License) --><path d="M467.119 241.953L352 288H446.338C438.627 302.852 430.051 317.279 420.465 331.014L288 384H373.65C314.314 436.707 229.619 464.289 109.166 436.772L40.969 504.969C31.589 514.349 16.405 514.343 7.031 504.969C-2.344 495.594 -2.344 480.406 7.031 471.031L260.426 217.637C265.271 211.361 265.068 202.443 259.312 196.688C253.062 190.438 242.937 190.438 236.687 196.688L68.115 365.26C24.559 58.004 366.914 8.115 478.865 0.082C497.73 -1.271 513.271 14.27 511.918 33.135C508.66 78.526 498.461 161.828 467.119 241.953Z"/></svg>