<svg xmlns="http://www.w3.org/2000/svg" viewBox="0 0 384 512"><!-- Font Awesome Pro 6.0.0-alpha2 by @fontawesome - https://fontawesome.com License - https://fontawesome.com/license (Commercial License) --><path d="M224 128V0H48C21.49 0 0 21.492 0 48V464C0 490.508 21.49 512 48 512H336C362.51 512 384 490.508 384 464V160H256C238.326 160 224 145.672 224 128ZM96 224C113.674 224 128 238.328 128 256S113.674 288 96 288S64 273.672 64 256S78.326 224 96 224ZM318.107 439.549C315.322 444.752 309.9 448 304 448H80C74.1 448 68.678 444.752 65.893 439.549C63.109 434.348 63.414 428.033 66.688 423.125L120.021 343.125C122.988 338.674 127.984 336 133.334 336S143.68 338.674 146.646 343.125L160 363.156L205.354 295.125C208.32 290.674 213.316 288 218.666 288S229.012 290.674 231.979 295.125L317.312 423.125C320.586 428.033 320.891 434.348 318.107 439.549ZM256 0V128H384L256 0Z"/></svg>