<svg xmlns="http://www.w3.org/2000/svg" viewBox="0 0 384 512"><!-- Font Awesome Pro 6.0.0-alpha2 by @fontawesome - https://fontawesome.com License - https://fontawesome.com/license (Commercial License) --><path d="M384 128H256V0L384 128ZM256 160H384V464C384 490.508 362.508 512 336 512H48C21.492 512 0 490.508 0 464V48C0 21.492 21.492 0 48 0H224V128C224 145.672 238.328 160 256 160ZM245.781 264.359L166.656 356.703L136.969 327.016C127.594 317.641 112.406 317.641 103.031 327.016S93.656 351.578 103.031 360.953L151.031 408.953C155.531 413.453 161.656 415.984 168 415.984C168.312 415.984 168.625 415.984 168.906 415.953C175.594 415.703 181.875 412.672 186.219 407.609L282.219 295.609C290.844 285.547 289.687 270.391 279.625 261.766C269.594 253.172 254.438 254.297 245.781 264.359Z"/></svg>