<svg xmlns="http://www.w3.org/2000/svg" viewBox="0 0 384 512"><!-- Font Awesome Pro 6.0.0-alpha2 by @fontawesome - https://fontawesome.com License - https://fontawesome.com/license (Commercial License) --><path d="M224 128V0H48C21.49 0 0 21.492 0 48V464C0 490.508 21.49 512 48 512H336C362.51 512 384 490.508 384 464V160H256C238.326 160 224 145.672 224 128ZM151.08 432.922C149.125 434.879 146.637 436.207 143.928 436.75L88.379 447.859C83.482 448.84 79.164 444.52 80.143 439.625L91.25 384.082C91.793 381.371 93.125 378.879 95.08 376.926L192.689 279.313L248.695 335.32L151.08 432.922ZM279.391 232.207L295.803 248.621C306.738 259.555 306.736 277.285 295.801 288.219L271.32 312.695L215.314 256.688L239.795 232.207C250.729 221.273 268.457 221.273 279.391 232.207ZM256 0V128H384L256 0Z"/></svg>