<svg xmlns="http://www.w3.org/2000/svg" viewBox="0 0 384 512"><!-- Font Awesome Pro 6.0.0-alpha2 by @fontawesome - https://fontawesome.com License - https://fontawesome.com/license (Commercial License) --><path d="M256 0V128H384L256 0ZM224 128V0H48C21.492 0 0 21.492 0 48V464C0 490.508 21.492 512 48 512H336C362.508 512 384 490.508 384 464V160H256C238.328 160 224 145.672 224 128ZM288 301.711V338.285C288 345.859 281.859 352 274.285 352H224V402.285C224 409.859 217.859 416 210.285 416H173.715C166.141 416 160 409.859 160 402.285V352H109.715C102.141 352 96 345.859 96 338.285V301.711C96 294.141 102.141 288 109.715 288H160V237.711C160 230.141 166.141 224 173.715 224H210.285C217.859 224 224 230.141 224 237.711V288H274.285C281.859 288 288 294.141 288 301.711Z"/></svg>