<svg xmlns="http://www.w3.org/2000/svg" viewBox="0 0 384 512"><!-- Font Awesome Pro 6.0.0-alpha2 by @fontawesome - https://fontawesome.com License - https://fontawesome.com/license (Commercial License) --><path d="M256 0V128H384L256 0ZM224 128V0H48C21.492 0 0 21.492 0 48V464C0 490.508 21.492 512 48 512H336C362.508 512 384 490.508 384 464V160H256C238.328 160 224 145.672 224 128ZM272 416H112C103.164 416 96 408.836 96 400C96 391.162 103.164 384 112 384H272C280.836 384 288 391.162 288 400C288 408.836 280.836 416 272 416ZM272 352H112C103.164 352 96 344.836 96 336C96 327.162 103.164 320 112 320H272C280.836 320 288 327.162 288 336C288 344.836 280.836 352 272 352ZM288 272C288 280.836 280.836 288 272 288H112C103.164 288 96 280.836 96 272C96 263.162 103.164 256 112 256H272C280.836 256 288 263.162 288 272Z"/></svg>