<svg xmlns="http://www.w3.org/2000/svg" viewBox="0 0 384 512"><!-- Font Awesome Pro 6.0.0-alpha2 by @fontawesome - https://fontawesome.com License - https://fontawesome.com/license (Commercial License) --><path d="M176 240H128V272H176C184.875 272 192 264.875 192 256S184.875 240 176 240ZM256 0V128H384L256 0ZM224 128V0H48C21.49 0 0 21.492 0 48V464C0 490.508 21.49 512 48 512H336C362.51 512 384 490.508 384 464V160H256C238.326 160 224 145.672 224 128ZM292.5 315.5L303.875 326.75C310.125 333 310.125 343.125 303.875 349.375L273.999 379.375L304 409.375C310.25 415.625 310.25 425.75 304 432L292.75 443.375C286.5 449.625 276.25 449.625 269.999 443.375L240 413.25L209.999 443.25C203.75 449.5 193.5 449.5 187.25 443.25L176 432C169.75 425.75 169.75 415.625 176 409.375L205.999 379.25L146.75 320H128V368C128 376.875 120.875 384 112 384H96C87.125 384 80 376.875 80 368V208C80 199.125 87.125 192 96 192H176C211.375 192 240 220.625 240 256C240 280.25 226.375 301 206.5 311.875L240 345.375L269.875 315.5C276.125 309.25 286.25 309.25 292.5 315.5Z"/></svg>