<svg xmlns="http://www.w3.org/2000/svg" viewBox="0 0 576 512"><!-- Font Awesome Pro 6.0.0-alpha2 by @fontawesome - https://fontawesome.com License - https://fontawesome.com/license (Commercial License) --><path d="M502.625 217L295 9.375C288.75 3.125 280.5 0 272.25 0C264.125 0 255.875 3.125 249.75 9.375L168.125 91L86.497 9.346C74.011 -3.14 53.76 -3.112 41.309 9.408L41.309 9.408C28.873 21.914 28.901 42.125 41.372 54.597L122.875 136.125L28.125 231C-9.375 268.375 -9.375 329.25 28.125 366.75L145.25 483.875C164 502.625 188.625 512 213.125 512C237.75 512 262.25 502.625 281 483.875L502.625 262.25C515.12 249.755 515.12 229.495 502.625 217ZM386.375 288H65.875C67.25 284.25 69.5 280 73.375 276.25L86.5 263L168.125 181.5L217.375 230.625C229.875 243.125 250.125 243.125 262.625 230.625S275.125 197.875 262.625 185.375L213.375 136.25L272.25 77.25L434.75 239.75L386.375 288ZM512 320C512 320 448 412.625 448 448S476.625 512 512 512S576 483.375 576 448S512 320 512 320Z"/></svg>