<svg xmlns="http://www.w3.org/2000/svg" viewBox="0 0 640 512"><!-- Font Awesome Pro 6.0.0-alpha2 by @fontawesome - https://fontawesome.com License - https://fontawesome.com/license (Commercial License) --><path d="M630.812 469.109L575.999 426.148V80C575.999 53.49 554.509 32 527.999 32H111.999C101.697 32 92.206 35.312 84.388 40.836L38.812 5.113C28.343 -3.059 13.312 -1.246 5.109 9.191C-3.063 19.629 -1.235 34.723 9.187 42.895L601.187 506.891C605.593 510.328 610.796 512 615.984 512C623.109 512 630.156 508.844 634.89 502.812C643.062 492.375 641.234 477.281 630.812 469.109ZM415.999 208C415.999 216.836 408.835 224 399.999 224H318.083L223.999 150.26V112C223.999 103.162 231.163 96 239.999 96H399.999C408.835 96 415.999 103.162 415.999 112V208ZM527.999 388.527L481.396 352H519.999C524.417 352 527.999 355.582 527.999 360V388.527ZM527.999 280C527.999 284.418 524.417 288 519.999 288H471.999C467.581 288 463.999 284.418 463.999 280V232C463.999 227.582 467.581 224 471.999 224H519.999C524.417 224 527.999 227.582 527.999 232V280ZM527.999 152C527.999 156.418 524.417 160 519.999 160H471.999C467.581 160 463.999 156.418 463.999 152V104C463.999 99.582 467.581 96 471.999 96H519.999C524.417 96 527.999 99.582 527.999 104V152ZM399.999 416H239.999C231.163 416 223.999 408.836 223.999 400V304C223.999 295.162 231.163 288 239.999 288H244.081L175.999 234.639V280C175.999 284.418 172.417 288 167.999 288H119.999C115.581 288 111.999 284.418 111.999 280V232C111.999 227.582 115.581 224 119.999 224H162.425L63.999 146.855V432C63.999 458.51 85.49 480 111.999 480H489.048L405.878 414.812C404.052 415.539 402.085 416 399.999 416ZM175.999 408C175.999 412.418 172.417 416 167.999 416H119.999C115.581 416 111.999 412.418 111.999 408V360C111.999 355.582 115.581 352 119.999 352H167.999C172.417 352 175.999 355.582 175.999 360V408Z"/></svg>