<svg xmlns="http://www.w3.org/2000/svg" viewBox="0 0 512 512"><!-- Font Awesome Pro 6.0.0-alpha2 by @fontawesome - https://fontawesome.com License - https://fontawesome.com/license (Commercial License) --><path d="M480 224H352C334.326 224 320 238.326 320 256C320 273.672 334.326 288 352 288H480C497.674 288 512 273.672 512 256C512 238.326 497.674 224 480 224ZM480 384H352C334.326 384 320 398.326 320 416C320 433.672 334.326 448 352 448H480C497.674 448 512 433.672 512 416C512 398.326 497.674 384 480 384ZM448 128H480C497.674 128 512 113.672 512 96C512 78.326 497.674 64 480 64H448C430.326 64 416 78.326 416 96C416 113.672 430.326 128 448 128ZM329.518 64H22.482C3.582 64 -6.85 85.5 5.07 99.877L128 244.635V388C128 393.871 130.859 399.379 135.689 402.742L195.687 444.73C207.523 453.016 224 444.625 224 429.986V244.635L346.93 99.877C358.85 85.5 348.416 64 329.518 64Z"/></svg>