<svg xmlns="http://www.w3.org/2000/svg" viewBox="0 0 576 512"><!-- Font Awesome Pro 6.0.0-alpha2 by @fontawesome - https://fontawesome.com License - https://fontawesome.com/license (Commercial License) --><path d="M382.758 199.143L504.625 52.186C521.965 31.275 506.787 0 479.299 0H32.701C5.213 0 -9.965 31.275 7.375 52.186L192 274.822V368C192 375.828 195.813 383.172 202.25 387.656L269.125 434.455C260.719 413.93 256 391.516 256 368C256 288.057 309.625 220.51 382.758 199.143ZM432 224C352.471 224 288 288.471 288 368S352.471 512 432 512S576 447.529 576 368S511.53 224 432 224ZM488.514 401.908C494.756 408.15 494.756 418.271 488.514 424.514C482.274 430.756 472.151 430.756 465.908 424.514L432.002 390.607L398.092 424.518C391.85 430.76 381.729 430.76 375.487 424.518S369.244 408.154 375.487 401.912L409.397 368.002L375.483 334.088C369.24 327.846 369.24 317.725 375.483 311.482S391.848 305.24 398.09 311.482L432.002 345.396L465.912 311.486C472.155 305.244 482.276 305.244 488.518 311.486S494.76 327.85 488.518 334.092L454.608 368.002L488.514 401.908Z"/></svg>