<svg xmlns="http://www.w3.org/2000/svg" viewBox="0 0 640 512"><!-- Font Awesome Pro 6.0.0-alpha2 by @fontawesome - https://fontawesome.com License - https://fontawesome.com/license (Commercial License) --><path d="M592 0H48C39.25 0 32 7.25 32 16V80C32 88.75 39.25 96 48 96H592C600.75 96 608 88.75 608 80V16C608 7.25 600.75 0 592 0ZM64 512H160V352C160 263.633 231.635 192 320 192S480 263.633 480 352V512H576V128H64V512ZM342.25 311.625C328.25 292.75 310.875 273.75 291.25 256C240.75 301.625 204.75 361 204.75 396.75C204.75 460.375 256.375 512 320 512S435.25 460.375 435.25 396.75C435.25 370.25 408.5 315.25 371.25 281.625C360.5 291.25 350.75 301.375 342.25 311.625ZM357.75 448.5C347.25 456.25 334.125 460.75 320 460.75C284.75 460.75 256 436.375 256 396.75C256 377.125 267.875 359.75 291.625 330.001C295 334.125 339.875 394.125 339.875 394.125L368.625 359.875C370.625 363.375 372.5 366.75 374.125 370.125C387.5 396.75 381.875 430.875 357.75 448.5Z"/></svg>