<svg xmlns="http://www.w3.org/2000/svg" viewBox="0 0 448 512"><!-- Font Awesome Pro 6.0.0-alpha2 by @fontawesome - https://fontawesome.com License - https://fontawesome.com/license (Commercial License) --><path d="M437.232 403.5L319.992 215V64H327.991C341.24 64 351.989 53.25 351.989 40V24C351.989 10.75 341.24 0 327.991 0H120.009C106.76 0 96.011 10.75 96.011 24V40C96.011 53.25 106.76 64 120.009 64H128.008V215L10.768 403.5C-18.479 450.625 15.268 512 70.888 512H377.112C432.732 512 466.479 450.5 437.232 403.5ZM137.882 320L186.128 242.375C189.753 237.25 191.878 230.75 191.878 224V64H255.872V224C255.872 230.875 258.122 237.25 261.747 242.375L309.868 320H137.882Z"/></svg>