<svg xmlns="http://www.w3.org/2000/svg" viewBox="0 0 448 512"><!-- Font Awesome Pro 6.0.0-alpha2 by @fontawesome - https://fontawesome.com License - https://fontawesome.com/license (Commercial License) --><path d="M183.98 288C170.734 288 159.984 298.75 159.984 312S170.734 336 183.98 336S207.977 325.25 207.977 312S197.227 288 183.98 288ZM319.965 169V64H327.961C341.219 64 351.961 53.254 351.961 40V24C351.961 10.742 341.219 0 327.961 0H119.992C106.734 0 95.992 10.742 95.992 24V40C95.992 53.254 106.734 64 119.992 64H127.984V168.125C61.617 202.875 16 271.875 16 352C16 405.75 36.375 454.75 69.992 491.75C81.867 504.875 99.117 512 116.988 512H330.961C348.961 512 366.461 504.5 378.461 491.125C410.703 455.375 430.703 408.375 431.953 356.625C433.703 276.75 387.207 205.125 319.965 169ZM287.969 384.125V416C287.969 424.875 280.844 432 271.969 432H175.984C167.109 432 159.984 424.875 159.984 416V384.125C130.984 368.125 111.988 341.875 111.988 312C111.988 263.375 162.109 224 223.977 224S335.961 263.375 335.961 312C335.961 341.875 316.965 368.125 287.969 384.125ZM263.969 288C250.723 288 239.977 298.75 239.977 312S250.723 336 263.969 336C277.219 336 287.969 325.25 287.969 312S277.219 288 263.969 288Z"/></svg>