<svg xmlns="http://www.w3.org/2000/svg" viewBox="0 0 512 512"><!-- Font Awesome Pro 6.0.0-alpha2 by @fontawesome - https://fontawesome.com License - https://fontawesome.com/license (Commercial License) --><path d="M48 432V96C21.49 96 0 117.492 0 144V448C0 483.344 28.654 512 64 512H368C394.51 512 416 490.508 416 464H80C62.326 464 48 449.672 48 432ZM497.938 97.938L414.062 14.062C406.312 6.297 391.094 0 380.125 0H144C117.5 0 96 21.484 96 48V368C96 394.516 117.5 416 144 416H464C490.5 416 512 394.516 512 368V131.875C512 120.906 505.688 105.703 497.938 97.938ZM288 352C252.656 352 224 323.344 224 288S252.656 224 288 224S352 252.656 352 288S323.344 352 288 352ZM384 144C384 152.836 376.836 160 368 160H176C167.164 160 160 152.836 160 144V80C160 71.162 167.164 64 176 64H368C376.836 64 384 71.162 384 80V144Z"/></svg>