<svg xmlns="http://www.w3.org/2000/svg" viewBox="0 0 384 512"><!-- Font Awesome Pro 6.0.0-alpha2 by @fontawesome - https://fontawesome.com License - https://fontawesome.com/license (Commercial License) --><path d="M286.016 125.5L247.471 224H320C337.672 224 352 238.312 352 256S337.672 288 320 288H222.426L172.484 415.625C157.438 454.125 118.266 480 75.016 480H40C17.906 480 0 462.094 0 440S17.906 400 40 400H75.016C85.422 400 94.875 394.438 97.984 386.5L136.529 288H64C46.328 288 32 273.688 32 256S46.328 224 64 224H161.574L211.516 96.375C226.562 57.875 265.734 32 308.984 32H344C366.094 32 384 49.906 384 72S366.094 112 344 112H308.984C298.578 112 289.125 117.562 286.016 125.5Z"/></svg>