<svg xmlns="http://www.w3.org/2000/svg" viewBox="0 0 640 512"><!-- Font Awesome Pro 6.0.0-alpha2 by @fontawesome - https://fontawesome.com License - https://fontawesome.com/license (Commercial License) --><path d="M0 192V320C0 337.625 14.375 352 32 352H96V160H32C14.375 160 0 174.375 0 192ZM608 160H128V352H608C625.625 352 640 337.625 640 320V192C640 174.375 625.625 160 608 160ZM320 280C306.75 280 296 269.25 296 256S306.75 232 320 232S344 242.75 344 256S333.25 280 320 280ZM416 280C402.75 280 392 269.25 392 256S402.75 232 416 232S440 242.75 440 256S429.25 280 416 280ZM512 280C498.75 280 488 269.25 488 256S498.75 232 512 232S536 242.75 536 256S525.25 280 512 280Z"/></svg>