<svg xmlns="http://www.w3.org/2000/svg" viewBox="0 0 576 512"><!-- Font Awesome Pro 6.0.0-alpha2 by @fontawesome - https://fontawesome.com License - https://fontawesome.com/license (Commercial License) --><path d="M271.344 216.285C240.47 216.824 215.791 242.38 216.33 273.254C216.869 304.128 242.425 328.807 273.299 328.268S328.852 302.174 328.313 271.299C327.774 240.425 302.219 215.746 271.344 216.285ZM493.216 92.394L301.245 95.745L236.138 32.872L76.162 35.664C49.666 36.127 28.545 57.999 29.007 84.495L35.151 436.441C35.613 462.937 57.485 484.058 83.981 483.596L499.918 476.336C526.414 475.873 547.535 454.001 547.073 427.505L542.046 139.549C541.584 113.053 519.712 91.932 493.216 92.394ZM413.849 397.83L402.738 409.334C396.6 415.692 386.47 415.869 380.114 409.729L327.119 360.228C311.662 369.882 293.685 375.92 274.137 376.261C216.708 377.263 169.34 331.521 168.338 274.092S213.078 169.295 270.507 168.293C327.935 167.29 375.304 213.033 376.306 270.462C376.663 290.904 370.883 309.937 360.977 326.191L413.454 375.204C419.81 381.344 419.987 391.476 413.849 397.83Z"/></svg>