<svg xmlns="http://www.w3.org/2000/svg" viewBox="0 0 640 512"><!-- Font Awesome Pro 6.0.0-alpha2 by @fontawesome - https://fontawesome.com License - https://fontawesome.com/license (Commercial License) --><path d="M608 384H544V32C544 14.4 529.6 0 512 0H512C494.4 0 480 14.4 480 32V432C480 440.8 487.2 448 496 448H608C625.6 448 640 433.6 640 416V416C640 398.4 625.6 384 608 384ZM416 237.125C416 228.375 414.25 219.875 410.75 211.875L332.5 29.125C324.875 11.375 307.625 0 288.25 0H144C117.5 0 96 21.5 96 48V160H48C21.5 160 0 181.5 0 208V416C0 469 43 512 96 512S192 469 192 416H256C256 469 299 512 352 512S448 469 448 416C448 387.75 435.5 362.5 416 344.875V237.125ZM96 464C69.5 464 48 442.5 48 416S69.5 368 96 368S144 389.5 144 416S122.5 464 96 464ZM256 256L160 160V64H277.75L352 237.125V256H256ZM352 464C325.5 464 304 442.5 304 416S325.5 368 352 368S400 389.5 400 416S378.5 464 352 464Z"/></svg>