<svg xmlns="http://www.w3.org/2000/svg" viewBox="0 0 576 512"><!-- Font Awesome Pro 6.0.0-alpha2 by @fontawesome - https://fontawesome.com License - https://fontawesome.com/license (Commercial License) --><path d="M71.492 436.623C66.809 441.084 64.09 447.248 64.002 453.748C63.914 460.201 66.455 466.451 71.03 471.029L104.971 504.967C109.545 509.545 115.797 512.084 122.25 511.998C128.746 511.904 134.912 509.189 139.375 504.506L261.545 377.678L197.658 315.077L71.492 436.623ZM569.605 93.836C563.24 88.977 554.27 89.594 548.613 95.25L446.789 197.078L434.393 184.679L527.045 71.43C532.26 65.07 531.797 55.809 525.984 50C520.174 44.188 510.914 43.723 504.551 48.938L391.303 141.59L378.906 129.195L480.731 27.371C486.387 21.711 487.006 12.743 482.145 6.379C477.393 -0.273 468.488 -1.796 461.527 2.157L363.283 57.844C334.779 76.313 316.371 106.258 312.793 140.066C310.756 159.398 314.24 178.296 321.649 195.621L287.402 228.617L56.135 7.028C46.811 -2.296 31.608 -2.386 22.194 7.028C-17.867 47.086 -27.5 290.616 204.649 277.12L436.207 504.037C440.604 508.92 446.815 511.814 453.398 511.99C460.006 512.146 466.369 509.627 471.031 504.967L504.973 471.022C514.342 461.654 514.342 446.451 504.973 437.084L348.627 287.28L380.363 254.335C397.686 261.741 416.586 265.226 435.918 263.191C469.727 259.609 499.668 241.202 518.604 211.882L573.824 114.453C577.781 107.492 576.322 98.656 569.605 93.836Z"/></svg>