<svg xmlns="http://www.w3.org/2000/svg" viewBox="0 0 320 512"><!-- Font Awesome Pro 6.0.0-alpha2 by @fontawesome - https://fontawesome.com License - https://fontawesome.com/license (Commercial License) --><path d="M128 112V192H248C270.094 192 288 209.906 288 232S270.094 272 248 272H128V320H192C209.688 320 224 334.328 224 352S209.688 384 192 384H128V440C128 462.094 110.094 480 88 480S48 462.094 48 440V384H32C14.312 384 0 369.672 0 352S14.312 320 32 320H48V72C48 49.906 65.906 32 88 32H280C302.094 32 320 49.906 320 72S302.094 112 280 112H128Z"/></svg>