<svg xmlns="http://www.w3.org/2000/svg" viewBox="0 0 448 512"><!-- Font Awesome Pro 6.0.0-alpha2 by @fontawesome - https://fontawesome.com License - https://fontawesome.com/license (Commercial License) --><path d="M224 480C164.172 480 107.906 456.688 65.609 414.375C23.297 372.094 0 315.844 0 256S23.297 139.906 65.609 97.625C107.906 55.312 164.172 32 224 32S340.094 55.312 382.391 97.625C401.141 116.375 401.141 146.75 382.391 165.5S333.234 184.25 314.516 165.5C266.141 117.125 181.859 117.125 133.484 165.5C109.312 189.688 96 221.812 96 256S109.312 322.312 133.484 346.5C181.859 394.875 266.141 394.875 314.516 346.5C322.875 338.125 330.094 329.188 336 320H240C213.484 320 192 298.5 192 272S213.484 224 240 224H400C426.516 224 448 245.5 448 272V288C448 290.906 447.734 293.812 447.203 296.688C439.516 338.469 416.5 380.281 382.391 414.375C340.094 456.688 283.828 480 224 480Z"/></svg>