<svg xmlns="http://www.w3.org/2000/svg" viewBox="0 0 640 512"><!-- Font Awesome Pro 6.0.0-alpha2 by @fontawesome - https://fontawesome.com License - https://fontawesome.com/license (Commercial License) --><path d="M448 64H192C85.961 64 0 149.961 0 256S85.961 448 192 448H448C554.039 448 640 362.039 640 256S554.039 64 448 64ZM248.055 267.988C248.055 274.613 242.68 279.988 236.055 279.988H184.055V331.988C184.055 338.613 178.68 343.988 172.055 343.988H148.055C141.43 343.988 136.055 338.613 136.055 331.988V279.988H84.055C77.43 279.988 72.055 274.613 72.055 267.988V243.988C72.055 237.363 77.43 231.988 84.055 231.988H136.055V179.988C136.055 173.363 141.43 167.988 148.055 167.988H172.055C178.68 167.988 184.055 173.363 184.055 179.988V231.988H236.055C242.68 231.988 248.055 237.363 248.055 243.988V267.988ZM432 344.012C409.875 344.012 392 326.137 392 304.012S409.875 264.012 432 264.012S472 281.887 472 304.012S454.125 344.012 432 344.012ZM496 248C473.875 248 456 230.125 456 208S473.875 168 496 168S536 185.875 536 208S518.125 248 496 248Z"/></svg>