<svg xmlns="http://www.w3.org/2000/svg" viewBox="0 0 448 512"><!-- Font Awesome Pro 6.0.0-alpha2 by @fontawesome - https://fontawesome.com License - https://fontawesome.com/license (Commercial License) --><path d="M384 416H64L16.625 487.125C9.5 497.75 17.125 512 29.875 512H418.125C430.875 512 438.5 497.75 431.375 487.125L384 416ZM192 384V352H134.125C119.875 352 112.125 337 121.25 327.125L186.75 256H156.625C145.875 256 140.125 244.75 146.875 237.25L214.25 164.125C219.25 158.625 228.625 158.625 233.625 164.125L301 237.25C307.75 244.75 302 256 291.25 256H261.25L326.75 327.125C335.75 337 328 352 313.75 352H256V384H380.125C421.75 343.375 448 286.875 448 224C448 100.25 347.75 0 224 0S0 100.25 0 224C0 286.875 26.125 343.375 67.875 384H192ZM336 160C344.75 160 352 167.25 352 176S344.75 192 336 192S320 184.75 320 176S327.25 160 336 160ZM240 64C248.75 64 256 71.25 256 80S248.75 96 240 96S224 88.75 224 80S231.25 64 240 64ZM80 224C88.75 224 96 231.25 96 240S88.75 256 80 256S64 248.75 64 240S71.25 224 80 224Z"/></svg>