<svg xmlns="http://www.w3.org/2000/svg" viewBox="0 0 384 512"><!-- Font Awesome Pro 6.0.0-alpha2 by @fontawesome - https://fontawesome.com License - https://fontawesome.com/license (Commercial License) --><path d="M69.5 317.119C132.375 273.993 231.375 222.617 308.125 243.242C319.875 246.367 328 256.993 328 269.118C328 288.369 312.375 303.869 293.25 303.869H184C170.75 303.869 160 314.619 160 327.87V351.87H293.25C338.875 351.87 376 314.869 376 269.118C376 235.242 353.25 205.616 320.625 196.866C243.125 176.115 183 80.863 150.875 13.611C141.25 -6.515 111.75 -3.64 105.999 17.736L32.875 290.994C27 312.619 51.375 329.495 69.5 317.119ZM368 447.998H352V415.997C352 398.372 337.625 383.996 320 383.996H64C46.375 383.996 32 398.372 32 415.997V447.998H16C7.125 447.998 0 455.123 0 463.999V496C0 504.875 7.125 512 16 512H368C376.875 512 384 504.875 384 496V463.999C384 455.123 376.875 447.998 368 447.998Z"/></svg>