<svg xmlns="http://www.w3.org/2000/svg" viewBox="0 0 576 512"><!-- Font Awesome Pro 6.0.0-alpha2 by @fontawesome - https://fontawesome.com License - https://fontawesome.com/license (Commercial License) --><path d="M352 309.361V288H366.824C384.611 262.926 402.699 236.561 414.773 196.576C419.771 180.035 432.318 167.656 448 162.574V96C448 60.652 419.346 32 384 32H64C28.654 32 0 60.652 0 96V416C0 451.346 28.654 480 64 480H344.217C328.967 457.262 320 430.004 320 400.672C320 362.945 334.801 334.967 352 309.361ZM352 96H384V224H352V96ZM96 416H64V288H96V416ZM96 224H64V96H96V224ZM192 416H160V288H192V416ZM192 224H160V96H192V224ZM288 416H256V288H288V416ZM288 224H256V96H288V224ZM482.594 205.83C477.562 187.783 451.094 187.002 445.406 205.83C415.656 304.344 352 331.219 352 400.672C352 462.156 402.094 512 464 512S576 462.156 576 400.672C576 330.828 512.49 304.891 482.594 205.83Z"/></svg>