<svg xmlns="http://www.w3.org/2000/svg" viewBox="0 0 384 512"><!-- Font Awesome Pro 6.0.0-alpha2 by @fontawesome - https://fontawesome.com License - https://fontawesome.com/license (Commercial License) --><path d="M281.875 224H177.875V145.301C197.26 148.133 216.199 155.771 232.563 169.125C249.625 183.125 274.875 180.531 288.844 163.422S300.25 121.109 283.125 107.156C251.807 81.592 215.096 67.715 177.875 64.547V32C177.875 14.328 163.563 0 145.875 0S113.875 14.328 113.875 32V70.08C77.201 79.59 42.834 99.754 16 130.891C-45.531 202.219 -45.531 309.781 16 381.109C42.824 412.199 77.145 432.484 113.875 441.926V480C113.875 497.672 128.188 512 145.875 512S177.875 497.672 177.875 480V446.732C215.441 443.432 252.689 429.635 284.75 403.453C308.344 382 321.875 351.422 321.875 319.531V264C321.875 241.906 303.969 224 281.875 224ZM76.563 328.859C40.719 287.328 40.719 224.672 76.563 183.141C87.275 170.744 100.074 161.441 113.875 154.867V263.381C113.871 263.6 113.75 263.781 113.75 264S113.871 264.4 113.875 264.619V357.133C100.074 350.559 87.275 341.256 76.563 328.859ZM241.875 319.531C241.875 328.922 237.875 337.938 232.563 342.875C216.199 356.229 197.26 363.867 177.875 366.699V304H241.875V319.531Z"/></svg>