<svg xmlns="http://www.w3.org/2000/svg" viewBox="0 0 512 512"><!-- Font Awesome Pro 6.0.0-alpha2 by @fontawesome - https://fontawesome.com License - https://fontawesome.com/license (Commercial License) --><path d="M511.18 39.518C507.556 20.269 492.558 5.145 473.311 1.27C450.439 -2.98 450.564 0.77 366.7 54.892C357.576 60.767 351.952 70.892 351.952 81.891V115.139L243.717 223.258C236.093 211.884 234.843 197.26 240.592 184.76L257.84 147.637C261.714 139.388 259.089 129.513 251.59 124.264C244.091 119.139 233.968 120.014 227.469 126.389L189.099 164.762C180.975 172.886 174.726 182.761 170.976 193.51C163.852 213.134 149.354 229.133 130.357 237.883L53.992 273.256C-3.25 296.13 -18.373 370.001 25.121 413.498L98.486 486.869C142.105 530.367 215.97 515.243 238.842 458.121L274.212 381.75C283.086 362.751 299.084 348.127 318.706 341.252C329.455 337.377 339.329 331.128 347.578 323.003L369.075 301.504C375.574 295.005 376.824 284.88 372.074 277.006C367.2 269.131 357.701 265.631 348.952 268.506L325.206 276.006C312.582 279.88 298.834 277.256 288.461 268.881L461.562 96.015C462.312 96.015 463.062 96.39 463.937 96.39C478.185 96.39 491.808 90.015 500.932 79.016S513.805 53.642 511.18 39.518ZM181.6 394.374L170.351 405.624C167.227 408.749 162.102 408.749 158.978 405.624L106.36 353.002C104.86 351.502 103.985 349.502 103.985 347.377S104.86 343.127 106.36 341.627L117.608 330.378C119.108 328.878 121.108 328.003 123.233 328.003C125.357 328.003 127.482 328.878 128.982 330.378L181.6 383C183.1 384.5 183.975 386.5 183.975 388.625S183.1 392.874 181.6 394.374ZM245.591 330.378L234.343 341.627C231.218 344.752 226.094 344.752 222.969 341.627L170.351 289.005C168.852 287.505 167.977 285.505 167.977 283.38C167.977 281.255 168.852 279.13 170.351 277.631L181.6 266.381C183.1 264.881 185.099 264.006 187.224 264.006C189.349 264.006 191.474 264.881 192.973 266.381L245.591 319.003C247.091 320.503 247.966 322.503 247.966 324.628S247.091 328.878 245.591 330.378Z"/></svg>