<svg xmlns="http://www.w3.org/2000/svg" viewBox="0 0 576 512"><!-- Font Awesome Pro 6.0.0-alpha2 by @fontawesome - https://fontawesome.com License - https://fontawesome.com/license (Commercial License) --><path d="M280 64C257.906 64 240 81.906 240 104V216H80V104C80 81.906 62.094 64 40 64S0 81.906 0 104V408C0 430.094 17.906 448 40 448S80 430.094 80 408V296H240V408C240 430.094 257.906 448 280 448S320 430.094 320 408V104C320 81.906 302.094 64 280 64ZM536 367.992H520.375V103.967C520.375 89.027 512.063 75.34 498.797 68.463C485.594 61.65 469.578 62.682 457.359 71.244L401.359 110.654C383.281 123.375 378.953 148.314 391.656 166.41C402.797 182.225 423.328 187.506 440.375 180.037V367.992H424C401.906 367.992 384 385.9 384 407.996S401.906 448 424 448H536C558.094 448 576 430.092 576 407.996S558.094 367.992 536 367.992Z"/></svg>