<svg xmlns="http://www.w3.org/2000/svg" viewBox="0 0 640 512"><!-- Font Awesome Pro 6.0.0-alpha2 by @fontawesome - https://fontawesome.com License - https://fontawesome.com/license (Commercial License) --><path d="M280 64C257.906 64 240 81.906 240 104V216H80V104C80 81.906 62.094 64 40 64S0 81.906 0 104V408C0 430.094 17.906 448 40 448S80 430.094 80 408V296H240V408C240 430.094 257.906 448 280 448S320 430.094 320 408V104C320 81.906 302.094 64 280 64ZM600 64C577.906 64 560 81.906 560 104V240H455.922L479.359 111.156C483.313 89.406 468.891 68.594 447.156 64.656C425.406 60.75 404.578 75.125 400.641 96.844L368.641 272.844C366.531 284.5 369.687 296.531 377.297 305.625C384.891 314.75 396.141 320 408 320H560V408C560 430.094 577.906 448 600 448S640 430.094 640 408V104C640 81.906 622.094 64 600 64Z"/></svg>