<svg xmlns="http://www.w3.org/2000/svg" viewBox="0 0 640 512"><!-- Font Awesome Pro 6.0.0-alpha2 by @fontawesome - https://fontawesome.com License - https://fontawesome.com/license (Commercial License) --><path d="M216.984 236C205.953 222.25 185.781 219.969 172.016 231C158.203 242.062 155.969 262.188 167.016 276L185.873 306.562C194.773 317.695 193.883 333.734 183.807 343.805C172.021 355.594 152.607 354.516 142.195 341.5L80 256.766V104C80 81.906 62.092 64 40 64S0 81.906 0 104V308.746C0 323.289 4.949 337.395 14.031 348.75L135.016 500C141.082 507.586 150.268 512 159.98 512H256C273.674 512 288 497.672 288 480V358.438C288 336.648 280.586 315.512 266.977 298.5L216.984 236ZM600 64C577.908 64 560 81.906 560 104V256.766L497.805 341.5C487.393 354.516 467.979 355.594 456.193 343.805C446.117 333.734 445.227 317.695 454.127 306.562L472.984 276C484.031 262.188 481.797 242.062 467.984 231C454.219 219.969 434.047 222.25 423.016 236L373.023 298.5C359.414 315.512 352 336.648 352 358.438V480C352 497.672 366.326 512 384 512H480.02C489.732 512 498.918 507.586 504.984 500L625.969 348.75C635.051 337.395 640 323.289 640 308.746V104C640 81.906 622.092 64 600 64ZM391.016 175.859C399.703 125.813 352.109 112.203 326.578 104.906L320.391 103.109C294.984 95.641 295.547 92.422 296.266 88.312C297.422 81.547 311.578 78.25 328.484 80.922C333.422 81.703 339.859 83.469 348.141 86.344C360.672 90.625 374.359 84.031 378.672 71.5S376.359 45.312 363.828 40.969C356.227 38.342 349.916 36.613 344.016 35.25V24C344.016 10.75 333.266 0 320.016 0S296.016 10.75 296.016 24V34.516C270.754 40.232 253.059 56.254 248.955 80.125C240.361 129.609 288.641 143.812 306.859 149.172L313.359 151.047C345.016 160.109 344.516 162.938 343.703 167.688C342.547 174.453 328.453 177.75 311.328 175.047C303.641 173.891 293.672 170.297 284.891 167.125L280.016 165.375C267.486 160.969 253.799 167.5 249.361 179.984S251.486 206.188 263.955 210.625L268.611 212.281C277.096 215.342 286.508 218.379 296.016 220.596V232C296.016 245.25 306.766 256 320.016 256S344.016 245.25 344.016 232V221.574C369.281 215.852 386.9 199.723 391.016 175.859Z"/></svg>