<svg xmlns="http://www.w3.org/2000/svg" viewBox="0 0 448 512"><!-- Font Awesome Pro 6.0.0-alpha2 by @fontawesome - https://fontawesome.com License - https://fontawesome.com/license (Commercial License) --><path d="M384 240C374.852 240 366.385 242.697 359.107 247.143C354.941 224.869 335.467 208 312 208C294.621 208 279.535 217.33 271.111 231.168C266.955 208.883 247.477 192 224 192C211.652 192 200.506 196.797 192 204.459V40C192 17.906 174.094 0 152 0S112 17.906 112 40V264.916L111.988 264.926V335.994C111.988 344.83 104.824 351.994 95.988 351.994C87.15 351.994 79.988 344.83 79.988 335.994V290.525L50 314.516C38.625 323.625 32 337.422 32 352V400C32 410.375 35.375 420.484 41.594 428.797L60.781 454.391C87.844 490.469 130.906 512 176 512H288C291.318 512 294.557 511.662 297.686 511.021C372.506 505.936 432 444.09 432 368V288C432 261.484 410.5 240 384 240Z"/></svg>