<svg xmlns="http://www.w3.org/2000/svg" viewBox="0 0 640 512"><!-- Font Awesome Pro 6.0.0-alpha2 by @fontawesome - https://fontawesome.com License - https://fontawesome.com/license (Commercial License) --><path d="M232 160C227.625 160 224 163.625 224 168V288H256V168C256 163.625 252.375 160 248 160H232ZM168 160C163.625 160 160 163.625 160 168V288H192V168C192 163.625 188.375 160 184 160H168ZM392 160C387.625 160 384 163.625 384 168V288H416V168C416 163.625 412.375 160 408 160H392ZM456 160C451.625 160 448 163.625 448 168V288H480V168C480 163.625 476.375 160 472 160H456ZM544 168C544 163.625 540.375 160 536 160H520C515.625 160 512 163.625 512 168V288H544V168ZM104 160C99.625 160 96 163.625 96 168V288H128V168C128 163.625 124.375 160 120 160H104ZM624 160H592C583.163 160 576 167.163 576 176V288C576 305.6 561.6 320 544 320H352V128C352 119.163 344.837 112 336 112H304C295.163 112 288 119.163 288 128V320H96C78.4 320 64 305.6 64 288V176C64 167.163 56.837 160 48 160H16C7.163 160 0 167.163 0 176V288C0 341.019 42.981 384 96 384H288V448H176C149.49 448 128 469.49 128 496V496C128 504.837 135.163 512 144 512H496C504.837 512 512 504.837 512 496V496C512 469.49 490.51 448 464 448H352V384H544C597.019 384 640 341.019 640 288V176C640 167.163 632.837 160 624 160ZM608 128C621.25 128 632 116 632 101.375C632 86.625 608 48 608 48S584 86.625 584 101.375C584 116 594.75 128 608 128ZM32 128C45.25 128 56 116 56 101.375C56 86.625 32 48 32 48S8 86.625 8 101.375C8 116 18.75 128 32 128ZM320 80C333.25 80 344 68 344 53.375C344 38.625 320 0 320 0S296 38.625 296 53.375C296 68 306.75 80 320 80ZM112 128C125.25 128 136 116 136 101.375C136 86.625 112 48 112 48S88 86.625 88 101.375C88 116 98.75 128 112 128ZM176 128C189.25 128 200 116 200 101.375C200 86.625 176 48 176 48S152 86.625 152 101.375C152 116 162.75 128 176 128ZM240 128C253.25 128 264 116 264 101.375C264 86.625 240 48 240 48S216 86.625 216 101.375C216 116 226.75 128 240 128ZM400 128C413.25 128 424 116 424 101.375C424 86.625 400 48 400 48S376 86.625 376 101.375C376 116 386.75 128 400 128ZM464 128C477.25 128 488 116 488 101.375C488 86.625 464 48 464 48S440 86.625 440 101.375C440 116 450.75 128 464 128ZM528 128C541.25 128 552 116 552 101.375C552 86.625 528 48 528 48S504 86.625 504 101.375C504 116 514.75 128 528 128Z"/></svg>