<svg xmlns="http://www.w3.org/2000/svg" viewBox="0 0 576 512"><!-- Font Awesome Pro 6.0.0-alpha2 by @fontawesome - https://fontawesome.com License - https://fontawesome.com/license (Commercial License) --><path d="M224.023 319.996C224.023 302.371 238.398 288 256.02 288H320.004C337.625 288 351.996 302.371 351.996 319.996V384H466.188L393.609 214.391C387.363 200.016 386.738 183.77 391.734 168.895L397.984 149.898C402.359 136.773 414.609 128.023 428.352 128.023H467.594C481.344 128.023 493.586 136.773 497.961 149.898L511.961 192.016L542.328 114.773C546.203 103.273 543.203 90.648 534.578 82.023L465.219 9.406C455.098 -0.844 439.227 -2.969 426.727 4.281L260.391 107.148C236.773 120.773 218.027 141.398 207.031 166.395L110.281 384H224.023V319.996ZM256.02 384H320.004V319.996H256.02V384ZM553.438 416H22.562C10.102 416 0 426.102 0 438.559V438.676C0 445.219 2.781 451.352 7.688 455.68C30.406 475.73 88.992 512 166.359 512H409.57C486.184 512 545.539 475.742 568.305 455.723C573.219 451.398 576 445.258 576 438.707V438.559C576 426.102 565.898 416 553.438 416Z"/></svg>