<svg xmlns="http://www.w3.org/2000/svg" viewBox="0 0 512 512"><!-- Font Awesome Pro 6.0.0-alpha2 by @fontawesome - https://fontawesome.com License - https://fontawesome.com/license (Commercial License) --><path d="M416.001 32C395.126 32.125 374.876 39 358.251 51.75C334.876 20.5 298 0 256.001 0C214 0 177.126 20.5 153.751 51.75C124.751 29.5 85.751 25.75 53.126 42C20.376 58.125 -0.124 91.5 0.001 128C0.001 169.75 64.001 320 64.001 320H138.448L112.219 162.625C110.751 153.906 116.657 145.656 125.376 144.219C133.938 142.625 142.313 148.625 143.782 157.375L170.885 320H240.001V160C240.001 151.156 247.157 144 256.001 144S272.001 151.156 272.001 160V320H341.116L368.219 157.375C369.688 148.625 378.157 142.625 386.626 144.219C395.344 145.656 401.251 153.906 399.782 162.625L373.553 320H448.001C448.001 320 512.001 169.75 512.001 128C512.001 75 469.001 32 416.001 32ZM64.001 480C64.001 497.602 78.401 512 96.001 512H416.001C433.6 512 448.001 497.602 448.001 480V352H64.001V480Z"/></svg>