<svg xmlns="http://www.w3.org/2000/svg" viewBox="0 0 512 512"><!-- Font Awesome Pro 6.0.0-alpha2 by @fontawesome - https://fontawesome.com License - https://fontawesome.com/license (Commercial License) --><path d="M192 224.062C192 206.344 177.656 192 160 192H144C108.656 192 80 220.703 80 256.125V303.875C80 339.297 108.656 368 144 368H160C177.656 368 192 353.641 192 335.938V224.062ZM256 0C112.906 0 4.562 119.125 0 256V296C0 309.255 10.745 320 24 320H24C37.255 320 48 309.255 48 296V256C48 141.328 141.344 48.203 256 48.188C370.656 48.203 464 141.328 464 256V400C464 422.091 446.091 440 424 440H313.344C305.029 425.711 289.723 416 272 416L241.778 416C218.566 416 197.287 431.696 192.914 454.492C187.028 485.171 210.381 512 240 512H272C289.723 512 305.029 502.289 313.344 488H424C472.601 488 512 448.601 512 400V256C507.438 119.125 399.094 0 256 0ZM368 368C403.344 368 432 339.297 432 303.875V256.125C432 220.703 403.344 192 368 192H352C334.344 192 320 206.359 320 224.062V335.938C320 353.656 334.344 368 352 368H368Z"/></svg>