<svg xmlns="http://www.w3.org/2000/svg" viewBox="0 0 640 512"><!-- Font Awesome Pro 6.0.0-alpha2 by @fontawesome - https://fontawesome.com License - https://fontawesome.com/license (Commercial License) --><path d="M0 367.977V495.965C0 504.715 7.25 511.965 16 511.965H64V351.977H16C7.25 351.977 0 359.227 0 367.977ZM493.432 45.594C493.836 39.379 490.531 33.215 484.625 30.215L427.375 1.715C419.5 -2.285 409.875 0.965 405.875 8.84L238.75 343.215C236.125 348.59 230.625 351.965 224.5 351.965H96V512H222.125C246.25 512 268.5 498.25 279.25 476.625L491.75 51.719C492.75 49.75 493.297 47.668 493.432 45.594ZM624 351.977H576V511.965H624C632.75 511.965 640 504.715 640 495.965V367.977C640 359.227 632.75 351.977 624 351.977ZM248.494 252.141L302.113 144.867L234.125 8.84C230.125 0.965 220.5 -2.285 212.625 1.715L155.375 30.215C147.5 34.215 144.25 43.84 148.25 51.715L248.494 252.141ZM401.25 343.215L391.496 323.699L337.889 430.883L360.75 476.59C371.5 498.215 393.75 511.965 417.875 511.965H544V351.965H415.5C409.375 351.965 403.875 348.59 401.25 343.215Z"/></svg>