<svg xmlns="http://www.w3.org/2000/svg" viewBox="0 0 576 512"><!-- Font Awesome Pro 6.0.0-alpha2 by @fontawesome - https://fontawesome.com License - https://fontawesome.com/license (Commercial License) --><path d="M528 0H336C309.49 0 288 21.49 288 48V48.408C307.311 63.025 320 85.967 320 112V480C320 491.051 316.928 501.299 311.977 510.381C314.604 511.078 317.154 512 320 512H544C561.673 512 576 497.673 576 480V48C576 21.49 554.51 0 528 0ZM368 110.719C368 106.125 371.727 102.398 376.32 102.398H406.398V72.32C406.398 67.727 410.125 64 414.719 64H449.281C453.875 64 457.602 67.727 457.602 72.32V102.398H487.68C492.273 102.398 496 106.125 496 110.719V145.281C496 149.875 492.273 153.602 487.68 153.602H457.602V183.68C457.602 188.273 453.875 192 449.281 192H414.719C410.125 192 406.398 188.273 406.398 183.68V153.602H376.32C371.727 153.602 368 149.875 368 145.281V110.719ZM416 400C416 408.836 408.836 416 400 416H368C359.164 416 352 408.836 352 400V368C352 359.162 359.164 352 368 352H400C408.836 352 416 359.162 416 368V400ZM416 304C416 312.836 408.836 320 400 320H368C359.164 320 352 312.836 352 304V272C352 263.162 359.164 256 368 256H400C408.836 256 416 263.162 416 272V304ZM512 400C512 408.836 504.836 416 496 416H464C455.164 416 448 408.836 448 400V368C448 359.162 455.164 352 464 352H496C504.836 352 512 359.162 512 368V400ZM512 304C512 312.836 504.836 320 496 320H464C455.164 320 448 312.836 448 304V272C448 263.162 455.164 256 464 256H496C504.836 256 512 263.162 512 272V304ZM240 64H48C21.49 64 0 85.49 0 112V480C0 497.673 14.327 512 32 512H272C280.837 512 288 504.837 288 496V112C288 85.49 266.51 64 240 64ZM80 174.719C80 170.125 83.727 166.398 88.32 166.398H118.398V136.32C118.398 131.727 122.125 128 126.719 128H161.281C165.875 128 169.602 131.727 169.602 136.32V166.398H199.68C204.273 166.398 208 170.125 208 174.719V209.281C208 213.875 204.273 217.602 199.68 217.602H169.602V247.68C169.602 252.273 165.875 256 161.281 256H126.719C122.125 256 118.398 252.273 118.398 247.68V217.602H88.32C83.727 217.602 80 213.875 80 209.281V174.719ZM128 432C128 440.836 120.836 448 112 448H80C71.164 448 64 440.836 64 432V400C64 391.162 71.164 384 80 384H112C120.836 384 128 391.162 128 400V432ZM128 336C128 344.836 120.836 352 112 352H80C71.164 352 64 344.836 64 336V304C64 295.162 71.164 288 80 288H112C120.836 288 128 295.162 128 304V336ZM224 432C224 440.836 216.836 448 208 448H176C167.164 448 160 440.836 160 432V400C160 391.162 167.164 384 176 384H208C216.836 384 224 391.162 224 400V432ZM224 336C224 344.836 216.836 352 208 352H176C167.164 352 160 344.836 160 336V304C160 295.162 167.164 288 176 288H208C216.836 288 224 295.162 224 304V336Z"/></svg>