<svg xmlns="http://www.w3.org/2000/svg" viewBox="0 0 512 512"><!-- Font Awesome Pro 6.0.0-alpha2 by @fontawesome - https://fontawesome.com License - https://fontawesome.com/license (Commercial License) --><path d="M480 448V64C497.674 64 512 49.672 512 32C512 14.326 497.674 0 480 0H32C14.326 0 0 14.326 0 32C0 49.672 14.326 64 32 64V448C14.326 448 0 462.326 0 480C0 497.672 14.326 512 32 512H208V416H304V512H480C497.674 512 512 497.672 512 480C512 462.326 497.674 448 480 448ZM224 108.75C224 102.375 230.375 96 236.75 96H275.25C281.625 96 288 102.375 288 108.75V147.25C288 153.625 281.625 160 275.25 160H236.75C230.375 160 224 153.625 224 147.25V108.75ZM224 204.75C224 198.375 230.375 192 236.75 192H275.25C281.625 192 288 198.375 288 204.75V243.25C288 249.625 281.625 256 275.25 256H236.75C230.375 256 224 249.625 224 243.25V204.75ZM96 108.75C96 102.375 102.375 96 108.75 96H147.25C153.625 96 160 102.375 160 108.75V147.25C160 153.625 153.625 160 147.25 160H108.75C102.375 160 96 153.625 96 147.25V108.75ZM147.25 256H108.75C102.375 256 96 249.625 96 243.25V204.75C96 198.375 102.375 192 108.75 192H147.25C153.625 192 160 198.375 160 204.75V243.25C160 249.625 153.625 256 147.25 256ZM160 384C160 331 203 288 256 288S352 331 352 384H160ZM416 243.25C416 249.625 409.625 256 403.25 256H364.75C358.375 256 352 249.625 352 243.25V204.75C352 198.375 358.375 192 364.75 192H403.25C409.625 192 416 198.375 416 204.75V243.25ZM416 147.25C416 153.625 409.625 160 403.25 160H364.75C358.375 160 352 153.625 352 147.25V108.75C352 102.375 358.375 96 364.75 96H403.25C409.625 96 416 102.375 416 108.75V147.25Z"/></svg>