<svg xmlns="http://www.w3.org/2000/svg" viewBox="0 0 576 512"><!-- Font Awesome Pro 6.0.0-alpha2 by @fontawesome - https://fontawesome.com License - https://fontawesome.com/license (Commercial License) --><path d="M565.077 231.908L511.994 185.465V47.996C511.994 39.169 504.838 31.997 495.994 31.997H431.999C423.157 31.997 416.001 39.169 416.001 47.996V101.482L309.08 7.936C303.05 2.654 295.526 0.015 288.004 0.015C281.806 0.015 273.857 1.866 266.925 7.936L10.928 231.908C-11.245 251.315 2.607 287.998 32.006 287.998H64.029V447.989C64.029 483.333 92.683 511.985 128.028 511.985H447.994C483.342 511.985 511.994 483.333 511.994 447.989V287.998H543.999C561.735 287.998 575.999 273.601 575.999 256C575.999 246.948 572.157 238.105 565.077 231.908ZM288.002 192.004C323.348 192.004 352.002 220.656 352.002 256S323.348 319.996 288.002 319.996S224.003 291.344 224.003 256S252.657 192.004 288.002 192.004ZM384.001 447.989H192.004C183.168 447.989 176.004 440.825 176.004 431.99C176.004 387.809 211.82 351.995 256.003 351.995H320.002C364.185 351.995 400.001 387.809 400.001 431.99C400.001 440.825 392.837 447.989 384.001 447.989Z "></path></svg>