<svg xmlns="http://www.w3.org/2000/svg" viewBox="0 0 640 512"><!-- Font Awesome Pro 6.0.0-alpha2 by @fontawesome - https://fontawesome.com License - https://fontawesome.com/license (Commercial License) --><path d="M631.247 457.424L581.155 407.293C575.018 401.168 570.135 393.918 567.005 385.791L546.215 334.285C537.45 346.162 554.104 327.66 498.753 388.041L512.278 421.795C515.534 429.797 520.292 437.172 526.428 443.297L586.04 502.68C598.561 514.555 618.348 514.18 630.622 501.93C642.893 489.678 643.143 469.926 631.247 457.424ZM531.438 262.527L516.161 201.771L543.085 212.648C550.223 215.523 556.108 221.023 559.489 228.023L566.253 241.65C569.883 249.152 576.522 254.902 584.536 257.652C592.551 260.277 601.192 259.652 608.831 255.902C624.485 247.902 630.872 228.775 622.981 213.023L616.344 199.396C605.95 178.52 588.169 162.018 566.503 153.266C529.059 138.139 509.147 127.889 473.081 128.014C426.495 128.139 385.419 159.268 370.641 203.896L360.999 233.275L337.581 245.15C321.926 253.152 315.54 272.279 323.305 288.156C327.061 295.656 333.573 301.408 341.589 304.158C349.602 306.783 358.37 306.158 365.883 302.408L389.176 290.656C404.329 282.906 415.725 269.654 420.985 253.652L426.495 237.15L443.651 305.783L398.192 355.539C390.928 363.289 385.796 372.916 383.29 383.166L360.999 472.176C356.741 489.303 367.135 506.68 384.417 511.055C401.573 515.305 418.981 504.805 423.239 487.678L441.522 414.42C444.153 404.043 449.286 394.543 456.424 386.666L516.536 321.285C531.063 305.408 536.573 283.406 531.438 262.527ZM432.255 96.01C458.803 96.01 480.344 74.508 480.344 48.004C480.344 21.502 458.803 0 432.255 0S384.167 21.502 384.167 48.004C384.167 74.508 405.706 96.01 432.255 96.01ZM375.372 333.287C367.913 336.23 359.876 337.77 351.835 337.77C345.034 337.77 338.311 336.695 331.424 334.436C315.458 328.951 302.499 317.607 294.798 302.221C279.493 270.902 292.253 232.527 323.331 216.633L334.93 210.746L340.467 193.863C349.7 165.961 366.987 142.787 388.784 125.791L261.704 8.486C249.448 -2.83 230.555 -2.83 218.298 8.486L10.294 200.492C0.606 209.43 -2.597 223.367 2.2 235.65C6.997 247.932 18.825 255.994 31.999 255.994H63.997V367.998C63.997 394.398 85.596 416 111.997 416H342.286L352.399 375.584C356.235 359.873 364.057 345.381 374.745 333.973L375.372 333.287ZM223.997 271.994C223.997 280.869 216.872 287.994 207.997 287.994H143.997C135.122 287.994 127.997 280.869 127.997 271.994V207.992C127.997 199.117 135.122 191.992 143.997 191.992H207.997C216.872 191.992 223.997 199.117 223.997 207.992V271.994Z"/></svg>