<svg xmlns="http://www.w3.org/2000/svg" viewBox="0 0 640 512"><!-- Font Awesome Pro 6.0.0-alpha2 by @fontawesome - https://fontawesome.com License - https://fontawesome.com/license (Commercial License) --><path d="M176 216.002V216H176.002C198.127 216 216.002 198.125 216.002 176H216V175.998C216 153.873 198.125 135.998 176 135.998V136H175.998C153.873 136 135.998 153.875 135.998 176H136V176.002C136 198.127 153.875 216.002 176 216.002ZM104 176.002V176H103.998C103.998 136.25 136.248 104 175.998 104H176V103.998C215.75 103.998 248 136.248 248 175.998V176H248.002C248.002 177.973 247.578 179.826 247.422 181.758L293.316 139.393L280.25 132.873L303.25 63.75C303.694 62.491 303.908 61.189 303.908 59.898C303.908 52.362 297.457 48.05 291.96 48.05C290.728 48.05 289.479 48.239 288.25 48.625L219.25 71.625L186.625 6.625C184.625 2.5 180.5 0 176 0H175.998C171.498 0 167.373 2.5 165.373 6.625L132.873 71.75L63.75 48.75C62.491 48.306 61.189 48.092 59.898 48.092C52.362 48.092 48.05 54.543 48.05 60.04C48.05 61.272 48.239 62.521 48.625 63.75L71.625 132.75L6.625 165.375C2.5 167.375 0 171.5 0 176V176.002C0 180.502 2.5 184.627 6.625 186.627L71.75 219.127L48.75 288.25C48.306 289.509 48.092 290.811 48.092 292.102C48.092 299.638 54.543 303.95 60.04 303.95C61.272 303.95 62.521 303.761 63.75 303.375L132.75 280.375L136.766 288.375C139.979 282.756 143.758 277.445 148.59 272.986L175.689 247.971C136.084 247.799 104 215.646 104 176.002ZM629.699 296.5L575.99 246.922V144C575.99 135.162 568.828 128 559.99 128H527.99C519.156 128 511.992 135.162 511.992 143.998V187.848L421.699 104.5C415.572 98.844 407.787 96 400 96C399.997 96 399.995 96 399.992 96C392.206 96 384.422 98.844 378.293 104.5L170.293 296.5C163.598 302.678 160 311.242 160 320C160 337.545 174.211 352 191.996 352H223.994V464C223.994 490.4 245.596 512 271.994 512H527.99C554.391 512 575.99 490.4 575.99 464V352H607.996C625.816 352 640 337.518 640 320C640 311.242 636.396 302.678 629.699 296.5ZM447.992 368C447.992 376.875 440.867 384 431.992 384H367.992C359.117 384 351.992 376.875 351.992 368V304C351.992 295.125 359.117 288 367.992 288H431.992C440.867 288 447.992 295.125 447.992 304V368Z "></path></svg>