<svg xmlns="http://www.w3.org/2000/svg" viewBox="0 0 448 512"><!-- Font Awesome Pro 6.0.0-alpha2 by @fontawesome - https://fontawesome.com License - https://fontawesome.com/license (Commercial License) --><path d="M195.375 493.749C200.5 504.874 211.75 511.999 224 511.999S247.5 504.874 252.625 493.749L352 288H96L195.375 493.749ZM368 160.141H367C367.644 154.596 367.96 149.063 367.96 143.567C367.96 106.956 338.73 -0.001 224 -0.001C108.264 -0.001 80.04 107.195 80.04 143.567C80.04 149.063 80.356 154.596 81 160.141H80C53.5 160.141 32 181.61 32 208.07S53.5 256 80 256H368C394.5 256 416 234.531 416 208.07S394.5 160.141 368 160.141Z "></path></svg>