<svg xmlns="http://www.w3.org/2000/svg" viewBox="0 0 576 512"><!-- Font Awesome Pro 6.0.0-alpha2 by @fontawesome - https://fontawesome.com License - https://fontawesome.com/license (Commercial License) --><path d="M256 128H320C337.674 128 352 113.672 352 96V32C352 14.328 337.674 0 320 0H256C238.326 0 224 14.328 224 32V96C224 113.672 238.326 128 256 128ZM528 64H384V112C384 138.508 362.51 160 336 160H240C213.49 160 192 138.508 192 112V64H48C21.49 64 0 85.492 0 112V464C0 490.508 21.49 512 48 512H528C554.51 512 576 490.508 576 464V112C576 85.492 554.51 64 528 64ZM288 224C323.346 224 352 252.656 352 288S323.346 352 288 352S224 323.344 224 288S252.654 224 288 224ZM384 448H192C183.164 448 176 440.836 176 432C176 405.492 197.49 384 224 384H352C378.51 384 400 405.492 400 432C400 440.836 392.836 448 384 448Z"/></svg>