<svg xmlns="http://www.w3.org/2000/svg" viewBox="0 0 576 512"><!-- Font Awesome Pro 6.0.0-alpha2 by @fontawesome - https://fontawesome.com License - https://fontawesome.com/license (Commercial License) --><path d="M528 32H48C21.49 32 0 53.492 0 80V96H576V80C576 53.492 554.51 32 528 32ZM0 432C0 458.508 21.49 480 48 480H528C554.51 480 576 458.508 576 432V128H0V432ZM368 192H496C504.836 192 512 199.164 512 208S504.836 224 496 224H368C359.164 224 352 216.836 352 208S359.164 192 368 192ZM368 256H496C504.836 256 512 263.164 512 272S504.836 288 496 288H368C359.164 288 352 280.836 352 272S359.164 256 368 256ZM368 320H496C504.836 320 512 327.164 512 336S504.836 352 496 352H368C359.164 352 352 344.836 352 336S359.164 320 368 320ZM176 192C211.346 192 240 220.656 240 256S211.346 320 176 320S112 291.344 112 256S140.654 192 176 192ZM112 352H240C266.51 352 288 373.492 288 400C288 408.836 280.836 416 272 416H80C71.164 416 64 408.836 64 400C64 373.492 85.49 352 112 352Z"/></svg>