<svg xmlns="http://www.w3.org/2000/svg" viewBox="0 0 512 512"><!-- Font Awesome Pro 6.0.0-alpha2 by @fontawesome - https://fontawesome.com License - https://fontawesome.com/license (Commercial License) --><path d="M447.031 56.25C443.469 42 430.688 32 416 32H96C81.312 32 68.531 42 64.969 56.25L3.715 304.918C1.247 314.936 0 325.215 0 335.533V432C0 458.51 21.49 480 48 480H464C490.51 480 512 458.51 512 432V335.533C512 325.215 510.753 314.936 508.285 304.918L447.031 56.25ZM352 352H160L128 288H72.975L121 96H391L439.025 288H384L352 352Z"/></svg>