<svg xmlns="http://www.w3.org/2000/svg" viewBox="0 0 320 512"><!-- Font Awesome Pro 6.0.0-alpha2 by @fontawesome - https://fontawesome.com License - https://fontawesome.com/license (Commercial License) --><path d="M320 176C320 193.672 305.672 208 288.001 208H251.967C240.193 259.414 201.233 300.59 150.739 314.703L272.392 408.297C289.907 421.766 293.173 446.875 279.704 464.391C271.829 474.625 259.97 480 247.971 480C239.455 480 230.877 477.297 223.612 471.703L15.617 311.703C2.039 301.266 -3.383 283.328 2.133 267.125C7.648 250.906 22.882 240 40.007 240H112.005C135.592 240 156.004 227.037 167.103 208H32.007C14.336 208 0.008 193.672 0.008 176S14.336 144 32.007 144H167.103C156.004 124.963 135.592 112 112.005 112H40.007C17.914 112 0.008 94.094 0.008 72S17.914 32 40.007 32H280.001C302.094 32 320 49.906 320 72S302.094 112 280.001 112H240.32C245.391 122.117 249.554 132.707 252.134 144H288.001C305.672 144 320 158.328 320 176Z"/></svg>