<svg xmlns="http://www.w3.org/2000/svg" viewBox="0 0 576 512"><!-- Font Awesome Pro 6.0.0-alpha2 by @fontawesome - https://fontawesome.com License - https://fontawesome.com/license (Commercial License) --><path d="M32 320C14.375 320 0 334.374 0 351.999S14.375 383.999 32 383.999S64 369.624 64 351.999S49.625 320 32 320ZM32 415.999C14.375 415.999 0 430.374 0 447.999S14.375 479.998 32 479.998S64 465.624 64 447.999S49.625 415.999 32 415.999ZM128 367.999C110.375 367.999 96 382.374 96 399.999S110.375 431.999 128 431.999S160 417.624 160 399.999S145.625 367.999 128 367.999ZM32 224C14.375 224 0 238.375 0 256S14.375 288 32 288S64 273.625 64 256S49.625 224 32 224ZM128 272C110.375 272 96 286.375 96 304S110.375 335.999 128 335.999S160 321.625 160 304S145.625 272 128 272ZM327.578 224H224C206.326 224 192 238.328 192 256V447.991C192 465.592 206.4 479.991 224 479.991H470.35C483.146 479.991 494.303 471.459 497.475 459.1L540.262 296.047L356.785 112.571L327.578 224ZM555.223 65.243L434.693 32.978C419.709 28.931 404.396 37.791 400.35 52.775L388.092 98.618L535.746 246.273L575.02 99.587C579.066 84.603 570.207 69.29 555.223 65.243Z"/></svg>