<svg xmlns="http://www.w3.org/2000/svg" viewBox="0 0 576 512"><!-- Font Awesome Pro 6.0.0-alpha2 by @fontawesome - https://fontawesome.com License - https://fontawesome.com/license (Commercial License) --><path d="M352.007 106.61V35.732C352.007 29.732 348.632 24.231 343.131 21.481L303.502 1.731C300.54 0.205 297.855 0 296.374 0C290.092 0 284.031 3.778 281.499 10.106L245.495 100.234C258.622 97.609 272.623 95.984 288 95.984C312.253 95.984 333.255 99.984 352.007 106.61ZM425.532 128.447C415.519 128.447 405.479 129.718 395.762 132.236C414.585 149.137 414.382 151.885 421.139 164.112C389.386 140.486 345.506 127.985 288 127.985S186.614 140.486 154.861 164.112C161.681 151.771 161.445 149.11 180.238 132.236C170.521 129.718 160.481 128.447 150.468 128.447C51.007 128.447 0 254.478 0 319.993C0 384.44 51.255 511.926 151.463 511.926C176.433 511.926 201.424 503.987 220.868 488.124C238.62 503.5 260.747 512 288 512S337.38 503.5 355.257 488.124C374.64 503.987 399.599 511.926 424.553 511.926C524.655 511.926 576 385.93 576 319.993C576 255.817 525.099 128.447 425.532 128.447ZM320.1 281.348C320.1 280.104 320.385 278.908 320.879 277.991L362.008 211.364C363.188 209.067 365.323 207.941 367.587 207.941C369.882 207.941 372.31 209.098 374.009 211.364L415.139 277.991C415.594 278.902 415.863 280.087 415.863 281.321C415.863 284.494 414.088 287.991 409.138 287.991H326.879C321.944 287.991 320.1 284.513 320.1 281.348ZM160.083 281.348C160.083 280.104 160.367 278.908 160.861 277.991L201.991 211.364C203.17 209.067 205.305 207.941 207.569 207.941C209.865 207.941 212.293 209.098 213.992 211.364L255.121 277.991C255.577 278.902 255.846 280.087 255.846 281.321C255.846 284.494 254.07 287.991 249.121 287.991H166.862C161.926 287.991 160.083 284.513 160.083 281.348ZM454.691 324.713C463.168 324.713 470.695 331.657 470.695 340.333C470.695 346.724 461.753 367.596 451.143 382.495C441.767 395.496 429.765 406.371 415.889 415.496C415.639 406.871 408.638 399.996 400.012 399.996H384.01C375.134 399.996 368.009 407.121 368.009 415.996V437.497C344.506 444.372 317.878 447.998 288 447.998S231.494 444.372 207.991 437.497V415.996C207.991 407.121 200.866 399.996 191.99 399.996H175.988C167.237 399.996 160.236 406.996 160.111 415.621C146.36 406.496 134.483 395.871 125.357 383.12C114.515 367.853 105.311 346.922 105.311 340.363C105.311 331.672 112.895 324.713 121.358 324.713C133.685 324.713 162.841 354.093 239.995 365.869V383.995C239.995 392.87 247.121 399.996 255.997 399.996H271.998C280.874 399.996 288 392.87 288 383.995V369.745C388.988 369.745 443.676 324.713 454.691 324.713Z"/></svg>