<svg xmlns="http://www.w3.org/2000/svg" viewBox="0 0 448 512"><!-- Font Awesome Pro 6.0.0-alpha2 by @fontawesome - https://fontawesome.com License - https://fontawesome.com/license (Commercial License) --><path d="M416 352H128V336C128 327.125 120.875 320 112 320H80C71.125 320 64 327.125 64 336V352H32C14.375 352 0 366.375 0 384V480C0 497.625 14.375 512 32 512H416C433.625 512 448 497.625 448 480V384C448 366.375 433.625 352 416 352ZM192 218.75V320H256V218.75C302.125 205 336 162.625 336 112C336 50.125 285.875 0 224 0S112 50.125 112 112C112 162.625 145.875 205 192 218.75ZM200 48C213.25 48 224 58.75 224 72S213.25 96 200 96S176 85.25 176 72S186.75 48 200 48Z"/></svg>