<svg xmlns="http://www.w3.org/2000/svg" viewBox="0 0 320 512"><!-- Font Awesome Pro 6.0.0-alpha2 by @fontawesome - https://fontawesome.com License - https://fontawesome.com/license (Commercial License) --><path d="M297.78 472.5C289.78 477.594 280.874 480 272.03 480C256.186 480 240.655 472.156 231.499 457.781L131.593 300.785L95.999 338.922V432C95.999 458.5 74.5 480 48 480S0 458.5 0 432V80C0 53.5 21.5 32 48 32S95.999 53.5 95.999 80V198.219L236.905 47.25C255.03 27.875 285.405 26.844 304.748 44.906C324.123 63 325.186 93.375 307.092 112.75L199.104 228.453C199.542 229.07 200.087 229.57 200.499 230.219L312.498 406.219C326.717 428.594 320.123 458.25 297.78 472.5Z"/></svg>