<svg xmlns="http://www.w3.org/2000/svg" viewBox="0 0 640 512"><!-- Font Awesome Pro 6.0.0-alpha2 by @fontawesome - https://fontawesome.com License - https://fontawesome.com/license (Commercial License) --><path d="M608 128H512.625C493.125 118.125 471.375 112 448 112S402.875 118.125 383.375 128H241.875C230 128 218.25 129.625 206.75 132.875L23.25 185.375C9.5 189.25 0 201.875 0 216.125V295.875C0 310.125 9.5 322.75 23.25 326.625L206.75 379.125C218.25 382.375 230 384 241.875 384H383.375C402.875 393.875 424.625 400 448 400S493.125 393.875 512.625 384H608C625.625 384 640 369.625 640 352V160C640 142.375 625.625 128 608 128ZM448 352C395 352 352 309 352 256S395 160 448 160S544 203 544 256S501 352 448 352ZM498.875 216.375L487.625 205.125C486.125 203.625 484.125 202.75 482 202.75C479.875 202.75 477.75 203.625 476.25 205.125L448 233.375L419.75 205.125C416.625 202 411.5 202 408.375 205.125L397.125 216.375C394 219.5 394 224.625 397.125 227.75L425.375 256L397.125 284.25C395.625 285.75 394.75 287.875 394.75 290C394.75 292.125 395.625 294.125 397.125 295.625L408.375 306.875C411.5 310 416.625 310 419.75 306.875L448 278.625L476.25 306.875C477.75 308.375 479.875 309.25 482 309.25C484.125 309.25 486.125 308.375 487.625 306.875L498.875 295.625C500.375 294.125 501.25 292.125 501.25 290C501.25 287.875 500.375 285.75 498.875 284.25L470.625 256L498.875 227.75C502 224.625 502 219.5 498.875 216.375Z"/></svg>