<svg xmlns="http://www.w3.org/2000/svg" viewBox="0 0 576 512"><!-- Font Awesome Pro 6.0.0-alpha2 by @fontawesome - https://fontawesome.com License - https://fontawesome.com/license (Commercial License) --><path d="M512 448H64C28.654 448 0 419.346 0 384V128C0 92.654 28.654 64 64 64H512C547.346 64 576 92.654 576 128V384C576 419.346 547.346 448 512 448ZM128 180V140C128 133.375 122.625 128 116 128H76C69.375 128 64 133.375 64 140V180C64 186.625 69.375 192 76 192H116C122.625 192 128 186.625 128 180ZM224 180V140C224 133.375 218.625 128 212 128H172C165.375 128 160 133.375 160 140V180C160 186.625 165.375 192 172 192H212C218.625 192 224 186.625 224 180ZM320 180V140C320 133.375 314.625 128 308 128H268C261.375 128 256 133.375 256 140V180C256 186.625 261.375 192 268 192H308C314.625 192 320 186.625 320 180ZM416 180V140C416 133.375 410.625 128 404 128H364C357.375 128 352 133.375 352 140V180C352 186.625 357.375 192 364 192H404C410.625 192 416 186.625 416 180ZM512 180V140C512 133.375 506.625 128 500 128H460C453.375 128 448 133.375 448 140V180C448 186.625 453.375 192 460 192H500C506.625 192 512 186.625 512 180ZM128 276V236C128 229.375 122.625 224 116 224H76C69.375 224 64 229.375 64 236V276C64 282.625 69.375 288 76 288H116C122.625 288 128 282.625 128 276ZM224 276V236C224 229.375 218.625 224 212 224H172C165.375 224 160 229.375 160 236V276C160 282.625 165.375 288 172 288H212C218.625 288 224 282.625 224 276ZM320 276V236C320 229.375 314.625 224 308 224H268C261.375 224 256 229.375 256 236V276C256 282.625 261.375 288 268 288H308C314.625 288 320 282.625 320 276ZM416 276V236C416 229.375 410.625 224 404 224H364C357.375 224 352 229.375 352 236V276C352 282.625 357.375 288 364 288H404C410.625 288 416 282.625 416 276ZM512 276V236C512 229.375 506.625 224 500 224H460C453.375 224 448 229.375 448 236V276C448 282.625 453.375 288 460 288H500C506.625 288 512 282.625 512 276ZM128 372V332C128 325.375 122.625 320 116 320H76C69.375 320 64 325.375 64 332V372C64 378.625 69.375 384 76 384H116C122.625 384 128 378.625 128 372ZM416 372V332C416 325.375 410.625 320 404 320H172C165.375 320 160 325.375 160 332V372C160 378.625 165.375 384 172 384H404C410.625 384 416 378.625 416 372ZM512 372V332C512 325.375 506.625 320 500 320H460C453.375 320 448 325.375 448 332V372C448 378.625 453.375 384 460 384H500C506.625 384 512 378.625 512 372Z"/></svg>