<svg xmlns="http://www.w3.org/2000/svg" viewBox="0 0 512 512"><!-- Font Awesome Pro 6.0.0-alpha2 by @fontawesome - https://fontawesome.com License - https://fontawesome.com/license (Commercial License) --><path d="M512 81.196C512 72.129 504.968 63.44 494.372 63.44H346.486L301.233 18.133C288.781 6.039 272.677 0 256.585 0C222.051 0 192.614 27.889 192.614 64.046C192.614 80.157 198.646 96.28 210.726 108.747L221.727 119.76L102.968 238.659C98.417 243.216 95.936 249.362 95.936 255.66C95.936 257.838 96.232 260.033 96.843 262.188L149.847 447.92H63.965C18.937 447.92 0 486.756 0 496.494C0 504.748 7.381 512 16.212 512H367.738C376.568 512 383.949 504.748 383.949 496.494C383.949 486.671 364.621 447.92 319.984 447.92H199.85L146.971 262.689L255.729 153.803L255.979 154.053V302.113C255.979 312.721 264.658 319.761 273.715 319.761C278.015 319.761 282.4 318.174 285.982 314.629L506.873 93.478C510.415 89.892 512 85.501 512 81.196ZM379.739 266.068C390.205 275.177 403.218 279.698 416.206 279.698C430.521 279.698 444.805 274.207 455.619 263.315C466.499 252.488 471.984 238.186 471.984 223.855C471.984 210.851 467.468 197.824 458.37 187.345L379.739 266.068Z "></path></svg>