<svg xmlns="http://www.w3.org/2000/svg" viewBox="0 0 640 512"><!-- Font Awesome Pro 6.0.0-alpha2 by @fontawesome - https://fontawesome.com License - https://fontawesome.com/license (Commercial License) --><path d="M160 243.094L147.154 272H172.846L160 243.094ZM576 64H336V448H576C611.346 448 640 419.346 640 384V128C640 92.652 611.346 64 576 64ZM552 232H550.537C542.455 259.775 529.473 281.287 515.477 298.344C523.33 303.287 528.811 305.668 528.938 305.719C541.156 310.719 547.125 324.656 542.219 336.906C538.438 346.281 529.469 352 519.969 352C517.062 352 514.094 351.469 511.219 350.328C510.219 349.938 496.893 344.377 479.963 332.143C463.271 344.18 450.064 349.826 448.781 350.328C445.906 351.469 442.938 352 440 352C430.438 352 421.406 346.234 417.656 336.797C412.812 324.5 418.844 310.609 431.094 305.719C431.842 305.414 437.131 302.996 444.344 298.529C440.969 294.406 437.602 290.205 434.406 285.5C426.938 274.531 429.812 259.609 440.75 252.156C451.781 244.703 466.656 247.562 474.094 258.531C475.977 261.301 477.975 263.717 479.947 266.213C487.332 256.84 494.066 245.512 499.506 232H408C394.75 232 384 221.25 384 208S394.75 184 408 184H456C456 170.75 466.75 160 480 160S504 170.75 504 184H552C565.25 184 576 194.75 576 208S565.25 232 552 232ZM0 128V384C0 419.346 28.654 448 64 448H304V64H64C28.654 64 0 92.652 0 128ZM74.062 318.25L138.062 174.25C145.75 156.906 174.25 156.906 181.938 174.25L245.938 318.25C251.313 330.359 245.875 344.547 233.75 349.938C230.594 351.344 227.281 352 224 352C214.812 352 206.031 346.688 202.062 337.75L193.996 319.598C193.305 319.658 192.707 320 192 320H128C127.293 320 126.695 319.658 126.004 319.598L117.938 337.75C112.531 349.891 98.25 355.297 86.25 349.938C74.125 344.547 68.688 330.359 74.062 318.25Z"/></svg>