<svg xmlns="http://www.w3.org/2000/svg" viewBox="0 0 640 512"><!-- Font Awesome Pro 6.0.0-alpha2 by @fontawesome - https://fontawesome.com License - https://fontawesome.com/license (Commercial License) --><path d="M604 128H420C400.125 128 384 144.125 384 164V476C384 495.875 400.125 512 420 512H604C623.875 512 640 495.875 640 476V164C640 144.125 623.875 128 604 128ZM576 448H448V192H576V448ZM128 64H448V96H512V48C512 21.5 490.5 0.125 464.125 0H111.875C85.5 0.125 64 21.5 64 48V288H16C7.125 288 0 295.125 0 304V320C0.125 355.25 28.625 383.875 63.875 384H352V288H128V64Z"/></svg>