<svg xmlns="http://www.w3.org/2000/svg" viewBox="0 0 512 512"><!-- Font Awesome Pro 6.0.0-alpha2 by @fontawesome - https://fontawesome.com License - https://fontawesome.com/license (Commercial License) --><path d="M503.582 166.516L466.221 144.196L476.125 55.18C476.754 49.587 474.697 44.469 471.102 40.895C467.529 37.305 462.414 35.247 456.818 35.876L367.801 45.778L345.486 8.415C342.164 2.899 336.491 0.079 330.786 0.001C325.082 -0.077 319.346 2.587 315.898 8.04L226.002 149.336L242.678 84.266C245.436 71.602 234.029 60.446 221.49 63.579L195.664 77.497L150.15 25.97C143.258 17.317 129.967 17.317 123.07 25.97L77.559 77.497L51.857 63.579C39.32 60.446 27.785 71.602 30.668 84.266L63.77 244.875L26.531 260.922C12.488 266.937 12.488 286.75 26.531 292.891L135.697 342.367L7.031 471.031C2.344 475.718 0 481.859 0 487.999C0 494.14 2.344 500.28 7.031 504.968C11.719 509.655 17.844 511.999 24 511.999S36.281 509.655 40.969 504.968L169.635 376.304L219.107 485.468C225.25 499.507 245.061 499.507 251.078 485.468L267.125 448.23L427.73 481.327C440.395 484.21 451.551 472.679 448.418 460.14L434.502 434.437L486.029 388.929C494.68 382.031 494.68 368.742 486.029 361.847L434.5 316.336L448.418 290.508C451.551 277.969 440.393 266.562 427.73 269.32L362.662 285.992L503.959 196.102C509.412 192.653 512.076 186.916 511.998 181.212C511.919 175.508 509.099 169.836 503.582 166.516ZM315.312 219.313L219.312 315.312C216.188 318.437 212.094 320 208 320S199.812 318.437 196.688 315.312C190.438 309.062 190.438 298.937 196.688 292.687L292.688 196.688C298.938 190.438 309.063 190.438 315.312 196.688C321.562 202.938 321.562 213.063 315.312 219.313Z"/></svg>