<svg xmlns="http://www.w3.org/2000/svg" viewBox="0 0 640 512"><!-- Font Awesome Pro 6.0.0-alpha2 by @fontawesome - https://fontawesome.com License - https://fontawesome.com/license (Commercial License) --><path d="M240 454.375C240.125 460.625 241.999 466.75 245.375 472L262.5 497.75C267.75 505.625 279.75 512 289.125 512H350.875C360.375 512 372.25 505.625 377.5 497.75L394.625 472C397.875 466.625 399.75 460.625 400 454.375V416H240V454.375ZM319.5 0C217.5 0.25 144 83 144 176C144 218.625 159.375 259.75 187.5 291.75C204.125 310.625 229.875 350 239.75 383.25C239.75 383.5 239.875 383.75 239.875 384H400.125C400.125 383.75 400.25 383.5 400.25 383.25C410.125 350 435.875 310.625 452.5 291.75C480.625 259.75 496 218.625 496 176C496 78.625 416.875 -0.25 319.5 0ZM320 96C275.875 96 240 131.875 240 176C240 184.875 232.875 192 224 192S208 184.875 208 176C208.125 114.125 258.125 64.125 320 64C328.875 64 336 71.125 336 80S328.875 96 320 96ZM112 192C112 178.75 101.25 168 88 168H24C10.75 168 0 178.75 0 192S10.75 216 24 216H88C101.25 216 112 205.25 112 192ZM616 168H552C538.75 168 528 178.75 528 192S538.75 216 552 216H616C629.25 216 640 205.25 640 192S629.25 168 616 168ZM131.125 55.25L75.625 23.25C68.25 18.75 59 18.625 51.375 22.875C43.875 27.25 39.25 35.25 39.25 43.875C39.375 52.625 44.125 60.625 51.625 64.75L107.125 96.75C114.5 101.25 123.75 101.375 131.375 97.125C138.875 92.75 143.5 84.75 143.5 76.125C143.375 67.375 138.625 59.375 131.125 55.25ZM588.375 319.25L532.875 287.25C525.5 282.75 516.25 282.625 508.625 286.875C501.125 291.25 496.5 299.25 496.5 307.875C496.625 316.625 501.375 324.625 508.875 328.75L564.375 360.75C575.75 367.125 590.25 363.125 596.75 351.75C603.25 340.5 599.5 326 588.375 319.25ZM107.125 287.25L51.625 319.25C44.125 323.375 39.375 331.375 39.25 340.125C39.25 348.75 43.875 356.75 51.375 361.125C59 365.375 68.25 365.25 75.625 360.75L131.125 328.75C142.25 322 145.999 307.5 139.5 296.25C133 284.875 118.5 280.875 107.125 287.25ZM521 100C525.125 100 529.25 98.875 533 96.75L588.375 64.75C599.625 58 603.25 43.5 596.75 32.25C590.25 20.875 575.75 16.875 564.375 23.25L509 55.25C499.5 60.625 495 71.75 497.75 82.25C500.625 92.75 510.125 100 521 100Z"/></svg>