<svg xmlns="http://www.w3.org/2000/svg" viewBox="0 0 640 512"><!-- Font Awesome Pro 6.0.0-alpha2 by @fontawesome - https://fontawesome.com License - https://fontawesome.com/license (Commercial License) --><path d="M485.06 354.867L598.593 241.336C653.802 186.127 653.802 96.615 598.593 41.406C570.989 13.803 534.808 0 498.628 0S426.269 13.803 398.663 41.406L355.308 84.762C370.419 92.773 384.779 102.342 397.218 114.781C400.364 117.928 403.116 121.299 405.96 124.619L443.919 86.66C458.532 72.047 477.962 64 498.628 64S538.726 72.047 553.339 86.662C567.952 101.275 576.001 120.705 576.001 141.371S567.952 181.467 553.339 196.08L434.32 315.098L404.226 291.512C425.712 240.23 416.347 179.16 374.595 137.408C346.989 109.803 310.81 96 274.63 96C245.029 96 215.7 105.752 190.796 124.23L38.814 5.109C34.407 1.672 29.189 0 24.032 0C16.907 0 9.845 3.156 5.126 9.188C-3.061 19.625 -1.249 34.717 9.189 42.889L174.794 172.688L205.685 196.898L328.366 293.055L353.572 312.809L395.657 345.795L401.409 350.303L601.185 506.883C611.685 515.086 626.747 513.211 634.872 502.805C643.06 492.367 641.247 477.273 630.81 469.102L485.06 354.867ZM350.802 249.639L244.349 166.203C253.806 162.178 264.042 160 274.63 160C295.296 160 314.726 168.049 329.339 182.664C343.954 197.277 352.001 216.707 352.001 237.373C352.001 241.539 351.445 245.602 350.802 249.639ZM234.04 387.381L196.081 425.34C181.468 439.953 162.038 448 141.372 448C120.704 448 101.273 439.953 86.659 425.338C72.046 410.725 63.997 391.295 63.997 370.629S72.046 330.533 86.659 315.92L171.488 231.094L120.747 191.326L41.405 270.664C-13.803 325.873 -13.803 415.385 41.405 470.594C69.009 498.197 105.191 512 141.372 512C177.552 512 213.732 498.197 241.337 470.594L284.693 427.238C269.581 419.227 255.222 409.658 242.782 397.219C239.636 394.072 236.884 390.701 234.04 387.381ZM265.405 374.592C293.011 402.197 329.191 416 365.37 416C377.355 416 389.212 413.918 400.884 410.889L224.572 272.699C223.868 309.502 237.275 346.461 265.405 374.592Z"/></svg>