<svg xmlns="http://www.w3.org/2000/svg" viewBox="0 0 512 512"><!-- Font Awesome Pro 6.0.0-alpha2 by @fontawesome - https://fontawesome.com License - https://fontawesome.com/license (Commercial License) --><path d="M31.974 256H256.026C273.685 256 288 241.685 288 224.026V223.974C288 206.315 273.685 192 256.026 192H31.974C14.315 192 0 206.315 0 223.974V224.026C0 241.685 14.315 256 31.974 256ZM31.974 127.948H256.026C273.685 127.948 288 113.633 288 95.974V95.961C288 78.309 273.691 64 256.039 64H31.974C14.315 64 0 78.315 0 95.974V95.974C0 113.633 14.315 127.948 31.974 127.948ZM128.026 320H31.974C14.315 320 0 334.315 0 351.974V352.026C0 369.685 14.315 384 31.974 384H128.026C145.685 384 160 369.685 160 352.026V351.974C160 334.315 145.685 320 128.026 320ZM471 1.323L374.375 29.826C361.125 33.951 352 46.328 352 60.329V359.985C336.5 354.734 320.375 351.984 304 351.984C242.125 351.984 192 387.862 192 431.992S242.125 512 304 512S416 476.121 416 431.992V148.088L489 126.711C502.625 122.71 512 110.209 512 95.958V31.951C512 21.825 507.25 12.324 499.125 6.324C491.125 0.323 480.625 -1.552 471 1.323Z"/></svg>