<svg xmlns="http://www.w3.org/2000/svg" viewBox="0 0 384 512"><!-- Font Awesome Pro 6.0.0-alpha2 by @fontawesome - https://fontawesome.com License - https://fontawesome.com/license (Commercial License) --><path d="M384.001 440C384.001 462.092 366.093 480 344.001 480H104.005C81.913 480 64.005 462.092 64.005 440V280.137L40.804 286.766C37.866 287.609 34.897 288.016 31.991 288.016C18.069 288.016 5.257 278.844 1.241 264.797C-3.618 247.797 6.225 230.094 23.21 225.234L64.005 213.578V72C64.005 49.906 81.911 32 104.005 32C126.096 32 144.003 49.906 144.003 72V190.721L247.202 161.234C264.233 156.328 281.905 166.219 286.764 183.203C291.624 200.203 281.78 217.906 264.796 222.766L144.003 257.279V400H344.001C366.093 400 384.001 417.908 384.001 440Z"/></svg>