<svg xmlns="http://www.w3.org/2000/svg" viewBox="0 0 640 512"><!-- Font Awesome Pro 6.0.0-alpha2 by @fontawesome - https://fontawesome.com License - https://fontawesome.com/license (Commercial License) --><path d="M640 419.754C640 481.005 577.5 525.255 514.75 508.38L455.25 492.505C413.125 481.13 384 445.005 384 403.879V316.378L469.875 373.629C473.5 376.004 478.5 375.004 480.875 371.379L489.75 358.004C492.25 354.379 491.25 349.379 487.625 347.004L320 235.252L152.375 347.004C150.625 348.129 149.375 350.004 149 352.004C148.625 354.129 149 356.254 150.25 358.004L159.125 371.379C160.25 373.129 162.125 374.379 164.125 374.754C166.25 375.129 168.375 374.754 170.125 373.629L256 316.378V403.879C256 445.005 226.875 481.13 184.75 492.505L125.25 508.38C62.5 525.255 0 481.005 0 419.754C0 409.754 1.25 399.879 3.875 390.129C25.5 308.878 59.875 231.002 105.875 159.127C128 124.501 142 96.001 186 96.001C224.625 96.001 256 125.376 256 161.752V221.877L288.875 199.877C293.375 196.877 296 192.002 296 186.627V16C296 7.125 303.125 0 312 0H328C336.875 0 344 7.125 344 16V186.627C344 192.002 346.625 196.877 351.125 199.877L384 221.877V161.752C384 125.376 415.375 96.001 454 96.001C498 96.001 512 124.501 534.125 159.127C580.125 231.002 614.5 308.878 636.125 390.129C638.75 399.879 640 409.754 640 419.754Z"/></svg>