<svg xmlns="http://www.w3.org/2000/svg" viewBox="0 0 512 512"><!-- Font Awesome Pro 6.0.0-alpha2 by @fontawesome - https://fontawesome.com License - https://fontawesome.com/license (Commercial License) --><path d="M500.123 210.004L419.369 184.43C405.775 139.48 370.244 104.488 325.021 91.836L297.699 11.625C292.451 -3.984 278.992 -3.852 274.011 11.895L248.439 92.645C203.486 106.238 168.494 141.77 155.841 187.125L75.626 214.312C60.013 219.559 60.148 233.016 75.894 237.996L156.648 263.57C160.093 274.961 164.972 285.699 171.039 295.613L9.359 457.258C-3.12 469.734 -3.12 490.152 9.359 502.633C21.855 515.125 42.117 515.125 54.609 502.621L216.33 340.836C227.021 347.406 238.595 352.695 250.996 356.164L278.318 436.375C283.568 451.984 297.027 451.852 302.005 436.105L327.578 355.355C372.531 341.762 407.525 306.23 420.175 261.012L500.257 233.688C516.003 228.441 515.869 214.984 500.123 210.004ZM288 256C270.375 256 256 241.625 256 224S270.375 192 288 192S320 206.375 320 224S305.625 256 288 256Z"/></svg>