<svg xmlns="http://www.w3.org/2000/svg" viewBox="0 0 512 512"><!-- Font Awesome Pro 6.0.0-alpha2 by @fontawesome - https://fontawesome.com License - https://fontawesome.com/license (Commercial License) --><path d="M236 176C236 191.459 223.459 204 208 204S180 191.459 180 176S192.541 148 208 148S236 160.541 236 176ZM504.971 482.344L482.344 504.971C472.971 514.344 457.775 514.344 448.402 504.971L324.053 380.623C290.902 402.953 250.977 416 208 416C93.125 416 0 322.875 0 208S93.125 0 208 0S416 93.125 416 208C416 250.977 402.953 290.902 380.623 324.053L504.971 448.402C514.344 457.775 514.344 472.971 504.971 482.344ZM294.115 182.188C294.115 134.5 255.615 96 207.928 96C160.385 96 121.885 134.5 121.885 182.188C121.885 220.541 178.178 290.688 199.76 316.209C201.803 318.541 204.719 320 207.928 320C211.135 320 214.197 318.541 216.24 316.209C237.822 290.688 294.115 220.541 294.115 182.188Z"/></svg>