<svg xmlns="http://www.w3.org/2000/svg" viewBox="0 0 512 512"><!-- Font Awesome Pro 6.0.0-alpha2 by @fontawesome - https://fontawesome.com License - https://fontawesome.com/license (Commercial License) --><path d="M94.006 290.006C41.51 342.502 8.389 411.369 0.139 485.113V485.363C-1.486 500.611 11.389 513.486 26.637 511.861C100.506 503.736 169.375 470.615 221.994 417.994L297.363 342.627L169.375 214.637L94.006 290.006ZM485.471 26.529C450.1 -8.844 392.856 -8.844 357.483 26.529L335.734 48.277L299.113 11.779C283.49 -3.844 258.242 -3.844 242.617 11.779L138.502 115.896C132.252 122.145 132.252 132.27 138.502 138.52L149.811 149.828C156.061 156.078 166.186 156.078 172.434 149.828L270.865 51.396L301.803 82.209L191.998 192.014L319.986 320.004L485.471 154.518C520.844 119.146 520.844 61.9 485.471 26.529Z"/></svg>