<svg xmlns="http://www.w3.org/2000/svg" viewBox="0 0 512 512"><!-- Font Awesome Pro 6.0.0-alpha2 by @fontawesome - https://fontawesome.com License - https://fontawesome.com/license (Commercial License) --><path d="M444.451 0H332.082C310.699 0 299.992 25.852 315.111 40.971L344.668 70.528L320.334 94.864L286.393 60.922C280.145 54.672 270.014 54.674 263.766 60.922L241.139 83.549C234.889 89.799 234.889 99.926 241.139 106.176L275.08 140.117L256.121 159.076C187.553 111.817 92.994 118.555 32 179.549C-36.732 248.281 -36.732 359.717 32 428.451C100.732 497.182 212.17 497.184 280.902 428.451C341.896 367.457 348.635 272.897 301.375 204.33L320.334 185.371L354.275 219.313C360.523 225.561 370.654 225.563 376.902 219.313L399.529 196.686C405.777 190.438 405.777 180.307 399.529 174.059L365.588 140.117L389.924 115.783L419.48 145.34C434.6 160.459 460.451 149.75 460.451 128.369V16C460.451 7.162 453.287 0 444.451 0ZM224.334 371.881C186.902 409.313 126 409.311 88.57 371.881C51.139 334.451 51.139 273.549 88.57 236.117C126 198.688 186.902 198.686 224.334 236.117C261.764 273.547 261.764 334.451 224.334 371.881Z"/></svg>