<svg xmlns="http://www.w3.org/2000/svg" viewBox="0 0 640 512"><!-- Font Awesome Pro 6.0.0-alpha2 by @fontawesome - https://fontawesome.com License - https://fontawesome.com/license (Commercial License) --><path d="M616.401 135.486C587.934 107.004 542.807 104.857 511.114 128.303H480.003C462.12 128.188 444.661 122.531 429.786 112.613L387.526 84.434C346.669 57.188 293.415 57.188 252.557 84.434L209.819 112.932C195.257 122.643 178.165 128.189 160.655 128.303H128.891C97.2 104.855 52.096 107.018 23.6 135.486C-7.583 166.656 -7.896 217.682 22.85 249.227C99.206 326.771 168.878 416 320.042 416C469.307 416 537.415 330.209 617.151 249.242C647.897 217.682 647.585 166.656 616.401 135.486ZM112.028 294.9L45.786 226.922C27.163 207.832 27.35 176.943 46.223 158.088C64.122 140.236 92.77 139.662 111.987 155.592V208.219H112.069L112.028 294.9ZM400.032 336.084H240.052C231.21 336.084 224.053 328.936 224.053 320.102C224.053 311.266 231.21 304.117 240.052 304.117H400.032C408.874 304.117 416.03 311.266 416.03 320.102C416.03 328.936 408.874 336.084 400.032 336.084ZM432.028 272.15H208.055C199.214 272.15 192.057 265.002 192.057 256.168S199.214 240.186 208.055 240.186H432.028C440.87 240.186 448.026 247.334 448.026 256.168S440.87 272.15 432.028 272.15ZM432.028 208.219H208.055C199.214 208.219 192.057 201.07 192.057 192.236C192.057 183.4 199.214 176.252 208.055 176.252H432.028C440.87 176.252 448.026 183.4 448.026 192.236C448.026 201.07 440.87 208.219 432.028 208.219ZM594.216 226.938L528.014 294.857V160.064C528.014 159.92 527.944 159.797 527.932 159.656V155.639C547.143 139.643 575.827 140.182 593.778 158.088C612.651 176.943 612.839 207.832 594.216 226.938Z"/></svg>