<svg xmlns="http://www.w3.org/2000/svg" viewBox="0 0 576 512"><!-- Font Awesome Pro 6.0.0-alpha2 by @fontawesome - https://fontawesome.com License - https://fontawesome.com/license (Commercial License) --><path d="M256 368C256 287.609 310.24 219.787 384 198.822V64C384 28.652 355.346 0 320 0H64C28.654 0 0 28.652 0 64V448C0 483.346 28.654 512 64 512H320C323.357 512 326.584 511.51 329.803 511.012C285.209 479.051 256 426.926 256 368ZM80 128H304C312.838 128 320 135.164 320 144S312.838 160 304 160H80C71.164 160 64 152.836 64 144S71.164 128 80 128ZM176 352H80C71.164 352 64 344.836 64 336S71.164 320 80 320H176C184.838 320 192 327.164 192 336S184.838 352 176 352ZM240 256H80C71.164 256 64 248.836 64 240S71.164 224 80 224H240C248.838 224 256 231.164 256 240S248.838 256 240 256ZM432.002 224C352.463 224 288 288.463 288 368S352.463 512 432.002 512C511.537 512 576 447.537 576 368S511.537 224 432.002 224ZM499.312 341.984L424.656 416.641C421.531 419.766 417.438 421.328 413.344 421.328S405.156 419.766 402.031 416.641L364.688 379.312C358.438 373.062 358.438 362.937 364.688 356.688S381.063 350.438 387.312 356.688L413.344 382.703L476.688 319.359C482.938 313.109 493.063 313.109 499.312 319.359S505.562 335.734 499.312 341.984Z"/></svg>