<svg xmlns="http://www.w3.org/2000/svg" viewBox="0 0 576 512"><!-- Font Awesome Pro 6.0.0-alpha2 by @fontawesome - https://fontawesome.com License - https://fontawesome.com/license (Commercial License) --><path d="M0 448H80V416C80 407.162 87.164 400 96 400C104.838 400 112 407.162 112 416V448H208V416C208 407.162 215.164 400 224 400C232.838 400 240 407.162 240 416V448H336V416C336 407.162 343.164 400 352 400C360.838 400 368 407.162 368 416V448H464V416C464 407.162 471.164 400 480 400C488.838 400 496 407.162 496 416V448H576V352H0V448ZM576 146.938V112C576 85.49 554.51 64 528 64H48C21.49 64 0 85.49 0 112V146.938C18.6 153.549 32 171.131 32 192S18.6 230.451 0 237.062V320H576V237.062C557.4 230.451 544 212.869 544 192S557.4 153.549 576 146.938ZM192 240C192 248.836 184.838 256 176 256H144C135.164 256 128 248.836 128 240V144C128 135.164 135.164 128 144 128H176C184.838 128 192 135.164 192 144V240ZM320 240C320 248.836 312.838 256 304 256H272C263.164 256 256 248.836 256 240V144C256 135.164 263.164 128 272 128H304C312.838 128 320 135.164 320 144V240ZM448 240C448 248.836 440.838 256 432 256H400C391.164 256 384 248.836 384 240V144C384 135.164 391.164 128 400 128H432C440.838 128 448 135.164 448 144V240Z"/></svg>