<svg xmlns="http://www.w3.org/2000/svg" viewBox="0 0 512 512"><!-- Font Awesome Pro 6.0.0-alpha2 by @fontawesome - https://fontawesome.com License - https://fontawesome.com/license (Commercial License) --><path d="M448 0H64C28.75 0 0 28.748 0 63.994V351.971C0 387.219 28.75 415.967 64 415.967H160V499.959C160 509.709 171.25 515.459 179.125 509.709L304 415.967H448C483.25 415.967 512 387.219 512 351.971V63.994C512 28.748 483.25 0 448 0ZM336 231.998H176C162.73 231.998 152 221.256 152 208C152 194.742 162.738 184.002 176 184.002H336C349.262 184.002 360 194.742 360 208S349.262 231.998 336 231.998Z"/></svg>