<svg xmlns="http://www.w3.org/2000/svg" viewBox="0 0 512 512"><!-- Font Awesome Pro 6.0.0-alpha2 by @fontawesome - https://fontawesome.com License - https://fontawesome.com/license (Commercial License) --><path d="M448 0H64C28.75 0 0 28.748 0 63.994V352C0 387.246 28.75 415.994 64 415.994H160V499.959C160 509.709 171.25 515.459 179.125 509.709L304 415.994H448C483.25 415.994 512 387.246 512 352V63.994C512 28.748 483.25 0 448 0ZM240 224C240 268.188 204.188 304 160 304H156C149.375 304 144 298.625 144 292V268C144 261.375 149.375 256 156 256H160C177.625 256 192 241.625 192 224V208H152C138.75 208 128 197.25 128 184V136C128 122.75 138.75 112 152 112H216C229.25 112 240 122.75 240 136V224ZM384 224C384 268.188 348.188 304 304 304H300C293.375 304 288 298.625 288 292V268C288 261.375 293.375 256 300 256H304C321.625 256 336 241.625 336 224V208H296C282.75 208 272 197.25 272 184V136C272 122.75 282.75 112 296 112H360C373.25 112 384 122.75 384 136V224Z"/></svg>