<svg xmlns="http://www.w3.org/2000/svg" viewBox="0 0 512 512"><!-- Font Awesome Pro 6.0.0-alpha2 by @fontawesome - https://fontawesome.com License - https://fontawesome.com/license (Commercial License) --><path d="M448 0H64C28.75 0 0 28.748 0 63.995V351.972C0 387.219 28.75 415.967 64 415.967H160V499.96C160 509.71 171.25 515.459 179.125 509.71L304 415.967H448C483.25 415.967 512 387.219 512 351.972V63.995C512 28.748 483.25 0 448 0ZM128 239.981C110.25 239.981 96 225.732 96 207.983S110.25 175.986 128 175.986S160 190.235 160 207.983S145.75 239.981 128 239.981ZM256 239.981C238.25 239.981 224 225.732 224 207.983S238.25 175.986 256 175.986S288 190.235 288 207.983S273.75 239.981 256 239.981ZM384 239.981C366.25 239.981 352 225.732 352 207.983S366.25 175.986 384 175.986S416 190.235 416 207.983S401.75 239.981 384 239.981Z"/></svg>