<svg xmlns="http://www.w3.org/2000/svg" viewBox="0 0 576 512"><!-- Font Awesome Pro 6.0.0-alpha2 by @fontawesome - https://fontawesome.com License - https://fontawesome.com/license (Commercial License) --><path d="M371.935 119.887C396.287 119.887 416 100.297 416 75.938C416 51.586 396.287 32 371.935 32C347.711 32 328 51.715 328 76.07C328 100.297 347.711 119.887 371.935 119.887ZM542.096 261.438C516.094 235.43 452.463 222.805 411.209 217.305L311.951 117.156C303.574 105.023 298.699 90.523 298.699 74.766C298.699 58.891 303.699 44.387 311.951 32.258V24.004C311.951 10.802 301.149 0 287.947 0H287.947C274.746 0 263.945 10.801 263.945 24.002V118.156L164.812 217.305C123.558 222.805 59.928 235.43 33.926 261.438C-6.078 301.449 -11.453 360.836 21.799 394.219C55.178 427.477 114.683 422.102 154.56 382.094C165.937 370.715 174.687 351.836 181.439 331.078C190.063 346.739 208.483 356.469 228.873 349.86C241.464 345.778 251.496 335.081 254.673 322.231C261.251 295.632 241.412 271.941 215.941 271.941C207.691 271.941 200.566 275.066 194.189 279.32C196.064 269.316 197.689 259.688 198.689 251.063L263.945 185.797V258.687C279.352 272.517 288.935 292.865 287.868 315.353C286.656 340.919 269.944 363.022 247.479 375.286C228.12 385.853 212.367 385.248 198.189 381.469C194.439 391.344 191.939 400.973 191.939 409.602C191.939 466.238 234.943 512 287.949 512C340.953 512 383.957 466.238 383.957 409.602C383.957 371.465 340.328 314.953 311.951 282.32V185.922L377.207 251.188C382.707 292.445 395.334 356.086 421.336 382.094C461.34 422.102 520.719 427.477 554.097 394.219C587.474 360.836 582.099 301.449 542.096 261.438Z"/></svg>