<svg xmlns="http://www.w3.org/2000/svg" viewBox="0 0 448 512"><!-- Font Awesome Pro 6.0.0-alpha2 by @fontawesome - https://fontawesome.com License - https://fontawesome.com/license (Commercial License) --><path d="M352.019 416H64.005C46.403 416 32.005 430.4 32.005 448V480C32.005 497.6 46.403 512 64.005 512H352.019C369.618 512 384.019 497.6 384.019 480V448C384.019 430.4 369.618 416 352.019 416ZM425.021 206.877C397.769 184.252 357.517 187.877 334.892 215.127L314.017 240.127L284.39 111.752C266.388 34.252 189.011 -14.246 111.632 3.752C34.255 21.627 -14.247 98.877 3.753 176.377L63.999 384H351.999L433.146 297.002C455.773 269.752 452.146 229.502 425.021 206.877Z"/></svg>