<svg xmlns="http://www.w3.org/2000/svg" viewBox="0 0 576 512"><!-- Font Awesome Pro 6.0.0-alpha2 by @fontawesome - https://fontawesome.com License - https://fontawesome.com/license (Commercial License) --><path d="M528 64H48C21.6 64 0 85.6 0 112V400C0 426.4 21.6 448 48 448H528C554.4 448 576 426.4 576 400V112C576 85.6 554.4 64 528 64ZM205.625 298.109C202.021 318.934 186.283 332.633 164.047 337.439V348C164.047 359.047 155.094 368 144.047 368S124.047 359.047 124.047 348V336.943C115.34 335.01 106.678 332.191 98.891 329.375L94.859 327.922C84.438 324.234 79 312.797 82.703 302.391S97.891 286.562 108.234 290.234L112.469 291.75C120.312 294.578 129.203 297.797 136.141 298.828C149.766 300.953 164.875 299.047 166.219 291.281C167.078 286.281 167.562 283.531 138.469 275.203L132.719 273.547C115.438 268.469 74.984 256.562 82.375 213.891C85.99 192.99 101.68 179.074 124.047 174.314V164C124.047 152.953 133 144 144.047 144S164.047 152.953 164.047 164V174.949C169.488 176.154 175.32 177.725 182.391 180.188C192.828 183.797 198.359 195.188 194.734 205.625C191.125 216.047 179.734 221.609 169.297 217.969C163.453 215.953 157.312 214.031 151.734 213.156C138.203 211.016 123.141 212.969 121.781 220.719C121.031 225.094 120.484 228.25 144 235.172L149.469 236.75C171.703 243.109 213.109 254.938 205.625 298.109ZM336 320H272C263.199 320 256 312.799 256 304C256 295.199 263.199 288 272 288H336C344.801 288 352 295.199 352 304C352 312.799 344.801 320 336 320ZM496 320H432C423.199 320 416 312.799 416 304C416 295.199 423.199 288 432 288H496C504.801 288 512 295.199 512 304C512 312.799 504.801 320 496 320ZM496 224H272C263.199 224 256 216.799 256 208C256 199.199 263.199 192 272 192H496C504.801 192 512 199.199 512 208C512 216.799 504.801 224 496 224Z"/></svg>