<svg xmlns="http://www.w3.org/2000/svg" viewBox="0 0 512 512"><!-- Font Awesome Pro 6.0.0-alpha2 by @fontawesome - https://fontawesome.com License - https://fontawesome.com/license (Commercial License) --><path d="M332.25 426.375C239.125 444.125 153.75 372.75 153.75 278.75C153.75 224.5 182.75 174.75 229.75 147.875C237.125 143.75 235.25 132.75 227 131.25C108.75 109.375 0 200 0 320C0 426.001 85.75 512 191.75 512C251 512 305 485.125 340.75 440.875C346.125 434.375 340.25 424.75 332.25 426.375ZM288.01 63.998L300.43 93.781C301.039 95.006 302.641 96 304.008 96S306.975 95.006 307.584 93.781L320.004 63.998L349.789 51.578C351.008 50.969 352 49.357 352 47.998C352 46.633 351.008 45.031 349.789 44.422L320.004 32.002L307.584 2.217C306.975 0.99 305.375 0 304.008 0S301.039 0.99 300.43 2.217L288.01 32.002L258.225 44.422C257.008 45.031 256.016 46.633 256.016 47.998C256.016 49.357 257.008 50.969 258.225 51.578L288.01 63.998ZM507.625 216.875L448 192L423.125 132.375C421.75 129.75 419 128 416 128S410.25 129.75 408.875 132.375L384 192L324.375 216.875C321.75 218.25 320 221 320 224S321.75 229.75 324.375 231.125L384 256L408.875 315.625C410.25 318.25 413 320 416 320S421.75 318.25 423.125 315.625L448 256L507.625 231.125C510.25 229.75 512 227 512 224S510.25 218.25 507.625 216.875Z"/></svg>