<svg xmlns="http://www.w3.org/2000/svg" viewBox="0 0 640 512"><!-- Font Awesome Pro 6.0.0-alpha2 by @fontawesome - https://fontawesome.com License - https://fontawesome.com/license (Commercial License) --><path d="M0 480C0 497.625 14.375 512 32 512H96C113.625 512 128 497.625 128 480V160H0V480ZM579.125 288C597 270.625 608 250.625 608 229.125C608 176.25 566.25 135.25 520.125 106.25C478.125 79.75 439.5 48.375 408.125 10L400 0L391.875 10C360.5 48.375 321.875 79.75 279.875 106.25C233.75 135.25 192 176.25 192 229.125C192 250.625 203 270.625 220.875 288H579.125ZM64 0C64 0 0 32 0 96V128H128V96C128 32 64 0 64 0ZM608 320H192C174.4 320 160 334.4 160 352V512H224V448C224 430.375 238.375 416 256 416S288 430.375 288 448V512H352V440C352 392 400 368 400 368S448 392 448 440V512H512V448C512 430.375 526.375 416 544 416S576 430.375 576 448V512H640V352C640 334.4 625.6 320 608 320Z"/></svg>