<svg xmlns="http://www.w3.org/2000/svg" viewBox="0 0 512 512"><!-- Font Awesome Pro 6.0.0-alpha2 by @fontawesome - https://fontawesome.com License - https://fontawesome.com/license (Commercial License) --><path d="M400 192H32C14.25 192 0 206.25 0 224V416C0 469 43 512 96 512H288C341 512 384 469 384 416H400C461.75 416 512 365.75 512 304S461.75 192 400 192ZM400 352H384V256H400C426.5 256 448 277.5 448 304S426.5 352 400 352ZM107.906 100.734C120.297 107.969 128 121.375 128 136C128 149.25 138.75 159.859 152 159.859S176 148.969 176 135.719C176 104.375 159.172 75.078 132.094 59.266C119.703 52.031 112 38.625 112 24.281V24C112 10.75 101.25 0.141 88 0.141S64 11.031 64 24.281C64 55.625 80.828 84.922 107.906 100.734ZM219.906 100.734C232.297 107.969 240 121.375 240 136C240 149.25 250.75 159.859 264 159.859S288 148.969 288 135.719C288 104.375 271.172 75.078 244.094 59.266C231.703 52.031 224 38.625 224 24.281V24C224 10.75 213.25 0.141 200 0.141S176 11.031 176 24.281C176 55.625 192.828 84.922 219.906 100.734Z"/></svg>