<svg xmlns="http://www.w3.org/2000/svg" viewBox="0 0 512 512"><!-- Font Awesome Pro 6.0.0-alpha2 by @fontawesome - https://fontawesome.com License - https://fontawesome.com/license (Commercial License) --><path d="M196.472 128H347.472C354.597 115.75 353.472 99.875 342.972 89.375L294.472 41C281.972 28.5 261.722 28.5 249.222 41L200.722 89.375C190.347 99.875 189.222 115.75 196.472 128ZM178.5 67.25L200.875 44.75C195 37.5 186.375 32.375 176.25 32.375H64C46.25 32.375 32 46.75 32 64.375V128.25H162.125C156.625 107.25 161.875 83.75 178.5 67.25ZM400 160.25H160V223.75C160 241.5 145.75 255.75 128 255.75S96 241.5 96 223.75V160.25H32C14.25 160.25 0 174.625 0 192.25V384.125C0 437.125 43 480 96 480H288C341 480 384 437.125 384 384.125H400C461.75 384.125 512 333.875 512 272.25C512 210.5 461.75 160.25 400 160.25ZM400 320.25H384V224.25H400C426.5 224.25 448 245.75 448 272.25C448 298.625 426.5 320.25 400 320.25Z"/></svg>