<svg xmlns="http://www.w3.org/2000/svg" viewBox="0 0 640 512"><!-- Font Awesome Pro 6.0.0-alpha2 by @fontawesome - https://fontawesome.com License - https://fontawesome.com/license (Commercial License) --><path d="M630.811 469.102L384 275.658V148.086L456.999 126.709C470.624 122.71 479.999 110.208 479.999 95.956V31.951C479.999 21.824 475.249 12.325 467.124 6.325C459.124 0.323 448.625 -1.552 439 1.323L342.375 29.826C329.125 33.951 320 46.328 320 60.328V225.497L38.814 5.11C34.407 1.672 29.189 0.001 24.032 0.001C16.907 0.001 9.845 3.157 5.126 9.188C-3.061 19.625 -1.249 34.719 9.189 42.891L601.186 506.883C611.686 515.086 626.749 513.211 634.874 502.805C643.061 492.367 641.249 477.274 630.811 469.102ZM272 351.995C210.145 351.995 160.001 387.811 160.001 431.994S210.145 511.992 272 511.992S384 476.176 384 431.994S333.855 351.995 272 351.995Z"/></svg>