<svg xmlns="http://www.w3.org/2000/svg" viewBox="0 0 640 512"><!-- Font Awesome Pro 6.0.0-alpha2 by @fontawesome - https://fontawesome.com License - https://fontawesome.com/license (Commercial License) --><path d="M191.999 356.893C181.944 353.915 171.28 351.995 159.999 351.995C106.979 351.995 63.999 387.81 63.999 431.993C63.999 476.174 106.979 511.992 159.999 511.992S255.998 476.174 255.998 431.993V297.318L191.999 247.156V356.893ZM630.811 469.102L558.694 412.578C569.278 399.822 575.997 384.699 575.997 367.994V31.97C575.966 14.328 561.653 0 543.997 0C541.278 0 536.966 0.656 534.372 1.484L214.405 95.973C202.428 99.748 192.782 112.723 192.209 125.336L38.814 5.109C34.407 1.672 29.189 0 24.032 0C16.907 0 9.845 3.156 5.126 9.187C-3.061 19.625 -1.249 34.718 9.189 42.89L601.186 506.883C611.686 515.086 626.749 513.211 634.874 502.805C643.061 492.367 641.249 477.274 630.811 469.102ZM511.997 292.894C501.943 289.915 491.279 287.996 479.997 287.996C457.851 287.996 437.83 294.622 421.634 305.154L301.193 210.757L511.997 148.992V292.894Z"/></svg>