<svg xmlns="http://www.w3.org/2000/svg" viewBox="0 0 448 512"><!-- Font Awesome Pro 6.0.0-alpha2 by @fontawesome - https://fontawesome.com License - https://fontawesome.com/license (Commercial License) --><path d="M320 480L448 352H320V480ZM400 32H48C21.49 32 0 53.492 0 80V432C0 458.508 21.49 480 48 480H288V352C288 334.328 302.326 320 320 320H448V80C448 53.492 426.51 32 400 32ZM320 248C320 252.375 316.375 256 312 256H256V312C256 316.375 252.375 320 248 320H200C195.625 320 192 316.375 192 312V256H136C131.625 256 128 252.375 128 248V200C128 195.625 131.625 192 136 192H192V136C192 131.625 195.625 128 200 128H248C252.375 128 256 131.625 256 136V192H312C316.375 192 320 195.625 320 200V248Z"/></svg>