<svg xmlns="http://www.w3.org/2000/svg" viewBox="0 0 512 512"><!-- Font Awesome Pro 6.0.0-alpha2 by @fontawesome - https://fontawesome.com License - https://fontawesome.com/license (Commercial License) --><path d="M384 48H80C62.326 48 48 62.328 48 80V384C21.49 384 0 362.508 0 336V64C0 28.654 28.654 0 64 0H336C362.51 0 384 21.492 384 48ZM480 144V384L384 480H144C117.49 480 96 458.508 96 432V144C96 117.492 117.49 96 144 96H432C458.51 96 480 117.492 480 144ZM384 264C384 259.625 380.375 256 376 256H320V200C320 195.625 316.375 192 312 192H264C259.625 192 256 195.625 256 200V256H200C195.625 256 192 259.625 192 264V312C192 316.375 195.625 320 200 320H256V376C256 380.375 259.625 384 264 384H312C316.375 384 320 380.375 320 376V320H376C380.375 320 384 316.375 384 312V264Z"/></svg>