<svg xmlns="http://www.w3.org/2000/svg" viewBox="0 0 640 512"><!-- Font Awesome Pro 6.0.0-alpha2 by @fontawesome - https://fontawesome.com License - https://fontawesome.com/license (Commercial License) --><path d="M352 336C352 344.836 359.164 352 368 352H432C440.838 352 448 344.836 448 336V272C448 263.164 440.838 256 432 256H416V96H432C440.838 96 448 88.836 448 80V16C448 7.164 440.838 0 432 0H368C359.164 0 352 7.164 352 16V32H96V16C96 7.164 88.838 0 80 0H16C7.164 0 0 7.164 0 16V80C0 88.836 7.164 96 16 96H32V256H16C7.164 256 0 263.164 0 272V336C0 344.836 7.164 352 16 352H80C88.838 352 96 344.836 96 336V320H352V336ZM96 256V96H352V256H96ZM624 256C632.838 256 640 248.836 640 240V176C640 167.164 632.838 160 624 160H560C551.164 160 544 167.164 544 176V192H448V226.742C461.592 231.561 472.238 242.42 477.082 256H544V416H288V352H224V416H208C199.164 416 192 423.164 192 432V496C192 504.836 199.164 512 208 512H272C280.838 512 288 504.836 288 496V480H544V496C544 504.836 551.164 512 560 512H624C632.838 512 640 504.836 640 496V432C640 423.164 632.838 416 624 416H608V256H624Z"/></svg>