<svg xmlns="http://www.w3.org/2000/svg" viewBox="0 0 512 512"><!-- Font Awesome Pro 6.0.0-alpha2 by @fontawesome - https://fontawesome.com License - https://fontawesome.com/license (Commercial License) --><path d="M482.758 157.094L354.789 29.242C346.352 20.805 334.984 16 323.031 16H188.852C177.016 16 165.531 20.805 157.094 29.242L29.242 157.211C20.805 165.648 16 177.016 16 188.969V323.148C16 334.984 20.805 346.469 29.242 354.906L157.211 482.758C165.648 491.195 177.016 496 188.969 496H323.148C334.984 496 346.469 491.195 354.906 482.758L482.758 354.789C491.195 346.352 496 334.984 496 323.031V188.852C496 177.016 491.195 165.531 482.758 157.094ZM351.998 280H279.996V352C279.996 365.197 269.195 376 255.998 376C242.797 376 231.996 365.197 231.996 352V280H159.998C146.797 280 135.996 269.197 135.996 256C135.996 242.799 146.797 232 159.998 232H231.996V160C231.996 146.799 242.797 136 255.998 136C269.195 136 279.996 146.799 279.996 160V232H351.998C365.195 232 375.996 242.799 375.996 256C375.996 269.197 365.195 280 351.998 280Z"/></svg>