<svg xmlns="http://www.w3.org/2000/svg" viewBox="0 0 448 512"><!-- Font Awesome Pro 6.0.0-alpha2 by @fontawesome - https://fontawesome.com License - https://fontawesome.com/license (Commercial License) --><path d="M448 440C448 462.094 430.094 480 408 480H296C273.906 480 256 462.094 256 440V407.562C256 391.844 265.219 377.562 279.547 371.094C328.422 349.062 360 300.719 360 248C360 173 298.984 112 224 112S88 173 88 248C88 300.719 119.578 349.062 168.453 371.094C182.781 377.562 192 391.844 192 407.562V440C192 462.094 174.094 480 152 480H40C17.906 480 0 462.094 0 440S17.906 400 40 400H71.625C31.656 360.25 8 305.812 8 248C8 128.906 104.891 32 224 32S440 128.906 440 248C440 305.812 416.344 360.25 376.375 400H408C430.094 400 448 417.906 448 440Z"/></svg>