<svg xmlns="http://www.w3.org/2000/svg" viewBox="0 0 640 512"><!-- Font Awesome Pro 6.0.0-alpha2 by @fontawesome - https://fontawesome.com License - https://fontawesome.com/license (Commercial License) --><path d="M578.207 66.057L578.199 66.059C409.773 116.586 230.227 116.586 61.801 66.059L61.793 66.057C30.996 56.816 0 79.879 0 112.031V431.969C0 464.121 30.996 487.184 61.793 477.943L61.801 477.941C230.227 427.414 409.773 427.414 578.199 477.941L578.207 477.943C609.004 487.184 640 464.121 640 431.969V112.031C640 79.879 609.004 56.816 578.207 66.057ZM128 224C110.328 224 96 209.672 96 192S110.328 160 128 160C145.676 160 160 174.328 160 192S145.676 224 128 224ZM474.293 388.557C423.361 380.264 371.789 376.045 320 376.045C269.553 376.045 219.32 380.088 169.678 387.977C155.539 390.223 145.568 374.783 153.895 363.135C174.891 333.758 203.072 294.574 203.072 294.574C206.084 290.441 210.889 288 216 288S225.916 290.441 228.928 294.574L261.383 339.086L354.688 199.125C357.654 194.672 362.65 192 368 192S378.346 194.672 381.312 199.125C381.312 199.125 454.031 308.969 490.416 364.225C498.135 375.947 488.146 390.812 474.293 388.557Z"/></svg>