<svg xmlns="http://www.w3.org/2000/svg" viewBox="0 0 384 512"><!-- Font Awesome Pro 6.0.0-alpha2 by @fontawesome - https://fontawesome.com License - https://fontawesome.com/license (Commercial License) --><path d="M352 128V336C352 438.848 263.326 521.373 158.418 511.141C66.986 502.223 0 420.029 0 328.162V208C0 199.162 7.164 192 16 192H48C56.836 192 64 199.162 64 208V332.777C64 386.223 100.117 434.861 152.475 445.588C224.459 460.334 288 405.438 288 336V131.578C288 99.688 266.277 70.066 234.811 64.891C194.756 58.303 160 89.158 160 128V304C160 312.828 167.172 320 176 320S192 312.828 192 304V144C192 135.162 199.164 128 208 128H240C248.836 128 256 135.162 256 144V299.268C256 341.107 225.986 379.322 184.363 383.572C136.52 388.455 96 350.867 96 304V133.703C96 66.891 144.715 7.113 211.211 0.625C287.508 -6.818 352 53.201 352 128Z"/></svg>