<svg xmlns="http://www.w3.org/2000/svg" viewBox="0 0 512 512"><!-- Font Awesome Pro 6.0.0-alpha2 by @fontawesome - https://fontawesome.com License - https://fontawesome.com/license (Commercial License) --><path d="M495.767 192H487.141L350.256 343.875C351.007 346.625 351.882 349.125 351.882 352V480C351.882 497.75 337.631 512 319.879 512H191.871C174.244 512 159.868 497.75 159.868 480V352C159.868 349.125 160.743 346.5 161.494 343.875L24.734 192H16.109C6.858 192 -1.018 184.125 0.107 175C9.233 99.5 78.488 42.75 158.368 16.25C121.991 55.75 95.989 116.875 95.989 192H67.862L184.495 321.5C186.995 320.875 189.245 320 191.996 320H239.999V192H127.991C127.991 76.75 196.871 0 256 0S384.009 76.75 384.009 192H272.001V320H320.004C322.755 320 325.005 320.875 327.505 321.5L444.138 192H416.011C416.011 116.875 390.009 55.75 353.632 16.25C433.512 42.625 502.767 99.375 511.893 175C513.018 184.25 505.142 192 495.767 192Z"/></svg>