<svg xmlns="http://www.w3.org/2000/svg" viewBox="0 0 512 512"><!-- Font Awesome Pro 6.0.0-alpha2 by @fontawesome - https://fontawesome.com License - https://fontawesome.com/license (Commercial License) --><path d="M320 96V80C320 53.49 298.51 32 272 32H215.375C204.312 12.891 183.625 0 160 0S115.688 12.891 104.625 32H48C21.49 32 0 53.49 0 80V400C0 426.51 21.49 448 48 448H192V176C192 131.816 227.816 96 272 96H320ZM160 88C146.75 88 136 77.25 136 64S146.75 40 160 40S184 50.75 184 64S173.25 88 160 88ZM416 128V224H512L416 128ZM384 224V128H272C245.49 128 224 149.492 224 176V464C224 490.508 245.49 512 272 512H464C490.51 512 512 490.508 512 464V256H416C398.4 256 384 241.602 384 224Z"/></svg>