<svg xmlns="http://www.w3.org/2000/svg" viewBox="0 0 576 512"><!-- Font Awesome Pro 6.0.0-alpha2 by @fontawesome - https://fontawesome.com License - https://fontawesome.com/license (Commercial License) --><path d="M575.842 76.625C575.842 68.5 572.842 60.75 567.342 54.75C563.468 50.75 558.718 45.625 553.593 40.25C564.718 33.5 573.092 22.75 575.842 9.625C576.842 4.625 572.967 0 567.842 0H447.849C377.228 0 319.857 57.25 319.857 128C255.986 128 215.739 91.251 192.24 37.752C188.938 30.234 178.647 30.018 175.148 37.445C165.456 58.019 159.991 80.827 159.991 105.125C159.991 172.125 210.988 238.25 287.983 252.875V256C205.113 256 144.617 198.5 130.992 133.125C114.243 138.625 99.369 148.125 87.995 161.125V160C39.498 160 0 199.5 0 248V304C0 312.875 7.125 320 15.999 320H31.998C40.873 320 47.997 312.875 47.997 304V248C47.997 234.75 54.872 223.625 64.746 216.375C64.621 218.875 63.996 221.375 63.996 224C63.996 251.625 75.871 276.375 94.495 293.875L68.871 362.5C64.285 374.782 63.534 388.167 66.717 400.885L88.465 487.77C92.029 502.011 104.827 512 119.507 512H152.485C173.296 512 188.57 492.449 183.534 472.257L162.241 386.875L185.989 323.25L319.982 345.625V480C319.982 497.673 334.309 512 351.982 512H383.976C401.649 512 415.976 497.673 415.976 480V318.25C435.725 298.001 447.974 270.5 447.974 240C447.974 239.75 447.849 239.625 447.849 239.375V136.875L463.848 144L482.929 181.913C490.364 196.685 507.877 203.298 523.22 197.125L555.843 184C568.019 179.101 575.988 167.285 575.967 154.161L575.842 76.625ZM511.846 96C503.096 96 495.847 88.875 495.847 80S503.096 64 511.846 64C520.72 64 527.845 71.125 527.845 80S520.72 96 511.846 96Z"/></svg>