<svg xmlns="http://www.w3.org/2000/svg" viewBox="0 0 640 512"><!-- Font Awesome Pro 6.0.0-alpha2 by @fontawesome - https://fontawesome.com License - https://fontawesome.com/license (Commercial License) --><path d="M630.812 469.102L408.861 295.143L482.749 221.258L354.749 93.232L265.335 182.65L38.814 5.109C34.407 1.672 29.189 0 24.032 0C16.907 0 9.845 3.156 5.126 9.188C-3.061 19.625 -1.249 34.719 9.189 42.891L601.187 506.883C611.687 515.086 626.749 513.211 634.874 502.805C643.062 492.367 641.249 477.273 630.812 469.102ZM561.939 142.084C580.687 123.316 580.687 92.91 561.939 74.158L501.847 14.062C483.097 -4.688 452.661 -4.688 433.913 14.062L377.384 70.611L505.378 198.633L561.939 142.084ZM95.036 352.955C92.802 355.189 91.28 358.033 90.659 361.131L64.32 492.854C62.296 502.967 70.155 512 79.945 512C80.993 512 82.062 511.896 83.144 511.68L214.855 485.336C217.952 484.717 220.796 483.195 223.03 480.963L340.464 363.535L196.941 251.047L95.036 352.955ZM195.945 440.168L120.8 455.197L135.827 380.047L159.999 355.875V416H220.114L195.945 440.168Z"/></svg>