<svg xmlns="http://www.w3.org/2000/svg" viewBox="0 0 512 512"><!-- Font Awesome Pro 6.0.0-alpha2 by @fontawesome - https://fontawesome.com License - https://fontawesome.com/license (Commercial License) --><path d="M497.939 74.158L437.847 14.062C419.097 -4.688 388.662 -4.688 369.914 14.062L313.384 70.611L441.378 198.633L497.939 142.084C516.687 123.316 516.687 92.91 497.939 74.158ZM31.037 352.955C28.802 355.189 27.281 358.033 26.66 361.131L0.32 492.854C-1.704 502.967 6.156 512 15.945 512C16.994 512 18.062 511.896 19.144 511.68L150.855 485.336C153.953 484.717 156.796 483.195 159.031 480.963L418.75 221.258L290.75 93.232L31.037 352.955ZM131.945 440.168L56.8 455.197L71.828 380.047L96 355.875V416H156.115L131.945 440.168Z"/></svg>