<svg xmlns="http://www.w3.org/2000/svg" viewBox="0 0 640 512"><!-- Font Awesome Pro 6.0.0-alpha2 by @fontawesome - https://fontawesome.com License - https://fontawesome.com/license (Commercial License) --><path d="M128.006 96C154.506 96 176.004 74.5 176.004 48S154.506 0 128.006 0S80.008 21.5 80.008 48S101.506 96 128.006 96ZM511.994 96C538.494 96 559.992 74.5 559.992 48S538.494 0 511.994 0S463.996 21.5 463.996 48S485.494 96 511.994 96ZM603.492 258.25L584.992 178.125C580.367 158.125 566.367 141.25 547.492 133.25C528.994 125.25 508.494 126.5 491.369 136.5C468.746 149.875 451.746 171 443.246 195.875L431.996 229.75L415.998 240V144C415.998 135.25 408.748 128 399.998 128H240.002C231.252 128 224.002 135.25 224.002 144V240L207.879 229.75L196.629 195.875C188.254 170.875 171.254 149.875 148.506 136.5C131.256 126.5 110.881 125.25 92.383 133.25C73.508 141.25 59.508 158.125 54.883 178.125L36.51 258.25C31.885 278.25 37.26 299.5 50.883 315L118.131 390.875L128.256 483.5C130.006 499.75 143.756 512 160.004 512C161.254 512 162.254 511.875 163.504 511.75C181.129 509.875 193.754 494.125 191.754 476.5L181.754 383.75C180.254 370.75 174.754 358.625 166.129 348.75L122.756 299.75L140.381 229.375L147.256 249.75C151.256 262.25 159.129 273.25 171.754 282.375L222.754 314.875C227.377 317.75 234.877 319.5 240.002 319.875H399.998C405.123 319.5 412.623 317.75 417.246 314.875L468.246 282.375C480.869 273.25 488.744 262.375 492.744 249.75L499.619 229.375L517.244 299.75L473.871 348.75C465.246 358.625 459.746 370.75 458.246 383.75L448.246 476.5C446.246 494.125 458.996 509.875 476.496 511.75C477.746 511.875 478.746 512 479.996 512C496.119 512 509.994 499.875 511.744 483.5L521.869 390.875L589.117 315C602.742 299.5 608.117 278.25 603.492 258.25ZM46.26 358.125L2.26 468.125C-4.24 484.5 3.76 503.125 20.135 509.75C36.885 516.25 55.258 508 61.758 491.875L89.383 422.75L87.383 404.5L46.26 358.125ZM637.74 468.125L593.742 358.125L552.617 404.5L550.617 422.75L578.242 491.875C583.242 504.375 595.242 512 607.992 512C611.99 512 615.99 511.25 619.865 509.75C636.24 503.125 644.24 484.5 637.74 468.125Z"/></svg>