<svg xmlns="http://www.w3.org/2000/svg" viewBox="0 0 512 512"><!-- Font Awesome Pro 6.0.0-alpha2 by @fontawesome - https://fontawesome.com License - https://fontawesome.com/license (Commercial License) --><path d="M465.039 134.229C486.504 95.844 484.906 47.059 459.389 10.254C451.848 -0.574 437.078 -3.277 426.186 4.316C415.418 11.895 412.75 26.865 420.289 37.725C434.697 58.48 435.422 85.41 424.387 107.498C407.064 100.117 388.02 96 368 96C331.773 96 299.068 109.834 273.76 131.918L352 165.453V256H442.562L476.088 334.23C498.168 308.924 512 276.223 512 240C512 198.004 493.719 160.551 465.039 134.229ZM320 288V186.553L267.051 163.859C216.203 241.297 188.535 400 56 400C25.125 400 0 425.125 0 456S25.125 512 56 512C236.25 512 376.953 423.729 445.258 343.527L421.461 288H320Z"/></svg>