<svg xmlns="http://www.w3.org/2000/svg" viewBox="0 0 448 512"><!-- Font Awesome Pro 6.0.0-alpha2 by @fontawesome - https://fontawesome.com License - https://fontawesome.com/license (Commercial License) --><path d="M144.007 96C170.517 96 192.007 74.508 192.007 48S170.517 0 144.007 0S96.008 21.492 96.008 48S117.498 96 144.007 96ZM416 416H390.173L349.97 308.75C345.282 296.281 333.345 288 320.001 288H221.833L215.833 256H296.002C313.675 256 328.001 241.672 328.001 224C328.001 206.326 313.675 192 296.002 192H203.833L199.175 167.156C194.315 141.125 169.3 123.938 143.16 128.812C117.097 133.719 99.941 158.781 104.832 184.844L128.832 312.844C133.144 335.906 153.3 352 175.956 352C177.776 352 179.642 351.703 181.495 351.494C182.366 351.564 183.112 352 184.003 352H297.83L338.032 459.25C342.72 471.719 354.657 480 368.001 480H416C433.672 480 448 465.688 448 448S433.672 416 416 416ZM248.002 384H159.675C128.894 384 102.441 362.031 96.77 331.781L63.457 154.094C60.192 136.719 43.52 125.312 26.114 128.562C8.739 131.812 -2.698 148.531 0.552 165.906L33.864 343.594C45.208 404.094 98.129 448 159.675 448H248.002C265.674 448 280.002 433.688 280.002 416S265.674 384 248.002 384Z"/></svg>