<svg xmlns="http://www.w3.org/2000/svg" viewBox="0 0 512 512"><!-- Font Awesome Pro 6.0.0-alpha2 by @fontawesome - https://fontawesome.com License - https://fontawesome.com/license (Commercial License) --><path d="M480 224H436L409.875 170.75C397.375 145.25 374.5 126.5 348.125 119.75L277 98.625C248.875 91.875 219.125 98.125 196.25 115.75L156.5 146.25C155 147.375 154.125 149 152.875 150.5C140.25 61.75 112.375 0 80 0C35.875 0 0 114.625 0 256S35.875 512 80 512C105.25 512 127.75 474.5 142.375 416H205.5C224.625 416 242 404.625 249.5 386.875L258.375 366.375L247.75 360.125C231 350.125 217.75 335.25 209.75 317.5L194.875 352H154.125C158.125 320.125 160 288.125 160 256C160 235.75 159.25 216.25 157.75 197.375C169 205.25 184.125 205.75 195.5 197L235.125 166.625C242.875 160.625 252.625 158.625 260.5 160.375L275.125 164.75L237.75 252.25C225.125 281.75 236.375 316.125 264 332.5L349 382.75L321.5 470.375C316.25 487.25 325.625 505.25 342.5 510.5C359.375 515.75 377.25 506.375 382.625 489.5L414.25 388.5C420.125 367.5 411.25 345.25 392.625 334.125L331.375 298L362.625 219.625L382.875 261.125C391 277.5 407.75 287.875 426 288H480C497.625 288 512 273.625 512 256C512 238.25 497.625 224 480 224ZM368 96C394.5 96 416 74.5 416 48S394.5 0 368 0S320 21.5 320 48S341.5 96 368 96Z"/></svg>