<svg xmlns="http://www.w3.org/2000/svg" viewBox="0 0 512 512"><!-- Font Awesome Pro 6.0.0-alpha2 by @fontawesome - https://fontawesome.com License - https://fontawesome.com/license (Commercial License) --><path d="M505.061 420.125C495.684 410.75 480.431 410.75 471.179 420.125C459.052 432.25 440.673 435.5 426.045 428.75L376.91 403.375C381.161 398 384.161 391.5 384.161 384V288C384.161 270.25 369.783 256 352.155 256H301.269L347.404 209.875C361.282 196.125 365.282 175.625 357.781 157.625C350.279 139.625 332.901 128 313.522 128H159.991C142.237 128 127.984 142.25 127.984 160S142.237 192 159.991 192H242.758L169.368 265.375C166.367 268.25 164.116 271.875 162.491 275.75C160.366 280.875 160.116 286.25 160.741 291.75L34.965 226.625C23.213 220.625 8.71 225.125 2.708 236.875C-3.418 248.75 1.208 263.25 12.961 269.25L404.916 471.875C416.793 477.375 429.421 480 442.048 480C465.303 480 488.058 471 505.061 454C514.313 444.625 514.313 429.375 505.061 420.125ZM320.023 374L215.627 320H320.023V374ZM400.04 128C426.545 128 448.049 106.5 448.049 80S426.545 32 400.04 32C373.534 32 352.03 53.5 352.03 80S373.534 128 400.04 128Z"/></svg>