<svg xmlns="http://www.w3.org/2000/svg" viewBox="0 0 512 512"><!-- Font Awesome Pro 6.0.0-alpha2 by @fontawesome - https://fontawesome.com License - https://fontawesome.com/license (Commercial License) --><path d="M432.046 96.023C458.552 96.023 480.056 74.518 480.056 48.012S458.552 0 432.046 0C405.541 0 384.036 21.505 384.036 48.012S405.541 96.023 432.046 96.023ZM505.061 452.235C495.684 442.858 480.431 442.858 471.179 452.235C459.052 464.363 440.673 467.614 426.045 460.863L290.267 390.72L339.402 316.827C352.155 297.823 349.654 272.316 333.401 256.313L293.018 215.803L185.996 162.665C183.12 182.545 189.372 202.674 203.75 217.053L278.765 292.321L232.88 361.088L34.965 258.813C23.213 252.812 8.71 257.313 2.708 269.066C-3.418 280.819 1.208 295.322 12.961 301.324L404.916 503.873C416.793 509.374 429.421 512 442.048 512C465.303 512 488.058 502.998 505.061 485.994C514.313 476.741 514.313 461.488 505.061 452.235ZM119.982 91.647L108.48 114.153C122.858 121.405 139.736 119.029 151.239 109.277L198.498 132.782C198.373 132.782 198.373 132.907 198.248 133.032L312.772 189.796L345.278 176.793L351.655 195.923C355.656 208.051 364.282 217.928 375.66 223.68L433.797 252.687C449.675 260.564 468.804 254.187 476.68 238.308C484.557 222.554 478.181 203.3 462.302 195.423L410.292 169.291L393.163 118.154C385.037 93.898 352.28 61.515 308.646 78.894L227.379 111.402L164.867 80.395C165.242 65.891 157.74 51.763 143.987 44.761L132.86 66.516H132.735L98.228 59.515C96.478 59.139 94.602 59.765 93.227 61.265C91.352 63.39 91.602 66.766 93.727 68.642L119.982 91.647Z"/></svg>