<svg xmlns="http://www.w3.org/2000/svg" viewBox="0 0 512 512"><!-- Font Awesome Pro 6.0.0-alpha2 by @fontawesome - https://fontawesome.com License - https://fontawesome.com/license (Commercial License) --><path d="M493.094 351.248L384.609 304.748C371.828 299.217 356.813 302.936 348.125 313.717L304.078 367.529C234.828 333.529 178.531 277.248 144.547 208.029L198.375 163.934C209.125 155.152 212.797 140.277 207.359 127.496L160.828 18.934C154.734 5.027 139.656 -2.598 124.969 0.809L24.219 24.059C9.969 27.309 0 39.84 0 54.496C0 306.779 205.234 512 457.484 512C472.156 512 484.688 502.031 487.953 487.781L511.203 386.998C514.578 372.404 507 357.248 493.094 351.248ZM344 119.998H392V168.002C392 181.258 402.734 192 416 192C429.258 192 440 181.262 440 168.002V119.998H488C501.262 119.998 512 109.258 512 96S501.262 72.002 488 72.002H440V23.998C440 10.738 429.258 0 416 0S392 10.738 392 23.998V72.002H344C330.738 72.002 320 82.742 320 96C320 109.256 330.73 119.998 344 119.998Z"/></svg>