<svg xmlns="http://www.w3.org/2000/svg" viewBox="0 0 512 512"><!-- Font Awesome Pro 6.0.0-alpha2 by @fontawesome - https://fontawesome.com License - https://fontawesome.com/license (Commercial License) --><path d="M511.203 387L487.953 487.782C484.688 502.032 472.156 512.001 457.484 512.001C205.234 512.001 0 306.78 0 54.497C0 39.84 9.969 27.309 24.219 24.059L124.969 0.809C139.656 -2.598 154.734 5.027 160.828 18.934L207.359 127.497C212.797 140.279 209.125 155.154 198.375 163.935L144.547 208.029C178.531 277.249 234.828 333.531 304.078 367.531L348.125 313.718C356.813 302.937 371.828 299.218 384.609 304.749L493.094 351.25C507 357.25 514.578 372.406 511.203 387Z"/></svg>