<svg xmlns="http://www.w3.org/2000/svg" viewBox="0 0 512 512"><!-- Font Awesome Pro 6.0.0-alpha2 by @fontawesome - https://fontawesome.com License - https://fontawesome.com/license (Commercial License) --><path d="M476.625 270.25L419.375 241.75C397.75 230.875 384 208.75 384 184.5C384 82.625 301.5 0 199.5 0H184.5C82.5 0 0 82.625 0 184.5V480C0 497.625 14.375 512 32 512H480C497.625 512 512 497.625 512 480V327.5C512 303.25 498.25 281.125 476.625 270.25ZM448 448H64V352H96V408C96 412.375 99.625 416 104 416H120C124.375 416 128 412.375 128 408V352H160V408C160 412.375 163.625 416 168 416H184C188.375 416 192 412.375 192 408V352H224V408C224 412.375 227.625 416 232 416H248C252.375 416 256 412.375 256 408V352H320V408C320 412.375 323.625 416 328 416H344C348.375 416 352 412.375 352 408V352H384V408C384 412.375 387.625 416 392 416H408C412.375 416 416 412.375 416 408V352H448V448Z"/></svg>