<svg xmlns="http://www.w3.org/2000/svg" viewBox="0 0 448 512"><!-- Font Awesome Pro 6.0.0-alpha2 by @fontawesome - https://fontawesome.com License - https://fontawesome.com/license (Commercial License) --><path d="M145.404 211.609C137.492 205.309 128.148 200.021 118.109 196.631C70.816 180.66 19.943 207.318 4.484 256.172C-10.977 305.023 14.83 357.574 62.123 373.543L372.416 478.322C385.359 482.664 400.166 478.494 409.002 466.754C420.269 451.775 417.652 430.195 403.152 418.555L145.404 211.609ZM96.166 319.666C78.586 319.666 64.334 305.414 64.334 287.832C64.334 270.252 78.586 256 96.166 256C113.748 256 128 270.252 128 287.832C128 305.414 113.748 319.666 96.166 319.666ZM352 32C298.98 32 256 74.98 256 128S298.98 224 352 224S448 181.02 448 128S405.019 32 352 32Z"/></svg>