<svg xmlns="http://www.w3.org/2000/svg" viewBox="0 0 640 512"><!-- Font Awesome Pro 6.0.0-alpha2 by @fontawesome - https://fontawesome.com License - https://fontawesome.com/license (Commercial License) --><path d="M0 395.938V479.938C0 497.611 14.327 511.938 32 511.938H128V319.938L19.375 366.438C7.625 371.562 0 383.062 0 395.938ZM464.5 246.562L416 217.562V102.48C416 93.998 412.627 85.865 406.625 79.871L331.305 4.678C325.059 -1.559 314.941 -1.559 308.695 4.678L233.389 79.859C227.379 85.859 224 94.004 224 102.498V217.563L175.5 246.563C165.887 252.311 160 262.689 160 273.891V512H256V416C256 380.654 284.654 352 320 352C355.348 352 384 380.654 384 416V512H480V273.891C480 262.689 474.115 252.311 464.5 246.562ZM620.625 366.438L512 319.938V511.938H608C625.673 511.938 640 497.611 640 479.938V395.938C640 383.062 632.375 371.562 620.625 366.438Z"/></svg>