<svg xmlns="http://www.w3.org/2000/svg" viewBox="0 0 512 512"><!-- Font Awesome Pro 6.0.0-alpha2 by @fontawesome - https://fontawesome.com License - https://fontawesome.com/license (Commercial License) --><path d="M502.89 9.077C479.387 -14.426 414.629 9.077 335.744 63.834C260.234 32.58 170.222 47.582 108.84 108.84C47.582 170.222 32.58 260.234 63.834 335.744C9.077 414.629 -14.426 479.387 9.077 502.89C46.206 540.145 186.975 459.76 323.367 323.367S540.145 46.206 502.89 9.077ZM346.495 346.495C308.365 384.625 262.359 425.38 215.728 460.135C283.862 473.511 354.121 452.134 403.127 403.002C452.134 353.996 473.511 283.612 460.01 215.603C423.88 264.234 382.125 310.865 346.495 346.495Z"/></svg>