<svg xmlns="http://www.w3.org/2000/svg" viewBox="0 0 576 512"><!-- Font Awesome Pro 6.0.0-alpha2 by @fontawesome - https://fontawesome.com License - https://fontawesome.com/license (Commercial License) --><path d="M576 256C576 291.344 515.343 320 479.998 320H365.715L329.136 384H336.007C344.845 384 352.007 391.164 352.007 400V432C352.007 440.836 344.845 448 336.007 448H292.557L260.587 503.938C257.744 508.922 252.431 512 246.712 512H181.211C170.586 512 162.898 501.812 165.836 491.594L214.868 320H111.991L68.802 377.594C65.771 381.625 61.021 384 55.99 384H15.989C5.582 384 -2.043 374.219 0.488 364.125L23.184 286.221C9.897 282.33 0 270.547 0 256S9.897 229.67 23.184 225.779L0.488 147.875C-2.043 137.781 5.582 128 15.989 128H55.99C61.021 128 65.771 130.375 68.802 134.406L111.991 192H214.868L165.836 20.391C162.898 10.172 170.586 0 181.211 0H246.712C251.837 0 258.056 3.609 260.619 8.062L292.58 64H336.007C344.845 64 352.007 71.164 352.007 80V112C352.007 120.836 344.845 128 336.007 128H329.147L365.715 192H479.998C515.343 192 576 220.656 576 256Z"/></svg>