<svg xmlns="http://www.w3.org/2000/svg" viewBox="0 0 384 512"><!-- Font Awesome Pro 6.0.0-alpha2 by @fontawesome - https://fontawesome.com License - https://fontawesome.com/license (Commercial License) --><path d="M320 32C320 14.375 305.625 0 288 0S256 14.375 256 32V128H320V32ZM368 160H16C7.125 160 0 167.125 0 176V208C0 216.875 7.125 224 16 224H32V256C32 332 85.5 397.625 160 412.75V512H224V412.75C298.5 397.625 352 332 352 256V224H368C376.875 224 384 216.875 384 208V176C384 167.125 376.875 160 368 160ZM128 32C128 14.375 113.625 0 96 0S64 14.375 64 32V128H128V32Z"/></svg>