<svg xmlns="http://www.w3.org/2000/svg" viewBox="0 0 384 512"><!-- Font Awesome Pro 6.0.0-alpha2 by @fontawesome - https://fontawesome.com License - https://fontawesome.com/license (Commercial License) --><path d="M56 216H152V312C152 334.094 169.906 352 192 352S232 334.094 232 312V216H328C350.094 216 368 198.094 368 176S350.094 136 328 136H232V40C232 17.906 214.094 0 192 0S152 17.906 152 40V136H56C33.906 136 16 153.906 16 176S33.906 216 56 216ZM344 432H40C17.906 432 0 449.906 0 472S17.906 512 40 512H344C366.094 512 384 494.094 384 472S366.094 432 344 432Z"/></svg>