<svg xmlns="http://www.w3.org/2000/svg" viewBox="0 0 448 512"><!-- Font Awesome Pro 6.0.0-alpha2 by @fontawesome - https://fontawesome.com License - https://fontawesome.com/license (Commercial License) --><path d="M448 168V168C448 181.255 437.255 192 424 192H24C10.745 192 0 181.255 0 168V168C0 154.745 10.745 144 24 144H79.375C86.125 90.25 125.875 46.875 177.875 35.25C183.5 15 202 0 224 0L286.197 0C309.41 0 330.699 15.686 335.083 38.481C340.982 69.152 317.613 96 288 96H224C210.75 96 198.75 90.625 190.125 82.001C158.125 88.75 133.75 113.125 127.375 144H424C437.255 144 448 154.745 448 168ZM48 224H400L371.163 483.534C369.362 499.74 355.664 512 339.359 512H108.641C92.336 512 78.638 499.74 76.837 483.534L48 224ZM143.518 358.756L176.518 390.881L168.768 436.381C167.268 444.631 176.018 450.756 183.268 446.881L224.018 425.381L264.768 446.881C272.143 450.756 280.768 444.631 279.268 436.381L271.518 390.881L304.518 358.756C310.393 352.881 307.143 342.756 298.893 341.631L253.268 334.881L232.893 293.506C229.268 286.131 218.768 286.006 215.018 293.506L194.643 334.881L149.018 341.631C140.768 342.756 137.643 352.881 143.518 358.756Z"/></svg>