<svg xmlns="http://www.w3.org/2000/svg" viewBox="0 0 512 512"><!-- Font Awesome Pro 6.0.0-alpha2 by @fontawesome - https://fontawesome.com License - https://fontawesome.com/license (Commercial License) --><path d="M512 440C512 479.75 479.75 512 440 512H72C32.25 512 0 479.75 0 440C0 404.125 26.25 374.625 60.625 369.125C43.375 356 32 335.375 32 312C32 272.25 64.25 240 104 240H118.125C104.625 228.25 96 211.25 96 192C96 156.625 124.625 128 160 128H176C220.125 128 256 92.125 256 48C256 30.625 250.25 14.625 240.875 1.5C245.875 0.75 250.875 0 256 0C309 0 352 43 352 96C352 107.25 349.75 118 346.125 128H352C387.375 128 416 156.625 416 192C416 211.25 407.375 228.25 393.875 240H408C447.75 240 480 272.25 480 312C480 335.375 468.625 356 451.375 369.125C485.75 374.625 512 404.125 512 440Z"/></svg>