<svg xmlns="http://www.w3.org/2000/svg" viewBox="0 0 448 512"><!-- Font Awesome Pro 6.0.0-alpha2 by @fontawesome - https://fontawesome.com License - https://fontawesome.com/license (Commercial License) --><path d="M440.97 448.357L344.693 352.15L440.562 256.204C449.935 246.824 449.935 231.616 440.562 222.236L417.941 199.596C408.568 190.216 393.373 190.216 384 199.596L288.088 295.585L220.47 228.018C267.332 205.099 297.209 152.561 285.422 94.894C273.943 38.742 221.832 0 164.562 0H32C14.326 0 0 14.338 0 32.026V296.236C0 309.5 10.746 320.255 24 320.255H56C69.254 320.255 80 309.5 80 296.236V240.191H119.441L231.525 352.193L135.437 448.357C126.064 457.738 126.064 472.945 135.437 482.326L158.058 504.965C167.431 514.345 182.627 514.345 192 504.965L288.131 408.757L384.408 504.965C393.781 514.345 408.976 514.345 418.349 504.965L440.97 482.326C450.343 472.945 450.343 457.738 440.97 448.357ZM80 80.064H168C190.062 80.064 208 98.016 208 120.096S190.062 160.128 168 160.128H80V80.064Z"/></svg>