<svg xmlns="http://www.w3.org/2000/svg" viewBox="0 0 512 512"><!-- Font Awesome Pro 6.0.0-alpha2 by @fontawesome - https://fontawesome.com License - https://fontawesome.com/license (Commercial License) --><path d="M504 256C504 393 393 504 256 504S8 393 8 256S119 8 256 8C305.625 8 354.125 22.875 395.125 50.875L425.375 20.625C431.625 14.375 441.75 14.375 448 20.625L459.375 32C465.625 38.25 465.625 48.375 459.375 54.625L258 256H320C320.125 291.125 291.875 319.75 256.875 320.125C221.75 320.625 192.875 292.75 192 257.625C191.25 222.625 218.75 193.375 253.875 192.25L282 164.125C273.5 161.5 264.75 160.125 256 160C203 160 160 203 160 256S203 352 256 352S352 309 352 256H416C416 335.5 357.5 401.125 281.375 413.375C275.5 405.5 266.625 400 256 400S236.5 405.5 230.625 413.375C162.75 402.5 109.5 349.25 98.625 281.375C106.5 275.5 112 266.625 112 256S106.5 236.5 98.625 230.625C110.875 154.5 176.5 96 256 96C283.125 96 308.25 103.5 330.5 115.5L354.5 91.5C324.75 73.5 290.75 64 256 64C159.75 64 80.25 134.875 66.375 227.25C55.125 232.5 48 243.625 48 256S55.125 279.5 66.375 284.75C79 367.75 144.25 433 227.25 445.625C232.5 456.875 243.625 464 256 464S279.5 456.875 284.75 445.625C377.125 431.75 448 352.25 448 256H504Z"/></svg>