<svg xmlns="http://www.w3.org/2000/svg" viewBox="0 0 512 512"><!-- Font Awesome Pro 6.0.0-alpha2 by @fontawesome - https://fontawesome.com License - https://fontawesome.com/license (Commercial License) --><path d="M447.997 128H218.509L494.747 47.032C507.466 43.298 514.747 29.969 511.028 17.251C507.31 4.548 494.028 -2.749 481.247 0.97L51.75 126.86C22.682 135.371 2.203 161.662 0.359 191.641L0 192V447.999C0 483.312 28.687 511.999 64 511.999H447.997C483.31 511.999 511.997 483.312 511.997 447.999V192C511.997 156.688 483.31 128 447.997 128ZM80 248C80 243.594 83.593 240 87.999 240H199.999C204.405 240 207.999 243.594 207.999 248V264C207.999 268.406 204.405 272 199.999 272H87.999C83.593 272 80 268.406 80 264V248ZM207.999 392C207.999 396.406 204.405 400 199.999 400H87.999C83.593 400 80 396.406 80 392V376C80 371.593 83.593 368 87.999 368H199.999C204.405 368 207.999 371.593 207.999 376V392ZM223.999 328C223.999 332.406 220.405 336 215.999 336H72C67.593 336 64 332.406 64 328V312C64 307.594 67.593 304 72 304H215.999C220.405 304 223.999 307.594 223.999 312V328ZM367.998 400C323.842 400 287.998 364.156 287.998 320S323.842 240 367.998 240S447.997 275.844 447.997 320S412.154 400 367.998 400Z"/></svg>