<svg xmlns="http://www.w3.org/2000/svg" viewBox="0 0 448 512"><!-- Font Awesome Pro 6.0.0-alpha2 by @fontawesome - https://fontawesome.com License - https://fontawesome.com/license (Commercial License) --><path d="M50.557 231.93C31.785 263.402 0 320.643 0 347.359C0 385.268 28.654 416 64 416S128 385.268 128 347.359C128 320.643 96.215 263.402 77.443 231.93C71.137 221.355 56.863 221.355 50.557 231.93ZM224 155.359C224 128.643 192.215 71.402 173.443 39.93C167.137 29.355 152.863 29.355 146.557 39.93C127.785 71.402 96 128.643 96 155.359C96 193.268 124.654 224 160 224S224 193.268 224 155.359ZM334.594 135.506C327.678 125.498 312.322 125.498 305.406 135.506C271.836 184.074 192 305.162 192 358.26C192 425.494 249.309 480 320 480S448 425.494 448 358.26C448 305.162 368.164 184.074 334.594 135.506Z"/></svg>