<svg xmlns="http://www.w3.org/2000/svg" viewBox="0 0 576 512"><!-- Font Awesome Pro 6.0.0-alpha2 by @fontawesome - https://fontawesome.com License - https://fontawesome.com/license (Commercial License) --><path d="M320 31.973H304C295.25 31.973 288 39.102 288 47.977V75.199C273.402 68.231 257.254 64.008 240 64.008H191.057L88.232 2.313C77.568 -4.086 64 3.594 64 16.031V75.195C26.264 93.211 0 131.406 0 176.008C0 235.266 46.17 283.278 104.424 287.242L33.939 408.024C27.564 419.024 25.814 432.149 29.189 444.403C32.439 456.781 40.564 467.281 51.564 473.531L106.939 505.535C118.064 511.91 131.064 513.66 143.439 510.41C155.689 507.035 166.189 499.031 172.564 488.031L288 288.008V304.008C288 312.758 295.25 320.008 304 320.008H320C328.75 320.008 335.875 313.008 336 304.258V47.727C335.875 38.977 328.75 31.973 320 31.973ZM112 200C98.75 200 88 189.246 88 175.996C88 162.742 98.75 151.992 112 151.992S136 162.742 136 175.996C136 189.246 125.25 200 112 200ZM208 200C194.75 200 184 189.246 184 175.996C184 162.742 194.75 151.992 208 151.992S232 162.742 232 175.996C232 189.246 221.25 200 208 200ZM569.375 119.438C565.125 116.438 559.875 115.563 555 117.188H554.875L480 142.192H416V79.977C416 71.102 408.875 63.977 400 63.977H384C375.25 63.977 368 71.102 368 79.977V272C368 280.754 375.25 288.004 384 288.004H400C408.875 288.004 416 280.754 416 272V206.199H480.125L554.875 231.203C559.75 232.828 565.125 231.953 569.375 228.953C573.5 225.953 576 221.078 576 215.953V132.438C576 127.188 573.5 122.438 569.375 119.438Z"/></svg>