<svg xmlns="http://www.w3.org/2000/svg" viewBox="0 0 512 512"><!-- Font Awesome Pro 6.0.0-alpha2 by @fontawesome - https://fontawesome.com License - https://fontawesome.com/license (Commercial License) --><path d="M448 32H64C28.654 32 0 60.656 0 96V416C0 451.344 28.654 480 64 480H448C483.346 480 512 451.344 512 416V96C512 60.656 483.346 32 448 32ZM336.969 303.029C346.344 312.404 346.344 327.592 336.969 336.967C327.588 346.348 312.404 346.34 303.031 336.967L256 289.936L208.969 336.967C199.588 346.348 184.404 346.34 175.031 336.967C165.656 327.592 165.656 312.404 175.031 303.029L222.062 255.998L175.031 208.969C165.656 199.594 165.656 184.406 175.031 175.031S199.594 165.656 208.969 175.031L256 222.062L303.031 175.031C312.406 165.656 327.594 165.656 336.969 175.031S346.344 199.594 336.969 208.969L289.938 255.998L336.969 303.029Z"/></svg>