<svg xmlns="http://www.w3.org/2000/svg" viewBox="0 0 448 512"><!-- Font Awesome Pro 6.0.0-alpha2 by @fontawesome - https://fontawesome.com License - https://fontawesome.com/license (Commercial License) --><path d="M6.049 444.258C-3.577 455.133 -1.451 471.882 10.55 480.007L79.306 507.881C89.182 514.63 102.683 512.881 110.684 504.131L202.443 402.259L123.185 314.262L6.049 444.258ZM441.84 444.258C441.84 444.258 149.813 119.769 146.437 114.269C161.814 105.769 186.691 96.27 223.945 96.27S286.075 105.769 301.452 114.269C298.201 119.769 245.447 178.767 245.447 178.767L324.579 266.514L358.707 228.515C387.46 196.641 392.085 149.893 370.208 113.019L326.454 39.522C322.204 32.272 316.578 26.272 309.703 21.522C268.949 -6.102 182.191 -8.227 138.187 21.522C131.311 26.272 125.685 32.272 121.435 39.522L77.806 112.769C76.306 115.269 40.678 174.892 89.307 228.765L337.455 504.006C345.456 512.881 358.832 514.505 368.708 507.756L437.589 479.882C449.465 471.882 451.591 455.133 441.84 444.258Z"/></svg>