<svg xmlns="http://www.w3.org/2000/svg" viewBox="0 0 512 512"><!-- Font Awesome Pro 6.0.0-alpha2 by @fontawesome - https://fontawesome.com License - https://fontawesome.com/license (Commercial License) --><path d="M505.098 19.125C503.848 13.5 498.473 8.125 492.848 6.875C460.725 0 435.476 0 410.353 0C307.108 0 245.237 55.25 198.989 128H94.87C78.496 128 59.247 139.875 51.997 154.5L2.5 253.25C1 256.625 0.125 260.25 0 264C0 277.25 10.749 288 23.999 288H127.868L105.369 310.5C93.994 321.875 92.37 342.75 105.369 355.75L156.242 406.625C167.366 417.75 188.365 419.75 201.489 406.625L223.988 384.125V488C223.988 501.25 234.737 512 247.987 512C251.736 511.875 255.361 511 258.736 509.5L357.481 460.125C372.105 452.75 383.979 433.625 383.979 417.25V312.75C456.475 266.5 511.972 204.375 511.972 101.75C512.097 76.5 512.097 51.25 505.098 19.125ZM383.979 168C361.98 168 343.981 150.125 343.981 128S361.98 88 383.979 88C406.103 88 423.977 105.875 423.977 128S406.103 168 383.979 168Z"/></svg>