<svg xmlns="http://www.w3.org/2000/svg" viewBox="0 0 576 512"><!-- Font Awesome Pro 6.0.0-alpha2 by @fontawesome - https://fontawesome.com License - https://fontawesome.com/license (Commercial License) --><path d="M200.254 105.523C283.941 28.471 420.064 28.471 503.75 105.523C513.5 114.502 528.688 113.861 537.656 104.1C541.906 99.486 544 93.65 544 87.834C544 81.357 541.406 74.881 536.25 70.141C434.658 -23.381 269.348 -23.381 167.754 70.141C157.973 79.104 157.379 94.324 166.348 104.1C175.316 113.861 190.504 114.502 200.254 105.523ZM528.004 320.012H376V248.016C376 234.762 365.256 224.018 352.002 224.018H352C338.746 224.018 328 234.762 328 248.018V320.012H48C21.49 320.012 0 341.502 0 368.012V464.002C0 490.51 21.49 512 47.998 512H528C554.51 512 576 490.51 576 464V368.008C576 341.5 554.512 320.012 528.004 320.012ZM96 448.004C78.375 448.004 64 433.629 64 416.006C64 398.381 78.375 384.008 96 384.008S128 398.381 128 416.006C128 433.629 113.625 448.004 96 448.004ZM192 448.004C174.375 448.004 160 433.629 160 416.006C160 398.381 174.375 384.008 192 384.008S224 398.381 224 416.006C224 433.629 209.625 448.004 192 448.004ZM248.16 149.867C238.191 158.596 237.223 173.77 245.973 183.779C254.723 193.744 269.879 194.729 279.848 185.969C319.627 150.994 384.377 150.994 424.158 185.969C434.127 194.729 449.283 193.744 458.033 183.779C462.031 179.211 464 173.564 464 167.934C464 161.256 461.25 154.607 455.846 149.867C398.596 99.533 305.408 99.533 248.16 149.867Z"/></svg>