<svg xmlns="http://www.w3.org/2000/svg" viewBox="0 0 384 512"><!-- Font Awesome Pro 6.0.0-alpha2 by @fontawesome - https://fontawesome.com License - https://fontawesome.com/license (Commercial License) --><path d="M240 320C319.406 320 384 255.406 384 176S319.406 32 240 32H104C81.906 32 64 49.906 64 72V240H40C17.906 240 0 257.906 0 280S17.906 320 40 320H64V352H32C14.328 352 0 366.328 0 384S14.328 416 32 416H64V440C64 462.094 81.906 480 104 480S144 462.094 144 440V416H288C305.672 416 320 401.672 320 384S305.672 352 288 352H144V320H240ZM144 112H240C275.297 112 304 140.703 304 176S275.297 240 240 240H144V112Z"/></svg>