<svg xmlns="http://www.w3.org/2000/svg" viewBox="0 0 512 512"><!-- Font Awesome Pro 6.0.0-alpha2 by @fontawesome - https://fontawesome.com License - https://fontawesome.com/license (Commercial License) --><path d="M512 145.098C512 153.301 508.889 161.503 502.666 167.725L167.727 502.666C161.504 508.889 153.301 512 145.099 512S128.693 508.889 122.471 502.666L9.334 389.529C3.111 383.307 0 375.104 0 366.902S3.111 350.497 9.334 344.275L63.668 289.941L120.236 346.51C123.347 349.62 127.448 351.176 131.55 351.176C140.61 351.176 147.53 343.861 147.53 335.196C147.53 331.094 145.975 326.993 142.863 323.883L86.295 267.314L131.549 222.059L188.119 278.627C191.229 281.738 195.331 283.294 199.432 283.294C208.119 283.294 215.412 276.344 215.412 267.314C215.412 263.213 213.857 259.112 210.746 256L154.178 199.432L199.432 154.176L256 210.746C259.112 213.857 263.213 215.412 267.314 215.412C276.374 215.412 283.295 208.094 283.295 199.432C283.295 195.33 281.739 191.229 278.627 188.117L222.059 131.549L267.314 86.295L323.883 142.863C326.993 145.974 331.095 147.53 335.197 147.53C344.257 147.53 351.177 140.215 351.177 131.549C351.177 127.448 349.621 123.347 346.51 120.236L289.941 63.666L344.275 9.334C350.498 3.111 358.701 0 366.903 0S383.308 3.111 389.529 9.334L502.666 122.471C508.889 128.693 512 136.896 512 145.098Z "></path></svg>