<svg xmlns="http://www.w3.org/2000/svg" viewBox="0 0 448 512"><!-- Font Awesome Pro 6.0.0-alpha2 by @fontawesome - https://fontawesome.com License - https://fontawesome.com/license (Commercial License) --><path d="M255.998 176C255.996 73.633 162.123 32 105.588 32H48C21.492 32 0 53.49 0 80V440C0 462.092 17.91 480 40 480C62.092 480 80 462.092 80 440V320H102.902L145.529 450.994C150.436 468.164 166.127 480 183.982 480C210.553 480 229.734 454.568 222.436 429.021L180.852 301.682C225.396 277.168 256 230.338 255.998 176ZM112 240H80V112H112C147.297 112 176 140.703 176 176S147.297 240 112 240ZM362.123 305.594L353.842 302.812C317.811 290.5 318.717 284.531 320.467 272.625C321.467 265.844 324.373 263 326.779 261.25C334.029 256.125 347.498 254.687 362.529 257.375C368.904 258.562 377.248 261.219 388.029 265.594C404.279 272.094 423.061 264.281 429.686 247.875C436.279 231.5 428.373 212.844 411.967 206.219C396.936 200.156 384.904 196.406 374.061 194.437C341.123 188.344 311.154 193.687 289.498 209.25C271.686 222 260.498 240.687 257.154 263.25C246.686 333.812 307.279 354.531 333.123 363.375L341.873 366.312C384.342 380.5 385.623 385.219 383.529 399.375C382.529 406.156 379.623 409 377.217 410.75C369.967 415.937 356.592 417.437 341.186 414.562C331.404 412.875 318.373 407.375 306.842 402.531L300.217 399.781C283.936 393.062 265.217 400.781 258.436 417.125C251.686 433.469 259.436 452.156 275.779 458.906L282.061 461.531C296.686 467.687 313.279 474.656 329.936 477.562C338.779 479.188 347.436 480 355.748 480C378.342 480 398.654 474.125 414.498 462.75C432.311 450 443.498 431.312 446.842 408.75C457.436 337.406 397.779 317.5 362.123 305.594Z"/></svg>