<svg xmlns="http://www.w3.org/2000/svg" viewBox="0 0 320 512"><!-- Font Awesome Pro 6.0.0-alpha2 by @fontawesome - https://fontawesome.com License - https://fontawesome.com/license (Commercial License) --><path d="M175.456 480C117.13 480 58.351 458.463 29.251 446.054C4.896 435.614 -6.407 407.42 3.991 383.039C14.388 358.595 42.568 347.28 66.938 357.72C126.154 383.039 185.057 391.072 210.145 377.287C215.578 374.286 220.917 369.66 223.134 356.063C226.709 334.276 223.977 325.524 146.137 302.018C85.422 283.67 -16.211 252.975 2.196 140.51C8.003 105.095 27.643 75.025 57.54 55.895C102.626 27.013 168.29 24.325 252.75 47.768C278.275 54.864 293.231 81.308 286.144 106.876C279.071 132.414 252.563 147.324 227.115 140.291C149.493 118.754 118.8 130.664 109.215 136.79C106.67 138.416 98.926 143.386 96.866 156.045C93.291 177.832 96.023 186.584 173.863 210.09C234.578 228.438 336.211 259.133 317.804 371.598C311.201 411.858 289.953 442.96 256.325 461.433C231.752 474.967 203.651 480 175.456 480Z"/></svg>