<svg xmlns="http://www.w3.org/2000/svg" viewBox="0 0 512 512"><!-- Font Awesome Pro 6.0.0-alpha2 by @fontawesome - https://fontawesome.com License - https://fontawesome.com/license (Commercial License) --><path d="M495.804 288H16.195C7.06 288 -0.7 295.75 0.05 304.875C6.808 381.25 58.374 444.25 128.212 468.75V480C128.212 497.625 142.607 512 160.253 512H352.497C370.144 512 384.537 497.625 384.537 480V468.5C454.001 443.875 505.316 381 511.949 304.875C512.701 295.75 505.066 288 495.804 288ZM319.999 224C319.999 235.281 322.304 245.945 325.878 256H506.121C509.695 245.945 511.999 235.281 511.999 224C511.999 170.98 469.019 128 415.999 128S319.999 170.98 319.999 224ZM96.085 256H169.374L84.687 171.312C78.437 165.062 78.437 154.937 84.687 148.688S101.062 142.438 107.312 148.688L207.999 249.375V112C207.999 103.156 215.156 96 223.999 96S239.999 103.156 239.999 112V256H292.658C289.783 245.625 288.283 234.875 288.158 224C288.283 153.375 345.552 96.125 416.204 96C418.829 96 421.331 96.625 423.956 96.75C406.326 76.875 380.941 64 352.181 64C343.677 64.125 335.175 65.375 327.046 67.75C309.415 26.625 268.9 0 224.132 0C179.367 0 138.851 26.625 121.22 67.75C113.091 65.375 104.589 64.125 96.085 64C43.066 64 0.05 107 0.05 160S43.066 256 96.085 256Z"/></svg>