<svg xmlns="http://www.w3.org/2000/svg" viewBox="0 0 512 512"><!-- Font Awesome Pro 6.0.0-alpha2 by @fontawesome - https://fontawesome.com License - https://fontawesome.com/license (Commercial License) --><path d="M502.749 264.998L422.376 184.623L470.249 136.748C483.249 123.623 483.249 102.375 470.249 89.25L422.751 41.75C409.626 28.625 388.376 28.625 375.251 41.75L327.376 89.625L247.126 9.25C241.001 3.375 232.878 0 224.503 0C216.003 0 207.878 3.375 202.003 9.25L105.253 106C92.878 118.498 92.878 138.623 105.253 151.123L185.503 231.498L175.753 241.373C121.753 216.873 59.503 218.873 7.253 246.748C-1.245 251.373 -2.37 263.123 4.38 269.998L112.003 377.496L94.128 395.246C91.503 394.496 89.128 393.621 86.378 393.621C68.628 393.621 54.378 407.996 54.378 425.621C54.378 443.371 68.628 457.621 86.378 457.621C104.003 457.621 118.378 443.371 118.378 425.621C118.378 422.871 117.503 420.496 116.753 417.871L134.503 399.996L242.126 507.621C248.876 514.371 260.751 513.246 265.251 504.746C293.126 452.496 295.126 390.246 270.626 336.246L280.626 326.373L360.876 406.746C373.376 419.121 393.501 419.121 405.876 406.746L502.624 309.998C508.624 304.123 511.999 295.998 511.999 287.498C511.999 279.123 508.624 270.998 502.749 264.998ZM219.503 197.373L150.628 128.498L224.503 54.75L293.376 123.623L219.503 197.373ZM383.501 361.371L314.626 292.498L388.376 218.623L457.249 287.498L383.501 361.371Z"/></svg>