<svg xmlns="http://www.w3.org/2000/svg" viewBox="0 0 512 512"><!-- Font Awesome Pro 6.0.0-alpha2 by @fontawesome - https://fontawesome.com License - https://fontawesome.com/license (Commercial License) --><path d="M447.875 69.875L463 24.125C464.875 18.625 464 12.375 460.5 7.625C457 2.875 451.5 0 445.625 0H386.375C380.5 0 375 2.875 371.5 7.625C368 12.375 367.125 18.625 369 24.125L384.25 69.875C346.875 83 320 118.25 320 160C320 248.25 248.25 320 160 320C118.25 320 83 346.875 69.875 384.125L24.125 369C18.625 367.125 12.375 368 7.625 371.5C2.875 375 0 380.5 0 386.375V445.625C0 451.5 2.875 457 7.625 460.5C12.375 463.875 18.625 464.875 24.125 463L69.875 447.75C83 485.125 118.25 512 160 512C354.125 512 512 354.125 512 160C512 118.25 485.125 83 447.875 69.875ZM160 400C151.125 400 144 392.875 144 384S151.125 368 160 368C274.75 368 368 274.75 368 160C368 151.125 375.125 144 384 144S400 151.125 400 160C400 292.375 292.375 400 160 400Z"/></svg>