<svg xmlns="http://www.w3.org/2000/svg" viewBox="0 0 640 512"><!-- Font Awesome Pro 6.0.0-alpha2 by @fontawesome - https://fontawesome.com License - https://fontawesome.com/license (Commercial License) --><path d="M85.004 250.511C-1.996 424.754 0.004 416.379 0.004 432.003C0.004 476.126 57.254 512 128.004 512S256.004 476.126 256.004 432.003C256.004 415.879 257.379 423.254 170.879 250.511C153.254 215.262 102.754 215.137 85.004 250.511ZM56.004 416.004L128.004 272.01L200.004 416.004H56.004ZM554.879 122.516C537.254 87.268 486.754 87.143 469.004 122.516C382.004 296.759 384.004 288.384 384.004 304.009C384.004 348.132 441.254 384.005 512.004 384.005S640.004 348.132 640.004 304.009C640.004 287.884 641.379 295.259 554.879 122.516ZM440.004 288.009L512.004 144.015L584.004 288.009H440.004ZM496.002 448.003H352.002V153.261C372.832 144.144 388.725 126.331 395.785 104.49L522.127 62.378C538.893 56.785 547.955 38.661 542.361 21.896C536.783 5.162 518.736 -3.963 501.877 1.662L388.584 39.424C374.644 15.935 349.295 0.022 320.002 0.022C275.818 0.022 240.002 35.836 240.002 80.018C240.002 82.979 240.561 85.784 240.873 88.66L117.877 129.657C101.111 135.25 92.049 153.374 97.643 170.139C102.111 183.545 114.596 192.029 128.002 192.029C131.346 192.029 134.768 191.498 138.127 190.373L273.811 145.146C278.246 148.297 282.959 151.054 288.002 153.261V496.001C288.002 504.836 295.166 512 304.002 512H528.002C536.84 512 544.002 504.836 544.002 496.001C544.002 469.492 522.512 448.003 496.002 448.003Z"/></svg>