<svg xmlns="http://www.w3.org/2000/svg" viewBox="0 0 640 512"><!-- Font Awesome Pro 6.0.0-alpha2 by @fontawesome - https://fontawesome.com License - https://fontawesome.com/license (Commercial License) --><path d="M352 159.979H336V143.977C336 135.176 328.801 127.977 320 127.977S304 135.176 304 143.977V175.979C304 184.779 311.201 191.98 320.002 191.98H352C360.801 191.98 368 184.779 368 175.98V175.979C368 167.178 360.801 159.979 352 159.979ZM0 247.059V480C0 497.673 14.327 512 32 512H96V191.98L21.875 216.703C8.811 221.06 0 233.287 0 247.059ZM618.125 216.703L544 191.98V512H608C625.673 512 640 497.673 640 480V247.059C640 233.287 631.189 221.06 618.125 216.703ZM497.75 111.975L337.75 5.344C327.001 -1.82 312.999 -1.82 302.25 5.344L142.25 111.975C133.375 117.975 128 127.977 128 138.602V512H256V383.99C256 366.317 270.327 351.99 288 351.99H352C369.673 351.99 384 366.317 384 383.99V512H512V138.602C512 127.977 506.625 117.975 497.75 111.975ZM320 255.984C275.875 255.984 240 220.107 240 175.979C240 131.852 275.875 95.975 320 95.975S400 131.852 400 175.979C400 220.107 364.125 255.984 320 255.984Z"/></svg>