<svg xmlns="http://www.w3.org/2000/svg" viewBox="0 0 640 512"><!-- Font Awesome Pro 6.0.0-alpha2 by @fontawesome - https://fontawesome.com License - https://fontawesome.com/license (Commercial License) --><path d="M549.836 0H338.852C191.986 0 63.996 64 0 192H509.963L549.836 0ZM632.58 11.625C626.58 4.25 617.455 0 607.957 0H582.459L522.713 288H415.971C398.299 288 383.973 302.326 383.973 320S398.299 352 415.971 352H509.463L480.215 493C479.34 497.75 480.59 502.5 483.715 506.25C486.715 509.875 491.215 512 495.965 512H527.463C535.086 512 541.711 506.5 543.086 499L639.453 38C641.203 28.625 638.703 19 632.58 11.625Z"/></svg>