<svg xmlns="http://www.w3.org/2000/svg" viewBox="0 0 448 512"><!-- Font Awesome Pro 6.0.0-alpha2 by @fontawesome - https://fontawesome.com License - https://fontawesome.com/license (Commercial License) --><path d="M444.627 334.312L412.627 398.312C407.205 409.156 396.127 416 384.002 416H264V464H360C373.254 464 384 474.744 384 488C384 501.254 373.254 512 360 512H120C106.746 512 96 501.254 96 488C96 474.744 106.746 464 120 464H216V416H171.859C133.734 416 99.219 393.438 83.906 358.5L8.047 185.062C2.781 173.062 0 159.781 0 146.625V32C0 14.312 14.328 0 32 0S64 14.312 64 32V146.625C64 151 64.922 155.438 66.672 159.406L80.928 192H320C337.674 192 352 206.326 352 224C352 241.672 337.674 256 320 256H108.92L123.33 288.941C124.92 288.699 126.344 288 128 288H416.002C427.096 288 437.393 293.75 443.221 303.188S449.58 324.406 444.627 334.312Z"/></svg>