<svg xmlns="http://www.w3.org/2000/svg" viewBox="0 0 256 512"><!-- Font Awesome Pro 6.0.0-alpha2 by @fontawesome - https://fontawesome.com License - https://fontawesome.com/license (Commercial License) --><path d="M224.461 337.361C240.123 323.086 250.547 304.24 254.264 281.539C268.723 193.104 189.59 169.168 137.219 153.324L124.696 149.512C65.674 131.199 61.113 119.389 64.83 96.795C66.362 87.451 70.545 80.607 78.041 75.232C92.781 64.672 117.983 61.359 147.276 66.203C158.018 67.953 171.633 71.889 188.934 78.232C205.516 84.232 223.91 75.795 229.969 59.172C236.028 42.578 227.502 24.203 210.92 18.109C189.528 10.268 172.571 5.486 157.643 3.049C111.174 -4.732 69.547 2.518 40.754 23.234C19.455 38.516 5.965 60.391 1.686 86.482C-5.181 128.566 9.838 156.041 31.469 174.65C15.869 188.977 5.406 207.77 1.686 230.479C-12.586 317.943 67.36 342.725 105.74 354.631L118.733 358.598C183.438 378.16 195.649 387.691 191.151 415.189C189.871 422.877 186.311 433.939 169.916 441.346C154.645 448.252 132.91 449.752 108.52 445.814C91.781 443.158 71.201 435.314 53.026 428.408L43.252 424.689C26.731 418.533 8.307 426.939 2.092 443.439C-4.092 460.002 4.278 478.438 20.828 484.625L30.291 488.219C51.34 496.219 75.231 505.344 98.309 508.969C110.518 511 122.385 512 133.783 512C156.955 512 178.129 507.844 196.242 499.656C228.19 485.219 248.768 458.908 254.264 425.533C261.117 383.621 246.842 356.303 224.461 337.361ZM64.83 240.789C68.133 220.508 86.051 212.693 102.92 209.752C103.846 210.041 104.856 210.361 105.74 210.635L118.733 214.604C183.438 234.166 195.649 243.695 191.119 271.227C187.828 291.428 170 299.293 153.19 302.262C147.701 300.516 142.311 298.861 137.219 297.32L124.696 293.508C65.674 275.195 61.113 263.383 64.83 240.789Z"/></svg>