<svg xmlns="http://www.w3.org/2000/svg" viewBox="0 0 448 512"><!-- Font Awesome Pro 6.0.0-alpha2 by @fontawesome - https://fontawesome.com License - https://fontawesome.com/license (Commercial License) --><path d="M384 32H64C28.625 32 0 60.625 0 96V416C0 451.375 28.625 480 64 480H384C419.375 480 448 451.375 448 416V96C448 60.625 419.375 32 384 32ZM96 272C96 280.875 88.875 288 80 288S64 280.875 64 272V112C64 103.125 71.125 96 80 96S96 103.125 96 112V272ZM160 272C160 280.875 152.875 288 144 288S128 280.875 128 272V112C128 103.125 135.125 96 144 96S160 103.125 160 112V272ZM224 272C224 280.875 216.875 288 208 288S192 280.875 192 272V112C192 103.125 199.125 96 208 96S224 103.125 224 112V272Z"/></svg>