<svg xmlns="http://www.w3.org/2000/svg" viewBox="0 0 640 512"><!-- Font Awesome Pro 6.0.0-alpha2 by @fontawesome - https://fontawesome.com License - https://fontawesome.com/license (Commercial License) --><path d="M633.107 403.375L492.232 159.25C472.607 125.125 423.357 125.125 403.732 159.25L262.857 403.375C243.232 437.375 267.857 480 307.107 480H588.857C628.107 480 652.732 437.375 633.107 403.375ZM447.982 432C434.732 432 423.982 421.25 423.982 408S434.732 384 447.982 384S471.982 394.75 471.982 408S461.232 432 447.982 432ZM472 336C472 349.25 461.25 360 448 360S424 349.25 424 336V256C424 242.75 434.75 232 448 232S472 242.75 472 256V336ZM235.244 387.375L375.988 143.25C390.738 117.375 418.238 101.5 447.986 101.625V96C447.986 60.625 419.363 32 383.988 32H63.998C28.625 32 0 60.625 0 96V416C0 451.375 28.625 480 63.998 480H242.492C239.992 476.875 237.244 474 235.244 470.5C220.244 444.75 220.119 413 235.244 387.375ZM95.998 272C95.998 280.875 88.873 288 79.998 288S63.998 280.875 63.998 272V112C63.998 103.125 71.123 96 79.998 96S95.998 103.125 95.998 112V272ZM159.996 272C159.996 280.875 152.871 288 143.996 288S127.996 280.875 127.996 272V112C127.996 103.125 135.121 96 143.996 96S159.996 103.125 159.996 112V272ZM207.994 288C199.119 288 191.994 280.875 191.994 272V112C191.994 103.125 199.119 96 207.994 96S223.994 103.125 223.994 112V272C223.994 280.875 216.869 288 207.994 288Z"/></svg>