<svg xmlns="http://www.w3.org/2000/svg" viewBox="0 0 512 512"><!-- Font Awesome Pro 6.0.0-alpha2 by @fontawesome - https://fontawesome.com License - https://fontawesome.com/license (Commercial License) --><path d="M466.5 83.68L274.5 3.672C269.625 1.641 261.344 0 256.062 0C250.75 0 242.5 1.641 237.594 3.672L45.594 83.68C27.688 91.07 16 108.574 16 127.984C16 385.157 205.164 512 255.953 512C307.975 512 496 383.813 496 127.984C496 108.574 484.312 91.07 466.5 83.68ZM352 200.007C352 205.538 350.1 211.097 346.219 215.625L250.219 327.625C243.459 335.504 234.595 336 232 336C225.656 336 219.531 333.469 215.031 328.969L167.031 280.969C162.344 276.281 160 270.141 160 264C160 251.21 170.298 240 184 240C190.141 240 196.281 242.344 200.969 247.031L230.656 276.719L309.781 184.375C314.54 178.843 321.263 176.013 328.019 176.013C346.369 176.013 352 192.618 352 200.007Z "></path></svg>