<svg xmlns="http://www.w3.org/2000/svg" viewBox="0 0 640 512"><!-- Font Awesome Pro 6.0.0-alpha2 by @fontawesome - https://fontawesome.com License - https://fontawesome.com/license (Commercial License) --><path d="M319.952 512C357.216 512 422.841 453.766 437.298 439.43L81.161 160.297C96.423 398.096 272.987 512 319.952 512ZM639.999 487.988C639.999 480.871 636.847 473.828 630.81 469.102L496.489 363.828C533.364 303.531 559.999 225.508 559.999 127.984C559.999 108.574 548.312 91.07 530.499 83.68L338.499 3.672C333.624 1.641 325.343 0 320.062 0C314.749 0 306.499 1.641 301.593 3.672L128.831 75.664L38.814 5.109C34.407 1.672 29.189 0 24.032 0C10.196 0 0 11.292 0 24.004C0 31.122 3.152 38.164 9.189 42.891L601.185 506.883C605.601 510.333 610.823 512 615.998 512C629.845 512 639.999 500.648 639.999 487.988Z "></path></svg>