<svg xmlns="http://www.w3.org/2000/svg" viewBox="0 0 512 512"><!-- Font Awesome Pro 6.0.0-alpha2 by @fontawesome - https://fontawesome.com License - https://fontawesome.com/license (Commercial License) --><path d="M504.969 81.774L429.984 6.765C420.969 -2.271 405.031 -2.239 396.047 6.765L367.031 35.812C352.484 50.351 344.468 69.705 344.468 90.278C344.468 102.554 347.638 114.244 353.029 124.896L259.501 218.59L210.246 169.183C198.871 157.925 180.869 156.674 168.242 166.557L12.349 286.884C-2.778 298.642 -4.278 321.031 9.349 334.54L177.367 502.648C190.994 516.28 213.247 514.779 224.997 499.646L345.386 343.67C355.263 331.038 354.013 313.15 342.761 301.769L293.38 252.487L386.976 158.842C397.594 164.202 409.244 167.35 421.484 167.35C442.078 167.35 461.422 159.346 475.953 144.776L504.969 115.729C514.344 106.349 514.344 91.154 504.969 81.774ZM111.986 351.926C107.859 351.926 103.734 350.3 100.734 347.171C94.484 341.043 94.484 330.788 100.734 324.658L180.744 244.606C186.869 238.227 197.121 238.227 203.246 244.606C209.496 250.736 209.496 260.991 203.246 267.121L123.236 347.171C120.236 350.3 116.111 351.926 111.986 351.926ZM267.253 331.163L187.244 411.213C184.244 414.34 180.119 415.967 175.992 415.967C171.867 415.967 167.742 414.34 164.742 411.213C158.49 405.085 158.49 394.827 164.742 388.699L244.75 308.647C250.876 302.394 261.126 302.394 267.253 308.647C273.503 314.777 273.628 325.033 267.253 331.163ZM442 110.82C431.062 121.826 411.922 121.826 400.984 110.82C395.5 105.349 392.469 98.032 392.469 90.278S395.484 75.239 400.969 69.767L413.015 57.698L454.062 98.751L442 110.82Z"/></svg>