<svg xmlns="http://www.w3.org/2000/svg" viewBox="0 0 640 512"><!-- Font Awesome Pro 6.0.0-alpha2 by @fontawesome - https://fontawesome.com License - https://fontawesome.com/license (Commercial License) --><path d="M192.425 247.512L150.009 214.268C137.011 264.256 147.23 320.471 181.843 359.844C186.581 365.25 193.228 368 199.906 368C205.521 368 211.181 366.031 215.747 362.031C225.71 353.281 226.697 338.125 217.939 328.156C198.55 306.102 190.314 276.406 192.425 247.512ZM95.999 256C95.999 230.254 100.245 205.281 108.505 181.738L56.208 140.75C40.447 176.896 31.999 216.178 31.999 256C31.999 321.281 54.437 385.219 95.187 436.031C101.515 443.906 110.796 448 120.171 448C127.203 448 134.265 445.688 140.171 440.969C153.968 429.906 156.171 409.75 145.124 395.969C112.984 355.906 95.999 307.5 95.999 256ZM630.812 469.109L560.622 414.096C591.269 367.393 607.999 312.221 607.999 256C607.999 190.715 585.562 126.777 544.812 75.965C533.718 62.184 513.578 59.996 499.828 71.027C486.031 82.09 483.828 102.246 494.874 116.027C527.015 156.09 543.999 204.496 543.999 256C543.999 298.572 531.779 338.729 509.599 374.105L470.122 343.166C507.601 285.717 503.925 204.221 458.156 152.156C449.429 142.191 434.259 141.223 424.251 149.969C414.288 158.719 413.302 173.875 422.06 183.844C453.066 219.115 456.443 273.932 432.468 313.652L374.255 268.027C375.136 264.115 375.999 260.182 375.999 256C375.999 225.125 350.874 200 319.999 200C311.111 200 303.076 202.68 295.615 206.389L38.812 5.113C28.343 -3.059 13.312 -1.246 5.109 9.191C-3.063 19.629 -1.235 34.723 9.187 42.895L79.374 97.906L130.396 137.896L169.874 168.838L177.005 174.428L333.607 297.166L344.806 305.945L488.134 418.283L508.06 433.9L601.187 506.891C605.593 510.328 610.796 512 615.984 512C623.109 512 630.156 508.844 634.89 502.812C643.062 492.375 641.234 477.281 630.812 469.109Z"/></svg>