<svg xmlns="http://www.w3.org/2000/svg" viewBox="0 0 448 512"><!-- Font Awesome Pro 6.0.0-alpha2 by @fontawesome - https://fontawesome.com License - https://fontawesome.com/license (Commercial License) --><path d="M48 432V96C21.49 96 0 117.492 0 144V448C0 483.344 28.654 512 64 512H304C330.51 512 352 490.508 352 464H80C62.326 464 48 449.672 48 432ZM336 0H160C124.75 0 96 28.75 96 64V352C96 387.25 124.75 416 160 416H384C419.25 416 448 387.25 448 352V112L336 0ZM240 144H304V192H240V144ZM160 176C160 158.25 174.25 144 192 144H208V192H160V176ZM208 352H192C174.25 352 160 337.75 160 320V304H208V352ZM304 352H240V304H304V352ZM384 320C384 337.75 369.75 352 352 352H336V304H384V320ZM384 272H160V224H384V272ZM384 192H336V144H352C369.75 144 384 158.25 384 176V192Z"/></svg>