<svg xmlns="http://www.w3.org/2000/svg" viewBox="0 0 512 512"><!-- Font Awesome Pro 6.0.0-alpha2 by @fontawesome - https://fontawesome.com License - https://fontawesome.com/license (Commercial License) --><path d="M496 288H400V256H464C472.838 256 480 248.836 480 240V224C480 215.162 472.838 208 464 208H384C366.328 208 352 222.326 352 240V288H288V96C288 78.359 302.359 64 320 64S352 78.359 352 96V112C352 120.836 359.164 128 368 128H400C408.838 128 416 120.836 416 112V96C416 36.805 362.154 -10.043 300.867 1.861C255.291 10.715 224 53.361 224 99.789V288H160V240C160 222.326 145.674 208 128 208H48C39.164 208 32 215.162 32 224V240C32 248.836 39.164 256 48 256H112V288H16C7.164 288 0 295.164 0 304V336C0 344.836 7.164 352 16 352H496C504.836 352 512 344.836 512 336V304C512 295.164 504.836 288 496 288ZM32 416C32 469.02 74.98 512 128 512H384C437.02 512 480 469.02 480 416V384H32V416Z"/></svg>