<svg xmlns="http://www.w3.org/2000/svg" viewBox="0 0 640 512"><!-- Font Awesome Pro 6.0.0-alpha2 by @fontawesome - https://fontawesome.com License - https://fontawesome.com/license (Commercial License) --><path d="M144 288H300.125C322.625 307.75 351.75 320 384 320S445.25 307.75 467.875 288H528C589.875 288 640 237.875 640 176S589.875 64 528 64C510 64 493.25 68.625 478.25 76.125C454 31 406.75 0 352 0C311 0 274.25 17.25 248 44.75C221.75 17.25 185 0 144 0C64.5 0 0 64.5 0 144S64.5 288 144 288ZM136 464H24C10.8 464 0 474.8 0 488V488C0 501.2 10.8 512 24 512H136C149.2 512 160 501.2 160 488V488C160 474.8 149.2 464 136 464ZM616 368H88C74.8 368 64 378.8 64 392V392C64 405.2 74.8 416 88 416H616C629.2 416 640 405.2 640 392V392C640 378.8 629.2 368 616 368ZM552 464H232C218.8 464 208 474.8 208 488V488C208 501.2 218.8 512 232 512H552C565.2 512 576 501.2 576 488V488C576 474.8 565.2 464 552 464Z"/></svg>