<svg xmlns="http://www.w3.org/2000/svg" viewBox="0 0 320 512"><!-- Font Awesome Pro 6.0.0-alpha2 by @fontawesome - https://fontawesome.com License - https://fontawesome.com/license (Commercial License) --><path d="M27.658 224H292.342C316.945 224 329.229 194.225 311.881 176.877L179.553 40.107C174.146 34.701 167.08 32 160.027 32C152.973 32 145.934 34.701 140.582 40.107L8.119 176.877C-9.229 194.225 3.055 224 27.658 224ZM292.342 288H27.658C3.055 288 -9.229 317.773 8.119 335.121L140.582 471.891C145.934 477.297 152.973 480 160.027 480C167.08 480 174.146 477.297 179.553 471.891L311.881 335.121C329.229 317.773 316.945 288 292.342 288Z"/></svg>