<svg xmlns="http://www.w3.org/2000/svg" viewBox="0 0 512 512"><!-- Font Awesome Pro 6.0.0-alpha2 by @fontawesome - https://fontawesome.com License - https://fontawesome.com/license (Commercial License) --><path d="M256 16C123.451 16 16 123.451 16 256C16 266.361 16.877 276.5 18.15 286.516C87.879 307.496 168.898 320 256 320S424.121 307.496 493.85 286.516C495.123 276.5 496 266.361 496 256C496 123.451 388.549 16 256 16ZM192 240C147.875 240 112 204.125 112 160S147.875 80 192 80S272 115.875 272 160S236.125 240 192 240ZM25.514 322.408C54.344 422.617 146.518 496 256 496S457.656 422.617 486.486 322.408C417.977 341.174 339.885 352 256 352S94.023 341.174 25.514 322.408ZM192 136C178.75 136 168 146.75 168 160S178.75 184 192 184S216 173.25 216 160S205.25 136 192 136Z"/></svg>