<svg xmlns="http://www.w3.org/2000/svg" viewBox="0 0 640 512"><!-- Font Awesome Pro 6.0.0-alpha2 by @fontawesome - https://fontawesome.com License - https://fontawesome.com/license (Commercial License) --><path d="M112 336C112 371.328 140.688 400 176 400S240 371.328 240 336S211.312 272 176 272S112 300.672 112 336ZM256 48C256.062 33.219 263.406 11.719 272.406 0H48C21.5 0 0 21.5 0 48V464C0 490.5 21.5 512 48 512H272.406C263.406 500.281 256.062 478.781 256 464V414.219C237.812 432.859 201.906 448 175.844 448C113.999 448 63.844 397.828 63.844 336S113.999 224 175.844 224C201.906 224 237.812 239.141 256 257.781V48ZM176 160C149.5 160 128 138.5 128 112S149.5 64 176 64S224 85.5 224 112S202.5 160 176 160ZM592 0H336C309.5 0 288 21.5 288 48V464C288 490.5 309.5 512 336 512H592C618.5 512 640 490.5 640 464V48C640 21.5 618.5 0 592 0ZM464 64C490.5 64 512 85.5 512 112S490.5 160 464 160S416 138.5 416 112S437.5 64 464 64ZM464 448C402.188 448 352 397.828 352 336S402.188 224 464 224S576 274.172 576 336S525.812 448 464 448ZM464 272C428.688 272 400 300.672 400 336S428.688 400 464 400S528 371.328 528 336S499.312 272 464 272Z"/></svg>