<svg xmlns="http://www.w3.org/2000/svg" viewBox="0 0 576 512"><!-- Font Awesome Pro 6.0.0-alpha2 by @fontawesome - https://fontawesome.com License - https://fontawesome.com/license (Commercial License) --><path d="M558.189 233.87C501.696 174.482 460.325 102.217 437.702 23.075C432.953 6.571 416.205 -3.181 399.707 0.945H399.582C320.465 20.699 237.724 20.699 158.608 0.945H158.483C141.985 -3.181 125.236 6.571 120.487 23.075C97.864 102.217 56.494 174.482 0 233.87C-11.874 246.248 -11.874 265.752 0 278.13C56.494 337.518 97.864 409.783 120.487 488.925C125.236 505.429 141.985 515.181 158.483 511.055H158.608C237.724 491.301 320.465 491.301 399.582 511.055H399.707C416.205 515.181 432.953 505.429 437.703 488.925V488.8C460.325 409.783 501.696 337.518 558.189 278.13C570.063 265.752 570.063 246.248 558.189 233.87ZM356.586 73.711L333.089 114.469C297.468 121.846 260.722 121.846 225.101 114.469L201.603 73.711C252.973 80.837 305.217 80.837 356.586 73.711ZM279.095 207.99L255.722 167.356C271.221 168.606 286.969 168.606 302.467 167.356L279.095 207.99ZM293.468 231.995H292.968L292.593 231.495L293.468 231.995ZM279.095 304.01L302.592 344.644C294.718 344.019 286.969 343.644 279.095 343.644S263.471 344.019 255.597 344.644L279.095 304.01ZM214.102 191.361L237.474 231.995H190.604C199.478 219.117 207.352 205.489 214.102 191.361ZM160.733 413.034C141.36 365.524 115.737 320.764 84.366 280.005H129.486C153.733 307.136 172.106 339.018 183.48 373.525L160.733 413.034ZM129.486 231.995H84.366C115.737 191.236 141.36 146.476 160.733 98.966L183.48 138.475C172.106 172.982 153.733 204.864 129.486 231.995ZM237.474 280.005L214.102 320.639C207.352 306.511 199.478 292.883 190.604 280.005H237.474ZM279.095 432.288C253.098 432.288 227.225 434.789 201.603 438.289L225.101 397.531C260.597 390.154 297.468 390.154 333.089 397.531L356.586 438.289C330.964 434.789 305.092 432.288 279.095 432.288ZM344.088 320.639L320.715 280.005H367.585C358.711 292.883 350.837 306.511 344.088 320.639ZM320.59 231.995L344.088 191.361C350.837 205.489 358.711 219.117 367.585 231.995H320.59ZM397.457 413.034L374.709 373.525C385.958 339.018 404.456 307.136 428.703 280.005H473.824C442.452 320.764 416.83 365.524 397.457 413.034ZM428.703 231.995C404.456 204.864 386.083 172.982 374.709 138.475L397.457 98.966C416.83 146.476 442.452 191.236 473.824 231.995H428.703Z"/></svg>