<svg xmlns="http://www.w3.org/2000/svg" viewBox="0 0 448 512"><!-- Font Awesome Pro 6.0.0-alpha2 by @fontawesome - https://fontawesome.com License - https://fontawesome.com/license (Commercial License) --><path d="M384 32H64C28.654 32 0 60.652 0 96V416C0 451.344 28.654 480 64 480H384C419.346 480 448 451.344 448 416V96C448 60.652 419.346 32 384 32ZM330.254 268.275L176.654 396.281C173.686 398.75 170.061 400 166.404 400C162.998 400 159.592 398.906 156.717 396.75C150.779 392.25 148.748 384.217 151.811 377.436L199.25 271.994H127.998C121.246 271.994 115.246 267.775 112.965 261.432C110.652 255.119 112.59 248.025 117.746 243.713L271.346 115.707C277.064 110.926 285.314 110.77 291.283 115.238C297.221 119.738 299.252 127.77 296.189 134.551L248.75 239.992H320.002C326.754 239.992 332.754 244.213 335.035 250.557C337.348 256.869 335.41 263.963 330.254 268.275Z"/></svg>