<svg xmlns="http://www.w3.org/2000/svg" viewBox="0 0 448 512"><!-- Font Awesome Pro 6.0.0-alpha2 by @fontawesome - https://fontawesome.com License - https://fontawesome.com/license (Commercial License) --><path d="M240 272H208C190.344 272 176 286.344 176 304S190.344 336 208 336H240C257.656 336 272 321.656 272 304S257.656 272 240 272ZM216 224H232C245.219 224 256 213.219 256 200S245.219 176 232 176H216C202.781 176 192 186.781 192 200S202.781 224 216 224ZM384 32H64C28.654 32 0 60.654 0 96V416C0 451.346 28.654 480 64 480H384C419.346 480 448 451.346 448 416V96C448 60.654 419.346 32 384 32ZM240 384H208C163.875 384 128 348.125 128 304C128 278.938 139.811 256.812 157.896 242.135C149.254 230.258 144 215.773 144 200C144 160.312 176.312 128 216 128H232C271.688 128 304 160.312 304 200C304 215.773 298.746 230.258 290.104 242.135C308.189 256.812 320 278.938 320 304C320 348.125 284.125 384 240 384Z"/></svg>