<svg xmlns="http://www.w3.org/2000/svg" viewBox="0 0 448 512"><!-- Font Awesome Pro 6.0.0-alpha2 by @fontawesome - https://fontawesome.com License - https://fontawesome.com/license (Commercial License) --><path d="M384 32H64C28.654 32 0 60.654 0 96V416C0 451.346 28.654 480 64 480H384C419.348 480 448 451.346 448 416V96C448 60.654 419.348 32 384 32ZM387.951 278.218L360.549 322.062C356.561 328.458 348.533 331.093 341.463 328.331L286.629 306.4C280.188 303.804 276.227 297.245 276.922 290.341L280.363 255.718C243.875 243.261 204.072 243.267 167.568 255.73L171.021 290.327C171.762 297.212 167.768 303.835 161.293 306.398L106.496 328.314C99.459 331.111 91.42 328.431 87.453 322.077L60.043 278.226C56.158 272.032 57.066 264.077 62.254 258.89C151.438 169.706 296.557 169.698 385.752 258.896C390.934 264.077 391.84 272.032 387.951 278.218Z"/></svg>