<svg xmlns="http://www.w3.org/2000/svg" viewBox="0 0 448 512"><!-- Font Awesome Pro 6.0.0-alpha2 by @fontawesome - https://fontawesome.com License - https://fontawesome.com/license (Commercial License) --><path d="M384 32H64C28.654 32 0 60.656 0 96V416C0 451.344 28.654 480 64 480H384C419.346 480 448 451.344 448 416V96C448 60.656 419.346 32 384 32ZM374.602 278.648L270.625 382.625C258.125 395.125 237.875 395.125 225.375 382.625S212.875 349.875 225.375 337.375L274.75 288H96C78.312 288 64 273.672 64 256S78.312 224 96 224H274.75L225.375 174.625C212.875 162.125 212.875 141.875 225.375 129.375S258.125 116.875 270.625 129.375L374.602 233.352C382.6 241.336 384 251.102 384 256C384 260.883 382.609 270.656 374.602 278.648Z"/></svg>