<svg xmlns="http://www.w3.org/2000/svg" viewBox="0 0 448 512"><!-- Font Awesome Pro 6.0.0-alpha2 by @fontawesome - https://fontawesome.com License - https://fontawesome.com/license (Commercial License) --><path d="M204.031 210.906L225.969 193.172C228.25 191.344 229.563 188.594 229.563 185.656C229.562 180.328 225.219 176 219.906 176H196.781C191.469 176 187.125 180.328 187.125 185.656C187.125 190.016 188.75 194.203 191.688 197.438L204.031 210.906ZM167 302.516C162.531 306.094 160 311.438 160 317.156C160 327.547 168.469 336 178.844 336H211.312C221.344 336 230.688 331.062 236.312 322.797L238.43 319.691L199.062 276.609L167 302.516ZM384 32H64C28.654 32 0 60.654 0 96V416C0 451.346 28.654 480 64 480H384C419.346 480 448 451.346 448 416V96C448 60.654 419.346 32 384 32ZM324 377.719C319.406 381.922 313.594 384 307.812 384C301.312 384 294.844 381.375 290.094 376.188L271.469 355.812C256.688 373.594 234.719 384 211.312 384H178.844C142 384 112 354.016 112 317.156C112 296.859 121.062 277.906 136.844 265.172L166.594 241.125L156.25 229.797C145.188 217.687 139.125 202.016 139.125 185.656C139.125 153.859 165 128 196.781 128H219.906C251.688 128 277.562 153.859 277.562 185.656C277.562 203.156 269.75 219.516 256.156 230.516L236.469 246.406L266.207 278.932L287.969 247C295.469 236.078 310.375 233.203 321.344 240.688C332.281 248.141 335.125 263.078 327.656 274.031L299.502 315.344L325.531 343.812C334.469 353.594 333.781 368.766 324 377.719Z"/></svg>