<svg xmlns="http://www.w3.org/2000/svg" viewBox="0 0 448 512"><!-- Font Awesome Pro 6.0.0-alpha2 by @fontawesome - https://fontawesome.com License - https://fontawesome.com/license (Commercial License) --><path d="M384 32H64C28.656 32 0 60.656 0 96V416C0 451.344 28.656 480 64 480H384C419.344 480 448 451.344 448 416V96C448 60.656 419.344 32 384 32ZM350.625 254.625C338.125 267.125 317.875 267.125 305.375 254.625L256 205.25V384C256 401.688 241.672 416 224 416S192 401.688 192 384V205.25L142.625 254.625C130.125 267.125 109.875 267.125 97.375 254.625S84.875 221.875 97.375 209.375L201.354 105.398C209.336 97.398 219.1 96 224 96C228.881 96 238.654 97.391 246.646 105.398L350.625 209.375C363.125 221.875 363.125 242.125 350.625 254.625Z"/></svg>