<svg xmlns="http://www.w3.org/2000/svg" viewBox="0 0 448 512"><!-- Font Awesome Pro 6.0.0-alpha2 by @fontawesome - https://fontawesome.com License - https://fontawesome.com/license (Commercial License) --><path d="M384 32H64C28.654 32 0 60.654 0 96V416C0 451.346 28.654 480 64 480H384C419.346 480 448 451.346 448 416V96C448 60.654 419.346 32 384 32ZM352 274.906C352 276.359 351.875 277.828 351.594 279.25C347.219 303.078 334.031 326.953 314.5 346.516C290.344 370.688 258.188 384 224 384S157.656 370.688 133.5 346.516C83.594 296.609 83.594 215.391 133.5 165.484C181.406 117.547 261.469 115.312 312 160.609C321.875 169.453 322.719 184.625 313.875 194.5C305 204.438 289.812 205.219 280 196.359C248.094 167.797 197.656 169.172 167.438 199.422C136.25 230.625 136.25 281.375 167.438 312.578C197.625 342.797 250.375 342.797 280.562 312.578C288.156 304.969 294.25 296.578 298.469 288H248C234.75 288 224 277.25 224 264S234.75 240 248 240H328C341.25 240 352 250.75 352 264V274.906Z"/></svg>