<svg xmlns="http://www.w3.org/2000/svg" viewBox="0 0 448 512"><!-- Font Awesome Pro 6.0.0-alpha2 by @fontawesome - https://fontawesome.com License - https://fontawesome.com/license (Commercial License) --><path d="M64 480H384C419.346 480 448 451.346 448 416V96C448 60.654 419.346 32 384 32H64C28.654 32 0 60.654 0 96V416C0 451.346 28.654 480 64 480ZM97.219 265.875C99.688 259.891 105.531 256 112 256H176V160C176 142.327 190.327 128 208 128H240C257.673 128 272 142.327 272 160V256H336C342.469 256 348.312 259.891 350.781 265.875C353.266 271.859 351.891 278.734 347.313 283.313L235.313 395.313C229.065 401.56 218.935 401.56 212.688 395.313L100.688 283.313C96.109 278.734 94.734 271.859 97.219 265.875Z"/></svg>