<svg xmlns="http://www.w3.org/2000/svg" viewBox="0 0 448 512"><!-- Font Awesome Pro 6.0.0-alpha2 by @fontawesome - https://fontawesome.com License - https://fontawesome.com/license (Commercial License) --><path d="M384 32H64C28.654 32 0 60.652 0 96V416C0 451.344 28.654 480 64 480H384C419.346 480 448 451.344 448 416V96C448 60.652 419.346 32 384 32ZM325.824 222.059L257.941 289.941L303.195 335.195C307.77 339.77 309.15 346.652 306.666 352.633C304.189 358.617 298.357 362.508 291.883 362.508H133.49C124.655 362.508 117.492 355.345 117.492 346.51V188.117C117.492 181.641 121.381 175.809 127.369 173.336C133.348 170.848 140.23 172.227 144.805 176.805L190.059 222.059L257.941 154.176C270.438 141.679 290.699 141.679 303.196 154.176L325.824 176.804C338.321 189.301 338.321 209.562 325.824 222.059Z"/></svg>