<svg xmlns="http://www.w3.org/2000/svg" viewBox="0 0 448 512"><!-- Font Awesome Pro 6.0.0-alpha2 by @fontawesome - https://fontawesome.com License - https://fontawesome.com/license (Commercial License) --><path d="M384 32H64C28.625 32 0 60.625 0 96V416C0 451.375 28.625 480 64 480H384C419.375 480 448 451.375 448 416V96C448 60.625 419.375 32 384 32ZM384 336C384 353.672 369.674 368 352 368H96C78.326 368 64 353.672 64 336V225.891L202.531 295.156C209.25 298.516 216.625 300.203 224 300.203S238.75 298.516 245.469 295.156L384 225.891V336ZM384 190.109L231.156 266.531C226.656 268.781 221.344 268.781 216.844 266.531L64 190.109V176C64 158.326 78.326 144 96 144H352C369.674 144 384 158.326 384 176V190.109Z"/></svg>