<svg xmlns="http://www.w3.org/2000/svg" viewBox="0 0 448 512"><!-- Font Awesome Pro 6.0.0-alpha2 by @fontawesome - https://fontawesome.com License - https://fontawesome.com/license (Commercial License) --><path d="M384 32H64C28.654 32 0 60.654 0 96V416C0 451.346 28.654 480 64 480H384C419.348 480 448 451.346 448 416V96C448 60.654 419.348 32 384 32ZM178.771 368.102C156.521 373.342 107.166 383.812 107.166 383.812C106.535 383.939 105.912 384 105.303 384C99.592 384 95.008 378.73 96.186 372.83L112.289 301.221C113.84 294.326 117.316 288.014 122.314 283.016L223.344 181.969L298.016 256.639C257.949 296.705 217.352 337.305 196.414 358.242C191.525 363.131 185.502 366.518 178.771 368.102ZM341.092 213.561L320.639 234.014L245.965 159.34L266.365 138.938C273.656 131.645 283.207 128 292.764 128C302.316 128 311.871 131.646 319.16 138.936L341.041 160.818C355.617 175.398 355.672 198.982 341.092 213.561Z"/></svg>