<svg xmlns="http://www.w3.org/2000/svg" viewBox="0 0 576 512"><!-- Font Awesome Pro 6.0.0-alpha2 by @fontawesome - https://fontawesome.com License - https://fontawesome.com/license (Commercial License) --><path d="M560 32H528C519.125 32 512 39.125 512 48V216L436.5 197.125C413 138 355.5 96 288 96S163 138 139.5 197.125L64 216V48C64 39.125 56.875 32 48 32H16C7.125 32 0 39.125 0 48V464C0 472.875 7.125 480 16 480H48C56.875 480 64 472.875 64 464V296L139.5 314.875C163 374 220.5 416 288 416S413 374 436.5 314.875L512 296V464C512 472.875 519.125 480 528 480H560C568.875 480 576 472.875 576 464V48C576 39.125 568.875 32 560 32ZM300 161.25C317 163.25 333.125 170 346.625 180.5L324 203.125C316.75 198.125 308.625 194.875 300 193.25V161.25ZM276 161.25V193.25C267.375 194.875 259.25 198.125 252 203.125L229.375 180.5C242.875 170 259 163.25 276 161.25ZM212.5 197.375L235.125 220C230.125 227.25 226.875 235.375 225.25 244H193.25C195.25 227 201.999 210.875 212.5 197.375ZM193.25 268H225.25C226.875 276.625 230.125 284.75 235.125 292L212.5 314.625C201.999 301.125 195.25 285 193.25 268ZM276 350.75C259 348.75 242.875 342 229.375 331.5L252 308.875C259.25 313.875 267.375 317.125 276 318.75V350.75ZM256 256C256 238.375 270.375 224 288 224S320 238.375 320 256S305.625 288 288 288S256 273.625 256 256ZM300 350.75V318.75C308.625 317.125 316.75 313.875 324 308.875L346.625 331.5C333.125 342 317 348.75 300 350.75ZM363.5 314.625L340.875 292C345.875 284.75 349.125 276.625 350.75 268H382.75C380.75 285 373.999 301.125 363.5 314.625ZM350.75 244C349.125 235.375 345.875 227.25 340.875 220L363.5 197.375C373.999 210.875 380.75 227 382.75 244H350.75Z"/></svg>