<svg xmlns="http://www.w3.org/2000/svg" viewBox="0 0 512 512"><!-- Font Awesome Pro 6.0.0-alpha2 by @fontawesome - https://fontawesome.com License - https://fontawesome.com/license (Commercial License) --><path d="M490.176 363.215L466.148 404.785C459.513 416.264 444.818 420.197 433.326 413.568L304.257 339.137V488C304.257 501.254 293.498 512 280.228 512H232.172C218.901 512 208.144 501.254 208.144 488V339.137L79.075 413.568C67.583 420.197 52.886 416.264 46.251 404.785L22.223 363.215C15.588 351.736 19.526 337.059 31.018 330.432L160.09 256L31.018 181.568C19.526 174.941 15.588 160.264 22.223 148.785L46.251 107.215C52.886 95.736 67.583 91.803 79.075 98.432L208.144 172.863V24C208.144 10.746 218.901 0 232.172 0H280.228C293.498 0 304.257 10.746 304.257 24V172.863L433.326 98.432C444.818 91.803 459.513 95.736 466.148 107.215L490.176 148.785C496.813 160.264 492.874 174.941 481.382 181.568L352.311 256L481.382 330.432C492.874 337.059 496.813 351.736 490.176 363.215Z"/></svg>