<svg xmlns="http://www.w3.org/2000/svg" viewBox="0 0 512 512"><!-- Font Awesome Pro 6.0.0-alpha2 by @fontawesome - https://fontawesome.com License - https://fontawesome.com/license (Commercial License) --><path d="M256 16C123.451 16 16 123.451 16 256S123.451 496 256 496S496 388.549 496 256S388.549 16 256 16ZM256 80C342.105 80 413.834 142.201 428.941 224H343.187C332.047 205 311.582 192 287.969 192H224.031C200.418 192 179.953 205 168.934 224H83.059C98.166 142.201 169.895 80 256 80ZM83.059 288H175.957L224.031 352V428.947C152.609 415.77 96.248 359.416 83.059 288ZM287.969 428.947V352L336.043 288H428.941C415.752 359.416 359.391 415.77 287.969 428.947Z"/></svg>