<svg xmlns="http://www.w3.org/2000/svg" viewBox="0 0 512 512"><!-- Font Awesome Pro 6.0.0-alpha2 by @fontawesome - https://fontawesome.com License - https://fontawesome.com/license (Commercial License) --><path d="M313.848 319.902C333.83 331.184 338.188 342.965 335.002 362.029C331.91 380.342 323.291 387.248 316.107 391.186C285.877 407.936 219.668 399.936 151.49 371.529C131.066 362.904 107.705 372.654 99.211 393.029C90.717 413.436 100.336 436.842 120.697 445.342C151.086 458.031 212.422 480 272.479 480C301.398 480 330.037 474.906 354.74 461.219C386.939 443.436 407.396 413.717 413.83 375.279C417.416 353.898 416.371 335.674 412.066 319.902H313.848ZM488 240H331.488C309.783 230.455 287.084 223.467 267.326 217.65C186.781 193.9 171.604 182.525 177.037 149.994C178.975 138.525 184.877 129.557 194.59 123.338C208.955 114.119 245.746 102.086 331.256 125.275C352.492 130.963 374.479 118.432 380.287 97.086C386.033 75.773 373.447 53.805 352.117 48.023C264.266 24.273 196.744 26.93 151.428 55.961C122.76 74.367 103.865 103.055 98.211 136.744C90.166 184.682 105.033 216.986 129.572 240H24C10.75 240 0 250.75 0 264S10.75 288 24 288H488C501.25 288 512 277.25 512 264S501.25 240 488 240Z"/></svg>