<svg xmlns="http://www.w3.org/2000/svg" viewBox="0 0 512 512"><!-- Font Awesome Pro 6.0.0-alpha2 by @fontawesome - https://fontawesome.com License - https://fontawesome.com/license (Commercial License) --><path d="M312 144C334.094 144 352 126.094 352 104S334.094 64 312 64H281.781C268.688 64 256.422 70.406 248.953 81.156L176 185.984L103.047 81.156C95.578 70.406 83.312 64 70.219 64H40C17.906 64 0 81.906 0 104S17.906 144 40 144H49.328L127.273 256L49.328 368H40C17.906 368 0 385.906 0 408S17.906 448 40 448H70.219C83.312 448 95.578 441.594 103.047 430.844L176 326.016L248.953 430.844C256.422 441.594 268.688 448 281.781 448H312C334.094 448 352 430.094 352 408S334.094 368 312 368H302.672L224.727 256L302.672 144H312ZM480.281 448.057V320C480.281 308.281 473.875 297.5 463.578 291.906C453.266 286.219 440.766 286.75 430.906 293.125L398.906 313.812C384.062 323.406 379.812 343.219 389.406 358.062C395.531 367.531 405.797 372.687 416.281 372.687V448H416C398.328 448 384 462.312 384 480S398.328 512 416 512H480C497.672 512 512 497.688 512 480C512 462.412 497.814 448.217 480.281 448.057Z"/></svg>