<svg xmlns="http://www.w3.org/2000/svg" viewBox="0 0 384 512"><!-- Font Awesome Pro 6.0.0-alpha2 by @fontawesome - https://fontawesome.com License - https://fontawesome.com/license (Commercial License) --><path d="M336 128H288V48C288 21.5 266.5 0 240 0H144C117.5 0 96 21.5 96 48V128H48C21.5 128 0 149.5 0 176V432C0 458.5 21.5 480 48 480H64V496C64 504.875 71.125 512 80 512H112C120.875 512 128 504.875 128 496V480H256V496C256 504.875 263.125 512 272 512H304C312.875 512 320 504.875 320 496V480H336C362.5 480 384 458.5 384 432V176C384 149.5 362.5 128 336 128ZM144 48H240V128H144V48ZM304 384H80C71.199 384 64 376.799 64 368C64 359.199 71.199 352 80 352H304C312.801 352 320 359.199 320 368C320 376.799 312.801 384 304 384ZM304 256H80C71.199 256 64 248.799 64 240C64 231.199 71.199 224 80 224H304C312.801 224 320 231.199 320 240C320 248.799 312.801 256 304 256Z"/></svg>