<svg xmlns="http://www.w3.org/2000/svg" viewBox="0 0 640 512"><!-- Font Awesome Pro 6.0.0-alpha2 by @fontawesome - https://fontawesome.com License - https://fontawesome.com/license (Commercial License) --><path d="M320 160.002C266.98 160.002 224 202.98 224 256H416C416 202.98 373.02 160.002 320 160.002ZM129.889 256H192C192 185.307 249.307 128.002 320 128.002S448 185.307 448 256H510.109L573.262 164.99C579.594 155.865 574.365 143.248 563.436 141.271L454.43 121.572L434.729 12.564C432.754 1.633 420.135 -3.592 411.008 2.74L320 65.891L228.99 2.738C219.865 -3.594 207.246 1.631 205.27 12.562L185.57 121.572L76.562 141.27C65.633 143.246 60.404 155.865 66.736 164.988L129.889 256ZM88 336.01H408C421.199 336.01 432 325.211 432 312.012S421.199 288.014 408 288.014H88C74.801 288.014 64 298.812 64 312.012S74.801 336.01 88 336.01ZM480 312.012C480 325.211 490.801 336.01 504 336.01H616C629.199 336.01 640 325.211 640 312.012S629.199 288.014 616 288.014H504C490.801 288.014 480 298.812 480 312.012ZM200 464.002H88C74.801 464.002 64 474.803 64 488V488.002C64 501.199 74.801 512 88 512H200C213.199 512 224 501.199 224 488.002V488C224 474.803 213.199 464.002 200 464.002ZM616 464.002H296C282.801 464.002 272 474.803 272 488V488.002C272 501.199 282.801 512 296 512H616C629.199 512 640 501.199 640 488.002V488C640 474.803 629.199 464.002 616 464.002ZM576 400.006C576 386.807 565.199 376.008 552 376.008H24C10.801 376.008 0 386.807 0 400.006S10.801 424.004 24 424.004H552C565.199 424.004 576 413.205 576 400.006Z"/></svg>