<svg xmlns="http://www.w3.org/2000/svg" viewBox="0 0 512 512"><!-- Font Awesome Pro 6.0.0-alpha2 by @fontawesome - https://fontawesome.com License - https://fontawesome.com/license (Commercial License) --><path d="M448 32H160V160H448V416H128V192H0V416C0 451.346 28.654 480 64 480H448C483.346 480 512 451.346 512 416V96C512 60.652 483.346 32 448 32ZM128 32H64C28.654 32 0 60.652 0 96V160H128V32ZM274.373 290.361L234.369 330.367C231.244 333.492 231.244 338.492 234.369 341.617L274.373 381.623C279.373 386.686 288 383.123 288 375.996V352H344C366.062 352 384 334.062 384 312V256H408.012C415.824 256 418.326 246.998 413.637 242.373L373.633 202.369C370.508 199.242 365.508 199.242 362.381 202.369L322.377 242.373C317.314 247.373 320.877 256 328.002 256H352V312C352 316.406 348.406 320 344 320H288V295.988C288 288.174 278.998 285.674 274.373 290.361Z"/></svg>