<svg xmlns="http://www.w3.org/2000/svg" viewBox="0 0 512 512"><!-- Font Awesome Pro 6.0.0-alpha2 by @fontawesome - https://fontawesome.com License - https://fontawesome.com/license (Commercial License) --><path d="M416.008 288C444.002 288 469.691 297.254 490.766 312.514C530.191 228.742 514.324 125.316 442.682 57.68C354.959 -25.143 215.004 -16.479 129.799 68.945L75.135 123.748C73.613 125.273 72.578 126.959 71.139 128.514L301.855 359.23C322.838 317.174 365.838 288 416.008 288ZM290.342 392.967L51.785 154.41C21.121 205.645 27.307 265.135 66.592 304.523L103.193 341.219L10.81 422.543C-2.922 434.512 -3.682 455.666 9.164 468.594L26.168 485.717L43.219 502.795C56.09 515.697 77.154 514.936 89.07 501.143L170.1 408.297L206.045 444.334C233.127 471.484 269.771 482.588 305.098 478.734C294.539 460.123 288.017 438.916 288.017 415.998C288.017 408.109 288.975 400.463 290.342 392.967ZM416.008 320C363.014 320 320.016 362.998 320.016 415.998C320.016 468.996 363.014 511.994 416.008 511.994C469.004 511.994 512 468.996 512 415.998C512 362.998 469.004 320 416.008 320Z"/></svg>