<svg xmlns="http://www.w3.org/2000/svg" viewBox="0 0 576 512"><!-- Font Awesome Pro 6.0.0-alpha2 by @fontawesome - https://fontawesome.com License - https://fontawesome.com/license (Commercial License) --><path d="M431.598 225.604L254.402 48.402C245.381 39.381 227.562 32 214.805 32H28C12.535 32 0 44.535 0 60V246.803C0 259.561 7.381 277.381 16.402 286.402L193.592 463.598C215.461 485.467 250.916 485.467 272.787 463.6L431.596 304.801C453.467 282.932 453.469 247.473 431.598 225.604ZM112 176C94.334 176 80 161.676 80 144C80 126.322 94.334 112 112 112S144 126.322 144 144C144 161.676 129.666 176 112 176ZM559.598 225.604L382.402 48.402C373.381 39.381 355.562 32 342.805 32H305.883L516.453 242.576C528.949 255.074 528.949 275.336 516.451 287.832L332.422 471.85C353.943 484.799 382.225 482.16 400.787 463.6L559.596 304.801C581.467 282.932 581.469 247.473 559.598 225.604Z"/></svg>