<svg xmlns="http://www.w3.org/2000/svg" viewBox="0 0 320 512"><!-- Font Awesome Pro 6.0.0-alpha2 by @fontawesome - https://fontawesome.com License - https://fontawesome.com/license (Commercial License) --><path d="M272 278.5V112C272 50.125 221.875 0 160 0S48 50.125 48 112V278.5C28.25 303.25 16 334 16 368C16 447.5 80.5 512 160 512S304 447.5 304 368C304 334 291.75 303.125 272 278.5ZM160 448C115.875 448 80 412.125 80 368C80 342.5 92.25 319.125 112 304.25V112C112 85.5 133.5 64 160 64S208 85.5 208 112V304.25C227.75 319 240 342.5 240 368C240 412.125 204.125 448 160 448ZM160 320C133.49 320 112 341.49 112 368S133.49 416 160 416S208 394.51 208 368S186.51 320 160 320Z"/></svg>