<svg xmlns="http://www.w3.org/2000/svg" viewBox="0 0 576 512"><!-- Font Awesome Pro 6.0.0-alpha2 by @fontawesome - https://fontawesome.com License - https://fontawesome.com/license (Commercial License) --><path d="M280 32H40C17.906 32 0 49.906 0 72V120C0 142.094 17.906 160 40 160S80 142.094 80 120V112H120.643C120.551 113.107 120 114.057 120 115.188V416H96C78.328 416 64 430.312 64 448S78.328 480 96 480H224C241.672 480 256 465.688 256 448S241.672 416 224 416H200V115.188C200 114.057 199.449 113.107 199.357 112H240V120C240 142.094 257.906 160 280 160S320 142.094 320 120V72C320 49.906 302.094 32 280 32ZM559.996 368.031H511.998V143.969H559.996C574.246 143.969 581.371 126.713 571.246 116.711L491.25 36.688C485 30.438 475.002 30.438 468.752 36.688L388.754 116.711C379.379 125.963 384.379 143.969 400.004 143.969H448.002V368.031H400.004C385.754 368.031 378.629 385.285 388.754 395.289L468.752 475.311C475.002 481.562 485 481.562 491.25 475.311L571.246 395.289C580.621 386.035 575.621 368.031 559.996 368.031Z"/></svg>