<svg xmlns="http://www.w3.org/2000/svg" viewBox="0 0 384 512"><!-- Font Awesome Pro 6.0.0-alpha2 by @fontawesome - https://fontawesome.com License - https://fontawesome.com/license (Commercial License) --><path d="M160 455.998C160 457.248 160.281 458.467 160.844 459.576L184.844 507.576C187.781 513.467 196.219 513.482 199.156 507.576L223.156 459.576C223.625 458.654 224 457.045 224 455.998V383.998H160V455.998ZM298.031 214.266L285.781 96H328C341.25 96 352 85.25 352 72V24C352 10.75 341.25 0 328 0H56C42.75 0 32 10.75 32 24V72C32 85.25 42.75 96 56 96H98.219L85.969 214.266C37.469 236.812 0 277.266 0 328C0 341.25 10.75 352 24 352H360C373.25 352 384 341.25 384 328C384 276.812 346.031 236.578 298.031 214.266Z"/></svg>