<svg xmlns="http://www.w3.org/2000/svg" viewBox="0 0 640 512"><!-- Font Awesome Pro 6.0.0-alpha2 by @fontawesome - https://fontawesome.com License - https://fontawesome.com/license (Commercial License) --><path d="M48 400V96C21.49 96 0 117.492 0 144V416C0 451.344 28.654 480 64 480H496C522.51 480 544 458.508 544 432H80C62.326 432 48 417.672 48 400ZM640 160V80C640 53.5 618.5 32 592 32H144C117.5 32 96 53.5 96 80V336C96 362.5 117.5 384 144 384H592C618.5 384 640 362.5 640 336V256C613.5 256 592 234.5 592 208S613.5 160 640 160ZM406 236H363.998L315.229 316.258C313.906 318.57 311.443 320 308.791 320H278.4C273.473 319.998 269.906 315.271 271.268 310.529L294.016 236H240.994L222.104 261.195C220.777 262.961 218.699 263.998 216.498 264H198.998C194.445 264 191.107 259.719 192.215 255.303L205.996 208L192.217 160.693C191.109 156.277 194.445 152 198.998 152H216.498C218.697 152 220.777 153.037 222.104 154.803L240.996 180V180.002L294.014 180L271.268 105.459C269.906 100.719 273.471 96 278.4 96H308.791C311.17 96 314.055 97.674 315.242 99.74L364 180H406.002C421.463 180 448 192.537 448 208S421.463 236.002 406 236ZM528 320C519.164 320 512 312.836 512 304C512 295.162 519.164 288 528 288C536.838 288 544 295.162 544 304C544 312.836 536.838 320 528 320ZM528 256C519.164 256 512 248.836 512 240C512 231.162 519.164 224 528 224C536.838 224 544 231.162 544 240C544 248.836 536.838 256 528 256ZM528 192C519.164 192 512 184.836 512 176C512 167.162 519.164 160 528 160C536.838 160 544 167.162 544 176C544 184.836 536.838 192 528 192ZM528 128C519.164 128 512 120.836 512 112C512 103.162 519.164 96 528 96C536.838 96 544 103.162 544 112C544 120.836 536.838 128 528 128Z"/></svg>