<svg xmlns="http://www.w3.org/2000/svg" viewBox="0 0 512 512"><!-- Font Awesome Pro 6.0.0-alpha2 by @fontawesome - https://fontawesome.com License - https://fontawesome.com/license (Commercial License) --><path d="M480 192H470.625C466.125 177.125 460.375 162.875 453.125 149.5L459.625 142.875C472.125 130.375 472.125 110.125 459.625 97.625L414.375 52.375C401.875 39.875 381.625 39.875 369.125 52.375L362.5 58.875C349.125 51.625 334.875 45.875 320 41.375V32C320 14.375 305.625 0 288 0H224C206.375 0 192 14.375 192 32V41.375C177.125 45.875 162.875 51.625 149.5 58.875L142.875 52.375C130.375 39.875 110.125 39.875 97.625 52.375L52.375 97.625C39.875 110.125 39.875 130.375 52.375 142.875L58.875 149.5C51.625 162.875 45.875 177.125 41.375 192H32C14.375 192 0 206.375 0 224V288C0 305.625 14.375 320 32 320H41.375C45.875 334.875 51.625 349.125 58.875 362.625L52.375 369.125C39.875 381.625 39.875 401.875 52.375 414.375L97.625 459.625C110.125 472.125 130.375 472.125 142.875 459.625L149.5 453.125C162.875 460.375 177.125 466.125 192 470.625V480C192 497.625 206.375 512 224 512H288C305.625 512 320 497.625 320 480V470.625C334.875 466.125 349.125 460.375 362.5 453.125L369.125 459.625C381.625 472.125 401.875 472.125 414.375 459.625L459.625 414.375C472.125 401.875 472.125 381.625 459.625 369.125L453.125 362.625C460.375 349.125 466.125 334.875 470.625 320H480C497.625 320 512 305.625 512 288V224C512 206.375 497.625 192 480 192ZM256 384C185.25 384 128 326.625 128 256C128 185.25 185.25 128 256 128S384 185.25 384 256C384 326.625 326.75 384 256 384ZM256 160C242.746 160 232 170.744 232 184C232 197.254 242.746 208 256 208S280 197.254 280 184C280 170.744 269.254 160 256 160ZM210.35 241.166C214.445 228.561 207.547 215.021 194.939 210.926C182.334 206.828 168.795 213.729 164.699 226.334S167.502 252.48 180.107 256.576S206.254 253.773 210.35 241.166ZM194.264 300.143C186.473 310.865 188.85 325.875 199.572 333.666C210.297 341.457 225.305 339.078 233.096 328.355S238.51 302.623 227.787 294.832C217.062 287.041 202.055 289.418 194.264 300.143ZM284.213 294.832C273.49 302.623 271.113 317.633 278.904 328.355S301.703 341.457 312.428 333.666C323.15 325.875 325.527 310.865 317.736 300.143C309.945 289.418 294.938 287.041 284.213 294.832ZM317.061 210.926C304.453 215.021 297.555 228.561 301.65 241.166C305.746 253.773 319.287 260.672 331.893 256.576S351.396 238.939 347.301 226.334S329.666 206.828 317.061 210.926Z"/></svg>