<svg xmlns="http://www.w3.org/2000/svg" viewBox="0 0 512 512"><!-- Font Awesome Pro 6.0.0-alpha2 by @fontawesome - https://fontawesome.com License - https://fontawesome.com/license (Commercial License) --><path d="M416 384C469 384 512 298 512 192C512 86 469 0 416 0S320 86 320 192C320 298 363 384 416 384ZM416 128C433.625 128 448 156.625 448 192S433.625 256 416 256S384 227.375 384 192S398.375 128 416 128ZM288 192C288 108.402 311.674 38.477 348.436 0H96C43 0 0 86 0 192C0 298 43 384 96 384H348.436C311.674 345.523 288 275.598 288 192ZM47.975 224C39.1 224 31.975 216.875 31.975 208S39.1 192 47.975 192S63.975 199.125 63.975 208S56.85 224 47.975 224ZM111.975 224C103.1 224 95.975 216.875 95.975 208S103.1 192 111.975 192S127.975 199.125 127.975 208S120.85 224 111.975 224ZM175.975 224C167.1 224 159.975 216.875 159.975 208S167.1 192 175.975 192S191.975 199.125 191.975 208S184.85 224 175.975 224ZM239.975 224C231.1 224 223.975 216.875 223.975 208S231.1 192 239.975 192S255.975 199.125 255.975 208S248.85 224 239.975 224ZM422.984 415.703L423.268 416H128V480C128 497.672 142.326 512 160 512H480C497.674 512 512 497.672 512 480V342.988C490.297 385.523 459.109 412.617 422.984 415.703Z"/></svg>