<svg xmlns="http://www.w3.org/2000/svg" viewBox="0 0 640 512"><!-- Font Awesome Pro 6.0.0-alpha2 by @fontawesome - https://fontawesome.com License - https://fontawesome.com/license (Commercial License) --><path d="M176 320C131.875 320 96 355.875 96 400S131.875 480 176 480S256 444.125 256 400S220.125 320 176 320ZM176 432C158.375 432 144 417.625 144 400S158.375 368 176 368S208 382.375 208 400S193.625 432 176 432ZM624 320H544V64C544 46.327 529.673 32 512 32H32C14.327 32 0 46.327 0 64V352C0 369.673 14.327 384 32 384H65.625C73.5 329.75 119.625 288 176 288S278.5 329.75 286.375 384H624C632.837 384 640 376.837 640 368V336C640 327.163 632.837 320 624 320ZM96 243.625C84.625 249.375 73.875 256.375 64 264.375V104C64 99.625 67.625 96 72 96H88C92.375 96 96 99.625 96 104V243.625ZM192 225.125C186.75 224.625 181.375 224 176 224S165.25 224.625 160 225.125V104C160 99.625 163.625 96 168 96H184C188.375 96 192 99.625 192 104V225.125ZM288 264.375C278.125 256.375 267.375 249.375 256 243.625V104C256 99.625 259.625 96 264 96H280C284.375 96 288 99.625 288 104V264.375ZM384 320H352V104C352 99.625 355.625 96 360 96H376C380.375 96 384 99.625 384 104V320ZM480 320H448V104C448 99.625 451.625 96 456 96H472C476.375 96 480 99.625 480 104V320Z"/></svg>