<svg xmlns="http://www.w3.org/2000/svg" viewBox="0 0 512 512"><!-- Font Awesome Pro 6.0.0-alpha2 by @fontawesome - https://fontawesome.com License - https://fontawesome.com/license (Commercial License) --><path d="M480 0H367.631C346.248 0 335.541 25.852 350.66 40.971L380.217 70.527L353.107 97.639C326.109 76.854 292.705 64 256 64C167.635 64 96 135.635 96 224C96 301.404 150.971 365.947 224 380.775V400H192C183.164 400 176 407.162 176 416V448C176 456.836 183.164 464 192 464H224V496C224 504.836 231.164 512 240 512H272C280.838 512 288 504.836 288 496V464H320C328.838 464 336 456.836 336 448V416C336 407.162 328.838 400 320 400H288V380.775C361.029 365.947 416 301.404 416 224C416 195.615 407.982 169.348 395.02 146.234L425.473 115.783L455.029 145.34C470.148 160.459 496 149.752 496 128.369V16C496 7.164 488.836 0 480 0ZM256 304C211.889 304 176 268.111 176 224C176 179.887 211.889 144 256 144C300.113 144 336 179.887 336 224C336 268.111 300.113 304 256 304Z"/></svg>