<svg xmlns="http://www.w3.org/2000/svg" viewBox="0 0 448 512"><!-- Font Awesome Pro 6.0.0-alpha2 by @fontawesome - https://fontawesome.com License - https://fontawesome.com/license (Commercial License) --><path d="M32 464C32 490.5 53.5 512 80 512H368C394.5 512 416 490.5 416 464V128H32V464ZM119.031 287.031L207.031 199.031C209.596 196.467 215.506 192 224 192S238.404 196.467 240.969 199.031L328.969 287.031C338.344 296.406 338.344 311.594 328.969 320.969S304.406 330.344 295.031 320.969L248 273.938V424C248 437.25 237.25 448 224 448S200 437.25 200 424V273.938L152.969 320.969C143.594 330.344 128.406 330.344 119.031 320.969S109.656 296.406 119.031 287.031ZM432 32H312L302.625 13.25C298.5 5.125 290.25 0 281.125 0H166.75C157.75 0 149.375 5.125 145.375 13.25L136 32H16C7.125 32 0 39.125 0 48V80C0 88.875 7.125 96 16 96H432C440.875 96 448 88.875 448 80V48C448 39.125 440.875 32 432 32Z"/></svg>