<svg xmlns="http://www.w3.org/2000/svg" viewBox="0 0 640 512"><!-- Font Awesome Pro 6.0.0-alpha2 by @fontawesome - https://fontawesome.com License - https://fontawesome.com/license (Commercial License) --><path d="M149.189 467C150.751 491.844 172.22 512 197.095 512H442.907C463.495 512 481.566 498.111 488.13 479.266L132.536 200.557L149.189 467ZM630.812 469.102L497.226 364.4L512.001 128H195.607L154.779 96H528.001C536.839 96 544.001 88.836 544.001 80V48C544.001 39.162 536.839 32 528.001 32H416.001L404.423 8.844C401.714 3.424 396.173 0 390.113 0H249.89C243.829 0 238.29 3.424 235.579 8.844L224.001 32H112.001C103.165 32 96.001 39.162 96.001 48V49.932L38.814 5.109C34.407 1.672 29.189 0 24.032 0C16.907 0 9.845 3.156 5.126 9.188C-3.061 19.625 -1.249 34.717 9.189 42.889L601.187 506.883C611.687 515.086 626.749 513.211 634.874 502.805C643.062 492.367 641.249 477.273 630.812 469.102Z"/></svg>