<svg xmlns="http://www.w3.org/2000/svg" viewBox="0 0 576 512"><!-- Font Awesome Pro 6.0.0-alpha2 by @fontawesome - https://fontawesome.com License - https://fontawesome.com/license (Commercial License) --><path d="M352 336C352 344.875 344.875 352 336 352H240C231.125 352 224 344.875 224 336V288H128V480H448V288H352V336ZM0 128V256H96V32C43 32 0 75 0 128ZM0 448C0 465.625 14.375 480 32 480H96V288H0V448ZM480 32V256H576V128C576 75 533 32 480 32ZM304 304V240C304 231.125 296.875 224 288 224S272 231.125 272 240V304C272 312.875 279.125 320 288 320S304 312.875 304 304ZM480 480H544C561.625 480 576 465.625 576 448V288H480V480ZM128 256H224V208C224 199.125 231.125 192 240 192H336C344.875 192 352 199.125 352 208V256H448V32H128V256Z"/></svg>