<svg xmlns="http://www.w3.org/2000/svg" viewBox="0 0 512 512"><!-- Font Awesome Pro 6.0.0-alpha2 by @fontawesome - https://fontawesome.com License - https://fontawesome.com/license (Commercial License) --><path d="M512 288C512 315.841 501.749 339.445 481.39 358.526C463.306 375.475 438.721 384 413.936 384L288 384V480.001C288 497.674 273.674 512 256.001 512H255.999C238.326 512 224 497.674 224 480.001V384L98.064 384C73.279 384 48.694 375.475 30.61 358.526C10.251 339.445 0 315.841 0 288C0 268.625 5.375 251 16 235S41 207.375 59 200C49.625 184 46.125 167.5 48.5 150.5S57.625 118.875 69 106.5S94.125 86 110.5 82S143.375 79.625 160 87C162.625 62.375 173.125 41.625 191.5 25S231.375 0 256 0S302.125 8.375 320.5 25S349.375 62.375 352 87C368.625 79.625 385.125 78 401.5 82S431.625 94.125 443 106.5S461.125 133.5 463.5 150.5S462.625 184 454 200H453C471 207.375 485.375 219 496 235S512 268.625 512 288Z"/></svg>