<svg xmlns="http://www.w3.org/2000/svg" viewBox="0 0 576 512"><!-- Font Awesome Pro 6.0.0-alpha2 by @fontawesome - https://fontawesome.com License - https://fontawesome.com/license (Commercial License) --><path d="M575.737 172.875C577.612 182.75 569.237 192 557.988 192H503.99L479.991 144L455.992 192H321.248C336.123 248.625 362.372 371.5 347.622 485C345.622 500.625 331.623 512 315.874 512H260.751C240.002 512 224.628 492.5 229.753 472.375C244.127 415.25 266.251 305 255.626 200.25L109.508 346.375C101.509 354.375 89.134 353.75 83.384 345.375C48.011 293.625 61.76 213 118.758 156C122.133 152.625 125.882 150 129.507 146.875L96.009 80L72.01 128H18.012C6.763 128 -1.612 118.75 0.263 108.875C11.888 47.25 78.635 0 159.256 0C233.378 0 295.125 40.125 313.749 94.5C341.748 75.75 377.371 64 416.744 64C497.365 64 564.112 111.25 575.737 172.875Z"/></svg>