<svg xmlns="http://www.w3.org/2000/svg" viewBox="0 0 640 512"><!-- Font Awesome Pro 6.0.0-alpha2 by @fontawesome - https://fontawesome.com License - https://fontawesome.com/license (Commercial License) --><path d="M621.25 237.18L562.75 178.699C550.75 166.703 534.5 160.08 517.5 160.08H464C446.25 160.08 432 174.326 432 192.07V320.01H32C14.25 320.01 0 334.256 0 352V395.75C0 436.611 28.75 473.85 69.125 479.223C99.75 483.346 127.375 469.725 144 447.607C162.375 472.225 194.375 486.219 229.25 477.223C254.5 470.725 275.375 451.107 283.75 426.49C288.625 411.619 289.125 397.25 286.5 384.129H449.75C447 397.25 447.5 411.619 452.5 426.49C460.875 451.605 482.375 471.35 508.125 477.598C560.875 490.344 608.125 450.607 608.125 399.998C608.125 394.5 607.5 389.127 606.5 384.004H624C632.75 384.004 640 376.758 640 368.01V282.539C640 265.42 633.25 249.176 621.25 237.18ZM80 431.863C62.375 431.863 48 417.492 48 399.875C48 382.256 62.375 367.885 80 367.885S112 382.256 112 399.875C112 417.492 97.625 431.863 80 431.863ZM208 431.863C190.375 431.863 176 417.492 176 399.875C176 382.256 190.375 367.885 208 367.885S240 382.256 240 399.875C240 417.492 225.625 431.863 208 431.863ZM528 431.863C510.375 431.863 496 417.492 496 399.875C496 382.256 510.375 367.885 528 367.885S560 382.256 560 399.875C560 417.492 545.625 431.863 528 431.863ZM480 255.924V207.939H517.5C521.75 207.939 525.75 209.689 528.75 212.688L572.125 255.924H480Z"/></svg>