<svg xmlns="http://www.w3.org/2000/svg" viewBox="0 0 512 512"><!-- Font Awesome Pro 6.0.0-alpha2 by @fontawesome - https://fontawesome.com License - https://fontawesome.com/license (Commercial License) --><path d="M64 0C28.654 0 0 28.654 0 64V368C0 391.629 12.953 412.037 32 423.123V480C32 497.673 46.327 512 64 512H96C113.673 512 128 497.673 128 480V432H384V480C384 497.673 398.327 512 416 512H448C465.673 512 480 497.673 480 480V423.123C499.047 412.037 512 391.629 512 368V64C512 28.654 483.346 0 448 0H64ZM96 352C78.328 352 64 337.672 64 320C64 302.326 78.328 288 96 288S128 302.326 128 320C128 337.672 113.672 352 96 352ZM110.129 224L134.836 149.881C139.195 136.793 151.398 128 165.195 128H346.805C360.602 128 372.805 136.793 377.164 149.881L401.871 224H110.129ZM416 352C398.328 352 384 337.672 384 320C384 302.326 398.328 288 416 288S448 302.326 448 320C448 337.672 433.672 352 416 352Z"/></svg>