<svg xmlns="http://www.w3.org/2000/svg" viewBox="0 0 640 512"><!-- Font Awesome Pro 6.0.0-alpha2 by @fontawesome - https://fontawesome.com License - https://fontawesome.com/license (Commercial License) --><path d="M624 352H608V237.25C608 220.156 601.344 204.094 589.25 192L512 114.75C500.094 102.828 483.594 96 466.75 96H416V48C416 21.5 394.5 0 368 0H48C21.5 0 0 21.5 0 48V368C0 394.5 21.5 416 48 416H64C64 469 107 512 160 512S256 469 256 416H384C384 469 427 512 480 512S576 469 576 416H624C632.812 416 640 408.797 640 400V368C640 359.203 632.812 352 624 352ZM160 464C133.5 464 112 442.5 112 416S133.5 368 160 368S208 389.5 208 416S186.5 464 160 464ZM416 160H466.75L544 237.25V256H416V160ZM480 464C453.5 464 432 442.5 432 416S453.5 368 480 368S528 389.5 528 416S506.5 464 480 464Z"/></svg>