<svg xmlns="http://www.w3.org/2000/svg" viewBox="0 0 640 512"><!-- Font Awesome Pro 6.0.0-alpha2 by @fontawesome - https://fontawesome.com License - https://fontawesome.com/license (Commercial License) --><path d="M624 288H608V224C608 206.375 593.625 192 576 192H528L419.25 56C407.125 40.875 388.625 32 369.25 32H256C238.375 32 224 46.375 224 64V192H64C46.375 192 32 206.375 32 224V288H16C7.125 288 0 295.125 0 304V336C0 344.875 7.125 352 16 352H65.625C64.875 357.25 64 362.5 64 368C64 429.875 114.125 480 176 480S288 429.875 288 368C288 362.5 287.125 357.25 286.375 352H353.625C352.875 357.25 352 362.5 352 368C352 429.875 402.125 480 464 480S576 429.875 576 368C576 362.5 575.125 357.25 574.375 352H624C632.875 352 640 344.875 640 336V304C640 295.125 632.875 288 624 288ZM288 96H369.25L445.999 192H288V96ZM176 416C149.5 416 128 394.5 128 368S149.5 320 176 320S224 341.5 224 368S202.5 416 176 416ZM464 416C437.5 416 416 394.5 416 368S437.5 320 464 320S512 341.5 512 368S490.5 416 464 416Z"/></svg>