<svg xmlns="http://www.w3.org/2000/svg" viewBox="0 0 640 512"><!-- Font Awesome Pro 6.0.0-alpha2 by @fontawesome - https://fontawesome.com License - https://fontawesome.com/license (Commercial License) --><path d="M100.25 256H379.75C403.25 256 420.75 236.25 414.875 216C394.875 147 324.375 64 240.375 64H239.625C155.625 64 85.125 147 65.125 216C59.25 236.25 76.75 256 100.25 256ZM584.25 137.25L535.625 102.5C500.5 85.125 455.125 104.125 448.875 142.75C448.25 146.125 448 149.5 448 153V224.25C448 238.125 443.375 251.375 434.75 262.625C422.25 278.75 403.5 288 383 288H50.625C40.375 288 32 296.375 32 306.625C32 314.625 37.125 321.75 44.75 324.25L143 346.375L98.125 424C92 434.625 99.75 448 112 448H149C154.75 448 160 445 162.875 440L203.125 370.25C229.125 378.75 248.75 384 288 384C327.375 384 346.875 378.75 372.875 370.25L413.125 440C416 445 421.375 448 427 448H464C476.25 448 484 434.625 477.875 424L430.625 342.25C451.875 333.875 471 320.5 485.5 301.75C499.5 283.375 507.875 262.25 510.75 240H551.375C582.625 240 608 214.625 608 183.375C608 165 599.125 147.875 584.25 137.25ZM512 176C503.125 176 496 168.875 496 160S503.125 144 512 144S528 151.125 528 160S520.875 176 512 176Z"/></svg>