<svg xmlns="http://www.w3.org/2000/svg" viewBox="0 0 448 512"><!-- Font Awesome Pro 6.0.0-alpha2 by @fontawesome - https://fontawesome.com License - https://fontawesome.com/license (Commercial License) --><path d="M384 224H144V144C144 99.875 179.891 64 224 64S304 99.875 304 144V160H368V144C368 64.594 303.406 0 224 0S80 64.594 80 144V224H64C28.654 224 0 252.652 0 288V448C0 483.344 28.654 512 64 512H384C419.346 512 448 483.344 448 448V288C448 252.652 419.346 224 384 224ZM256 384C256 401.672 241.674 416 224 416S192 401.672 192 384V352C192 334.328 206.326 320 224 320S256 334.328 256 352V384Z"/></svg>