<svg xmlns="http://www.w3.org/2000/svg" viewBox="0 0 256 512"><!-- Font Awesome Pro 6.0.0-alpha2 by @fontawesome - https://fontawesome.com License - https://fontawesome.com/license (Commercial License) --><path d="M249.595 392.328L145.595 504.328C136.501 514.109 119.501 514.109 110.407 504.328L6.407 392.328C-0.077 385.344 -1.811 375.156 2.001 366.406S14.454 352 24.001 352H79.999V160H23.999C14.452 160 5.812 154.344 1.999 145.594C-1.813 136.844 -0.079 126.656 6.405 119.672L110.405 7.672C119.499 -2.109 136.499 -2.109 145.593 7.672L249.593 119.672C256.077 126.656 257.812 136.844 253.999 145.594C250.187 154.344 241.546 160 231.999 160H175.999V352H232.001C241.548 352 250.189 357.656 254.001 366.406S256.079 385.344 249.595 392.328Z"/></svg>