<svg xmlns="http://www.w3.org/2000/svg" viewBox="0 0 512 512"><!-- Font Awesome Pro 6.0.0-alpha2 by @fontawesome - https://fontawesome.com License - https://fontawesome.com/license (Commercial License) --><path d="M105.371 182.629C117.867 195.123 138.127 195.123 150.621 182.629L224 109.25V352C224 369.672 238.326 384 256 384C273.672 384 288 369.672 288 352V109.25L361.379 182.629C373.873 195.123 394.133 195.123 406.629 182.629V182.627C419.123 170.133 419.123 149.873 406.629 137.379L278.625 9.375C272.375 3.125 264.188 0 256 0S239.625 3.125 233.375 9.375L105.371 137.379C92.877 149.873 92.877 170.133 105.371 182.627V182.629ZM480 352H320C320 387.346 291.346 416 256 416S192 387.346 192 352H32C14.326 352 0 366.326 0 384V480C0 497.672 14.326 512 32 512H480C497.674 512 512 497.672 512 480V384C512 366.326 497.674 352 480 352ZM432 456C418.801 456 408 445.199 408 432C408 418.799 418.801 408 432 408S456 418.799 456 432C456 445.199 445.199 456 432 456Z"/></svg>