<svg xmlns="http://www.w3.org/2000/svg" viewBox="0 0 448 512"><!-- Font Awesome Pro 6.0.0-alpha2 by @fontawesome - https://fontawesome.com License - https://fontawesome.com/license (Commercial License) --><path d="M224 256C294.695 256 352 198.691 352 128S294.695 0 224 0C153.312 0 96 57.309 96 128S153.312 256 224 256ZM320 310.195V362.375C347.5 369.5 368 394.25 368 424V456C368 460.25 366.375 464.25 363.375 467.25L353 477.625C350 480.75 344.875 480.75 341.75 477.625L330.5 466.25C327.375 463.25 327.375 458.125 330.5 455L336.125 449.25V425.75C336.125 409.75 325.25 395 309.5 392.375C289.5 389.25 272.125 404.625 272.125 424V449.25L277.875 455C281 458.125 281 463.25 277.875 466.25L266.5 477.625C263.5 480.75 258.375 480.75 255.25 477.625L245 467.25C242 464.25 240.25 460.25 240.25 456V426.75C240.25 396.75 260 369.75 288.25 362.25V304.688C283.754 304.336 279.25 304 274.664 304H173.336C168.918 304 164.584 304.336 160.25 304.66V370.625C183.375 377.5 200.25 398.75 200.25 424C200.25 454.875 175.125 480 144.25 480S88.25 454.875 88.25 424C88.25 398.75 105.125 377.5 128.25 370.625V310.133C54.42 330.004 0 397.227 0 477.332C0 496.477 15.523 512 34.664 512H413.336C432.477 512 448 496.477 448 477.332C448 397.312 393.707 330.148 320 310.195ZM120.25 424C120.25 437.25 131 448 144.25 448S168.25 437.25 168.25 424S157.5 400 144.25 400S120.25 410.75 120.25 424Z"/></svg>