<svg xmlns="http://www.w3.org/2000/svg" viewBox="0 0 448 512"><!-- Font Awesome Pro 6.0.0-alpha2 by @fontawesome - https://fontawesome.com License - https://fontawesome.com/license (Commercial License) --><path d="M78.545 102.408V130.453C119.143 148.918 169.381 160 224 160S328.857 148.918 369.455 130.453V102.408L391.416 80.104C395.98 75.469 398.545 69.178 398.545 62.623C398.545 51.275 390.943 41.387 380.105 38.637L231.762 0.971C226.666 -0.324 221.334 -0.324 216.238 0.971L67.895 38.637C57.057 41.387 49.455 51.275 49.455 62.623C49.455 69.178 52.02 75.469 56.584 80.104L78.545 102.408ZM161.688 72.844C165.656 64.969 175.25 61.75 183.156 65.688L224 86.125L264.844 65.687C272.781 61.719 282.344 64.937 286.312 72.844C290.25 80.75 287.062 90.344 279.156 94.312L231.156 118.312C228.906 119.438 226.438 120 224 120S219.094 119.438 216.844 118.312L168.844 94.312C160.938 90.344 157.75 80.75 161.688 72.844ZM319.695 352.508L224 416L128.305 352.508C57.053 355.211 0 413.418 0 485.332C0 500.059 11.941 512 26.664 512H421.336C436.059 512 448 500.059 448 485.332C448 413.418 390.953 355.211 319.695 352.508ZM368 448H336C327.164 448 320 440.836 320 432C320 423.162 327.164 416 336 416H368C376.836 416 384 423.162 384 432C384 440.836 376.836 448 368 448ZM97.973 172.428C96.979 178.854 96 185.295 96 192C96 262.691 153.307 320 224 320S352 262.691 352 192C352 185.295 351.021 178.854 350.027 172.428C311.225 185.172 268.377 192 224 192C179.625 192 136.777 185.172 97.973 172.428Z"/></svg>