<svg xmlns="http://www.w3.org/2000/svg" viewBox="0 0 448 512"><!-- Font Awesome Pro 6.0.0-alpha2 by @fontawesome - https://fontawesome.com License - https://fontawesome.com/license (Commercial License) --><path d="M377.691 338.812L414.84 245.941C419.043 235.43 411.303 224 399.984 224H342.508C348.527 209.156 352 193 352 176C352 171.883 351.17 168 350.789 163.98C390.693 155.188 416 142.344 416 128C416 111.918 384.25 97.719 335.686 89.008C323.805 45.148 304.945 0 277.438 0C267.062 0 257.813 4.5 250.062 10.5C234.812 22.375 213.312 22.375 198.062 10.5C190.312 4.5 181.062 0 170.688 0C143.178 0 124.432 45.156 112.496 88.977C63.826 97.68 32 111.898 32 128C32 142.344 57.309 155.188 97.213 163.98C96.832 168 96 171.883 96 176C96 193 99.475 209.156 105.494 224H48.016C36.697 224 28.957 235.43 33.16 245.941L70.309 338.812C27.867 370.359 0 420.371 0 477.332C0 496.477 15.523 512 34.664 512H413.336C432.477 512 448 496.477 448 477.332C448 420.367 420.133 370.355 377.691 338.812ZM176.012 479.953L128 288L192 320L208 352L176.012 479.953ZM271.988 479.953L240 352L256 320L320 288L271.988 479.953ZM320 186.043C320 207 302.791 224 281.584 224H269.25C252.791 224 238.961 213.605 233.615 199.008C232.105 194.887 228.389 192 224 192S215.895 194.887 214.385 199.008C209.039 213.605 195.209 224 178.75 224H166.416C145.209 224 128 207 128 186.043V169.527C156.264 173.617 188.986 176 224 176S291.736 173.617 320 169.527V186.043Z"/></svg>