<svg xmlns="http://www.w3.org/2000/svg" viewBox="0 0 448 512"><!-- Font Awesome Pro 6.0.0-alpha2 by @fontawesome - https://fontawesome.com License - https://fontawesome.com/license (Commercial License) --><path d="M206.727 378.125C216.955 385.957 231.045 385.957 241.273 378.125C282.637 346.32 384 259.566 384 173.629C384 65.828 312.295 0 224 0C135.592 0 64 65.828 64 173.629C64 259.566 165.363 346.32 206.727 378.125ZM240 236C240 202.875 266.875 176 300 176H324C330.625 176 336 181.375 336 188V196C336 229.125 309.125 256 276 256H252C245.375 256 240 250.625 240 244V236ZM112 196V188C112 181.375 117.375 176 124 176H148C181.125 176 208 202.875 208 236V244C208 250.625 202.625 256 196 256H172C138.875 256 112 229.125 112 196ZM319.652 352.5C298.936 372.805 278.078 390.191 260.729 403.531C250.229 411.57 237.186 416 224 416S197.771 411.57 187.223 403.492C169.893 390.164 149.051 372.789 128.346 352.504C57.072 355.188 0 413.406 0 485.332C0 500.059 11.941 512 26.664 512H421.336C436.059 512 448 500.059 448 485.332C448 413.406 390.93 355.184 319.652 352.5Z"/></svg>