<svg xmlns="http://www.w3.org/2000/svg" viewBox="0 0 640 512"><!-- Font Awesome Pro 6.0.0-alpha2 by @fontawesome - https://fontawesome.com License - https://fontawesome.com/license (Commercial License) --><path d="M496 224C416.375 224 352 288.375 352 368S416.375 512 496 512S640 447.625 640 368S575.625 224 496 224ZM544 384H489.75C484.375 384 480 379.625 480 374.25V304C480 295.164 487.164 288 496 288C504.838 288 512 295.164 512 304V352H544C552.838 352 560 359.164 560 368S552.838 384 544 384ZM224 256C294.695 256 352 198.691 352 128S294.695 0 224 0C153.312 0 96 57.309 96 128S153.312 256 224 256ZM320 368C320 348.699 323.221 330.176 328.961 312.797C311.867 307.16 293.646 304 274.664 304H173.336C77.609 304 0 381.602 0 477.332C0 496.477 15.523 512 34.664 512H395.002C349.691 480.156 320 427.586 320 368Z"/></svg>