<svg xmlns="http://www.w3.org/2000/svg" viewBox="0 0 448 512"><!-- Font Awesome Pro 6.0.0-alpha2 by @fontawesome - https://fontawesome.com License - https://fontawesome.com/license (Commercial License) --><path d="M224 272C294.75 272 352 214.75 352 144V0L288 32L224 0L160 32L96 0V144C96 214.75 153.25 272 224 272ZM144 128H304V144C304 188.125 268.125 224 224 224S144 188.125 144 144V128ZM274.664 304H173.336C77.609 304 0 381.602 0 477.332C0 496.477 15.523 512 34.664 512H413.336C432.477 512 448 496.477 448 477.332C448 381.602 370.398 304 274.664 304Z"/></svg>