<svg xmlns="http://www.w3.org/2000/svg" viewBox="0 0 448 512"><!-- Font Awesome Pro 6.0.0-alpha2 by @fontawesome - https://fontawesome.com License - https://fontawesome.com/license (Commercial License) --><path d="M32 192C59.25 192 83.75 180.5 101.25 162.25C116.25 216.25 165.25 256 224 256C294.75 256 352 198.75 352 128S294.75 0 224 0C173.625 0 130.375 29.375 109.5 71.75C92.125 47.75 64 32 32 32C32 65.375 49.125 94.75 75.125 112C49.125 129.25 32 158.625 32 192ZM176 96H272C289.75 96 304 110.25 304 128H144C144 110.25 158.25 96 176 96ZM305.795 306.941L224 416L142.205 306.941C61.357 321.625 0 392.246 0 477.332C0 496.477 15.523 512 34.664 512H413.336C432.477 512 448 496.477 448 477.332C448 392.246 386.648 321.625 305.795 306.941Z"/></svg>