<svg xmlns="http://www.w3.org/2000/svg" viewBox="0 0 512 512"><!-- Font Awesome Pro 6.0.0-alpha2 by @fontawesome - https://fontawesome.com License - https://fontawesome.com/license (Commercial License) --><path d="M488 32L488 32C474.745 32 464 42.745 464 56V64H432V56C432 42.745 421.255 32 408 32H408C394.745 32 384 42.745 384 56V64H288V16C288 7.163 280.837 0 272 0H240C231.163 0 224 7.163 224 16V64H128V56C128 42.745 117.255 32 104 32H104C90.745 32 80 42.745 80 56V64H48V56C48 42.745 37.255 32 24 32H24C10.745 32 0 42.745 0 56V96C0 113.673 14.327 128 32 128H83.156L224 221.896V256H128V248C128 234.745 117.255 224 104 224H104C90.745 224 80 234.745 80 248V256H48V248C48 234.745 37.255 224 24 224H24C10.745 224 0 234.745 0 248V288C0 305.673 14.327 320 32 320H83.156L224 413.896V512H288V413.896L428.844 320H480C497.673 320 512 305.673 512 288V248C512 234.745 501.255 224 488 224L488 224C474.745 224 464 234.745 464 248V256H432V248C432 234.745 421.255 224 408 224H408C394.745 224 384 234.745 384 248V256H288V221.896L428.844 128H480C497.673 128 512 113.673 512 96V56C512 42.745 501.255 32 488 32ZM140.844 320H224V375.438L140.844 320ZM371.156 320L288 375.438V320H371.156ZM140.844 128H224V183.438L140.844 128ZM288 128H371.156L288 183.438V128Z"/></svg>