<svg xmlns="http://www.w3.org/2000/svg" viewBox="0 0 512 512"><!-- Font Awesome Pro 6.0.0-alpha2 by @fontawesome - https://fontawesome.com License - https://fontawesome.com/license (Commercial License) --><path d="M40 32C17.908 32 0 49.908 0 72V440C0 462.092 17.908 480 40 480S80 462.092 80 440V72C80 49.908 62.092 32 40 32ZM374.625 137.375C362.125 124.875 341.875 124.875 329.375 137.375L256 210.75L182.625 137.375C170.125 124.875 149.875 124.875 137.375 137.375S124.875 170.125 137.375 182.625L210.75 256L137.375 329.375C124.875 341.875 124.875 362.125 137.375 374.625C143.625 380.875 151.812 384 160 384S176.375 380.875 182.625 374.625L256 301.25L329.375 374.625C335.625 380.875 343.812 384 352 384S368.375 380.875 374.625 374.625C387.125 362.125 387.125 341.875 374.625 329.375L301.25 256L374.625 182.625C387.125 170.125 387.125 149.875 374.625 137.375ZM472 32C449.908 32 432 49.908 432 72V440C432 462.092 449.908 480 472 480S512 462.092 512 440V72C512 49.908 494.092 32 472 32Z"/></svg>