<svg xmlns="http://www.w3.org/2000/svg" viewBox="0 0 512 512"><!-- Font Awesome Pro 6.0.0-alpha2 by @fontawesome - https://fontawesome.com License - https://fontawesome.com/license (Commercial License) --><path d="M502.625 169.375L342.625 9.375C336.375 3.125 328.188 0 320 0S303.625 3.125 297.375 9.375C284.875 21.875 284.875 42.125 297.375 54.625L304.35 61.602L32.936 332.625C-5.814 371.375 -12.189 434.625 23.561 476.125C44.078 500 72.764 512 101.488 512H101.936C128.311 512 154.686 502 174.811 481.875L450.01 207.258L457.375 214.625C463.625 220.875 471.813 224 480 224S496.375 220.875 502.625 214.625C515.125 202.125 515.125 181.875 502.625 169.375ZM310.559 256H200.248L349.572 106.891L349.602 106.859L404.75 162.008L310.559 256Z"/></svg>