<svg xmlns="http://www.w3.org/2000/svg" viewBox="0 0 576 512"><!-- Font Awesome Pro 6.0.0-alpha2 by @fontawesome - https://fontawesome.com License - https://fontawesome.com/license (Commercial License) --><path d="M525.594 101.703L416 177.297V334.703L525.594 410.203C546.812 424.797 576 409.906 576 384.406V127.5C576 102.094 546.906 87.094 525.594 101.703ZM336 64H48C21.49 64 0 85.49 0 112V400C0 426.51 21.49 448 48 448H336C362.51 448 384 426.51 384 400V112C384 85.49 362.51 64 336 64ZM304 280C304 293.25 293.25 304 280 304S256 293.25 256 280V225.938L120.969 360.969C116.281 365.656 110.156 368 104 368S91.719 365.656 87.031 360.969C77.656 351.594 77.656 336.406 87.031 327.031L222.062 192H168C154.75 192 144 181.25 144 168S154.75 144 168 144H280C293.25 144 304 154.75 304 168V280Z"/></svg>