<svg xmlns="http://www.w3.org/2000/svg" viewBox="0 0 576 512"><!-- Font Awesome Pro 6.0.0-alpha2 by @fontawesome - https://fontawesome.com License - https://fontawesome.com/license (Commercial License) --><path d="M336 64H48C21.49 64 0 85.49 0 112V400C0 426.51 21.49 448 48 448H336C362.51 448 384 426.51 384 400V112C384 85.49 362.51 64 336 64ZM296.969 184.969L161.938 320H216C229.25 320 240 330.75 240 344S229.25 368 216 368H104C90.75 368 80 357.25 80 344V232C80 218.75 90.75 208 104 208S128 218.75 128 232V286.062L263.031 151.031C267.719 146.344 273.844 144 280 144S292.281 146.344 296.969 151.031C306.344 160.406 306.344 175.594 296.969 184.969ZM525.594 101.703L416 177.297V334.703L525.594 410.203C546.812 424.797 576 409.906 576 384.406V127.5C576 102.094 546.906 87.094 525.594 101.703Z"/></svg>