<svg xmlns="http://www.w3.org/2000/svg" viewBox="0 0 640 512"><!-- Font Awesome Pro 6.0.0-alpha2 by @fontawesome - https://fontawesome.com License - https://fontawesome.com/license (Commercial License) --><path d="M495.997 96C442.871 96 393.995 125.25 368.994 172.125C343.994 219 346.744 275.875 376.244 320H263.742C300.368 265.125 294.993 192.25 250.742 143.25C206.366 94.375 134.364 81.875 76.113 113S-11.764 210.875 4.361 275C20.362 339 77.988 384 143.989 384H495.997C575.499 384 640 319.5 640 240S575.499 96 495.997 96ZM63.988 240C63.988 195.875 99.863 160 143.989 160S223.991 195.875 223.991 240S188.115 320 143.989 320S63.988 284.125 63.988 240ZM495.997 320C451.871 320 415.995 284.125 415.995 240S451.871 160 495.997 160S575.999 195.875 575.999 240S540.123 320 495.997 320Z"/></svg>