<svg xmlns="http://www.w3.org/2000/svg" viewBox="0 0 576 512"><!-- Font Awesome Pro 6.0.0-alpha2 by @fontawesome - https://fontawesome.com License - https://fontawesome.com/license (Commercial License) --><path d="M301.109 34.818C289.609 29.631 276.156 31.725 266.734 40.1L131.84 160.004H48C21.49 160.004 0 181.496 0 208.004V304.002C0 330.51 21.49 352.002 48 352.002H131.84L266.734 471.906C272.719 477.219 280.312 480 288 480C292.438 480 296.906 479.094 301.109 477.188C312.609 472.031 320 460.594 320 448V64.006C320 51.412 312.609 39.975 301.109 34.818ZM513.938 255.998L560.969 208.967C570.344 199.592 570.344 184.404 560.969 175.029S536.406 165.654 527.031 175.029L480 222.061L432.969 175.029C423.594 165.654 408.406 165.654 399.031 175.029S389.656 199.592 399.031 208.967L446.062 255.998L399.031 303.029C389.656 312.404 389.656 327.592 399.031 336.967C408.404 346.34 423.588 346.348 432.969 336.967L480 289.936L527.031 336.967C536.404 346.34 551.588 346.348 560.969 336.967C570.344 327.592 570.344 312.404 560.969 303.029L513.938 255.998Z"/></svg>