<svg xmlns="http://www.w3.org/2000/svg" viewBox="0 0 640 512"><!-- Font Awesome Pro 6.0.0-alpha2 by @fontawesome - https://fontawesome.com License - https://fontawesome.com/license (Commercial License) --><path d="M383.998 55.966C383.998 33.861 366.124 16.002 343.999 16.002H296.001C273.876 16.002 256.002 33.861 256.002 55.966V223.816H383.998V55.966ZM224.002 223.816V92.808C224.002 55.966 198.628 24.744 164.629 19.499L39.507 0.391C13.508 -3.605 -6.992 23.745 2.258 50.096L70.756 223.816H224.002ZM542.244 319.73H559.994C568.869 319.73 575.994 312.611 575.994 303.744V271.773C575.994 262.906 568.869 255.787 559.994 255.787H80.006C71.131 255.787 64.006 262.906 64.006 271.773V303.744C64.006 312.611 71.131 319.73 80.006 319.73H97.756C97.506 319.979 97.131 320.229 96.756 320.479C62.132 354.823 53.632 407.651 75.881 451.112S146.004 518.551 194.128 510.434C242.377 502.316 279.626 463.975 286.501 415.644H353.499C360.499 463.726 397.748 501.816 445.747 509.934C493.746 517.927 541.494 493.948 563.744 450.737S577.618 354.823 543.244 320.479C542.869 320.229 542.494 319.979 542.244 319.73ZM160.004 461.353C137.38 455.733 119.88 438.248 114.255 415.644H160.004V461.353ZM160.004 383.672H114.255C119.755 361.068 137.38 343.458 160.004 337.963V383.672ZM221.253 444.867C213.128 452.86 203.003 458.605 192.003 461.353V415.644H237.752C235.002 426.634 229.252 436.75 221.253 444.867ZM192.003 383.672V337.963C214.628 343.458 232.252 361.068 237.752 383.672H192.003ZM447.997 461.353C425.372 455.733 407.873 438.248 402.248 415.644H447.997V461.353ZM447.997 383.672H402.248C407.748 361.068 425.372 343.458 447.997 337.963V383.672ZM509.245 444.867C501.12 452.86 490.996 458.605 479.996 461.353V415.644H525.745C522.995 426.634 517.245 436.75 509.245 444.867ZM479.996 383.672V337.963C502.62 343.458 520.245 361.068 525.745 383.672H479.996ZM600.493 0.391L475.496 19.499C441.372 24.744 415.998 55.966 415.998 92.808V223.816H569.244L637.742 50.096C646.992 23.745 626.492 -3.605 600.493 0.391Z"/></svg>