<svg xmlns="http://www.w3.org/2000/svg" viewBox="0 0 576 512"><!-- Font Awesome Pro 6.0.0-alpha2 by @fontawesome - https://fontawesome.com License - https://fontawesome.com/license (Commercial License) --><path d="M92.02 204.301C93.035 206.344 95.705 208 97.984 208C97.992 208 98 207.992 98.008 207.992L98.012 208L98.018 207.99C100.289 207.975 102.932 206.334 103.943 204.301L124.502 155.004L124.668 154.672L124.902 154.555L174.285 133.963C176.309 132.951 177.949 130.287 177.961 128.025L178.01 128L177.961 127.977C177.949 125.707 176.311 123.049 174.285 122.037L124.879 101.434L124.668 101.328L124.508 101.006L103.943 51.695C102.932 49.662 100.289 48.025 98.018 48.01L98.012 48L98.008 48.008C98 48.008 97.992 48 97.984 48C95.705 48 93.035 49.652 92.02 51.695L71.32 101.336L21.682 122.037C19.652 123.053 18 125.721 18 127.998C18 130.264 19.652 132.947 21.682 133.963L71.32 154.662L92.02 204.301ZM225.996 63.998L238.416 93.781C239.025 95.006 240.627 96 241.994 96S244.961 95.006 245.57 93.781L257.99 63.998L287.773 51.578C288.992 50.969 289.984 49.357 289.984 47.998C289.984 46.633 288.992 45.031 287.773 44.422L257.99 32.002L245.57 2.217C244.961 0.99 243.361 0 241.994 0S239.025 0.99 238.416 2.217L225.996 32.002L196.213 44.422C194.996 45.031 194.004 46.633 194.004 47.998C194.004 49.357 194.996 50.969 196.213 51.578L225.996 63.998ZM530.352 48L496.428 14.061C477.684 -4.686 447.289 -4.688 428.545 14.059L46.469 396.109C27.723 414.854 27.721 445.244 46.465 463.99L80.398 497.938C99.141 516.686 129.535 516.688 148.281 497.941L530.35 115.879C549.094 97.135 549.094 66.746 530.352 48ZM379.719 187.311L357.092 164.684L462.453 59.32L485.111 81.947L379.719 187.311ZM526.303 378.037L476.732 357.365L476.658 357.328L455.961 307.695C454.945 305.652 452.279 304 450.002 304C447.721 304 445.053 305.652 444.037 307.695L423.34 357.33L423.291 357.355L373.699 378.037C371.672 379.053 370.023 381.717 370.02 383.992L370.004 384L370.021 384.008C370.025 386.27 371.674 388.949 373.699 389.963L423.268 410.633L423.342 410.67L444.037 460.301C445.053 462.344 447.721 464 450.002 464C452.279 464 454.945 462.344 455.961 460.301L476.656 410.674L476.658 410.672L476.756 410.623L526.303 389.963C528.33 388.949 529.979 386.27 529.982 384.008L530 384L529.984 383.992C529.98 381.717 528.332 379.053 526.303 378.037Z"/></svg>