<svg xmlns="http://www.w3.org/2000/svg" viewBox="0 0 512 512"><!-- Font Awesome Pro 6.0.0-alpha2 by @fontawesome - https://fontawesome.com License - https://fontawesome.com/license (Commercial License) --><path d="M3.682 149.961L53.321 170.664L74.019 220.301C75.035 222.344 77.705 224 79.984 224C79.992 224 80 223.992 80.008 223.992L80.011 224L80.017 223.992C82.289 223.977 84.931 222.336 85.943 220.301L106.501 171.004L106.667 170.672L106.901 170.555L156.285 149.961C158.308 148.953 159.949 146.289 159.96 144.023L160.009 144L159.96 143.977C159.949 141.707 158.31 139.047 156.285 138.039L106.878 117.434L106.667 117.328L106.507 117.008L85.943 67.695C84.931 65.664 82.289 64.023 80.017 64.008L80.011 64L80.008 64.008C80 64.008 79.992 64 79.984 64C77.705 64 75.035 65.652 74.019 67.695L53.321 117.336L3.682 138.039C1.652 139.055 0 141.719 0 144C0 146.266 1.652 148.945 3.682 149.961ZM511.984 367.992C511.98 365.719 510.331 363.055 508.302 362.039L458.731 341.367L458.657 341.328L437.96 291.695C436.945 289.652 434.279 288 432.002 288C429.72 288 427.053 289.652 426.037 291.695L405.34 341.328L405.291 341.355L355.699 362.039C353.672 363.055 352.023 365.719 352.02 367.992L352.004 368L352.021 368.008C352.025 370.27 353.674 372.949 355.699 373.961L405.268 394.633L405.342 394.672L426.037 444.301C427.053 446.344 429.72 448 432.002 448C434.279 448 436.945 446.344 437.96 444.301L458.655 394.672H458.657L458.755 394.625L508.302 373.961C510.33 372.949 511.978 370.27 511.982 368.008L511.999 368L511.984 367.992ZM207.996 64L220.416 93.781C221.025 95.008 222.627 96 223.994 96C225.361 96 226.96 95.008 227.57 93.781L239.989 64L269.774 51.578C270.992 50.969 271.985 49.359 271.985 48C271.985 46.633 270.992 45.031 269.774 44.422L239.989 32L227.57 2.219C226.96 0.992 225.361 0 223.994 0C222.627 0 221.025 0.992 220.416 2.219L207.996 32L178.212 44.422C176.995 45.031 176.003 46.633 176.003 48C176.003 49.359 176.995 50.969 178.212 51.578L207.996 64ZM399.977 192.008C408.852 192.008 415.975 184.883 415.975 176.008V148.012L507.839 46.266C513.589 39.895 513.339 30.27 507.339 24.145L487.842 4.773C481.717 -1.352 472.094 -1.602 465.719 4.148L186.628 256.008H144.008C135.133 256.008 128.01 263.129 128.01 272.004V308.875L10.523 414.867C-2.975 427.117 -3.6 448.242 9.398 461.242L50.768 502.617C63.768 515.613 84.89 514.988 97.138 501.492L376.355 192.008H399.977Z"/></svg>