<svg xmlns="http://www.w3.org/2000/svg" viewBox="0 0 576 512"><!-- Font Awesome Pro 6.0.0-alpha2 by @fontawesome - https://fontawesome.com License - https://fontawesome.com/license (Commercial License) --><path d="M37.775 380.445C63.104 375.82 82.494 367.133 95.963 359.195C115.463 370.727 147.432 383.82 192.01 383.82C236.557 383.82 268.494 370.758 288.01 359.227C307.525 370.758 339.463 383.82 384.01 383.82C428.588 383.82 460.557 370.727 480.057 359.195C493.525 367.133 512.916 375.82 538.244 380.445C555.807 383.82 572.307 372.102 575.494 354.727C578.666 337.352 567.15 320.695 549.775 317.508C518.541 311.789 502.932 297.445 502.65 297.195C490.432 285.008 470.338 285.07 457.744 296.82C456.744 297.758 432.604 319.82 384.01 319.82S311.275 297.758 310.635 297.195C298.416 284.945 278.338 285.07 265.744 296.82C264.744 297.758 240.604 319.82 192.01 319.82S119.275 297.758 118.635 297.195C106.416 284.945 86.354 285.039 73.744 296.852C73.088 297.445 57.479 311.789 26.244 317.508C8.869 320.695 -2.646 337.352 0.525 354.727C3.713 372.102 20.307 383.82 37.775 380.445ZM549.795 445.688C518.561 439.969 502.951 425.625 502.67 425.375C490.451 413.188 470.357 413.25 457.764 425C456.764 425.938 432.623 448 384.029 448S311.295 425.938 310.654 425.375C298.436 413.125 278.357 413.25 265.764 425C264.764 425.938 240.623 448 192.029 448S119.295 425.938 118.654 425.375C106.436 413.125 86.373 413.219 73.764 425.031C73.107 425.625 57.498 439.969 26.264 445.688C8.889 448.875 -2.627 465.531 0.545 482.906C3.732 500.281 20.326 512 37.795 508.625C63.123 504 82.514 495.312 95.982 487.375C115.482 498.906 147.451 512 192.029 512C236.576 512 268.514 498.938 288.029 487.406C307.545 498.938 339.482 512 384.029 512C428.607 512 460.576 498.906 480.076 487.375C493.545 495.313 512.936 504 538.264 508.625C555.826 512 572.326 500.281 575.514 482.906C578.686 465.531 567.17 448.875 549.795 445.688ZM268.035 217C269.494 218.162 271.201 218.746 272.795 219.621C274.061 220.322 275.18 221.156 276.543 221.684C280.248 223.113 284.102 224 288.02 224S295.791 223.113 299.496 221.684C300.859 221.156 301.979 220.322 303.244 219.621C304.838 218.746 306.545 218.162 308.004 217L388.004 153C401.816 141.938 404.051 121.812 393.004 108C381.988 94.188 361.816 91.969 348.035 103L320.02 125.422V32C320.02 14.312 305.691 0 288.02 0S256.02 14.312 256.02 32V125.422L228.004 103C214.238 91.969 194.082 94.25 183.035 108C171.988 121.812 174.223 141.938 188.035 153L268.035 217Z"/></svg>