<svg xmlns="http://www.w3.org/2000/svg" viewBox="0 0 448 512"><!-- Font Awesome Pro 6.0.0-alpha2 by @fontawesome - https://fontawesome.com License - https://fontawesome.com/license (Commercial License) --><path d="M368.005 96C394.515 96 416.006 74.508 416.006 48S394.515 0 368.005 0C341.494 0 320.003 21.492 320.003 48S341.494 96 368.005 96ZM440.756 235.719C434.662 228.312 425.6 224 416.006 224H299.101L338.254 183.25C339.191 182.312 340.035 181.312 340.816 180.25C349.973 168.031 352.754 152.625 348.473 138C344.16 123.344 333.535 111.906 322.003 107.719L206.001 51.219C195.251 46 182.407 47.156 172.813 54.406L108.811 102.406C94.655 113 91.779 133.062 102.405 147.188C112.999 161.344 133.062 164.156 147.187 153.594L195.594 117.312L245.297 141.453L191.569 195.18C181.358 193.137 170.816 192 160.004 192C137.911 192 116.866 196.477 97.723 204.574C59.437 220.766 28.768 251.438 12.575 289.719C4.477 308.863 0 329.906 0 352S4.477 395.137 12.575 414.281C28.768 452.563 59.437 483.234 97.723 499.426C116.866 507.523 137.911 512 160.004 512S203.141 507.523 222.284 499.426C260.568 483.234 291.239 452.563 307.433 414.281C315.529 395.137 320.007 374.094 320.007 352S315.529 308.863 307.433 289.719C307.177 289.113 306.763 288.602 306.499 288H376.973L352.629 409.719C349.16 427.062 360.411 443.906 377.723 447.375C379.849 447.812 381.942 448 384.036 448C398.974 448 412.349 437.5 415.381 422.281L447.381 262.281C449.256 252.875 446.819 243.125 440.756 235.719ZM160.004 464C98.244 464 48.001 413.758 48.001 352S98.244 240 160.004 240S272.006 290.242 272.006 352S221.763 464 160.004 464Z"/></svg>