<svg xmlns="http://www.w3.org/2000/svg" viewBox="0 0 640 512"><!-- Font Awesome Pro 6.0.0-alpha2 by @fontawesome - https://fontawesome.com License - https://fontawesome.com/license (Commercial License) --><path d="M627.658 326.75L491.474 220.828L448.001 248L416.001 224L438.275 179.453L339.657 102.75L339.532 102.91C307.364 78.594 267.434 64 224.001 64C185.149 64 149.055 75.625 118.834 95.465C107.676 76.703 87.412 64 64 64C28.654 64 0 92.652 0 128C0 156.461 18.705 180.305 44.397 188.617C36.514 209.613 32 232.254 32 256C32 362.039 117.961 448 224.001 448C287.653 448 343.903 416.898 378.837 369.199L529.689 444.625C534.252 446.906 539.127 448 544.002 448C552.283 448 560.47 444.781 566.627 438.625L630.627 374.625C637.127 368.125 640.502 359.187 639.939 350C639.377 340.844 634.908 332.375 627.658 326.75ZM79.662 129.668C75.918 133.941 72.389 138.387 69.03 142.984C67.426 143.523 65.783 144 64 144C55.178 144 48 136.824 48 128S55.178 112 64 112S80 119.176 80 128C80 128.594 79.725 129.094 79.662 129.668ZM224.001 320C188.655 320 160 291.344 160 256C160 220.652 188.655 192 224.001 192S288.001 220.652 288.001 256C288.001 291.344 259.346 320 224.001 320Z"/></svg>