<svg xmlns="http://www.w3.org/2000/svg" viewBox="0 0 640 512"><!-- Font Awesome Pro 6.0.0-alpha2 by @fontawesome - https://fontawesome.com License - https://fontawesome.com/license (Commercial License) --><path d="M320.318 352.002C284.972 352.002 256.316 380.658 256.316 416.002S284.972 480.002 320.318 480.002C355.662 480.002 384.32 451.346 384.32 416.002S355.662 352.002 320.318 352.002ZM320.32 192C250.07 192 182.414 217.562 129.82 264C116.57 275.719 115.32 295.938 127.007 309.188C138.789 322.438 158.976 323.688 172.195 312C213.07 275.875 265.695 256 320.32 256S427.57 275.875 468.445 312C474.539 317.375 482.101 320 489.632 320C498.476 320 507.289 316.344 513.632 309.188C525.32 295.938 524.07 275.719 510.82 264C458.226 217.562 390.57 192 320.32 192Z"/></svg>