<svg xmlns="http://www.w3.org/2000/svg" viewBox="0 0 640 512"><!-- Font Awesome Pro 6.0.0-alpha2 by @fontawesome - https://fontawesome.com License - https://fontawesome.com/license (Commercial License) --><path d="M320 303.969C320 268.687 348.719 239.969 384 239.969H415.373C407.358 134.664 320.629 50.553 212.813 48.057C97.969 45.398 2.713 136.344 0.057 251.188C-2.601 366.031 88.342 461.285 203.188 463.943C278.522 465.688 345.229 427.012 383.098 367.877C348.24 367.379 320 338.941 320 303.969ZM184 152C184 138.75 194.75 128 208 128S232 138.75 232 152V264C232 277.25 221.25 288 208 288S184 277.25 184 264V152ZM208 384C190.326 384 176 369.672 176 352C176 334.326 190.326 320 208 320S240 334.326 240 352C240 369.672 225.674 384 208 384ZM552 272H384C366.328 272 352 286.312 352 304S366.328 336 384 336H552C565.235 336 576 346.781 576 360S565.235 384 552 384H512C494.328 384 480 398.312 480 416S494.328 448 512 448H552C600.531 448 640 408.531 640 360S600.531 272 552 272ZM480 240H552C600.531 240 640 200.531 640 152S600.531 64 552 64H512C494.328 64 480 78.312 480 96S494.328 128 512 128H552C565.235 128 576 138.781 576 152S565.235 176 552 176H480C462.328 176 448 190.312 448 208S462.328 240 480 240Z"/></svg>