<svg xmlns="http://www.w3.org/2000/svg" viewBox="0 0 512 512"><!-- Font Awesome Pro 6.0.0-alpha2 by @fontawesome - https://fontawesome.com License - https://fontawesome.com/license (Commercial License) --><path d="M0 96V416C0 451.346 28.654 480 64 480H448C483.346 480 512 451.346 512 416V96C512 60.654 483.346 32 448 32H64C28.654 32 0 60.654 0 96ZM384 128C384 110.25 398.25 96 416 96S448 110.25 448 128S433.75 160 416 160S384 145.75 384 128ZM288 128C288 110.25 302.25 96 320 96S352 110.25 352 128S337.75 160 320 160S288 145.75 288 128ZM192 128C192 110.25 206.25 96 224 96S256 110.25 256 128S241.75 160 224 160S192 145.75 192 128Z"/></svg>