<svg xmlns="http://www.w3.org/2000/svg" viewBox="0 0 320 512"><!-- Font Awesome Pro 6.0.0-alpha2 by @fontawesome - https://fontawesome.com License - https://fontawesome.com/license (Commercial License) --><path d="M232.015 464H192.007V346.75C260.521 330.875 310.032 266.875 303.405 192.625L287.527 14.5C286.777 6.25 279.901 0 271.774 0H48.226C40.1 0 33.223 6.25 32.473 14.5L16.595 192.625C9.968 266.875 59.479 330.875 127.993 346.875V464H87.985C65.855 464 47.976 481.875 47.976 504C47.976 508.375 51.602 512 55.978 512H264.022C268.398 512 272.024 508.375 272.024 504C272.024 481.875 254.145 464 232.015 464ZM77.733 48H242.267L249.394 128H70.606L77.733 48Z"/></svg>