<svg xmlns="http://www.w3.org/2000/svg" viewBox="0 0 320 512"><!-- Font Awesome Pro 6.0.0-alpha2 by @fontawesome - https://fontawesome.com License - https://fontawesome.com/license (Commercial License) --><path d="M308.281 347.717C323.906 363.342 323.906 388.655 308.281 404.28C292.647 419.914 267.339 419.9 251.719 404.28L160 312.561L68.281 404.28C52.647 419.914 27.339 419.9 11.719 404.28C-3.906 388.655 -3.906 363.342 11.719 347.717L103.438 255.999L11.719 164.281C-3.906 148.656 -3.906 123.344 11.719 107.719S52.656 92.094 68.281 107.719L160 199.437L251.719 107.719C267.344 92.094 292.656 92.094 308.281 107.719S323.906 148.656 308.281 164.281L216.562 255.999L308.281 347.717Z"/></svg>