<svg xmlns="http://www.w3.org/2000/svg" viewBox="0 0 512 512"><!-- Font Awesome Pro 6.0.0-alpha2 by @fontawesome - https://fontawesome.com License - https://fontawesome.com/license (Commercial License) --><path d="M256 128C238.32 128 224.031 142.375 224.031 160S238.32 192 256 192S287.969 177.625 287.969 160S273.68 128 256 128ZM256 16C123.461 16 16 123.418 16 256C16 388.578 123.461 496 256 496S496 388.578 496 256C496 123.418 388.539 16 256 16ZM256 384C238.32 384 224.031 369.625 224.031 352S238.32 320 256 320S287.969 334.375 287.969 352S273.68 384 256 384ZM256 256C202.961 256 159.973 299 159.973 352S202.961 448 256 448C149.922 448 63.945 362 63.945 256C63.945 150 149.922 64 256 64C309.039 64 352.027 107 352.027 160S309.039 256 256 256Z"/></svg>