<svg xmlns="http://www.w3.org/2000/svg" viewBox="0 0 320 512"><!-- Font Awesome Pro 6.0.0-alpha2 by @fontawesome - https://fontawesome.com License - https://fontawesome.com/license (Commercial License) --><path d="M320 472C320 476.406 316.422 480 312 480H7.996C4.668 480 1.699 477.938 0.527 474.844C-0.66 471.75 0.199 468.219 2.684 466.032L229.14 264.412C280.828 219.82 286.828 144.353 242.905 92.48C221.108 66.731 190.373 51.075 156.404 48.419C122.326 45.731 89.325 56.418 63.544 78.605L29.7 107.729C26.356 110.636 21.309 110.261 18.418 106.886C15.528 103.542 15.918 98.48 19.262 95.605L53.106 66.481C82.138 41.513 119.466 29.45 157.654 32.45C195.92 35.481 230.53 53.137 255.124 82.168C304.781 140.791 298 226.132 239.671 276.443L29.012 464H312C316.422 464 320 467.594 320 472Z"/></svg>