<svg xmlns="http://www.w3.org/2000/svg" viewBox="0 0 320 512"><!-- Font Awesome Pro 6.0.0-alpha2 by @fontawesome - https://fontawesome.com License - https://fontawesome.com/license (Commercial License) --><path d="M320 355.688C320 424.219 264.235 480 195.689 480H89.737C49.143 480 13.253 454.125 0.409 415.625C-0.981 411.437 1.284 406.906 5.472 405.5C9.691 404.125 14.191 406.375 15.597 410.562C26.253 442.531 56.05 464 89.737 464H195.689C255.407 464 304 415.406 304 355.688S255.407 247.375 195.689 247.375H8.003C5.55 247.375 3.238 246.25 1.722 244.313C0.206 242.406 -0.34 239.875 0.222 237.5L48.222 38.125C49.097 34.531 52.3 32 56.003 32H280C284.422 32 288 35.594 288 40S284.422 48 280 48H62.3L18.159 231.375H195.689C264.235 231.375 320 287.156 320 355.688Z"/></svg>