<svg xmlns="http://www.w3.org/2000/svg" viewBox="0 0 320 512"><!-- Font Awesome Pro 6.0.0-alpha2 by @fontawesome - https://fontawesome.com License - https://fontawesome.com/license (Commercial License) --><path d="M0 320C0 408.219 71.781 480 160 480S320 408.219 320 320S248.219 160 160 160C139.006 160 119.057 164.311 100.67 171.695L221.781 45.531C224.844 42.344 224.719 37.281 221.531 34.219C220 32.75 218 32 216 32C213.906 32 211.812 32.812 210.219 34.469C39.836 211.961 0 238.099 0 320ZM304 320C304 399.406 239.406 464 160 464S16 399.406 16 320S80.594 176 160 176S304 240.594 304 320Z"/></svg>