<svg xmlns="http://www.w3.org/2000/svg" viewBox="0 0 512 512"><!-- Font Awesome Pro 6.0.0-alpha2 by @fontawesome - https://fontawesome.com License - https://fontawesome.com/license (Commercial License) --><path d="M23.996 128.001C28.402 128.001 31.996 124.423 31.996 120.001V112.001C31.996 103.173 39.184 96.001 47.996 96.001H463.996C472.809 96.001 479.996 103.173 479.996 112.001V120.001C479.996 124.423 483.59 128.001 487.996 128.001S495.996 124.423 495.996 120.001V112.001C495.996 94.36 481.652 80.001 463.996 80.001H47.996C30.34 80.001 15.996 94.36 15.996 112.001V120.001C15.996 124.423 19.59 128.001 23.996 128.001ZM39.996 48.001C44.402 48.001 47.996 44.423 47.996 40.001V32.001C47.996 23.173 55.184 16.001 63.996 16.001H447.996C456.809 16.001 463.996 23.173 463.996 32.001V40.001C463.996 44.423 467.59 48.001 471.996 48.001S479.996 44.423 479.996 40.001V32.001C479.996 14.36 465.652 0.001 447.996 0.001H63.996C46.34 0.001 31.996 14.36 31.996 32.001V40.001C31.996 44.423 35.59 48.001 39.996 48.001ZM501.809 172.501C494.496 164.548 483.996 160.001 472.996 160.001H38.996C27.996 160.001 17.496 164.548 10.246 172.438C2.871 180.298 -0.816 191.079 0.152 202.032L25.559 476.954C27.434 496.938 44.09 512.001 64.309 512.001H447.684C467.902 512.001 484.559 496.938 486.434 476.938L511.84 202.001C512.809 191.079 509.121 180.298 501.809 172.501ZM470.496 475.454C469.402 487.173 459.59 496.001 447.684 496.001H64.309C52.402 496.001 42.59 487.173 41.496 475.469L16.09 200.594C15.527 194.204 17.652 187.938 21.995 183.313C26.246 178.673 32.465 176.001 38.996 176.001H472.996C479.527 176.001 485.746 178.673 490.059 183.376C494.34 187.938 496.465 194.204 495.902 200.563L470.496 475.454ZM255.996 209.376C151.867 209.376 71.74 273.126 76.74 347.751C81.615 418.376 161.742 472.876 255.996 472.876S430.377 418.376 435.252 347.751C440.252 273.126 360.125 209.376 255.996 209.376ZM255.996 456.876C170.15 456.876 96.898 407.428 92.705 346.68C91.051 321.999 100.402 298.018 119.748 277.333C150.176 244.798 201.109 225.376 255.996 225.376S361.816 244.798 392.244 277.333C411.59 298.018 420.941 321.999 419.291 346.649C415.094 407.428 341.842 456.876 255.996 456.876ZM231.84 329.641C226.715 334.798 223.934 341.391 223.996 348.235C224.121 363.548 238.496 376.001 255.996 376.001S287.871 363.548 287.996 348.235C288.059 341.438 285.277 334.844 280.152 329.673C267.934 317.376 243.934 317.407 231.84 329.641ZM255.996 360.001C247.215 360.001 240.059 354.657 239.996 348.11C239.965 344.844 241.715 342.391 243.184 340.907C246.277 337.782 250.934 336.001 255.996 336.001C261.027 336.001 265.684 337.798 268.777 340.938C270.277 342.438 272.027 344.891 271.996 348.11C271.934 354.548 264.621 360.001 255.996 360.001Z"/></svg>