<svg xmlns="http://www.w3.org/2000/svg" viewBox="0 0 640 512"><!-- Font Awesome Pro 6.0.0-alpha2 by @fontawesome - https://fontawesome.com License - https://fontawesome.com/license (Commercial License) --><path d="M464 64.688C455.164 64.688 448 71.852 448 80.688S455.164 96.688 464 96.688S480 89.524 480 80.688S472.836 64.688 464 64.688ZM632 32.001H538.627C540.785 27.839 542.748 23.565 543.688 18.923C544.625 14.298 543.438 9.516 540.406 5.829C537.375 2.126 532.906 0.001 528.156 0.001H403.75C334.873 0.001 276.273 57.731 272.027 127.823C183.197 125.893 164.836 42.036 164.094 38.407C163.406 35.048 160.625 32.485 157.219 32.063C153.938 31.782 150.531 33.469 149.031 36.548C147.795 39.143 126.859 84.063 128.102 134.073C113.012 139.491 99.541 148.294 88.984 160.001H73.93V160.032C72.988 160.016 72 160.001 72 160.001C32.312 160.001 0 192.298 0 232.001V312.001C0 316.423 3.594 320.001 8 320.001S16 316.423 16 312.001V232.001C16 201.126 41.125 176.001 72 176.001H77.312C69.066 190.173 64 206.423 64 224.001C64 253.423 77.523 279.43 98.367 297.04L87.25 318.813C67.562 357.235 64 364.173 64 380.907C64 385.813 64.906 393.282 66.094 397.891L90.062 493.844C92.625 504.016 102.875 512.001 113.344 512.001H176C183.438 512.001 190.344 508.641 194.906 502.766C199.469 496.907 201.062 489.407 199.125 481.719L168.594 384.688L196.281 329.313L280 358.251V488.001C280 501.235 290.781 512.001 304 512.001H360C373.219 512.001 384 501.235 384 488.001V327.087C403.508 309.516 416 284.321 416 256.001C416 255.966 415.992 255.934 415.992 255.899C415.992 255.891 416 151.938 416 151.938L421.688 153.969L438.563 187.579C445.359 201.087 459.25 209.094 473.629 209.094C478.43 209.094 483.277 208.204 487.938 206.329L519.469 193.719C533.219 188.235 543.969 172.313 543.969 157.485L543.908 85.372L635.063 47.391C638.594 45.923 640.594 42.173 639.844 38.438C639.094 34.688 635.812 32.001 632 32.001ZM513.527 178.86L481.961 191.485C470.895 195.946 458.094 190.802 452.859 180.399L435.984 146.79C432.656 140.165 417.262 131.477 406.781 138.86C402.531 141.856 400 146.735 400 151.938C400 151.938 399.992 256.235 400 256.407C399.883 278.911 390.41 299.774 373.289 315.196C369.922 318.235 368 322.555 368 327.087V488.001C368 492.411 364.41 496.001 360 496.001H304C299.586 496.001 296 492.411 296 488.001V358.251C296 350.907 291.004 344.509 283.883 342.727L200.164 313.79C193.789 312.196 185.719 314.657 181.969 322.157L154.281 377.532C152.43 381.243 152.086 385.532 153.332 389.489L183.609 485.63C185.172 491.821 180.668 496.001 176 496.001H113.344C110.195 496.001 106.352 492.997 105.586 489.966L81.586 393.899C80.742 390.618 80 384.544 80 380.907C80 368.407 81.816 364.505 101.5 326.087L112.617 304.313C115.996 297.688 114.367 289.61 108.691 284.813C90.457 269.411 80 247.243 80 224.001C80 190.8 100.455 162.542 129.336 150.499C131.195 164.788 135.08 179.155 142.156 192.782C161.719 230.376 200.625 254.298 257.812 263.891C258.25 263.969 258.688 264.001 259.125 264.001C262.969 264.001 266.344 261.235 267 257.329C267.75 252.969 264.812 248.844 260.438 248.11C208.5 239.407 173.5 218.329 156.406 185.454C134.594 143.579 146.438 91.469 155.75 63.469C168.375 93.122 200.34 142.311 272 143.741L288 144.001V128.001H288.123C292.287 66.169 343.912 16.001 403.75 16.001H527.953C526.352 23.622 522.18 30.54 515.879 36.016C508.184 42.704 509.285 53.282 514.727 59.063C521.82 66.594 527.906 71.407 527.906 82.219L527.969 157.485C527.969 165.805 521.227 175.79 513.527 178.86ZM541.426 69.073C539.658 64.139 537.09 59.518 533.438 55.594L526.375 48.094C526.406 48.067 526.422 48.028 526.453 48.001H592L541.426 69.073Z"/></svg>