<svg xmlns="http://www.w3.org/2000/svg" viewBox="0 0 512 512"><!-- Font Awesome Pro 6.0.0-alpha2 by @fontawesome - https://fontawesome.com License - https://fontawesome.com/license (Commercial License) --><path d="M504 80C508.406 80 512 76.422 512 72S508.406 64 504 64H384C381.375 64 378.938 65.281 377.438 67.438L123.812 432H8C3.594 432 0 435.578 0 440S3.594 448 8 448H128C130.625 448 133.062 446.719 134.562 444.562L388.188 80H504ZM504 432H328C323.582 432 320 435.582 320 440S323.582 448 328 448H504C508.418 448 512 444.418 512 440S508.418 432 504 432Z"/></svg>