<svg xmlns="http://www.w3.org/2000/svg" viewBox="0 0 384 512"><!-- Font Awesome Pro 6.0.0-alpha2 by @fontawesome - https://fontawesome.com License - https://fontawesome.com/license (Commercial License) --><path d="M338.467 290.214L191.998 428.923L45.533 290.217C42.377 287.186 37.314 287.28 34.221 290.467C31.158 293.655 31.283 298.733 34.471 301.78L186.467 445.782C188.03 447.266 189.998 448.001 191.998 448.001S195.967 447.266 197.529 445.782L349.53 301.776C352.717 298.729 352.842 293.651 349.78 290.464C346.748 287.276 341.686 287.182 338.467 290.214ZM186.467 253.776C188.03 255.26 189.998 255.995 191.998 255.995S195.967 255.26 197.529 253.776L349.53 109.772C352.717 106.725 352.842 101.647 349.78 98.46C346.748 95.272 341.686 95.178 338.467 98.21L191.998 236.917L45.533 98.212C42.377 95.18 37.314 95.274 34.221 98.462C31.158 101.649 31.283 106.727 34.471 109.774L186.467 253.776Z"/></svg>