<svg xmlns="http://www.w3.org/2000/svg" viewBox="0 0 512 512"><!-- Font Awesome Pro 6.0.0-alpha2 by @fontawesome - https://fontawesome.com License - https://fontawesome.com/license (Commercial License) --><path d="M256 16C123.451 16 16 123.451 16 256S123.451 496 256 496S496 388.549 496 256S388.549 16 256 16ZM320.662 176H464.975C474.535 200.885 480 227.789 480 256C480 303.193 465.248 346.961 440.229 383.109L320.662 176ZM348.381 255.994L302.189 336H209.801L163.619 256.006L209.809 176H302.199L348.381 255.994ZM458.078 160H219.045L291.188 35.043C365.066 46.777 426.887 94.623 458.078 160ZM256 32C262.061 32 268.014 32.436 273.955 32.91L154.387 240.016L82.193 114.963C123.297 64.404 185.912 32 256 32ZM71.771 128.891L191.338 336H47.025C37.465 311.115 32 284.211 32 256C32 208.807 46.752 165.039 71.771 128.891ZM53.922 352H292.951L220.807 476.955C146.932 465.217 85.111 417.375 53.922 352ZM256 480C249.936 480 243.98 479.564 238.037 479.09L357.613 271.984L429.807 397.037C388.703 447.596 326.088 480 256 480Z"/></svg>