<svg xmlns="http://www.w3.org/2000/svg" viewBox="0 0 448 512"><!-- Font Awesome Pro 6.0.0-alpha2 by @fontawesome - https://fontawesome.com License - https://fontawesome.com/license (Commercial License) --><path d="M408 128H328C323.594 128 320 131.594 320 136S323.594 144 328 144H408C421.219 144 432 154.781 432 168V472C432 485.219 421.219 496 408 496H40C26.781 496 16 485.219 16 472V168C16 154.781 26.781 144 40 144H120C124.406 144 128 140.406 128 136S124.406 128 120 128H40C17.938 128 0 145.938 0 168V472C0 494.062 17.938 512 40 512H408C430.062 512 448 494.062 448 472V168C448 145.938 430.062 128 408 128ZM122.344 274.344C119.219 277.469 119.219 282.531 122.344 285.656L218.344 381.656C219.906 383.219 221.938 384 224 384S228.094 383.219 229.656 381.656L325.656 285.656C328.781 282.531 328.781 277.469 325.656 274.344S317.469 271.219 314.344 274.344L232 356.688V8C232 3.594 228.406 0 224 0S216 3.594 216 8V356.688L133.656 274.344C130.531 271.219 125.469 271.219 122.344 274.344Z"/></svg>