<svg xmlns="http://www.w3.org/2000/svg" viewBox="0 0 448 512"><!-- Font Awesome Pro 6.0.0-alpha2 by @fontawesome - https://fontawesome.com License - https://fontawesome.com/license (Commercial License) --><path d="M448 472V392C448 387.578 444.422 384 440 384S432 387.578 432 392V472C432 485.234 421.234 496 408 496H40C26.766 496 16 485.234 16 472V392C16 387.578 12.422 384 8 384S0 387.578 0 392V472C0 494.062 17.938 512 40 512H408C430.062 512 448 494.062 448 472ZM229.656 381.656L413.656 197.656C415.219 196.094 416 194.062 416 192S415.219 187.906 413.656 186.344C410.531 183.219 405.469 183.219 402.344 186.344L232 356.688V8C232 3.594 228.422 0 224 0S216 3.594 216 8V356.688L45.656 186.344C42.531 183.219 37.469 183.219 34.344 186.344C32.781 187.906 32 189.938 32 192S32.781 196.094 34.344 197.656L218.344 381.656C219.906 383.219 221.953 384 224 384S228.094 383.219 229.656 381.656Z"/></svg>