<svg xmlns="http://www.w3.org/2000/svg" viewBox="0 0 320 512"><!-- Font Awesome Pro 6.0.0-alpha2 by @fontawesome - https://fontawesome.com License - https://fontawesome.com/license (Commercial License) --><path d="M296.684 266.191L51.887 53.381C47.867 49.84 42.779 48 37.609 48C34.607 48 31.576 48.621 28.713 49.893C20.979 53.381 16 61.087 16 69.581V400.794C16 409.851 21.654 417.951 30.146 421.072C32.58 421.959 35.098 422.394 37.6 422.394C43.816 422.394 49.877 419.709 54.053 414.787L138.92 311.963L208.766 459.422C210.141 462.312 213.016 464 216 464C217.156 464 218.312 463.75 219.422 463.234C223.422 461.344 225.125 456.562 223.234 452.578L152.855 303.992H282.396C291.383 303.992 299.426 298.437 302.604 290.026C305.783 281.631 303.42 272.139 296.684 266.191ZM287.637 284.37C286.818 286.536 284.713 287.991 282.396 287.991H145.5C140.727 287.991 136.201 290.124 133.16 293.806L41.854 404.432C40.797 405.679 39.246 406.394 37.6 406.394C36.936 406.394 36.273 406.274 35.666 406.054C33.473 405.247 32 403.134 32 400.794V69.581C32 67.384 33.293 65.38 35.205 64.516C35.977 64.175 36.787 64.001 37.609 64.001C38.98 64.001 40.295 64.493 41.391 65.458L286.094 278.186C287.836 279.723 288.457 282.203 287.637 284.37Z"/></svg>