<svg xmlns="http://www.w3.org/2000/svg" viewBox="0 0 448 512"><!-- Font Awesome Pro 6.0.0-alpha2 by @fontawesome - https://fontawesome.com License - https://fontawesome.com/license (Commercial License) --><path d="M208 256C208 264.836 215.164 272 224 272S240 264.836 240 256S232.836 240 224 240S208 247.164 208 256ZM144 256C144 247.164 136.836 240 128 240S112 247.164 112 256S119.164 272 128 272S144 264.836 144 256ZM32 240C23.164 240 16 247.164 16 256S23.164 272 32 272S48 264.836 48 256S40.836 240 32 240ZM416 240C407.164 240 400 247.164 400 256S407.164 272 416 272S432 264.836 432 256S424.836 240 416 240ZM320 240C311.164 240 304 247.164 304 256S311.164 272 320 272S336 264.836 336 256S328.836 240 320 240ZM218.344 189.656C219.906 191.219 221.938 192 224 192S228.094 191.219 229.656 189.656L317.656 101.656C319.219 100.094 320 98.047 320 96C320 91.43 316.263 88 312 88C309.953 88 307.906 88.781 306.344 90.344L232 164.688V8C232 3.594 228.406 0 224 0S216 3.594 216 8V164.688L141.656 90.344C140.094 88.781 138.047 88 136 88C131.737 88 128 91.433 128 96C128 98.047 128.781 100.094 130.344 101.656L218.344 189.656ZM229.656 322.344C228.094 320.781 226.047 320 224 320S219.906 320.781 218.344 322.344L130.344 410.344C128.781 411.906 128 413.953 128 416C128 420.57 131.737 424 136 424C138.047 424 140.094 423.219 141.656 421.656L216 347.312V504C216 508.406 219.594 512 224 512S232 508.406 232 504V347.312L306.344 421.656C307.906 423.219 309.938 424 312 424C317.719 424 320 418.906 320 416C320 413.953 319.219 411.906 317.656 410.344L229.656 322.344Z"/></svg>