<svg xmlns="http://www.w3.org/2000/svg" viewBox="0 0 512 512"><!-- Font Awesome Pro 6.0.0-alpha2 by @fontawesome - https://fontawesome.com License - https://fontawesome.com/license (Commercial License) --><path d="M352 208C347.578 208 344 211.594 344 216S347.578 224 352 224H416C420.422 224 424 220.406 424 216S420.422 208 416 208H392V40C392 37.219 390.562 34.656 388.203 33.188C385.844 31.75 382.891 31.594 380.422 32.844L348.422 48.844C344.469 50.812 342.875 55.625 344.844 59.562C346.828 63.531 351.594 65.094 355.578 63.156L376 52.938V208H352ZM376 264C336.297 264 304 296.312 304 336S336.297 408 376 408C398.734 408 418.795 397.197 432 380.689V408C432 438.875 406.875 464 376 464H352C347.578 464 344 467.594 344 472S347.578 480 352 480H376C415.703 480 448 447.688 448 408V336C448 296.312 415.703 264 376 264ZM376 392C345.125 392 320 366.875 320 336S345.125 280 376 280S432 305.125 432 336S406.875 392 376 392ZM210.098 370.676L136 451.529V40.002C136 35.594 132.406 32 128 32S120 35.594 120 40.002V451.529L45.904 370.676C44.309 368.957 42.152 368.082 39.996 368.082C38.059 368.082 36.121 368.77 34.59 370.176C31.34 373.178 31.121 378.24 34.09 381.492L122.094 477.516C125.156 480.828 130.844 480.828 133.906 477.516L221.91 381.492C224.879 378.24 224.66 373.178 221.41 370.176C218.16 367.176 213.098 367.395 210.098 370.676Z"/></svg>