<svg xmlns="http://www.w3.org/2000/svg" viewBox="0 0 512 512"><!-- Font Awesome Pro 6.0.0-alpha2 by @fontawesome - https://fontawesome.com License - https://fontawesome.com/license (Commercial License) --><path d="M210.098 370.676L136 451.529V40.002C136 35.594 132.406 32 128 32S120 35.594 120 40.002V451.529L45.902 370.676C44.309 368.957 42.152 368.082 39.996 368.082C38.059 368.082 36.121 368.77 34.59 370.176C31.34 373.178 31.121 378.24 34.09 381.492L122.094 477.516C125.156 480.828 130.844 480.828 133.906 477.516L221.91 381.492C224.879 378.24 224.66 373.178 221.41 370.176C218.16 367.176 213.098 367.395 210.098 370.676ZM456 464H328.875L462.187 301.062C464.156 298.687 464.562 295.375 463.219 292.562C461.906 289.781 459.094 288 456 288H312C307.594 288 304 291.594 304 296S307.594 304 312 304H439.125L305.812 466.938C303.844 469.313 303.437 472.625 304.781 475.438C306.094 478.219 308.906 480 312 480H456C460.406 480 464 476.406 464 472S460.406 464 456 464ZM479.156 212.438L391.156 36.438C388.469 31 379.531 31 376.844 36.438L288.844 212.438C286.875 216.375 288.469 221.188 292.437 223.156C296.25 225.062 301.187 223.562 303.156 219.562L328.937 168H439.062L464.844 219.562C466.25 222.375 469.062 224 472 224C473.219 224 474.437 223.719 475.562 223.156C479.531 221.188 481.125 216.375 479.156 212.438ZM336.937 152L384 57.875L431.062 152H336.937Z"/></svg>