<svg xmlns="http://www.w3.org/2000/svg" viewBox="0 0 512 512"><!-- Font Awesome Pro 6.0.0-alpha2 by @fontawesome - https://fontawesome.com License - https://fontawesome.com/license (Commercial License) --><path d="M480 32H288.002C270.328 32 256.002 46.326 256.002 64V224C256.002 241.674 270.328 256 288.002 256H480C497.674 256 512 241.674 512 224V64C512 46.326 497.674 32 480 32ZM496 224C496 232.822 488.822 240 480 240H288.002C279.18 240 272.002 232.822 272.002 224V64C272.002 55.178 279.18 48 288.002 48H480C488.822 48 496 55.178 496 64V224ZM416 320H288.002C270.402 320 256.002 334.4 256.002 352V448C256.002 465.6 270.402 480 288.002 480H416C433.6 480 448 465.6 448 448V352C448 334.4 433.6 320 416 320ZM432 448C432 456.822 424.822 464 416 464H288.002C279.18 464 272.002 456.822 272.002 448V352C272.002 343.178 279.18 336 288.002 336H416C424.822 336 432 343.178 432 352V448ZM178.098 370.676L104 451.529V40.002C104 35.594 100.406 32 96 32S88 35.594 88 40.002V451.529L13.902 370.676C12.309 368.957 10.152 368.082 7.996 368.082C6.059 368.082 4.121 368.77 2.59 370.176C-0.66 373.178 -0.879 378.24 2.09 381.492L90.094 477.516C93.156 480.828 98.844 480.828 101.906 477.516L189.91 381.492C192.879 378.24 192.66 373.178 189.41 370.176C186.16 367.176 181.098 367.395 178.098 370.676Z"/></svg>