<svg xmlns="http://www.w3.org/2000/svg" viewBox="0 0 448 512"><!-- Font Awesome Pro 6.0.0-alpha2 by @fontawesome - https://fontawesome.com License - https://fontawesome.com/license (Commercial License) --><path d="M408 160H360C355.594 160 352 163.594 352 168S355.594 176 360 176H408C421.219 176 432 186.781 432 200V472C432 485.219 421.219 496 408 496H40C26.781 496 16 485.219 16 472V200C16 186.781 26.781 176 40 176H88C92.406 176 96 172.406 96 168S92.406 160 88 160H40C17.938 160 0 177.938 0 200V472C0 494.062 17.938 512 40 512H408C430.062 512 448 494.062 448 472V200C448 177.938 430.062 160 408 160ZM128 112C130.047 112 132.094 111.219 133.656 109.656L216 27.312V376C216 380.406 219.594 384 224 384S232 380.406 232 376V27.312L314.344 109.656C315.906 111.219 317.938 112 320 112C325.719 112 328 106.906 328 104C328 101.953 327.219 99.906 325.656 98.344L229.656 2.344C228.094 0.781 226.047 0 224 0S219.906 0.781 218.344 2.344L122.344 98.344C120.781 99.906 120 101.953 120 104C120 108.57 123.737 112 128 112Z "></path></svg>