<svg xmlns="http://www.w3.org/2000/svg" viewBox="0 0 512 512"><!-- Font Awesome Pro 6.0.0-alpha2 by @fontawesome - https://fontawesome.com License - https://fontawesome.com/license (Commercial License) --><path d="M263.375 16.122C197.219 14.06 135.844 38.184 88.875 83.777C41.875 129.369 16 190.539 16 256.006C16 388.347 123.656 496 256 496C260.406 496 264 492.422 264 488S260.406 480 256 480C132.5 480 32 379.519 32 256.006C32 194.899 56.156 137.822 100 95.245C143.875 52.715 202.344 30.075 262.875 32.122C382.594 35.715 480 140.509 480 265.74V276.006C480 313.505 449.5 344.004 412 344.004S344 313.505 344 276.006V160.009C344 155.587 340.406 152.009 336 152.009S328 155.587 328 160.009V201.189C309.607 171.774 277.174 152.009 240 152.009C182.656 152.009 136 198.664 136 256.006S182.656 360.004 240 360.004C280.633 360.004 315.529 336.356 332.633 302.302C343.744 335.694 374.926 360.004 412 360.004C458.312 360.004 496 322.317 496 276.006V265.74C496 131.947 391.625 19.981 263.375 16.122ZM240 344.004C191.469 344.004 152 304.536 152 256.006S191.469 168.009 240 168.009S328 207.476 328 256.006S288.531 344.004 240 344.004Z"/></svg>