<svg xmlns="http://www.w3.org/2000/svg" viewBox="0 0 512 512"><!-- Font Awesome Pro 6.0.0-alpha2 by @fontawesome - https://fontawesome.com License - https://fontawesome.com/license (Commercial License) --><path d="M8 191.994C12.422 191.994 16 188.416 16 183.994C16 121.212 45.891 61.898 97.984 21.288C111.165 11.028 129.748 16.744 137 27.913L241.297 188.353C242.828 190.713 245.391 191.994 248 191.994C249.5 191.994 251.016 191.572 252.359 190.697C256.063 188.291 257.109 183.338 254.703 179.635L150.422 19.21C144.094 9.444 133.547 2.678 121.484 0.631C109.453 -1.4 97.344 1.522 88.156 8.647C32.125 52.335 0 116.243 0 183.994C0 188.416 3.578 191.994 8 191.994ZM504 111.993H472C449.938 111.993 432 129.931 432 151.993V223.995H16.861C7.695 223.995 -0.074 231.719 0.852 240.839C6.951 301.006 45.512 353.128 101.35 384.537C99.557 384.386 97.832 383.998 96 383.998C60.654 383.998 32 412.652 32 447.999S60.654 512 96 512C131.348 512 160 483.345 160 447.999C160 430.041 152.559 413.865 140.648 402.242C166.416 411.104 194.537 415.998 224 415.998C253.58 415.998 281.754 410.965 307.605 402.035C295.557 413.674 288 429.924 288 447.999C288 483.345 316.654 512 352 512C387.348 512 416 483.345 416 447.999S387.348 383.998 352 383.998C350.182 383.998 348.473 384.384 346.693 384.533C407.666 350.226 448 291.183 448 223.995V151.993C448 138.759 458.766 127.993 472 127.993H504C508.422 127.993 512 124.415 512 119.993C512 115.571 508.422 111.993 504 111.993ZM144 447.999C144 474.466 122.467 496 96 496S48 474.466 48 447.999C48 421.532 69.533 399.998 96 399.998S144 421.532 144 447.999ZM352 399.998C378.467 399.998 400 421.532 400 447.999C400 474.466 378.467 496 352 496S304 474.466 304 447.999C304 421.532 325.533 399.998 352 399.998ZM224 399.998C116.938 399.998 25.91 329.378 16.861 239.995H431.148C421.568 329.577 332.322 399.998 224 399.998Z"/></svg>