<svg xmlns="http://www.w3.org/2000/svg" viewBox="0 0 512 512"><!-- Font Awesome Pro 6.0.0-alpha2 by @fontawesome - https://fontawesome.com License - https://fontawesome.com/license (Commercial License) --><path d="M8 447.992C12.422 447.992 16 444.398 16 439.992V72C16 67.594 12.422 64 8 64S0 67.594 0 72V439.992C0 444.398 3.578 447.992 8 447.992ZM241.609 438.992C252.922 448.586 268.297 450.711 281.797 444.43C295.5 438.086 304.016 424.649 304.016 409.305V102.687C304.016 87.343 295.5 73.906 281.797 67.562C276.656 65.156 271.234 64 265.859 64C257.156 64 248.609 67.062 241.609 73L61.5 226.34C52.938 233.746 48.016 244.559 48.016 255.996S52.938 278.246 61.547 285.683L241.609 438.992ZM71.922 238.496L251.969 85.187C258.562 79.593 267.172 78.375 275.078 82.062C283.188 85.812 288.016 93.531 288.016 102.687V409.305C288.016 418.461 283.188 426.18 275.078 429.93C272.047 431.336 268.906 432.024 265.812 432.024C260.859 432.024 256.031 430.242 251.969 426.805L71.969 273.527C66.906 269.183 64.016 262.777 64.016 255.996C64.016 249.215 66.906 242.809 71.922 238.496ZM483.062 429.93C475.203 433.586 466.578 432.399 459.953 426.805L341.187 325.682C337.844 322.838 332.766 323.245 329.906 326.588C327.047 329.963 327.453 334.994 330.812 337.869L449.594 438.992C460.906 448.586 476.312 450.711 489.781 444.43C503.484 438.086 512 424.649 512 409.305V102.687C512 87.343 503.484 73.906 489.781 67.562C484.641 65.156 479.219 64 473.844 64C465.141 64 456.578 67.062 449.578 73L330.812 174.123C327.453 176.998 327.047 182.029 329.906 185.404C332.766 188.747 337.844 189.154 341.188 186.31L459.938 85.187C466.531 79.593 475.172 78.375 483.062 82.062C491.172 85.812 496 93.531 496 102.687V409.305C496 418.461 491.172 426.18 483.062 429.93Z"/></svg>