<svg xmlns="http://www.w3.org/2000/svg" viewBox="0 0 576 512"><!-- Font Awesome Pro 6.0.0-alpha2 by @fontawesome - https://fontawesome.com License - https://fontawesome.com/license (Commercial License) --><path d="M528 256H240C213.49 256 192 277.49 192 304V464C192 490.51 213.49 512 240 512H528C554.51 512 576 490.51 576 464V304C576 277.49 554.51 256 528 256ZM560 464C560 481.645 545.645 496 528 496H240C222.355 496 208 481.645 208 464V304C208 286.356 222.355 272 240 272H528C545.645 272 560 286.356 560 304V464ZM16 432V208C16 190.327 30.327 176 48 176H400C417.673 176 432 190.327 432 208V216C432 220.418 435.582 224 440 224L440 224C444.418 224 448 220.418 448 216V208C448 181.49 426.51 160 400 160H320V98.808C320 48.847 282.99 5.114 233.248 0.436C176.171 -4.933 128 40.011 128 96V160H48C21.49 160 0 181.49 0 208V432C0 458.51 21.49 480 48 480H152C156.418 480 160 476.418 160 472L160 472C160 467.582 156.418 464 152 464H48C30.327 464 16 449.673 16 432ZM144 96C144 51.891 179.875 16 224 16S304 51.891 304 96V160H144V96ZM456 320C451.594 320 448 323.578 448 328V368C448 403.297 419.281 432 384 432S320 403.297 320 368V328C320 323.578 316.406 320 312 320S304 323.578 304 328V368C304 412.109 339.875 448 384 448S464 412.109 464 368V328C464 323.578 460.406 320 456 320Z"/></svg>