<svg xmlns="http://www.w3.org/2000/svg" viewBox="0 0 512 512"><!-- Font Awesome Pro 6.0.0-alpha2 by @fontawesome - https://fontawesome.com License - https://fontawesome.com/license (Commercial License) --><path d="M436.688 74.98C336.714 -24.994 174.624 -24.994 74.649 74.98S-25.325 337.045 74.649 437.02S336.714 536.994 436.688 437.02S536.663 174.955 436.688 74.98ZM85.964 425.705C-5.702 334.039 -7.331 186.203 80.593 92.238L212.354 224H119.669C106.45 224 95.669 234.781 95.669 248V296C95.669 309.219 106.45 320 119.669 320H308.354L419.431 431.076C325.466 519 177.63 517.371 85.964 425.705ZM228.354 240L292.354 304H119.669C115.263 304 111.669 300.406 111.669 296V248C111.669 243.594 115.263 240 119.669 240H228.354ZM430.745 419.762L330.983 320H343.669C348.075 320 351.669 316.406 351.669 312S348.075 304 343.669 304H314.983L250.983 240H343.669C348.075 240 351.669 236.406 351.669 232S348.075 224 343.669 224H234.983L91.907 80.924C185.872 -7 333.708 -5.371 425.374 86.295S518.669 325.797 430.745 419.762ZM335.669 136H303.669C281.606 136 263.669 118.062 263.669 96C263.669 91.594 260.075 88 255.669 88S247.669 91.594 247.669 96C247.669 126.875 272.794 152 303.669 152H335.669C357.731 152 375.669 169.938 375.669 192C375.669 196.406 379.263 200 383.669 200S391.669 196.406 391.669 192C391.669 161.125 366.544 136 335.669 136ZM407.669 224C403.263 224 399.669 227.594 399.669 232V312C399.669 316.406 403.263 320 407.669 320S415.669 316.406 415.669 312V232C415.669 227.594 412.075 224 407.669 224ZM375.669 224C371.263 224 367.669 227.594 367.669 232V312C367.669 316.406 371.263 320 375.669 320S383.669 316.406 383.669 312V232C383.669 227.594 380.075 224 375.669 224Z"/></svg>