<svg xmlns="http://www.w3.org/2000/svg" viewBox="0 0 640 512"><!-- Font Awesome Pro 6.0.0-alpha2 by @fontawesome - https://fontawesome.com License - https://fontawesome.com/license (Commercial License) --><path d="M632 248H8C3.578 248 0 251.578 0 256S3.578 264 8 264H632C636.422 264 640 260.422 640 256S636.422 248 632 248ZM264 40C264 35.578 260.422 32 256 32S248 35.578 248 40V192H264V40ZM80 40C80 35.578 76.422 32 72 32S64 35.578 64 40V192H80V40ZM128 40C128 35.578 124.422 32 120 32S112 35.578 112 40V192H128V40ZM192 40C192 35.578 188.422 32 184 32S176 35.578 176 40V192H192V40ZM336 40C336 35.578 332.422 32 328 32S320 35.578 320 40V192H336V40ZM384 40C384 35.578 380.422 32 376 32S368 35.578 368 40V192H384V40ZM528 40C528 35.578 524.422 32 520 32S512 35.578 512 40V192H528V40ZM576 40C576 35.578 572.422 32 568 32S560 35.578 560 40V192H576V40ZM464 40C464 35.578 460.422 32 456 32S448 35.578 448 40V192H464V40ZM320 472C320 476.422 323.578 480 328 480S336 476.422 336 472V320H320V472ZM512 472C512 476.422 515.578 480 520 480S528 476.422 528 472V320H512V472ZM64 472C64 476.422 67.578 480 72 480S80 476.422 80 472V320H64V472ZM560 472C560 476.422 563.578 480 568 480S576 476.422 576 472V320H560V472ZM368 472C368 476.422 371.578 480 376 480S384 476.422 384 472V320H368V472ZM448 472C448 476.422 451.578 480 456 480S464 476.422 464 472V320H448V472ZM112 472C112 476.422 115.578 480 120 480S128 476.422 128 472V320H112V472ZM248 472C248 476.422 251.578 480 256 480S264 476.422 264 472V320H248V472ZM176 472C176 476.422 179.578 480 184 480S192 476.422 192 472V320H176V472Z"/></svg>