<svg xmlns="http://www.w3.org/2000/svg" viewBox="0 0 576 512"><!-- Font Awesome Pro 6.0.0-alpha2 by @fontawesome - https://fontawesome.com License - https://fontawesome.com/license (Commercial License) --><path d="M538.625 240.182C534.344 239.307 530.047 241.964 529.078 246.245L483.328 452.124C477.578 477.968 455.094 496 428.656 496H147.344C120.906 496 98.422 477.968 92.672 452.124L46.922 246.245C45.969 241.964 41.75 239.307 37.375 240.182C33.062 241.151 30.344 245.433 31.297 249.745L77.047 455.624C84.438 488.812 113.344 512 147.344 512H428.656C462.656 512 491.562 488.812 498.953 455.624L544.703 249.745C545.656 245.433 542.938 241.151 538.625 240.182ZM568 191.994H415.568L335.359 4.834C333.609 0.772 328.859 -1.041 324.844 0.647C320.781 2.366 318.906 7.084 320.641 11.147L398.145 191.994H177.855L255.359 11.147C257.094 7.084 255.219 2.366 251.156 0.647C247.109 -1.072 242.391 0.74 240.641 4.834L160.432 191.994H8C3.578 191.994 0 195.588 0 199.994S3.578 207.994 8 207.994H153.574L120.641 284.84C118.906 288.902 120.781 293.621 124.844 295.34C125.875 295.777 126.938 295.996 128 295.996C131.094 295.996 134.047 294.183 135.359 291.152L170.998 207.994H405.002L440.641 291.152C441.953 294.183 444.906 295.996 448 295.996C449.062 295.996 450.125 295.777 451.156 295.34C455.219 293.621 457.094 288.902 455.359 284.84L422.426 207.994H568C572.422 207.994 576 204.401 576 199.994S572.422 191.994 568 191.994ZM200 439.999V327.997C200 323.59 196.422 319.996 192 319.996S184 323.59 184 327.997V439.999C184 444.405 187.578 447.999 192 447.999S200 444.405 200 439.999ZM296 439.999V327.997C296 323.59 292.422 319.996 288 319.996S280 323.59 280 327.997V439.999C280 444.405 283.578 447.999 288 447.999S296 444.405 296 439.999ZM392 439.999V327.997C392 323.59 388.422 319.996 384 319.996S376 323.59 376 327.997V439.999C376 444.405 379.578 447.999 384 447.999S392 444.405 392 439.999Z"/></svg>