<svg xmlns="http://www.w3.org/2000/svg" viewBox="0 0 640 512"><!-- Font Awesome Pro 6.0.0-alpha2 by @fontawesome - https://fontawesome.com License - https://fontawesome.com/license (Commercial License) --><path d="M639.343 314.121L559.843 131.771C555.343 121.568 546.656 113.724 535.968 110.286C525.249 106.801 513.468 108.098 504.031 113.63L414.217 159.916L391.75 70.05C391.125 67.456 389.219 65.363 386.687 64.456C384.156 63.581 381.375 63.972 379.25 65.566L338.187 95.989H301.813L260.75 65.566C258.625 63.972 255.813 63.581 253.313 64.456C250.781 65.363 248.875 67.456 248.25 70.05L225.783 159.918L136.251 113.849C126.501 108.114 114.782 106.817 104.094 110.255C93.407 113.692 84.657 121.536 80.126 131.802L0.657 314.121C-0.593 317.011 -0.03 320.371 2.095 322.699C4.22 325.043 7.407 325.887 10.501 324.934L58.876 309.121C82.126 301.464 107.844 310.121 121.407 330.074L157.375 383.154C158.719 385.123 160.844 386.389 163.219 386.623C165.625 386.998 167.938 386.045 169.594 384.373L181.188 372.982C192.375 362.013 207.75 356.216 223.563 357.497C239.281 358.606 253.719 366.357 263.156 378.732L313.656 444.859C315.156 446.844 317.5 448 320 448S324.844 446.844 326.344 444.859L376.812 378.732C386.281 366.357 400.719 358.606 416.437 357.497C432.468 356.263 447.656 362.028 458.812 372.982L470.375 384.373C472.062 386.045 474.406 386.998 476.781 386.623C479.156 386.389 481.281 385.123 482.625 383.154L518.562 330.09C532.124 310.136 557.937 301.511 581.124 309.121L629.499 324.934C632.593 325.902 635.78 325.059 637.905 322.699C640.03 320.371 640.593 317.011 639.343 314.121ZM586.124 293.901C555.999 284.104 522.874 295.276 505.312 321.105L474.75 366.216L470.031 361.575C455.593 347.387 435.562 340.247 415.312 341.528C395 342.981 376.344 352.997 364.125 369.013L320 426.812L275.875 369.013C263.656 352.997 245 342.981 224.688 341.528C204.407 340.262 184.407 347.387 170 361.575L165.25 366.232L134.657 321.105C117.094 295.229 83.938 284.104 53.876 293.901L22.47 304.183L94.782 138.24C97.469 132.177 102.626 127.521 108.969 125.49C115.438 123.396 122.344 124.255 128.532 127.849L220.344 175.101C220.856 175.37 221.416 175.091 221.953 175.237L216.25 198.054C215.157 202.336 217.782 206.68 222.063 207.758C226.469 208.789 230.688 206.211 231.75 201.93L260.844 85.551L294.406 110.411C295.781 111.442 297.438 111.989 299.156 111.989H340.844C342.562 111.989 344.219 111.442 345.594 110.411L379.156 85.551L408.25 201.93C409.156 205.57 412.406 207.992 416 207.992C416.625 207.992 417.281 207.914 417.937 207.758C422.218 206.68 424.843 202.336 423.75 198.054L418.045 175.237C418.584 175.091 419.142 175.37 419.656 175.101L511.718 127.646C517.593 124.193 524.562 123.396 531.062 125.505C537.468 127.583 542.499 132.099 545.187 138.209L617.53 304.183L586.124 293.901Z"/></svg>