<svg xmlns="http://www.w3.org/2000/svg" viewBox="0 0 576 512"><!-- Font Awesome Pro 6.0.0-alpha2 by @fontawesome - https://fontawesome.com License - https://fontawesome.com/license (Commercial License) --><path d="M432 160H96C78.326 160 64 174.326 64 192V320C64 337.674 78.326 352 96 352H432C449.674 352 464 337.674 464 320V192C464 174.326 449.674 160 432 160ZM448 320C448 328.822 440.822 336 432 336H96C87.178 336 80 328.822 80 320V192C80 183.178 87.178 176 96 176H432C440.822 176 448 183.178 448 192V320ZM544 192H528V160C528 124.654 499.346 96 464 96H64C28.654 96 0 124.654 0 160V352C0 387.346 28.654 416 64 416H464C499.346 416 528 387.346 528 352V320H544C561.672 320 576 305.674 576 288V224C576 206.326 561.672 192 544 192ZM512 352C512 378.467 490.467 400 464 400H64C37.533 400 16 378.467 16 352V160C16 133.533 37.533 112 64 112H464C490.467 112 512 133.533 512 160V352ZM560 288C560 296.822 552.82 304 544 304H528V208H544C552.82 208 560 215.178 560 224V288Z"/></svg>