<svg xmlns="http://www.w3.org/2000/svg" viewBox="0 0 576 512"><!-- Font Awesome Pro 6.0.0-alpha2 by @fontawesome - https://fontawesome.com License - https://fontawesome.com/license (Commercial License) --><path d="M544 192H528V160C528 124.654 499.344 96 464 96H64C28.656 96 0 124.654 0 160V352C0 387.346 28.656 416 64 416H464C499.344 416 528 387.346 528 352V320H544C561.672 320 576 305.674 576 288V224C576 206.326 561.672 192 544 192ZM512 352C512 378.467 490.469 400 464 400H64C37.531 400 16 378.467 16 352V160C16 133.533 37.531 112 64 112H464C490.469 112 512 133.533 512 160V352ZM560 288C560 296.822 552.82 304 544 304H528V208H544C552.82 208 560 215.178 560 224V288ZM256 160H96C78.328 160 64 174.326 64 192V320C64 337.674 78.328 352 96 352H256C273.672 352 288 337.674 288 320V192C288 174.326 273.672 160 256 160ZM272 320C272 328.822 264.82 336 256 336H96C87.18 336 80 328.822 80 320V192C80 183.178 87.18 176 96 176H256C264.82 176 272 183.178 272 192V320Z"/></svg>