<svg xmlns="http://www.w3.org/2000/svg" viewBox="0 0 512 512"><!-- Font Awesome Pro 6.0.0-alpha2 by @fontawesome - https://fontawesome.com License - https://fontawesome.com/license (Commercial License) --><path d="M480 236.188V88C480 57.125 454.875 32 424 32H88C57.125 32 32 57.125 32 88V236.188C12.725 249.121 0 271.094 0 296V472C0 476.422 3.578 480 8 480S16 476.422 16 472V416H496V472C496 476.422 499.578 480 504 480S512 476.422 512 472V296C512 271.094 499.275 249.121 480 236.188ZM72 224C63.543 224 55.543 225.732 48 228.422V168C48 154.766 58.766 144 72 144H224C237.234 144 248 154.766 248 168V224H72ZM464 228.422C456.457 225.732 448.457 224 440 224H264V168C264 154.766 274.766 144 288 144H440C453.234 144 464 154.766 464 168V228.422ZM88 48H424C446.062 48 464 65.938 464 88V136.844C457.244 131.631 449.178 128 440 128H288C274.572 128 263.258 135.074 256 145.25C248.742 135.074 237.428 128 224 128H72C62.822 128 54.756 131.631 48 136.844V88C48 65.938 65.938 48 88 48ZM16 400V296C16 265.125 41.125 240 72 240H440C470.875 240 496 265.125 496 296V400H16Z"/></svg>