<svg xmlns="http://www.w3.org/2000/svg" viewBox="0 0 640 512"><!-- Font Awesome Pro 6.0.0-alpha2 by @fontawesome - https://fontawesome.com License - https://fontawesome.com/license (Commercial License) --><path d="M528 128H288C279.156 128 272 135.156 272 144V320H16V40C16 35.594 12.422 32 8 32S0 35.594 0 40V472C0 476.406 3.578 480 8 480S16 476.406 16 472V416H624V472C624 476.406 627.578 480 632 480S640 476.406 640 472V240C640 178.125 589.875 128 528 128ZM624 400H16V336H624V400ZM624 320H288V144H528C580.934 144 624 187.064 624 240V320ZM144 288C188.125 288 224 252.125 224 208S188.125 128 144 128S64 163.875 64 208S99.875 288 144 288ZM144 144C179.289 144 208 172.711 208 208S179.289 272 144 272S80 243.289 80 208S108.711 144 144 144Z"/></svg>