<svg xmlns="http://www.w3.org/2000/svg" viewBox="0 0 512 512"><!-- Font Awesome Pro 6.0.0-alpha2 by @fontawesome - https://fontawesome.com License - https://fontawesome.com/license (Commercial License) --><path d="M288 208C288 163.816 252.184 128 208 128S128 163.816 128 208C128 252.182 163.816 288 208 288S288 252.182 288 208ZM144 208C144 172.711 172.711 144 208 144S272 172.711 272 208S243.289 272 208 272S144 243.289 144 208ZM464 352C437.49 352 416 373.49 416 400C416 423.77 433.32 443.369 456 447.193V472C456 485.234 445.234 496 432 496H343.156C348.369 489.244 352 481.178 352 472V357.875C391.383 320.027 416 266.934 416 208C416 93.125 322.875 0 208 0S0 93.125 0 208C0 266.934 24.617 320.027 64 357.875V472C64 494.062 81.938 512 104 512H432C454.062 512 472 494.062 472 472V447.193C494.68 443.369 512 423.77 512 400C512 373.49 490.51 352 464 352ZM16 208C16 102.131 102.131 16 208 16S400 102.131 400 208S313.869 400 208 400S16 313.869 16 208ZM336 472C336 485.234 325.234 496 312 496H104C90.766 496 80 485.234 80 472V371.723C115.314 399.371 159.674 416 208 416S300.686 399.371 336 371.723V472ZM464 432C446.355 432 432 417.645 432 400S446.355 368 464 368S496 382.355 496 400S481.645 432 464 432Z"/></svg>