<svg xmlns="http://www.w3.org/2000/svg" viewBox="0 0 512 512"><!-- Font Awesome Pro 6.0.0-alpha2 by @fontawesome - https://fontawesome.com License - https://fontawesome.com/license (Commercial License) --><path d="M416.002 384H160.001C124.655 384 96.001 412.654 96.001 448V480C96.001 497.674 110.329 512 128.001 512H448.002C465.676 512 480.003 497.674 480.003 480V448C480.003 412.654 451.35 384 416.002 384ZM464.003 480C464.003 488.822 456.825 496 448.002 496H128.001C119.178 496 112.001 488.822 112.001 480V448C112.001 421.533 133.534 400 160.001 400H416.002C442.469 400 464.003 421.533 464.003 448V480ZM152.032 352.734C152.454 357.141 156.345 360.328 160.735 359.969C165.142 359.562 168.376 355.656 167.97 351.266L136.782 16H493.706L477.333 80H328.002C323.58 80 320.002 83.578 320.002 88S323.58 96 328.002 96H473.239L452.772 176H328.002C323.58 176 320.002 179.578 320.002 184S323.58 192 328.002 192H448.678L428.211 272H328.002C323.58 272 320.002 275.578 320.002 280S323.58 288 328.002 288H424.118L408.252 350.016C407.158 354.297 409.737 358.656 414.018 359.75C414.69 359.922 415.346 360 416.002 360C419.58 360 422.83 357.594 423.752 353.984L511.753 9.984C512.362 7.594 511.831 5.047 510.315 3.094S506.471 0 504.003 0H40C17.938 0 0 17.938 0 40V216C0 238.062 17.938 256 40 256H143.034L152.032 352.734ZM40 240C26.766 240 16 229.234 16 216V40C16 26.766 26.766 16 40 16H120.708L141.546 240H40ZM288.002 416C270.33 416 256.001 430.326 256.001 448S270.33 480 288.002 480C305.675 480 320.002 465.674 320.002 448S305.675 416 288.002 416ZM288.002 464C279.179 464 272.001 456.822 272.001 448S279.179 432 288.002 432S304.002 439.178 304.002 448S296.824 464 288.002 464Z"/></svg>