<svg xmlns="http://www.w3.org/2000/svg" viewBox="0 0 512 512"><!-- Font Awesome Pro 6.0.0-alpha2 by @fontawesome - https://fontawesome.com License - https://fontawesome.com/license (Commercial License) --><path d="M479.999 0H32.001C14.327 0 0.001 14.326 0.001 32V64C0.001 81.674 14.327 96 32.001 96H136.001V256.807C113.321 260.631 96.001 280.23 96.001 304C96.001 330.51 117.491 352 144.001 352S192 330.51 192 304C192 280.23 174.68 260.631 152.001 256.807V96H479.999C497.673 96 511.999 81.674 511.999 64V32C511.999 14.326 497.672 0 479.999 0ZM176 304C176 321.645 161.645 336 144.001 336S112.001 321.645 112.001 304S126.356 272 144.001 272S176 286.355 176 304ZM495.999 64C495.999 72.822 488.821 80 479.999 80H32.001C23.179 80 16.001 72.822 16.001 64V32C16.001 23.178 23.179 16 32.001 16H479.999C488.821 16 495.999 23.178 495.999 32V64ZM184 216C184 220.422 187.579 224 192 224H503.999C506.499 224 508.842 222.844 510.358 220.859S512.374 216.297 511.717 213.891L487.717 125.891C486.561 121.641 482.249 119.125 477.889 120.281C473.624 121.438 471.124 125.844 472.28 130.109L493.53 208H192C187.579 208 184 211.578 184 216ZM34.111 120.281C29.861 119.172 25.439 121.672 24.283 125.891L0.283 213.891C-0.374 216.297 0.126 218.875 1.642 220.859S5.501 224 8.001 224H96.001C100.423 224 104.001 220.422 104.001 216S100.423 208 96.001 208H18.47L39.72 130.109C40.876 125.844 38.376 121.438 34.111 120.281ZM487.358 252.844C485.608 248.781 480.843 246.906 476.843 248.641C472.78 250.391 470.905 255.094 472.639 259.156L491.874 304H224C219.578 304 216 307.578 216 312S219.578 320 224 320H503.999C506.686 320 509.202 318.656 510.67 316.406C512.155 314.156 512.405 311.328 511.358 308.844L487.358 252.844ZM1.33 316.406C2.798 318.656 5.314 320 8.001 320H64.001C68.423 320 72.001 316.422 72.001 312S68.423 304 64.001 304H20.126L39.361 259.156C41.095 255.094 39.22 250.391 35.157 248.641C31.095 246.875 26.408 248.781 24.642 252.844L0.642 308.844C-0.405 311.328 -0.155 314.156 1.33 316.406ZM487.358 348.844C485.608 344.766 480.843 342.922 476.843 344.641C472.78 346.391 470.905 351.094 472.639 355.156L491.874 400H20.126L39.361 355.156C41.095 351.094 39.22 346.391 35.157 344.641C31.095 342.906 26.408 344.766 24.642 348.844L0.642 404.844C-0.405 407.328 -0.155 410.156 1.33 412.406C2.798 414.656 5.314 416 8.001 416H503.999C506.686 416 509.202 414.656 510.67 412.406C512.155 410.156 512.405 407.328 511.358 404.844L487.358 348.844ZM487.358 444.844C485.608 440.766 480.843 438.953 476.843 440.641C472.78 442.391 470.905 447.094 472.639 451.156L491.874 496H20.126L39.361 451.156C41.095 447.094 39.22 442.391 35.157 440.641C31.095 438.922 26.408 440.766 24.642 444.844L0.642 500.844C-0.405 503.328 -0.155 506.156 1.33 508.406C2.798 510.656 5.314 512 8.001 512H503.999C506.686 512 509.202 510.656 510.67 508.406C512.155 506.156 512.405 503.328 511.358 500.844L487.358 444.844Z"/></svg>