<svg xmlns="http://www.w3.org/2000/svg" viewBox="0 0 512 512"><!-- Font Awesome Pro 6.0.0-alpha2 by @fontawesome - https://fontawesome.com License - https://fontawesome.com/license (Commercial License) --><path d="M200 32C195.578 32 192 35.578 192 40S195.578 48 200 48C345.562 48 464 166.438 464 312C464 316.422 467.578 320 472 320S480 316.422 480 312C480 157.609 354.391 32 200 32ZM200 128C195.578 128 192 131.578 192 136S195.578 144 200 144C292.641 144 368 219.359 368 312C368 316.422 371.578 320 376 320S384 316.422 384 312C384 210.547 301.453 128 200 128ZM160 224C155.578 224 152 227.578 152 232S155.578 240 160 240C221.75 240 272 290.25 272 352S221.75 464 160 464S48 413.75 48 352V104C48 99.578 44.422 96 40 96S32 99.578 32 104V352C32 422.578 89.422 480 160 480S288 422.578 288 352S230.578 224 160 224Z"/></svg>