<svg xmlns="http://www.w3.org/2000/svg" viewBox="0 0 384 512"><!-- Font Awesome Pro 6.0.0-alpha2 by @fontawesome - https://fontawesome.com License - https://fontawesome.com/license (Commercial License) --><path d="M274.773 243.258C310.941 224.664 336 187.381 336 144C336 82.25 285.75 32 224 32H8C3.594 32 0 35.578 0 40S3.594 48 8 48H48V464H8C3.594 464 0 467.578 0 472S3.594 480 8 480H248C314.156 480 368 426.172 368 360C368 303.064 328.045 255.49 274.773 243.258ZM224 48C276.938 48 320 91.062 320 144S276.938 240 224 240H64V48H224ZM248 464H64V256H248C305.344 256 352 302.656 352 360S305.344 464 248 464Z"/></svg>