<svg xmlns="http://www.w3.org/2000/svg" viewBox="0 0 384 512"><!-- Font Awesome Pro 6.0.0-alpha2 by @fontawesome - https://fontawesome.com License - https://fontawesome.com/license (Commercial License) --><path d="M381.22 172.812C377.063 164.938 368.907 160 360.001 160H203.438L254.282 32.906C257.251 25.531 256.345 17.125 251.876 10.531S239.97 0 232.001 0H56.001C43.97 0 33.813 8.906 32.22 20.844L0.22 260.844C-0.718 267.688 1.376 274.594 5.938 279.812C10.501 285 17.095 288 24.001 288H170.313L128.532 482.969C126.126 494.187 132.001 505.531 142.532 510.062C145.595 511.375 148.813 512 152.001 512C159.72 512 167.22 508.25 171.813 501.562L379.813 197.562C384.845 190.219 385.376 180.688 381.22 172.812ZM366.608 188.527L158.626 492.502C157.122 494.693 154.645 496 152.001 496C150.897 496 149.833 495.783 148.856 495.365C145.345 493.854 143.376 490.053 144.177 486.32L185.957 291.353C188.092 281.392 180.499 272 170.312 272H24.001C21.696 272 19.493 270.996 17.983 269.281C16.462 267.539 15.765 265.256 16.079 262.959L48.079 22.961C48.61 18.976 52.009 16 56.03 16H232.001C234.665 16 237.141 17.311 238.632 19.508C240.122 21.709 240.425 24.484 239.427 26.963L188.584 154.057C184.379 164.567 192.119 176 203.439 176H360.001C362.968 176 365.677 177.641 367.069 180.281C368.462 182.92 368.288 186.076 366.608 188.527Z"/></svg>