<svg xmlns="http://www.w3.org/2000/svg" viewBox="0 0 512 512"><!-- Font Awesome Pro 6.0.0-alpha2 by @fontawesome - https://fontawesome.com License - https://fontawesome.com/license (Commercial License) --><path d="M384.823 138.492L405.659 117.656C408.784 114.531 408.784 109.469 405.659 106.344C402.534 103.219 397.472 103.219 394.347 106.344L373.511 127.18L332.651 86.32C328.436 82.105 322.913 79.998 317.389 79.998C311.866 79.998 306.342 82.105 302.127 86.32L279.549 108.9C257.209 100.703 233.181 96 208.002 96C93.126 96 0 189.125 0 304S93.126 512 208.002 512S416.003 418.875 416.003 304C416.003 278.818 411.3 254.791 403.105 232.451L425.683 209.873C434.113 201.445 434.113 187.781 425.683 179.352L384.823 138.492ZM414.37 198.559L391.632 221.295C387.304 225.621 386.007 232.215 387.96 238.014C401.194 277.32 400.003 296.713 400.003 304C400.003 423.387 290.467 517.674 166.618 491.646C94.153 476.42 35.567 417.824 20.348 345.359C-5.66 221.518 88.618 112 208.002 112C215.56 112 234.806 110.848 273.983 124.043C279.783 125.996 286.381 124.697 290.705 120.371L313.44 97.635C315.78 95.297 319.342 95.633 321.338 97.633L414.37 190.664C416.366 192.66 416.702 196.221 414.37 198.559ZM208.002 152C124.188 152 56 220.188 56 304C56 308.406 59.594 312 64 312S72.001 308.406 72.001 304C72.001 229 133.001 168 208.002 168C212.408 168 216.002 164.406 216.002 160S212.408 152 208.002 152ZM504 56H456V8C456 3.594 452.406 0 448 0C443.593 0 439.999 3.594 439.999 8V56H391.999C387.593 56 383.999 59.594 383.999 64S387.593 72 391.999 72H439.999V120C439.999 124.406 443.593 128 448 128C452.406 128 456 124.406 456 120V72H504C508.406 72 512 68.406 512 64S508.406 56 504 56Z"/></svg>