<svg xmlns="http://www.w3.org/2000/svg" viewBox="0 0 512 512"><!-- Font Awesome Pro 6.0.0-alpha2 by @fontawesome - https://fontawesome.com License - https://fontawesome.com/license (Commercial License) --><path d="M439.25 285.75L320 256V112C337.674 112 352 97.674 352 80V32C352 14.326 337.674 0 320 0H32C14.326 0 0 14.326 0 32V466.746C0 475.232 3.371 483.371 9.373 489.373L32 512H96L128 480L160 512H224L256 480L288 512H352L384 480L416 512H480L502.627 489.373C508.629 483.371 512 475.232 512 466.746V378.879C512 334.818 482.002 296.416 439.25 285.75ZM16 32C16 23.178 23.178 16 32 16H320C328.822 16 336 23.178 336 32V80C336 88.822 328.822 96 320 96H16V32ZM304 112V144H224C219.578 144 216 147.578 216 152S219.578 160 224 160H304V200H224C219.578 200 216 203.578 216 208S219.578 216 224 216H304V256H224C219.578 256 216 259.578 216 264S219.578 272 224 272H318.037L435.377 301.273C471.07 310.18 496 342.092 496 378.879V416H16V112H304ZM491.312 478.059L473.373 496H422.627L395.314 468.686C392.189 465.562 388.094 464 384 464S375.811 465.562 372.686 468.686L345.373 496H294.627L267.314 468.686C264.189 465.562 260.094 464 256 464S247.811 465.562 244.686 468.686L217.373 496H166.627L139.314 468.686C136.189 465.562 132.094 464 128 464S119.811 465.562 116.686 468.686L89.373 496H38.627L20.686 478.059C17.664 475.037 16 471.02 16 466.746V432H496V466.746C496 471.02 494.336 475.037 491.312 478.059Z"/></svg>