<svg xmlns="http://www.w3.org/2000/svg" viewBox="0 0 448 512"><!-- Font Awesome Pro 6.0.0-alpha2 by @fontawesome - https://fontawesome.com License - https://fontawesome.com/license (Commercial License) --><path d="M224 176C232.822 176 240 168.82 240 160S232.822 144 224 144S208 151.18 208 160S215.178 176 224 176ZM32 432C23.178 432 16 439.18 16 448S23.178 464 32 464S48 456.82 48 448S40.822 432 32 432ZM32 80C40.822 80 48 72.82 48 64S40.822 48 32 48S16 55.18 16 64S23.178 80 32 80ZM32 176C40.822 176 48 168.82 48 160S40.822 144 32 144S16 151.18 16 160S23.178 176 32 176ZM224 80C232.822 80 240 72.82 240 64S232.822 48 224 48S208 55.18 208 64S215.178 80 224 80ZM416 80C424.822 80 432 72.82 432 64S424.822 48 416 48S400 55.18 400 64S407.178 80 416 80ZM416 176C424.822 176 432 168.82 432 160S424.822 144 416 144S400 151.18 400 160S407.178 176 416 176ZM320 80C328.822 80 336 72.82 336 64S328.822 48 320 48S304 55.18 304 64S311.178 80 320 80ZM128 80C136.822 80 144 72.82 144 64S136.822 48 128 48S112 55.18 112 64S119.178 80 128 80ZM320 432C311.178 432 304 439.18 304 448S311.178 464 320 464S336 456.82 336 448S328.822 432 320 432ZM416 432C407.178 432 400 439.18 400 448S407.178 464 416 464S432 456.82 432 448S424.822 432 416 432ZM32 336C23.178 336 16 343.18 16 352S23.178 368 32 368S48 360.82 48 352S40.822 336 32 336ZM416 336C407.178 336 400 343.18 400 352S407.178 368 416 368S432 360.82 432 352S424.822 336 416 336ZM128 432C119.178 432 112 439.18 112 448S119.178 464 128 464S144 456.82 144 448S136.822 432 128 432ZM224 336C215.178 336 208 343.18 208 352S215.178 368 224 368S240 360.82 240 352S232.822 336 224 336ZM224 432C215.178 432 208 439.18 208 448S215.178 464 224 464S240 456.82 240 448S232.822 432 224 432ZM440 248H8C3.594 248 0 251.578 0 256S3.594 264 8 264H440C444.406 264 448 260.422 448 256S444.406 248 440 248Z"/></svg>