<svg xmlns="http://www.w3.org/2000/svg" viewBox="0 0 448 512"><!-- Font Awesome Pro 6.0.0-alpha2 by @fontawesome - https://fontawesome.com License - https://fontawesome.com/license (Commercial License) --><path d="M128 240C119.178 240 112 247.18 112 256S119.178 272 128 272S144 264.82 144 256S136.822 240 128 240ZM224 336C215.178 336 208 343.18 208 352S215.178 368 224 368S240 360.82 240 352S232.822 336 224 336ZM224 432C215.178 432 208 439.18 208 448S215.178 464 224 464S240 456.82 240 448S232.822 432 224 432ZM128 432C119.178 432 112 439.18 112 448S119.178 464 128 464S144 456.82 144 448S136.822 432 128 432ZM32 240C23.178 240 16 247.18 16 256S23.178 272 32 272S48 264.82 48 256S40.822 240 32 240ZM32 336C23.178 336 16 343.18 16 352S23.178 368 32 368S48 360.82 48 352S40.822 336 32 336ZM32 144C23.178 144 16 151.18 16 160S23.178 176 32 176S48 168.82 48 160S40.822 144 32 144ZM32 432C23.178 432 16 439.18 16 448S23.178 464 32 464S48 456.82 48 448S40.822 432 32 432ZM320 240C311.178 240 304 247.18 304 256S311.178 272 320 272S336 264.82 336 256S328.822 240 320 240ZM416 240C407.178 240 400 247.18 400 256S407.178 272 416 272S432 264.82 432 256S424.822 240 416 240ZM416 144C407.178 144 400 151.18 400 160S407.178 176 416 176S432 168.82 432 160S424.822 144 416 144ZM416 336C407.178 336 400 343.18 400 352S407.178 368 416 368S432 360.82 432 352S424.822 336 416 336ZM440 32H8C3.594 32 0 35.578 0 40S3.594 48 8 48H440C444.406 48 448 44.422 448 40S444.406 32 440 32ZM416 432C407.178 432 400 439.18 400 448S407.178 464 416 464S432 456.82 432 448S424.822 432 416 432ZM224 144C215.178 144 208 151.18 208 160S215.178 176 224 176S240 168.82 240 160S232.822 144 224 144ZM224 240C215.178 240 208 247.18 208 256S215.178 272 224 272S240 264.82 240 256S232.822 240 224 240ZM320 432C311.178 432 304 439.18 304 448S311.178 464 320 464S336 456.82 336 448S328.822 432 320 432Z"/></svg>