<svg xmlns="http://www.w3.org/2000/svg" viewBox="0 0 640 512"><!-- Font Awesome Pro 6.0.0-alpha2 by @fontawesome - https://fontawesome.com License - https://fontawesome.com/license (Commercial License) --><path d="M67.786 32C61.653 32 55.958 35.451 53.165 41.035L1.735 143.826C-2.845 152.979 2.024 164.039 11.87 166.85L209.815 223.369C211.305 223.795 212.815 224 214.307 224C219.944 224 225.321 221.076 228.331 216.062L320 63.379L69.819 32.127C69.137 32.041 68.459 32 67.786 32ZM214.208 207.984L16.043 150.984L67.475 48.191C67.551 48.041 67.706 48 67.786 48L67.836 48.002L293.594 76.205L214.208 207.984ZM638.266 143.826L586.836 41.035C584.043 35.451 578.348 32 572.215 32C571.542 32 570.864 32.041 570.182 32.127L320 63.379L411.67 216.062C414.68 221.076 420.057 224 425.694 224C427.186 224 428.696 223.795 430.186 223.369L628.131 166.85C637.977 164.039 642.846 152.979 638.266 143.826ZM425.387 207.828L346.366 76.209L572.166 48.002L572.215 48L572.528 48.193L623.739 151.465L425.387 207.828ZM568 224C563.594 224 560 227.578 560 232V386.75C560 397.328 552.844 406.5 542.594 409.062L328 462.711V168C328 163.578 324.407 160 320 160S312 163.578 312 168V462.711L97.407 409.062C87.157 406.5 80 397.328 80 386.75V232C80 227.578 76.407 224 72 224S64 227.578 64 232V386.75C64 404.672 76.157 420.234 93.532 424.594L310.532 478.844C313.625 479.609 316.813 480 320 480S326.375 479.609 329.469 478.844L546.469 424.594C563.844 420.234 576 404.672 576 386.75V232C576 227.578 572.407 224 568 224Z"/></svg>