<svg xmlns="http://www.w3.org/2000/svg" viewBox="0 0 448 512"><!-- Font Awesome Pro 6.0.0-alpha2 by @fontawesome - https://fontawesome.com License - https://fontawesome.com/license (Commercial License) --><path d="M441.244 146.486L392.844 49.689C387.424 38.848 376.344 32 364.223 32H83.777C71.656 32 60.576 38.848 55.156 49.689L6.756 146.486C2.312 155.373 0 165.172 0 175.107V448C0 465.672 14.326 480 32 480H416C433.674 480 448 465.672 448 448V175.107C448 165.172 445.688 155.373 441.244 146.486ZM364.223 48C370.322 48 375.805 51.389 378.533 56.844L426.934 153.641C427.943 155.66 428.52 157.857 429.234 160H232V48H364.223ZM69.467 56.844C72.195 51.389 77.678 48 83.777 48H216V160H18.768C19.48 157.857 20.057 155.662 21.066 153.643L69.467 56.844ZM416 464H32C23.178 464 16 456.822 16 448V176H432V448C432 456.822 424.822 464 416 464Z"/></svg>