<svg xmlns="http://www.w3.org/2000/svg" viewBox="0 0 512 512"><!-- Font Awesome Pro 6.0.0-alpha2 by @fontawesome - https://fontawesome.com License - https://fontawesome.com/license (Commercial License) --><path d="M352 320C337.191 320 325.252 330.318 321.619 344H264V360H321.619C325.252 373.682 337.191 384 352 384C369.645 384 384 369.645 384 352S369.645 320 352 320ZM352 368C343.164 368 336 360.836 336 352C336 343.162 343.164 336 352 336S368 343.162 368 352C368 360.836 360.836 368 352 368ZM512 304C512 274.688 495.742 248.201 471.125 234.297C476.871 223.836 479.984 212.049 479.984 200C479.984 180.566 466.732 141.117 429.113 130.746C430.986 124.719 431.961 118.41 431.961 112C431.961 78.73 406.432 51.309 373.93 48.277C371.195 37.311 365.604 27.275 357.518 19.074C345.564 6.951 328.941 0 311.908 0C287.914 0 266.963 13.258 256 32.834C245.037 13.258 224.086 0 200.094 0C183.061 0 166.436 6.953 154.482 19.076C146.396 27.275 140.807 37.311 138.072 48.277C105.568 51.309 80.041 78.73 80.041 112C80.041 118.395 81.008 124.688 82.873 130.701C63.473 135.963 51.617 148.611 44.686 159.631C34.686 175.531 32.018 192.488 32.018 200C32.018 212.049 35.129 223.836 40.877 234.297C16.26 248.201 0 274.688 0 304C0 337.133 19.973 365.768 49.514 377.785C48.523 382.475 48.025 387.221 48.025 392C48.025 431.701 80.336 464 120.053 464C123.676 464 127.281 463.715 130.855 463.148C133.869 473.611 139.395 483.217 147.156 491.248C159.902 504.436 177.74 512 196.092 512C221.957 512 244.498 497.492 256 476.191C267.502 497.492 290.043 512 315.91 512C334.262 512 352.1 504.436 364.848 491.246C372.609 483.215 378.133 473.611 381.145 463.148C384.721 463.715 388.324 464 391.947 464C431.664 464 463.977 431.701 463.977 392C463.977 387.221 463.479 382.475 462.488 377.785C492.027 365.768 512 337.133 512 304ZM248.117 136H206.381C202.748 122.318 190.809 112 176 112C158.355 112 144 126.355 144 144S158.355 176 176 176C190.809 176 202.748 165.682 206.381 152H248.117V248H192C169.938 248 152 265.938 152 288V321.619C138.318 325.252 128 337.191 128 352C128 369.645 142.355 384 160 384S192 369.645 192 352C192 337.191 181.682 325.252 168 321.619V288C168 274.766 178.766 264 192 264H248.117V444C248.117 472.719 224.824 496 196.092 496C167.398 496 143.207 472.549 144.234 442.311C136.889 445.848 128.754 448 120.053 448C89.109 448 64.025 422.928 64.025 392C64.025 382.969 66.365 374.561 70.164 367.006C39.521 362.232 16 335.967 16 304C16 273.24 37.729 247.594 66.666 241.443C55.297 231.193 48.018 216.508 48.018 200C48.018 189.463 57.086 144.201 102.508 144.203C104.564 144.203 106.699 144.297 108.908 144.49C100.988 135.932 96.041 124.578 96.041 112C96.041 85.49 117.541 64 144.064 64C146.834 64 149.51 64.365 152.15 64.814C151.76 37.051 173.992 16 200.094 16C226.617 16 248.117 37.49 248.117 64V136ZM192 144C192 152.836 184.836 160 176 160S160 152.836 160 144C160 135.162 167.164 128 176 128S192 135.162 192 144ZM176 352C176 360.836 168.836 368 160 368S144 360.836 144 352C144 343.162 151.164 336 160 336S176 343.162 176 352ZM441.836 367.006C445.635 374.561 447.977 382.969 447.977 392C447.977 422.928 422.891 448 391.947 448C383.246 448 375.111 445.848 367.766 442.311C368.795 472.555 344.594 496 315.91 496C287.176 496 263.883 472.719 263.883 444V264H304C326.062 264 344 246.062 344 224V174.381C357.682 170.748 368 158.809 368 144C368 126.355 353.645 112 336 112S304 126.355 304 144C304 158.809 314.318 170.748 328 174.381V224C328 237.234 317.234 248 304 248H263.883V64C263.883 37.49 285.385 16 311.908 16C338.023 16 360.24 37.064 359.85 64.814C362.492 64.365 365.166 64 367.936 64C394.459 64 415.961 85.49 415.961 112C415.961 124.578 411.012 135.932 403.092 144.49C405.305 144.297 407.438 144.203 409.498 144.203C455.176 144.203 463.984 189.971 463.984 200C463.984 216.508 456.703 231.193 445.334 241.443C474.273 247.594 496 273.24 496 304C496 335.967 472.479 362.232 441.836 367.006ZM320 144C320 135.162 327.164 128 336 128S352 135.162 352 144C352 152.836 344.836 160 336 160S320 152.836 320 144Z"/></svg>