<svg xmlns="http://www.w3.org/2000/svg" viewBox="0 0 512 512"><!-- Font Awesome Pro 6.0.0-alpha2 by @fontawesome - https://fontawesome.com License - https://fontawesome.com/license (Commercial License) --><path d="M256 32C96 32 0 112.035 0 176.965C0 203 21.557 224 56.889 224H64V448C64 465.674 78.328 480 96 480H416C433.674 480 448 465.674 448 448V224H455.111C490.445 224 512 203 512 176.965C512 112.035 416 32 256 32ZM455.111 208H432V448C432 456.822 424.822 464 416 464H96C87.178 464 80 456.822 80 448V208H56.889C32.432 208 16 195.527 16 176.965C16 124.254 101.467 48 256 48C410.535 48 496 124.254 496 176.965C496 195.527 479.568 208 455.111 208Z"/></svg>