<svg xmlns="http://www.w3.org/2000/svg" viewBox="0 0 640 512"><!-- Font Awesome Pro 6.0.0-alpha2 by @fontawesome - https://fontawesome.com License - https://fontawesome.com/license (Commercial License) --><path d="M120 240H64C37.49 240 16 218.51 16 192V64C16 37.49 37.49 16 64 16H192C216.156 16 236.203 33.938 239.52 57.191C240.076 61.104 243.42 64 247.371 64C252.217 64 256.041 59.703 255.359 54.906C250.943 23.867 224.258 0 192 0H64C28.654 0 0 28.654 0 64V192C0 227.346 28.654 256 64 256H120C124.418 256 128 252.418 128 248S124.418 240 120 240ZM480 352V160C480 124.654 451.346 96 416 96H224C188.654 96 160 124.654 160 160V352C160 387.346 188.654 416 224 416H416C451.346 416 480 387.346 480 352ZM176 352V160C176 133.533 197.533 112 224 112H416C442.467 112 464 133.533 464 160V352C464 378.467 442.467 400 416 400H224C197.533 400 176 378.467 176 352ZM576 256H520C515.582 256 512 259.582 512 264S515.582 272 520 272H576C602.51 272 624 293.49 624 320V448C624 474.51 602.51 496 576 496H448C423.844 496 403.797 478.062 400.48 454.809C399.924 450.896 396.58 448 392.629 448C387.783 448 383.959 452.297 384.641 457.094C389.057 488.133 415.742 512 448 512H576C611.346 512 640 483.346 640 448V320C640 284.654 611.346 256 576 256ZM552 432H472C467.594 432 464 435.578 464 440S467.594 448 472 448H552C565.219 448 576 437.234 576 424V344C576 330.766 565.219 320 552 320H520C515.594 320 512 323.578 512 328S515.594 336 520 336H552C556.406 336 560 339.594 560 344V424C560 428.406 556.406 432 552 432ZM120 176H88C83.594 176 80 172.406 80 168V88C80 83.594 83.594 80 88 80H168C172.406 80 176 76.422 176 72S172.406 64 168 64H88C74.781 64 64 74.766 64 88V168C64 181.234 74.781 192 88 192H120C124.406 192 128 188.422 128 184S124.406 176 120 176Z"/></svg>