<svg xmlns="http://www.w3.org/2000/svg" viewBox="0 0 512 512"><!-- Font Awesome Pro 6.0.0-alpha2 by @fontawesome - https://fontawesome.com License - https://fontawesome.com/license (Commercial License) --><path d="M448 160H392C387.582 160 384 163.582 384 168S387.582 176 392 176H448C474.51 176 496 197.49 496 224V448C496 474.51 474.51 496 448 496H224C197.49 496 176 474.51 176 448V392C176 387.582 172.418 384 168 384S160 387.582 160 392V448C160 483.346 188.654 512 224 512H448C483.346 512 512 483.346 512 448V224C512 188.652 483.346 160 448 160ZM232 384C227.594 384 224 387.578 224 392V424C224 437.234 234.781 448 248 448H424C437.219 448 448 437.234 448 424V248C448 234.766 437.219 224 424 224H392C387.594 224 384 227.578 384 232S387.594 240 392 240H424C428.406 240 432 243.594 432 248V424C432 428.406 428.406 432 424 432H248C243.594 432 240 428.406 240 424V392C240 387.578 236.406 384 232 384ZM352 288V64C352 28.654 323.346 0 288 0H64C28.654 0 0 28.654 0 64V288C0 323.346 28.654 352 64 352H288C323.346 352 352 323.346 352 288ZM16 288V64C16 37.533 37.533 16 64 16H288C314.467 16 336 37.533 336 64V288C336 314.467 314.467 336 288 336H64C37.533 336 16 314.467 16 288Z"/></svg>