<svg xmlns="http://www.w3.org/2000/svg" viewBox="0 0 384 512"><!-- Font Awesome Pro 6.0.0-alpha2 by @fontawesome - https://fontawesome.com License - https://fontawesome.com/license (Commercial License) --><path d="M108 168H148C159.031 168 168 159.031 168 148V108C168 96.969 159.031 88 148 88H108C96.969 88 88 96.969 88 108V148C88 159.031 96.969 168 108 168ZM104 108C104 105.781 105.781 104 108 104H148C150.219 104 152 105.781 152 108V148C152 150.219 150.219 152 148 152H108C105.781 152 104 150.219 104 148V108ZM168 276V236C168 224.969 159.031 216 148 216H108C96.969 216 88 224.969 88 236V276C88 287.031 96.969 296 108 296H148C159.031 296 168 287.031 168 276ZM104 276V236C104 233.781 105.781 232 108 232H148C150.219 232 152 233.781 152 236V276C152 278.219 150.219 280 148 280H108C105.781 280 104 278.219 104 276ZM192 384C161.125 384 136 409.125 136 440V504C136 508.406 139.578 512 144 512S152 508.406 152 504V440C152 417.938 169.938 400 192 400S232 417.938 232 440V504C232 508.406 235.578 512 240 512S248 508.406 248 504V440C248 409.125 222.875 384 192 384ZM276 216H236C224.969 216 216 224.969 216 236V276C216 287.031 224.969 296 236 296H276C287.031 296 296 287.031 296 276V236C296 224.969 287.031 216 276 216ZM280 276C280 278.219 278.219 280 276 280H236C233.781 280 232 278.219 232 276V236C232 233.781 233.781 232 236 232H276C278.219 232 280 233.781 280 236V276ZM344 0H40C17.938 0 0 17.938 0 40V504C0 508.406 3.594 512 8 512S16 508.406 16 504V40C16 26.781 26.781 16 40 16H344C357.219 16 368 26.781 368 40V504C368 508.406 371.594 512 376 512S384 508.406 384 504V40C384 17.938 366.062 0 344 0ZM276 88H236C224.969 88 216 96.969 216 108V148C216 159.031 224.969 168 236 168H276C287.031 168 296 159.031 296 148V108C296 96.969 287.031 88 276 88ZM280 148C280 150.219 278.219 152 276 152H236C233.781 152 232 150.219 232 148V108C232 105.781 233.781 104 236 104H276C278.219 104 280 105.781 280 108V148Z"/></svg>