<svg xmlns="http://www.w3.org/2000/svg" viewBox="0 0 512 512"><!-- Font Awesome Pro 6.0.0-alpha2 by @fontawesome - https://fontawesome.com License - https://fontawesome.com/license (Commercial License) --><path d="M384 192C392.875 192 400 184.875 400 176S392.875 160 384 160S368 167.125 368 176S375.125 192 384 192ZM256 160C264.875 160 272 152.875 272 144S264.875 128 256 128S240 135.125 240 144S247.125 160 256 160ZM128 192C136.875 192 144 184.875 144 176S136.875 160 128 160S112 167.125 112 176S119.125 192 128 192ZM496 304C496 280.904 481.934 261.039 461.926 252.49C465.693 249.051 469.186 245.15 471.969 240.312C482.656 221.766 482.625 197.797 471.875 179.266C431.312 109.359 346.594 64.125 256.062 64C165.562 64.125 80.812 109.359 40.094 179.266C29.344 197.766 29.344 221.719 40.031 240.281C42.824 245.129 46.322 249.037 50.094 252.48C30.076 261.027 16 280.896 16 304C16 324.35 27.027 342.027 43.309 351.832C36.561 357.824 32 366.523 32 376.641C32 415.984 61.438 448 97.594 448H414.406C450.562 448 480 415.984 480 376.641C480 366.523 475.439 357.824 468.691 351.832C484.973 342.027 496 324.35 496 304ZM53.906 187.312C91.25 123.234 172.469 80.109 256.062 80C339.687 80.109 420.844 123.234 458.062 187.297C465.969 200.969 465.999 218.641 458.125 232.328C452.375 242.281 443.438 248 433.594 248H78.406C68.594 248 59.656 242.281 53.906 232.281C45.999 218.594 45.999 200.938 53.906 187.312ZM386.406 264L320 302.734L253.594 264H386.406ZM414.406 432H97.594C70.25 432 48 407.172 48 376.641C48 367.469 54.469 360 62.406 360H449.594C457.531 360 464 367.469 464 376.641C464 407.172 441.75 432 414.406 432ZM440 344H72C49.938 344 32 326.062 32 304S49.938 264 72 264H221.844L315.969 318.906C317.219 319.641 318.594 320 320 320S322.781 319.641 324.031 318.906L418.156 264H440C462.062 264 480 281.938 480 304S462.062 344 440 344Z"/></svg>