<svg xmlns="http://www.w3.org/2000/svg" viewBox="0 0 512 512"><!-- Font Awesome Pro 6.0.0-alpha2 by @fontawesome - https://fontawesome.com License - https://fontawesome.com/license (Commercial License) --><path d="M505.206 153.924C509.707 144.298 511.957 133.673 511.957 123.048C511.957 90.546 490.706 61.92 459.705 52.295C453.454 31.919 438.704 15.294 419.203 6.543C409.558 2.215 399.236 0.059 388.927 0.059C378.391 0.059 367.869 2.309 358.076 6.793C347.566 2.182 336.6 0 325.817 0C294.796 -0.002 265.244 18.055 252.072 48.295L33.939 266.553C-11.313 311.805 -11.313 385.308 33.939 430.559L81.441 478.061C104.066 500.687 133.755 512 163.444 512C193.132 512 222.821 500.687 245.447 478.061L463.705 259.928C504.456 242.177 523.082 194.675 505.206 153.924ZM45.256 277.864L258.896 64.1C286.796 96.361 304.011 138.109 304.011 184.007C304.011 285.468 221.467 368.014 120.004 368.014C81.808 368.014 46.668 355.803 17.243 335.78C19.958 314.602 29.025 294.097 45.256 277.864ZM234.134 466.748C215.27 485.61 190.165 495.999 163.444 495.999C136.724 495.999 111.619 485.61 92.755 466.748L45.254 419.246C27.235 401.228 17.932 377.962 16.571 354.326C46.822 372.794 81.964 384.015 120.004 384.015C215.799 384.015 295.763 316.627 315.336 226.698C324.713 225.184 334.214 224.009 344.013 224.009C381.715 224.009 416.689 235.57 445.899 255.102L234.134 466.748ZM491.544 209.715C485.411 225.376 473.619 237.691 458.377 244.669C425.909 221.866 386.702 208.008 344.013 208.008C335.204 208.008 326.625 208.899 318.127 210.035C319.24 201.496 320.012 192.851 320.012 184.007C320.012 132.868 300.56 86.451 268.977 51.1C279.983 29.821 301.609 15.999 325.817 16.001C334.721 16.001 343.411 17.833 351.65 21.446C353.699 22.345 355.888 22.794 358.076 22.794C360.351 22.794 362.625 22.309 364.74 21.341C372.391 17.837 380.528 16.059 388.927 16.059C397.154 16.059 405.136 17.768 412.654 21.141C427.952 28.007 439.526 41.072 444.407 56.989C445.958 62.045 449.909 66.008 454.96 67.577C479.481 75.19 495.956 97.482 495.956 123.048C495.956 131.476 494.143 139.81 490.712 147.148C488.76 151.32 488.704 156.133 490.553 160.352C497.478 176.136 497.829 193.666 491.544 209.715ZM316.059 61.237C312.215 63.424 310.871 68.299 313.059 72.143C315.215 75.987 320.121 77.315 323.965 75.143C333.372 69.753 345.279 71.409 352.951 79.066C361.576 87.706 362.42 101.441 354.873 111.035C352.154 114.504 352.748 119.536 356.232 122.27C357.685 123.411 359.435 123.973 361.17 123.973C363.529 123.973 365.889 122.927 367.467 120.911C379.999 104.957 378.624 82.113 364.264 67.753C351.498 55.033 331.669 52.361 316.059 61.237ZM404.062 101.238C400.218 103.426 398.874 108.301 401.062 112.145C403.218 115.989 408.093 117.317 411.969 115.145C421.359 109.754 433.297 111.442 440.954 119.067C449.579 127.708 450.423 141.443 442.876 151.037C440.157 154.506 440.751 159.537 444.235 162.272C445.689 163.412 447.439 163.975 449.173 163.975C451.533 163.975 453.892 162.928 455.47 160.912C468.002 144.959 466.627 122.114 452.267 107.754C439.501 95.035 419.672 92.363 404.062 101.238Z"/></svg>