<svg xmlns="http://www.w3.org/2000/svg" viewBox="0 0 512 512"><!-- Font Awesome Pro 6.0.0-alpha2 by @fontawesome - https://fontawesome.com License - https://fontawesome.com/license (Commercial License) --><path d="M464 64H400V8C400 3.578 396.406 0 392 0S384 3.578 384 8V64H224V8C224 3.578 220.406 0 216 0S208 3.578 208 8V64H144C117.5 64 96 85.5 96 112V368C96 394.5 117.5 416 144 416H464C490.5 416 512 394.5 512 368V112C512 85.5 490.5 64 464 64ZM496 368C496 385.645 481.645 400 464 400H144C126.355 400 112 385.645 112 368V208H496V368ZM496 192H112V112C112 94.355 126.355 80 144 80H208V128C208 132.422 211.594 136 216 136S224 132.422 224 128V80H384V128C384 132.422 387.594 136 392 136S400 132.422 400 128V80H464C481.645 80 496 94.355 496 112V192ZM408 448C403.578 448 400 451.594 400 456C400 478.062 382.063 496 360 496H72C41.125 496 16 470.875 16 440V216C16 193.938 33.938 176 56 176C60.422 176 64 172.406 64 168S60.422 160 56 160C25.125 160 0 185.125 0 216V440C0 479.688 32.297 512 72 512H360C390.875 512 416 486.875 416 456C416 451.594 412.422 448 408 448Z"/></svg>