<svg xmlns="http://www.w3.org/2000/svg" viewBox="0 0 448 512"><!-- Font Awesome Pro 6.0.0-alpha2 by @fontawesome - https://fontawesome.com License - https://fontawesome.com/license (Commercial License) --><path d="M400 64H336V8C336 3.578 332.406 0 328 0S320 3.578 320 8V64H128V8C128 3.578 124.406 0 120 0S112 3.578 112 8V64H48C21.5 64 0 85.5 0 112V464C0 490.5 21.5 512 48 512H400C426.5 512 448 490.5 448 464V112C448 85.5 426.5 64 400 64ZM432 464C432 481.645 417.645 496 400 496H48C30.355 496 16 481.645 16 464V208H432V464ZM432 192H16V112C16 94.355 30.355 80 48 80H112V128C112 132.422 115.594 136 120 136S128 132.422 128 128V80H320V128C320 132.422 323.594 136 328 136S336 132.422 336 128V80H400C417.645 80 432 94.355 432 112V192ZM169.418 379.4L160.449 433.957C159.172 441.754 165.109 448 171.77 448C173.535 448 175.355 447.561 177.102 446.594L224 420.832L270.898 446.594C272.641 447.551 274.453 447.986 276.215 447.986C282.883 447.986 288.828 441.76 287.551 433.957L278.582 379.4L316.52 340.779C323.336 333.842 319.57 321.732 310.16 320.309L257.734 312.324L234.293 262.676C232.191 258.238 228.082 256 223.977 256C219.895 256 215.813 258.211 213.707 262.676L190.266 312.324L137.84 320.309C128.43 321.732 124.664 333.842 131.48 340.779L169.418 379.4ZM192.676 328.141L201.098 326.857L204.734 319.154L224 278.352L243.266 319.154L246.902 326.857L255.324 328.141L299.844 334.922L267.168 368.188L261.477 373.98L262.793 381.994L270.363 428.045L231.703 406.809L224 402.578L216.297 406.809L177.637 428.045L185.207 381.994L186.523 373.98L180.832 368.188L148.156 334.922L192.676 328.141Z"/></svg>