<svg xmlns="http://www.w3.org/2000/svg" viewBox="0 0 448 512"><!-- Font Awesome Pro 6.0.0-alpha2 by @fontawesome - https://fontawesome.com License - https://fontawesome.com/license (Commercial License) --><path d="M400 64H336V8C336 3.578 332.406 0 328 0S320 3.578 320 8V64H128V8C128 3.578 124.406 0 120 0S112 3.578 112 8V64H48C21.5 64 0 85.5 0 112V464C0 490.5 21.5 512 48 512H400C426.5 512 448 490.5 448 464V112C448 85.5 426.5 64 400 64ZM16 208H144V288H16V208ZM288 288H160V208H288V288ZM288 304V400H160V304H288ZM16 304H144V400H16V304ZM48 496C30.355 496 16 481.645 16 464V416H144V496H48ZM160 496V416H288V496H160ZM432 464C432 481.645 417.645 496 400 496H304V416H432V464ZM432 400H304V304H432V400ZM432 288H304V208H432V288ZM432 192H16V112C16 94.355 30.355 80 48 80H112V128C112 132.422 115.594 136 120 136S128 132.422 128 128V80H320V128C320 132.422 323.594 136 328 136S336 132.422 336 128V80H400C417.645 80 432 94.355 432 112V192Z"/></svg>