<svg xmlns="http://www.w3.org/2000/svg" viewBox="0 0 512 512"><!-- Font Awesome Pro 6.0.0-alpha2 by @fontawesome - https://fontawesome.com License - https://fontawesome.com/license (Commercial License) --><path d="M384 320V192C384 174.326 369.674 160 352 160H316L309.812 143.562C306.312 134.188 297.375 128 287.375 128H224.625C214.625 128 205.625 134.188 202.125 143.562L196 160H160C142.326 160 128 174.326 128 192V320C128 337.672 142.326 352 160 352H352C369.674 352 384 337.672 384 320ZM144 320V192C144 183.178 151.178 176 160 176H196H207.113L210.994 165.586L217.115 149.158C218.268 146.072 221.285 144 224.625 144H287.375C290.73 144 293.654 146.023 294.838 149.199L301.025 165.637L304.928 176H316H352C360.822 176 368 183.178 368 192V320C368 328.822 360.822 336 352 336H160C151.178 336 144 328.822 144 320ZM256 208C229.5 208 208 229.5 208 256S229.5 304 256 304S304 282.5 304 256S282.5 208 256 208ZM256 288C238.355 288 224 273.645 224 256S238.355 224 256 224S288 238.355 288 256S273.645 288 256 288ZM8 192C12.422 192 16 188.406 16 184V72C16 58.781 26.766 48 40 48H152C156.422 48 160 44.406 160 40S156.422 32 152 32H40C17.938 32 0 49.938 0 72V184C0 188.406 3.578 192 8 192ZM472 32H360C355.578 32 352 35.594 352 40S355.578 48 360 48H472C485.234 48 496 58.781 496 72V184C496 188.406 499.578 192 504 192S512 188.406 512 184V72C512 49.938 494.062 32 472 32ZM504 320C499.578 320 496 323.594 496 328V440C496 453.219 485.234 464 472 464H360C355.578 464 352 467.594 352 472S355.578 480 360 480H472C494.062 480 512 462.062 512 440V328C512 323.594 508.422 320 504 320ZM152 464H40C26.766 464 16 453.219 16 440V328C16 323.594 12.422 320 8 320S0 323.594 0 328V440C0 462.062 17.938 480 40 480H152C156.422 480 160 476.406 160 472S156.422 464 152 464Z"/></svg>