<svg xmlns="http://www.w3.org/2000/svg" viewBox="0 0 512 512"><!-- Font Awesome Pro 6.0.0-alpha2 by @fontawesome - https://fontawesome.com License - https://fontawesome.com/license (Commercial License) --><path d="M464 96H376L363.625 63.125C356.625 44.375 338.75 32 318.75 32H193.25C173.25 32 155.25 44.375 148.25 63.125L136 96H48C21.5 96 0 117.5 0 144V432C0 458.5 21.5 480 48 480H464C490.5 480 512 458.5 512 432V144C512 117.5 490.5 96 464 96ZM496 432C496 449.645 481.645 464 464 464H48C30.355 464 16 449.645 16 432V144C16 126.355 30.355 112 48 112H147.113L163.238 68.721C167.867 56.326 179.926 48 193.25 48H318.75C332 48 344.008 56.326 348.652 68.762L364.926 112H464C481.645 112 496 126.355 496 144V432ZM256 176C194.242 176 144 226.242 144 288C144 349.756 194.242 400 256 400S368 349.756 368 288C368 226.242 317.758 176 256 176ZM256 384C203 384 160 341 160 288S203 192 256 192S352 235 352 288S309 384 256 384Z"/></svg>