<svg xmlns="http://www.w3.org/2000/svg" viewBox="0 0 512 512"><!-- Font Awesome Pro 6.0.0-alpha2 by @fontawesome - https://fontawesome.com License - https://fontawesome.com/license (Commercial License) --><path d="M499.562 349.024C499.281 348.883 474.187 335.46 435.906 326.168C493.125 254.113 510.688 175.894 511.438 172.421C513.094 164.772 510.719 156.527 505.062 150.645C499.344 145.233 491.906 142.87 483.594 144.466C482.844 144.622 409 160.141 337.406 213.33C333.75 105.435 281.969 20.02 275.781 10.196C267.094 -3.352 245 -3.492 236.125 10.337C230.031 20.02 178.25 105.435 174.594 213.33C104.844 161.596 31.75 145.217 28.469 144.497C20.406 142.839 12.719 145.17 6.812 150.786C1.188 156.418 -1.156 164.506 0.562 172.437C1.312 175.894 18.875 254.113 76.094 326.168C37.812 335.46 12.75 348.883 12.562 348.977C4.812 353.013 0 360.975 0 369.751C0 378.528 4.812 386.49 12.375 390.432C12.969 390.777 74.281 423.488 149.594 422.142C142.031 438.412 138.688 449.284 138.688 449.284C135.938 457.669 138.125 466.774 144.312 472.969C148.75 477.537 154.781 479.993 160.969 479.993C163.25 479.993 165.594 479.649 167.844 478.976C168.062 478.913 191.562 471.67 222.375 453.962C226.219 451.756 227.531 446.875 225.344 443.027S218.25 437.864 214.438 440.07C185.999 456.387 163.656 463.504 163.344 463.598C160.625 464.412 157.625 463.723 155.688 461.737C153.688 459.719 153.031 456.918 153.938 454.071C153.999 453.915 158.688 438.881 169.625 417.574C170.906 415.071 170.781 412.052 169.281 409.659C167.781 407.281 165.031 406.076 162.313 405.904C157.063 406.029 151.438 406.139 145.563 406.139C76 406.139 20.656 376.713 19.938 376.322C17.469 375.023 16 372.567 16 369.751C16 367.014 17.562 364.433 20.062 363.134C20.344 362.978 49.719 347.49 92.156 339.012C94.938 338.464 97.219 336.462 98.156 333.771C99.094 331.08 98.531 328.108 96.656 325.949C35.344 254.316 16.938 172.468 16.188 169.042C15.656 166.508 16.375 163.849 17.999 162.253C19.562 160.767 21.5 159.938 25.094 160.157C28.375 160.876 106.938 178.491 177.344 235.732C179.688 237.671 183.031 238.109 185.812 236.748C188.594 235.419 190.375 232.618 190.375 229.521V225.297C190.375 116.307 243.594 28.515 249.656 18.862C252.469 14.545 259.531 14.545 262.344 18.862C268.406 28.515 321.625 116.307 321.625 225.297V229.521C321.625 232.618 323.406 235.419 326.188 236.748C329 238.109 332.312 237.671 334.656 235.732C405.781 177.897 485.875 160.344 488.5 159.985C490.562 159.985 492.469 160.767 493.781 162.018C495.563 163.864 496.344 166.555 495.813 169.027C495.063 172.468 476.656 254.316 415.344 325.949C413.469 328.108 412.906 331.08 413.844 333.771C414.781 336.462 417.063 338.464 419.844 339.012C462.281 347.49 491.656 362.978 492.063 363.181C494.438 364.433 496 367.014 496 369.751C496 372.567 494.531 375.023 491.875 376.416C491.344 376.713 436 406.139 366.438 406.139C360.562 406.139 354.938 406.029 349.688 405.904C347.125 406.076 344.219 407.265 342.719 409.659S341.094 415.056 342.375 417.559C353.188 438.709 357.999 453.93 358.125 454.259C358.969 456.887 358.281 459.781 356.25 461.799C354.406 463.723 351.531 464.521 348.562 463.567C348.344 463.504 325.999 456.387 297.562 440.07C293.75 437.896 288.844 439.194 286.656 443.027C284.469 446.875 285.781 451.756 289.625 453.962C320.437 471.67 343.937 478.913 344.031 478.929C352.531 481.526 361.625 479.258 367.562 473.125C373.781 467.04 376.062 457.685 373.375 449.503C373.344 449.378 369.999 438.584 362.406 422.142C363.719 422.158 365.094 422.158 366.438 422.158C440.156 422.158 499.031 390.761 499.438 390.526C507.188 386.49 512 378.528 512 369.751C512 360.975 507.188 353.013 499.562 349.024ZM256 191.616C251.594 191.616 248 195.199 248 199.626V503.99C248 508.418 251.594 512 256 512S264 508.418 264 503.99V199.626C264 195.199 260.406 191.616 256 191.616Z"/></svg>