<svg xmlns="http://www.w3.org/2000/svg" viewBox="0 0 640 512"><!-- Font Awesome Pro 6.0.0-alpha2 by @fontawesome - https://fontawesome.com License - https://fontawesome.com/license (Commercial License) --><path d="M213.842 181.152C209.096 179.186 204.176 178.254 199.34 178.254C184.451 178.254 170.324 187.072 164.273 201.684C156.256 221.041 165.447 243.236 184.805 251.254C189.551 253.219 194.471 254.15 199.307 254.15C214.197 254.15 228.322 245.332 234.375 230.721C242.393 211.363 233.199 189.17 213.842 181.152ZM219.594 224.598C216.182 232.832 208.219 238.152 199.307 238.152C196.438 238.152 193.619 237.586 190.928 236.473C179.752 231.842 174.426 218.982 179.055 207.807C182.465 199.574 190.428 194.254 199.34 194.254C202.209 194.254 205.029 194.818 207.719 195.934C218.896 200.562 224.223 213.422 219.594 224.598ZM500.764 341.062C508.781 321.705 499.588 299.512 480.23 291.494C475.484 289.527 470.564 288.596 465.729 288.596C450.84 288.596 436.713 297.414 430.66 312.025C422.643 331.383 431.836 353.578 451.193 361.596C455.939 363.561 460.859 364.492 465.695 364.492C480.584 364.492 494.711 355.674 500.764 341.062ZM485.98 334.939C482.57 343.174 474.607 348.494 465.695 348.494C462.826 348.494 460.008 347.928 457.316 346.814C446.141 342.184 440.814 329.324 445.443 318.148C448.854 309.916 456.816 304.596 465.727 304.596C468.598 304.596 471.416 305.16 474.107 306.275C485.283 310.904 490.611 323.764 485.98 334.939ZM632 496H469.881L492.545 441.295C493.176 441.32 493.811 441.48 494.439 441.48C512.305 441.48 529.258 430.896 536.52 413.365L571.363 329.242C583.096 300.92 571.625 269.014 545.924 253.914L553.844 142.422C555.953 112.875 538.969 85.422 511.609 74.078L345.391 5.234C318.031 -6.078 286.609 1.312 267.203 23.703L193.994 108.119C188.947 106.805 183.865 105.914 178.814 105.914C154.996 105.916 132.393 120.027 122.709 143.402L87.865 227.525C80.348 245.672 85.555 265.777 99.213 278.346L71.969 344.141C70.281 348.219 72.219 352.906 76.297 354.594C77.297 355.016 78.344 355.203 79.359 355.203C82.5 355.203 85.469 353.344 86.75 350.266L112.879 287.166L476.654 437.846L452.561 496H8C3.578 496 0 499.578 0 504S3.578 512 8 512H632C636.422 512 640 508.422 640 504S636.422 496 632 496ZM279.297 34.172C294.172 17.016 318.312 11.312 339.266 20.016L505.484 88.859C526.484 97.563 539.5 118.625 537.875 141.297L530.396 246.568L210.141 113.914L279.297 34.172ZM118.627 272.229C103.586 265.996 96.416 248.691 102.646 233.648L137.492 149.525C144.439 132.754 160.66 121.916 178.82 121.914C184.676 121.914 190.422 123.064 195.898 125.334L532.389 264.713C555.162 274.145 566.014 300.346 556.582 323.119L521.736 407.242C517.146 418.322 506.432 425.48 494.439 425.48C490.574 425.48 486.777 424.721 483.158 423.221L118.627 272.229Z"/></svg>