<svg xmlns="http://www.w3.org/2000/svg" viewBox="0 0 512 512"><!-- Font Awesome Pro 6.0.0-alpha2 by @fontawesome - https://fontawesome.com License - https://fontawesome.com/license (Commercial License) --><path d="M184 248H72C67.594 248 64 251.578 64 256S67.594 264 72 264H184C188.406 264 192 260.422 192 256S188.406 248 184 248ZM440 248H392V200C392 195.578 388.406 192 384 192S376 195.578 376 200V248H328C323.594 248 320 251.578 320 256S323.594 264 328 264H376V312C376 316.422 379.594 320 384 320S392 316.422 392 312V264H440C444.406 264 448 260.422 448 256S444.406 248 440 248ZM448 128H448V88C448 74.8 437.2 64 424 64H344C330.8 64 320 74.8 320 88V128H192V88C192 74.8 181.2 64 168 64H88C74.8 64 64 74.8 64 88V128H64C28.654 128 0 156.654 0 192V384C0 419.346 28.654 448 64 448H448C483.346 448 512 419.346 512 384V192C512 156.654 483.346 128 448 128ZM336 88C336 83.594 339.594 80 344 80H424C428.406 80 432 83.594 432 88V128H336V88ZM80 88C80 83.594 83.594 80 88 80H168C172.406 80 176 83.594 176 88V128H80V88ZM496 384C496 410.51 474.51 432 448 432H64C37.49 432 16 410.51 16 384V192C16 165.49 37.49 144 64 144H448C474.51 144 496 165.49 496 192V384Z"/></svg>