<svg xmlns="http://www.w3.org/2000/svg" viewBox="0 0 256 512"><!-- Font Awesome Pro 6.0.0-alpha2 by @fontawesome - https://fontawesome.com License - https://fontawesome.com/license (Commercial License) --><path d="M168.004 96C161.992 96 156.066 98.26 151.52 102.551L7.52 238.551C2.721 243.084 0 249.396 0 256S2.721 268.914 7.52 273.447L151.52 409.447C156.066 413.74 161.992 416 168.004 416C181.164 416 192 405.332 192 392V120C192 106.684 181.18 96 168.004 96ZM176 392C176 396.41 172.412 400 168.004 400C165.951 400 163.996 399.223 162.506 397.816L18.508 261.816C16.914 260.312 16 258.191 16 256S16.914 251.688 18.506 250.184L162.502 114.188C163.996 112.777 165.951 112 168.004 112C172.412 112 176 115.588 176 120V392Z"/></svg>