<svg xmlns="http://www.w3.org/2000/svg" viewBox="0 0 384 512"><!-- Font Awesome Pro 6.0.0-alpha2 by @fontawesome - https://fontawesome.com License - https://fontawesome.com/license (Commercial License) --><path d="M350.219 393.656C353 397.094 352.469 402.125 349.031 404.906C314.604 432.654 273.389 446.566 232 447.764V504C232 508.422 228.406 512 224 512S216 508.422 216 504V447.244C169.701 444.785 124.207 426.629 88.938 391.797C52.219 355.531 32 307.297 32 256S52.219 156.469 88.938 120.203C124.219 85.35 169.682 66.516 216 64.07V8C216 3.578 219.594 0 224 0S232 3.578 232 8V64.605C273.379 65.803 314.604 79.346 349.031 107.094C352.469 109.875 353 114.906 350.219 118.344C347.469 121.797 342.438 122.297 338.969 119.562C267.906 62.234 165.25 67.375 100.188 131.578C66.531 164.828 48 209 48 256S66.531 347.172 100.188 380.422C165.25 444.656 267.938 449.781 338.969 392.438C342.438 389.703 347.469 390.203 350.219 393.656Z"/></svg>