<svg xmlns="http://www.w3.org/2000/svg" viewBox="0 0 448 512"><!-- Font Awesome Pro 6.0.0-alpha2 by @fontawesome - https://fontawesome.com License - https://fontawesome.com/license (Commercial License) --><path d="M398.299 306.594C393.064 295.25 381.721 288 369.236 288H78.764C66.279 288 54.936 295.25 49.701 306.594L34.936 338.594C30.373 348.5 31.17 360.062 37.045 369.25S53.092 384 63.998 384H216V448.457C166.113 450.797 128 474.197 128 504C128 508.422 131.594 512 136 512S144 508.422 144 504C144 483.678 176.262 466.523 216 464.418V504C216 508.422 219.594 512 224 512S232 508.422 232 504V464.418C271.738 466.523 304 483.678 304 504C304 508.422 307.594 512 312 512S320 508.422 320 504C320 474.197 281.887 450.797 232 448.457V384H384.002C394.908 384 405.08 378.438 410.955 369.25S417.627 348.5 413.064 338.594L398.299 306.594ZM397.475 360.629C394.525 365.244 389.488 368 384.002 368H63.998C58.512 368 53.475 365.244 50.525 360.631C47.568 356.006 47.174 350.27 49.463 345.297L64.229 313.297C66.836 307.648 72.541 304 78.764 304H369.236C375.459 304 381.164 307.648 383.771 313.297L398.531 345.287C400.826 350.27 400.432 356.006 397.475 360.629ZM104 264C108.406 264 112 260.422 112 256V72C112 41.125 137.125 16 168 16H280C310.875 16 336 41.125 336 72V256C336 260.422 339.594 264 344 264S352 260.422 352 256V72C352 32.297 319.688 0 280 0H168C128.312 0 96 32.297 96 72V256C96 260.422 99.594 264 104 264ZM40 256C44.406 256 48 252.422 48 248V136C48 131.578 44.406 128 40 128S32 131.578 32 136V248C32 252.422 35.594 256 40 256ZM408 128C403.594 128 400 131.578 400 136V248C400 252.422 403.594 256 408 256S416 252.422 416 248V136C416 131.578 412.406 128 408 128Z"/></svg>