<svg xmlns="http://www.w3.org/2000/svg" viewBox="0 0 640 512"><!-- Font Awesome Pro 6.0.0-alpha2 by @fontawesome - https://fontawesome.com License - https://fontawesome.com/license (Commercial License) --><path d="M339 55.506L173.729 0.416C170.203 -0.759 166.328 0.647 164.383 3.819C118.653 78.615 76.055 164.493 64.969 197.754C43.133 263.254 75.981 333.351 138.133 358.413C138.008 358.686 137.67 358.765 137.575 359.058L93.928 463.572L10.522 435.768C6.332 434.373 1.805 436.643 0.41 440.822C-0.98 444.994 1.276 449.533 5.467 450.932L187.444 511.587C191.635 512.986 196.162 510.712 197.553 506.533C198.948 502.361 196.692 497.822 192.5 496.424L109.094 468.619L152.739 364.112C152.836 363.823 152.618 363.55 152.678 363.261C217.436 380.503 285.77 344.136 307.606 278.633C318.694 245.371 336.143 151.106 344.436 63.834C344.782 60.131 342.526 56.681 339 55.506ZM292.44 273.578C272.547 333.257 208.737 365.929 150.211 346.421C91.684 326.909 60.239 262.492 80.133 202.809C84.625 189.333 96.032 163.434 112.032 131.36C112.149 131.399 112.178 131.548 112.299 131.587L309.442 197.301C309.561 197.34 309.672 197.247 309.793 197.278C303.348 232.539 296.932 260.098 292.44 273.578ZM312.539 181.485L119.313 117.075C134.858 86.732 153.711 52.283 174.715 17.592L327.903 68.658C323.893 109.005 318.307 147.88 312.539 181.485ZM629.479 435.764L546.073 463.568L502.426 359.054C502.33 358.761 501.993 358.683 501.868 358.409C564.02 333.347 596.867 263.25 575.032 197.75C563.944 164.489 521.34 78.599 475.606 3.795C473.668 0.627 469.795 -0.759 466.272 0.412L374.487 31.006C369.7 32.6 367.635 38.193 370.233 42.521C370.262 42.568 370.291 42.615 370.319 42.662C372.221 45.861 376.045 47.334 379.577 46.158L465.285 17.588C486.289 52.279 505.143 86.728 520.688 117.072L367.713 168.059C364.928 168.989 362.893 171.43 362.412 174.325C362.403 174.387 362.393 174.446 362.383 174.505C361.41 180.38 367.037 185.137 372.688 183.255L527.701 131.583C527.823 131.544 527.852 131.396 527.969 131.357C543.969 163.43 555.375 189.329 559.867 202.805C579.762 262.488 548.317 326.906 489.789 346.417C436.293 364.249 378.444 338.448 353.702 288.304C351.047 282.925 343.686 282.277 340.358 287.269C338.84 289.543 338.59 292.496 339.799 294.949C366.821 349.784 428.301 378.968 487.323 363.257C487.383 363.546 487.164 363.819 487.262 364.108L530.907 468.615L447.5 496.42C443.309 497.818 441.053 502.357 442.448 506.529C443.838 510.709 448.366 512.982 452.557 511.584L634.534 450.928C638.725 449.529 640.981 444.99 639.59 440.819C638.196 436.639 633.668 434.369 629.479 435.764Z"/></svg>