<svg xmlns="http://www.w3.org/2000/svg" viewBox="0 0 640 512"><!-- Font Awesome Pro 6.0.0-alpha2 by @fontawesome - https://fontawesome.com License - https://fontawesome.com/license (Commercial License) --><path d="M576 384C555.59 384 537.621 393.732 525.902 408.613L435.514 354.385C443.236 339.178 448 322.223 448 304C448 242.145 397.855 192 336 192C321.904 192 308.549 194.893 296.123 199.646L258.039 118.018C275.99 106.682 288 86.801 288 64C288 28.652 259.348 0 224 0C188.654 0 160 28.652 160 64C160 99.346 188.654 128 224 128C230.842 128 237.307 126.643 243.486 124.654L281.719 206.602C247.447 225.754 224 261.951 224 304C224 365.855 274.145 416 336 416C373.9 416 407.264 397.059 427.529 368.246L517.5 422.221C514.012 430.119 512 438.811 512 448C512 483.346 540.654 512 576 512C611.348 512 640 483.346 640 448C640 412.652 611.348 384 576 384ZM224 112C197.533 112 176 90.467 176 64S197.533 16 224 16S272 37.533 272 64S250.467 112 224 112ZM336 400C283.066 400 240 356.934 240 304C240 251.064 283.066 208 336 208C388.936 208 432 251.064 432 304C432 356.934 388.936 400 336 400ZM576 496C549.533 496 528 474.467 528 448S549.533 400 576 400S624 421.533 624 448S602.467 496 576 496ZM48 256C21.49 256 0 277.49 0 304S21.49 352 48 352S96 330.51 96 304S74.51 256 48 256ZM48 336C30.355 336 16 321.645 16 304S30.355 272 48 272S80 286.355 80 304S65.645 336 48 336ZM592 160C618.51 160 640 138.51 640 112S618.51 64 592 64S544 85.49 544 112S565.49 160 592 160ZM592 80C609.645 80 624 94.355 624 112S609.645 144 592 144S560 129.645 560 112S574.355 80 592 80ZM336 256C309.49 256 288 277.49 288 304S309.49 352 336 352S384 330.51 384 304S362.51 256 336 256ZM336 336C318.355 336 304 321.645 304 304S318.355 272 336 272S368 286.355 368 304S353.645 336 336 336ZM489.594 196.797C491.188 196.797 492.797 196.156 494.391 195.187C497.922 192.641 498.547 187.516 496 184C493.438 180.469 488.312 179.828 484.797 182.391S480.641 190.078 483.187 193.594C484.797 195.828 487.031 196.797 489.594 196.797ZM464 216C465.594 216 467.188 215.359 468.797 214.391C472.312 211.828 472.953 206.719 470.391 203.187C467.828 199.672 462.719 199.031 459.187 201.594C455.672 204.156 455.031 209.281 457.594 212.797C459.188 215.031 461.438 216 464 216ZM540.797 158.391C542.391 158.391 544 157.75 545.594 156.797C549.109 154.234 549.75 149.109 547.187 145.594C544.641 142.078 539.516 141.438 536 144C532.469 146.547 531.828 151.672 534.391 155.188C536 157.438 538.234 158.391 540.797 158.391ZM515.188 177.594C516.797 177.594 518.391 176.953 520 176C523.516 173.438 524.156 168.312 521.594 164.797S513.922 160.641 510.391 163.187C506.875 165.75 506.234 170.875 508.797 174.391C510.391 176.641 512.641 177.594 515.188 177.594ZM438.391 235.188C440 235.188 441.594 234.547 443.187 233.594C446.719 231.031 447.359 225.922 444.797 222.391C442.234 218.875 437.109 218.234 433.594 220.797S429.438 228.469 432 232C433.594 233.922 435.828 235.188 438.391 235.188ZM208 296C203.516 296 200 299.516 200 304C200 308.469 203.516 312 208 312C212.469 312 216 308.469 216 304C216 299.516 212.469 296 208 296ZM112 296C107.516 296 104 299.516 104 304C104 308.469 107.516 312 112 312C116.469 312 120 308.469 120 304C120 299.516 116.469 296 112 296ZM144 296C139.516 296 136 299.516 136 304C136 308.469 139.516 312 144 312C148.469 312 152 308.469 152 304C152 299.516 148.469 296 144 296ZM176 296C171.516 296 168 299.516 168 304C168 308.469 171.516 312 176 312C180.469 312 184 308.469 184 304C184 299.516 180.469 296 176 296Z"/></svg>