<svg xmlns="http://www.w3.org/2000/svg" viewBox="0 0 512 512"><!-- Font Awesome Pro 6.0.0-alpha2 by @fontawesome - https://fontawesome.com License - https://fontawesome.com/license (Commercial License) --><path d="M399.986 384H431.986C440.822 384 447.986 376.836 447.986 368V112C447.986 103.162 440.822 96 431.986 96H399.986C391.15 96 383.986 103.162 383.986 112V368C383.986 376.836 391.15 384 399.986 384ZM399.986 112H431.986V368H399.986V112ZM207.986 384H239.986C248.822 384 255.986 376.836 255.986 368V144C255.986 135.162 248.822 128 239.986 128H207.986C199.15 128 191.986 135.162 191.986 144V368C191.986 376.836 199.15 384 207.986 384ZM207.986 144H239.986V368H207.986V144ZM111.986 384H143.986C152.822 384 159.986 376.836 159.986 368V272C159.986 263.162 152.822 256 143.986 256H111.986C103.15 256 95.986 263.162 95.986 272V368C95.986 376.836 103.15 384 111.986 384ZM111.986 272H143.986V368H111.986V272ZM303.986 384H335.986C344.822 384 351.986 376.836 351.986 368V208C351.986 199.162 344.822 192 335.986 192H303.986C295.15 192 287.986 199.162 287.986 208V368C287.986 376.836 295.15 384 303.986 384ZM303.986 208H335.986V368H303.986V208ZM504 464H72C41.125 464 16 438.875 16 408V40C16 35.594 12.406 32 8 32S0 35.594 0 40V408C0 447.688 32.312 480 72 480H504C508.406 480 512 476.406 512 472S508.406 464 504 464Z"/></svg>