<svg xmlns="http://www.w3.org/2000/svg" viewBox="0 0 256 512"><!-- Font Awesome Pro 6.0.0-alpha2 by @fontawesome - https://fontawesome.com License - https://fontawesome.com/license (Commercial License) --><path d="M242.641 452.438L224 443.062V432C224 418.766 213.234 408 200 408H56C42.766 408 32 418.766 32 432V443.062L13.422 452.406C5.266 456.297 0 464.719 0 473.875V488C0 501.234 10.766 512 24 512H232C245.234 512 256 501.234 256 488V473.875C256 464.75 250.766 456.344 242.641 452.438ZM240 488C240 492.484 236.484 496 232 496H24C19.516 496 16 492.484 16 488V473.875C16 470.859 17.703 468.094 20.469 466.766L48 452.938V432C48 427.516 51.516 424 56 424H200C204.484 424 208 427.516 208 432V452.938L235.672 466.844C238.297 468.094 240 470.859 240 473.875V488ZM73.266 192H64C59.578 192 56 195.578 56 200S59.578 208 64 208H76.381L64.016 375.406C63.703 379.812 67 383.656 71.406 383.984C71.609 384 71.812 384 72.016 384C76.156 384 79.672 380.797 79.984 376.594L92.438 208H163.562L176.016 376.594C176.328 380.797 179.844 384 183.984 384C184.188 384 184.391 384 184.594 383.984C189 383.656 192.297 379.812 191.984 375.406L179.619 208H192C196.422 208 200 204.422 200 200S196.422 192 192 192H182.734L233.125 112.25C234.625 109.25 233.625 105.5 230.875 103.625L220.75 97C219.646 96.248 218.432 95.904 217.227 95.904C215.016 95.904 212.83 97.059 211.375 99C207.541 104.076 201.561 107.006 195.355 107.006C194.074 107.006 192.783 106.881 191.5 106.625C181.75 104.75 175.125 95.625 175.125 85.625C175.125 82.5 172.625 80 169.5 80H153.25C150.625 80 148.375 81.625 147.75 84.125C145.75 93.5 137.5 100.25 128 100.25S110.25 93.5 108.25 84.125C107.625 81.625 105.375 80 102.75 80H86.5C83.375 80 80.875 82.5 80.875 85.625C80.875 96.5 72.875 106.125 62 106.875C61.514 106.91 61.025 106.928 60.541 106.928C54.307 106.928 48.328 103.979 44.5 98.875C43.227 96.885 41.092 95.857 38.904 95.857C37.652 95.857 36.387 96.193 35.25 96.875L25.125 103.625C22.375 105.5 21.375 109.25 22.875 112.25L73.266 192ZM60.541 122.928L62.551 122.875L63.1 122.836C78.562 121.77 91.289 110.68 95.441 96H95.58C101.6 108.117 114.105 116.25 128 116.25C142.01 116.25 154.611 107.98 160.5 96H160.533C164.223 109.293 174.834 119.713 188.359 122.312C190.689 122.779 193.031 123.006 195.355 123.006C200.131 123.006 204.82 122.035 209.158 120.227L163.809 192H92.184L46.705 120.135C51.049 121.953 55.75 122.928 60.541 122.928ZM128 64C145.641 64 160 49.641 160 32S145.641 0 128 0S96 14.359 96 32S110.359 64 128 64ZM128 16C136.828 16 144 23.172 144 32S136.828 48 128 48S112 40.828 112 32S119.172 16 128 16Z"/></svg>