<svg xmlns="http://www.w3.org/2000/svg" viewBox="0 0 512 512"><!-- Font Awesome Pro 6.0.0-alpha2 by @fontawesome - https://fontawesome.com License - https://fontawesome.com/license (Commercial License) --><path d="M392.069 448H120.073C89.198 448 64.074 473.125 64.074 504C64.074 508.422 67.652 512 72.074 512S80.074 508.422 80.074 504C80.074 481.938 98.011 464 120.073 464H392.069C414.131 464 432.068 481.938 432.068 504C432.068 508.422 435.646 512 440.068 512C444.49 512 448.068 508.422 448.068 504C448.068 473.125 422.944 448 392.069 448ZM256.04 112C286.914 112 312.039 86.875 312.039 56S286.914 0 256.04 0S200.041 25.125 200.041 56S225.165 112 256.04 112ZM256.04 16C278.102 16 296.039 33.938 296.039 56S278.102 96 256.04 96S216.04 78.062 216.04 56S233.978 16 256.04 16ZM501.052 183.391L473.99 168.344C463.552 161.391 449.631 164.078 441.6 174.672C432.803 186.344 418.022 192.219 403.647 189.281C385.928 186.031 372.554 168.688 372.554 148.953C372.554 137.406 363.148 128 351.601 128H314.055C304.258 128 295.727 134.688 293.742 143.891C289.914 161.922 274.399 174.5 256.04 174.5S222.165 161.922 218.337 143.891C216.353 134.688 207.822 128 198.025 128H160.494C148.932 128 139.526 137.406 139.526 148.953C139.526 170.547 123.807 188.531 103.745 189.906C90.652 190.766 78.246 185.062 70.402 174.625C62.621 164 48.449 161.25 38.746 168.016L10.559 183.781C0.575 190.266 -2.863 203.203 2.559 213.828L101.87 411.594C103.839 415.547 108.683 417.109 112.62 415.156C116.557 413.172 118.151 408.359 116.182 404.406L16.84 206.594C15.168 203.312 16.231 199.188 18.825 197.484L47.183 181.594C50.855 179.047 55.23 181 57.574 184.156C68.73 199.031 86.542 206.953 104.839 205.875C133.26 203.922 155.526 178.922 155.526 148.953C155.526 146.219 157.76 144 160.494 144H198.025C200.291 144 202.291 145.391 202.681 147.234C208.119 172.703 230.056 190.5 256.04 190.5S303.961 172.703 309.398 147.234C309.789 145.422 311.836 144 314.055 144H351.601C354.335 144 356.554 146.219 356.554 148.953C356.554 176.297 375.554 200.406 400.678 205C420.756 208.953 441.928 200.828 454.365 184.312C456.74 181.156 461.099 179.031 465.662 181.984L492.724 197.031C495.896 199.141 496.942 203.187 495.208 206.641L395.913 404.406C393.944 408.359 395.538 413.172 399.475 415.156C400.631 415.734 401.85 416 403.069 416C405.991 416 408.819 414.391 410.225 411.594L509.52 213.812C514.833 203.203 511.427 190.266 501.052 183.391Z"/></svg>