<svg xmlns="http://www.w3.org/2000/svg" viewBox="0 0 320 512"><!-- Font Awesome Pro 6.0.0-alpha2 by @fontawesome - https://fontawesome.com License - https://fontawesome.com/license (Commercial License) --><path d="M264 448H56C25.125 448 0 473.125 0 504C0 508.422 3.578 512 8 512S16 508.422 16 504C16 481.938 33.938 464 56 464H264C286.062 464 304 481.938 304 504C304 508.422 307.578 512 312 512S320 508.422 320 504C320 473.125 294.875 448 264 448ZM56 232C56 236.422 59.578 240 64 240H101.984L64.203 406.234C63.219 410.531 65.922 414.828 70.234 415.797C70.828 415.938 71.422 416 72 416C75.656 416 78.953 413.484 79.797 409.766L118.381 240H201.619L240.203 409.766C241.047 413.484 244.344 416 248 416C248.578 416 249.172 415.938 249.766 415.797C254.078 414.828 256.781 410.531 255.797 406.234L218.016 240H256C260.422 240 264 236.422 264 232S260.422 224 256 224H214.9C244.291 205.623 264 173.217 264 136C264 78.562 217.438 32 160 32S56 78.562 56 136C56 173.217 75.709 205.623 105.1 224H64C59.578 224 56 227.578 56 232ZM72 136C72 87.477 111.477 48 160 48S248 87.477 248 136S208.523 224 160 224S72 184.523 72 136Z"/></svg>