<svg xmlns="http://www.w3.org/2000/svg" viewBox="0 0 448 512"><!-- Font Awesome Pro 6.0.0-alpha2 by @fontawesome - https://fontawesome.com License - https://fontawesome.com/license (Commercial License) --><path d="M440.265 176.25C432.764 166.078 420.699 160 408.072 160H231.982V72H287.991C292.398 72 295.992 68.422 295.992 64S292.398 56 287.991 56H231.982V8C231.982 3.578 228.388 0 223.981 0C219.574 0 215.98 3.578 215.98 8V56H159.971C155.564 56 151.97 59.578 151.97 64S155.564 72 159.971 72H215.98V160H39.89C27.263 160 15.199 166.078 7.666 176.297C0.196 186.547 -1.991 199.844 1.884 212.266L74.927 410.766C76.427 414.906 81.053 416.984 85.178 415.516C89.335 413.984 91.461 409.391 89.929 405.234L17.012 207.125C14.761 199.891 16.105 191.891 20.575 185.75C25.075 179.641 32.295 176 39.89 176H408.072C415.667 176 422.887 179.641 427.357 185.703C431.857 191.891 433.201 199.891 431.076 206.734L358.033 405.234C356.502 409.391 358.627 413.984 362.784 415.516C363.69 415.844 364.628 416 365.534 416C368.785 416 371.848 414 373.036 410.766L446.203 211.875C449.954 199.844 447.766 186.547 440.265 176.25ZM360.002 448H87.96C57.08 448 31.951 473.125 31.951 504C31.951 508.422 35.546 512 39.953 512C44.36 512 47.954 508.422 47.954 504C47.954 481.938 65.894 464 87.96 464H360.002C382.068 464 400.009 481.938 400.009 504C400.009 508.422 403.603 512 408.01 512C412.417 512 416.011 508.422 416.011 504C416.011 473.125 390.882 448 360.002 448Z"/></svg>