<svg xmlns="http://www.w3.org/2000/svg" viewBox="0 0 320 512"><!-- Font Awesome Pro 6.0.0-alpha2 by @fontawesome - https://fontawesome.com License - https://fontawesome.com/license (Commercial License) --><path d="M306.641 452.438L288 443.062V432C288 418.766 277.234 408 264 408H56C42.766 408 32 418.766 32 432V443.062L13.422 452.406C5.266 456.297 0 464.719 0 473.875V488C0 501.234 10.766 512 24 512H296C309.234 512 320 501.234 320 488V473.875C320 464.75 314.766 456.344 306.641 452.438ZM304 488C304 492.484 300.484 496 296 496H24C19.516 496 16 492.484 16 488V473.875C16 470.859 17.703 468.094 20.469 466.766L48 452.938V432C48 427.516 51.516 424 56 424H264C268.484 424 272 427.516 272 432V452.938L299.672 466.844C302.297 468.094 304 470.859 304 473.875V488ZM50.25 234.812L79.125 247.688C86.656 251.047 95.344 251.219 102.953 248.188L112.125 244.547C120.859 241.016 127.438 233.813 130.172 224.781L136.75 202.609C137.438 199.938 139.188 197.703 140.344 196.984L144.125 195.75V230C144.125 241.625 141.031 244.281 102.688 265.5C95.219 269.641 86.609 274.406 77 279.875C54.5 291.328 40.406 308.297 37.344 327.641C34.438 346.031 41.891 365.203 58.344 381.656C61.469 384.781 66.531 384.781 69.656 381.656S72.781 373.469 69.656 370.344C56.734 357.422 51.031 343.531 53.156 330.156C55.391 316 66.438 303.203 84.578 293.953C94.453 288.359 103.016 283.609 110.438 279.5C148.609 258.375 160.125 252 160.125 230V184.75C160.125 182.188 158.906 179.781 156.828 178.281C154.75 176.766 152.109 176.344 149.656 177.141L134.219 182.266C127.797 185.562 123.078 191.531 121.328 198.344L114.844 220.188C113.531 224.531 110.359 228 106.172 229.688L97.031 233.328C93.453 234.766 89.281 234.703 85.641 233.062L56.719 220.172C51.422 217.844 48 212.531 48 206.625V124.75C48 122.297 48.938 120 50.656 118.281L57.031 111.906C59.469 109.469 60.078 105.75 58.531 102.672L48.406 82.422L48.5 80H140.875C213.172 80 272 138.828 272 211.125V344C272 354.141 265.672 362.078 258.016 370.688C255.078 373.984 255.375 379.047 258.688 381.984C260.203 383.328 262.109 384 264 384C266.203 384 268.406 383.094 269.984 381.312C277.156 373.234 288 361.047 288 344V211.125C288 130 222 64 140.875 64H48.5C39.406 64 32 71.406 32 80.5C32 83.797 32.688 86.766 34.094 89.578L41.641 104.672L39.344 106.969C34.609 111.703 32 118.016 32 124.75V206.625C32 218.875 39.172 229.938 50.25 234.812ZM80 144C80 152.836 87.164 160 96 160C104.838 160 112 152.836 112 144C112 135.162 104.838 128 96 128C87.164 128 80 135.162 80 144Z"/></svg>