<svg xmlns="http://www.w3.org/2000/svg" viewBox="0 0 512 512"><!-- Font Awesome Pro 6.0.0-alpha2 by @fontawesome - https://fontawesome.com License - https://fontawesome.com/license (Commercial License) --><path d="M256 496C388.549 496 496 388.549 496 256S388.549 16 256 16S16 123.451 16 256S123.451 496 256 496ZM256 480C132.486 480 32 379.514 32 256S132.486 32 256 32S480 132.486 480 256S379.514 480 256 480ZM328.001 352C332.42 352 336 348.42 336 344.001S332.42 336.002 328.001 336.002H187.312L349.659 173.655C352.775 170.539 352.786 165.468 349.659 162.341C346.532 159.214 341.461 159.225 338.345 162.341L175.998 324.688V183.999C175.998 179.58 172.418 176 167.999 176C163.577 176 160 179.577 160 183.999V344.001C160 348.42 163.58 352 167.999 352H328.001Z"/></svg>