<svg xmlns="http://www.w3.org/2000/svg" viewBox="0 0 512 512"><!-- Font Awesome Pro 6.0.0-alpha2 by @fontawesome - https://fontawesome.com License - https://fontawesome.com/license (Commercial License) --><path d="M376.002 248H136.002C131.58 248 128.002 251.578 128.002 256S131.58 264 136.002 264H376.002C380.424 264 384.002 260.422 384.002 256S380.424 248 376.002 248ZM256 16C123.453 16 16 123.453 16 256S123.453 496 256 496S496 388.547 496 256S388.547 16 256 16ZM256 480C132.486 480 32 379.516 32 256S132.486 32 256 32S480 132.484 480 256S379.514 480 256 480ZM256 192C273.674 192 288 177.674 288 160S273.674 128 256 128C238.328 128 224 142.326 224 160S238.328 192 256 192ZM256 144C264.822 144 272 151.178 272 160S264.822 176 256 176S240 168.822 240 160S247.178 144 256 144ZM256 320C238.328 320 224 334.326 224 352S238.328 384 256 384C273.674 384 288 369.674 288 352S273.674 320 256 320ZM256 368C247.178 368 240 360.822 240 352S247.178 336 256 336S272 343.178 272 352S264.822 368 256 368Z"/></svg>