<svg xmlns="http://www.w3.org/2000/svg" viewBox="0 0 512 512"><!-- Font Awesome Pro 6.0.0-alpha2 by @fontawesome - https://fontawesome.com License - https://fontawesome.com/license (Commercial License) --><path d="M461.29 256H255.999V50.709C255.999 32.834 241.378 18.418 224.095 18.418C222.525 18.418 220.933 18.537 219.329 18.783C89.095 38.75 -6.659 163.406 20.685 304.148C38.864 397.727 114.273 473.135 207.851 491.314C224.155 494.482 240.265 496 255.999 496C376.089 496 475.562 407.818 493.216 292.668C496.171 273.396 480.788 256 461.29 256ZM255.999 480C241.073 480 225.9 478.521 210.902 475.609C123.501 458.629 53.37 388.498 36.392 301.096C24.382 239.285 37.277 177.533 72.698 127.215C107.685 77.516 162.015 43.758 221.755 34.598C222.542 34.477 223.323 34.418 224.095 34.418C232.716 34.418 239.999 41.879 239.999 50.709V256C239.999 264.836 247.163 272 255.999 272H461.29C466.056 272 470.591 274.1 473.736 277.764C475.503 279.822 478.329 284.182 477.4 290.244C460.816 398.422 365.634 480 255.999 480Z"/></svg>