<svg xmlns="http://www.w3.org/2000/svg" viewBox="0 0 512 512"><!-- Font Awesome Pro 6.0.0-alpha2 by @fontawesome - https://fontawesome.com License - https://fontawesome.com/license (Commercial License) --><path d="M256 16C123.42 16 16 123.418 16 256C16 388.58 123.42 496 256 496S496 388.58 496 256C496 123.418 388.58 16 256 16ZM256 480C132.486 480 32 379.514 32 256S132.486 32 256 32S480 132.486 480 256S379.514 480 256 480ZM328 160H184C170.801 160 160 170.799 160 184V328C160 341.199 170.801 352 184 352H328C341.199 352 352 341.199 352 328V184C352 170.799 341.199 160 328 160ZM336 328C336 332.336 332.336 336 328 336H184C179.664 336 176 332.336 176 328V184C176 179.664 179.664 176 184 176H328C332.336 176 336 179.664 336 184V328Z"/></svg>