<svg xmlns="http://www.w3.org/2000/svg" viewBox="0 0 512 512"><!-- Font Awesome Pro 6.0.0-alpha2 by @fontawesome - https://fontawesome.com License - https://fontawesome.com/license (Commercial License) --><path d="M16 256C16 388.547 123.451 496 256 496S496 388.547 496 256S388.549 16 256 16S16 123.453 16 256ZM480 256C480 379.514 379.514 480 256 480S32 379.514 32 256S132.486 32 256 32S480 132.486 480 256ZM170.547 250.143C167.297 253.143 167.297 258.83 170.547 261.83L290.547 373.83C293.766 376.861 298.828 376.674 301.844 373.455C304.844 370.205 304.703 365.174 301.453 362.143L187.719 255.986L301.453 149.83C303.141 148.268 304 146.111 304 143.986C304 142.018 303.281 140.08 301.844 138.518C298.828 135.299 293.766 135.111 290.547 138.143L170.547 250.143Z"/></svg>