<svg xmlns="http://www.w3.org/2000/svg" viewBox="0 0 512 512"><!-- Font Awesome Pro 6.0.0-alpha2 by @fontawesome - https://fontawesome.com License - https://fontawesome.com/license (Commercial License) --><path d="M344 128C339.594 128 336 131.578 336 136V296C336 335.703 300.125 368 256 368S176 335.703 176 296C176 291.578 172.406 288 168 288S160 291.578 160 296C160 344.531 203.062 384 256 384S352 344.531 352 296V136C352 131.578 348.406 128 344 128ZM256 16C123.451 16 16 123.451 16 256S123.451 496 256 496S496 388.549 496 256S388.549 16 256 16ZM256 480C132.486 480 32 379.514 32 256S132.486 32 256 32S480 132.486 480 256S379.514 480 256 480Z"/></svg>