<svg xmlns="http://www.w3.org/2000/svg" viewBox="0 0 512 512"><!-- Font Awesome Pro 6.0.0-alpha2 by @fontawesome - https://fontawesome.com License - https://fontawesome.com/license (Commercial License) --><path d="M256 16C123.451 16 16 123.451 16 256S123.451 496 256 496S496 388.549 496 256S388.549 16 256 16ZM256 480C132.486 480 32 379.514 32 256S132.486 32 256 32S480 132.486 480 256S379.514 480 256 480ZM336.422 176.016C332.203 175.844 328.25 179.172 328.016 183.578L319.188 348.75C318.797 354.844 313.312 360 307.219 360H204.781C198.688 360 193.203 354.844 192.813 348.828L183.984 183.578C183.766 179.172 180.109 175.906 175.578 176.016C171.156 176.25 167.781 180.016 168.016 184.422L176.844 349.75C177.766 364.234 190.297 376 204.781 376H307.219C321.703 376 334.234 364.234 335.156 349.672L343.984 184.422C344.219 180.016 340.844 176.25 336.422 176.016ZM352 144H308.945L295.156 116.422C293.797 113.719 291.031 112 288 112H224C220.969 112 218.203 113.719 216.844 116.422L203.055 144H160C155.578 144 152 147.578 152 152S155.578 160 160 160H352C356.422 160 360 156.422 360 152S356.422 144 352 144ZM220.941 144L228.938 128H283.062L291.059 144H220.941Z"/></svg>