<svg xmlns="http://www.w3.org/2000/svg" viewBox="0 0 512 512"><!-- Font Awesome Pro 6.0.0-alpha2 by @fontawesome - https://fontawesome.com License - https://fontawesome.com/license (Commercial License) --><path d="M16 256C16 388.547 123.451 496 256 496S496 388.547 496 256S388.549 16 256 16S16 123.453 16 256ZM32 256C32 132.484 132.486 32 256 32S480 132.484 480 256S379.514 480 256 480S32 379.516 32 256ZM154.012 290.105C144.639 299.477 144.641 314.672 154.012 324.047L187.953 357.988C197.324 367.359 212.521 367.359 221.895 357.988L295.434 284.449L327.029 316.047C342.148 331.164 368 320.453 368 299.074V168C367.998 161.371 365.314 155.375 360.971 151.031S350.627 144 344 144H212.926C191.543 144 180.834 169.852 195.955 184.969L227.551 216.566L154.012 290.105ZM165.326 301.422L250.178 216.566L207.268 173.656C203.857 170.246 204.918 166.422 205.533 164.938C206.15 163.453 208.1 160 212.926 160H344C346.883 160 348.781 161.469 349.656 162.344C350.533 163.219 351.998 165.117 351.998 168V299.074C351.998 303.898 348.547 305.852 347.063 306.469C345.576 307.082 341.754 308.141 338.344 304.73L295.434 261.82L210.58 346.672C207.461 349.793 202.387 349.793 199.268 346.672L165.326 312.734C162.205 309.613 162.205 304.539 165.326 301.422Z"/></svg>