<svg xmlns="http://www.w3.org/2000/svg" viewBox="0 0 512 512"><!-- Font Awesome Pro 6.0.0-alpha2 by @fontawesome - https://fontawesome.com License - https://fontawesome.com/license (Commercial License) --><path d="M256 16C123.451 16 16 123.451 16 256S123.451 496 256 496S496 388.549 496 256S388.549 16 256 16ZM256 32C379.514 32 480 132.486 480 256S379.514 480 256 480S32 379.514 32 256S132.486 32 256 32ZM183.999 160C179.58 160 176 163.58 176 167.999C176 172.418 179.58 175.998 183.999 175.998H324.688L162.341 338.345C159.225 341.461 159.214 346.532 162.341 349.659S170.539 352.775 173.655 349.659L336.002 187.312V328.001C336.002 332.42 339.582 336 344.001 336C348.423 336 352 332.423 352 328.001V167.999C352 163.58 348.42 160 344.001 160H183.999Z"/></svg>