<svg xmlns="http://www.w3.org/2000/svg" viewBox="0 0 512 512"><!-- Font Awesome Pro 6.0.0-alpha2 by @fontawesome - https://fontawesome.com License - https://fontawesome.com/license (Commercial License) --><path d="M256 128C185.406 128 128 185.422 128 256S185.406 384 256 384C288.41 384 317.703 371.508 340.273 351.586L370.344 381.656C371.906 383.219 373.938 384 376 384S380.094 383.219 381.656 381.656C384.781 378.531 384.781 373.469 381.656 370.344L351.584 340.271C371.508 317.697 384 288.406 384 256C384 185.422 326.594 128 256 128ZM340.271 328.959L301.656 290.344C298.531 287.219 293.469 287.219 290.344 290.344S287.219 298.531 290.344 301.656L328.959 340.271C309.303 357.312 283.99 368 256 368C194.25 368 144 317.75 144 256S194.25 144 256 144S368 194.25 368 256C368 283.99 357.312 309.303 340.271 328.959ZM256 16C123.451 16 16 123.451 16 256S123.451 496 256 496S496 388.549 496 256S388.549 16 256 16ZM256 480C132.486 480 32 379.514 32 256S132.486 32 256 32S480 132.486 480 256S379.514 480 256 480Z"/></svg>