<svg xmlns="http://www.w3.org/2000/svg" viewBox="0 0 512 512"><!-- Font Awesome Pro 6.0.0-alpha2 by @fontawesome - https://fontawesome.com License - https://fontawesome.com/license (Commercial License) --><path d="M263.156 116.422C260.438 111.016 251.562 111.016 248.844 116.422L128.844 356.422C126.875 360.375 128.469 365.172 132.422 367.156C136.422 369.156 141.172 367.531 143.156 363.578L168.945 312H343.055L368.844 363.578C370.25 366.375 373.078 368 376 368C377.203 368 378.422 367.734 379.578 367.156C383.531 365.172 385.125 360.375 383.156 356.422L263.156 116.422ZM176.945 296L256 137.891L335.055 296H176.945ZM256 16C123.451 16 16 123.451 16 256S123.451 496 256 496S496 388.549 496 256S388.549 16 256 16ZM256 480C132.486 480 32 379.514 32 256S132.486 32 256 32S480 132.486 480 256S379.514 480 256 480Z"/></svg>