<svg xmlns="http://www.w3.org/2000/svg" viewBox="0 0 512 512"><!-- Font Awesome Pro 6.0.0-alpha2 by @fontawesome - https://fontawesome.com License - https://fontawesome.com/license (Commercial License) --><path d="M256 16C123.453 16 16 123.451 16 256S123.453 496 256 496S496 388.549 496 256S388.547 16 256 16ZM256 480C132.486 480 32 379.514 32 256S132.486 32 256 32S480 132.486 480 256S379.514 480 256 480ZM376.002 248H264.002V136C264.002 131.578 260.424 128 256.002 128S248.002 131.578 248.002 136V248H136.002C131.58 248 128.002 251.578 128.002 256S131.58 264 136.002 264H248.002V376C248.002 380.422 251.58 384 256.002 384S264.002 380.422 264.002 376V264H376.002C380.424 264 384.002 260.422 384.002 256S380.424 248 376.002 248Z"/></svg>