<svg xmlns="http://www.w3.org/2000/svg" viewBox="0 0 512 512"><!-- Font Awesome Pro 6.0.0-alpha2 by @fontawesome - https://fontawesome.com License - https://fontawesome.com/license (Commercial License) --><path d="M280 128H168C163.594 128 160 131.578 160 136V376C160 380.422 163.594 384 168 384S176 380.422 176 376V304H280C328.531 304 368 264.531 368 216S328.531 128 280 128ZM280 288H176V144H280C319.688 144 352 176.297 352 216S319.688 288 280 288ZM256 16C123.451 16 16 123.451 16 256S123.451 496 256 496S496 388.549 496 256S388.549 16 256 16ZM256 480C132.486 480 32 379.514 32 256S132.486 32 256 32S480 132.486 480 256S379.514 480 256 480Z"/></svg>