<svg xmlns="http://www.w3.org/2000/svg" viewBox="0 0 640 512"><!-- Font Awesome Pro 6.0.0-alpha2 by @fontawesome - https://fontawesome.com License - https://fontawesome.com/license (Commercial License) --><path d="M120 296H72C63.188 296 56 303.172 56 312V360C56 368.828 63.188 376 72 376H120C128.812 376 136 368.828 136 360V312C136 303.172 128.812 296 120 296ZM120 359.984C120 360 120 360 120 360H72V312H120V359.984ZM120 424H72C63.188 424 56 431.172 56 440V488C56 496.828 63.188 504 72 504H120C128.812 504 136 496.828 136 488V440C136 431.172 128.812 424 120 424ZM120 487.984C120 488 120 488 120 488H72V440H120V487.984ZM408 200H360C351.188 200 344 207.172 344 216V264C344 272.828 351.188 280 360 280H408C416.812 280 424 272.828 424 264V216C424 207.172 416.812 200 408 200ZM408 263.984C408 264 408 264 408 264H360V216H408V263.984ZM608 192H480V32C480 14.326 465.672 0 448 0H320C302.328 0 288 14.326 288 32V96H216V8C216 3.578 212.406 0 208 0S200 3.578 200 8V96H88V8C88 3.578 84.406 0 80 0S72 3.578 72 8V96H32C14.328 96 0 110.326 0 128V504C0 508.422 3.594 512 8 512S16 508.422 16 504V128C16 119.162 23.164 112 32 112H304V32C304 23.162 311.164 16 320 16H448C456.836 16 464 23.162 464 32V208H608C616.836 208 624 215.162 624 224V504C624 508.422 627.594 512 632 512S640 508.422 640 504V224C640 206.326 625.672 192 608 192ZM120 168H72C63.188 168 56 175.172 56 184V232C56 240.828 63.188 248 72 248H120C128.812 248 136 240.828 136 232V184C136 175.172 128.812 168 120 168ZM120 231.984C120 232 120 232 120 232H72V184H120V231.984ZM568 296H520C511.188 296 504 303.172 504 312V360C504 368.828 511.188 376 520 376H568C576.812 376 584 368.828 584 360V312C584 303.172 576.812 296 568 296ZM568 359.984C568 360 568 360 568 360H520V312H568V359.984ZM408 72H360C351.188 72 344 79.172 344 88V136C344 144.828 351.188 152 360 152H408C416.812 152 424 144.828 424 136V88C424 79.172 416.812 72 408 72ZM408 135.984C408 136 408 136 408 136H360V88H408V135.984ZM248 168H200C191.188 168 184 175.172 184 184V232C184 240.828 191.188 248 200 248H248C256.812 248 264 240.828 264 232V184C264 175.172 256.812 168 248 168ZM248 231.984C248 232 248 232 248 232H200V184H248V231.984ZM408 328H360C351.188 328 344 335.172 344 344V392C344 400.828 351.188 408 360 408H408C416.812 408 424 400.828 424 392V344C424 335.172 416.812 328 408 328ZM408 391.984C408 392 408 392 408 392H360V344H408V391.984ZM568 424H520C511.188 424 504 431.172 504 440V488C504 496.828 511.188 504 520 504H568C576.812 504 584 496.828 584 488V440C584 431.172 576.812 424 568 424ZM568 487.984C568 488 568 488 568 488H520V440H568V487.984ZM248 424H200C191.188 424 184 431.172 184 440V488C184 496.828 191.188 504 200 504H248C256.812 504 264 496.828 264 488V440C264 431.172 256.812 424 248 424ZM248 487.984C248 488 248 488 248 488H200V440H248V487.984ZM248 296H200C191.188 296 184 303.172 184 312V360C184 368.828 191.188 376 200 376H248C256.812 376 264 368.828 264 360V312C264 303.172 256.812 296 248 296ZM248 359.984C248 360 248 360 248 360H200V312H248V359.984Z"/></svg>