<svg xmlns="http://www.w3.org/2000/svg" viewBox="0 0 512 512"><!-- Font Awesome Pro 6.0.0-alpha2 by @fontawesome - https://fontawesome.com License - https://fontawesome.com/license (Commercial License) --><path d="M456 0H216C185.125 0 160 25.125 160 56V296C160 326.875 185.125 352 216 352H456C486.875 352 512 326.875 512 296V56C512 25.125 486.875 0 456 0ZM496 296C496 318.062 478.062 336 456 336H216C193.938 336 176 318.062 176 296V56C176 33.938 193.938 16 216 16H456C478.062 16 496 33.938 496 56V296ZM344 384C339.578 384 336 387.578 336 392V456C336 478.062 318.062 496 296 496H56C33.938 496 16 478.062 16 456V216C16 193.938 33.938 176 56 176H120C124.422 176 128 172.422 128 168S124.422 160 120 160H56C25.125 160 0 185.125 0 216V456C0 486.875 25.125 512 56 512H296C326.875 512 352 486.875 352 456V392C352 387.578 348.422 384 344 384Z"/></svg>