<svg xmlns="http://www.w3.org/2000/svg" viewBox="0 0 576 512"><!-- Font Awesome Pro 6.0.0-alpha2 by @fontawesome - https://fontawesome.com License - https://fontawesome.com/license (Commercial License) --><path d="M351.902 218.812C342.559 179.797 308.746 152 269.607 152C259.264 152 249.076 154.031 239.232 158.047C220.014 133.781 192.17 120 161.889 120C108.545 120 64.797 163.359 61.938 219.328C25.688 229.812 0 264.422 0 304C0 352.531 38.109 392 84.953 392C89.375 392 92.953 388.422 92.953 384S89.375 376 84.953 376C46.938 376 16 343.703 16 304C16 269.734 39.297 240.062 71.406 233.453L77.562 230.516V224C77.562 175.469 115.389 136 161.889 136C194.484 136 216.162 152.57 234.061 178.25C255.227 167.666 263.105 168 269.607 168C281.559 168 327.604 172.785 338.215 232.344L343.637 233.359C376.402 239.531 400.105 269.234 399.996 304C399.996 343.703 369.059 376 331.043 376H302.201C297.779 376 294.201 379.578 294.201 384S297.779 392 302.201 392H331.043C377.887 392 415.996 352.531 415.996 304.031C416.121 263.453 389.48 228.469 351.902 218.812ZM574.135 218.594C571.088 213.219 565.244 210.438 558.869 211.547C529.541 217.156 499.465 209.453 476.527 190.453C453.824 171.672 440.809 144.078 440.809 114.766C440.809 79.391 460.074 46.531 491.09 29.016C496.434 25.984 499.215 20.125 498.184 14.078C497.152 8.062 492.59 3.469 486.621 2.391C478.262 0.797 469.34 0 460.09 0C382.512 0 319.074 60.578 315.668 137.906C315.48 142.328 318.902 146.062 323.309 146.266C328.012 146.266 331.449 143 331.668 138.625C334.684 69.859 391.105 16 460.09 16C466.762 16 473.215 16.469 479.34 17.375C445.59 38.203 424.809 75.109 424.809 114.766C424.809 148.859 439.949 180.938 466.324 202.781C492.434 224.406 526.416 233.328 558.307 226.906C556.451 229.08 517.219 279.025 446.48 270.625C442.074 270.062 438.168 273.391 437.73 277.781C437.277 282.172 440.496 286.094 444.887 286.531C452.162 287.418 455.568 288 460.09 288C503.996 288 545.01 268.594 572.432 234.938C576.479 230.312 577.135 223.891 574.135 218.594ZM252 376H150.875L253.75 269.562C256.813 266.375 256.75 261.312 253.563 258.25C250.375 255.219 245.312 255.281 242.25 258.438L126.25 378.438C124.031 380.75 123.375 384.156 124.625 387.125S128.781 392 132 392H233.125L130.25 498.438C127.187 501.625 127.25 506.688 130.437 509.75C132 511.25 134 512 136 512C138.094 512 140.188 511.188 141.75 509.562L257.75 389.562C259.969 387.25 260.625 383.844 259.375 380.875S255.219 376 252 376Z"/></svg>