<svg xmlns="http://www.w3.org/2000/svg" viewBox="0 0 640 512"><!-- Font Awesome Pro 6.0.0-alpha2 by @fontawesome - https://fontawesome.com License - https://fontawesome.com/license (Commercial License) --><path d="M632 248H455.191C450.957 176.785 392.246 120 320 120S189.043 176.785 184.809 248H8C3.578 248 0 251.594 0 256S3.578 264 8 264H184.809C189.043 335.215 247.754 392 320 392S450.957 335.215 455.191 264H632C636.422 264 640 260.406 640 256S636.422 248 632 248ZM320 376C253.828 376 200 322.156 200 256S253.828 136 320 136S440 189.844 440 256S386.172 376 320 376Z"/></svg>