<svg xmlns="http://www.w3.org/2000/svg" viewBox="0 0 384 512"><!-- Font Awesome Pro 6.0.0-alpha2 by @fontawesome - https://fontawesome.com License - https://fontawesome.com/license (Commercial License) --><path d="M374.537 115.25L266.766 9.375C260.639 3.375 252.264 0 243.637 0H140.363C131.736 0 123.361 3.375 117.234 9.375L9.463 115.25C1.461 123.125 -1.789 134.625 0.961 145.625L88.103 487.75C91.728 502 104.732 512 119.736 512H264.389C279.268 512 292.271 502 295.896 487.75L383.039 145.625C385.789 134.625 382.539 123.125 374.537 115.25ZM280.391 483.805C278.564 490.984 271.984 496 264.389 496H119.736C112.068 496 105.436 490.984 103.607 483.801L16.482 141.744C15.107 136.24 16.678 130.598 20.676 126.664L128.43 20.807C131.549 17.752 135.898 16 140.363 16H243.637C248.102 16 252.451 17.752 255.553 20.789L363.314 126.654C367.322 130.598 368.893 136.24 367.533 141.676L280.391 483.805ZM280 184H200V104C200 99.578 196.406 96 192 96S184 99.578 184 104V184H104C99.594 184 96 187.578 96 192S99.594 200 104 200H184V344C184 348.422 187.594 352 192 352S200 348.422 200 344V200H280C284.406 200 288 196.422 288 192S284.406 184 280 184Z"/></svg>