<svg xmlns="http://www.w3.org/2000/svg" viewBox="0 0 448 512"><!-- Font Awesome Pro 6.0.0-alpha2 by @fontawesome - https://fontawesome.com License - https://fontawesome.com/license (Commercial License) --><path d="M406.537 115.25L298.766 9.375C292.639 3.375 284.264 0 275.637 0H172.363C163.736 0 155.361 3.375 149.234 9.375L41.463 115.25C33.461 123.125 30.211 134.625 32.961 145.625L120.103 487.75C123.728 502 136.732 512 151.736 512H296.389C311.268 512 324.271 502 327.896 487.75L415.039 145.625C417.789 134.625 414.539 123.125 406.537 115.25ZM312.391 483.805C310.564 490.984 303.984 496 296.389 496H151.736C144.068 496 137.436 490.984 135.607 483.801L48.482 141.744C47.107 136.24 48.678 130.598 52.676 126.664L160.43 20.807C163.549 17.752 167.898 16 172.363 16H275.637C280.102 16 284.451 17.752 287.553 20.789L395.314 126.654C399.322 130.598 400.893 136.24 399.533 141.676L312.391 483.805Z"/></svg>