<svg xmlns="http://www.w3.org/2000/svg" viewBox="0 0 512 512"><!-- Font Awesome Pro 6.0.0-alpha2 by @fontawesome - https://fontawesome.com License - https://fontawesome.com/license (Commercial License) --><path d="M256 32C114.594 32 0 125.094 0 240C0 289.594 21.406 335 57 370.703C44.5 421.094 2.688 466 2.188 466.5C0 468.797 -0.594 472.203 0.688 475.203C2 478.203 4.812 480 8 480C74.312 480 124 448.203 148.594 428.594C181.312 440.906 217.594 448 256 448C397.406 448 512 354.906 512 240S397.406 32 256 32ZM256 432C220.879 432 186.641 425.816 154.23 413.619L145.723 410.418L138.617 416.084C118.418 432.189 78.477 458.119 25.957 463.143C40.395 444.848 63.375 411.461 72.531 374.555L74.703 365.797L68.332 359.406C34.098 325.066 16 283.775 16 240C16 134.131 123.664 48 256 48S496 134.131 496 240S388.336 432 256 432ZM344 232H264V152C264 147.58 260.422 144 256 144S248 147.58 248 152V232H168C163.578 232 160 235.58 160 240C160 244.422 163.578 248 168 248H248V328C248 332.422 251.578 336 256 336S264 332.42 264 328V248H344C348.422 248 352 244.42 352 240S348.422 232 344 232Z"/></svg>