<svg xmlns="http://www.w3.org/2000/svg" viewBox="0 0 512 512"><!-- Font Awesome Pro 6.0.0-alpha2 by @fontawesome - https://fontawesome.com License - https://fontawesome.com/license (Commercial License) --><path d="M256 31.999C114.594 31.999 0 125.093 0 239.999C0 289.593 21.406 334.999 57 370.702C44.5 421.093 2.687 465.999 2.187 466.499C0 468.796 -0.594 472.202 0.687 475.202C2 478.202 4.812 479.999 8 479.999C74.313 479.999 124 448.202 148.594 428.593C181.312 440.905 217.594 447.999 256 447.999C397.406 447.999 512 354.905 512 239.999S397.406 31.999 256 31.999ZM256 431.999C220.879 431.999 186.641 425.815 154.23 413.618L145.723 410.417L138.617 416.083C118.418 432.188 78.477 458.118 25.957 463.141C40.395 444.846 63.375 411.46 72.531 374.553L74.703 365.796L68.332 359.405C34.098 325.065 16 283.774 16 239.999C16 134.13 123.664 47.999 256 47.999S496 134.13 496 239.999S388.336 431.999 256 431.999ZM376 183.999H136C131.578 183.999 128 187.577 128 191.999S131.578 199.999 136 199.999H376C380.422 199.999 384 196.421 384 191.999S380.422 183.999 376 183.999ZM280 279.999H136C131.578 279.999 128 283.577 128 287.999S131.578 295.999 136 295.999H280C284.422 295.999 288 292.421 288 287.999S284.422 279.999 280 279.999Z"/></svg>