<svg xmlns="http://www.w3.org/2000/svg" viewBox="0 0 512 512"><!-- Font Awesome Pro 6.0.0-alpha2 by @fontawesome - https://fontawesome.com License - https://fontawesome.com/license (Commercial License) --><path d="M256 31.999C114.594 31.999 0 125.093 0 239.999C0 289.593 21.406 334.999 57 370.702C44.5 421.093 2.687 465.999 2.187 466.499C0 468.796 -0.594 472.202 0.687 475.202C1.999 478.202 4.812 479.999 8 479.999C74.313 479.999 124 448.202 148.594 428.593C181.312 440.905 217.594 447.999 256 447.999C397.406 447.999 512 354.905 512 239.999S397.406 31.999 256 31.999ZM256 431.999C220.879 431.999 186.641 425.815 154.23 413.618L145.723 410.417L138.617 416.083C118.418 432.188 78.477 458.118 25.957 463.141C40.395 444.846 63.375 411.46 72.531 374.553L74.703 365.796L68.332 359.405C34.098 325.065 16 283.774 16 239.999C16 134.13 123.664 47.999 256 47.999S496 134.13 496 239.999S388.336 431.999 256 431.999ZM345.609 139.657C339.359 133.409 331.168 130.284 322.977 130.284C314.789 130.284 306.602 133.407 300.352 139.655L159.852 280.149C159.203 281.366 158.594 282.505 157.941 283.721L146.418 341.346C145.473 346.081 149.223 349.714 153.316 349.714C153.762 349.714 154.211 349.671 154.66 349.581L212.277 338.057C213.496 337.405 214.637 336.794 215.859 336.141L356.355 195.665C368.852 183.169 368.855 162.909 356.359 150.411L345.609 139.657ZM206.469 322.903L164.754 331.245L173.094 289.536L275.941 186.69L309.32 220.069L206.469 322.903ZM345.043 184.35L320.633 208.757L287.254 175.378L311.664 150.968C314.687 147.946 318.703 146.284 322.977 146.284S331.273 147.948 334.293 150.97L345.047 161.723C348.066 164.747 349.73 168.764 349.73 173.038S348.062 181.329 345.043 184.35Z"/></svg>