<svg xmlns="http://www.w3.org/2000/svg" viewBox="0 0 512 512"><!-- Font Awesome Pro 6.0.0-alpha2 by @fontawesome - https://fontawesome.com License - https://fontawesome.com/license (Commercial License) --><path d="M152 64C147.594 64 144 67.578 144 72V208H8C3.594 208 0 211.578 0 216S3.594 224 8 224H152C156.406 224 160 220.422 160 216V72C160 67.578 156.406 64 152 64ZM360 224H504C508.406 224 512 220.422 512 216S508.406 208 504 208H368V72C368 67.578 364.406 64 360 64S352 67.578 352 72V216C352 220.422 355.594 224 360 224ZM504 288H360C355.594 288 352 291.578 352 296V440C352 444.422 355.594 448 360 448S368 444.422 368 440V304H504C508.406 304 512 300.422 512 296S508.406 288 504 288ZM152 288H8C3.594 288 0 291.578 0 296S3.594 304 8 304H144V440C144 444.422 147.594 448 152 448S160 444.422 160 440V296C160 291.578 156.406 288 152 288Z"/></svg>