<svg xmlns="http://www.w3.org/2000/svg" viewBox="0 0 384 512"><!-- Font Awesome Pro 6.0.0-alpha2 by @fontawesome - https://fontawesome.com License - https://fontawesome.com/license (Commercial License) --><path d="M224 0H160C71.625 0 0 71.625 0 160V352C0 440.375 71.625 512 160 512H224C312.375 512 384 440.375 384 352V160C384 71.625 312.375 0 224 0ZM368 352C368 431.402 303.402 496 224 496H160C80.598 496 16 431.402 16 352V160C16 80.598 80.598 16 160 16H224C303.402 16 368 80.598 368 160V352ZM192 96C174.375 96 160 110.375 160 128V160C160 177.625 174.375 192 192 192S224 177.625 224 160V128C224 110.375 209.625 96 192 96ZM208 160C208 168.822 200.822 176 192 176S176 168.822 176 160V128C176 119.178 183.178 112 192 112S208 119.178 208 128V160Z"/></svg>