<svg xmlns="http://www.w3.org/2000/svg" viewBox="0 0 640 512"><!-- Font Awesome Pro 6.0.0-alpha2 by @fontawesome - https://fontawesome.com License - https://fontawesome.com/license (Commercial License) --><path d="M160 288H480C497.6 288 512 273.6 512 256V32C512 14.4 497.6 0 480 0H160C142.4 0 128 14.4 128 32V256C128 273.6 142.4 288 160 288ZM256 16H384V160L320 128L256 160V16ZM144 32C144 23.178 151.178 16 160 16H240V160C240 165.545 242.871 170.695 247.588 173.611C250.158 175.199 253.074 176 256 176C258.445 176 260.896 175.439 263.156 174.311L320 145.889L376.844 174.311C379.104 175.439 381.555 176 384 176C386.926 176 389.842 175.199 392.412 173.611C397.129 170.695 400 165.545 400 160V16H480C488.822 16 496 23.178 496 32V256C496 264.822 488.822 272 480 272H160C151.178 272 144 264.822 144 256V32ZM112 368C85.375 368 64 389.375 64 416S85.375 464 112 464S160 442.625 160 416S138.625 368 112 368ZM112 448C94.355 448 80 433.645 80 416S94.355 384 112 384S144 398.355 144 416S129.645 448 112 448ZM320 368C293.375 368 272 389.375 272 416S293.375 464 320 464S368 442.625 368 416S346.625 368 320 368ZM320 448C302.355 448 288 433.645 288 416S302.355 384 320 384S352 398.355 352 416S337.645 448 320 448ZM528 368C501.375 368 480 389.375 480 416S501.375 464 528 464S576 442.625 576 416S554.625 368 528 368ZM528 448C510.355 448 496 433.645 496 416S510.355 384 528 384S560 398.355 560 416S545.645 448 528 448ZM544 320H96C42.98 320 0 362.98 0 416S42.98 512 96 512H544C597.02 512 640 469.02 640 416S597.02 320 544 320ZM544 496H96C51.889 496 16 460.111 16 416S51.889 336 96 336H544C588.111 336 624 371.889 624 416S588.111 496 544 496Z"/></svg>