<svg xmlns="http://www.w3.org/2000/svg" viewBox="0 0 512 512"><!-- Font Awesome Pro 6.0.0-alpha2 by @fontawesome - https://fontawesome.com License - https://fontawesome.com/license (Commercial License) --><path d="M502.629 102.625L409.371 9.375C403.371 3.371 395.23 0 386.746 0H272C245.492 0 224 21.492 224 48V336C224 362.508 245.492 384 272 384H464C490.508 384 512 362.508 512 336V125.254C512 116.766 508.629 108.629 502.629 102.625ZM400 22.629L489.375 112H424C410.781 112 400 101.234 400 88V22.629ZM496 336C496 353.645 481.645 368 464 368H272C254.355 368 240 353.645 240 336V48C240 30.355 254.355 16 272 16H384V88C384 110.062 401.938 128 424 128H496V336ZM280 448C275.582 448 272 451.582 272 456V464C272 481.672 257.674 496 240 496H48C30.328 496 16 481.672 16 464V176C16 158.328 30.328 144 48 144H152C156.418 144 160 140.418 160 136S156.418 128 152 128H48C21.49 128 0 149.492 0 176V464C0 490.508 21.49 512 48 512H240C266.51 512 288 490.508 288 464V456C288 451.582 284.418 448 280 448Z"/></svg>