<svg xmlns="http://www.w3.org/2000/svg" viewBox="0 0 576 512"><!-- Font Awesome Pro 6.0.0-alpha2 by @fontawesome - https://fontawesome.com License - https://fontawesome.com/license (Commercial License) --><path d="M152 352H72C67.582 352 64 355.582 64 360S67.582 368 72 368H152C156.418 368 160 364.418 160 360S156.418 352 152 352ZM512 32H64C28.656 32 0 60.654 0 96V416C0 451.346 28.656 480 64 480H512C547.344 480 576 451.346 576 416V96C576 60.654 547.344 32 512 32ZM560 416C560 442.467 538.469 464 512 464H64C37.531 464 16 442.467 16 416V96C16 69.533 37.531 48 64 48H512C538.469 48 560 69.533 560 96V416ZM344 352H200C195.582 352 192 355.582 192 360S195.582 368 200 368H344C348.418 368 352 364.418 352 360S348.418 352 344 352Z"/></svg>