<svg xmlns="http://www.w3.org/2000/svg" viewBox="0 0 576 512"><!-- Font Awesome Pro 6.0.0-alpha2 by @fontawesome - https://fontawesome.com License - https://fontawesome.com/license (Commercial License) --><path d="M344 384H200C195.582 384 192 387.582 192 392S195.582 400 200 400H344C348.418 400 352 396.418 352 392S348.418 384 344 384ZM512 32H64C28.656 32 0 60.654 0 96V416C0 451.346 28.656 480 64 480H512C547.344 480 576 451.346 576 416V96C576 60.654 547.344 32 512 32ZM560 416C560 442.467 538.469 464 512 464H64C37.531 464 16 442.467 16 416V96C16 69.533 37.531 48 64 48H512C538.469 48 560 69.533 560 96V416ZM152 384H72C67.582 384 64 387.582 64 392S67.582 400 72 400H152C156.418 400 160 396.418 160 392S156.418 384 152 384ZM496 96H400C391.164 96 384 103.164 384 112V176C384 184.836 391.164 192 400 192H496C504.836 192 512 184.836 512 176V112C512 103.164 504.836 96 496 96ZM496 176H400V112H496V176ZM496 256H432C423.164 256 416 263.164 416 272V304C416 312.836 423.164 320 432 320H496C504.836 320 512 312.836 512 304V272C512 263.164 504.836 256 496 256ZM496 304H432V272H496V304ZM368 256H240C231.164 256 224 263.164 224 272V304C224 312.836 231.164 320 240 320H368C376.836 320 384 312.836 384 304V272C384 263.164 376.836 256 368 256ZM368 304H240V272H368V304ZM192 272C192 263.164 184.836 256 176 256H80C71.164 256 64 263.164 64 272V304C64 312.836 71.164 320 80 320H176C184.836 320 192 312.836 192 304V272ZM176 304H80V272H176V304Z"/></svg>