<svg xmlns="http://www.w3.org/2000/svg" viewBox="0 0 384 512"><!-- Font Awesome Pro 6.0.0-alpha2 by @fontawesome - https://fontawesome.com License - https://fontawesome.com/license (Commercial License) --><path d="M344 128H200V8C200 3.578 196.406 0 192 0S184 3.578 184 8V128H40C17.938 128 0 145.938 0 168V192C0 196.422 3.594 200 8 200S16 196.422 16 192V168C16 154.766 26.781 144 40 144H128V424C128 425.641 128.5 427.25 129.438 428.594L185.438 508.594C186.938 510.719 189.375 512 192 512S197.062 510.719 198.562 508.594L254.562 428.594C255.5 427.25 256 425.641 256 424V144H344C357.219 144 368 154.766 368 168V192C368 196.422 371.594 200 376 200S384 196.422 384 192V168C384 145.938 366.062 128 344 128ZM240 421.484L192 490.047L144 421.484V144H240V421.484Z"/></svg>