<svg xmlns="http://www.w3.org/2000/svg" viewBox="0 0 512 512"><!-- Font Awesome Pro 6.0.0-alpha2 by @fontawesome - https://fontawesome.com License - https://fontawesome.com/license (Commercial License) --><path d="M416 143.999C407.25 143.999 400 151.249 400 159.999S407.25 175.999 416 175.999S432 168.749 432 159.999S424.75 143.999 416 143.999ZM483 125.578C482.969 125.562 482.906 125.546 482.844 125.531L393.586 100.146L396.75 98.562C412.938 90.484 426.781 78.265 436.813 63.218L454.656 36.437C457.094 32.765 456.125 27.796 452.438 25.343S443.781 23.874 441.344 27.562L423.5 54.343C415 67.062 403.281 77.406 389.625 84.249L369.75 94.187L313.844 80.21L321.594 69.859C330.875 57.484 336 42.14 336 26.671V7.999C336 3.578 332.406 -0.001 328 -0.001S320 3.578 320 7.999V26.671C320 38.703 316.031 50.624 308.781 60.265L297.594 75.203C297.395 75.466 297.527 75.812 297.367 76.091L274.188 70.296C263.469 67.624 256 58.046 256 47.015V7.999C256 3.578 252.406 -0.001 248 -0.001S240 3.578 240 7.999V47.015C240 65.406 252.469 81.359 270.312 85.828L343.562 104.14C333.438 109.734 324.906 118.316 319.719 129.531L290.875 191.999H72C32.312 191.999 0 224.296 0 263.999V319.999C0 322.953 1.625 325.656 4.219 327.046C6.781 328.421 9.938 328.296 12.438 326.671L32 313.671V338.171L20.656 368.546C15.469 382.265 14.594 397.062 18.219 411.687L43 493.906C45.813 504.562 55.375 511.999 66.25 511.999H122.125C129.531 511.999 136.406 508.656 141 502.812C145.563 496.953 147.188 489.437 145.281 481.843L119.688 396.046L136.281 351.999H280V487.999C280 501.234 290.781 511.999 304 511.999H360C373.219 511.999 384 501.234 384 487.999V289.89L412.938 231.999H472C494.063 231.999 512 214.062 512 191.999V164.124C512 146.437 500.062 130.593 483 125.578ZM496 191.999C496 205.234 485.219 215.999 472 215.999H408C404.969 215.999 402.188 217.718 400.844 220.421L368.844 284.421C368.281 285.531 368 286.765 368 287.999V487.999C368 492.406 364.406 495.999 360 495.999H304C299.594 495.999 296 492.406 296 487.999V351.999H304C308.406 351.999 312 348.421 312 343.999S308.406 335.999 304 335.999H112C107.594 335.999 104 339.578 104 343.999S107.594 351.999 112 351.999H119.172L103.75 392.921C103.156 394.562 103.094 396.359 103.594 398.031L129.844 486.046C130.469 488.468 129.938 490.984 128.375 492.953C126.875 494.89 124.594 495.999 122.125 495.999H66.25C62.625 495.999 59.438 493.468 58.406 489.562L33.656 407.453C30.906 396.374 31.594 384.874 35.625 374.171L47.5 342.421C47.844 341.531 48 340.578 48 339.624V298.749C48 295.796 46.375 293.093 43.781 291.703C41.188 290.296 38.031 290.453 35.562 292.078L16 305.078V263.999C16 233.124 41.125 207.999 72 207.999H296C299.125 207.999 301.969 206.187 303.25 203.343L334.219 136.234C342.469 118.437 362.156 109.312 381.094 114.39L478.562 140.953C488.844 143.999 496 153.515 496 164.124V191.999Z"/></svg>