<svg xmlns="http://www.w3.org/2000/svg" viewBox="0 0 576 512"><!-- Font Awesome Pro 6.0.0-alpha2 by @fontawesome - https://fontawesome.com License - https://fontawesome.com/license (Commercial License) --><path d="M512 64H205.25C188.25 64 172 70.75 160 82.75L9.375 233.375C-3.125 245.875 -3.125 266.125 9.375 278.625L160 429.25C172 441.25 188.25 448 205.25 448H512C547.375 448 576 419.375 576 384V128C576 92.625 547.375 64 512 64ZM560 384C560 410.467 538.467 432 512 432H205.25C192.436 432 180.383 427.006 171.314 417.936L20.689 267.311C17.666 264.287 16 260.27 16 256C16 251.729 17.666 247.713 20.689 244.688L171.314 94.063C180.383 84.994 192.436 80 205.25 80H512C538.467 80 560 101.533 560 128V384ZM429.656 178.344C426.531 175.219 421.469 175.219 418.344 178.344L352 244.688L285.656 178.344C282.531 175.219 277.469 175.219 274.344 178.344S271.219 186.531 274.344 189.656L340.687 256L274.344 322.344C271.219 325.469 271.219 330.531 274.344 333.656C277.471 336.783 282.529 336.783 285.656 333.656L352 267.312L418.344 333.656C421.471 336.783 426.529 336.783 429.656 333.656C432.781 330.531 432.781 325.469 429.656 322.344L363.312 256L429.656 189.656C432.781 186.531 432.781 181.469 429.656 178.344Z"/></svg>