<svg xmlns="http://www.w3.org/2000/svg" viewBox="0 0 576 512"><!-- Font Awesome Pro 6.0.0-alpha2 by @fontawesome - https://fontawesome.com License - https://fontawesome.com/license (Commercial License) --><path d="M186.344 130.344C183.219 133.469 183.219 138.531 186.344 141.656L282.34 237.652C283.787 239.102 285.787 240 288 240S292.213 239.102 293.66 237.652L389.656 141.656C392.781 138.531 392.781 133.469 389.656 130.344S381.469 127.219 378.344 130.344L296 212.688V8C296 3.578 292.422 0 288 0S280 3.578 280 8V212.688L197.656 130.344C194.531 127.219 189.469 127.219 186.344 130.344ZM528 0H360C355.582 0 352 3.582 352 8S355.582 16 360 16H528C545.674 16 560 30.326 560 48V368C560 385.672 545.674 400 528 400H48C30.326 400 16 385.672 16 368V48C16 30.326 30.326 16 48 16H216C220.418 16 224 12.418 224 8S220.418 0 216 0H48C21.49 0 0 21.49 0 48V368C0 394.51 21.49 416 48 416H228.91L202.242 496H136C131.594 496 128 499.578 128 504S131.594 512 136 512H440C444.406 512 448 508.422 448 504S444.406 496 440 496H373.785L347.117 416H528C554.51 416 576 394.51 576 368V48C576 21.49 554.51 0 528 0ZM356.91 496H219.117L245.785 416H330.242L356.91 496ZM216 80C220.418 80 224 76.418 224 72S220.418 64 216 64H64V288H512V64H360C355.582 64 352 67.582 352 72S355.582 80 360 80H496V272H80V80H216Z"/></svg>