<svg xmlns="http://www.w3.org/2000/svg" viewBox="0 0 640 512"><!-- Font Awesome Pro 6.0.0-alpha2 by @fontawesome - https://fontawesome.com License - https://fontawesome.com/license (Commercial License) --><path d="M576 32H64C28.652 32 0 60.654 0 96V416C0 451.346 28.652 480 64 480H576C611.348 480 640 451.346 640 416V96C640 60.654 611.348 32 576 32ZM392 48H488V192H392V48ZM392 208H488V344H392V208ZM264 48H376V344H264V48ZM152 48H248V192H152V48ZM152 208H248V344H152V208ZM16 96C16 69.533 37.531 48 64 48H136V344H16V96ZM312 464H64C37.531 464 16 442.467 16 416V360H312V464ZM624 416C624 442.467 602.469 464 576 464H328V360H624V416ZM624 344H504V48H576C602.469 48 624 69.533 624 96V344Z"/></svg>