<svg xmlns="http://www.w3.org/2000/svg" viewBox="0 0 576 512"><!-- Font Awesome Pro 6.0.0-alpha2 by @fontawesome - https://fontawesome.com License - https://fontawesome.com/license (Commercial License) --><path d="M106.98 138.984C115.17 138.984 123.359 135.859 129.607 129.611C142.104 117.113 142.104 96.852 129.607 84.355C123.359 78.107 115.17 74.982 106.98 74.982C98.789 74.982 90.6 78.107 84.352 84.355C71.855 96.852 71.855 117.113 84.352 129.611C90.6 135.859 98.789 138.984 106.98 138.984ZM95.666 95.67C98.688 92.646 102.705 90.982 106.979 90.982C111.254 90.982 115.271 92.648 118.295 95.67C124.531 101.908 124.531 112.059 118.295 118.297C115.271 121.318 111.254 122.982 106.979 122.982C102.705 122.982 98.688 121.318 95.666 118.299C92.645 115.275 90.979 111.258 90.979 106.982C90.979 102.709 92.645 98.691 95.666 95.67ZM288 64.002C305.672 64.002 320 49.676 320 32.002S305.672 0.002 288 0.002C270.326 0.002 256 14.328 256 32.002S270.326 64.002 288 64.002ZM288 16.002C296.822 16.002 304 23.18 304 32.002S296.822 48.002 288 48.002S272 40.824 272 32.002S279.178 16.002 288 16.002ZM544 256.002C526.326 256.002 512 270.33 512 288.002C512 305.676 526.326 320.002 544 320.002S576 305.676 576 288.002C576 270.33 561.674 256.002 544 256.002ZM544 304.002C535.178 304.002 528 296.824 528 288.002S535.178 272.002 544 272.002S560 279.18 560 288.002S552.822 304.002 544 304.002ZM469.02 437.021C460.83 437.021 452.641 440.146 446.393 446.395C433.895 458.893 433.895 479.154 446.393 491.65C452.641 497.898 460.83 501.023 469.02 501.023S485.398 497.898 491.646 491.65C504.145 479.154 504.145 458.893 491.646 446.395C485.398 440.146 477.209 437.021 469.02 437.021ZM480.334 480.336C477.311 483.357 473.293 485.021 469.02 485.021S460.727 483.357 457.705 480.336S453.02 473.297 453.02 469.023C453.02 464.748 454.684 460.73 457.705 457.709C460.727 454.686 464.744 453.021 469.02 453.021C473.293 453.021 477.311 454.686 480.332 457.707C483.355 460.73 485.02 464.748 485.02 469.023C485.02 473.297 483.355 477.314 480.334 480.336ZM32 256.002C14.326 256.002 0 270.328 0 288.002S14.326 320.002 32 320.002S64 305.676 64 288.002S49.674 256.002 32 256.002ZM32 304.002C23.178 304.002 16 296.824 16 288.002S23.178 272.002 32 272.002S48 279.18 48 288.002S40.822 304.002 32 304.002ZM106.98 437.021C98.789 437.021 90.6 440.146 84.352 446.395C71.855 458.893 71.855 479.154 84.352 491.65C90.6 497.898 98.789 501.023 106.98 501.023C115.17 501.023 123.359 497.898 129.607 491.65C142.104 479.154 142.104 458.893 129.607 446.395C123.359 440.146 115.17 437.021 106.98 437.021ZM118.295 480.336C115.271 483.357 111.254 485.021 106.979 485.021C102.705 485.021 98.688 483.357 95.666 480.336S90.979 473.297 90.979 469.023C90.979 464.748 92.645 460.73 95.666 457.709C98.688 454.686 102.705 453.021 106.979 453.021C111.254 453.021 115.271 454.687 118.293 457.707C124.531 463.947 124.531 474.098 118.295 480.336ZM401.137 174.863C338.652 112.381 237.346 112.381 174.861 174.865S112.377 338.656 174.861 401.139C237.346 463.625 338.652 463.625 401.137 401.141S463.621 237.35 401.137 174.863ZM389.822 389.828C335.613 444.035 248.875 445.377 192.402 394.91L293.654 293.66C296.781 290.533 296.781 285.473 293.654 282.346S285.467 279.219 282.34 282.346L181.09 383.598C130.623 327.125 131.967 240.387 186.174 186.18C242.32 130.033 333.676 130.031 389.822 186.178S445.969 333.682 389.822 389.828ZM469.02 74.982C460.83 74.982 452.641 78.107 446.393 84.355C433.895 96.852 433.895 117.113 446.393 129.611C452.641 135.859 460.83 138.984 469.02 138.984S485.398 135.859 491.646 129.611C504.145 117.113 504.145 96.852 491.646 84.355C485.398 78.107 477.209 74.982 469.02 74.982ZM480.334 118.297C477.311 121.318 473.293 122.982 469.02 122.982S460.727 121.318 457.705 118.299C454.684 115.275 453.02 111.258 453.02 106.982C453.02 102.709 454.684 98.691 457.705 95.67C460.727 92.646 464.744 90.982 469.02 90.982C473.293 90.982 477.311 92.646 480.334 95.67C483.355 98.691 485.02 102.709 485.02 106.982C485.02 111.258 483.355 115.275 480.334 118.297Z"/></svg>