<svg xmlns="http://www.w3.org/2000/svg" viewBox="0 0 512 512"><!-- Font Awesome Pro 6.0.0-alpha2 by @fontawesome - https://fontawesome.com License - https://fontawesome.com/license (Commercial License) --><path d="M497.97 222.129L289.871 14.029C280.517 4.676 268.259 0 256 0C243.742 0 231.482 4.676 222.128 14.029L14.029 222.129C-4.676 240.834 -4.676 271.164 14.029 289.871L222.128 497.969C231.482 507.322 243.742 512 256 512C268.259 512 280.517 507.322 289.871 497.969L497.97 289.871C516.675 271.164 516.675 240.834 497.97 222.129ZM486.658 278.557L278.558 486.656C272.533 492.682 264.521 496 256 496C247.48 496 239.468 492.682 233.443 486.654L25.343 278.559C12.906 266.119 12.906 245.881 25.343 233.443L233.443 25.344C239.468 19.318 247.48 16 256 16C264.521 16 272.533 19.318 278.558 25.344L486.658 233.443C499.095 245.881 499.093 266.119 486.658 278.557Z"/></svg>