<svg xmlns="http://www.w3.org/2000/svg" viewBox="0 0 448 512"><!-- Font Awesome Pro 6.0.0-alpha2 by @fontawesome - https://fontawesome.com License - https://fontawesome.com/license (Commercial License) --><path d="M431.875 116.125L239.875 4.312C235.812 1.938 228.719 0 224 0S212.188 1.938 208.125 4.312L16.125 116.125C6.156 121.938 0 132.75 0 144.469V367.562C0 379.25 6.156 390.062 16.125 395.875L208.125 507.687C210.203 508.902 213.062 509.979 216 510.764V512H232V510.764C234.938 509.979 237.797 508.902 239.875 507.687L431.875 395.875C441.844 390.062 448 379.25 448 367.562V144.469C448 132.75 441.844 121.938 431.875 116.125ZM216 493.76L24.184 382.053C19.137 379.109 16 373.557 16 367.562V146.361L216 260.635V493.76ZM224 246.795L22.5 131.664C23.125 131.154 23.469 130.363 24.176 129.951L216.199 18.125C217.832 17.172 222.133 16 224 16S230.168 17.172 231.824 18.139L423.816 129.947C424.523 130.361 424.867 131.154 425.5 131.666L224 246.795ZM432 367.562C432 373.557 428.863 379.109 423.824 382.049L232 493.76V260.635L432 146.361V367.562Z "></path></svg>