<svg xmlns="http://www.w3.org/2000/svg" viewBox="0 0 640 512"><!-- Font Awesome Pro 6.0.0-alpha2 by @fontawesome - https://fontawesome.com License - https://fontawesome.com/license (Commercial License) --><path d="M543.999 342.074V64H194.159L214.288 80H527.999V329.355L543.999 342.074ZM559.999 16C577.644 16 591.999 30.355 591.999 48V368C591.999 371.734 591.048 375.197 589.867 378.531L602.988 388.961C606.097 382.604 607.999 375.553 607.999 368V48C607.999 21.5 586.499 0 559.999 0H113.642L133.771 16H559.999ZM471.999 496H405.784L379.117 416H405.57L385.441 400H79.999C62.355 400 47.999 385.645 47.999 368V131.775L31.999 119.057V368C31.999 394.5 53.499 416 79.999 416H260.909L234.242 496H167.999C163.593 496 159.999 499.578 159.999 504S163.593 512 167.999 512H471.999C476.406 512 479.999 508.422 479.999 504S476.406 496 471.999 496ZM251.117 496L277.784 416H362.242L388.909 496H251.117ZM95.999 169.93V352H325.054L304.925 336H111.999V182.646L95.999 169.93ZM636.98 497.734L12.988 1.73C11.525 0.566 9.771 0 8.025 0C5.673 0 3.335 1.027 1.738 3.012C-1.012 6.48 -0.434 11.512 3.019 14.262L627.011 510.266C628.495 511.438 630.245 512 631.995 512C634.339 512 636.683 510.969 638.261 508.984C641.011 505.516 640.433 500.484 636.98 497.734Z"/></svg>