<svg xmlns="http://www.w3.org/2000/svg" viewBox="0 0 640 512"><!-- Font Awesome Pro 6.0.0-alpha2 by @fontawesome - https://fontawesome.com License - https://fontawesome.com/license (Commercial License) --><path d="M25.07 159.983L339.738 159.982C342.176 159.982 344.484 158.863 345.982 156.94C346.024 156.886 346.066 156.833 346.108 156.778C350.164 151.575 346.462 143.984 339.864 143.984H296.018V47.998H411.772L418.82 76.182C419.87 80.382 424.083 82.912 428.297 81.912C428.349 81.9 428.401 81.888 428.453 81.875C432.759 80.868 435.423 76.591 434.351 72.302L428.273 47.998H529.19C532.75 47.998 535.878 50.356 536.855 53.778L552.837 109.702C553.638 112.501 556.009 114.462 558.863 115.045C559.023 115.077 559.182 115.11 559.342 115.144C564.982 116.347 569.942 111.374 568.357 105.829L552.231 49.404C549.287 39.102 539.869 32 529.153 32H46.868C36.161 32 26.751 39.097 23.809 49.39L0.945 129.393C-1.443 137.733 0.743 146.521 6.971 152.88C11.665 157.673 18.361 159.983 25.07 159.983ZM280.018 47.998V143.984H140.262L164.263 47.998H280.018ZM16.32 133.767L39.181 53.778C40.165 50.372 43.321 47.998 46.868 47.998H147.763L123.762 143.984H24.024C21.492 143.984 19.164 142.828 17.633 140.797C16.102 138.766 15.633 136.204 16.32 133.767ZM297.622 420.064C296.227 417.542 293.62 415.946 290.738 415.946H77.979L47.931 198.883C47.321 194.509 43.103 191.696 38.915 192.04C34.54 192.665 31.477 196.696 32.087 201.07L38.579 247.97H8.008C3.586 247.97 0.007 251.563 0.007 255.969C0.007 260.374 3.586 263.968 8.008 263.968H40.009C40.298 263.968 40.47 263.69 40.751 263.661L63.088 425.039C63.636 428.997 67.019 431.944 71.016 431.944H96.011V471.939C96.011 476.344 99.589 479.937 104.011 479.937S112.011 476.344 112.011 471.939V431.944H290.828C296.859 431.944 300.637 425.499 297.712 420.226C297.682 420.172 297.652 420.118 297.622 420.064ZM551.012 268.217C549.699 265.999 547.387 264.53 544.793 264.311C542.293 263.999 539.668 265.155 537.996 267.123L506.698 304.306C491.01 283.465 452.493 232.41 448.649 227.941C447.133 226.16 444.914 225.161 442.586 225.161C440.289 224.911 437.867 226.285 436.336 228.16C406.069 265.967 387.678 291.058 387.678 320.835C387.678 325.24 391.256 328.834 395.678 328.834C400.1 328.834 403.678 325.24 403.678 320.835C403.678 299.744 415.226 280.715 442.539 246.064C454.508 261.687 481.212 297.026 499.963 321.96C501.432 323.897 503.698 325.084 506.135 325.147C508.432 324.928 510.901 324.147 512.479 322.303L542.777 286.308C543.309 287.308 543.824 288.277 544.34 289.245C560.95 322.147 552.746 362.079 525.308 382.107C511.995 391.731 496.369 396.824 480.119 396.824C475.697 396.824 472.118 400.417 472.118 404.823S475.697 412.822 480.119 412.822C499.76 412.822 518.62 406.698 534.714 395.074C568.45 370.422 578.716 321.835 558.575 281.965C556.262 277.528 553.825 272.998 551.012 268.217ZM553.028 163.7C549.965 161.013 545.402 161.013 542.34 163.7C530.777 174.074 519.87 185.01 509.807 196.29C491.65 173.293 470.196 150.546 447.321 130.08C444.289 127.393 439.68 127.362 436.648 130.111C369.052 190.822 319.988 271.06 319.988 320.835C319.988 408.604 391.772 480 479.994 480S640 408.604 640 320.866C640.14 283.496 604.451 209.756 553.028 163.7ZM479.994 464.002C400.585 464.002 335.988 399.792 335.988 320.835C335.988 277.185 381.209 203.351 442.008 146.859C464.665 167.7 485.681 190.697 503.057 213.725C504.526 215.662 506.792 216.849 509.229 216.912C511.807 217.068 513.995 215.943 515.557 214.068C525.355 202.476 536.121 191.228 547.637 180.542C591.17 222.348 624.108 288.87 623.999 320.835C623.999 399.792 559.403 464.002 479.994 464.002Z"/></svg>