<svg xmlns="http://www.w3.org/2000/svg" viewBox="0 0 512 512"><!-- Font Awesome Pro 6.0.0-alpha2 by @fontawesome - https://fontawesome.com License - https://fontawesome.com/license (Commercial License) --><path d="M160 320.002C142.375 320.002 128 334.377 128 352.001C128 369.626 142.375 384.001 160 384.001S192 369.626 192 352.001C192 334.377 177.625 320.002 160 320.002ZM160 368.001C151.178 368.001 144 360.824 144 352.001C144 343.179 151.178 336.002 160 336.002S176 343.179 176 352.001C176 360.824 168.822 368.001 160 368.001ZM32 448.001C14.375 448.001 0 462.375 0 480C0 497.625 14.375 512 32 512S64 497.625 64 480C64 462.375 49.625 448.001 32 448.001ZM32 496C23.178 496 16 488.822 16 480C16 471.178 23.178 464 32 464S48 471.178 48 480C48 488.822 40.822 496 32 496ZM379.859 1.028C376.016 -1.159 371.141 0.262 369 4.169C366.859 8.028 368.266 12.903 372.141 15.026C443.186 54.256 490.654 128.402 496.014 208.53C496.295 212.764 499.811 215.999 503.982 215.999C504.17 215.999 504.357 215.999 504.529 215.983C508.936 215.686 512.279 211.874 511.982 207.47C506.264 121.949 455.639 42.852 379.859 1.028ZM69.656 378.341C66.531 375.216 61.469 375.216 58.344 378.341S55.219 386.528 58.344 389.653L122.344 453.653C123.906 455.215 125.953 455.997 128 455.997S132.094 455.215 133.656 453.653C136.781 450.528 136.781 445.465 133.656 442.34L69.656 378.341ZM360 255.998C364.422 255.998 368 252.42 368 247.998V231.999C368 165.827 314.172 112 248 112S128 165.827 128 231.999V247.998C128 252.42 131.578 255.998 136 255.998S144 252.42 144 247.998V231.999C144 174.655 190.656 128 248 128S352 174.655 352 231.999V247.998C352 252.42 355.578 255.998 360 255.998ZM248 48C146.547 48 64 130.546 64 231.999V247.998C64 252.42 67.578 255.998 72 255.998S80 252.42 80 247.998V231.999C80 139.359 155.359 64 248 64S416 139.359 416 231.999C416 289.42 393.812 343.529 353.531 384.388L351.578 386.357L351.281 389.122C344.625 450.059 293.344 495.996 232 495.996C227.578 495.996 224 499.574 224 503.996C224 508.418 227.578 511.996 232 511.996C300.578 511.996 358.078 461.309 366.859 393.638C408.891 350.013 432 292.717 432 231.999C432 130.546 349.453 48 248 48Z"/></svg>