<svg xmlns="http://www.w3.org/2000/svg" viewBox="0 0 384 512"><!-- Font Awesome Pro 6.0.0-alpha2 by @fontawesome - https://fontawesome.com License - https://fontawesome.com/license (Commercial License) --><path d="M192 16C86 16 0 216.625 0 316S86 496 192 496C298 496 384 415.375 384 316S298 16 192 16ZM192 480C94.953 480 16 406.43 16 316C16 267.057 37.797 194.924 70.238 136.502C107.117 70.09 151.498 32 192 32S276.883 70.09 313.762 136.502C346.203 194.924 368 267.057 368 316C368 406.43 289.047 480 192 480ZM147.688 119.984C147.406 119.984 147.125 120 146.844 120.031C144.719 120.25 142.781 121.297 141.438 122.969C107.781 164.656 72 242.266 72 304C72 308.406 75.594 312 80 312S88 308.406 88 304C88 248.031 121.5 173.125 153.906 133.016C156.688 129.594 156.125 124.547 152.688 121.766C151.25 120.594 149.5 119.984 147.688 119.984Z"/></svg>