<svg xmlns="http://www.w3.org/2000/svg" viewBox="0 0 512 512"><!-- Font Awesome Pro 6.0.0-alpha2 by @fontawesome - https://fontawesome.com License - https://fontawesome.com/license (Commercial License) --><path d="M448 128.009H64C28.654 128.009 0 156.662 0 192.007V448.001C0 483.346 28.654 512 64 512H448C483.346 512 512 483.346 512 448.001V192.007C512 156.662 483.346 128.009 448 128.009ZM496 448.001C496 474.468 474.467 496 448 496H64C37.533 496 16 474.468 16 448.001V192.007C16 165.541 37.533 144.008 64 144.008H448C474.467 144.008 496 165.541 496 192.007V448.001ZM160 320.004C190.945 319.887 216 294.87 216 264.006S190.945 208.122 160 208.007C129.055 208.122 104 233.141 104 264.006S129.055 319.887 160 320.004ZM160 224.006C182.061 224.122 200 242.053 200 264.006C200 285.978 182.029 303.921 160.061 304.005C137.971 303.921 120 285.978 120 264.006C120 242.053 137.939 224.122 160 224.006ZM352 320.004C382.945 319.887 408 294.87 408 264.006S382.945 208.122 352 208.007C321.055 208.122 296 233.141 296 264.006S321.055 319.887 352 320.004ZM352 224.006C374.061 224.122 392 242.053 392 264.006C392 285.978 374.029 303.921 352.061 304.005C329.971 303.921 312 285.978 312 264.006C312 242.053 329.939 224.122 352 224.006ZM77.938 93.369L144 19.964L210.062 93.369C211.625 95.119 213.812 96.009 216 96.009C217.906 96.009 219.812 95.337 221.344 93.962C224.625 90.994 224.906 85.947 221.938 82.65L149.938 2.652C146.938 -0.692 141.062 -0.692 138.062 2.652L66.062 82.65C63.094 85.947 63.375 90.994 66.656 93.962C69.969 96.931 75 96.681 77.938 93.369ZM362.062 93.369C363.562 95.041 365.719 96.009 368 96.009S372.438 95.041 373.938 93.369L445.938 13.371C448.906 10.074 448.625 5.027 445.344 2.058C442.062 -0.879 437 -0.614 434.062 2.652L368 76.057L301.938 2.652C299 -0.629 293.938 -0.91 290.656 2.058S287.094 10.074 290.062 13.371L362.062 93.369ZM368.001 352.004H336C300.654 352.004 272 380.657 272 416.004V456.001C272 460.419 275.582 464.001 280 464.001L280 464.001C284.418 464.001 288 460.419 288 456.001V416.002C288 389.493 309.49 368.003 335.999 368.003H368C394.51 368.003 416 389.494 416 416.003V456.001C416 460.419 419.582 464.001 424 464.001L424 464.001C428.418 464.001 432 460.419 432 456.001V416.002C432 380.657 403.347 352.004 368.001 352.004ZM176.001 352.004H144C108.654 352.004 80 380.657 80 416.004V456.001C80 460.419 83.582 464.001 88 464.001H88C92.418 464.001 96 460.419 96 456.001V416.002C96 389.493 117.49 368.003 143.999 368.003H176C202.51 368.003 224 389.494 224 416.003V456.001C224 460.419 227.582 464.001 232 464.001L232 464.001C236.418 464.001 240 460.419 240 456.001V416.002C240 380.657 211.347 352.004 176.001 352.004Z"/></svg>