<svg xmlns="http://www.w3.org/2000/svg" viewBox="0 0 128 512"><!-- Font Awesome Pro 6.0.0-alpha2 by @fontawesome - https://fontawesome.com License - https://fontawesome.com/license (Commercial License) --><path d="M80 96C80 87.164 72.836 80 64 80S48 87.164 48 96C48 104.838 55.164 112 64 112S80 104.838 80 96ZM80 256C80 247.164 72.836 240 64 240S48 247.164 48 256C48 264.838 55.164 272 64 272S80 264.838 80 256ZM80 416C80 407.164 72.836 400 64 400S48 407.164 48 416C48 424.838 55.164 432 64 432S80 424.838 80 416Z"/></svg>