<svg xmlns="http://www.w3.org/2000/svg" viewBox="0 0 512 512"><!-- Font Awesome Pro 6.0.0-alpha2 by @fontawesome - https://fontawesome.com License - https://fontawesome.com/license (Commercial License) --><path d="M485.656 26.344C482.531 23.219 477.469 23.219 474.344 26.344L397.152 103.535C360.053 69.172 310.557 48 256 48C141.125 48 48 141.125 48 256C48 310.557 69.172 360.053 103.535 397.152L26.344 474.344C23.219 477.469 23.219 482.531 26.344 485.656C27.906 487.219 29.937 488 32 488S36.094 487.219 37.656 485.656L114.848 408.465C151.947 442.828 201.443 464 256 464C370.875 464 464 370.875 464 256C464 201.443 442.828 151.947 408.465 114.848L485.656 37.656C488.781 34.531 488.781 29.469 485.656 26.344ZM64 256C64 150.131 150.131 64 256 64C306.061 64 351.561 83.416 385.775 114.912L114.912 385.775C83.416 351.561 64 306.061 64 256ZM448 256C448 361.869 361.869 448 256 448C205.939 448 160.439 428.584 126.225 397.088L397.088 126.225C428.584 160.439 448 205.939 448 256Z"/></svg>