<svg xmlns="http://www.w3.org/2000/svg" viewBox="0 0 640 512"><!-- Font Awesome Pro 6.0.0-alpha2 by @fontawesome - https://fontawesome.com License - https://fontawesome.com/license (Commercial License) --><path d="M296 256H56C25.125 256 0 281.125 0 312V456C0 486.875 25.125 512 56 512H296C326.875 512 352 486.875 352 456V312C352 281.125 326.875 256 296 256ZM336 456C336 478.062 318.062 496 296 496H56C33.938 496 16 478.062 16 456V343.047L151.016 438.25C158.375 444.141 167.188 447.078 176 447.078S193.625 444.141 200.984 438.25L336 343.047V456ZM336 322.547L190.984 425.75C182.172 432.812 169.828 432.812 161.016 425.75L16 322.547V312C16 289.938 33.938 272 56 272H296C318.062 272 336 289.938 336 312V322.547ZM72 224C76.422 224 80 220.422 80 216V56C80 33.938 97.938 16 120 16H424C446.062 16 464 33.938 464 56V104C464 108.422 467.578 112 472 112S480 108.422 480 104V56C480 25.125 454.875 0 424 0H120C89.125 0 64 25.125 64 56V216C64 220.422 67.578 224 72 224ZM584 144H280C249.125 144 224 169.125 224 200C224 204.422 227.578 208 232 208S240 204.422 240 200C240 177.938 257.938 160 280 160H584C606.062 160 624 177.938 624 200V360C624 382.062 606.062 400 584 400H392C387.578 400 384 403.578 384 408S387.578 416 392 416H584C614.875 416 640 390.875 640 360V200C640 169.125 614.875 144 584 144ZM576 280C580.422 280 584 276.422 584 272V208C584 203.578 580.422 200 576 200H512C507.578 200 504 203.578 504 208V272C504 276.422 507.578 280 512 280H576ZM520 216H568V264H520V216Z"/></svg>