<svg xmlns="http://www.w3.org/2000/svg" viewBox="0 0 512 512"><!-- Font Awesome Pro 6.0.0-alpha2 by @fontawesome - https://fontawesome.com License - https://fontawesome.com/license (Commercial License) --><path d="M490.945 178.254L448 142.605V104C448 81.938 430.062 64 408 64H353.305L292.031 13.139C281.812 4.666 269.02 0 256 0S230.188 4.666 219.973 13.135L158.695 64H104C81.938 64 64 81.938 64 104V142.605L21.051 178.256C7.676 189.357 0 205.992 0 223.891V447.975C0 483.277 28.711 512 64 512H448C483.289 512 512 483.277 512 447.975V223.891C512 205.992 504.324 189.357 490.945 178.254ZM448 163.406L480.73 190.574C489.844 198.137 499.422 209.793 480.73 225.324L448 252.508V163.406ZM230.188 25.457C237.781 19.156 246.891 16.006 256 16.006S274.219 19.156 281.812 25.457L328.246 64H183.754L230.188 25.457ZM80 104C80 90.781 90.781 80 104 80H408C421.219 80 432 90.781 432 104V265.795L281.809 390.529C274.219 396.832 265.109 399.984 256 399.984S237.781 396.832 230.188 390.529L80 265.795V104ZM31.27 190.574L64 163.406V252.508L31.27 225.324C12.492 209.725 22.375 197.951 31.27 190.574ZM496 447.975C496 474.494 474.508 495.994 448 495.994H64C37.492 495.994 16 474.494 16 447.975V231.846C17.688 233.783 19.047 235.984 21.055 237.65L219.969 402.854C230.188 411.332 242.98 416 256 416C269.023 416 281.816 411.332 292.023 402.855L490.949 237.648C492.953 235.982 494.312 233.783 496 231.848V447.975ZM248.047 303.135V320C248.047 324.406 251.625 328 256.047 328S264.047 324.406 264.047 320V303.354C289.455 301.723 307.742 289.484 311.281 269.125C317.469 233.219 284.578 223.813 258.141 216.25L251.875 214.438C225.406 206.688 213.359 199.781 216.5 181.625C220.016 161.219 245.828 157.844 266.984 161.125C273.016 162.062 280.328 164.062 289.375 167.219C293.469 168.594 298.109 166.469 299.547 162.281C301.016 158.125 298.812 153.562 294.625 152.094C284.672 148.625 276.453 146.406 269.469 145.312C267.602 145.023 265.867 144.996 264.047 144.807V128C264.047 123.594 260.469 120 256.047 120S248.047 123.594 248.047 128V144.385C222.473 145.961 204.26 158.451 200.719 178.875C194.609 214.312 227.641 224 247.375 229.812L253.75 231.625C284.688 240.5 298.891 246.812 295.516 266.375C291.969 286.812 266.063 290.125 244.953 286.875C235.812 285.5 225.188 281.688 215.812 278.312L210.656 276.469C206.547 275.031 201.938 277.187 200.453 281.344C198.984 285.5 201.172 290.062 205.344 291.531L210.391 293.344C220.469 296.969 231.875 301.094 242.531 302.688C244.449 302.986 246.184 302.939 248.047 303.135Z"/></svg>