<svg xmlns="http://www.w3.org/2000/svg" viewBox="0 0 512 512"><!-- Font Awesome Pro 6.0.0-alpha2 by @fontawesome - https://fontawesome.com License - https://fontawesome.com/license (Commercial License) --><path d="M490.945 178.254L292.031 13.139C281.812 4.666 269.02 0 256 0S230.188 4.666 219.973 13.135L21.051 178.256C7.676 189.357 0 205.992 0 223.891V447.975C0 483.277 28.711 512 64 512H448C483.289 512 512 483.277 512 447.975V223.891C512 205.992 504.324 189.357 490.945 178.254ZM31.27 190.574L230.188 25.457C237.781 19.156 246.891 16.006 256 16.006S274.219 19.156 281.812 25.457L480.73 190.574C489.844 198.137 499.422 209.793 480.73 225.324L281.809 390.529C274.219 396.832 265.109 399.984 256 399.984S237.781 396.832 230.188 390.529L31.27 225.324C12.492 209.725 22.375 197.951 31.27 190.574ZM496 447.975C496 474.494 474.508 495.994 448 495.994H64C37.492 495.994 16 474.494 16 447.975V231.846C17.688 233.783 19.047 235.984 21.055 237.65L219.969 402.854C230.188 411.332 242.98 416 256 416C269.023 416 281.816 411.332 292.023 402.855L490.949 237.648C492.953 235.982 494.312 233.783 496 231.848V447.975Z"/></svg>