<svg xmlns="http://www.w3.org/2000/svg" viewBox="0 0 512 512"><!-- Font Awesome Pro 6.0.0-alpha2 by @fontawesome - https://fontawesome.com License - https://fontawesome.com/license (Commercial License) --><path d="M504 463.999H120.004C115.583 463.999 112.005 467.593 112.005 472C112.005 476.406 115.583 480 120.004 480H504C508.422 480 512 476.406 512 472C512 467.593 508.422 463.999 504 463.999ZM27.177 360.244C19.715 352.773 15.984 342.949 15.984 333.121C15.984 323.299 19.711 313.474 27.162 305.991L161.701 172.08C162.014 172.574 161.916 173.209 162.348 173.64L370.345 381.651C370.722 382.028 371.281 381.93 371.707 382.216L343.908 410.371C342.365 411.938 341.596 413.974 341.596 416.005C341.596 421.726 346.701 423.997 349.596 423.997C351.658 423.997 353.721 423.216 355.283 421.622L496.11 278.989C506.686 268.382 511.975 254.462 511.975 240.546C511.975 226.625 506.682 212.707 496.094 202.11L341.064 47.759C330.44 37.258 316.471 32 302.499 32C288.526 32 274.55 37.258 263.909 47.79L15.865 294.678C5.289 305.286 0 319.205 0 333.121C0 347.043 5.293 360.961 15.881 371.557L66.193 421.653C67.755 423.216 69.802 423.997 71.849 423.997C76.341 423.997 79.833 420.349 79.833 415.989C79.833 413.936 79.048 411.891 77.474 410.34L27.177 360.244ZM275.175 59.134C282.714 51.689 292.625 47.962 302.53 47.962C312.414 47.962 322.291 51.673 329.799 59.103L484.797 213.424C492.254 220.889 495.985 230.703 495.985 240.527C495.985 250.361 492.246 260.203 484.766 267.708L382.183 371.606C381.912 371.213 382.007 370.688 381.658 370.338L173.66 162.327C173.238 161.905 172.617 162.003 172.135 161.694L275.175 59.134Z"/></svg>