<svg xmlns="http://www.w3.org/2000/svg" viewBox="0 0 512 512"><!-- Font Awesome Pro 6.0.0-alpha2 by @fontawesome - https://fontawesome.com License - https://fontawesome.com/license (Commercial License) --><path d="M371.895 230.859C373.176 231.609 374.598 231.984 376.004 231.984C378.707 231.984 381.363 230.609 382.863 228.109C385.145 224.297 383.91 219.391 380.113 217.109L311.551 175.984L380.113 134.859C383.91 132.578 385.145 127.672 382.863 123.859C380.598 120.078 375.645 118.922 371.895 121.109L291.895 169.109C289.473 170.578 288.004 173.172 288.004 175.984S289.473 181.391 291.895 182.859L371.895 230.859ZM129.145 228.109C130.645 230.609 133.301 231.984 136.004 231.984C137.41 231.984 138.832 231.609 140.113 230.859L220.113 182.859C222.535 181.391 224.004 178.797 224.004 175.984S222.535 170.578 220.113 169.109L140.113 121.109C136.395 118.922 131.426 120.078 129.145 123.859C126.863 127.672 128.098 132.578 131.895 134.859L200.457 175.984L131.895 217.109C128.098 219.391 126.863 224.297 129.145 228.109ZM256 16C123.453 16 16 123.453 16 256S123.453 496 256 496S496 388.547 496 256S388.547 16 256 16ZM256 480C132.484 480 32 379.516 32 256S132.484 32 256 32S480 132.484 480 256S379.516 480 256 480ZM391.904 288H120.098C110.469 288 102.91 296.5 104.129 306C113.027 377 174.092 432 247.955 432H264.045C337.908 432 398.973 377 407.871 306C409.09 296.375 401.533 288 391.904 288ZM264.045 416H247.955C183.014 416 128.006 367.855 120.098 304H391.904L391.996 304.012C383.994 367.855 328.988 416 264.045 416Z"/></svg>