<svg xmlns="http://www.w3.org/2000/svg" viewBox="0 0 512 512"><!-- Font Awesome Pro 6.0.0-alpha2 by @fontawesome - https://fontawesome.com License - https://fontawesome.com/license (Commercial License) --><path d="M256 16C123.453 16 16 123.453 16 256S123.453 496 256 496S496 388.547 496 256S388.547 16 256 16ZM256 480C132.484 480 32 379.516 32 256S132.484 32 256 32S480 132.484 480 256S379.516 480 256 480ZM384.113 320.012C382.516 320.012 380.879 320.258 379.24 320.785C348.98 330.531 304.076 336.031 256.145 336.031S163.309 330.531 133.049 320.785C131.393 320.258 129.742 320.012 128.131 320.012C118.676 320.012 110.695 328.531 112.352 338.781C121.67 393.77 195.625 432.012 256.145 432.012S390.74 393.77 399.938 338.781C401.49 328.531 393.496 320.012 384.113 320.012ZM256.145 416.016C202.104 416.016 135.869 381.844 128.146 336.012C159.744 346.188 206.398 352.027 256.145 352.027C305.863 352.027 352.49 346.195 384.117 336.02L384.164 336.141C376.518 381.859 310.268 416.016 256.145 416.016ZM176 264C198.812 264 216 233.031 216 192S198.812 120 176 120S136 150.969 136 192S153.188 264 176 264ZM176 136C187.344 136 200 159.938 200 192S187.344 248 176 248S152 224.062 152 192S164.656 136 176 136ZM336 264C358.812 264 376 233.031 376 192S358.812 120 336 120S296 150.969 296 192S313.188 264 336 264ZM336 136C347.344 136 360 159.938 360 192S347.344 248 336 248S312 224.062 312 192S324.656 136 336 136Z"/></svg>