<svg xmlns="http://www.w3.org/2000/svg" viewBox="0 0 512 512"><!-- Font Awesome Pro 6.0.0-alpha2 by @fontawesome - https://fontawesome.com License - https://fontawesome.com/license (Commercial License) --><path d="M176 224C184.844 224 192 216.852 192 208S184.844 192 176 192S160 199.148 160 208S167.156 224 176 224ZM336 224C344.844 224 352 216.852 352 208S344.844 192 336 192S320 199.148 320 208S327.156 224 336 224ZM359.938 324C338.562 361 298.719 384 256 384S173.438 361 152.062 324C149.781 320.156 144.844 318.844 141.125 321.078C137.281 323.281 136 328.172 138.188 332C162.438 373.953 207.594 400 256 400S349.562 373.953 373.812 332C376 328.172 374.719 323.281 370.875 321.078C367.094 318.844 362.156 320.156 359.938 324ZM256 16C123.418 16 16 123.42 16 256S123.418 496 256 496S496 388.58 496 256S388.582 16 256 16ZM256 480C132.484 480 32 379.514 32 256S132.484 32 256 32S480 132.486 480 256S379.516 480 256 480Z"/></svg>