<svg xmlns="http://www.w3.org/2000/svg" viewBox="0 0 512 512"><!-- Font Awesome Pro 6.0.0-alpha2 by @fontawesome - https://fontawesome.com License - https://fontawesome.com/license (Commercial License) --><path d="M359.938 324C338.562 361 298.719 384 256 384S173.438 361 152.062 324C149.781 320.156 144.844 318.844 141.125 321.078C137.281 323.281 136 328.172 138.188 332C162.438 373.953 207.594 400 256 400S349.562 373.953 373.812 332C376 328.172 374.719 323.281 370.875 321.078C367.094 318.844 362.156 320.156 359.938 324ZM176 168C196.969 168 212.469 210.906 216.234 225.938C217.156 229.562 220.406 232 224 232C224.641 232 225.297 231.906 225.938 231.75C230.234 230.688 232.828 226.344 231.766 222.062C229.969 214.875 213.172 152 176 152S122.031 214.875 120.234 222.062C119.172 226.344 121.766 230.688 126.062 231.75C130.25 232.781 134.672 230.188 135.766 225.938C139.531 210.906 155.031 168 176 168ZM336 152C298.828 152 282.031 214.875 280.234 222.062C279.172 226.344 281.766 230.687 286.062 231.75C290.219 232.781 294.672 230.188 295.766 225.938C299.531 210.906 315.031 168 336 168S372.469 210.906 376.234 225.938C377.156 229.562 380.406 232 384 232C384.641 232 385.297 231.906 385.938 231.75C390.234 230.688 392.828 226.344 391.766 222.062C389.969 214.875 373.172 152 336 152ZM256 16C123.453 16 16 123.453 16 256S123.453 496 256 496S496 388.547 496 256S388.547 16 256 16ZM256 480C132.484 480 32 379.516 32 256S132.484 32 256 32S480 132.484 480 256S379.516 480 256 480Z"/></svg>