<svg xmlns="http://www.w3.org/2000/svg" viewBox="0 0 512 512"><!-- Font Awesome Pro 6.0.0-alpha2 by @fontawesome - https://fontawesome.com License - https://fontawesome.com/license (Commercial License) --><path d="M256 16C123.453 16 16 123.453 16 256S123.453 496 256 496S496 388.547 496 256S388.547 16 256 16ZM256 480C132.484 480 32 379.516 32 256S132.484 32 256 32S480 132.484 480 256S379.516 480 256 480ZM336 192C344.844 192 352 199.148 352 208S344.844 224 336 224S320 216.852 320 208S327.156 192 336 192ZM176 192C184.844 192 192 199.148 192 208S184.844 224 176 224S160 216.852 160 208S167.156 192 176 192ZM384.027 319.977C382.43 319.977 380.791 320.223 379.152 320.75C348.879 330.5 303.953 336 256 336S163.121 330.5 132.848 320.75C131.191 320.223 129.539 319.977 127.928 319.977C118.469 319.977 110.484 328.496 112.141 338.75C121.465 393.75 195.453 432 256 432S390.656 393.75 399.859 338.75C401.412 328.496 393.414 319.977 384.027 319.977ZM256 416C201.934 416 135.67 381.82 127.943 335.98C159.555 346.16 206.23 352 256 352C305.742 352 352.391 346.168 384.031 335.988L384.078 336.109C376.428 381.836 310.148 416 256 416Z"/></svg>