<svg xmlns="http://www.w3.org/2000/svg" viewBox="0 0 512 512"><!-- Font Awesome Pro 6.0.0-alpha2 by @fontawesome - https://fontawesome.com License - https://fontawesome.com/license (Commercial License) --><path d="M263.516 402.344C260.391 405.469 260.391 410.531 263.516 413.656S271.703 416.781 274.828 413.656L381.656 306.828C384.781 303.703 384.781 298.641 381.656 295.516L273.656 187.516C272.094 185.953 270.062 185.172 268 185.172S263.906 185.953 262.344 187.516C259.219 190.641 259.219 195.703 262.344 198.828L356.688 293.172H8C3.594 293.172 0 296.75 0 301.172S3.594 309.172 8 309.172H356.688L263.516 402.344ZM502.625 150.621L361.371 9.375C355.367 3.371 347.227 0 338.736 0H192C156.654 0 128 28.652 128 64V248C128 252.418 131.582 256 136 256S144 252.418 144 248V64C144 37.492 165.49 16 192 16H336V136C336 158.094 353.908 176 376 176H496V448C496 474.508 474.51 496 448 496H192C165.49 496 144 474.508 144 448V360C144 355.582 140.418 352 136 352S128 355.582 128 360V448C128 483.344 156.654 512 192 512H448C483.346 512 512 483.344 512 448V173.254C512 164.766 508.627 156.625 502.625 150.621ZM376 160C362.781 160 352 149.234 352 136V22.629L489.375 160H376Z"/></svg>