<svg xmlns="http://www.w3.org/2000/svg" viewBox="0 0 384 512"><!-- Font Awesome Pro 6.0.0-alpha2 by @fontawesome - https://fontawesome.com License - https://fontawesome.com/license (Commercial License) --><path d="M186.719 286.75C198.859 251.875 200 222.852 200 215.469C200 202.531 189.234 192 176 192S152 202.531 152 215.469C152 216.125 152.375 249.187 169.672 286.969C158.781 316.969 146.016 343.719 133.969 365.906C110.312 376.188 88.047 389.469 70.734 406.562C66.453 410.781 64 416.75 64 424.562C64 437.5 74.734 448 87.938 448C95.625 448 102.875 444.375 107.313 438.344C115.531 427.219 129.828 406.594 145.359 378.594C172.047 367.656 200.484 360.438 224.891 355.75C231.568 360.707 270.201 386.062 292.875 386.062C307.828 386.062 320 374.188 320 358.719C320 343.625 307.438 331.344 292 331.344C270.561 331.344 232.861 337.859 228.594 338.625C208.969 322.781 195.688 304.406 186.719 286.75ZM94.422 428.844C90.578 434.094 80 432.094 80 422.938C80 421 80.719 419.219 81.969 417.969C92.672 407.375 105.625 398.344 119.766 390.656C108.609 409.094 99.266 422.281 94.422 428.844ZM168 215.469C168 211.344 171.594 208 176 208S184 211.344 184 215.469C184 233.031 179.094 255.719 177.156 264.031C168.312 238.001 168 217.469 168 215.469ZM156.766 357.031C164.562 341.563 172.391 324.406 179.641 305.844C187.203 318.344 196.813 330.875 209.063 342.469C192.438 346.062 174.531 350.812 156.766 357.031ZM292 347.344C298.609 347.344 304 352.438 304 359.562C304 365.344 299.016 370.062 292.875 370.062C282.965 370.062 258.861 358.523 247.672 351.844C248.387 351.734 277.549 347.344 292 347.344ZM374.629 150.625L233.371 9.375C227.371 3.371 219.23 0 210.746 0H64C28.652 0 0 28.652 0 64V448C0 483.344 28.652 512 64 512H320C355.348 512 384 483.344 384 448V173.254C384 164.766 380.629 156.629 374.629 150.625ZM224 22.629L361.375 160H248C234.781 160 224 149.234 224 136V22.629ZM368 448C368 474.469 346.469 496 320 496H64C37.531 496 16 474.469 16 448V64C16 37.531 37.531 16 64 16H208V136C208 158.062 225.938 176 248 176H368V448Z"/></svg>