<svg xmlns="http://www.w3.org/2000/svg" viewBox="0 0 384 512"><!-- Font Awesome Pro 6.0.0-alpha2 by @fontawesome - https://fontawesome.com License - https://fontawesome.com/license (Commercial License) --><path d="M374.629 150.625L233.371 9.375C227.371 3.371 219.23 0 210.746 0H64C28.652 0 0 28.652 0 64V448C0 483.344 28.652 512 64 512H320C355.348 512 384 483.344 384 448V173.254C384 164.766 380.629 156.629 374.629 150.625ZM224 22.629L361.375 160H248C234.781 160 224 149.234 224 136V22.629ZM368 448C368 474.469 346.469 496 320 496H64C37.531 496 16 474.469 16 448V64C16 37.531 37.531 16 64 16H208V136C208 158.062 225.938 176 248 176H368V448ZM134.656 243.562C132.188 239.844 127.219 238.875 123.562 241.344C119.875 243.781 118.906 248.75 121.344 252.438L182.385 344L121.344 435.562C118.906 439.25 119.875 444.219 123.562 446.656C124.938 447.562 126.469 448 128 448C130.562 448 133.125 446.75 134.656 444.438L192 358.422L249.344 444.438C250.875 446.75 253.438 448 256 448C257.531 448 259.062 447.562 260.438 446.656C264.125 444.219 265.094 439.25 262.656 435.562L201.615 344L262.656 252.438C265.094 248.75 264.125 243.781 260.438 241.344C256.781 238.906 251.781 239.844 249.344 243.562L192 329.578L134.656 243.562Z"/></svg>