<svg xmlns="http://www.w3.org/2000/svg" viewBox="0 0 384 512"><!-- Font Awesome Pro 6.0.0-alpha2 by @fontawesome - https://fontawesome.com License - https://fontawesome.com/license (Commercial License) --><path d="M374.633 150.625L233.375 9.375C227.375 3.371 219.234 0 210.75 0H64C28.656 0 0 28.652 0 64V448C0 483.344 28.656 512 64 512H320C355.352 512 384 483.344 384 448V173.254C384 164.766 380.633 156.629 374.633 150.625ZM224 22.629L361.375 160H248C234.781 160 224 149.234 224 136V22.629ZM368 448C368 474.469 346.469 496 320 496H64C37.531 496 16 474.469 16 448V64C16 37.531 37.531 16 64 16H208V136C208 158.062 225.938 176 248 176H368V448ZM104 312C99.582 312 96 315.58 96 320C96 324.422 99.578 328 104 328H280C284.422 328 288 324.42 288 320S284.422 312 280 312H104Z"/></svg>