<svg xmlns="http://www.w3.org/2000/svg" viewBox="0 0 384 512"><!-- Font Awesome Pro 6.0.0-alpha2 by @fontawesome - https://fontawesome.com License - https://fontawesome.com/license (Commercial License) --><path d="M374.629 150.627L233.371 9.373C227.371 3.371 219.23 0 210.746 0H64C28.652 0 0 28.652 0 64V448C0 483.346 28.652 512 64 512H320C355.348 512 384 483.346 384 448V173.254C384 164.768 380.629 156.629 374.629 150.627ZM224 22.629L361.375 160H248C234.781 160 224 149.234 224 136V22.629ZM368 448C368 474.467 346.469 496 320 496H64C37.531 496 16 474.467 16 448V64C16 37.533 37.531 16 64 16H208V136C208 158.062 225.938 176 248 176H368V448ZM232 264C232 268.422 235.594 272 240 272H264V400H240C235.594 400 232 403.578 232 408S235.594 416 240 416H304C308.406 416 312 412.422 312 408S308.406 400 304 400H280V264C280 259.578 276.406 256 272 256H240C235.594 256 232 259.578 232 264ZM144 256H112C89.938 256 72 273.938 72 296V376C72 398.062 89.938 416 112 416H144C166.062 416 184 398.062 184 376V296C184 273.938 166.062 256 144 256ZM168 376C168 389.234 157.219 400 144 400H112C98.781 400 88 389.234 88 376V296C88 282.766 98.781 272 112 272H144C157.219 272 168 282.766 168 296V376Z"/></svg>