<svg xmlns="http://www.w3.org/2000/svg" viewBox="0 0 576 512"><!-- Font Awesome Pro 6.0.0-alpha2 by @fontawesome - https://fontawesome.com License - https://fontawesome.com/license (Commercial License) --><path d="M502.625 216.636L294.937 9.357C288.688 3.119 280.5 0 272.313 0S255.938 3.119 249.688 9.357L151.191 107.667L45.656 2.339C42.531 -0.78 37.469 -0.78 34.344 2.339S31.219 10.511 34.344 13.629L139.879 118.957L28.125 230.499C-9.375 267.91 -9.375 328.556 28.125 365.983L145.313 482.94C164.063 501.638 188.625 511.01 213.188 511.01S262.313 501.653 281.063 482.94L502.625 261.797C515.125 249.322 515.125 229.112 502.625 216.636ZM269.75 471.65C254.633 486.733 234.547 495.041 213.188 495.041C191.84 495.041 171.75 486.729 156.625 471.65L39.438 354.692C25.57 340.845 17.754 322.755 16.508 303.403H438.313L269.75 471.65ZM491.313 250.507L454.313 287.434H17.059C19.391 270.234 26.922 254.273 39.438 241.79L151.191 130.248L242.344 221.221C243.906 222.78 245.938 223.56 248 223.56S252.094 222.78 253.656 221.221C256.781 218.102 256.781 213.049 253.656 209.931L162.504 118.957L261 20.647C264.023 17.629 268.043 15.969 272.313 15.969S280.602 17.629 283.625 20.647L491.313 227.926C494.336 230.944 496 234.952 496 239.217C496 243.478 494.336 247.489 491.313 250.507ZM512 320.377C512 320.377 448 412.82 448 448.126S476.625 512 512 512S576 483.431 576 448.126S512 320.377 512 320.377ZM512 496.031C485.531 496.031 464 474.542 464 448.126C464 430.668 488.973 385.152 512 349.246C535.027 385.152 560 430.668 560 448.126C560 474.542 538.469 496.031 512 496.031Z"/></svg>