<svg xmlns="http://www.w3.org/2000/svg" viewBox="0 0 576 512"><!-- Font Awesome Pro 6.0.0-alpha2 by @fontawesome - https://fontawesome.com License - https://fontawesome.com/license (Commercial License) --><path d="M344 496H320V64H344C348.406 64 352 60.406 352 56S348.406 48 344 48H264V40C264 17.938 246.062 0 224 0H128C105.938 0 88 17.938 88 40V48H8C3.594 48 0 51.594 0 56S3.594 64 8 64H32V496H8C3.594 496 0 499.594 0 504S3.594 512 8 512H344C348.406 512 352 508.406 352 504S348.406 496 344 496ZM104 40C104 26.781 114.781 16 128 16H224C237.219 16 248 26.781 248 40V48H104V40ZM304 496H48V64H304V496ZM537.781 128H360C355.594 128 352 131.594 352 136S355.594 144 360 144H537.781C550.031 144 560 153.969 560 166.219V287.125C560 299.375 550.031 309.344 537.781 309.344C516.719 309.344 499.563 326.5 499.563 347.562V377.781C499.563 390.031 489.594 400 477.344 400H360C355.594 400 352 403.594 352 408S355.594 416 360 416H477.344C498.406 416 515.562 398.844 515.562 377.781V347.563C515.562 335.313 525.531 325.344 537.781 325.344C558.844 325.344 576 308.188 576 287.125V166.219C576 145.156 558.844 128 537.781 128ZM368 344C368 357.219 378.781 368 392 368H408C421.219 368 432 357.219 432 344V328C432 314.781 421.219 304 408 304H392C378.781 304 368 314.781 368 328V344ZM384 328C384 323.5 387.5 320 392 320H408C412.5 320 416 323.5 416 328V344C416 348.5 412.5 352 408 352H392C387.5 352 384 348.5 384 344V328ZM392 240H408C421.219 240 432 229.219 432 216V200C432 186.781 421.219 176 408 176H392C378.781 176 368 186.781 368 200V216C368 229.219 378.781 240 392 240ZM384 200C384 195.5 387.5 192 392 192H408C412.5 192 416 195.5 416 200V216C416 220.5 412.5 224 408 224H392C387.5 224 384 220.5 384 216V200ZM504 240C517.219 240 528 229.219 528 216V200C528 186.781 517.219 176 504 176H488C474.781 176 464 186.781 464 200V216C464 229.219 474.781 240 488 240H504ZM480 216V200C480 195.5 483.5 192 488 192H504C508.5 192 512 195.5 512 200V216C512 220.5 508.5 224 504 224H488C483.5 224 480 220.5 480 216Z"/></svg>