<svg xmlns="http://www.w3.org/2000/svg" viewBox="0 0 512 512"><!-- Font Awesome Pro 6.0.0-alpha2 by @fontawesome - https://fontawesome.com License - https://fontawesome.com/license (Commercial License) --><path d="M464 32H48C21.492 32 0 53.492 0 80V432C0 458.508 21.492 480 48 480H464C490.508 480 512 458.508 512 432V80C512 53.492 490.508 32 464 32ZM112 464H48C30.355 464 16 449.645 16 432V408H112V464ZM112 392H16V312H112V392ZM112 296H16V216H112V296ZM112 200H16V120H112V200ZM112 104H16V80C16 62.355 30.355 48 48 48H112V104ZM384 464H128V48H384V464ZM496 432C496 449.645 481.645 464 464 464H400V408H496V432ZM496 392H400V312H496V392ZM496 296H400V216H496V296ZM496 200H400V120H496V200ZM496 104H400V48H464C481.645 48 496 62.355 496 80V104Z"/></svg>