<svg xmlns="http://www.w3.org/2000/svg" viewBox="0 0 640 512"><!-- Font Awesome Pro 6.0.0-alpha2 by @fontawesome - https://fontawesome.com License - https://fontawesome.com/license (Commercial License) --><path d="M367.999 455.984C367.999 461.512 363.265 463.998 359.906 463.998C358.324 463.998 356.816 463.506 355.421 462.531L275.394 406.527C273.269 405.047 271.999 402.605 271.999 400V309.826L255.999 297.107V400C255.999 407.828 259.812 415.172 266.249 419.656L346.249 475.641C350.534 478.639 355.273 480 359.906 480C372.339 480 383.999 470.203 383.999 455.984V398.854L367.999 386.137V455.984ZM543.296 48C550.023 48 555.695 51.523 558.468 57.426C559.726 60.102 562.031 67.07 556.308 73.971L417.421 241.453L429.949 251.412L568.624 84.186C585.964 63.275 570.788 32 543.296 32H153.919L174.048 48H543.296ZM636.98 497.734L12.988 1.73C11.525 0.566 9.771 0 8.025 0C5.673 0 3.335 1.029 1.738 3.012C-1.012 6.48 -0.434 11.512 3.019 14.262L627.011 510.266C628.495 511.438 630.245 512 631.995 512C634.339 512 636.683 510.969 638.261 508.984C641.011 505.516 640.433 500.484 636.98 497.734Z"/></svg>