<svg xmlns="http://www.w3.org/2000/svg" viewBox="0 0 512 512"><!-- Font Awesome Pro 6.0.0-alpha2 by @fontawesome - https://fontawesome.com License - https://fontawesome.com/license (Commercial License) --><path d="M123.063 158.088C99.926 186.674 87.431 222.788 87.998 259.631C88.64 298.444 85.529 337.21 78.745 374.843C76.997 384.409 91.607 389.144 94.58 377.253C101.519 338.366 104.717 298.577 103.998 259.421C103.572 225.545 114.498 194.014 135.59 168.143C142.442 159.654 129.774 149.998 123.063 158.088ZM248.11 270.003C249.257 343.413 239.983 414.093 219.762 485.84C217.059 497.039 232.51 499.715 235.209 490.152C255.79 417.171 265.243 345.233 264.108 270.245C264.105 259.233 248.11 259.514 248.11 270.003ZM254.987 180.252C230.369 180.252 207.926 189.287 191.785 205.694C176.157 221.569 167.751 242.678 168.114 265.12C168.884 314.225 164.274 363.343 154.413 411.109C152.231 421.429 167.855 424.886 170.085 414.312C180.128 365.792 184.853 315.483 184.115 264.862C183.857 247.022 190.943 229.452 203.553 216.655C216.525 203.498 234.526 196.248 254.241 196.248C294.709 196.889 327.621 228.873 328.102 267.553C328.989 316.14 325.342 365.402 317.262 413.882C315.703 423.414 330.494 427.937 333.094 416.242C341.237 366.855 344.952 316.686 344.1 267.276C343.362 220.022 303.385 180.994 254.987 180.252ZM252.499 16.005C183.896 15.583 124.91 41.099 81.827 84.298C38.522 127.607 15.195 185.162 16.127 246.385L16.004 268.221C15.713 279.194 31.694 279.78 32.006 269.042L32.125 245.792C31.313 189.135 52.952 135.67 93.056 95.56C157.231 31.591 234.079 31.888 252.323 31.997C326.852 33.076 396.933 70.15 439.811 131.178C445.833 139.783 458.97 130.756 452.864 122.06C407.027 56.83 332.121 17.177 252.499 16.005ZM253.747 98.123C231.262 97.849 216.906 101.482 212.025 102.67C201.621 105.099 205.133 120.642 215.762 118.162C219.75 117.256 233.618 114.029 253.532 114.123C337.461 115.381 406.824 182.826 408.221 264.479C408.73 303.132 406.805 342.03 402.498 380.171C401.322 390.452 417.086 392.558 418.311 382.031C422.85 343.023 424.832 303.436 424.219 264.253C422.735 174.029 346.26 99.498 253.747 98.123ZM490.468 207.092C488.056 196.186 472.613 200.44 474.831 210.389C479.921 233.42 480.099 250.17 479.966 275.585C479.869 286.319 495.863 286.378 495.963 275.725C496.091 253.131 496.207 232.928 490.468 207.092Z"/></svg>