<svg xmlns="http://www.w3.org/2000/svg" viewBox="0 0 384 512"><!-- Font Awesome Pro 6.0.0-alpha2 by @fontawesome - https://fontawesome.com License - https://fontawesome.com/license (Commercial License) --><path d="M197.391 0C194.328 -2.781 189.672 -2.781 186.609 0C73.25 103.345 0 219.941 0 297.02C0 422.366 78.953 509.914 192 509.914S384 422.366 384 297.02C384 220.019 310.75 103.439 197.391 0ZM104 389.553C104 352.412 139.125 293.395 192 241.082C244.875 293.442 280 352.458 280 389.553C280 450.991 243.812 493.914 192 493.914S104 450.991 104 389.553ZM264.072 479.017C284.051 457.665 296 426.673 296 389.553C296 346.443 257.344 281.504 197.531 224.128C194.438 221.16 189.563 221.16 186.469 224.128C126.656 281.457 88 346.38 88 389.553C88 426.673 99.949 457.665 119.928 479.017C56.363 450.583 16 383.564 16 297.02C16 226.535 86.484 114.533 192 16.781C297.516 114.627 368 226.628 368 297.02C368 383.564 327.637 450.583 264.072 479.017Z"/></svg>