<svg xmlns="http://www.w3.org/2000/svg" viewBox="0 0 640 512"><!-- Font Awesome Pro 6.0.0-alpha2 by @fontawesome - https://fontawesome.com License - https://fontawesome.com/license (Commercial License) --><path d="M166.531 255.773C162.156 241.117 159.938 226.179 159.938 211.366C159.938 162.802 210.328 80.956 277.984 18.766C303.391 41.986 326.781 67.549 345.953 93.018C348.369 96.206 354.293 98.308 358.453 93.362C369.531 80.268 381.656 67.643 394.562 55.705C443.781 102.237 479.938 174.865 479.938 211.147C479.938 225.898 477.75 240.867 473.453 255.711C470.5 265.805 485.861 270.368 488.828 260.149C493.547 243.898 495.938 227.398 495.938 211.147C495.938 170.115 456.5 89.268 399.906 38.892C396.875 36.204 392.297 36.204 389.266 38.892C376.297 50.486 364.031 62.799 352.719 75.549C332.734 50.111 308.906 24.829 283.313 2.016C280.281 -0.672 275.688 -0.672 272.656 2.016C198.078 68.518 143.938 156.583 143.938 211.366C143.938 227.741 146.375 244.211 151.188 260.336C154.256 270.5 169.551 265.969 166.531 255.773ZM417.875 241.085C427.734 215.803 425.688 187.459 412.219 163.271C409.656 158.708 406.688 153.833 403.609 148.926C401.002 144.817 394.836 143.618 391 147.739L353.109 188.271C336.281 168.115 288.938 111.425 284.563 106.613C281.432 103.191 275.941 103.019 272.656 106.675C238.438 145.208 216 172.802 216 204.116C216 218.147 218.734 231.304 224.109 243.273C228.385 252.828 243.096 246.484 238.703 236.71C234.25 226.835 232 215.866 232 204.116C232 181.865 246.422 160.833 278.547 124.176C292.516 140.676 327.078 182.052 346.625 205.491C351.064 210.78 357.555 206.94 358.609 205.834L395.516 166.333C410.014 190.654 411.197 214.163 402.969 235.273C399.076 245.25 414.078 250.742 417.875 241.085ZM522.797 285.994C489.578 285.994 458.812 299.275 436.641 322.838C413.516 281.868 369.016 255.992 320 255.992S226.484 281.868 203.359 322.838C181.188 299.275 150.422 285.994 117.203 285.994C52.578 285.994 0 336.682 0 398.997S52.578 512 117.203 512H522.797C587.422 512 640 461.311 640 398.997S587.422 285.994 522.797 285.994ZM522.797 496H117.203C61.406 496 16 452.498 16 398.997S61.406 301.994 117.203 301.994C149.641 301.994 179.344 316.619 198.703 342.089C201.998 346.44 209.732 346.511 212.391 340.463C230.766 298.868 273 271.993 320 271.993S409.234 298.868 427.609 340.464C430.338 346.667 438.1 346.272 441.297 342.089C460.656 316.619 490.359 301.994 522.797 301.994C578.594 301.994 624 345.495 624 398.997S578.594 496 522.797 496Z"/></svg>