<svg xmlns="http://www.w3.org/2000/svg" viewBox="0 0 640 512"><!-- Font Awesome Pro 6.0.0-alpha2 by @fontawesome - https://fontawesome.com License - https://fontawesome.com/license (Commercial License) --><path d="M608 96H576C492.328 96 418.262 121.203 371.547 160H64C28.801 160 0 188.797 0 224V288C0 323.199 28.801 352 64 352H371.547C418.262 390.797 492.328 416 576 416H608C625.625 416 640 401.625 640 384V128C640 110.375 625.625 96 608 96ZM544 398.555C479.891 393.203 420.805 372.109 381.77 339.691L377.324 336H64C37.531 336 16 314.469 16 288V224C16 197.531 37.531 176 64 176H377.324L381.77 172.309C420.805 139.891 479.891 118.797 544 113.445V398.555ZM624 384C624 392.824 616.824 400 608 400H576C570.625 400 565.328 399.633 560 399.414V112.586C565.328 112.367 570.625 112 576 112H608C616.824 112 624 119.176 624 128V384ZM288 224H256C238.375 224 224 238.375 224 256S238.375 288 256 288H288C305.625 288 320 273.625 320 256S305.625 224 288 224ZM288 272H256C247.176 272 240 264.824 240 256S247.176 240 256 240H288C296.824 240 304 247.176 304 256S296.824 272 288 272Z"/></svg>