<svg xmlns="http://www.w3.org/2000/svg" viewBox="0 0 448 512"><!-- Font Awesome Pro 6.0.0-alpha2 by @fontawesome - https://fontawesome.com License - https://fontawesome.com/license (Commercial License) --><path d="M429.254 141.254L338.746 50.744C326.742 38.742 310.465 32 293.49 32H64C28.654 32 0 60.654 0 96V416C0 451.346 28.654 480 64 480H384C419.346 480 448 451.346 448 416V186.51C448 169.535 441.258 153.258 429.254 141.254ZM80 48H293.49C297.08 48 300.58 48.482 304 49.246V152C304 165.234 293.219 176 280 176H104C90.781 176 80 165.234 80 152V48ZM432 416C432 442.467 410.467 464 384 464H64C37.533 464 16 442.467 16 416V96C16 69.533 37.533 48 64 48V152C64 174.062 81.938 192 104 192H280C302.062 192 320 174.062 320 152V55.98C322.643 57.738 325.137 59.764 327.432 62.059L417.941 152.57C427.008 161.635 432 173.688 432 186.51V416ZM224 240C175.469 240 136 279.469 136 328S175.469 416 224 416S312 376.531 312 328S272.531 240 224 240ZM224 400C184.312 400 152 367.703 152 328S184.312 256 224 256S296 288.297 296 328S263.688 400 224 400Z"/></svg>