<svg xmlns="http://www.w3.org/2000/svg" viewBox="0 0 512 512"><!-- Font Awesome Pro 6.0.0-alpha2 by @fontawesome - https://fontawesome.com License - https://fontawesome.com/license (Commercial License) --><path d="M464 96H272L217.373 41.375C211.371 35.371 203.232 32 194.746 32H48C21.49 32 0 53.492 0 80V432C0 458.508 21.49 480 48 480H464C490.51 480 512 458.508 512 432V144C512 117.492 490.51 96 464 96ZM424 112V327.359L357 273.75C354.062 271.406 349.938 271.406 347 273.75L280 327.359V112H424ZM496 432C496 449.672 481.674 464 464 464H48C30.326 464 16 449.672 16 432V80C16 62.328 30.326 48 48 48H188.117C196.604 48 204.742 51.371 210.744 57.371L264 110.629V344C264 347.078 265.75 349.875 268.531 351.203C271.25 352.516 274.594 352.172 277 350.25L352 290.25L427 350.25C428.438 351.406 430.219 352 432 352C433.188 352 434.375 351.734 435.469 351.203C438.25 349.875 440 347.078 440 344V112H464C481.674 112 496 126.328 496 144V432Z"/></svg>