<svg xmlns="http://www.w3.org/2000/svg" viewBox="0 0 512 512"><!-- Font Awesome Pro 6.0.0-alpha2 by @fontawesome - https://fontawesome.com License - https://fontawesome.com/license (Commercial License) --><path d="M464 96H272L217.373 41.375C211.371 35.371 203.232 32 194.746 32H48C21.49 32 0 53.492 0 80V432C0 458.508 21.49 480 48 480H464C490.51 480 512 458.508 512 432V144C512 117.492 490.51 96 464 96ZM496 432C496 449.672 481.674 464 464 464H48C30.326 464 16 449.672 16 432V80C16 62.328 30.326 48 48 48H188.117C196.604 48 204.742 51.371 210.744 57.371L265.371 112H464C481.674 112 496 126.328 496 144V432ZM261.66 186.348C260.213 184.898 258.213 184 256 184S251.787 184.898 250.34 186.348L154.344 282.344C151.219 285.469 151.219 290.531 154.344 293.656S162.531 296.781 165.656 293.656L248 211.312V384C248 388.422 251.578 392 256 392S264 388.422 264 384V211.312L346.344 293.656C347.906 295.219 349.953 296 352 296S356.094 295.219 357.656 293.656C360.781 290.531 360.781 285.469 357.656 282.344L261.66 186.348Z"/></svg>