<svg xmlns="http://www.w3.org/2000/svg" viewBox="0 0 576 512"><!-- Font Awesome Pro 6.0.0-alpha2 by @fontawesome - https://fontawesome.com License - https://fontawesome.com/license (Commercial License) --><path d="M543.959 224H480V144C480 117.492 458.51 96 432 96H272L217.373 41.375C211.371 35.371 203.232 32 194.746 32H48C21.49 32 0 53.492 0 80V448C0 465.672 14.326 480 32 480H428.18C452.422 480 474.582 466.305 485.424 444.621L572.58 270.312C583.219 249.031 567.748 224 543.959 224ZM16 80C16 62.328 30.326 48 48 48H188.117C196.604 48 204.742 51.371 210.744 57.375L265.371 112H432C449.674 112 464 126.328 464 144V224H157.664C139.484 224 122.865 234.273 114.734 250.531L16 448V80ZM558.268 263.156L471.111 437.469C462.98 453.727 446.361 464 428.182 464H38.834C32.889 464 29.02 457.742 31.68 452.422L129.047 257.688C134.467 246.844 145.545 240 157.664 240H543.959C552.01 240 556.162 245.305 557.572 247.586C558.979 249.867 561.869 255.953 558.268 263.156Z"/></svg>