<svg xmlns="http://www.w3.org/2000/svg" viewBox="0 0 512 512"><!-- Font Awesome Pro 6.0.0-alpha2 by @fontawesome - https://fontawesome.com License - https://fontawesome.com/license (Commercial License) --><path d="M464 96H272L217.373 41.375C211.371 35.371 203.232 32 194.746 32H48C21.49 32 0 53.492 0 80V432C0 458.508 21.49 480 48 480H464C490.51 480 512 458.508 512 432V144C512 117.492 490.51 96 464 96ZM496 432C496 449.672 481.674 464 464 464H48C30.326 464 16 449.672 16 432V80C16 62.328 30.326 48 48 48H188.117C196.604 48 204.742 51.371 210.744 57.371L265.371 112H464C481.674 112 496 126.328 496 144V432ZM256 240C229.531 240 208 261.531 208 288S229.531 336 256 336S304 314.469 304 288S282.469 240 256 240ZM256 320C238.359 320 224 305.656 224 288S238.359 256 256 256S288 270.344 288 288S273.641 320 256 320ZM384.766 245.5C381.734 235.875 378.141 227.531 373.781 220C369.375 212.375 363.953 205.094 357.172 197.688C352.156 192.344 343.891 191.094 337.453 194.781L318.75 205.594C311.719 200.219 304.094 195.812 296 192.406V170.875C296 163.406 290.781 156.844 283.562 155.219C263.969 150.875 248.094 150.875 228.406 155.219C221.219 156.844 216 163.406 216 170.875V192.406C207.906 195.812 200.281 200.219 193.266 205.594L174.531 194.781C168.047 191 159.797 192.312 154.797 197.719C148 205.156 142.578 212.469 138.234 220C133.875 227.531 130.281 235.875 127.234 245.5C125.031 252.5 128.094 260.312 134.562 264.094L152.984 274.719C152.328 279.438 152 283.812 152 288S152.328 296.562 152.984 301.312L134.531 311.938C128.094 315.688 125.031 323.5 127.234 330.5C130.281 340.125 133.875 348.469 138.234 356C142.578 363.531 148 370.844 154.828 378.312C159.781 383.656 168.078 384.906 174.562 381.219L193.266 370.406C200.281 375.781 207.906 380.188 216 383.594V405.125C216 412.594 221.219 419.156 228.438 420.781C238.25 422.938 247.266 424 256 424C264.75 424 273.766 422.938 283.594 420.781C290.781 419.156 296 412.594 296 405.125V383.594C304.094 380.187 311.719 375.781 318.75 370.406L337.469 381.219C343.891 384.906 352.156 383.687 357.203 378.281C363.953 370.906 369.375 363.625 373.781 356C378.141 348.469 381.734 340.125 384.766 330.5C386.969 323.5 383.906 315.687 377.453 311.906L359.016 301.281C359.672 296.562 360 292.188 360 288S359.672 279.438 359.016 274.719L377.5 264.062C383.906 260.312 386.969 252.5 384.766 245.5ZM341.344 266.406L342.359 271.969C343.484 278.031 344 283.125 344 288S343.484 297.969 342.359 304.031L341.344 309.594L369.516 325.688C366.828 334.188 363.688 341.469 359.938 348C356.125 354.594 351.359 360.969 345.453 367.344L317.109 351L312.813 354.656C304.594 361.656 295.344 367 285.313 370.594L280 372.5L280.125 405.156C262.797 408.969 249.109 409 232 405.125V372.5L226.688 370.594C216.641 367 207.406 361.656 199.203 354.656L194.906 351L166.609 367.469C160.609 360.906 155.859 354.531 152.078 348C148.312 341.5 145.172 334.188 142.562 325.781L170.656 309.563L169.641 304.031C168.516 297.969 168 292.875 168 288S168.516 278.031 169.641 271.969L170.656 266.437L142.484 250.312C145.172 241.812 148.312 234.5 152.078 228C155.859 221.469 160.609 215.094 166.562 208.656L194.906 225L199.203 221.344C207.406 214.344 216.641 209 226.687 205.406L232 203.5L231.875 170.844C249.234 167.031 262.922 167 280 170.875V203.5L285.312 205.406C295.344 209 304.594 214.344 312.812 221.344L317.109 225L345.391 208.531C351.359 215.031 356.125 221.406 359.938 228C363.688 234.531 366.828 241.812 369.453 250.219L341.344 266.406Z"/></svg>