<svg xmlns="http://www.w3.org/2000/svg" viewBox="0 0 640 512"><!-- Font Awesome Pro 6.0.0-alpha2 by @fontawesome - https://fontawesome.com License - https://fontawesome.com/license (Commercial License) --><path d="M560 96H400L345.373 41.375C339.371 35.371 331.232 32 322.746 32H176C149.49 32 128 53.492 128 80V336C128 362.508 149.49 384 176 384H560C586.51 384 608 362.508 608 336V144C608 117.492 586.51 96 560 96ZM592 336C592 353.672 577.674 368 560 368H176C158.326 368 144 353.672 144 336V80C144 62.328 158.326 48 176 48H316.117C324.604 48 332.742 51.371 338.744 57.371L393.371 112H560C577.674 112 592 126.328 592 144V336ZM504 416C499.582 416 496 419.582 496 424V432C496 449.672 481.674 464 464 464H80C62.326 464 48 449.672 48 432V176C48 158.328 62.326 144 80 144H88C92.418 144 96 140.418 96 136S92.418 128 88 128H80C53.49 128 32 149.492 32 176V432C32 458.508 53.49 480 80 480H464C490.51 480 512 458.508 512 432V424C512 419.582 508.418 416 504 416Z"/></svg>