<svg xmlns="http://www.w3.org/2000/svg" viewBox="0 0 576 512"><!-- Font Awesome Pro 6.0.0-alpha2 by @fontawesome - https://fontawesome.com License - https://fontawesome.com/license (Commercial License) --><path d="M275.736 405.531C273.111 409.094 273.861 414.094 277.423 416.719C278.845 417.781 280.517 418.281 282.173 418.281C284.611 418.281 287.033 417.156 288.611 415.031L311.892 383.531C324.595 364.594 328.033 341 321.314 318.781C314.533 296.281 297.97 278.156 275.908 269C251.142 258.562 221.408 263 198.361 280.438L166.767 304.062C163.236 306.719 162.517 311.719 165.158 315.25C167.83 318.812 172.814 319.469 176.361 316.875L207.986 293.219C226.533 279.219 250.173 275.594 269.752 283.75C287.392 291.063 300.611 305.531 306.001 323.406C311.33 341 308.627 359.656 298.814 374.313L275.736 405.531ZM368.002 96C359.169 96 352.002 103.168 352.002 112S359.169 128 368.002 128C376.836 128 384.002 120.832 384.002 112S376.836 96 368.002 96ZM568.001 464H507.876L396.267 322.625L538.658 248.156C558.876 236.875 571.439 215.5 571.439 192.375C571.439 168.875 558.564 147.219 537.861 135.937C505.33 118.062 461.189 102.312 446.267 97.187C439.22 59.688 406.439 32 368.002 32C330.267 32 297.955 58.688 290.127 95.188H286.392C122.627 110.812 -0.498 246.688 0.002 411.281C0.142 449.188 31.423 480 69.72 480H376.002C380.423 480 384.002 476.406 384.002 472S380.423 464 376.002 464H69.72C40.205 464 16.111 440.312 16.002 411.219C15.533 254.969 132.423 125.938 287.158 111.156H296.892C300.923 111.156 304.33 108.156 304.83 104.156C308.798 72.125 335.955 48 368.002 48C400.08 48 427.236 72.156 431.173 104.188C431.548 107.25 433.673 109.844 436.611 110.812C442.361 112.719 493.955 130.062 530.189 149.969C545.767 158.469 555.439 174.719 555.439 192.375C555.439 209.687 546.017 225.719 531.048 234.094L380.298 312.906C378.189 314.001 376.673 316 376.173 318.344C375.673 320.656 376.252 323.094 377.72 324.969L497.72 476.969C499.236 478.875 501.548 480 504.001 480H568.001C572.423 480 576.001 476.406 576.001 472S572.423 464 568.001 464Z"/></svg>