<svg xmlns="http://www.w3.org/2000/svg" viewBox="0 0 448 512"><!-- Font Awesome Pro 6.0.0-alpha2 by @fontawesome - https://fontawesome.com License - https://fontawesome.com/license (Commercial License) --><path d="M384 248H232V96C232 91.578 228.422 88 224 88H64C59.578 88 56 91.578 56 96V256C56 260.422 59.578 264 64 264H216V416C216 420.422 219.578 424 224 424H384C388.422 424 392 420.422 392 416V256C392 251.578 388.422 248 384 248ZM216 248H72V104H216V248ZM376 408H232V264H376V408ZM384 32H64C28.654 32 0 60.652 0 96V416C0 451.348 28.654 480 64 480H384C419.346 480 448 451.348 448 416V96C448 60.652 419.346 32 384 32ZM432 416C432 442.469 410.467 464 384 464H64C37.533 464 16 442.469 16 416V96C16 69.531 37.533 48 64 48H384C410.467 48 432 69.531 432 96V416Z"/></svg>