<svg xmlns="http://www.w3.org/2000/svg" viewBox="0 0 576 512"><!-- Font Awesome Pro 6.0.0-alpha2 by @fontawesome - https://fontawesome.com License - https://fontawesome.com/license (Commercial License) --><path d="M288 320C276.598 320 265.771 322.344 255.766 326.307L142.469 171.281C139.844 167.703 134.844 166.969 131.281 169.547C127.719 172.141 126.938 177.156 129.531 180.719L241.326 333.689C216.588 349.281 200 376.654 200 408C200 412.422 203.594 416 208 416S216 412.422 216 408C216 368.297 248.312 336 288 336S360 368.297 360 408C360 412.422 363.594 416 368 416S376 412.422 376 408C376 359.469 336.531 320 288 320ZM288 32C129.188 32 0 161.203 0 320C0 375.094 16.25 429.156 46.938 476.359C48.438 478.625 50.938 480 53.656 480H522.344C525.062 480 527.562 478.625 529.062 476.359C559.75 429.156 576 375.094 576 320C576 161.203 446.812 32 288 32ZM517.969 464H58.031C30.531 420.281 16 370.578 16 320C16 170.016 138.031 48 288 48S560 170.016 560 320C560 370.578 545.469 420.281 517.969 464Z"/></svg>