<svg xmlns="http://www.w3.org/2000/svg" viewBox="0 0 512 512"><!-- Font Awesome Pro 6.0.0-alpha2 by @fontawesome - https://fontawesome.com License - https://fontawesome.com/license (Commercial License) --><path d="M499.954 332.005C499.954 326.345 496.842 320.874 491.75 317.934L445.137 291.023C447.235 279.648 448.477 267.977 448.477 256S447.235 232.352 445.137 220.977L491.75 194.066C496.842 191.126 499.954 185.655 499.954 179.995C499.954 165.898 457.979 80.953 436.09 80.953C433.258 80.953 430.403 81.68 427.844 83.156L381.125 110.133C363.411 94.98 342.897 83.098 320.477 75.16V21.281C320.477 13.758 315.315 7.004 307.95 5.461C291.321 1.977 274.145 0 256.477 0S221.633 1.977 205.004 5.461C197.639 7.004 192.477 13.758 192.477 21.281V75.16C170.057 83.098 149.543 94.98 131.828 110.133L85.11 83.156C82.553 81.68 79.694 80.953 76.864 80.953C57.143 80.953 13 162.9 13 179.995C13 185.655 16.112 191.126 21.203 194.066L67.817 220.977C65.719 232.352 64.477 244.023 64.477 256S65.719 279.648 67.817 291.023L21.203 317.934C16.112 320.874 13 326.345 13 332.005C13 346.102 54.975 431.047 76.864 431.047C79.696 431.047 82.551 430.32 85.11 428.844L131.828 401.867C149.543 417.02 170.057 428.902 192.477 436.84V490.719C192.477 498.242 197.639 504.996 205.004 506.539C221.633 510.023 238.809 512 256.477 512S291.321 510.023 307.95 506.539C315.315 504.996 320.477 498.242 320.477 490.719V436.84C342.897 428.902 363.411 417.02 381.125 401.867L427.844 428.844C430.401 430.32 433.26 431.047 436.09 431.047C455.81 431.047 499.954 349.1 499.954 332.005ZM435.844 414.988L389.125 388.012L379.327 382.352L370.725 389.707C354.354 403.711 335.651 414.496 315.137 421.758L304.477 425.531V436.84L304.668 490.879C288.452 494.277 272.237 496 256.477 496S224.502 494.277 208.477 490.719V425.531L197.817 421.758C177.303 414.496 158.6 403.711 142.229 389.707L133.627 382.352L123.828 388.012L77.043 415.234C55.438 390.871 39.26 362.785 29.203 331.789L75.817 304.879L85.6 299.23L83.551 288.121C81.483 276.902 80.477 266.395 80.477 256S81.483 235.098 83.551 223.879L85.6 212.77L75.817 207.121L28.959 180.238C39.26 149.215 55.438 121.129 77.11 97.012L123.828 123.988L133.627 129.648L142.229 122.293C158.6 108.289 177.303 97.504 197.817 90.242L208.477 86.469V75.16L208.286 21.121C224.502 17.723 240.717 16 256.477 16S288.452 17.723 304.477 21.281V86.469L315.137 90.242C335.651 97.504 354.354 108.289 370.725 122.293L379.327 129.648L389.125 123.988L435.911 96.766C457.516 121.129 473.694 149.215 483.75 180.211L437.137 207.121L427.354 212.77L429.403 223.879C431.471 235.098 432.477 245.605 432.477 256S431.471 276.902 429.403 288.121L427.354 299.23L437.137 304.879L483.995 331.762C473.694 362.785 457.516 390.871 435.844 414.988ZM256.477 176C212.366 176 176.477 211.887 176.477 256S212.366 336 256.477 336S336.477 300.113 336.477 256S300.588 176 256.477 176ZM256.477 320C221.188 320 192.477 291.289 192.477 256S221.188 192 256.477 192S320.477 220.711 320.477 256S291.766 320 256.477 320Z "></path></svg>