<svg xmlns="http://www.w3.org/2000/svg" viewBox="0 0 448 512"><!-- Font Awesome Pro 6.0.0-alpha2 by @fontawesome - https://fontawesome.com License - https://fontawesome.com/license (Commercial License) --><path d="M191.995 79.984C183.243 79.984 175.993 87.234 175.993 95.984S183.243 111.984 191.995 111.984C200.745 111.984 207.995 104.734 207.995 95.984S200.745 79.984 191.995 79.984ZM224.004 335.99C224.003 335.99 224.003 335.99 224.001 335.99S223.999 335.99 223.997 335.99C215.247 335.99 207.995 343.24 207.995 351.992C207.995 360.742 215.247 367.992 223.997 367.992C223.999 367.992 223.999 367.992 224.001 367.992S224.003 367.992 224.004 367.992C232.754 367.992 240.006 360.742 240.006 351.992C240.006 343.24 232.754 335.99 224.004 335.99ZM224.004 271.988C224.003 271.988 224.003 271.988 224.001 271.988S223.999 271.988 223.997 271.988C215.247 271.988 207.995 279.24 207.995 287.99S215.247 303.99 223.997 303.99C223.999 303.99 223.999 303.99 224.001 303.99S224.003 303.99 224.004 303.99C232.754 303.99 240.006 296.74 240.006 287.99S232.754 271.988 224.004 271.988ZM224.004 207.988C224.003 207.988 224.003 207.988 224.001 207.988S223.999 207.988 223.997 207.988C215.247 207.988 207.995 215.238 207.995 223.988S215.247 239.988 223.997 239.988C223.999 239.988 223.999 239.988 224.001 239.988S224.003 239.988 224.004 239.988C232.754 239.988 240.006 232.738 240.006 223.988S232.754 207.988 224.004 207.988ZM413.899 290.205C428.383 273.18 434.614 250.633 430.993 228.344C425.114 192.225 391.52 164.99 352.85 164.99H311.975C323.7 147.67 330.012 127.258 330.012 105.984C330.012 77.66 318.977 51.037 298.942 31.025C278.938 11.041 252.327 0.035 224.001 0C195.674 0.035 169.063 11.041 149.059 31.025C129.024 51.037 117.989 77.66 117.989 105.984C117.989 127.258 124.301 147.67 136.026 164.99H95.151C56.481 164.99 22.887 192.225 17.008 228.344C13.387 250.633 19.618 273.18 34.102 290.205C48.585 307.229 69.682 316.994 91.987 316.994H116.878L116.835 317.045L117.704 318.768L63.206 384.281C49.182 401.004 42.475 423.287 44.852 445.365C47.063 465.904 56.844 483.842 72.393 495.879C85.233 506.211 101.864 512 118.987 512C141.629 512 162.934 502.051 177.44 484.697L213.317 441.674C216.944 437.303 221.536 436.639 224.001 436.631C226.465 436.639 231.057 437.303 234.684 441.674L270.561 484.697C285.067 502.051 306.372 512 329.014 512C346.137 512 362.768 506.211 375.608 495.879C391.157 483.842 400.938 465.904 403.149 445.365C405.526 423.287 398.819 401.004 384.795 384.281L330.297 318.768L331.167 317.045L331.124 316.994H356.014C378.319 316.994 399.417 307.229 413.899 290.205ZM314.01 318.104C314.01 322.088 315.417 325.955 317.995 329.002L372.493 394.512C394.409 420.646 392.768 462.365 365.813 483.225C355.032 491.896 341.905 496 329.014 496C311.901 496 294.792 488.732 282.837 474.436L246.975 431.428C241.016 424.24 232.518 420.654 224.001 420.635C215.483 420.654 206.985 424.24 201.026 431.428L165.165 474.436C153.21 488.732 136.1 496 118.987 496C106.096 496 92.969 491.896 82.188 483.225C55.233 462.365 53.592 420.646 75.508 394.512L130.006 329.002C132.585 325.955 133.991 322.088 133.991 318.104C133.991 308.729 126.372 300.994 116.878 300.994H91.987C55.54 300.994 26.71 268.414 32.803 230.914C37.608 201.383 65.266 180.99 95.151 180.99H153.913C160.594 180.99 163.758 173.021 159.071 168.1C143.6 152.045 133.991 130.127 133.991 105.984C133.991 56.33 174.2 16.074 224.001 16C273.801 16.074 314.01 56.33 314.01 105.984C314.01 130.127 304.401 152.045 288.93 168.1C284.243 173.021 287.407 180.99 294.088 180.99H352.85C382.735 180.99 410.393 201.383 415.198 230.914C421.292 268.414 392.462 300.994 356.014 300.994H331.124C321.629 300.994 314.01 308.729 314.01 318.104ZM256.006 79.984C247.256 79.984 240.006 87.234 240.006 95.984S247.256 111.984 256.006 111.984C264.758 111.984 272.008 104.734 272.008 95.984S264.758 79.984 256.006 79.984Z"/></svg>