<svg xmlns="http://www.w3.org/2000/svg" viewBox="0 0 512 512"><!-- Font Awesome Pro 6.0.0-alpha2 by @fontawesome - https://fontawesome.com License - https://fontawesome.com/license (Commercial License) --><path d="M480 0H416C398.326 0 384 14.326 384 32V96C384 113.674 398.326 128 416 128H480C497.674 128 512 113.674 512 96V32C512 14.326 497.674 0 480 0ZM496 96C496 104.822 488.822 112 480 112H416C407.178 112 400 104.822 400 96V32C400 23.178 407.178 16 416 16H480C488.822 16 496 23.178 496 32V96ZM96 192H32C14.326 192 0 206.326 0 224V288C0 305.674 14.326 320 32 320H96C113.674 320 128 305.674 128 288V224C128 206.326 113.674 192 96 192ZM112 288C112 296.822 104.822 304 96 304H32C23.178 304 16 296.822 16 288V224C16 215.178 23.178 208 32 208H96C104.822 208 112 215.178 112 224V288ZM288 0H224C206.326 0 192 14.326 192 32V96C192 113.674 206.326 128 224 128H288C305.674 128 320 113.674 320 96V32C320 14.326 305.674 0 288 0ZM304 96C304 104.822 296.822 112 288 112H224C215.178 112 208 104.822 208 96V32C208 23.178 215.178 16 224 16H288C296.822 16 304 23.178 304 32V96ZM96 384H32C14.326 384 0 398.326 0 416V480C0 497.674 14.326 512 32 512H96C113.674 512 128 497.674 128 480V416C128 398.326 113.674 384 96 384ZM112 480C112 488.822 104.822 496 96 496H32C23.178 496 16 488.822 16 480V416C16 407.178 23.178 400 32 400H96C104.822 400 112 407.178 112 416V480ZM480 384H416C398.326 384 384 398.326 384 416V480C384 497.674 398.326 512 416 512H480C497.674 512 512 497.674 512 480V416C512 398.326 497.674 384 480 384ZM496 480C496 488.822 488.822 496 480 496H416C407.178 496 400 488.822 400 480V416C400 407.178 407.178 400 416 400H480C488.822 400 496 407.178 496 416V480ZM288 192H224C206.326 192 192 206.326 192 224V288C192 305.674 206.326 320 224 320H288C305.674 320 320 305.674 320 288V224C320 206.326 305.674 192 288 192ZM304 288C304 296.822 296.822 304 288 304H224C215.178 304 208 296.822 208 288V224C208 215.178 215.178 208 224 208H288C296.822 208 304 215.178 304 224V288ZM288 384H224C206.326 384 192 398.326 192 416V480C192 497.674 206.326 512 224 512H288C305.674 512 320 497.674 320 480V416C320 398.326 305.674 384 288 384ZM304 480C304 488.822 296.822 496 288 496H224C215.178 496 208 488.822 208 480V416C208 407.178 215.178 400 224 400H288C296.822 400 304 407.178 304 416V480ZM480 192H416C398.326 192 384 206.326 384 224V288C384 305.674 398.326 320 416 320H480C497.674 320 512 305.674 512 288V224C512 206.326 497.674 192 480 192ZM496 288C496 296.822 488.822 304 480 304H416C407.178 304 400 296.822 400 288V224C400 215.178 407.178 208 416 208H480C488.822 208 496 215.178 496 224V288ZM96 0H32C14.326 0 0 14.326 0 32V96C0 113.674 14.326 128 32 128H96C113.674 128 128 113.674 128 96V32C128 14.326 113.674 0 96 0ZM112 96C112 104.822 104.822 112 96 112H32C23.178 112 16 104.822 16 96V32C16 23.178 23.178 16 32 16H96C104.822 16 112 23.178 112 32V96Z"/></svg>