<svg xmlns="http://www.w3.org/2000/svg" viewBox="0 0 512 512"><!-- Font Awesome Pro 6.0.0-alpha2 by @fontawesome - https://fontawesome.com License - https://fontawesome.com/license (Commercial License) --><path d="M415.997 320H351.998C347.592 320 343.998 323.594 343.998 328S347.592 336 351.998 336H415.997C420.403 336 423.997 332.406 423.997 328S420.403 320 415.997 320ZM415.997 384H351.998C347.592 384 343.998 387.594 343.998 392S347.592 400 351.998 400H415.997C420.403 400 423.997 396.406 423.997 392S420.403 384 415.997 384ZM194.718 198.313C187.495 193.783 179.024 190.536 169.465 188.109C164.686 186.896 160 190.52 160 195.451V196.246C160 199.735 162.412 202.696 165.786 203.584C173.466 205.606 180.423 208.225 186.281 211.906C192.031 215.438 197.218 219.563 202.156 224.531C215.718 238.156 222.874 254.656 222.874 272.25C222.874 282.156 220.468 292 215.906 300.781C209.37 313.578 208.925 329.039 213.933 342.18C215.831 347.164 222.28 348.574 226.444 345.242C229.214 343.031 230.165 339.301 228.901 335.988C225.527 327.141 225.7 316.781 230.124 308.094C235.843 297.094 238.874 284.719 238.874 272.25C238.874 250.625 229.843 229.688 213.499 213.25C207.718 207.438 201.406 202.406 194.718 198.313ZM216.347 474.445C214.556 469.602 208.628 467.977 204.535 471.121C183.886 486.984 156.805 496 128 496C94.063 496 62.313 483.688 40.876 462.188C24.782 446.063 15.939 425.75 16.001 404.969C15.908 387.5 22.314 370.344 34.564 355.438C46.72 340.719 49.001 318.25 40.064 300.719C35.532 292 33.126 282.156 33.126 272.25C33.126 254.656 40.282 238.156 53.876 224.5C58.782 219.563 63.97 215.438 69.782 211.875C75.691 208.156 82.658 205.513 90.222 203.504C93.593 202.609 96.001 199.652 96.001 196.165V195.358C96.001 190.423 91.309 186.791 86.529 188.018C77.102 190.437 68.621 193.714 61.345 198.281C54.595 202.406 48.282 207.438 42.532 213.219C26.157 229.688 17.126 250.625 17.126 272.25C17.126 284.719 20.158 297.094 25.845 308.031C31.939 320 30.439 335.313 22.22 345.281C7.564 363.125 -0.123 383.813 0.002 405C-0.061 430 10.439 454.313 29.564 473.5C53.97 497.969 89.844 512 128 512C160.355 512 190.658 501.484 214.081 483.445C216.757 481.383 217.579 477.77 216.406 474.606C216.386 474.555 216.366 474.5 216.347 474.445ZM505.403 397.063L480.122 328.156C474.734 313.303 475.335 297.383 481.751 283.197C486.563 272.557 489.621 261.209 489.621 249.531L489.621 223.063C489.621 211.313 481.653 201.156 470.247 198.406C458.872 195.75 447.091 201 441.841 211.406L431.872 230.625C429.246 235.676 424.939 239.399 420.167 241.678C417.593 242.907 415.997 245.525 415.997 248.377V249.474C415.997 254.971 421.728 258.705 426.711 256.384C435.059 252.497 441.84 246.151 446.059 238L456.059 218.719C458.028 214.875 462.372 212.938 466.497 213.969C470.684 214.969 473.622 218.719 473.622 223.063L473.622 250.938C473.622 259.569 471.245 267.923 467.58 275.737C459.041 293.945 458.16 314.474 465.09 333.625L490.559 402.969C501.184 427.749 496.022 456.723 476.155 476.67C463.336 489.54 445.402 496 427.237 496L338.748 496C316.217 496 295.405 484.781 283.061 466C270.686 447.25 268.655 423.719 277.686 402.656L303.03 333.719C310.03 314.438 309.092 293.625 300.373 275.156C296.53 267.188 294.592 258.625 294.592 249.656V202.438C294.592 198.344 297.436 194.906 301.498 194.25C305.748 193.469 309.498 195.813 310.842 199.563L323.029 233.031C326.135 241.67 332.206 248.854 340.651 253.788C345.659 256.713 351.994 252.993 351.992 247.193L351.992 245.912C351.991 243.377 350.763 240.935 348.59 239.629C343.799 236.75 339.942 232.744 338.092 227.563L325.873 194.063C321.811 182.938 310.436 176.406 298.811 178.469C287.092 180.375 278.592 190.469 278.592 202.438V249.656C278.592 261.031 281.061 271.938 285.936 282.031C292.78 296.594 293.53 313 287.999 328.25L262.843 396.75C250.235 426 255.383 459.944 277.027 484.401C293.069 502.529 316.773 512 340.98 512H426.637C450.816 512 474.519 502.634 490.647 484.619C512.552 460.149 517.848 425.971 505.403 397.063ZM88.001 320C88.001 342.063 105.938 360 128 360S168 342.063 168 320S150.062 280 128 280S88.001 297.938 88.001 320ZM152 320C152 333.219 141.219 344 128 344S104 333.219 104 320S114.782 296 128 296S152 306.781 152 320ZM120 146.906V248C120 252.406 123.594 256 128 256S136 252.406 136 248V146.906L166.75 110.031C172.718 102.844 176 93.75 176 84.406V40C176 17.938 158.062 0 136 0H120C97.938 0 80.001 17.938 80.001 40V84.406C80.001 93.75 83.282 102.844 89.251 110.031L120 146.906ZM96.001 40C96.001 26.781 106.782 16 120 16H136C149.219 16 160 26.781 160 40V84.406C160 90.031 158.031 95.469 154.437 99.781L128 131.5L101.563 99.781C97.969 95.469 96.001 90.031 96.001 84.406V40ZM375.998 171.313V280C375.998 284.406 379.591 288 383.998 288C388.404 288 391.997 284.406 391.997 280V79.188C410.247 75.469 423.997 59.313 423.997 40C423.997 17.938 406.06 0 383.998 0C361.435 0 341.435 14.375 334.279 35.813L318.654 82.719C313.842 97.156 317.529 112.844 328.342 123.656L375.998 171.313ZM333.842 87.781L349.467 40.875C354.435 26 368.31 16 383.998 16C397.216 16 407.997 26.781 407.997 40S397.216 64 383.998 64C379.591 64 375.998 67.594 375.998 72V148.688L339.654 112.344C333.154 105.844 330.936 96.438 333.842 87.781Z"/></svg>