<svg xmlns="http://www.w3.org/2000/svg" viewBox="0 0 640 512"><!-- Font Awesome Pro 6.0.0-alpha2 by @fontawesome - https://fontawesome.com License - https://fontawesome.com/license (Commercial License) --><path d="M575.999 80C584.822 80 591.999 87.176 591.999 96V176C591.999 184.824 584.822 192 575.999 192H505.372L500.685 196.688L478.062 219.312C475.038 222.336 471.019 224 466.745 224H395.464L415.593 240H466.745C475.232 240 483.37 236.629 489.372 230.629L511.999 208H575.999C593.673 208 607.999 193.672 607.999 176V96C607.999 78.328 593.673 64 575.999 64H543.999V40C543.999 35.582 540.417 32 535.999 32S527.999 35.582 527.999 40V64H194.179L214.308 80H575.999ZM543.999 136C543.999 131.594 540.406 128 535.999 128H274.693L294.822 144H535.999C540.406 144 543.999 140.406 543.999 136ZM282.829 320L283.171 318.711L269.497 307.84L231.245 452.398C229.294 459.23 222.968 464 215.863 464H96.019C90.952 464 86.296 461.68 83.245 457.637C80.195 453.59 79.243 448.477 80.747 443.188L121.325 285.188C125.501 270.57 122.646 255.227 113.493 243.094C112.62 241.938 111.507 241.062 110.548 240H184.154L164.025 224H75.171C60.189 224 47.999 211.812 47.999 196.828V131.773L31.999 119.055V196.828C31.999 220.672 51.327 240 75.171 240H75.173C96.433 240 111.783 260.348 105.941 280.793L65.251 439.207C59.409 459.652 74.759 480 96.019 480H215.863C230.15 480 242.704 470.531 246.63 456.793L278.595 336H304.925L284.796 320H282.829ZM636.98 497.734L12.988 1.73C11.523 0.566 9.773 0 8.023 0C5.671 0 3.335 1.031 1.738 3.012C-1.012 6.48 -0.434 11.512 3.019 14.262L627.011 510.266C628.495 511.438 630.245 512 631.995 512C634.339 512 636.683 510.969 638.261 508.984C641.011 505.516 640.433 500.484 636.98 497.734Z"/></svg>