<svg xmlns="http://www.w3.org/2000/svg" viewBox="0 0 512 512"><!-- Font Awesome Pro 6.0.0-alpha2 by @fontawesome - https://fontawesome.com License - https://fontawesome.com/license (Commercial License) --><path d="M508.726 296.094C508.726 296.062 508.726 296.062 508.71 296.062C502.335 281.438 487.928 272 472.006 272H416.004V80C416.004 53.531 394.472 32 368.003 32C341.534 32 320.002 53.531 320.002 80V206C320.002 207.094 319.08 208 318.001 208H306.001C304.923 208 304.001 207.094 304.001 206V48C304.001 21.531 282.469 0 256 0C229.531 0 207.999 21.531 207.999 48V206C207.999 207.094 207.077 208 205.998 208H193.998C192.92 208 191.998 207.094 191.998 206V80C191.998 53.531 170.466 32 143.997 32S95.996 53.531 95.996 80V272H39.994C24.072 272 9.665 281.438 3.274 296.094C-3.023 310.719 -0.085 327.719 10.775 339.344L113.402 449.344C152.263 490.906 200.249 512 256 512S359.737 490.906 398.598 449.344L501.225 339.344C512.085 327.719 515.023 310.719 508.726 296.094ZM489.538 328.406L386.91 438.406C350.69 477.156 307.876 496 256 496S161.31 477.156 125.09 438.406L22.462 328.406C15.947 321.438 14.181 311.219 17.947 302.438C21.775 293.656 30.431 288 39.994 288H103.996C108.418 288 111.996 284.406 111.996 280V80C111.996 62.344 126.356 48 143.997 48S175.998 62.344 175.998 80V206C175.998 215.938 184.076 224 193.998 224H205.998C215.921 224 223.999 215.938 223.999 206V48C223.999 30.344 238.359 16 256 16C273.641 16 288.001 30.344 288.001 48V206C288.001 215.938 296.079 224 306.001 224H318.001C327.924 224 336.002 215.938 336.002 206V80C336.002 62.344 350.362 48 368.003 48C385.644 48 400.004 62.344 400.004 80V280C400.004 284.406 403.582 288 408.004 288H472.006C481.553 288 490.194 293.656 494.038 302.406C497.819 311.219 496.053 321.438 489.538 328.406ZM256 280C199.389 280 155.216 344.781 153.357 347.531C151.544 350.25 151.544 353.75 153.357 356.469C155.216 359.219 199.389 424 256 424S356.784 359.219 358.643 356.469C360.456 353.75 360.456 350.25 358.643 347.531C356.784 344.781 312.611 280 256 280ZM256 408C215.749 408 180.498 366 169.888 352C180.498 338 215.749 296 256 296S331.502 338 342.112 352C331.502 366 296.251 408 256 408ZM255.992 336C247.179 336 239.992 343.188 239.992 352S247.179 368 255.992 368S271.993 360.812 271.993 352S264.805 336 255.992 336Z"/></svg>