<svg xmlns="http://www.w3.org/2000/svg" viewBox="0 0 576 512"><!-- Font Awesome Pro 6.0.0-alpha2 by @fontawesome - https://fontawesome.com License - https://fontawesome.com/license (Commercial License) --><path d="M247.991 160H303.989V248C303.989 252.406 307.567 256 311.989 256S319.989 252.406 319.989 248V152C319.989 68.188 251.804 0 167.994 0H103.996C99.575 0 95.997 3.594 95.997 8C95.997 91.812 164.182 160 247.991 160ZM167.994 16C240.289 16 299.599 72.719 303.755 144H247.991C175.697 144 116.387 87.281 112.23 16H167.994ZM346.207 100.656C370.081 67.188 406.064 48 444.906 48H495.764C491.952 119.281 437.485 176 371.065 176H351.988C347.566 176 343.988 179.594 343.988 184S347.566 192 351.988 192H371.065C448.766 192 511.982 123.812 511.982 40C511.982 35.594 508.404 32 503.982 32H444.906C400.83 32 360.097 53.625 333.176 91.344C330.613 94.938 331.442 99.938 335.051 102.5C338.613 105.125 343.629 104.25 346.207 100.656ZM566.621 323.562C558.981 313.187 547.778 306.438 535.075 304.531C522.31 302.531 509.763 305.781 499.498 313.406L381.955 400H263.975C259.632 400 255.975 396.344 255.975 392.031C255.975 387.688 259.632 384.031 263.975 384.031H342.207C362.565 384.031 380.299 369.719 383.471 350.688C385.377 338.969 382.112 327.094 374.487 318.156C366.862 309.188 355.722 304.031 343.957 304.031H183.978C155.26 304.031 127.152 314 104.824 332.063L60.529 368.031H8C3.578 368.031 0 371.625 0 376.031S3.578 384.031 8 384.031H66.216L114.902 344.5C134.386 328.719 158.916 320.031 183.978 320.031H343.957C351.035 320.031 357.722 323.125 362.3 328.5C366.94 333.969 368.847 340.938 367.69 348.094C365.8 359.469 354.847 368.031 342.207 368.031H263.975C250.741 368.031 239.976 378.813 239.976 392.031S250.741 416 263.975 416H387.205L509.013 326.281C515.873 321.188 524.326 319.188 532.7 320.344C541.169 321.625 548.637 326.125 553.746 333.062C558.809 339.938 560.902 348.375 559.621 356.812C558.34 365.281 553.856 372.719 546.965 377.781L411.908 477.281C395.517 489.344 375.284 496 354.956 496H8C3.578 496 0 499.594 0 504S3.578 512 8 512H354.956C378.674 512 402.283 504.25 421.407 490.156L556.465 390.656C566.777 383.062 573.527 371.906 575.449 359.219C577.37 346.562 574.23 333.875 566.621 323.562Z"/></svg>