<svg xmlns="http://www.w3.org/2000/svg" viewBox="0 0 640 512"><!-- Font Awesome Pro 6.0.0-alpha2 by @fontawesome - https://fontawesome.com License - https://fontawesome.com/license (Commercial License) --><path d="M436.021 17.572C422.357 5.655 405.672 0 388.891 0C367.904 0 346.758 8.843 331.127 25.338L320 36.993L308.873 25.338C293.244 8.843 272.094 0.004 251.109 0C234.324 0 217.645 5.655 203.977 17.572C168.721 48.268 166.721 103.398 198.352 136.6L307.248 251.112C310.748 254.809 315.375 256.658 320 256.658S329.252 254.809 332.752 251.112L441.773 136.6C473.279 103.398 471.404 48.268 436.021 17.572ZM321.174 240.045L318.846 240.033L318.832 240.049L209.928 125.525C197.732 112.726 191.229 94.915 192.078 76.657C192.938 58.184 200.893 41.505 214.48 29.67C224.711 20.749 237.377 16.037 251.109 16.037C268.195 16.041 285.02 23.451 297.311 36.429L320 60.186L342.732 36.382C354.98 23.451 371.805 16.037 388.891 16.037C402.623 16.037 415.289 20.749 425.547 29.697C439.121 41.474 447.086 58.102 447.979 76.528C448.865 94.825 442.377 112.691 430.195 125.529L321.174 240.045ZM600 62.872C577.906 62.872 560 80.824 560 102.975V256.125L497.805 341.07C492.242 348.033 484.117 351.589 475.953 351.589C468.832 351.589 461.688 348.887 456.195 343.38C446.117 333.284 445.227 317.204 454.125 306.042L472.984 275.409C484.031 261.561 481.797 241.384 467.984 230.293C462.109 225.57 455.063 223.283 448.063 223.283C438.664 223.283 429.336 227.403 423.016 235.306L373.023 297.959C359.414 315.018 352 336.206 352 358.051V479.918C352 497.635 366.328 512 384 512H480.02C489.734 512 498.918 507.575 504.984 499.969L625.969 348.338C635.051 336.958 640 322.812 640 308.235V102.975C640 80.824 622.094 62.872 600 62.872ZM624 308.235C624 319.131 620.262 329.814 613.477 338.313L492.492 489.943C489.445 493.766 484.898 495.959 480.02 495.959H384C375.18 495.959 368 488.761 368 479.918V358.051C368 339.918 374.219 322.138 385.516 307.985L435.508 245.324C439.039 240.907 448.953 235.557 457.977 242.81C464.359 247.932 466.609 257.715 459.883 266.151L459.367 266.981L440.965 296.878C427.672 314.408 429.273 339.088 444.887 354.722C453.18 363.048 464.219 367.63 475.953 367.63C489.391 367.63 501.906 361.607 510.297 351.087L576 261.381V102.975C576 89.707 586.766 78.913 600 78.913S624 89.707 624 102.975V308.235ZM216.984 235.306C210.664 227.403 201.336 223.283 191.938 223.283C184.938 223.283 177.891 225.57 172.016 230.293C158.203 241.384 155.969 261.561 167.016 275.409L185.875 306.042C194.773 317.204 193.883 333.284 183.805 343.38C178.312 348.887 171.168 351.589 164.047 351.589C155.883 351.589 147.758 348.033 142.195 341.07L80 256.125V102.975C80 80.824 62.094 62.872 40 62.872S0 80.824 0 102.975V308.235C0 322.812 4.949 336.958 14.031 348.338L135.016 499.969C141.082 507.575 150.266 512 159.98 512H256C273.672 512 288 497.635 288 479.918V358.051C288 336.206 280.586 315.018 266.977 297.959L216.984 235.306ZM272 479.918C272 488.761 264.82 495.959 256 495.959H159.98C155.102 495.959 150.555 493.766 147.508 489.943L26.523 338.313C19.738 329.814 16 319.131 16 308.235V102.975C16 89.707 26.766 78.913 40 78.913S64 89.707 64 102.975V261.381L129.703 351.087C138.094 361.607 150.609 367.63 164.047 367.63C175.781 367.63 186.82 363.048 195.113 354.722C210.727 339.088 212.328 314.408 199.035 296.878L180.633 266.981L180.117 266.151C173.391 257.715 175.641 247.932 182.023 242.81C191.047 235.557 200.961 240.907 204.492 245.324L254.484 307.985C265.781 322.138 272 339.918 272 358.051V479.918Z"/></svg>