<svg xmlns="http://www.w3.org/2000/svg" viewBox="0 0 448 512"><!-- Font Awesome Pro 6.0.0-alpha2 by @fontawesome - https://fontawesome.com License - https://fontawesome.com/license (Commercial License) --><path d="M448 131.062V233.844C448 263.719 423.719 288 393.844 288H380.969C371.875 307.375 353 320 332.312 320H316.937C309.687 320 303 318.812 296.875 316.5C286.656 328.812 271.594 336 255.375 336H246.781C238.875 336 231.125 334.219 224 330.875V456C224 486.875 198.875 512 168 512S112 486.875 112 456V168C112 163.594 115.594 160 120 160S128 163.594 128 168V456C128 478.062 145.938 496 168 496S208 478.062 208 456V316.031C208 310.703 212.521 308.014 215.996 308.014C223.137 308.014 227.291 320 246.781 320H255.375C268.438 320 280.469 313.344 287.563 302.188C289.078 299.779 291.642 298.474 294.291 298.474C299.284 298.474 302.153 304 316.938 304H332.313C347.906 304 362.656 292.938 368.156 277.094C369.234 273.974 372.166 271.677 375.292 271.677C375.61 271.677 375.93 271.701 376.25 271.75C376.25 271.75 378.531 272 378.563 272H393.844C414.875 272 432 254.875 432 233.844V131.062C432 67.625 380.375 16 316.938 16H194.312C175.219 16 156.219 20.812 139.406 29.938L76 64.375C58.719 73.719 48 91.781 48 111.438V188.875C48 205.219 55.312 220.469 68.094 230.688L81.938 241.75C83.907 243.325 84.932 245.649 84.932 247.999C84.932 252.634 81.142 256.018 76.924 256.018C75.171 256.018 73.408 255.44 71.938 254.25L58.094 243.188C41.5 229.906 32 210.094 32 188.875V111.438C32 85.875 45.938 62.469 68.375 50.313L131.781 15.875C150.938 5.5 172.562 0 194.312 0H316.937C389.219 0 448 58.781 448 131.062Z"/></svg>