<svg xmlns="http://www.w3.org/2000/svg" viewBox="0 0 640 512"><!-- Font Awesome Pro 6.0.0-alpha2 by @fontawesome - https://fontawesome.com License - https://fontawesome.com/license (Commercial License) --><path d="M282.547 80C286.969 80 290.547 76.406 290.547 72S286.969 64 282.547 64C257.303 64 232.779 68.33 209.549 76.219L224.59 88.174C243.213 82.875 262.646 80 282.547 80ZM357.734 150.188L332.084 173.619L344.746 183.684L368.516 162C371.781 159.031 372.016 153.969 369.031 150.688C366.062 147.469 361.016 147.188 357.734 150.188ZM281.383 133.316L332.594 86.344C337.141 82.25 342.938 80 348.875 80H357.484C413.719 80 466.594 101.875 506.344 141.625L508.688 143.969H632C636.422 143.969 640 140.375 640 135.969S636.422 127.969 632 127.969H515.281C472.781 86.688 416.875 64 357.484 64H348.875C338.984 64 329.406 67.688 321.844 74.469L268.646 123.193L281.383 133.316ZM391.062 437.188C386.109 443.219 379.094 447 371.312 447.812C363.594 448.531 355.937 446.375 350.109 441.594L332.234 426.094L325.812 422.062L320.547 427.344C311.109 438.938 297.75 446.156 282.891 447.688C268 449.281 253.437 444.875 242.109 435.688L149.328 351.781H8C3.578 351.781 0 355.375 0 359.781S3.578 367.781 8 367.781H143.172L231.703 447.844C244.672 458.375 260.531 464 277 464C279.5 464 282.016 463.875 284.547 463.625C301.109 461.906 316.234 454.687 327.672 443.281L339.812 453.812C349.125 461.437 360.891 464.844 372.969 463.719C384.969 462.469 395.797 456.656 403.453 447.281L419.729 427.252L407.211 417.303L391.062 437.188ZM632 351.656H556.062L576.191 367.656H632C636.422 367.656 640 364.062 640 359.656S636.422 351.656 632 351.656ZM8 143.969H63.346L43.217 127.969H8C3.578 127.969 0 131.562 0 135.969S3.578 143.969 8 143.969ZM12.99 1.73C11.525 0.566 9.775 0 8.025 0C5.674 0 3.338 1.031 1.74 3.012C-1.01 6.48 -0.432 11.512 3.021 14.262L627.012 510.266C628.496 511.438 630.246 512 631.996 512C634.34 512 636.684 510.969 638.262 508.984C641.012 505.516 640.434 500.484 636.98 497.734L12.99 1.73Z"/></svg>