<svg xmlns="http://www.w3.org/2000/svg" viewBox="0 0 576 512"><!-- Font Awesome Pro 6.0.0-alpha2 by @fontawesome - https://fontawesome.com License - https://fontawesome.com/license (Commercial License) --><path d="M160.014 256H416.005C451.351 256 480.003 227.348 480.003 192V64C480.003 28.652 451.351 0 416.005 0H160.014C124.669 0 96.016 28.652 96.016 64V192C96.016 227.348 124.669 256 160.014 256ZM232.011 16H344.008V115.062L291.587 88.844C289.338 87.719 286.681 87.719 284.431 88.844L232.011 115.062V16ZM112.016 64C112.016 37.531 133.548 16 160.014 16H216.012V128C216.012 130.781 217.449 133.344 219.809 134.812C222.137 136.25 225.09 136.375 227.59 135.156L288.009 104.938L348.429 135.156C349.554 135.719 350.789 136 352.007 136C353.476 136 354.929 135.594 356.21 134.812C358.57 133.344 360.007 130.781 360.007 128V16H416.005C442.471 16 464.003 37.531 464.003 64V192C464.003 218.469 442.471 240 416.005 240H160.014C133.548 240 112.016 218.469 112.016 192V64ZM566.621 323.562C558.981 313.187 547.778 306.438 535.075 304.531C522.31 302.531 509.763 305.781 499.498 313.406L381.955 400H263.975C259.632 400 255.975 396.344 255.975 392.031C255.975 387.688 259.632 384.031 263.975 384.031H342.207C362.565 384.031 380.299 369.719 383.471 350.688C385.377 338.969 382.112 327.094 374.487 318.156C366.862 309.188 355.722 304.031 343.957 304.031H183.978C155.26 304.031 127.152 314 104.824 332.063L60.529 368.031H8C3.578 368.031 0 371.625 0 376.031S3.578 384.031 8 384.031H66.216L114.902 344.5C134.386 328.719 158.916 320.031 183.978 320.031H343.957C351.035 320.031 357.722 323.125 362.3 328.5C366.94 333.969 368.847 340.938 367.69 348.094C365.8 359.469 354.847 368.031 342.207 368.031H263.975C250.741 368.031 239.976 378.813 239.976 392.031S250.741 416 263.975 416H387.205L509.013 326.281C515.873 321.188 524.326 319.188 532.7 320.344C541.169 321.625 548.637 326.125 553.746 333.062C558.809 339.938 560.902 348.375 559.621 356.812C558.34 365.281 553.856 372.719 546.965 377.781L411.908 477.281C395.517 489.344 375.284 496 354.956 496H8C3.578 496 0 499.594 0 504S3.578 512 8 512H354.956C378.674 512 402.283 504.25 421.407 490.156L556.465 390.656C566.777 383.062 573.527 371.906 575.449 359.219C577.37 346.562 574.23 333.875 566.621 323.562Z"/></svg>