<svg xmlns="http://www.w3.org/2000/svg" viewBox="0 0 576 512"><!-- Font Awesome Pro 6.0.0-alpha2 by @fontawesome - https://fontawesome.com License - https://fontawesome.com/license (Commercial License) --><path d="M575.449 359.253C573.527 371.937 566.777 383.091 556.465 390.683L421.407 490.161C402.283 504.252 378.674 512 354.956 512H8C3.578 512 0 508.407 0 504.002C0 499.597 3.578 496.004 8 496.004H354.956C375.284 496.004 395.517 489.349 411.907 477.289L546.965 377.811C553.856 372.75 558.34 365.314 559.621 356.847C560.902 348.411 558.809 339.976 553.746 333.102C548.637 326.166 541.169 321.667 532.7 320.386C524.325 319.23 515.873 321.23 509.013 326.323L387.205 416.021H263.975C250.741 416.021 239.976 405.274 239.976 392.058C239.976 378.842 250.741 368.063 263.975 368.063H342.207C354.847 368.063 365.8 359.503 367.69 348.13C368.847 340.976 366.94 334.008 362.3 328.541C357.722 323.167 351.035 320.074 343.957 320.074H183.978C158.916 320.074 134.386 328.76 114.902 344.537L66.216 384.06H8C3.578 384.06 0 380.467 0 376.062S3.578 368.063 8 368.063H60.529L104.824 332.103C127.152 314.044 155.26 304.078 183.978 304.078H343.957C355.722 304.078 366.862 309.233 374.487 318.199C382.112 327.135 385.377 339.007 383.471 350.723C380.299 369.75 362.565 384.06 342.207 384.06H263.975C259.632 384.06 255.975 387.715 255.975 392.058C255.975 396.37 259.632 400.025 263.975 400.025H381.955L499.498 313.451C509.763 305.827 522.31 302.578 535.075 304.577C547.778 306.483 558.981 313.232 566.621 323.604C574.23 333.915 577.37 346.599 575.449 359.253Z"/></svg>