<svg xmlns="http://www.w3.org/2000/svg" viewBox="0 0 512 512"><!-- Font Awesome Pro 6.0.0-alpha2 by @fontawesome - https://fontawesome.com License - https://fontawesome.com/license (Commercial License) --><path d="M176.287 388C169.67 388 164.287 393.385 164.287 399.998C164.287 406.613 169.67 411.998 176.287 411.998S188.287 406.613 188.287 399.998C188.287 393.385 182.905 388 176.287 388ZM208.287 324C201.67 324 196.287 329.385 196.287 335.998C196.287 342.613 201.67 347.998 208.287 347.998S220.287 342.613 220.287 335.998C220.287 329.385 214.905 324 208.287 324ZM272.285 356C265.668 356 260.285 361.385 260.285 367.998C260.285 374.613 265.668 379.998 272.285 379.998S284.285 374.613 284.285 367.998C284.285 361.385 278.903 356 272.285 356ZM272.285 420.002C265.668 420.002 260.285 425.387 260.285 432.002C260.285 438.615 265.668 444 272.285 444S284.285 438.615 284.285 432.002C284.285 425.387 278.903 420.002 272.285 420.002ZM400.282 356C393.664 356 388.282 361.385 388.282 367.998C388.282 374.613 393.664 379.998 400.282 379.998S412.282 374.613 412.282 367.998C412.282 361.385 406.899 356 400.282 356ZM368.283 420C361.666 420 356.283 425.385 356.283 431.998C356.283 438.613 361.666 443.998 368.283 443.998S380.283 438.613 380.283 431.998C380.283 425.385 374.901 420 368.283 420ZM336.283 324.002C329.666 324.002 324.283 329.387 324.283 336.002C324.283 342.615 329.666 348 336.283 348S348.283 342.615 348.283 336.002C348.283 329.387 342.901 324.002 336.283 324.002ZM456.653 96C434.59 96 416.653 113.938 416.653 136V240C416.653 244.406 413.059 248 408.512 248C404.106 248 400.512 244.406 400.512 240V72C400.512 49.938 382.575 32 360.512 32S320.512 49.938 320.512 72V240C320.512 244.406 316.918 248 312.512 248S304.512 244.406 304.512 240V40C304.512 17.938 286.575 0 264.512 0S224.512 17.938 224.512 40V240C224.512 244.406 220.918 248 216.512 248S208.512 244.406 208.512 240V72C208.512 49.938 190.575 32 168.512 32S128.512 49.938 128.512 72V324.875L80.184 277.203C71.331 268.35 59.371 263.508 46.816 263.508C36.316 263.508 1 271.905 1 309.415C1 322.146 6.001 335.105 15.746 344.859L123.606 452.969C161.59 491.031 212.137 512 265.918 512H328.653C421.293 512 496.653 436.641 496.653 344V136C496.653 113.938 478.715 96 456.653 96ZM480.653 344C480.653 427.812 412.465 496 328.653 496H265.918C216.418 496 169.887 476.703 134.918 441.656L27.059 333.547C20.389 326.868 16.949 318.036 16.949 309.447C16.949 290.568 32.865 279.5 47.153 279.5C55.262 279.5 63.09 282.734 68.887 288.562L130.887 349.703C132.41 351.206 134.422 351.994 136.484 351.994C141.005 351.994 144.512 348.36 144.512 344V72C144.512 58.766 155.278 48 168.512 48S192.512 58.766 192.512 72V240C192.512 253.234 203.278 264 216.512 264S240.512 253.234 240.512 240V40C240.512 26.766 251.278 16 264.512 16S288.512 26.766 288.512 40V240C288.512 253.234 299.278 264 312.512 264S336.512 253.234 336.512 240V72C336.512 58.766 347.278 48 360.512 48S384.512 58.766 384.512 72V240C384.512 253.234 395.278 264 408.653 264C421.887 264 432.653 253.234 432.653 240V136C432.653 122.766 443.418 112 456.653 112S480.653 122.766 480.653 136V344Z"/></svg>