<svg xmlns="http://www.w3.org/2000/svg" viewBox="0 0 640 512"><!-- Font Awesome Pro 6.0.0-alpha2 by @fontawesome - https://fontawesome.com License - https://fontawesome.com/license (Commercial License) --><path d="M216.984 236.016C210.664 228.137 201.338 224.023 191.939 224.023C184.938 224.023 177.893 226.305 172.016 231.016C158.203 242.078 155.969 262.203 167.016 276.016L185.875 306.574C194.773 317.707 193.883 333.742 183.805 343.813C178.314 349.305 171.168 352.004 164.047 352.004C155.885 352.004 147.758 348.457 142.195 341.508L80 256.781V104.023C80 81.93 62.094 64.027 40 64.027S0 81.93 0 104.023V308.758C0 323.301 4.949 337.406 14.031 348.758L135.016 500C141.082 507.586 150.266 512 159.98 512H256C273.672 512 288 497.672 288 480V358.445C288 336.656 280.586 315.523 266.977 298.512L216.984 236.016ZM272 480C272 488.824 264.822 496 256 496H159.98C155.102 496 150.557 493.816 147.51 490.004L26.525 338.762C19.738 330.281 16 319.625 16 308.758V104.023C16 90.793 26.766 80.027 40 80.027S64 90.793 64 104.023V262.023L129.701 351.504C138.092 361.992 150.611 368.004 164.047 368.004C175.783 368.004 186.82 363.43 195.113 355.129C210.725 339.531 212.33 314.914 199.035 297.434L180.631 267.613L180.119 266.785C173.389 258.371 175.641 248.609 182.021 243.5C191.045 236.27 200.959 241.605 204.49 246.012L254.482 308.508C265.779 322.629 272 340.363 272 358.445V480ZM600 64.027C577.906 64.027 560 81.93 560 104.023V256.781L497.805 341.508C492.242 348.457 484.115 352.004 475.953 352.004C468.832 352.004 461.686 349.305 456.195 343.812C446.117 333.742 445.227 317.707 454.125 306.574L472.984 276.016C484.031 262.203 481.797 242.078 467.984 231.016C462.107 226.305 455.063 224.023 448.061 224.023C438.662 224.023 429.336 228.137 423.016 236.016L373.023 298.512C359.414 315.523 352 336.656 352 358.445V480C352 497.672 366.328 512 384 512H480.02C489.734 512 498.918 507.586 504.984 500L625.969 348.758C635.051 337.406 640 323.301 640 308.758V104.023C640 81.93 622.094 64.027 600 64.027ZM624 308.758C624 319.625 620.262 330.281 613.475 338.762L492.49 490.004C489.443 493.816 484.898 496 480.02 496H384C375.178 496 368 488.824 368 480V358.445C368 340.363 374.221 322.629 385.518 308.508L435.51 246.012C439.041 241.605 448.955 236.27 457.979 243.5C464.359 248.609 466.611 258.371 459.881 266.785L459.369 267.613L440.965 297.434C427.67 314.914 429.275 339.531 444.887 355.129C453.18 363.43 464.217 368.004 475.953 368.004C489.389 368.004 501.908 361.992 510.299 351.504L576 262.023V104.023C576 90.793 586.766 80.027 600 80.027S624 90.793 624 104.023V308.758ZM385.781 181.5C393.125 139.219 353.813 127.969 322.219 118.938L314.469 116.703C281.781 107.094 265.937 97.938 269.969 74.531C274.531 48.313 307.187 43.922 333.75 48.063C341.062 49.203 349.875 51.594 361.406 55.563C365.438 56.969 370.094 54.797 371.562 50.609C373 46.438 370.781 41.875 366.594 40.438C354.156 36.141 344.5 33.547 336.219 32.25C333.387 31.809 330.738 31.723 328 31.469V8C328 3.578 324.406 0 320 0S312 3.578 312 8V31.039C280.734 32.461 258.439 47.268 254.219 71.812C246.969 113.562 286.406 125.141 309.969 132.047L317.812 134.312C353.188 144.453 374.656 152.016 370.031 178.781C365.5 204.984 332.844 209.422 306.219 205.25C294.812 203.531 281.656 198.781 270.031 194.609L264 192.438C259.812 190.953 255.281 193.141 253.812 197.312C252.312 201.484 254.5 206.047 258.688 207.531L264.625 209.656C276.906 214.094 290.875 219.125 303.781 221.062C306.639 221.51 309.238 221.473 312 221.729V248C312 252.422 315.594 256 320 256S328 252.422 328 248V222.365C359.277 220.963 381.559 206.035 385.781 181.5Z"/></svg>