<svg xmlns="http://www.w3.org/2000/svg" viewBox="0 0 640 512"><!-- Font Awesome Pro 6.0.0-alpha2 by @fontawesome - https://fontawesome.com License - https://fontawesome.com/license (Commercial License) --><path d="M608 151.813C603.578 151.813 600 155.409 600 159.817V287.884C600 318.775 574.875 343.913 544 343.913H328V127.801C328 123.392 324.422 119.797 320 119.797S312 123.392 312 127.801V343.913H96C65.125 343.913 40 318.775 40 287.884V159.817C40 155.409 36.422 151.813 32 151.813S24 155.409 24 159.817V287.884C24 327.592 56.297 359.921 96 359.921H312V447.967H152C121.125 447.967 96 473.105 96 503.996C96 508.404 99.578 512 104 512S112 508.404 112 503.996C112 481.922 129.937 463.975 152 463.975H488C510.062 463.975 528 481.922 528 503.996C528 508.404 531.578 512 536 512S544 508.404 544 503.996C544 473.105 518.875 447.967 488 447.967H328V359.921H544C583.703 359.921 616 327.592 616 287.884V159.817C616 155.409 612.422 151.813 608 151.813ZM88 159.817V287.884C88 292.292 91.578 295.888 96 295.888S104 292.292 104 287.884V159.817C104 155.409 100.422 151.813 96 151.813S88 155.409 88 159.817ZM152 159.817V287.884C152 292.292 155.578 295.888 160 295.888S168 292.292 168 287.884V159.817C168 155.409 164.422 151.813 160 151.813S152 155.409 152 159.817ZM216 159.817V287.884C216 292.292 219.578 295.888 224 295.888S232 292.292 232 287.884V159.817C232 155.409 228.422 151.813 224 151.813S216 155.409 216 159.817ZM424 287.884V159.817C424 155.409 420.422 151.813 416 151.813S408 155.409 408 159.817V287.884C408 292.292 411.578 295.888 416 295.888S424 292.292 424 287.884ZM488 287.884V159.817C488 155.409 484.422 151.813 480 151.813S472 155.409 472 159.817V287.884C472 292.292 475.578 295.888 480 295.888S488 292.292 488 287.884ZM552 287.884V159.817C552 155.409 548.422 151.813 544 151.813S536 155.409 536 159.817V287.884C536 292.292 539.578 295.888 544 295.888S552 292.292 552 287.884ZM320 95.784C337.641 95.784 352 80.245 352 61.141C352 44.914 331 10.302 326.797 3.517C323.859 -1.172 316.141 -1.172 313.203 3.517C309 10.302 288 44.914 288 61.141C288 80.245 302.359 95.784 320 95.784ZM320 23.497C328 37.785 336 54.481 336 61.141C336 71.428 328.828 79.776 320 79.776S304 71.428 304 61.141C304 54.481 312 37.785 320 23.497ZM64 93.158C64 76.931 43 42.319 38.797 35.534C35.859 30.844 28.141 30.844 25.203 35.534C21 42.319 0 76.931 0 93.158C0 112.261 14.359 127.801 32 127.801S64 112.261 64 93.158ZM16 93.158C16 86.498 24 69.802 32 55.513C40 69.802 48 86.498 48 93.158C48 103.444 40.828 111.792 32 111.792S16 103.444 16 93.158ZM96 127.801C113.641 127.801 128 112.261 128 93.158C128 76.931 107 42.319 102.797 35.534C99.859 30.844 92.141 30.844 89.203 35.534C85 42.319 64 76.931 64 93.158C64 112.261 78.359 127.801 96 127.801ZM96 55.513C104 69.802 112 86.498 112 93.158C112 103.444 104.828 111.792 96 111.792S80 103.444 80 93.158C80 86.498 88 69.802 96 55.513ZM160 127.801C177.641 127.801 192 112.261 192 93.158C192 76.931 171 42.319 166.797 35.534C163.859 30.844 156.141 30.844 153.203 35.534C149 42.319 128 76.931 128 93.158C128 112.261 142.359 127.801 160 127.801ZM160 55.513C168 69.802 176 86.498 176 93.158C176 103.444 168.828 111.792 160 111.792S144 103.444 144 93.158C144 86.498 152 69.802 160 55.513ZM224 127.801C241.641 127.801 256 112.261 256 93.158C256 76.931 235 42.319 230.797 35.534C227.859 30.844 220.141 30.844 217.203 35.534C213 42.319 192 76.931 192 93.158C192 112.261 206.359 127.801 224 127.801ZM224 55.513C232 69.802 240 86.498 240 93.158C240 103.444 232.828 111.792 224 111.792S208 103.444 208 93.158C208 86.498 216 69.802 224 55.513ZM409.203 35.534C405 42.319 384 76.931 384 93.158C384 112.261 398.359 127.801 416 127.801S448 112.261 448 93.158C448 76.931 427 42.319 422.797 35.534C419.859 30.844 412.141 30.844 409.203 35.534ZM416 111.792C407.172 111.792 400 103.444 400 93.158C400 86.498 408 69.802 416 55.513C424 69.802 432 86.498 432 93.158C432 103.444 424.828 111.792 416 111.792ZM473.203 35.534C469 42.319 448 76.931 448 93.158C448 112.261 462.359 127.801 480 127.801S512 112.261 512 93.158C512 76.931 491 42.319 486.797 35.534C483.859 30.844 476.141 30.844 473.203 35.534ZM480 111.792C471.172 111.792 464 103.444 464 93.158C464 86.498 472 69.802 480 55.513C488 69.802 496 86.498 496 93.158C496 103.444 488.828 111.792 480 111.792ZM537.203 35.534C533 42.319 512 76.931 512 93.158C512 112.261 526.359 127.801 544 127.801S576 112.261 576 93.158C576 76.931 555 42.319 550.797 35.534C547.859 30.844 540.141 30.844 537.203 35.534ZM544 111.792C535.172 111.792 528 103.444 528 93.158C528 86.498 536 69.802 544 55.513C552 69.802 560 86.498 560 93.158C560 103.444 552.828 111.792 544 111.792ZM614.797 35.534C611.859 30.844 604.141 30.844 601.203 35.534C597 42.319 576 76.931 576 93.158C576 112.261 590.359 127.801 608 127.801S640 112.261 640 93.158C640 76.931 619 42.319 614.797 35.534ZM608 111.792C599.172 111.792 592 103.444 592 93.158C592 86.498 600 69.802 608 55.513C616 69.802 624 86.498 624 93.158C624 103.444 616.828 111.792 608 111.792Z"/></svg>