<svg xmlns="http://www.w3.org/2000/svg" viewBox="0 0 512 512"><!-- Font Awesome Pro 6.0.0-alpha2 by @fontawesome - https://fontawesome.com License - https://fontawesome.com/license (Commercial License) --><path d="M383.986 256C357.52 256 335.986 277.562 335.986 304.062V431.938C335.986 458.438 357.52 480 383.986 480C428.098 480 463.986 444.055 463.986 399.875V336.125C463.986 291.945 428.098 256 383.986 256ZM447.986 399.875C447.986 435.297 419.33 464 383.986 464C366.33 464 351.986 449.641 351.986 431.938V304.062C351.986 286.344 366.33 272 383.986 272C419.33 272 447.986 300.703 447.986 336.125V399.875ZM256 32C117.219 32 4.781 144.328 0 288V376C0 380.422 3.594 384 8 384S16 380.422 16 376V288.266C20.469 153.531 125.906 48 256 48C386.062 48 491.5 153.531 496 288V376C496 380.422 499.594 384 504 384S512 380.422 512 376V287.734C507.188 144.328 394.75 32 256 32ZM127.986 256C83.875 256 47.986 291.945 47.986 336.125V399.875C47.986 444.055 83.875 480 127.986 480C154.453 480 175.986 458.437 175.986 431.937V304.062C175.986 277.562 154.453 256 127.986 256ZM159.986 431.938C159.986 449.641 145.643 464 127.986 464C92.643 464 63.986 435.297 63.986 399.875V336.125C63.986 300.703 92.643 272 127.986 272C145.643 272 159.986 286.344 159.986 304.063V431.938Z"/></svg>