<svg xmlns="http://www.w3.org/2000/svg" viewBox="0 0 512 512"><!-- Font Awesome Pro 6.0.0-alpha2 by @fontawesome - https://fontawesome.com License - https://fontawesome.com/license (Commercial License) --><path d="M512 208V80C512 62.355 497.645 48 480 48H392.926C354.986 17.516 307.568 0 257.857 0H216.217C144.025 0 80.826 38.539 45.6 96H24C10.766 96 0 106.781 0 120V168C0 178.469 6.85 187.156 16.229 190.426C16.119 194.305 16.014 198.59 16.014 200.219C16.014 255.656 39.295 308.844 80.014 346.781V504C80.014 508.406 83.592 512 88.014 512S96.014 508.406 96.014 504V339.688L93.357 337.312C54.373 302.25 32.014 252.312 32.014 200.219C32.014 197.445 32.309 194.742 32.43 192H221.863C239.477 220.574 272.008 240 308.5 240H478.76C484.037 254.344 489.148 267.773 493.92 278.469C497.279 286.031 496.607 294.375 492.076 301.344C487.561 308.281 480.217 312.281 471.951 312.281H432.076V376.281C432.076 407.188 406.92 432.344 376.014 432.344H304.014V504C304.014 508.406 307.592 512 312.014 512S320.014 508.406 320.014 504V448.344H376.014C415.748 448.344 448.076 416.031 448.076 376.281V328.281H471.951C485.529 328.281 498.076 321.469 505.498 310.063C512.92 298.625 514.061 284.406 508.545 271.969C504.123 262.055 499.35 249.578 494.396 236.164C504.717 230.844 512 220.387 512 208ZM24 176C19.594 176 16 172.406 16 168V120C16 115.594 19.594 112 24 112H213.74C209.035 125.273 207.031 139.504 208.453 153.828C209.244 161.574 211.354 168.906 214.018 176H24ZM220.898 96H64.479C97.727 47.734 153.314 16 216.217 16H257.857C296.291 16 332.934 27.852 364.564 48H304C276.951 48 251.008 59.516 232.824 79.59C228.24 84.648 224.264 90.164 220.898 96ZM416 224H308.5C266.75 224 228.625 193.875 224.375 152.25C219.625 104.375 257.125 64 304 64H416V224ZM496 208C496 216.875 488.875 224 480 224H432V64H480C488.875 64 496 71.125 496 80V208Z"/></svg>