<svg xmlns="http://www.w3.org/2000/svg" viewBox="0 0 512 512"><!-- Font Awesome Pro 6.0.0-alpha2 by @fontawesome - https://fontawesome.com License - https://fontawesome.com/license (Commercial License) --><path d="M255.767 102.471C255.765 98.32 254.149 94.333 251.261 91.35L236.319 75.922C208.631 47.34 170.781 32 133.289 32C103.149 32 73.231 41.922 49.041 62.859C-13.103 116.652 -16.197 212.516 39.822 270.484L232.975 470.195C233.038 470.261 233.101 470.326 233.165 470.39C241.452 478.82 255.958 472.123 255.953 460.302C255.922 388.863 255.791 145.341 255.767 102.471ZM51.326 259.367C27.397 234.602 14.569 200.297 16.127 165.238C17.705 129.875 33.111 97.812 59.514 74.961C79.887 57.32 105.402 48 133.289 48C167.422 48 200.783 62.234 224.826 87.055C232.992 95.484 237.217 99.846 240 102.719V454.443L51.326 259.367Z"/></svg>