<svg xmlns="http://www.w3.org/2000/svg" viewBox="0 0 512 512"><!-- Font Awesome Pro 6.0.0-alpha2 by @fontawesome - https://fontawesome.com License - https://fontawesome.com/license (Commercial License) --><path d="M462.971 62.859C438.776 41.922 408.869 32 378.723 32C341.235 32 303.375 47.344 275.694 75.922L256.006 96.25L236.319 75.922C208.631 47.34 170.781 32 133.289 32C103.149 32 73.231 41.922 49.041 62.859C-13.103 116.652 -16.197 212.516 39.822 270.484L232.975 470.195C239.295 476.73 247.627 480 255.959 480C264.295 480 272.627 476.73 278.947 470.195L472.096 270.484C528.211 212.516 525.117 116.648 462.971 62.859ZM248 461.516C246.776 460.783 245.502 460.133 244.475 459.07L51.326 259.367C27.397 234.602 14.569 200.297 16.127 165.238C17.705 129.875 33.111 97.812 59.514 74.961C79.887 57.32 105.403 48 133.289 48C167.422 48 200.783 62.234 224.826 87.055C243.35 106.176 242.07 104.857 248 110.979V461.516ZM460.596 259.359L267.447 459.07C266.442 460.111 265.194 460.74 264 461.463V110.99C269.807 104.996 269.36 105.459 287.184 87.055C311.227 62.234 344.594 48 378.727 48C406.611 48 432.123 57.32 452.498 74.957C478.908 97.812 494.315 129.883 495.873 165.246C497.42 200.297 484.565 234.602 460.596 259.359Z"/></svg>