<svg xmlns="http://www.w3.org/2000/svg" viewBox="0 0 576 512"><!-- Font Awesome Pro 6.0.0-alpha2 by @fontawesome - https://fontawesome.com License - https://fontawesome.com/license (Commercial License) --><path d="M224 288C228.406 288 232 284.406 232 280V56C232 51.594 235.594 48 240 48H336C340.406 48 344 51.594 344 56V280C344 284.406 347.594 288 352 288C356.406 288 360 284.406 360 280V56C360 42.781 349.219 32 336 32H240C226.781 32 216 42.781 216 56V280C216 284.406 219.594 288 224 288ZM574.093 382.562V382.531C570.343 373.719 561.843 368 552.437 368H23.563C14.157 368 5.657 373.719 1.907 382.562C-1.78 391.312 -0.03 401.469 6.376 408.438C9.063 411.344 74.844 480 288 480S566.937 411.344 569.624 408.406C576.03 401.469 577.78 391.312 574.093 382.562ZM557.874 397.562C555.374 400.281 494.249 464 288 464S20.626 400.281 18.126 397.594C15.97 395.219 15.407 391.75 16.657 388.781C17.876 385.875 20.595 384 23.563 384H552.437C555.405 384 558.124 385.875 559.343 388.75C560.593 391.75 560.03 395.219 557.874 397.562ZM40.001 344C44.407 344 48.001 340.406 48.001 336V296C48.001 203.375 106.907 121.125 194.563 91.375C198.75 89.969 201 85.438 199.563 81.25C198.157 77.063 193.625 74.719 189.438 76.25C95.282 108.188 32.001 196.5 32.001 296V336C32.001 340.406 35.595 344 40.001 344ZM381.437 91.375C469.093 121.125 527.999 203.375 527.999 296V336C527.999 340.406 531.593 344 535.999 344S543.999 340.406 543.999 336V296C543.999 196.5 480.718 108.188 386.562 76.25C382.406 74.75 377.843 77.062 376.437 81.25C375 85.438 377.25 89.969 381.437 91.375Z"/></svg>