<svg xmlns="http://www.w3.org/2000/svg" viewBox="0 0 512 512"><!-- Font Awesome Pro 6.0.0-alpha2 by @fontawesome - https://fontawesome.com License - https://fontawesome.com/license (Commercial License) --><path d="M505.824 233.367L400.437 54.164C392.322 40.516 377.502 32 361.387 32H150.613C134.498 32 119.678 40.516 111.563 54.164L6.176 233.367C-2.059 247.367 -2.059 264.633 6.176 278.633L111.563 457.832C119.678 471.484 134.498 480 150.613 480H361.387C377.502 480 392.322 471.484 400.437 457.832L505.824 278.633C514.059 264.633 514.059 247.367 505.824 233.367ZM492.033 270.523L386.684 449.656C381.424 458.504 371.73 464 361.387 464H150.613C140.27 464 130.576 458.504 125.354 449.719L19.967 270.523C14.699 261.562 14.699 250.434 19.967 241.477L125.316 62.344C130.576 53.496 140.27 48 150.613 48H361.387C371.732 48 381.426 53.496 386.646 62.277L492.033 241.477C497.301 250.434 497.301 261.562 492.033 270.523ZM333.656 178.344C330.531 175.219 325.469 175.219 322.344 178.344L256 244.686L189.656 178.344C186.531 175.219 181.469 175.219 178.344 178.344S175.219 186.531 178.344 189.656L244.688 255.998L178.344 322.342C175.219 325.467 175.219 330.529 178.344 333.654C181.471 336.781 186.529 336.781 189.656 333.654L256 267.311L322.344 333.654C325.471 336.781 330.529 336.781 333.656 333.654C336.781 330.529 336.781 325.467 333.656 322.342L267.313 255.998L333.656 189.656C336.781 186.531 336.781 181.469 333.656 178.344Z"/></svg>