<svg xmlns="http://www.w3.org/2000/svg" viewBox="0 0 576 512"><!-- Font Awesome Pro 6.0.0-alpha2 by @fontawesome - https://fontawesome.com License - https://fontawesome.com/license (Commercial License) --><path d="M276.52 431.867C286.83 431.867 296.842 427.469 303.893 419.492L530.254 154.369C549.502 132.619 548.377 99.744 527.879 79.244L464.758 16.121C454.059 5.422 439.984 0 425.885 0C412.971 0 400.035 4.543 389.637 13.746L124.652 239.994C113.904 249.492 109.654 264.367 113.904 278.117L126.902 320.867L98.588 349.254C86.125 361.75 86.129 381.98 98.6 394.469L149.523 445.459C155.772 451.717 163.967 454.846 172.166 454.846C180.354 454.846 188.543 451.721 194.789 445.475L223.022 417.242L265.77 430.242C269.316 431.336 272.934 431.867 276.52 431.867ZM400.242 25.727C407.328 19.453 416.436 16 425.885 16C436.283 16 446.07 20.059 453.445 27.434L516.566 90.557C531.082 105.072 531.832 128.443 518.086 143.979L343.641 348.305L195.707 200.365L400.242 25.727ZM218.494 399.141L183.479 434.164C180.455 437.184 176.44 438.848 172.166 438.848C167.885 438.848 163.865 437.18 160.842 434.156L109.92 383.16C103.697 376.93 103.693 366.789 109.916 360.555L145 325.383L129.188 273.391C126.82 265.73 129.199 257.328 135.043 252.16L183.502 210.783L333.219 360.508L291.904 408.898C288.904 412.291 281.033 418.225 270.426 414.934L218.494 399.141ZM120.676 469.598L94.324 496H21.789C18.484 496 17.07 493.783 16.522 492.463C15.967 491.125 15.393 488.527 17.768 486.148L77.215 426.568C80.344 423.439 80.334 418.365 77.193 415.25L77.166 415.225C74.041 412.125 68.998 412.139 65.891 415.254L6.395 474.893C-7.279 488.6 2.428 512 21.789 512H94.324C98.557 512 102.613 510.316 105.604 507.32L131.981 480.881C135.102 477.752 135.088 472.684 131.949 469.57C128.826 466.471 123.783 466.484 120.676 469.598ZM568 496H232C227.582 496 224 499.58 224 504C224 508.418 227.582 512 232 512H568C572.418 512 576 508.418 576 504C576 499.58 572.418 496 568 496Z"/></svg>