<svg xmlns="http://www.w3.org/2000/svg" viewBox="0 0 384 512"><!-- Font Awesome Pro 6.0.0-alpha2 by @fontawesome - https://fontawesome.com License - https://fontawesome.com/license (Commercial License) --><path d="M376 496H8C3.578 496 0 499.594 0 504S3.578 512 8 512H376C380.422 512 384 508.406 384 504S380.422 496 376 496ZM32 435V456C32 460.406 35.578 464 40 464S48 460.406 48 456V435C48 406.531 57.562 378.656 74.938 356.562L150.281 260.812C152.578 257.906 152.578 253.844 150.281 250.937L74.938 155.156C57.562 133.062 48 105.219 48 76.75V56C48 51.594 44.422 48 40 48S32 51.594 32 56V76.75C32 108.781 42.781 140.125 62.375 165.031L133.828 255.875L62.375 346.688C42.781 371.594 32 402.938 32 435ZM352 76.75V56C352 51.594 348.422 48 344 48S336 51.594 336 56V76.75C336 105.219 326.438 133.062 309.062 155.156L233.719 250.938C231.422 253.844 231.422 257.906 233.719 260.813L309.062 356.563C326.438 378.656 336 406.531 336 435V456C336 460.406 339.578 464 344 464S352 460.406 352 456V435C352 402.938 341.219 371.594 321.625 346.688L250.172 255.875L321.625 165.031C341.219 140.125 352 108.781 352 76.75ZM8 16H376C380.422 16 384 12.406 384 8S380.422 0 376 0H8C3.578 0 0 3.594 0 8S3.578 16 8 16ZM192 277.344C189.484 277.344 187.109 278.531 185.594 280.531L102.391 391.469C93.109 403.875 88 419.219 88 434.656V456C88 460.406 91.578 464 96 464H288C292.422 464 296 460.406 296 456V434.656C296 419.219 290.891 403.875 281.609 391.438L198.406 280.531C196.891 278.531 194.516 277.344 192 277.344ZM280 434.656V448H104V434.656C104 422.625 107.984 410.688 115.203 401.062L192 298.688L268.797 401.031C276.016 410.688 280 422.625 280 434.656Z"/></svg>