<svg xmlns="http://www.w3.org/2000/svg" viewBox="0 0 640 512"><!-- Font Awesome Pro 6.0.0-alpha2 by @fontawesome - https://fontawesome.com License - https://fontawesome.com/license (Commercial License) --><path d="M622.883 242.717L471.477 105.078C464.82 99.025 456.408 96 447.996 96S431.17 99.025 424.514 105.078L273.139 242.691C262.223 252.617 256 266.686 256 281.438V477.09C256 496.371 271.629 512 290.908 512H605.084C624.361 512 639.99 496.4 639.992 477.121C639.996 424.539 640 328.963 640 281.281C639.998 266.551 633.783 252.627 622.883 242.717ZM623.992 477.119C623.99 487.529 615.51 496 605.084 496H290.908C280.482 496 272 487.518 272 477.09V281.438C272 271.215 276.338 261.408 283.902 254.531L435.277 116.916C438.766 113.746 443.281 111.998 447.996 111.998C452.709 111.998 457.225 113.746 460.715 116.918L612.119 254.555C619.668 261.418 623.998 271.16 624 281.281L623.992 477.119ZM480 264H416C402.781 264 392 274.781 392 288V352C392 365.219 402.781 376 416 376H480C493.219 376 504 365.219 504 352V288C504 274.781 493.219 264 480 264ZM488 352C488 356.5 484.5 360 480 360H416C411.5 360 408 356.5 408 352V288C408 283.5 411.5 280 416 280H480C484.5 280 488 283.5 488 288V352ZM336 128C336 132.406 339.594 136 344 136S352 132.406 352 128V8C352 3.594 348.406 0 344 0H8C3.594 0 0 3.594 0 8V203.844C0 213.656 3.594 223.125 10.125 230.406L64 291.031V504C64 508.406 67.594 512 72 512S80 508.406 80 504V288C80 286.031 79.281 284.156 77.969 282.688L22.062 219.75C18.156 215.375 16 209.75 16 203.844V16H112V88C112 92.406 115.594 96 120 96S128 92.406 128 88V16H224V88C224 92.406 227.594 96 232 96S240 92.406 240 88V16H336V128ZM176 128C149.49 128 128 149.49 128 176V224C128 232.836 135.164 240 144 240H208C216.838 240 224 232.836 224 224V176C224 149.49 202.51 128 176 128ZM208 224H144V176C144 158.355 158.355 144 176 144S208 158.355 208 176V224Z"/></svg>