<svg xmlns="http://www.w3.org/2000/svg" viewBox="0 0 384 512"><!-- Font Awesome Pro 6.0.0-alpha2 by @fontawesome - https://fontawesome.com License - https://fontawesome.com/license (Commercial License) --><path d="M384 296C384 300.422 380.422 304 376 304H121.666L107.781 311.672C80.359 326.812 64 352.969 64 381.625C64 427.047 105.578 464 156.672 464H206.047C241.703 464 276.578 451.062 301.734 428.484C305.016 425.516 310.063 425.766 313.031 429.094C315.984 432.375 315.703 437.438 312.422 440.391C283.953 465.938 246.188 480 206.047 480H156.672C96.75 480 48 435.875 48 381.625C48 351.256 63.916 322.463 90.102 304H8C3.578 304 0 300.422 0 296S3.578 288 8 288H117.537L262.334 208H8C3.578 208 0 204.422 0 200S3.578 192 8 192H287.758C307.85 176.498 320 154.541 320 130.375C320 84.953 278.422 48 227.328 48H177.953C142.297 48 107.422 60.938 82.266 83.516C78.953 86.438 73.906 86.188 70.969 82.906C68.016 79.625 68.297 74.562 71.578 71.609C100.047 46.062 137.812 32 177.953 32H227.328C287.25 32 336 76.125 336 130.375C336 153.018 327.041 174.719 311.707 192H376C380.422 192 384 195.578 384 200S380.422 208 376 208H293.898C290.715 210.244 287.447 212.408 283.969 214.328L150.627 288H376C380.422 288 384 291.578 384 296Z"/></svg>