<svg xmlns="http://www.w3.org/2000/svg" viewBox="0 0 448 512"><!-- Font Awesome Pro 6.0.0-alpha2 by @fontawesome - https://fontawesome.com License - https://fontawesome.com/license (Commercial License) --><path d="M224 224C206.25 224 192 238.25 192 256S206.25 288 224 288S256 273.75 256 256S241.75 224 224 224ZM224 272C215.027 272 208 264.973 208 256S215.027 240 224 240S240 247.027 240 256S232.973 272 224 272ZM224 160C170.75 160 128 202.75 128 256S170.75 352 224 352S320 309.25 320 256S277.25 160 224 160ZM224 336C179.887 336 144 300.113 144 256S179.887 176 224 176S304 211.887 304 256S268.113 336 224 336ZM219.562 93.281L239.75 31.062C242.312 23.375 240.75 15 235.594 8.719C230.438 2.406 222.5 -0.844 214.562 0.187C110.469 12.656 32 102.625 32 209.5C32 321.312 119.156 412.969 228.438 418.719L208.25 480.937C205.688 488.625 207.25 497 212.406 503.281C216.938 508.844 223.594 512 230.625 512C231.562 512 232.5 511.937 233.437 511.812C337.531 499.344 416 409.375 416 302.5C416 190.687 328.844 99.031 219.562 93.281ZM231.562 495.937C227.75 496.156 225.594 494.156 224.781 493.156C224 492.187 222.25 489.531 223.469 485.906L250.344 403H239.344C133.844 403 48 316.187 48 209.5C48 110.719 120.406 27.562 216.438 16.062C216.781 16.031 217.094 16 217.406 16C220.531 16 222.469 17.937 223.219 18.844C224 19.812 225.75 22.469 224.531 26.094L197.656 109H208.656C314.156 109 400 195.812 400 302.5C400 401.281 327.594 484.437 231.562 495.937Z"/></svg>