<svg xmlns="http://www.w3.org/2000/svg" viewBox="0 0 576 512"><!-- Font Awesome Pro 6.0.0-alpha2 by @fontawesome - https://fontawesome.com License - https://fontawesome.com/license (Commercial License) --><path d="M72 384H472C494.062 384 512 366.062 512 344V301.875C512 255.969 480.594 216.094 435.5 204.844L320 177.656V8C320 3.594 316.422 0 312 0S304 3.594 304 8V25.75L82.641 80.937C52.828 89.406 32 116.812 32 147.562V344C32 366.062 49.938 384 72 384ZM48 147.562C48 123.937 64.047 102.844 86.766 96.375L304 42.25V112H264C259.578 112 256 115.594 256 120S259.578 128 264 128H304V176H264C259.578 176 256 179.594 256 184S259.578 192 264 192H311.045L431.734 220.375C469.578 229.844 496 263.344 496 301.875V344C496 357.219 485.234 368 472 368H72C58.766 368 48 357.219 48 344V147.562ZM568 416C563.578 416 560 419.594 560 424V440C560 470.875 534.875 496 504 496H424V424C424 419.594 420.422 416 416 416S408 419.594 408 424V496H136V424C136 419.594 132.422 416 128 416S120 419.594 120 424V496H8C3.578 496 0 499.594 0 504S3.578 512 8 512H504C543.703 512 576 479.687 576 440V424C576 419.594 572.422 416 568 416Z"/></svg>