<svg xmlns="http://www.w3.org/2000/svg" viewBox="0 0 576 512"><!-- Font Awesome Pro 6.0.0-alpha2 by @fontawesome - https://fontawesome.com License - https://fontawesome.com/license (Commercial License) --><path d="M224.014 88C201.951 88 184.014 105.938 184.014 128S201.951 168 224.014 168S264.014 150.062 264.014 128S246.076 88 224.014 88ZM224.014 152C210.795 152 200.014 141.234 200.014 128S210.795 104 224.014 104S248.014 114.766 248.014 128S237.232 152 224.014 152ZM472 416C467.578 416 464 419.594 464 424C464 446.062 446.062 464 424 464H72C41.125 464 16 438.875 16 408V152C16 129.938 33.938 112 56 112C60.422 112 64 108.406 64 104S60.422 96 56 96C25.125 96 0 121.125 0 152V408C0 447.688 32.297 480 72 480H424C454.875 480 480 454.875 480 424C480 419.594 476.422 416 472 416ZM528 32H144C117.5 32 96 53.5 96 80V336C96 362.5 117.5 384 144 384H528C554.5 384 576 362.5 576 336V80C576 53.5 554.5 32 528 32ZM144 368C126.355 368 112 353.645 112 336V316.688L202.344 226.344C205.469 223.219 210.531 223.219 213.656 226.344L292.688 305.375L230.062 368H144ZM560 336C560 353.645 545.645 368 528 368H252.688L458.344 162.344C461.469 159.219 466.531 159.219 469.656 162.344L560 252.688V336ZM560 230.062L480.969 151.031C471.594 141.687 456.406 141.687 447.031 151.031L304 294.062L224.969 215.031C215.594 205.688 200.406 205.688 191.031 215.031L112 294.062V80C112 62.355 126.355 48 144 48H528C545.645 48 560 62.355 560 80V230.062Z"/></svg>