<svg xmlns="http://www.w3.org/2000/svg" viewBox="0 0 384 512"><!-- Font Awesome Pro 6.0.0-alpha2 by @fontawesome - https://fontawesome.com License - https://fontawesome.com/license (Commercial License) --><path d="M336 0H48C21.49 0 0 21.49 0 48V464C0 490.51 21.49 512 48 512H336C362.51 512 384 490.51 384 464V48C384 21.49 362.51 0 336 0ZM368 464C368 481.645 353.645 496 336 496H48C30.355 496 16 481.645 16 464V48C16 30.355 30.355 16 48 16H336C353.645 16 368 30.355 368 48V464ZM192 256C227.346 256 256 227.346 256 192S227.346 128 192 128S128 156.654 128 192S156.654 256 192 256ZM192 144C218.467 144 240 165.533 240 192S218.467 240 192 240S144 218.467 144 192S165.533 144 192 144ZM224 288H160C115.816 288 80 323.816 80 368C80 376.836 87.164 384 96 384H288C296.836 384 304 376.836 304 368C304 323.816 268.184 288 224 288ZM96 368C96 332.711 124.711 304 160 304H224C259.289 304 288 332.711 288 368H96Z"/></svg>