<svg xmlns="http://www.w3.org/2000/svg" viewBox="0 0 512 512"><!-- Font Awesome Pro 6.0.0-alpha2 by @fontawesome - https://fontawesome.com License - https://fontawesome.com/license (Commercial License) --><path d="M250.344 285.656C253.469 288.781 258.531 288.781 261.656 285.656L384.484 162.828C386.047 161.266 386.828 159.234 386.828 157.172S386.047 153.078 384.484 151.516C381.359 148.391 376.297 148.391 373.172 151.516L264 260.687V8C264 3.594 260.422 0 256 0S248 3.594 248 8V260.687L138.828 151.516C135.703 148.391 130.641 148.391 127.516 151.516S124.391 159.703 127.516 162.828L250.344 285.656ZM472 320H352C348.969 320 346.188 321.719 344.844 324.437L315.062 384H196.938L167.156 324.437C165.812 321.719 163.031 320 160 320H40C17.938 320 0 337.937 0 360V472C0 494.062 17.938 512 40 512H472C494.062 512 512 494.062 512 472V360C512 337.937 494.062 320 472 320ZM496 472C496 485.219 485.219 496 472 496H40C26.781 496 16 485.219 16 472V360C16 346.781 26.781 336 40 336H155.062L184.844 395.562C186.188 398.281 188.969 400 192 400H320C323.031 400 325.812 398.281 327.156 395.562L356.938 336H472C485.219 336 496 346.781 496 360V472Z"/></svg>