<svg xmlns="http://www.w3.org/2000/svg" viewBox="0 0 320 512"><!-- Font Awesome Pro 6.0.0-alpha2 by @fontawesome - https://fontawesome.com License - https://fontawesome.com/license (Commercial License) --><path d="M320 176C320 180.406 316.422 184 312 184H255.191C251.014 258.406 190.588 317.74 115.604 319.637L269.516 466.219C272.719 469.25 272.844 474.313 269.797 477.531C268.219 479.156 266.109 480 264 480C262.016 480 260.031 479.281 258.484 477.781L92.814 320H8C3.578 320 0 316.406 0 312S3.578 304 8 304H112C179.84 304 234.971 250.805 239.191 184H8C3.578 184 0 180.406 0 176S3.578 168 8 168H239.191C234.971 101.195 179.84 48 112 48H8C3.578 48 0 44.406 0 40S3.578 32 8 32H312C316.422 32 320 35.594 320 40S316.422 48 312 48H176.586C221.182 70.609 252.238 115.395 255.191 168H312C316.422 168 320 171.594 320 176Z"/></svg>