<svg xmlns="http://www.w3.org/2000/svg" viewBox="0 0 512 512"><!-- Font Awesome Pro 6.0.0-alpha2 by @fontawesome - https://fontawesome.com License - https://fontawesome.com/license (Commercial License) --><path d="M487.922 128C483.625 128 479.215 129.172 475.125 131.762L336 224V152.012C336 137.961 324.434 128 311.922 128C307.625 127.996 303.215 129.172 299.125 131.762L160 224V64C160 46.328 145.672 32 128 32H32C14.328 32 0 46.328 0 64V448C0 465.672 14.328 480 32 480H480C497.672 480 512 465.672 512 448V152.012C512 137.961 500.434 128 487.922 128ZM496 448C496 456.824 488.824 464 480 464H32C23.176 464 16 456.824 16 448V64C16 55.176 23.176 48 32 48H128C136.824 48 144 55.176 144 64V224C144 229.894 147.238 235.308 152.434 238.098C154.801 239.371 157.402 240 160 240C163.09 240 166.172 239.105 168.84 237.336L307.68 145.281C309.027 144.43 310.453 144 311.918 144C315.805 144 320 147.062 320 152.012V224C320 229.894 323.238 235.308 328.434 238.098C330.801 239.371 333.402 240 336 240C339.09 240 342.172 239.105 344.84 237.336L483.68 145.281C485.027 144.43 486.453 144 487.922 144C491.805 144 496 147.062 496 152.012V448ZM404 312H364C352.969 312 344 320.969 344 332V372C344 383.031 352.969 392 364 392H404C415.031 392 424 383.031 424 372V332C424 320.969 415.031 312 404 312ZM408 372C408 374.219 406.219 376 404 376H364C361.781 376 360 374.219 360 372V332C360 329.781 361.781 328 364 328H404C406.219 328 408 329.781 408 332V372ZM276 312H236C224.969 312 216 320.969 216 332V372C216 383.031 224.969 392 236 392H276C287.031 392 296 383.031 296 372V332C296 320.969 287.031 312 276 312ZM280 372C280 374.219 278.219 376 276 376H236C233.781 376 232 374.219 232 372V332C232 329.781 233.781 328 236 328H276C278.219 328 280 329.781 280 332V372ZM148 312H108C96.969 312 88 320.969 88 332V372C88 383.031 96.969 392 108 392H148C159.031 392 168 383.031 168 372V332C168 320.969 159.031 312 148 312ZM152 372C152 374.219 150.219 376 148 376H108C105.781 376 104 374.219 104 372V332C104 329.781 105.781 328 108 328H148C150.219 328 152 329.781 152 332V372Z"/></svg>