<svg xmlns="http://www.w3.org/2000/svg" viewBox="0 0 576 512"><!-- Font Awesome Pro 6.0.0-alpha2 by @fontawesome - https://fontawesome.com License - https://fontawesome.com/license (Commercial License) --><path d="M439.465 319.973C423.064 319.973 381.823 360.907 288 360.907H280V381.844C280 385.501 277.125 388.376 273.469 388.376H258.922C255.266 388.376 252.391 385.501 252.391 381.844V358.501L245.594 357.47C177.659 347.116 149.983 319.983 136.595 319.983C125.088 319.983 114.05 329.331 114.05 342.237C114.05 349.952 122.538 369.91 133.734 385.719C142.125 397.438 153.125 407.751 167.375 417.25L179.578 425.375L179.812 410.719C179.875 407.157 182.688 404.376 186.234 404.376H200.781C204.437 404.376 207.312 407.251 207.312 410.938V436.469L213.062 438.157C235.406 444.688 260.625 448 288 448S340.594 444.688 362.938 438.157L368.688 436.469V410.938C368.688 407.251 371.563 404.376 375.219 404.376H389.766C393.266 404.376 396.078 407.157 396.188 410.719L396.625 425L408.578 417.157C422.516 408.001 433.999 397.251 442.719 385.157C453.255 370.358 461.953 350.103 461.953 342.227C461.953 329.234 450.895 319.973 439.465 319.973ZM445.562 344.376C434.817 375.518 418.628 389.714 408.109 397.876C404.047 392.094 397.359 388.376 389.766 388.376H375.219C362.797 388.376 352.687 398.501 352.687 410.938V424.375C333.234 429.438 310.617 431.969 288 431.969S242.766 429.438 223.312 424.375V410.938C223.312 398.501 213.203 388.376 200.781 388.376H186.234C178.703 388.376 171.984 392.188 167.906 397.969C138.044 374.858 130.034 343.035 130.034 342.198C130.034 338.719 133.415 335.964 136.565 335.964C142.042 335.964 173.067 361.045 236.391 372.157V381.844C236.391 394.282 246.5 404.376 258.922 404.376H273.469C285.891 404.376 296 394.282 296 381.844V376.813C384.923 374.412 433.02 335.984 439.428 335.984C441.913 335.984 445.968 338.077 445.968 342.175C445.968 342.835 445.854 343.559 445.578 344.345L445.562 344.376ZM248 104.002C251.094 104.002 254.047 102.19 255.344 99.158L288.922 21.061C290.08 18.198 293.018 15.983 296.344 15.983C297.514 15.983 298.732 16.257 299.938 16.874L339.547 36.624C342.297 37.999 344 40.717 344 43.717V96.002C344 100.408 347.578 104.002 352 104.002S360 100.408 360 96.002V43.717C360 34.624 354.906 26.405 346.688 22.311L307.156 2.589C305.158 1.563 301.4 0 296.362 0C286.251 0 277.607 6.304 274.156 14.932L240.656 92.846C240.211 93.879 240.001 94.952 240.001 96.007C240.001 99.485 242.756 104.002 248 104.002ZM432.201 130.243C410.154 130.243 392.558 138.212 388.186 141.646C359.586 127.338 326.139 120.002 288 120.002S216.414 127.338 187.814 141.646C183.47 138.234 165.821 130.256 143.766 130.256C59.186 130.256 0 246.351 0 319.751C0 407.684 67.071 511.995 155.314 511.995C179.136 511.995 202.99 505.074 222.578 491.156C240.891 504.969 262.859 511.938 288 511.938C313.094 511.938 335.109 504.938 353.516 491.156C373.078 505.063 396.922 512 420.75 512C508.36 512 576 408.349 576 319.751C576 250.354 518.122 130.243 432.201 130.243ZM420.782 495.775C376.333 495.775 360.904 473.031 353.4 473.031C345.324 473.031 332.8 495.938 288 495.938C243.206 495.938 230.842 473.054 222.713 473.054C215.242 473.054 199.456 495.741 155.318 495.741C77.864 495.741 16 400.855 16 319.751C16 235.146 81.561 146.919 142.677 146.919C151.906 146.919 161.215 148.519 170.256 151.697C156.28 160.839 136.004 177.549 136.004 183.989C136.004 188.983 140.141 191.982 144.025 191.982C153.617 191.982 184.169 135.998 288 135.998C391.939 135.998 422.282 191.99 432 191.99C436.436 191.99 439.996 188.399 439.996 183.989C439.996 177.713 420.274 161.2 405.744 151.697C414.782 148.519 424.089 146.92 433.316 146.92C494.872 146.92 560 235.848 560 319.751C560 399.714 499.124 495.775 420.782 495.775ZM167.969 296.001H241.953C252.304 296.001 255.94 287.764 255.94 282.16C255.94 279.7 255.362 277.165 254.156 274.814L216.734 214.252C213.672 210.227 208.977 207.999 204.363 207.999C201.324 207.999 195.466 209.49 192.75 214.877L155.75 274.814L155.516 275.22C154.419 277.25 153.874 279.611 153.874 281.981C153.874 289.215 158.972 296.001 167.969 296.001ZM204.969 225.501L239.359 280.001H171.344L204.969 225.501ZM331.031 296.001H405.016C415.309 296.001 419.009 287.775 419.009 282.149C419.009 279.699 418.434 277.169 417.234 274.814L379.812 214.252C376.808 210.246 372.227 207.993 367.534 207.993C364.456 207.993 358.581 209.431 355.812 214.877L318.828 274.814L318.609 275.189C317.498 277.233 316.946 279.611 316.946 281.999C316.946 289.298 322.113 296.001 331.031 296.001ZM368.031 225.501L402.422 280.001H334.422L368.031 225.501Z"/></svg>