<svg xmlns="http://www.w3.org/2000/svg" viewBox="0 0 640 512"><!-- Font Awesome Pro 6.0.0-alpha2 by @fontawesome - https://fontawesome.com License - https://fontawesome.com/license (Commercial License) --><path d="M592 144H508.766C490.613 134.125 470.121 128 448 128S405.387 134.125 387.234 144H241.738C229.832 144 217.98 145.66 206.531 148.937L23.25 201.375C9.5 205.25 0 217.875 0 232.125V279.875C0 294.125 9.5 306.75 23.25 310.625L206.531 363.062C217.98 366.34 229.832 368 241.738 368H387.234C405.387 377.875 425.879 384 448 384S490.613 377.875 508.766 368H592C618.398 368 640 346.398 640 320V192C640 165.601 618.398 144 592 144ZM241.738 352C231.312 352 220.949 350.547 210.934 347.68L27.59 295.226C20.766 293.301 16 286.988 16 279.875V232.125C16 225.012 20.766 218.699 27.652 216.758L210.934 164.32C220.949 161.453 231.312 160 241.738 160H364.145C337.305 183.461 320 217.551 320 256S337.305 328.539 364.145 352H241.738ZM448 368C386.242 368 336 317.758 336 256S386.242 144 448 144S560 194.242 560 256S509.758 368 448 368ZM624 320C624 337.644 609.645 352 592 352H531.855C558.695 328.539 576 294.449 576 256S558.695 183.461 531.855 160H592C609.645 160 624 174.355 624 192V320ZM493.656 210.344C490.531 207.219 485.469 207.219 482.344 210.344L448 244.687L413.656 210.344C410.531 207.219 405.469 207.219 402.344 210.344S399.219 218.531 402.344 221.656L436.688 256L402.344 290.344C399.219 293.469 399.219 298.531 402.344 301.656C403.906 303.219 405.938 304 408 304S412.094 303.219 413.656 301.656L448 267.312L482.344 301.656C483.906 303.219 485.938 304 488 304S492.094 303.219 493.656 301.656C496.781 298.531 496.781 293.469 493.656 290.344L459.312 256L493.656 221.656C496.781 218.531 496.781 213.469 493.656 210.344Z"/></svg>