<svg xmlns="http://www.w3.org/2000/svg" viewBox="0 0 512 512"><!-- Font Awesome Pro 6.0.0-alpha2 by @fontawesome - https://fontawesome.com License - https://fontawesome.com/license (Commercial License) --><path d="M509.516 269.156L453.438 157C449.438 148.969 441.375 144 432.422 144H136V96C136 65.125 161.125 40 192 40C192.582 40 192.943 39.5 193.49 39.383C196.902 53.383 208.947 64 224 64H320C337.674 64 352 49.672 352 32S337.674 0 320 0H224C208.947 0 196.902 10.617 193.49 24.617C192.943 24.5 192.582 24 192 24C152.297 24 120 56.312 120 96V144H79.578C70.625 144 62.562 148.969 58.562 157L2.484 269.156C0.859 272.406 0 276.031 0 279.656V328C0 340.969 10.547 351.5 23.5 351.5H248.207C248.193 351.691 248 351.805 248 352V496H136C131.578 496 128 499.594 128 504S131.578 512 136 512H376C380.422 512 384 508.406 384 504S380.422 496 376 496H264V352C264 351.805 263.807 351.691 263.793 351.5H488.5C501.453 351.5 512 340.969 512 328V279.656C512 276.031 511.141 272.406 509.516 269.156ZM224 16H320C328.822 16 336 23.176 336 32S328.822 48 320 48H224C215.178 48 208 40.824 208 32S215.178 16 224 16ZM72.875 164.125C74.156 161.594 76.719 160 79.578 160H432.422C435.281 160 437.844 161.594 439.125 164.125L493.063 272H18.938L72.875 164.125ZM496 328C496 332.125 492.641 335.5 488.5 335.5H23.5C19.359 335.5 16 332.125 16 328V288H496V328Z"/></svg>