<svg xmlns="http://www.w3.org/2000/svg" viewBox="0 0 512 512"><!-- Font Awesome Pro 6.0.0-alpha2 by @fontawesome - https://fontawesome.com License - https://fontawesome.com/license (Commercial License) --><path d="M179.083 248.031C183.163 251.242 188.096 249.5 190.315 246.687C193.032 243.219 192.423 238.187 188.956 235.469C170.569 221.031 160.026 199.375 160.026 176S170.569 130.969 188.956 116.531C192.423 113.812 193.032 108.781 190.315 105.312C187.565 101.844 182.567 101.25 179.083 103.969C156.807 121.437 144.03 147.687 144.03 176S156.807 230.562 179.083 248.031ZM323.046 235.469C319.579 238.187 318.969 243.219 321.686 246.687C323.905 249.5 328.839 251.242 332.919 248.031C355.194 230.562 367.971 204.312 367.971 176S355.194 121.437 332.919 103.969C329.434 101.25 324.436 101.844 321.686 105.312C318.969 108.781 319.579 113.812 323.046 116.531C341.432 130.969 351.975 152.625 351.975 176S341.432 221.031 323.046 235.469ZM415.675 66C409.868 62.82 401.79 63.308 396.358 69.082C391.372 74.387 390.594 82.391 394.468 88.555C410.956 114.801 419.673 145.039 419.673 175.926C419.423 229.203 392.794 278.715 348.188 308.547L263.999 366.383V347.726C264.772 347.289 313.784 307.441 313.784 307.441C318.298 303.73 322.491 294.133 318.012 285.969C312.206 275.383 302.602 254.219 285.655 217.004C276.837 192.305 277.018 165.703 286.089 140.414C288.557 134.961 302.569 105.086 318.528 70.496C321.473 64.113 319.907 56.551 314.665 51.863L266.837 4.07C263.8 1.355 259.987 0 256.175 0C256.116 0 256.059 0.031 256.001 0.031S255.885 0 255.827 0C252.014 0 248.202 1.355 245.165 4.07L197.337 51.863C192.094 56.551 190.528 64.113 193.473 70.496C209.432 105.086 223.444 134.961 225.913 140.414C234.983 165.703 235.165 192.305 226.346 217.004C209.399 254.219 199.796 275.383 193.989 285.969C189.51 294.133 193.704 303.73 198.218 307.441C198.218 307.441 247.229 347.289 248.003 347.726V366.383L163.813 308.547C119.208 278.715 92.579 229.203 92.329 175.926C92.329 145.039 101.046 114.801 117.534 88.555C121.407 82.39 120.63 74.387 115.643 69.082C110.212 63.308 102.134 62.82 96.327 66C20.915 107.168 -15.343 190.562 6.102 273.516C12.839 299.633 26.714 325.078 47.346 349.129L99.905 410.426C103.028 414.066 107.503 416.008 112.053 416.008C114.612 416.008 117.192 415.394 119.571 414.125L207.399 367.289C209.677 366.074 211.477 364.262 212.903 362.211L241.583 381.336L172.044 427.703C168.456 425.562 164.499 424 160.026 424C146.796 424 136.032 434.781 136.032 448S146.796 472 160.026 472S184.02 461.219 184.02 448C184.02 445.172 183.307 442.547 182.405 440.023L248.003 396.281V449.617C234.311 453.242 224.009 465.164 224.009 480C224.009 497.672 238.333 512 256.001 512S287.993 497.672 287.993 480C287.993 465.164 277.69 453.242 263.999 449.617V396.281L329.596 440.023C328.694 442.547 327.981 445.172 327.981 448C327.981 461.219 338.745 472 351.975 472S375.969 461.219 375.969 448S365.206 424 351.975 424C347.503 424 343.546 425.562 339.958 427.703L270.419 381.336L299.098 362.211C300.524 364.262 302.325 366.074 304.602 367.289L392.43 414.125C394.809 415.394 397.389 416.008 399.948 416.008C404.499 416.008 408.973 414.066 412.096 410.426L464.655 349.129C485.288 325.078 499.163 299.633 505.899 273.516C527.344 190.562 491.087 107.168 415.675 66ZM112.046 400.008L59.485 338.711C40.456 316.527 27.71 293.246 21.589 269.508C2.01 193.773 35.128 117.637 103.989 80.043C85.911 108.82 76.333 142.019 76.333 176C76.608 234.629 105.891 289.058 154.671 321.676L199.583 353.328L112.046 400.008ZM160.026 456C155.62 456 152.028 452.406 152.028 448S155.62 440 160.026 440C164.43 440 168.024 443.594 168.024 448S164.43 456 160.026 456ZM271.997 480C271.997 488.824 264.821 496 256.001 496S240.005 488.824 240.005 480S247.18 464 256.001 464S271.997 471.176 271.997 480ZM256.163 334.058L256.001 333.926L255.839 334.058L208.01 293.668C214.114 282.547 223.594 261.648 241.411 222.383C251.331 194.598 251.335 163.926 240.88 134.691C240.46 133.769 225.438 101.594 207.997 63.793L255.827 16L256.001 16.176L256.175 16L304.005 63.793C286.563 101.594 271.542 133.769 271.122 134.691C260.667 163.926 260.671 194.598 270.591 222.383C288.407 261.648 297.887 282.547 303.991 293.668L256.163 334.058ZM351.975 440C356.382 440 359.973 443.594 359.973 448S356.382 456 351.975 456C347.571 456 343.977 452.406 343.977 448S347.571 440 351.975 440ZM490.413 269.508C484.292 293.246 471.546 316.527 452.516 338.711L399.956 400.008L312.419 353.328L357.331 321.676C406.11 289.058 435.393 234.629 435.669 176C435.669 142.019 426.091 108.82 408.012 80.043C476.874 117.637 509.991 193.773 490.413 269.508Z"/></svg>