<svg xmlns="http://www.w3.org/2000/svg" viewBox="0 0 384 512"><!-- Font Awesome Pro 6.0.0-alpha2 by @fontawesome - https://fontawesome.com License - https://fontawesome.com/license (Commercial License) --><path d="M384 256C384 260.406 380.406 264 376 264H117.373L349.25 465.969C352.594 468.875 352.938 473.937 350.031 477.25C348.438 479.062 346.219 480 344 480C342.125 480 340.25 479.344 338.75 478.031L104 273.572V472C104 476.406 100.406 480 96 480S88 476.406 88 472V264H8C3.594 264 0 260.406 0 256S3.594 248 8 248H88V40C88 35.594 91.594 32 96 32S104 35.594 104 40V238.428L338.75 33.969C342.031 31.094 347.094 31.406 350.031 34.75C352.938 38.062 352.594 43.125 349.25 46.031L117.373 248H376C380.406 248 384 251.594 384 256Z"/></svg>