<svg xmlns="http://www.w3.org/2000/svg" viewBox="0 0 576 512"><!-- Font Awesome Pro 6.0.0-alpha2 by @fontawesome - https://fontawesome.com License - https://fontawesome.com/license (Commercial License) --><path d="M200 296H248V344C248 352.828 255.172 360 264 360H312C320.828 360 328 352.828 328 344V296H376C384.828 296 392 288.828 392 280V232C392 223.172 384.828 216 376 216H328V168C328 159.172 320.828 152 312 152H264C255.172 152 248 159.172 248 168V216H200C191.172 216 184 223.172 184 232V280C184 288.828 191.172 296 200 296ZM200 232H264V168H312V232H376V280H312V344H264V280H200V232ZM512 32H64C28.654 32 0 60.652 0 96V416C0 451.344 28.654 480 64 480H512C547.348 480 576 451.344 576 416V96C576 60.652 547.348 32 512 32ZM96 464H64C37.533 464 16 442.469 16 416V96C16 69.531 37.533 48 64 48H96V464ZM464 464H112V48H464V464ZM560 416C560 442.469 538.467 464 512 464H480V48H512C538.467 48 560 69.531 560 96V416Z"/></svg>