<svg xmlns="http://www.w3.org/2000/svg" viewBox="0 0 512 512"><!-- Font Awesome Pro 6.0.0-alpha2 by @fontawesome - https://fontawesome.com License - https://fontawesome.com/license (Commercial License) --><path d="M512 198.137C512 181.81 503.836 165.622 488.385 154.888C476.848 147.318 463.188 144.224 467.884 128.025C470.993 117.522 472.409 107.928 472.409 99.264C472.409 80.721 465.907 66.433 455.519 56.55L455.398 56.608L455.407 56.593L455.388 56.601L455.45 56.483C445.568 46.093 431.279 39.593 412.734 39.593C404.072 39.593 394.477 41.007 383.975 44.116C367.778 48.812 364.681 35.152 357.11 23.617C346.378 8.164 330.191 0 313.863 0C301.676 0 289.412 4.539 279.266 13.992C270.657 21.968 263.942 33.664 239.533 76.475C234.062 72.022 229.824 68.382 225.689 65.034C214.687 56.144 202.119 51.816 189.924 51.819C171.506 51.819 153.944 61.671 143.913 80.53C132.173 102.608 133.677 126.045 136.695 149.951C138.316 162.7 139.322 175.692 141.07 192.188C134.945 187.942 132.447 185.942 129.82 184.442C121.859 179.864 113.599 177.692 105.746 177.692C87.858 177.692 72.065 188.997 66.596 209.059C63.473 220.934 63.1 234.676 65.846 246.676C69.719 263.918 78.719 280.031 83.342 297.28C89.151 318.05 83.94 327.276 82.077 332.948C73.897 357.803 79.805 384.529 96.027 404.603L2.342 498.336C-0.781 501.461 -0.781 506.519 2.346 509.648C2.348 509.648 2.35 509.648 2.353 509.648C2.355 509.648 2.353 509.656 2.355 509.656C5.48 512.781 10.543 512.781 13.666 509.66L107.396 415.974C127.478 432.204 154.198 438.102 179.051 429.923C184.723 428.063 193.951 422.849 214.721 428.657C231.97 433.282 248.085 442.282 265.327 446.157C277.327 448.899 291.069 448.528 302.941 445.407C323 439.938 334.31 424.142 334.308 406.255C334.31 398.4 332.138 390.142 327.558 382.181C326.06 379.556 324.058 377.056 319.812 370.931C336.31 372.681 349.302 373.681 362.048 375.306C385.957 378.322 409.395 379.83 431.472 368.088C450.327 358.057 460.181 340.494 460.183 322.077C460.183 309.882 455.857 297.312 446.966 286.312C443.617 282.175 439.98 277.937 435.527 272.468C478.339 248.058 490.032 241.344 498.006 232.735C507.459 222.59 512 210.325 512 198.137ZM486.299 221.828C482.092 226.367 477.979 230.074 427.601 258.574C419.056 263.441 416.849 274.878 423.121 282.574C433.959 295.691 444.177 305.261 444.179 322.077C444.177 335.502 436.814 347.123 423.957 353.963C405.666 363.689 385.18 362.1 364.052 359.432C356.106 358.42 327.837 355.697 321.498 355.025C307.812 353.568 298.942 368.916 306.664 380.056C318.338 396.576 318.314 401.001 318.308 406.251C318.308 417.759 310.994 426.626 298.731 429.97C276.422 435.837 259.124 428.063 244.14 422.106C236.093 418.903 227.763 415.595 218.865 413.204C192.846 405.923 178.879 413.134 174.049 414.728C154.909 421.024 134.55 416.829 118.699 404.669L349.778 173.568C352.901 170.415 352.903 165.349 349.78 162.255C349.773 162.247 349.761 162.255 349.755 162.247C349.747 162.24 349.751 162.224 349.745 162.22C346.65 159.099 341.585 159.099 338.433 162.224L107.332 393.298C95.176 377.455 90.973 357.092 97.275 337.952C98.865 333.12 106.078 319.155 98.795 293.136C96.404 284.238 93.098 275.91 89.895 267.863C83.938 252.879 76.163 235.578 82.032 213.27C85.375 201.005 94.24 193.692 105.748 193.692C111.002 193.684 115.426 193.661 131.943 205.337C143.085 213.059 158.433 204.188 156.977 190.505C156.306 184.161 153.579 155.896 152.569 147.951C149.901 126.818 148.308 106.334 158.04 88.045C164.878 75.186 176.495 67.823 189.924 67.819C206.74 67.823 216.312 78.042 229.427 88.881C237.122 95.151 248.562 92.944 253.429 84.397C281.924 34.023 285.633 29.906 290.172 25.703C296.987 19.351 305.178 16 313.863 16C325.607 16 336.58 22.101 344.517 33.581C349.491 41.132 359.231 67.956 388.512 59.46C397.194 56.89 405.34 55.593 412.73 55.593C416.922 55.593 432.675 57.358 444.087 67.913C454.638 79.327 456.409 95.077 456.407 99.272C456.407 106.662 455.109 114.807 452.542 123.49C444.044 152.771 470.868 162.509 478.417 167.482C489.901 175.419 496.002 186.395 496 198.137C496.002 206.825 492.647 215.012 486.299 221.828Z"/></svg>