<svg xmlns="http://www.w3.org/2000/svg" viewBox="0 0 448 512"><!-- Font Awesome Pro 6.0.0-alpha2 by @fontawesome - https://fontawesome.com License - https://fontawesome.com/license (Commercial License) --><path d="M416 192H224V96C224 83.062 216.203 71.391 204.25 66.438C200.287 64.797 196.127 64 192.004 64C183.678 64 175.498 67.25 169.375 73.375L9.375 233.375C3.125 239.625 0 247.812 0 256S3.125 272.375 9.375 278.625L169.375 438.625C175.498 444.748 183.678 448 192.004 448C196.127 448 200.285 447.203 204.25 445.562C216.203 440.609 224 428.938 224 416V320H416C433.674 320 448 305.674 448 288V224C448 206.328 433.674 192 416 192ZM432 288C432 296.822 424.822 304 416 304H208V416C208 422.492 204.123 428.295 198.133 430.777C196.174 431.588 194.111 432 192.004 432C187.73 432 183.713 430.334 180.689 427.311L20.689 267.311C17.666 264.287 16 260.27 16 256C16 251.729 17.666 247.711 20.689 244.688L180.689 84.688C183.713 81.664 187.73 80 192.004 80C194.111 80 196.174 80.41 198.125 81.219C204.123 83.705 208 89.506 208 96V208H416C424.822 208 432 215.178 432 224V288Z"/></svg>