<svg xmlns="http://www.w3.org/2000/svg" viewBox="0 0 640 512"><!-- Font Awesome Pro 6.0.0-alpha2 by @fontawesome - https://fontawesome.com License - https://fontawesome.com/license (Commercial License) --><path d="M256 400H160C80.594 400 16 335.406 16 256S80.594 112 160 112H256C260.406 112 264 108.422 264 104S260.406 96 256 96H160C71.781 96 0 167.781 0 256S71.781 416 160 416H256C260.406 416 264 412.422 264 408S260.406 400 256 400ZM480 96H384C379.594 96 376 99.578 376 104S379.594 112 384 112H480C559.406 112 624 176.594 624 256S559.406 400 480 400H384C379.594 400 376 403.578 376 408S379.594 416 384 416H480C568.219 416 640 344.219 640 256S568.219 96 480 96ZM184 256C184 260.422 187.594 264 192 264H448C452.406 264 456 260.422 456 256S452.406 248 448 248H192C187.594 248 184 251.578 184 256Z"/></svg>