<svg xmlns="http://www.w3.org/2000/svg" viewBox="0 0 384 512"><!-- Font Awesome Pro 6.0.0-alpha2 by @fontawesome - https://fontawesome.com License - https://fontawesome.com/license (Commercial License) --><path d="M192 0C86.375 0 0 86.367 0 191.988C0 268.734 25.625 291.23 172.75 502.344C177.562 508.781 184.781 512 192 512S206.438 508.781 211.25 502.344C358.375 291.23 384 268.734 384 191.988C384 86.367 297.625 0 192 0ZM198.436 492.762C196.33 495.578 193.5 496 192 496S187.67 495.578 185.877 493.195C163.381 460.914 143.723 433.039 126.561 408.703C32.881 275.871 16 251.934 16 191.988C16 94.949 94.953 16 192 16S368 94.949 368 191.988C368 251.934 351.121 275.871 257.441 408.703C240.277 433.039 220.619 460.914 198.436 492.762ZM128 176C136.838 176 144 168.836 144 160S136.838 144 128 144C119.164 144 112 151.164 112 160S119.164 176 128 176ZM256 176C264.838 176 272 168.836 272 160S264.838 144 256 144C247.164 144 240 151.164 240 160S247.164 176 256 176ZM281.094 251.969C262.062 284.547 228.766 304 192 304S121.938 284.547 102.906 251.969C100.672 248.141 95.734 246.828 91.969 249.094C88.156 251.312 86.859 256.219 89.094 260.031C111.016 297.578 149.484 320 192 320S272.984 297.578 294.906 260.031C297.141 256.219 295.844 251.313 292.031 249.094C288.203 246.828 283.328 248.141 281.094 251.969Z"/></svg>