<svg xmlns="http://www.w3.org/2000/svg" viewBox="0 0 384 512"><!-- Font Awesome Pro 6.0.0-alpha2 by @fontawesome - https://fontawesome.com License - https://fontawesome.com/license (Commercial License) --><path d="M192 0C85.969 0 0 85.969 0 192.002C0 269.408 26.969 291.033 172.281 501.676C177.047 508.559 184.523 512 192 512S206.953 508.559 211.719 501.676C357.031 291.033 384 269.408 384 192.002C384 85.969 298.031 0 192 0ZM198.564 492.566C196.496 495.553 193.564 496 192 496S187.504 495.553 185.451 492.59C159.52 455 137.352 423.42 118.432 396.467C31.639 272.832 16 250.553 16 192.002C16 94.953 94.953 16 192 16S368 94.953 368 192.002C368 250.553 352.361 272.832 265.568 396.467C246.648 423.42 224.48 455 198.564 492.566ZM280 184H200V104C200 99.58 196.42 96 192 96S184 99.58 184 104V184H104C99.58 184 96 187.58 96 192C96 196.422 99.578 200 104 200H184V280C184 284.422 187.578 288 192 288C196.42 288 200 284.42 200 280V200H280C284.42 200 288 196.42 288 192S284.42 184 280 184Z"/></svg>