<svg xmlns="http://www.w3.org/2000/svg" viewBox="0 0 512 512"><!-- Font Awesome Pro 6.0.0-alpha2 by @fontawesome - https://fontawesome.com License - https://fontawesome.com/license (Commercial License) --><path d="M256 160C202.98 160 160 202.98 160 256S202.98 352 256 352S352 309.019 352 256S309.02 160 256 160ZM256 336C211.889 336 176 300.113 176 256S211.889 176 256 176C300.113 176 336 211.887 336 256S300.113 336 256 336ZM504 248H448C447.846 248 447.756 248.156 447.604 248.164C443.566 148.406 363.596 68.433 263.836 64.398C263.844 64.242 264 64.156 264 64V8C264 3.594 260.422 0 256 0S248 3.594 248 8V64C248 64.156 248.156 64.242 248.164 64.398C148.404 68.433 68.434 148.406 64.396 248.164C64.244 248.156 64.154 248 64 248H8C3.578 248 0 251.594 0 256S3.578 264 8 264H64C64.154 264 64.244 263.844 64.396 263.836C68.434 363.594 148.404 443.566 248.164 447.601C248.156 447.758 248 447.844 248 448V504C248 508.406 251.578 512 256 512S264 508.406 264 504V448C264 447.844 263.844 447.758 263.836 447.601C363.596 443.566 443.566 363.594 447.604 263.836C447.756 263.844 447.846 264 448 264H504C508.422 264 512 260.406 512 256S508.422 248 504 248ZM256 432C158.953 432 80 353.047 80 256S158.953 80 256 80S432 158.953 432 256S353.047 432 256 432Z"/></svg>