<svg xmlns="http://www.w3.org/2000/svg" viewBox="0 0 512 512"><!-- Font Awesome Pro 6.0.0-alpha2 by @fontawesome - https://fontawesome.com License - https://fontawesome.com/license (Commercial License) --><path d="M416 224H384V128C384 57.422 326.594 0 256 0S128 57.422 128 128V224H96C60.652 224 32 252.656 32 288V448C32 483.344 60.652 512 96 512H416C451.348 512 480 483.344 480 448V288C480 252.656 451.348 224 416 224ZM144 128C144 66.25 194.25 16 256 16S368 66.25 368 128V224H144V128ZM464 448C464 474.469 442.469 496 416 496H96C69.531 496 48 474.469 48 448V288C48 261.531 69.531 240 96 240H416C442.469 240 464 261.531 464 288V448ZM256 320C238.326 320 224 334.328 224 352V384C224 401.672 238.326 416 256 416S288 401.672 288 384V352C288 334.328 273.674 320 256 320ZM272 384C272 392.824 264.822 400 256 400S240 392.824 240 384V352C240 343.176 247.178 336 256 336S272 343.176 272 352V384Z"/></svg>