<svg xmlns="http://www.w3.org/2000/svg" viewBox="0 0 576 512"><!-- Font Awesome Pro 6.0.0-alpha2 by @fontawesome - https://fontawesome.com License - https://fontawesome.com/license (Commercial License) --><path d="M432 64H144C64.471 64 0 128.473 0 208V384C0 419.348 28.654 448 64 448H512C547.346 448 576 419.348 576 384V208C576 128.473 511.529 64 432 64ZM240 432H64C37.533 432 16 410.469 16 384V208C16 137.422 73.42 80 144 80H160C230.58 80 288 137.422 288 208V384C288 410.469 266.467 432 240 432ZM560 384C560 410.469 538.467 432 512 432H281.928C295.346 420.27 304 403.227 304 384V208C304 151.859 271.553 103.75 224.68 80H432C502.58 80 560 137.422 560 208V384ZM216 192H72C67.578 192 64 195.578 64 200S67.578 208 72 208H216C220.422 208 224 204.422 224 200S220.422 192 216 192ZM488 192H376C371.578 192 368 195.578 368 200S371.578 208 376 208H488C492.406 208 496 211.594 496 216V280H448V248C448 243.578 444.422 240 440 240S432 243.578 432 248V288C432 292.422 435.578 296 440 296H504C508.422 296 512 292.422 512 288V216C512 202.766 501.234 192 488 192Z"/></svg>