<svg xmlns="http://www.w3.org/2000/svg" viewBox="0 0 320 512"><!-- Font Awesome Pro 6.0.0-alpha2 by @fontawesome - https://fontawesome.com License - https://fontawesome.com/license (Commercial License) --><path d="M304 144C304 64.471 239.531 0 160 0S16 64.471 16 144C16 220.898 76.438 283.154 152.32 287.227C152.289 287.52 152 287.699 152 288V504C152 508.406 155.594 512 160 512S168 508.406 168 504V288C168 287.699 167.711 287.52 167.68 287.227C243.562 283.154 304 220.898 304 144ZM160 272C89.422 272 32 214.578 32 144C32 73.42 89.422 16 160 16S288 73.42 288 144C288 214.578 230.578 272 160 272ZM160 48C107.062 48 64 91.062 64 144C64 148.406 67.594 152 72 152S80 148.406 80 144C80 99.875 115.875 64 160 64C164.406 64 168 60.406 168 56S164.406 48 160 48Z"/></svg>