<svg xmlns="http://www.w3.org/2000/svg" viewBox="0 0 512 512"><!-- Font Awesome Pro 6.0.0-alpha2 by @fontawesome - https://fontawesome.com License - https://fontawesome.com/license (Commercial License) --><path d="M510.068 13.219C512.099 10.844 512.568 7.5 511.287 4.656C509.974 1.812 507.131 0 504.006 0H7.994C4.869 0 2.026 1.812 0.713 4.656C-0.568 7.5 -0.099 10.844 1.932 13.219L248 298.969V496H135.997C131.575 496 127.997 499.594 127.997 504S131.575 512 135.997 512H376.003C380.425 512 384.003 508.406 384.003 504S380.425 496 376.003 496H264V298.969L510.068 13.219ZM486.568 16L256 283.75L25.432 16H486.568Z"/></svg>