<svg xmlns="http://www.w3.org/2000/svg" viewBox="0 0 640 512"><!-- Font Awesome Pro 6.0.0-alpha2 by @fontawesome - https://fontawesome.com License - https://fontawesome.com/license (Commercial License) --><path d="M618.225 141.719C589.653 113.113 542.731 112.612 513.534 140.701L510.449 143.675C490.514 143.237 460.893 134.196 444.698 123.39L384.584 83.222C346.196 57.593 293.804 57.593 255.416 83.222L195.302 123.39C179.107 134.196 149.486 143.237 129.551 143.675L126.466 140.701C97.3 112.58 50.315 113.113 21.775 141.719C-6.985 170.545 -7.298 217.762 21.087 246.964L91.329 319.262C151.037 380.736 234.409 416 320 416S488.963 380.736 548.671 319.262L618.913 246.964C647.298 217.762 646.985 170.545 618.225 141.719ZM119.933 324.025C114.073 318.875 108.231 313.697 102.771 308.077L32.528 235.778C10.239 212.827 10.49 175.714 33.091 153.061C55.536 130.549 92.455 130.173 115.4 152.262L119.933 156.633V324.025ZM504.062 337.02C451.495 377.199 386.567 399.958 320 399.958S188.505 377.201 135.938 337.02V159.516C158.446 157.62 186.893 148.299 204.18 136.737L264.294 96.57C297.367 74.449 342.633 74.449 375.706 96.57L435.82 136.737C453.107 148.299 481.554 157.62 504.062 159.516V337.02ZM607.472 235.778L537.229 308.077C531.769 313.697 525.927 318.875 520.067 324.025V156.633L524.6 152.262C547.545 130.173 584.433 130.549 606.909 153.061C629.51 175.714 629.761 212.827 607.472 235.778ZM440.04 248.107H199.96C195.552 248.107 191.957 251.695 191.957 256.128C191.957 260.562 195.552 264.149 199.96 264.149H440.04C444.448 264.149 448.043 260.562 448.043 256.128C448.043 251.695 444.448 248.107 440.04 248.107ZM191.957 191.96C191.957 196.394 195.552 199.981 199.96 199.981H440.04C444.448 199.981 448.043 196.394 448.043 191.96S444.448 183.939 440.04 183.939H199.96C195.552 183.939 191.957 187.527 191.957 191.96ZM408.03 312.275H231.97C227.563 312.275 223.968 315.863 223.968 320.296C223.968 324.73 227.563 328.317 231.97 328.317H408.03C412.437 328.317 416.032 324.73 416.032 320.296C416.032 315.863 412.437 312.275 408.03 312.275Z"/></svg>