<svg xmlns="http://www.w3.org/2000/svg" viewBox="0 0 384 512"><!-- Font Awesome Pro 6.0.0-alpha2 by @fontawesome - https://fontawesome.com License - https://fontawesome.com/license (Commercial License) --><path d="M368 224.003C368 143.792 314.291 76.25 240.918 55.035C265.316 46.684 287.756 32.942 305.312 13.348C308.25 10.051 307.969 4.989 304.688 2.051C301.438 -0.886 296.375 -0.589 293.375 2.661C267.594 31.473 230.625 48.004 192 48.004S116.406 31.473 90.625 2.661C87.625 -0.621 82.594 -0.917 79.312 2.051C76.031 4.989 75.75 10.051 78.688 13.348C96.244 32.942 118.684 46.684 143.082 55.035C69.709 76.25 16 143.792 16 224.003C16 318.502 90.541 395.384 184 399.595V440.001H128C123.594 440.001 120 443.579 120 448.001C120 452.422 123.594 456 128 456H184V504C184 508.422 187.594 512 192 512S200 508.422 200 504V456H256C260.406 456 264 452.422 264 448.001C264 443.579 260.406 440.001 256 440.001H200V399.595C293.459 395.384 368 318.502 368 224.003ZM32 224.003C32 135.781 103.775 64.004 192 64.004S352 135.781 352 224.003S280.225 384.001 192 384.001S32 312.224 32 224.003Z"/></svg>