<svg xmlns="http://www.w3.org/2000/svg" viewBox="0 0 512 512"><!-- Font Awesome Pro 6.0.0-alpha2 by @fontawesome - https://fontawesome.com License - https://fontawesome.com/license (Commercial License) --><path d="M184 112.012C153.125 112.012 128 137.135 128 168.007S153.125 224.003 184 224.003C199.676 224.003 213.824 217.486 224 207.07V232.002C224 262.874 198.875 287.997 168 287.997H160C155.578 287.997 152 291.591 152 295.997S155.578 303.996 160 303.996H168C207.703 303.996 240 271.686 240 232.002V168.007C240 137.135 214.875 112.012 184 112.012ZM184 208.004C161.938 208.004 144 190.068 144 168.007S161.938 128.01 184 128.01S224 145.946 224 168.007S206.062 208.004 184 208.004ZM328 112.012C297.125 112.012 272 137.135 272 168.007S297.125 224.003 328 224.003C343.676 224.003 357.824 217.486 368 207.07V232.002C368 262.874 342.875 287.997 312 287.997H304C299.578 287.997 296 291.591 296 295.997S299.578 303.996 304 303.996H312C351.703 303.996 384 271.686 384 232.002V168.007C384 137.135 358.875 112.012 328 112.012ZM328 208.004C305.937 208.004 288 190.068 288 168.007S305.937 128.01 328 128.01S368 145.946 368 168.007S350.062 208.004 328 208.004ZM448 0.021H64C28.75 0.021 0 28.766 0 64.01V351.963C0 387.208 28.75 415.954 64 415.954H160V499.939C160 507.011 165.92 511.979 172.178 511.979C174.547 511.979 176.963 511.267 179.125 509.689L304 415.954H448C483.25 415.954 512 387.208 512 351.963V64.01C512 28.766 483.25 0.021 448 0.021ZM496 351.963C496 378.426 474.467 399.955 448 399.955H298.662L294.395 403.16L176 492.034V399.955H64C37.533 399.955 16 378.426 16 351.963V64.01C16 37.547 37.533 16.017 64 16.017H448C474.467 16.017 496 37.547 496 64.01V351.963Z"/></svg>