<svg xmlns="http://www.w3.org/2000/svg" viewBox="0 0 512 512"><!-- Font Awesome Pro 6.0.0-alpha2 by @fontawesome - https://fontawesome.com License - https://fontawesome.com/license (Commercial License) --><path d="M448 96.033H336.025L268.801 6.4C265.6 2.133 260.801 0 256 0S246.4 2.133 243.199 6.4L175.975 96.033H64C28.75 96.033 0 124.781 0 160.029V448.006C0 483.252 28.75 512 64 512H448C483.25 512 512 483.252 512 448.006V160.029C512 124.781 483.25 96.033 448 96.033ZM496 448.006C496 474.471 474.467 496 448 496H64C37.533 496 16 474.471 16 448.006V160.029C16 133.564 37.533 112.033 64 112.033H183.975L255.963 16.004C255.967 16.004 255.98 16 256 16L328.025 112.033H448C474.467 112.033 496 133.564 496 160.029V448.006Z "></path></svg>