<svg xmlns="http://www.w3.org/2000/svg" viewBox="0 0 512 512"><!-- Font Awesome Pro 6.0.0-alpha2 by @fontawesome - https://fontawesome.com License - https://fontawesome.com/license (Commercial License) --><path d="M343.33 109.935C337.082 103.687 328.891 100.562 320.701 100.562S304.322 103.685 298.074 109.933L157.576 250.415C156.924 251.632 156.314 252.771 155.664 253.987L144.141 311.608C143.195 316.342 146.945 319.974 151.039 319.974C151.484 319.974 151.934 319.931 152.383 319.842L210 308.319C211.219 307.667 212.359 307.055 213.58 306.403L354.078 165.938C366.576 153.443 366.578 133.185 354.082 120.688L343.33 109.935ZM204.191 293.166L162.477 301.507L170.818 259.801L273.664 156.964L307.043 190.34L204.191 293.166ZM342.766 154.624L318.355 179.029L284.977 145.652L309.389 121.244C312.41 118.223 316.428 116.561 320.701 116.561S328.994 118.225 332.016 121.246L342.768 131.999C345.789 135.022 347.453 139.04 347.453 143.313C347.453 147.586 345.787 151.603 342.766 154.624ZM448 0H64C28.75 0 0 28.748 0 63.995V351.972C0 387.219 28.75 415.967 64 415.967H160V499.96C160 507.032 165.92 512 172.178 512C174.547 512 176.963 511.287 179.125 509.709L304 415.967H448C483.25 415.967 512 387.219 512 351.972V63.995C512 28.748 483.25 0 448 0ZM496 351.972C496 378.436 474.467 399.968 448 399.968H298.662L294.395 403.173L176 492.052V399.968H64C37.533 399.968 16 378.436 16 351.972V63.995C16 37.53 37.533 15.999 64 15.999H448C474.467 15.999 496 37.53 496 63.995V351.972Z"/></svg>