<svg xmlns="http://www.w3.org/2000/svg" viewBox="0 0 512 512"><!-- Font Awesome Pro 6.0.0-alpha2 by @fontawesome - https://fontawesome.com License - https://fontawesome.com/license (Commercial License) --><path d="M448 0H64C28.75 0 0 28.748 0 63.994V351.971C0 387.219 28.75 415.967 64 415.967H160V499.959C160 507.031 165.922 512 172.18 512C174.547 512 176.961 511.287 179.125 509.709L304 415.967H448C483.25 415.967 512 387.219 512 351.971V63.994C512 28.748 483.25 0 448 0ZM496 351.971C496 378.436 474.469 399.967 448 399.967H298.664L294.395 403.172L176 492.053V399.967H64C37.531 399.967 16 378.436 16 351.971V63.994C16 37.529 37.531 15.998 64 15.998H448C474.469 15.998 496 37.529 496 63.994V351.971ZM333.656 130.344C330.531 127.219 325.469 127.219 322.344 130.344L256 196.686L189.656 130.344C186.531 127.219 181.469 127.219 178.344 130.344S175.219 138.531 178.344 141.656L244.688 207.998L178.344 274.342C175.219 277.467 175.219 282.529 178.344 285.654C181.469 288.781 186.531 288.781 189.656 285.654L256 219.311L322.344 285.654C325.469 288.781 330.531 288.781 333.656 285.654C336.781 282.529 336.781 277.467 333.656 274.342L267.312 207.998L333.656 141.656C336.781 138.531 336.781 133.469 333.656 130.344Z"/></svg>