<svg xmlns="http://www.w3.org/2000/svg" viewBox="0 0 512 512"><!-- Font Awesome Pro 6.0.0-alpha2 by @fontawesome - https://fontawesome.com License - https://fontawesome.com/license (Commercial License) --><path d="M255.937 255.979C260.344 255.979 263.937 252.386 263.937 247.98V103.992C263.937 99.586 260.344 95.992 255.937 95.992S247.937 99.586 247.937 103.992V247.98C247.937 252.386 251.531 255.979 255.937 255.979ZM256 287.977C247.178 287.977 240 295.156 240 303.976S247.178 319.974 256 319.974S272 312.795 272 303.976S264.822 287.977 256 287.977ZM448 0H64C28.75 0 0 28.748 0 63.995V351.972C0 387.219 28.75 415.967 64 415.967H160V499.96C160 507.032 165.92 512 172.178 512C174.547 512 176.963 511.287 179.125 509.709L304 415.967H448C483.25 415.967 512 387.219 512 351.972V63.995C512 28.748 483.25 0 448 0ZM496 351.972C496 378.436 474.467 399.968 448 399.968H298.662L294.395 403.173L176 492.052V399.968H64C37.533 399.968 16 378.436 16 351.972V63.995C16 37.53 37.533 15.999 64 15.999H448C474.467 15.999 496 37.53 496 63.995V351.972Z"/></svg>