<svg xmlns="http://www.w3.org/2000/svg" viewBox="0 0 512 512"><!-- Font Awesome Pro 6.0.0-alpha2 by @fontawesome - https://fontawesome.com License - https://fontawesome.com/license (Commercial License) --><path d="M448 0H64C28.75 0 0 28.748 0 63.994V351.971C0 387.219 28.75 415.967 64 415.967H160V499.959C160 507.031 165.922 512 172.18 512C174.547 512 176.961 511.287 179.125 509.709L304 415.967H448C483.25 415.967 512 387.219 512 351.971V63.994C512 28.748 483.25 0 448 0ZM496 351.971C496 378.436 474.469 399.967 448 399.967H298.664L294.395 403.172L176 492.053V399.967H64C37.531 399.967 16 378.436 16 351.971V63.994C16 37.529 37.531 15.998 64 15.998H448C474.469 15.998 496 37.529 496 63.994V351.971ZM344 200H264V120C264 115.58 260.422 112 256 112S248 115.58 248 120V200H168C163.578 200 160 203.58 160 208C160 212.422 163.578 216 168 216H248V296C248 300.422 251.578 304 256 304S264 300.42 264 296V216H344C348.422 216 352 212.42 352 208S348.422 200 344 200Z"/></svg>