<svg xmlns="http://www.w3.org/2000/svg" viewBox="0 0 512 512"><!-- Font Awesome Pro 6.0.0-alpha2 by @fontawesome - https://fontawesome.com License - https://fontawesome.com/license (Commercial License) --><path d="M344 159.987H296V111.991C296 103.156 288.836 95.992 280 95.992H232C223.164 95.992 216 103.156 216 111.991V159.987H168C159.164 159.987 152 167.151 152 175.986V223.982C152 232.817 159.164 239.981 168 239.981H216V287.977C216 296.812 223.164 303.976 232 303.976H280C288.836 303.976 296 296.812 296 287.977V239.981H344C352.836 239.981 360 232.817 360 223.982V175.986C360 167.151 352.836 159.987 344 159.987ZM344 223.982H280V287.977H232V223.982H168V175.986H232V111.991H280V175.986H344V223.982ZM448 0H64C28.75 0 0 28.748 0 63.995V351.972C0 387.219 28.75 415.967 64 415.967H160V499.96C160 507.032 165.92 512 172.178 512C174.547 512 176.963 511.287 179.125 509.709L304 415.967H448C483.25 415.967 512 387.219 512 351.972V63.995C512 28.748 483.25 0 448 0ZM496 351.972C496 378.436 474.467 399.968 448 399.968H298.662L294.395 403.173L176 492.052V399.968H64C37.533 399.968 16 378.436 16 351.972V63.995C16 37.53 37.533 15.999 64 15.999H448C474.467 15.999 496 37.53 496 63.995V351.972Z"/></svg>