<svg xmlns="http://www.w3.org/2000/svg" viewBox="0 0 576 512"><!-- Font Awesome Pro 6.0.0-alpha2 by @fontawesome - https://fontawesome.com License - https://fontawesome.com/license (Commercial License) --><path d="M528 32H48C21.5 32 0 53.5 0 80V400C0 426.5 21.5 448 48 448H528C554.5 448 576 426.5 576 400V80C576 53.5 554.5 32 528 32ZM560 400C560 417.645 545.645 432 528 432H48C30.355 432 16 417.645 16 400V80C16 62.355 30.355 48 48 48H528C545.645 48 560 62.355 560 80V400ZM390.4 120H121.6C103.043 120 88 135.352 88 154.285V325.715C88 344.648 103.043 360 121.6 360H390.4C408.957 360 424 344.648 424 325.715V154.285C424 135.352 408.957 120 390.4 120ZM408 325.715C408 335.797 400.105 344 390.4 344H121.6C111.895 344 104 335.797 104 325.715V154.285C104 144.203 111.895 136 121.6 136H390.4C400.105 136 408 144.203 408 154.285V325.715ZM496 224C478.359 224 464 238.359 464 256S478.359 288 496 288S528 273.641 528 256S513.641 224 496 224ZM496 272C487.172 272 480 264.828 480 256S487.172 240 496 240S512 247.172 512 256S504.828 272 496 272ZM496 128C478.359 128 464 142.359 464 160S478.359 192 496 192S528 177.641 528 160S513.641 128 496 128ZM496 176C487.172 176 480 168.828 480 160S487.172 144 496 144S512 151.172 512 160S504.828 176 496 176ZM128 464H64C59.578 464 56 467.578 56 472S59.578 480 64 480H128C132.422 480 136 476.422 136 472S132.422 464 128 464ZM512 464H448C443.578 464 440 467.578 440 472S443.578 480 448 480H512C516.422 480 520 476.422 520 472S516.422 464 512 464Z"/></svg>