<svg xmlns="http://www.w3.org/2000/svg" viewBox="0 0 384 512"><!-- Font Awesome Pro 6.0.0-alpha2 by @fontawesome - https://fontawesome.com License - https://fontawesome.com/license (Commercial License) --><path d="M276.022 111.987C265.082 111.987 254.691 114.111 244.964 117.644L279.485 10.453C280.827 6.234 278.518 1.734 274.337 0.359C270.063 -0.922 265.632 1.328 264.26 5.515L224.922 127.662C210.589 137.346 199.09 150.946 192 166.936C177.681 134.64 145.471 111.987 107.978 111.987C76.411 111.987 48.546 128.019 31.974 152.356V119.988C31.974 115.581 28.386 111.987 23.987 111.987C19.588 111.987 16 115.581 16 119.988V440.279C16 444.685 19.588 448.279 23.987 448.279C28.386 448.279 31.974 444.685 31.974 440.279V204.147C31.974 162.145 66.076 127.988 107.978 127.988C149.911 127.988 184.013 162.145 184.013 204.147V254.685L104.515 501.531C103.173 505.75 105.482 510.25 109.663 511.625C110.505 511.875 111.316 512 112.128 512C115.497 512 118.648 509.844 119.74 506.468L184.013 306.9V440.279C184.013 444.685 187.601 448.279 192 448.279S199.987 444.685 199.987 440.279V257.299L238.268 138.436C249.438 131.97 262.218 127.988 276.022 127.988C317.924 127.988 352.026 162.145 352.026 204.147V440.279C352.026 444.685 355.614 448.279 360.013 448.279C364.412 448.279 368 444.685 368 440.279V204.147C368 153.332 326.753 111.987 276.022 111.987ZM199.987 204.147C199.987 187.462 205.525 172.147 214.64 159.589L199.987 205.084V204.147Z"/></svg>