<svg xmlns="http://www.w3.org/2000/svg" viewBox="0 0 576 512"><!-- Font Awesome Pro 6.0.0-alpha2 by @fontawesome - https://fontawesome.com License - https://fontawesome.com/license (Commercial License) --><path d="M534.152 233.543C506.119 205.516 413.551 195.59 380.146 192.867L279.965 92.688V8.352C279.965 4.184 276.927 0.453 272.777 0.039C268.01 -0.434 263.965 3.309 263.965 8V92.688L163.783 192.867C130.379 195.59 37.81 205.516 9.779 233.543C-24.639 267.969 -24.639 323.77 9.779 358.188C26.988 375.398 49.543 384 72.099 384C94.654 384 117.209 375.398 134.418 358.188C141.549 351.055 147.478 339.703 152.431 326.23C153.935 322.141 151.867 317.672 147.82 316.055C147.769 316.031 147.72 316.016 147.67 315.992C143.562 314.336 138.918 316.555 137.408 320.719C133.219 332.273 128.465 341.516 123.105 346.875C109.48 360.496 91.367 368 72.099 368S34.717 360.496 21.092 346.875C-7.031 318.75 -7.03 272.984 21.092 244.859C39.996 225.957 106.043 214.223 155.041 209.656C170.652 207.656 170.316 207.961 175.095 204.18L263.965 115.312V264C263.965 264.32 264.269 264.512 264.306 264.82C241.691 291.316 175.965 372.082 175.965 416C175.965 469.02 218.945 512 271.965 512S367.965 469.02 367.965 416C367.965 372.082 302.238 291.316 279.623 264.82C279.66 264.512 279.965 264.32 279.965 264V115.312L368.834 204.18C371.554 237.586 381.48 330.156 409.511 358.187C426.72 375.398 449.277 384 471.832 384S516.943 375.398 534.152 358.188C568.57 323.77 568.57 267.969 534.152 233.543ZM351.965 416C351.965 460.113 316.078 496 271.965 496C227.853 496 191.965 460.113 191.965 416C191.965 385.496 237.023 321.859 271.965 280.402C306.908 321.859 351.965 385.496 351.965 416ZM522.838 346.875C509.215 360.496 491.099 368 471.832 368S434.449 360.496 420.826 346.875C401.465 327.512 389.566 258.574 385.246 209.281C434.539 213.602 503.478 225.5 522.838 244.855C550.961 272.984 550.961 318.75 522.838 346.875ZM359.965 112C382.056 112 399.965 94.09 399.965 72S382.056 32 359.965 32S319.965 49.91 319.965 72S337.873 112 359.965 112ZM359.965 48C373.199 48 383.965 58.766 383.965 72S373.199 96 359.965 96C346.732 96 335.965 85.234 335.965 72S346.732 48 359.965 48ZM207.965 264C207.965 241.91 190.056 224 167.965 224S127.965 241.91 127.965 264S145.873 304 167.965 304S207.965 286.09 207.965 264ZM167.965 288C154.732 288 143.965 277.234 143.965 264S154.732 240 167.965 240C181.199 240 191.965 250.766 191.965 264S181.199 288 167.965 288Z"/></svg>