<svg xmlns="http://www.w3.org/2000/svg" viewBox="0 0 640 512"><!-- Font Awesome Pro 6.0.0-alpha2 by @fontawesome - https://fontawesome.com License - https://fontawesome.com/license (Commercial License) --><path d="M580.77 140.623L580.697 140.697C577.449 143.965 577.645 149.275 581.113 152.305C587.748 158.102 592 166.506 592 176V464C592 481.674 577.674 496 560 496H80C62.326 496 48 481.674 48 464V176C48 158.326 62.326 144 80 144H346.576C348.689 144 350.717 143.164 352.215 141.674C357.279 136.643 353.715 128 346.576 128H80C53.6 128 32 149.6 32 176V464C32 490.4 53.6 512 80 512H560C586.4 512 608 490.4 608 464V176C608 161.758 601.674 148.973 591.727 140.182C588.572 137.395 583.736 137.639 580.77 140.623ZM320 217.656V280C320 284.422 323.594 288 328 288H390.344C396.688 288 402.875 285.422 407.375 280.922L598.156 89.031C604.531 82.656 608.031 74.203 608 65.219C607.969 56.328 604.469 47.969 598.156 41.719L566.312 9.875C553.75 -2.844 531.625 -2.828 519 9.828L327.094 200.625C322.594 205.094 320 211.297 320 217.656ZM336 217.656C336 215.531 336.844 213.469 338.375 211.984L530.281 21.156C536.875 14.562 548.313 14.438 554.969 21.156L586.844 53.031C586.844 53.047 586.875 53.063 586.875 53.063C590.156 56.312 592 60.656 592 65.266C592 69.953 590.188 74.375 586.812 77.734L396.031 269.641C394.531 271.141 392.469 272 390.344 272H336V217.656ZM104 384H536C540.406 384 544 380.422 544 376S540.406 368 536 368H104C99.594 368 96 371.578 96 376S99.594 384 104 384ZM104 288H280C284.406 288 288 284.422 288 280S284.406 272 280 272H104C99.594 272 96 275.578 96 280S99.594 288 104 288ZM536 272H456C451.594 272 448 275.578 448 280S451.594 288 456 288H536C540.406 288 544 284.422 544 280S540.406 272 536 272Z"/></svg>