<svg xmlns="http://www.w3.org/2000/svg" viewBox="0 0 640 512"><!-- Font Awesome Pro 6.0.0-alpha2 by @fontawesome - https://fontawesome.com License - https://fontawesome.com/license (Commercial License) --><path d="M551.594 261.34C550.25 257.156 545.875 254.844 541.5 256.219C537.312 257.592 535.031 262.105 536.406 266.305L587.438 422.326C590.469 431.07 592 440.408 592 450.072V471.684C592 484.908 581.219 495.668 568 495.668S544 484.908 544 471.684L543.906 448.809L542 437.52L503.625 317.35C502.281 313.148 497.813 310.854 493.563 312.166C489.344 313.508 487.031 318.006 488.375 322.221L494.291 340.705L349.502 439.705H320C315.594 439.705 312 443.281 312 447.699C312 452.119 315.594 455.693 320 455.693H395.688C416.375 455.693 432 470.121 432 489.25C432 493.045 429.031 496.01 425.219 496.01H264C233.125 496.01 208 470.902 208 440.049V415.455C208 327.904 282.75 244.961 355.031 215.34C359.125 213.654 361.063 208.984 359.406 204.91C357.719 200.834 353.125 198.789 348.969 200.537C271.812 232.156 192 321.191 192 415.455V440.049C192 454.99 196.596 468.871 204.428 480.385C177.793 463.316 160 433.633 160 399.732V175.883C160 131.803 124.125 95.936 80 95.936S0 131.803 0 175.883V247.834C0 252.252 3.594 255.828 8 255.828S16 252.252 16 247.834V175.883C16 140.609 44.719 111.926 80 111.926S144 140.609 144 175.883V399.732C144 461.439 194.25 512 256 512C256.352 512 425.219 512 425.219 512C437.781 512 448 501.789 448 489.25C448 461.004 425.5 439.705 395.688 439.705H377.883L499.389 356.625L526.469 441.219L528 450.072V471.684C528 493.73 545.938 511.656 568 511.656S608 493.73 608 471.684V450.072C608 438.611 606.156 427.525 602.594 417.236L551.594 261.34ZM581.5 55.963C574.455 55.963 567.576 57.516 560.889 59.99C546.641 24.844 512.279 0 472 0S397.359 24.844 383.111 59.99C376.424 57.516 369.545 55.963 362.5 55.963C330.25 55.963 304 81.07 304 111.926C304 142.779 330.25 167.887 362.5 167.887C367.096 167.887 371.82 166.635 376.561 165.455C379.5 215.797 420.887 255.828 472 255.828S564.5 215.797 567.439 165.455C572.18 166.635 576.904 167.887 581.5 167.887C613.75 167.887 640 142.779 640 111.926C640 81.07 613.75 55.963 581.5 55.963ZM376 95.936V149.521C371.283 151.025 366.842 151.898 362.5 151.898C339.062 151.898 320 133.973 320 111.926C320 89.877 339.062 71.951 362.5 71.951C367.887 71.951 373.201 73.162 378.391 75.188C376.908 81.887 376 88.791 376 95.936ZM552 159.893C552 203.975 516.111 239.84 472 239.84S392 203.975 392 159.893V95.936C392 51.854 427.889 15.99 472 15.99S552 51.854 552 95.936V159.893ZM568 149.553V95.936C568 88.791 567.092 81.887 565.609 75.187C570.799 73.162 576.113 71.951 581.5 71.951C604.938 71.951 624 89.877 624 111.926C624 138.039 598.279 159.164 568 149.553ZM440 95.936C431.125 95.936 424 103.057 424 111.926C424 120.793 431.125 127.914 440 127.914S456 120.793 456 111.926C456 103.057 448.875 95.936 440 95.936ZM504 95.936C495.125 95.936 488 103.057 488 111.926C488 120.793 495.125 127.914 504 127.914S520 120.793 520 111.926C520 103.057 512.875 95.936 504 95.936Z"/></svg>