<svg xmlns="http://www.w3.org/2000/svg" viewBox="0 0 640 512"><!-- Font Awesome Pro 6.0.0-alpha2 by @fontawesome - https://fontawesome.com License - https://fontawesome.com/license (Commercial License) --><path d="M544 32H120.043C106.793 32 96.043 42.75 96.043 56V288C96.043 341 139.043 384 192.043 384H384.043C436.898 384 479.762 341.223 480 288.426V224H544C597.02 224 640 181.02 640 128S597.02 32 544 32ZM464 288.354C463.801 332.27 427.934 368 384.043 368H192.043C147.93 368 112.043 332.111 112.043 288V56C112.043 51.588 115.633 48 120.043 48H464V288.354ZM544 208H480V48H544C588.113 48 624 83.889 624 128S588.113 208 544 208ZM568 416C563.594 416 560 419.578 560 424C560 446.062 542.062 464 520 464H56C33.938 464 16 446.062 16 424C16 419.578 12.406 416 8 416S0 419.578 0 424C0 454.875 25.125 480 56 480H520C550.875 480 576 454.875 576 424C576 419.578 572.406 416 568 416Z"/></svg>