<svg xmlns="http://www.w3.org/2000/svg" viewBox="0 0 512 512"><!-- Font Awesome Pro 6.0.0-alpha2 by @fontawesome - https://fontawesome.com License - https://fontawesome.com/license (Commercial License) --><path d="M72 16H328C350.062 16 368 33.938 368 56C368 60.422 371.594 64 376 64S384 60.422 384 56C384 25.125 358.875 0 328 0H72C32.312 0 0 32.297 0 72V328C0 358.875 25.125 384 56 384C60.406 384 64 380.422 64 376S60.406 368 56 368C33.938 368 16 350.062 16 328V72C16 41.125 41.125 16 72 16ZM416 96H160C124.654 96 96 124.654 96 160V416C96 451.346 124.654 480 160 480H338.746C347.232 480 355.371 476.629 361.373 470.627L470.627 361.373C476.629 355.371 480 347.232 480 338.746V160C480 124.654 451.346 96 416 96ZM352 457.371V376C352 362.766 362.781 352 376 352H457.371L352 457.371ZM464 336H376C353.938 336 336 353.938 336 376V464H160C133.533 464 112 442.467 112 416V160C112 133.533 133.533 112 160 112H416C442.467 112 464 133.533 464 160V336Z"/></svg>