<svg xmlns="http://www.w3.org/2000/svg" viewBox="0 0 448 512"><!-- Font Awesome Pro 6.0.0-alpha2 by @fontawesome - https://fontawesome.com License - https://fontawesome.com/license (Commercial License) --><path d="M384 32H64C28.654 32 0 60.654 0 96V416C0 451.346 28.654 480 64 480H290.746C299.232 480 307.371 476.629 313.373 470.627L438.627 345.373C444.629 339.371 448 331.232 448 322.746V96C448 60.654 419.348 32 384 32ZM304 457.373V360C304 346.766 314.781 336 328 336H425.373L304 457.373ZM432 320H328C305.938 320 288 337.938 288 360V464H64C37.533 464 16 442.467 16 416V96C16 69.533 37.533 48 64 48H384C410.467 48 432 69.533 432 96V320Z"/></svg>