<svg xmlns="http://www.w3.org/2000/svg" viewBox="0 0 640 512"><!-- Font Awesome Pro 6.0.0-alpha2 by @fontawesome - https://fontawesome.com License - https://fontawesome.com/license (Commercial License) --><path d="M598.842 299.396C597.301 296.77 594.65 295.457 592 295.457C589.352 295.457 586.701 296.77 585.16 299.396C571.902 321.988 544 372.203 544 394.719C544 424.094 565.396 448 592 448C618.605 448 640 424.094 640 394.719C640 372.203 612.1 321.988 598.842 299.396ZM592 432C574.355 432 560 415.275 560 394.719C560 383.352 572.34 354.57 592.002 319.602C611.662 354.566 624 383.35 624 394.719C624 415.275 609.645 432 592 432ZM637.875 168.031C634.969 162.975 629.619 160.016 623.943 160.016C622.812 160.016 621.67 160.133 620.531 160.375L450.828 197.984L400.859 167.547C392.781 162.609 383.25 160 373.328 160H264V80H352C356.422 80 360 76.422 360 72S356.422 64 352 64H160C155.578 64 152 67.578 152 72S155.578 80 160 80H248V160H48C21.531 160 0 181.531 0 208V272.297C0 291.359 11.281 308.625 28.75 316.281L96 345.699V374.001C96 397.156 117.531 416 144 416H400.766C414.656 416 427.844 410.797 437.359 401.25L635.75 186.859C640.5 181.734 641.359 174.109 637.875 168.031ZM96 328.236L35.174 301.627C23.525 296.521 16 285.01 16 272.297V208C16 190.355 30.355 176 48 176H96V328.236ZM426.027 389.955C419.57 396.434 410.6 400 400.766 400H144C126.355 400 112 388.336 112 374.001V176H373.328C380.316 176 386.951 177.799 392.537 181.211L448.004 214.998L624.008 175.992L426.027 389.955Z"/></svg>