<svg xmlns="http://www.w3.org/2000/svg" viewBox="0 0 512 512"><!-- Font Awesome Pro 6.0.0-alpha2 by @fontawesome - https://fontawesome.com License - https://fontawesome.com/license (Commercial License) --><path d="M448 64H64C28.625 64 0 92.625 0 128V384C0 419.375 28.625 448 64 448H448C483.375 448 512 419.375 512 384V128C512 92.625 483.375 64 448 64ZM496 384C496 410.467 474.467 432 448 432H64C37.533 432 16 410.467 16 384V128C16 101.533 37.533 80 64 80H448C474.467 80 496 101.533 496 128V384ZM416 128H96C78.375 128 64 142.375 64 160V224C64 241.625 78.375 256 96 256H416C433.625 256 448 241.625 448 224V160C448 142.375 433.625 128 416 128ZM432 224C432 232.822 424.822 240 416 240H96C87.178 240 80 232.822 80 224V160C80 151.178 87.178 144 96 144H416C424.822 144 432 151.178 432 160V224ZM152 320H72C67.594 320 64 323.578 64 328S67.594 336 72 336H152C156.406 336 160 332.422 160 328S156.406 320 152 320ZM280 320H200C195.594 320 192 323.578 192 328S195.594 336 200 336H280C284.406 336 288 332.422 288 328S284.406 320 280 320Z"/></svg>