<svg xmlns="http://www.w3.org/2000/svg" viewBox="0 0 512 512"><!-- Font Awesome Pro 6.0.0-alpha2 by @fontawesome - https://fontawesome.com License - https://fontawesome.com/license (Commercial License) --><path d="M416 112V48C416 21.49 394.508 0 368 0H48C21.492 0 0 21.49 0 48V112C0 138.51 21.492 160 48 160H368C394.508 160 416 138.51 416 112ZM16 112V48C16 30.355 30.355 16 48 16H368C385.645 16 400 30.355 400 48V112C400 129.645 385.645 144 368 144H48C30.355 144 16 129.645 16 112ZM456 64C451.594 64 448 67.594 448 72S451.594 80 456 80C478.062 80 496 97.938 496 120V200C496 222.062 478.062 240 456 240H256C233.938 240 216 257.938 216 280V320H192C174.328 320 160 334.326 160 352V480C160 497.674 174.328 512 192 512H256C273.672 512 288 497.674 288 480V352C288 334.326 273.672 320 256 320H232V280C232 266.781 242.781 256 256 256H456C486.875 256 512 230.875 512 200V120C512 89.125 486.875 64 456 64ZM256 336C264.824 336 272 343.178 272 352V480C272 488.822 264.824 496 256 496H192C183.176 496 176 488.822 176 480V352C176 343.178 183.176 336 192 336H256Z"/></svg>