<svg xmlns="http://www.w3.org/2000/svg" viewBox="0 0 512 512"><!-- Font Awesome Pro 6.0.0-alpha2 by @fontawesome - https://fontawesome.com License - https://fontawesome.com/license (Commercial License) --><path d="M498.123 5.629C492.68 1.891 486.352 0 480.002 0C474.541 0 469.065 1.398 464.123 4.223L16.123 260.221C5.53 266.268 -0.689 277.814 0.061 289.986S8.436 312.846 19.686 317.533L122.911 360.543L184.623 507.109L184.899 506.992C185.692 508.873 186.916 510.533 188.858 511.359C189.873 511.797 190.936 512 191.998 512C194.03 512 196.014 511.234 197.545 509.766L283.297 427.369L403.686 477.531C407.655 479.188 411.811 480 415.998 480C421.405 480 426.811 478.625 431.655 475.906C440.248 471.078 446.123 462.594 447.623 452.859L511.623 36.863C513.498 24.723 508.248 12.582 498.123 5.629ZM16.032 289.002C15.653 282.861 18.727 277.158 24.063 274.113L472.065 18.113C472.899 17.637 473.903 17.703 474.801 17.385L124.84 344.014L25.84 302.764C20.252 300.436 16.403 295.035 16.032 289.002ZM411.508 98.33L185.764 378.984C184.623 380.406 183.998 382.172 183.998 384V464.375L137.545 354.047L411.508 98.33ZM199.998 485.219V392.664L267.188 420.658L199.998 485.219ZM431.811 450.422C431.055 455.324 428.143 459.527 423.823 461.953C421.438 463.293 418.733 464 415.998 464C413.881 464 411.811 463.584 409.84 462.762L206.918 378.211L492.567 23.086C494.924 26.424 496.452 30.279 495.811 34.43L431.811 450.422Z"/></svg>