<svg xmlns="http://www.w3.org/2000/svg" viewBox="0 0 512 512"><!-- Font Awesome Pro 6.0.0-alpha2 by @fontawesome - https://fontawesome.com License - https://fontawesome.com/license (Commercial License) --><path d="M502.629 246.627L409.371 153.373C403.371 147.371 395.23 144 386.746 144H256C229.49 144 208 165.49 208 192V464C208 490.51 229.492 512 256 512H464C490.508 512 512 490.51 512 464V269.254C512 260.768 508.629 252.629 502.629 246.627ZM400 166.629L489.375 256H424C410.781 256 400 245.234 400 232V166.629ZM496 464C496 481.645 481.645 496 464 496H256C238.355 496 224 481.645 224 464V192C224 174.355 238.355 160 256 160H384V232C384 254.062 401.938 272 424 272H496V464ZM16 400V112C16 94.327 30.327 80 48 80H64V88C64 101.255 74.745 112 88 112H232C245.255 112 256 101.255 256 88V80H272C287.399 80 300.257 90.876 303.311 105.365C304.113 109.169 307.273 112 311.16 112H311.188C316.087 112 320.052 107.595 319.117 102.786C314.82 80.684 295.358 64 272 64H256V56C256 42.745 245.255 32 232 32H205.062C198.451 13.4 180.869 0 160 0S121.549 13.4 114.938 32H88C74.745 32 64 42.745 64 56V64H48C21.49 64 0 85.49 0 112V400C0 426.51 21.49 448 48 448H168C172.418 448 176 444.418 176 440L176 440C176 435.582 172.418 432 168 432H48C30.327 432 16 417.673 16 400ZM80 56C80 51.588 83.59 48 88 48H114.938H126.232L130.014 37.357C134.555 24.582 146.605 16 160 16S185.445 24.582 189.986 37.357L193.77 48H205.063H232C236.412 48 240 51.588 240 56V88C240 92.41 236.412 96 232 96H88C83.59 96 80 92.41 80 88V56Z"/></svg>