<svg xmlns="http://www.w3.org/2000/svg" viewBox="0 0 512 512"><!-- Font Awesome Pro 6.0.0-alpha2 by @fontawesome - https://fontawesome.com License - https://fontawesome.com/license (Commercial License) --><path d="M256 16C123.451 16 16 123.451 16 256S123.451 496 256 496S496 388.549 496 256S388.549 16 256 16ZM480 256C480 307.605 462.285 355.053 432.852 392.969L264 252.26V32.404C383.791 36.664 480 135.188 480 256ZM248 32.404V252.26L79.148 392.969C49.715 355.053 32 307.605 32 256C32 135.188 128.209 36.664 248 32.404ZM89.422 405.23L248 273.074V479.596C185.074 477.357 128.787 449.127 89.422 405.23ZM264 479.596V273.074L422.578 405.23C383.213 449.127 326.926 477.357 264 479.596Z"/></svg>