<svg xmlns="http://www.w3.org/2000/svg" viewBox="0 0 640 512"><!-- Font Awesome Pro 6.0.0-alpha2 by @fontawesome - https://fontawesome.com License - https://fontawesome.com/license (Commercial License) --><path d="M567.984 279.025C563.577 279.025 559.984 282.604 559.984 287.025V439.998C559.984 470.873 534.861 496 503.986 496H71.998C41.123 496 16 470.873 16 439.998V200.002C16 169.125 41.123 144 71.998 144H287.999C292.405 144 295.999 140.422 295.999 136S292.405 128 287.999 128H71.998C32.31 128 0 160.297 0 200.002V439.998C0 479.701 32.31 512 71.998 512H503.986C543.673 512 575.983 479.701 575.983 439.998V287.025C575.983 282.604 572.39 279.025 567.984 279.025ZM640 67.405C640 55.123 635.315 42.841 625.944 33.471L606.534 14.061C597.161 4.686 584.876 0 572.593 0C560.308 0 548.023 4.686 538.65 14.061L313.676 239.043C309.209 243.512 306.182 249.117 304.942 255.312C300.213 278.959 288.215 338.945 288.215 338.945C288.068 339.682 287.998 340.409 287.998 341.122C287.998 347.085 292.911 352 298.873 352C299.586 352 300.315 351.928 301.053 351.781L384.598 335.07C390.791 333.832 396.48 330.787 400.947 326.32L598.411 128.863L625.936 101.35C635.312 91.977 640 79.691 640 67.405ZM389.633 315.006C387.393 317.248 384.566 318.76 381.459 319.381L305.383 334.689L320.631 258.455C321.243 255.398 322.75 252.598 324.991 250.357L498.013 77.328L562.665 141.98L389.633 315.006ZM614.626 90.033L587.097 117.549L573.978 130.668L509.324 66.014L549.964 25.373C556.007 19.328 564.044 16 572.593 16C581.14 16 589.177 19.328 595.22 25.373L614.63 44.783C627.131 57.284 627.138 77.521 614.626 90.033ZM111.999 320C111.999 328.836 119.163 336 127.999 336S143.999 328.836 143.999 320C143.999 311.162 136.835 304 127.999 304S111.999 311.162 111.999 320ZM207.999 320C207.999 328.836 215.163 336 223.999 336C232.835 336 239.999 328.836 239.999 320C239.999 311.162 232.835 304 223.999 304C215.163 304 207.999 311.162 207.999 320Z "></path></svg>