<svg xmlns="http://www.w3.org/2000/svg" viewBox="0 0 512 512"><!-- Font Awesome Pro 6.0.0-alpha2 by @fontawesome - https://fontawesome.com License - https://fontawesome.com/license (Commercial License) --><path d="M496.031 73.725L437.797 15.427C417.203 -5.189 381.063 -5.048 360.75 15.286L283.797 88.507L138.048 134.369C115.798 140.72 98.11 157.629 90.626 179.997L0.298 501.817C-0.483 504.617 0.298 507.605 2.345 509.654C3.86 511.171 5.907 512 8.001 512C8.72 512 9.454 511.906 10.173 511.703L332.016 421.151C354.032 413.768 370.938 396.014 377.172 373.912L423.031 227.893L496.031 150.997C506.328 140.689 512 126.971 512 112.361S506.328 84.033 496.031 73.725ZM361.844 369.329C356.985 386.566 343.922 400.269 327.297 405.853L35.296 487.991L174.62 348.515C183.969 355.527 195.448 359.834 208.001 359.834C238.876 359.834 264 334.682 264 303.773S238.875 247.712 208.001 247.712S152.001 272.864 152.001 303.773C152.001 316.339 156.303 327.83 163.307 337.19L23.983 476.667L105.907 184.721C111.61 167.702 125.298 154.626 142.516 149.761C142.594 149.73 142.673 149.714 142.751 149.683L285.735 104.696L406.86 225.954L361.844 369.329ZM168.001 303.773C168.001 281.686 185.938 263.729 208.001 263.729C230.063 263.729 248 281.686 248 303.773C248 325.859 230.063 343.816 208.001 343.816C185.938 343.816 168.001 325.859 168.001 303.773ZM484.578 139.813L415.813 212.251L299.422 95.733L371.922 26.752C386.485 12.173 411.969 12.173 426.485 26.752L484.719 85.05C492 92.323 496 102.021 496 112.361C496 122.685 492 132.383 484.578 139.813Z"/></svg>