<svg xmlns="http://www.w3.org/2000/svg" viewBox="0 0 640 512"><!-- Font Awesome Pro 6.0.0-alpha2 by @fontawesome - https://fontawesome.com License - https://fontawesome.com/license (Commercial License) --><path d="M445.245 38.965C458.7 23.727 474.236 16 491.419 16C518.505 16 545.665 35.816 555.999 63.119C561.351 77.258 565.988 104.812 536.663 130.73L416.888 241.029L429.564 251.105L547.501 142.5C612.189 85.34 555.177 0 491.419 0C471.521 0 450.972 8.307 433.251 28.375L313.39 158.762L325.947 168.742L445.245 38.965ZM304.525 347.836L283.238 411.695C278.347 426.369 266.601 437.844 251.818 442.393L94.911 492.4L170.474 416.84C176.779 420.988 183.89 424 192.001 424C214.093 424 232.001 406.092 232.001 384S214.093 344 192.001 344S152.001 361.908 152.001 384C152.001 392.111 155.013 399.223 159.161 405.527L83.599 481.088L133.609 324.184C138.158 309.4 149.634 297.654 164.306 292.764L225.06 272.514L210.109 260.631L159.247 277.584C139.64 284.119 124.394 299.723 118.316 319.479L64.831 487.684C62.784 494.336 64.581 501.574 69.503 506.496H69.505C74.425 511.418 81.665 513.215 88.318 511.168L256.523 457.686C276.279 451.607 291.882 436.361 298.417 416.754L320.001 352L304.525 347.836ZM192.001 360C205.236 360 216.001 370.766 216.001 384S205.236 408 192.001 408C178.769 408 168.001 397.234 168.001 384S178.769 360 192.001 360ZM636.98 497.734L12.988 1.73C11.525 0.566 9.771 0 8.025 0C5.673 0 3.335 1.029 1.738 3.012C-1.012 6.48 -0.434 11.512 3.019 14.262L627.011 510.266C628.495 511.438 630.245 512 631.995 512C634.339 512 636.683 510.969 638.261 508.984C641.011 505.516 640.433 500.484 636.98 497.734Z"/></svg>