<svg xmlns="http://www.w3.org/2000/svg" viewBox="0 0 512 512"><!-- Font Awesome Pro 6.0.0-alpha2 by @fontawesome - https://fontawesome.com License - https://fontawesome.com/license (Commercial License) --><path d="M361.365 138.545C354.34 131.518 345.123 128 335.908 128C326.697 128 317.488 131.512 310.459 138.543L149.676 299.342C145.377 303.641 142.41 309.029 141.08 314.963C136.869 333.742 128.166 374.586 128.166 374.586C127.082 380.014 131.406 383.996 135.943 383.996C136.441 383.996 136.941 383.949 137.437 383.85C137.437 383.85 178.277 375.143 197.053 370.93C202.986 369.6 208.373 366.633 212.672 362.334L373.455 201.553C387.514 187.496 387.516 164.703 373.459 150.643L361.365 138.545ZM201.359 351.02C199.211 353.168 196.512 354.654 193.551 355.316C181.387 358.047 159.939 362.666 146.459 365.559C149.359 352.016 153.969 330.609 156.693 318.461C157.357 315.502 158.842 312.803 160.99 310.654L286.16 185.473L326.533 225.846L201.359 351.02ZM362.141 190.238L337.846 214.533L297.473 174.16L321.775 149.855C325.549 146.078 330.568 144 335.908 144C341.252 144 346.273 146.08 350.051 149.857L362.145 161.955C369.941 169.754 369.939 182.441 362.141 190.238ZM256 16C123.451 16 16 123.451 16 256S123.451 496 256 496S496 388.549 496 256S388.549 16 256 16ZM256 480C132.486 480 32 379.514 32 256S132.486 32 256 32S480 132.486 480 256S379.514 480 256 480Z"/></svg>