<svg xmlns="http://www.w3.org/2000/svg" viewBox="0 0 640 512"><!-- Font Awesome Pro 6.0.0-alpha2 by @fontawesome - https://fontawesome.com License - https://fontawesome.com/license (Commercial License) --><path d="M303.031 60.281C312.374 50.938 327.624 50.938 336.968 60.281L362.306 85.619L299.909 148.045L312.515 158.066L373.62 96.934L479.066 202.379L429.984 251.439L442.591 261.461L561.939 142.166C580.687 123.42 580.687 92.924 561.939 74.176L501.824 14.061C492.45 4.686 480.14 0 467.829 0S443.208 4.686 433.833 14.061L373.617 74.305L348.281 48.969C332.687 33.375 307.312 33.375 291.718 48.969L240.146 100.541L252.751 110.561L303.031 60.281ZM445.148 25.375C451.193 19.328 459.247 16 467.829 16C476.409 16 484.464 19.328 490.511 25.375L550.626 85.49C556.671 91.535 560.001 99.59 560.001 108.172C560.001 116.752 556.671 124.807 550.628 130.85L490.382 191.07L384.931 85.619L445.148 25.375ZM274.667 406.686C224.788 456.564 158.812 488.268 88.034 496C84.95 496 82.972 494.312 82.068 493.305C81.171 492.309 79.718 490.172 80.048 487.061L80.122 486.156C88.085 416.518 119.742 350.904 169.316 301.33L210.046 260.58L197.441 250.561L157.999 290.02C105.507 342.512 72.388 411.377 64.138 485.115V485.365C62.607 499.738 73.956 512 88.034 512C88.892 512 89.759 511.955 90.634 511.861C164.499 503.738 233.363 470.617 285.98 418L340.07 363.934L327.464 353.914L274.667 406.686ZM636.98 497.734L12.988 1.73C11.525 0.566 9.771 0 8.025 0C5.673 0 3.335 1.029 1.738 3.012C-1.012 6.48 -0.434 11.512 3.019 14.262L627.011 510.266C628.495 511.438 630.245 512 631.995 512C634.339 512 636.683 510.969 638.261 508.984C641.011 505.516 640.433 500.484 636.98 497.734Z"/></svg>