<svg xmlns="http://www.w3.org/2000/svg" viewBox="0 0 512 512"><!-- Font Awesome Pro 6.0.0-alpha2 by @fontawesome - https://fontawesome.com License - https://fontawesome.com/license (Commercial License) --><path d="M497.938 74.159L437.847 14.063C428.473 4.688 416.176 0 403.88 0S379.287 4.688 369.913 14.063L31.038 352.955C28.804 355.189 27.28 358.033 26.663 361.131L0.321 492.853C-1.707 502.966 6.16 512 15.949 512C16.996 512 18.066 511.896 19.148 511.68L150.857 485.335C153.954 484.716 156.798 483.194 159.032 480.962L497.938 142.084C516.687 123.317 516.687 92.91 497.938 74.159ZM147.72 469.645L16.007 495.992L42.35 364.27L309.646 96.957L415.036 202.353L147.72 469.645ZM486.626 130.769L426.348 191.042L320.962 85.646L381.225 25.376C387.271 19.331 395.318 16.001 403.88 16.001S420.489 19.331 426.535 25.376L486.626 85.472C499.106 97.957 499.106 118.278 486.626 130.769Z"/></svg>