<svg xmlns="http://www.w3.org/2000/svg" viewBox="0 0 640 512"><!-- Font Awesome Pro 6.0.0-alpha2 by @fontawesome - https://fontawesome.com License - https://fontawesome.com/license (Commercial License) --><path d="M384 128H256C238.326 128 224 142.326 224 160V288C224 305.674 238.326 320 256 320H384C401.674 320 416 305.674 416 288V160C416 142.326 401.674 128 384 128ZM400 288C400 296.822 392.822 304 384 304H256C247.178 304 240 296.822 240 288V160C240 151.178 247.178 144 256 144H384C392.822 144 400 151.178 400 160V288ZM512.006 104C540.715 104 564.006 80.709 564.006 52S540.715 0 512.006 0C483.295 0 460.006 23.291 460.006 52S483.295 104 512.006 104ZM512.006 16C531.856 16 548.006 32.15 548.006 52S531.856 88 512.006 88C492.154 88 476.006 71.85 476.006 52S492.154 16 512.006 16ZM603.508 258.25L585.006 178.125C580.381 158.125 566.381 141.25 547.506 133.25C520.584 121.609 498.533 132.322 491.379 136.5C468.756 149.875 451.754 171 443.254 195.875L434.527 222.152C433.135 226.342 435.402 230.869 439.592 232.264H439.594C443.787 233.66 448.32 231.391 449.713 227.195L458.397 201.049C465.703 179.664 480.309 161.631 499.447 150.316C520.815 137.842 540.691 147.734 541.26 147.98C555.391 153.969 565.916 166.586 569.416 181.725L587.918 261.855C591.393 276.871 587.352 292.791 577.156 304.387L509.906 380.262C507.709 382.74 506.336 385.838 505.977 389.131L495.844 481.799C494.979 489.895 488.17 496 480.006 496L478.211 495.842C473.981 495.389 470.184 493.309 467.522 489.986C464.871 486.678 463.674 482.527 464.164 478.215L474.15 385.584C475.266 375.92 479.34 366.822 485.861 359.355L529.236 310.355C532.734 306.404 534.059 300.98 532.777 295.861L516.027 228.986C514.471 222.766 510.443 217.277 504.645 214.541C501.752 213.178 500.051 213.354 497.893 213.42C492.025 213.602 486.834 217.25 484.959 222.811L477.502 244.918C474.451 254.545 468.359 262.557 459.658 268.883L435.709 284.145C433.402 285.613 432.008 288.156 432.008 290.891C432.008 297.205 438.981 301.029 444.307 297.637L468.256 282.375C480.879 273.25 488.754 262.375 492.754 249.75L499.629 229.375L517.256 299.75L473.881 348.75C465.256 358.625 459.756 370.75 458.256 383.75L448.254 476.5C446.254 494.125 459.006 509.875 476.506 511.75C477.756 511.875 478.756 512 480.006 512C496.129 512 510.006 499.875 511.756 483.5L521.881 390.875L589.133 315C602.758 299.5 608.133 278.25 603.508 258.25ZM637.565 464.531L591.438 349.031C589.797 344.922 585.092 342.922 581.045 344.578C576.951 346.203 574.951 350.859 576.592 354.969L622.703 470.453C626.484 479.969 621.797 490.844 612.375 494.672C602.734 498.375 591.844 493.687 588.172 484.531L559.545 405.281C558.029 401.125 553.404 399.016 549.295 400.469C545.139 401.984 542.981 406.562 544.482 410.719L573.217 490.234C578.639 503.688 591.75 511.922 605.594 511.922C609.813 511.922 614.109 511.156 618.266 509.547C635.924 502.391 644.58 482.203 637.565 464.531ZM181.123 269.408C171.686 262.586 165.592 254.562 162.412 244.635L154.309 220.623C152.783 216.1 148.416 213.305 143.645 213.43C134.281 213.631 126.211 220.07 123.936 229.156L107.229 295.861C105.945 300.98 107.272 306.404 110.77 310.355L154.074 359.275C160.666 366.822 164.74 375.92 165.842 385.465L175.852 478.303C176.336 482.564 175.145 486.727 172.496 490.027C169.854 493.324 166.059 495.387 161.91 495.83C161.895 495.83 160.016 495.998 160 496C151.842 496 145.031 489.889 144.156 481.762L134.031 389.137C133.672 385.842 132.297 382.742 130.1 380.262L62.893 304.438C52.656 292.791 48.619 276.871 52.098 261.826L70.463 181.73C73.967 166.586 84.49 153.969 98.727 147.936C99.295 147.689 118.998 137.891 140.391 150.293C159.736 161.666 174.318 179.66 181.44 200.918L190.17 227.201C191.563 231.395 196.092 233.664 200.285 232.271S206.748 226.352 205.356 222.158L196.627 195.875C188.25 170.875 171.25 149.875 148.502 136.5C141.262 132.305 119.252 121.625 92.375 133.25C73.5 141.25 59.5 158.125 54.875 178.125L36.5 258.25C31.875 278.25 37.25 299.5 50.875 315L118.125 390.875L128.25 483.5C130 499.75 143.75 512 160 512C161.25 512 162.25 511.875 163.5 511.75C181.125 509.875 193.752 494.125 191.752 476.5L181.75 383.75C180.25 370.75 174.75 358.625 166.125 348.75L122.75 299.75L140.375 229.375L147.252 249.75C151.252 262.25 159.125 273.25 171.75 282.375L195.709 297.643C201.031 301.033 207.998 297.211 207.998 290.902C207.998 288.17 206.602 285.627 204.297 284.16L181.123 269.408ZM90.711 400.469C86.57 399.031 81.977 401.141 80.461 405.281L51.945 484.266C48.133 493.734 37.225 498.422 27.74 494.703C18.209 490.844 13.522 479.969 17.287 470.469L63.414 354.969C65.055 350.859 63.055 346.203 58.961 344.578C54.867 342.938 50.195 344.922 48.57 349.031L2.426 464.547C-4.574 482.203 4.084 502.391 21.85 509.578C25.959 511.172 30.193 511.938 34.381 511.938C48.227 511.938 61.383 503.641 66.898 489.969L95.523 410.719C97.024 406.562 94.867 401.984 90.711 400.469ZM127.994 104C156.705 104 179.994 80.709 179.994 52S156.705 0 127.994 0S75.994 23.291 75.994 52S99.283 104 127.994 104ZM127.994 16C147.846 16 163.994 32.15 163.994 52S147.846 88 127.994 88C108.145 88 91.994 71.85 91.994 52S108.145 16 127.994 16Z"/></svg>