<svg xmlns="http://www.w3.org/2000/svg" viewBox="0 0 448 512"><!-- Font Awesome Pro 6.0.0-alpha2 by @fontawesome - https://fontawesome.com License - https://fontawesome.com/license (Commercial License) --><path d="M143.999 112C174.874 112 199.999 86.875 199.999 56S174.874 0 143.999 0S87.999 25.125 87.999 56S113.124 112 143.999 112ZM143.999 16C166.062 16 183.999 33.938 183.999 56S166.062 96 143.999 96S103.999 78.062 103.999 56S121.937 16 143.999 16ZM147.968 398.422C143.656 397.375 139.328 399.953 138.265 404.25L119.078 480.969C116.484 491.406 105.218 497.969 95.046 495.406C89.89 494.125 85.546 490.922 82.828 486.375C80.093 481.828 79.312 476.5 80.609 471.344L107.843 361.359V360C107.843 355.578 104.374 351.703 99.968 351.703C95.546 351.703 92.078 355 92.078 359.422L65.078 467.453C62.749 476.75 64.171 486.391 69.109 494.594C74.031 502.812 81.874 508.625 91.171 510.938C93.999 511.641 96.937 512 99.874 512C116.343 512 130.624 500.828 134.609 484.844L153.796 408.125C154.859 403.844 152.265 399.5 147.968 398.422ZM446.546 499.391L312.005 308.201C321.349 297.061 322.697 280.924 313.587 268.797L236.81 166.375C218.781 142.344 190.062 128 160.001 128H135.566C98.974 128 66.07 148.328 49.697 181.062L3.386 273.688C-4.518 289.5 1.886 308.719 17.699 316.625C22.292 318.922 27.167 320 31.978 320C43.728 320 55.009 313.531 60.634 302.312L96.011 231.553V287.998C96.011 296.482 99.386 304.623 105.386 310.623L192.011 397.248V479.998C192.011 497.67 206.324 511.998 224.011 511.998S256.011 497.67 256.011 479.998V397.248C256.011 380.154 249.355 364.092 237.261 351.998L192.021 306.758V213.326L262.402 307.203C268.687 315.572 278.29 319.99 288.019 319.99C291.796 319.99 295.535 319.137 299.164 317.779L433.453 508.609C435.015 510.812 437.484 512 440 512C441.593 512 443.203 511.531 444.609 510.547C448.218 508 449.078 503.016 446.546 499.391ZM297.603 300.793C294.804 302.883 291.492 303.99 288.019 303.99C282.921 303.99 278.248 301.658 275.205 297.605L204.824 203.729C201.742 199.619 196.96 197.324 192.019 197.324C190.332 197.324 188.624 197.592 186.962 198.146C180.429 200.324 176.021 206.439 176.021 213.326V306.758C176.021 311.002 177.707 315.07 180.707 318.07L225.947 363.313C235.017 372.381 240.011 384.434 240.011 397.248V479.998C240.011 488.82 232.833 495.998 224.011 495.998S208.011 488.82 208.011 479.998V397.248C208.011 393.004 206.326 388.936 203.326 385.934L116.701 299.309C113.72 296.33 112.011 292.207 112.011 287.998V231.553C112.011 224.133 106.91 217.686 99.687 215.98C98.46 215.691 97.226 215.551 96.007 215.551C90.054 215.551 84.455 218.889 81.701 224.398L46.332 295.141C43.591 300.605 38.091 304 31.978 304C29.488 304 27.091 303.432 24.855 302.314C16.962 298.367 13.751 288.734 17.697 280.842L64.007 188.221C77.65 160.943 105.07 144 135.566 144H160.001C185.06 144 208.99 155.953 224.007 175.973L300.794 278.406C303.359 281.82 304.441 286.029 303.837 290.254C303.234 294.488 301.013 298.236 297.603 300.793Z"/></svg>