<svg xmlns="http://www.w3.org/2000/svg" viewBox="0 0 640 512"><!-- Font Awesome Pro 6.0.0-alpha2 by @fontawesome - https://fontawesome.com License - https://fontawesome.com/license (Commercial License) --><path d="M400 96C426.508 96 448 74.51 448 48S426.508 0 400 0S352 21.49 352 48S373.492 96 400 96ZM400 16C417.645 16 432 30.355 432 48S417.645 80 400 80S368 65.645 368 48S382.355 16 400 16ZM413.5 192H504C508.406 192 512 188.422 512 184S508.406 176 504 176H413.5C411.719 176 409.969 175.406 408.562 174.312L361.531 137.734C346.656 126.109 325.375 126.656 310.937 138.938L252.094 189.375C242.312 197.781 237.25 209.984 238.25 222.859C239.281 235.75 246.156 247.031 257.188 253.813L316.188 290.141C318.531 291.578 320 294.172 320 296.938V440C320 444.422 323.594 448 328 448S336 444.422 336 440V296.938C336 288.641 331.625 280.813 324.562 276.5L265.562 240.188C258.969 236.125 254.812 229.344 254.219 221.609C253.625 213.891 256.625 206.562 262.531 201.531L321.375 151.094C329.999 143.719 342.781 143.391 351.719 150.359L398.75 186.938C402.938 190.203 408.188 192 413.5 192ZM512 256C441.309 256 384 313.307 384 384C384 454.691 441.309 512 512 512S640 454.691 640 384C640 313.307 582.691 256 512 256ZM512 496C450.242 496 400 445.758 400 384S450.242 272 512 272S624 322.242 624 384S573.758 496 512 496ZM128 256C57.309 256 0 313.307 0 384C0 454.691 57.309 512 128 512S256 454.691 256 384C256 313.307 198.691 256 128 256ZM128 496C66.242 496 16 445.758 16 384S66.242 272 128 272S240 322.242 240 384S189.758 496 128 496Z"/></svg>