<svg xmlns="http://www.w3.org/2000/svg" viewBox="0 0 320 512"><!-- Font Awesome Pro 6.0.0-alpha2 by @fontawesome - https://fontawesome.com License - https://fontawesome.com/license (Commercial License) --><path d="M160.002 104C188.711 104 212.002 80.707 212.002 51.998C212.002 23.293 188.711 0 160.002 0C131.295 0 108.002 23.293 108.002 51.998C108.002 80.707 131.295 104 160.002 104ZM160.002 16C179.852 16 196.002 32.148 196.002 51.998C196.002 71.85 179.852 88 160.002 88S124.002 71.85 124.002 51.998C124.002 32.148 140.152 16 160.002 16ZM315.127 271.047L244.565 158.094C232.783 139.25 212.471 128 190.25 128H129.75C107.531 128 87.219 139.25 75.469 158.094L4.873 271.047C-4.502 286.031 0.061 305.766 15.031 315.141C20.309 318.439 26.176 320.012 31.969 320.012C42.641 320.012 53.069 314.674 59.125 304.953L88 258.771V478.623C88 495.338 100.221 510.264 116.86 511.85C117.916 511.949 118.965 512 120 512C137.676 512 152 497.672 152 480V344C152 339.582 155.582 336 160 336S168 339.582 168 344V478.623C168 495.338 180.221 510.264 196.86 511.85C197.916 511.949 198.965 512 200.002 512C217.676 512 232.002 497.672 232.002 480V258.752L260.877 304.953C266.94 314.672 277.377 320 288.033 320C293.815 320 299.69 318.438 304.971 315.141C319.94 305.766 324.502 286.031 315.127 271.047ZM296.498 301.566C293.949 303.158 291.022 304 288.033 304C282.465 304 277.387 301.189 274.444 296.473L245.57 250.271C242.592 245.508 237.416 242.75 232.002 242.75C230.535 242.75 229.053 242.951 227.59 243.371C220.729 245.34 216.002 251.613 216.002 258.752V480C216.002 488.822 208.824 496 200.002 496L198.379 495.922C190.317 495.152 184 487.555 184 478.623V344C184 330.766 173.235 320 160 320C146.768 320 136 330.766 136 344V480C136 488.822 128.822 496 120 496L118.377 495.922C110.315 495.152 104 487.555 104 478.623V258.771C104 251.633 99.272 245.359 92.412 243.391C90.949 242.971 89.467 242.77 88 242.77C82.586 242.77 77.41 245.527 74.434 250.289L45.545 296.492C42.611 301.201 37.537 304.012 31.969 304.012C28.99 304.012 26.065 303.168 23.524 301.58C16.043 296.895 13.762 287.006 18.442 279.525L89.045 166.559C97.854 152.434 113.07 144 129.75 144H190.25C206.926 144 222.158 152.439 230.994 166.57L301.565 279.533C306.238 287.006 303.957 296.895 296.498 301.566Z"/></svg>