<svg xmlns="http://www.w3.org/2000/svg" viewBox="0 0 576 512"><!-- Font Awesome Pro 6.0.0-alpha2 by @fontawesome - https://fontawesome.com License - https://fontawesome.com/license (Commercial License) --><path d="M479.998 192H365.715L260.619 8.062C258.056 3.609 251.837 0 246.712 0H181.211C170.586 0 162.898 10.172 165.836 20.391L214.868 192H111.991L68.802 134.406C65.771 130.375 61.021 128 55.99 128H15.989C5.582 128 -2.043 137.781 0.488 147.875L31.989 256L0.488 364.125C-2.043 374.219 5.582 384 15.989 384H55.99C61.021 384 65.771 381.625 68.802 377.594L111.991 320H214.868L165.836 491.594C162.898 501.812 170.586 512 181.211 512H246.712C252.431 512 257.744 508.922 260.587 503.938L365.715 320H479.998C515.343 320 576 291.344 576 256S515.343 192 479.998 192ZM181.211 16H246.728L347.288 192H231.509L181.211 16ZM246.712 496L181.219 495.988L231.509 320H347.284L246.712 496ZM479.998 304H103.991L55.99 368L15.848 368.6L48.654 256L15.989 144L56.001 144.006L103.991 208H479.998C511.585 208 560 233.746 560 256S511.585 304 479.998 304Z"/></svg>