<svg xmlns="http://www.w3.org/2000/svg" viewBox="0 0 576 512"><!-- Font Awesome Pro 6.0.0-alpha2 by @fontawesome - https://fontawesome.com License - https://fontawesome.com/license (Commercial License) --><path d="M479.998 192H365.715L329.149 128H336.008C344.846 128 352.008 120.836 352.008 112V80C352.008 71.164 344.846 64 336.008 64H292.58L260.619 8.062C258.057 3.609 251.838 0 246.713 0H181.211C170.586 0 162.899 10.172 165.836 20.391L214.869 192H111.992L68.803 134.406C65.772 130.375 61.022 128 55.99 128H15.99C5.582 128 -2.043 137.781 0.488 147.875L23.186 225.779C9.897 229.67 0 241.453 0 256S9.897 282.33 23.186 286.221L0.488 364.125C-2.043 374.219 5.582 384 15.99 384H55.99C61.022 384 65.772 381.625 68.803 377.594L111.992 320H214.869L165.836 491.594C162.899 501.812 170.586 512 181.211 512H246.713C252.432 512 257.744 508.922 260.588 503.938L292.557 448H336.008C344.846 448 352.008 440.836 352.008 432V400C352.008 391.164 344.846 384 336.008 384H329.137L365.715 320H479.998C515.344 320 576 291.344 576 256S515.344 192 479.998 192ZM181.211 16H246.727L283.295 80H336.008V112H301.578L347.287 192H231.508L181.211 16ZM301.563 400H336.008V432H283.274L246.713 496L181.221 495.99L231.508 320H347.287L301.563 400ZM479.998 304H103.99L55.99 368L15.85 368.6L43.016 275.355L27.682 270.865C21.867 269.164 16 263.906 16 256S21.867 242.836 27.682 241.135L43.016 236.645L15.99 144L56.002 144.006L103.99 208H479.998C511.586 208 560 233.746 560 256S511.586 304 479.998 304Z"/></svg>