<svg xmlns="http://www.w3.org/2000/svg" viewBox="0 0 512 512"><!-- Font Awesome Pro 6.0.0-alpha2 by @fontawesome - https://fontawesome.com License - https://fontawesome.com/license (Commercial License) --><path d="M504 496H267.253C260.753 496 254.316 494.875 248.128 492.625L31.818 414.125C22.35 410.687 16.006 401.625 16.006 391.562V349.187C16.006 338.062 23.537 328.469 34.35 325.875L250.472 273.578C254.784 272.531 259.222 272 263.628 272H504C508.406 272 512 268.422 512 264S508.406 256 504 256H393.542L141.473 11.281C133.973 4 124.067 0 113.599 0H40.006C27.912 0 16.6 5.391 8.975 14.781C1.35 24.156 -1.619 36.328 0.85 48.156L54.258 304.588L30.6 310.312C12.6 314.688 0.006 330.656 0.006 349.188V391.563C0.006 408.344 10.6 423.438 26.381 429.188L242.691 507.688C250.628 510.531 258.878 512 267.253 512H504C508.406 512 512 508.406 512 504S508.406 496 504 496ZM16.537 44.891C15.037 37.797 16.819 30.5 21.381 24.859C25.975 19.234 32.756 16 40.006 16H113.599C119.88 16 125.817 18.406 130.348 22.766L370.603 256H263.628C257.941 256 252.253 256.688 246.722 258.016L69.837 300.818L16.537 44.891ZM200.004 368C195.598 368 192.004 371.594 192.004 376S195.598 384 200.004 384H376.002C380.408 384 384.001 380.406 384.001 376S380.408 368 376.002 368H200.004Z"/></svg>