<svg xmlns="http://www.w3.org/2000/svg" viewBox="0 0 576 512"><!-- Font Awesome Pro 6.0.0-alpha2 by @fontawesome - https://fontawesome.com License - https://fontawesome.com/license (Commercial License) --><path d="M288 280H224C215.938 280 208.203 276.891 202.781 271.469C193.859 262.547 193.312 248.188 201.547 238.734L251.906 180.562C259.812 168.688 264 154.891 264 140.625C264 120.891 248.547 104.812 228.828 104C224.984 104.188 220.703 107.266 220.5 111.672C220.328 116.094 223.766 119.812 228.172 120C239.297 120.453 248 129.5 248 140.625C248 151.719 244.75 162.453 239.203 170.891L189.469 228.25C175.75 243.984 176.625 267.938 191.469 282.781C199.875 291.188 211.719 296 224 296H288C301.234 296 312 306.766 312 320V336.875C312 345.547 310 353.984 306.094 361.922L265.672 442.641C262.828 448.5 257.234 452.641 250.547 453.766C247.359 454.344 244.063 454.687 240.734 455.047C233.791 455.459 232 449.445 232 447.125V376H224C210.766 376 200 365.234 200 352V316.688L143.031 259.719C135.469 252.156 125.438 248 114.75 248H89.75C72.672 248 72.016 226.438 72 223.969C71.969 219.578 68.391 216.016 64 216.016C63.984 216.016 63.984 216.016 63.969 216.016C59.562 216.031 56 219.594 56 224C56 237.828 63.047 264 89.75 264H114.75C121.156 264 127.188 266.5 131.719 271.031L184 323.312V352C184 371.312 197.766 387.484 216 391.203V447.125C216 453.906 218.781 460.203 223.938 464.984C228.391 468.938 234.094 471.094 239.906 471.094C242.4 471.094 249.787 470.176 253.312 469.516C264.969 467.578 274.969 460.141 280.031 449.703L320.422 369.031C325.375 358.984 328 347.859 328 336.875V320C328 297.938 310.062 280 288 280ZM512 0C476.654 0 448 28.654 448 64S476.654 128 512 128S576 99.346 576 64S547.346 0 512 0ZM512 112C485.533 112 464 90.467 464 64S485.533 16 512 16S560 37.533 560 64S538.467 112 512 112ZM224 64C100.289 64 0 164.289 0 288S100.289 512 224 512C347.713 512 448 411.711 448 288S347.713 64 224 64ZM224 496C109.309 496 16 402.691 16 288S109.309 80 224 80S432 173.309 432 288S338.691 496 224 496Z"/></svg>