<svg xmlns="http://www.w3.org/2000/svg" viewBox="0 0 448 512"><!-- Font Awesome Pro 6.0.0-alpha2 by @fontawesome - https://fontawesome.com License - https://fontawesome.com/license (Commercial License) --><path d="M446.315 195.094C444.8 193.141 442.471 192 440.003 192H7.997C5.529 192 3.2 193.141 1.685 195.094C0.169 197.031 -0.362 199.578 0.247 201.969L71.514 482.937C75.842 500.047 91.311 512 109.155 512L338.845 511.984C356.674 511.984 372.142 500.031 376.486 482.922L447.753 201.969C448.362 199.578 447.831 197.031 446.315 195.094ZM360.986 478.984C358.439 489 349.345 495.984 338.845 495.984L109.155 496C98.655 496 89.545 489.016 87.014 479L18.279 208H104.959L136.061 449.031C136.593 453.062 140.03 456 143.983 456C144.327 456 144.671 455.984 145.03 455.938C149.405 455.375 152.499 451.359 151.937 446.969L121.102 208H216V448C216 452.422 219.578 456 224 456S232 452.422 232 448V208H326.898L296.063 446.969C295.501 451.359 298.595 455.375 302.97 455.937C303.329 455.984 303.673 456 304.017 456C307.97 456 311.407 453.062 311.939 449.031L343.041 208H429.721L360.986 478.984ZM32.693 175.978C37.099 175.665 40.427 171.837 40.114 167.431C39.646 160.743 40.661 155.477 43.364 150.758C48.505 141.523 58.801 135.132 70.239 134.07C72.942 133.82 75.348 132.21 76.598 129.804C77.848 127.382 77.801 124.507 76.457 122.132C71.254 113.022 71.332 101.709 76.707 92.568C83.832 80.067 99.144 73.442 113.815 76.317C116.144 76.833 118.534 76.192 120.378 74.708C122.222 73.239 123.315 71.02 123.378 68.66C123.69 54.957 133.065 42.941 146.846 38.706C157.596 35.206 169.376 37.097 178.407 43.675C180.501 45.206 183.142 45.644 185.61 44.831C188.063 44.019 189.97 42.097 190.751 39.644C194.11 29.081 202.36 20.846 212.828 17.627C230.719 12.174 249.702 20.799 256.546 38.315C256.827 41.003 258.452 43.394 260.905 44.628C263.655 45.988 266.858 45.706 269.28 43.894C278.42 37.081 290.389 35.159 301.217 38.597C315.013 42.941 324.419 54.988 324.622 68.598C324.654 70.973 325.747 73.208 327.591 74.692S331.825 76.801 334.185 76.317C348.856 73.458 364.184 80.067 371.293 92.568C376.574 101.818 376.652 112.912 371.496 122.225C370.184 124.601 370.168 127.491 371.449 129.882C372.73 132.273 375.137 133.851 377.84 134.07C388.996 134.992 399.058 141.289 404.683 150.852C407.339 155.477 408.354 160.743 407.886 167.431C407.573 171.837 410.901 175.665 415.307 175.978C415.495 175.993 415.682 175.993 415.885 175.993C420.042 175.993 423.557 172.775 423.854 168.556C424.541 158.696 422.807 150.289 418.51 142.804C412.026 131.773 401.605 123.725 389.574 120.1C392.933 108.319 391.464 95.63 385.199 84.63C376.105 68.692 357.293 59.363 339.669 59.66C336.169 42.862 323.482 28.831 306.06 23.346C293.576 19.346 280.045 20.33 268.389 25.846C257.437 5.486 232.062 -4.984 208.141 2.329C195.798 6.126 185.532 14.611 179.376 25.768C167.798 20.361 154.33 19.471 142.033 23.455C124.659 28.784 111.941 42.8 108.378 59.66C90.191 59.879 71.91 68.707 62.848 84.552C56.489 95.396 54.989 108.319 58.379 120.132C45.974 123.835 35.536 131.929 29.443 142.883C25.193 150.289 23.459 158.696 24.146 168.556C24.443 172.946 28.193 176.306 32.693 175.978Z"/></svg>