<svg xmlns="http://www.w3.org/2000/svg" viewBox="0 0 512 512"><!-- Font Awesome Pro 6.0.0-alpha2 by @fontawesome - https://fontawesome.com License - https://fontawesome.com/license (Commercial License) --><path d="M379.75 67.719C376 65.438 371.062 66.469 368.719 70.219C366.344 73.953 367.469 78.891 371.187 81.25C434.312 121.125 472 189.453 472 264C472 383.109 375.094 480 256 480S40 383.109 40 264C40 189.438 77.688 121.125 140.781 81.25C144.5 78.891 145.625 73.953 143.25 70.219C140.938 66.469 136 65.438 132.219 67.719C64.469 110.547 24 183.922 24 264C24 391.922 128.062 496 256 496S488 391.922 488 264C488 183.922 447.531 110.547 379.75 67.719ZM255.986 264C260.408 264 263.986 260.406 263.986 256V16C263.986 11.594 260.408 8 255.986 8S247.986 11.594 247.986 16V256C247.986 260.406 251.564 264 255.986 264Z"/></svg>