<svg xmlns="http://www.w3.org/2000/svg" viewBox="0 0 576 512"><!-- Font Awesome Pro 6.0.0-alpha2 by @fontawesome - https://fontawesome.com License - https://fontawesome.com/license (Commercial License) --><path d="M568 0H8C3.594 0 0 3.578 0 8S3.594 16 8 16H568C572.406 16 576 12.422 576 8S572.406 0 568 0ZM536 48C531.594 48 528 51.578 528 56V312C528 325.234 517.219 336 504 336H72C58.781 336 48 325.234 48 312V56C48 51.578 44.406 48 40 48S32 51.578 32 56V312C32 334.062 49.938 352 72 352H280V404.688L186.344 498.344C183.219 501.469 183.219 506.531 186.344 509.656S194.531 512.781 197.656 509.656L284.686 422.627C285.768 423.174 286.709 424 288 424S290.232 423.174 291.314 422.627L378.344 509.656C379.906 511.219 381.938 512 384 512S388.094 511.219 389.656 509.656C392.781 506.531 392.781 501.469 389.656 498.344L296 404.688V352H504C526.062 352 544 334.062 544 312V56C544 51.578 540.406 48 536 48Z"/></svg>