<svg xmlns="http://www.w3.org/2000/svg" viewBox="0 0 384 512"><!-- Font Awesome Pro 6.0.0-alpha2 by @fontawesome - https://fontawesome.com License - https://fontawesome.com/license (Commercial License) --><path d="M352 0H32C14.328 0 0 14.326 0 32V96C0 113.674 14.328 128 32 128H352C369.674 128 384 113.674 384 96V32C384 14.326 369.674 0 352 0ZM368 96C368 104.822 360.822 112 352 112H32C23.178 112 16 104.822 16 96V32C16 23.178 23.178 16 32 16H352C360.822 16 368 23.178 368 32V96ZM344 152C339.594 152 336 155.578 336 160V440C336 470.875 310.875 496 280 496H104C73.125 496 48 470.875 48 440V160C48 155.578 44.406 152 40 152S32 155.578 32 160V440C32 479.703 64.312 512 104 512H280C319.688 512 352 479.703 352 440V160C352 155.578 348.406 152 344 152ZM216 184H168C159.164 184 152 191.164 152 200V248H104C95.164 248 88 255.164 88 264V312C88 320.836 95.164 328 104 328H152V376C152 384.836 159.164 392 168 392H216C224.838 392 232 384.836 232 376V328H280C288.838 328 296 320.836 296 312V264C296 255.164 288.838 248 280 248H232V200C232 191.164 224.838 184 216 184ZM280 264V312H216V376H168V312H104V264H168V200H216V264H280Z"/></svg>