<svg xmlns="http://www.w3.org/2000/svg" viewBox="0 0 512 512"><!-- Font Awesome Pro 6.0.0-alpha2 by @fontawesome - https://fontawesome.com License - https://fontawesome.com/license (Commercial License) --><path d="M176 240H48C35.65 240 24.506 244.795 16 252.457V192H16.014V152C16.014 103.469 55.482 64 104.014 64H152.014C156.42 64 160.014 60.422 160.014 56S156.42 48 152.014 48H104.014C46.67 48 0.014 94.656 0.014 152L0.006 287.949C0.006 287.967 0 287.982 0 288V416C0 442.51 21.49 464 48 464H176C202.51 464 224 442.51 224 416V288C224 261.49 202.51 240 176 240ZM208 416C208 433.645 193.645 448 176 448H48C30.355 448 16 433.645 16 416V288C16 270.355 30.355 256 48 256H176C193.645 256 208 270.355 208 288V416ZM464 240H336C323.65 240 312.506 244.795 304 252.457V192H304.014V152C304.014 103.469 343.482 64 392.014 64H440.014C444.42 64 448.014 60.422 448.014 56S444.42 48 440.014 48H392.014C334.67 48 288.014 94.656 288.014 152L288.006 287.949C288.006 287.967 288 287.982 288 288V416C288 442.51 309.49 464 336 464H464C490.51 464 512 442.51 512 416V288C512 261.49 490.51 240 464 240ZM496 416C496 433.645 481.645 448 464 448H336C318.355 448 304 433.645 304 416V288C304 270.355 318.355 256 336 256H464C481.645 256 496 270.355 496 288V416Z"/></svg>