<svg xmlns="http://www.w3.org/2000/svg" viewBox="0 0 512 512"><!-- Font Awesome Pro 6.0.0-alpha2 by @fontawesome - https://fontawesome.com License - https://fontawesome.com/license (Commercial License) --><path d="M256.239 304C282.739 304 304.239 282.5 304.239 256S282.739 208 256.239 208S208.239 229.5 208.239 256S229.739 304 256.239 304ZM256.239 224C273.883 224 288.239 238.355 288.239 256S273.883 288 256.239 288S224.239 273.645 224.239 256S238.594 224 256.239 224ZM184.051 255.797C184.051 251.375 180.458 247.797 176.051 247.797H42.238C35.145 247.797 28.395 244.687 23.739 239.281C19.208 234.031 17.239 227.422 18.238 220.703C26.708 163.25 55.958 110.734 100.676 72.844C105.77 68.516 112.301 66.766 119.114 67.766C126.176 68.875 132.364 72.953 136.114 78.969L207.051 192.25C209.458 196.031 214.395 197.141 218.083 194.781C221.833 192.438 222.958 187.5 220.614 183.75L149.676 70.484C143.458 60.531 133.208 53.781 121.583 51.969C110.176 50.156 98.895 53.391 90.301 60.641C42.645 101.047 11.426 157.062 2.426 218.359C0.739 229.578 4.114 241.016 11.614 249.734C19.333 258.672 30.489 263.797 42.238 263.797H176.051C180.458 263.797 184.051 260.219 184.051 255.797ZM510.051 218.359C501.051 157.063 469.833 101.047 422.176 60.656C413.614 53.391 402.333 50.172 390.895 51.969C379.27 53.781 369.02 60.531 362.801 70.469L291.864 183.75C289.52 187.5 290.645 192.438 294.395 194.781C298.083 197.141 303.051 196.031 305.426 192.25L376.364 78.953C380.114 72.953 386.301 68.875 393.364 67.766C400.176 66.766 406.708 68.516 411.801 72.859C456.52 110.734 485.77 163.25 494.238 220.703C495.239 227.422 493.27 234.031 488.739 239.281C484.083 244.688 477.333 247.797 470.238 247.797H336.426C332.02 247.797 328.426 251.375 328.426 255.797S332.02 263.797 336.426 263.797H470.238C481.989 263.797 493.145 258.672 500.864 249.734C508.364 241.016 511.739 229.578 510.051 218.359ZM305.426 319.25C303.051 315.516 298.083 314.406 294.395 316.719C290.645 319.062 289.52 324 291.864 327.75L362.801 441.109C366.551 447.141 367.52 454.516 365.426 461.328C363.426 467.812 359.02 472.844 352.989 475.516C291.739 502.703 220.739 502.703 159.489 475.516C153.458 472.844 149.051 467.812 147.051 461.328C144.958 454.516 145.926 447.141 149.676 441.125L220.614 327.75C222.958 324 221.833 319.062 218.083 316.719C214.395 314.406 209.458 315.516 207.051 319.25L136.114 432.641C129.895 442.609 128.301 454.781 131.739 466.031C135.083 476.844 142.833 485.641 152.989 490.141C185.676 504.641 220.426 512 256.239 512S326.801 504.641 359.489 490.141C369.645 485.641 377.395 476.844 380.739 466.031C384.176 454.781 382.583 442.609 376.364 432.625L305.426 319.25Z"/></svg>