<svg xmlns="http://www.w3.org/2000/svg" viewBox="0 0 384 512"><!-- Font Awesome Pro 6.0.0-alpha2 by @fontawesome - https://fontawesome.com License - https://fontawesome.com/license (Commercial License) --><path d="M320 0H64C28.654 0 0 28.654 0 64V480C0 497.674 14.326 512 32 512H352C369.674 512 384 497.674 384 480V64C384 28.654 355.346 0 320 0ZM368 480C368 488.822 360.822 496 352 496H32C23.178 496 16 488.822 16 480V192H288V376C288 380.406 291.594 384 296 384S304 380.406 304 376V192H368V480ZM368 176H304V72C304 67.578 300.406 64 296 64S288 67.578 288 72V176H16V64C16 37.533 37.533 16 64 16H320C346.467 16 368 37.533 368 64V176Z"/></svg>