<svg xmlns="http://www.w3.org/2000/svg" viewBox="0 0 640 512"><!-- Font Awesome Pro 6.0.0-alpha2 by @fontawesome - https://fontawesome.com License - https://fontawesome.com/license (Commercial License) --><path d="M176 168H152V144C152 139.594 148.406 136 144 136S136 139.594 136 144V168H112C107.594 168 104 171.594 104 176S107.594 184 112 184H136V208C136 212.406 139.594 216 144 216S152 212.406 152 208V184H176C180.406 184 184 180.406 184 176S180.406 168 176 168ZM304 168H280V144C280 139.594 276.406 136 272 136S264 139.594 264 144V168H240C235.594 168 232 171.594 232 176S235.594 184 240 184H264V208C264 212.406 267.594 216 272 216S280 212.406 280 208V184H304C308.406 184 312 180.406 312 176S308.406 168 304 168ZM432 168H408V144C408 139.594 404.406 136 400 136S392 139.594 392 144V168H368C363.594 168 360 171.594 360 176S363.594 184 368 184H392V208C392 212.406 395.594 216 400 216S408 212.406 408 208V184H432C436.406 184 440 180.406 440 176S436.406 168 432 168ZM632 320C627.582 320 624 323.582 624 328V422.23C624 443.111 608.768 461.787 587.984 463.807C564.139 466.123 544 447.377 544 424V192.033C544 103.678 472.373 32.051 384.018 32.051H160C71.635 32.051 0 103.686 0 192.051V432C0 458.4 21.6 480 48 480H80C106.4 480 128 458.4 128 432V384.012H352V432C352 458.4 373.6 480 400 480H432C458.4 480 480 458.4 480 432V344.014C480 339.596 476.418 336.014 472 336.014S464 339.596 464 344.014V432C464 449.674 449.674 464 432 464H400C382.328 464 368 449.674 368 432V368.012H112V432C112 449.674 97.674 464 80 464H48C30.328 464 16 449.674 16 432V272H528V422.041C528 450.498 548.398 475.896 576.623 479.525C610.77 483.914 640 457.303 640 424V328C640 323.582 636.418 320 632 320ZM528 256H16V192.051C16 112.521 80.471 48.051 160 48.051H384.018C463.537 48.051 528 112.514 528 192.033V256Z"/></svg>