<svg xmlns="http://www.w3.org/2000/svg" viewBox="0 0 640 512"><!-- Font Awesome Pro 6.0.0-alpha2 by @fontawesome - https://fontawesome.com License - https://fontawesome.com/license (Commercial License) --><path d="M496 104C524.709 104 548 80.707 548 51.998C548 23.293 524.709 0 496 0C467.293 0 444 23.293 444 51.998C444 80.707 467.293 104 496 104ZM496 16C515.85 16 532 32.148 532 51.998C532 71.85 515.85 88 496 88S460 71.85 460 51.998C460 32.148 476.15 16 496 16ZM143.998 104C172.708 104 195.999 80.707 195.999 51.998C195.999 23.293 172.708 0 143.998 0C115.291 0 91.998 23.293 91.998 51.998C91.998 80.707 115.291 104 143.998 104ZM143.998 16C163.848 16 179.999 32.148 179.999 51.998C179.999 71.85 163.848 88 143.998 88S107.998 71.85 107.998 51.998C107.998 32.148 124.149 16 143.998 16ZM552.782 208.062C551.219 203.938 546.625 201.766 542.469 203.391C538.344 204.937 536.25 209.547 537.782 213.687L595.657 368H396.343L454.219 213.688C455.75 209.547 453.656 204.938 449.531 203.391C445.312 201.766 440.781 203.938 439.219 208.063L377.312 373.188C376.406 375.641 376.75 378.406 378.25 380.563C379.718 382.719 382.187 384 384.812 384H424V480C424 497.674 438.328 512 456 512C473.674 512 488 497.674 488 480V384H504V480C504 497.674 518.328 512 536 512C553.674 512 568 497.674 568 480V384H607.188C609.813 384 612.282 382.719 613.751 380.562C615.251 378.406 615.594 375.641 614.688 373.187L552.782 208.062ZM472 480C472 488.822 464.822 496 456 496C447.178 496 440 488.822 440 480V384H472V480ZM552 480C552 488.822 544.823 496 536 496C527.178 496 520 488.822 520 480V384H552V480ZM319.999 0C315.593 0 311.999 3.578 311.999 8V504C311.999 508.422 315.593 512 319.999 512S327.999 508.422 327.999 504V8C327.999 3.578 324.406 0 319.999 0ZM583.344 173.766C572.501 145.969 546.157 128 516.313 128H475.688C445.844 128 419.5 145.969 408.656 173.75L352.562 317.078C350.937 321.203 352.968 325.844 357.093 327.453C361.093 329.063 365.843 327.047 367.437 322.922L423.531 179.578C432 157.969 452.469 144 475.688 144H516.313C539.532 144 560 157.969 568.469 179.594L624.563 322.922C625.782 326.078 628.813 328 632.001 328C632.97 328 633.97 327.828 634.907 327.453C639.032 325.844 641.063 321.203 639.438 317.078L583.344 173.766ZM207.999 248C203.592 248 199.999 251.578 199.999 256V480C199.999 488.828 192.811 496 183.999 496C175.186 496 167.999 488.828 167.999 480V344C167.999 330.766 157.217 320 143.998 320C130.78 320 119.998 330.766 119.998 344V480C119.998 488.828 112.811 496 103.998 496S87.998 488.828 87.998 480V256C87.998 251.578 84.404 248 79.998 248S71.998 251.578 71.998 256V480C71.998 497.641 86.342 512 103.998 512S135.998 497.641 135.998 480V344C135.998 339.594 139.592 336 143.998 336C148.405 336 151.998 339.594 151.998 344V480C151.998 497.641 166.342 512 183.999 512S215.999 497.641 215.999 480V256C215.999 251.578 212.405 248 207.999 248ZM164.311 128H123.686C93.842 128 67.498 145.969 56.654 173.75L0.56 317.078C-1.065 321.203 0.966 325.844 5.091 327.453C9.154 329.063 13.841 327.047 15.435 322.922L71.529 179.578C79.998 157.969 100.467 144 123.686 144H164.311C187.53 144 207.999 157.969 216.467 179.594L272.562 322.922C273.78 326.078 276.812 328 279.999 328C280.968 328 281.968 327.828 282.905 327.453C287.03 325.844 289.062 321.203 287.437 317.078L231.343 173.766C220.499 145.969 194.155 128 164.311 128Z"/></svg>