<svg xmlns="http://www.w3.org/2000/svg" viewBox="0 0 512 512"><!-- Font Awesome Pro 6.0.0-alpha2 by @fontawesome - https://fontawesome.com License - https://fontawesome.com/license (Commercial License) --><path d="M320.182 120.001V192.001H32.023C14.336 192.001 0 206.329 0 224V288C0 305.673 14.336 319.999 32.023 319.999H320.182V391.999C320.182 401.577 325.891 410.249 334.693 414.045C343.496 417.827 353.723 416.03 360.695 409.452L504.799 273.453C509.6 268.922 512 262.461 512 256S509.6 243.078 504.799 238.547L360.695 102.548C353.723 95.97 343.496 94.173 334.693 97.955C325.891 101.751 320.182 110.423 320.182 120.001ZM349.713 114.185L493.816 250.182C495.184 251.473 496 253.648 496 256S495.184 260.527 493.816 261.816L349.715 397.813C347.383 400.014 343.965 400.614 341.029 399.354C338.084 398.083 336.182 395.196 336.182 391.999V304H32.023C23.188 304 16 296.822 16 288V224C16 215.178 23.188 208 32.023 208H336.182V120.001C336.182 116.804 338.084 113.917 341.008 112.656C343.965 111.386 347.383 111.986 349.713 114.185Z"/></svg>