<svg xmlns="http://www.w3.org/2000/svg" viewBox="0 0 512 512"><!-- Font Awesome Pro 6.0.0-alpha2 by @fontawesome - https://fontawesome.com License - https://fontawesome.com/license (Commercial License) --><path d="M102.369 320C54.373 320 2 359.375 0.125 480H0V512H31.998V511.75C203.613 508.375 216.863 396.75 165.742 345.375C150.867 330.375 127.244 320 102.369 320ZM171.16 432.836C155.578 471.385 104.742 494.316 31.684 495.754L24.754 496H16V488.176L16.123 480.248C17.527 389.924 49.768 336 102.369 336C121.826 336 141.756 343.908 154.4 356.66C174.941 377.303 181.52 407.203 171.16 432.836ZM505.098 19.25C503.973 13.875 498.098 8 492.723 6.875C460.6 0 435.477 0 410.479 0C307.234 0 245.361 55.25 199.115 128H94.994C78.746 128 59.371 139.875 52.123 154.5L2.75 253.25C1.25 256.625 0.375 260.25 0.25 264C0.25 277.25 11 288 24.248 288H128.119C181.115 288 224.113 331 224.113 384V488C224.113 501.25 234.863 512 248.111 512C251.861 511.875 255.486 511 258.861 509.375L357.48 460C372.105 452.75 383.979 433.5 383.979 417.25V312.75C456.6 266.5 511.973 204.375 511.973 101.75C512.098 76.5 512.098 51.375 505.098 19.25ZM123.447 272H24.248C19.838 272 16.25 268.412 16.242 264.533C16.295 262.924 16.676 261.314 17.061 260.404L66.457 161.605C70.943 152.557 84.812 144 94.994 144H190.529C171.152 176.236 153.705 210.238 137.344 243.812C132.686 253.314 128.074 262.688 123.447 272ZM367.979 417.25C367.979 427.553 359.588 441.098 350.318 445.693L251.92 494.959C250.58 495.604 249.119 495.957 248.111 496C243.701 496 240.113 492.412 240.113 488V388.555C248.994 384.148 257.945 379.756 267.031 375.344C300.955 358.797 335.342 341.154 367.979 321.455V417.25ZM260.031 360.938C252.863 364.439 245.871 367.896 238.836 371.361C232.939 319.781 192.256 279.123 140.668 273.27C144.35 265.811 148.027 258.381 151.719 250.813C219.898 110.969 274.492 16 410.479 16C435.383 16 458.908 16 488.529 22.244C488.805 22.395 489.238 22.799 489.402 22.799C489.455 22.799 489.48 22.758 489.465 22.656C496.211 53.615 496.09 78.045 495.973 101.75C495.973 230.078 412.947 286.428 260.031 360.938ZM367.98 88C337.107 88 311.982 113.125 311.982 144C311.982 175 337.107 200 367.98 200C398.979 200 423.977 175 423.977 144C423.977 113.125 398.979 88 367.98 88ZM367.98 184C345.926 184 327.982 166.057 327.982 144S345.926 104 367.98 104S407.977 121.943 407.977 144S390.035 184 367.98 184Z"/></svg>