<svg xmlns="http://www.w3.org/2000/svg" viewBox="0 0 640 512"><!-- Font Awesome Pro 6.0.0-alpha2 by @fontawesome - https://fontawesome.com License - https://fontawesome.com/license (Commercial License) --><path d="M352 168H328V136C328 131.594 324.422 128 320 128S312 131.594 312 136V176C312 180.406 315.578 184 320 184H352C356.422 184 360 180.406 360 176S356.422 168 352 168ZM360 352H280C257.938 352 240 369.938 240 392V504C240 508.406 243.578 512 248 512S256 508.406 256 504V392C256 378.781 266.766 368 280 368H360C373.234 368 384 378.781 384 392V504C384 508.406 387.578 512 392 512S400 508.406 400 504V392C400 369.938 382.062 352 360 352ZM85.406 187.998L23.344 216.219C9.156 222.656 0 236.938 0 252.594V504C0 508.406 3.594 512 8 512S16 508.406 16 504V252.594C16 243.188 21.469 234.656 29.969 230.781L92.029 202.561C96.051 200.732 97.828 195.988 96 191.967C94.17 187.945 89.428 186.17 85.406 187.998ZM320 88C271.469 88 232 127.469 232 176S271.469 264 320 264S408 224.531 408 176S368.531 88 320 88ZM320 248C280.297 248 248 215.688 248 176S280.297 104 320 104S392 136.312 392 176S359.703 248 320 248ZM493.859 111.844L324.375 1.312C321.719 -0.438 318.281 -0.438 315.625 1.312L146.141 111.844C134.781 119.25 128 131.781 128 145.344V504C128 508.406 131.578 512 136 512S144 508.406 144 504V145.344C144 137.188 148.078 129.688 154.891 125.219L320 17.562L485.109 125.219C491.922 129.688 496 137.188 496 145.344V504C496 508.406 499.578 512 504 512S512 508.406 512 504V145.344C512 131.781 505.219 119.25 493.859 111.844ZM616.656 216.219L554.594 187.998C550.572 186.17 545.83 187.945 544 191.967C542.172 195.988 543.949 200.732 547.971 202.561L610.031 230.781C618.531 234.656 624 243.188 624 252.594V504C624 508.406 627.594 512 632 512S640 508.406 640 504V252.594C640 236.938 630.844 222.656 616.656 216.219Z"/></svg>