<svg xmlns="http://www.w3.org/2000/svg" viewBox="0 0 512 512"><!-- Font Awesome Pro 6.0.0-alpha2 by @fontawesome - https://fontawesome.com License - https://fontawesome.com/license (Commercial License) --><path d="M341.181 291.109C337.868 288.281 332.837 288.641 329.9 292.016C327.025 295.391 327.431 300.438 330.806 303.297L498.803 446.094C500.303 447.375 502.146 448 503.99 448C506.24 448 508.49 447.047 510.084 445.188C512.959 441.812 512.552 436.766 509.177 433.906L341.181 291.109ZM509.177 78.094C512.552 75.234 512.959 70.188 510.084 66.812C507.209 63.422 502.178 63.078 498.803 65.906L287.526 245.496L189.918 162.529C201.303 145.85 207.996 125.719 207.996 104C207.996 46.562 161.434 0 103.998 0S0 46.562 0 104S46.562 208 103.998 208C133.958 208 160.753 195.15 179.731 174.877L275.168 256L179.731 337.123C160.753 316.85 133.958 304 103.998 304C46.562 304 0 350.562 0 408S46.562 512 103.998 512S207.996 465.438 207.996 408C207.996 386.281 201.303 366.15 189.918 349.471L292.713 262.094L509.177 78.094ZM103.998 192C55.475 192 16 152.523 16 104S55.475 16 103.998 16S191.996 55.477 191.996 104S152.52 192 103.998 192ZM191.996 408C191.996 456.523 152.52 496 103.998 496S16 456.523 16 408S55.475 320 103.998 320S191.996 359.477 191.996 408Z"/></svg>