<svg xmlns="http://www.w3.org/2000/svg" viewBox="0 0 640 512"><!-- Font Awesome Pro 6.0.0-alpha2 by @fontawesome - https://fontawesome.com License - https://fontawesome.com/license (Commercial License) --><path d="M544 256.023C508.781 256.156 480.268 284.738 480.268 320S508.781 383.844 544 383.977C579.219 383.844 607.732 355.262 607.732 320S579.219 256.156 544 256.023ZM544.061 367.977C517.707 367.877 496.268 346.355 496.268 320C496.268 293.666 517.676 272.156 544 272.023C570.324 272.156 591.732 293.666 591.732 320C591.732 346.355 570.293 367.877 544.061 367.977ZM40 240C44.418 240 48 236.418 48 232V49.625C48 31.084 62.355 16 80 16H560C577.645 16 592 31.084 592 49.625V232C592 236.418 595.582 240 600 240S608 236.418 608 232V49.625C608 22.25 586.5 0 560 0H80C53.5 0 32 22.25 32 49.625V232C32 236.418 35.582 240 40 240ZM256.268 320C256.268 355.262 284.781 383.844 320 383.977C355.219 383.844 383.732 355.262 383.732 320S355.219 256.156 320 256.023C284.781 256.156 256.268 284.738 256.268 320ZM367.732 320C367.732 346.355 346.293 367.877 320.061 367.977C293.707 367.877 272.268 346.355 272.268 320C272.268 293.666 293.676 272.156 320 272.023C346.324 272.156 367.732 293.666 367.732 320ZM343.75 416H296.25C256.424 416 224 449.5 224 490.656C224 502.438 233.34 512 244.834 512H395.166C406.66 512 416 502.438 416 490.656C416 449.5 383.576 416 343.75 416ZM395.166 496H244.834C242.168 496 240 493.602 240 490.656C240 458.312 265.234 432 296.25 432H343.75C374.766 432 400 458.312 400 490.656C400 493.602 397.832 496 395.166 496ZM567.75 416H520.25C480.424 416 448 449.5 448 490.656C448 502.438 457.34 512 468.834 512H619.166C630.66 512 640 502.438 640 490.656C640 449.5 607.576 416 567.75 416ZM619.166 496H468.834C466.168 496 464 493.602 464 490.656C464 458.312 489.234 432 520.25 432H567.75C598.766 432 624 458.312 624 490.656C624 493.602 621.832 496 619.166 496ZM119.75 416H72.25C32.424 416 0 449.5 0 490.656C0 502.438 9.34 512 20.834 512H171.166C182.66 512 192 502.438 192 490.656C192 449.5 159.576 416 119.75 416ZM171.166 496H20.834C18.168 496 16 493.602 16 490.656C16 458.312 41.234 432 72.25 432H119.75C150.766 432 176 458.312 176 490.656C176 493.602 173.832 496 171.166 496ZM32.268 320C32.268 355.262 60.781 383.844 96 383.977C131.219 383.844 159.732 355.262 159.732 320S131.219 256.156 96 256.023C60.781 256.156 32.268 284.738 32.268 320ZM143.732 320C143.732 346.355 122.293 367.877 96.061 367.977C69.707 367.877 48.268 346.355 48.268 320C48.268 293.666 69.676 272.156 96 272.023C122.324 272.156 143.732 293.666 143.732 320Z"/></svg>