<svg xmlns="http://www.w3.org/2000/svg" viewBox="0 0 512 512"><!-- Font Awesome Pro 6.0.0-alpha2 by @fontawesome - https://fontawesome.com License - https://fontawesome.com/license (Commercial License) --><path d="M493.235 222.059L447.647 176.471V112C447.647 85.49 426.157 64 399.647 64H335.177L289.589 18.412C280.216 9.039 267.933 4.354 255.647 4.354C243.364 4.354 231.079 9.039 221.706 18.412L176.118 64H111.647C85.138 64 63.647 85.49 63.647 112V176.471L18.06 222.059C-0.687 240.803 -0.687 271.195 18.06 289.941L63.647 335.529V400C63.647 426.51 85.138 448 111.647 448H176.118L221.706 493.588C231.079 502.959 243.364 507.646 255.647 507.646C267.933 507.646 280.216 502.959 289.589 493.588L335.177 448H399.647C426.157 448 447.647 426.51 447.647 400V335.529L493.235 289.941C511.981 271.195 511.981 240.803 493.235 222.059ZM481.923 278.629L436.335 324.217L431.647 328.902V400C431.647 417.645 417.292 432 399.647 432H328.55L278.276 482.273C272.231 488.316 264.194 491.646 255.647 491.646S239.063 488.316 233.021 482.273L182.745 432H111.647C94.003 432 79.647 417.645 79.647 400V328.902L74.96 324.217L29.372 278.629C23.329 272.584 19.999 264.547 19.999 256S23.329 239.416 29.372 233.373L74.96 187.785L79.647 183.1V112C79.647 94.355 94.003 80 111.647 80H182.745L233.021 29.727C239.065 23.682 247.101 20.354 255.647 20.354S272.231 23.682 278.274 29.727L328.55 80H399.647C417.292 80 431.647 94.355 431.647 112V183.1L436.335 187.785L481.923 233.373C487.968 239.416 491.296 247.453 491.296 256S487.966 272.584 481.923 278.629ZM255.647 304C260.054 304 263.647 300.422 263.647 296V120C263.647 115.578 260.054 112 255.647 112S247.647 115.578 247.647 120V296C247.647 300.422 251.241 304 255.647 304ZM255.647 352C246.812 352 239.647 359.164 239.647 368S246.812 384 255.647 384S271.647 376.836 271.647 368S264.483 352 255.647 352Z"/></svg>