<svg xmlns="http://www.w3.org/2000/svg" viewBox="0 0 640 512"><!-- Font Awesome Pro 6.0.0-alpha2 by @fontawesome - https://fontawesome.com License - https://fontawesome.com/license (Commercial License) --><path d="M296 112H416C442.51 112 464 133.49 464 160V216C464 220.418 467.582 224 472 224S480 220.418 480 216V160C480 124.654 451.346 96 416 96H296C291.582 96 288 99.582 288 104S291.582 112 296 112ZM344 400H224C197.49 400 176 378.51 176 352V296C176 291.582 172.418 288 168 288S160 291.582 160 296V352C160 387.346 188.654 416 224 416H344C348.418 416 352 412.418 352 408S348.418 400 344 400ZM576 256H448C412.654 256 384 284.654 384 320V448C384 483.346 412.654 512 448 512H576C611.346 512 640 483.346 640 448V320C640 284.654 611.346 256 576 256ZM624 448C624 474.51 602.51 496 576 496H448C421.49 496 400 474.51 400 448V320C400 293.49 421.49 272 448 272H576C602.51 272 624 293.49 624 320V448ZM256 192V64C256 28.654 227.346 0 192 0H64C28.654 0 0 28.654 0 64V192C0 227.346 28.654 256 64 256H192C227.346 256 256 227.346 256 192ZM16 192V64C16 37.49 37.49 16 64 16H192C218.51 16 240 37.49 240 64V192C240 218.51 218.51 240 192 240H64C37.49 240 16 218.51 16 192ZM552 320H472C458.781 320 448 330.766 448 344V424C448 437.234 458.781 448 472 448H552C565.219 448 576 437.234 576 424V344C576 330.766 565.219 320 552 320ZM560 424C560 428.406 556.406 432 552 432H472C467.594 432 464 428.406 464 424V344C464 339.594 467.594 336 472 336H552C556.406 336 560 339.594 560 344V424ZM192 88C192 74.766 181.219 64 168 64H88C74.781 64 64 74.766 64 88V168C64 181.234 74.781 192 88 192H168C181.219 192 192 181.234 192 168V88ZM176 168C176 172.406 172.406 176 168 176H88C83.594 176 80 172.406 80 168V88C80 83.594 83.594 80 88 80H168C172.406 80 176 83.594 176 88V168Z"/></svg>