<svg xmlns="http://www.w3.org/2000/svg" viewBox="0 0 448 512"><!-- Font Awesome Pro 6.0.0-alpha2 by @fontawesome - https://fontawesome.com License - https://fontawesome.com/license (Commercial License) --><path d="M384 32H64C28.654 32 0 60.652 0 96V416C0 451.346 28.654 480 64 480H384C419.346 480 448 451.346 448 416V96C448 60.652 419.346 32 384 32ZM432 416C432 442.467 410.467 464 384 464H64C37.533 464 16 442.467 16 416V96C16 69.533 37.533 48 64 48H384C410.467 48 432 69.533 432 96V416ZM88 96C83.594 96 80 99.594 80 104V280C80 284.406 83.594 288 88 288S96 284.406 96 280V104C96 99.594 92.406 96 88 96ZM152 96C147.594 96 144 99.594 144 104V280C144 284.406 147.594 288 152 288S160 284.406 160 280V104C160 99.594 156.406 96 152 96ZM216 96C211.594 96 208 99.594 208 104V280C208 284.406 211.594 288 216 288S224 284.406 224 280V104C224 99.594 220.406 96 216 96Z"/></svg>