<svg xmlns="http://www.w3.org/2000/svg" viewBox="0 0 512 512"><!-- Font Awesome Pro 6.0.0-alpha2 by @fontawesome - https://fontawesome.com License - https://fontawesome.com/license (Commercial License) --><path d="M193.01 224H382.996C408.328 224 424.217 197.312 411.551 175.984L316.557 15.969C310.557 6.125 299.67 0 288.004 0S265.449 6.125 259.449 15.969L164.455 175.984C151.789 197.312 167.678 224 193.01 224ZM178.213 184.152L273.111 24.295C276.23 19.178 281.938 16 288.004 16S299.775 19.178 302.799 24.137L397.793 184.154C401.893 191.055 399.256 197.209 397.932 199.535C394.916 204.836 389.332 208 382.996 208H193.01C186.674 208 181.092 204.836 178.074 199.535C176.75 197.209 174.113 191.055 178.213 184.152ZM128 256C57.25 256 0 313.25 0 384S57.25 512 128 512S256 454.75 256 384S198.75 256 128 256ZM128 496C66.242 496 16 445.756 16 384C16 322.242 66.242 272 128 272S240 322.242 240 384C240 445.756 189.758 496 128 496ZM480 272H320C302.375 272 288 286.375 288 304V464C288 481.625 302.375 496 320 496H480C497.625 496 512 481.625 512 464V304C512 286.375 497.625 272 480 272ZM496 464C496 472.822 488.822 480 480 480H320C311.178 480 304 472.822 304 464V304C304 295.178 311.178 288 320 288H480C488.822 288 496 295.178 496 304V464Z"/></svg>