<svg xmlns="http://www.w3.org/2000/svg" viewBox="0 0 512 512"><!-- Font Awesome Pro 6.0.0-alpha2 by @fontawesome - https://fontawesome.com License - https://fontawesome.com/license (Commercial License) --><path d="M466.5 83.68L274.5 3.672C269.625 1.641 261.344 0 256.062 0C250.75 0 242.5 1.641 237.594 3.672L45.594 83.68C27.688 91.07 16 108.574 16 127.984C16 385.157 205.164 512 255.953 512C307.975 512 496 383.813 496 127.984C496 108.574 484.312 91.07 466.5 83.68ZM255.953 496C212.107 496 32 374.012 32 127.984C32 114.992 39.732 103.41 51.748 98.449L243.715 18.453C246.707 17.215 252.822 16 256.062 16C259.246 16 265.443 17.234 268.346 18.441L460.367 98.461C472.295 103.406 480 114.996 480 127.984C480 405.588 270.923 496 255.953 496ZM256 304C260.406 304 264 300.406 264 296V136C264 131.594 260.406 128 256 128S248 131.594 248 136V296C248 300.406 251.594 304 256 304ZM256 336C247.178 336 240 343.18 240 352S247.178 368 256 368S272 360.82 272 352S264.822 336 256 336Z "></path></svg>