<svg xmlns="http://www.w3.org/2000/svg" viewBox="0 0 512 512"><!-- Font Awesome Pro 6.0.0-alpha2 by @fontawesome - https://fontawesome.com License - https://fontawesome.com/license (Commercial License) --><path d="M132.2 249.976C124.98 242.663 115.323 238.631 105.041 238.6H104.916C94.634 238.6 84.914 242.632 77.601 249.945L35.347 292.199C28.003 299.543 23.971 309.294 24.002 319.639C24.033 329.921 28.065 339.578 35.347 346.766L165.203 476.622C172.422 483.935 182.079 487.967 192.361 487.998H192.486C202.769 487.998 212.488 483.966 219.801 476.653L262.024 434.399C277.119 419.335 277.119 394.771 262.024 379.707L132.2 249.976ZM250.71 423.086L208.488 465.339C204.206 469.621 198.518 471.996 192.486 471.996C192.455 471.996 192.424 471.996 192.424 471.996C186.423 471.965 180.798 469.621 176.547 465.339L46.629 335.421C42.379 331.202 40.035 325.577 40.004 319.576C39.972 313.544 42.348 307.825 46.661 303.512L88.914 261.258C93.196 256.977 98.884 254.601 104.916 254.601C104.947 254.601 104.978 254.601 104.978 254.601C110.979 254.601 116.604 256.977 120.824 261.227L250.71 391.02C259.555 399.865 259.555 414.241 250.71 423.086ZM240.397 141.685C233.178 134.372 223.489 130.34 213.176 130.34C213.144 130.34 213.144 130.34 213.144 130.34C202.8 130.34 193.08 134.372 185.861 141.685L143.451 183.97C128.543 199.034 128.543 223.536 143.482 238.631L273.369 368.549C280.901 376.019 290.808 379.738 300.653 379.738C310.56 379.738 320.404 376.019 327.905 368.518L370.284 326.139C385.317 311.107 385.317 286.604 370.284 271.572L240.397 141.685ZM358.97 314.826L316.591 357.205C307.841 365.955 293.464 365.955 284.651 357.205L154.827 227.349C146.076 218.504 146.076 204.066 154.795 195.252L197.206 152.967C201.425 148.685 207.081 146.342 213.145 146.342C219.208 146.342 224.833 148.685 229.052 152.967L358.97 282.885C367.784 291.699 367.784 306.012 358.97 314.826ZM483.919 28.081C446.478 -9.36 385.598 -9.36 348.157 28.081C312.622 63.615 310.81 120.277 342.719 157.968L322.373 178.313C319.248 181.439 319.248 186.501 322.373 189.627C323.936 191.189 325.967 191.971 328.03 191.971S332.124 191.189 333.687 189.627L359.47 163.843C362.596 160.718 362.596 155.655 359.47 152.53C328.28 121.339 328.28 70.585 359.47 39.394S441.415 8.204 472.606 39.394S503.796 121.339 472.606 152.53C469.48 155.655 469.48 160.718 472.606 163.843S480.794 166.968 483.919 163.843C521.36 126.402 521.36 65.522 483.919 28.081ZM74.351 426.336L2.344 498.342C-0.781 501.468 -0.781 506.531 2.344 509.656C3.907 511.219 5.938 512 8.001 512S12.095 511.219 13.658 509.656L85.664 437.649C88.789 434.524 88.789 429.461 85.664 426.336S77.476 423.211 74.351 426.336Z"/></svg>