<svg xmlns="http://www.w3.org/2000/svg" viewBox="0 0 384 512"><!-- Font Awesome Pro 6.0.0-alpha2 by @fontawesome - https://fontawesome.com License - https://fontawesome.com/license (Commercial License) --><path d="M255.99 416C253.744 416 251.494 417.355 250.67 420.156C242.168 449.744 224 457.744 224 478.58C224 497.082 238.334 512 256.004 512C273.672 512 288.006 497.082 288.006 478.58C288.006 457.66 269.838 449.826 261.338 420.156C260.58 417.418 258.287 416 255.99 416ZM272.006 478.58C272.006 488.186 264.828 496 256.004 496S240 488.186 240 478.58C240 472.801 242.68 468.586 248.252 460.355C250.682 456.766 253.359 452.811 255.998 448.225C258.648 452.832 261.338 456.795 263.777 460.391C269.482 468.799 272.006 472.762 272.006 478.58ZM127.982 416C125.736 416 123.486 417.355 122.662 420.156C114.162 449.744 95.994 457.744 95.994 478.58C95.994 497.082 110.328 512 127.996 512C145.666 512 160 497.082 160 478.58C160 457.66 141.832 449.826 133.33 420.156C132.572 417.418 130.279 416 127.982 416ZM144 478.58C144 488.186 136.82 496 127.996 496S111.994 488.186 111.994 478.58C111.994 472.801 114.672 468.588 120.244 460.355C122.674 456.766 125.354 452.811 127.992 448.225C130.643 452.832 133.33 456.795 135.77 460.389C141.477 468.799 144 472.762 144 478.58ZM69.33 292.156C68.572 289.418 66.279 288 63.982 288C61.736 288 59.486 289.355 58.662 292.156C50.162 321.744 31.994 329.744 31.994 350.58C31.994 369.082 46.328 384 63.996 384C81.666 384 96 369.082 96 350.58C96 329.66 77.832 321.826 69.33 292.156ZM63.996 368C55.172 368 47.994 360.186 47.994 350.58C47.994 344.801 50.672 340.588 56.244 332.355C58.674 328.766 61.354 324.811 63.992 320.225C66.643 324.832 69.33 328.795 71.77 332.389C77.477 340.799 80 344.762 80 350.58C80 360.186 72.82 368 63.996 368ZM197.33 292.156C196.572 289.418 194.279 288 191.982 288C189.736 288 187.486 289.355 186.662 292.156C178.162 321.744 159.994 329.744 159.994 350.58C159.994 369.082 174.328 384 191.996 384C209.666 384 224 369.082 224 350.58C224 329.66 205.832 321.826 197.33 292.156ZM191.996 368C183.172 368 175.994 360.186 175.994 350.58C175.994 344.801 178.672 340.588 184.244 332.355C186.674 328.766 189.354 324.811 191.992 320.225C194.643 324.832 197.33 328.795 199.77 332.389C205.477 340.799 208 344.762 208 350.58C208 360.186 200.82 368 191.996 368ZM319.982 288C317.736 288 315.486 289.355 314.662 292.156C306.162 321.744 287.994 329.744 287.994 350.58C287.994 369.082 302.328 384 319.996 384C337.666 384 352 369.082 352 350.58C352 329.66 333.832 321.826 325.33 292.156C324.572 289.418 322.279 288 319.982 288ZM336 350.58C336 360.186 328.82 368 319.996 368S303.994 360.186 303.994 350.58C303.994 344.801 306.672 340.588 312.244 332.355C314.674 328.766 317.354 324.811 319.992 320.225C322.643 324.832 325.33 328.795 327.77 332.389C333.477 340.799 336 344.762 336 350.58ZM32 208C36.406 208 40 204.422 40 200C40 128 91.125 65.359 161.594 51.062L168 49.75V24C168 19.594 171.594 16 176 16H208C212.406 16 216 19.594 216 24V49.75L222.406 51.062C292.875 65.359 344 128 344 200C344 204.422 347.594 208 352 208S360 204.422 360 200C360 122.625 306.562 55.031 232 36.812V24C232 10.766 221.219 0 208 0H176C162.781 0 152 10.766 152 24V36.812C77.438 55.031 24 122.625 24 200C24 204.422 27.594 208 32 208ZM376 240H8C3.594 240 0 243.578 0 248S3.594 256 8 256H376C380.406 256 384 252.422 384 248S380.406 240 376 240Z"/></svg>