<svg xmlns="http://www.w3.org/2000/svg" viewBox="0 0 640 512"><!-- Font Awesome Pro 6.0.0-alpha2 by @fontawesome - https://fontawesome.com License - https://fontawesome.com/license (Commercial License) --><path d="M576.834 192.332C533 171.832 474.334 160 416 160H406.891C291.406 109.451 231.129 32 112 32H80C53.49 32 32 53.49 32 80V128C14.326 128 0 142.326 0 160V352C0 369.674 14.326 384 32 384V432C32 458.51 53.49 480 80 480H112C231.129 480 291.406 402.549 406.891 352H416C474.334 352 533 340.166 576.834 319.666C616.334 301.166 640 277.332 640 256C640 234.666 616.334 210.832 576.834 192.332ZM136 49.285C196.254 55.273 241.297 83.234 292.438 115.162C315.797 129.746 340.9 145.418 369.33 160H176C167.377 145.182 153.033 134.273 136 130.061V49.285ZM48 80C48 62.355 62.355 48 80 48H112C114.77 48 117.295 48.34 120 48.428V128H48V80ZM120 463.572C117.295 463.66 114.77 464 112 464H80C62.355 464 48 449.645 48 432V384H120V463.572ZM292.438 396.836C241.297 428.764 196.254 456.727 136 462.715V381.939C153.033 377.727 167.377 366.818 176 352H369.33C340.9 366.58 315.797 382.254 292.438 396.836ZM570.057 305.172C528.166 324.764 472.014 336 416 336H166.801L162.172 343.951C153.408 359.01 137.971 368 120.877 368H32C23.178 368 16 360.822 16 352V264H224C228.406 264 232 260.406 232 256S228.406 248 224 248H16V160C16 151.178 23.178 144 32 144H120.877C137.971 144 153.408 152.99 162.172 168.047L166.801 176H416C472.018 176 528.168 187.234 570.049 206.822C607.318 224.277 624 244.1 624 256S607.318 287.721 570.057 305.172ZM488 216C483.594 216 480 219.594 480 224V288C480 292.406 483.594 296 488 296S496 292.406 496 288V224C496 219.594 492.406 216 488 216Z"/></svg>