<svg xmlns="http://www.w3.org/2000/svg" viewBox="0 0 384 512"><!-- Font Awesome Pro 6.0.0-alpha2 by @fontawesome - https://fontawesome.com License - https://fontawesome.com/license (Commercial License) --><path d="M352.001 136V64H25.309L198.092 250.812C200.624 253.812 200.624 258.188 198.092 261.188L25.309 448H352.001V376C352.001 371.594 355.594 368 360.001 368S368.001 371.594 368.001 376V456C368.001 460.406 364.407 464 360.001 464H7.997C4.872 464 2.028 462.188 0.747 459.344C-0.566 456.531 -0.128 453.188 1.903 450.812L181.499 256L1.903 61.188C-0.128 58.812 -0.566 55.469 0.747 52.656C2.028 49.812 4.872 48 7.997 48H360.001C364.407 48 368.001 51.594 368.001 56V136C368.001 140.406 364.407 144 360.001 144S352.001 140.406 352.001 136Z"/></svg>