<svg xmlns="http://www.w3.org/2000/svg" viewBox="0 0 640 512"><!-- Font Awesome Pro 6.0.0-alpha2 by @fontawesome - https://fontawesome.com License - https://fontawesome.com/license (Commercial License) --><path d="M448.656 292.82C447.594 295.289 447.844 298.133 449.312 300.384C450.812 302.634 453.312 303.978 456 303.978H632C636.406 303.978 640 300.384 640 295.977S636.406 287.976 632 287.976H468.125L511.344 187.119C512.562 184.244 512.031 180.962 509.969 178.65C507.906 176.305 504.719 175.43 501.687 176.305L338.406 225.28C346.437 179.337 351.281 137.488 351.937 110.016C352.844 71.761 327.094 38.632 292.031 32.912C270.875 29.599 249.5 35.381 233.375 49.071C217.25 62.791 208 82.794 208 103.953V159.96C208 164.366 211.594 167.961 216 167.961S224 164.366 224 159.96V103.953C224 87.482 231.188 71.917 243.75 61.26C256.5 50.446 272.781 45.977 289.469 48.727C316.687 53.134 336.656 79.324 335.937 109.641C335.281 138.144 330.031 182.4 321.406 230.406L211.344 263.41C190.531 269.661 176 289.195 176 310.916V430.4C176 457.747 198.25 480 225.594 480C242.656 480 258.156 471.655 267.094 457.653C295.438 413.554 319.906 324.105 335.188 242.97L489.906 196.558L448.656 292.82ZM253.625 449.027C247.656 458.404 237.156 463.998 225.594 463.998C207.062 463.998 192 448.934 192 430.4V310.916C192 296.196 201.844 282.975 215.969 278.725L318.094 248.096C303.156 325.074 280.156 407.772 253.625 449.027ZM10.344 309.635C11.906 311.197 13.953 311.979 16 311.979S20.094 311.197 21.656 309.635L64 267.286L106.344 309.635C107.906 311.197 109.938 311.979 112 311.979S116.094 311.197 117.656 309.635C120.781 306.509 120.781 301.446 117.656 298.321L75.312 255.972L117.656 213.623C120.781 210.497 120.781 205.434 117.656 202.309C114.531 199.183 109.469 199.183 106.344 202.309L64 244.658L21.656 202.309C18.531 199.183 13.469 199.183 10.344 202.309C7.219 205.434 7.219 210.497 10.344 213.623L52.688 255.972L10.344 298.321C7.219 301.446 7.219 306.509 10.344 309.635ZM136 367.986H8C3.578 367.986 0 371.58 0 375.987S3.578 383.988 8 383.988H136C140.406 383.988 144 380.394 144 375.987S140.406 367.986 136 367.986ZM632 367.986H344C339.594 367.986 336 371.58 336 375.987S339.594 383.988 344 383.988H632C636.406 383.988 640 380.394 640 375.987S636.406 367.986 632 367.986Z"/></svg>