<svg xmlns="http://www.w3.org/2000/svg" viewBox="0 0 640 512"><!-- Font Awesome Pro 6.0.0-alpha2 by @fontawesome - https://fontawesome.com License - https://fontawesome.com/license (Commercial License) --><path d="M96 384H64C46.375 384 32 398.375 32 416V480C32 497.625 46.375 512 64 512H96C113.625 512 128 497.625 128 480V416C128 398.375 113.625 384 96 384ZM112 480C112 488.822 104.822 496 96 496H64C55.178 496 48 488.822 48 480V416C48 407.178 55.178 400 64 400H96C104.822 400 112 407.178 112 416V480ZM256 256H224C206.375 256 192 270.375 192 288V480C192 497.625 206.375 512 224 512H256C273.625 512 288 497.625 288 480V288C288 270.375 273.625 256 256 256ZM272 480C272 488.822 264.822 496 256 496H224C215.178 496 208 488.822 208 480V288C208 279.178 215.178 272 224 272H256C264.822 272 272 279.178 272 288V480ZM416 128H384C366.375 128 352 142.375 352 160V480C352 497.625 366.375 512 384 512H416C433.625 512 448 497.625 448 480V160C448 142.375 433.625 128 416 128ZM432 480C432 488.822 424.822 496 416 496H384C375.178 496 368 488.822 368 480V160C368 151.178 375.178 144 384 144H416C424.822 144 432 151.178 432 160V480ZM576 0H544C526.375 0 512 14.375 512 32V480C512 497.625 526.375 512 544 512H576C593.625 512 608 497.625 608 480V32C608 14.375 593.625 0 576 0ZM592 480C592 488.822 584.822 496 576 496H544C535.178 496 528 488.822 528 480V32C528 23.178 535.178 16 544 16H576C584.822 16 592 23.178 592 32V480Z"/></svg>