<svg xmlns="http://www.w3.org/2000/svg" viewBox="0 0 384 512"><!-- Font Awesome Pro 6.0.0-alpha2 by @fontawesome - https://fontawesome.com License - https://fontawesome.com/license (Commercial License) --><path d="M256 0H64C28.75 0 0 28.75 0 64V448C0 483.25 28.75 512 64 512H320C355.25 512 384 483.25 384 448V128L256 0ZM368 448C368 474.467 346.467 496 320 496H64C37.533 496 16 474.467 16 448V64C16 37.533 37.533 16 64 16H249.373L368 134.627V448ZM64 224V416C64 433.75 78.25 448 96 448H288C305.75 448 320 433.75 320 416V224C320 206.25 305.75 192 288 192H96C78.25 192 64 206.25 64 224ZM144 432H96C87.027 432 80 424.971 80 416V368H144V432ZM224 432H160V368H224V432ZM304 416C304 424.971 296.973 432 288 432H240V368H304V416ZM304 352H80V288H304V352ZM240 208H288C296.973 208 304 215.027 304 224V272H240V208ZM160 208H224V272H160V208ZM144 272H80V224C80 215.027 87.027 208 96 208H144V272Z"/></svg>