<svg xmlns="http://www.w3.org/2000/svg" viewBox="0 0 448 512"><!-- Font Awesome Pro 6.0.0-alpha2 by @fontawesome - https://fontawesome.com License - https://fontawesome.com/license (Commercial License) --><path d="M149.99 237.25L144.49 263.125C141.865 275.75 149.99 288 160.992 288H287.008C298.135 288 306.137 275.75 303.512 263.125L298.01 237.25C339.767 214.875 368.02 174.5 368.02 128C368.02 57.25 303.512 0 224 0C144.49 0 79.982 57.25 79.982 128C79.982 174.5 108.235 214.875 149.99 237.25ZM224 16C294.59 16 352.021 66.242 352.021 128C352.021 166.92 329.005 202.488 290.454 223.146C284.178 226.51 280.88 233.613 282.36 240.576L287.846 266.381C288.483 269.447 287.141 271.729 287.008 272L161.568 272.129C160.908 271.732 159.519 269.441 160.14 266.451L165.64 240.576C167.12 233.613 163.822 226.51 157.546 223.146C118.997 202.488 95.981 166.92 95.981 128C95.981 66.242 153.41 16 224 16ZM240.49 384L443.886 271C447.745 268.844 449.136 263.969 446.995 260.125C444.823 256.219 439.964 254.875 436.105 257L224 374.838L11.895 257C8.036 254.875 3.161 256.188 1.005 260.125C-1.136 263.969 0.255 268.844 4.114 271L207.51 384L4.114 497C0.255 499.156 -1.136 504.031 1.005 507.875C2.474 510.531 5.208 512 8.005 512C9.333 512 10.661 511.688 11.895 511L224 393.162L436.105 511C437.339 511.688 438.667 512 439.995 512C442.792 512 445.526 510.531 446.995 507.875C449.136 504.031 447.745 499.156 443.886 497L240.49 384ZM271.999 176C289.643 176 303.998 161.645 303.998 144.002C303.998 126.357 289.643 112.002 271.999 112.002S240 126.357 240 144.002C240 161.645 254.355 176 271.999 176ZM271.999 128.002C280.811 128.002 287.999 135.189 287.999 144.002C287.999 152.812 280.811 160 271.999 160C263.187 160 255.999 152.812 255.999 144.002C255.999 135.189 263.187 128.002 271.999 128.002ZM176.001 176C193.645 176 208 161.645 208 144.002C208 126.357 193.645 112.002 176.001 112.002S144.002 126.357 144.002 144.002C144.002 161.645 158.357 176 176.001 176ZM176.001 128.002C184.813 128.002 192.001 135.189 192.001 144.002C192.001 152.812 184.813 160 176.001 160C167.189 160 160.001 152.812 160.001 144.002C160.001 135.189 167.189 128.002 176.001 128.002Z"/></svg>