<svg xmlns="http://www.w3.org/2000/svg" viewBox="0 0 640 512"><!-- Font Awesome Pro 6.0.0-alpha2 by @fontawesome - https://fontawesome.com License - https://fontawesome.com/license (Commercial License) --><path d="M32 206.031C33.688 206.031 35.375 205.5 36.844 204.406C40.344 201.75 41.031 196.719 38.375 193.188C23.75 173.906 16 151.031 16 127.062C16 65.812 65.812 16 127.062 16C166.25 16 201.812 36.375 222.156 70.469C223.375 72.5 225.406 73.875 227.719 74.281S232.437 74.031 234.219 72.469C254.812 55 279.5 45.75 305.656 45.75C342.844 45.75 377.469 64.375 398.281 95.562C400.687 99.25 405.656 100.187 409.375 97.781C413.062 95.344 414.031 90.375 411.594 86.687C387.812 51.031 348.219 29.75 305.656 29.75C278.625 29.75 253 38.312 230.969 54.625C207.125 20.25 168.938 0 127.062 0C57 0 0 57 0 127.062C0 154.531 8.875 180.75 25.625 202.875C27.188 204.938 29.594 206.031 32 206.031ZM240.719 186.656C238.875 190.656 240.656 195.406 244.656 197.281C248.688 199.031 253.406 197.375 255.281 193.344C272.375 156.187 309.656 132.187 350.25 132.187C374.906 132.187 398.219 140.875 417.594 157.344L424.812 163.469L429.656 155.344C448.812 123.188 482.344 104 519.312 104C577.031 104 624 150.969 624 208.688C624 227.938 618.688 246.312 608.25 263.281C605.938 267.031 607.094 271.969 610.875 274.281C612.187 275.094 613.625 275.469 615.062 275.469C617.75 275.469 620.375 274.125 621.875 271.656C633.719 252.406 640 230.625 640 208.688C640 142.125 585.875 88 519.312 88C479.656 88 443.469 107.094 420.844 139.531C400 124.219 375.781 116.188 350.25 116.188C303.438 116.188 260.438 143.844 240.719 186.656ZM522.812 272C507.469 272 492.312 275.25 477.625 281.688C450.781 236.031 403 208 351.188 208C313.156 208 277.469 222.625 249.812 249.344C222.156 222.625 186.438 208 148.406 208C66.562 208 0 276.188 0 360S66.562 512 148.406 512H522.812C587.438 512 640 458.156 640 392S587.438 272 522.812 272ZM522.812 496H148.406C75.406 496 16 435 16 360S75.406 224 148.406 224C184.688 224 218.625 239 243.969 266.188L249.812 272.5L255.656 266.188C281 239 314.906 224 351.188 224C399.531 224 444 251.531 467.188 295.844L470.875 302.875L477.938 299.25C492.469 291.781 507.594 288 522.812 288C578.594 288 624 334.656 624 392S578.594 496 522.812 496Z"/></svg>