<svg xmlns="http://www.w3.org/2000/svg" viewBox="0 0 640 512"><!-- Font Awesome Pro 6.0.0-alpha2 by @fontawesome - https://fontawesome.com License - https://fontawesome.com/license (Commercial License) --><path d="M504 368C508.406 368 512 364.406 512 360S508.406 352 504 352H36.812C16.5 352 0 368.5 0 388.812V475.188C0 495.5 16.5 512 36.812 512H504C508.406 512 512 508.406 512 504S508.406 496 504 496H240V368H504ZM224 496H36.812C25.344 496 16 486.656 16 475.188V388.812C16 377.344 25.344 368 36.812 368H224V496ZM568 352C563.594 352 560 355.594 560 360V504C560 508.406 563.594 512 568 512S576 508.406 576 504V360C576 355.594 572.406 352 568 352ZM536 352C531.594 352 528 355.594 528 360V504C528 508.406 531.594 512 536 512S544 508.406 544 504V360C544 355.594 540.406 352 536 352ZM600 352C595.594 352 592 355.594 592 360V504C592 508.406 595.594 512 600 512S608 508.406 608 504V360C608 355.594 604.406 352 600 352ZM632 352C627.594 352 624 355.594 624 360V504C624 508.406 627.594 512 632 512S640 508.406 640 504V360C640 355.594 636.406 352 632 352ZM492.438 137.344C464.625 118.781 448 87.75 448 54.312V8C448 3.594 444.406 0 440 0S432 3.594 432 8V54.312C432 93.125 451.281 129.125 483.562 150.656C511.375 169.219 528 200.25 528 233.688V280C528 284.406 531.594 288 536 288S544 284.406 544 280V233.688C544 194.875 524.719 158.875 492.438 137.344ZM588.438 137.344C560.625 118.781 544 87.75 544 54.312V8C544 3.594 540.406 0 536 0S528 3.594 528 8V54.312C528 93.125 547.281 129.125 579.562 150.656C607.375 169.219 624 200.25 624 233.688V280C624 284.406 627.594 288 632 288S640 284.406 640 280V233.688C640 194.875 620.719 158.875 588.438 137.344Z"/></svg>