<svg xmlns="http://www.w3.org/2000/svg" viewBox="0 0 320 512"><!-- Font Awesome Pro 6.0.0-alpha2 by @fontawesome - https://fontawesome.com License - https://fontawesome.com/license (Commercial License) --><path d="M292.342 288H27.658C3.055 288 -9.229 317.773 8.119 335.121L140.582 471.891C145.934 477.297 152.973 480 160.027 480C167.08 480 174.146 477.297 179.553 471.891L311.881 335.121C329.229 317.773 316.945 288 292.342 288ZM300.383 323.996L168.238 460.578C166.031 462.785 163.115 464 160.027 464C156.969 464 154.102 462.805 152.076 460.76L19.434 323.807C14.502 318.877 16.049 313.326 16.943 311.17C17.836 309.014 20.668 304 27.658 304H292.342C299.332 304 302.164 309.014 303.057 311.17C303.951 313.326 305.498 318.877 300.383 323.996Z"/></svg>