<svg xmlns="http://www.w3.org/2000/svg" viewBox="0 0 512 512"><!-- Font Awesome Pro 6.0.0-alpha2 by @fontawesome - https://fontawesome.com License - https://fontawesome.com/license (Commercial License) --><path d="M256 16C123.451 16 16 123.451 16 256S123.451 496 256 496S496 388.549 496 256S388.549 16 256 16ZM256 480C157.082 480 73.084 415.479 43.492 326.367C111.641 342.959 182.744 352 256 352S400.359 342.959 468.508 326.367C438.916 415.479 354.918 480 256 480ZM256 336C180.939 336 108.104 326.396 38.502 308.629C34.406 291.717 32 274.154 32 256C32 132.486 132.486 32 256 32S480 132.486 480 256C480 274.154 477.594 291.717 473.498 308.629C403.895 326.396 331.061 336 256 336ZM192 80C147.818 80 112 115.816 112 160C112 204.182 147.818 240 192 240C236.184 240 272 204.182 272 160C272 115.816 236.184 80 192 80ZM192 224C156.711 224 128 195.289 128 160S156.711 96 192 96C227.291 96 256 124.711 256 160S227.291 224 192 224ZM192 144C183.164 144 176 151.164 176 160S183.164 176 192 176C200.838 176 208 168.836 208 160S200.838 144 192 144Z"/></svg>