<svg xmlns="http://www.w3.org/2000/svg" viewBox="0 0 512 512"><!-- Font Awesome Pro 6.0.0-alpha2 by @fontawesome - https://fontawesome.com License - https://fontawesome.com/license (Commercial License) --><path d="M479.659 234.928L280.64 11.062C274.384 4.025 265.417 0 255.999 0C246.583 0 237.614 4.025 231.359 11.062L32.339 234.928C-14.63 287.762 -9.88 368.623 42.964 415.584C67.323 437.256 97.689 447.918 127.935 447.918C163.228 447.918 198.36 433.412 223.655 404.961L247.999 377.588V496H167.999C163.577 496 159.999 499.578 159.999 504S163.577 512 167.999 512H343.999C348.421 512 351.999 508.422 351.999 504S348.421 496 343.999 496H263.999V377.586L288.345 404.961C310.351 429.736 346.984 448 386.003 448C413.952 448 443.122 438.635 469.034 415.584C521.88 368.623 526.63 287.762 479.659 234.928ZM458.402 403.629C437.536 422.189 412.501 432 386.003 432C353.778 432 320.941 417.568 300.3 394.328L267.956 357.959L255.999 344.516L244.044 357.959L211.696 394.33C190.462 418.217 159.931 431.918 127.935 431.918C100.501 431.918 74.103 421.871 53.593 403.623C31.232 383.752 17.948 356.369 16.194 326.52C14.439 296.67 24.419 267.918 44.298 245.559L243.318 21.693C246.534 18.074 251.157 16 255.999 16C260.843 16 265.466 18.074 268.683 21.693L467.702 245.559C487.579 267.918 497.56 296.67 495.806 326.52C494.05 356.369 480.769 383.752 458.402 403.629Z"/></svg>