<svg xmlns="http://www.w3.org/2000/svg" viewBox="0 0 512 512"><!-- Font Awesome Pro 6.0.0-alpha2 by @fontawesome - https://fontawesome.com License - https://fontawesome.com/license (Commercial License) --><path d="M384 255.625C384 249.625 380.625 244 375.125 241.25L262.625 185L206.25 72.25C203.562 66.812 197.781 64.094 192 64.094S180.438 66.812 177.75 72.25L121.375 185L8.875 241.25C3.375 244 0 249.625 0 255.625C0 261.75 3.375 267.25 8.875 270L121.375 326.375L177.75 439C180.375 444.5 186 447.875 192 447.875C198 447.875 203.625 444.5 206.25 439L262.625 326.375L375.125 270C380.625 267.25 384 261.75 384 255.625ZM255.457 312.07L250.699 314.455L248.318 319.213L192.057 431.838L135.682 319.213L133.301 314.455L128.543 312.07L16.031 255.561L133.301 196.926L135.686 192.156L191.338 80.199C191.396 80.172 191.643 80.094 192 80.094L191.939 79.404L248.314 192.156L250.699 196.926L255.469 199.311L367.957 255.695L255.457 312.07ZM352 104H408V160C408 164.406 411.594 168 416 168S424 164.406 424 160V104H480C484.406 104 488 100.406 488 96S484.406 88 480 88H424V32C424 27.594 420.406 24 416 24S408 27.594 408 32V88H352C347.594 88 344 91.594 344 96S347.594 104 352 104ZM480 408H424V352C424 347.594 420.406 344 416 344S408 347.594 408 352V408H352C347.594 408 344 411.594 344 416S347.594 424 352 424H408V480C408 484.406 411.594 488 416 488S424 484.406 424 480V424H480C484.406 424 488 420.406 488 416S484.406 408 480 408Z"/></svg>