<svg xmlns="http://www.w3.org/2000/svg" viewBox="0 0 512 512"><!-- Font Awesome Pro 6.0.0-alpha2 by @fontawesome - https://fontawesome.com License - https://fontawesome.com/license (Commercial License) --><path d="M408 256H264V72C264 67.594 260.422 64 256 64S248 67.594 248 72V256H104C100.922 256 98.125 257.75 96.797 260.531C95.453 263.312 95.828 266.594 97.75 269L192 386.812V504C192 508.406 195.578 512 200 512S208 508.406 208 504V384C208 382.188 207.375 380.406 206.25 379L120.641 272H391.359L305.75 379C304.625 380.406 304 382.188 304 384V504C304 508.406 307.578 512 312 512S320 508.406 320 504V386.812L414.25 269C416.172 266.594 416.547 263.312 415.203 260.531C413.875 257.75 411.078 256 408 256ZM144 160C152.875 160 160 152.875 160 144S152.875 128 144 128S128 135.125 128 144S135.125 160 144 160ZM16 256C7.125 256 0 263.125 0 272S7.125 288 16 288S32 280.875 32 272S24.875 256 16 256ZM16 128C7.125 128 0 135.125 0 144S7.125 160 16 160S32 152.875 32 144S24.875 128 16 128ZM16 0C7.125 0 0 7.125 0 16S7.125 32 16 32S32 24.875 32 16S24.875 0 16 0ZM368 160C376.875 160 384 152.875 384 144S376.875 128 368 128S352 135.125 352 144S359.125 160 368 160ZM496 32C504.875 32 512 24.875 512 16S504.875 0 496 0S480 7.125 480 16S487.125 32 496 32ZM496 128C487.125 128 480 135.125 480 144S487.125 160 496 160S512 152.875 512 144S504.875 128 496 128ZM432 64C423.125 64 416 71.125 416 80S423.125 96 432 96S448 88.875 448 80S440.875 64 432 64ZM496 256C487.125 256 480 263.125 480 272S487.125 288 496 288S512 280.875 512 272S504.875 256 496 256ZM80 192C71.125 192 64 199.125 64 208S71.125 224 80 224S96 216.875 96 208S88.875 192 80 192ZM432 192C423.125 192 416 199.125 416 208S423.125 224 432 224S448 216.875 448 208S440.875 192 432 192ZM80 64C71.125 64 64 71.125 64 80S71.125 96 80 96S96 88.875 96 80S88.875 64 80 64Z"/></svg>