<svg xmlns="http://www.w3.org/2000/svg" viewBox="0 0 448 512"><!-- Font Awesome Pro 6.0.0-alpha2 by @fontawesome - https://fontawesome.com License - https://fontawesome.com/license (Commercial License) --><path d="M384 32H64C28.654 32 0 60.654 0 96V416C0 451.346 28.654 480 64 480H384C419.346 480 448 451.346 448 416V96C448 60.654 419.346 32 384 32ZM432 416C432 442.467 410.467 464 384 464H64C37.533 464 16 442.467 16 416V96C16 69.533 37.533 48 64 48H384C410.467 48 432 69.533 432 96V416ZM275.121 245.396C292.482 233.936 304 214.307 304 192C304 156.719 275.281 128 240 128H208C172.719 128 144 156.719 144 192C144 214.309 155.516 233.936 172.879 245.396C146.604 256.143 128 281.914 128 312C128 351.688 160.312 384 200 384H248C287.688 384 320 351.688 320 312C320 281.914 301.395 256.141 275.121 245.396ZM160 192C160 165.531 181.531 144 208 144H240C266.469 144 288 165.531 288 192S266.469 240 240 240H208C181.531 240 160 218.469 160 192ZM248 368H200C169.125 368 144 342.875 144 312S169.125 256 200 256H248C278.875 256 304 281.125 304 312S278.875 368 248 368Z"/></svg>