<svg xmlns="http://www.w3.org/2000/svg" viewBox="0 0 448 512"><!-- Font Awesome Pro 6.0.0-alpha2 by @fontawesome - https://fontawesome.com License - https://fontawesome.com/license (Commercial License) --><path d="M64 480H384C419.346 480 448 451.348 448 416V96C448 60.654 419.346 32 384 32H64C28.654 32 0 60.654 0 96V416C0 451.348 28.654 480 64 480ZM16 96C16 69.533 37.533 48 64 48H384C410.467 48 432 69.533 432 96V416C432 442.467 410.467 464 384 464H64C37.533 464 16 442.467 16 416V96ZM131.316 256H176V360C176 373.256 186.746 384 200 384H248C261.254 384 272 373.256 272 360V256H316.684C338.066 256 348.773 230.148 333.654 215.029L240.971 122.346C236.283 117.66 230.143 115.316 224 115.316S211.717 117.66 207.029 122.346L114.346 215.029C99.227 230.148 109.934 256 131.316 256ZM125.66 226.344L218.344 133.66C220.383 131.621 222.762 131.316 224 131.316S227.617 131.621 229.656 133.66L322.34 226.344C325.752 229.756 324.689 233.576 324.076 235.062C323.461 236.547 321.508 240 316.684 240H256V360C256 364.412 252.412 368 248 368H200C195.588 368 192 364.412 192 360V240H131.316C126.492 240 124.539 236.547 123.924 235.062C123.311 233.576 122.248 229.756 125.66 226.344Z"/></svg>