<svg xmlns="http://www.w3.org/2000/svg" viewBox="0 0 448 512"><!-- Font Awesome Pro 6.0.0-alpha2 by @fontawesome - https://fontawesome.com License - https://fontawesome.com/license (Commercial License) --><path d="M232 176H376C380.406 176 384 172.422 384 168S380.406 160 376 160H232C227.594 160 224 163.578 224 168S227.594 176 232 176ZM160.014 232C177.687 232 192.014 217.672 192.014 200V136C192.014 118.326 177.687 104 160.014 104S128.014 118.326 128.014 136V160.006C128.008 160.006 128.006 160 128 160H72C67.594 160 64 163.578 64 168S67.594 176 72 176H128C128.006 176 128.008 175.994 128.014 175.994V200C128.014 217.672 142.34 232 160.014 232ZM160.014 216C151.191 216 144.014 208.822 144.014 200V136C144.014 127.178 151.191 120 160.014 120S176.014 127.178 176.014 136V200C176.014 208.822 168.836 216 160.014 216ZM328 352H376C380.406 352 384 348.422 384 344S380.406 336 376 336H328C323.594 336 320 339.578 320 344S323.594 352 328 352ZM256 408C273.674 408 288 393.672 288 376V312C288 294.326 273.674 280 256 280S224 294.326 224 312V336H72C67.594 336 64 339.578 64 344S67.594 352 72 352H224V376C224 393.672 238.326 408 256 408ZM256 392C247.178 392 240 384.822 240 376V312C240 303.178 247.178 296 256 296S272 303.178 272 312V376C272 384.822 264.822 392 256 392ZM64 480H384C419.346 480 448 451.348 448 416V96C448 60.654 419.346 32 384 32H64C28.654 32 0 60.654 0 96V416C0 451.348 28.654 480 64 480ZM64 464C37.533 464 16 442.467 16 416V96C16 69.533 37.533 48 64 48H384C410.467 48 432 69.533 432 96V416C432 442.467 410.467 464 384 464H64Z"/></svg>