<svg xmlns="http://www.w3.org/2000/svg" viewBox="0 0 448 512"><!-- Font Awesome Pro 6.0.0-alpha2 by @fontawesome - https://fontawesome.com License - https://fontawesome.com/license (Commercial License) --><path d="M252.449 216.566L284.045 184.969C299.166 169.852 288.457 144 267.074 144H136C129.373 144 123.373 146.688 119.029 151.031S112.002 161.371 112 168V299.074C112 320.453 137.852 331.164 152.971 316.047L184.566 284.449L258.105 357.988C267.479 367.359 282.676 367.359 292.047 357.988L325.988 324.047C335.359 314.672 335.361 299.477 325.988 290.105L252.449 216.566ZM314.674 312.734L280.732 346.672C277.613 349.793 272.539 349.793 269.42 346.672L184.566 261.82L141.656 304.73C138.246 308.141 134.424 307.082 132.938 306.469C131.453 305.852 128.002 303.898 128.002 299.074V168C128.002 165.117 129.467 163.219 130.344 162.344C131.219 161.469 133.117 160 136 160H267.074C271.9 160 273.85 163.453 274.467 164.938C275.082 166.422 276.143 170.246 272.732 173.656L229.822 216.566L314.674 301.422C317.795 304.539 317.795 309.613 314.674 312.734ZM384 32H64C28.652 32 0 60.656 0 96V416C0 451.348 28.652 480 64 480H384C419.348 480 448 451.348 448 416V96C448 60.656 419.348 32 384 32ZM432 416C432 442.469 410.469 464 384 464H64C37.531 464 16 442.469 16 416V96C16 69.531 37.531 48 64 48H384C410.469 48 432 69.531 432 96V416Z"/></svg>