<svg xmlns="http://www.w3.org/2000/svg" viewBox="0 0 448 512"><!-- Font Awesome Pro 6.0.0-alpha2 by @fontawesome - https://fontawesome.com License - https://fontawesome.com/license (Commercial License) --><path d="M384 32H64C28.654 32 0 60.654 0 96V416C0 451.346 28.654 480 64 480H384C419.346 480 448 451.346 448 416V96C448 60.654 419.346 32 384 32ZM432 416C432 442.467 410.467 464 384 464H64C37.533 464 16 442.467 16 416V96C16 69.533 37.533 48 64 48H384C410.467 48 432 69.533 432 96V416ZM328 368H137.531L334.031 141.234C336.094 138.875 336.594 135.531 335.281 132.672C333.969 129.828 331.125 128 328 128H120C115.594 128 112 131.578 112 136S115.594 144 120 144H310.469L113.969 370.766C111.906 373.125 111.406 376.469 112.719 379.328C114.031 382.172 116.875 384 120 384H328C332.406 384 336 380.422 336 376S332.406 368 328 368Z"/></svg>