<svg xmlns="http://www.w3.org/2000/svg" viewBox="0 0 448 512"><!-- Font Awesome Pro 6.0.0-alpha2 by @fontawesome - https://fontawesome.com License - https://fontawesome.com/license (Commercial License) --><path d="M248 240H189.297L301.266 142.031C303.781 139.813 304.656 136.313 303.484 133.188S299.328 128 296 128H136C131.578 128 128 131.594 128 136S131.578 144 136 144H274.703L162.734 241.969C160.219 244.187 159.344 247.687 160.516 250.812S164.672 256 168 256H248C278.875 256 304 281.125 304 312S278.875 368 248 368H180.484C163.703 368 148.891 357.312 143.594 341.406C142.188 337.219 137.688 334.875 133.469 336.344C129.281 337.75 127.016 342.281 128.406 346.469C135.875 368.906 156.812 384 180.484 384H248C287.703 384 320 351.688 320 312S287.703 240 248 240ZM384 32H64C28.654 32 0 60.654 0 96V416C0 451.346 28.654 480 64 480H384C419.346 480 448 451.346 448 416V96C448 60.654 419.346 32 384 32ZM432 416C432 442.467 410.467 464 384 464H64C37.533 464 16 442.467 16 416V96C16 69.533 37.533 48 64 48H384C410.467 48 432 69.533 432 96V416Z"/></svg>