<svg xmlns="http://www.w3.org/2000/svg" viewBox="0 0 576 512"><!-- Font Awesome Pro 6.0.0-alpha2 by @fontawesome - https://fontawesome.com License - https://fontawesome.com/license (Commercial License) --><path d="M576 40C576 44.422 572.406 48 568 48H440V184C440 188.422 436.406 192 432 192H296V328C296 332.422 292.406 336 288 336H152V472C152 476.422 148.406 480 144 480H8C3.594 480 0 476.422 0 472S3.594 464 8 464H136V328C136 323.578 139.594 320 144 320H280V184C280 179.578 283.594 176 288 176H424V40C424 35.578 427.594 32 432 32H568C572.406 32 576 35.578 576 40Z"/></svg>