<svg xmlns="http://www.w3.org/2000/svg" viewBox="0 0 576 512"><!-- Font Awesome Pro 6.0.0-alpha2 by @fontawesome - https://fontawesome.com License - https://fontawesome.com/license (Commercial License) --><path d="M512 32H64C28.654 32 0 60.652 0 96V416C0 451.346 28.654 480 64 480H512C547.346 480 576 451.346 576 416V96C576 60.652 547.346 32 512 32ZM560 416C560 442.467 538.467 464 512 464H64C37.533 464 16 442.467 16 416V96C16 69.533 37.533 48 64 48H512C538.467 48 560 69.533 560 96V416ZM384 160H320C315.594 160 312 163.578 312 168V344C312 348.422 315.594 352 320 352H384C436.938 352 480 308.938 480 256S436.938 160 384 160ZM384 336H328V176H384C428.125 176 464 211.891 464 256S428.125 336 384 336ZM193.781 248.172L184.312 245.938C143.625 236.203 123.875 227.078 128.719 204.172C133.312 182.625 165.562 171.797 209.375 177.438C218.562 178.609 229.531 181.031 243.844 185.047C248.031 186.172 252.5 183.75 253.688 179.516C254.906 175.25 252.406 170.844 248.156 169.641C233.062 165.406 221.375 162.828 211.375 161.562C158.406 154.859 119.594 170.188 113.094 200.859C104.125 243.203 151.969 254.656 180.562 261.5L190.156 263.75C234.281 274.047 260.719 282.156 255.281 307.828C250.687 329.375 218.375 340.031 174.594 334.562C160.219 332.797 143.844 327.984 129.375 323.734L122.219 321.641C117.781 320.344 113.5 322.875 112.312 327.109C111.094 331.344 113.531 335.781 117.781 337.016L124.875 339.078C139.906 343.5 156.969 348.516 172.625 350.437C180.937 351.5 188.906 352.016 196.469 352.016C237.125 352.016 265.437 337 270.906 311.141C280 268.281 234.188 257.594 193.781 248.172Z"/></svg>