<svg xmlns="http://www.w3.org/2000/svg" viewBox="0 0 576 512"><!-- Font Awesome Pro 6.0.0-alpha2 by @fontawesome - https://fontawesome.com License - https://fontawesome.com/license (Commercial License) --><path d="M139.886 512C132.824 512 125.793 508.656 121.106 503.031C116.513 497.531 114.669 490.531 115.919 483.281L142.104 328.469L31.331 218.906C24.613 212.281 22.332 202.906 25.238 193.875C28.113 184.781 35.456 178.5 44.83 177.125L197.788 154.5L266.189 13.688C270.345 5.125 278.501 0 287.938 0C297.312 0 305.686 5.25 309.811 13.688L378.212 154.5L531.201 177.125C540.419 178.5 547.918 184.937 550.762 193.906C553.668 202.906 551.387 212.281 544.669 218.906L433.896 328.469L460.081 483.281C461.3 490.594 459.456 497.562 454.894 503C447.801 511.625 434.895 514.5 424.802 509.094L288 436.062L151.198 509.094C147.667 511 143.854 512 139.886 512ZM280.563 20.688L208.475 169.062L47.174 192.938C39.498 194.107 38.234 203.242 42.581 207.531L159.291 322.969L131.668 485.969C130.333 494.072 138.742 497.699 143.573 495L288 417.938L432.333 494.969C437.408 497.769 445.613 493.905 444.301 485.938L416.709 322.969L533.419 207.531C537.796 203.212 536.345 194.094 528.826 192.938L367.525 169.062L295.437 20.687C292.502 14.754 283.818 14.07 280.563 20.688Z"/></svg>