<svg xmlns="http://www.w3.org/2000/svg" viewBox="0 0 576 512"><!-- Font Awesome Pro 6.0.0-alpha2 by @fontawesome - https://fontawesome.com License - https://fontawesome.com/license (Commercial License) --><path d="M263.278 17.969L211.903 176.219L46.912 176.219C35.672 176.219 25.057 182.906 21.43 193.544C17.728 204.403 21.363 215.831 30.606 222.562L165.106 320.375L113.731 478.625C111.153 486.562 112.434 494.875 117.247 501.5C125.309 512.562 141.637 515.531 153.137 507.281L281.048 414.261C285.188 411.25 287.637 406.44 287.637 401.321V10.141C287.637 4.279 281.476 0.277 276.214 2.859C270.19 5.816 265.506 11.126 263.278 17.969ZM143.762 494.312C136.446 499.592 125.973 492.748 128.95 483.562L183.919 314.25L40.012 209.625C32.46 204.139 36.36 192.219 45.653 192.219H223.528L271.637 44.035V401.295L143.762 494.312Z"/></svg>