<svg xmlns="http://www.w3.org/2000/svg" viewBox="0 0 576 512"><!-- Font Awesome Pro 6.0.0-alpha2 by @fontawesome - https://fontawesome.com License - https://fontawesome.com/license (Commercial License) --><path d="M439.968 248C435.563 248 431.97 251.578 431.97 256V368H144.035V256C144.035 251.578 140.443 248 136.037 248S128.039 251.578 128.039 256V376C128.039 380.422 131.632 384 136.037 384H439.968C444.373 384 447.966 380.422 447.966 376V256C447.966 251.578 444.373 248 439.968 248ZM547.592 103.805L490.281 13.127C485.223 5.051 476.042 0 466.357 0H109.617C99.928 0 90.762 5.031 85.689 13.131L28.378 103.805C13.729 126.994 11.976 155.82 23.688 180.92C32.166 199.078 46.487 212.229 64.054 218.906V464C64.054 490.51 85.541 512 112.043 512H463.963C490.464 512 511.952 490.51 511.952 464V218.891C529.526 212.215 543.827 199.07 552.302 180.945C564.034 155.857 562.272 127.021 547.592 103.805ZM495.955 464C495.955 481.645 481.603 496 463.963 496H112.043C94.402 496 80.05 481.645 80.05 464V223.139C80.144 223.15 80.222 223.195 80.312 223.207C84.28 223.725 88.337 224 92.399 224C117.182 224 140.938 213.441 157.575 195.031C174.212 213.441 197.957 224 222.728 224C247.512 224 271.268 213.441 287.901 195.031C304.538 213.441 328.283 224 353.054 224C377.842 224 401.594 213.441 418.231 195.029C434.961 213.441 458.718 224 483.411 224C487.551 224 491.519 223.725 495.491 223.207C495.651 223.186 495.791 223.109 495.955 223.086V464ZM537.813 174.168C529.17 192.654 512.979 204.746 493.421 207.342C490.129 207.771 486.84 208 483.411 208C463.213 208 443.772 199.35 430.068 184.27L418.2 171.205L406.362 184.303C392.756 199.361 373.323 208 353.054 208C332.801 208 313.376 199.361 299.77 184.303L287.901 171.168L276.033 184.305C262.426 199.363 242.997 208 222.728 208C202.471 208 183.05 199.361 169.444 184.303L157.575 171.17L145.707 184.303C132.101 199.361 112.668 208 92.399 208C89.036 208 85.678 207.771 82.444 207.35C62.937 204.725 46.808 192.625 38.185 174.154C28.788 154.018 30.175 130.914 41.899 112.355L99.249 21.623C101.42 18.154 105.396 16 109.617 16H466.357C470.578 16 474.554 18.154 476.761 21.678L534.072 112.359C545.823 130.941 547.221 154.047 537.813 174.168Z"/></svg>