<svg xmlns="http://www.w3.org/2000/svg" viewBox="0 0 512 512"><!-- Font Awesome Pro 6.0.0-alpha2 by @fontawesome - https://fontawesome.com License - https://fontawesome.com/license (Commercial License) --><path d="M256 136C189.725 136 136 189.725 136 256C136 322.273 189.725 376 256 376S376 322.273 376 256C376 189.725 322.275 136 256 136ZM256 360C198.654 360 152 313.346 152 256S198.654 152 256 152S360 198.654 360 256S313.346 360 256 360ZM256 112C260.422 112 264 108.422 264 104V8C264 3.578 260.422 0 256 0S248 3.578 248 8V104C248 108.422 251.578 112 256 112ZM256 400C251.578 400 248 403.578 248 408V504C248 508.422 251.578 512 256 512S264 508.422 264 504V408C264 403.578 260.422 400 256 400ZM504 248H408C403.578 248 400 251.578 400 256S403.578 264 408 264H504C508.422 264 512 260.422 512 256S508.422 248 504 248ZM112 256C112 251.578 108.422 248 104 248H8C3.578 248 0 251.578 0 256S3.578 264 8 264H104C108.422 264 112 260.422 112 256ZM363.484 156.516C365.531 156.516 367.578 155.734 369.141 154.172L421.656 101.656C424.781 98.531 424.781 93.469 421.656 90.344S413.469 87.219 410.344 90.344L357.828 142.859C354.703 145.984 354.703 151.047 357.828 154.172C359.391 155.734 361.438 156.516 363.484 156.516ZM142.859 357.828L90.344 410.344C87.219 413.469 87.219 418.531 90.344 421.656C91.906 423.219 93.953 424 96 424S100.094 423.219 101.656 421.656L154.172 369.141C157.297 366.016 157.297 360.953 154.172 357.828S145.984 354.703 142.859 357.828ZM369.141 357.828C366.016 354.703 360.953 354.703 357.828 357.828S354.703 366.016 357.828 369.141L410.344 421.656C411.906 423.219 413.953 424 416 424S420.094 423.219 421.656 421.656C424.781 418.531 424.781 413.469 421.656 410.344L369.141 357.828ZM142.859 154.172C144.422 155.734 146.469 156.516 148.516 156.516S152.609 155.734 154.172 154.172C157.297 151.047 157.297 145.984 154.172 142.859L101.656 90.344C98.531 87.219 93.469 87.219 90.344 90.344S87.219 98.531 90.344 101.656L142.859 154.172Z"/></svg>