<svg xmlns="http://www.w3.org/2000/svg" viewBox="0 0 640 512"><!-- Font Awesome Pro 6.0.0-alpha2 by @fontawesome - https://fontawesome.com License - https://fontawesome.com/license (Commercial License) --><path d="M129.281 260.562C131.75 264.219 136.75 265.031 140.406 262.578C144.031 260.047 144.938 255.062 142.406 251.438L81.219 163.266C79.312 160.531 80.125 157.828 80.531 156.797C80.969 155.781 82.313 153.328 85.594 152.734L191.219 133.641C194.5 133.047 197.062 130.469 197.656 127.188L216.719 21.609C217.312 18.297 219.781 16.953 220.812 16.531S224.531 15.313 227.281 17.234L315.437 78.406C318.187 80.313 321.812 80.313 324.562 78.406L412.719 17.234C415.469 15.313 418.187 16.109 419.187 16.531C420.219 16.953 422.687 18.297 423.281 21.594L442.344 127.188C442.937 130.469 445.5 133.047 448.781 133.641L554.406 152.734C557.687 153.328 559.031 155.781 559.469 156.813C559.875 157.844 560.656 160.531 558.781 163.266L497.594 251.438C495.062 255.063 495.969 260.047 499.594 262.578C501 263.531 502.562 264 504.156 264C506.688 264 509.188 262.797 510.719 260.562L571.906 172.391C576.344 166 577.219 157.875 574.25 150.687C571.25 143.484 564.906 138.359 557.25 136.984L457.094 118.875L439.031 18.734C437.625 11.062 432.5 4.719 425.281 1.734S409.938 -0.344 403.594 4.078L320 62.094L236.406 4.078C230.031 -0.344 221.906 -1.234 214.719 1.734C207.5 4.719 202.375 11.062 200.969 18.75L182.906 118.875L82.75 136.984C75.094 138.359 68.75 143.484 65.75 150.672C62.781 157.875 63.656 166 68.094 172.391L129.281 260.562ZM320 144C258.25 144 208 194.25 208 256C208 260.422 211.594 264 216 264S224 260.422 224 256C224 203.062 267.062 160 320 160S416 203.062 416 256C416 260.422 419.594 264 424 264S432 260.422 432 256C432 194.25 381.75 144 320 144ZM72 336H440C444.406 336 448 332.422 448 328S444.406 320 440 320H72C67.594 320 64 323.578 64 328S67.594 336 72 336ZM480 328C480 332.422 483.594 336 488 336H632C636.406 336 640 332.422 640 328S636.406 320 632 320H488C483.594 320 480 323.578 480 328ZM216 496H72C67.594 496 64 499.578 64 504S67.594 512 72 512H216C220.406 512 224 508.422 224 504S220.406 496 216 496ZM632 496H264C259.594 496 256 499.578 256 504S259.594 512 264 512H632C636.406 512 640 508.422 640 504S636.406 496 632 496ZM576 416C576 411.578 572.406 408 568 408H8C3.594 408 0 411.578 0 416S3.594 424 8 424H568C572.406 424 576 420.422 576 416Z"/></svg>