<svg xmlns="http://www.w3.org/2000/svg" viewBox="0 0 512 512"><!-- Font Awesome Pro 6.0.0-alpha2 by @fontawesome - https://fontawesome.com License - https://fontawesome.com/license (Commercial License) --><path d="M449.907 255.988L507.923 172.379C512.361 165.973 513.236 157.864 510.252 150.661C507.267 143.473 500.908 138.348 493.252 136.973L393.126 118.864L375.016 18.74C373.641 11.084 368.516 4.725 361.313 1.741C354.126 -1.228 346.016 -0.337 339.594 4.069L256 62.084L172.39 4.084C166.031 -0.369 157.89 -1.228 150.687 1.741C143.484 4.725 138.359 11.069 136.984 18.74L118.874 118.864L18.748 136.973C11.092 138.348 4.733 143.473 1.748 150.661C-1.236 157.864 -0.361 165.973 4.077 172.379L62.093 255.988L4.092 339.596C-0.361 345.987 -1.236 354.096 1.748 361.299C4.733 368.502 11.077 373.627 18.748 375.002L118.874 393.095L136.984 493.235C138.359 500.907 143.484 507.25 150.687 510.235C153.515 511.406 156.484 511.985 159.421 511.985C163.984 511.985 168.515 510.594 172.39 507.907L256 449.892L339.61 507.891C346 512.36 354.126 513.25 361.313 510.235C368.516 507.25 373.641 500.907 375.016 493.235L393.126 393.095L493.252 375.002C500.923 373.627 507.267 368.502 510.252 361.299C513.236 354.096 512.361 345.987 507.923 339.596L449.907 255.988ZM495.47 355.174C495.048 356.205 493.705 358.658 490.408 359.252L384.813 378.33C381.532 378.924 378.954 381.502 378.36 384.783L359.266 490.391C358.673 493.688 356.219 495.032 355.188 495.454C354.188 495.891 351.469 496.657 348.735 494.75L260.563 433.579C257.812 431.673 254.187 431.673 251.437 433.579L163.265 494.766C160.515 496.61 157.812 495.86 156.812 495.454C155.781 495.032 153.327 493.688 152.734 490.391L133.64 384.783C133.046 381.502 130.468 378.924 127.187 378.33L21.592 359.252C18.295 358.658 16.952 356.205 16.53 355.174C16.108 354.143 15.311 351.471 17.233 348.721L78.405 260.55C80.296 257.8 80.296 254.175 78.405 251.425L17.233 163.254C15.311 160.504 16.108 157.817 16.53 156.786C16.952 155.77 18.295 153.317 21.592 152.723L127.187 133.63C130.468 133.036 133.046 130.458 133.64 127.177L152.734 21.584C153.327 18.287 155.781 16.944 156.812 16.522C157.328 16.303 158.281 15.99 159.453 15.99C160.593 15.99 161.921 16.287 163.265 17.225L251.437 78.396C254.188 80.302 257.812 80.302 260.563 78.396L348.719 17.225C351.485 15.303 354.172 16.1 355.188 16.522C356.219 16.944 358.673 18.287 359.266 21.584L378.36 127.177C378.954 130.458 381.532 133.036 384.813 133.63L490.408 152.723C493.705 153.317 495.048 155.77 495.47 156.786C495.892 157.817 496.689 160.504 494.767 163.254L433.595 251.425C431.704 254.175 431.704 257.8 433.595 260.55L494.767 348.721H494.783C496.689 351.471 495.892 354.143 495.47 355.174ZM256 143.989C194.25 143.989 143.999 194.238 143.999 255.988S194.25 367.986 256 367.986S368.001 317.737 368.001 255.988S317.75 143.989 256 143.989ZM256 351.986C203.062 351.986 159.999 308.924 159.999 255.988S203.062 159.989 256 159.989S352.001 203.051 352.001 255.988S308.938 351.986 256 351.986Z"/></svg>