<svg xmlns="http://www.w3.org/2000/svg" viewBox="0 0 576 512"><!-- Font Awesome Pro 6.0.0-alpha2 by @fontawesome - https://fontawesome.com License - https://fontawesome.com/license (Commercial License) --><path d="M568 506.109H8C3.594 506.109 0 509.687 0 514.109S3.594 522.109 8 522.109H568C572.406 522.109 576 518.531 576 514.109S572.406 506.109 568 506.109ZM80.219 470.672C82.719 474.297 87.719 475.141 91.344 472.687C94.969 470.172 95.875 465.187 93.344 461.547L41.312 386.531C39.281 383.594 40.125 380.719 40.562 379.625C41.031 378.516 42.469 375.891 45.999 375.25L155 355.547C158.281 354.953 160.844 352.375 161.438 349.094L181.156 240.094C181.781 236.578 184.406 235.125 185.5 234.672S189.469 233.344 192.438 235.422L283.438 298.578C286.188 300.484 289.813 300.484 292.562 298.578L383.562 235.422C386.531 233.328 389.375 234.203 390.5 234.672C391.594 235.125 394.219 236.578 394.844 240.094L414.562 349.094C415.156 352.375 417.719 354.953 421 355.547L530 375.25C533.531 375.891 534.969 378.516 535.437 379.625C535.875 380.719 536.719 383.594 534.687 386.531L482.656 461.547C480.125 465.188 481.031 470.172 484.656 472.688C486.062 473.641 487.625 474.109 489.219 474.109C491.75 474.109 494.25 472.906 495.781 470.672L547.812 395.656C552.344 389.125 553.25 380.844 550.219 373.5S540.687 360.922 532.875 359.5L429.312 340.781L410.594 237.25C409.188 229.437 403.969 222.937 396.625 219.891C389.219 216.891 381 217.75 374.438 222.266L288 282.266L201.562 222.266C195.031 217.719 186.75 216.859 179.375 219.891C172.031 222.937 166.812 229.437 165.406 237.25L146.688 340.781L43.125 359.5C35.312 360.922 28.812 366.156 25.781 373.5S23.656 389.125 28.187 395.656L80.219 470.672ZM288 362.109C229.156 362.109 179.156 406.391 171.719 465.109C171.156 469.484 174.281 473.484 178.656 474.047C183.188 474.531 187.031 471.469 187.594 467.109C194.031 416.375 237.188 378.109 288 378.109S381.969 416.375 388.406 467.109C388.906 471.156 392.375 474.109 396.344 474.109C396.656 474.109 397 474.094 397.344 474.047C401.719 473.484 404.844 469.484 404.281 465.109C396.844 406.391 346.844 362.109 288 362.109ZM197.406 104L280 28.301V218.109C280 222.531 283.594 226.109 288 226.109S296 222.531 296 218.109V28.301L378.594 104C380.125 105.422 382.062 106.109 384 106.109C386.156 106.109 388.312 105.234 389.906 103.516C392.875 100.266 392.656 95.203 389.406 92.219L293.406 4.219C290.344 1.406 285.656 1.406 282.594 4.219L186.594 92.219C183.344 95.203 183.125 100.266 186.094 103.516C189.125 106.797 194.219 107.016 197.406 104Z"/></svg>