<svg xmlns="http://www.w3.org/2000/svg" viewBox="0 0 576 512"><!-- Font Awesome Pro 6.0.0-alpha2 by @fontawesome - https://fontawesome.com License - https://fontawesome.com/license (Commercial License) --><path d="M568 504H8C3.594 504 0 507.578 0 512S3.594 520 8 520H568C572.406 520 576 516.422 576 512S572.406 504 568 504ZM80.219 468.562C82.719 472.187 87.719 473.031 91.344 470.578C94.969 468.062 95.875 463.078 93.344 459.438L41.312 384.422C39.281 381.484 40.125 378.609 40.562 377.516C41.031 376.406 42.469 373.781 45.999 373.141L155 353.438C158.281 352.844 160.844 350.266 161.438 346.984L181.156 237.984C181.781 234.469 184.406 233.016 185.5 232.562C186.562 232.109 189.438 231.234 192.438 233.312L283.438 296.469C286.188 298.375 289.813 298.375 292.562 296.469L383.562 233.312C386.531 231.219 389.406 232.094 390.5 232.562C391.594 233.016 394.219 234.469 394.844 237.984L414.562 346.984C415.156 350.266 417.719 352.844 421 353.438L529.999 373.141C533.531 373.781 534.969 376.406 535.437 377.516C535.875 378.609 536.719 381.484 534.687 384.422L482.656 459.438C480.125 463.078 481.031 468.063 484.656 470.578C486.062 471.531 487.625 472 489.219 472C491.75 472 494.25 470.797 495.781 468.562L547.812 393.547C552.344 387.016 553.25 378.734 550.219 371.391S540.687 358.812 532.875 357.391L429.312 338.672L410.594 235.141C409.188 227.328 403.969 220.828 396.625 217.781C389.219 214.781 380.969 215.641 374.438 220.156L288 280.156L201.562 220.156C195.031 215.609 186.75 214.75 179.375 217.781C172.031 220.828 166.812 227.328 165.406 235.141L146.688 338.672L43.125 357.391C35.312 358.812 28.812 364.047 25.781 371.391S23.656 387.016 28.187 393.547L80.219 468.562ZM288 360C229.156 360 179.156 404.281 171.719 463C171.156 467.375 174.281 471.375 178.656 471.938C183.281 472.422 187.062 469.359 187.594 465C194.031 414.266 237.188 376 288 376S381.969 414.266 388.406 465C388.906 469.047 392.375 472 396.344 472C396.656 472 397 471.984 397.344 471.938C401.719 471.375 404.844 467.375 404.281 463C396.844 404.281 346.844 360 288 360ZM282.594 221.891C284.125 223.297 286.062 224 288 224S291.875 223.297 293.406 221.891L389.406 133.891C392.656 130.906 392.875 125.844 389.906 122.594C386.906 119.328 381.844 119.109 378.594 122.109L296 197.809V8C296 3.578 292.406 0 288 0S280 3.578 280 8V197.809L197.406 122.109C194.188 119.109 189.125 119.328 186.094 122.594C183.125 125.844 183.344 130.906 186.594 133.891L282.594 221.891Z"/></svg>