<svg xmlns="http://www.w3.org/2000/svg" viewBox="0 0 512 512"><!-- Font Awesome Pro 6.0.0-alpha2 by @fontawesome - https://fontawesome.com License - https://fontawesome.com/license (Commercial License) --><path d="M502.789 9.103C491.071 -2.695 471.636 -3.07 459.543 8.243L221.132 227.204C217.882 230.189 217.664 235.252 220.632 238.502C223.663 241.768 228.725 241.987 231.943 238.987L470.417 19.979C476.354 14.525 485.759 14.65 491.477 20.401C497.32 26.23 497.508 35.512 491.852 41.559L272.939 280.007C269.97 283.257 270.189 288.32 273.439 291.305C274.97 292.711 276.907 293.414 278.844 293.414C281 293.414 283.156 292.539 284.75 290.82L503.601 52.42C515.1 40.075 514.756 21.042 502.789 9.103ZM181.636 234.314C178.512 231.189 173.45 231.189 170.325 234.314C167.2 237.44 167.2 242.503 170.325 245.628L176.668 251.972L101.551 327.105L99.364 324.918C96.364 321.917 91.053 321.917 88.053 324.918L11.436 401.582C4.062 408.958 0 418.74 0 429.163C0 439.57 4.062 449.368 11.436 456.729L55.244 500.577C62.618 507.953 72.43 512 82.835 512S103.051 507.937 110.394 500.577L187.042 423.913C188.542 422.412 189.386 420.381 189.386 418.256C189.386 416.13 188.542 414.099 187.042 412.599L184.863 410.419L259.971 335.294L266.315 341.638C267.877 343.201 269.908 343.982 271.97 343.982C274.032 343.982 276.063 343.201 277.626 341.638C280.75 338.513 280.75 333.45 277.626 330.324L181.636 234.314ZM99.083 489.263C90.365 497.967 75.211 497.936 66.555 489.263L22.748 445.415C18.404 441.071 15.998 435.289 15.998 429.163C15.998 423.022 18.404 417.24 22.748 412.896L93.708 341.888L170.075 418.256L99.083 489.263ZM173.549 399.107L112.865 338.417L130.119 321.159L190.799 381.853L173.549 399.107ZM202.111 370.54L141.43 309.846L159.045 292.227L219.726 352.921L202.111 370.54ZM231.037 341.607L170.356 280.913L187.979 263.286L248.66 323.98L231.037 341.607Z"/></svg>