<svg xmlns="http://www.w3.org/2000/svg" viewBox="0 0 640 512"><!-- Font Awesome Pro 6.0.0-alpha2 by @fontawesome - https://fontawesome.com License - https://fontawesome.com/license (Commercial License) --><path d="M320 355.647C275.891 355.647 240 391.556 240 435.685V507.718C240 512.142 243.578 515.722 248 515.722S256 512.142 256 507.718V435.685C256 400.372 284.703 371.655 320 371.655S384 400.372 384 435.685V507.718C384 512.142 387.578 515.722 392 515.722S400 512.142 400 507.718V435.685C400 391.556 364.109 355.647 320 355.647ZM345.766 13.142C330.828 0.581 309.172 0.581 294.234 13.142L174.234 114.198C165.188 121.823 160 132.964 160 144.79V507.722C160 512.143 163.578 515.722 168 515.722S176 512.143 176 507.722V144.79C176 137.698 179.109 131.011 184.547 126.448L304.547 25.392C313.484 17.86 326.516 17.86 335.453 25.392L455.453 126.448C460.891 131.011 464 137.698 464 144.79V507.722C464 512.143 467.578 515.722 472 515.722S480 512.143 480 507.722V144.79C480 132.964 474.812 121.823 465.766 114.198L345.766 13.142ZM90.656 204.13C85.969 198.679 78.281 195.538 72.031 195.741C64.859 195.866 58.172 199.147 53.688 204.739L5.25 265.284C1.859 269.532 0 274.845 0 280.267V507.722C0 512.143 3.578 515.722 8 515.722S16 512.143 16 507.722V280.267C16 278.454 16.625 276.673 17.75 275.267L66.188 214.739C68.234 212.177 70.891 211.77 72.297 211.739C73.266 211.739 76.359 212.052 78.5 214.536L113.922 255.862C116.828 259.206 121.875 259.597 125.203 256.737C128.563 253.862 128.953 248.815 126.078 245.456L90.656 204.13ZM634.75 265.268L586.312 204.739C581.828 199.147 575.141 195.866 567.969 195.741C561.75 195.569 554.016 198.679 549.344 204.13L513.922 245.456C511.047 248.815 511.438 253.862 514.797 256.737C518.141 259.628 523.188 259.206 526.078 255.862L561.5 214.536C563.563 212.13 566.141 211.739 567.578 211.739C569.953 211.958 571.719 212.114 573.813 214.739L622.25 275.251C623.375 276.673 624 278.454 624 280.267V507.722C624 512.143 627.578 515.722 632 515.722S640 512.143 640 507.722V280.267C640 274.845 638.141 269.532 634.75 265.268ZM249.078 235.753C250.516 238.222 253.141 239.737 256 239.737H292.492L313.047 275.704C314.484 278.204 317.125 279.735 320 279.735S325.516 278.204 326.953 275.704L347.508 239.737H384C386.859 239.737 389.484 238.222 390.922 235.753C392.344 233.286 392.359 230.239 390.953 227.77L372.65 195.741L390.953 163.712C392.359 161.243 392.344 158.196 390.922 155.727C389.484 153.259 386.859 151.743 384 151.743H347.506L326.953 115.776C324.078 110.776 315.922 110.776 313.047 115.776L292.494 151.743H256C253.141 151.743 250.516 153.259 249.078 155.727C247.656 158.196 247.641 161.243 249.047 163.712L267.35 195.741L249.047 227.77C247.641 230.239 247.656 233.286 249.078 235.753ZM320 255.612L310.928 239.737H329.072L320 255.612ZM370.219 167.743L363.434 179.614L356.65 167.743H370.219ZM363.434 211.868L370.219 223.739H356.648L363.434 211.868ZM320 135.87L329.072 151.743H310.928L320 135.87ZM301.783 167.743H338.217L354.217 195.741L338.217 223.739H301.783L285.783 195.741L301.783 167.743ZM283.35 167.743L276.566 179.614L269.781 167.743H283.35ZM276.566 211.868L283.352 223.739H269.781L276.566 211.868Z"/></svg>