<svg xmlns="http://www.w3.org/2000/svg" viewBox="0 0 512 512"><!-- Font Awesome Pro 6.0.0-alpha2 by @fontawesome - https://fontawesome.com License - https://fontawesome.com/license (Commercial License) --><path d="M448 32H64C28.654 32 0 60.654 0 96V416C0 451.346 28.654 480 64 480H448C483.346 480 512 451.346 512 416V96C512 60.654 483.346 32 448 32ZM248 464H64C37.533 464 16 442.467 16 416V304H248V464ZM248 288H16V160H248V288ZM496 416C496 442.467 474.467 464 448 464H264V304H496V416ZM496 288H264V160H496V288ZM496 144H16V96C16 69.533 37.533 48 64 48H448C474.467 48 496 69.533 496 96V144Z"/></svg>