<svg xmlns="http://www.w3.org/2000/svg" viewBox="0 0 512 512"><!-- Font Awesome Pro 6.0.0-alpha2 by @fontawesome - https://fontawesome.com License - https://fontawesome.com/license (Commercial License) --><path d="M416.008 320C363.014 320 320.016 362.998 320.016 415.998C320.016 468.996 363.014 511.994 416.008 511.994C469.004 511.994 512 468.996 512 415.998C512 362.998 469.004 320 416.008 320ZM416.008 495.994C371.901 495.994 336.016 460.107 336.016 415.998C336.016 371.887 371.901 336 416.008 336S496 371.887 496 415.998C496 460.107 460.116 495.994 416.008 495.994ZM310.538 472.83C306.877 473.363 303.159 473.656 299.389 473.656C278.018 473.656 257.928 465.336 242.817 450.229L187.862 395.283C179.399 386.82 168.551 391.477 164.549 396.01L81.315 490.287C75.653 496.768 64.932 498.434 58.075 491.621L20.379 453.934C12.534 446.037 16.444 435.307 21.776 430.646L116.01 347.48C120.803 343.254 125.053 332.484 116.739 324.172L61.782 269.227C30.54 237.988 30.54 187.342 61.782 156.104L71.293 146.594L292.741 368C295.866 371.123 300.93 371.123 304.055 368C307.18 364.875 307.18 359.811 304.055 356.688L82.608 135.281L137.913 79.986C176.014 41.891 226.764 17.998 280.616 16.129C338.952 14.104 394.122 35.879 435.165 76.914C494.768 136.508 510.495 223.539 482.491 297.693C478.971 307.012 493.883 312.787 497.37 303.615C527.741 223.707 510.854 129.965 446.479 65.602C402.737 21.867 345.407 0 288.073 0C230.743 0 173.413 21.867 129.67 65.602L50.465 144.789C12.971 182.275 12.971 243.055 50.465 280.541L105.422 335.484L11.186 418.652C-2.826 430.895 -3.82 452.281 9.028 465.209L46.799 502.975C52.885 509.02 60.844 512 68.844 512C77.84 512 86.883 508.232 93.364 500.816L176.547 406.598L231.5 461.541C250.249 480.285 274.819 489.658 299.389 489.658C304.161 489.658 308.905 489.172 313.61 488.357C323.206 486.695 320.469 471.387 310.538 472.83Z"/></svg>