<svg xmlns="http://www.w3.org/2000/svg" viewBox="0 0 512 512"><!-- Font Awesome Pro 6.0.0-alpha2 by @fontawesome - https://fontawesome.com License - https://fontawesome.com/license (Commercial License) --><path d="M493.254 50.744C481.674 39.164 465.674 32 448 32H64C46.326 32 30.326 39.164 18.746 50.744C7.164 62.326 0 78.326 0 96V416C0 433.674 7.164 449.674 18.746 461.254C30.326 472.836 46.326 480 64 480H448C465.674 480 481.674 472.836 493.254 461.254C504.836 449.674 512 433.674 512 416V96C512 78.326 504.836 62.326 493.254 50.744ZM136 464H64C51.178 464 39.125 459.008 30.061 449.941C20.994 440.875 16 428.82 16 416V344H136V464ZM136 328H16V184H136V328ZM136 168H16V96C16 83.18 20.994 71.125 30.061 62.059C39.125 52.992 51.178 48 64 48H136V168ZM496 416C496 428.82 491.006 440.875 481.939 449.941C472.875 459.008 460.822 464 448 464H152V344H496V416ZM496 328H152V184H496V328ZM496 168H152V48H448C460.822 48 472.875 52.992 481.939 62.059C491.006 71.125 496 83.18 496 96V168Z"/></svg>