<svg xmlns="http://www.w3.org/2000/svg" viewBox="0 0 640 512"><!-- Font Awesome Pro 6.0.0-alpha2 by @fontawesome - https://fontawesome.com License - https://fontawesome.com/license (Commercial License) --><path d="M616 480H256C132.5 480 32 379.516 32 256S132.5 32 256 32S480 132.484 480 256C480 317.875 455.312 375.484 410.469 418.203C407.281 421.25 407.156 426.328 410.219 429.516C413.219 432.703 418.281 432.828 421.531 429.797C469.562 384.016 496 322.297 496 256C496 123.656 388.344 16 256 16S16 123.656 16 256S123.656 496 256 496H616C620.406 496 624 492.422 624 488S620.406 480 616 480ZM152 256C152 313.344 198.656 360 256 360S360 313.344 360 256S313.344 152 256 152S152 198.656 152 256ZM344 256C344 304.531 304.531 344 256 344S168 304.531 168 256S207.469 168 256 168S344 207.469 344 256Z"/></svg>