<svg xmlns="http://www.w3.org/2000/svg" viewBox="0 0 576 512"><!-- Font Awesome Pro 6.0.0-alpha2 by @fontawesome - https://fontawesome.com License - https://fontawesome.com/license (Commercial License) --><path d="M512 288H64C28.654 288 0 316.652 0 352V384C0 437.02 42.98 480 96 480H480C533.02 480 576 437.02 576 384V352C576 316.652 547.346 288 512 288ZM416 328C416 314.766 426.781 304 440 304H488C501.219 304 512 314.766 512 328V344C512 366.062 494.062 384 472 384H456C433.938 384 416 366.062 416 344V328ZM296 328C296 314.766 306.781 304 320 304H376C389.219 304 400 314.766 400 328V344C400 366.062 382.062 384 360 384H336C313.938 384 296 366.062 296 344V328ZM176 328C176 314.766 186.781 304 200 304H256C269.219 304 280 314.766 280 328V344C280 366.062 262.062 384 240 384H216C193.938 384 176 366.062 176 344V328ZM64 328C64 314.766 74.781 304 88 304H136C149.219 304 160 314.766 160 328V344C160 366.062 142.062 384 120 384H104C81.938 384 64 366.062 64 344V328ZM560 384C560 428.111 524.111 464 480 464H96C51.889 464 16 428.111 16 384V352C16 328.162 33.512 308.48 56.32 304.775C51.449 311.404 48 319.16 48 328V344C48 374.875 73.125 400 104 400H120C140.475 400 158.234 388.83 168 372.383C177.766 388.83 195.525 400 216 400H240C260.475 400 278.234 388.83 288 372.383C297.766 388.83 315.525 400 336 400H360C380.475 400 398.234 388.83 408 372.383C417.766 388.83 435.525 400 456 400H472C502.875 400 528 374.875 528 344V328C528 319.16 524.553 311.404 519.682 304.775C542.488 308.484 560 328.164 560 352V384ZM480 32H96C42.98 32 0 74.98 0 128V192C0 227.346 28.654 256 64 256H512C547.346 256 576 227.346 576 192V128C576 74.98 533.02 32 480 32ZM160 216C160 229.234 149.219 240 136 240H88C74.781 240 64 229.234 64 216V192C64 169.938 81.938 152 104 152H120C142.062 152 160 169.938 160 192V216ZM280 216C280 229.234 269.219 240 256 240H200C186.781 240 176 229.234 176 216V156C176 127.328 199.312 104 228 104S280 127.328 280 156V216ZM400 216C400 229.234 389.219 240 376 240H320C306.781 240 296 229.234 296 216V156C296 127.328 319.312 104 348 104S400 127.328 400 156V216ZM512 216C512 229.234 501.219 240 488 240H440C426.781 240 416 229.234 416 216V192C416 169.938 433.938 152 456 152H472C494.062 152 512 169.938 512 192V216ZM560 192C560 215.838 542.486 235.52 519.68 239.225C524.553 232.598 528 224.842 528 216V192C528 161.125 502.875 136 472 136H456C440.168 136 425.92 142.668 415.725 153.268C414.254 117.057 384.564 88 348 88C321.854 88 299.375 102.99 288 124.68C276.625 102.99 254.146 88 228 88C191.436 88 161.748 117.057 160.277 153.268C150.082 142.668 135.832 136 120 136H104C73.125 136 48 161.125 48 192V216C48 224.842 51.447 232.598 56.32 239.225C33.512 235.52 16 215.838 16 192V128C16 83.887 51.889 48 96 48H480C524.111 48 560 83.887 560 128V192Z"/></svg>