<svg xmlns="http://www.w3.org/2000/svg" viewBox="0 0 320 512"><!-- Font Awesome Pro 6.0.0-alpha2 by @fontawesome - https://fontawesome.com License - https://fontawesome.com/license (Commercial License) --><path d="M168 352.807V136C168 131.578 164.406 128 160 128S152 131.578 152 136V352.807C129.32 356.631 112 376.23 112 400C112 426.51 133.49 448 160 448S208 426.51 208 400C208 376.23 190.68 356.631 168 352.807ZM160 432C142.355 432 128 417.645 128 400S142.355 368 160 368S192 382.355 192 400S177.645 432 160 432ZM240 322.492V80C240 35.816 204.184 0 160 0S80 35.816 80 80V322.492C60.422 342.623 48 369.697 48 400C48 461.855 98.145 512 160 512S272 461.855 272 400C272 369.697 259.578 342.623 240 322.492ZM160 496C107.064 496 64 452.934 64 400C64 375.426 73.756 351.861 91.471 333.646L96 328.988V80C96 44.711 124.711 16 160 16S224 44.711 224 80V328.988L228.529 333.646C246.244 351.861 256 375.426 256 400C256 452.934 212.936 496 160 496Z"/></svg>