<svg xmlns="http://www.w3.org/2000/svg" viewBox="0 0 576 512"><!-- Font Awesome Pro 6.0.0-alpha2 by @fontawesome - https://fontawesome.com License - https://fontawesome.com/license (Commercial License) --><path d="M253.656 250.344L37.656 34.344C34.531 31.219 29.469 31.219 26.344 34.344S23.219 42.531 26.344 45.656L236.687 256L26.344 466.344C23.219 469.469 23.219 474.531 26.344 477.656C27.906 479.219 29.953 480 32 480S36.094 479.219 37.656 477.656L253.656 261.656C256.781 258.531 256.781 253.469 253.656 250.344ZM568 464H232C227.578 464 224 467.578 224 472S227.578 480 232 480H568C572.422 480 576 476.422 576 472S572.422 464 568 464Z"/></svg>