<svg xmlns="http://www.w3.org/2000/svg" viewBox="0 0 448 512"><!-- Font Awesome Pro 6.0.0-alpha2 by @fontawesome - https://fontawesome.com License - https://fontawesome.com/license (Commercial License) --><path d="M432 40V120C432 124.422 428.422 128 424 128S416 124.422 416 120V48H232V464H312C316.422 464 320 467.578 320 472S316.422 480 312 480H136C131.578 480 128 476.422 128 472S131.578 464 136 464H216V48H32V120C32 124.422 28.422 128 24 128S16 124.422 16 120V40C16 35.578 19.578 32 24 32H424C428.422 32 432 35.578 432 40Z"/></svg>