<svg xmlns="http://www.w3.org/2000/svg" viewBox="0 0 384 512"><!-- Font Awesome Pro 6.0.0-alpha2 by @fontawesome - https://fontawesome.com License - https://fontawesome.com/license (Commercial License) --><path d="M301.359 206.844L293.766 55.594C293.562 51.203 289.938 47.422 285.375 48.016C280.969 48.234 277.563 51.984 277.797 56.406L285.859 217.219L290.234 219.25C338.922 241.891 368 279.938 368 321C368 329.266 361.266 336 353 336H200V232C200 227.578 196.422 224 192 224S184 227.578 184 232V336H31C22.734 336 16 329.266 16 321C16 279.922 45.078 241.891 93.766 219.25L98.141 217.219L106.203 56.406C106.438 51.984 103.031 48.234 98.625 48.016C93.828 47.469 90.453 51.203 90.234 55.594L82.641 206.844C30.797 232.438 0 274.828 0 321C0 338.094 13.906 352 31 352H184V504C184 508.422 187.578 512 192 512S200 508.422 200 504V352H353C370.094 352 384 338.094 384 321C384 274.828 353.203 232.438 301.359 206.844ZM40 16H344C348.422 16 352 12.422 352 8S348.422 0 344 0H40C35.578 0 32 3.578 32 8S35.578 16 40 16Z"/></svg>