<svg xmlns="http://www.w3.org/2000/svg" viewBox="0 0 640 512"><!-- Font Awesome Pro 6.0.0-alpha2 by @fontawesome - https://fontawesome.com License - https://fontawesome.com/license (Commercial License) --><path d="M404 176H352.812L313.469 111.25C311.031 106.969 305.891 104 300.984 104H274.938C270.375 104 266.203 106.094 263.453 109.719C260.719 113.344 259.875 117.938 261.172 122.438L277.516 176H246L232.25 157.656C229.641 154.125 225.438 152 221 152H206C201.656 152 197.625 153.969 194.953 157.406C192.297 160.812 191.375 165.188 192.188 167.438L192.422 246.594C191.375 250.812 192.297 255.188 194.969 258.625C197.641 262.031 201.656 264 206 264H221C225.438 264 229.641 261.875 232.203 258.406L246 240H277.516L261.141 293.656C259.875 298.031 260.734 302.625 263.469 306.281C266.203 309.906 270.391 312 274.938 312H300.984C306.156 312 310.938 309.219 313.344 304.938L352.812 240H404C419.516 240 448 227.844 448 208S419.516 176 404 176ZM206.25 168.969L206 168L207.594 167.906L206.25 168.969ZM404 224H343.812L300.984 296H277.156L299.141 224H238L221 248H208.188V167.875L219.391 167.219L238 192H299.109L277.141 119.938L299.672 119.375L343.812 192H404C415.516 192 432 201.406 432 208S415.516 224 404 224ZM512 224C503.164 224 496 231.162 496 240C496 248.836 503.164 256 512 256S528 248.836 528 240C528 231.162 520.836 224 512 224ZM512 288C503.164 288 496 295.162 496 304C496 312.836 503.164 320 512 320S528 312.836 528 304C528 295.162 520.836 288 512 288ZM512 160C503.164 160 496 167.162 496 176C496 184.836 503.164 192 512 192S528 184.836 528 176C528 167.162 520.836 160 512 160ZM512 96C503.164 96 496 103.162 496 112C496 120.836 503.164 128 512 128S528 120.836 528 112C528 103.162 520.836 96 512 96ZM632 157.562C636.422 157.562 640 153.969 640 149.562V83.812C640 55.25 616.75 32 588.172 32H147.828C119.25 32 96 55.25 96 83.812V332.188C96 360.75 119.25 384 147.828 384H588.172C616.75 384 640 360.75 640 332.188V266.438C640 262.031 636.422 258.438 632 258.438C604.188 258.438 581.562 235.813 581.562 208S604.188 157.562 632 157.562ZM565.562 208C565.562 241.938 591.125 270 624 273.969V332.187C624 351.938 607.922 368 588.172 368H147.828C128.078 368 112 351.938 112 332.188V83.812C112 64.062 128.078 48 147.828 48H588.172C607.922 48 624 64.062 624 83.812V142.031C591.125 146 565.562 174.062 565.562 208ZM536 416C531.578 416 528 419.594 528 424C528 446.062 510.047 464 488 464H72C41.125 464 16 438.875 16 408V152C16 129.938 33.953 112 56 112C60.422 112 64 108.406 64 104S60.422 96 56 96C25.125 96 0 121.125 0 152V408C0 447.688 32.281 480 72 480H488C518.875 480 544 454.875 544 424C544 419.594 540.422 416 536 416Z"/></svg>