<svg xmlns="http://www.w3.org/2000/svg" viewBox="0 0 576 512"><!-- Font Awesome Pro 6.0.0-alpha2 by @fontawesome - https://fontawesome.com License - https://fontawesome.com/license (Commercial License) --><path d="M576 208V112C576 85.5 554.5 64 528 64H48C21.5 64 0 85.5 0 112V208C26.5 208 48 229.5 48 256S26.5 304 0 304V400C0 426.5 21.5 448 48 448H528C554.5 448 576 426.5 576 400V304C549.5 304 528 282.5 528 256S549.5 208 576 208ZM512 256C512 285.768 532.428 310.852 560 317.975V400C560 417.645 545.645 432 528 432H48C30.355 432 16 417.645 16 400V317.975C43.574 310.852 64 285.768 64 256S43.574 201.146 16 194.025V112C16 94.355 30.355 80 48 80H528C545.645 80 560 94.355 560 112V194.025C532.428 201.146 512 226.232 512 256ZM448 144H128C119.164 144 112 151.164 112 160V352C112 360.836 119.164 368 128 368H448C456.838 368 464 360.836 464 352V160C464 151.164 456.838 144 448 144ZM448 352H128V160H448V352Z"/></svg>