<svg xmlns="http://www.w3.org/2000/svg" viewBox="0 0 512 512"><!-- Font Awesome Pro 6.0.0-alpha2 by @fontawesome - https://fontawesome.com License - https://fontawesome.com/license (Commercial License) --><path d="M256 16C251.594 16 248 19.594 248 24V128C248 132.406 251.594 136 256 136S264 132.406 264 128V32.156C383.812 36.375 480 135.156 480 256C480 379.5 379.5 480 256 480S32 379.5 32 256C32 202.438 51.188 150.594 86.062 110.062C88.938 106.719 88.562 101.656 85.219 98.781C81.906 95.875 76.844 96.281 73.937 99.625C36.562 143.062 16 198.594 16 256C16 388.344 123.656 496 256 496S496 388.344 496 256S388.344 16 256 16ZM267.312 278.625C268.875 280.187 270.906 280.969 272.969 280.969S277.062 280.187 278.625 278.625C281.75 275.5 281.75 270.437 278.625 267.312L165.656 154.344C162.531 151.219 157.469 151.219 154.344 154.344S151.219 162.531 154.344 165.656L267.312 278.625Z"/></svg>