<svg xmlns="http://www.w3.org/2000/svg" viewBox="0 0 512 512"><!-- Font Awesome Pro 6.0.0-alpha2 by @fontawesome - https://fontawesome.com License - https://fontawesome.com/license (Commercial License) --><path d="M256 0C114.615 0 0 114.615 0 256S114.615 512 256 512S512 397.385 512 256S397.385 0 256 0ZM256 496C123.664 496 16 388.336 16 256S123.664 16 256 16S496 123.664 496 256S388.336 496 256 496ZM256 96C167.635 96 96 167.635 96 256S167.635 416 256 416S416 344.365 416 256S344.365 96 256 96ZM256.037 111.957C284.496 111.957 311.182 120.572 333.875 135.209L286.416 200.51C277.105 195.412 266.879 191.982 256.014 191.982C241.301 191.982 230.85 196.885 225.201 199.984L178.285 135.43C188.566 128.793 214.885 111.957 256.037 111.957ZM165.227 144.67L212.322 209.471C196.707 224.158 189.246 246.045 193.43 267.928L117.344 292.639C102.643 236.943 122.584 179.529 165.227 144.67ZM248 399.408C191.508 396.285 142.57 360.715 122.123 307.91L198.844 282.992C208.328 303.021 226.844 316.021 248 318.754V399.408ZM255.986 304.018C235.139 304.018 216.799 290.682 210.35 270.832C206.387 258.639 207.41 245.633 213.232 234.209C219.053 222.785 228.973 214.311 241.168 210.35C245.999 208.779 250.996 207.982 256.016 207.982C276.863 207.982 295.201 221.318 301.65 241.168C305.613 253.361 304.59 266.367 298.768 277.791C292.947 289.215 283.027 297.687 270.832 301.65C265.999 303.221 261.004 304.018 255.986 304.018ZM264 399.406V318.742C267.934 318.242 271.867 318.137 275.777 316.867C293.271 311.184 306.5 298.613 313.762 283.189L389.584 307.814C356.77 392.156 278.963 398.561 264 399.406ZM394.932 292.729L318.586 267.934C320.555 257.674 320.324 246.859 316.867 236.223C313.416 225.598 306.949 217.072 299.34 209.934L346.811 144.617C408.436 194.928 402.703 263.523 394.932 292.729Z"/></svg>