<svg xmlns="http://www.w3.org/2000/svg" viewBox="0 0 576 512"><!-- Font Awesome Pro 6.0.0-alpha2 by @fontawesome - https://fontawesome.com License - https://fontawesome.com/license (Commercial License) --><path d="M416 96H160C71.635 96 0 167.635 0 256S71.635 416 160 416H416C504.365 416 576 344.365 576 256S504.365 96 416 96ZM416 400H160C80.598 400 16 335.402 16 256S80.598 112 160 112H416C495.402 112 560 176.598 560 256S495.402 400 416 400ZM416 160C362.98 160 320 202.98 320 256S362.98 352 416 352S512 309.02 512 256S469.02 160 416 160ZM416 336C371.889 336 336 300.111 336 256S371.889 176 416 176S496 211.889 496 256S460.111 336 416 336ZM416 208C389.49 208 368 229.49 368 256S389.49 304 416 304S464 282.51 464 256S442.51 208 416 208ZM416 288C398.355 288 384 273.645 384 256S398.355 224 416 224S448 238.355 448 256S433.645 288 416 288Z"/></svg>