<svg xmlns="http://www.w3.org/2000/svg" viewBox="0 0 640 512"><!-- Font Awesome Pro 6.0.0-alpha2 by @fontawesome - https://fontawesome.com License - https://fontawesome.com/license (Commercial License) --><path d="M80 88C75.578 88 72 91.578 72 96V256C72 260.422 75.578 264 80 264S88 260.422 88 256V96C88 91.578 84.422 88 80 88ZM184 225.125V96C184 91.578 180.422 88 176 88S168 91.578 168 96V225.125C168 229.547 171.578 233.125 176 233.125S184 229.547 184 225.125ZM176 320C131.818 320 96 355.816 96 400C96 444.182 131.818 480 176 480C220.184 480 256 444.182 256 400C256 355.816 220.184 320 176 320ZM176 464C140.711 464 112 435.289 112 400C112 364.709 140.711 336 176 336S240 364.709 240 400C240 435.289 211.289 464 176 464ZM472 320V96C472 91.578 468.422 88 464 88S456 91.578 456 96V320C456 324.422 459.578 328 464 328S472 324.422 472 320ZM376 320V96C376 91.578 372.422 88 368 88S360 91.578 360 96V320C360 324.422 363.578 328 368 328S376 324.422 376 320ZM632 368H535.156C540.369 361.244 544 353.178 544 344V72C544 49.938 526.062 32 504 32H40C17.938 32 0 49.938 0 72V344C0 366.062 17.938 384 40 384H64C68.422 384 72 380.422 72 376S68.422 368 64 368H40C26.766 368 16 357.234 16 344V72C16 58.766 26.766 48 40 48H504C517.234 48 528 58.766 528 72V344C528 357.234 517.234 368 504 368H288C283.578 368 280 371.578 280 376S283.578 384 288 384H632C636.422 384 640 380.422 640 376S636.422 368 632 368ZM280 96C280 91.578 276.422 88 272 88S264 91.578 264 96V256C264 260.422 267.578 264 272 264S280 260.422 280 256V96Z"/></svg>