<svg xmlns="http://www.w3.org/2000/svg" viewBox="0 0 576 512"><!-- Font Awesome Pro 6.0.0-alpha2 by @fontawesome - https://fontawesome.com License - https://fontawesome.com/license (Commercial License) --><path d="M448 72C448 67.578 444.406 64 440 64H323.383L302.438 22.125C295.625 8.469 281.938 0 266.656 0H181.344C166.062 0 152.375 8.469 145.562 22.109L124.617 64H8C3.594 64 0 67.578 0 72S3.594 80 8 80H440C444.406 80 448 76.422 448 72ZM142.508 64L159.875 29.25C163.969 21.078 172.188 16 181.344 16H266.656C275.812 16 284.031 21.078 288.125 29.266L305.492 64H142.508ZM399.029 135.537L396.176 183.525C395.902 188.121 399.557 192 404.162 192H404.184C408.416 192 411.918 188.701 412.17 184.475L415.025 136.488C415.301 131.885 411.641 128 407.027 128C402.787 128 399.281 131.305 399.029 135.537ZM488 360H440V296C440 291.594 436.406 288 432 288S424 291.594 424 296V368C424 372.406 427.594 376 432 376H488C492.406 376 496 372.406 496 368S492.406 360 488 360ZM296 496H106.219C86.531 496 69.531 480.016 68.312 460.406L48.973 135.537C48.721 131.303 45.215 128 40.975 128C36.361 128 32.701 131.885 32.975 136.49L52.344 461.375C54.094 489.297 78.25 512 106.219 512H296C300.418 512 304 508.418 304 504S300.418 496 296 496ZM432 224C352.375 224 288 288.375 288 368S352.375 512 432 512S576 447.625 576 368S511.625 224 432 224ZM432 496C361.42 496 304 438.578 304 368C304 297.42 361.42 240 432 240S560 297.42 560 368C560 438.578 502.58 496 432 496Z"/></svg>