<svg xmlns="http://www.w3.org/2000/svg" viewBox="0 0 448 512"><!-- Font Awesome Pro 6.0.0-alpha2 by @fontawesome - https://fontawesome.com License - https://fontawesome.com/license (Commercial License) --><path d="M408 120C403.594 120 400 123.578 400 128V440C400 470.875 374.875 496 344 496H104C73.125 496 48 470.875 48 440V128C48 123.578 44.406 120 40 120S32 123.578 32 128V440C32 479.703 64.312 512 104 512H344C383.688 512 416 479.703 416 440V128C416 123.578 412.406 120 408 120ZM440 64H323.383L302.438 22.125C295.625 8.469 281.938 0 266.656 0H181.344C166.062 0 152.375 8.469 145.562 22.109L124.617 64H8C3.594 64 0 67.578 0 72S3.594 80 8 80H440C444.406 80 448 76.422 448 72S444.406 64 440 64ZM142.508 64L159.875 29.25C163.969 21.078 172.188 16 181.344 16H266.656C275.812 16 284.031 21.078 288.125 29.266L305.492 64H142.508ZM224 448.01C228.406 448.01 232 444.432 232 440.01V218.191L314.598 293.895C316.129 295.316 318.066 296.004 320.004 296.004C322.16 296.004 324.316 295.129 325.91 293.41C328.879 290.16 328.66 285.098 325.41 282.111L229.406 194.109C226.344 191.297 221.656 191.297 218.594 194.109L122.59 282.111C119.34 285.098 119.121 290.16 122.09 293.41C125.152 296.691 130.184 296.91 133.402 293.895L216 218.191V440.01C216 444.432 219.594 448.01 224 448.01Z"/></svg>