<svg xmlns="http://www.w3.org/2000/svg" viewBox="0 0 512 512"><!-- Font Awesome Pro 6.0.0-alpha2 by @fontawesome - https://fontawesome.com License - https://fontawesome.com/license (Commercial License) --><path d="M496 235C485.375 219 471 207.375 453 200C462.375 184 465.875 167.5 463.5 150.5S454.375 118.875 443 106.5S417.875 86 401.5 82C397 80.9 377.354 75.752 352 87C349.375 62.375 338.875 41.625 320.5 25S280.625 0 256 0S209.875 8.375 191.5 25S162.625 62.375 160 87C134.652 75.752 114.996 80.9 110.5 82C94.125 86 80.375 94.125 69 106.5S50.875 133.5 48.5 150.5S49.625 184 59 200C41 207.375 26.625 219 16 235S0 268.625 0 288C0 314.625 9.375 337.375 28 356S69.375 384 96 384H247.996V503.998C247.996 508.422 251.574 512 255.996 512S263.996 508.422 263.996 503.998V384H416C442.625 384 465.375 374.625 484 356S512 314.625 512 288C512 268.625 506.625 251 496 235ZM472.686 344.686C456.998 360.373 438.457 368 416 368H263.996V323.303L325.65 261.643C328.775 258.518 328.775 253.455 325.65 250.33C322.525 247.203 317.463 247.203 314.338 250.33L263.996 300.676V135.979C263.996 131.557 260.418 127.979 255.996 127.979S247.996 131.557 247.996 135.979V236.672L197.654 186.326C194.529 183.199 189.469 183.199 186.344 186.326C183.219 189.451 183.219 194.514 186.344 197.639L247.996 259.299V368H96C73.543 368 55.002 360.373 39.314 344.686C23.625 328.998 16 310.455 16 288C16 271.799 20.359 257.357 29.328 243.852C38.17 230.537 49.859 221.035 65.066 214.805L82.125 207.816L72.805 191.91C65.232 178.988 62.467 166.168 64.346 152.713C66.287 138.82 71.662 127.246 80.779 117.328C90.029 107.264 100.994 100.793 114.297 97.543C132.322 93.137 146.654 98.582 153.512 101.625L173.582 110.529L175.91 88.695C178.133 67.834 186.744 50.879 202.234 36.863C217.752 22.824 235.34 16 256 16S294.248 22.824 309.766 36.863C325.256 50.879 333.867 67.834 336.09 88.695L338.418 110.529L358.488 101.625C365.352 98.578 379.695 93.139 397.703 97.543C411.006 100.793 421.971 107.264 431.221 117.328C440.338 127.246 445.713 138.82 447.654 152.713C449.533 166.168 446.768 178.988 439.195 191.91L429.875 207.816L446.934 214.805C462.141 221.035 473.83 230.537 482.672 243.852C491.641 257.357 496 271.799 496 288C496 310.455 488.375 328.998 472.686 344.686Z"/></svg>