<svg xmlns="http://www.w3.org/2000/svg" viewBox="0 0 640 512"><!-- Font Awesome Pro 6.0.0-alpha2 by @fontawesome - https://fontawesome.com License - https://fontawesome.com/license (Commercial License) --><path d="M632 400H608V237.247C608 226.643 603.787 216.473 596.289 208.975L495.023 107.711C487.525 100.213 477.355 96 466.75 96H416C407.163 96 400 103.163 400 112V387.75C398.219 391.668 396.93 395.801 395.734 400H244.266C233.766 363.146 200.223 336 160 336S86.234 363.146 75.734 400H8C3.582 400 0 403.582 0 408L0 408C0 412.418 3.582 416 8 416H72.805C72.562 418.676 72 421.26 72 424C72 472.602 111.398 512 160 512S248 472.602 248 424C248 421.26 247.438 418.676 247.195 416H392.805C392.562 418.676 392 421.26 392 424C392 472.602 431.398 512 480 512S568 472.602 568 424C568 421.26 567.473 418.67 567.191 416H632C636.406 416 640 412.422 640 408S636.406 400 632 400ZM160 496C120.301 496 88 463.701 88 424S120.301 352 160 352S232 384.299 232 424S199.699 496 160 496ZM416 112H466.75C473.062 112 479.25 114.562 483.719 119.031L584.969 220.281C586.035 221.348 586.605 222.76 587.445 224H416V112ZM480 496C440.301 496 408 463.701 408 424S440.301 352 480 352S552 384.299 552 424S519.699 496 480 496ZM592 400H564.203C553.703 363.156 520.211 336 480 336C454.695 336 432.055 346.826 416 363.926V240H592V400Z"/></svg>