<svg xmlns="http://www.w3.org/2000/svg" viewBox="0 0 640 512"><!-- Font Awesome Pro 6.0.0-alpha2 by @fontawesome - https://fontawesome.com License - https://fontawesome.com/license (Commercial License) --><path d="M625.941 224.066L527.934 126.059C518.932 117.057 506.723 112 493.994 112H416C398.328 112 384 126.326 384 144V228.082L175.656 7.547C171.156 2.75 164.781 0 158.188 0H104C90.781 0 80 10.766 80 24V152C80 165.234 69.219 176 56 176S32 165.234 32 152V136C32 131.578 28.406 128 24 128S16 131.578 16 136V152C16 174.062 33.938 192 56 192S96 174.062 96 152V33.387L202.869 240H48C21.49 240 0 261.49 0 288V368C0 394.51 21.49 416 48 416H72.807C72.562 418.676 72 421.26 72 424C72 472.6 111.398 512 160 512S248 472.6 248 424C248 421.26 247.438 418.676 247.193 416H392.807C392.562 418.676 392 421.26 392 424C392 472.6 431.398 512 480 512S568 472.6 568 424C568 421.26 567.438 418.676 567.193 416H592C618.51 416 640 394.51 640 368V258.008C640 245.277 634.943 233.068 625.941 224.066ZM104.992 16H158.188C160.375 16 162.5 16.906 164 18.516L373.242 240H220.855L104.992 16ZM160 496C120.236 496 88 463.764 88 424C88 384.234 120.236 352 160 352S232 384.234 232 424C232 463.764 199.764 496 160 496ZM384 400H244.268C233.768 363.146 200.223 336 160 336S86.232 363.146 75.732 400H48C30.355 400 16 385.645 16 368V288C16 270.355 30.355 256 48 256H384V400ZM400 144C400 135.178 407.178 128 416 128H493.994C502.541 128 510.576 131.328 516.621 137.371L614.629 235.379C615.975 236.725 616.654 238.473 617.725 240H400V144ZM480 496C440.236 496 408 463.764 408 424C408 384.234 440.236 352 480 352S552 384.234 552 424C552 463.764 519.764 496 480 496ZM624 368C624 385.645 609.645 400 592 400H564.268C553.768 363.146 520.223 336 480 336C444.361 336 413.836 357.285 400 387.75V256H623.604C623.648 256.693 624 257.307 624 258.008V368Z"/></svg>