<svg xmlns="http://www.w3.org/2000/svg" viewBox="0 0 640 512"><!-- Font Awesome Pro 6.0.0-alpha2 by @fontawesome - https://fontawesome.com License - https://fontawesome.com/license (Commercial License) --><path d="M632 400H608V237.25C608 226.562 603.844 216.531 596.281 208.969L495.031 107.719C487.594 100.266 477.281 96 466.75 96H416V48C416 21.49 394.508 0 368 0H48C21.492 0 0 21.49 0 48V368C0 394.508 21.49 416 48 416H72.807C72.561 418.676 72 421.26 72 424C72 472.6 111.4 512 160 512C208.602 512 248 472.6 248 424C248 421.26 247.438 418.676 247.193 416H392.805C392.562 418.676 392 421.26 392 424C392 472.602 431.398 512 480 512S568 472.602 568 424C568 421.26 567.473 418.67 567.191 416H632C636.406 416 640 412.422 640 408S636.406 400 632 400ZM160 496C120.299 496 88 463.701 88 424S120.299 352 160 352S232 384.299 232 424S199.701 496 160 496ZM400 387.75C398.219 391.668 396.93 395.801 395.734 400H244.268C233.768 363.146 200.223 336 160 336C119.779 336 86.232 363.146 75.732 400H48C30.355 400 16 385.645 16 368V48C16 30.355 30.355 16 48 16H368C385.645 16 400 30.355 400 48V387.75ZM416 112H466.75C473.062 112 479.25 114.562 483.719 119.031L584.969 220.281C586.035 221.348 586.605 222.76 587.445 224H416V112ZM480 496C440.301 496 408 463.701 408 424S440.301 352 480 352S552 384.299 552 424S519.699 496 480 496ZM592 400H564.203C553.703 363.156 520.211 336 480 336C454.695 336 432.055 346.826 416 363.926V240H592V400ZM208 64C146.145 64 96 114.145 96 176S146.145 288 208 288S320 237.855 320 176S269.855 64 208 64ZM208 272C155.066 272 112 228.934 112 176C112 123.064 155.066 80 208 80C260.936 80 304 123.064 304 176C304 228.934 260.936 272 208 272ZM248 176H208V120C208 115.594 204.406 112 200 112S192 115.594 192 120V184C192 188.406 195.594 192 200 192H248C252.406 192 256 188.406 256 184S252.406 176 248 176Z"/></svg>