<svg xmlns="http://www.w3.org/2000/svg" viewBox="0 0 640 512"><!-- Font Awesome Pro 6.0.0-alpha2 by @fontawesome - https://fontawesome.com License - https://fontawesome.com/license (Commercial License) --><path d="M232 232C232 227.578 228.406 224 224 224H8C3.594 224 0 227.578 0 232S3.594 240 8 240H224C228.406 240 232 236.422 232 232ZM280 176C284.406 176 288 172.422 288 168S284.406 160 280 160H40C35.594 160 32 163.578 32 168S35.594 176 40 176H280ZM632 400H608V237.25C608 226.562 603.844 216.531 596.281 208.969L495.031 107.719C487.594 100.266 477.281 96 466.75 96H416V48C416 21.49 394.508 0 368 0H112C85.492 0 64 21.49 64 48V96H8C3.594 96 0 99.578 0 104S3.594 112 8 112H224C228.406 112 232 108.422 232 104S228.406 96 224 96H80V48C80 30.355 94.355 16 112 16H368C385.645 16 400 30.355 400 48V387.75C398.219 391.668 396.93 395.801 395.734 400H260.266C249.766 363.146 216.223 336 176 336C134.367 336 99.688 364.994 90.543 403.834C84.109 399.467 80 392.129 80 384V256H64V384C64 400.15 73.938 414.002 88.379 420.236C88.324 421.512 88 422.711 88 424C88 472.602 127.398 512 176 512S264 472.602 264 424C264 421.26 263.438 418.676 263.195 416H392.805C392.562 418.676 392 421.26 392 424C392 472.602 431.398 512 480 512S568 472.602 568 424C568 421.26 567.473 418.67 567.191 416H632C636.406 416 640 412.422 640 408S636.406 400 632 400ZM176 496C136.301 496 104 463.701 104 424S136.301 352 176 352S248 384.299 248 424S215.699 496 176 496ZM416 112H466.75C473.062 112 479.25 114.562 483.719 119.031L584.969 220.281C586.035 221.348 586.605 222.76 587.445 224H416V112ZM480 496C440.301 496 408 463.701 408 424S440.301 352 480 352S552 384.299 552 424S519.699 496 480 496ZM592 400H564.203C553.703 363.156 520.211 336 480 336C454.695 336 432.055 346.826 416 363.926V240H592V400Z"/></svg>