<svg xmlns="http://www.w3.org/2000/svg" viewBox="0 0 384 512"><!-- Font Awesome Pro 6.0.0-alpha2 by @fontawesome - https://fontawesome.com License - https://fontawesome.com/license (Commercial License) --><path d="M317.926 367.254C313.833 357.848 304.739 352.005 294.24 352.005H199.993V71.998C199.993 32.312 167.682 0 127.995 0H8C3.594 0 0 3.594 0 8S3.594 16 8 16H127.995C158.869 16 183.993 41.124 183.993 71.998V352.005H89.747C79.247 352.005 70.154 357.848 66.06 367.254C62.123 376.254 63.873 386.379 70.622 393.66L172.9 503.75C177.775 509 184.712 512 191.993 512C199.274 512 206.211 509 211.117 503.75L313.364 393.66C320.114 386.379 321.864 376.254 317.926 367.254ZM301.614 382.785L199.399 492.876C195.649 496.875 188.306 496.875 184.618 492.876L82.372 382.785C78.903 379.067 80.06 375.16 80.716 373.66C82.247 370.098 85.622 368.004 89.747 368.004H294.24C298.364 368.004 301.739 370.098 303.27 373.66C303.927 375.16 305.083 379.067 301.614 382.785Z"/></svg>