<svg xmlns="http://www.w3.org/2000/svg" viewBox="0 0 512 512"><!-- Font Awesome Pro 6.0.0-alpha2 by @fontawesome - https://fontawesome.com License - https://fontawesome.com/license (Commercial License) --><path d="M448 272.004C439.164 272.004 432 279.166 432 288.004C432 296.839 439.164 304.003 448 304.003S464 296.839 464 288.004C464 279.166 456.836 272.004 448 272.004ZM448 208.005C439.164 208.005 432 215.167 432 224.005C432 232.84 439.164 240.004 448 240.004S464 232.84 464 224.005C464 215.167 456.836 208.005 448 208.005ZM320 160.006H144C99.887 160.006 64 195.894 64 240.004V368.002C64 412.113 99.887 448.001 144 448.001H320C364.113 448.001 400 412.113 400 368.002V240.004C400 195.894 364.113 160.006 320 160.006ZM384 368.002C384 403.347 355.348 432.001 320 432.001H144C108.652 432.001 80 403.347 80 368.002V240.004C80 204.659 108.652 176.005 144 176.005H320C355.348 176.005 384 204.659 384 240.004V368.002ZM448 96.007H278.812L381 14.258C384.438 11.508 385 6.445 382.25 3.008C379.469 -0.429 374.469 -1.023 371 1.758L256 93.757L141 1.758C137.562 -1.023 132.531 -0.429 129.75 3.008C127 6.445 127.562 11.508 131 14.258L233.188 96.007H64C28.652 96.007 0 124.66 0 160.006V448.001C0 483.346 28.652 512 64 512H448C483.348 512 512 483.346 512 448.001V160.006C512 124.66 483.348 96.007 448 96.007ZM496 448.001C496 474.467 474.469 496 448 496H64C37.531 496 16 474.467 16 448.001V160.006C16 133.539 37.531 112.006 64 112.006H448C474.469 112.006 496 133.539 496 160.006V448.001Z"/></svg>