<svg xmlns="http://www.w3.org/2000/svg" viewBox="0 0 640 512"><!-- Font Awesome Pro 6.0.0-alpha2 by @fontawesome - https://fontawesome.com License - https://fontawesome.com/license (Commercial License) --><path d="M512 352.008C520.834 352.008 528 344.842 528 336.009C528 327.176 520.834 320.01 512 320.01S496 327.176 496 336.009C496 344.842 503.166 352.008 512 352.008ZM154.205 253.237C154.902 258.373 158.047 262.855 162.643 265.257C211.057 290.591 265.471 303.98 320 303.98C374.531 303.98 428.945 290.591 477.359 265.257C481.953 262.855 485.098 258.373 485.795 253.237L486.312 249.585C487.104 244.114 488 237.914 488 231.285C488 139.043 412.637 64 320 64C227.365 64 152 139.043 152 231.285C152 237.914 152.896 244.114 153.688 249.585L154.205 253.237ZM320 79.999C403.873 79.999 472 147.663 472 231.285C472 238.082 470.824 244.583 469.941 251.082C422.928 275.682 371.465 287.982 320 287.982C268.537 287.982 217.072 275.682 170.061 251.082C169.178 244.583 168 238.082 168 231.285C168 147.663 236.129 79.999 320 79.999ZM304 368.006C304 376.84 311.166 384.005 320 384.005S336 376.84 336 368.006C336 359.173 328.834 352.008 320 352.008S304 359.173 304 368.006ZM112 336.009C112 344.842 119.166 352.008 128 352.008S144 344.842 144 336.009C144 327.176 136.834 320.01 128 320.01S112 327.176 112 336.009ZM530.609 223.018C526.359 221.456 521.875 223.8 520.438 227.987C519 232.143 521.219 236.705 525.391 238.142C588.062 259.703 624 289.544 624 320.01C624 380.724 484.781 432.001 320 432.001S16 380.724 16 320.01C16 289.544 51.938 259.703 114.609 238.142C118.781 236.705 121 232.143 119.562 227.987C118.125 223.8 113.609 221.456 109.391 223.018C38.844 247.298 0 281.732 0 320.01C0 391.786 140.562 448 320 448S640 391.786 640 320.01C640 281.732 601.156 247.298 530.609 223.018Z"/></svg>