<svg xmlns="http://www.w3.org/2000/svg" viewBox="0 0 512 512"><!-- Font Awesome Pro 6.0.0-alpha2 by @fontawesome - https://fontawesome.com License - https://fontawesome.com/license (Commercial License) --><path d="M255.998 320C251.592 320 247.998 323.594 247.998 328V452C247.998 476.25 228.248 496 203.998 496S159.998 476.25 159.998 452V424C159.998 419.594 156.404 416 151.998 416S143.998 419.594 143.998 424V452C143.998 485.094 170.904 512 203.998 512S263.998 485.094 263.998 452V328C263.998 323.594 260.404 320 255.998 320ZM263.998 8C263.998 3.594 260.404 0 255.998 0S247.998 3.594 247.998 8V32H256H263.998V8ZM256 32C114.844 32 0 143.25 0 280C0 284.406 3.594 288 8 288H504C508.406 288 512 284.406 512 280C512 143.25 397.156 32 256 32ZM16.156 272C20.531 147.75 126.438 48 256 48S491.469 147.75 495.844 272H16.156Z"/></svg>