<svg xmlns="http://www.w3.org/2000/svg" viewBox="0 0 640 512"><!-- Font Awesome Pro 6.0.0-alpha2 by @fontawesome - https://fontawesome.com License - https://fontawesome.com/license (Commercial License) --><path d="M464 64.688C455.164 64.688 448 71.852 448 80.688S455.164 96.688 464 96.688S480 89.523 480 80.688S472.836 64.688 464 64.688ZM632 32H538.627C540.785 27.838 542.748 23.564 543.687 18.922C544.625 14.297 543.437 9.516 540.406 5.828C537.375 2.125 532.906 0 528.156 0H403.75C334.812 0 276.156 57.828 272 128C272 128 161.211 128 160 128C131.695 128 106.555 140.516 88.984 160H73.93V160.031C72.988 160.016 72 160 72 160C32.312 160 0 192.297 0 232V312C0 316.422 3.594 320 8 320S16 316.422 16 312V232C16 201.125 41.125 176 72 176H77.312C69.066 190.172 64 206.422 64 224C64 253.422 77.523 279.43 98.367 297.039L87.25 318.812C67.562 357.234 64 364.172 64 380.906C64 385.812 64.906 393.281 66.094 397.891L90.062 493.844C92.625 504.016 102.875 512 113.344 512H176C183.438 512 190.344 508.641 194.906 502.766C199.469 496.906 201.062 489.406 199.125 481.719L168.594 384.688L196.281 329.312L280 358.25V488C280 501.234 290.781 512 304 512H360C373.219 512 384 501.234 384 488V327.086C403.508 309.516 416 284.32 416 256C416 255.965 415.992 255.934 415.992 255.898C415.992 255.891 416 151.938 416 151.938L421.687 153.969L438.562 187.578C445.359 201.086 459.25 209.094 473.629 209.094C478.43 209.094 483.277 208.203 487.938 206.328L519.469 193.719C533.219 188.234 543.969 172.313 543.969 157.484L543.908 85.371L635.062 47.391C638.594 45.922 640.594 42.172 639.844 38.438C639.094 34.688 635.812 32 632 32ZM513.527 178.859L481.961 191.484C470.895 195.945 458.094 190.801 452.859 180.398L435.984 146.789C432.656 140.164 417.262 131.477 406.781 138.859C402.531 141.855 400 146.734 400 151.938C400 151.938 399.992 256.234 400 256.406C399.883 278.91 390.41 299.773 373.289 315.195C369.922 318.234 368 322.555 368 327.086V488C368 492.41 364.41 496 360 496H304C299.586 496 296 492.41 296 488V358.25C296 350.906 291.004 344.508 283.883 342.727L200.164 313.789C193.789 312.195 185.719 314.656 181.969 322.156L154.281 377.531C152.43 381.242 152.086 385.531 153.332 389.488L183.609 485.629C185.172 491.82 180.668 496 176 496H113.344C110.195 496 106.352 492.996 105.586 489.965L81.586 393.898C80.742 390.617 80 384.543 80 380.906C80 368.406 81.816 364.504 101.5 326.086L112.617 304.312C115.996 297.688 114.367 289.609 108.691 284.812C90.457 269.41 80 247.242 80 224C80 179.887 115.891 144 160 144H288V128.773C291.773 66.578 343.656 16 403.75 16H527.953C526.352 23.621 522.18 30.539 515.879 36.016C508.184 42.703 509.285 53.281 514.727 59.062C521.82 66.594 527.906 71.406 527.906 82.219L527.969 157.484C527.969 165.805 521.227 175.789 513.527 178.859ZM541.426 69.072C539.658 64.139 537.09 59.518 533.437 55.594L526.375 48.094C526.406 48.066 526.422 48.027 526.453 48H592L541.426 69.072Z"/></svg>