<svg xmlns="http://www.w3.org/2000/svg" viewBox="0 0 384 512"><!-- Font Awesome Pro 6.0.0-alpha2 by @fontawesome - https://fontawesome.com License - https://fontawesome.com/license (Commercial License) --><path d="M10.372 383.526L55.627 428.78C68.125 441.278 88.385 441.278 100.882 428.78L236.647 293.016L304.529 360.898C313.678 370.046 327.444 372.786 339.399 367.837C343.362 366.193 346.866 363.816 349.782 360.901C355.669 355.013 359.154 346.93 359.154 338.271V111.997C359.154 103.158 355.574 95.159 349.784 89.369C343.995 83.58 335.996 80 327.157 80H100.882C92.222 79.999 84.14 83.484 78.252 89.372C75.337 92.287 72.958 95.793 71.316 99.755C66.367 111.709 69.107 125.476 78.255 134.624L146.137 202.506L10.372 338.271C-2.125 350.768 -2.123 371.03 10.372 383.526ZM21.686 372.212C15.448 365.974 15.448 355.823 21.686 349.584L168.765 202.506L89.569 123.31C84.977 118.718 83.616 111.875 86.099 105.876C86.907 103.924 88.076 102.176 89.566 100.686C92.588 97.664 96.605 96 100.881 96H327.156C331.431 96 335.45 97.662 338.471 100.683C341.49 103.702 343.153 107.721 343.153 111.997V338.271C343.153 342.547 341.49 346.565 338.468 349.587C336.978 351.077 335.228 352.244 333.27 353.056C327.278 355.537 320.434 354.175 315.843 349.584L236.647 270.388L89.569 417.467C83.33 423.705 73.179 423.705 66.941 417.467L21.686 372.212Z"/></svg>