<svg xmlns="http://www.w3.org/2000/svg" viewBox="0 0 512 512"><!-- Font Awesome Pro 6.0.0-alpha2 by @fontawesome - https://fontawesome.com License - https://fontawesome.com/license (Commercial License) --><path d="M440 279.031C435.594 279.031 432 282.609 432 287.031V440C432 470.875 406.875 496 376 496H72C41.125 496 16 470.875 16 440V136C16 105.125 41.125 80 72 80H224.25C228.656 80 232.25 76.422 232.25 72S228.656 64 224.25 64H72C32.312 64 0 96.297 0 136V440C0 479.703 32.312 512 72 512H376C415.688 512 448 479.703 448 440V287.031C448 282.609 444.406 279.031 440 279.031ZM488 0H345.781C322.859 0 311.383 27.711 327.59 43.918L392.18 108.508L162.344 338.344C159.219 341.469 159.219 346.531 162.344 349.656C163.906 351.219 165.938 352 168 352S172.094 351.219 173.656 349.656L403.492 119.82L468.086 184.414C473.324 189.652 479.77 192 486.09 192C499.312 192 512 181.73 512 166.223V24C512 10.746 501.254 0 488 0ZM496 166.223C496 172.967 490.203 176 486.09 176C483.574 176 481.324 175.025 479.398 173.102L338.902 32.604C334.754 28.455 336.047 23.809 336.793 22.004C337.543 20.199 339.914 16 345.781 16H488C492.41 16 496 19.59 496 24V166.223Z"/></svg>