<svg xmlns="http://www.w3.org/2000/svg" viewBox="0 0 512 512"><!-- Font Awesome Pro 6.0.0-alpha2 by @fontawesome - https://fontawesome.com License - https://fontawesome.com/license (Commercial License) --><path d="M492.01 0H378.73C356.145 0 342.48 28.078 359.885 45.469L407.572 93.117L298.344 202.344C295.219 205.469 295.219 210.531 298.344 213.656S306.531 216.781 309.656 213.656L418.891 104.422L466.5 152C484.391 169.867 512 155.266 512 133.164V19.977C512 8.945 503.051 0 492.01 0ZM496.008 133.164C496.008 142.172 484.803 147.688 477.809 140.695L371.193 34.164C363.998 26.984 369.941 15.984 378.73 15.984H492.01C494.213 15.984 496.008 17.773 496.008 19.977V133.164ZM19.99 512H133.27C155.855 512 169.52 483.922 152.115 466.531L104.43 418.883L213.656 309.656C216.781 306.531 216.781 301.469 213.656 298.344C212.094 296.781 210.062 296 208 296S203.906 296.781 202.344 298.344L128 372.688L93.111 407.574L45.5 360C27.609 342.133 0 356.734 0 378.832V492.023C0 503.055 8.949 512 19.99 512ZM15.992 378.832C15.992 369.832 27.197 364.312 34.191 371.305L140.807 477.832C148.002 485.016 142.059 496.016 133.27 496.016H19.99C17.787 496.016 15.992 494.227 15.992 492.023V378.832Z"/></svg>