<svg xmlns="http://www.w3.org/2000/svg" viewBox="0 0 384 512"><!-- Font Awesome Pro 6.0.0-alpha2 by @fontawesome - https://fontawesome.com License - https://fontawesome.com/license (Commercial License) --><path d="M8 48.034H376C380.418 48.034 384 44.452 384 40.034S380.418 32.034 376 32.034H8C3.582 32.034 0 35.616 0 40.034S3.582 48.034 8 48.034ZM56 319.853H128V447.942C128 465.63 142.328 479.966 160 479.966H224C241.674 479.966 256 465.63 256 447.942V319.853H328C337.578 319.853 346.25 314.144 350.047 305.341C353.828 296.538 352.031 286.312 345.453 279.339L209.453 135.235C204.922 130.435 198.461 128.034 192 128.034S179.078 130.435 174.547 135.235L38.547 279.339C31.969 286.312 30.172 296.538 33.953 305.341C37.75 314.144 46.422 319.853 56 319.853ZM50.184 290.321L186.182 146.218C187.473 144.851 189.648 144.034 192 144.034S196.527 144.851 197.816 146.218L333.814 290.319C336.016 292.651 336.615 296.069 335.355 299.005C334.084 301.95 331.197 303.853 328 303.853H240V447.942C240 456.778 232.822 463.966 224 463.966H160C151.178 463.966 144 456.778 144 447.942V303.853H56C52.803 303.853 49.916 301.95 48.654 299.026C47.385 296.069 47.984 292.651 50.184 290.321Z"/></svg>