<svg xmlns="http://www.w3.org/2000/svg" viewBox="0 0 448 512"><!-- Font Awesome Pro 6.0.0-alpha2 by @fontawesome - https://fontawesome.com License - https://fontawesome.com/license (Commercial License) --><path d="M381.938 337.75L415.438 255.719C418.313 248.656 417.469 240.656 413.219 234.312C408.875 227.844 401.562 224 393.688 224H347.463C350.131 213.715 351.996 203.117 351.996 192C351.996 187.594 348.402 184.125 343.996 184.125S335.996 187.812 335.996 192.219C335.996 253.844 285.748 304 223.998 304S112 253.844 112 192.219V192C112 187.594 108.406 184.125 104 184.125S96 187.812 96 192.219C96 203.254 97.846 213.781 100.49 224H54.312C46.438 224 39.125 227.844 34.781 234.312C30.531 240.656 29.688 248.656 32.562 255.75L66.062 337.75C24 370.625 0 418.938 0 471.25C0 493.719 18.594 512 41.438 512H185.438C187.938 512 190.281 510.844 191.813 508.844C193.313 506.844 193.813 504.25 193.156 501.844L159.75 381.844C158.563 377.594 154.156 375.25 149.875 376.281C145.625 377.469 143.125 381.875 144.313 386.156L174.906 496H41.438C27.406 496 16 484.906 16 471.25C16 422.062 39.531 376.75 80.531 346.906C83.5 344.75 84.625 340.812 83.219 337.406L47.375 249.719C46.5 247.562 46.75 245.188 48.062 243.25C49.438 241.188 51.719 240 54.312 240H105.477C124.482 286.822 170.348 320 223.998 320C277.611 320 323.461 286.867 342.49 240H393.688C396.281 240 398.563 241.188 399.938 243.25C401.25 245.188 401.5 247.562 400.625 249.688L364.781 337.406C363.375 340.812 364.5 344.75 367.469 346.906C408.469 376.75 432 422.062 432 471.25C432 484.906 420.594 496 406.562 496H273.094L303.688 386.156C304.875 381.875 302.375 377.469 298.125 376.281C293.844 375.187 289.438 377.562 288.25 381.844L254.844 501.844C254.188 504.25 254.688 506.844 256.188 508.844C257.719 510.844 260.062 512 262.562 512H406.562C429.406 512 448 493.719 448 471.25C448 418.938 424 370.625 381.938 337.75ZM110.252 124.312C110.846 124.438 111.439 124.5 112.002 124.5C115.656 124.5 118.969 121.969 119.812 118.25C134.344 53.281 153.844 16 173.312 16C180.188 16 187.312 18.781 194.437 24.281C211.875 37.906 236.281 37.875 253.656 24.313C260.812 18.781 267.938 16 274.812 16C294.375 16 313.844 53.094 328.188 117.75C329.156 122.062 333.467 124.844 337.717 123.844C342.029 122.875 344.779 118.625 343.811 114.312C326.969 38.469 303.781 0 274.812 0C264.312 0 253.906 3.906 243.875 11.656C232.219 20.781 216 20.781 204.219 11.625C194.219 3.906 183.812 0 173.312 0C144.5 0 121.25 38.594 104.189 114.75C103.221 119.062 105.939 123.344 110.252 124.312ZM128 176.752V197.219C128 220.812 147.375 240 171.219 240H182.531C200.375 240 216.531 228.688 222.687 211.844H225.312C231.469 228.688 247.625 240 265.469 240H276.781C300.625 240 320 220.812 320 197.219V176.752C401.031 162.945 421.588 134.029 422.656 132.437C425.094 128.812 424.094 123.937 420.5 121.469C416.906 119.062 411.938 119.906 409.406 123.469C409.094 123.906 375.906 168 224 168C73.031 168 39.312 124.438 38.594 123.469C36.125 119.844 31.219 118.938 27.562 121.344C23.875 123.781 22.906 128.75 25.344 132.438C26.412 134.029 46.969 162.945 128 176.752ZM144 179.195C166.439 182.156 192.828 184 224 184S281.561 182.156 304 179.195V197.219C304 212 291.781 224 276.781 224H265.469C254.125 224 244.25 217.062 240.344 206.375C237.75 199.25 231.344 194.656 224 194.656S210.25 199.25 207.688 206.344C203.75 217.062 193.875 224 182.531 224H171.219C156.219 224 144 212 144 197.219V179.195ZM248 344H200C195.594 344 192 347.594 192 352S195.594 360 200 360H216V504C216 508.406 219.594 512 224 512S232 508.406 232 504V360H248C252.406 360 256 356.406 256 352S252.406 344 248 344Z"/></svg>