<svg xmlns="http://www.w3.org/2000/svg" viewBox="0 0 448 512"><!-- Font Awesome Pro 6.0.0-alpha2 by @fontawesome - https://fontawesome.com License - https://fontawesome.com/license (Commercial License) --><path d="M272.844 304H175.156C78.562 304 0 379.375 0 472C0 494.062 18.594 512 41.438 512H406.562C429.406 512 448 494.062 448 472C448 379.375 369.438 304 272.844 304ZM406.562 496H41.438C27.406 496 16 485.219 16 472C16 388.188 87.406 320 175.156 320H272.844C360.594 320 432 388.188 432 472C432 485.219 420.594 496 406.562 496ZM318.875 360C315.375 360 312 361.562 309.688 364.281C288.75 388.5 276.094 420.094 272.031 458.344C271.625 463.031 274.094 467.688 278.438 470.031C282.656 472.125 287.438 471.719 291.406 468.813C309.125 455.031 318.125 449.344 322.844 446.813C325.75 450.156 330.562 456.188 338.344 467.188C340.625 470.188 344.219 472 348 472L351.938 471.406C356.844 469.656 360 465.125 360 459.625C358.812 422.75 348.188 390.906 328.375 364.969C326.469 362.188 323.281 360.406 318.875 360ZM330.188 431.406L327.906 429.375L321.156 430.094C315.312 431.906 304.781 438.594 289.188 450.375C293.5 421.844 303.375 397.781 318.563 378.625C332.156 397.875 340.375 420.719 343.094 446.531C337.469 439.094 333.156 434.031 330.188 431.406ZM101.535 162.891C116.803 216.488 165.508 256 224 256C282.498 256 331.201 216.488 346.467 162.891C359.096 156.16 368 143.285 368 128V96C368 74.303 350.588 56.787 329.029 56.209C306.027 22.496 267.896 0 224 0C180.109 0 141.979 22.496 118.975 56.207C97.414 56.785 80 74.301 80 96V128C80 143.285 88.908 156.158 101.535 162.891ZM224 240C176.467 240 136.52 209.891 120.338 168H327.662C311.48 209.891 271.533 240 224 240ZM224 16C258.088 16 288.016 31.883 308.553 56H139.447C159.984 31.883 189.912 16 224 16ZM96 96C96 82.781 106.781 72 120 72H328C341.219 72 352 82.781 352 96V128C352 141.219 341.219 152 328 152H120C106.781 152 96 141.219 96 128V96ZM128 120H320C324.406 120 328 116.406 328 112S324.406 104 320 104H128C123.594 104 120 107.594 120 112S123.594 120 128 120Z"/></svg>