<svg xmlns="http://www.w3.org/2000/svg" viewBox="0 0 448 512"><!-- Font Awesome Pro 6.0.0-alpha2 by @fontawesome - https://fontawesome.com License - https://fontawesome.com/license (Commercial License) --><path d="M69.926 112.156V138.906C69.926 142.062 71.773 144.906 74.653 146.219C118.285 165.688 169.774 176 223.641 176S328.997 165.688 372.629 146.219C375.509 144.906 377.356 142.062 377.356 138.906V112.156L396.981 92.531C403.084 86.438 406.465 78.313 406.465 69.656C406.465 54.781 396.386 41.875 381.926 38.281L233.344 1.219C227.021 -0.406 220.261 -0.406 213.938 1.219L65.357 38.281C50.896 41.875 40.817 54.781 40.817 69.656C40.817 78.313 44.198 86.438 50.301 92.531L69.926 112.156ZM69.238 53.781L217.819 16.719C221.607 15.781 225.613 15.781 229.463 16.719L378.044 53.781C385.337 55.625 390.439 62.156 390.439 69.656C390.439 74.031 388.749 78.125 385.65 81.219L363.678 103.188C362.175 104.688 361.33 106.719 361.33 108.844V133.656C320.796 150.906 273.314 160 223.641 160S126.486 150.906 85.952 133.656V108.844C85.952 106.719 85.107 104.688 83.604 103.188L61.632 81.219C58.533 78.125 56.843 74.031 56.843 69.656C56.843 62.156 61.945 55.625 69.238 53.781ZM220.073 111.156C221.2 111.719 222.42 112 223.641 112S226.082 111.719 227.209 111.156L291.312 79.156C295.287 77.188 296.883 72.375 294.911 68.438C292.908 64.469 288.057 62.969 284.175 64.844L223.641 95.062L163.107 64.844C159.257 62.938 154.374 64.469 152.371 68.438C150.399 72.375 151.995 77.188 155.97 79.156L220.073 111.156ZM335.821 192C335.821 253.75 285.49 304 223.641 304S111.462 253.75 111.462 192C111.462 187.594 107.862 184 103.449 184C99.035 184 95.436 187.594 95.436 192C95.436 262.594 152.934 320 223.641 320S351.846 262.594 351.846 192C351.846 187.594 348.247 184 343.833 184C339.42 184 335.821 187.594 335.821 192ZM319.795 352L251.633 454.08L232.939 416.75L270.186 364.688C271.97 362.219 272.221 359 270.844 356.344S266.712 352 263.707 352H183.577C180.572 352 177.818 353.688 176.441 356.344C175.063 359 175.314 362.25 177.066 364.688L214.316 416.75L195.721 453.875L128.205 352C57.398 352 0 409.307 0 480C0 497.674 14.349 512 32.051 512H415.949C433.651 512 448 497.674 448 480C448 409.307 390.602 352 319.795 352ZM199.135 368H248.12L223.643 402.25L199.135 368ZM32.051 496C23.215 496 16.026 488.822 16.026 480C16.026 421.066 61.855 372.617 119.799 368.311L204.425 496H32.051ZM223.641 496L205.913 469.252L223.643 433.875L241.414 469.383L223.641 496ZM415.949 496H242.902L328.166 368.309C386.126 372.6 431.974 421.055 431.974 480C431.974 488.822 424.785 496 415.949 496ZM375.885 432H327.808C323.383 432 319.795 435.582 319.795 440S323.383 448 327.808 448H375.885C380.31 448 383.897 444.418 383.897 440S380.31 432 375.885 432Z"/></svg>