<svg xmlns="http://www.w3.org/2000/svg" viewBox="0 0 512 512"><!-- Font Awesome Pro 6.0.0-alpha2 by @fontawesome - https://fontawesome.com License - https://fontawesome.com/license (Commercial License) --><path d="M351.998 320H160.002C71.639 320 0 391.633 0 480C0 497.672 14.33 512 31.998 512H480.002C497.67 512 512 497.672 512 480C512 391.633 440.367 320 351.998 320ZM480.002 496H31.998C23.178 496 16 488.822 16 480C16 400.598 80.6 336 160.002 336H351.998C431.402 336 496 400.598 496 480C496 488.822 488.824 496 480.002 496ZM256 288C335.533 288 400 223.527 400 144S335.533 0 256 0C176.477 0 112 64.473 112 144S176.477 288 256 288ZM256 16C326.58 16 384 73.42 384 144C384 214.578 326.58 272 256 272C185.422 272 128 214.578 128 144C128 73.42 185.422 16 256 16Z"/></svg>