<svg xmlns="http://www.w3.org/2000/svg" viewBox="0 0 640 512"><!-- Font Awesome Pro 6.0.0-alpha2 by @fontawesome - https://fontawesome.com License - https://fontawesome.com/license (Commercial License) --><path d="M512 160C556.184 160 592 124.182 592 80S556.184 0 512 0C467.82 0 432 35.818 432 80S467.82 160 512 160ZM512 16C547.289 16 576 44.711 576 80S547.289 144 512 144S448 115.289 448 80S476.711 16 512 16ZM128 160C172.184 160 208 124.182 208 80S172.184 0 128 0C83.82 0 48 35.818 48 80S83.82 160 128 160ZM128 16C163.289 16 192 44.711 192 80S163.289 144 128 144S64 115.289 64 80S92.711 16 128 16ZM319.859 320C377.273 320 423.814 273.436 423.814 216C423.814 158.562 377.273 112 319.859 112C262.451 112 215.904 158.562 215.904 216C215.904 273.436 262.451 320 319.859 320ZM319.859 128C368.357 128 407.814 167.477 407.814 216S368.357 304 319.859 304S231.904 264.523 231.904 216S271.361 128 319.859 128ZM200 296C200 291.578 196.422 288 192 288H23.094C19.188 288 16 284.406 16 280C16 240.297 46.281 208 83.5 208H160C164.734 208 169.5 208.562 174.156 209.656C178.453 210.766 182.781 208 183.781 203.719C184.797 199.422 182.141 195.109 177.844 194.094C171.969 192.703 165.969 192 160 192H83.5C37.453 192 0 231.469 0 280C0 293.234 10.359 304 23.094 304H192C196.422 304 200 300.422 200 296ZM556.5 192H480C474.031 192 468.031 192.703 462.156 194.094C457.859 195.109 455.203 199.422 456.219 203.719C457.225 208.021 461.543 210.793 465.91 209.639C471.578 208.141 478.002 208 483.867 208H556.5C591.475 208 620.324 236.52 623.676 272.904C624.049 276.949 627.52 280 631.584 280C636.363 280 640.031 275.826 639.574 271.068C635.314 226.717 599.688 192 556.5 192ZM392 496H156.422C149.572 496 144 491.215 144 485.332C144 420.635 200.574 368 270.113 368H357.803C362.168 368 365.729 364.498 365.801 360.133C365.875 355.662 362.271 352 357.803 352H270.113C191.631 352 128 411.693 128 485.332C128 500.059 140.727 512 156.422 512H392C396.418 512 400 508.418 400 504S396.418 496 392 496ZM512 344C485.492 344 464 365.49 464 392S485.492 440 512 440C538.51 440 560 418.51 560 392S538.51 344 512 344ZM512 424C494.355 424 480 409.645 480 392S494.355 360 512 360C529.646 360 544 374.355 544 392S529.646 424 512 424ZM606.035 403.656C607.02 395.904 607.02 388.09 606.035 380.34L620.256 372.057C625.867 369.025 628.492 362.588 626.602 356.273C621.287 339.381 612.131 323.566 600.191 310.643C596.002 305.953 589.018 304.812 583.516 308.016L569.076 316.361C562.826 311.643 556.059 307.734 548.887 304.703V287.951C548.887 281.59 544.371 276.09 538.369 274.918C520.945 271.043 502.66 271.027 485.768 274.871C479.58 276.074 475.094 281.574 475.094 287.951V304.703C467.922 307.734 461.17 311.643 454.904 316.361L440.527 308.094C435.213 304.844 428.197 305.859 423.807 310.549C411.695 323.645 402.553 339.475 397.35 356.398C395.537 362.51 398.068 368.916 403.412 371.916L417.898 380.371C416.961 388.105 416.961 395.889 417.898 403.625L403.646 411.937C398.084 414.937 395.506 421.377 397.381 427.674C402.506 444.365 411.648 460.18 423.854 473.51C428.182 478.072 434.994 479.072 440.371 475.994L454.904 467.633C461.17 472.354 467.922 476.26 475.094 479.291V496.045C475.094 502.42 479.58 507.92 485.533 509.078C494.316 511.031 503.287 512 512.162 512C521.008 512 529.758 511.047 538.15 509.125C544.371 507.904 548.887 502.404 548.887 496.045V479.291C556.059 476.26 562.826 472.354 569.076 467.633L583.375 475.9C588.814 479.213 595.908 478.15 600.098 473.447C612.131 460.43 621.287 444.615 626.648 427.596C628.492 421.408 625.867 414.969 620.49 412.078L606.035 403.656ZM589.705 461.086L567.451 448.225C550.385 462.746 543.273 464.473 532.885 468.148V493.887C519.398 496.701 505.084 496.701 491.098 493.887V468.148C483.289 465.387 474.326 463.354 456.545 448.225L434.197 461.086C424.775 450.396 417.57 437.926 413.273 424.846L435.465 411.906C433.955 403.494 431.439 394.533 435.465 372.088L413.273 359.148C417.633 345.896 424.838 333.426 434.197 322.91L456.545 335.771C473.609 321.242 480.705 319.521 491.098 315.846V290.092C504.615 287.279 518.898 287.295 532.885 290.107V315.846C540.691 318.607 549.672 320.635 567.451 335.771L589.705 322.91C599.035 333.41 606.254 345.881 610.707 359.102L588.377 372.119C592.498 393.971 590.412 401.084 588.377 411.875L610.707 424.893C606.238 438.129 599.051 450.537 589.705 461.086Z"/></svg>