<svg xmlns="http://www.w3.org/2000/svg" viewBox="0 0 640 512"><!-- Font Awesome Pro 6.0.0-alpha2 by @fontawesome - https://fontawesome.com License - https://fontawesome.com/license (Commercial License) --><path d="M224 256C294.695 256 352 198.691 352 128S294.695 0 224 0C153.312 0 96 57.309 96 128S153.312 256 224 256ZM224 16C285.758 16 336 66.242 336 128S285.758 240 224 240S112 189.758 112 128S162.242 16 224 16ZM384 496H41.438C27.406 496 16 485.219 16 472C16 388.188 87.406 320 175.156 320H272.844C288.188 320 303.344 322.062 317.812 326.156C322.156 327.406 326.531 324.875 327.688 320.656C328.906 316.406 326.438 311.969 322.188 310.781C306.281 306.281 289.656 304 272.844 304H175.156C78.562 304 0 379.375 0 472C0 494.062 18.594 512 41.438 512H384C388.406 512 392 508.406 392 504S388.406 496 384 496ZM622.25 271.104L507.125 226.092C504.695 225.131 500.744 224 495.941 224C492.592 224 488.828 224.549 484.875 226.092L369.75 271.104C359 275.229 352 285.104 352 295.986C352 407.635 420.75 484.783 484.875 509.912C488.826 511.451 492.568 512 495.9 512C500.684 512 504.619 510.869 507.125 509.912C558.375 489.908 640 420.514 640 295.986C640 285.104 633 275.229 622.25 271.104ZM488 493.678C429.678 469.404 368 398.111 368 295.986C368 291.688 370.938 287.785 375.576 286.004L488 242.049V493.678ZM504 493.838V242.049L616.518 286.041C621.062 287.785 624 291.688 624 295.986C624 413.217 546.908 475.869 504 493.838Z"/></svg>