<svg xmlns="http://www.w3.org/2000/svg" viewBox="0 0 384 512"><!-- Font Awesome Pro 6.0.0-alpha2 by @fontawesome - https://fontawesome.com License - https://fontawesome.com/license (Commercial License) --><path d="M368 176C368 78.799 289.201 0 192 0S16 78.799 16 176C16 270.5 90.541 347.385 184 351.596V408H104C99.594 408 96 411.594 96 416S99.594 424 104 424H184V504C184 508.406 187.594 512 192 512S200 508.406 200 504V424H280C284.406 424 288 420.406 288 416S284.406 408 280 408H200V351.596C293.459 347.385 368 270.5 368 176ZM32 176C32 87.775 103.775 16 192 16S352 87.775 352 176S280.225 336 192 336S32 264.225 32 176Z"/></svg>