<svg xmlns="http://www.w3.org/2000/svg" viewBox="0 0 640 512"><!-- Font Awesome Pro 6.0.0-alpha2 by @fontawesome - https://fontawesome.com License - https://fontawesome.com/license (Commercial License) --><path d="M652.45 409.344L560.012 347.719V292.938L619.575 263.156C622.294 261.812 624.012 259.031 624.012 256S622.294 250.188 619.575 248.844L496.012 187.062V131.312L525.669 101.656C527.481 99.844 528.325 97.25 527.919 94.719S525.887 90 523.575 88.844L331.575 -7.156C329.325 -8.281 326.7 -8.281 324.45 -7.156L132.45 88.844C130.137 90 128.512 92.188 128.106 94.719S128.544 99.844 130.356 101.656L160.012 131.312V187.062L36.45 248.844C33.731 250.188 32.012 252.969 32.012 256S33.731 261.812 36.45 263.156L96.012 292.938V347.719L3.575 409.344C1.2 410.938 -0.144 413.656 0.012 416.5C0.2 419.344 1.887 421.875 4.45 423.156L64.012 452.938V504C64.012 508.406 67.606 512 72.012 512S80.012 508.406 80.012 504V456H320.012V504C320.012 508.406 323.606 512 328.012 512S336.012 508.406 336.012 504V456H576.012V504C576.012 508.406 579.606 512 584.012 512S592.012 508.406 592.012 504V452.938L651.575 423.156C654.137 421.875 655.825 419.344 656.012 416.5C656.169 413.656 654.825 410.938 652.45 409.344ZM112.012 296H544.012V344H112.012V296ZM176.012 136H480.012V184H176.012V136ZM328.012 8.938L506.512 98.188L484.7 120H171.325L149.512 98.188L328.012 8.938ZM169.887 200H486.137L598.137 256L550.137 280H105.887L57.887 256L169.887 200ZM582.137 440H73.887L23.919 415L106.45 360H549.575L632.106 415L582.137 440Z"/></svg>