<svg xmlns="http://www.w3.org/2000/svg" viewBox="0 0 640 512"><!-- Font Awesome Pro 6.0.0-alpha2 by @fontawesome - https://fontawesome.com License - https://fontawesome.com/license (Commercial License) --><path d="M461.641 96.008C470.475 96.008 477.643 88.84 477.643 80.004C477.643 71.17 470.475 64 461.641 64C452.805 64 445.637 71.17 445.637 80.004C445.637 88.84 452.805 96.008 461.641 96.008ZM525.645 32C534.48 32 541.646 24.832 541.646 16C541.646 7.166 534.48 0 525.645 0C516.811 0 509.645 7.166 509.645 16C509.645 24.832 516.811 32 525.645 32ZM246.719 404.188L233.5 390.938C225.562 383 213.031 381.719 203.672 387.969L136.094 433C130.078 437.125 126.312 443.5 125.797 450.281C125.016 457.5 127.547 464.5 132.625 469.375L168.156 504.938C172.578 509.5 178.562 512 184.734 512C185.547 512 186.375 511.969 187.188 511.875C194.156 511.313 200.516 507.563 204.719 501.5L249.672 434C255.906 424.656 254.672 412.125 246.719 404.188ZM236.359 425.125L191.484 492.5C190.094 494.5 188.062 495.75 185.688 495.938C183.406 496.125 181.219 495.406 179.578 493.719L143.828 457.969C142.234 456.406 141.469 454.25 141.719 451.75C141.891 449.594 143.141 447.563 145.047 446.25L212.547 401.281C213.859 400.406 215.328 400 216.781 400C218.75 400 220.672 400.75 222.172 402.25L235.406 415.5C238.016 418.094 238.406 422.062 236.359 425.125ZM621.658 96.008C612.826 96.008 605.662 103.172 605.662 112.004C605.662 120.834 612.826 128 621.658 128S637.656 120.834 637.656 112.004C637.656 103.172 630.49 96.008 621.658 96.008ZM489 252.781C482.07 230.547 470.25 210.666 455.078 193.891L635.312 13.656C638.437 10.531 638.437 5.469 635.312 2.344S627.125 -0.781 624 2.344L443.76 182.584C426.996 167.451 407.139 155.662 384.938 148.75C382.891 148.094 381.156 147.625 379.813 147.313C343.047 138.594 307.938 147.031 283.688 170.344C281.438 172.531 280.656 175.812 281.688 178.75C284.094 185.656 285.375 193 285.484 200.438C285.594 226.844 271.219 251.062 247.969 263.719C224.672 276.438 196.484 275.344 174.438 260.938C171.609 259.062 167.969 259.188 165.281 261.219C162.578 263.219 160.016 265.375 157.156 267.969C125.016 299.969 116.828 351 135.781 401.156C137.359 405.281 141.937 407.406 146.094 405.781C150.234 404.219 152.312 399.625 150.75 395.469C134.062 351.312 140.844 306.812 168.125 279.594C168.984 278.812 169.828 278.094 170.687 277.344C196.859 292.031 228.875 292.312 255.625 277.781C284.047 262.312 301.625 232.656 301.484 200.281C301.375 192.875 300.328 185.594 298.391 178.625C318.453 161.625 346.484 155.937 376.187 162.875C377.25 163.125 378.609 163.531 380.187 164C399.873 170.145 417.504 180.557 432.449 193.895L344 282.344C340.875 285.469 340.875 290.531 344 293.656C345.562 295.219 347.609 296 349.656 296S353.75 295.219 355.312 293.656L443.768 205.201C457.143 220.158 467.578 237.812 473.719 257.531C474.203 259.125 474.578 260.437 474.828 261.531C481.703 291.062 475.953 319.031 459.031 339.125C425.141 330.125 388.672 342.312 367.109 370.406C345.75 398.406 343.391 436.469 360.609 466.781C359.891 467.656 359.172 468.469 358.438 469.25C330.813 496.844 286.359 503.688 242.375 486.938C238.281 485.313 233.625 487.438 232.047 491.562C230.484 495.687 232.563 500.312 236.688 501.875C254.5 508.656 272.422 511.969 289.609 511.969C320.609 511.969 349.141 501.156 369.938 480.375C372.375 477.781 374.547 475.062 376.703 472.219C378.766 469.531 378.891 465.812 377.016 462.969C360.281 437.594 361.406 404.281 379.812 380.125C398.297 356.031 430.125 346.25 459.094 355.812C462.031 356.781 465.25 355.969 467.391 353.75C490.562 329.531 498.953 294.594 490.422 257.906C490.109 256.562 489.641 254.812 489 252.781ZM557.65 160.004C548.816 160.004 541.646 167.172 541.646 176.01C541.646 184.844 548.816 192.016 557.65 192.016C566.486 192.016 573.656 184.844 573.656 176.01C573.656 167.172 566.486 160.004 557.65 160.004ZM347.312 2.344C344.188 -0.781 339.125 -0.781 336 2.344L0 338.344C-3.125 341.469 -3.125 346.531 0 349.656C1.562 351.219 3.609 352 5.656 352S9.75 351.219 11.312 349.656L347.312 13.656C350.438 10.531 350.438 5.469 347.312 2.344Z"/></svg>