<svg xmlns="http://www.w3.org/2000/svg" viewBox="0 0 512 512"><!-- Font Awesome Pro 6.0.0-alpha2 by @fontawesome - https://fontawesome.com License - https://fontawesome.com/license (Commercial License) --><path d="M302.867 224H209.121C197.119 224 185.945 229.281 178.428 238.562L124.531 305.625C122.156 308.562 122.188 312.781 124.594 315.719L137.408 331.281C143.408 338.625 152.707 342.875 162.895 342.875C162.926 342.906 162.957 342.906 163.004 342.906C173.209 342.875 182.555 338.688 188.664 331.281C204.236 312.258 239.453 304.02 262.596 330.063L293.225 364.906C299.227 371.719 308.242 375.656 317.963 375.688H318.088C327.856 375.688 336.934 371.781 343.029 364.906L386.754 315.188C389.332 312.281 389.426 307.938 386.988 304.906L333.621 238.469C326.01 229.281 314.791 224 302.867 224ZM331.043 354.312C324.649 361.496 311.535 361.459 305.242 354.344L274.582 319.469C262.299 305.656 245.485 297.719 229.295 297.719C205.832 297.719 188.272 306.475 176.303 321.125C170.061 328.707 156.135 328.871 149.77 321.125L141.08 310.562L190.867 248.594C195.322 243.125 201.963 240 209.121 240H302.867C310.024 240 316.744 243.156 321.229 248.562L370.297 309.687L331.043 354.312ZM164.797 147.971C175.078 147.971 185.188 145.721 194.469 141.379L218.502 187.65C220.533 191.588 225.393 193.148 229.283 191.057C233.205 189.025 234.736 184.182 232.69 180.277L204.906 126.787C202.129 121.4 196.221 122.092 193.578 123.693C184.906 129.1 174.953 131.975 164.797 131.975C135.688 131.975 112 109.26 112 81.328C112 53.395 135.688 30.65 164.797 30.65C177.235 30.65 189.031 34.898 198.938 42.959C203.059 46.314 208.522 44.6 210.783 40.961C220.471 25.338 237.377 15.996 256.002 15.996S291.533 25.338 301.221 40.961C303.5 44.629 308.932 46.295 313.065 42.959C322.971 34.898 334.768 30.65 347.205 30.65C376.315 30.65 400.002 53.395 400.002 81.328C400.002 109.26 376.315 131.975 347.205 131.975C337.049 131.975 327.096 129.1 318.424 123.693C315.805 122.092 309.877 121.396 307.096 126.787L279.315 180.277C277.268 184.182 278.799 189.025 282.721 191.057C287.416 193.559 291.969 190.615 293.502 187.65L317.533 141.379C326.815 145.721 336.924 147.971 347.205 147.971C385.143 147.971 416.002 118.07 416.002 81.328C416.002 44.553 385.143 14.652 347.205 14.652C333.861 14.652 321.111 18.402 309.877 25.557C296.877 9.404 277.299 0 256.002 0S215.127 9.404 202.125 25.557C190.891 18.402 178.141 14.652 164.797 14.652C126.86 14.652 96 44.553 96 81.328C96 118.07 126.86 147.971 164.797 147.971ZM503.988 450.594L406.365 329.125C403.615 325.688 398.582 325.125 395.113 327.875C391.676 330.656 391.129 335.688 393.895 339.125L491.408 460.469C502.225 474.541 492.719 496 473.045 496H39.067C19.59 496 9.604 474.686 20.486 460.625L117.498 340.094C120.266 336.625 119.717 331.594 116.279 328.844C112.826 326.031 107.795 326.625 105.027 330.031L7.906 450.719C-0.939 462.187 -2.486 477.375 3.891 490.344C10.453 503.688 23.94 512 39.067 512H473.045C488.11 512 501.549 503.719 508.113 490.375C514.488 477.406 512.957 462.219 503.988 450.594Z"/></svg>