<svg xmlns="http://www.w3.org/2000/svg" viewBox="0 0 384 512"><!-- Font Awesome Pro 6.0.0-alpha2 by @fontawesome - https://fontawesome.com License - https://fontawesome.com/license (Commercial License) --><path d="M328 96V80C328 66.781 317.219 56 304 56H272C258.781 56 248 66.781 248 80V96H232V80C232 66.781 221.219 56 208 56H176C162.781 56 152 66.781 152 80V96H96V8C96 3.594 92.406 0 88 0S80 3.594 80 8V96H56C33.938 96 16 113.938 16 136V289.25C16 311.219 25.844 331.719 43.031 345.469L56 355.844V472C56 494.062 73.938 512 96 512H288C310.062 512 328 494.062 328 472V355.844L340.969 345.469C358.156 331.719 368 311.219 368 289.25V136C368 113.938 350.062 96 328 96ZM264 80C264 75.594 267.594 72 272 72H304C308.406 72 312 75.594 312 80V96H264V80ZM168 80C168 75.594 171.594 72 176 72H208C212.406 72 216 75.594 216 80V96H168V80ZM352 289.25C352 306.344 344.344 322.281 330.969 332.969L315 345.75C313.094 347.281 312 349.562 312 352V472C312 485.219 301.219 496 288 496H96C82.781 496 72 485.219 72 472V352C72 349.562 70.906 347.281 69 345.75L53.031 332.969C39.656 322.281 32 306.344 32 289.25V136C32 122.781 42.781 112 56 112H328C341.219 112 352 122.781 352 136V289.25ZM280 160H104C99.594 160 96 163.594 96 168S99.594 176 104 176H280C284.406 176 288 172.406 288 168S284.406 160 280 160ZM280 224H104C99.594 224 96 227.594 96 232S99.594 240 104 240H280C284.406 240 288 236.406 288 232S284.406 224 280 224ZM280 288H104C99.594 288 96 291.594 96 296S99.594 304 104 304H280C284.406 304 288 300.406 288 296S284.406 288 280 288Z"/></svg>