<svg xmlns="http://www.w3.org/2000/svg" viewBox="0 0 576 512"><!-- Font Awesome Pro 6.0.0-alpha2 by @fontawesome - https://fontawesome.com License - https://fontawesome.com/license (Commercial License) --><path d="M40 135.941H88V183.963C88 188.385 91.594 191.965 96 191.965S104 188.385 104 183.963V135.941H152C156.406 135.941 160 132.363 160 127.939S156.406 119.936 152 119.936H104V71.916C104 67.492 100.406 63.912 96 63.912S88 67.492 88 71.916V119.936H40C35.594 119.936 32 123.516 32 127.939S35.594 135.941 40 135.941ZM184 71.916H216V103.93C216 108.354 219.594 111.932 224 111.932S232 108.354 232 103.93V71.916H264C268.406 71.916 272 68.336 272 63.912S268.406 55.91 264 55.91H232V23.896C232 19.473 228.406 15.893 224 15.893S216 19.473 216 23.896V55.91H184C179.594 55.91 176 59.488 176 63.912S179.594 71.916 184 71.916ZM536 376.041H488V328.021C488 323.598 484.406 320.018 480 320.018S472 323.598 472 328.021V376.041H424C419.594 376.041 416 379.621 416 384.045S419.594 392.047 424 392.047H472V440.068C472 444.492 475.594 448.07 480 448.07S488 444.492 488 440.068V392.047H536C540.406 392.047 544 388.469 544 384.045S540.406 376.041 536 376.041ZM532.58 39L505.016 11.424C497.402 3.809 487.418 0 477.438 0C467.455 0 457.477 3.807 449.861 11.422L43.424 417.838C28.193 433.068 28.191 457.76 43.422 472.992L70.992 500.574C78.605 508.189 88.59 512 98.57 512C108.553 512 118.531 508.193 126.146 500.576L532.578 94.15C547.807 78.922 547.807 54.23 532.58 39ZM114.832 489.264C110.488 493.607 104.713 496 98.57 496S86.652 493.607 82.309 489.262L54.736 461.68C45.77 452.711 45.77 438.119 54.738 429.152L316.295 167.607L376.393 227.705L114.832 489.264ZM521.266 82.836L387.707 216.395L327.607 156.295L461.176 22.734C465.52 18.393 471.295 16 477.438 16C483.582 16 489.357 18.393 493.699 22.734L521.266 50.312C530.23 59.279 530.23 73.871 521.266 82.836Z"/></svg>