<svg xmlns="http://www.w3.org/2000/svg" viewBox="0 0 640 512"><!-- Font Awesome Pro 6.0.0-alpha2 by @fontawesome - https://fontawesome.com License - https://fontawesome.com/license (Commercial License) --><path d="M614.375 112.645L322.875 0.516C321 -0.172 319 -0.172 317.125 0.516L25.625 112.645C10.312 118.551 0 133.551 0 149.957V504C0 508.406 3.594 512 8 512S16 508.406 16 504V149.957C16 140.113 22.188 131.113 31.375 127.582L320 16.547L608.625 127.582C617.812 131.113 624 140.113 624 149.957V504C624 508.406 627.594 512 632 512S640 508.406 640 504V149.957C640 133.551 629.688 118.551 614.375 112.645ZM520 191.99H120C106.781 191.99 96 202.771 96 215.99V504C96 508.406 99.594 512 104 512S112 508.406 112 504V215.99C112 211.584 115.594 207.99 120 207.99H520C524.406 207.99 528 211.584 528 215.99V504C528 508.406 531.594 512 536 512S544 508.406 544 504V215.99C544 202.771 533.219 191.99 520 191.99ZM280 416H168C154.744 416 144 426.746 144 440V488C144 501.254 154.744 512 168 512H280C293.256 512 304 501.254 304 488V440C304 426.746 293.256 416 280 416ZM288 488C288 492.412 284.412 496 280 496H168C163.59 496 160 492.412 160 488V440C160 435.588 163.59 432 168 432H280C284.412 432 288 435.588 288 440V488ZM280 288H168C154.744 288 144 298.746 144 312V360C144 373.254 154.744 384 168 384H280C293.256 384 304 373.254 304 360V312C304 298.746 293.256 288 280 288ZM288 360C288 364.412 284.412 368 280 368H168C163.59 368 160 364.412 160 360V312C160 307.588 163.59 304 168 304H280C284.412 304 288 307.588 288 312V360ZM472 416H360C346.744 416 336 426.746 336 440V488C336 501.254 346.744 512 360 512H472C485.256 512 496 501.254 496 488V440C496 426.746 485.256 416 472 416ZM480 488C480 492.412 476.412 496 472 496H360C355.59 496 352 492.412 352 488V440C352 435.588 355.59 432 360 432H472C476.412 432 480 435.588 480 440V488Z"/></svg>