<svg xmlns="http://www.w3.org/2000/svg" viewBox="0 0 448 512"><!-- Font Awesome Pro 6.0.0-alpha2 by @fontawesome - https://fontawesome.com License - https://fontawesome.com/license (Commercial License) --><path d="M160 112C168.836 112 176 104.836 176 96C176 87.162 168.836 80 160 80S144 87.162 144 96C144 104.836 151.164 112 160 112ZM112 96C112 87.162 104.836 80 96 80S80 87.162 80 96C80 104.836 87.164 112 96 112S112 104.836 112 96ZM384 0H64C28.654 0 0 28.654 0 64V448C0 483.346 28.654 512 64 512H384C419.346 512 448 483.346 448 448V64C448 28.654 419.346 0 384 0ZM432 448C432 474.467 410.467 496 384 496H64C37.533 496 16 474.467 16 448V64C16 37.533 37.533 16 64 16H384C410.467 16 432 37.533 432 64V448ZM224 168C148.889 168 88 228.889 88 304S148.889 440 224 440S360 379.111 360 304S299.111 168 224 168ZM224 424C163.637 424 114.039 379.049 105.713 320.953C129.785 328.172 155.561 321.984 174.859 303.656C202.016 329.656 245.969 329.656 273.156 303.656C287.234 317.031 304.812 324.031 322.641 324.031C329.229 324.031 335.805 322.76 342.301 320.811C334.037 378.977 284.412 424 224 424ZM279.203 286.812C277.688 285.031 275.453 284 273.109 284C271.391 284.125 268.484 285.031 266.953 286.875C255.812 300.281 240.156 307.969 224 307.969C207.859 307.969 192.203 300.281 181.031 286.875C179.531 285.062 177.297 284 174.922 284C174.922 284 174.906 284 174.891 284C172.547 284 170.312 285.031 168.797 286.812C151.828 306.852 126.4 312.623 104.111 302.902C104.719 237.248 158.207 184 224 184C289.789 184 343.279 237.248 343.889 302.896C321.6 312.574 296.17 306.85 279.203 286.812Z"/></svg>