<svg xmlns="http://www.w3.org/2000/svg" viewBox="0 0 384 512"><!-- Font Awesome Pro 6.0.0-alpha2 by @fontawesome - https://fontawesome.com License - https://fontawesome.com/license (Commercial License) --><path d="M200 260V160C200 155.594 196.422 152 192 152S184 155.594 184 160V264C184 266.531 185.188 268.875 187.203 270.406L251.203 318.406C252.641 319.469 254.328 320 256 320C258.422 320 260.828 318.906 262.406 316.812C265.047 313.25 264.328 308.25 260.797 305.594L200 260ZM312 448C307.578 448 304 451.594 304 456V472C304 485.219 293.234 496 280 496H104C90.766 496 80 485.219 80 472V456C80 451.594 76.422 448 72 448S64 451.594 64 456V472C64 494.062 81.938 512 104 512H280C302.062 512 320 494.062 320 472V456C320 451.594 316.422 448 312 448ZM72 64C76.422 64 80 60.406 80 56V40C80 26.781 90.766 16 104 16H280C293.234 16 304 26.781 304 40V56C304 60.406 307.578 64 312 64S320 60.406 320 56V40C320 17.938 302.062 0 280 0H104C81.938 0 64 17.938 64 40V56C64 60.406 67.578 64 72 64ZM312 80H72C32.297 80 0 112.312 0 152V360C0 399.688 32.297 432 72 432H312C351.703 432 384 399.688 384 360V152C384 112.312 351.703 80 312 80ZM368 360C368 390.875 342.875 416 312 416H72C41.125 416 16 390.875 16 360V152C16 121.125 41.125 96 72 96H312C342.875 96 368 121.125 368 152V360Z"/></svg>