<svg xmlns="http://www.w3.org/2000/svg" viewBox="0 0 576 512"><!-- Font Awesome Pro 6.0.0-alpha2 by @fontawesome - https://fontawesome.com License - https://fontawesome.com/license (Commercial License) --><path d="M568.63 463.641C539.349 461.352 510.755 445.781 485.909 418.602C484.378 416.941 482.253 416 480.003 416H479.972C477.722 416 475.597 416.957 474.066 418.633C447.409 448.164 416.439 463.828 384.564 463.941H384.22C352.282 463.941 321.03 448.258 293.905 418.602C292.374 416.941 290.249 416 287.999 416H287.968C285.718 416 283.593 416.957 282.062 418.633C255.405 448.164 224.435 463.828 192.56 463.941H192.216C160.276 463.941 129.026 448.258 101.901 418.602C100.37 416.941 98.245 416 95.995 416H95.964C93.714 416 91.589 416.957 90.058 418.633C65.4 445.922 36.806 461.508 7.4 463.672C2.993 464.004 -0.319 467.859 0.025 472.281C0.368 476.691 3.368 479.828 8.587 479.703C39.806 477.383 69.868 462.215 96.026 435.664C124.933 464.711 158.026 480 192.216 480H192.591C226.716 479.891 259.562 464.602 288.03 435.68C316.937 464.711 350.032 480 384.22 480H384.595C418.72 479.891 451.566 464.602 480.034 435.68C506.317 462.074 536.349 477.227 567.38 479.641C572.536 480.281 575.63 476.656 575.974 472.266C576.317 467.844 573.036 463.973 568.63 463.641ZM135.999 392C140.405 392 143.999 388.422 143.999 384V264H383.999V384C383.999 388.422 387.593 392 391.999 392S399.999 388.422 399.999 384V112C399.999 76.703 428.718 48 463.999 48S527.999 76.703 527.999 112V152C527.999 156.422 531.593 160 535.999 160S543.999 156.422 543.999 152V112C543.999 67.891 508.124 32 463.999 32S383.999 67.891 383.999 112V248H143.999V112C143.999 76.703 172.718 48 207.999 48S271.999 76.703 271.999 112V152C271.999 156.422 275.593 160 279.999 160S287.999 156.422 287.999 152V112C287.999 67.891 252.124 32 207.999 32S127.999 67.891 127.999 112V384C127.999 388.422 131.593 392 135.999 392Z"/></svg>