<svg xmlns="http://www.w3.org/2000/svg" viewBox="0 0 640 512"><!-- Font Awesome Pro 6.0.0-alpha2 by @fontawesome - https://fontawesome.com License - https://fontawesome.com/license (Commercial License) --><path d="M615.657 271.562C610.032 290.438 557.938 456 463.438 456C381.688 456 344.907 351.156 312.438 258.656C281.75 171.156 246.969 72 176.563 72C109.219 72 58.813 180.75 39.657 245C38.407 249.219 33.938 251.844 29.719 250.375C25.469 249.125 23.063 244.656 24.344 240.438C29.969 221.562 82.063 56 176.563 56C258.313 56 295.094 160.844 327.563 253.344C358.25 340.844 393.032 440 463.438 440C530.782 440 581.188 331.25 600.344 267C601.594 262.781 606.157 260.219 610.282 261.625C614.532 262.875 616.938 267.344 615.657 271.562Z"/></svg>