<svg xmlns="http://www.w3.org/2000/svg" viewBox="0 0 640 512"><!-- Font Awesome Pro 6.0.0-alpha2 by @fontawesome - https://fontawesome.com License - https://fontawesome.com/license (Commercial License) --><path d="M640 288C640 292.406 636.406 296 632 296H576C572.562 296 569.5 293.781 568.406 290.531L545.688 222.344L503.812 417.688C503 421.469 499.75 424.219 495.75 424C491.875 423.875 488.656 421 488.094 417.188L447.594 147.156L391.906 481.312C391.25 485.188 387.906 488 384 488H383.906C379.969 487.969 376.625 485.031 376.094 481.125L320 88.562L263.906 481.125C263.375 485.031 260.031 487.969 256.094 488H256C252.094 488 248.75 485.188 248.094 481.312L192.406 147.156L151.906 417.188C151.344 421 148.125 423.875 144.25 424C139.625 424.125 137 421.469 136.188 417.688L94.312 222.344L71.594 290.531C70.5 293.781 67.438 296 64 296H8C3.594 296 0 292.406 0 288S3.594 280 8 280H58.219L88.406 189.469C89.562 186.031 92.719 183.969 96.438 184C100.031 184.219 103.062 186.781 103.813 190.312L142.625 371.344L184.094 94.812C184.688 90.875 187.219 87.5 192 88C195.906 88 199.25 90.812 199.906 94.688L255.406 427.688L312.094 30.875C312.656 26.938 316.031 24 320 24S327.344 26.938 327.906 30.875L384.594 427.688L440.094 94.688C440.75 90.75 443.719 88.344 448.062 88C452 88.031 455.312 90.906 455.906 94.812L497.375 371.344L536.187 190.312C536.938 186.781 539.969 184.219 543.562 184C547.25 183.906 550.438 186.031 551.594 189.469L581.781 280H632C636.406 280 640 283.594 640 288Z"/></svg>