<svg xmlns="http://www.w3.org/2000/svg" viewBox="0 0 448 512"><!-- Font Awesome Pro 6.0.0-alpha2 by @fontawesome - https://fontawesome.com License - https://fontawesome.com/license (Commercial License) --><path d="M364 104C392.719 104 416 80.717 416 52S392.719 0 364 0S312 23.283 312 52S335.281 104 364 104ZM364 16C383.85 16 400 32.15 400 52S383.85 88 364 88C344.148 88 328 71.85 328 52S344.148 16 364 16ZM431.521 227.979C426.496 225.141 420.674 224 414.904 224H299.102C343.115 178.189 338.898 182.791 341.047 179.939C344.418 175.467 347.33 170.568 348.773 165.156C355.861 138.557 340.041 114.268 322.004 107.719L206.002 51.219C201.561 49.062 196.762 47.996 191.984 47.994C185.193 47.994 178.445 50.15 172.813 54.406L108.811 102.406C94.654 113 91.779 133.062 102.404 147.188C108.682 155.576 118.283 159.98 128.006 159.98C134.689 159.98 141.432 157.898 147.188 153.594L195.594 117.312L245.297 141.453L219.75 167C216.18 170.57 216.768 176.512 220.969 179.312C224.143 181.428 228.367 181.01 231.062 178.312L256.609 152.768C264.387 144.99 262.18 131.865 252.285 127.059L202.586 102.92C199.031 101.193 192.234 99.836 185.998 104.51L137.605 140.779C131.713 145.184 121.352 145.801 115.191 137.568C109.906 130.547 111.285 120.537 118.412 115.207L182.459 67.172C182.66 67.02 189.916 61.197 198.996 65.604L314.998 122.104C334.912 131.789 340.725 153.486 326.717 172.164L287.562 212.914C281.26 219.475 283.945 229.248 284.381 230.27C286.895 236.17 292.688 240 299.102 240H416.006C426.066 240 433.674 249.211 431.691 259.143L399.689 419.156C395.57 439.836 364.115 433.873 368.318 412.857L392.662 291.139C394.652 281.203 387.023 272 376.975 272H344C339.582 272 336 275.582 336 280S339.582 288 344 288H376.975L352.629 409.719C348.346 431.137 365.404 448 384.037 448C398.975 448 412.35 437.5 415.381 422.281L447.381 262.281C450.023 249.02 444.096 235.074 431.521 227.979ZM160 192C71.635 192 0 263.635 0 352S71.635 512 160 512S320 440.365 320 352S248.365 192 160 192ZM160 496C80.598 496 16 431.402 16 352S80.598 208 160 208S304 272.598 304 352S239.402 496 160 496ZM160 248C102.656 248 56 294.656 56 352S102.656 456 160 456S264 409.344 264 352S217.344 248 160 248ZM160 440C111.469 440 72 400.531 72 352S111.469 264 160 264S248 303.469 248 352S208.531 440 160 440Z"/></svg>