<svg xmlns="http://www.w3.org/2000/svg" viewBox="0 0 512 512"><!-- Font Awesome Pro 6.0.0-alpha2 by @fontawesome - https://fontawesome.com License - https://fontawesome.com/license (Commercial License) --><path d="M256.005 208C247.168 208 240.003 215.162 240.003 224C240.003 232.836 247.168 240 256.005 240C264.841 240 272.003 232.836 272.003 224C272.003 215.162 264.841 208 256.005 208ZM376.005 496H309.265L303.974 415.469C303.724 411.094 300.599 407.156 295.474 408.031C291.068 408.312 287.724 412.125 288.037 416.531L293.257 496H218.837L231.974 320.594C232.318 316.188 229.005 312.344 224.599 312.031C220.38 311.219 216.349 315 216.037 319.406L202.81 496H136.005C131.599 496 128.005 499.594 128.005 504S131.599 512 136.005 512H376.005C380.412 512 384.005 508.406 384.005 504S380.412 496 376.005 496ZM398.099 415.512L313.287 239.637C308.474 228.51 308.224 215.727 312.63 204.6L383.005 31.787C387.693 19.91 381.88 6.406 370.005 1.625C360.13 -2.281 348.88 1 342.724 9.627L233.13 160.748C225.974 170.686 215.412 177.219 203.349 179.125L19.537 208.381C8.162 210.193 -0.245 220.258 0.005 232.072C0.287 243.699 9.193 253.389 20.662 254.607L202.818 274.455C214.755 275.736 225.943 281.895 233.599 291.49L358.568 439.328C367.836 451.043 381.923 448.838 388.849 444.58C398.693 438.609 402.662 426.076 398.099 415.512ZM370.943 429.201L245.974 281.332C235.787 268.578 220.693 260.266 204.568 258.516L22.38 238.699C14.211 237.83 13.769 225.525 22.037 224.195L205.849 194.941C222.162 192.346 236.443 183.533 246.099 170.123L355.693 18.971C360.628 12.127 371.216 18.113 368.162 25.816L297.787 198.629C291.818 213.756 292.099 231.01 298.724 246.293L383.474 421.951C386.511 429.543 376.361 436.064 370.943 429.201Z"/></svg>