<svg xmlns="http://www.w3.org/2000/svg" viewBox="0 0 512 512"><!-- Font Awesome Pro 6.0.0-alpha2 by @fontawesome - https://fontawesome.com License - https://fontawesome.com/license (Commercial License) --><path d="M504 496H480V328C480 323.594 476.406 320 472 320S464 323.594 464 328V496H48V328C48 323.594 44.406 320 40 320S32 323.594 32 328V496H8C3.594 496 0 499.594 0 504S3.594 512 8 512H504C508.406 512 512 508.406 512 504S508.406 496 504 496ZM40 288H472C476.406 288 480 284.406 480 280V40C480 17.938 462.062 0 440 0H72C49.938 0 32 17.938 32 40V280C32 284.406 35.594 288 40 288ZM264 16H440C453.219 16 464 26.781 464 40V272H264V16ZM48 40C48 26.781 58.781 16 72 16H248V272H48V40Z"/></svg>