<svg xmlns="http://www.w3.org/2000/svg" viewBox="0 0 512 512"><!-- Font Awesome Pro 6.0.0-alpha2 by @fontawesome - https://fontawesome.com License - https://fontawesome.com/license (Commercial License) --><path d="M448 32H64C28.654 32 0 60.654 0 96V416C0 451.346 28.654 480 64 480H448C483.346 480 512 451.346 512 416V96C512 60.654 483.346 32 448 32ZM496 416C496 442.467 474.467 464 448 464H64C37.533 464 16 442.467 16 416V96C16 69.533 37.533 48 64 48H448C474.467 48 496 69.533 496 96V416ZM96 112C87.164 112 80 119.164 80 128S87.164 144 96 144S112 136.836 112 128S104.836 112 96 112ZM192 112C183.164 112 176 119.164 176 128S183.164 144 192 144S208 136.836 208 128S200.836 112 192 112ZM288 112C279.164 112 272 119.164 272 128S279.164 144 288 144S304 136.836 304 128S296.836 112 288 112Z"/></svg>