<svg xmlns="http://www.w3.org/2000/svg" viewBox="0 0 512 512"><!-- Font Awesome Pro 6.0.0-alpha2 by @fontawesome - https://fontawesome.com License - https://fontawesome.com/license (Commercial License) --><path d="M493.656 80L413.656 0C410.531 -3.125 405.469 -3.125 402.344 0S399.219 8.188 402.344 11.313L408.396 17.365L301.529 124.234C285.537 117.459 268.471 114.066 251.416 114.066C218.744 114.066 186.111 126.518 161.141 151.484L2.752 309.883C-22.25 334.883 -22.25 375.391 2.752 400.391L93.26 490.906C105.762 503.406 122.137 509.656 138.514 509.656S171.266 503.406 183.768 490.906L342.158 332.508C380.162 294.504 389.162 238.75 369.41 192.117L476.279 85.248L482.344 91.313C483.906 92.875 485.953 93.656 488 93.656S492.094 92.875 493.656 91.313C496.781 88.188 496.781 83.125 493.656 80ZM155.174 180.08L313.566 338.473L202.859 449.188L44.48 290.779L155.174 180.08ZM172.455 479.592C163.385 488.662 151.33 493.656 138.514 493.656S113.643 488.662 104.574 479.594L14.064 389.076C4.996 380.008 0 367.955 0 355.137C0 342.32 4.996 330.266 14.066 321.195L33.17 302.092L191.547 460.5L172.455 479.592ZM354.678 198.357C372.572 240.605 363.217 288.822 330.844 321.195L324.879 327.16L166.486 168.768L172.453 162.799C193.563 141.691 221.605 130.066 251.416 130.066C266.588 130.066 281.348 133.061 295.289 138.967L305.217 143.174L355.711 92.68L400.965 137.934L350.471 188.428L354.678 198.357ZM412.277 126.621L367.023 81.367L419.711 28.68L464.965 73.934L412.277 126.621Z"/></svg>