<svg xmlns="http://www.w3.org/2000/svg" viewBox="0 0 512 512"><!-- Font Awesome Pro 6.0.0-alpha2 by @fontawesome - https://fontawesome.com License - https://fontawesome.com/license (Commercial License) --><path d="M504 280.003H426.047L487.75 42.006C488.859 37.741 486.281 33.366 482 32.256C477.703 31.147 473.359 33.741 472.25 38.006L409.512 280.003H326.488L263.75 38.006C261.906 30.944 250.094 30.944 248.25 38.006L185.512 280.003H102.488L39.75 38.006C38.641 33.741 34.328 31.147 30 32.256C25.719 33.366 23.141 37.741 24.25 42.006L85.953 280.003H8C3.578 280.003 0 283.581 0 288.003S3.578 296.003 8 296.003H90.102L136.25 474C138.094 481.063 149.906 481.063 151.75 474L197.896 296.003H314.104L360.25 474C361.172 477.531 364.359 480 368 480S374.828 477.531 375.75 474L421.898 296.003H504C508.422 296.003 512 292.425 512 288.003S508.422 280.003 504 280.003ZM144 440.126L106.637 296.003H181.363L144 440.126ZM202.045 280.003L256 71.881L309.955 280.003H202.045ZM368 440.126L330.637 296.003H405.363L368 440.126Z"/></svg>