<svg xmlns="http://www.w3.org/2000/svg" viewBox="0 0 320 512"><!-- Font Awesome Pro 6.0.0-alpha2 by @fontawesome - https://fontawesome.com License - https://fontawesome.com/license (Commercial License) --><path d="M320 192C320 103.781 248.219 32 160 32S0 103.781 0 192S71.781 352 160 352C172.543 352 184.609 350.203 196.328 347.461L100.156 453.25C94.219 459.781 94.688 469.906 101.25 475.844C104.312 478.625 108.156 480 112 480C116.344 480 120.688 478.25 123.844 474.75C268.296 315.852 320 273.379 320 192ZM32 192C32 121.406 89.406 64 160 64S288 121.406 288 192S230.594 320 160 320S32 262.594 32 192Z"/></svg>