<svg xmlns="http://www.w3.org/2000/svg" viewBox="0 0 512 512"><!-- Font Awesome Pro 6.0.0-alpha2 by @fontawesome - https://fontawesome.com License - https://fontawesome.com/license (Commercial License) --><path d="M272 288H208C163.817 288 128 323.817 128 368C128 376.836 135.164 384 144 384C152.837 384 160 376.836 160 368C160 341.49 181.49 320 208 320H272C298.51 320 320 341.49 320 368C320 376.836 327.164 384 336 384C344.837 384 352 376.836 352 368C352 323.817 316.183 288 272 288ZM496 192H480V288H496C504.837 288 512 280.836 512 272V208C512 199.164 504.837 192 496 192ZM240 256C275.346 256 304 227.346 304 192S275.346 128 240 128S176 156.654 176 192S204.654 256 240 256ZM240 160C257.645 160 272 174.355 272 192S257.645 224 240 224S208 209.645 208 192S222.355 160 240 160ZM496 320H480V416H496C504.837 416 512 408.836 512 400V336C512 327.164 504.837 320 496 320ZM496 64H480V160H496C504.837 160 512 152.836 512 144V80C512 71.164 504.837 64 496 64ZM384 0H96C60.654 0 32 28.654 32 64V448C32 483.348 60.654 512 96 512H384C419.348 512 448 483.348 448 448V64C448 28.654 419.348 0 384 0ZM416 448C416 465.645 401.645 480 384 480H96C78.355 480 64 465.645 64 448V64C64 46.355 78.355 32 96 32H384C401.645 32 416 46.355 416 64V448Z"/></svg>