<svg xmlns="http://www.w3.org/2000/svg" viewBox="0 0 512 512"><!-- Font Awesome Pro 6.0.0-alpha2 by @fontawesome - https://fontawesome.com License - https://fontawesome.com/license (Commercial License) --><path d="M499.252 142.781C490.502 133.25 478.689 128 466.002 128H45.997C33.341 128 21.528 133.266 12.778 142.812C3.591 152.844 -1.003 166.516 0.184 180.312L24.685 468.25C26.81 493.188 46.497 512 70.498 512H441.502C465.221 512 485.283 492.734 487.189 468.25L511.815 180.328C513.002 166.484 508.44 152.812 499.252 142.781ZM455.314 465.656C454.689 473.703 448.627 480 441.502 480H70.498C63.372 480 57.247 473.641 56.56 465.531L32.06 177.578C31.653 172.672 33.216 167.891 36.372 164.453C37.872 162.781 41.153 160 45.997 160H466.002C469.627 160 473.033 161.562 475.658 164.422C478.814 167.844 480.377 172.641 479.939 177.594L455.314 465.656ZM256.015 299.125C241.515 299.125 229.765 309.25 229.89 321.75S241.765 344 256.015 344C270.265 344 282.015 334.125 282.14 321.75C282.265 309.5 270.515 299.125 256.015 299.125ZM256.015 192C163.139 192 91.638 253.875 96.263 326.375C100.513 395 172.014 448 256.015 448S411.517 395 415.767 326.375C420.392 253.875 348.891 192 256.015 192ZM256.015 416C188.667 416 131.33 374.906 128.197 324.338C126.481 297.42 139.846 277.143 151.36 264.869C175.729 238.896 213.874 224 256.015 224C298.154 224 336.299 238.896 360.669 264.869C372.182 277.143 385.548 297.42 383.827 324.396C380.7 374.906 323.364 416 256.015 416ZM47.997 32H464.002C472.846 32 480.002 24.844 480.002 16S472.846 0 464.002 0H47.997C39.153 0 31.997 7.156 31.997 16S39.153 32 47.997 32ZM31.997 96H480.002C488.846 96 496.002 88.844 496.002 80S488.846 64 480.002 64H31.997C23.153 64 15.997 71.156 15.997 80S23.153 96 31.997 96Z"/></svg>