<svg xmlns="http://www.w3.org/2000/svg" viewBox="0 0 448 512"><!-- Font Awesome Pro 6.0.0-alpha2 by @fontawesome - https://fontawesome.com License - https://fontawesome.com/license (Commercial License) --><path d="M224 0C100.25 0 0 87.995 0 232.486C0 344.229 134.25 456.972 194.875 502.344C212.125 515.219 235.875 515.219 253.125 502.344C313.75 456.972 448 344.229 448 232.486C448 87.995 347.75 0 224 0ZM233.999 476.596C228.125 481.096 219.875 481.096 213.999 476.596C171.25 444.723 32 332.98 32 232.486C32 114.368 111 31.998 224 31.998S416 114.368 416 232.486C416 332.98 276.75 444.723 233.999 476.596ZM368 211.987H320C275.875 211.987 240 247.86 240 291.982V303.981C240 312.856 247.125 319.98 256 319.98H304C348.125 319.98 384 284.108 384 239.985V227.986C384 219.112 376.875 211.987 368 211.987ZM304 287.982H272.125C274.25 263.109 295 243.985 320 243.985H351.875C349.75 268.859 329 287.982 304 287.982ZM128 211.987H80C71.125 211.987 64 219.112 64 227.986V239.985C64 284.108 99.875 319.98 144 319.98H192C200.875 319.98 208 312.856 208 303.981V291.982C208 247.86 172.125 211.987 128 211.987ZM144 287.982C119 287.982 98.25 268.859 96.125 243.985H128C153 243.985 173.75 263.109 175.875 287.982H144Z"/></svg>