<svg xmlns="http://www.w3.org/2000/svg" viewBox="0 0 448 512"><!-- Font Awesome Pro 6.0.0-alpha2 by @fontawesome - https://fontawesome.com License - https://fontawesome.com/license (Commercial License) --><path d="M202.705 84.104C196.143 78.197 186.018 78.729 180.111 85.291L36.102 245.281C30.633 251.406 30.633 260.594 36.102 266.719L180.111 426.709C186.018 433.271 196.143 433.803 202.705 427.896C209.254 421.959 209.77 411.865 203.893 405.271L69.525 256L203.893 106.729C209.488 100.498 209.623 90.375 202.705 84.104ZM261.525 256L395.893 106.729C401.488 100.498 401.623 90.375 394.705 84.104C388.143 78.197 378.018 78.729 372.111 85.291L228.102 245.281C222.633 251.406 222.633 260.594 228.102 266.719L372.111 426.709C378.018 433.271 388.143 433.803 394.705 427.896C401.254 421.959 401.77 411.865 395.893 405.271L261.525 256Z"/></svg>