<svg xmlns="http://www.w3.org/2000/svg" viewBox="0 0 384 512"><!-- Font Awesome Pro 6.0.0-alpha2 by @fontawesome - https://fontawesome.com License - https://fontawesome.com/license (Commercial License) --><path d="M181.282 251.898C187.407 257.367 196.594 257.367 202.719 251.898L362.71 107.888C369.272 101.982 369.803 91.857 363.897 85.295C357.96 78.746 347.866 78.23 341.272 84.107L192.001 218.474L42.729 84.107C36.499 78.511 26.376 78.377 20.104 85.295C14.198 91.857 14.729 101.982 21.292 107.888L181.282 251.898ZM341.272 276.107L192.001 410.474L42.729 276.107C36.499 270.512 26.376 270.377 20.104 277.295C14.198 283.857 14.729 293.982 21.292 299.888L181.282 443.898C187.407 449.367 196.594 449.367 202.719 443.898L362.71 299.888C369.272 293.982 369.803 283.857 363.897 277.295C357.96 270.746 347.866 270.23 341.272 276.107Z"/></svg>