<svg xmlns="http://www.w3.org/2000/svg" viewBox="0 0 384 512"><!-- Font Awesome Pro 6.0.0-alpha2 by @fontawesome - https://fontawesome.com License - https://fontawesome.com/license (Commercial License) --><path d="M174.246 127.391C174.246 127.391 179.589 128.076 187.996 128.076C206.089 128.076 239.747 124.75 261.997 102.504C293.435 71.197 287.216 17.021 286.935 14.725C286.06 7.461 280.279 1.711 272.997 0.791C272.997 0.791 267.324 0 258.544 0C239.945 0 207.39 3.547 185.246 25.676C153.806 56.982 160.025 111.158 160.306 113.455C161.181 120.719 166.962 126.469 174.246 127.391ZM207.839 48.312C220.996 35.158 243.497 32.549 255.591 32.158C255.091 46.984 251.591 67.715 239.402 79.867C226.246 93.021 203.746 95.631 191.652 96.021C192.152 81.195 195.652 60.465 207.839 48.312ZM287.614 304C287.614 241.568 320.214 186.863 369.226 155.619C355.628 142.217 338.888 132.76 318.739 129.201C283.831 123.217 222.162 142.853 191.611 160.07C161.278 142.977 99.98 123.264 64.357 129.201C44.273 132.76 27.574 142.217 14 155.617C63.014 186.861 95.615 241.564 95.615 304C95.615 365.17 64.379 419.01 17.018 450.551C42.613 486.395 78.83 512 127.984 512C155.566 512 163.217 494.129 191.611 494.129C220.086 494.129 227.61 512 255.238 512C304.394 512 340.61 486.391 366.206 450.545C318.847 419.004 287.614 365.168 287.614 304ZM255.238 480C239.229 480 227.877 462.129 191.611 462.129C155.28 462.129 143.933 480 127.984 480C103.191 480 81.724 471.67 62.974 454.668C103.951 415.732 127.615 361.562 127.615 304C127.615 249.766 106.773 198.863 70.246 160.666C113.871 154.063 178.954 192.07 191.611 192.07C203.97 192.07 270.751 153.742 312.972 160.68C276.45 198.875 255.615 249.771 255.615 304C255.615 361.559 279.279 415.729 320.253 454.662C301.501 471.67 280.034 480 255.238 480Z"/></svg>