<svg xmlns="http://www.w3.org/2000/svg" viewBox="0 0 384 512"><!-- Font Awesome Pro 6.0.0-alpha2 by @fontawesome - https://fontawesome.com License - https://fontawesome.com/license (Commercial License) --><path d="M203.312 116.688C200.188 113.562 196.094 112 192 112S183.812 113.562 180.688 116.688L36.688 260.688C30.438 266.938 30.438 277.063 36.688 283.312S53.063 289.562 59.312 283.312L176 166.625V464C176 472.844 183.156 480 192 480S208 472.844 208 464V166.625L324.688 283.312C330.938 289.562 341.063 289.562 347.312 283.312S353.562 266.937 347.312 260.688L203.312 116.688ZM368 32H16C7.156 32 0 39.156 0 48S7.156 64 16 64H368C376.844 64 384 56.844 384 48S376.844 32 368 32Z"/></svg>