<svg xmlns="http://www.w3.org/2000/svg" viewBox="0 0 512 512"><!-- Font Awesome Pro 6.0.0-alpha2 by @fontawesome - https://fontawesome.com License - https://fontawesome.com/license (Commercial License) --><path d="M336 192H399.998C426.398 192 447.998 170.398 447.998 144V80C447.998 53.602 426.398 32 399.998 32H336C309.6 32 288 53.602 288 80V144C288 170.398 309.6 192 336 192ZM320 80C320 71.328 327.328 64 336 64H399.998C408.672 64 415.998 71.328 415.998 80V144C415.998 152.672 408.672 160 399.998 160H336C327.328 160 320 152.672 320 144V80ZM464 256H336C309.49 256 288 277.492 288 304V432C288 458.508 309.49 480 336 480H464C490.51 480 512 458.508 512 432V304C512 277.492 490.51 256 464 256ZM480 432C480 440.824 472.822 448 464 448H336C327.178 448 320 440.824 320 432V304C320 295.176 327.178 288 336 288H464C472.822 288 480 295.176 480 304V432ZM139.312 36.688C133.062 30.438 122.937 30.438 116.688 36.688L20.688 132.688C14.438 138.938 14.438 149.063 20.688 155.312S37.063 161.562 43.312 155.312L112 86.625V464C112 472.844 119.156 480 128 480S144 472.844 144 464V86.625L212.688 155.312C215.812 158.438 219.906 160 224 160S232.188 158.438 235.312 155.312C241.562 149.062 241.562 138.937 235.312 132.688L139.312 36.688Z"/></svg>