<svg xmlns="http://www.w3.org/2000/svg" viewBox="0 0 384 512"><!-- Font Awesome Pro 6.0.0-alpha2 by @fontawesome - https://fontawesome.com License - https://fontawesome.com/license (Commercial License) --><path d="M59.312 203.312L176 86.625V384C176 392.844 183.156 400 192 400S208 392.844 208 384V86.625L324.688 203.312C330.938 209.562 341.063 209.562 347.312 203.312S353.562 186.937 347.312 180.688L203.312 36.688C200.188 33.562 196.094 32 192 32S183.812 33.562 180.688 36.688L36.688 180.688C30.438 186.938 30.438 197.063 36.688 203.312S53.062 209.562 59.312 203.312ZM368 448H16C7.156 448 0 455.156 0 464S7.156 480 16 480H368C376.844 480 384 472.844 384 464S376.844 448 368 448Z"/></svg>