<svg xmlns="http://www.w3.org/2000/svg" viewBox="0 0 448 512"><!-- Font Awesome Pro 6.0.0-alpha2 by @fontawesome - https://fontawesome.com License - https://fontawesome.com/license (Commercial License) --><path d="M320 87.999C333.256 87.999 344 77.253 344 63.999S333.256 39.999 320 39.999S296 50.745 296 63.999S306.744 87.999 320 87.999ZM224 87.999C237.256 87.999 248 77.253 248 63.999S237.256 39.999 224 39.999S200 50.745 200 63.999S210.744 87.999 224 87.999ZM416 87.999C429.256 87.999 440 77.253 440 63.999S429.256 39.999 416 39.999S392 50.745 392 63.999S402.744 87.999 416 87.999ZM128 87.999C141.256 87.999 152 77.253 152 63.999S141.256 39.999 128 39.999S104 50.745 104 63.999S114.744 87.999 128 87.999ZM32 87.999C45.256 87.999 56 77.253 56 63.999S45.256 39.999 32 39.999S8 50.745 8 63.999S18.744 87.999 32 87.999ZM235.312 148.688C232.188 145.562 228.094 144 224 144S215.812 145.562 212.688 148.688L68.688 292.688C62.438 298.938 62.438 309.063 68.688 315.312S85.063 321.562 91.312 315.312L208 198.625V464C208 472.844 215.156 480 224 480S240 472.844 240 464V198.625L356.688 315.312C362.938 321.562 373.063 321.562 379.312 315.312S385.562 298.937 379.312 292.688L235.312 148.688Z"/></svg>