<svg xmlns="http://www.w3.org/2000/svg" viewBox="0 0 512 512"><!-- Font Awesome Pro 6.0.0-alpha2 by @fontawesome - https://fontawesome.com License - https://fontawesome.com/license (Commercial License) --><path d="M208 288H48C39.156 288 32 295.156 32 304S39.156 320 48 320H169.375L20.688 468.688C14.438 474.938 14.438 485.063 20.688 491.312S37.063 497.562 43.312 491.312L192 342.625V464C192 472.844 199.156 480 208 480S224 472.844 224 464V304C224 295.156 216.844 288 208 288ZM491.312 20.688C485.062 14.438 474.937 14.438 468.688 20.688L320 169.375V48C320 39.156 312.844 32 304 32S288 39.156 288 48V208C288 216.844 295.156 224 304 224H464C472.844 224 480 216.844 480 208S472.844 192 464 192H342.625L491.312 43.312C497.562 37.062 497.562 26.938 491.312 20.688Z"/></svg>