<svg xmlns="http://www.w3.org/2000/svg" viewBox="0 0 448 512"><!-- Font Awesome Pro 6.0.0-alpha2 by @fontawesome - https://fontawesome.com License - https://fontawesome.com/license (Commercial License) --><path d="M128 424C114.744 424 104 434.746 104 448S114.744 472 128 472S152 461.254 152 448S141.256 424 128 424ZM224 424C210.744 424 200 434.746 200 448S210.744 472 224 472S248 461.254 248 448S237.256 424 224 424ZM32 424C18.744 424 8 434.746 8 448S18.744 472 32 472S56 461.254 56 448S45.256 424 32 424ZM320 424C306.744 424 296 434.746 296 448S306.744 472 320 472S344 461.254 344 448S333.256 424 320 424ZM416 424C402.744 424 392 434.746 392 448S402.744 472 416 472S440 461.254 440 448S429.256 424 416 424ZM235.312 36.688C232.188 33.562 228.094 32 224 32S215.812 33.562 212.688 36.688L68.688 180.688C62.438 186.938 62.438 197.063 68.688 203.312S85.063 209.562 91.312 203.312L208 86.625V352C208 360.844 215.156 368 224 368S240 360.844 240 352V86.625L356.688 203.312C362.938 209.562 373.063 209.562 379.312 203.312S385.562 186.937 379.312 180.688L235.312 36.688Z"/></svg>