<svg xmlns="http://www.w3.org/2000/svg" viewBox="0 0 512 512"><!-- Font Awesome Pro 6.0.0-alpha2 by @fontawesome - https://fontawesome.com License - https://fontawesome.com/license (Commercial License) --><path d="M478.307 456.789L398.312 296.809C392.875 285.996 375.125 285.996 369.688 296.809L289.693 456.789C285.74 464.691 288.943 474.285 296.85 478.25C304.756 482.25 314.363 478.969 318.316 471.098L329.895 447.945H438.105L449.684 471.098C452.777 477.25 461.76 482.977 471.15 478.25C479.057 474.285 482.26 464.691 478.307 456.789ZM345.893 415.949L384 339.742L422.107 415.949H345.893ZM320.004 63.996H414.701L307.504 197.977C303.662 202.789 302.928 209.352 305.584 214.914C308.254 220.445 313.848 223.977 320.004 223.977H447.996C456.84 223.977 463.994 216.82 463.994 207.977S456.84 191.977 447.996 191.977H353.299L460.496 57.996C464.338 53.184 465.072 46.625 462.416 41.062C459.746 35.531 454.152 32 447.996 32H320.004C311.16 32 304.006 39.156 304.006 48C304.006 56.84 311.16 63.996 320.004 63.996ZM139.312 36.688C133.062 30.438 122.937 30.438 116.688 36.688L20.688 132.688C14.438 138.938 14.438 149.063 20.688 155.312S37.063 161.562 43.312 155.312L112 86.625V464C112 472.844 119.156 480 128 480S144 472.844 144 464V86.625L212.688 155.312C215.812 158.438 219.906 160 224 160S232.188 158.438 235.312 155.312C241.562 149.062 241.562 138.937 235.312 132.688L139.312 36.688Z"/></svg>