<svg xmlns="http://www.w3.org/2000/svg" viewBox="0 0 448 512"><!-- Font Awesome Pro 6.0.0-alpha2 by @fontawesome - https://fontawesome.com License - https://fontawesome.com/license (Commercial License) --><path d="M320 87.999C333.256 87.999 344 77.253 344 63.999S333.256 39.999 320 39.999S296 50.745 296 63.999S306.744 87.999 320 87.999ZM224 87.999C237.256 87.999 248 77.253 248 63.999S237.256 39.999 224 39.999S200 50.745 200 63.999S210.744 87.999 224 87.999ZM416 87.999C429.256 87.999 440 77.253 440 63.999S429.256 39.999 416 39.999S392 50.745 392 63.999S402.744 87.999 416 87.999ZM128 87.999C141.256 87.999 152 77.253 152 63.999S141.256 39.999 128 39.999S104 50.745 104 63.999S114.744 87.999 128 87.999ZM32 87.999C45.256 87.999 56 77.253 56 63.999S45.256 39.999 32 39.999S8 50.745 8 63.999S18.744 87.999 32 87.999ZM212.688 475.312C215.812 478.437 219.906 479.999 224 479.999S232.188 478.437 235.312 475.312L379.312 331.312C385.562 325.062 385.562 314.937 379.312 308.687S362.937 302.437 356.688 308.687L240 425.374V159.999C240 151.155 232.844 143.999 224 143.999S208 151.155 208 159.999V425.374L91.312 308.687C85.062 302.437 74.937 302.437 68.688 308.687S62.438 325.062 68.688 331.312L212.688 475.312Z"/></svg>