<svg xmlns="http://www.w3.org/2000/svg" viewBox="0 0 448 512"><!-- Font Awesome Pro 6.0.0-alpha2 by @fontawesome - https://fontawesome.com License - https://fontawesome.com/license (Commercial License) --><path d="M212.688 4.688L68.688 148.688C62.438 154.938 62.438 165.063 68.688 171.312S85.063 177.562 91.312 171.312L208 54.625V336C208 344.844 215.156 352 224 352S240 344.844 240 336V54.625L356.688 171.312C362.938 177.562 373.063 177.562 379.312 171.312S385.562 154.937 379.312 148.688L235.312 4.688C232.188 1.562 228.094 0 224 0S215.812 1.562 212.688 4.688ZM416 336V432C416 458.469 394.469 480 368 480H80C53.531 480 32 458.469 32 432V336C32 327.156 24.844 320 16 320S0 327.156 0 336V432C0 476.125 35.875 512 80 512H368C412.125 512 448 476.125 448 432V336C448 327.156 440.844 320 432 320S416 327.156 416 336Z"/></svg>