<svg xmlns="http://www.w3.org/2000/svg" viewBox="0 0 512 512"><!-- Font Awesome Pro 6.0.0-alpha2 by @fontawesome - https://fontawesome.com License - https://fontawesome.com/license (Commercial License) --><path d="M496 0H336C327.156 0 320 7.156 320 16S327.156 32 336 32H457.375L292.688 196.688C286.438 202.938 286.438 213.063 292.688 219.312S309.063 225.562 315.312 219.312L480 54.625V176C480 184.844 487.156 192 496 192S512 184.844 512 176V16C512 7.156 504.844 0 496 0ZM196.688 292.688L32 457.375V336C32 327.156 24.844 320 16 320S0 327.156 0 336V496C0 504.844 7.156 512 16 512H176C184.844 512 192 504.844 192 496S184.844 480 176 480H54.625L219.312 315.312C225.562 309.062 225.562 298.937 219.312 292.688S202.938 286.438 196.688 292.688Z"/></svg>