<svg xmlns="http://www.w3.org/2000/svg" viewBox="0 0 384 512"><!-- Font Awesome Pro 6.0.0-alpha2 by @fontawesome - https://fontawesome.com License - https://fontawesome.com/license (Commercial License) --><path d="M347.312 411.312C344.188 414.438 340.094 416 336 416S327.812 414.438 324.688 411.312L64 150.625V335.25C64 344.094 56.844 351.25 48 351.25S32 344.094 32 335.25V111.906C32 103.094 39.141 95.938 47.953 95.906L271.953 95.25C271.969 95.25 271.984 95.25 272 95.25C280.812 95.25 287.969 102.375 288 111.219C288.031 120.031 280.891 127.219 272.047 127.25L86.432 127.805L347.312 388.688C353.562 394.938 353.562 405.062 347.312 411.312Z"/></svg>