<svg xmlns="http://www.w3.org/2000/svg" viewBox="0 0 448 512"><!-- Font Awesome Pro 6.0.0-alpha2 by @fontawesome - https://fontawesome.com License - https://fontawesome.com/license (Commercial License) --><path d="M443.312 244.688L299.312 100.688C293.062 94.438 282.937 94.438 276.688 100.688S270.438 117.063 276.688 123.312L393.375 240H96C87.156 240 80 247.156 80 256S87.156 272 96 272H393.375L276.688 388.688C270.438 394.938 270.438 405.063 276.688 411.312S293.063 417.562 299.312 411.312L443.312 267.312C446.438 264.188 448 260.094 448 256S446.438 247.812 443.312 244.688ZM16 64C7.156 64 0 71.156 0 80V432C0 440.844 7.156 448 16 448S32 440.844 32 432V80C32 71.156 24.844 64 16 64Z"/></svg>