<svg xmlns="http://www.w3.org/2000/svg" viewBox="0 0 512 512"><!-- Font Awesome Pro 6.0.0-alpha2 by @fontawesome - https://fontawesome.com License - https://fontawesome.com/license (Commercial License) --><path d="M507.312 244.688L363.312 100.688C357.062 94.438 346.937 94.438 340.688 100.688S334.438 117.063 340.688 123.312L457.375 240H176C167.156 240 160 247.156 160 256S167.156 272 176 272H457.375L340.688 388.688C334.438 394.938 334.438 405.063 340.688 411.312S357.063 417.562 363.312 411.312L507.312 267.312C510.438 264.188 512 260.094 512 256S510.438 247.812 507.312 244.688ZM176 448H80C53.531 448 32 426.469 32 400V112C32 85.531 53.531 64 80 64H176C184.844 64 192 56.844 192 48S184.844 32 176 32H80C35.875 32 0 67.875 0 112V400C0 444.125 35.875 480 80 480H176C184.844 480 192 472.844 192 464S184.844 448 176 448Z"/></svg>