<svg xmlns="http://www.w3.org/2000/svg" viewBox="0 0 512 512"><!-- Font Awesome Pro 6.0.0-alpha2 by @fontawesome - https://fontawesome.com License - https://fontawesome.com/license (Commercial License) --><path d="M432 448H400V304C400 295.156 392.844 288 384 288H352C343.156 288 336 295.156 336 304S343.156 320 352 320H368V448H336C327.156 448 320 455.156 320 464S327.156 480 336 480H432C440.844 480 448 472.844 448 464S440.844 448 432 448ZM384 32C339.875 32 304 67.875 304 112S339.875 192 384 192C400.734 192 416.254 186.801 429.107 177.988C421.275 204.484 396.994 224 368 224C359.156 224 352 231.156 352 240S359.156 256 368 256C420.937 256 464 212.938 464 160V112C464 67.875 428.125 32 384 32ZM384 160C357.531 160 336 138.469 336 112S357.531 64 384 64S432 85.531 432 112S410.469 160 384 160ZM224 352C219.906 352 215.812 353.562 212.687 356.688L144 425.375V48C144 39.156 136.844 32 128 32S112 39.156 112 48V425.375L43.312 356.688C37.062 350.438 26.937 350.438 20.687 356.688S14.437 373.063 20.687 379.312L116.687 475.312C122.937 481.562 133.063 481.562 139.312 475.312L235.312 379.312C241.562 373.062 241.562 362.937 235.312 356.688C232.187 353.562 228.094 352 224 352Z"/></svg>