<svg xmlns="http://www.w3.org/2000/svg" viewBox="0 0 448 512"><!-- Font Awesome Pro 6.0.0-alpha2 by @fontawesome - https://fontawesome.com License - https://fontawesome.com/license (Commercial License) --><path d="M235.332 324.707C231.299 320.664 226.455 320.016 224 320.016S216.701 320.664 212.668 324.707L132.688 404.687C129.562 407.812 128 411.906 128 416C128 424.523 134.865 432 144 432C148.094 432 152.188 430.438 155.312 427.312L208 374.625V496C208 504.844 215.156 512 224 512S240 504.844 240 496V374.625L292.688 427.312C295.812 430.438 299.906 432 304 432C313.139 432 320 424.523 320 416C320 411.906 318.438 407.812 315.312 404.688L235.332 324.707ZM212.668 187.293C214.391 189.02 218.324 192 224 192S233.609 189.02 235.332 187.293L315.312 107.313C318.438 104.188 320 100.094 320 96C320 87.473 313.135 80 304 80C299.906 80 295.812 81.562 292.688 84.688L240 137.375V16C240 7.156 232.844 0 224 0S208 7.156 208 16V137.375L155.312 84.688C152.188 81.562 148.094 80 144 80C134.861 80 128 87.473 128 96C128 100.094 129.562 104.188 132.688 107.312L212.668 187.293ZM432 240H16C7.156 240 0 247.156 0 256S7.156 272 16 272H432C440.844 272 448 264.844 448 256S440.844 240 432 240Z"/></svg>