<svg xmlns="http://www.w3.org/2000/svg" viewBox="0 0 320 512"><!-- Font Awesome Pro 6.0.0-alpha2 by @fontawesome - https://fontawesome.com License - https://fontawesome.com/license (Commercial License) --><path d="M257.375 64C250.625 64 243.969 66.344 238.469 70.875L64 214.162V80C64 71.156 56.844 64 48 64S32 71.156 32 80V432C32 440.844 39.156 448 48 448S64 440.844 64 432V297.838L238.469 441.125C243.969 445.656 250.625 448 257.375 448C267.723 448 288 439.875 288 415.969V96.031C288 72.125 267.723 64 257.375 64ZM256 416.406L64.521 256L256 95.594V416.406Z"/></svg>