<svg xmlns="http://www.w3.org/2000/svg" viewBox="0 0 512 512"><!-- Font Awesome Pro 6.0.0-alpha2 by @fontawesome - https://fontawesome.com License - https://fontawesome.com/license (Commercial License) --><path d="M481.375 64C474.625 64 467.969 66.344 462.469 70.875L309.844 196.219C303.031 201.828 302.031 211.906 307.625 218.734C313.281 225.563 323.375 226.531 330.156 220.938L480 95.594V416.406L330.156 291.062C323.375 285.469 313.281 286.438 307.625 293.266C302.031 300.094 303.031 310.172 309.844 315.781L462.469 441.125C467.969 445.656 474.625 448 481.375 448C497.5 448 512 434.559 512 415.969V96.031C512 77.441 497.5 64 481.375 64ZM225.375 64C218.625 64 211.969 66.344 206.469 70.875L11.688 230.844C4.25 236.938 0 246.109 0 256S4.25 275.062 11.688 281.156L206.469 441.125C211.969 445.656 218.625 448 225.375 448C235.723 448 256 439.875 256 415.969V96.031C256 72.125 235.723 64 225.375 64ZM224 416.406L32.521 256L224 95.594V416.406Z"/></svg>