<svg xmlns="http://www.w3.org/2000/svg" viewBox="0 0 576 512"><!-- Font Awesome Pro 6.0.0-alpha2 by @fontawesome - https://fontawesome.com License - https://fontawesome.com/license (Commercial License) --><path d="M564.721 99.678L486.893 12.877C479.354 4.459 469.012 0 458.547 0C453.354 0 448.127 1.1 443.203 3.359L350.453 46.354C299.328 70.047 257.11 110.383 228.344 162.973L207.688 200.73C180.578 250.287 140.891 288.232 92.936 310.488L24.061 342.432C12.201 347.918 3.78 358.951 0.967 372.658C-1.97 387.004 1.873 401.836 11.28 412.307L89.108 499.105C96.639 507.514 106.998 512 117.469 512C122.657 512 127.875 510.891 132.797 508.625L225.547 465.631C276.672 441.937 318.891 401.602 347.657 349.012L368.313 311.254C395.422 261.697 435.11 223.75 483.065 201.496L551.94 169.551C563.799 164.066 572.221 153.033 575.034 139.326C577.971 124.98 574.127 110.148 564.721 99.678ZM35.084 390.922C29.936 385.186 31.578 374.211 37.526 371.463L106.407 339.514C160.627 314.352 205.356 271.672 235.762 216.088L256.418 178.328C281.885 131.77 319.055 96.174 363.912 75.387L456.555 32.441C456.727 32.363 459.942 30.75 463.069 34.24L493.455 68.131L408.248 107.641C355.592 132.047 312.123 173.547 282.545 227.609L261.889 265.375C235.608 313.422 197.186 350.188 150.733 371.703L56.856 415.203L35.084 390.922ZM538.477 140.521L469.594 172.469C415.375 197.631 370.647 240.313 340.241 295.896L319.582 333.656C294.116 380.215 256.946 415.811 212.09 436.598L119.414 479.557C116.842 480.744 114.364 479.34 112.934 477.744L79.198 440.121L164.186 400.734C216.889 376.312 260.373 334.812 289.951 280.734L310.608 242.984C336.889 194.953 375.311 158.188 421.717 136.672L515.797 93.047L540.916 121.063C546.075 126.803 544.418 137.771 538.477 140.521Z"/></svg>