<svg xmlns="http://www.w3.org/2000/svg" viewBox="0 0 512 512"><!-- Font Awesome Pro 6.0.0-alpha2 by @fontawesome - https://fontawesome.com License - https://fontawesome.com/license (Commercial License) --><path d="M147.312 316.688C141.062 310.438 130.937 310.438 124.688 316.688S118.438 333.063 124.688 339.312L172.688 387.312C175.812 390.438 179.906 392 184 392S192.188 390.438 195.312 387.312C201.562 381.062 201.562 370.937 195.312 364.688L147.312 316.688ZM501.264 37.469L474.562 10.773C467.664 3.875 458.307 0 448.549 0H448.518C438.688 0 429.451 3.844 422.311 11L381.23 55.195C378.209 58.447 376.146 62.475 375.275 66.828L363.455 125.918L298.334 191.025C273.205 170.268 242.213 156.916 208 153.619V144C208 135.156 200.844 128 192 128S176 135.156 176 144V153.619C141.787 156.916 110.795 170.268 85.666 191.025L78.875 184.234C72.625 177.984 62.5 177.984 56.25 184.234C50 190.484 50 200.609 56.25 206.859L63.039 213.648C42.273 238.781 28.914 269.777 25.617 304H16C7.156 304 0 311.156 0 320S7.156 336 16 336H25.617C28.914 370.223 42.273 401.219 63.039 426.352L56.25 433.141C50 439.391 50 449.516 56.25 455.766C62.496 462.012 72.621 462.019 78.875 455.766L85.666 448.975C110.795 469.732 141.787 483.084 176 486.381V496C176 504.844 183.156 512 192 512S208 504.844 208 496V486.381C242.213 483.084 273.205 469.732 298.334 448.975L305.125 455.766C311.371 462.012 321.496 462.019 327.75 455.766C334 449.516 334 439.391 327.75 433.141L320.961 426.352C341.727 401.219 355.086 370.223 358.383 336H368C376.844 336 384 328.844 384 320S376.844 304 368 304H358.383C355.086 269.777 341.727 238.781 320.961 213.648L386.121 148.502L445.16 136.697C449.514 135.826 453.541 133.764 456.795 130.74L501.264 89.406C515.578 75.094 515.578 51.781 501.264 37.469ZM328 320C328 394.984 267 456 192 456S56 394.984 56 320S117 184 192 184S328 245.016 328 320ZM479.479 65.967L436.666 105.762L398.598 113.373L406.211 75.322L444.963 33.604C447.889 30.67 450.961 32.426 451.937 33.402L478.639 60.098C480.41 61.869 480.29 65.072 479.479 65.967Z"/></svg>