<svg xmlns="http://www.w3.org/2000/svg" viewBox="0 0 448 512"><!-- Font Awesome Pro 6.0.0-alpha2 by @fontawesome - https://fontawesome.com License - https://fontawesome.com/license (Commercial License) --><path d="M16 112H432C440.844 112 448 104.844 448 96S440.844 80 432 80H16C7.156 80 0 87.156 0 96S7.156 112 16 112ZM304 240H16C7.156 240 0 247.156 0 256S7.156 272 16 272H304C312.844 272 320 264.844 320 256S312.844 240 304 240ZM176 400H16C7.156 400 0 407.156 0 416S7.156 432 16 432H176C184.844 432 192 424.844 192 416S184.844 400 176 400Z"/></svg>