<svg xmlns="http://www.w3.org/2000/svg" viewBox="0 0 640 512"><!-- Font Awesome Pro 6.0.0-alpha2 by @fontawesome - https://fontawesome.com License - https://fontawesome.com/license (Commercial License) --><path d="M592 320C600.844 320 608 312.844 608 304V208C608 199.156 600.844 192 592 192S576 199.156 576 208V304C576 312.844 583.156 320 592 320ZM480 128C497.644 128 512 142.355 512 160V326.033L544 351.297V160C544 124.654 515.346 96 480 96H220.635L261.166 128H480ZM96 384C78.355 384 64 369.645 64 352V160C64 152.717 66.873 146.316 70.986 140.934L45.644 120.926C37.221 131.764 32 145.211 32 160V352C32 387.346 60.654 416 96 416H419.392L378.861 384H96ZM633.908 483.436L25.904 3.418C18.998 -2.02 8.935 -0.848 3.435 6.059C-2.033 12.998 -0.846 23.061 6.092 28.545L614.096 508.563C617.033 510.875 620.533 512 624.002 512C628.721 512 633.408 509.906 636.564 505.922C642.033 498.984 640.846 488.922 633.908 483.436Z"/></svg>