<svg xmlns="http://www.w3.org/2000/svg" viewBox="0 0 640 512"><!-- Font Awesome Pro 6.0.0-alpha2 by @fontawesome - https://fontawesome.com License - https://fontawesome.com/license (Commercial License) --><path d="M528 192H32V48C32 39.199 24.801 32 16 32S0 39.199 0 48V464C0 472.801 7.199 480 16 480S32 472.801 32 464V416H608V464C608 472.801 615.199 480 624 480S640 472.801 640 464V304C640 242.145 589.855 192 528 192ZM608 384H32V352H608V384ZM608 320H32V224H528C572.125 224 608 259.875 608 304V320Z"/></svg>