<svg xmlns="http://www.w3.org/2000/svg" viewBox="0 0 576 512"><!-- Font Awesome Pro 6.0.0-alpha2 by @fontawesome - https://fontawesome.com License - https://fontawesome.com/license (Commercial License) --><path d="M448.049 96H448C420.301 96 392.689 105.42 367.326 118.691C367.516 116.447 368 114.293 368 112C368 91.602 360.131 73.191 347.564 59.061L378.714 27.911C384.349 22.276 385.715 13.203 381.055 6.739C375.116 -1.501 363.559 -2.184 356.688 4.688L321.699 39.676C311.428 34.877 300.086 32 288 32S264.572 34.877 254.301 39.676L219.911 5.286C214.276 -0.349 205.203 -1.715 198.739 2.945C190.499 8.884 189.816 20.441 196.688 27.313L228.436 59.061C215.869 73.191 208 91.602 208 112C208 114.293 208.484 116.447 208.674 118.691C183.311 105.42 155.699 96 128 96H127.951C57.291 96.002 0 146.125 0 207.959V208.041C0 259.001 39.047 301.584 92.314 315.046C102.297 317.569 112 309.928 112 299.632V299.632C112 292.278 106.889 286.065 99.765 284.238C60.599 274.192 32 243.92 32 207.959C32 163.869 75.045 128 127.951 128H128C162.986 128 200.748 148.264 232.348 171.502C182.273 193.078 147.18 242.811 147.199 300.799V300.801C147.199 406.4 288 512 288 512S428.801 406.4 428.801 300.801V300.799C428.82 242.812 393.729 193.08 343.656 171.504C375.256 148.266 413.018 128 448 128H448.059C500.961 128 544 163.869 544 208.041C544 243.928 515.415 274.184 476.233 284.235C469.111 286.062 464 292.275 464 299.628V299.631C464 309.928 473.703 317.568 483.686 315.045C536.95 301.58 576 258.997 576 208.041V207.959C576 146.121 518.717 95.994 448.049 96ZM336 112C336 138.467 314.467 160 288 160S240 138.467 240 112S261.533 64 288 64S336 85.533 336 112ZM234.059 416C225.543 405.854 217.625 395.055 210.289 384H365.713C358.377 395.055 350.461 405.854 341.943 416H234.059ZM192.104 352C187.213 341.322 183.701 330.631 181.596 320H394.404C392.299 330.631 388.787 341.32 383.898 352H192.104ZM395.555 288H180.443C181.748 276.844 184.52 266.086 189.09 256H386.91C391.48 266.084 394.248 276.842 395.555 288ZM263.742 448H312.258C303.756 456.414 295.438 464.281 288 470.74C280.562 464.281 272.244 456.414 263.742 448ZM365.074 224H210.926C210.967 223.959 210.996 223.906 211.037 223.865C231.578 203.316 258.893 192 287.947 192H288.053C317.107 192 344.422 203.316 364.963 223.865C365.004 223.906 365.033 223.959 365.074 224Z"/></svg>