<svg xmlns="http://www.w3.org/2000/svg" viewBox="0 0 640 512"><!-- Font Awesome Pro 6.0.0-alpha2 by @fontawesome - https://fontawesome.com License - https://fontawesome.com/license (Commercial License) --><path d="M204.592 403.857C197.201 398.98 187.295 401.045 182.436 408.42C175.42 419.092 162.076 423.857 150.029 419.967C138.014 416.061 130.014 404.389 130.561 391.59C130.936 382.762 124.092 375.293 115.264 374.918C106.545 374.434 98.967 381.387 98.592 390.215C97.436 417.311 114.514 442.061 140.17 450.42C146.201 452.357 152.389 453.295 158.498 453.295C178.451 453.295 197.748 443.342 209.154 426.014C214.014 418.623 211.967 408.701 204.592 403.857ZM260.951 365.715L37.42 293.008C33.358 291.68 32.248 288.68 32.045 286.398C31.92 285.195 31.873 281.086 35.936 278.852L39.529 276.883C59.904 265.789 94.014 247.227 117.936 173.223C118.686 170.738 129.404 137.301 130.154 135.066C138.545 108.986 156.608 87.768 180.998 75.297C205.498 62.781 233.436 60.625 259.654 69.141C266.795 71.453 273.608 74.5 279.936 78.188C287.592 82.674 297.389 80.062 301.811 72.438C306.264 64.813 303.701 55.016 296.061 50.562C287.779 45.719 278.842 41.734 269.545 38.703C235.217 27.529 198.592 30.391 166.436 46.797C134.42 63.156 110.717 91.018 99.748 125.064C99.108 127.002 87.873 162.051 87.373 163.754C67.498 225.225 41.467 239.396 24.233 248.773L20.451 250.867C6.67 258.383 -1.283 273.492 0.17 289.336C1.639 305.322 12.092 318.385 27.483 323.432L251.045 396.152C252.686 396.684 254.358 396.934 255.998 396.934C262.748 396.934 269.014 392.637 271.217 385.887C273.951 377.48 269.358 368.449 260.951 365.715ZM618.451 275.398L614.67 273.523C596.983 264.836 570.264 251.711 547.889 190.131C546.733 187.207 534.936 154.629 534.217 152.66C508.654 82.861 430.873 46.859 360.936 72.203C326.967 84.518 299.858 109.299 284.608 142.004C269.42 174.598 267.858 211.146 280.154 244.773C280.842 246.68 293.498 281.133 294.17 282.867C316.311 343.557 304.498 370.73 296.67 388.715L294.967 392.699C288.733 407.107 291.748 423.92 302.639 435.498C310.326 443.686 320.608 448.045 331.295 448.045C335.889 448.045 340.576 447.232 345.154 445.592L613.811 348.184C628.654 342.76 638.904 328.9 639.92 312.854C640.904 297.088 632.686 282.727 618.451 275.398ZM602.873 318.104L334.279 415.482C330.233 416.982 327.514 415.264 325.967 413.592C325.123 412.701 322.561 409.514 324.404 405.248L326.029 401.482C335.279 380.199 350.764 344.604 324.123 271.602C323.248 269.352 310.983 235.928 310.264 233.912C300.842 208.193 302.045 180.363 313.608 155.535C325.233 130.596 345.92 111.689 371.858 102.283C383.483 98.064 395.389 96.064 407.108 96.064C449.233 96.064 488.889 121.955 504.123 163.52C504.811 165.441 517.467 200.303 518.014 201.584C544.592 274.742 579.623 291.961 600.561 302.244L603.858 303.869C606.795 305.416 608.17 307.76 607.983 310.838C607.826 313.385 606.373 316.822 602.873 318.104ZM534.264 400.09C525.451 400.811 518.889 408.514 519.592 417.326C520.623 430.061 513.014 442.014 501.139 446.357C489.326 450.701 475.795 446.389 468.326 435.951C463.201 428.748 453.186 427.107 446.014 432.232C438.826 437.373 437.154 447.357 442.295 454.547C453.92 470.828 472.576 480 491.748 480C498.561 480 505.451 478.844 512.092 476.438C537.467 467.141 553.654 441.779 551.498 414.764C550.795 405.967 543.358 399.324 534.264 400.09Z"/></svg>