<svg xmlns="http://www.w3.org/2000/svg" viewBox="0 0 448 512"><!-- Font Awesome Pro 6.0.0-alpha2 by @fontawesome - https://fontawesome.com License - https://fontawesome.com/license (Commercial License) --><path d="M433.38 334.75C405.38 308.25 384.004 280.375 384.004 185.875C384.004 106.25 320.627 41.375 240 33.5V16C240 7.125 232.875 0 224 0S208 7.125 208 16V33.5C127.373 41.375 63.996 106.25 63.996 185.875C63.996 280.375 42.619 308.25 14.619 334.75C0.619 348.125 -3.756 368.25 3.369 386C10.619 404.25 28.119 416 47.994 416H400.005C419.88 416 437.38 404.25 444.63 386C451.755 368.25 447.38 348.125 433.38 334.75ZM400.005 384H47.994C33.744 384 26.619 367.5 36.619 358C71.496 324.75 95.996 287.625 95.996 185.875C95.996 118.5 153.248 64 224 64S352.004 118.5 352.004 185.875C352.004 287.25 376.254 324.625 411.38 358C421.38 367.625 414.13 384 400.005 384ZM272.295 448C264.857 448 257.783 452.146 255.244 458.879C250.603 471.176 238.334 480 223.994 480S197.384 471.176 192.744 458.879C190.205 452.146 183.129 448 175.693 448H175.691C165.078 448 157.48 457.998 160.765 467.717C169.431 493.371 194.525 512 223.994 512C253.461 512 278.554 493.371 287.222 467.717C290.505 457.998 282.91 448 272.295 448Z"/></svg>