<svg xmlns="http://www.w3.org/2000/svg" viewBox="0 0 640 512"><!-- Font Awesome Pro 6.0.0-alpha2 by @fontawesome - https://fontawesome.com License - https://fontawesome.com/license (Commercial License) --><path d="M638.019 488.279C637.017 486.455 635.642 484.797 633.908 483.426L25.904 3.236C23.254 1.148 20.091 0.324 16.945 0.135C16.357 0.102 15.775 -0.025 15.187 0.004C13.699 0.084 12.265 0.488 10.849 0.973C10.172 1.207 9.457 1.295 8.81 1.621C6.8 2.633 4.927 4.004 3.435 5.877C2.068 7.613 1.117 9.545 0.568 11.549C0.019 13.557 -0.129 15.635 0.111 17.668C0.351 19.703 0.98 21.695 1.98 23.52C2.982 25.342 4.357 27 6.091 28.371L614.095 508.561C617.033 510.875 620.533 512 624.002 512C628.72 512 633.408 509.906 636.564 505.92C639.299 502.449 640.369 498.197 639.888 494.129C639.648 492.094 639.019 490.104 638.019 488.279ZM320 64C390.752 64 448.004 118.5 448.004 185.875C448.004 229.447 452.695 260.76 460.593 285.449C460.593 285.449 533.15 338.352 529.381 334.75C501.381 308.25 480.004 280.375 480.004 185.875C480.004 106.25 416.627 41.375 336 33.5V16C336 7.125 328.875 0 320 0S304 7.125 304 16V33.5C264.164 37.391 228.623 55.275 202.771 81.898L227.767 101.633C251.056 78.52 283.662 64 320 64ZM368.295 448C360.857 448 353.783 452.146 351.244 458.879C346.603 471.176 334.334 480 319.994 480S293.384 471.176 288.744 458.879C286.205 452.146 279.129 448 271.693 448H271.691C261.078 448 253.48 457.998 256.765 467.717C265.431 493.371 290.525 512 319.994 512C349.461 512 374.554 493.371 383.222 467.717C386.506 457.998 378.91 448 368.295 448ZM143.994 384C129.744 384 122.619 367.5 132.619 358C161.193 330.758 182.549 300.299 189.425 234.441L159.254 210.621C155.687 285.154 135.949 310.777 110.619 334.75C96.619 348.125 92.244 368.25 99.369 386C106.619 404.25 124.119 416 143.994 416H419.392L378.861 384H143.994Z"/></svg>