<svg xmlns="http://www.w3.org/2000/svg" viewBox="0 0 512 512"><!-- Font Awesome Pro 6.0.0-alpha2 by @fontawesome - https://fontawesome.com License - https://fontawesome.com/license (Commercial License) --><path d="M112 64H208C216.836 64 224 56.836 224 48S216.836 32 208 32H112C103.164 32 96 39.164 96 48S103.164 64 112 64ZM304 64H400C408.836 64 416 56.836 416 48S408.836 32 400 32H304C295.164 32 288 39.164 288 48S295.164 64 304 64ZM511.625 404C508.25 274.25 450.625 221.875 448.125 128C447.625 110.375 433.75 96 416.125 96H95.875C78.25 96 64.375 110.375 63.875 128C61.375 221.875 3.75 274.25 0.375 404L0 432C0 458.5 21.5 480 48 480H176C202.5 480 224 458.5 224 432V288H288V432C288 458.5 309.5 480 336 480H464C490.5 480 512 458.5 512 432L511.625 404ZM192 432C192 440.822 184.822 448 176 448H48C39.178 448 32 440.822 31.998 432.428L32.365 404.832C34.051 340.018 50.355 296.18 66.123 253.787C80.111 216.182 94.574 177.297 95.875 128H192V432ZM288 256H224V128H288V256ZM464 448H336C327.178 448 320 440.822 320 432V128H416.125L416.137 128.852C417.428 177.297 431.891 216.182 445.877 253.787C461.645 296.18 477.951 340.018 479.629 404.428L480 432C480 440.822 472.822 448 464 448Z"/></svg>