<svg xmlns="http://www.w3.org/2000/svg" viewBox="0 0 512 512"><!-- Font Awesome Pro 6.0.0-alpha2 by @fontawesome - https://fontawesome.com License - https://fontawesome.com/license (Commercial License) --><path d="M495.991 0H16.007C7.171 0 0.009 7.16 0.009 15.992V79.961C0.009 88.793 7.171 95.953 16.007 95.953H128.003V159.922H36.507L39.536 147.812C42.062 137.717 34.421 127.937 24.011 127.937C16.663 127.937 10.261 132.937 8.484 140.064L0.509 172.041C-2.022 181.656 5.159 191.906 16.007 191.906H128.003V255.875H36.507L39.536 243.766C42.062 233.67 34.421 223.891 24.011 223.891C16.663 223.891 10.261 228.891 8.484 236.018L0.509 267.994C-2.022 277.609 5.159 287.859 16.007 287.859H128.003V418.795C106.005 426.541 92.755 449.031 96.755 472.02C100.63 495.133 120.628 512 144.003 512S187.376 495.133 191.251 472.02C195.251 449.031 182.001 426.541 160.003 418.795V95.953H495.991C504.827 95.953 511.991 88.793 511.991 79.961V15.992C511.991 7.16 504.827 0 495.991 0ZM144.003 479.766C135.128 479.766 128.003 472.645 128.003 463.773S135.128 447.781 144.003 447.781S160.003 454.902 160.003 463.773S152.878 479.766 144.003 479.766ZM479.991 63.969H32.007V31.984H479.991V63.969ZM503.515 236.018C501.738 228.891 495.335 223.891 487.988 223.891C477.577 223.891 469.939 233.67 472.464 243.766L475.491 255.875H192.001V287.859H495.991C506.853 287.859 514.019 277.596 511.491 267.994L503.515 236.018ZM503.515 140.064C501.738 132.938 495.335 127.938 487.988 127.938C477.577 127.938 469.939 137.717 472.464 147.813L475.491 159.922H192.001V191.906H495.991C506.853 191.906 514.019 181.643 511.491 172.041L503.515 140.064Z"/></svg>