<svg xmlns="http://www.w3.org/2000/svg" viewBox="0 0 512 512"><!-- Font Awesome Pro 6.0.0-alpha2 by @fontawesome - https://fontawesome.com License - https://fontawesome.com/license (Commercial License) --><path d="M512 96C512 87.199 504.801 80 496 80H16C7.201 80 0 87.199 0 96C0 104.799 7.201 112 16 112H496C504.801 112 512 104.799 512 96ZM16 224C7.201 224 0 231.201 0 240V432C0 440.801 7.201 448 16 448C24.801 448 32 440.801 32 432V240C32 231.201 24.801 224 16 224ZM496 400H144C135.201 400 128 407.199 128 416C128 424.799 135.201 432 144 432H496C504.801 432 512 424.799 512 416C512 407.199 504.801 400 496 400ZM496 240H144C135.201 240 128 247.199 128 256C128 264.799 135.201 272 144 272H496C504.801 272 512 264.799 512 256C512 247.199 504.801 240 496 240Z"/></svg>