<svg xmlns="http://www.w3.org/2000/svg" viewBox="0 0 576 512"><!-- Font Awesome Pro 6.0.0-alpha2 by @fontawesome - https://fontawesome.com License - https://fontawesome.com/license (Commercial License) --><path d="M381.958 244.742C377.271 232.256 365.335 223.99 351.992 223.99H227.779L316.619 46.297C323.462 32.609 319.65 16.016 307.556 6.656C301.783 2.209 294.878 0 287.988 0C280.447 0 272.927 2.646 266.933 7.906L10.945 231.912C0.915 240.695 -2.647 254.773 2.04 267.242C6.728 279.727 18.663 287.992 32.007 287.992H156.22L67.38 465.686C60.537 479.373 64.349 495.967 76.443 505.328C82.224 509.781 89.128 512 96.003 512C103.535 512 111.066 509.344 117.066 504.078L373.054 280.07C383.083 271.289 386.646 257.211 381.958 244.742ZM95.999 479.996L184.839 302.303C189.8 292.383 189.269 280.604 183.439 271.168C177.609 261.734 167.31 255.992 156.22 255.992L32.017 255.996L287.954 32.004C287.958 32.002 287.97 32 287.988 32C287.988 32 287.997 31.986 287.999 31.986L199.16 209.68C194.199 219.598 194.73 231.379 200.56 240.814S216.689 255.992 227.779 255.992L351.982 255.986L95.999 479.996ZM574.312 488.844L478.312 296.844C472.874 286 455.124 286 449.687 296.844L353.687 488.844C349.749 496.75 352.937 506.359 360.843 510.312C368.781 514.266 378.343 511.078 382.312 503.156L401.89 464H526.109L545.687 503.156C548.499 508.766 554.156 512 559.999 512C562.406 512 564.843 511.453 567.156 510.312C575.062 506.359 578.249 496.75 574.312 488.844ZM417.89 432L463.999 339.781L510.109 432H417.89Z"/></svg>