<svg xmlns="http://www.w3.org/2000/svg" viewBox="0 0 576 512"><!-- Font Awesome Pro 6.0.0-alpha2 by @fontawesome - https://fontawesome.com License - https://fontawesome.com/license (Commercial License) --><path d="M64 336C64 344.836 71.164 352 80 352H112C120.836 352 128 344.836 128 336V288H176C184.836 288 192 280.836 192 272V240C192 231.164 184.836 224 176 224H128V176C128 167.164 120.836 160 112 160H80C71.164 160 64 167.164 64 176V224H16C7.164 224 0 231.164 0 240V272C0 280.836 7.164 288 16 288H64V336ZM574.354 435.363L466.686 35.422C460.938 14.074 441.545 0 420.352 0C416.24 0 412.057 0.531 407.896 1.641L346.078 18.125C344.797 18.469 343.703 19.117 342.486 19.57C333.742 7.758 319.824 0 304 0H240C227.65 0 216.506 4.797 208 12.457C199.494 4.797 188.35 0 176 0H112C85.49 0 64 21.492 64 48V112C64 120.836 71.164 128 80 128H192V176C192 184.836 199.164 192 208 192S224 184.836 224 176V128H320V384H224V336C224 327.164 216.836 320 208 320S192 327.164 192 336V384H80C71.164 384 64 391.164 64 400V464C64 490.508 85.49 512 112 512H176C188.35 512 199.494 507.203 208 499.539C216.506 507.203 227.65 512 240 512H304C330.51 512 352 490.508 352 464V224.715L419.805 476.578C425.553 497.926 444.945 512 466.139 512C470.25 512 474.432 511.469 478.594 510.359L540.412 493.875C566.018 487.043 581.215 460.848 574.354 435.363ZM192 96H96V48C96 39.176 103.178 32 112 32H176C184.822 32 192 39.176 192 48V96ZM192 464C192 472.824 184.822 480 176 480H112C103.178 480 96 472.824 96 464V416H192V464ZM320 464C320 472.824 312.822 480 304 480H240C231.178 480 224 472.824 224 464V416H320V464ZM320 96H224V48C224 39.176 231.178 32 240 32H304C312.822 32 320 39.176 320 48V96ZM352 101.609V50.285C352.834 49.895 353.322 49.312 354.322 49.043L416.143 32.559C417.533 32.188 418.951 32 420.355 32C427.58 32 433.924 36.828 435.785 43.738L448.189 89.812L355.48 114.539L352 101.609ZM430.02 391.422L363.762 145.305L456.471 120.578L522.729 366.695L430.02 391.422ZM541.895 455.527C540.664 457.66 537.762 461.461 532.166 462.957L470.348 479.441C468.957 479.812 467.541 480 466.139 480C458.912 480 452.566 475.172 450.705 468.262L438.301 422.188L531.01 397.461L543.453 443.684C544.914 449.109 543.104 453.434 541.895 455.527Z"/></svg>