<svg xmlns="http://www.w3.org/2000/svg" viewBox="0 0 448 512"><!-- Font Awesome Pro 6.0.0-alpha2 by @fontawesome - https://fontawesome.com License - https://fontawesome.com/license (Commercial License) --><path d="M448 368V48C448 21.49 426.51 0 400 0H80C35.817 0 0 35.817 0 80V448C0 483.346 28.654 512 64 512H432C440.844 512 448 504.844 448 496S440.844 480 432 480H416V413.053C434.584 406.426 448 388.832 448 368ZM384 480H64C46.359 480 32 465.641 32 448S46.359 416 64 416H384V480ZM400 384H64C52.291 384 41.451 387.389 32 392.9V80C32 53.49 53.49 32 80 32H400C408.837 32 416 39.163 416 48V368C416 376.837 408.837 384 400 384ZM352 224H304V176C304 167.156 296.844 160 288 160S272 167.156 272 176V224H224C215.156 224 208 231.156 208 240S215.156 256 224 256H272V304C272 312.844 279.156 320 288 320S304 312.844 304 304V256H352C360.844 256 368 248.844 368 240S360.844 224 352 224ZM224 128C224 119.156 216.844 112 208 112H176V80C176 71.156 168.844 64 160 64S144 71.156 144 80V112H112C103.156 112 96 119.156 96 128S103.156 144 112 144H144V176C144 184.844 151.156 192 160 192S176 184.844 176 176V144H208C216.844 144 224 136.844 224 128Z"/></svg>