<svg xmlns="http://www.w3.org/2000/svg" viewBox="0 0 448 512"><!-- Font Awesome Pro 6.0.0-alpha2 by @fontawesome - https://fontawesome.com License - https://fontawesome.com/license (Commercial License) --><path d="M368 0H48C21.49 0 0 21.492 0 48V368C0 388.832 13.416 406.426 32 413.055V480H16C7.156 480 0 487.156 0 496S7.156 512 16 512H384C419.346 512 448 483.344 448 448V80C448 35.816 412.184 0 368 0ZM384 480H64V416H384C401.641 416 416 430.359 416 448S401.641 480 384 480ZM416 392.898C406.549 387.391 395.709 384 384 384H48C39.164 384 32 376.836 32 368V48C32 39.164 39.164 32 48 32H368C394.51 32 416 53.492 416 80V392.898ZM314.625 208L342.25 161.625C345.999 155.5 345.999 147.75 342.5 141.5C339 135.25 332.25 131.375 325.125 131.375H268.75L241 85.125C237.375 79.125 231.125 74.75 224 75.5C216.875 75.5 210.375 79.25 206.75 85.25L179.125 131.5H122.875C115.625 131.375 109 135.25 105.375 141.625C101.75 147.75 101.875 155.5 105.625 161.625L133.375 208L105.75 254.375C101.999 260.5 101.999 268.25 105.5 274.5C109 280.75 115.75 284.625 122.875 284.625H179.25L207 330.875C210.5 336.875 217 340.5 224 340.5C231.125 340.5 237.625 336.75 241.25 330.75L268.875 284.5H325.125C332.375 284.625 339 280.75 342.625 274.375C346.25 268.25 346.125 260.5 342.375 254.375L314.625 208ZM317.999 155.375L300.625 184.625L283.125 155.5L317.999 155.375ZM224 103.375L240.75 131.5H207.125L224 103.375ZM129.999 155.5H164.875L147.375 184.625L129.999 155.5ZM129.999 260.5L147.5 231.375L165 260.5H129.999ZM224 312.625L207.25 284.5H240.75L224 312.625ZM255.125 260.5H192.875L161.375 208L192.875 155.5H255.125L286.625 208L255.125 260.5ZM283.125 260.5L300.625 231.375L317.999 260.5H283.125Z"/></svg>