<svg xmlns="http://www.w3.org/2000/svg" viewBox="0 0 448 512"><!-- Font Awesome Pro 6.0.0-alpha2 by @fontawesome - https://fontawesome.com License - https://fontawesome.com/license (Commercial License) --><path d="M448 368V48C448 21.49 426.51 0 400 0H80C35.817 0 0 35.817 0 80V448C0 483.346 28.654 512 64 512H432C440.844 512 448 504.844 448 496S440.844 480 432 480H416V413.053C434.584 406.426 448 388.832 448 368ZM384 480H64C46.359 480 32 465.641 32 448S46.359 416 64 416H384V480ZM400 384H64C52.291 384 41.451 387.389 32 392.9V80C32 53.49 53.49 32 80 32H400C408.837 32 416 39.163 416 48V368C416 376.837 408.837 384 400 384ZM256 240H192C147.816 240 112 275.816 112 320C112 328.836 119.164 336 128 336S144 328.836 144 320C144 293.49 165.49 272 192 272H256C282.51 272 304 293.49 304 320C304 328.836 311.164 336 320 336S336 328.836 336 320C336 275.816 300.184 240 256 240ZM224 208C259.346 208 288 179.346 288 144S259.346 80 224 80S160 108.654 160 144S188.654 208 224 208ZM224 112C241.645 112 256 126.355 256 144S241.645 176 224 176S192 161.645 192 144S206.355 112 224 112Z"/></svg>