<svg xmlns="http://www.w3.org/2000/svg" viewBox="0 0 576 512"><!-- Font Awesome Pro 6.0.0-alpha2 by @fontawesome - https://fontawesome.com License - https://fontawesome.com/license (Commercial License) --><path d="M432.002 224C352.463 224 288 288.463 288 368S352.463 512 432.002 512C511.537 512 576 447.537 576 368S511.537 224 432.002 224ZM432.002 480C370.244 480 320 429.758 320 368S370.244 256 432.002 256C493.758 256 544 306.242 544 368S493.758 480 432.002 480ZM476.688 319.359L413.344 382.703L387.312 356.688C381.062 350.438 370.937 350.438 364.688 356.688S358.438 373.063 364.688 379.312L402.031 416.641C405.156 419.766 409.25 421.328 413.344 421.328S421.531 419.766 424.656 416.641L499.312 341.984C505.562 335.734 505.562 325.609 499.312 319.359S482.938 313.109 476.688 319.359ZM256 448H64C46.326 448 32 433.672 32 416V192H439.535C444.211 192 448 188.209 448 183.535C448 176.092 446.268 168.75 442.938 162.094L391.156 58.547C383.02 42.277 366.391 32 348.199 32H99.781C81.596 32 64.973 42.273 56.84 58.539L5.066 162.086C1.734 168.75 0 176.098 0 183.547V416C0 451.346 28.654 480 64 480H256C264.836 480 272 472.836 272 464C272 455.162 264.836 448 256 448ZM240 64H348.219C354.344 64 359.812 67.375 362.531 72.844L406.109 160H240V64ZM85.469 72.828C88.188 67.375 93.656 64 99.781 64H208V160H41.889L85.469 72.828Z"/></svg>