<svg xmlns="http://www.w3.org/2000/svg" viewBox="0 0 576 512"><!-- Font Awesome Pro 6.0.0-alpha2 by @fontawesome - https://fontawesome.com License - https://fontawesome.com/license (Commercial License) --><path d="M208 224H368C394.51 224 416 202.51 416 176V48C416 21.49 394.51 0 368 0H208C181.49 0 160 21.49 160 48V176C160 202.51 181.49 224 208 224ZM272 32H304V86.109L295.156 81.688C290.656 79.438 285.344 79.438 280.844 81.688L272 86.109V32ZM192 48C192 39.178 199.178 32 208 32H240V112C240 117.547 242.875 122.688 247.594 125.609S258.188 128.75 263.156 126.313L288 113.891L312.844 126.312C315.109 127.438 317.547 128 320 128C322.922 128 325.844 127.203 328.406 125.609C333.125 122.688 336 117.547 336 112V32H368C376.822 32 384 39.178 384 48V176C384 184.822 376.822 192 368 192H208C199.178 192 192 184.822 192 176V48ZM208 288H48C21.49 288 0 309.49 0 336V464C0 490.51 21.49 512 48 512H208C234.51 512 256 490.51 256 464V336C256 309.49 234.51 288 208 288ZM112 320H144V374.109L135.156 369.688C130.656 367.438 125.344 367.438 120.844 369.688L112 374.109V320ZM224 464C224 472.822 216.822 480 208 480H48C39.178 480 32 472.822 32 464V336C32 327.178 39.178 320 48 320H80V400C80 405.547 82.875 410.688 87.594 413.609S98.188 416.75 103.156 414.313L128 401.891L152.844 414.312C155.109 415.438 157.547 416 160 416C162.922 416 165.844 415.203 168.406 413.609C173.125 410.688 176 405.547 176 400V320H208C216.822 320 224 327.178 224 336V464ZM528 288H368C341.49 288 320 309.49 320 336V464C320 490.51 341.49 512 368 512H528C554.51 512 576 490.51 576 464V336C576 309.49 554.51 288 528 288ZM432 320H464V374.109L455.156 369.688C450.656 367.438 445.344 367.438 440.844 369.688L432 374.109V320ZM544 464C544 472.822 536.822 480 528 480H368C359.178 480 352 472.822 352 464V336C352 327.178 359.178 320 368 320H400V400C400 405.547 402.875 410.688 407.594 413.609S418.188 416.75 423.156 414.313L448 401.891L472.844 414.312C475.109 415.438 477.547 416 480 416C482.922 416 485.844 415.203 488.406 413.609C493.125 410.688 496 405.547 496 400V320H528C536.822 320 544 327.178 544 336V464Z"/></svg>