<svg xmlns="http://www.w3.org/2000/svg" viewBox="0 0 576 512"><!-- Font Awesome Pro 6.0.0-alpha2 by @fontawesome - https://fontawesome.com License - https://fontawesome.com/license (Commercial License) --><path d="M96 152.453V112C96 85.533 117.533 64 144 64H208C216.822 64 224 56.822 224 48S216.822 32 208 32H144C99.889 32 64 67.889 64 112V152.453C64 190.484 42.865 224.678 8.844 241.688C3.383 244.436 0 249.916 0 256S3.383 267.564 8.828 270.303C42.865 287.322 64 321.516 64 359.547V400C64 444.111 99.889 480 144 480H208C216.822 480 224 472.822 224 464S216.822 448 208 448H144C117.533 448 96 426.467 96 400V359.547C96 318.709 77.426 280.791 45.795 256C77.426 231.209 96 193.291 96 152.453ZM567.172 241.697C533.135 224.678 512 190.484 512 152.453V112C512 67.889 476.111 32 432 32H368C359.178 32 352 39.178 352 48S359.178 64 368 64H432C458.467 64 480 85.533 480 112V152.453C480 193.291 498.574 231.209 530.205 256C498.574 280.791 480 318.709 480 359.547V400C480 426.467 458.467 448 432 448H368C359.178 448 352 455.178 352 464S359.178 480 368 480H432C476.111 480 512 444.111 512 400V359.547C512 321.516 533.135 287.322 567.156 270.312C572.617 267.564 576 262.084 576 256S572.617 244.436 567.172 241.697Z"/></svg>