<svg xmlns="http://www.w3.org/2000/svg" viewBox="0 0 640 512"><!-- Font Awesome Pro 6.0.0-alpha2 by @fontawesome - https://fontawesome.com License - https://fontawesome.com/license (Commercial License) --><path d="M400 32H240C107.5 32 0 103.625 0 192C0 227.375 30.875 256 64 256V448C64 465.625 78.375 480 96 480H544C561.625 480 576 465.625 576 448V256C609.125 256 640 227.375 640 192C640 103.625 532.5 32 400 32ZM384 240V448H96V240C96 231.162 88.838 224 80 224H64C48.5 224 32 209.625 32 192C32 122.625 127.25 64 240 64S448 122.625 448 192C448 209.625 435.5 224 420 224H400C391.164 224 384 231.162 384 240ZM544 448H416V256H544V448ZM580 224H471.625C477.125 214.25 480 203.25 480 192C480 139.625 442 93.125 383.5 64H400C512.75 64 608 122.625 608 192C608 209.625 595.5 224 580 224Z"/></svg>