<svg xmlns="http://www.w3.org/2000/svg" viewBox="0 0 512 512"><!-- Font Awesome Pro 6.0.0-alpha2 by @fontawesome - https://fontawesome.com License - https://fontawesome.com/license (Commercial License) --><path d="M256 176C211.891 176 176 211.891 176 256S211.891 336 256 336S336 300.109 336 256S300.109 176 256 176ZM256 304C229.531 304 208 282.469 208 256S229.531 208 256 208S304 229.531 304 256S282.469 304 256 304ZM256 96C167.781 96 96 167.781 96 256S167.781 416 256 416S416 344.219 416 256S344.219 96 256 96ZM256 384C185.422 384 128 326.578 128 256S185.422 128 256 128S384 185.422 384 256S326.578 384 256 384ZM256 16C123.656 16 16 123.656 16 256S123.656 496 256 496S496 388.344 496 256S388.344 16 256 16ZM256 464C141.312 464 48 370.688 48 256S141.312 48 256 48S464 141.312 464 256S370.688 464 256 464Z"/></svg>