<svg xmlns="http://www.w3.org/2000/svg" viewBox="0 0 640 512"><!-- Font Awesome Pro 6.0.0-alpha2 by @fontawesome - https://fontawesome.com License - https://fontawesome.com/license (Commercial License) --><path d="M447.871 272C456.746 272 463.871 264.875 463.871 256S456.746 240 447.871 240S431.871 247.125 431.871 256S438.996 272 447.871 272ZM527.871 288C536.746 288 543.871 280.875 543.871 272S536.746 256 527.871 256S511.871 263.125 511.871 272S518.996 288 527.871 288ZM224.18 479.902L95.855 479.125L63.861 160H335.932C344.73 160 351.93 152.799 351.93 144C351.93 135.199 344.73 128 335.932 128H212.457L236.453 32H271.945C280.744 32 287.941 24.801 287.941 16S280.744 0 271.945 0H236.453C221.705 0 208.957 10 205.459 24.25L179.463 128H15.996C7.199 128 0 135.199 0 144C0 152.799 7.199 160 15.996 160H31.994L63.986 482.25C65.111 499.125 79.109 512.125 95.98 512H224.084C232.918 512 240.08 504.836 240.08 496V495.902C240.08 487.104 232.977 479.955 224.18 479.902ZM367.871 288C376.746 288 383.871 280.875 383.871 272S376.746 256 367.871 256S351.871 263.125 351.871 272S358.996 288 367.871 288ZM640 376C640 360.682 633.82 346.822 623.855 336.713C623.867 336.463 624 336.254 624 336V296C624 271.953 613.781 249.031 594.438 229.734C523.004 158.404 373.219 158.182 301.562 229.734C282.219 249.031 272 271.953 272 296V336C272 336.254 272.133 336.465 272.145 336.715C262.18 346.826 256 360.682 256 376S262.18 405.174 272.145 415.285C272.133 415.535 272 415.746 272 416V460C272 488.672 295.312 512 324 512H572C600.688 512 624 488.672 624 460V416C624 415.746 623.867 415.537 623.855 415.287C633.82 405.178 640 391.318 640 376ZM304 296C304 280.406 310.781 265.734 324.156 252.375C381.008 195.656 510.438 191.113 571.844 252.375C585.219 265.734 592 280.406 592 296V320.807C589.367 320.426 586.742 320 584 320H312C309.258 320 306.633 320.426 304 320.807V296ZM592 460C592 471.031 583.031 480 572 480H324C312.969 480 304 471.031 304 460V431.193C306.633 431.574 309.258 432 312 432H584C586.742 432 589.367 431.574 592 431.193V460ZM584 400H312C298.766 400 288 389.232 288 376C288 362.766 298.766 352 312 352H584C597.234 352 608 362.766 608 376C608 389.232 597.234 400 584 400Z"/></svg>