<svg xmlns="http://www.w3.org/2000/svg" viewBox="0 0 640 512"><!-- Font Awesome Pro 6.0.0-alpha2 by @fontawesome - https://fontawesome.com License - https://fontawesome.com/license (Commercial License) --><path d="M160.004 272.01C168.846 272.01 176.002 264.854 176.002 256.01L175.971 32.051L208.002 47.986V256.01C208.002 264.854 215.158 272.01 224.002 272.01S240.002 264.854 240.002 256.01V47.986C240.002 35.768 232.939 24.52 222.283 19.426L190.424 3.504C180.549 -1.574 168.549 -1.09 159.348 4.676C149.879 10.41 144.004 20.863 144.004 31.988V256.01C144.004 264.854 151.16 272.01 160.004 272.01ZM95.988 208.012C96.91 208.012 97.848 207.934 98.785 207.762C107.488 206.23 113.301 197.934 111.754 189.23L89.723 64.314L119.957 47.002C127.629 42.611 130.285 32.83 125.895 25.16C121.488 17.52 111.77 14.848 104.051 19.223L64.051 42.127C58.191 45.486 55.082 52.158 56.254 58.799L80.254 194.793C81.613 202.559 88.363 208.012 95.988 208.012ZM266.939 63.189L300.893 74.518L272.486 188.137C270.33 196.699 275.549 205.387 284.127 207.527C285.424 207.855 286.736 208.012 288.018 208.012C295.189 208.012 301.705 203.168 303.518 195.887L335.518 67.893C337.549 59.783 332.986 51.486 325.064 48.846L277.064 32.846C268.58 30.051 259.627 34.58 256.83 42.955C254.033 51.346 258.564 60.408 266.939 63.189ZM365.299 159.779C366.221 159.936 367.127 160.014 368.018 160.014C375.674 160.014 382.439 154.514 383.768 146.717L391.518 101.438C393.018 92.719 387.158 84.453 378.455 82.969C369.674 81.549 361.486 87.328 359.986 96.031L352.236 141.311C350.736 150.029 356.596 158.295 365.299 159.779ZM32.488 191.996C33.551 191.996 34.645 191.887 35.738 191.668C44.395 189.887 49.957 181.42 48.176 172.764L31.676 92.781C29.895 84.141 21.504 78.643 12.77 80.346C4.113 82.127 -1.449 90.594 0.332 99.25L16.832 179.232C18.395 186.793 25.051 191.996 32.488 191.996ZM640 376.006C640 360.688 633.82 346.828 623.855 336.719C623.867 336.469 624 336.26 624 336.006V296.008C624 271.963 613.781 249.041 594.438 229.746C561.719 197.074 504.406 176.014 448.408 176.014H447.658C391.596 176.014 334.283 197.074 301.564 229.746C282.221 249.041 272.002 271.963 272.002 296.008V336.006C272.002 336.26 272.135 336.471 272.146 336.721C262.182 346.832 256.002 360.688 256.002 376.006C256.002 391.322 262.182 405.178 272.146 415.289C272.135 415.539 272.002 415.75 272.002 416.004V460.002C272.002 488.672 295.314 512 324.002 512H572C600.688 512 624 488.672 624 460.002V416.004C624 415.75 623.867 415.541 623.855 415.291C633.82 405.182 640 391.322 640 376.006ZM304.002 296.008C304.002 280.416 310.783 265.744 324.158 252.385C350.783 225.824 400.377 208.012 447.721 208.012C447.877 208.012 448.096 207.996 448.346 208.012C495.625 208.012 545.219 225.824 571.844 252.385C585.219 265.744 592 280.416 592 296.008V320.814C589.367 320.434 586.742 320.008 584 320.008H312.002C309.26 320.008 306.635 320.434 304.002 320.814V296.008ZM592 460.002C592 471.033 583.031 480.002 572 480.002H324.002C312.971 480.002 304.002 471.033 304.002 460.002V431.197C306.635 431.578 309.26 432.004 312.002 432.004H584C586.742 432.004 589.367 431.578 592 431.197V460.002ZM584 400.004H312.002C298.768 400.004 288.002 389.236 288.002 376.006C288.002 362.771 298.768 352.006 312.002 352.006H584C597.234 352.006 608 362.771 608 376.006C608 389.236 597.234 400.004 584 400.004ZM367.873 288.008C376.748 288.008 383.873 280.885 383.873 272.01S376.748 256.01 367.873 256.01S351.873 263.135 351.873 272.01S358.998 288.008 367.873 288.008ZM447.873 272.01C456.748 272.01 463.873 264.885 463.873 256.01S456.748 240.01 447.873 240.01S431.873 247.135 431.873 256.01S438.998 272.01 447.873 272.01ZM527.871 288.008C536.746 288.008 543.871 280.885 543.871 272.01S536.746 256.01 527.871 256.01S511.871 263.135 511.871 272.01S518.996 288.008 527.871 288.008ZM240 480H92.498L36.498 256H41.373L64.998 279.625C90.576 305.203 122.859 322.484 158.906 329.703C189.01 335.705 213.209 332.979 227.098 330.123C234.59 328.584 240 322.115 240 314.467C240 304.398 230.883 296.961 220.994 298.852C208.936 301.158 192.012 302.639 171.277 299.389C143.209 294.988 104.066 273.443 83.977 253.354L61.9 231.277C56.254 225.631 52.24 224 47.998 224H15.998C11.076 224 6.42 226.266 3.389 230.156C0.357 234.031 -0.721 239.094 0.482 243.875L64.482 499.875C66.264 507 72.666 512 80.012 512H240C248.836 512 256 504.836 256 496C256 487.162 248.836 480 240 480Z"/></svg>