<svg xmlns="http://www.w3.org/2000/svg" viewBox="0 0 448 512"><!-- Font Awesome Pro 6.0.0-alpha2 by @fontawesome - https://fontawesome.com License - https://fontawesome.com/license (Commercial License) --><path d="M352 127.877C378.469 127.877 400 106.338 400 79.861C400 55.65 362.516 8.166 358.25 2.836C356.719 0.945 354.359 0 352 0S347.281 0.945 345.75 2.836C341.484 8.166 304 55.65 304 79.861C304 106.338 325.531 127.877 352 127.877ZM352.006 48.695C361.426 63.145 367.439 75.109 368 79.861C368 88.691 360.822 95.877 352 95.877S336 88.691 335.98 80.383C336.555 75.291 342.59 63.176 352.006 48.695ZM224 127.877C250.469 127.877 272 106.338 272 79.861C272 55.65 234.516 8.166 230.25 2.836C228.719 0.945 226.359 0 224 0S219.281 0.945 217.75 2.836C213.484 8.166 176 55.65 176 79.861C176 106.338 197.531 127.877 224 127.877ZM224.006 48.695C233.426 63.145 239.439 75.109 240 79.861C240 88.691 232.822 95.877 224 95.877S208 88.691 207.98 80.383C208.555 75.291 214.59 63.176 224.006 48.695ZM96 127.877C122.469 127.877 144 106.338 144 79.861C144 55.65 106.516 8.166 102.25 2.836C100.719 0.945 98.359 0 96 0S91.281 0.945 89.75 2.836C85.484 8.166 48 55.65 48 79.861C48 106.338 69.531 127.877 96 127.877ZM96.006 48.695C105.426 63.145 111.439 75.109 112 79.861C112 88.691 104.822 95.877 96 95.877S80 88.691 79.98 80.383C80.555 75.291 86.59 63.176 96.006 48.695ZM383.98 223.908H368V176C368 167.156 360.844 160 352 160S336 167.156 336 176V223.908H240V176C240 167.156 232.844 160 224 160S208 167.156 208 176V223.908H112V176C112 167.156 104.844 160 96 160S80 167.156 80 176V223.908H64C28.654 223.908 0 252.561 0 287.908V464C0 490.51 21.49 512 48 512H400C426.51 512 448 490.51 448 464V287.928C448 252.57 419.338 223.908 383.98 223.908ZM416 464C416 472.822 408.822 480 400 480H48C39.178 480 32 472.822 32 464V399.992C57.969 399.992 82.25 384.227 96 373.273C109.75 384.227 134.031 399.992 160 399.992S210.25 384.227 224 373.273C237.75 384.227 262.031 399.992 288 399.992S338.25 384.227 352 373.273C365.75 384.227 390.031 399.992 416 399.992V464ZM416 367.992C395.359 367.992 370.953 348.258 363.297 340.664C357.047 334.445 346.953 334.445 340.703 340.664C333.047 348.258 308.641 367.992 288 367.992S242.953 348.258 235.297 340.664C229.047 334.445 218.953 334.445 212.703 340.664C205.047 348.258 180.641 367.992 160 367.992S114.953 348.258 107.297 340.664C101.047 334.445 90.953 334.445 84.703 340.664C77.047 348.258 52.641 367.992 32 367.992V287.908C32 270.264 46.355 255.908 64 255.908H80V272C80 280.844 87.156 288 96 288S112 280.844 112 272V255.908H208V272C208 280.844 215.156 288 224 288S240 280.844 240 272V255.908H336V272C336 280.844 343.156 288 352 288S368 280.844 368 272V255.908H383.98C401.637 255.908 416 270.271 416 287.928V367.992Z"/></svg>