<svg xmlns="http://www.w3.org/2000/svg" viewBox="0 0 448 512"><!-- Font Awesome Pro 6.0.0-alpha2 by @fontawesome - https://fontawesome.com License - https://fontawesome.com/license (Commercial License) --><path d="M384 64H352V16C352 7.164 344.836 0 336 0S320 7.164 320 16V64H128V16C128 7.164 120.836 0 112 0S96 7.164 96 16V64H64C28.654 64 0 92.654 0 128V448C0 483.346 28.654 512 64 512H384C419.346 512 448 483.346 448 448V128C448 92.654 419.346 64 384 64ZM416 448C416 465.674 401.674 480 384 480H64C46.326 480 32 465.674 32 448V192H416V448ZM416 160H32V128C32 110.326 46.326 96 64 96H384C401.674 96 416 110.326 416 128V160ZM143.998 351.998H208.002V416.002C208.002 424.836 215.156 432 224 432C232.838 432 239.998 424.84 239.998 416.002V351.998H304.002C312.84 351.998 320 344.838 320 336S312.84 320.002 304.002 320.002H239.998V255.998C239.998 247.16 232.838 240 224 240S208.002 247.16 208.002 255.998V320.002H143.998C135.16 320.002 128 327.162 128 336C128 344.834 135.154 351.998 143.998 351.998Z"/></svg>