<svg xmlns="http://www.w3.org/2000/svg" viewBox="0 0 512 512"><!-- Font Awesome Pro 6.0.0-alpha2 by @fontawesome - https://fontawesome.com License - https://fontawesome.com/license (Commercial License) --><path d="M448 64H416V16C416 7.164 408.836 0 400 0S384 7.164 384 16V64H224V16C224 7.164 216.836 0 208 0S192 7.164 192 16V64H160C124.654 64 96 92.654 96 128V352C96 387.346 124.654 416 160 416H448C483.346 416 512 387.346 512 352V128C512 92.654 483.346 64 448 64ZM480 352C480 369.674 465.674 384 448 384H160C142.326 384 128 369.674 128 352V192H480V352ZM480 160H128V128C128 110.326 142.326 96 160 96H448C465.674 96 480 110.326 480 128V160ZM400 480H96C60.654 480 32 451.346 32 416V176C32 167.164 24.836 160 16 160S0 167.164 0 176V416C0 469.02 42.98 512 96 512H400C408.836 512 416 504.836 416 496S408.836 480 400 480Z"/></svg>