<svg xmlns="http://www.w3.org/2000/svg" viewBox="0 0 448 512"><!-- Font Awesome Pro 6.0.0-alpha2 by @fontawesome - https://fontawesome.com License - https://fontawesome.com/license (Commercial License) --><path d="M160 192C205.875 192 238 159.375 238 112.75C238 82.75 205.375 37.875 160 0C114.375 38 82 82.875 82 112.75C82 159.375 114.125 192 160 192ZM160 43.125C191.5 74 206 101.375 206 112.75C206 141.875 188.375 160 160 160S114 141.875 114 112.75C114 101.375 128.5 74 160 43.125ZM371.035 385.27C347.098 389.951 327.34 409.469 321.754 433.209C317.609 450.814 321.143 466.643 328.875 480H256V272C256 245.6 234.4 224 208 224H112C85.6 224 64 245.6 64 272V480H16C7.199 480 0 487.199 0 496C0 504.799 7.143 512 15.941 512H380.484C412.666 512 442.449 489.811 447.246 457.986C453.902 413.809 415.504 376.574 371.035 385.27ZM224 480H96V272C96 263.162 103.164 256 112 256H128V304C128 312.875 135.125 320 144 320S160 312.875 160 304V256H208C216.836 256 224 263.162 224 272V480ZM384 480C366.375 480 352 465.625 352 448S366.375 416 384 416S416 430.375 416 448S401.625 480 384 480Z"/></svg>