<svg xmlns="http://www.w3.org/2000/svg" viewBox="0 0 448 512"><!-- Font Awesome Pro 6.0.0-alpha2 by @fontawesome - https://fontawesome.com License - https://fontawesome.com/license (Commercial License) --><path d="M224 128.008C250.5 128.008 272 106.381 272 79.879C272 59.379 247.625 21.75 237.125 6.5C234.188 2.188 229.094 0.031 224 0.031S213.812 2.188 210.875 6.5C200.375 21.75 176 59.379 176 79.879C176 106.381 197.5 128.008 224 128.008ZM224 45.377C233.25 61.004 239.875 75.004 240 79.879C240 88.756 232.75 95.881 224 95.881S208 88.631 208 79.879C208.125 75.004 214.75 61.004 224 45.377ZM368 128.008C394.5 128.008 416 106.381 416 79.879C416 59.379 391.625 21.75 381.125 6.5C378.188 2.188 373.094 0.031 368 0.031S357.812 2.188 354.875 6.5C344.375 21.75 320 59.379 320 79.879C320 106.381 341.5 128.008 368 128.008ZM368 45.377C377.25 61.004 383.875 75.004 384 79.879C384 88.756 376.75 95.881 368 95.881S352 88.631 352 79.879C352.125 75.004 358.75 61.004 368 45.377ZM80 128.008C106.5 128.008 128 106.381 128 79.879C128 59.379 103.625 21.75 93.125 6.5C90.188 2.188 85.094 0.031 80 0.031S69.812 2.188 66.875 6.5C56.375 21.75 32 59.379 32 79.879C32 106.381 53.5 128.008 80 128.008ZM80 45.377C89.25 61.004 95.875 75.004 96 79.879C96 88.756 88.75 95.881 80 95.881S64 88.631 64 79.879C64.125 75.004 70.75 61.004 80 45.377ZM336 352.021C322.801 352.021 312 362.82 312 376.023C312 389.223 322.801 400.023 336 400.023S360 389.223 360 376.023C360 362.82 349.199 352.021 336 352.021ZM387.375 294.518L371.5 225.639C364.895 196.6 339.156 176.011 309.395 176.011C309.305 176.011 309.215 176.011 309.125 176.012H136.125C136.035 176.011 135.945 176.011 135.855 176.011C106.093 176.011 80.23 196.6 73.75 225.639L57.375 296.143C33 308.52 16 333.521 16 362.646V417.773C16.125 437.775 29 455.402 48 461.527V496.029C48 504.904 55.125 512.031 64 512.031S80 504.904 80 496.029V464.027H368V496.029C368 504.904 375.125 512.031 384 512.031S400 504.904 400 496.029V461.527C419 455.402 431.875 437.775 432 417.773V362.646C432 333.146 414.5 306.393 387.375 294.518ZM104.875 232.764C108.25 218.262 121.125 208.012 136.125 208.012H309.125C324 208.012 337 218.262 340.375 232.764L353.125 288.018H92.125L104.875 232.764ZM400 417.773C400 425.65 393.625 432.025 385.75 432.025H62.25C54.375 432.025 48 425.65 48 417.773V362.646C48 339.145 67.125 320.02 90.625 320.02H357.375C380.875 320.02 400 339.145 400 362.646V417.773ZM112 352.021C98.801 352.021 88 362.82 88 376.023C88 389.223 98.801 400.023 112 400.023S136 389.223 136 376.023C136 362.82 125.199 352.021 112 352.021Z "></path></svg>