<svg xmlns="http://www.w3.org/2000/svg" viewBox="0 0 640 512"><!-- Font Awesome Pro 6.0.0-alpha2 by @fontawesome - https://fontawesome.com License - https://fontawesome.com/license (Commercial License) --><path d="M640 384H112V48C112 21.531 90.469 0 64 0H16C7.156 0 0 7.156 0 16S7.156 32 16 32H64C72.812 32 80 39.172 80 48V400C80 408.844 87.156 416 96 416H168.877C163.379 425.447 160 436.283 160 448C160 483.346 188.654 512 224 512C259.348 512 288 483.346 288 448C288 436.283 284.621 425.447 279.123 416H456.877C451.379 425.447 448 436.283 448 448C448 483.346 476.654 512 512 512C547.348 512 576 483.346 576 448C576 436.283 572.621 425.447 567.123 416H640C648.844 416 656 408.844 656 400S648.844 384 640 384ZM256 448C256 465.645 241.645 480 224 480S192 465.645 192 448S206.355 416 224 416S256 430.355 256 448ZM544 448C544 465.645 529.645 480 512 480S480 465.645 480 448S494.355 416 512 416S544 430.355 544 448Z"/></svg>