<svg xmlns="http://www.w3.org/2000/svg" viewBox="0 0 512 512"><!-- Font Awesome Pro 6.0.0-alpha2 by @fontawesome - https://fontawesome.com License - https://fontawesome.com/license (Commercial License) --><path d="M511.355 378.854L487.91 215.043C483.4 183.533 456.418 160.127 424.586 160.111L192 160V127.875L288.084 128H288.127C305.73 128 320.125 113.609 320.125 96V32C320.125 14.4 305.725 0 288.125 0H64.125C46.525 0 32.125 14.4 32.125 32V95.875C32.125 113.475 46.525 127.875 64.125 127.875H160V160H87.58C55.74 160 28.742 183.404 24.227 214.922L0.646 379.467C0.432 382.492 0.215 385.508 0 388.535V448C0 483.346 28.654 512 64 512H448C483.346 512 512 483.346 512 448V387.91C511.822 385.412 511.533 381.35 511.355 378.854ZM64.125 95.875V32H288.125V96L192.041 95.875L160 95.834V95.875H64.125ZM55.902 219.463C58.146 203.807 71.766 192 87.58 192H191.984L424.57 192.111C440.381 192.119 453.992 203.928 456.232 219.576L479.516 382.25L479.641 384H32.322L55.902 219.463ZM480 448C480 465.672 465.674 480 448 480H64C46.326 480 32 465.672 32 448V416H480V448ZM112 232C98.746 232 88 242.744 88 256C88 269.254 98.746 280 112 280S136 269.254 136 256C136 242.744 125.254 232 112 232ZM208 232C194.746 232 184 242.744 184 256C184 269.254 194.746 280 208 280S232 269.254 232 256C232 242.744 221.254 232 208 232ZM304 232C290.746 232 280 242.744 280 256C280 269.254 290.746 280 304 280S328 269.254 328 256C328 242.744 317.254 232 304 232ZM400 232C386.746 232 376 242.744 376 256C376 269.254 386.746 280 400 280S424 269.254 424 256C424 242.744 413.254 232 400 232ZM352 312C338.746 312 328 322.744 328 336C328 349.254 338.746 360 352 360S376 349.254 376 336C376 322.744 365.254 312 352 312ZM256 312C242.746 312 232 322.744 232 336C232 349.254 242.746 360 256 360S280 349.254 280 336C280 322.744 269.254 312 256 312ZM160 312C146.746 312 136 322.744 136 336C136 349.254 146.746 360 160 360S184 349.254 184 336C184 322.744 173.254 312 160 312Z"/></svg>