<svg xmlns="http://www.w3.org/2000/svg" viewBox="0 0 640 512"><!-- Font Awesome Pro 6.0.0-alpha2 by @fontawesome - https://fontawesome.com License - https://fontawesome.com/license (Commercial License) --><path d="M576 32.75V32L575.5 32.375C548.875 12.25 516 0 480 0S411.125 12.25 384.5 32.375L384 32V32.75C345.375 61.875 320 107.875 320 160C320 160.375 320.125 160.75 320.125 161.125C197.209 168.283 125.412 249.273 96 304.25V176C96 131.875 60.125 96 16 96C7.125 96 0 103.125 0 112S7.125 128 16 128C42.5 128 64 149.5 64 176V432C64 476.182 99.816 512 144 512H351.271C369.594 512 384.389 496.893 383.984 478.574C383.27 446.215 358.287 419.578 326.625 416.375L416 376.625V464C416 490.4 437.6 512 464 512S512 490.4 512 464V316.75C586.5 301.5 640 236 640 160C640 107.875 614.625 61.875 576 32.75ZM480 32C504.375 32 528.25 39.125 548.75 52.375L512 80H448L411.25 52.375C431.75 39.125 455.625 32 480 32ZM544 96V160C544 195.375 515.375 224 480 224S416 195.375 416 160V96L437.375 112H522.625L544 96ZM480 464C480 472.836 472.836 480 464 480S448 472.836 448 464V352.002C448 340.422 436.08 332.676 425.498 337.381L303.25 391.75C299.635 356.508 277.955 325.963 246.418 311.086C237.137 306.709 226.137 311.574 223.648 321.531C221.781 328.99 225.596 336.465 232.457 339.869C254.84 350.977 272 370.156 272 395.143V448H320C337.625 448 352 462.375 352 480H143.98C118.504 480 96.295 460.15 96.016 434.676C95.312 370.547 141.373 202.191 323.375 192.625C338.875 266.875 404.25 320 480 320V464ZM480 288C409.375 287.875 352.125 230.625 352 160C352 127.875 364.375 98.75 384 76.25V160C384 213 427 256 480 256S576 213 576 160V76.25C595.625 98.75 608 127.875 608 160C607.875 230.625 550.625 287.875 480 288ZM432 160C432 168.875 439.125 176 448 176S464 168.875 464 160S456.875 144 448 144C443.75 144 439.625 145.625 436.625 148.625S432 155.75 432 160ZM512 176C520.875 176 528 168.875 528 160S520.875 144 512 144S496 151.125 496 160C496 164.25 497.625 168.375 500.625 171.375S507.75 176 512 176ZM176 80H208V112C208 120.844 215.156 128 224 128S240 120.844 240 112V80H272C280.844 80 288 72.844 288 64S280.844 48 272 48H240V16C240 7.156 232.844 0 224 0S208 7.156 208 16V48H176C167.156 48 160 55.156 160 64S167.156 80 176 80Z"/></svg>