<svg xmlns="http://www.w3.org/2000/svg" viewBox="0 0 448 512"><!-- Font Awesome Pro 6.0.0-alpha2 by @fontawesome - https://fontawesome.com License - https://fontawesome.com/license (Commercial License) --><path d="M272 128C298.5 128 320 106.5 320 80S298.5 32 272 32S224 53.5 224 80S245.5 128 272 128ZM272 64C280.875 64 288 71.125 288 80S280.875 96 272 96S256 88.875 256 80S263.125 64 272 64ZM448 176V176C448 167.2 440.8 160 432 160H16C7.2 160 0 167.2 0 176V176C0 184.8 7.2 192 16 192H54.75C20.75 237.75 0 293.625 0 345.625C0 384.625 11.875 416.25 32 441.125L32 495.258C32 503.221 37.493 510.556 45.36 511.792C55.419 513.372 64 505.74 64 496V470.625C104.625 498.75 161.25 512 224 512S343.375 498.75 384 470.625L384 495.258C384 503.221 389.493 510.556 397.36 511.792C407.419 513.372 416 505.74 416 496V441.125C436.125 416.25 448 384.625 448 345.625C448 293.625 427.25 237.75 393.25 192H432C440.8 192 448 184.8 448 176ZM416 345.625C416 466.875 281.75 480 224 480S32 466.875 32 345.625C32 293.375 56.125 235.625 95.625 192H352.375C391.875 235.625 416 293.375 416 345.625ZM160 56C173.219 56 184 45.219 184 32S173.219 8 160 8C146.781 8 136 18.781 136 32S146.781 56 160 56Z"/></svg>