<svg xmlns="http://www.w3.org/2000/svg" viewBox="0 0 448 512"><!-- Font Awesome Pro 6.0.0-alpha2 by @fontawesome - https://fontawesome.com License - https://fontawesome.com/license (Commercial License) --><path d="M48.015 240C56.859 240 64.013 232.844 64.013 224V144C64.013 135.156 56.859 128 48.015 128S32.017 135.156 32.017 144V224C32.017 232.844 39.172 240 48.015 240ZM396.8 283.891C388.978 266.945 371.871 256 353.213 256H351.986V80C351.986 35.875 316.099 0 271.994 0H176.004C131.898 0 96.011 35.875 96.011 80L96.027 256H94.787C76.129 256 59.019 266.945 51.201 283.885L36.435 315.889C29.552 330.838 30.738 348.018 39.591 361.867C48.451 375.725 63.564 384 80.021 384H208V433.045C162.097 438.014 128.007 463.789 128.007 496C128.007 504.844 135.164 512 144.005 512C152.849 512 160.005 504.844 160.005 496C160.005 483.217 179.742 469.244 208 465.232V496C208 504.844 215.156 512 223.998 512C232.841 512 239.998 504.844 239.998 496V465.232C268.255 469.244 287.992 483.217 287.992 496C287.992 504.844 295.148 512 303.992 512C312.834 512 319.99 504.844 319.99 496C319.99 463.789 285.898 438.014 239.998 433.045V384H367.976C384.437 384 399.552 375.723 408.412 361.859C417.261 348.018 418.445 330.834 411.568 315.9L396.8 283.891ZM176.004 32H271.994C298.461 32 319.99 53.531 319.99 80V256H128.023L128.007 80C128.007 53.531 149.537 32 176.004 32ZM381.449 344.629C378.5 349.244 373.463 352 367.976 352H80.021C74.537 352 69.5 349.244 66.55 344.631C63.593 340.006 63.199 334.27 65.488 329.297L80.252 297.297C82.859 291.648 88.564 288 94.787 288H353.213C359.435 288 365.14 291.648 367.746 297.297L382.505 329.287C384.8 334.27 384.406 340.006 381.449 344.629ZM399.982 128C391.138 128 383.984 135.156 383.984 144V224C383.984 232.844 391.138 240 399.982 240S415.98 232.844 415.98 224V144C415.98 135.156 408.826 128 399.982 128Z"/></svg>