<svg xmlns="http://www.w3.org/2000/svg" viewBox="0 0 256 512"><!-- Font Awesome Pro 6.0.0-alpha2 by @fontawesome - https://fontawesome.com License - https://fontawesome.com/license (Commercial License) --><path d="M208 480H144V349.877C206.912 341.746 256 287.973 256 221.812C256 186.719 242.734 91.688 222.984 6.188C222.141 2.562 218.906 0 215.188 0H40.812C37.094 0 33.859 2.562 33.016 6.188C13.266 91.688 0 186.719 0 221.812C0 287.973 49.088 341.746 112 349.877V480H48C39.164 480 32 487.162 32 496C32 504.836 39.164 512 48 512H208C216.836 512 224 504.836 224 496C224 487.162 216.836 480 208 480ZM195.967 32C203.023 64.584 209.029 97.877 213.715 128H42.285C46.973 97.873 52.979 64.576 60.033 32H195.967ZM32 221.812C32 209.109 34.096 186.885 37.656 160H218.344C221.904 186.887 224 209.111 224 221.812C224 273.342 184.338 316.152 133.707 319.271C126.697 319.703 129.41 319.709 122.295 319.271C71.662 316.152 32 273.342 32 221.812Z"/></svg>