<svg xmlns="http://www.w3.org/2000/svg" viewBox="0 0 576 512"><!-- Font Awesome Pro 6.0.0-alpha2 by @fontawesome - https://fontawesome.com License - https://fontawesome.com/license (Commercial License) --><path d="M560 128H544V80C544 71.125 536.875 64 528 64S512 71.125 512 80V128H480V80C480 71.125 472.875 64 464 64S448 71.125 448 80V128H432C423.164 128 416 135.162 416 144V192C416 230.75 443.5 263 480 270.375V382.135C480 398.086 469.168 412.932 453.434 415.547C433.43 418.873 416 403.406 416 384V336C416 291.816 380.184 256 336 256H320V64C320 28.652 291.346 0 256 0H96C60.654 0 32 28.652 32 64V480H16C7.199 480 0 487.199 0 496C0 504.799 7.199 512 16 512H336C344.801 512 352 504.799 352 496C352 487.199 344.801 480 336 480H320V288H336C362.51 288 384 309.49 384 336V381.076C384 414.469 408.301 444.385 441.531 447.678C479.664 451.457 512 421.383 512 384V270.375C548.5 263 576 230.75 576 192V144C576 135.162 568.836 128 560 128ZM288 480H64V64C64 46.375 78.375 32 96 32H256C273.625 32 288 46.375 288 64V480ZM544 192C544 218.5 522.5 240 496 240S448 218.5 448 192V160H544V192ZM224 192H150.203L175.172 117.062C177.969 108.687 173.438 99.625 165.062 96.812C156.609 94.031 147.625 98.594 144.828 106.938L112.828 202.938C111.188 207.812 112.016 213.188 115.016 217.344C118.031 221.531 122.859 224 128 224H199.734L161.297 313.688C157.812 321.812 161.578 331.219 169.703 334.719C171.75 335.594 173.891 336 176 336C182.203 336 188.109 332.375 190.703 326.312L238.703 214.312C240.828 209.344 240.313 203.688 237.359 199.188C234.391 194.688 229.375 192 224 192Z"/></svg>