<svg xmlns="http://www.w3.org/2000/svg" viewBox="0 0 512 512"><!-- Font Awesome Pro 6.0.0-alpha2 by @fontawesome - https://fontawesome.com License - https://fontawesome.com/license (Commercial License) --><path d="M256 256C264.828 256 272 248.828 272 240V144C272 135.172 264.828 128 256 128S240 135.172 240 144V240C240 248.828 247.172 256 256 256ZM352 192C360.828 192 368 184.828 368 176V80C368 71.172 360.828 64 352 64S336 71.172 336 80V176C336 184.828 343.172 192 352 192ZM160 352C168.828 352 176 344.828 176 336V240C176 231.172 168.828 224 160 224S144 231.172 144 240V336C144 344.828 151.172 352 160 352ZM496 448H80C53.531 448 32 426.469 32 400V48C32 39.172 24.828 32 16 32S0 39.172 0 48V400C0 444.125 35.875 480 80 480H496C504.828 480 512 472.828 512 464S504.828 448 496 448ZM448 352C456.828 352 464 344.828 464 336V80C464 71.172 456.828 64 448 64S432 71.172 432 80V336C432 344.828 439.172 352 448 352Z"/></svg>