<svg xmlns="http://www.w3.org/2000/svg" viewBox="0 0 512 512"><!-- Font Awesome Pro 6.0.0-alpha2 by @fontawesome - https://fontawesome.com License - https://fontawesome.com/license (Commercial License) --><path d="M464 256H256V48C256 39.156 248.844 32 240 32C107.656 32 0 139.656 0 272S107.656 512 240 512S480 404.344 480 272C480 263.156 472.844 256 464 256ZM240 480C125.312 480 32 386.688 32 272C32 162.688 116.75 72.812 224 64.594V272C224 280.844 231.156 288 240 288H447.406C439.188 395.25 349.312 480 240 480ZM304 0C295.156 0 288 7.156 288 16V208C288 216.844 295.156 224 304 224H496C504.844 224 512 216.844 512 208C512 93.312 418.688 0 304 0ZM320 192V32.719C404.312 40.344 471.656 107.688 479.281 192H320Z"/></svg>