<svg xmlns="http://www.w3.org/2000/svg" viewBox="0 0 512 512"><!-- Font Awesome Pro 6.0.0-alpha2 by @fontawesome - https://fontawesome.com License - https://fontawesome.com/license (Commercial License) --><path d="M475.312 164.688C469.062 158.438 458.937 158.438 452.687 164.688L192 425.375L59.312 292.688C53.062 286.438 42.937 286.438 36.687 292.688S30.437 309.063 36.687 315.312L180.687 459.312C183.812 462.438 187.906 464 192 464S200.187 462.438 203.312 459.312L475.312 187.312C481.562 181.062 481.562 170.938 475.312 164.688ZM180.687 235.312C183.812 238.438 187.906 240 192 240S200.187 238.438 203.312 235.312L379.312 59.312C385.562 53.062 385.562 42.937 379.312 36.688S362.937 30.438 356.687 36.688L192 201.375L123.312 132.688C117.062 126.438 106.937 126.438 100.687 132.688S94.437 149.063 100.687 155.312L180.687 235.312Z"/></svg>