<svg xmlns="http://www.w3.org/2000/svg" viewBox="0 0 512 512"><!-- Font Awesome Pro 6.0.0-alpha2 by @fontawesome - https://fontawesome.com License - https://fontawesome.com/license (Commercial License) --><path d="M498.641 428.438L480 419.062V408C480 394.766 469.234 384 456 384H344C330.766 384 320 394.766 320 408V419.062L301.422 428.406C293.266 432.297 288 440.719 288 449.875V488C288 501.234 298.766 512 312 512H488C501.234 512 512 501.234 512 488V449.875C512 440.75 506.766 432.344 498.641 428.438ZM480 480H320V454.881L352 438.787V416H448V438.787L480 454.877V480ZM56.875 224H48.975C40.996 224 33.555 229.398 32.23 237.264C30.549 247.256 38.303 256 48 256H64V284.5C63.938 301.123 62.693 317.662 60.734 334.119C59.602 343.645 67.059 352 76.65 352C84.855 352 91.67 345.805 92.623 337.654C94.688 320.029 96 302.322 96 284.5V256H160V284.5C160 302.322 161.312 320.029 163.377 337.654C164.33 345.805 171.145 352 179.35 352C188.941 352 196.398 343.645 195.266 334.119C193.307 317.662 192.062 301.123 192 284.5V256H207.029C215.008 256 222.447 250.6 223.77 242.73C225.449 232.74 217.697 224 208 224H199.125L230.875 139.25C236.072 125.562 231.424 109.715 218.266 101.025C212.967 97.525 206.582 96 200.232 96H144V64H159.029C167.008 64 174.447 58.6 175.77 50.73C177.449 40.74 169.697 32 160 32H144V16.971C144 8.992 138.6 1.551 130.732 0.229C120.74 -1.449 112 6.303 112 16V32H96.975C88.996 32 81.555 37.398 80.23 45.264C78.549 55.256 86.303 64 96 64H112V96H55.768C49.418 96 43.033 97.525 37.734 101.025C24.576 109.715 19.928 125.563 25.125 139.25L56.875 224ZM201 128L165 224H91.125L55.125 128H201ZM242.641 428.438L224 419.062V408C224 394.766 213.234 384 200 384H56C42.766 384 32 394.766 32 408V419.062L13.422 428.406C5.266 432.297 0 440.719 0 449.875V488C0 501.234 10.766 512 24 512H232C245.234 512 256 501.234 256 488V449.875C256 440.75 250.766 432.344 242.641 428.438ZM224 480H32V454.881L64 438.787V416H192V438.787L224 454.877V480ZM496 160H304C295.156 160 288 167.156 288 176V256C288 261.344 290.672 266.344 295.125 269.312L336 296.562V352C336 360.844 343.156 368 352 368S368 360.844 368 352V288C368 282.656 365.328 277.656 360.875 274.688L320 247.438V192H352V208C352 216.844 359.156 224 368 224S384 216.844 384 208V192H416V208C416 216.844 423.156 224 432 224S448 216.844 448 208V192H480V247.438L439.125 274.688C434.672 277.656 432 282.656 432 288V352C432 360.844 439.156 368 448 368S464 360.844 464 352V296.562L504.875 269.312C509.328 266.344 512 261.344 512 256V176C512 167.156 504.844 160 496 160Z"/></svg>