<svg xmlns="http://www.w3.org/2000/svg" viewBox="0 0 384 512"><!-- Font Awesome Pro 6.0.0-alpha2 by @fontawesome - https://fontawesome.com License - https://fontawesome.com/license (Commercial License) --><path d="M336 32H48C21.531 32 0 53.531 0 80V192C0 196.25 1.688 200.312 4.688 203.312L63.969 262.656C63.969 301.543 65.034 326.743 53.531 397.438C52.094 406.156 58.031 414.375 66.75 415.781C75.25 417.25 83.688 411.313 85.094 402.563C96.996 329.518 96.05 303.477 95.938 256C95.938 251.75 94.25 247.688 91.25 244.688L32 185.375V80C32 71.188 39.188 64 48 64H112V128C112 136.836 119.164 144 128 144S144 136.836 144 128V64H240V128C240 136.836 247.164 144 256 144S272 136.836 272 128V64H336C344.812 64 352 71.188 352 80V185.375L292.75 244.688C289.75 247.688 288.062 251.75 288.062 256C287.948 304.522 287.069 329.913 298.906 402.562C301.115 416.139 314.532 416.267 317.25 415.781C325.969 414.375 331.906 406.156 330.469 397.437C318.996 326.926 320.031 301.252 320.031 262.656L379.312 203.312C382.312 200.312 384 196.25 384 192V80C384 53.531 362.469 32 336 32ZM336 448H48C21.531 448 0 469.531 0 496C0 504.844 7.156 512 16 512S32 504.844 32 496C32 487.188 39.188 480 48 480H336C344.812 480 352 487.188 352 496C352 504.844 359.156 512 368 512S384 504.844 384 496C384 469.531 362.469 448 336 448ZM224 320C232.844 320 240 312.844 240 304V240C240 213.531 218.469 192 192 192S144 213.531 144 240V304C144 312.844 151.156 320 160 320H224ZM176 240C176 231.188 183.188 224 192 224S208 231.188 208 240V288H176V240Z"/></svg>