<svg xmlns="http://www.w3.org/2000/svg" viewBox="0 0 640 512"><!-- Font Awesome Pro 6.0.0-alpha2 by @fontawesome - https://fontawesome.com License - https://fontawesome.com/license (Commercial License) --><path d="M400 96H528C536.844 96 544 88.844 544 80S536.844 64 528 64H400C391.156 64 384 71.156 384 80S391.156 96 400 96ZM464 192C402.145 192 352 242.145 352 304S402.145 416 464 416S576 365.855 576 304S525.855 192 464 192ZM520.568 360.568C489.377 391.76 438.623 391.76 407.432 360.568S376.24 278.623 407.432 247.432C434.748 220.113 477.064 216.73 508.109 237.262L452.686 292.686C446.434 298.939 446.434 309.061 452.686 315.312C458.939 321.566 469.061 321.566 475.314 315.312L530.738 259.889C551.27 290.936 547.887 333.25 520.568 360.568ZM176 192C114.145 192 64 242.145 64 304S114.145 416 176 416S288 365.855 288 304S237.855 192 176 192ZM176 384C131.889 384 96 348.111 96 304C96 265.367 123.529 233.053 160 225.619V304C160 312.844 167.156 320 176 320S192 312.844 192 304V225.619C228.471 233.053 256 265.367 256 304C256 348.111 220.111 384 176 384ZM576 128H192V64H240C248.844 64 256 56.844 256 48S248.844 32 240 32H112C103.156 32 96 39.156 96 48S103.156 64 112 64H160V128H64C28.654 128 0 156.654 0 192V416C0 451.346 28.654 480 64 480H576C611.346 480 640 451.346 640 416V192C640 156.654 611.346 128 576 128ZM608 416C608 433.645 593.645 448 576 448H64C46.355 448 32 433.645 32 416V192C32 174.355 46.355 160 64 160H576C593.645 160 608 174.355 608 192V416Z"/></svg>