<svg xmlns="http://www.w3.org/2000/svg" viewBox="0 0 448 512"><!-- Font Awesome Pro 6.0.0-alpha2 by @fontawesome - https://fontawesome.com License - https://fontawesome.com/license (Commercial License) --><path d="M212.233 58.86L394.202 256.001L212.233 453.142C209.389 456.22 207.983 460.11 207.983 464.001C207.983 468.314 209.702 472.61 213.139 475.751C219.639 481.751 229.733 481.345 235.733 474.86L427.733 266.86C433.42 260.704 433.42 251.298 427.733 245.142L235.733 37.142C229.733 30.657 219.639 30.251 213.139 36.251C206.608 42.22 206.233 52.36 212.233 58.86ZM235.758 266.86C241.446 260.704 241.446 251.298 235.758 245.142L43.758 37.142C37.758 30.657 27.665 30.251 21.165 36.251C14.633 42.22 14.258 52.36 20.258 58.86L202.227 256.001L20.258 453.142C17.415 456.22 16.008 460.11 16.008 464.001C16.008 468.314 17.727 472.61 21.165 475.751C27.665 481.751 37.758 481.345 43.758 474.86L235.758 266.86Z"/></svg>