<svg xmlns="http://www.w3.org/2000/svg" viewBox="0 0 512 512"><!-- Font Awesome Pro 6.0.0-alpha2 by @fontawesome - https://fontawesome.com License - https://fontawesome.com/license (Commercial License) --><path d="M235.312 132.688C229.062 126.438 218.937 126.438 212.688 132.688S206.438 149.063 212.688 155.312L313.375 256L212.688 356.688C206.438 362.938 206.438 373.063 212.688 379.312S229.063 385.562 235.312 379.312L347.312 267.312C350.438 264.188 352 260.094 352 256S350.438 247.812 347.312 244.688L235.312 132.688ZM256 16C123.451 16 16 123.451 16 256S123.451 496 256 496S496 388.549 496 256S388.549 16 256 16ZM256 464C141.309 464 48 370.691 48 256S141.309 48 256 48S464 141.309 464 256S370.691 464 256 464Z"/></svg>