<svg xmlns="http://www.w3.org/2000/svg" viewBox="0 0 512 512"><!-- Font Awesome Pro 6.0.0-alpha2 by @fontawesome - https://fontawesome.com License - https://fontawesome.com/license (Commercial License) --><path d="M272 128H176C167.156 128 160 135.156 160 144V368C160 376.844 167.156 384 176 384S192 376.844 192 368V320H272C324.938 320 368 276.938 368 224S324.938 128 272 128ZM272 288H192V160H272C307.281 160 336 188.703 336 224S307.281 288 272 288ZM256 16C123.451 16 16 123.451 16 256S123.451 496 256 496S496 388.549 496 256S388.549 16 256 16ZM256 464C141.309 464 48 370.691 48 256S141.309 48 256 48S464 141.309 464 256S370.691 464 256 464Z"/></svg>