<svg xmlns="http://www.w3.org/2000/svg" viewBox="0 0 512 512"><!-- Font Awesome Pro 6.0.0-alpha2 by @fontawesome - https://fontawesome.com License - https://fontawesome.com/license (Commercial License) --><path d="M164.75 224H347.125C363.5 224 371.75 204.125 360.125 192.625L269 101.375C265.5 98 260.875 96 256 96S246.375 97.875 243 101.375L151.75 192.625C140.125 204.125 148.375 224 164.75 224ZM256 133.625L314.25 192H197.625L256 133.625ZM340.75 292.75L256 377.375L171.25 292.75C165 286.75 155.125 286.875 149 293S142.75 309 148.75 315.25L244.75 411.25C251 417.5 261 417.5 267.25 411.25L363.25 315.25C369.25 309 369.125 299.125 363 293S347 286.75 340.75 292.75ZM256 16C123.451 16 16 123.453 16 256S123.451 496 256 496S496 388.547 496 256S388.549 16 256 16ZM256 464C141.309 464 48 370.691 48 256S141.309 48 256 48S464 141.309 464 256S370.691 464 256 464Z"/></svg>