<svg xmlns="http://www.w3.org/2000/svg" viewBox="0 0 512 512"><!-- Font Awesome Pro 6.0.0-alpha2 by @fontawesome - https://fontawesome.com License - https://fontawesome.com/license (Commercial License) --><path d="M347.312 187.312C353.562 181.062 353.562 170.937 347.312 164.688C344.188 161.562 340.094 160 336 160S327.812 161.562 324.688 164.688L192 297.375V208C192 199.156 184.844 192 176 192S160 199.156 160 208V335.625C160 344.437 167.141 351.594 175.953 351.625L303.953 352H304C312.812 352 319.969 344.875 320 336.031C320.031 327.219 312.891 320.031 304.047 320L214.898 319.727L347.312 187.312ZM496 256C496 123.453 388.549 16 256 16S16 123.453 16 256S123.451 496 256 496S496 388.547 496 256ZM464 256C464 370.691 370.691 464 256 464S48 370.691 48 256S141.309 48 256 48S464 141.309 464 256Z"/></svg>