<svg xmlns="http://www.w3.org/2000/svg" viewBox="0 0 512 512"><!-- Font Awesome Pro 6.0.0-alpha2 by @fontawesome - https://fontawesome.com License - https://fontawesome.com/license (Commercial License) --><path d="M256 16C123.451 16 16 123.453 16 256S123.451 496 256 496S496 388.547 496 256S388.549 16 256 16ZM256 464C141.309 464 48 370.691 48 256S141.309 48 256 48S464 141.309 464 256S370.691 464 256 464ZM336 240H215.781L320.438 139.547C326.813 133.422 327 123.297 320.875 116.922C314.781 110.516 304.656 110.391 298.25 116.453L164.906 244.453C160.219 248.984 158.719 255.906 161.156 261.969S169.469 272 176 272H296.219L191.562 372.453C185.187 378.578 185 388.703 191.125 395.078C194.25 398.359 198.469 400 202.656 400C206.656 400 210.625 398.516 213.75 395.547L347.094 267.547C351.781 263.016 353.281 256.094 350.844 250.031S342.531 240 336 240Z"/></svg>