<svg xmlns="http://www.w3.org/2000/svg" viewBox="0 0 512 512"><!-- Font Awesome Pro 6.0.0-alpha2 by @fontawesome - https://fontawesome.com License - https://fontawesome.com/license (Commercial License) --><path d="M285.625 128H226.375C189.781 128 160 157.766 160 194.359V204C160 212.844 167.156 220 176 220S192 212.844 192 204V194.359C192 175.406 207.406 160 226.375 160H285.625C304.594 160 320 175.406 320 194.359C320 206.844 313.219 218.359 302.938 224.078L242.5 254.297C231.094 260.656 224 272.703 224 285.766V304C224 312.844 231.156 320 240 320S256 312.844 256 304V285.766C256 284.312 256.781 282.969 257.438 282.594L317.844 252.375C338.906 240.703 352 218.469 352 194.359C352 157.766 322.219 128 285.625 128ZM240 344C226.746 344 216 354.746 216 368S226.746 392 240 392S264 381.254 264 368S253.254 344 240 344ZM256 16C123.451 16 16 123.451 16 256S123.451 496 256 496S496 388.549 496 256S388.549 16 256 16ZM256 464C141.309 464 48 370.691 48 256S141.309 48 256 48S464 141.309 464 256S370.691 464 256 464Z"/></svg>