<svg xmlns="http://www.w3.org/2000/svg" viewBox="0 0 512 512"><!-- Font Awesome Pro 6.0.0-alpha2 by @fontawesome - https://fontawesome.com License - https://fontawesome.com/license (Commercial License) --><path d="M260.688 171.312L329.375 240H144C135.156 240 128 247.156 128 256S135.156 272 144 272H329.375L260.688 340.688C254.438 346.938 254.438 357.063 260.688 363.312S277.063 369.562 283.312 363.312L379.312 267.312C382.438 264.188 384 260.094 384 256S382.438 247.812 379.312 244.688L283.312 148.688C277.062 142.438 266.937 142.438 260.688 148.688S254.438 165.062 260.688 171.312ZM16 256C16 388.549 123.451 496 256 496S496 388.549 496 256S388.549 16 256 16S16 123.451 16 256ZM464 256C464 370.691 370.691 464 256 464S48 370.691 48 256S141.309 48 256 48S464 141.309 464 256Z"/></svg>