<svg xmlns="http://www.w3.org/2000/svg" viewBox="0 0 512 512"><!-- Font Awesome Pro 6.0.0-alpha2 by @fontawesome - https://fontawesome.com License - https://fontawesome.com/license (Commercial License) --><path d="M479.214 256H255.999V32.785C255.999 24 248.87 16.545 240.22 16.545C239.872 16.545 239.525 16.557 239.173 16.58C99.009 26.287 -8.03 156.348 20.685 304.148C38.864 397.727 114.273 473.135 207.851 491.314C224.161 494.484 240.259 496 255.999 496C382.894 496 486.782 397.523 495.419 272.824C496.05 263.709 488.351 256 479.214 256ZM255.999 464C242.093 464 227.946 462.621 213.954 459.902C132.89 444.152 67.845 379.107 52.097 298.045C40.294 237.289 54.079 177.412 90.915 129.445C123.681 86.777 171.48 58.598 223.999 50.451V256C223.999 273.672 238.325 288 255.999 288H461.552C446.075 388.002 358.956 464 255.999 464Z"/></svg>