<svg xmlns="http://www.w3.org/2000/svg" viewBox="0 0 512 512"><!-- Font Awesome Pro 6.0.0-alpha2 by @fontawesome - https://fontawesome.com License - https://fontawesome.com/license (Commercial License) --><path d="M336 160C344.844 160 352 152.844 352 144S344.844 128 336 128H176C167.156 128 160 135.156 160 144V368C160 376.844 167.156 384 176 384H336C344.844 384 352 376.844 352 368S344.844 352 336 352H192V272H288C296.844 272 304 264.844 304 256S296.844 240 288 240H192V160H336ZM256 16C123.451 16 16 123.451 16 256S123.451 496 256 496S496 388.549 496 256S388.549 16 256 16ZM256 464C141.309 464 48 370.691 48 256S141.309 48 256 48S464 141.309 464 256S370.691 464 256 464Z"/></svg>