<svg xmlns="http://www.w3.org/2000/svg" viewBox="0 0 512 512"><!-- Font Awesome Pro 6.0.0-alpha2 by @fontawesome - https://fontawesome.com License - https://fontawesome.com/license (Commercial License) --><path d="M256 16C123.451 16 16 123.451 16 256S123.451 496 256 496S496 388.549 496 256S388.549 16 256 16ZM256 464C141.309 464 48 370.691 48 256S141.309 48 256 48S464 141.309 464 256S370.691 464 256 464ZM256 320C291.346 320 320 291.346 320 256V160C320 124.652 291.346 96 256 96S192 124.652 192 160V256C192 291.346 220.654 320 256 320ZM224 160C224 142.355 238.355 128 256 128S288 142.355 288 160V256C288 273.645 273.645 288 256 288S224 273.645 224 256V160ZM368 224C359.156 224 352 231.156 352 240V256C352 308.938 308.938 352 256 352S160 308.938 160 256V240C160 231.156 152.844 224 144 224S128 231.156 128 240V256C128 321.1 177.031 374.406 240 382.383V400C240 408.844 247.156 416 256 416S272 408.844 272 400V382.383C334.969 374.406 384 321.1 384 256V240C384 231.156 376.844 224 368 224Z"/></svg>