<svg xmlns="http://www.w3.org/2000/svg" viewBox="0 0 512 512"><!-- Font Awesome Pro 6.0.0-alpha2 by @fontawesome - https://fontawesome.com License - https://fontawesome.com/license (Commercial License) --><path d="M372.812 128.734C366.203 126.688 358.906 129.094 354.891 134.828L256 276.094L157.109 134.828C153.094 129.094 145.812 126.641 139.188 128.734C132.531 130.844 128 137.016 128 144V368C128 376.844 135.156 384 144 384S160 376.844 160 368V194.766L242.891 313.172C248.891 321.734 263.109 321.734 269.109 313.172L352 194.766V368C352 376.844 359.156 384 368 384S384 376.844 384 368V144C384 137.016 379.469 130.844 372.812 128.734ZM256 16C123.451 16 16 123.451 16 256S123.451 496 256 496S496 388.549 496 256S388.549 16 256 16ZM256 464C141.309 464 48 370.691 48 256S141.309 48 256 48S464 141.309 464 256S370.691 464 256 464Z"/></svg>