<svg xmlns="http://www.w3.org/2000/svg" viewBox="0 0 512 512"><!-- Font Awesome Pro 6.0.0-alpha2 by @fontawesome - https://fontawesome.com License - https://fontawesome.com/license (Commercial License) --><path d="M256 16C123.451 16 16 123.451 16 256S123.451 496 256 496S496 388.549 496 256S388.549 16 256 16ZM256 464C204.502 464 157.414 445.08 121.049 413.969C137.271 377.508 173.777 352 216.193 352H295.807C338.223 352 374.729 377.508 390.951 413.969C354.586 445.08 307.498 464 256 464ZM414.553 390.311C391.348 348.471 347.051 320 295.807 320H216.193C164.953 320 120.658 348.473 97.449 390.312C66.672 354.037 48 307.188 48 256C48 141.309 141.309 48 256 48S464 141.309 464 256C464 307.188 445.33 354.035 414.553 390.311ZM256 128C211.816 128 176 163.816 176 208C176 252.182 211.816 288 256 288S336 252.182 336 208C336 163.816 300.184 128 256 128ZM256 256C229.533 256 208 234.467 208 208S229.533 160 256 160S304 181.533 304 208S282.467 256 256 256Z"/></svg>