<svg xmlns="http://www.w3.org/2000/svg" viewBox="0 0 512 512"><!-- Font Awesome Pro 6.0.0-alpha2 by @fontawesome - https://fontawesome.com License - https://fontawesome.com/license (Commercial License) --><path d="M256 16C123.451 16 16 123.451 16 256S123.451 496 256 496S496 388.549 496 256S388.549 16 256 16ZM256 464C141.309 464 48 370.691 48 256S141.309 48 256 48S464 141.309 464 256S370.691 464 256 464ZM409.172 178.891C404.906 175.906 399.453 175.187 394.531 176.969L320 204.07V192C320 174.326 305.674 160 288 160H160C142.326 160 128 174.326 128 192V320C128 337.672 142.326 352 160 352H288C305.674 352 320 337.672 320 320V307.93L394.531 335.031C396.312 335.688 398.156 336 400 336C403.234 336 406.453 335.016 409.172 333.109C413.453 330.109 416 325.219 416 320V192C416 186.781 413.453 181.891 409.172 178.891ZM288 320H160V192H288V320ZM384 297.156L320 273.889V238.111L384 214.844V297.156Z"/></svg>