<svg xmlns="http://www.w3.org/2000/svg" viewBox="0 0 512 512"><!-- Font Awesome Pro 6.0.0-alpha2 by @fontawesome - https://fontawesome.com License - https://fontawesome.com/license (Commercial License) --><path d="M256 16C123.451 16 16 123.453 16 256S123.451 496 256 496S496 388.547 496 256S388.549 16 256 16ZM256 464C141.309 464 48 370.691 48 256S141.309 48 256 48S464 141.309 464 256S370.691 464 256 464ZM338.068 152.031C335.15 152.031 332.187 152.604 329.344 153.781L133.328 237.781C123.766 241.875 118.344 252.25 120.438 262.406C122.531 272.594 131.578 280 141.984 280H232V370.001C232 380.406 239.391 389.5 249.625 391.594C251.078 391.875 252.562 392 254 392C262.797 392 270.734 386.781 274.234 378.688L358.234 182.688V182.656C361.797 174.312 359.953 164.812 353.578 158.469C349.41 154.258 343.826 152.029 338.068 152.031ZM264 321.332V248H190.721L318.986 193.031L264 321.332Z"/></svg>