<svg xmlns="http://www.w3.org/2000/svg" viewBox="0 0 512 512"><!-- Font Awesome Pro 6.0.0-alpha2 by @fontawesome - https://fontawesome.com License - https://fontawesome.com/license (Commercial License) --><path d="M355.859 149.594L256 266.062L156.141 149.594C150.406 142.906 140.297 142.156 133.594 147.844C126.875 153.594 126.094 163.719 131.859 170.406L240 296.561V384C240 392.844 247.156 400 256 400S272 392.844 272 384V296.561L380.141 170.406C385.906 163.719 385.125 153.594 378.406 147.844C371.734 142.156 361.625 142.906 355.859 149.594ZM256 16C123.451 16 16 123.451 16 256S123.451 496 256 496S496 388.549 496 256S388.549 16 256 16ZM256 464C141.309 464 48 370.691 48 256S141.309 48 256 48S464 141.309 464 256S370.691 464 256 464Z"/></svg>