<svg xmlns="http://www.w3.org/2000/svg" viewBox="0 0 512 512"><!-- Font Awesome Pro 6.0.0-alpha2 by @fontawesome - https://fontawesome.com License - https://fontawesome.com/license (Commercial License) --><path d="M256 16C123.451 16 16 123.451 16 256S123.451 496 256 496S496 388.549 496 256S388.549 16 256 16ZM256 464C141.309 464 48 370.691 48 256S141.309 48 256 48S464 141.309 464 256S370.691 464 256 464ZM256 184C269.254 184 280 173.256 280 160C280 146.746 269.254 136 256 136S232 146.746 232 160C232 173.256 242.746 184 256 184ZM304 352H272V240C272 231.156 264.844 224 256 224H224C215.156 224 208 231.156 208 240S215.156 256 224 256H240V352H208C199.164 352 192 359.162 192 368C192 376.836 199.164 384 208 384H304C312.836 384 320 376.836 320 368C320 359.162 312.836 352 304 352Z"/></svg>