<svg xmlns="http://www.w3.org/2000/svg" viewBox="0 0 512 512"><!-- Font Awesome Pro 6.0.0-alpha2 by @fontawesome - https://fontawesome.com License - https://fontawesome.com/license (Commercial License) --><path d="M352 128C343.156 128 336 135.156 336 144V324.75L172.141 133.594C167.766 128.469 160.703 126.641 154.453 129C148.172 131.312 144 137.297 144 144V368C144 376.844 151.156 384 160 384S176 376.844 176 368V187.25L339.859 378.406C342.953 382.031 347.422 384 352 384C353.859 384 355.734 383.672 357.547 383C363.828 380.688 368 374.703 368 368V144C368 135.156 360.844 128 352 128ZM256 16C123.451 16 16 123.451 16 256S123.451 496 256 496S496 388.549 496 256S388.549 16 256 16ZM256 464C141.309 464 48 370.691 48 256S141.309 48 256 48S464 141.309 464 256S370.691 464 256 464Z"/></svg>