<svg xmlns="http://www.w3.org/2000/svg" viewBox="0 0 512 512"><!-- Font Awesome Pro 6.0.0-alpha2 by @fontawesome - https://fontawesome.com License - https://fontawesome.com/license (Commercial License) --><path d="M256 16C123.451 16 16 123.451 16 256S123.451 496 256 496S496 388.549 496 256S388.549 16 256 16ZM256 464C141.309 464 48 370.691 48 256S141.309 48 256 48S464 141.309 464 256S370.691 464 256 464ZM288 128H208C190.344 128 176 142.344 176 160V368C176 376.844 183.156 384 192 384S208 376.844 208 368V320H288C340.938 320 384 276.938 384 224S340.938 128 288 128ZM288 288H208V160H288C323.281 160 352 188.719 352 224S323.281 288 288 288Z"/></svg>