<svg xmlns="http://www.w3.org/2000/svg" viewBox="0 0 512 512"><!-- Font Awesome Pro 6.0.0-alpha2 by @fontawesome - https://fontawesome.com License - https://fontawesome.com/license (Commercial License) --><path d="M270.312 120.844C264.875 110 247.125 110 241.688 120.844L129.688 344.844C125.734 352.75 128.938 362.359 136.844 366.312C144.75 370.234 154.359 367.062 158.312 359.156L178.205 319.371C179.25 319.586 180.221 320 181.328 320H330.672C331.779 320 332.75 319.586 333.795 319.371L353.688 359.156C356.5 364.766 362.141 368 368.016 368C370.422 368 372.859 367.453 375.156 366.312C383.062 362.359 386.266 352.75 382.312 344.844L270.312 120.844ZM193.891 288L256 163.781L318.109 288H193.891ZM256 16C123.451 16 16 123.451 16 256S123.451 496 256 496S496 388.549 496 256S388.549 16 256 16ZM256 464C141.309 464 48 370.691 48 256S141.309 48 256 48S464 141.309 464 256S370.691 464 256 464Z"/></svg>