<svg xmlns="http://www.w3.org/2000/svg" viewBox="0 0 512 512"><!-- Font Awesome Pro 6.0.0-alpha2 by @fontawesome - https://fontawesome.com License - https://fontawesome.com/license (Commercial License) --><path d="M227.719 388.281C242.844 403.406 268.969 403.609 284.469 388.078L376.969 292.281C388.437 280.797 391.844 263.688 385.656 248.688C379.438 233.688 364.938 224 348.688 224H320V152C320 129.938 302.062 112 280 112H232C209.938 112 192 129.938 192 152V224H163.312C147.062 224 132.562 233.688 126.344 248.688C120.156 263.641 123.531 280.688 134.906 292.172L227.719 388.281ZM163.312 256H224V152C224 147.594 227.594 144 232 144H280C284.406 144 288 147.594 288 152V256H348.688C355.102 256 359.943 264.047 354.156 269.859L261.656 365.656C257.494 369.861 252.123 367.453 250.531 365.859L157.844 269.859L157.656 269.656C152.805 264.805 155.879 256 163.312 256ZM256 496C388.549 496 496 388.549 496 256S388.549 16 256 16S16 123.451 16 256S123.451 496 256 496ZM256 48C370.691 48 464 141.309 464 256S370.691 464 256 464S48 370.691 48 256S141.309 48 256 48Z"/></svg>