<svg xmlns="http://www.w3.org/2000/svg" viewBox="0 0 512 512"><!-- Font Awesome Pro 6.0.0-alpha2 by @fontawesome - https://fontawesome.com License - https://fontawesome.com/license (Commercial License) --><path d="M272 224H251.25L330.406 156.156C335.5 151.781 337.328 144.719 335 138.438C332.688 132.156 326.703 128 320 128H176C167.156 128 160 135.156 160 144S167.156 160 176 160H276.75L197.594 227.844C192.5 232.219 190.672 239.281 193 245.562C195.312 251.844 201.297 256 208 256H272C298.469 256 320 277.531 320 304S298.469 352 272 352H217.516C205.547 352 194.969 344.375 191.188 333C188.391 324.656 179.391 320.062 170.938 322.875C162.562 325.688 158.031 334.75 160.813 343.125C168.969 367.562 191.75 384 217.516 384H272C316.109 384 352 348.125 352 304S316.109 224 272 224ZM256 16C123.451 16 16 123.451 16 256S123.451 496 256 496S496 388.549 496 256S388.549 16 256 16ZM256 464C141.309 464 48 370.691 48 256S141.309 48 256 48S464 141.309 464 256S370.691 464 256 464Z"/></svg>