<svg xmlns="http://www.w3.org/2000/svg" viewBox="0 0 512 512"><!-- Font Awesome Pro 6.0.0-alpha2 by @fontawesome - https://fontawesome.com License - https://fontawesome.com/license (Commercial License) --><path d="M352 352H194.781L364.156 154.406C368.219 149.656 369.156 143 366.531 137.312C363.938 131.625 358.25 128 352 128H160C151.156 128 144 135.156 144 144S151.156 160 160 160H317.219L147.844 357.594C143.781 362.344 142.844 369 145.469 374.688C148.062 380.375 153.75 384 160 384H352C360.844 384 368 376.844 368 368S360.844 352 352 352ZM256 16C123.451 16 16 123.451 16 256S123.451 496 256 496S496 388.549 496 256S388.549 16 256 16ZM256 464C141.309 464 48 370.691 48 256S141.309 48 256 48S464 141.309 464 256S370.691 464 256 464Z"/></svg>