<svg xmlns="http://www.w3.org/2000/svg" viewBox="0 0 512 512"><!-- Font Awesome Pro 6.0.0-alpha2 by @fontawesome - https://fontawesome.com License - https://fontawesome.com/license (Commercial License) --><path d="M340.688 180.688L224 297.375L171.312 244.688C165.062 238.438 154.937 238.438 148.688 244.688S142.438 261.063 148.688 267.312L212.688 331.312C215.812 334.438 219.906 336 224 336S232.188 334.438 235.312 331.312L363.312 203.312C369.562 197.062 369.562 186.937 363.312 180.688S346.938 174.438 340.688 180.688ZM256 16C123.451 16 16 123.451 16 256S123.451 496 256 496S496 388.549 496 256S388.549 16 256 16ZM256 464C141.309 464 48 370.691 48 256S141.309 48 256 48S464 141.309 464 256S370.691 464 256 464Z"/></svg>