<svg xmlns="http://www.w3.org/2000/svg" viewBox="0 0 512 512"><!-- Font Awesome Pro 6.0.0-alpha2 by @fontawesome - https://fontawesome.com License - https://fontawesome.com/license (Commercial License) --><path d="M336 352H218.531L305.797 275.5C340.422 245.125 344.438 193.625 314.969 158.281C300.313 140.719 279.688 130.063 256.891 128.281C233.938 126.281 212.047 133.781 194.875 148.844L177.609 163.938C170.953 169.75 170.281 179.844 176.094 186.5C181.922 193.156 192.016 193.781 198.672 188L215.938 172.906C226.609 163.562 240.203 159.312 254.391 160.156C268.516 161.281 281.297 167.875 290.391 178.781C308.656 200.687 306.156 232.594 284.703 251.437L165.453 355.969C160.437 360.375 158.672 367.406 161.031 373.625C163.375 379.875 169.344 384 176 384H336C344.844 384 352 376.844 352 368S344.844 352 336 352ZM256 16C123.451 16 16 123.451 16 256S123.451 496 256 496S496 388.549 496 256S388.549 16 256 16ZM256 464C141.309 464 48 370.691 48 256S141.309 48 256 48S464 141.309 464 256S370.691 464 256 464Z"/></svg>