<svg xmlns="http://www.w3.org/2000/svg" viewBox="0 0 512 512"><!-- Font Awesome Pro 6.0.0-alpha2 by @fontawesome - https://fontawesome.com License - https://fontawesome.com/license (Commercial License) --><path d="M336 384C327.164 384 320 391.162 320 400V448C320 465.672 305.674 480 288 480H64C46.326 480 32 465.672 32 448V224C32 206.326 46.326 192 64 192H112C120.836 192 128 184.836 128 176C128 167.162 120.836 160 112 160H64C28.654 160 0 188.652 0 224V448C0 483.346 28.654 512 64 512H288C323.346 512 352 483.346 352 448V400C352 391.162 344.836 384 336 384ZM448 0H224C188.654 0 160 28.654 160 64V288C160 323.346 188.654 352 224 352H448C483.346 352 512 323.346 512 288V64C512 28.654 483.346 0 448 0ZM480 288C480 305.645 465.645 320 448 320H224C206.355 320 192 305.645 192 288V64C192 46.355 206.355 32 224 32H448C465.645 32 480 46.355 480 64V288Z"/></svg>