<svg xmlns="http://www.w3.org/2000/svg" viewBox="0 0 640 512"><!-- Font Awesome Pro 6.0.0-alpha2 by @fontawesome - https://fontawesome.com License - https://fontawesome.com/license (Commercial License) --><path d="M608.5 387.281L341.188 218.438L373.25 197.062C400.031 179.219 416 149.344 416 117.188V96C416 43.062 372.938 0 320 0S224 43.062 224 96C224 104.844 231.156 112 240 112S256 104.844 256 96C256 60.719 284.719 32 320 32S384 60.719 384 96V117.188C384 138.625 373.344 158.531 355.5 170.438L30.094 387.375C11.25 399.938 0 420.969 0 444.438C0 481.688 30.312 512 67.562 512H572.438C609.688 512 640 481.688 640 444.438C640 421.125 628.219 399.75 608.5 387.281ZM572.438 480H67.562C47.969 480 32 464.031 32 443.594C32 431.688 37.938 420.625 47.844 414L312.031 237.875L591.406 414.344C601.812 420.906 608 432.156 608 444.438C608 464.031 592.031 480 572.438 480Z"/></svg>