<svg xmlns="http://www.w3.org/2000/svg" viewBox="0 0 640 512"><!-- Font Awesome Pro 6.0.0-alpha2 by @fontawesome - https://fontawesome.com License - https://fontawesome.com/license (Commercial License) --><path d="M168 320H472C529.25 320 576 273.25 576 216C576 161.25 533.375 116.25 479.75 112.25C475.75 67.375 437.875 32 392 32C374.25 32 357.25 37.25 342.75 47.25C320.25 17.75 285.5 0 248 0C181.75 0 128 53.75 128 120V120.375C89.75 136.375 64 173.875 64 216C64 273.25 110.75 320 168 320ZM149.25 146.75L149.262 146.748C156.928 144.742 161.947 137.398 161.035 129.527C160.352 123.635 160 122.967 160 120C160 71.5 199.5 32 248 32C280.25 32 309.75 49.875 325.25 78.75L325.256 78.76C330.379 88.459 343.555 90.182 351 82.125C363.771 68.326 381.543 61.939 400.264 64.588C425.613 68.172 444.584 89.902 447.602 115.324C448.232 120.633 448.115 120.391 447.25 126.875L447.227 127.07C445.959 137.209 454.443 145.895 464.609 144.867C470.24 144.299 469.818 144.125 472 144.125C511.75 144.125 544 176.375 544 216.125C544 255.75 511.75 288.125 472 288.125H168C128.25 288.125 96 255.75 96 216.125C96 183.75 117.875 155.25 149.25 146.75ZM208 480H80C71.201 480 64 487.199 64 496S71.201 512 80 512H208C216.801 512 224 504.801 224 496S216.801 480 208 480ZM624 480H304C295.201 480 288 487.199 288 496S295.201 512 304 512H624C632.801 512 640 504.801 640 496S632.801 480 624 480ZM576 400C576 391.199 568.801 384 560 384H16C7.201 384 0 391.199 0 400S7.201 416 16 416H560C568.801 416 576 408.801 576 400Z"/></svg>