<svg xmlns="http://www.w3.org/2000/svg" viewBox="0 0 640 512"><!-- Font Awesome Pro 6.0.0-alpha2 by @fontawesome - https://fontawesome.com License - https://fontawesome.com/license (Commercial License) --><path d="M571.75 238.75C574.5 228.875 576 218.625 576 208C576 146.125 525.875 96 464 96C447.25 96 431.125 99.625 416 106.75C384.375 61.75 331.75 32 272 32C177.625 32 100.25 106.5 96.25 200.25C39.25 220.25 0 274.25 0 336C0 415.625 64.375 480 144 480H512C582.75 480 640 422.75 640 352C640 305 614.25 261.25 571.75 238.75ZM507.541 448H149.473C91.164 448 38.564 405.836 32.609 347.832C26.795 291.215 63.266 241.938 114.271 227.975C122.639 225.684 128.051 217.715 128.002 209.039C128 208.705 128 208.369 128 208.033C127.99 147.34 165.129 91.375 222.709 72.186C294.18 48.365 361.916 78.912 394.988 133.078C400.973 142.881 413.342 145.07 423.207 139.189C440.092 129.125 460.986 125.121 483.15 130.201C509.998 136.355 532.596 157.201 540.406 183.615C546.205 203.227 544.713 222.357 537.898 238.775C533.762 248.744 539.959 259.525 549.883 263.771C587.223 279.746 612.301 318.83 607.387 363.018C601.902 412.318 557.146 448 507.541 448ZM388.688 292.688L336 345.375V176C336 167.156 328.844 160 320 160S304 167.156 304 176V345.375L251.312 292.688C245.062 286.438 234.937 286.438 228.688 292.688S222.438 309.063 228.688 315.312L308.688 395.312C311.812 398.438 315.906 400 320 400S328.188 398.438 331.312 395.312L411.312 315.312C417.562 309.062 417.562 298.937 411.312 292.688S394.938 286.438 388.688 292.688Z"/></svg>