<svg xmlns="http://www.w3.org/2000/svg" viewBox="0 0 576 512"><!-- Font Awesome Pro 6.0.0-alpha2 by @fontawesome - https://fontawesome.com License - https://fontawesome.com/license (Commercial License) --><path d="M186.767 68.156C180.251 62.25 170.111 62.656 164.158 69.25L4.16 245.25C-1.387 251.344 -1.387 260.656 4.16 266.75L164.158 442.75C167.314 446.25 171.658 448 176.002 448C179.845 448 183.705 446.625 186.767 443.844C193.298 437.906 193.783 427.781 187.845 421.25L37.628 256L187.845 90.75C193.783 84.219 193.298 74.094 186.767 68.156ZM571.84 245.25L411.842 69.25C405.889 62.656 395.78 62.25 389.233 68.156C382.702 74.094 382.217 84.219 388.155 90.75L538.372 256L388.155 421.25C382.217 427.781 382.702 437.906 389.233 443.844C392.295 446.625 396.155 448 399.998 448C404.342 448 408.686 446.25 411.842 442.75L571.84 266.75C577.387 260.656 577.387 251.344 571.84 245.25Z"/></svg>