<svg xmlns="http://www.w3.org/2000/svg" viewBox="0 0 512 512"><!-- Font Awesome Pro 6.0.0-alpha2 by @fontawesome - https://fontawesome.com License - https://fontawesome.com/license (Commercial License) --><path d="M431.5 177.625L472.99 53.055C476.439 42.695 468.729 32 457.809 32H80C35.816 32 0 67.816 0 112V208C0 216.799 7.199 224 16 224S32 216.799 32 208V112C32 85.49 53.49 64 80 64H106.625L144.75 178.125C95.375 217.875 64 277.75 64 344.625C64 396.104 82.609 429.348 113.588 462.334C124.305 473.746 139.471 480 155.125 480H420.875C436.404 480 451.451 473.812 462.111 462.52C493.195 429.598 512 396.199 512 344.625C512 278.375 481.375 217.875 431.5 177.625ZM140.375 64H435.625L403.625 160H172.375L140.375 64ZM178.5 192H398.25C419.25 208.875 452.875 234.125 470.75 288H105.375C123.5 234 158.25 208.375 178.5 192ZM439 440.5C434.25 445.375 427.625 448.125 420.875 448H155.125C148.25 448.125 141.75 445.375 137 440.375C107.125 408.75 96 382.75 96 344.625C96.125 336.375 96.75 328.125 97.875 320H478.125C479.375 328.125 480 336.375 480 344.625C480 382.75 468.875 408.75 439 440.5Z"/></svg>