<svg xmlns="http://www.w3.org/2000/svg" viewBox="0 0 512 512"><!-- Font Awesome Pro 6.0.0-alpha2 by @fontawesome - https://fontawesome.com License - https://fontawesome.com/license (Commercial License) --><path d="M184 144C153.072 144 128 169.072 128 200S153.072 256 184 256C192.627 256 200.701 253.889 208 250.404V256C208 282.469 186.469 304 160 304C151.156 304 144 311.156 144 320S151.156 336 160 336C204.125 336 240 300.125 240 256V200C240 169.072 214.928 144 184 144ZM184 224C170.767 224 160 213.232 160 200C160 186.766 170.767 176 184 176C197.234 176 208 186.766 208 200C208 213.232 197.234 224 184 224ZM256.033 32C114.678 32 0.068 125.125 0.068 240C0.068 287.625 19.941 331.25 52.935 366.25C38.062 405.75 7.066 439.125 6.566 439.5C-0.057 446.5 -1.807 456.75 1.943 465.5C5.816 474.25 14.316 480 23.939 480C85.431 480 133.926 454.25 163.047 433.75C192.043 442.75 223.289 448 256.033 448C397.39 448 512 354.875 512 240S397.39 32 256.033 32ZM256.033 416C227.787 416 199.791 411.75 172.795 403.25C163.279 400.182 152.873 401.789 144.726 407.588L144.674 407.625C121.678 423.875 86.181 442.875 42.062 447.25C54.06 432.125 71.808 406.75 82.806 377.625L82.935 377.285C87.219 366.014 84.726 353.287 76.506 344.463L76.308 344.25C47.312 313.75 32.064 277.625 32.064 240C32.064 143 132.551 64 256.033 64C379.517 64 480.004 143 480.004 240S379.517 416 256.033 416ZM328 144C297.072 144 272 169.072 272 200S297.072 256 328 256C336.627 256 344.701 253.889 352 250.404V256C352 282.469 330.469 304 304 304C295.156 304 288 311.156 288 320S295.156 336 304 336C348.125 336 384 300.125 384 256V200C384 169.072 358.928 144 328 144ZM328 224C314.767 224 304 213.232 304 200C304 186.766 314.767 176 328 176C341.234 176 352 186.766 352 200C352 213.232 341.234 224 328 224Z"/></svg>