<svg xmlns="http://www.w3.org/2000/svg" viewBox="0 0 640 512"><!-- Font Awesome Pro 6.0.0-alpha2 by @fontawesome - https://fontawesome.com License - https://fontawesome.com/license (Commercial License) --><path d="M320.033 416C291.787 416 263.791 411.75 236.795 403.25C227.279 400.182 216.873 401.789 208.726 407.588L208.674 407.625C185.678 423.875 150.182 442.875 106.062 447.25C118.06 432.125 135.808 406.75 146.807 377.625L146.935 377.285C151.219 366.014 148.726 353.287 140.506 344.463L140.308 344.25C111.312 313.75 96.064 277.625 96.064 240C96.064 216.592 102.033 194.277 112.646 173.824L87.289 153.803C72.517 180.09 64.068 209.215 64.068 240C64.068 287.625 83.941 331.25 116.935 366.25C102.062 405.75 71.066 439.125 70.566 439.5C63.943 446.5 62.193 456.75 65.943 465.5C69.816 474.25 78.316 480 87.939 480C149.432 480 197.926 454.25 227.047 433.75C256.043 442.75 287.289 448 320.033 448C360.535 448 398.695 440.146 432.738 426.535L403.252 403.256C377.492 411.398 349.451 416 320.033 416ZM320.033 64C443.517 64 544.004 143 544.004 240C544.004 271.9 532.969 301.768 513.988 327.604L538.98 347.334C562.32 315.969 576 279.328 576 240C576 125.125 461.391 32 320.033 32C268.992 32 221.555 44.279 181.625 65.203L209.439 87.162C242.107 72.5 279.803 64 320.033 64ZM633.908 483.436L25.904 3.418C18.998 -2.02 8.935 -0.848 3.435 6.059C-2.033 12.996 -0.846 23.061 6.092 28.545L614.096 508.563C617.033 510.875 620.533 512 624.002 512C628.721 512 633.408 509.906 636.564 505.922C642.033 498.984 640.846 488.92 633.908 483.436Z"/></svg>