<svg xmlns="http://www.w3.org/2000/svg" viewBox="0 0 512 512"><!-- Font Awesome Pro 6.0.0-alpha2 by @fontawesome - https://fontawesome.com License - https://fontawesome.com/license (Commercial License) --><path d="M256.033 32C114.678 32 0.068 125.125 0.068 240C0.068 287.625 19.941 331.25 52.935 366.25C38.062 405.75 7.066 439.125 6.566 439.5C-0.057 446.5 -1.807 456.75 1.943 465.5C5.816 474.25 14.316 480 23.939 480C85.431 480 133.926 454.25 163.047 433.75C192.043 442.75 223.289 448 256.033 448C397.39 448 512 354.875 512 240S397.39 32 256.033 32ZM256.033 416C227.787 416 199.791 411.75 172.795 403.25C163.279 400.182 152.873 401.791 144.726 407.588L144.674 407.625C121.678 423.875 86.181 442.875 42.062 447.25C54.06 432.125 71.808 406.75 82.806 377.625L82.935 377.287C87.219 366.014 84.726 353.287 76.506 344.463L76.308 344.25C47.312 313.75 32.064 277.625 32.064 240C32.064 143 132.551 64 256.033 64C379.517 64 480.004 143 480.004 240S379.517 416 256.033 416ZM223.312 156.688C217.062 150.438 206.937 150.438 200.687 156.688L128.687 228.688C122.437 234.938 122.437 245.063 128.687 251.312L200.687 323.312C203.812 326.438 207.906 328 212 328S220.187 326.438 223.312 323.312C229.562 317.062 229.562 306.937 223.312 300.688L162.625 240L223.312 179.312C229.562 173.062 229.562 162.938 223.312 156.688ZM311.312 156.688C305.062 150.438 294.937 150.438 288.687 156.688S282.437 173.063 288.687 179.312L349.375 240L288.687 300.688C282.437 306.938 282.437 317.063 288.687 323.312C291.812 326.438 295.906 328 300 328S308.187 326.438 311.312 323.312L383.312 251.312C389.562 245.062 389.562 234.937 383.312 228.688L311.312 156.688Z"/></svg>