<svg xmlns="http://www.w3.org/2000/svg" viewBox="0 0 512 512"><!-- Font Awesome Pro 6.0.0-alpha2 by @fontawesome - https://fontawesome.com License - https://fontawesome.com/license (Commercial License) --><path d="M278.125 128H229.656C200.062 128 176 152.062 176 181.641C176 190.484 183.156 197.641 192 197.641S208 190.484 208 181.641C208 169.703 217.719 160 229.656 160H278.125C292.406 160 304 171.609 304 185.875C304 195.75 298.531 204.625 289.469 209.141L248.625 230.344C243.312 233.094 240 238.578 240 244.547V272C240 280.844 247.156 288 256 288S272 280.844 272 272V254.266L304 237.656C323.75 227.781 336 207.938 336 185.875C336 153.969 310.031 128 278.125 128ZM256 312C244.955 312 236 320.953 236 332C236 343.045 244.955 352 256 352S276 343.045 276 332C276 320.953 267.045 312 256 312ZM256.033 32C114.678 32 0.068 125.125 0.068 240C0.068 287.625 19.941 331.25 52.935 366.25C38.062 405.75 7.066 439.125 6.566 439.5C-0.057 446.5 -1.807 456.75 1.943 465.5C5.816 474.25 14.316 480 23.939 480C85.431 480 133.926 454.25 163.047 433.75C192.043 442.75 223.289 448 256.033 448C397.39 448 512 354.875 512 240S397.39 32 256.033 32ZM256.033 416C227.787 416 199.791 411.75 172.795 403.25C163.279 400.182 152.873 401.789 144.726 407.588L144.674 407.625C121.678 423.875 86.181 442.875 42.062 447.25C54.06 432.125 71.808 406.75 82.806 377.625L82.935 377.285C87.219 366.014 84.726 353.287 76.506 344.463L76.308 344.25C47.312 313.75 32.064 277.625 32.064 240C32.064 143 132.551 64 256.033 64C379.517 64 480.004 143 480.004 240S379.517 416 256.033 416Z"/></svg>