<svg xmlns="http://www.w3.org/2000/svg" viewBox="0 0 512 512"><!-- Font Awesome Pro 6.0.0-alpha2 by @fontawesome - https://fontawesome.com License - https://fontawesome.com/license (Commercial License) --><path d="M323.162 103.475L274.275 10.084C270.758 3.361 263.379 0 256 0S241.242 3.361 237.725 10.084L188.838 103.475C80.076 127.467 0 208.012 0 304C0 418.906 114.594 512 256 512S512 418.906 512 304C512 208.012 431.924 127.467 323.162 103.475ZM256 480C132.486 480 32 401.047 32 304C32 225.598 99.328 155.988 195.73 134.723L210.279 131.514L256 44.172L301.721 131.514L316.27 134.723C412.672 155.988 480 225.598 480 304C480 401.047 379.514 480 256 480Z "></path></svg>