<svg xmlns="http://www.w3.org/2000/svg" viewBox="0 0 512 512"><!-- Font Awesome Pro 6.0.0-alpha2 by @fontawesome - https://fontawesome.com License - https://fontawesome.com/license (Commercial License) --><path d="M256.034 64C379.518 64 480.004 143 480.004 240S379.518 416 256.034 416C227.788 416 199.792 411.75 172.795 403.25L172.795 403.25C163.279 400.182 152.873 401.79 144.726 407.588L144.674 407.625C121.677 423.875 86.182 442.875 42.062 447.25C54.061 432.125 71.809 406.75 82.807 377.625L82.936 377.286C87.219 366.014 84.726 353.287 76.507 344.463L76.308 344.25C47.312 313.75 32.064 277.625 32.064 240C32.064 143 132.55 64 256.034 64M256.034 32C114.678 32 0.068 125.125 0.068 240C0.068 287.625 19.94 331.25 52.936 366.25C38.063 405.75 7.067 439.125 6.567 439.5C-0.057 446.5 -1.807 456.75 1.943 465.5C5.817 474.25 14.316 480 23.94 480C85.432 480 133.925 454.25 163.046 433.75C192.043 442.75 223.288 448 256.034 448C397.39 448 512 354.875 512 240S397.39 32 256.034 32Z"/></svg>