<svg xmlns="http://www.w3.org/2000/svg" viewBox="0 0 448 512"><!-- Font Awesome Pro 6.0.0-alpha2 by @fontawesome - https://fontawesome.com License - https://fontawesome.com/license (Commercial License) --><path d="M384 0H64C28.801 0 0 28.799 0 64V384C0 407.629 12.951 428.037 32 439.123V480C32 497.656 46.344 512 64 512H384C401.656 512 416 497.656 416 480V439.123C435.049 428.037 448 407.629 448 384V64C448 28.799 419.199 0 384 0ZM384 480H64V448H384V480ZM416 384C416 401.672 401.674 416 384 416H64C46.326 416 32 401.672 32 384V64C32 46.326 46.326 32 64 32H384C401.674 32 416 46.326 416 64V384ZM320 64H128C92.654 64 64 92.652 64 128V192C64 227.346 92.654 256 128 256H320C355.348 256 384 227.346 384 192V128C384 92.652 355.348 64 320 64ZM352 192C352 209.645 337.645 224 320 224H128C110.355 224 96 209.645 96 192V128C96 110.355 110.355 96 128 96H320C337.645 96 352 110.355 352 128V192ZM96 312C82.746 312 72 322.744 72 336C72 349.254 82.746 360 96 360S120 349.254 120 336C120 322.744 109.254 312 96 312ZM368 320H240C231.156 320 224 327.156 224 336S231.156 352 240 352H368C376.844 352 384 344.844 384 336S376.844 320 368 320Z"/></svg>