<svg xmlns="http://www.w3.org/2000/svg" viewBox="0 0 512 512"><!-- Font Awesome Pro 6.0.0-alpha2 by @fontawesome - https://fontawesome.com License - https://fontawesome.com/license (Commercial License) --><path d="M446.001 0C433.126 0 420.751 3.75 410.376 10.623C394.999 6.5 382.249 9.125 375.499 11.123C365.124 14.123 355.622 19.498 347.872 26.998C341.622 26.623 330.247 26.623 317.372 32.123C307.37 36.623 298.87 43.248 292.37 51.371C281.87 51.871 271.62 54.996 262.618 60.371C254.382 64.959 247.503 71.641 242.122 79.281C250.144 90.984 256.808 102.609 262.271 114.092C262.294 114.102 262.345 114.111 262.368 114.119C263.243 103.619 269.12 93.494 278.995 87.869C294.87 78.496 309.87 86.371 310.37 86.496C312.245 76.121 319.122 66.371 329.872 61.621C343.372 55.871 355.372 60.246 361.497 64.246C364.749 53.621 373.249 44.998 384.499 41.748C387.499 40.873 403.124 36.748 416.626 49.871C422.376 38.998 433.501 31.998 446.001 31.998C446.501 31.998 479.878 30.998 479.878 69.871C479.378 82.746 471.878 93.494 461.378 98.869C468.878 107.119 472.378 119.244 468.878 130.992C465.378 142.242 456.503 150.492 446.126 153.742C452.001 162.867 453.376 174.615 448.501 185.365C443.751 196.115 434.126 202.74 423.376 204.613C428.251 214.238 427.876 226.113 422.001 235.988C417.501 243.887 410.083 249.082 401.808 251.35C412.323 256.557 422.892 262.775 433.509 270.135C440.028 265 445.753 258.979 449.876 251.736C455.126 242.863 458.128 232.988 458.753 222.863C466.753 216.488 473.378 208.113 477.753 198.49C482.128 188.615 484.003 177.865 483.378 167.49C490.753 159.867 496.378 150.617 499.503 140.492C502.755 129.242 503.005 117.369 500.253 105.994C528.255 65.246 504.63 0 446.001 0ZM446.876 322.482C376.956 251.564 288.468 255.611 285.62 255.611C274.87 255.611 264.243 256.736 253.743 258.111C255.243 247.611 256.243 237.113 256.243 226.238C256.243 223.352 260.915 136.545 189.491 65.121L168.364 43.998C159.364 34.873 143.864 39.623 141.364 52.121L117.612 170.865L36.985 251.486C16.983 271.611 2.983 297.609 0.483 325.982C-2.642 360.855 9.483 394.23 33.983 418.604L96.112 480.85L96.487 480.6C123.862 506.1 161.239 517.473 199.741 509.475C222.618 504.725 243.243 492.225 259.743 475.727L340.997 394.355L459.878 370.605C472.378 368.105 477.003 352.607 468.003 343.607L446.876 322.482ZM56.61 277.236L147.114 186.74L166.864 87.746C215.241 135.992 232.243 203.115 219.366 265.361C183.866 276.111 151.364 295.484 124.487 322.482L53.985 392.855C24.108 359.857 24.733 308.984 56.61 277.236ZM325.247 364.855L234.743 455.352C218.366 471.727 196.866 479.975 175.366 479.975C153.864 479.975 132.364 471.727 115.987 455.352L76.36 415.729L147.114 345.107C185.366 306.859 235.493 287.609 285.62 287.609S385.999 306.859 424.251 345.107L325.247 364.855Z"/></svg>