<svg xmlns="http://www.w3.org/2000/svg" viewBox="0 0 448 512"><!-- Font Awesome Pro 6.0.0-alpha2 by @fontawesome - https://fontawesome.com License - https://fontawesome.com/license (Commercial License) --><path d="M447.33 456.125L393.988 136.125C390.129 112.875 370.225 96 346.647 96H320V48C320 21.531 298.469 0 272 0H176C149.531 0 128 21.531 128 48V96H101.35C77.773 96 57.867 112.875 54.008 136.125L0.666 456.125C-4.211 485.318 18.311 512 48.023 512H399.973C429.416 512 452.252 485.586 447.33 456.125ZM160 48C160 39.188 167.172 32 176 32H272C280.828 32 288 39.188 288 48V96H160V48ZM399.973 480H48.023C35.434 480 31.102 468.18 32.229 461.375L85.568 141.375C86.85 133.625 93.49 128 101.35 128H346.647C354.506 128 361.147 133.625 362.428 141.375L415.77 461.375C416.895 468.166 412.674 480 399.973 480Z"/></svg>