<svg xmlns="http://www.w3.org/2000/svg" viewBox="0 0 512 512"><!-- Font Awesome Pro 6.0.0-alpha2 by @fontawesome - https://fontawesome.com License - https://fontawesome.com/license (Commercial License) --><path d="M496 384H416V112C416 103.156 408.844 96 400 96H176C167.156 96 160 103.156 160 112S167.156 128 176 128H384V496C384 504.844 391.156 512 400 512S416 504.844 416 496V416H496C504.844 416 512 408.844 512 400S504.844 384 496 384ZM336 384H128V16C128 7.156 120.844 0 112 0S96 7.156 96 16V96H16C7.156 96 0 103.156 0 112S7.156 128 16 128H96V400C96 408.844 103.156 416 112 416H336C344.844 416 352 408.844 352 400S344.844 384 336 384Z"/></svg>