<svg xmlns="http://www.w3.org/2000/svg" viewBox="0 0 576 512"><!-- Font Awesome Pro 6.0.0-alpha2 by @fontawesome - https://fontawesome.com License - https://fontawesome.com/license (Commercial License) --><path d="M544 96C526.326 96 512 110.326 512 128C512 135.559 515.008 142.211 519.391 147.688L414.91 231.271C408.955 236.035 401.922 238.291 394.975 238.291C383.365 238.291 371.996 231.994 366.297 220.594L302.166 92.332C312.633 87.07 320 76.512 320 64C320 46.326 305.674 32 288 32S256 46.326 256 64C256 76.512 263.367 87.07 273.834 92.332L209.703 220.594C204.004 231.994 192.635 238.291 181.025 238.291C174.08 238.291 167.045 236.035 161.09 231.271L56.609 147.688C60.992 142.211 64 135.559 64 128C64 110.326 49.674 96 32 96S0 110.326 0 128C0 145.672 14.326 160 32 160C33.99 160 35.721 159.215 37.611 158.867L86.445 427.447C91.979 457.879 118.482 480 149.412 480H426.588C457.518 480 484.021 457.879 489.555 427.447L538.389 158.867C540.279 159.215 542.01 160 544 160C561.674 160 576 145.672 576 128C576 110.326 561.674 96 544 96ZM458.07 421.723C455.303 436.949 442.062 448 426.588 448H149.412C133.938 448 120.697 436.949 117.93 421.723L78.779 206.402L141.098 256.258C152.408 265.307 166.588 270.291 181.025 270.291C205.457 270.291 227.414 256.73 238.324 234.904L288 135.553L337.674 234.9C348.586 256.73 370.543 270.291 394.975 270.291C409.412 270.291 423.592 265.307 434.9 256.258L497.221 206.402L458.07 421.723Z"/></svg>