<svg xmlns="http://www.w3.org/2000/svg" viewBox="0 0 640 512"><!-- Font Awesome Pro 6.0.0-alpha2 by @fontawesome - https://fontawesome.com License - https://fontawesome.com/license (Commercial License) --><path d="M224 16C224 6.861 216.527 0 208 0C203.906 0 199.812 1.562 196.688 4.688L4.688 196.688C1.562 199.812 0 203.906 0 208C0 217.139 7.473 224 16 224C20.094 224 24.188 222.438 27.312 219.312L219.312 27.312C222.438 24.188 224 20.094 224 16ZM224 80C214.861 80 208 87.473 208 96C208 100.094 209.562 104.188 212.688 107.312L260.688 155.312C263.812 158.438 267.906 160 272 160C281.139 160 288 152.527 288 144C288 139.906 286.438 135.812 283.312 132.688L235.312 84.688C232.188 81.562 228.094 80 224 80ZM208 352C217.139 352 224 344.527 224 336C224 331.906 222.438 327.812 219.312 324.688L107.312 212.688C104.188 209.562 100.094 208 96 208C86.861 208 80 215.473 80 224C80 228.094 81.562 232.188 84.688 235.312L196.688 347.312C199.812 350.438 203.906 352 208 352ZM427.312 404.688C424.188 401.562 420.094 400 416 400C406.861 400 400 407.473 400 416C400 420.094 401.562 424.188 404.688 427.312L484.688 507.312C487.812 510.438 491.906 512 496 512C505.139 512 512 504.527 512 496C512 491.906 510.438 487.812 507.312 484.688L427.312 404.688ZM640 208C640 203.906 638.438 199.812 635.312 196.688L443.312 4.688C440.188 1.562 436.094 0 432 0C422.861 0 416 7.473 416 16C416 20.094 417.562 24.188 420.688 27.312L612.688 219.312C615.812 222.438 619.906 224 624 224C633.139 224 640 216.527 640 208ZM544 208C539.906 208 535.812 209.562 532.688 212.688L464 281.375L358.625 176L427.312 107.312C430.438 104.188 432 100.094 432 96C432 86.861 424.527 80 416 80C411.906 80 407.812 81.562 404.688 84.688L290.375 199C279.219 210.156 271.656 224.281 268.5 239.875L241.25 376.125L132.688 484.688C129.562 487.812 128 491.906 128 496C128 505.139 135.473 512 144 512C148.094 512 152.188 510.438 155.312 507.312L263.873 398.752L400.156 371.5C415.719 368.344 429.844 360.781 441 349.625L555.312 235.312C558.438 232.188 560 228.094 560 224C560 214.861 552.527 208 544 208ZM418.375 327C411.688 333.688 403.188 338.25 393.875 340.125L276.406 363.594L299.875 246.156C301.75 236.812 306.312 228.312 313 221.625L336 198.625L441.375 304L418.375 327Z "></path></svg>