<svg xmlns="http://www.w3.org/2000/svg" viewBox="0 0 512 512"><!-- Font Awesome Pro 6.0.0-alpha2 by @fontawesome - https://fontawesome.com License - https://fontawesome.com/license (Commercial License) --><path d="M400 160C391.25 160 384 167.25 384 176S391.25 192 400 192S416 184.75 416 176S408.75 160 400 160ZM488.75 133.25L396.75 107.5L407.869 101.878C420.371 95.557 431.029 86.116 438.813 74.469L452.383 54.162C457.281 46.83 455.322 36.914 448 32C440.629 27.051 430.637 29.055 425.742 36.463L412.398 56.586C407.679 63.703 401.18 69.462 393.546 73.29L351 94.625L317.25 85.125L325.547 74.691C332.315 66.179 336 55.625 336 44.75V16C336 7.199 328.801 0 320 0S304 7.199 304 16V44.75C304 48.383 302.766 51.909 300.501 54.749L283.75 75.75L267.646 71.256C260.688 69.314 255.875 62.974 255.875 55.75V16C255.875 7.199 248.676 0 239.875 0S223.875 7.199 223.875 16V55.761C223.875 77.271 238.173 96.16 258.875 102L337.75 124.25L304 192H96C42.981 192 0 234.981 0 288V288C0 305.673 14.327 320 32 320H32V347.5L20.125 379.25C15.5 391.5 14.75 404.75 17.875 417.25L37.311 478.514C43.636 498.453 62.146 512 83.064 512H98.746C129.941 512 152.848 482.712 145.334 452.436L133.25 403.75L152.625 352H256V464C256 490.51 277.49 512 304 512H336C362.51 512 384 490.51 384 464V320L416 256H464C490.51 256 512 234.51 512 208V164.125C512 149.75 502.375 137.25 488.75 133.25ZM480.125 208H480C480 216.75 472.75 224 464 224H396.25L352 312.375V464C352 472.836 344.836 480 336 480H304C295.164 480 288 472.836 288 464V320H130.375L99.75 401.75L112.262 458.566C116.027 468.996 108.301 480 97.213 480H83.082C76.111 480 69.941 475.486 67.832 468.842L48.75 408.75C47.375 402.75 47.875 396.5 50.125 390.625L64.125 353.375V288H32C32 252.75 60.75 224 96 224H323.75L357.5 156.625C364.369 142.91 380 135.992 394.771 140.131L468.369 160.748C475.32 162.695 480.125 169.031 480.125 176.25V208Z"/></svg>