<svg xmlns="http://www.w3.org/2000/svg" viewBox="0 0 640 512"><!-- Font Awesome Pro 6.0.0-alpha2 by @fontawesome - https://fontawesome.com License - https://fontawesome.com/license (Commercial License) --><path d="M576 32H64C28.652 32 0 60.654 0 96V416C0 451.346 28.652 480 64 480H576C611.348 480 640 451.346 640 416V96C640 60.654 611.348 32 576 32ZM576 64C593.645 64 608 78.355 608 96V336H512V64H576ZM400 224H480V336H400V224ZM480 64V192H400V64H480ZM368 64V336H272V64H368ZM240 336H160V224H240V336ZM240 64V192H160V64H240ZM64 64H128V336H32V96C32 78.355 46.355 64 64 64ZM64 448C46.355 448 32 433.645 32 416V368H304V448H64ZM576 448H336V368H608V416C608 433.645 593.645 448 576 448Z"/></svg>