<svg xmlns="http://www.w3.org/2000/svg" viewBox="0 0 640 512"><!-- Font Awesome Pro 6.0.0-alpha2 by @fontawesome - https://fontawesome.com License - https://fontawesome.com/license (Commercial License) --><path d="M416 32C381.615 32 349.145 40.016 320 53.92C290.855 40.016 258.385 32 224 32C100.484 32 0 132.484 0 256S100.484 480 224 480C258.385 480 290.855 471.984 320 458.08C349.145 471.984 381.615 480 416 480C539.5 480 640 379.516 640 256S539.5 32 416 32ZM390.053 160H249.947C266.814 131.033 290.992 106.816 320 89.977C349.008 106.816 373.186 131.033 390.053 160ZM404.559 320H235.441C230.006 304.773 226.486 288.723 225.088 272H414.912C413.514 288.723 409.994 304.773 404.559 320ZM414.912 240H225.088C226.486 223.277 230.006 207.227 235.441 192H404.559C409.994 207.227 413.514 223.277 414.912 240ZM224 448C118.125 448 32 361.875 32 256S118.125 64 224 64C245.535 64 266.178 67.723 285.52 74.291C229 114.994 192 181.186 192 256S229 397.006 285.52 437.709C266.178 444.277 245.535 448 224 448ZM249.947 352H390.053C373.186 380.967 349.008 405.184 320 422.023C290.992 405.184 266.814 380.967 249.947 352ZM416 448C394.465 448 373.822 444.277 354.48 437.709C411 397.006 448 330.814 448 256S411 114.994 354.48 74.291C373.822 67.723 394.465 64 416 64C521.875 64 608 150.125 608 256S521.875 448 416 448Z"/></svg>