<svg xmlns="http://www.w3.org/2000/svg" viewBox="0 0 640 512"><!-- Font Awesome Pro 6.0.0-alpha2 by @fontawesome - https://fontawesome.com License - https://fontawesome.com/license (Commercial License) --><path d="M592 0H496C469.49 0 448 21.49 448 48V144C448 170.51 469.49 192 496 192H592C618.51 192 640 170.51 640 144V48C640 21.49 618.51 0 592 0ZM608 144C608 152.822 600.822 160 592 160H496C487.178 160 480 152.822 480 144V48C480 39.178 487.178 32 496 32H592C600.822 32 608 39.178 608 48V144ZM368 320H272C245.49 320 224 341.49 224 368V464C224 490.51 245.49 512 272 512H368C394.51 512 416 490.51 416 464V368C416 341.49 394.51 320 368 320ZM384 464C384 472.822 376.822 480 368 480H272C263.178 480 256 472.822 256 464V368C256 359.178 263.178 352 272 352H368C376.822 352 384 359.178 384 368V464ZM400 80H192V48C192 21.49 170.51 0 144 0H48C21.49 0 0 21.49 0 48V144C0 170.51 21.49 192 48 192H144C146.17 192 148.242 191.641 150.336 191.361L210.094 295.938C213.062 301.109 218.469 304 224 304C226.719 304 229.438 303.328 231.938 301.891C239.625 297.516 242.281 287.734 237.906 280.062L178.893 176.789C186.965 168.201 192 156.717 192 144V112H400C408.844 112 416 104.844 416 96S408.844 80 400 80ZM160 144C160 152.822 152.822 160 144 160H48C39.178 160 32 152.822 32 144V48C32 39.178 39.178 32 48 32H144C152.822 32 160 39.178 160 48V144Z"/></svg>