<svg xmlns="http://www.w3.org/2000/svg" viewBox="0 0 576 512"><!-- Font Awesome Pro 6.0.0-alpha2 by @fontawesome - https://fontawesome.com License - https://fontawesome.com/license (Commercial License) --><path d="M32 256C14.326 256 0 270.326 0 288C0 305.672 14.326 320 32 320S64 305.672 64 288C64 270.326 49.674 256 32 256ZM84.352 446.393C71.855 458.889 71.855 479.15 84.352 491.648C96.848 504.145 117.109 504.145 129.607 491.648C142.104 479.15 142.104 458.889 129.607 446.393C117.109 433.896 96.848 433.896 84.352 446.393ZM129.607 129.607C142.104 117.111 142.104 96.85 129.607 84.354C117.109 71.855 96.848 71.855 84.352 84.354C71.855 96.85 71.855 117.111 84.352 129.607C96.848 142.105 117.109 142.105 129.607 129.607ZM288 64C305.672 64 320 49.672 320 32C320 14.326 305.672 0 288 0C270.326 0 256 14.326 256 32C256 49.672 270.326 64 288 64ZM446.391 446.393C433.895 458.889 433.895 479.15 446.391 491.648C458.889 504.145 479.15 504.145 491.646 491.648C504.143 479.15 504.143 458.889 491.646 446.393S458.889 433.896 446.391 446.393ZM174.861 401.14C237.346 463.623 338.652 463.623 401.137 401.138S463.621 237.347 401.137 174.865C338.652 112.378 237.346 112.378 174.861 174.863S112.377 338.654 174.861 401.14ZM197.49 197.49C243.523 151.457 315.885 148.435 366.053 187.322L276.688 276.687C270.434 282.941 270.434 293.062 276.688 299.314C282.939 305.568 293.061 305.568 299.314 299.314L388.68 209.949C427.566 260.117 424.543 332.476 378.51 378.511C328.602 428.417 247.396 428.419 197.49 378.511C147.582 328.605 147.582 247.398 197.49 197.49ZM544 256C526.326 256 512 270.328 512 288C512 305.674 526.326 320 544 320S576 305.674 576 288C576 270.328 561.674 256 544 256ZM446.391 84.354C433.895 96.85 433.895 117.111 446.391 129.607C458.889 142.105 479.15 142.105 491.646 129.607C504.143 117.111 504.143 96.85 491.646 84.354C479.15 71.855 458.889 71.855 446.391 84.354Z"/></svg>