<svg xmlns="http://www.w3.org/2000/svg" viewBox="0 0 512 512"><!-- Font Awesome Pro 6.0.0-alpha2 by @fontawesome - https://fontawesome.com License - https://fontawesome.com/license (Commercial License) --><path d="M512 282.595C512 275.005 509.32 267.379 503.885 261.25L279.774 10.625C273.524 3.5 264.775 0 256.025 0S238.526 3.5 232.276 10.625L8.165 261.25C2.685 267.365 0 274.971 0 282.544C0 291.381 3.655 300.173 10.79 306.5L234.901 504C240.901 509.375 248.526 512 256.025 512C263.525 512 271.149 509.375 277.149 504L501.26 306.5C508.381 300.185 512 291.414 512 282.595ZM256.025 298L180.155 247.375L256.025 70.375L331.896 247.375L256.025 298ZM148.781 239.75L47.788 265L221.027 71.125L148.781 239.75ZM363.269 239.75L291.023 71.125L464.513 265L363.269 239.75ZM49.037 297.625L157.281 270.5L240.026 325.75V466L49.037 297.625ZM272.024 465.875V325.75L354.769 270.5L462.888 297.625L272.024 465.875Z "></path></svg>