<svg xmlns="http://www.w3.org/2000/svg" viewBox="0 0 512 512"><!-- Font Awesome Pro 6.0.0-alpha2 by @fontawesome - https://fontawesome.com License - https://fontawesome.com/license (Commercial License) --><path d="M463.875 116.108L271.875 4.219C267 1.406 261.5 0 256 0S245 1.406 240.125 4.219L48.125 116.108C38.125 121.984 32 132.735 32 144.486V367.514C32 379.265 38.125 390.016 48.125 395.892L240.125 507.781C245 510.594 250.5 512 256 512S267 510.594 271.875 507.781L463.875 395.892C473.875 390.016 480 379.265 480 367.514V144.486C480 132.735 473.875 121.984 463.875 116.108ZM256 57.601L350.75 175.99H161.25L256 57.601ZM156.625 207.994H355.375L256 369.514L156.625 207.994ZM224.875 380.015L87.875 362.888L132.375 229.622L224.875 380.015ZM379.625 229.622L424.125 362.888L287.125 380.015L379.625 229.622ZM386.875 169.865L294.625 54.725L432.625 135.485L386.875 169.865ZM125.125 169.865L79 135.235L217.5 54.475L125.125 169.865ZM109.125 197.868L64 333.259L64.25 164.114L109.125 197.868ZM240 414.144V470.526L117.375 398.767L240 414.144ZM395.625 398.642L272 470.901V414.144L395.625 398.642ZM402.875 197.868L448 163.989L447.75 332.759L402.875 197.868ZM256.125 480.027H256.25H256.125Z "></path></svg>