<svg xmlns="http://www.w3.org/2000/svg" viewBox="0 0 640 512"><!-- Font Awesome Pro 6.0.0-alpha2 by @fontawesome - https://fontawesome.com License - https://fontawesome.com/license (Commercial License) --><path d="M543.999 32C561.644 32 575.999 46.355 575.999 64V352C575.999 353.273 575.417 354.357 575.273 355.592L602.763 377.295C606.11 369.529 607.999 360.992 607.999 352V64C607.999 28.652 579.345 0 543.999 0H124.862L165.394 32H543.999ZM463.999 480H413.505L394.54 416.781L353.019 384H95.999C78.355 384 63.999 369.645 63.999 352V155.818L31.999 130.555V352C31.999 387.348 60.653 416 95.999 416H245.692L226.493 480H175.999C167.163 480 159.999 487.164 159.999 496S167.163 512 175.999 512H463.999C472.835 512 479.999 504.836 479.999 496S472.835 480 463.999 480ZM259.905 480L279.105 416H360.894L380.093 480H259.905ZM633.923 483.436L25.921 3.42C18.984 -2.033 8.921 -0.83 3.437 6.061C-2.032 12.998 -0.845 23.061 6.077 28.545L614.079 508.562C617.017 510.875 620.517 512 623.985 512C628.72 512 633.407 509.906 636.564 505.922C642.032 498.984 640.845 488.92 633.923 483.436Z"/></svg>