<svg xmlns="http://www.w3.org/2000/svg" viewBox="0 0 512 512"><!-- Font Awesome Pro 6.0.0-alpha2 by @fontawesome - https://fontawesome.com License - https://fontawesome.com/license (Commercial License) --><path d="M256 16C123.451 16 16 123.451 16 256S123.451 496 256 496S496 388.549 496 256S388.549 16 256 16ZM256 464C141.309 464 48 370.691 48 256S141.309 48 256 48S464 141.309 464 256S370.691 464 256 464ZM384 208H128C101.531 208 80 229.531 80 256S101.531 304 128 304H384C410.469 304 432 282.469 432 256S410.469 208 384 208ZM384 272H128C119.188 272 112 264.828 112 256S119.188 240 128 240H384C392.812 240 400 247.172 400 256S392.812 272 384 272Z"/></svg>