<svg xmlns="http://www.w3.org/2000/svg" viewBox="0 0 576 512"><!-- Font Awesome Pro 6.0.0-alpha2 by @fontawesome - https://fontawesome.com License - https://fontawesome.com/license (Commercial License) --><path d="M512 96H464L456.875 81.75C452 71.875 439.125 64 428.25 64H336V48C336 39.162 328.836 32 320 32S304 39.162 304 48V224H192C173.125 224 154.75 229.625 139 240H112C85.5 240 64 218.5 64 192C64 183.125 56.875 176 48 176S32 183.125 32 192C32.125 235.125 66.375 270.375 109.5 271.75C100.75 286.375 96.125 303 96 320V464C96 490.4 117.6 512 144 512H176C202.4 512 224 490.4 224 464V384H320V464C320 490.4 341.6 512 368 512H400C426.4 512 448 490.4 448 464V240H480C515.346 240 544 211.346 544 176V128C544 110.326 529.674 96 512 96ZM416 464C416 472.836 408.836 480 400 480H368C359.164 480 352 472.836 352 464V368C352 359.162 344.836 352 336 352H208C199.164 352 192 359.162 192 368V464C192 472.836 184.836 480 176 480H144C135.164 480 128 472.836 128 464V320C128 284.652 156.654 256 192 256H317.375L416 288.885V464ZM512 176C512 193.6 497.6 208 480 208H416V255.133L336 228.459V96H428.25L444.25 128H512V176ZM400 112C391.125 112 384 119.125 384 128S391.125 144 400 144S416 136.875 416 128S408.875 112 400 112Z"/></svg>