<svg xmlns="http://www.w3.org/2000/svg" viewBox="0 0 576 512"><!-- Font Awesome Pro 6.0.0-alpha2 by @fontawesome - https://fontawesome.com License - https://fontawesome.com/license (Commercial License) --><path d="M575.012 330.469C571.934 322.156 562.762 317.953 554.465 320.984L330.529 403.488C319.02 373.434 290.104 352 256 352C250.982 352 246.111 352.592 241.35 353.477L141.766 54.703C130.859 21.984 100.359 0 65.875 0H16C7.156 0 0 7.156 0 16S7.156 32 16 32H65.875C86.563 32 104.859 45.188 111.422 64.828L211.629 365.469C190.158 379.814 176 404.24 176 432C176 476.182 211.818 512 256 512C298.91 512 333.643 478.133 335.625 435.715L565.527 351.016C573.824 347.953 578.059 338.766 575.012 330.469ZM256 480C229.533 480 208 458.467 208 432S229.533 384 256 384S304 405.533 304 432S282.467 480 256 480Z"/></svg>