<svg xmlns="http://www.w3.org/2000/svg" viewBox="0 0 384 512"><!-- Font Awesome Pro 6.0.0-alpha2 by @fontawesome - https://fontawesome.com License - https://fontawesome.com/license (Commercial License) --><path d="M374.627 157.258L306.746 89.375C300.498 83.125 292.309 80 284.119 80S267.74 83.125 261.49 89.375L135.127 215.734L73.209 153.816C66.799 147.406 58.225 144 49.502 144C45.186 144 40.834 144.836 36.689 146.551C24.158 151.742 16 163.949 16 177.516V414.492C16 423.746 19.75 432.121 25.812 438.188C31.877 444.25 40.254 448 49.512 448H286.486C300.049 448 312.256 439.844 317.451 427.312C322.635 414.793 319.766 400.371 310.184 390.793L248.266 328.875L374.627 202.508C387.125 190.016 387.123 169.75 374.627 157.258ZM351.998 179.887L225.639 306.25L203.012 328.875L225.639 351.504L287.557 413.422C287.986 413.852 288.117 414.512 287.885 415.07C287.65 415.641 287.111 416 286.486 416H49.512L48 414.492V177.516C48 176.891 48.359 176.355 48.938 176.113L50.582 176.445L112.5 238.363L135.127 260.988L157.754 238.363L284.117 112.004L351.998 179.887Z"/></svg>