<svg xmlns="http://www.w3.org/2000/svg" viewBox="0 0 384 512"><!-- Font Awesome Pro 6.0.0-alpha2 by @fontawesome - https://fontawesome.com License - https://fontawesome.com/license (Commercial License) --><path d="M314.406 272H256V156.828C256 132.109 235.906 112 211.188 112H172.812C148.094 112 128 132.109 128 156.828V272H69.594C54.594 272 41.062 280.906 35.062 294.75C29.125 308.547 31.938 324.531 42.125 335.297L164.656 468.5C171.531 475.812 181.5 480 192 480S212.469 475.812 219.5 468.344L341.719 335.453C352.062 324.531 354.875 308.547 348.937 294.688C342.938 280.906 329.406 272 314.406 272ZM318.312 313.641L196.094 446.531C194.344 448.344 189.5 448.187 188.062 446.687L65.531 313.484C64 311.844 63.562 309.453 64.438 307.438C65.344 305.344 67.375 304 69.594 304H160V156.828C160 149.75 165.75 144 172.812 144H211.188C218.25 144 224 149.75 224 156.828V304H314.406C316.625 304 318.656 305.344 319.562 307.375C320.438 309.453 320 311.844 318.312 313.641ZM368 32H16C7.156 32 0 39.156 0 48S7.156 64 16 64H368C376.844 64 384 56.844 384 48S376.844 32 368 32Z"/></svg>