<svg xmlns="http://www.w3.org/2000/svg" viewBox="0 0 512 512"><!-- Font Awesome Pro 6.0.0-alpha2 by @fontawesome - https://fontawesome.com License - https://fontawesome.com/license (Commercial License) --><path d="M512 256C512 222.5 486.125 195.25 453.375 192.5C432.875 129 383 79.125 319.5 58.625C316.75 25.875 289.5 0 256 0S195.25 25.875 192.5 58.625C129 79.125 79.125 129 58.625 192.5C25.875 195.25 0 222.5 0 256S25.875 316.75 58.625 319.5C79.125 383 129 432.875 192.5 453.375C195.25 486.125 222.5 512 256 512S316.75 486.125 319.5 453.375C383 432.875 432.875 383 453.375 319.5C486.125 316.75 512 289.5 512 256ZM256 32C273.625 32 288 46.375 288 64S273.625 96 256 96C238.375 96 224 81.625 224 64S238.375 32 256 32ZM32 256C32 238.375 46.375 224 64 224S96 238.375 96 256S81.625 288 64 288S32 273.625 32 256ZM256 480C238.375 480 224 465.625 224 448S238.375 416 256 416C273.625 416 288 430.375 288 448S273.625 480 256 480ZM314.125 421.5C304 399.375 281.875 384 256 384C230.125 384 208 399.375 197.875 421.5C147.75 403.875 108.125 364.25 90.5 314.125C112.625 304 128 281.875 128 256S112.625 208 90.5 197.875C108.125 147.75 147.75 108.125 197.875 90.5C208 112.625 230.125 128 256 128C281.875 128 304 112.625 314.125 90.5C364.25 108.125 403.875 147.75 421.5 197.875C399.375 208 384 230.125 384 256S399.375 304 421.5 314.125C403.875 364.25 364.25 403.875 314.125 421.5ZM448 288C430.375 288 416 273.625 416 256S430.375 224 448 224S480 238.375 480 256S465.625 288 448 288Z"/></svg>