<svg xmlns="http://www.w3.org/2000/svg" viewBox="0 0 320 512"><!-- Font Awesome Pro 6.0.0-alpha2 by @fontawesome - https://fontawesome.com License - https://fontawesome.com/license (Commercial License) --><path d="M186.562 51.361C182.932 38.596 171.479 32 159.99 32C148.74 32 137.457 38.32 133.438 51.361C90.938 189.283 0 226.908 0 324.141C0 410.219 71.562 480 160 480S320 410.219 320 324.141C320 226.361 229.273 190.049 186.562 51.361ZM160 448C89.42 448 32 392.438 32 324.141C32 283.428 52.559 255.07 81.014 215.82C106.684 180.412 138.256 136.867 159.998 73.17C181.848 137.256 213.457 180.715 239.158 216.049C267.512 255.033 288 283.201 288 324.141C288 392.438 230.58 448 160 448ZM128 264C128 250.688 117.312 240 104 240S80 250.688 80 264S90.688 288 104 288S128 277.312 128 264ZM219.312 260.688C213.062 254.438 202.937 254.438 196.688 260.688L100.688 356.688C94.438 362.938 94.438 373.063 100.688 379.312C103.812 382.438 107.906 384 112 384S120.188 382.438 123.312 379.312L219.312 283.312C225.562 277.062 225.562 266.938 219.312 260.688ZM216 352C202.688 352 192 362.688 192 376S202.688 400 216 400S240 389.312 240 376S229.312 352 216 352Z"/></svg>