<svg xmlns="http://www.w3.org/2000/svg" viewBox="0 0 576 512"><!-- Font Awesome Pro 6.0.0-alpha2 by @fontawesome - https://fontawesome.com License - https://fontawesome.com/license (Commercial License) --><path d="M543.999 128C543.999 119.156 536.843 112 527.999 112H485.234C474.406 65.5 433.187 32 384.001 32C326.658 32 280.001 78.656 280.001 136C280.001 156.188 288.079 176.875 304.001 197.594V224C304.001 232.812 296.829 240 288.001 240H273.392C243.876 240 200.533 228.344 183.095 211.031C173.736 201.688 159.751 198.906 147.376 204.062C135.454 209 128.033 219.875 128.033 232.438C128.033 319.781 204.001 390.844 297.392 390.844C306.236 390.844 313.392 383.688 313.392 374.844S306.236 358.844 297.392 358.844C221.658 358.844 160.033 302.125 160.517 233.688C187.126 260.125 242.533 272 273.392 272H288.001C314.47 272 336.001 250.469 336.001 224V192C336.001 188.281 334.704 184.688 332.345 181.812C318.845 165.469 312.001 150.062 312.001 136C312.001 96.312 344.298 64 384.001 64C421.515 64 452.343 92.125 455.702 129.438C456.452 137.688 463.359 144 471.64 144H510.234C502.374 179.562 469.171 208 431.999 208H421.39C415.796 208 410.609 210.906 407.718 215.688C402.968 223.531 400.015 234.594 400.015 244.625C400.015 262.281 409.109 278.938 424.374 289.156C452.484 307.875 467.093 337.938 463.484 369.531C458.593 411.312 411.468 448 362.642 448H271.392C163.079 448 71.972 369.938 64.159 272H88.001C96.845 272 104.001 264.844 104.001 256S96.845 240 88.001 240H64.159C54.972 240 46.191 243.781 40.066 250.375C34.3 256.562 31.472 264.531 32.081 272.844C41.394 389 146.517 480 271.392 480H362.642C427.765 480 488.499 431.094 495.265 373.188C500.281 329.406 480.406 288.031 442.156 262.563C435.812 258.313 432.015 251.594 432.015 244.625C432.015 243.219 432.187 241.594 432.484 240C491.937 239.719 543.999 187.5 543.999 128ZM400.009 128C400.009 119.125 392.884 112 384.013 112C375.138 112 368.013 119.125 368.013 128S375.138 144 384.013 144C392.884 144 400.009 136.875 400.009 128Z"/></svg>