<svg xmlns="http://www.w3.org/2000/svg" viewBox="0 0 512 512"><!-- Font Awesome Pro 6.0.0-alpha2 by @fontawesome - https://fontawesome.com License - https://fontawesome.com/license (Commercial License) --><path d="M512 296C512 286.875 509 278.5 503.875 271.75C509.25 264.5 512.125 255.5 511.875 246.375C510.5 211.125 502 177.125 486.75 145.375C482.25 136 474.25 129 464.75 125.375C465.625 115.25 462.625 105.125 456.25 97.125C435 70.25 408.875 48.25 378.875 31.75C373 28.5 366.5 26.875 359.75 26.875C356.25 26.875 352.875 27.25 349.625 28.125C344.5 19.375 336.125 12.75 326.25 10C303.25 3.375 279.625 0 256 0S208.75 3.375 185.75 10C175.875 12.75 167.5 19.375 162.375 28.125C159.125 27.25 155.75 26.875 152.25 26.875C145.625 26.875 139 28.5 133.125 31.75C103.125 48.25 77 70.25 55.75 97.125C49.375 105.125 46.375 115.25 47.25 125.375C37.75 129 29.75 136 25.25 145.375C10 177.125 1.5 211.125 0.125 246.375C-0.125 255.5 2.75 264.5 8.125 271.75C2.875 278.75 0 287.25 0 296V360C0 369 3 377.25 8 384C3 390.75 0 399 0 408V472C0 494 18 512 40 512H104C126 512 144 494 144 472V408C144 399 141 390.75 136 384C141 377.25 144 369 144 360V296C144 287.125 141.125 278.875 136.125 272.125C140.875 265.875 143.75 258.125 144.125 250.25C144.875 237.625 147.875 225.125 153.125 212.875C155.875 206.625 156.875 200.125 156.375 193.875C162.375 191.5 167.875 187.75 172.125 182.75C179.5 174.5 188 167.25 197.375 161.375C203.125 157.875 207.625 153.125 210.75 147.625C214 148.375 217.25 148.75 220.625 148.75S227.375 148.375 230.625 147.5C240 145.125 248.125 144 256 144S272 145.125 281.375 147.5C284.625 148.375 288 148.75 291.375 148.75S298 148.375 301.25 147.625C304.375 153.125 308.875 157.875 314.625 161.375C324.125 167.25 332.5 174.5 339.875 182.75C344.25 187.75 349.625 191.5 355.625 193.875C355.125 200.125 356.125 206.625 358.875 212.75C364.125 225.125 367.125 237.625 367.875 250.25C368.375 258.5 371.25 266 375.875 272.125C370.75 279 368 287.375 368 296V360C368 369 371 377.25 376 384C371 390.625 368 399 368 408V472C368 494 386 512 408 512H472C494.125 512 512 494 512 472V408C512 399 509 390.625 504 384C509 377.25 512 369 512 360V296ZM112 472C112 476.375 108.375 480 104 480H40C35.625 480 32 476.375 32 472V408C32 403.625 35.625 400 40 400H104C108.375 400 112 403.625 112 408V472ZM112 360C112 364.375 108.375 368 104 368H40C35.625 368 32 364.375 32 360V296C32 291.625 35.625 288 40 288H104C108.375 288 112 291.625 112 296V360ZM123.75 200.125C117.375 215.125 113.125 231.375 112.25 248.375C112 252.625 108.75 256 104.5 256H40.375C35.875 256 32 252.125 32.125 247.5C33.375 216 41.125 186.125 54.125 159.25C55.5 156.375 58.375 154.75 61.375 154.75C62.875 154.75 64.375 155.125 65.75 156L120.875 190.375C124.125 192.5 125.375 196.625 123.75 200.125ZM180.5 134.25C168.375 141.75 157.5 151 148.125 161.75C146.5 163.5 144.25 164.5 142 164.5C140.625 164.5 139.25 164.125 138 163.375L83 129C78.875 126.375 77.75 120.75 80.75 117C99.375 93.625 122.375 74.125 148.5 59.75C149.75 59.125 151 58.875 152.25 58.875C155.5 58.875 158.75 60.75 160 64L183.75 124.625C185.25 128.25 183.75 132.125 180.5 134.25ZM298.875 111.875C297.625 115 294.625 116.75 291.375 116.75C290.75 116.75 290 116.75 289.375 116.5C277.5 113.5 266.75 112 256 112S234.5 113.5 222.75 116.5C222 116.75 221.25 116.75 220.625 116.75C217.375 116.75 214.375 115 213.125 111.875L189.375 51.5C187.75 47.125 190.125 42 194.625 40.75C214.125 35.125 234.75 32 256 32S297.875 35.125 317.375 40.75C322 42 324.375 47.125 322.625 51.5L298.875 111.875ZM374 163.375C372.75 164.125 371.375 164.5 370 164.5C367.75 164.5 365.5 163.5 363.875 161.75C354.5 151 343.625 141.75 331.5 134.25C328.25 132.125 326.75 128.25 328.25 124.625L352 64.125C353.25 60.875 356.5 58.875 359.75 58.875C361 58.875 362.25 59.125 363.5 59.75C389.625 74.25 412.625 93.625 431.25 117C434.25 120.75 433.125 126.5 429 129L374 163.375ZM388.25 200.125C386.625 196.625 387.875 192.5 391.125 190.375L446.25 156C447.5 155.125 449 154.75 450.625 154.75C453.625 154.75 456.5 156.375 457.875 159.25C470.875 186.125 478.625 216 479.875 247.5C480 252.125 476.125 256 471.625 256H407.5C403.25 256 400 252.625 399.75 248.375C398.875 231.375 394.625 215.125 388.25 200.125ZM480 472C480 476.375 476.375 480 472 480H408C403.625 480 400 476.375 400 472V408C400 403.625 403.625 400 408 400H472C476.375 400 480 403.625 480 408V472ZM480 360C480 364.375 476.375 368 472 368H408C403.625 368 400 364.375 400 360V296C400 291.625 403.625 288 408 288H472C476.375 288 480 291.625 480 296V360ZM256 192C247.156 192 240 199.156 240 208V464C240 472.844 247.156 480 256 480S272 472.844 272 464V208C272 199.156 264.844 192 256 192ZM320 224C311.156 224 304 231.156 304 240V464C304 472.844 311.156 480 320 480S336 472.844 336 464V240C336 231.156 328.844 224 320 224ZM192 224C183.156 224 176 231.156 176 240V464C176 472.844 183.156 480 192 480S208 472.844 208 464V240C208 231.156 200.844 224 192 224Z"/></svg>