<svg xmlns="http://www.w3.org/2000/svg" viewBox="0 0 640 512"><!-- Font Awesome Pro 6.0.0-alpha2 by @fontawesome - https://fontawesome.com License - https://fontawesome.com/license (Commercial License) --><path d="M147.322 224C136.96 224 127.161 227.688 119.066 234.562C107.533 229.312 93.763 228.719 84.527 233.281C73.056 237.781 64.226 246.562 59.615 257.844C48.253 259.188 37.439 265.031 29.718 274.375C22.513 283.531 19.06 295.094 19.872 306.781C10.683 313.125 4.04 322.969 1.29 334.625C-1.319 345.969 0.525 357.75 6.322 367.688C0.619 377.344 -1.397 389.281 0.978 401C3.681 412.656 10.245 422.281 19.654 428.625C18.622 440.469 22.044 452.094 29.296 461.062C36.626 470.438 47.206 476.375 58.943 477.844C63.523 489 72.103 497.75 83.136 502.281C94.576 507.063 107.204 506.406 118.566 500.719C126.661 508.031 136.679 512 147.322 512C171.937 512 191.972 491.438 191.972 466.188C191.972 455.875 188.454 447.594 184.548 441.594C189.425 434.062 191.972 425.625 191.972 416.906C191.972 407.969 189.581 399.625 185.048 392.469C189.597 385.219 191.972 376.875 191.972 368S189.597 350.781 185.048 343.531C189.597 336.313 191.972 327.938 191.972 318.969C191.972 310.313 189.425 301.938 184.533 294.375C189.363 286.906 191.972 278.375 191.972 269.813C191.972 244.562 171.937 224 147.322 224ZM156.23 309.844C158.714 312.781 159.964 315.844 159.964 318.969C159.964 322.531 158.917 325.562 156.808 328.031C149.197 337.062 149.212 350.094 156.808 359.031C158.902 361.5 159.964 364.5 159.964 368S158.902 374.5 156.855 376.938C149.212 385.906 149.197 398.938 156.87 408.031C158.917 410.438 159.964 413.438 159.964 416.906C159.964 420.094 158.714 423.219 156.292 426.094C148.65 435.063 148.634 448.094 156.324 457.219C157.98 459.156 159.964 462.281 159.964 466.188C159.964 473.812 154.292 480 147.322 480C143.21 480 140.163 477.406 138.335 475.219C133.646 469.625 126.88 466.656 119.988 466.656C115.345 466.656 110.642 468 106.468 470.781C102.531 473.5 98.781 474.094 95.341 472.719C91.716 471.219 89.076 468.062 87.917 463.844C85.074 453.469 75.556 446.219 64.773 446.219C60.615 446.219 56.958 444.5 54.365 441.156C51.847 438.062 50.925 433.75 51.831 429.406C54.068 418.812 48.878 407.969 39.111 403C34.626 400.75 32.859 396.75 32.265 394.188C31.421 390.063 32.374 385.688 34.689 382.781C41.642 374.125 41.783 361.969 35.001 353.125C32.499 349.844 31.578 345.719 32.453 341.875C33.499 337.5 36.017 334.031 39.283 332.344C48.769 327.594 54.021 316.969 52.05 306.469C51.222 302.062 52.269 297.437 54.63 294.469C57.099 291.469 60.99 289.562 64.913 289.562C76.509 290.781 85.98 282.094 88.667 271.656C89.747 267.594 92.435 264.531 97.247 262.594C98.796 262.094 103.703 262.125 107.376 264.562C117.503 271.062 130.552 269.25 138.288 260.406C140.101 258.406 143.132 256 147.322 256C154.292 256 159.964 262.188 159.964 269.812C159.964 272.812 158.636 276.094 156.245 278.875C148.634 287.906 148.65 300.938 156.23 309.844ZM639.021 335C636.318 323.344 629.753 313.719 620.345 307.375C621.376 295.531 617.954 283.906 610.703 274.938C603.372 265.562 592.792 259.625 581.056 258.156C576.476 247 567.896 238.25 556.863 233.719C545.47 228.969 532.826 229.625 521.433 235.281C513.337 227.969 503.32 224 492.677 224C468.062 224 448.027 244.562 448.027 269.812C448.027 280.125 451.544 288.406 455.451 294.406C450.574 301.938 448.027 310.375 448.027 319.094C448.027 328.031 450.417 336.375 454.951 343.531C450.402 350.781 448.027 359.125 448.027 368S450.402 385.219 454.951 392.469C450.402 399.687 448.027 408.062 448.027 417.031C448.027 425.687 450.574 434.062 455.466 441.625C450.636 449.094 448.027 457.625 448.027 466.187C448.027 491.438 468.062 512 492.677 512C503.038 512 512.837 508.312 520.933 501.438C532.451 506.688 546.189 507.25 555.472 502.719C566.943 498.219 575.773 489.438 580.384 478.156C591.745 476.813 602.56 470.969 610.281 461.625C617.486 452.469 620.939 440.906 620.126 429.219C629.316 422.875 635.958 413.031 638.708 401.375C641.318 390.031 639.474 378.25 633.677 368.313C639.38 358.656 641.396 346.719 639.021 335ZM604.997 382.875C607.499 386.156 608.421 390.281 607.546 394.125C606.499 398.5 603.982 401.969 600.716 403.656C591.23 408.406 585.978 419.031 587.949 429.531C588.777 433.938 587.73 438.563 585.369 441.531C582.837 444.625 578.681 446.563 574.82 446.438C563.896 446.438 554.003 454 551.331 464.344C550.251 468.406 547.564 471.469 542.751 473.406C541.218 473.938 536.312 473.844 532.622 471.438C522.464 464.938 509.4 466.719 501.71 475.594C499.898 477.594 496.867 480 492.677 480C485.706 480 480.035 473.812 480.035 466.188C480.035 463.188 481.363 459.906 483.753 457.125C491.365 448.094 491.349 435.063 483.769 426.156C481.285 423.219 480.035 420.156 480.035 417.031C480.035 413.469 481.081 410.438 483.191 407.969C490.802 398.938 490.786 385.906 483.191 376.969C481.097 374.5 480.035 371.5 480.035 368S481.097 361.5 483.144 359.062C490.787 350.094 490.802 337.062 483.128 327.969C481.081 325.562 480.035 322.562 480.035 319.094C480.035 315.906 481.285 312.781 483.706 309.906C491.349 300.937 491.365 287.906 483.675 278.781C482.019 276.844 480.035 273.719 480.035 269.812C480.035 262.188 485.706 256 492.677 256C496.788 256 499.835 258.594 501.663 260.781C509.525 270.156 523.183 272.125 533.531 265.219C537.484 262.531 541.249 261.938 544.658 263.281C548.283 264.781 550.923 267.938 552.081 272.156C554.925 282.531 564.443 289.781 575.226 289.781C579.384 289.781 583.04 291.5 585.634 294.844C588.152 297.938 589.074 302.25 588.167 306.594C585.931 317.188 591.12 328.031 600.888 333C605.372 335.25 607.14 339.25 607.734 341.812C608.578 345.906 607.64 350.281 605.294 353.25C598.357 361.875 598.232 374.062 604.997 382.875ZM506.859 179.688C508.609 187.031 515.171 192 522.421 192C523.64 192 524.874 191.875 526.109 191.562C534.718 189.531 540.046 180.938 538.015 172.312C514.046 70.875 424.39 0 319.999 0S125.953 70.875 101.984 172.312C99.953 180.938 105.281 189.531 113.89 191.562C122.406 193.719 131.093 188.25 133.14 179.687C153.671 92.719 230.515 32 319.999 32S486.328 92.719 506.859 179.688Z"/></svg>