<svg xmlns="http://www.w3.org/2000/svg" viewBox="0 0 512 512"><!-- Font Awesome Pro 6.0.0-alpha2 by @fontawesome - https://fontawesome.com License - https://fontawesome.com/license (Commercial License) --><path d="M256 16C123.451 16 16 123.451 16 256S123.451 496 256 496S496 388.549 496 256S388.549 16 256 16ZM208.047 458.199C116.436 436.463 48 354.164 48 256C48 247.449 48.678 239.068 49.686 230.785C54.568 237.973 59.297 244.937 62.977 250.375C68.91 259.125 75.812 267 84.41 274.75C95.066 284.5 106.934 292.625 119.527 298.875C133.332 305.875 153.555 316.875 167.844 324.75C172.809 327.5 175.957 332.875 175.957 338.75V370.75C175.957 383.5 181.043 395.625 190.125 404.75C202.719 417.375 209.016 436.375 208.047 444.625V458.199ZM301.047 398.875L277.328 462.91C270.314 463.627 263.199 464 256 464C250.564 464 245.227 463.596 239.895 463.184V446.75C242.316 428.125 230.449 399.75 212.648 382C209.742 379.125 208.047 375 208.047 370.75V338.75C208.047 321.25 198.48 305.125 183.223 296.75C168.813 288.75 148.105 277.5 133.938 270.375C123.887 265.25 114.441 258.75 104.996 250.25C99.062 245 93.855 239 89.375 232.375C81.393 220.59 69.207 202.541 59.563 188.23C84.012 117.586 145.398 64.215 220.604 51.242L265.324 96L250.309 111C241.348 120 240.984 134.5 249.461 144H243.648C237.473 144 231.539 146.375 226.938 150.75L217.008 160.5C209.5 167.75 207.562 179 212.285 188.375L216.281 196.375C209.379 193.625 201.508 193.25 194.242 195.75L163.121 206.125C151.738 209.875 143.988 220.625 143.988 232.625C143.988 243.25 149.922 252.875 159.488 257.625L170.508 263.125C181.285 268.5 193.152 271.5 205.141 272C207.562 274.25 211.437 279.5 213.859 282.875C225.356 298.375 227.781 299.623 236.262 304H306.738C310.977 304 315.094 305.75 318 308.75L331.805 322.375C334.469 325.125 336.043 328.75 336.043 332.625C336.043 340.75 332.773 348.625 326.961 354.25L315.578 365.625C304.48 377.081 305.611 386.455 301.047 398.875ZM314.131 455.574L330.957 410.125C337.398 393.281 333.459 393.005 340.402 386.125L349.605 377C361.23 365.25 368.012 349.125 368.012 332.625C368.012 320.375 363.047 308.375 354.328 299.75L340.645 286C331.805 277.125 319.332 272 306.738 272H245.828C243.891 269.75 241.469 266.375 239.652 263.875C231.418 252.75 222.094 240 208.047 240C197.643 240 190.59 237.332 182.496 233.375L204.414 226L213.738 234.125C218.098 237.875 223.668 240 229.359 240H235.051C243.406 240 251.035 235.75 255.516 228.625C259.875 221.5 260.238 212.75 256.484 205.25L243.527 179.375C247.76 175.162 245.593 176 252.73 176C259.148 176 265.082 173.5 269.684 169L277.676 161C286.758 152 287 137.5 278.645 128L287.969 118.625C294.023 112.625 297.414 104.5 297.414 96S294.023 79.375 287.969 73.375L262.906 48.35C333.029 50.668 394.416 87.711 430.355 142.955L414.512 150.875C408.336 154 403.008 158.625 399.133 164.375L379.637 193.875C370.555 207.25 370.555 224.75 379.637 238.25L397.559 265.125C403.129 273.5 411.484 279.375 421.172 281.75L460.717 291.668C447.072 370.145 389.445 433.594 314.131 455.574ZM428.922 250.75C426.984 250.25 425.289 249.125 424.199 247.375L406.156 220.5C404.34 217.75 404.34 214.25 406.156 211.5L425.773 182.125C426.5 181 427.59 180.125 428.801 179.5L445.672 171.057C457.352 197.027 464 225.727 464 256C464 257.189 463.84 258.342 463.82 259.527L428.922 250.75Z"/></svg>