<svg xmlns="http://www.w3.org/2000/svg" viewBox="0 0 640 512"><!-- Font Awesome Pro 6.0.0-alpha2 by @fontawesome - https://fontawesome.com License - https://fontawesome.com/license (Commercial License) --><path d="M528 32H455.031C437.447 12.502 412.262 0 384 0S330.553 12.502 312.969 32H176C78.969 32 0 110.969 0 208V352C0 360.844 7.156 368 16 368S32 360.844 32 352V208C32 128.594 96.594 64 176 64H293.896C290.311 74.059 288 84.725 288 96C288 137.469 314.812 174 353.281 186.969C358.25 208.188 377.312 224 400 224H432C440.844 224 448 216.844 448 208S440.844 192 432 192H400C391.188 192 384 184.812 384 174.406C384 166.781 378.625 160.25 371.188 158.719C341.531 152.719 320 126.344 320 96C320 60.719 348.719 32 384 32S448 60.719 448 96C448 104.844 455.156 112 464 112S480 104.844 480 96C480 84.725 477.689 74.059 474.104 64H528C572.125 64 608 99.875 608 144V368C608 394.469 586.469 416 560 416S512 394.469 512 368C512 359.156 504.844 352 496 352S480 359.156 480 368C480 412.125 515.875 448 560 448S640 412.125 640 368V144C640 82.25 589.75 32 528 32ZM544 144C544 135.163 536.836 128 528 128S512 135.163 512 144C512 152.836 519.164 160 528 160S544 152.836 544 144ZM576 288C576 279.156 568.844 272 560 272H432C423.156 272 416 279.156 416 288V464C416 472.812 408.812 480 400 480H368C359.188 480 352 472.812 352 464V389.273C364.244 380.631 373.758 370.328 379.062 358.562C382.687 350.531 379.094 341.031 371.031 337.406C363.062 333.781 353.531 337.344 349.875 345.438C341.438 364.125 305.688 384 256 384S170.562 364.125 162.125 345.438C158.469 337.344 148.937 333.781 140.969 337.406C132.906 341.031 129.312 350.531 132.937 358.562C138.242 370.328 147.756 380.631 160 389.273V464C160 472.812 152.812 480 144 480H112C103.188 480 96 472.812 96 464V240C96 231.156 88.844 224 80 224S64 231.156 64 240V464C64 490.469 85.531 512 112 512H144C170.469 512 192 490.469 192 464V405.477C210.896 412.146 232.674 416 256 416S301.104 412.146 320 405.477V464C320 490.469 341.531 512 368 512H400C426.469 512 448 490.469 448 464V304H560C568.844 304 576 296.844 576 288Z"/></svg>