<svg xmlns="http://www.w3.org/2000/svg" viewBox="0 0 512 512"><!-- Font Awesome Pro 6.0.0-alpha2 by @fontawesome - https://fontawesome.com License - https://fontawesome.com/license (Commercial License) --><path d="M256 192C220.654 192 192 220.654 192 256S220.654 320 256 320S320 291.346 320 256S291.346 192 256 192ZM256 288C238.355 288 224 273.645 224 256S238.355 224 256 224S288 238.355 288 256S273.645 288 256 288ZM448 192C412.654 192 384 220.654 384 256S412.654 320 448 320S512 291.346 512 256S483.346 192 448 192ZM448 288C430.355 288 416 273.645 416 256S430.355 224 448 224S480 238.355 480 256S465.645 288 448 288ZM64 192C28.654 192 0 220.654 0 256S28.654 320 64 320S128 291.346 128 256S99.346 192 64 192ZM64 288C46.355 288 32 273.645 32 256S46.355 224 64 224S96 238.355 96 256S81.645 288 64 288Z"/></svg>