<svg xmlns="http://www.w3.org/2000/svg" viewBox="0 0 576 512"><!-- Font Awesome Pro 6.0.0-alpha2 by @fontawesome - https://fontawesome.com License - https://fontawesome.com/license (Commercial License) --><path d="M512 0C476.654 0 448 28.654 448 64S476.654 128 512 128S576 99.346 576 64S547.346 0 512 0ZM512 96C494.355 96 480 81.645 480 64S494.355 32 512 32S544 46.355 544 64S529.645 96 512 96ZM528 164.008H517.334C513.871 164.008 510.502 165.131 507.732 167.207L316.812 310.406C299.812 323.125 276.188 323.125 259.188 310.406L64 164.008V128C64 110.326 78.326 96 96 96H400C408.836 96 416 88.836 416 80C416 71.162 408.836 64 400 64H96C60.654 64 32 92.652 32 128V384C32 419.346 60.654 448 96 448H480C515.346 448 544 419.346 544 384V180.008C544 171.17 536.836 164.008 528 164.008ZM512 384C512 401.645 497.645 416 480 416H96C78.355 416 64 401.645 64 384V203.994L240 336C254.125 346.609 271.062 351.906 288 351.906S321.875 346.609 336 336L512 203.994V384Z"/></svg>