<svg xmlns="http://www.w3.org/2000/svg" viewBox="0 0 640 512"><!-- Font Awesome Pro 6.0.0-alpha2 by @fontawesome - https://fontawesome.com License - https://fontawesome.com/license (Commercial License) --><path d="M633.908 483.438L25.904 3.42C18.998 -2.033 8.935 -0.83 3.435 6.061C-2.033 12.998 -0.846 23.062 6.092 28.547L614.096 508.563C617.033 510.875 620.533 512 624.002 512C628.721 512 633.408 509.906 636.564 505.922C642.033 498.984 640.846 488.922 633.908 483.438ZM272.859 137.234L303.773 161.641C309.074 160.73 314.443 160 320 160C370.775 160 412.045 199.742 415.363 249.74L446.183 274.072C447.029 268.135 448 262.227 448 256.055V256C448 185.348 390.666 128 320 128C303.316 128 287.478 131.422 272.859 137.234ZM320 64C426.516 64 524.316 135.979 575.025 251.348C575.42 252.428 575.949 255.061 576.004 255.791C575.949 256.936 575.418 259.574 575.234 260.152C562.394 289.373 546.547 315.76 528.355 338.947L553.404 358.725C573.465 333.203 590.734 304.422 604.531 273.025C606.437 268.596 608 260.957 608 256C608 251.023 606.437 243.402 604.531 238.973C550.281 115.525 442.937 32 320 32C271.875 32 226.203 44.959 185.101 67.949L212.846 89.854C246.439 73.328 282.605 64 320 64ZM106 163.5C99.094 158 89.047 159.156 83.5 166C77.984 172.906 79.109 182.969 86 188.5L406 444.5C408.953 446.859 412.484 448 415.984 448C420.687 448 425.328 445.938 428.5 442C434.016 435.094 432.891 425.031 426 419.5L106 163.5ZM66 216.297C59.109 210.781 49.047 211.938 43.5 218.797C37.984 225.703 39.109 235.766 46 241.297L334 471.703C336.953 474.062 340.484 475.203 343.984 475.203C348.687 475.203 353.328 473.141 356.5 469.203C362.016 462.297 360.891 452.234 354 446.703L66 216.297ZM58 297.906C51.094 292.406 41.047 293.562 35.5 300.406C29.984 307.312 31.109 317.375 38 322.906L230 476.5C232.953 478.859 236.484 480 239.984 480C244.687 480 249.328 477.938 252.5 474C258.016 467.094 256.891 457.031 250 451.5L58 297.906Z"/></svg>