<svg xmlns="http://www.w3.org/2000/svg" viewBox="0 0 512 512"><!-- Font Awesome Pro 6.0.0-alpha2 by @fontawesome - https://fontawesome.com License - https://fontawesome.com/license (Commercial License) --><path d="M175.955 232C189.293 232 200 221.312 200 208S189.293 184 175.955 184C162.707 184 152 194.688 152 208S162.707 232 175.955 232ZM335.955 232C349.293 232 360 221.312 360 208S349.293 184 335.955 184C322.707 184 312 194.688 312 208S322.707 232 335.955 232ZM256 320C211.559 320 169.781 339.625 141.203 373.75C135.512 380.625 136.359 390.75 143.141 396.25C150.043 402 160.094 401.125 165.664 394.25C188.066 367.5 221.004 352.125 255.879 352.125S323.691 367.5 346.094 394.25C351.422 400.75 361.473 402.25 368.617 396.25C375.398 390.625 376.246 380.5 370.555 373.75C342.219 339.625 300.441 320 256 320ZM256 16C123.451 16 16 123.451 16 256S123.451 496 256 496S496 388.549 496 256S388.549 16 256 16ZM256 464C141.309 464 48 370.691 48 256S141.309 48 256 48S464 141.309 464 256S370.691 464 256 464Z"/></svg>