<svg xmlns="http://www.w3.org/2000/svg" viewBox="0 0 512 512"><!-- Font Awesome Pro 6.0.0-alpha2 by @fontawesome - https://fontawesome.com License - https://fontawesome.com/license (Commercial License) --><path d="M379.152 304.781C348.879 314.531 303.953 320.031 256 320.031S163.121 314.531 132.848 304.781C127.641 303.156 121.828 304.281 117.59 307.906C113.352 311.656 111.414 317.156 112.262 322.781C121.465 377.781 195.453 416.031 256.121 416.031C316.668 416.031 390.656 377.781 399.859 322.781C400.828 317.281 398.77 311.656 394.652 307.906C390.293 304.281 384.359 303.031 379.152 304.781ZM256 384.031C221.004 384.031 178.984 367.781 157.551 343.781C214.949 354.531 297.051 354.531 354.57 343.781C333.016 367.781 290.996 384.031 256 384.031ZM256 16C123.451 16 16 123.451 16 256S123.451 496 256 496S496 388.549 496 256S388.549 16 256 16ZM256 464C141.309 464 48 370.691 48 256S141.309 48 256 48S464 141.309 464 256S370.691 464 256 464ZM175.955 232C189.293 232 200 221.312 200 208S189.293 184 175.955 184C162.707 184 152 194.688 152 208S162.707 232 175.955 232ZM335.955 232C349.293 232 360 221.312 360 208S349.293 184 335.955 184C322.707 184 312 194.688 312 208S322.707 232 335.955 232Z"/></svg>