<svg xmlns="http://www.w3.org/2000/svg" viewBox="0 0 384 512"><!-- Font Awesome Pro 6.0.0-alpha2 by @fontawesome - https://fontawesome.com License - https://fontawesome.com/license (Commercial License) --><path d="M365.256 125.254L258.746 18.746C246.744 6.742 230.465 0 213.49 0H64C28.654 0 0 28.654 0 64V448C0 483.346 28.654 512 64 512H320C355.348 512 384 483.346 384 448V170.51C384 153.535 377.258 137.258 365.256 125.254ZM224 34.076C228.477 35.643 232.666 37.922 236.119 41.375L342.627 147.879C346.08 151.332 348.357 155.523 349.924 160H240C231.188 160 224 152.828 224 144V34.076ZM352 448C352 465.674 337.674 480 320 480H64C46.328 480 32 465.674 32 448V64C32 46.326 46.328 32 64 32H192V144C192 170.51 213.49 192 240 192H352V448ZM144 128H80C71.164 128 64 135.164 64 144S71.164 160 80 160H144C152.838 160 160 152.836 160 144S152.838 128 144 128ZM144 64H80C71.164 64 64 71.164 64 80S71.164 96 80 96H144C152.838 96 160 88.836 160 80S152.838 64 144 64ZM144 192H80C71.164 192 64 199.164 64 208S71.164 224 80 224H144C152.838 224 160 216.836 160 208S152.838 192 144 192ZM144 256H80C71.156 256 64 263.156 64 272V320C64 346.469 85.531 368 112 368S160 346.469 160 320V272C160 263.156 152.844 256 144 256ZM128 320C128 328.828 120.812 336 112 336S96 328.828 96 320V288H128V320Z"/></svg>