<svg xmlns="http://www.w3.org/2000/svg" viewBox="0 0 384 512"><!-- Font Awesome Pro 6.0.0-alpha2 by @fontawesome - https://fontawesome.com License - https://fontawesome.com/license (Commercial License) --><path d="M365.256 125.254L258.746 18.746C246.744 6.742 230.465 0 213.49 0H64C28.654 0 0 28.656 0 64V448C0 483.344 28.654 512 64 512H320C355.348 512 384 483.344 384 448V170.508C384 153.535 377.258 137.258 365.256 125.254ZM224 34.078C228.477 35.641 232.666 37.922 236.119 41.375L342.627 147.879C346.08 151.332 348.357 155.523 349.924 160H240C231.188 160 224 152.828 224 144V34.078ZM352 448C352 465.645 337.645 480 320 480H64C46.355 480 32 465.645 32 448V64C32 46.355 46.355 32 64 32H192V144C192 170.469 213.531 192 240 192H352V448ZM80 304C80 356.938 123.062 400 176 400C196.699 400 215.762 393.266 231.457 382.082L292.687 443.312C295.812 446.438 299.906 448 304 448S312.188 446.438 315.312 443.312C321.562 437.062 321.562 426.937 315.312 420.688L254.082 359.457C265.266 343.762 272 324.699 272 304C272 251.062 228.938 208 176 208S80 251.062 80 304ZM240 304C240 339.281 211.281 368 176 368S112 339.281 112 304S140.719 240 176 240S240 268.719 240 304Z"/></svg>