<svg xmlns="http://www.w3.org/2000/svg" viewBox="0 0 384 512"><!-- Font Awesome Pro 6.0.0-alpha2 by @fontawesome - https://fontawesome.com License - https://fontawesome.com/license (Commercial License) --><path d="M365.256 125.254L258.746 18.746C246.744 6.742 230.465 0 213.49 0H64C28.654 0 0 28.654 0 64V448C0 483.346 28.654 512 64 512H320C355.348 512 384 483.346 384 448V170.51C384 153.535 377.258 137.258 365.256 125.254ZM224 34.076C228.477 35.643 232.666 37.922 236.119 41.375L342.627 147.879C346.08 151.332 348.357 155.523 349.924 160H240C231.188 160 224 152.828 224 144V34.076ZM352 448C352 465.645 337.645 480 320 480H64C46.355 480 32 465.645 32 448V64C32 46.355 46.355 32 64 32H192V144C192 170.469 213.531 192 240 192H352V448ZM208 224C208 215.156 200.844 208 192 208S176 215.156 176 224V272H128C119.156 272 112 279.156 112 288S119.156 304 128 304H176V352C176 360.844 183.156 368 192 368S208 360.844 208 352V304H256C264.844 304 272 296.844 272 288S264.844 272 256 272H208V224ZM256 400H128C119.156 400 112 407.156 112 416S119.156 432 128 432H256C264.844 432 272 424.844 272 416S264.844 400 256 400Z"/></svg>