<svg xmlns="http://www.w3.org/2000/svg" viewBox="0 0 576 512"><!-- Font Awesome Pro 6.0.0-alpha2 by @fontawesome - https://fontawesome.com License - https://fontawesome.com/license (Commercial License) --><path d="M464 448H96C60.654 448 32 419.346 32 384V112C32 103.164 24.836 96 16 96S0 103.164 0 112V384C0 437.02 42.98 480 96 480H464C472.836 480 480 472.836 480 464S472.836 448 464 448ZM512 32H160C124.654 32 96 60.654 96 96V320C96 355.346 124.654 384 160 384H512C547.348 384 576 355.346 576 320V96C576 60.654 547.348 32 512 32ZM192 352H160C142.355 352 128 337.645 128 320V288H192V352ZM192 256H128V160H192V256ZM192 128H128V96C128 78.355 142.355 64 160 64H192V128ZM448 352H224V224H448V352ZM448 192H224V64H448V192ZM544 320C544 337.645 529.645 352 512 352H480V288H544V320ZM544 256H480V160H544V256ZM544 128H480V64H512C529.645 64 544 78.355 544 96V128Z"/></svg>