<svg xmlns="http://www.w3.org/2000/svg" viewBox="0 0 640 512"><!-- Font Awesome Pro 6.0.0-alpha2 by @fontawesome - https://fontawesome.com License - https://fontawesome.com/license (Commercial License) --><path d="M352.001 440.607L288.001 395.82V312.279L256.001 287.016V400C256.001 407.828 259.814 415.172 266.251 419.656L346.251 475.641C350.536 478.639 355.275 480 359.907 480C372.341 480 384.001 470.201 384.001 455.984V388.072L352.001 362.807V440.607ZM543.3 64L543.993 63.758L399.901 237.518L425.025 257.354L568.626 84.186C585.966 63.275 570.788 32 543.3 32H139.587L180.118 64H543.3ZM633.925 483.436L25.921 3.42C18.984 -2.033 8.921 -0.83 3.437 6.061C-2.032 12.998 -0.845 23.061 6.077 28.545L614.081 508.562C617.019 510.875 620.519 512 623.987 512C628.722 512 633.409 509.906 636.566 505.922C642.034 498.984 640.847 488.92 633.925 483.436Z"/></svg>