<svg xmlns="http://www.w3.org/2000/svg" viewBox="0 0 576 512"><!-- Font Awesome Pro 6.0.0-alpha2 by @fontawesome - https://fontawesome.com License - https://fontawesome.com/license (Commercial License) --><path d="M224 363.82V263.279L216.633 254.395L32.701 32H479.299L479.992 31.758L358.631 178.105C353.358 184.465 353.793 193.791 359.633 199.633H359.635C366.297 206.297 377.248 205.787 383.264 198.533L504.625 52.186C521.965 31.275 506.787 0 479.299 0H32.701C5.213 0 -9.965 31.275 7.375 52.186L192 274.822V368C192 375.828 195.813 383.172 202.25 387.656L230.826 407.654C241.432 415.074 256 407.488 256 394.545C256 389.322 253.451 384.43 249.174 381.436L224 363.82ZM432.002 224C352.463 224 288 288.463 288 368S352.463 512 432.002 512C511.537 512 576 447.537 576 368S511.537 224 432.002 224ZM432.002 480C370.244 480 320 429.758 320 368S370.244 256 432.002 256C493.758 256 544 306.242 544 368S493.758 480 432.002 480ZM436.377 352.594C422.137 348.459 409.365 345.896 410.908 336.703C412.283 328.813 426.19 326.766 439.033 328.75C444.033 329.547 449.533 331.266 454.752 333.062C463.127 336 472.19 331.562 475.127 323.203C478.002 314.844 473.596 305.734 465.252 302.844C459.555 300.855 453.68 299.402 448.033 298.223V288C448.033 279.156 440.877 272 432.033 272S416.033 279.156 416.033 288V297.418C396.283 301.203 382.502 313.189 379.408 331.234C373.127 367.406 407.752 377.562 422.533 381.906C440.805 387.184 454.748 389.664 453.065 399.297C451.721 407.219 437.971 409.312 424.846 407.219C419.955 406.484 416.207 405.4 400.002 399.594C391.783 396.703 382.533 401 379.565 409.328C376.627 417.656 380.971 426.797 389.315 429.75C396.867 432.475 406.217 435.891 416.033 437.916V448C416.033 456.844 423.19 464 432.033 464S448.033 456.844 448.033 448V438.223C467.594 434.369 481.518 422.719 484.627 404.75C490.94 368.188 456.783 358.422 436.377 352.594Z"/></svg>