<svg xmlns="http://www.w3.org/2000/svg" viewBox="0 0 384 512"><!-- Font Awesome Pro 6.0.0-alpha2 by @fontawesome - https://fontawesome.com License - https://fontawesome.com/license (Commercial License) --><path d="M120 328C120 367.764 152.236 400 192 400C231.766 400 264 367.764 264 328C264 288.234 231.766 256 192 256C152.236 256 120 288.234 120 328ZM232 328C232 350.055 214.057 368 192 368S152 350.055 152 328C152 305.943 169.943 288 192 288S232 305.943 232 328ZM320 240V224C320 215.162 312.836 208 304 208S288 215.162 288 224V480H96V224C96 215.162 88.836 208 80 208S64 215.162 64 224V240C37.531 240 16 261.531 16 288V352C16 378.469 37.531 400 64 400V480H48C39.164 480 32 487.162 32 496C32 504.836 39.164 512 48 512H336C344.836 512 352 504.836 352 496C352 487.162 344.836 480 336 480H320V400C346.469 400 368 378.469 368 352V288C368 261.531 346.469 240 320 240ZM64 368C55.172 368 48 360.812 48 352V288C48 279.172 55.172 272 64 272V368ZM336 352C336 360.812 328.828 368 320 368V272C328.828 272 336 279.172 336 288V352ZM48 176H336C344.836 176 352 168.836 352 160C352 151.162 344.836 144 336 144H318.387C311.1 86.244 265.756 40.9 208 33.613V16C208 7.156 200.844 0 192 0S176 7.156 176 16V33.613C118.244 40.9 72.9 86.244 65.613 144H48C39.164 144 32 151.162 32 160C32 168.836 39.164 176 48 176ZM192 64C239.484 64 279.027 98.654 286.666 144H97.334C104.973 98.654 144.516 64 192 64Z"/></svg>