<svg xmlns="http://www.w3.org/2000/svg" viewBox="0 0 640 512"><!-- Font Awesome Pro 6.0.0-alpha2 by @fontawesome - https://fontawesome.com License - https://fontawesome.com/license (Commercial License) --><path d="M166.594 256C168.188 256 169.828 255.75 171.438 255.25C179.859 252.594 184.516 243.594 181.844 235.156C177.969 222.938 176 210.5 176 198.188C176 163.969 212.375 97.219 280.062 37.125C301.844 56.375 321.828 77.188 338.359 97.844C341.297 101.5 345.703 103.688 350.391 103.844C355.141 104.125 359.609 102.062 362.75 98.562C371.5 88.844 380.969 79.406 391 70.344C435.891 112.781 464 172.5 464 197.969C464 210.25 462.062 222.75 458.219 235.187C455.625 243.625 460.359 252.594 468.797 255.187C477.219 257.812 486.187 253.062 488.812 244.625C493.578 229.125 496 213.438 496 197.969C496 159.187 457.141 83.469 401.375 36.75C395.438 31.812 386.75 31.781 380.813 36.781C370.578 45.406 360.797 54.438 351.594 63.75C333.578 43 312.656 22.5 290.328 3.75C284.391 -1.25 275.703 -1.25 269.766 3.75C195.719 65.844 144 145.781 144 198.188C144 213.781 146.469 229.469 151.344 244.844C153.5 251.656 159.797 256 166.594 256ZM396.203 239.781C404.828 241.344 413.141 235.25 414.547 226.531C418.141 204.156 414.953 180.719 405.531 160.406C403.344 155.75 400.828 150.75 398.203 145.781C395.672 140.969 390.875 137.75 385.469 137.281C379.813 136.813 374.766 139.094 371.422 143.375L348.031 173.406C330.641 148.406 301.516 106.625 298.297 102.344C295.266 98.344 290.547 96 285.531 96H285.453C280.406 96.031 275.672 98.438 272.672 102.469C243.266 142.188 224 170.719 224 204.125C224 212.156 224.703 219.75 226.031 226.906C227.453 234.625 234.188 240 241.75 240C242.719 240 243.688 239.906 244.672 239.719C253.359 238.125 259.109 229.781 257.5 221.094C256.516 215.75 256 210.094 256 204.125C256 185.969 265.172 168.062 285.359 139.469C298.453 158.187 318.984 187.656 334.156 209.5C337.062 213.688 341.781 216.219 346.859 216.375C352.359 216.75 356.797 214.219 359.922 210.219L380.375 183.969C384.047 195.938 384.969 208.906 382.953 221.469C381.547 230.188 387.484 238.406 396.203 239.781ZM528 288C495.203 288 464.438 302.625 443.469 326.875C418 283.531 371.469 256 320 256S222 283.531 196.531 326.875C175.562 302.625 144.797 288 112 288C50.25 288 0 338.25 0 400S50.25 512 112 512H528C589.75 512 640 461.75 640 400S589.75 288 528 288ZM528 480H112C67.891 480 32 444.125 32 400S67.891 320 112 320C142.953 320 171.406 338.312 184.484 366.656C187.25 372.656 193.578 376.688 199.906 375.938C206.469 375.562 212.141 371.219 214.203 365C229.453 318.938 271.969 288 320 288S410.547 318.938 425.797 365C427.859 371.219 433.531 375.562 440.094 375.938C446.641 376.688 452.766 372.656 455.516 366.656C468.594 338.312 497.047 320 528 320C572.109 320 608 355.875 608 400S572.109 480 528 480Z"/></svg>