<svg xmlns="http://www.w3.org/2000/svg" viewBox="0 0 448 512"><!-- Font Awesome Pro 6.0.0-alpha2 by @fontawesome - https://fontawesome.com License - https://fontawesome.com/license (Commercial License) --><path d="M319.965 169V79.984C319.965 71.156 312.809 64 303.98 64C295.154 64 287.998 71.152 287.994 79.979L287.965 169C287.961 180.73 294.334 191.568 304.672 197.109C362.799 228.27 399.658 288.824 399.766 352.055C369.998 352.207 330.936 349.637 283.688 322.188C211.045 279.984 131.742 277.338 52.668 313.598C63.889 263.992 96.123 220.91 142.879 196.447C153.414 190.938 159.982 180.014 159.984 168.125L159.998 79.986C159.998 71.158 152.842 64 144.012 64H143.969C135.141 64 127.984 71.156 127.984 79.984V168.125C61.617 202.875 16 271.875 16 352C16 405.75 36.375 454.75 69.992 491.75C81.867 504.875 99.117 512 116.988 512H330.961C348.33 512 365.369 505.379 377.125 492.592C410.15 456.666 430.686 409.086 431.953 356.625C433.703 276.75 387.207 205.125 319.965 169ZM354.643 469.754C348.887 476.17 340.033 480 330.961 480H116.988C107.791 480 99.311 476.457 93.676 470.23C64.221 437.812 48 395.824 48 352C48 351.938 48.014 351.877 48.014 351.814C124.209 310.406 198.059 309.416 267.625 349.875C320.324 380.465 364.67 383.746 396.771 383.951C390.842 415.729 376.512 445.506 354.643 469.754ZM112 32H336C344.844 32 352 24.844 352 16S344.844 0 336 0H112C103.156 0 96 7.156 96 16S103.156 32 112 32Z"/></svg>