<svg xmlns="http://www.w3.org/2000/svg" viewBox="0 0 640 512"><!-- Font Awesome Pro 6.0.0-alpha2 by @fontawesome - https://fontawesome.com License - https://fontawesome.com/license (Commercial License) --><path d="M288 208H256C229.5 208 208 229.5 208 256S229.5 304 256 304H288C314.5 304 336 282.5 336 256S314.5 208 288 208ZM288 272H256C247.125 272 240 264.875 240 256C240 247.125 247.125 240 256 240H288C296.875 240 304 247.125 304 256C304 264.875 296.875 272 288 272ZM608 96H576C517 96 459.5 113 409.375 144H64C28.625 144 0 172.625 0 208V304C0 339.375 28.625 368 64 368H409.375C459.5 399 517 416 576 416H608C625.625 416 640 401.625 640 384V128C640 110.375 625.625 96 608 96ZM512 376.5C481.625 369.25 452.75 357.25 426.25 340.75L418.5 336H64C46.375 336 32 321.625 32 304V208C32 190.375 46.375 176 64 176H418.5L426.25 171.25C452.75 154.75 481.625 142.75 512 135.5V376.5ZM608 384H576C565.25 384 554.625 383.375 544 382.125V129.875C554.625 128.625 565.25 128 576 128H608V384Z"/></svg>