<svg xmlns="http://www.w3.org/2000/svg" viewBox="0 0 448 512"><!-- Font Awesome Pro 6.0.0-alpha2 by @fontawesome - https://fontawesome.com License - https://fontawesome.com/license (Commercial License) --><path d="M350.062 55.438C334.938 40.328 314.875 32 293.5 32H80C35.875 32 0 67.891 0 112V400C0 444.109 35.875 480 80 480H368C412.125 480 448 444.109 448 400V186.516C448 165.141 439.688 145.047 424.562 129.938L350.062 55.438ZM96 64H288V160H96V64ZM416 400C416 426.469 394.469 448 368 448H80C53.531 448 32 426.469 32 400V112C32 91.168 45.416 73.574 64 66.947V160C64 177.672 78.326 192 96 192H288C305.674 192 320 177.672 320 160V72.02C322.664 73.777 325.166 75.791 327.438 78.063L401.938 152.563C411 161.641 416 173.688 416 186.516V400ZM224 240C179.875 240 144 275.891 144 320S179.875 400 224 400S304 364.109 304 320S268.125 240 224 240ZM224 368C197.531 368 176 346.469 176 320S197.531 272 224 272S272 293.531 272 320S250.469 368 224 368Z"/></svg>