<svg xmlns="http://www.w3.org/2000/svg" viewBox="0 0 512 512"><!-- Font Awesome Pro 6.0.0-alpha2 by @fontawesome - https://fontawesome.com License - https://fontawesome.com/license (Commercial License) --><path d="M461.5 256C492.25 229.25 512 190.25 512 146.25C512 65.5 446.5 0 365.75 0C321.75 0 282.75 19.75 256 50.5C229.25 19.75 190.25 0 146.25 0C65.5 0 0 65.5 0 146.25C0 190.25 19.75 229.25 50.5 256C19.75 282.75 0 321.75 0 365.75C0 446.5 65.5 512 146.25 512C190.25 512 229.25 492.25 256 461.5C282.75 492.25 321.75 512 365.75 512C446.5 512 512 446.5 512 365.75C512 321.75 492.25 282.75 461.5 256ZM365.75 480C332.75 480 302.375 466.001 280.125 440.5L256 412.875L231.875 440.5C209.625 466.001 179.25 480 146.25 480C83.25 480 32 428.75 32 365.75C32 332.75 46 302.375 71.5 280.125L99.125 256L71.5 231.875C46 209.625 32 179.25 32 146.25C32 83.25 83.25 32 146.25 32C179.25 32 209.625 46.001 231.875 71.5L256 99.125L280.125 71.5C302.375 46.001 332.75 32 365.75 32C428.75 32 480 83.25 480 146.25C480 179.25 466 209.625 440.5 231.875L412.875 256L440.5 280.125C466 302.375 480 332.75 480 365.75C480 428.75 428.75 480 365.75 480ZM256 160C203.125 160 160 203.125 160 256S203.125 352 256 352S352 308.875 352 256S308.875 160 256 160ZM256 320C220.75 320 192 291.25 192 256S220.75 192 256 192S320 220.75 320 256S291.25 320 256 320Z"/></svg>