<svg xmlns="http://www.w3.org/2000/svg" viewBox="0 0 576 512"><!-- Font Awesome Pro 6.0.0-alpha2 by @fontawesome - https://fontawesome.com License - https://fontawesome.com/license (Commercial License) --><path d="M528 32H432L414.059 14.059C405.057 5.057 392.848 0 380.117 0H336C309.49 0 288 21.49 288 48V176C288 202.51 309.49 224 336 224H528C554.51 224 576 202.51 576 176V80C576 53.49 554.51 32 528 32ZM544 176C544 184.822 536.822 192 528 192H336C327.178 192 320 184.822 320 176V48C320 39.178 327.178 32 336 32H380.117C384.391 32 388.41 33.664 391.432 36.686L418.746 64H528C536.822 64 544 71.178 544 80V176ZM528 320H432L414.059 302.059C405.057 293.057 392.848 288 380.117 288H336C309.49 288 288 309.49 288 336V464C288 490.51 309.49 512 336 512H528C554.51 512 576 490.51 576 464V368C576 341.49 554.51 320 528 320ZM544 464C544 472.822 536.822 480 528 480H336C327.178 480 320 472.822 320 464V336C320 327.178 327.178 320 336 320H380.117C384.391 320 388.41 321.664 391.432 324.686L418.746 352H528C536.822 352 544 359.178 544 368V464ZM240 128C248.844 128 256 120.844 256 112S248.844 96 240 96H32V16C32 7.156 24.844 0 16 0S0 7.156 0 16V368C0 394.469 21.531 416 48 416H240C248.844 416 256 408.844 256 400S248.844 384 240 384H48C39.172 384 32 376.828 32 368V128H240Z"/></svg>