<svg xmlns="http://www.w3.org/2000/svg" viewBox="0 0 448 512"><!-- Font Awesome Pro 6.0.0-alpha2 by @fontawesome - https://fontawesome.com License - https://fontawesome.com/license (Commercial License) --><path d="M448 48V384C384.906 406.535 365.664 416 328.531 416C265.711 416 241.93 384 179.203 384C153.033 384 133.881 389.429 115.969 395.813C106.222 399.287 96 392.057 96 381.71V381.71C96 375.451 99.891 369.86 105.753 367.666C126.801 359.79 147.966 352 179.203 352C241.93 352 265.711 384 328.531 384C358.422 384 377.094 377.725 416 363.578V91.578C377.094 105.725 358.422 112 328.531 112C265.711 112 241.93 80 179.203 80C116.328 80 94.828 112 32 112V464C32 472.836 24.836 480 16 480S0 472.836 0 464V48C0 39.162 7.164 32 16 32S32 39.162 32 48V80C94.828 80 116.328 48 179.203 48C241.93 48 265.711 80 328.531 80C365.664 80 384.906 70.535 448 48Z"/></svg>