<svg xmlns="http://www.w3.org/2000/svg" viewBox="0 0 640 512"><!-- Font Awesome Pro 6.0.0-alpha2 by @fontawesome - https://fontawesome.com License - https://fontawesome.com/license (Commercial License) --><path d="M416 263.094C416 256.156 414.453 249.141 411.5 242.797L311.125 27.688C303.25 10.875 286.188 0 267.625 0H176C149.531 0 128 21.531 128 48V160H48C21.531 160 0 181.531 0 208V416C0 469.02 42.98 512 96 512S192 469.02 192 416H256C256 469.02 298.98 512 352 512S448 469.02 448 416C448 387.68 435.506 362.486 416 344.914V263.094ZM160 48C160 39.172 167.172 32 176 32H267.625C273.812 32 279.5 35.625 282.125 41.234L382.338 256H262.625L180.688 174.062C174.857 168.232 167.715 164.295 160 162.078V48ZM96 480C60.711 480 32 451.289 32 416S60.711 352 96 352S160 380.711 160 416S131.289 480 96 480ZM261.879 384H186.121C172.896 346.799 137.738 320 96 320C71.301 320 49.012 329.59 32 344.914V208C32 199.172 39.172 192 48 192H146.75C150.953 192 155.078 193.703 158.062 196.688L249.375 288H384V325.879C373.945 322.305 363.281 320 352 320C310.262 320 275.104 346.799 261.879 384ZM352 480C316.711 480 288 451.289 288 416S316.711 352 352 352S416 380.711 416 416S387.289 480 352 480ZM624 416H512V16C512 7.156 504.844 0 496 0S480 7.156 480 16V432C480 440.844 487.156 448 496 448H624C632.844 448 640 440.844 640 432S632.844 416 624 416Z"/></svg>