<svg xmlns="http://www.w3.org/2000/svg" viewBox="0 0 512 512"><!-- Font Awesome Pro 6.0.0-alpha2 by @fontawesome - https://fontawesome.com License - https://fontawesome.com/license (Commercial License) --><path d="M181.844 220.938C188.625 226.531 198.719 225.562 204.375 218.734C209.969 211.906 208.969 201.828 202.156 196.219L49.531 70.875C44.031 66.344 37.375 64 30.625 64C14.5 64 0 77.441 0 96.031V415.969C0 434.559 14.5 448 30.625 448C37.375 448 44.031 445.656 49.531 441.125L202.156 315.781C208.969 310.172 209.969 300.094 204.375 293.266C198.719 286.438 188.625 285.469 181.844 291.062L32 416.406V95.594L181.844 220.938ZM496 64C487.156 64 480 71.156 480 80V214.162L305.531 70.875C300.031 66.344 293.375 64 286.625 64C276.277 64 256 72.125 256 96.031V415.969C256 439.875 276.277 448 286.625 448C293.375 448 300.031 445.656 305.531 441.125L480 297.838V432C480 440.844 487.156 448 496 448S512 440.844 512 432V80C512 71.156 504.844 64 496 64ZM288 416.406V95.594L479.479 256L288 416.406Z"/></svg>