<svg xmlns="http://www.w3.org/2000/svg" viewBox="0 0 320 512"><!-- Font Awesome Pro 6.0.0-alpha2 by @fontawesome - https://fontawesome.com License - https://fontawesome.com/license (Commercial License) --><path d="M320 48C320 56.844 312.844 64 304 64H96C87.188 64 80 71.172 80 80V192H272C280.844 192 288 199.156 288 208S280.844 224 272 224H80V320H208C216.844 320 224 327.156 224 336S216.844 352 208 352H80V462.422C80 471.266 72.844 478.422 64 478.422S48 471.266 48 462.422V352H16C7.156 352 0 344.844 0 336S7.156 320 16 320H48V80C48 53.531 69.531 32 96 32H304C312.844 32 320 39.156 320 48Z"/></svg>