<svg xmlns="http://www.w3.org/2000/svg" viewBox="0 0 384 512"><!-- Font Awesome Pro 6.0.0-alpha2 by @fontawesome - https://fontawesome.com License - https://fontawesome.com/license (Commercial License) --><path d="M156.129 272.01C164.971 272.01 172.127 264.854 172.127 256.01L172.096 32.051L204.125 47.986V256.01C204.125 264.854 211.281 272.01 220.125 272.01S236.125 264.854 236.125 256.01V47.986C236.125 35.768 229.063 24.52 218.406 19.426L186.549 3.504C176.674 -1.574 164.674 -1.09 155.473 4.676C146.004 10.41 140.129 20.863 140.129 31.988V256.01C140.129 264.854 147.285 272.01 156.129 272.01ZM263.063 63.189L297.016 74.518L268.609 188.137C266.453 196.699 271.672 205.387 280.25 207.527C281.547 207.855 282.859 208.012 284.141 208.012C291.313 208.012 297.828 203.168 299.641 195.887L331.641 67.893C333.672 59.783 329.109 51.486 321.188 48.846L273.188 32.846C264.703 30.051 255.75 34.58 252.953 42.955C250.156 51.346 254.688 60.408 263.063 63.189ZM92.113 208.012C93.035 208.012 93.973 207.934 94.91 207.762C103.613 206.23 109.426 197.934 107.879 189.23L85.848 64.314L116.082 47.002C123.754 42.611 126.41 32.83 122.02 25.16C117.613 17.52 107.895 14.848 100.176 19.223L60.176 42.127C54.316 45.486 51.207 52.158 52.379 58.799L76.379 194.793C77.738 202.559 84.488 208.012 92.113 208.012ZM368.002 224H336.002C330.971 224 326.221 226.375 323.205 230.391L315.268 240.984C291.908 272.125 257.891 292.797 219.5 299.203C201.422 302.203 183.156 301.906 164.625 298.203C135.359 292.344 108.732 278.094 87.623 257L59.311 228.688C56.311 225.688 52.248 224 47.998 224H15.998C11.076 224 6.42 226.266 3.389 230.156C0.357 234.031 -0.721 239.094 0.482 243.875L64.482 499.875C66.264 507 72.654 512 79.998 512H304.002C311.346 512 317.736 507 319.518 499.875L383.518 243.875C384.721 239.094 383.643 234.031 380.611 230.156C377.58 226.266 372.924 224 368.002 224ZM291.502 480H92.498L36.498 256H41.373L64.998 279.625C90.576 305.203 122.859 322.484 158.906 329.703C180.688 334.047 202.844 334.375 224.75 330.766C271.313 323 312.549 297.937 340.861 260.187L344.002 256H347.502L291.502 480ZM371.363 80.346C362.721 78.643 354.418 84.141 352.656 92.781L336.328 172.764C334.566 181.42 340.07 189.887 348.637 191.668C349.719 191.887 350.801 191.996 351.852 191.996C359.211 191.996 365.799 186.793 367.344 179.232L383.672 99.25C385.434 90.594 379.93 82.127 371.363 80.346ZM32.488 191.996C33.551 191.996 34.645 191.887 35.738 191.668C44.395 189.887 49.957 181.42 48.176 172.764L31.676 92.781C29.895 84.141 21.504 78.643 12.77 80.346C4.113 82.127 -1.449 90.594 0.332 99.25L16.832 179.232C18.395 186.793 25.051 191.996 32.488 191.996Z"/></svg>