<svg xmlns="http://www.w3.org/2000/svg" viewBox="0 0 576 512"><!-- Font Awesome Pro 6.0.0-alpha2 by @fontawesome - https://fontawesome.com License - https://fontawesome.com/license (Commercial License) --><path d="M560 448H519.188L409.312 324.406L540.812 252.5C562.5 240.812 576 218.25 576 193.594C576 166.75 560.062 142.594 535.438 132.062C504.805 118.947 475.988 109.867 447.193 104.002C443.127 63.631 409.443 32 368 32C329.049 32 296.676 59.863 289.539 96.732C128.65 104.357 0 237.256 0 400C0 444.125 35.875 480 80 480H368C376.844 480 384 472.844 384 464S376.844 448 368 448H80C53.531 448 32 426.469 32 400C32 254.82 146.453 136.17 289.811 128.719C297.506 164.865 329.561 192 368 192C403.807 192 433.758 168.318 443.965 135.883C469.643 141.354 495.434 149.744 522.844 161.5C535.688 167 544 179.594 544 193.594C544 206.438 536.969 218.219 525.531 224.375L376.313 305.969C372.063 308.313 369.063 312.469 368.25 317.25C367.406 322.063 368.813 327 372.031 330.625L500.031 474.625C503.062 478.031 507.438 480 512 480H560C568.844 480 576 472.844 576 464S568.844 448 560 448ZM368 128C383.062 128 397.672 129.078 412.148 130.801C404.816 147.947 387.795 160 368 160C341.533 160 320 138.467 320 112S341.533 64 368 64C389.824 64 408.084 78.73 413.893 98.705C398.857 97.004 383.66 96 368 96C359.156 96 352 103.156 352 112S359.156 128 368 128ZM281.281 365.5L247.125 388.25C239.781 393.156 237.781 403.062 242.688 410.438C245.781 415.062 250.844 417.562 256 417.562C259.062 417.562 262.156 416.687 264.875 414.875L299.031 392.125C317.469 379.812 330.031 361.062 334.375 339.312S334.344 295.406 322.031 276.969S290.969 245.969 269.25 241.625C247.312 237.25 225.344 241.656 206.906 253.969L175.812 274.688C168.469 279.594 166.469 289.531 171.375 296.875S186.25 306.156 193.563 301.313L224.656 280.594C236.031 273.031 249.562 270.312 262.969 273C276.312 275.656 287.844 283.375 295.406 294.719S305.688 319.687 303 333.062C300.344 346.406 292.625 357.938 281.281 365.5Z"/></svg>