<svg xmlns="http://www.w3.org/2000/svg" viewBox="0 0 640 512"><!-- Font Awesome Pro 6.0.0-alpha2 by @fontawesome - https://fontawesome.com License - https://fontawesome.com/license (Commercial License) --><path d="M610.625 118.375L338.625 3.75C326.75 -1.25 313.25 -1.25 301.375 3.75L29.375 118.375C11.625 125.75 0 143.25 0 162.5V496C0 504.801 7.201 512 16 512C24.801 512 32 504.801 32 496V162.5C32 156.125 35.875 150.25 41.75 147.75L313.75 33.125C317.75 31.5 322.25 31.5 326.25 33.125L598.25 147.75C604.125 150.25 608 156.125 608 162.5V496C608 504.801 615.201 512 624 512C632.801 512 640 504.801 640 496V162.5C640 143.25 628.375 125.75 610.625 118.375ZM416 400C407.164 400 400 407.164 400 416S407.164 432 416 432C424.838 432 432 424.836 432 416S424.838 400 416 400ZM224 400C215.164 400 208 407.164 208 416S215.164 432 224 432C232.838 432 240 424.836 240 416S232.838 400 224 400ZM512 192H128C110.4 192 96 206.4 96 224V496C96 504.801 103.201 512 112 512C120.801 512 128 504.801 128 496V288H512V496C512 504.801 519.201 512 528 512C536.801 512 544 504.801 544 496V224C544 206.4 529.6 192 512 192ZM512 256H128V224H512V256ZM447.105 354.67L433.234 320H398.764L411.566 352H226.305L235.908 320H202.492L192.008 354.945C173.422 361.568 160 379.166 160 400V432C160 452.832 173.416 470.426 192 477.053V496C192 504.836 199.164 512 208 512C216.838 512 224 504.836 224 496V480H416V496C416 504.836 423.164 512 432 512C440.838 512 448 504.836 448 496V477.053C466.584 470.426 480 452.832 480 432V400C480 378.84 466.15 361.043 447.105 354.67ZM448 432C448 440.828 440.828 448 432 448H208C199.172 448 192 440.828 192 432V400C192 391.172 199.172 384 208 384H432C440.828 384 448 391.172 448 400V432Z"/></svg>