<svg xmlns="http://www.w3.org/2000/svg" viewBox="0 0 576 512"><!-- Font Awesome Pro 6.0.0-alpha2 by @fontawesome - https://fontawesome.com License - https://fontawesome.com/license (Commercial License) --><path d="M120 320C120 333.25 109.25 344 96 344S72 333.25 72 320S82.75 296 96 296S120 306.75 120 320ZM288 152C301.25 152 312 141.25 312 128S301.25 104 288 104S264 114.75 264 128S274.75 152 288 152ZM152 160C138.75 160 128 170.75 128 184S138.75 208 152 208S176 197.25 176 184S165.25 160 152 160ZM433.999 171.5C441 177.125 441.999 187.25 436.499 194L339.25 314C347.125 324.75 352 337.75 352 352C352 387.375 323.375 416 288 416S224 387.375 224 352S252.625 288 288 288C297.5 288 306.375 290.125 314.5 293.875L411.5 174C417.125 167 427.125 166 433.999 171.5ZM320 352C320 334.375 305.625 320 288 320S256 334.375 256 352C256 369.625 270.375 384 288 384S320 369.625 320 352ZM480 296C466.75 296 456 306.75 456 320S466.75 344 480 344C493.25 344 504 333.25 504 320S493.25 296 480 296ZM576 320C576 372.75 561.75 422.25 537 464.75C531.375 474.375 520.625 480 509.5 480H66.5C55.375 480 44.625 474.375 39 464.75C14.25 422.25 0 372.75 0 320C0 161 129 32 288 32S576 161 576 320ZM544 320C544 178.875 429.125 64 288 64S32 178.875 32 320C32 365.25 44 409.125 66.75 448H509.5C532 409.75 544 365.25 544 320Z"/></svg>