<svg xmlns="http://www.w3.org/2000/svg" viewBox="0 0 576 512"><!-- Font Awesome Pro 6.0.0-alpha2 by @fontawesome - https://fontawesome.com License - https://fontawesome.com/license (Commercial License) --><path d="M288 32C129 32 0 161 0 320C0 372.75 14.25 422.25 39 464.75C44.625 474.375 55.375 480 66.5 480H509.5C520.625 480 531.375 474.375 537 464.75C561.75 422.25 576 372.75 576 320C576 161 447 32 288 32ZM509.5 448H66.75C44 409.125 32 365.25 32 320C32 178.875 146.875 64 288 64S544 178.875 544 320C544 365.25 532 409.75 509.5 448ZM288 288C261.875 288 239.5 303.625 229.625 326L98.625 304.25C90.125 302.75 81.625 308.625 80.25 317.375C78.75 326.125 84.625 334.375 93.375 335.75L224.625 357.625C227.5 390.25 254.625 416 288 416C323.375 416 352 387.375 352 352S323.375 288 288 288ZM288 384C270.375 384 256 369.625 256 352S270.375 320 288 320S320 334.375 320 352S305.625 384 288 384Z"/></svg>