<svg xmlns="http://www.w3.org/2000/svg" viewBox="0 0 576 512"><!-- Font Awesome Pro 6.0.0-alpha2 by @fontawesome - https://fontawesome.com License - https://fontawesome.com/license (Commercial License) --><path d="M288 288C278.5 288 269.625 290.125 261.5 293.875L164.5 174C158.875 167 148.875 166 142 171.5C135 177.125 134 187.25 139.5 194L236.75 314C228.875 324.75 224 337.75 224 352C224 387.375 252.625 416 288 416S352 387.375 352 352S323.375 288 288 288ZM288 384C270.375 384 256 369.625 256 352S270.375 320 288 320S320 334.375 320 352S305.625 384 288 384ZM288 32C129 32 0 161 0 320C0 372.75 14.25 422.25 39 464.75C44.625 474.375 55.375 480 66.5 480H509.5C520.625 480 531.375 474.375 537 464.75C561.75 422.25 576 372.75 576 320C576 161 447 32 288 32ZM509.5 448H66.75C44 409.125 32 365.25 32 320C32 178.875 146.875 64 288 64S544 178.875 544 320C544 365.25 532 409.75 509.5 448Z"/></svg>