<svg xmlns="http://www.w3.org/2000/svg" viewBox="0 0 512 512"><!-- Font Awesome Pro 6.0.0-alpha2 by @fontawesome - https://fontawesome.com License - https://fontawesome.com/license (Commercial License) --><path d="M448 128H447.596C459.43 112.363 465.967 92.516 463.473 70.883C460.803 47.713 446.453 27.436 427.193 14.283C357.498 -33.314 291.338 48.557 256 106.043C220.662 48.557 154.502 -33.314 84.807 14.283C65.547 27.436 51.197 47.713 48.527 70.883C46.033 92.516 52.57 112.363 64.404 128H64C28.654 128 0 156.654 0 192V256C0 273.672 14.326 288 32 288V448C32 483.346 60.654 512 96 512H416C451.346 512 480 483.346 480 448V288C497.674 288 512 273.672 512 256V192C512 156.654 483.346 128 448 128ZM384 32C410.469 32 432 53.531 432 80S410.469 128 384 128H280.133C315.332 69.012 354.781 32 384 32ZM128 32C157.219 32 196.668 69.012 231.867 128H128C101.531 128 80 106.469 80 80S101.531 32 128 32ZM32 255.867V192C32 174.355 46.355 160 64.404 160H240V255.867H32ZM96 480C78.326 480 64 465.672 64 448V288H240V480H96ZM448 448C448 465.672 433.674 480 416 480H272V288H448V448ZM480 255.867H272V160H448C465.645 160 480 174.355 480 192V255.867Z"/></svg>