<svg xmlns="http://www.w3.org/2000/svg" viewBox="0 0 576 512"><!-- Font Awesome Pro 6.0.0-alpha2 by @fontawesome - https://fontawesome.com License - https://fontawesome.com/license (Commercial License) --><path d="M576 336.007C576 301.165 571.672 266.416 563.141 232.762L532.531 111.986C518.625 57.114 465.953 22.865 412.703 34.146C404.062 35.959 398.516 44.458 400.344 53.083C402.156 61.77 410.734 67.457 419.297 65.457C455.641 57.801 491.828 81.675 501.5 119.861L532.109 240.636C532.498 242.171 532.617 243.763 532.988 245.302C508.627 222.344 476.035 208.013 440 208.013C385.023 208.013 337.812 240.953 316.395 288.009H259.605C238.188 240.953 190.977 208.013 136 208.013C99.965 208.013 67.373 222.344 43.012 245.302C43.383 243.763 43.502 242.171 43.891 240.636L74.5 119.861C84.172 81.675 120.422 57.801 156.703 65.457C165.328 67.457 173.844 61.77 175.656 53.083C177.484 44.458 171.938 35.959 163.297 34.146C109.938 22.865 57.359 57.114 43.469 111.986L12.859 232.762C4.328 266.416 0 301.165 0 336.007C0 336.954 0.381 337.776 0.539 338.679C0.467 340.485 0 342.182 0 344.006C0 419.003 61.016 480 136 480S272 419.003 272 344.006C272 335.788 270.979 327.828 269.574 320.008H306.426C305.021 327.828 304 335.788 304 344.006C304 419.003 365.016 480 440 480S576 419.003 576 344.006C576 342.182 575.533 340.485 575.461 338.679C575.619 337.776 576 336.954 576 336.007ZM136 448.002C78.656 448.002 32 401.348 32 344.006S78.656 240.011 136 240.011S240 286.665 240 344.006S193.344 448.002 136 448.002ZM440 448.002C382.656 448.002 336 401.348 336 344.006S382.656 240.011 440 240.011S544 286.665 544 344.006S497.344 448.002 440 448.002Z"/></svg>