<svg xmlns="http://www.w3.org/2000/svg" viewBox="0 0 448 512"><!-- Font Awesome Pro 6.0.0-alpha2 by @fontawesome - https://fontawesome.com License - https://fontawesome.com/license (Commercial License) --><path d="M69.875 364.594C76.844 359.156 78.094 349.094 72.625 342.156C46.062 308.156 32 267.312 32 224C32 118.125 118.125 32 224 32S416 118.125 416 224C416 267.312 401.938 308.156 375.375 342.156C369.906 349.094 371.156 359.156 378.125 364.594C381.031 366.906 384.5 368 387.969 368C392.719 368 397.406 365.906 400.562 361.844C431.594 322.188 448 274.5 448 224C448 100.5 347.5 0 224 0S0 100.5 0 224C0 274.5 16.406 322.188 47.438 361.844C52.906 368.875 62.969 370.094 69.875 364.594ZM56 240C56 253.254 66.746 264 80 264S104 253.254 104 240C104 226.744 93.254 216 80 216S56 226.744 56 240ZM336 152C322.746 152 312 162.744 312 176C312 189.254 322.746 200 336 200S360 189.254 360 176C360 162.744 349.254 152 336 152ZM216 80C216 93.254 226.746 104 240 104S264 93.254 264 80C264 66.744 253.254 56 240 56S216 66.744 216 80ZM373.312 391.125C370.344 386.688 365.344 384 360 384H240V294.625L276.688 331.312C279.812 334.438 283.906 336 288 336S296.188 334.438 299.312 331.312C305.562 325.062 305.562 314.937 299.312 308.688L240 249.375V214.625L276.688 251.312C279.812 254.438 283.906 256 288 256S296.188 254.438 299.312 251.312C305.562 245.062 305.562 234.937 299.312 228.688L235.312 164.688C229.062 158.438 218.937 158.438 212.688 164.688L148.688 228.688C142.438 234.938 142.438 245.063 148.688 251.312S165.063 257.562 171.312 251.312L208 214.625V249.375L148.688 308.688C142.438 314.938 142.438 325.063 148.688 331.312S165.063 337.562 171.312 331.312L208 294.625V384H88C82.656 384 77.656 386.688 74.688 391.125L10.688 487.125C7.406 492.031 7.094 498.344 9.906 503.562C12.688 508.75 18.094 512 24 512H424C429.906 512 435.312 508.75 438.094 503.562C440.906 498.344 440.594 492.031 437.312 487.125L373.312 391.125ZM53.906 480L96.562 416H351.438L394.094 480H53.906Z"/></svg>