<svg xmlns="http://www.w3.org/2000/svg" viewBox="0 0 512 512"><!-- Font Awesome Pro 6.0.0-alpha2 by @fontawesome - https://fontawesome.com License - https://fontawesome.com/license (Commercial License) --><path d="M503.15 1.695C495.229 -2.273 485.65 0.977 481.682 8.852L295.277 381.656L58.406 329.031C44.156 325.844 29.375 329.281 17.953 338.438C6.547 347.594 0 361.25 0 375.906V464C0 490.469 21.531 512 48 512H255.996C262.059 512 267.59 508.562 270.309 503.156L318.152 407.469C318.262 407.281 318.355 407.062 318.449 406.875L510.307 23.164C514.26 15.258 511.057 5.664 503.15 1.695ZM246.107 480H48C39.172 480 32 472.812 32 464H80C88.842 464 95.998 456.844 95.998 448S88.842 432 80 432H32V416H80C88.842 416 95.998 408.844 95.998 400S88.842 384 80 384H32V375.906C32 371.031 34.188 366.469 37.984 363.406C40.859 361.094 44.375 359.875 47.969 359.875C49.125 359.875 50.297 360.031 51.469 360.281L280.527 411.187L246.107 480Z"/></svg>