<svg xmlns="http://www.w3.org/2000/svg" viewBox="0 0 512 512"><!-- Font Awesome Pro 6.0.0-alpha2 by @fontawesome - https://fontawesome.com License - https://fontawesome.com/license (Commercial License) --><path d="M64 0H32C14.326 0 0 14.326 0 32V64C0 81.674 14.326 96 32 96H64C81.674 96 96 81.674 96 64V32C96 14.326 81.674 0 64 0ZM64 64H32V32H64V64ZM480 0H448C430.326 0 416 14.326 416 32V64C416 81.674 430.326 96 448 96H480C497.674 96 512 81.674 512 64V32C512 14.326 497.674 0 480 0ZM480 64H448V32H480V64ZM341.334 0H309.334C291.66 0 277.334 14.326 277.334 32V64C277.334 81.674 291.66 96 309.334 96H341.334C359.006 96 373.334 81.674 373.334 64V32C373.334 14.326 359.006 0 341.334 0ZM341.334 64H309.334V32H341.334V64ZM202.666 0H170.666C152.994 0 138.666 14.326 138.666 32V64C138.666 81.674 152.994 96 170.666 96H202.666C220.34 96 234.666 81.674 234.666 64V32C234.666 14.326 220.34 0 202.666 0ZM202.666 64H170.666V32H202.666V64ZM64 416H32C14.326 416 0 430.326 0 448V480C0 497.674 14.326 512 32 512H64C81.674 512 96 497.674 96 480V448C96 430.326 81.674 416 64 416ZM64 480H32V448H64V480ZM480 416H448C430.326 416 416 430.326 416 448V480C416 497.674 430.326 512 448 512H480C497.674 512 512 497.674 512 480V448C512 430.326 497.674 416 480 416ZM480 480H448V448H480V480ZM341.334 416H309.334C291.66 416 277.334 430.326 277.334 448V480C277.334 497.674 291.66 512 309.334 512H341.334C359.006 512 373.334 497.674 373.334 480V448C373.334 430.326 359.006 416 341.334 416ZM341.334 480H309.334V448H341.334V480ZM202.666 416H170.666C152.994 416 138.666 430.326 138.666 448V480C138.666 497.674 152.994 512 170.666 512H202.666C220.34 512 234.666 497.674 234.666 480V448C234.666 430.326 220.34 416 202.666 416ZM202.666 480H170.666V448H202.666V480ZM64 277.334H32C14.326 277.334 0 291.66 0 309.334V341.334C0 359.006 14.326 373.334 32 373.334H64C81.674 373.334 96 359.006 96 341.334V309.334C96 291.66 81.674 277.334 64 277.334ZM64 341.334H32V309.334H64V341.334ZM480 277.334H448C430.326 277.334 416 291.66 416 309.334V341.334C416 359.006 430.326 373.334 448 373.334H480C497.674 373.334 512 359.006 512 341.334V309.334C512 291.66 497.674 277.334 480 277.334ZM480 341.334H448V309.334H480V341.334ZM341.334 277.334H309.334C291.66 277.334 277.334 291.66 277.334 309.334V341.334C277.334 359.006 291.66 373.334 309.334 373.334H341.334C359.006 373.334 373.334 359.006 373.334 341.334V309.334C373.334 291.66 359.006 277.334 341.334 277.334ZM341.334 341.334H309.334V309.334H341.334V341.334ZM202.666 277.334H170.666C152.994 277.334 138.666 291.66 138.666 309.334V341.334C138.666 359.006 152.994 373.334 170.666 373.334H202.666C220.34 373.334 234.666 359.006 234.666 341.334V309.334C234.666 291.66 220.34 277.334 202.666 277.334ZM202.666 341.334H170.666V309.334H202.666V341.334ZM64 138.666H32C14.326 138.666 0 152.994 0 170.666V202.666C0 220.34 14.326 234.666 32 234.666H64C81.674 234.666 96 220.34 96 202.666V170.666C96 152.994 81.674 138.666 64 138.666ZM64 202.666H32V170.666H64V202.666ZM480 138.666H448C430.326 138.666 416 152.994 416 170.666V202.666C416 220.34 430.326 234.666 448 234.666H480C497.674 234.666 512 220.34 512 202.666V170.666C512 152.994 497.674 138.666 480 138.666ZM480 202.666H448V170.666H480V202.666ZM341.334 138.666H309.334C291.66 138.666 277.334 152.994 277.334 170.666V202.666C277.334 220.34 291.66 234.666 309.334 234.666H341.334C359.006 234.666 373.334 220.34 373.334 202.666V170.666C373.334 152.994 359.006 138.666 341.334 138.666ZM341.334 202.666H309.334V170.666H341.334V202.666ZM202.666 138.666H170.666C152.994 138.666 138.666 152.994 138.666 170.666V202.666C138.666 220.34 152.994 234.666 170.666 234.666H202.666C220.34 234.666 234.666 220.34 234.666 202.666V170.666C234.666 152.994 220.34 138.666 202.666 138.666ZM202.666 202.666H170.666V170.666H202.666V202.666Z"/></svg>