<svg xmlns="http://www.w3.org/2000/svg" viewBox="0 0 320 512"><!-- Font Awesome Pro 6.0.0-alpha2 by @fontawesome - https://fontawesome.com License - https://fontawesome.com/license (Commercial License) --><path d="M128 112V80C128 53.49 106.51 32 80 32H48C21.49 32 0 53.49 0 80V112C0 138.51 21.49 160 48 160H80C106.51 160 128 138.51 128 112ZM48 128C39.178 128 32 120.822 32 112V80C32 71.178 39.178 64 48 64H80C88.822 64 96 71.178 96 80V112C96 120.822 88.822 128 80 128H48ZM320 112V80C320 53.49 298.51 32 272 32H240C213.49 32 192 53.49 192 80V112C192 138.51 213.49 160 240 160H272C298.51 160 320 138.51 320 112ZM240 128C231.178 128 224 120.822 224 112V80C224 71.178 231.178 64 240 64H272C280.822 64 288 71.178 288 80V112C288 120.822 280.822 128 272 128H240ZM320 272V240C320 213.49 298.51 192 272 192H240C213.49 192 192 213.49 192 240V272C192 298.51 213.49 320 240 320H272C298.51 320 320 298.51 320 272ZM240 288C231.178 288 224 280.822 224 272V240C224 231.178 231.178 224 240 224H272C280.822 224 288 231.178 288 240V272C288 280.822 280.822 288 272 288H240ZM320 432V400C320 373.49 298.51 352 272 352H240C213.49 352 192 373.49 192 400V432C192 458.51 213.49 480 240 480H272C298.51 480 320 458.51 320 432ZM240 448C231.178 448 224 440.822 224 432V400C224 391.178 231.178 384 240 384H272C280.822 384 288 391.178 288 400V432C288 440.822 280.822 448 272 448H240ZM128 432V400C128 373.49 106.51 352 80 352H48C21.49 352 0 373.49 0 400V432C0 458.51 21.49 480 48 480H80C106.51 480 128 458.51 128 432ZM48 448C39.178 448 32 440.822 32 432V400C32 391.178 39.178 384 48 384H80C88.822 384 96 391.178 96 400V432C96 440.822 88.822 448 80 448H48ZM128 272V240C128 213.49 106.51 192 80 192H48C21.49 192 0 213.49 0 240V272C0 298.51 21.49 320 48 320H80C106.51 320 128 298.51 128 272ZM48 288C39.178 288 32 280.822 32 272V240C32 231.178 39.178 224 48 224H80C88.822 224 96 231.178 96 240V272C96 280.822 88.822 288 80 288H48Z"/></svg>