<svg xmlns="http://www.w3.org/2000/svg" viewBox="0 0 576 512"><!-- Font Awesome Pro 6.0.0-alpha2 by @fontawesome - https://fontawesome.com License - https://fontawesome.com/license (Commercial License) --><path d="M544 112H525.736C518.6 84.445 493.787 64 464 64H128V48C128 39.164 120.836 32 112 32S96 39.164 96 48V64C42.98 64 0 106.98 0 160C0 207.938 35.238 247.328 81.158 254.504L33.25 439.211C27.41 459.648 42.76 480 64.02 480H167.863C182.15 480 194.705 470.531 198.629 456.793L227.113 352H288V368C288 376.836 295.164 384 304 384S320 376.836 320 368V304C320 295.164 312.836 288 304 288S288 295.164 288 304V320H235.811L253.207 256H464C493.787 256 518.6 235.555 525.736 208H544C561.674 208 576 193.672 576 176V144C576 126.328 561.674 112 544 112ZM167.863 448L64.225 447.246L113.83 256H220.047L167.863 448ZM544 176H500.969L494.758 199.977C491.096 214.121 478.447 224 464 224H96C60.711 224 32 195.289 32 160S60.711 96 96 96H464C478.447 96 491.096 105.879 494.758 120.023L500.969 144H544V176ZM448 144H96C87.156 144 80 151.156 80 160S87.156 176 96 176H448C456.844 176 464 168.844 464 160S456.844 144 448 144Z"/></svg>