<svg xmlns="http://www.w3.org/2000/svg" viewBox="0 0 448 512"><!-- Font Awesome Pro 6.0.0-alpha2 by @fontawesome - https://fontawesome.com License - https://fontawesome.com/license (Commercial License) --><path d="M166.156 512C132.906 512 105.844 484.641 105.844 451V262.375L60.281 226.594C42.219 211.922 32 190.328 32 167.172V116.844C32 88.984 47 63.406 71.188 50.094L132.063 16.516C151.688 5.703 173.844 0 196.156 0H313.844C387.812 0 448 61.016 448 136V241C448 274.641 420.938 302 387.688 302H380.344C369.656 320.328 350.094 332 328.625 332H313.844C308.094 332 302.469 331.156 296.969 329.469C285.844 340.625 270.812 347 254.781 347H240C235.406 347 230.875 346.453 226.469 345.406V451C226.469 484.641 199.406 512 166.156 512ZM137.844 451C137.844 466.984 150.531 480 166.156 480S194.469 466.984 194.469 451V319.328C194.469 310.409 201.791 303.31 210.436 303.31C222.28 303.31 223.241 315 240 315H254.781C278.627 315 275.482 293.988 292.127 293.988C300.206 293.988 302.732 300 313.844 300H328.625C357.42 300 350.009 269.744 370.686 269.744C370.822 269.744 370.958 269.746 371.094 269.75L387.688 270C403.312 270 416 256.984 416 241V136C416 78.656 370.188 32 313.844 32H196.156C179.219 32 162.406 36.344 147.5 44.547L86.625 78.125C72.656 85.812 64 100.641 64 116.844V167.172C64 180.656 69.938 193.203 80.25 201.609L105.844 221.703V173.5C105.844 164.656 113 157.5 121.844 157.5S137.844 164.656 137.844 173.5V451Z"/></svg>