<svg xmlns="http://www.w3.org/2000/svg" viewBox="0 0 512 512"><!-- Font Awesome Pro 6.0.0-alpha2 by @fontawesome - https://fontawesome.com License - https://fontawesome.com/license (Commercial License) --><path d="M496 448C487.156 448 480 440.844 480 432V323.828C480 312.172 476.406 300.938 469.593 291.328L348.873 120.844C337.858 105.281 319.686 96 300.264 96H45.996C39.011 96 32.214 101.797 32.011 107.938C31.636 119.359 35.855 130.219 43.902 138.516C52.308 147.219 63.714 152 75.996 152H244.372C259.31 152 273.357 159.172 281.967 171.203C290.514 183.125 292.701 197.922 287.982 211.766L277.982 241.094C271.67 259.578 254.138 272 234.372 272H135.996C123.715 272 112.309 276.781 103.902 285.484C95.855 293.781 91.637 304.641 92.012 316.062C92.215 322.203 99.012 328 105.996 328H265.998C269.091 328 272.138 328.906 274.732 330.594L360.733 386.594C365.264 389.547 367.999 394.594 367.999 400V432C367.999 440.844 360.842 448 351.998 448S335.998 440.844 335.998 432V408.672L261.248 360H105.996C81.433 360 60.824 340.766 60.043 317.125C59.371 296.953 66.777 277.812 80.902 263.219C95.402 248.25 114.965 240 135.996 240H234.372C240.451 240 245.81 236.281 247.701 230.766L257.701 201.453C259.544 196.031 257.388 191.844 255.951 189.828C253.294 186.125 249.076 184 244.372 184H75.996C54.964 184 35.402 175.75 20.902 160.781C6.776 146.188 -0.63 127.047 0.042 106.875C0.823 83.234 21.433 64 45.996 64H300.264C330.045 64 357.983 78.328 374.999 102.344L495.719 272.828C506.375 287.875 512 305.516 512 323.828V432C512 440.844 504.844 448 496 448Z"/></svg>