<svg xmlns="http://www.w3.org/2000/svg" viewBox="0 0 512 512"><!-- Font Awesome Pro 6.0.0-alpha2 by @fontawesome - https://fontawesome.com License - https://fontawesome.com/license (Commercial License) --><path d="M376 480H270.984C237.343 480 209.983 452.938 209.983 419.688V412.36C191.655 401.657 179.983 382.11 179.983 360.626V345.845C179.983 340.923 180.608 336.064 181.811 331.345L65.295 339.533C63.947 339.619 62.605 339.662 61.271 339.662C38.14 339.661 0 321.978 0 279.592C0 248.128 24.63 221.5 56.655 219.253L156.28 212.237L69.967 180.941C58.202 176.685 29.932 160.33 29.932 124.386C29.932 91.289 57.133 64 90.99 64C97.975 64 105.077 65.197 112.014 67.723L261.343 122.738C262.714 119.388 283.177 95.036 285.562 92.098C300.046 74.254 321.656 64.02 344.828 64.02H395.156C423 64.02 448.578 79.02 461.906 103.176L495.469 164.081C506.281 183.675 512 205.847 512 228.175V345.845C512 419.813 450.984 480 376 480ZM210.702 297.283C219.619 297.283 226.697 304.549 226.697 313.286C226.697 326.849 211.983 326.593 211.983 345.845V360.626C211.983 389.845 242.259 381.81 242.259 402.279C242.259 402.659 242.245 403.04 242.218 403.423L241.983 419.688C241.983 435.297 254.999 448 270.984 448H376C433.343 448 480 402.173 480 345.845V228.175C480 211.237 475.656 194.409 467.437 179.534L433.875 118.629C426.187 104.691 411.343 96.02 395.156 96.02H344.828C331.343 96.02 318.796 101.941 310.406 112.27L292.546 134.254L363.89 160.535C370.362 162.924 374.362 169.04 374.362 175.553C374.362 184.32 367.264 191.58 358.404 191.58C356.553 191.58 354.669 191.254 352.828 190.566L101.014 97.77C97.712 96.567 94.321 95.996 90.983 95.996C75.023 95.996 61.958 108.679 61.958 124.392C61.958 130.19 64.688 145.021 80.858 150.847L238.077 207.862C244.477 210.183 248.623 216.252 248.623 222.9C248.623 235.962 236.377 238.682 233.749 238.862L58.905 251.159C43.938 252.224 32 265.073 32 279.659C32 294.91 44.921 307.678 61.243 307.678C61.835 307.678 62.431 307.661 63.03 307.627L209.577 297.33C209.952 297.299 210.327 297.283 210.702 297.283Z"/></svg>