<svg xmlns="http://www.w3.org/2000/svg" viewBox="0 0 640 512"><!-- Font Awesome Pro 6.0.0-alpha2 by @fontawesome - https://fontawesome.com License - https://fontawesome.com/license (Commercial License) --><path d="M320 416C328.844 416 336 408.844 336 400V368H368C376.844 368 384 360.844 384 352S376.844 336 368 336H336V304C336 295.156 328.844 288 320 288S304 295.156 304 304V336H272C263.156 336 256 343.156 256 352S263.156 368 272 368H304V400C304 408.844 311.156 416 320 416ZM80 224C88.844 224 96 216.844 96 208V160H128C136.844 160 144 152.844 144 144S136.844 128 128 128H96V80C96 71.156 88.844 64 80 64S64 71.156 64 80V128H16C7.156 128 0 135.156 0 144S7.156 160 16 160H64V208C64 216.844 71.156 224 80 224ZM624 416H576V368C576 359.156 568.844 352 560 352S544 359.156 544 368V416H496C487.156 416 480 423.156 480 432S487.156 448 496 448H544V496C544 504.844 551.156 512 560 512S576 504.844 576 496V448H624C632.844 448 640 440.844 640 432S632.844 416 624 416ZM456.883 459.673C445.052 459.673 428.833 480 383.996 480H282.201C244.945 480 209.785 461.875 187.846 431.109L101.193 317.234C97.657 312.582 95.915 307.08 95.915 301.735C95.915 288.43 106.479 279.328 118.18 279.328C123.943 279.328 131.225 281.592 137.055 289.266L171.25 334.25C177.498 342.472 187.144 347.115 196.812 347.115C200.844 347.115 224.017 344.511 224.017 320.986C224.017 320.659 224.011 320.33 224 320V88.947C224 76.526 233.247 64 248.001 64C261.235 64 272 74.766 272 88V239.166C272 241.939 274.188 256 288 256C296.843 256 304 248.843 304 240V88C304 87.895 303.969 87.797 303.969 87.691V56.949C303.969 44.528 313.216 32 327.974 32C341.21 32 351.975 42.766 351.975 56V239.166C351.975 241.939 354.162 256 367.977 256C376.822 256 383.98 248.843 383.98 240V88.947C383.98 76.526 393.228 64 407.984 64C421.22 64 431.986 74.766 431.986 88V238.74C431.986 241.513 434.174 255.577 447.989 255.577C456.833 255.577 463.99 248.422 463.99 239.578V136.273C463.99 123.794 473.285 111.297 487.994 111.297C501.229 111.297 511.996 122.093 511.996 135.359V300.111C511.996 308.934 519.148 316.086 527.969 316.086H528.027C536.848 316.086 544 308.934 544 300.111V137.359C544 115.62 527.525 79.296 487.99 79.296C479.366 79.296 471.192 81.25 463.896 84.75C462.209 55.375 437.783 32 407.982 32C398.324 32 389.215 34.469 381.275 38.781C373.994 16.297 352.852 0 327.973 0C302.998 0 282.057 16.551 274.865 39.174C266.854 34.744 257.783 32 247.999 32C208.383 32 192 68.61 192 90.793V307.875L161.764 268.875C151.495 255.444 135.382 247.358 118.453 247.358C88.889 247.358 63.999 270.421 63.999 301.815C63.999 313.957 67.855 326.271 75.721 336.609L162.076 450.078C189.705 488.859 234.617 512 282.201 512H383.996C416.161 512 472.771 496.847 472.771 475.583C472.771 469.512 468.057 459.673 456.883 459.673Z"/></svg>