<svg xmlns="http://www.w3.org/2000/svg" viewBox="0 0 512 512"><!-- Font Awesome Pro 6.0.0-alpha2 by @fontawesome - https://fontawesome.com License - https://fontawesome.com/license (Commercial License) --><path d="M0 198.156C0 164.906 27.359 137.844 61 137.844H249.625L285.406 92.281C300.078 74.219 321.672 64 344.828 64H395.156C423.016 64 448.594 79 461.906 103.188L495.484 164.063C506.297 183.688 512 205.844 512 228.156V345.844C512 419.813 450.984 480 376 480H271C237.359 480 210 452.938 210 419.688L210 412.344C191.672 401.656 180 382.094 180 360.625V345.844C180 340.094 180.844 334.469 182.531 328.969C171.375 317.844 165 302.813 165 286.781V272C165 267.406 165.547 262.875 166.594 258.469H61C27.359 258.469 0 231.406 0 198.156ZM61 169.844C45.016 169.844 32 182.531 32 198.156S45.016 226.469 61 226.469H192.672C201.591 226.469 208.69 233.791 208.69 242.436C208.69 254.28 197 255.241 197 272V286.781C197 310.627 218.012 307.482 218.012 324.127C218.012 332.206 212 334.732 212 345.844V360.625C212 389.42 242.256 382.009 242.256 402.686C242.256 402.822 242.254 402.958 242.25 403.094L242 419.688C242 435.313 255.016 448 271 448H376C433.344 448 480 402.188 480 345.844V228.156C480 211.219 475.656 194.406 467.453 179.5L433.875 118.625C426.188 104.656 411.359 96 395.156 96H344.828C331.344 96 318.797 101.938 310.391 112.25L290.297 137.844H338.5C347.344 137.844 354.5 145 354.5 153.844S347.344 169.844 338.5 169.844H61Z"/></svg>