<svg xmlns="http://www.w3.org/2000/svg" viewBox="0 0 640 512"><!-- Font Awesome Pro 6.0.0-alpha2 by @fontawesome - https://fontawesome.com License - https://fontawesome.com/license (Commercial License) --><path d="M258.297 97.891C267.047 96.625 273.109 88.5 271.828 79.766C270.562 71.016 262.484 64.844 253.703 66.234C235.881 68.82 218.676 74.344 202.031 81.303L231.123 104.271C240.033 101.525 249.08 99.23 258.297 97.891ZM350.078 149.781C339.264 159.828 330.057 168.383 321.924 175.957L347.33 196.016C360.844 183.453 371.859 173.219 371.859 173.219C378.328 167.203 378.703 157.078 372.687 150.609C366.656 144.125 356.547 143.797 350.078 149.781ZM286.396 147.908L337.672 99.922C340.484 97.359 343.875 96 347.438 96H355.609C404.734 96 454.078 117.578 490.984 155.203L495.688 160H624C632.844 160 640 152.844 640 144S632.844 128 624 128H508.984C466.656 87.25 411.125 64 355.609 64H347.437C335.922 64 324.797 68.359 315.969 76.422L260.982 127.844L286.396 147.908ZM381.016 424.812C374.219 433.094 361.969 434.406 354.125 428L337.156 413.25L324.531 404.938L313.984 415.469C306.453 424.75 295.766 430.531 283.891 431.75C271.906 432.938 260.313 429.469 250.688 421.688L160.391 352H32C23.156 352 16 359.156 16 368S23.156 384 32 384H149.484L230.812 446.75C244.656 458 261.562 464 279.141 464C281.812 464 284.484 463.875 287.172 463.594C302.281 462.031 316.266 456.156 327.406 447.156L333.5 452.438C355.344 470.281 387.781 467 405.812 445.031L425.471 420.813L400.363 400.99L381.016 424.812ZM95.119 160L54.588 128H16C7.156 128 0 135.156 0 144S7.156 160 16 160H95.119ZM624 352H544.904L585.438 384H624C632.844 384 640 376.844 640 368S632.844 352 624 352ZM25.922 3.42C18.984 -2.033 8.922 -0.83 3.438 6.061C-2.031 12.998 -0.844 23.061 6.078 28.545L614.078 508.562C617.016 510.875 620.516 512 623.984 512C628.719 512 633.406 509.906 636.562 505.922C642.031 498.984 640.844 488.92 633.922 483.436L25.922 3.42Z"/></svg>