<svg xmlns="http://www.w3.org/2000/svg" viewBox="0 0 512 512"><!-- Font Awesome Pro 6.0.0-alpha2 by @fontawesome - https://fontawesome.com License - https://fontawesome.com/license (Commercial License) --><path d="M191.156 106.875C188.562 117.469 191.5 128.688 199.5 136.75C208.031 145.094 218.5 147.875 229.219 144.938C234.969 154.188 244.938 160 256 160C267.125 160 277.094 154.156 282.812 144.906C291.469 147.344 302.094 146.625 312.812 136.438C320.594 128.594 323.437 117.469 320.812 106.844C330.156 101.125 336 91.125 336 80S330.125 58.844 320.844 53.125C323.438 42.531 320.5 31.312 312.562 23.312C304.656 15.5 293.531 12.594 282.875 15.219C271.437 -3.469 240.562 -3.438 229.125 15.187C218.625 12.531 207.344 15.5 199.344 23.406C191.469 31.312 188.562 42.531 191.188 53.156C181.844 58.875 176 68.875 176 80S181.875 101.156 191.156 106.875ZM208.312 80.25L208.406 80.219C215.344 78.062 220.844 72.969 223.531 66.344C226.281 59.594 225.844 52.094 221.781 46.375C228.344 49.937 235.969 50.281 242.25 47.562C248.969 44.844 254.062 39.344 255.781 32.406C257.937 39.344 263.031 44.844 269.406 47.406C276.125 50.281 283.906 49.844 289.687 45.688C286.156 52.094 285.719 59.594 288.437 66.25C291.156 72.969 296.656 78.062 303.594 79.781C296.656 81.938 291.156 87.031 288.469 93.656C285.719 100.406 286.156 107.906 290.219 113.625C283.719 110.031 275.875 109.719 269.437 112.531C262.906 115.313 257.937 120.75 256.219 127.594C254.062 120.719 249.031 115.188 242.5 112.531L236.5 110.688H233.281C229.219 110.688 225.25 111.719 222.313 114.312C225.844 107.906 226.281 100.406 223.563 93.75C220.844 87.031 215.344 81.938 207.875 80.469C207.875 80.469 207.969 80.344 208.312 80.25ZM480 402.938V368C480 199.375 363.281 147.438 358.312 145.281C350.188 141.844 340.875 145.563 337.344 153.656C333.844 161.719 337.562 171.156 345.625 174.688C349.229 176.246 422.277 209.791 442.641 312.549L390.5 289.375C386.125 287.438 381.094 287.531 376.844 289.688L320 318.125L263.156 289.687C258.656 287.437 253.344 287.437 248.844 289.687L192 318.125L135.156 289.688C130.906 287.562 125.875 287.469 121.5 289.375L69.359 312.549C89.723 209.791 162.771 176.246 166.375 174.688C174.438 171.188 178.188 161.812 174.719 153.688C171.188 145.531 161.781 141.844 153.688 145.281C148.719 147.438 32 199.375 32 368V402.938C13.4 409.549 0 427.131 0 448V464C0 490.51 21.49 512 48 512H464C490.51 512 512 490.51 512 464V448C512 427.131 498.6 409.549 480 402.938ZM64 368C64 361.598 64.412 355.635 64.77 349.615L127.594 321.688L184.844 350.312C189.344 352.562 194.656 352.562 199.156 350.312L256 321.875L312.844 350.313C317.344 352.563 322.656 352.563 327.156 350.313L384.406 321.688L447.23 349.615C447.588 355.635 448 361.598 448 368V400H64V368ZM480 464C480 472.836 472.836 480 464 480H48C39.164 480 32 472.836 32 464V448C32 439.162 39.164 432 48 432H464C472.836 432 480 439.162 480 448V464Z"/></svg>