<svg xmlns="http://www.w3.org/2000/svg" viewBox="0 0 512 512"><!-- Font Awesome Pro 6.0.0-alpha2 by @fontawesome - https://fontawesome.com License - https://fontawesome.com/license (Commercial License) --><path d="M191.974 224C191.974 206.375 177.598 192 159.971 192H127.969C92.591 192 63.963 220.625 63.963 256V319.625C63.963 355 92.591 383.625 127.969 383.625H159.971C177.598 383.625 191.974 369.25 191.974 351.625V224ZM159.971 351.625H127.969C110.342 351.625 95.966 337.25 95.966 319.625V256C95.966 238.375 110.342 224 127.969 224H159.971V351.625ZM383.99 383.625C419.367 383.625 447.995 355 447.995 319.625V256C447.995 220.625 419.367 192 383.99 192H351.987C334.36 192 319.984 206.375 319.984 224V351.625C319.984 369.25 334.36 383.625 351.987 383.625H383.99ZM351.987 224H383.99C401.616 224 415.992 238.375 415.992 256V319.625C415.992 337.25 401.616 351.625 383.99 351.625H351.987V224ZM280.171 1.131C126.661 -13.164 4.044 110.125 0.083 256L0 271.917C-0.046 280.763 7.155 288 16.001 288H16.001C24.756 288 31.956 280.838 32.002 272.084L32.086 256C35.516 128.568 142.532 20.626 276.877 32.964C393.13 43.64 479.997 145.283 479.997 262.015V432C479.997 458.51 458.505 480 431.993 480H348.987C353.068 469.118 353.596 456.46 346.705 443.313C337.612 425.968 318.67 416 299.084 416L241.781 416C218.566 416 197.276 431.686 192.891 454.481C186.991 485.152 210.362 512 239.978 512H431.993C476.18 512 512 476.183 512 432V262.914C512 129.615 412.907 13.491 280.171 1.131ZM303.983 480H239.978C231.102 480 223.976 472.875 223.976 464S231.102 448 239.978 448H303.983C312.859 448 319.984 455.125 319.984 464S312.859 480 303.983 480Z"/></svg>