<svg xmlns="http://www.w3.org/2000/svg" viewBox="0 0 512 512"><!-- Font Awesome Pro 6.0.0-alpha2 by @fontawesome - https://fontawesome.com License - https://fontawesome.com/license (Commercial License) --><path d="M509.223 275C488.223 227.875 460.727 123.25 436.104 88.25C397.606 33.625 334.487 0 266.117 0H199.998C95.506 0 4.139 80.125 0.139 184.5C-2.111 244.375 23.137 298.125 64.008 334.875L63.998 496C63.998 504.844 71.155 512 79.998 512C88.84 512 95.996 504.844 95.996 496C95.996 472.234 96.043 345.67 96.006 320.5L85.381 311C49.76 279 30.262 233.375 32.137 185.75C35.387 101 110.629 32 199.998 32H266.117C323.237 32 376.983 59.875 409.981 106.625C422.479 124.5 438.979 173.375 452.352 212.75C462.102 241.5 471.35 268.5 479.975 288H431.979C423.143 288 415.979 295.162 415.979 304V384C415.979 401.6 401.578 416 383.979 416H303.989C295.153 416 287.989 423.117 287.989 431.953C287.985 451.787 287.981 484.438 287.981 496C287.981 504.844 295.137 512 303.979 512C312.822 512 319.979 504.844 319.979 496C319.979 483.818 319.989 460.084 319.989 448H383.983C419.326 448 447.977 419.348 447.977 384.006V320H479.975C503.098 320 518.596 296.125 509.223 275ZM328 224C358.875 224 384 198.875 384 168C384 137.75 359.891 113.031 329.891 112.031C318.844 88.359 291.36 73.953 265.047 82.344C244.203 59.219 203.797 59.219 182.953 82.344C153.578 72.953 123.328 91.531 114.86 120.234C86.375 122.844 64 146.859 64 176C64 198.219 77.063 217.453 96.938 226.266C101.781 252.25 124.625 272 152 272H160V304C160 312.844 167.156 320 176 320S192 312.844 192 304V256C192 247.156 184.844 240 176 240H152C139.219 240 128.735 229.953 128.031 217.344C128.188 216.469 128.281 215.609 128.313 214.906C128.531 207.125 123.125 200.312 115.485 198.766C104.016 196.453 96 187.078 96 176C96 162.781 106.25 151.906 121.578 152.469C121.844 152.547 124.641 153.25 124.922 153.312C129.797 154.391 134.891 153.109 138.703 149.891C142.5 146.656 144.578 141.828 144.328 136.844C144.297 136.25 144.188 135.453 144.031 134.656C144.735 122.047 155.219 112 168 112C171.719 112 175.563 113.297 180.078 116.078C183.891 118.406 188.516 119.094 192.875 117.828C197.188 116.594 200.797 113.594 202.797 109.578C211.11 92.828 236.891 92.828 245.203 109.578C247.203 113.594 250.813 116.594 255.125 117.828C259.485 119.094 264.094 118.406 267.922 116.078C272.438 113.297 276.281 112 280 112C291.453 112 301.125 120.625 302.985 132.516C303.719 137.188 306.485 141.281 310.531 143.734C314.578 146.172 319.516 146.719 323.969 145.172C326.953 144.156 328.141 144 328.016 144C341.25 144.016 352 154.766 352 168S341.235 192 328 192H286.391C281.563 192 277 194.172 273.969 197.922C270.922 201.656 269.735 206.578 270.735 211.297C270.797 211.609 271.922 215.688 272 216C272 229.234 261.235 240 248 240C239.156 240 232 247.156 232 256S239.156 272 248 272C276.156 272 299.531 251.109 303.438 224H328Z"/></svg>