<svg xmlns="http://www.w3.org/2000/svg" viewBox="0 0 512 512"><!-- Font Awesome Pro 6.0.0-alpha2 by @fontawesome - https://fontawesome.com License - https://fontawesome.com/license (Commercial License) --><path d="M509.223 275C488.223 227.875 460.727 123.25 436.104 88.25C397.606 33.625 334.487 0 266.117 0H199.998C95.506 0 4.139 80.125 0.139 184.5C-2.111 244.375 23.137 298.125 64.008 334.875L63.998 496C63.998 504.844 71.155 512 79.998 512C88.84 512 95.996 504.844 95.996 496C95.996 472.234 96.043 345.67 96.006 320.5L85.381 311C49.76 279 30.262 233.375 32.137 185.75C35.387 101 110.629 32 199.998 32H266.117C323.237 32 376.983 59.875 409.981 106.625C422.479 124.5 438.979 173.375 452.352 212.75C462.102 241.5 471.35 268.5 479.975 288H431.979C423.142 288 415.979 295.163 415.979 304V384C415.979 401.6 401.579 416 383.979 416H303.988C295.152 416 287.989 423.119 287.988 431.954C287.985 451.788 287.981 484.437 287.981 496C287.981 504.844 295.137 512 303.979 512C312.822 512 319.979 504.844 319.979 496C319.979 483.818 319.989 460.084 319.989 448H383.983C419.326 448 447.977 419.349 447.977 384.006V320H479.975C503.098 320 518.596 296.125 509.223 275ZM330.104 109.244C316.229 97.619 282.479 80.744 239.979 123.744C197.354 80.744 163.604 97.619 149.729 109.244C122.229 132.244 120.854 173.369 145.479 198.244L229.979 283.869C235.479 289.369 244.229 289.369 249.729 283.869L334.479 198.244C359.104 173.369 357.604 132.244 330.104 109.244ZM311.854 175.744L239.854 248.369L168.104 175.744C157.729 165.369 155.729 145.744 170.104 133.744C183.854 122.244 201.354 130.369 208.604 137.494L239.979 169.244L271.354 137.494C278.479 130.244 295.979 122.244 309.729 133.744C324.104 145.744 322.104 165.369 311.854 175.744Z"/></svg>