<svg xmlns="http://www.w3.org/2000/svg" viewBox="0 0 512 512"><!-- Font Awesome Pro 6.0.0-alpha2 by @fontawesome - https://fontawesome.com License - https://fontawesome.com/license (Commercial License) --><path d="M462.271 62.715C407.771 16.209 326.269 23.961 275.769 76.215L256.017 96.592L236.267 76.215C195.517 34.086 113.265 8.709 49.763 62.715C-13.112 116.219 -16.362 212.477 39.763 270.482L233.267 470.248C239.517 476.75 247.767 480 255.892 480C264.142 480 272.269 476.75 278.519 470.248L472.023 270.482C528.398 212.477 525.148 116.219 462.271 62.715ZM240 431.199L62.763 248.23C24.388 208.727 16.388 133.221 70.515 87.092C125.265 40.213 189.767 74.215 213.267 98.592L240 126.186V431.199ZM449.271 248.23L272 431.947V126.223L298.769 98.592C321.894 74.59 386.896 40.588 441.521 87.092C495.523 133.096 487.648 208.602 449.271 248.23Z"/></svg>