<svg xmlns="http://www.w3.org/2000/svg" viewBox="0 0 576 512"><!-- Font Awesome Pro 6.0.0-alpha2 by @fontawesome - https://fontawesome.com License - https://fontawesome.com/license (Commercial License) --><path d="M571.654 357.156C568.638 353.969 564.435 352.125 560.045 352.125C484.763 351.906 373.17 352 264.56 352.094C171.201 352.188 79.982 352.219 16.029 352.125C16.013 352.125 16.013 352.125 15.998 352.125C11.592 352.125 7.388 353.938 4.357 357.156C1.326 360.344 -0.237 364.688 0.029 369.094C4.357 441.438 169.998 480 287.935 480H291.263C406.138 480 571.654 441 575.967 369.094C576.232 364.688 574.67 360.375 571.654 357.156ZM291.482 448C290.326 448 289.279 448.25 287.998 448C183.513 448 72.06 417.562 40.623 384.156C102.279 384.281 182.607 384.156 264.576 384.094C361.888 384.062 461.592 384 535.388 384.062C504.045 417.344 393.107 448 291.482 448ZM47.998 320C56.842 320 63.998 312.844 63.998 304V274.875C63.998 185.602 123.683 109.037 207.998 84.938V272C207.998 280.844 215.154 288 223.998 288S239.998 280.844 239.998 272V64C239.998 55.188 247.17 48 255.998 48H319.998C328.826 48 335.998 55.188 335.998 64V272C335.998 280.844 343.154 288 351.998 288S367.998 280.844 367.998 272V84.938C452.312 109.037 511.998 185.602 511.998 274.875V304C511.998 312.844 519.154 320 527.998 320S543.998 312.844 543.998 304V274.875C543.998 167.313 469.709 74.943 365.912 50.773C360.127 30.764 341.847 16 319.998 16H255.998C234.148 16 215.869 30.764 210.084 50.773C106.287 74.943 31.998 167.312 31.998 274.875V304C31.998 312.844 39.154 320 47.998 320Z"/></svg>