<svg xmlns="http://www.w3.org/2000/svg" viewBox="0 0 640 512"><!-- Font Awesome Pro 6.0.0-alpha2 by @fontawesome - https://fontawesome.com License - https://fontawesome.com/license (Commercial License) --><path d="M572.219 96C561.75 96 551.281 98.469 541.906 103.156L505.469 121.375C490.25 87.219 455.344 64 416 64C391.324 64 369.023 73.617 352 88.969V48C352 39.156 344.844 32 336 32S320 39.156 320 48V96.031C292.5 75.375 258.406 64 224 64H176C78.969 64 0 142.969 0 240V432C0 458.469 21.531 480 48 480H80C106.469 480 128 458.469 128 432V390.02C151.016 396.393 178.572 400 208 400S264.984 396.393 288 390.02V432C288 458.469 309.531 480 336 480H368C394.469 480 416 458.469 416 432V288H576V320C576 328.836 583.164 336 592 336S608 328.836 608 320V285.053C626.584 278.426 640 260.832 640 240V163.781C640 126.406 609.594 96 572.219 96ZM608 240C608 248.812 600.812 256 592 256H400C391.156 256 384 263.156 384 272V432C384 440.812 376.812 448 368 448H336C327.188 448 320 440.812 320 432V377.758C323.17 376.074 326.236 374.348 328.969 372.5C336.281 367.562 338.219 357.594 333.25 350.281S318.344 341.031 311.031 346C291.281 359.375 250.812 368 208 368S124.719 359.375 104.969 346C97.687 341.031 87.719 342.969 82.75 350.281S79.719 367.563 87.031 372.5C89.764 374.348 92.83 376.074 96 377.758V432C96 440.812 88.812 448 80 448H48C39.188 448 32 440.812 32 432V240C32 160.594 96.594 96 176 96H224C251.531 96 278.812 105.094 300.812 121.625L320 136.01V160C320 168.844 327.156 176 336 176S352 168.844 352 160C352 124.719 380.719 96 416 96C446.75 96 474.406 118 480.312 147.188L484.469 167.656L556.219 131.781C561.156 129.312 566.688 128 572.219 128C591.938 128 608 144.062 608 163.781V240ZM432 144C423.164 144 416 151.162 416 160C416 168.836 423.164 176 432 176S448 168.836 448 160C448 151.162 440.836 144 432 144Z"/></svg>