<svg xmlns="http://www.w3.org/2000/svg" viewBox="0 0 512 512"><!-- Font Awesome Pro 6.0.0-alpha2 by @fontawesome - https://fontawesome.com License - https://fontawesome.com/license (Commercial License) --><path d="M356.995 204.8C373.152 199.175 386.153 187.582 393.591 172.208C401.029 156.803 402.029 139.429 396.435 123.305C390.466 106.15 377.434 92.307 360.652 85.276C352.433 81.839 343.12 85.682 339.713 93.838C336.276 101.994 340.12 111.368 348.276 114.774C356.683 118.305 363.214 125.242 366.183 133.804C368.996 141.898 368.496 150.553 364.777 158.272C361.058 165.959 354.558 171.771 346.495 174.552C329.775 180.426 311.556 171.521 305.774 154.866C302.837 146.491 293.586 142.116 285.398 144.991C277.054 147.928 272.617 157.022 275.523 165.365C284.742 191.77 309.556 208.331 336.057 208.331C343.026 208.331 350.089 207.175 356.995 204.8ZM154.986 204.8C161.924 207.206 168.956 208.331 175.925 208.331C202.426 208.331 227.24 191.77 236.459 165.365C239.365 157.022 234.927 147.928 226.583 144.991C218.395 142.148 209.145 146.491 206.207 154.866C200.426 171.521 182.144 180.426 165.487 174.552C157.424 171.771 150.924 165.959 147.205 158.272C143.486 150.553 142.986 141.898 145.798 133.804C148.767 125.242 155.299 118.305 163.706 114.774C171.862 111.368 175.706 101.994 172.268 93.838C168.893 85.714 159.518 81.87 151.33 85.276C134.548 92.307 121.516 106.15 115.547 123.305C109.953 139.429 110.953 156.803 118.391 172.208C125.829 187.582 138.829 199.175 154.986 204.8ZM319.994 63.996C319.994 28.717 291.274 0 255.991 0S191.988 28.717 191.988 63.996S220.708 127.992 255.991 127.992S319.994 99.275 319.994 63.996ZM255.991 95.994C238.334 95.994 223.989 81.651 223.989 63.996S238.334 31.998 255.991 31.998S287.992 46.341 287.992 63.996S273.648 95.994 255.991 95.994ZM245.053 258.453C246.428 247.36 241.928 236.798 232.99 230.142C224.021 223.486 212.02 222.143 201.551 226.736C170.237 240.548 136.736 247.797 104.422 247.797C103.047 247.797 101.484 247.797 100.39 247.766C90.984 247.766 82.108 252.266 76.545 259.859C70.951 267.484 69.389 277.358 72.326 286.108C76.358 298.669 79.264 311.825 80.983 325.324C81.764 331.292 77.452 336.823 71.17 337.948C58.451 340.229 45.544 341.417 32.637 341.417C31.7 341.417 31.981 341.354 29.793 341.385C20.23 341.385 11.167 346.01 5.542 353.76C0.042 361.384 -1.489 371.196 1.511 380.133C11.699 409.912 15.011 441.911 11.355 475.065C10.011 486.814 14.824 498.063 24.231 505.157C30.2 509.656 37.294 512 44.544 512C49.013 512 53.576 511.094 57.982 509.281C88.702 496.313 120.36 489.751 152.049 489.751C153.205 489.751 154.518 489.814 155.455 489.783C164.893 489.783 173.8 485.283 179.394 477.658C184.988 470.034 186.582 460.191 183.613 451.285C179.55 439.161 176.612 426.036 174.862 412.225C174.081 406.35 178.425 400.851 184.769 399.726C198.895 397.195 212.301 396.32 225.927 396.163C235.74 396.601 244.74 391.632 250.397 383.82C255.928 376.196 257.46 366.415 254.491 357.509C244.147 326.824 240.865 292.576 245.053 258.453ZM100.359 279.764C100.39 279.764 100.39 279.764 100.421 279.764L100.359 279.858V279.764ZM179.144 368.228C155.955 372.352 140.142 393.476 143.111 416.318C144.955 430.786 147.955 444.723 152.08 457.753C116.047 457.785 80.139 465.128 43.169 478.658C47.169 442.004 43.763 406.631 32.981 373.415C47.575 373.383 62.326 372.071 76.827 369.446C99.953 365.321 115.703 344.104 112.735 321.23C110.922 307.075 107.953 293.17 103.859 279.795H104.39C140.892 279.795 178.581 271.702 213.114 256.078C208.801 293.107 212.208 330.355 222.989 364.134C208.833 364.165 194.082 365.54 179.144 368.228ZM506.44 353.76C500.814 346.01 491.751 341.385 482.032 341.385H481.907C468.657 341.323 454.437 340.385 440.78 337.948C434.53 336.823 430.217 331.292 430.999 325.293C432.718 311.825 435.624 298.669 439.624 286.264C442.593 277.358 441.03 267.484 435.436 259.859C429.874 252.266 420.998 247.766 411.592 247.766H411.123C377.653 248.829 342.901 241.048 310.431 226.736C302.305 223.174 292.899 226.799 289.336 234.892C285.742 242.985 289.43 252.422 297.493 255.984C332.869 271.608 370.84 279.795 407.591 279.795H408.123C404.029 293.17 401.06 307.075 399.247 321.199C396.278 344.104 412.029 365.321 435.124 369.446C449.656 372.071 464.406 373.383 479.001 373.415C468.219 406.631 464.719 442.067 466.438 479.783C431.749 465.159 395.935 457.785 359.902 457.753C364.027 444.723 367.027 430.817 368.84 416.475C369.465 412.1 370.621 396.726 358.933 383.258C347.932 370.571 329.525 364.134 304.306 364.134H303.962C295.118 364.165 287.961 371.321 287.992 380.164C288.024 389.008 295.18 396.132 303.993 396.132H304.274C319.212 396.132 330.307 399.069 334.776 404.225C337.682 407.6 337.245 411.475 337.119 412.256C335.369 426.036 332.432 439.161 328.369 451.285C325.4 460.191 326.994 470.034 332.588 477.658C338.245 485.408 346.839 490.033 356.933 489.783C390.247 489.908 422.342 495.907 454.093 509.313C458.437 511.125 462.969 512 467.438 512C474.657 512 481.751 509.688 487.751 505.157C497.158 498.063 501.971 486.814 500.627 475.159C496.97 441.911 500.283 409.912 510.533 380.008C513.471 371.196 511.94 361.384 506.44 353.76ZM358.745 461.409V461.378L358.777 461.409H358.745Z"/></svg>