<svg xmlns="http://www.w3.org/2000/svg" viewBox="0 0 576 512"><!-- Font Awesome Pro 6.0.0-alpha2 by @fontawesome - https://fontawesome.com License - https://fontawesome.com/license (Commercial License) --><path d="M569.648 460.875C512.018 383.875 512.018 320 512.018 320V256C512.018 172 465.639 133 410.76 73.25L450.513 33.5C463.014 21.125 454.139 0 436.637 0H287.625C191.992 0 63.982 109.5 63.982 256V320C63.982 320 63.982 383.875 6.352 460.875C-9.399 481.875 5.977 512 32.354 512H543.646C570.023 512 585.399 481.875 569.648 460.875ZM191.992 480V320C191.992 267 234.996 224 288 224C340.879 224 384.008 267 384.008 320V480H191.992ZM416.01 480V320C416.01 249.25 358.631 192 288 192C217.244 192 159.99 249.25 159.99 320V480H31.979C95.234 395.5 95.984 323 95.984 320V256C95.984 126 210.494 32 287.625 32H406.885L366.506 72.375C366.506 72.375 399.384 108 405.135 114.125C450.263 162.125 480.016 193.875 480.016 256V320C480.016 323 480.766 395.5 543.646 480H416.01Z"/></svg>