<svg xmlns="http://www.w3.org/2000/svg" viewBox="0 0 576 512"><!-- Font Awesome Pro 6.0.0-alpha2 by @fontawesome - https://fontawesome.com License - https://fontawesome.com/license (Commercial License) --><path d="M576.001 256.01C576.001 251.575 574.169 247.161 570.577 244L511.947 192.266C511.949 192.172 511.999 192.094 511.999 192V48C511.999 39.156 504.843 32 495.999 32H400C391.156 32 384 39.156 384 48V79.373L298.579 4C295.563 1.344 291.782 0.016 288.001 0.016S280.438 1.344 277.422 4L5.424 244C1.832 247.161 0 251.575 0 256.01C0 264.997 7.315 271.993 16.061 271.993C19.815 271.993 23.57 270.68 26.58 268L64.002 234.982V432C64.002 476.125 99.892 512 144.001 512H432C476.109 512 511.999 476.125 511.999 432V234.982L549.421 268C552.452 270.688 556.233 272 559.999 272C568.726 272 576.001 264.947 576.001 256.01ZM416 64H479.999V164.078L416 107.608V64ZM479.999 208V432C479.999 458.469 458.468 480 432 480H144.001C117.533 480 96.002 458.469 96.002 432V208C96.002 207.623 95.812 207.309 95.787 206.938L288.001 37.344L480.214 206.938C480.189 207.309 479.999 207.623 479.999 208ZM256.001 208V256H208.001C199.165 256 192.001 263.162 192.001 272V304C192.001 312.836 199.165 320 208.001 320H256.001V368C256.001 376.836 263.165 384 272.001 384H304C312.836 384 320 376.836 320 368V320H368C376.836 320 384 312.836 384 304V272C384 263.162 376.836 256 368 256H320V208C320 199.162 312.836 192 304 192H272.001C263.165 192 256.001 199.162 256.001 208Z "></path></svg>