<svg xmlns="http://www.w3.org/2000/svg" viewBox="0 0 640 512"><!-- Font Awesome Pro 6.0.0-alpha2 by @fontawesome - https://fontawesome.com License - https://fontawesome.com/license (Commercial License) --><path d="M536 80H488C474.746 80 464 90.744 464 104V152C464 165.254 474.746 176 488 176H536C549.254 176 560 165.254 560 152V104C560 90.744 549.254 80 536 80ZM528 144H496V112H528V144ZM234.715 255.971H149.393C137.633 255.971 128 265.471 128 277.348V362.609C128 374.486 137.633 383.986 149.393 383.986H234.715C246.475 383.986 256.107 374.361 256.107 362.609V277.348C256.107 265.596 246.6 255.971 234.715 255.971ZM224.08 351.982H160.027V287.975H224.08V351.982ZM576 0H320C284.654 0 256 28.652 256 64V80C256 88.836 263.164 96 272 96S288 88.836 288 80V64C288 46.326 302.326 32 320 32H576C593.674 32 608 46.326 608 64V496C608 504.836 615.164 512 624 512S640 504.836 640 496V64C640 28.652 611.346 0 576 0ZM536 208H488C474.746 208 464 218.744 464 232V280C464 293.254 474.746 304 488 304H536C549.254 304 560 293.254 560 280V232C560 218.744 549.254 208 536 208ZM528 272H496V240H528V272ZM215.477 105.078C208.82 99.025 200.408 96 191.996 96S175.17 99.025 168.514 105.078L17.139 242.691C6.223 252.613 0 266.682 0 281.434V448C0 483.346 28.654 512 64 512H319.994C355.34 512 383.992 483.441 383.994 448.098C383.998 394.322 384 320.908 384 281.107C384 266.455 377.818 252.656 366.977 242.801L215.477 105.078ZM351.994 448C351.992 465.6 337.592 480 319.994 480H64C46.326 480 32 465.672 32 448V281.438C32 275.699 34.42 270.227 38.666 266.365L191.996 127.998L345.357 266.395C349.588 270.24 352 275.693 352 281.41L351.994 448ZM536 336H488C474.746 336 464 346.744 464 360V408C464 421.254 474.746 432 488 432H536C549.254 432 560 421.254 560 408V360C560 346.744 549.254 336 536 336ZM528 400H496V368H528V400ZM408 80H360C346.746 80 336 90.744 336 104V152C336 165.254 346.746 176 360 176H408C421.254 176 432 165.254 432 152V104C432 90.744 421.254 80 408 80ZM400 144H368V112H400V144Z"/></svg>