<svg xmlns="http://www.w3.org/2000/svg" viewBox="0 0 512 512"><!-- Font Awesome Pro 6.0.0-alpha2 by @fontawesome - https://fontawesome.com License - https://fontawesome.com/license (Commercial License) --><path d="M256 256C291.346 256 320 227.346 320 192S291.346 128 256 128S192 156.654 192 192S220.654 256 256 256ZM256 160C273.645 160 288 174.355 288 192S273.645 224 256 224S224 209.645 224 192S238.355 160 256 160ZM288 288H224C179.816 288 144 323.816 144 368C144 376.836 151.164 384 160 384S176 376.836 176 368C176 341.49 197.49 320 224 320H288C314.51 320 336 341.49 336 368C336 376.836 343.164 384 352 384S368 376.836 368 368C368 323.816 332.184 288 288 288ZM448 32H64C28.654 32 0 60.654 0 96V416C0 451.346 28.654 480 64 480H448C483.346 480 512 451.346 512 416V96C512 60.654 483.346 32 448 32ZM480 416C480 433.645 465.645 448 448 448H64C46.355 448 32 433.645 32 416V96C32 78.355 46.355 64 64 64H448C465.645 64 480 78.355 480 96V416Z"/></svg>