<svg xmlns="http://www.w3.org/2000/svg" viewBox="0 0 320 512"><!-- Font Awesome Pro 6.0.0-alpha2 by @fontawesome - https://fontawesome.com License - https://fontawesome.com/license (Commercial License) --><path d="M320.001 160C320.001 168.844 312.845 176 304.001 176H255.193C250.958 247.201 192.245 304 120.001 304H64.876L265.47 451.094C272.595 456.328 274.126 466.344 268.907 473.469C265.767 477.734 260.907 480 255.986 480C252.704 480 249.392 479 246.532 476.906L6.532 300.906C0.954 296.812 -1.358 289.594 0.798 283.016C2.954 276.453 9.079 272 16.001 272H120.001C174.605 272 219.027 229.553 223.193 176H16.001C7.157 176 0.001 168.844 0.001 160S7.157 144 16.001 144H220.931C210.031 98.238 169.05 64 120.001 64H16.001C7.157 64 0.001 56.844 0.001 48S7.157 32 16.001 32H304.001C312.845 32 320.001 39.156 320.001 48S312.845 64 304.001 64H206.573C230.644 84.076 247.816 111.912 253.575 144H304.001C312.845 144 320.001 151.156 320.001 160Z"/></svg>