<svg xmlns="http://www.w3.org/2000/svg" viewBox="0 0 640 512"><!-- Font Awesome Pro 6.0.0-alpha2 by @fontawesome - https://fontawesome.com License - https://fontawesome.com/license (Commercial License) --><path d="M112 160C103.164 160 96 167.162 96 176V336C96 344.836 103.164 352 112 352S128 344.836 128 336V176C128 167.162 120.836 160 112 160ZM576.002 64H63.998C28.654 64 0 92.652 0 128V384C0 419.346 28.654 448 63.998 448H576.002C611.346 448 640 419.348 640 384V128C640 92.654 611.346 64 576.002 64ZM608 384C608 401.645 593.646 416 576.002 416H63.998C46.355 416 32 401.645 32 384V128C32 110.355 46.355 96 63.998 96H576.002C593.646 96 608 110.355 608 128V384Z"/></svg>