<svg xmlns="http://www.w3.org/2000/svg" viewBox="0 0 576 512"><!-- Font Awesome Pro 6.0.0-alpha2 by @fontawesome - https://fontawesome.com License - https://fontawesome.com/license (Commercial License) --><path d="M512 0H64C28.654 0 0 28.654 0 64V224C0 259.346 28.654 288 64 288H512C547.348 288 576 259.346 576 224V64C576 28.654 547.348 0 512 0ZM544 224C544 241.645 529.645 256 512 256H64C46.355 256 32 241.645 32 224V64C32 46.355 46.355 32 64 32H512C529.645 32 544 46.355 544 64V224ZM180 120H204C210.629 120 216 114.627 216 108V84C216 77.373 210.629 72 204 72H180C173.373 72 168 77.373 168 84V108C168 114.627 173.373 120 180 120ZM108 168H84C77.373 168 72 173.373 72 180V204C72 210.627 77.373 216 84 216H108C114.629 216 120 210.627 120 204V180C120 173.373 114.629 168 108 168ZM372 120H396C402.629 120 408 114.627 408 108V84C408 77.373 402.629 72 396 72H372C365.373 72 360 77.373 360 84V108C360 114.627 365.373 120 372 120ZM276 120H300C306.629 120 312 114.627 312 108V84C312 77.373 306.629 72 300 72H276C269.373 72 264 77.373 264 84V108C264 114.627 269.373 120 276 120ZM492 72H468C461.373 72 456 77.373 456 84V108C456 114.627 461.373 120 468 120H492C498.629 120 504 114.627 504 108V84C504 77.373 498.629 72 492 72ZM492 168H468C461.373 168 456 173.373 456 180V204C456 210.627 461.373 216 468 216H492C498.629 216 504 210.627 504 204V180C504 173.373 498.629 168 492 168ZM400 176H176C167.156 176 160 183.156 160 192S167.156 208 176 208H400C408.844 208 416 200.844 416 192S408.844 176 400 176ZM108 72H84C77.373 72 72 77.373 72 84V108C72 114.627 77.373 120 84 120H108C114.629 120 120 114.627 120 108V84C120 77.373 114.629 72 108 72ZM387.969 357.469L288 471.703L188.031 357.469C182.219 350.781 172.094 350.141 165.469 355.953C158.813 361.781 158.125 371.891 163.969 378.531L275.969 506.531C279 510.016 283.375 512 288 512S297 510.016 300.031 506.531L412.031 378.531C417.875 371.891 417.188 361.781 410.531 355.953C403.906 350.141 393.812 350.781 387.969 357.469Z"/></svg>