<svg xmlns="http://www.w3.org/2000/svg" viewBox="0 0 576 512"><!-- Font Awesome Pro 6.0.0-alpha2 by @fontawesome - https://fontawesome.com License - https://fontawesome.com/license (Commercial License) --><path d="M463.974 200C450.726 200 439.976 210.75 439.976 224S450.726 248 463.974 248S487.972 237.25 487.972 224S477.222 200 463.974 200ZM562.589 276C571.714 258.75 576.964 239.125 575.839 218C572.589 157.375 518.218 112 457.599 112H448.226C395.48 112 343.984 95.75 300.488 65.75C269.742 44.5 232.371 32 191.998 32C177.374 32 162.501 33.625 147.376 37C76.384 53.125 19.513 110.875 4.39 182.125C-14.108 270 27.638 350.375 96.007 390V464.002C96.007 472.801 103.207 480 112.005 480S128.003 472.801 128.003 464.002V405.125C148.001 412.125 169.499 416 191.998 416C202.873 416 213.496 414.875 223.996 413.125V464.002C223.996 472.801 231.195 480 239.994 480C248.794 480 255.992 472.801 255.992 464.002V404.5C270.9 399.27 285.124 392.533 298.091 383.861C342.876 353.914 394.601 336 448.476 336H463.974C466.599 336 468.974 335.375 471.474 335.25L545.966 471.625C548.716 476.875 554.216 480 559.966 480C561.464 480 562.964 479.75 564.464 479.375C571.714 477.25 576.464 470.375 575.964 462.875L562.589 276ZM504.095 328.125C514.72 324.125 524.343 318.5 532.968 311.625L538.718 391.75L504.095 328.125ZM521.968 279C506.72 295.125 486.097 304 463.974 304H448.476C391.105 304 334.111 322.25 278.865 358.25C252.994 375.125 222.996 384 191.998 384C143.503 384 98.132 362.375 67.634 324.625C37.013 287 25.513 237.375 35.763 188.75C48.136 129.875 95.882 81.5 154.376 68.25C166.876 65.5 179.499 64 191.998 64C224.496 64 255.744 73.75 282.365 92.125C331.611 126 388.98 144 448.226 144H457.599C502.97 144 541.716 178 543.841 219.625C544.966 241.875 537.218 263 521.968 279Z"/></svg>