<svg xmlns="http://www.w3.org/2000/svg" viewBox="0 0 512 512"><!-- Font Awesome Pro 6.0.0-alpha2 by @fontawesome - https://fontawesome.com License - https://fontawesome.com/license (Commercial License) --><path d="M74.003 512C61.769 512 50.409 507.297 42.191 499.094L12.941 469.844C4.581 461.531 -0.138 449.953 0.003 438.078C0.175 426.234 5.191 414.781 13.753 406.625L408.081 14.406C426.675 -4.172 459.253 -4.203 477.847 14.438L477.847 14.438C477.847 14.438 477.847 14.438 477.862 14.438C507.237 43.844 528.128 133.344 495.409 212.344C472.784 266.938 418.112 332 286.097 332H266.019L105.316 498.375C97.175 506.844 85.753 511.828 74.003 512ZM442.956 32C438.316 32 433.941 33.797 430.675 37.078L36.066 429.562C33.441 432.062 32.05 435.25 32.003 438.516C31.956 441.688 33.284 444.953 35.534 447.188L64.8 476.453C67.05 478.703 70.175 480 73.331 480C76.753 479.953 80.003 478.531 82.253 476.188L247.706 304.891C250.722 301.766 254.878 300 259.222 300H286.097C400.441 300 446.956 245.672 465.847 200.094C494.722 130.359 473.972 55.812 455.222 37.062C455.222 37.062 455.222 37.062 455.206 37.062C451.956 33.797 447.612 32 442.956 32Z"/></svg>