<svg xmlns="http://www.w3.org/2000/svg" viewBox="0 0 448 512"><!-- Font Awesome Pro 6.0.0-alpha2 by @fontawesome - https://fontawesome.com License - https://fontawesome.com/license (Commercial License) --><path d="M448 464C448 472.799 440.801 480 432 480H362.25C349.734 480 338.363 472.723 333.119 461.359L177.76 124.715L30.725 470.25C28.131 476.344 22.225 480 16.006 480C13.912 480 11.787 479.594 9.756 478.719C1.6 475.25 -2.182 465.875 1.287 457.75L159.678 85.531L151.891 68.658C150.586 65.818 147.748 64 144.625 64H16C7.199 64 0 56.799 0 48C0 39.199 7.199 32 16 32H149.75C162.266 32 173.639 39.277 178.883 50.641L360.125 443.375C361.375 446.25 364.25 448 367.375 448H432C440.801 448 448 455.199 448 464Z"/></svg>