<svg xmlns="http://www.w3.org/2000/svg" viewBox="0 0 512 512"><!-- Font Awesome Pro 6.0.0-alpha2 by @fontawesome - https://fontawesome.com License - https://fontawesome.com/license (Commercial License) --><path d="M496 480H16C7.164 480 0 487.162 0 496C0 504.836 7.164 512 16 512H496C504.836 512 512 504.836 512 496C512 487.162 504.836 480 496 480ZM40 448H472C480.836 448 488 440.836 488 432C488 423.162 480.836 416 472 416H40C31.164 416 24 423.162 24 432C24 440.836 31.164 448 40 448ZM48 256H80V352H64C55.164 352 48 359.162 48 368C48 376.836 55.164 384 64 384H448C456.836 384 464 376.836 464 368C464 359.162 456.836 352 448 352H432V256H464C472.836 256 480 248.836 480 240C480 231.162 472.836 224 464 224H448C448 123.525 370.398 40.984 272 32.811V16C272 7.156 264.844 0 256 0S240 7.156 240 16V32.811C141.602 40.984 64 123.525 64 224H48C39.164 224 32 231.162 32 240C32 248.836 39.164 256 48 256ZM240 352H112V256H240V352ZM400 352H272V256H400V352ZM256 64C344.219 64 416 135.781 416 224H96C96 135.781 167.781 64 256 64Z"/></svg>