<svg xmlns="http://www.w3.org/2000/svg" viewBox="0 0 640 512"><!-- Font Awesome Pro 6.0.0-alpha2 by @fontawesome - https://fontawesome.com License - https://fontawesome.com/license (Commercial License) --><path d="M80 352C88.844 352 96 344.844 96 336V96C96 78.344 110.359 64 128 64H512C529.641 64 544 78.344 544 96V336C544 344.844 551.156 352 560 352S576 344.844 576 336V96C576 60.719 547.297 32 512 32H128C92.703 32 64 60.719 64 96V336C64 344.844 71.156 352 80 352ZM624 384H16C7.25 384 0 391.25 0 400V416C0 451.25 28.75 480 64 480H576C611.25 480 640 451.25 640 416V400C640 391.25 632.75 384 624 384ZM576 448H64C46.355 448 32 433.645 32 416H608C608 433.645 593.645 448 576 448ZM304 320H336C344.836 320 352 312.836 352 304V256H400C408.836 256 416 248.836 416 240V208C416 199.162 408.836 192 400 192H352V144C352 135.162 344.836 128 336 128H304C295.164 128 288 135.162 288 144V192H240C231.164 192 224 199.162 224 208V240C224 248.836 231.164 256 240 256H288V304C288 312.836 295.164 320 304 320Z"/></svg>