<svg xmlns="http://www.w3.org/2000/svg" viewBox="0 0 576 512"><!-- Font Awesome Pro 6.0.0-alpha2 by @fontawesome - https://fontawesome.com License - https://fontawesome.com/license (Commercial License) --><path d="M576 175.998C576 104.115 505.336 42.508 404.238 15.223C394.059 12.477 384 20.182 384 30.727V31.123C384 38.271 388.713 44.654 395.613 46.516C482.199 69.844 544 119.504 544 175.998C544 254.055 426.768 320 288 320C149.234 320 32 254.055 32 175.998C32 113.053 108.336 58.16 210.643 39.232C218.33 37.811 224 31.264 224 23.447C224 13.428 214.873 5.854 205.018 7.664C86.467 29.434 0 96.455 0 175.998C0 244.021 63.258 302.92 155.686 332.219C223.234 357.559 208.861 419.951 203.494 433.48C192.152 462.072 163.207 479.84 132.447 479.84H48.939C40.93 479.84 33.506 485.313 32.221 493.219C30.582 503.293 38.314 512 48.08 512H131.607C179.885 512 223.973 481.068 237.025 434.59C245.824 403.26 239.297 372.008 222.957 347.324C243.889 350.283 265.596 352 288 352C447.059 352 576 273.201 576 175.998ZM560 416H512V368C512 359.156 504.844 352 496 352S480 359.156 480 368V416H432C423.156 416 416 423.156 416 432S423.156 448 432 448H480V496C480 504.844 487.156 512 496 512S512 504.844 512 496V448H560C568.844 448 576 440.844 576 432S568.844 416 560 416ZM240 96H288V144C288 152.844 295.156 160 304 160S320 152.844 320 144V96H368C376.844 96 384 88.844 384 80S376.844 64 368 64H320V16C320 7.156 312.844 0 304 0S288 7.156 288 16V64H240C231.156 64 224 71.156 224 80S231.156 96 240 96Z"/></svg>