<svg xmlns="http://www.w3.org/2000/svg" viewBox="0 0 512 512"><!-- Font Awesome Pro 6.0.0-alpha2 by @fontawesome - https://fontawesome.com License - https://fontawesome.com/license (Commercial License) --><path d="M479.572 213.233C475.963 180.312 446.974 165.763 440.519 161.826C452.99 119.17 436.582 95.546 426.299 85.702C423.306 82.543 400.286 56.836 350.164 71.482C346.224 65.029 331.676 36.045 298.75 32.435C259.133 28.037 242.894 57.626 223.816 91.499C217.307 86.24 197.599 71.308 172.842 76.075C108.301 88.874 124.271 179.109 125.256 189.062C92.935 180.024 60.496 201.115 60.496 246.264C60.496 280.062 85.656 310.03 79.203 326.983C67.928 358.25 69.285 386.589 81.728 407.648L36.688 452.688C30.438 458.938 30.438 469.063 36.688 475.313C39.812 478.438 43.906 480 48 480C52.094 480 56.187 478.438 59.312 475.313L104.394 430.231C115.676 436.878 128.918 440.538 143.734 440.538C156.576 440.538 170.478 437.977 184.982 432.749C202.367 426.144 231.323 451.452 265.713 451.452C312.752 451.452 331.457 417.218 322.926 386.703C326.347 387.041 339.265 389.15 355.26 389.15C385.785 389.15 427.527 381.468 435.925 339.123C437.129 332.889 440.3 312.655 420.502 288.156C452.552 270.109 484.056 253.701 479.572 213.233ZM407.633 258.68C403.829 260.817 409.602 257.568 371.828 278.837L395.613 308.269C400.648 314.501 406.281 323.86 404.537 332.899C403.22 339.532 399.726 357.151 355.26 357.151C344.205 357.151 334.802 355.945 329.75 355.297C324.69 354.692 332.142 355.457 279.506 350.252C292.657 397.282 296.276 402.467 289.812 410.987C285.67 416.446 277.111 419.452 265.713 419.452C254.849 419.452 242.545 414.577 230.644 409.863C215.637 403.917 194.342 394.93 174.131 402.646C144.896 413.188 129.337 406.401 128.49 406.136L315.312 219.317C321.562 213.067 321.562 202.942 315.312 196.692S298.937 190.442 292.687 196.692L105.822 383.554C101.91 371.285 102.885 355.645 109.109 338.368C116.746 318.309 108.957 298.659 102.088 281.324C97.371 269.425 92.496 257.123 92.496 246.264C92.496 236.297 94.855 228.323 99.141 223.809C108.602 213.842 121.708 221.295 161.705 232.475C154.949 164.141 146.13 113.996 178.906 107.495C189.952 105.375 200.788 114.032 203.705 116.389L233.133 140.164C254.403 102.402 251.153 108.174 253.295 104.362C270.592 73.587 278.08 64.005 291.226 64.007H291.228C307.284 64.007 314.758 74.478 322.849 88.153L335.617 109.071L359.14 102.196C386.388 94.231 398.288 102.674 404.17 108.817C409.57 113.987 417.484 126.582 409.806 152.847L402.927 176.376C426.582 190.807 422.894 188.575 426.097 190.47C436.021 196.251 446.357 203.891 447.767 216.756C449.466 232.098 443.09 238.758 407.633 258.68Z"/></svg>