<svg xmlns="http://www.w3.org/2000/svg" viewBox="0 0 512 512"><!-- Font Awesome Pro 6.0.0-alpha2 by @fontawesome - https://fontawesome.com License - https://fontawesome.com/license (Commercial License) --><path d="M465.996 175.061L442.152 160.623L449.48 94.234C451.238 78.1 439.01 62.357 420.937 62.357C419.896 62.357 418.84 62.408 417.762 62.516L351.373 69.844L336.936 45.891C331.795 37.359 322.717 32.109 312.654 32C303.467 32 293.514 36.812 288.154 45.344L250.529 104.297C245.398 90.303 233.027 85.428 223.277 85.426C219.311 85.426 215.779 86.232 213.342 87.563L201.311 94.016L170.578 59.234C165.109 52.453 157.016 48.516 148.156 48.516C139.406 48.516 131.203 52.344 126.172 58.688L95 94.016L82.969 87.562C79.959 85.936 76.553 85.174 73.037 85.174C57.641 85.174 40.146 99.766 44.687 120.156L70.391 245.062L49.391 254.031C26.203 263.984 26.203 296.906 49.391 306.859L142.568 346.805L36.687 452.687C33.563 455.812 32 459.906 32 464C32 468.094 33.562 472.187 36.688 475.312C39.813 478.438 43.906 480 48 480S56.188 478.438 59.313 475.312L165.193 369.43L205.139 462.609C209.732 473.219 220.123 480 231.607 480S253.482 473.219 257.967 462.609L266.936 441.609L391.621 467.313C393.701 467.77 395.781 467.986 397.832 467.986C416.406 467.986 432.74 450.238 425.746 432.313L417.98 416.998L452.762 386.264C467.309 374.561 466.871 353.014 453.09 341.75L417.98 310.688L424.434 298.656C430.012 288.375 425.418 267.922 407.699 261.469L466.762 223.844C475.785 218.102 480.16 208.64 479.996 199.247C479.832 189.854 475.129 180.529 465.996 175.061ZM390.506 234.479L335.789 269.336L392.727 290.07L389.781 295.561L377.813 317.875L396.777 334.652L429.805 363.846L396.791 393.02L378.25 409.404L389.441 431.475L390.979 434.506L273.396 410.266L247.781 404.986L237.508 429.041L231.547 442.996L193.754 354.842C192.691 352.365 190.707 349.334 188.418 346.205L315.313 219.311C321.563 213.061 321.563 202.936 315.313 196.684C309.063 190.434 298.938 190.434 292.688 196.684L165.773 323.6C162.773 321.42 159.777 319.367 157.156 318.244L69.004 280.451L82.959 274.492L107.004 264.223L101.734 238.613L77.518 120.951L79.875 122.215L102.219 134.199L118.994 115.187L148.135 82.162L177.332 115.205L194.109 134.191L216.436 122.215L221.936 119.266L242.734 175.992L277.504 121.512L312.295 67L323.967 86.363L334.535 103.896L354.883 101.65L417.229 94.766L410.346 157.113L408.105 177.416L425.578 187.996L445.006 199.76L390.506 234.479Z"/></svg>