<svg xmlns="http://www.w3.org/2000/svg" viewBox="0 0 512 512"><!-- Font Awesome Pro 6.0.0-alpha2 by @fontawesome - https://fontawesome.com License - https://fontawesome.com/license (Commercial License) --><path d="M504.328 238.406L392.328 134.406C385.344 127.922 375.156 126.188 366.406 130S352 142.453 352 152V240H160V152C160 142.453 154.344 133.812 145.594 130S126.656 127.922 119.672 134.406L7.672 238.406C2.557 243.156 0 249.578 0 256S2.557 268.844 7.672 273.594L119.672 377.594C126.656 384.078 136.844 385.812 145.594 382S160 369.547 160 360V272H352V360C352 369.547 357.656 378.188 366.406 382S385.344 384.078 392.328 377.594L504.328 273.594C509.443 268.844 512 262.422 512 256S509.443 243.156 504.328 238.406ZM128 341.656L35.752 256L128 170.34V341.656ZM384 341.656V170.34L476.248 256L384 341.656Z"/></svg>