<svg xmlns="http://www.w3.org/2000/svg" viewBox="0 0 448 512"><!-- Font Awesome Pro 6.0.0-alpha2 by @fontawesome - https://fontawesome.com License - https://fontawesome.com/license (Commercial License) --><path d="M416 176H240V96C240 78.314 225.637 64 208.004 64C199.678 64 191.498 67.252 185.375 73.375L9.375 233.375C3.125 239.625 0 247.812 0 256S3.125 272.375 9.375 278.625L185.375 438.625C191.5 444.748 199.678 448 208.004 448C225.617 448 240 433.703 240 416V336H416C433.674 336 448 321.674 448 304V208C448 190.328 433.674 176 416 176ZM416 304H208L206.9 414.947L32.059 256L208 96.004V208H416V304Z"/></svg>