<svg xmlns="http://www.w3.org/2000/svg" viewBox="0 0 448 512"><!-- Font Awesome Pro 6.0.0-alpha2 by @fontawesome - https://fontawesome.com License - https://fontawesome.com/license (Commercial License) --><path d="M91.5 228.656C84.188 235.531 80 245.5 80 256S84.188 276.469 91.656 283.5L224.547 405.719C235.469 416.062 251.453 418.875 265.312 412.937C279.094 406.938 288 393.406 288 378.406V320H403.172C427.891 320 448 299.906 448 275.188V236.812C448 212.094 427.891 192 403.172 192H288V133.594C288 118.594 279.094 105.062 265.25 99.062C251.453 93.125 235.469 95.938 224.703 106.125L91.5 228.656ZM252.562 128.438C254.656 129.344 256 131.375 256 133.594V224H403.172C410.25 224 416 229.75 416 236.812V275.188C416 282.25 410.25 288 403.172 288H256V378.406C256 380.625 254.656 382.656 252.625 383.562C250.547 384.438 248.156 384 246.359 382.312L113.469 260.094C111.656 258.344 111.812 253.5 113.312 252.062L246.516 129.531C248.156 128 250.547 127.562 252.562 128.438ZM32 432V80C32 71.156 24.844 64 16 64S0 71.156 0 80V432C0 440.844 7.156 448 16 448S32 440.844 32 432Z"/></svg>