<svg xmlns="http://www.w3.org/2000/svg" viewBox="0 0 448 512"><!-- Font Awesome Pro 6.0.0-alpha2 by @fontawesome - https://fontawesome.com License - https://fontawesome.com/license (Commercial License) --><path d="M41.938 206.834L393.938 350.822C395.922 351.635 397.969 352.01 400 352.01C406.297 352.01 412.281 348.26 414.812 342.072C418.156 333.887 414.234 324.543 406.062 321.199L90.25 192.021L406.062 62.844C414.234 59.502 418.156 50.158 414.812 41.971C411.453 33.785 402.078 29.816 393.937 33.223L41.937 177.211C35.922 179.68 32 185.523 32 192.021C32 198.521 35.922 204.365 41.938 206.834ZM432 448.002H16C7.156 448.002 0 455.158 0 464.002C0 472.844 7.156 480 16 480H432C440.844 480 448 472.844 448 464.002C448 455.158 440.844 448.002 432 448.002Z"/></svg>