<svg xmlns="http://www.w3.org/2000/svg" viewBox="0 0 384 512"><!-- Font Awesome Pro 6.0.0-alpha2 by @fontawesome - https://fontawesome.com License - https://fontawesome.com/license (Commercial License) --><path d="M64 512H320C355.375 512 384 483.375 384 448V64C384 28.625 355.375 0 320 0H64C28.625 0 0 28.625 0 64V448C0 483.375 28.625 512 64 512ZM32 64C32 46.375 46.375 32 64 32H176V48C176 56.844 183.156 64 192 64S208 56.844 208 48V32H320C337.625 32 352 46.375 352 64V448C352 465.625 337.625 480 320 480H208V464C208 455.156 200.844 448 192 448S176 455.156 176 464V480H64C46.375 480 32 465.625 32 448V64ZM144 416H240C266.4 416 288 394.4 288 368V144C288 117.6 266.4 96 240 96H144C117.6 96 96 117.6 96 144V368C96 394.4 117.6 416 144 416ZM128 144C128 135.164 135.162 128 144 128H240C248.836 128 256 135.164 256 144V240H128V144ZM128 272H256V368C256 376.836 248.836 384 240 384H144C135.162 384 128 376.836 128 368V272ZM208 160H176C167.156 160 160 167.156 160 176S167.156 192 176 192H208C216.844 192 224 184.844 224 176S216.844 160 208 160Z"/></svg>