<svg xmlns="http://www.w3.org/2000/svg" viewBox="0 0 640 512"><!-- Font Awesome Pro 6.0.0-alpha2 by @fontawesome - https://fontawesome.com License - https://fontawesome.com/license (Commercial License) --><path d="M222.382 404.723L177.529 449.594C136.958 490.135 70.976 490.135 30.406 449.594C-10.135 409.035 -10.135 343.02 30.406 302.463L158.431 174.43C199.003 133.889 264.986 133.889 305.556 174.43C341.97 210.861 346.126 269.312 315.246 310.402C309.931 317.467 311.353 327.5 318.417 332.799C325.466 338.111 335.515 336.705 340.814 329.625C381.228 275.893 375.804 199.436 328.185 151.799C275.144 98.754 188.843 98.785 135.802 151.799L7.775 279.832C-45.25 332.877 -45.25 419.18 7.775 472.225C34.296 498.746 69.132 512 103.966 512C138.802 512 173.638 498.73 200.16 472.225L245.011 427.354C251.263 421.102 251.263 410.975 245.011 404.723C238.761 398.471 228.634 398.471 222.382 404.723ZM568.236 39.771C515.193 -13.273 428.894 -13.242 375.851 39.771L331 84.643C324.748 90.893 324.748 101.021 331 107.273C337.25 113.523 347.376 113.523 353.628 107.273L398.482 62.402C439.052 21.861 505.035 21.861 545.605 62.402C586.146 102.959 586.146 168.977 545.605 209.533L417.58 337.564C377.007 378.105 311.025 378.105 270.455 337.564C234.041 301.135 229.884 242.682 260.765 201.594C266.08 194.529 264.658 184.496 257.593 179.197C250.544 173.852 240.496 175.305 235.197 182.369C194.783 236.102 200.207 312.559 247.826 360.195C274.347 386.719 309.181 399.971 344.017 399.971S413.687 386.703 440.208 360.195L568.236 232.164C621.261 179.119 621.261 92.816 568.236 39.771Z"/></svg>