<svg xmlns="http://www.w3.org/2000/svg" viewBox="0 0 640 512"><!-- Font Awesome Pro 6.0.0-alpha2 by @fontawesome - https://fontawesome.com License - https://fontawesome.com/license (Commercial License) --><path d="M512 192H480C471.156 192 464 199.156 464 208S471.156 224 480 224H512C564.938 224 608 267.062 608 320S564.938 416 512 416H336C283.062 416 240 372.938 240 320S283.062 224 336 224H352C360.844 224 368 216.844 368 208S360.844 192 352 192H336C265.406 192 208 249.422 208 320S265.406 448 336 448H512C582.594 448 640 390.578 640 320S582.594 192 512 192ZM160 288H128C75.062 288 32 244.938 32 192S75.062 96 128 96H304C356.938 96 400 139.062 400 192S356.938 288 304 288H288C279.156 288 272 295.156 272 304S279.156 320 288 320H304C374.594 320 432 262.578 432 192S374.594 64 304 64H128C57.406 64 0 121.422 0 192S57.406 320 128 320H160C168.844 320 176 312.844 176 304S168.844 288 160 288Z"/></svg>