<svg xmlns="http://www.w3.org/2000/svg" viewBox="0 0 320 512"><!-- Font Awesome Pro 6.0.0-alpha2 by @fontawesome - https://fontawesome.com License - https://fontawesome.com/license (Commercial License) --><path d="M320 464C320 472.844 312.844 480 304 480H16C10.469 480 5.312 477.125 2.375 472.406C-0.531 467.688 -0.781 461.812 1.688 456.844C18.271 423.691 30.133 388.289 37.873 352H16C7.156 352 0 344.844 0 336S7.156 320 16 320H43.508C46.215 300.312 48 280.514 48 260.656V256H16C7.156 256 0 248.844 0 240S7.156 224 16 224H48V160.281C48 89.562 105.562 32 176.281 32C199.969 32 223.188 38.438 243.438 50.594L296.219 82.281C303.813 86.813 306.281 96.656 301.719 104.219C297.188 111.813 287.281 114.344 279.781 109.719L226.969 78.031C211.688 68.844 194.156 64 176.281 64C123.188 64 80 107.188 80 160.281V224H240C248.844 224 256 231.156 256 240S248.844 256 240 256H80V260.656C80 280.506 78.279 300.299 75.754 320H240C248.844 320 256 327.156 256 336S248.844 352 240 352H70.779C64.246 384.934 54.422 417.213 41.094 448H304C312.844 448 320 455.156 320 464Z"/></svg>