<svg xmlns="http://www.w3.org/2000/svg" viewBox="0 0 512 512"><!-- Font Awesome Pro 6.0.0-alpha2 by @fontawesome - https://fontawesome.com License - https://fontawesome.com/license (Commercial License) --><path d="M176 112H496C504.797 112 512 104.797 512 96S504.797 80 496 80H176C167.203 80 160 87.203 160 96S167.203 112 176 112ZM496 240H304C295.203 240 288 247.203 288 256S295.203 272 304 272H496C504.797 272 512 264.797 512 256S504.797 240 496 240ZM192 208H160C142.344 208 128 222.344 128 240H64V144C81.656 144 96 129.656 96 112V80C96 62.344 81.656 48 64 48H32C14.344 48 0 62.344 0 80V112C0 129.656 14.344 144 32 144V384C32 410.469 53.531 432 80 432H128C128 449.656 142.344 464 160 464H192C209.656 464 224 449.656 224 432V400C224 382.344 209.656 368 192 368H160C142.344 368 128 382.344 128 400H80C71.172 400 64 392.812 64 384V272H128C128 289.656 142.344 304 160 304H192C209.656 304 224 289.656 224 272V240C224 222.344 209.656 208 192 208ZM160 400H192V432H160V400ZM32 112V80H64V112H32ZM192 272H160V240H192V272ZM496 400H304C295.203 400 288 407.203 288 416S295.203 432 304 432H496C504.797 432 512 424.797 512 416S504.797 400 496 400Z"/></svg>