<svg xmlns="http://www.w3.org/2000/svg" viewBox="0 0 384 512"><!-- Font Awesome Pro 6.0.0-alpha2 by @fontawesome - https://fontawesome.com License - https://fontawesome.com/license (Commercial License) --><path d="M192 0C85.969 0 0 85.969 0 192C0 269.41 26.969 291.035 172.281 501.676C177.047 508.559 184.523 512 192 512S206.953 508.559 211.719 501.676C357.031 291.035 384 269.41 384 192C384 85.969 298.031 0 192 0ZM192 473.918C51.932 271.379 32 255.969 32 192C32 103.777 103.775 32 192 32S352 103.777 352 192C352 255.879 332.566 270.674 192 473.918ZM260.688 143.344L165.328 238.719L123.312 196.688C117.062 190.438 106.937 190.438 100.688 196.688S94.438 213.063 100.688 219.312L154.016 272.656C157.016 275.656 161.078 277.344 165.328 277.344S173.641 275.656 176.641 272.656L283.312 165.969C289.562 159.719 289.562 149.594 283.312 143.344S266.938 137.094 260.688 143.344Z"/></svg>