<svg xmlns="http://www.w3.org/2000/svg" viewBox="0 0 576 512"><!-- Font Awesome Pro 6.0.0-alpha2 by @fontawesome - https://fontawesome.com License - https://fontawesome.com/license (Commercial License) --><path d="M448 0C377.406 0 320 57.406 320 128V224H64C28.654 224 0 252.652 0 288V448C0 483.346 28.654 512 64 512H384C419.348 512 448 483.346 448 448V288C448 252.652 419.348 224 384 224H352V128C352 75.062 395.062 32 448 32S544 75.062 544 128V208C544 216.844 551.156 224 560 224S576 216.844 576 208V128C576 57.406 518.594 0 448 0ZM384 256C401.645 256 416 270.355 416 288V448C416 465.645 401.645 480 384 480H64C46.355 480 32 465.645 32 448V288C32 270.355 46.355 256 64 256H384ZM224 416C232.844 416 240 408.844 240 400V336C240 327.156 232.844 320 224 320S208 327.156 208 336V400C208 408.844 215.156 416 224 416Z"/></svg>