<svg xmlns="http://www.w3.org/2000/svg" viewBox="0 0 384 512"><!-- Font Awesome Pro 6.0.0-alpha2 by @fontawesome - https://fontawesome.com License - https://fontawesome.com/license (Commercial License) --><path d="M316.451 211.558C286.158 181.266 247.568 164.366 207.998 160.775V144.012H256C264.844 144.012 272 136.855 272 128.012S264.844 112.012 256 112.012H207.998V49.313L262 92.513C264.953 94.857 268.484 96.013 271.984 96.013C276.688 96.013 281.328 93.95 284.5 90.013C290.016 83.107 288.891 73.045 282 67.514L202 3.516C196.156 -1.172 187.844 -1.172 182 3.516L102 67.514C95.109 73.045 93.984 83.107 99.5 90.013C105.031 96.888 115.078 98.013 122 92.513L176.002 49.313V112.012H128C119.156 112.012 112 119.168 112 128.012S119.156 144.012 128 144.012H176.002V160.773C136.432 164.362 97.842 181.266 67.549 211.558C-1.184 280.289 -1.182 391.723 67.549 460.454C136.281 529.18 247.719 529.184 316.451 460.454C385.184 391.721 385.182 280.289 316.451 211.558ZM293.824 437.825C237.678 493.97 146.322 493.97 90.176 437.825C34.031 381.682 34.031 290.33 90.176 234.185C146.322 178.04 237.678 178.04 293.824 234.185C349.969 290.33 349.969 381.682 293.824 437.825Z"/></svg>