<svg xmlns="http://www.w3.org/2000/svg" viewBox="0 0 512 512"><!-- Font Awesome Pro 6.0.0-alpha2 by @fontawesome - https://fontawesome.com License - https://fontawesome.com/license (Commercial License) --><path d="M343.031 115.875C333.28 125.75 337.156 145.625 351.907 160.25C366.658 175 386.535 179 396.286 169.125C406.162 159.375 402.161 139.5 387.41 124.75C372.659 110.125 352.782 106.125 343.031 115.875ZM443.665 68.625V68.5C388.16 13.125 330.405 0 299.027 0C260.399 0 237.021 19 230.271 25.875C191.517 64.5 128.012 139.625 128.012 209.5V291.75L116.511 303.25C113.385 306.375 107.385 308.5 99.384 305.25C77.007 296.375 51.63 299.125 31.753 312.625C11.876 326.125 0 348.625 0 372.625C0 394.25 15.626 441.75 67.631 444.375C69.631 483.75 102.009 512 139.263 512C191.142 512 225.52 459.75 206.644 412.625C205.644 410 202.768 401.25 208.644 395.375L220.02 384H302.652C372.534 384 447.666 320.5 486.294 281.875C541.549 226.625 498.545 123.5 443.665 68.625ZM302.652 352H206.769L186.142 372.75C173.016 385.75 169.515 405.625 176.891 424.5C200.393 483.125 102.634 503.375 99.634 442.75L98.134 413.875L69.256 412.375C18.627 409.875 20.252 332.125 72.507 332.125C77.632 332 82.758 333 87.508 335C105.135 342.125 125.511 339.625 139.263 325.875L160.014 305V209.5C160.014 171.75 187.017 120.5 233.271 69.125C231.396 82.375 231.771 96 234.396 109.25C241.772 145.875 264.024 185 295.527 216.5C335.53 256.5 385.41 280.375 428.914 280.375C433.414 280.25 438.039 280 442.54 279.25C391.285 325.25 340.281 352 302.652 352ZM463.667 236.625C440.29 260 374.033 249.75 318.154 193.875C264.524 140.25 251.023 73 275.525 48.5C298.902 25 365.283 35.375 421.038 91.125C474.918 145 487.919 212.375 463.667 236.625Z"/></svg>