<svg xmlns="http://www.w3.org/2000/svg" viewBox="0 0 512 512"><!-- Font Awesome Pro 6.0.0-alpha2 by @fontawesome - https://fontawesome.com License - https://fontawesome.com/license (Commercial License) --><path d="M448 0H64C28.75 0 0 28.748 0 63.994V351.971C0 387.219 28.75 415.967 64 415.967H175.975L243.199 505.6C246.4 509.867 251.199 512 256 512S265.6 509.867 268.801 505.6L336.025 415.967H448C483.25 415.967 512 387.219 512 351.971V63.994C512 28.748 483.25 0 448 0ZM480 351.971C480 369.613 465.645 383.967 448 383.967H320.025L256 469.334L191.975 383.967H64C46.355 383.967 32 369.613 32 351.971V63.994C32 46.352 46.355 32 64 32H448C465.645 32 480 46.352 480 63.994V351.971Z"/></svg>