<svg xmlns="http://www.w3.org/2000/svg" viewBox="0 0 512 512"><!-- Font Awesome Pro 6.0.0-alpha2 by @fontawesome - https://fontawesome.com License - https://fontawesome.com/license (Commercial License) --><path d="M448 96.033H336.025L268.801 6.4C265.6 2.133 260.801 0 256 0S246.4 2.133 243.199 6.4L175.975 96.033H64C28.75 96.033 0 124.781 0 160.029V448.006C0 483.252 28.75 512 64 512H448C483.25 512 512 483.252 512 448.006V160.029C512 124.781 483.25 96.033 448 96.033ZM480 448.006C480 465.648 465.645 480 448 480H64C46.355 480 32 465.648 32 448.006V160.029C32 142.387 46.355 128.033 64 128.033H191.975L256 42.666L320.025 128.033H448C465.645 128.033 480 142.387 480 160.029V448.006Z "></path></svg>