<svg xmlns="http://www.w3.org/2000/svg" viewBox="0 0 640 512"><!-- Font Awesome Pro 6.0.0-alpha2 by @fontawesome - https://fontawesome.com License - https://fontawesome.com/license (Commercial License) --><path d="M336 144V208C336 212.658 338.055 216.762 341.227 219.684C348.996 208.941 357.844 197.744 368 186.064V144C368 135.156 360.844 128 352 128S336 135.156 336 144ZM144 144V208C144 216.844 151.156 224 160 224S176 216.844 176 208V144C176 135.156 168.844 128 160 128S144 135.156 144 144ZM240 144V208C240 216.844 247.156 224 256 224S272 216.844 272 208V144C272 135.156 264.844 128 256 128S240 135.156 240 144ZM524.125 289L498.125 317.75C481 296.5 486.75 303.5 458.25 271.375C417.375 319 398.625 337.875 398.625 369C398.625 414 434.125 448 481.125 448C498.125 448 514.75 443 528.875 433.375C560.75 411.75 570.75 369 552 334.25C548.75 328.25 548.625 328.375 524.125 289ZM481.125 416C453.25 416 430.625 398.125 430.625 369C430.625 354.5 440 341.75 458.75 320C461.375 323 496.875 367 496.875 367L519.5 341.875C546.25 385 514 416 481.125 416ZM544 186.5C531.25 198 522.125 206 508.625 220.5C482.25 188.25 457.625 166.625 444 154.5C325.625 261.5 320 336 320 352C320 440.25 391.75 512 480 512S640 440.25 640 352C640 275.125 551.75 193.375 544 186.5ZM480 480C409.375 479.875 352.125 422.625 352 352C352 313.75 390.875 249.25 444 197.875C462.5 215.5 479.625 234.625 495 255L507.125 271.25L520.125 255.75C527.625 246.75 535.625 238.25 543.875 230.125C583.375 271 608 327.75 608 352C607.875 422.625 550.625 479.875 480 480ZM315.438 455.375C296.219 461.094 276.219 464 256 464C141.312 464 48 370.688 48 256S141.312 48 256 48C312.344 48 365.125 70.172 404.562 110.453C410.812 116.734 420.938 116.906 427.187 110.672C433.5 104.5 433.625 94.359 427.437 88.047C381.906 41.594 321.031 16 256 16C123.656 16 16 123.656 16 256S123.656 496 256 496C279.312 496 302.375 492.656 324.562 486.062C333.031 483.531 337.844 474.625 335.344 466.156C332.812 457.719 324 452.875 315.438 455.375Z"/></svg>