<svg xmlns="http://www.w3.org/2000/svg" viewBox="0 0 640 512"><!-- Font Awesome Pro 6.0.0-alpha2 by @fontawesome - https://fontawesome.com License - https://fontawesome.com/license (Commercial License) --><path d="M592 207.998C583.164 207.998 576 215.16 576 223.998V448C576 465.672 561.674 480 544 480H96C78.326 480 64 465.672 64 448V191.998C64 174.324 78.326 159.998 96 159.998H320C328.836 159.998 336 152.834 336 143.998C336 135.16 328.836 127.998 320 127.998H96C60.654 127.998 32 156.65 32 191.998V448C32 483.346 60.654 512 96 512H544C579.346 512 608 483.346 608 448V223.998C608 215.16 600.836 207.998 592 207.998ZM625.941 42.197L597.809 14.061C588.436 4.688 576.152 0 563.867 0S539.299 4.688 529.926 14.061L354.408 189.586C345.473 198.521 339.383 209.902 336.904 222.293L320.24 305.639C318.725 313.223 324.619 319.998 331.963 319.998C332.748 319.998 333.549 319.92 334.361 319.758L417.711 303.086C430.1 300.607 441.477 294.52 450.41 285.586L625.939 110.08C644.686 91.336 644.688 60.943 625.941 42.197ZM427.783 262.959C423.303 267.439 417.648 270.465 411.436 271.707L357.502 282.496L368.283 228.57C369.527 222.352 372.553 216.695 377.037 212.213L491.307 97.934L542.066 148.693L427.783 262.959ZM603.314 87.451L564.691 126.068L513.932 75.309L552.555 36.686C556.631 32.609 561.393 32 563.867 32S571.104 32.609 575.18 36.686L603.314 64.824C607.393 68.902 608 73.662 608 76.139C608 78.613 607.391 83.375 603.314 87.451ZM288 367.998C288 376.834 295.164 383.998 304 383.998H528C536.836 383.998 544 376.834 544 367.998C544 359.16 536.836 351.998 528 351.998H304C295.164 351.998 288 359.16 288 367.998ZM239.002 361.938C246.861 321.531 206.549 311.266 179.877 304.484L173.58 302.859C142.189 294.656 143.174 289.562 144.221 284.156C146.049 274.703 163.971 269.891 185.939 272.938C192.705 273.875 200.143 275.922 207.221 278.094C215.721 280.734 224.627 275.938 227.205 267.484C229.799 259.047 225.049 250.094 216.596 247.5C206.564 244.422 198.639 242.553 191.607 241.492C191.658 240.977 191.908 240.529 191.908 240V224C191.908 215.156 184.752 208 175.908 208S159.908 215.156 159.908 224V240C159.908 240.301 160.062 240.549 160.078 240.846C134.504 244.111 116.84 257.35 112.814 278.062C105.049 318.031 145.877 328.703 165.486 333.828L171.986 335.484C204.236 343.703 209.158 347.766 207.596 355.828C205.752 365.281 187.814 370.172 165.783 367.047C157.205 365.906 146.83 362.578 137.689 359.656L132.721 358.062C124.299 355.484 115.314 360.078 112.643 368.516C109.986 376.953 114.674 385.938 123.096 388.594L127.908 390.125C137.963 393.346 149.283 396.881 160.213 398.484C160.162 399.008 159.908 399.463 159.908 400V416C159.908 424.844 167.064 432 175.908 432S191.908 424.844 191.908 416V400C191.908 399.492 191.666 399.062 191.619 398.566C217.039 395.236 234.975 382.582 239.002 361.938Z"/></svg>