<svg xmlns="http://www.w3.org/2000/svg" viewBox="0 0 512 512"><!-- Font Awesome Pro 6.0.0-alpha2 by @fontawesome - https://fontawesome.com License - https://fontawesome.com/license (Commercial License) --><path d="M326.999 293.125C325.999 293.125 324.124 293.25 323.124 293.5C319.374 294.25 315.624 294.625 311.749 294.625C279.249 294.625 252.749 268 252.749 235.375C252.749 214.25 264.249 194.375 282.749 183.875C290.249 179.625 294.249 171.25 292.749 162.75C291.374 154.125 284.874 147.5 276.249 146C269.624 144.75 262.749 144.125 255.874 144.125C194.249 144 143.999 194.25 143.999 256S194.249 368 255.874 368C289.749 368 321.499 352.875 342.749 326.5C347.749 320.25 348.749 312 345.374 304.75C341.999 297.75 334.749 293.125 326.999 293.125ZM255.874 336C211.749 336 175.999 300.125 175.999 256C175.999 216.75 204.374 184 241.749 177.25C228.249 193.625 220.749 214.25 220.749 235.375C220.749 280.25 253.374 317.75 296.124 325.25C283.999 332.25 270.249 336 255.874 336ZM509.138 344.896L449.999 255.68L508.841 166.156C511.936 161.465 512.571 155.328 510.327 150.184C508.13 144.916 503.446 141.098 497.936 139.992L393.02 118.479L371.29 13.68C370.097 8.098 366.196 3.439 360.972 1.287C358.878 0.426 356.651 0 354.429 0C351.102 0 347.78 0.953 344.917 2.826L255.626 62.07L166.075 3.246C163.272 1.398 159.997 0.445 156.692 0.445C154.464 0.443 152.222 0.877 150.101 1.762C144.831 3.955 141.134 8.689 139.907 14.146L118.511 119.086L13.685 140.811C8.101 142.002 3.438 145.902 1.288 151.125C-0.862 156.35 -0.3 162.4 2.823 167.178L61.962 256.393L3.247 345.969C0.149 350.658 -0.435 356.672 1.761 361.939S8.64 371.025 14.149 372.131L119.118 393.52L140.847 498.32C142.04 503.9 145.94 508.561 151.167 510.713C153.259 511.574 155.485 512 157.708 512C161.034 512 164.356 511.047 167.22 509.174L256.46 450.053L346.013 508.877C348.8 510.717 352.075 511.627 355.368 511.627C357.616 511.627 359.87 511.203 361.987 510.363C367.255 508.168 371.075 503.484 372.231 497.854L393.452 392.986L498.329 371.139C503.913 369.945 508.522 366.17 510.675 360.945C512.876 355.6 512.313 349.549 509.138 344.896ZM386.925 361.66C374.395 364.27 364.626 374.096 362.087 386.641L345.208 470.062L274.03 423.307C268.696 419.803 262.579 418.053 256.46 418.053C250.302 418.053 244.142 419.828 238.788 423.375L167.747 470.439L150.452 387.023C147.854 374.496 138.044 364.719 125.509 362.164L42.04 345.156L88.724 273.936C95.739 263.232 95.704 249.379 88.634 238.713L41.569 167.711L125.005 150.422C137.532 147.824 147.31 138.016 149.866 125.479L166.87 42.055L238.058 88.816C243.392 92.32 249.509 94.07 255.626 94.07C261.792 94.07 267.96 92.291 273.319 88.736L344.394 41.574L361.686 124.977C364.28 137.49 374.073 147.26 386.593 149.826L470.034 166.938L423.259 238.105C416.222 248.811 416.249 262.682 423.327 273.361L470.341 344.281L386.925 361.66Z"/></svg>