<svg xmlns="http://www.w3.org/2000/svg" viewBox="0 0 384 512"><!-- Font Awesome Pro 6.0.0-alpha2 by @fontawesome - https://fontawesome.com License - https://fontawesome.com/license (Commercial License) --><path d="M192 448C253.875 448 304 397.875 304 336C303.875 274.125 253.875 224.125 192 224C130.125 224 80 274.125 80 336S130.125 448 192 448ZM192 256C236.125 256 272 291.875 272 336S236.125 416 192 416S112 380.125 112 336S147.875 256 192 256ZM192 360C205.25 360 216 349.25 216 336S205.25 312 192 312S168 322.75 168 336S178.75 360 192 360ZM320 0H64C28.654 0 0 28.652 0 64V448C0 483.346 28.654 512 64 512H320C355.346 512 384 483.346 384 448V64C384 28.652 355.346 0 320 0ZM352 448C352 465.672 337.674 480 320 480H64C46.326 480 32 465.672 32 448V192H352V448ZM352 160H32V64C32 46.326 46.326 32 64 32H320C337.674 32 352 46.326 352 64V160Z"/></svg>