<svg xmlns="http://www.w3.org/2000/svg" viewBox="0 0 448 512"><!-- Font Awesome Pro 6.0.0-alpha2 by @fontawesome - https://fontawesome.com License - https://fontawesome.com/license (Commercial License) --><path d="M432 256H384V48C384 39.156 376.844 32 368 32S352 39.156 352 48V256H243.457L93.156 38.906C89.188 33.156 81.969 30.75 75.219 32.719C68.562 34.812 64 41 64 48V256H16C7.156 256 0 263.156 0 272S7.156 288 16 288H64V464C64 472.844 71.156 480 80 480S96 472.844 96 464V288H226.699L354.844 473.094C357.875 477.5 362.844 480 368 480C369.594 480 371.188 479.75 372.781 479.281C379.438 477.188 384 471 384 464V288H432C440.844 288 448 280.844 448 272S440.844 256 432 256ZM96 256V99.219L204.543 256H96ZM352 412.781L265.611 288H352V412.781Z"/></svg>