<svg xmlns="http://www.w3.org/2000/svg" viewBox="0 0 448 512"><!-- Font Awesome Pro 6.0.0-alpha2 by @fontawesome - https://fontawesome.com License - https://fontawesome.com/license (Commercial License) --><path d="M448 309.49V96C448 60.654 419.348 32 384 32H64C28.654 32 0 60.654 0 96V416C0 451.346 28.654 480 64 480H277.49C294.465 480 310.744 473.258 322.746 461.254L429.256 354.746C441.258 342.742 448 326.465 448 309.49ZM300.119 438.625C296.666 442.078 292.477 444.357 288 445.924V336C288 327.172 295.188 320 304 320H413.924C412.357 324.477 410.08 328.668 406.627 332.121L300.119 438.625ZM416 288H304C277.531 288 256 309.531 256 336V448H64C46.355 448 32 433.645 32 416V96C32 78.355 46.355 64 64 64H384C401.645 64 416 78.355 416 96V288Z"/></svg>