<svg xmlns="http://www.w3.org/2000/svg" viewBox="0 0 512 512"><!-- Font Awesome Pro 6.0.0-alpha2 by @fontawesome - https://fontawesome.com License - https://fontawesome.com/license (Commercial License) --><path d="M368 32C376.836 32 384 24.836 384 16S376.836 0 368 0H96C42.98 0 0 42.98 0 96V368C0 376.836 7.164 384 16 384S32 376.836 32 368V96C32 60.656 60.656 32 96 32H368ZM416 96H160C124.654 96 96 124.652 96 160V416C96 451.348 124.654 480 160 480H325.49C342.465 480 358.744 473.258 370.746 461.254L461.256 370.746C473.258 358.742 480 342.465 480 325.492V160C480 124.652 451.348 96 416 96ZM352 434.742V368C352 359.172 359.188 352 368 352H434.746L352 434.742ZM448 320H368C341.531 320 320 341.531 320 368V448H160C142.355 448 128 433.645 128 416V160C128 142.355 142.355 128 160 128H416C433.645 128 448 142.355 448 160V320Z"/></svg>