<svg xmlns="http://www.w3.org/2000/svg" viewBox="0 0 512 512"><!-- Font Awesome Pro 6.0.0-alpha2 by @fontawesome - https://fontawesome.com License - https://fontawesome.com/license (Commercial License) --><path d="M482.758 157.094L354.789 29.242C346.352 20.805 334.984 16 323.031 16H188.852C177.016 16 165.531 20.805 157.094 29.242L29.242 157.211C20.805 165.648 16 177.016 16 188.969V323.148C16 334.984 20.805 346.469 29.242 354.906L157.211 482.758C165.648 491.195 177.016 496 188.969 496H323.148C334.984 496 346.469 491.195 354.906 482.758L482.758 354.789C491.195 346.352 496 334.984 496 323.031V188.852C496 177.016 491.195 165.531 482.758 157.094ZM464 323.031C464 326.424 462.625 329.666 460.119 332.172L332.279 460.129C329.82 462.59 326.492 464 323.148 464H188.969C185.576 464 182.334 462.625 179.828 460.119L51.869 332.277C49.41 329.818 48 326.492 48 323.148V188.969C48 185.576 49.375 182.334 51.881 179.828L179.721 51.869C182.18 49.41 185.508 48 188.852 48H323.031C326.424 48 329.666 49.373 332.172 51.879L460.131 179.721C462.59 182.18 464 185.508 464 188.852V323.031Z"/></svg>