<svg xmlns="http://www.w3.org/2000/svg" viewBox="0 0 576 512"><!-- Font Awesome Pro 6.0.0-alpha2 by @fontawesome - https://fontawesome.com License - https://fontawesome.com/license (Commercial License) --><path d="M562.04 479.094C533.9 475.469 508.743 460.75 493.009 438.719C487.011 430.281 472.964 430.281 466.964 438.719C448.527 464.562 417.511 480 383.997 480C350.482 480 319.468 464.562 301.03 438.719C294.999 430.281 280.999 430.281 274.968 438.719C256.53 464.562 225.517 480 192.001 480C158.488 480 127.472 464.562 109.034 438.719C106.034 434.5 101.175 432 96.003 432S85.989 434.5 82.989 438.719C67.255 460.75 42.099 475.469 13.958 479.094C5.195 480.219 -0.993 488.25 0.132 497.031C1.257 505.781 9.161 512.094 18.052 510.844C48.036 506.969 75.536 493.375 95.988 472.75C120.613 497.594 155.222 512 192.001 512C228.767 512 263.374 497.594 287.999 472.75C312.624 497.594 347.232 512 383.997 512C420.777 512 455.386 497.594 480.011 472.75C500.462 493.375 527.962 506.969 557.947 510.844C566.9 512.219 574.741 505.781 575.866 497.031C576.991 488.25 570.804 480.219 562.04 479.094ZM287.999 384C332.183 384 367.999 348.182 367.999 304C367.999 265.297 340.515 233.027 303.999 225.613V128H367.999C376.843 128 383.999 120.844 383.999 112S376.843 96 367.999 96H303.999V48C303.999 39.172 311.187 32 319.999 32H367.999C376.843 32 383.999 24.844 383.999 16S376.843 0 367.999 0H319.999C293.53 0 271.999 21.531 271.999 48V225.613C235.484 233.027 207.999 265.297 207.999 304C207.999 348.182 243.816 384 287.999 384ZM287.999 256C314.466 256 335.999 277.533 335.999 304S314.466 352 287.999 352S239.999 330.467 239.999 304S261.532 256 287.999 256ZM383.997 384C420.777 384 455.386 369.594 480.011 344.75C500.462 365.375 527.962 378.969 557.947 382.844C566.9 384.219 574.741 377.781 575.866 369.031C576.991 360.25 570.804 352.219 562.04 351.094C533.9 347.469 508.743 332.75 493.009 310.719C487.011 302.281 472.964 302.281 466.964 310.719C449.491 335.211 420.614 349.893 389.128 351.41C383.72 362.914 376.634 373.463 367.831 382.424C373.202 383.055 378.503 384 383.997 384ZM18.052 382.844C48.036 378.969 75.536 365.375 95.988 344.75C120.613 369.594 155.222 384 192.001 384C197.495 384 202.796 383.055 208.167 382.424C199.364 373.463 192.279 362.914 186.87 351.41C155.384 349.893 126.507 335.211 109.034 310.719C106.034 306.5 101.175 304 96.003 304S85.989 306.5 82.989 310.719C67.255 332.75 42.099 347.469 13.958 351.094C5.195 352.219 -0.993 360.25 0.132 369.031C1.257 377.781 9.161 384.094 18.052 382.844Z"/></svg>