<svg xmlns="http://www.w3.org/2000/svg" viewBox="0 0 448 512"><!-- Font Awesome Pro 6.0.0-alpha2 by @fontawesome - https://fontawesome.com License - https://fontawesome.com/license (Commercial License) --><path d="M448 463.998C448 472.799 440.801 480 432 480H304C295.199 480 288 472.799 288 463.998V447.746C288 441.141 292.121 435.4 298.207 432.834C367.289 403.686 416 335.451 416 255.973C416 147.461 325.5 59.701 216 64.076C118.625 68.076 37.75 147.711 32.25 245.098C27.627 329.193 77.58 402.424 149.779 432.826C155.873 435.393 160 441.133 160 447.746V463.998C160 472.799 152.801 480 144 480H16C7.199 480 0 472.799 0 463.998S7.199 447.996 16 447.996H109C36.375 404.365 -9.625 321.105 1.75 227.846C14.125 126.459 96.625 44.699 198.25 33.447C333.5 18.32 448 123.709 448 255.973C448 337.607 404.25 408.867 339 447.996H432C440.801 447.996 448 455.197 448 463.998Z"/></svg>