<svg xmlns="http://www.w3.org/2000/svg" viewBox="0 0 512 512"><!-- Font Awesome Pro 6.0.0-alpha2 by @fontawesome - https://fontawesome.com License - https://fontawesome.com/license (Commercial License) --><path d="M496 448H416L117.094 38.594C114.094 34.453 109.281 32 104.156 32H16C7.156 32 0 39.156 0 48S7.156 64 16 64H96L394.906 473.406C397.906 477.547 402.719 480 407.844 480H496C504.844 480 512 472.844 512 464S504.844 448 496 448ZM336 64H496C504.836 64 512 56.836 512 48C512 39.162 504.836 32 496 32H336C327.164 32 320 39.162 320 48C320 56.836 327.164 64 336 64Z"/></svg>