<svg xmlns="http://www.w3.org/2000/svg" viewBox="0 0 576 512"><!-- Font Awesome Pro 6.0.0-alpha2 by @fontawesome - https://fontawesome.com License - https://fontawesome.com/license (Commercial License) --><path d="M576 64.84C576 28.178 546.278 0 511.147 0C494.533 0 477.923 6.32 465.281 18.961L195.043 289.203C191.473 288.727 187.959 287.986 184.289 287.982C184.258 287.982 184.258 287.982 184.258 287.982C126.759 287.982 80.581 334.494 80.581 391.851C80.581 399.05 81.157 400.805 81.157 405.05C81.157 429 62.309 447.994 32.002 447.994C14.326 447.994 0 462.322 0 479.996S14.326 512 32.002 512C32.002 512 60.129 512 85.721 512C181.912 512 286.856 489.71 286.856 392.934C286.856 389.116 286.659 385.295 286.27 381.49L557.037 110.719C569.679 98.069 576 81.455 576 64.84ZM255.495 392.295C255.495 466.855 160.264 479.996 85.721 479.996H32.002C58.8 479.996 113.161 463.437 113.161 405.101C113.161 399.292 112.581 397.41 112.581 391.823C112.581 333.64 167.603 318.255 188.338 320.188L255.318 387.172C255.436 388.884 255.495 390.592 255.495 392.295ZM267.955 354.551L221.453 308.047L285.457 244.041L331.961 290.545L267.955 354.551ZM544.021 64.841C544.021 73.263 540.818 81.686 534.412 88.092L354.586 267.918L308.084 221.414L487.908 41.588C494.314 35.182 502.737 31.979 511.159 31.979C529.086 31.979 544.021 46.389 544.021 64.841ZM498.932 338.885L436.529 276.479L413.902 299.107L476.303 361.512C480.594 365.803 483.564 371.197 484.896 377.115L506.938 475.121C402.554 452.718 402.646 453.345 394.518 445.217L331.156 381.859L318.844 394.172C318.781 400.52 317.809 406.689 316.912 412.869C376.258 472.211 380.16 479.573 402.139 484.748C440.285 493.73 524.9 511.68 524.9 511.68C525.982 511.896 527.051 512 528.098 512C536.841 512 544.045 504.793 544.045 496.047C544.045 495.001 543.942 493.934 543.727 492.854L516.117 370.094C513.459 358.275 507.5 347.451 498.932 338.885ZM162.221 258.189C169.062 257.074 175.936 256.049 183 255.984L194.137 244.85L145.977 196.693L228.738 113.932L276.896 162.094L299.525 139.467L178.816 18.75C166.316 6.25 149.939 0 133.557 0C117.178 0 100.797 6.252 88.301 18.748L50.789 56.262C38.27 68.781 31.999 85.174 31.999 101.559C31.999 135.668 42.958 138.938 162.221 258.189ZM64.033 101.553C64.033 93.354 67.162 85.144 73.416 78.889L110.928 41.375C116.973 35.33 125.01 32 133.557 32S150.141 35.33 156.186 41.375L206.113 91.307L123.35 174.07L73.324 124.047C67.129 117.852 64.033 109.708 64.033 101.553Z "></path></svg>