<svg xmlns="http://www.w3.org/2000/svg" viewBox="0 0 512 512"><!-- Font Awesome Pro 6.0.0-alpha2 by @fontawesome - https://fontawesome.com License - https://fontawesome.com/license (Commercial License) --><path d="M416 112V48C416 21.5 394.5 0 368 0H48C21.5 0 0 21.5 0 48V112C0 138.5 21.5 160 48 160H368C394.5 160 416 138.5 416 112ZM32 112V48C32 39.125 39.125 32 48 32H368C376.875 32 384 39.125 384 48V112C384 120.875 376.875 128 368 128H48C39.125 128 32 120.875 32 112ZM464 64C455.156 64 448 71.156 448 80S455.156 96 464 96C472.828 96 480 103.172 480 112V208C480 216.828 472.828 224 464 224H256C229.49 224 208 245.49 208 272V320C181.6 320 160 341.6 160 368V464C160 490.4 181.6 512 208 512H240C266.4 512 288 490.4 288 464V368C288 341.6 266.4 320 240 320V272C240 263.199 247.199 256 256 256H464C490.469 256 512 234.469 512 208V112C512 85.531 490.469 64 464 64ZM256 368V464C256 472.836 248.836 480 240 480H208C199.164 480 192 472.836 192 464V368C192 359.162 199.164 352 208 352H240C248.836 352 256 359.162 256 368Z"/></svg>