<svg xmlns="http://www.w3.org/2000/svg" viewBox="0 0 512 512"><!-- Font Awesome Pro 6.0.0-alpha2 by @fontawesome - https://fontawesome.com License - https://fontawesome.com/license (Commercial License) --><path d="M111.919 264C98.67 264 87.921 274.75 87.921 288S98.67 312 111.919 312C125.167 312 135.916 301.25 135.916 288S125.167 264 111.919 264ZM143.915 152C130.667 152 119.918 162.75 119.918 176S130.667 200 143.915 200S167.913 189.25 167.913 176S157.164 152 143.915 152ZM255.903 0C239.03 0 221.657 1.625 204.159 5C104.794 24.375 24.678 104.25 5.18 203.375C-29.441 378.5 116.293 512 239.405 512C247.654 512 255.903 511.375 264.027 510.125C305.148 503.75 325.395 455.5 306.522 418.375C283.4 373 316.396 320 367.391 320H447.132C482.878 320 511.875 290.375 512 254.75C511.5 113.875 397.013 0 255.903 0ZM447.007 288H367.266C332.02 288 299.898 305.875 281.65 335.75C263.402 365.5 262.027 401.75 277.901 433C282.775 442.625 282.65 454.625 277.776 464.25C275.401 468.875 269.901 476.875 259.153 478.625C252.778 479.625 246.154 480.125 239.405 480.125C184.786 480.125 125.292 448.75 83.922 398.5C39.926 344.875 23.053 277.875 36.552 209.75C53.675 123.25 123.542 53.625 210.408 36.625C225.656 33.625 240.905 32.125 255.903 32.125C379.014 32.125 479.504 132 479.878 254.75C479.878 273 465.13 288 447.007 288ZM367.891 136C354.642 136 343.893 146.75 343.893 160S354.642 184 367.891 184S391.888 173.25 391.888 160S381.139 136 367.891 136ZM239.905 88C226.656 88 215.907 98.75 215.907 112S226.656 136 239.905 136C253.153 136 263.902 125.25 263.902 112S253.153 88 239.905 88Z"/></svg>