<svg xmlns="http://www.w3.org/2000/svg" viewBox="0 0 640 512"><!-- Font Awesome Pro 6.0.0-alpha2 by @fontawesome - https://fontawesome.com License - https://fontawesome.com/license (Commercial License) --><path d="M624 480H560V384H624C632.844 384 640 376.844 640 368S632.844 352 624 352H16C7.156 352 0 359.156 0 368S7.156 384 16 384H80V480H16C7.156 480 0 487.156 0 496S7.156 512 16 512H624C632.844 512 640 504.844 640 496S632.844 480 624 480ZM304 480H112V384H304V480ZM528 480H336V384H528V480Z"/></svg>