<svg xmlns="http://www.w3.org/2000/svg" viewBox="0 0 640 512"><!-- Font Awesome Pro 6.0.0-alpha2 by @fontawesome - https://fontawesome.com License - https://fontawesome.com/license (Commercial License) --><path d="M128 168C114.746 168 104 178.746 104 192S114.746 216 128 216C141.256 216 152 205.254 152 192S141.256 168 128 168ZM378.586 187.91C367.305 172.098 340.088 171.973 328.588 187.879L284.559 249.311L277.59 240.369C266.152 225.904 240.623 225.811 229.186 240.4L166.156 320.75C159.033 329.881 158.002 342.305 163.533 352.312C168.781 361.977 179.062 368 190.375 368H449.582C460.582 368 470.738 362.227 476.111 352.939C476.111 352.908 476.111 352.908 476.143 352.877C481.799 342.994 481.205 331.072 474.549 321.754L378.586 187.91ZM194.188 335.873L252.436 260.26L272.527 285.924C276.875 291.469 290.125 296.578 298.119 285.391L352.555 206.641L445.238 335.873H194.188ZM592.086 64C587.527 64 582.865 64.658 578.207 66.057L578.199 66.059C493.986 91.322 406.994 103.953 320 103.953S146.014 91.322 61.801 66.059L61.793 66.057C57.137 64.658 52.471 64 47.914 64C22.326 63.996 0 84.74 0 112.031V431.969C0 459.258 22.33 480 47.914 480C52.473 480 57.135 479.34 61.793 477.943L61.801 477.941C146.014 452.678 233.006 440.045 320 440.045S493.986 452.678 578.199 477.941L578.207 477.943C582.863 479.34 587.529 480 592.086 480C617.674 480 640 459.26 640 431.969V112.031C640 84.742 617.67 64 592.086 64ZM608 431.969C608 441.871 599.74 448 592.086 448C590.541 448 588.963 447.762 587.395 447.291C500.59 421.25 410.625 408.045 320 408.045S139.408 421.25 52.598 447.293C51.035 447.762 49.459 448 47.914 448C40.26 448 32 441.871 32 431.969V112.031C32 106.463 34.582 102.766 36.75 100.645C39.766 97.691 43.832 96 47.908 96C49.459 96 51.039 96.238 52.605 96.709C139.41 122.75 229.375 135.953 320 135.953S500.592 122.748 587.402 96.707C588.965 96.238 590.541 96 592.086 96C599.74 96 608 102.129 608 112.031V431.969Z"/></svg>