<svg xmlns="http://www.w3.org/2000/svg" viewBox="0 0 384 512"><!-- Font Awesome Pro 6.0.0-alpha2 by @fontawesome - https://fontawesome.com License - https://fontawesome.com/license (Commercial License) --><path d="M368 448H318.125L303.875 334C302.875 326 296.062 320 288 320H144C135.172 320 128 312.812 128 304V224H256C264.838 224 272 216.836 272 208C272 199.162 264.838 192 256 192H128V160C128 151.156 120.844 144 112 144S96 151.156 96 160V304C96 330.469 117.531 352 144 352H273.875L288.125 466C289.125 474 295.938 480 304 480H368C376.844 480 384 472.844 384 464S376.844 448 368 448ZM208 416H131.203C76.5 416 32 371.5 32 316.812V144C32 135.156 24.844 128 16 128S0 135.156 0 144V316.812C0 389.156 58.859 448 131.203 448H208C216.844 448 224 440.844 224 432S216.844 416 208 416ZM136 112C166.928 112 192 86.926 192 56S166.928 0 136 0S80 25.074 80 56S105.072 112 136 112ZM136 32C149.234 32 160 42.766 160 56C160 69.232 149.234 80 136 80S112 69.232 112 56C112 42.766 122.766 32 136 32Z"/></svg>