<svg xmlns="http://www.w3.org/2000/svg" viewBox="0 0 384 512"><!-- Font Awesome Pro 6.0.0-alpha2 by @fontawesome - https://fontawesome.com License - https://fontawesome.com/license (Commercial License) --><path d="M368 176H350.383C342.225 95.375 274.773 32 192.062 32H80C53.594 32 32.062 53.406 32.016 79.75C31.986 104.312 32.014 138.264 32.061 176H16C7.156 176 0 183.156 0 192S7.156 208 16 208H32.104C32.121 220.152 32.139 232.453 32.156 244.875C32.188 275.031 32.234 305.5 32.266 333.969C32.188 334.625 32.141 335.312 32.141 336C32.141 336.719 32.187 337.406 32.281 338.062C32.328 395.25 32.328 443.625 32.141 463.844C32.062 472.688 39.156 479.906 47.984 480H48.141C56.906 480 64.062 472.938 64.141 464.156C64.312 445.562 64.328 403.156 64.281 352H192.063C274.773 352 342.225 288.625 350.383 208H368C376.844 208 384 200.844 384 192S376.844 176 368 176ZM64.016 79.812C64.031 71.094 71.203 64 80 64H192.062C257.133 64 310.41 113.02 318.383 176H64.061C64.014 138.273 63.986 104.342 64.016 79.812ZM192.062 320H64.25C64.219 295.625 64.188 270.125 64.156 244.812C64.139 232.412 64.121 220.131 64.104 208H318.383C310.41 270.98 257.133 320 192.062 320Z"/></svg>