<svg xmlns="http://www.w3.org/2000/svg" viewBox="0 0 384 512"><!-- Font Awesome Pro 6.0.0-alpha2 by @fontawesome - https://fontawesome.com License - https://fontawesome.com/license (Commercial License) --><path d="M368 240H348.943C350.863 229.605 352 218.939 352 208C352 202.6 351.668 197.277 351.189 192H368C376.844 192 384 184.844 384 176S376.844 160 368 160H345.18C324.223 86.248 256.428 32 176.078 32H72.01C49.915 32 32.005 49.915 32.01 72.01L32.033 160H16C7.156 160 0 167.156 0 176S7.156 192 16 192H32.074C32.098 207.66 32.121 223.715 32.146 240H16C7.156 240 0 247.156 0 256S7.156 272 16 272H32.195C32.244 304.688 32.285 336.939 32.297 365.719C32.188 366.469 32.141 367.219 32.141 368S32.203 369.531 32.297 370.281C32.328 413 32.297 447.563 32.141 463.844C32.062 472.688 39.156 479.906 47.984 480H48.141C56.906 480 64.062 472.938 64.141 464.156C64.281 449.594 64.312 420.469 64.312 384H176.078C250.492 384 314.113 337.451 339.779 272H368C376.844 272 384 264.844 384 256S376.844 240 368 240ZM64.015 79.788C64.026 70.958 71.187 64 80.017 64H176.078C238.535 64 291.291 104.25 311.158 160H64.039C64.005 128.751 63.99 100.805 64.015 79.788ZM64.078 192H318.383C318.98 197.322 320 202.521 320 208C320 219.033 318.492 229.672 316.133 240H64.146C64.123 223.756 64.1 207.619 64.078 192ZM176.078 352H64.281C64.27 326.881 64.23 299.551 64.191 272H304.326C280.678 319.209 232.354 352 176.078 352Z"/></svg>