<svg xmlns="http://www.w3.org/2000/svg" viewBox="0 0 640 512"><!-- Font Awesome Pro 6.0.0-alpha2 by @fontawesome - https://fontawesome.com License - https://fontawesome.com/license (Commercial License) --><path d="M288 120C301.256 120 312 109.254 312 96S301.256 72 288 72C274.746 72 264 82.746 264 96S274.746 120 288 120ZM576 0H256C220.654 0 192 28.654 192 64V288C192 323.346 220.654 352 256 352H576C611.348 352 640 323.346 640 288V64C640 28.654 611.348 0 576 0ZM608 288C608 305.645 593.645 320 576 320H256C238.355 320 224 305.645 224 288V64C224 46.355 238.355 32 256 32H576C593.645 32 608 46.355 608 64V288ZM474.586 107.91C463.305 92.098 436.088 91.973 424.588 107.879L380.559 169.311L373.59 160.369C362.152 145.904 336.623 145.811 325.186 160.4L262.156 240.75C255.033 249.881 254.002 262.305 259.533 272.312C264.781 281.977 275.062 288 286.375 288H545.582C556.582 288 566.738 282.227 572.111 272.939C572.111 272.908 572.111 272.908 572.143 272.877C577.799 262.994 577.205 251.072 570.549 241.754L474.586 107.91ZM290.188 255.873L348.436 180.26L368.527 205.924C372.875 211.469 386.125 216.578 394.119 205.391L448.555 126.641L541.238 255.873H290.188ZM496 384C487.164 384 480 391.162 480 400V448C480 465.672 465.674 480 448 480H416V400C416 391.162 408.836 384 400 384S384 391.162 384 400V480H128V192H144C152.836 192 160 184.836 160 176C160 167.162 152.836 160 144 160H64C28.654 160 0 188.652 0 224V448C0 483.346 28.654 512 64 512H448C483.346 512 512 483.346 512 448V400C512 391.162 504.836 384 496 384ZM96 480H64C46.355 480 32 465.645 32 448V416H96V480ZM96 384H32V288H96V384ZM96 256H32V224C32 206.355 46.355 192 64 192H96V256Z"/></svg>