<svg xmlns="http://www.w3.org/2000/svg" viewBox="0 0 576 512"><!-- Font Awesome Pro 6.0.0-alpha2 by @fontawesome - https://fontawesome.com License - https://fontawesome.com/license (Commercial License) --><path d="M112 32C50.25 32 0 82.25 0 144V368C0 429.75 50.25 480 112 480S224 429.75 224 368V144C224 82.25 173.75 32 112 32ZM192 368C192 412.125 156.125 448 112 448S32 412.125 32 368V288H192V368ZM192 256H32V144C32 99.875 67.875 64 112 64S192 99.875 192 144V256ZM416 160C327.625 160 256 231.625 256 320S327.625 480 416 480S576 408.375 576 320S504.375 160 416 160ZM416 448C345.25 448 288 390.75 288 320C288 290.375 298.375 263.625 315.25 241.875L494.25 420.75C472.375 437.625 445.625 448 416 448ZM516.75 398.125L337.875 219.25C359.625 202.5 386.375 192 416 192C486.75 192 544 249.25 544 320C544 349.625 533.625 376.375 516.75 398.125Z"/></svg>