<svg xmlns="http://www.w3.org/2000/svg" viewBox="0 0 576 512"><!-- Font Awesome Pro 6.0.0-alpha2 by @fontawesome - https://fontawesome.com License - https://fontawesome.com/license (Commercial License) --><path d="M463.995 176H359.022L349.879 112H367.992V144C367.992 152.836 375.156 160 383.992 160S399.993 152.836 399.993 144V112C408.829 112 415.993 104.836 415.993 96C415.993 87.162 408.829 80 399.993 80V48C399.993 39.162 392.828 32 383.992 32S367.992 39.162 367.992 48V80H345.307L337.803 27.469C335.553 11.812 321.927 0 306.114 0H269.863C254.049 0 240.424 11.812 238.174 27.469L235.244 48H223.986C197.516 48 175.984 69.531 175.984 96C175.984 121.646 196.248 142.477 221.583 143.758L216.329 180.578L147.92 186.281L142.67 149.531C140.857 137.266 130.169 128 117.763 128H74.198C61.792 128 51.104 137.266 49.354 149.156L39.947 204.422C25.009 208.266 12.508 218.359 5.602 232.172C-1.867 247.094 -1.867 264.906 5.602 279.844C12.29 293.156 24.165 303.031 39.916 307.438L49.291 362.469C51.104 374.75 61.792 384 74.198 384H117.763C130.169 384 140.857 374.75 142.67 362.406L147.92 325.719L216.329 331.406L221.585 368.242C196.25 369.521 175.984 390.354 175.984 416C175.984 442.469 197.516 464 223.986 464H235.248L238.174 484.5C240.393 500.188 254.018 512 269.863 512H306.114C321.958 512 335.584 500.188 337.803 484.5L345.305 432H367.992V464C367.992 472.836 375.156 480 383.992 480S399.993 472.836 399.993 464V432C408.829 432 415.993 424.836 415.993 416C415.993 407.162 408.829 400 399.993 400V368C399.993 359.162 392.828 352 383.992 352S367.992 359.162 367.992 368V400H349.878L359.022 336H463.995C502.466 336 576 304.844 576 256S502.466 176 463.995 176ZM223.986 112C215.173 112 207.985 104.828 207.985 96S215.173 80 223.986 80H230.679L226.113 112H223.986ZM223.986 432C215.173 432 207.985 424.812 207.985 416S215.173 400 223.986 400H226.117L230.683 432H223.986ZM463.995 304H331.271L306.114 480H269.863L244.393 301.656L120.481 291.344L111.825 352H79.98L67.542 279.141L48.072 276.625C42.072 275.141 37.009 271.078 34.228 265.516C31.259 259.562 31.259 252.437 34.228 246.5C37.009 240.937 42.072 236.875 46.322 235.703L67.542 232.859L79.98 160H111.825L120.481 220.688L244.393 210.359L269.863 32H306.114L331.271 208H463.995C495.59 208 543.999 233.75 543.999 256S495.59 304 463.995 304Z"/></svg>