<svg xmlns="http://www.w3.org/2000/svg" viewBox="0 0 640 512"><!-- Font Awesome Pro 6.0.0-alpha2 by @fontawesome - https://fontawesome.com License - https://fontawesome.com/license (Commercial License) --><path d="M278.719 480L213.094 480.406L268.687 304H151.984L103.984 368L63.844 368.594L96.656 256L60.463 132.629L44.266 119.84C42.426 121.344 40.267 122.387 38.766 124.312C32.672 132.125 30.547 142.141 33.125 152.344L63.312 256L32.969 360.234C30.547 369.859 32.672 379.875 38.766 387.688C44.875 395.516 54.062 400 63.984 400H103.984C114 400 123.562 395.219 129.594 387.188L167.984 336H225.062L182.453 471.172C179.656 480.922 181.547 491.141 187.641 499.25C193.75 507.359 203.062 512 213.203 512H278.719C290.172 512 300.812 505.812 306.156 496.422L377.301 382.77L352.043 362.83L278.719 480ZM192.949 74.145L237.603 109.398L213.203 32H278.719L388.859 208H496C527.594 208 576 233.75 576 256S527.594 304 496 304H484.092L520.295 332.584C559.209 323.598 608 295.854 608 256C608 207.156 534.453 176 496 176H406.578L306.5 16.078C301.047 6.609 289.625 0 278.719 0H213.203C203.062 0 193.734 4.641 187.641 12.75C181.547 20.844 179.656 31.078 182.562 41.203L192.949 74.145ZM633.908 483.438L25.904 3.42C18.998 -2.033 8.935 -0.83 3.435 6.061C-2.033 12.998 -0.846 23.062 6.092 28.547L614.096 508.563C617.033 510.875 620.533 512 624.002 512C628.721 512 633.408 509.906 636.564 505.922C642.033 498.984 640.846 488.922 633.908 483.438Z"/></svg>