<svg xmlns="http://www.w3.org/2000/svg" viewBox="0 0 640 512"><!-- Font Awesome Pro 6.0.0-alpha2 by @fontawesome - https://fontawesome.com License - https://fontawesome.com/license (Commercial License) --><path d="M624 480H16C7.199 480 0 487.199 0 496C0 504.799 7.199 512 16 512H624C632.801 512 640 504.799 640 496C640 487.199 632.801 480 624 480ZM45.875 228.377L139.25 311.502C147.625 319.252 157.875 324.877 168.75 327.877L464.625 409.25C480.875 413.75 497 416 512.5 416C526.375 416 539.75 414.25 552.25 410.625C583.125 402 601.375 387.5 606.625 367.625C611.75 347.877 603 325.877 580.5 302.502C561 282.377 534.5 267.252 503.875 258.752L407 232.127L310.5 46.879C308.25 42.629 306.375 38.254 304.375 34.004C301.125 27.254 295.375 22.254 288.25 20.379C269.125 15.004 216.75 0.004 216.75 0.004C216.5 0.004 206 -0.496 198.125 8.629C192.625 14.879 190.75 25.004 193 33.004L235.375 184.877L148 160.877L121.125 93.004C118.25 85.629 112 79.879 104.375 77.754C59.875 65.504 61.375 65.629 57 65.629C43.5 65.629 32.25 77.004 32 90.879L32.25 198.127C32.5 209.752 37.5 220.752 45.875 228.377ZM92.5 107.754L124.125 187.377L281.875 230.877L227.375 36.254L276.25 50.254L385 259.252L495.375 289.627C520.5 296.502 541.875 308.627 557.375 324.752C571 338.877 577.625 351.627 575.625 359.625C573.625 367.375 561.875 374.75 543.625 379.875C512.75 388.5 483.5 381.25 473.125 378.375L177.25 297.002C171.125 295.252 165.5 292.127 160.75 287.877L67.5 204.752C65.5 203.002 64.375 200.252 64.25 197.502L64.125 99.879L92.5 107.754Z"/></svg>