<svg xmlns="http://www.w3.org/2000/svg" viewBox="0 0 640 512"><!-- Font Awesome Pro 6.0.0-alpha2 by @fontawesome - https://fontawesome.com License - https://fontawesome.com/license (Commercial License) --><path d="M96 96C122.51 96 144 74.51 144 48S122.51 0 96 0S48 21.49 48 48S69.49 96 96 96ZM96 32C104.822 32 112 39.178 112 48S104.822 64 96 64S80 56.822 80 48S87.178 32 96 32ZM112 416H80C35.891 416 0 451.891 0 496C0 504.844 7.156 512 16 512S32 504.844 32 496C32 469.531 53.531 448 80 448H112C138.469 448 160 469.531 160 496C160 504.844 167.156 512 176 512S192 504.844 192 496C192 451.891 156.109 416 112 416ZM608 32H256C238.328 32 224 46.326 224 64V160C224 177.674 238.328 192 256 192H608C625.674 192 640 177.674 640 160V64C640 46.326 625.674 32 608 32ZM480 160H256V64H480V160ZM608 160H512V64H608V160ZM112 128H80C35.891 128 0 163.891 0 208C0 216.844 7.156 224 16 224S32 216.844 32 208C32 181.531 53.531 160 80 160H112C138.469 160 160 181.531 160 208C160 216.844 167.156 224 176 224S192 216.844 192 208C192 163.891 156.109 128 112 128ZM608 320H256C238.328 320 224 334.326 224 352V448C224 465.674 238.328 480 256 480H608C625.674 480 640 465.674 640 448V352C640 334.326 625.674 320 608 320ZM352 448H256V352H352V448ZM608 448H384V352H608V448ZM144 336C144 309.49 122.51 288 96 288S48 309.49 48 336S69.49 384 96 384S144 362.51 144 336ZM80 336C80 327.178 87.178 320 96 320S112 327.178 112 336S104.822 352 96 352S80 344.822 80 336Z"/></svg>