<svg xmlns="http://www.w3.org/2000/svg" viewBox="0 0 512 512"><!-- Font Awesome Pro 6.0.0-alpha2 by @fontawesome - https://fontawesome.com License - https://fontawesome.com/license (Commercial License) --><path d="M472.732 348.287C479.459 335.637 483.066 321.426 483.066 306.633C483.066 267.121 457.367 233.498 421.807 221.602C424.047 214.105 425.201 206.234 425.201 198.135C425.201 161.121 400.674 129.729 367.016 119.363C367.227 116.68 367.334 114.002 367.334 111.334C367.334 49.943 317.391 0 256 0C255.654 0 254.066 0.02 253.721 0.031C242.766 0.387 232.754 6.326 227.191 15.77C221.627 25.215 221.283 36.85 226.281 46.604C229.723 53.322 231.467 60.498 231.467 67.934C231.467 94.289 210.025 115.732 183.668 115.732H169.201C123.766 115.732 86.801 152.697 86.801 198.135C86.801 206.234 87.955 214.107 90.193 221.602C54.633 233.498 28.934 267.121 28.934 306.633C28.934 321.422 32.539 335.627 39.262 348.275C15.303 364.42 0 391.697 0 422.367C0 471.791 40.211 512 89.635 512H422.367C471.791 512 512 471.791 512 422.367C512 391.707 496.711 364.439 472.732 348.287ZM422.367 480H89.635C57.857 480 32 454.145 32 422.367C32 394.002 52.418 370.158 80.533 365.666C87.027 364.607 89.073 356.308 83.873 352.352C69.291 341.254 60.934 324.6 60.934 306.633C60.934 274.855 86.791 249 118.566 249H131.342C138.268 249 141.408 240.395 136.242 235.904C124.998 226.104 118.801 212.688 118.801 198.135C118.801 170.338 141.404 147.732 169.201 147.732H183.668C227.666 147.732 263.467 111.932 263.467 67.934C263.467 55.436 260.492 43.199 254.762 32.014C296.769 30.652 335.334 65.63 335.334 111.334C335.334 119.951 333.701 128.834 330.479 137.715C328.61 142.857 330.839 147.732 342.801 147.732C370.596 147.732 393.201 170.338 393.201 198.135C393.201 212.687 387.002 226.104 375.76 235.904C370.605 240.382 373.717 249 380.658 249H393.434C425.211 249 451.066 274.855 451.066 306.633C451.066 324.6 442.711 341.254 428.127 352.352C422.933 356.304 424.964 364.605 431.467 365.666C459.584 370.158 480 394.002 480 422.367C480 454.145 454.145 480 422.367 480Z"/></svg>