<svg xmlns="http://www.w3.org/2000/svg" viewBox="0 0 512 512"><!-- Font Awesome Pro 6.0.0-alpha2 by @fontawesome - https://fontawesome.com License - https://fontawesome.com/license (Commercial License) --><path d="M359.391 57.25C351.516 53.156 341.875 56.219 337.812 64.031C333.734 71.875 336.766 81.531 344.609 85.625C408.375 118.875 448 184.156 448 256C448 361.875 361.875 448 256 448S64 361.875 64 256C64 184.156 103.625 118.875 167.391 85.625C175.234 81.531 178.266 71.875 174.187 64.031C170.141 56.219 160.438 53.156 152.609 57.25C78.219 96.031 32 172.188 32 256C32 379.5 132.484 480 256 480S480 379.5 480 256C480 172.188 433.781 96.031 359.391 57.25ZM256 288C264.844 288 272 280.844 272 272V16C272 7.156 264.844 0 256 0S240 7.156 240 16V272C240 280.844 247.156 288 256 288Z"/></svg>