<svg xmlns="http://www.w3.org/2000/svg" viewBox="0 0 448 512"><!-- Font Awesome Pro 6.0.0-alpha2 by @fontawesome - https://fontawesome.com License - https://fontawesome.com/license (Commercial License) --><path d="M310.625 352L411.312 251.312C417.562 245.062 417.562 234.937 411.312 228.688S394.937 222.438 388.688 228.688L288 329.375L182.625 224H192C244.938 224 288 180.938 288 128S244.938 32 192 32H80C53.531 32 32 53.531 32 80V304C32 312.844 39.156 320 48 320S64 312.844 64 304V224H137.375L265.375 352L164.688 452.688C158.438 458.938 158.438 469.063 164.688 475.312C167.812 478.438 171.906 480 176 480S184.188 478.438 187.312 475.312L288 374.625L388.688 475.312C391.812 478.438 395.906 480 400 480S408.188 478.438 411.312 475.312C417.562 469.062 417.562 458.937 411.312 452.688L310.625 352ZM64 80C64 71.188 71.172 64 80 64H192C227.297 64 256 92.719 256 128S227.297 192 192 192H64V80Z"/></svg>