<svg xmlns="http://www.w3.org/2000/svg" viewBox="0 0 384 512"><!-- Font Awesome Pro 6.0.0-alpha2 by @fontawesome - https://fontawesome.com License - https://fontawesome.com/license (Commercial License) --><path d="M139.219 234.391C102.578 283.312 84 319.266 84 341.25C84 382.469 118.094 416 160 416S236 382.469 236 341.25C236 319.266 217.422 283.312 180.766 234.391C170.86 221.172 149.157 221.172 139.219 234.391ZM160 384C135.735 384 116 364.828 116 341.25C116 331.359 127.641 304.344 160 260.109C192.36 304.344 204 331.359 204 341.25C204 364.828 184.266 384 160 384ZM379.313 100.688L331.313 52.688C328.313 49.688 324.25 48 320 48H240V32C240 14.326 225.674 0 208 0H112C94.326 0 80 14.326 80 32V128.414C48.897 130.551 23.494 154.727 20.631 186.205L0.268 442.205C-3.138 479.686 26.371 512 64.006 512H255.994C293.629 512 323.139 479.686 319.733 442.205L299.369 186.205C296.506 154.727 271.104 130.551 240 128.414V80H313.375L356.688 123.312C359.813 126.438 363.907 128 368 128S376.188 126.438 379.313 123.312C385.563 117.062 385.563 106.938 379.313 100.688ZM112 32H208V128H112V32ZM267.471 188.742L287.864 445.102C288.688 454.166 285.762 462.859 279.623 469.58C273.487 476.299 265.096 480 255.994 480H64.006C54.905 480 46.514 476.299 40.377 469.58C34.239 462.859 31.313 454.166 32.166 444.742L52.5 189.104C53.916 173.521 66.405 161.084 82.194 160H237.807C253.596 161.084 266.084 173.521 267.471 188.742Z"/></svg>