<svg xmlns="http://www.w3.org/2000/svg" viewBox="0 0 512 512"><!-- Font Awesome Pro 6.0.0-alpha2 by @fontawesome - https://fontawesome.com License - https://fontawesome.com/license (Commercial License) --><path d="M256 232C242.787 232 232 242.75 232 256S242.787 280 256 280S280 269.25 280 256S269.213 232 256 232ZM256 16C123.451 16 16 123.451 16 256S123.451 496 256 496S496 388.549 496 256S388.549 16 256 16ZM256 464C141.309 464 48 370.691 48 256S141.309 48 256 48S464 141.309 464 256S370.691 464 256 464ZM256 128C185.309 128 128 185.307 128 256C128 326.691 185.309 384 256 384C326.693 384 384 326.691 384 256C384 185.307 326.693 128 256 128ZM256 352C203.066 352 160 308.934 160 256C160 203.064 203.066 160 256 160C308.936 160 352 203.064 352 256C352 308.934 308.936 352 256 352Z"/></svg>