<svg xmlns="http://www.w3.org/2000/svg" viewBox="0 0 640 512"><!-- Font Awesome Pro 6.0.0-alpha2 by @fontawesome - https://fontawesome.com License - https://fontawesome.com/license (Commercial License) --><path d="M576 64H64C28.654 64 0 92.654 0 128V384C0 419.346 28.654 448 64 448H576C611.346 448 640 419.346 640 384V128C640 92.654 611.346 64 576 64ZM608 384C608 401.645 593.645 416 576 416H64C46.355 416 32 401.645 32 384V128C32 110.355 46.355 96 64 96H576C593.645 96 608 110.355 608 128V384Z"/></svg>