<svg xmlns="http://www.w3.org/2000/svg" viewBox="0 0 576 512"><!-- Font Awesome Pro 6.0.0-alpha2 by @fontawesome - https://fontawesome.com License - https://fontawesome.com/license (Commercial License) --><path d="M464 144H208C199.201 144 192 151.199 192 160C192 168.799 199.201 176 208 176H464C472.801 176 480 168.799 480 160C480 151.199 472.801 144 464 144ZM128.141 136C114.998 136 104 146.781 104 160S114.998 184 128.141 184C141.375 184 152 173.219 152 160S141.375 136 128.141 136ZM128.141 232C114.998 232 104 242.781 104 256S114.998 280 128.141 280C141.375 280 152 269.219 152 256S141.375 232 128.141 232ZM464 240H208C199.201 240 192 247.199 192 256C192 264.799 199.201 272 208 272H464C472.801 272 480 264.799 480 256C480 247.199 472.801 240 464 240ZM128.141 328C114.998 328 104 338.781 104 352S114.998 376 128.141 376C141.375 376 152 365.219 152 352S141.375 328 128.141 328ZM464 336H208C199.201 336 192 343.199 192 352C192 360.799 199.201 368 208 368H464C472.801 368 480 360.799 480 352C480 343.199 472.801 336 464 336ZM512 32H64C28.654 32 0 60.652 0 96V416C0 451.346 28.654 480 64 480H512C547.348 480 576 451.346 576 416V96C576 60.652 547.348 32 512 32ZM544 416C544 433.645 529.645 448 512 448H64C46.355 448 32 433.645 32 416V96C32 78.355 46.355 64 64 64H512C529.645 64 544 78.355 544 96V416Z"/></svg>