<svg xmlns="http://www.w3.org/2000/svg" viewBox="0 0 512 512"><!-- Font Awesome Pro 6.0.0-alpha2 by @fontawesome - https://fontawesome.com License - https://fontawesome.com/license (Commercial License) --><path d="M448 32H64C28.654 32 0 60.652 0 96V416C0 451.348 28.654 480 64 480H448C483.346 480 512 451.348 512 416V96C512 60.652 483.346 32 448 32ZM480 416C480 433.645 465.645 448 448 448H64C46.355 448 32 433.645 32 416V96C32 78.355 46.355 64 64 64H448C465.645 64 480 78.355 480 96V416ZM331.312 180.688C325.062 174.438 314.937 174.438 308.688 180.688L256 233.375L203.312 180.688C197.062 174.438 186.937 174.438 180.688 180.688S174.438 197.063 180.688 203.312L233.375 256L180.688 308.688C174.438 314.938 174.438 325.063 180.688 331.312C186.934 337.559 197.059 337.566 203.312 331.312L256 278.625L308.688 331.312C314.934 337.559 325.059 337.566 331.312 331.312C337.562 325.062 337.562 314.937 331.312 308.688L278.625 256L331.312 203.312C337.562 197.062 337.562 186.938 331.312 180.688Z"/></svg>