<svg xmlns="http://www.w3.org/2000/svg" viewBox="0 0 576 512"><!-- Font Awesome Pro 6.0.0-alpha2 by @fontawesome - https://fontawesome.com License - https://fontawesome.com/license (Commercial License) --><path d="M400 224.003H188.199L346.25 92.29C353.031 86.633 353.938 76.54 348.281 69.759C342.594 62.946 332.5 62.071 325.75 67.727L133.75 227.722C130.094 230.753 128 235.253 128 240.003S130.094 249.252 133.75 252.284L325.75 412.282C328.75 414.782 332.375 416 336 416C340.562 416 345.125 414.032 348.281 410.25C353.938 403.469 353.031 393.376 346.25 387.72L188.199 256.002H400C479.406 256.002 544 320.595 544 400.001V432C544 440.844 551.156 448 560 448S576 440.844 576 432V400.001C576 302.971 497.031 224.003 400 224.003ZM41 240.003L218.25 92.286C225.031 86.63 225.938 76.536 220.281 69.755C214.625 62.942 204.531 62.067 197.75 67.724L5.75 227.722C2.094 230.753 0 235.253 0 240.003S2.094 249.252 5.75 252.284L197.75 412.282C200.75 414.782 204.375 416 208 416C212.562 416 217.125 414.032 220.281 410.25C225.938 403.469 225.031 393.376 218.25 387.72L41 240.003Z"/></svg>