<svg xmlns="http://www.w3.org/2000/svg" viewBox="0 0 640 512"><!-- Font Awesome Pro 6.0.0-alpha2 by @fontawesome - https://fontawesome.com License - https://fontawesome.com/license (Commercial License) --><path d="M608 255.961H576C558.328 255.961 544 270.289 544 287.961V367.961C544 376.785 536.822 383.961 528 383.961S512 376.785 512 367.961V191.961C512 103.594 440.365 31.961 352 31.961H160C71.635 31.961 0 103.594 0 191.961V415.961C0 451.25 28.711 479.961 64 479.961H96C131.291 479.961 160 451.25 160 415.961V383.961H288V415.961C288 451.25 316.711 479.961 352 479.961H384C410.963 479.961 434.086 463.199 443.496 439.551C461.666 461.469 487.428 476.422 516.422 479.371C520.326 479.766 524.18 479.961 527.998 479.961C589.756 479.961 640 429.719 640 367.961V287.961C640 270.289 625.674 255.961 608 255.961ZM32 191.961C32 121.336 89.375 63.961 160 63.961H352C422.625 63.961 480 121.336 480 191.961V255.961H32V191.961ZM608 367.961C608 412.082 572.121 447.961 527.998 447.961C525.246 447.961 522.471 447.82 519.66 447.535C478.033 443.301 448 405.102 448 363.262V351.961H416V415.961C416 433.559 401.6 447.961 384 447.961H352C334.4 447.961 320 433.559 320 415.961V351.961H128V415.961C128 433.559 113.6 447.961 96 447.961H64C46.4 447.961 32 433.559 32 415.961V287.961H480V367.961C480 394.461 501.5 415.961 528 415.961S576 394.461 576 367.961V287.961H608V367.961ZM176.111 160H160.115V144C160.115 135.156 152.959 128 144.117 128S128.119 135.156 128.119 144V160H112.123C103.279 160 96.125 167.156 96.125 176S103.279 192 112.123 192H128.119V208C128.119 216.844 135.275 224 144.117 224S160.115 216.844 160.115 208V192H176.111C184.953 192 192.109 184.844 192.109 176S184.953 160 176.111 160ZM288.094 160H272.096V144C272.096 135.156 264.941 128 256.098 128C247.256 128 240.102 135.156 240.102 144V160H224.104C215.262 160 208.107 167.156 208.107 176S215.262 192 224.104 192H240.102V208C240.102 216.844 247.256 224 256.098 224C264.941 224 272.096 216.844 272.096 208V192H288.094C296.936 192 304.09 184.844 304.09 176S296.936 160 288.094 160ZM400.074 160H384.078V144C384.078 135.156 376.922 128 368.08 128S352.082 135.156 352.082 144V160H336.086C327.244 160 320.088 167.156 320.088 176S327.244 192 336.086 192H352.082V208C352.082 216.844 359.238 224 368.08 224S384.078 216.844 384.078 208V192H400.074C408.918 192 416.072 184.844 416.072 176S408.918 160 400.074 160Z"/></svg>