<svg xmlns="http://www.w3.org/2000/svg" viewBox="0 0 576 512"><!-- Font Awesome Pro 6.0.0-alpha2 by @fontawesome - https://fontawesome.com License - https://fontawesome.com/license (Commercial License) --><path d="M573.163 415.855L447.448 63.855C440.626 44.752 422.53 32 402.245 32H173.755C153.47 32 135.374 44.752 128.552 63.855L2.837 415.855C-8.327 447.115 14.847 480 48.04 480H527.958C561.153 480 584.327 447.115 573.163 415.855ZM541.038 441.217C539.253 443.75 535.181 448 527.958 448H303.999V400C303.999 391.156 296.843 384 287.999 384S271.999 391.156 271.999 400V448H48.04C40.821 448 36.747 443.75 34.962 441.217S30.544 433.418 32.974 426.619L158.689 74.617C160.956 68.268 167.011 64 173.755 64H271.999V112C271.999 120.844 279.155 128 287.999 128S303.999 120.844 303.999 112V64H402.245C408.989 64 415.046 68.268 417.314 74.619L543.028 426.617C545.456 433.418 542.823 438.684 541.038 441.217ZM287.999 192C279.155 192 271.999 199.156 271.999 208V304C271.999 312.844 279.155 320 287.999 320S303.999 312.844 303.999 304V208C303.999 199.156 296.843 192 287.999 192Z"/></svg>