<svg xmlns="http://www.w3.org/2000/svg" viewBox="0 0 640 512"><!-- Font Awesome Pro 6.0.0-alpha2 by @fontawesome - https://fontawesome.com License - https://fontawesome.com/license (Commercial License) --><path d="M448 96H336V16C336 7.156 328.844 0 320 0S304 7.156 304 16V96H192C138.98 96 96 138.98 96 192V416C96 469.02 138.98 512 192 512H448C501.02 512 544 469.02 544 416V192C544 138.98 501.02 96 448 96ZM512 384H496C487.156 384 480 391.156 480 400S487.156 416 496 416H512C512 451.289 483.291 480 448 480H192C156.711 480 128 451.289 128 416H144C152.844 416 160 408.844 160 400S152.844 384 144 384H128V192C128 156.711 156.711 128 192 128H448C483.291 128 512 156.711 512 192V384ZM36.719 228.609C39.719 225.641 43.656 224 47.844 224H48C56.812 224 63.969 216.891 64 208.078C64.031 199.234 56.906 192.047 48.062 192H47.844C35.125 192 23.188 196.938 14.156 205.938C5.031 215.016 0 227.125 0 240.016V367.984C0 394.453 21.469 416 47.875 416C56.719 416 63.875 408.844 63.875 400S56.719 384 47.875 384C39.125 384 32 376.812 32 367.984V240.016C32 235.688 33.688 231.641 36.719 228.609ZM592.125 192C583.281 192 576.125 199.156 576.125 208S583.281 224 592.125 224C600.875 224 608 231.188 608 240.016V367.984C608 372.312 606.312 376.359 603.281 379.391C600.281 382.359 596.344 384 592.156 384H592C583.188 384 576.031 391.109 576 399.922C575.969 408.766 583.094 415.953 591.938 416H592.156C604.875 416 616.812 411.062 625.844 402.062C634.969 392.984 640 380.875 640 367.984V240.016C640 213.547 618.531 192 592.125 192ZM240 384H208C199.156 384 192 391.156 192 400S199.156 416 208 416H240C248.844 416 256 408.844 256 400S248.844 384 240 384ZM336 384H304C295.156 384 288 391.156 288 400S295.156 416 304 416H336C344.844 416 352 408.844 352 400S344.844 384 336 384ZM432 384H400C391.156 384 384 391.156 384 400S391.156 416 400 416H432C440.844 416 448 408.844 448 400S440.844 384 432 384ZM224 192C188.719 192 160 220.703 160 256S188.719 320 224 320S288 291.297 288 256S259.281 192 224 192ZM224 288C206.344 288 192 273.641 192 256S206.344 224 224 224S256 238.359 256 256S241.656 288 224 288ZM416 192C380.719 192 352 220.703 352 256S380.719 320 416 320S480 291.297 480 256S451.281 192 416 192ZM416 288C398.344 288 384 273.641 384 256S398.344 224 416 224S448 238.359 448 256S433.656 288 416 288Z"/></svg>