<svg xmlns="http://www.w3.org/2000/svg" viewBox="0 0 512 512"><!-- Font Awesome Pro 6.0.0-alpha2 by @fontawesome - https://fontawesome.com License - https://fontawesome.com/license (Commercial License) --><path d="M447.984 272.219C439.219 270.656 431.016 276.625 429.562 285.344C415.312 370.312 342.312 432 256 432C206.037 432 159.977 410.441 127.428 375.195L187.312 315.312C191.891 310.75 193.266 303.844 190.781 297.875C188.312 291.906 182.469 288 176 288H48C39.156 288 32 295.156 32 304V432C32 438.469 35.891 444.312 41.875 446.781C43.859 447.594 45.938 448 48 448C52.156 448 56.25 446.375 59.312 443.312L104.914 397.711C143.316 438.852 197.357 464 256 464C358 464 444.266 391.094 461.125 290.656C462.578 281.938 456.703 273.688 447.984 272.219ZM64 393.375V320H137.375L64 393.375ZM470.125 65.219C468.141 64.406 466.062 64 464 64C459.844 64 455.75 65.625 452.688 68.688L407.086 114.289C368.684 73.148 314.643 48 256 48C154 48 67.734 120.906 50.875 221.344C49.422 230.062 55.297 238.312 64.016 239.781C72.781 241.344 80.984 235.375 82.438 226.656C96.688 141.688 169.688 80 256 80C305.963 80 352.023 101.559 384.572 136.805L324.688 196.688C320.109 201.25 318.734 208.156 321.219 214.125C323.688 220.094 329.531 224 336 224H464C472.844 224 480 216.844 480 208V80C480 73.531 476.109 67.688 470.125 65.219ZM448 192H374.625L448 118.625V192Z"/></svg>