<svg xmlns="http://www.w3.org/2000/svg" viewBox="0 0 512 512"><!-- Font Awesome Pro 6.0.0-alpha2 by @fontawesome - https://fontawesome.com License - https://fontawesome.com/license (Commercial License) --><path d="M232 368C232 381.254 242.746 392 256 392S280 381.254 280 368S269.254 344 256 344S232 354.746 232 368ZM452.469 296.781C444.031 294.469 435.125 299.188 432.625 307.688C409.906 385.594 337.281 440 256 440C179.178 440 110.637 391.107 84.105 320H144C152.844 320 160 312.844 160 304S152.844 288 144 288H48C39.156 288 32 295.156 32 304V400C32 408.844 39.156 416 48 416S64 408.844 64 400V354.193C100.443 425.021 174.361 472 256 472C351.406 472 436.688 408.125 463.375 316.625C465.844 308.156 460.969 299.281 452.469 296.781ZM464 96C455.156 96 448 103.156 448 112V157.807C411.557 86.979 337.639 40 256 40C160.594 40 75.312 103.875 48.625 195.375C46.156 203.844 51.031 212.719 59.531 215.219C67.906 217.562 76.875 212.781 79.375 204.312C102.094 126.406 174.719 72 256 72C332.822 72 401.363 120.893 427.895 192H368C359.156 192 352 199.156 352 208S359.156 224 368 224H464C472.844 224 480 216.844 480 208V112C480 103.156 472.844 96 464 96ZM272 288V128C272 119.156 264.844 112 256 112S240 119.156 240 128V288C240 296.844 247.156 304 256 304S272 296.844 272 288Z"/></svg>