<svg xmlns="http://www.w3.org/2000/svg" viewBox="0 0 512 512"><!-- Font Awesome Pro 6.0.0-alpha2 by @fontawesome - https://fontawesome.com License - https://fontawesome.com/license (Commercial License) --><path d="M416 72C383.906 72 384.094 120 416 120C448.094 120 447.906 72 416 72ZM432 352H320C293.5 352 272 330.5 272 304S293.5 256 320 256H416C416 256 512 149 512 96S469 0 416 0S320 43 320 96C320 130.625 360.875 188.25 389.25 224H320C275.875 224 240 259.875 240 304S275.875 384 320 384H432C458.5 384 480 405.5 480 432S458.5 480 432 480H122.75C151.125 444.25 192 386.625 192 352C192 299 149 256 96 256S0 299 0 352S96 512 96 512H432C476.125 512 512 476.125 512 432S476.125 352 432 352ZM352 96C352 60.75 380.75 32 416 32S480 60.75 480 96C480 116.375 449.875 164 416 206.375C382 163.75 352 115.75 352 96ZM32 352C32 316.75 60.75 288 96 288S160 316.75 160 352C160 372.375 129.875 420 96 462.375C62 419.75 32 371.75 32 352ZM96 328C63.906 328 64.094 376 96 376C128.094 376 127.906 328 96 328Z"/></svg>