<svg xmlns="http://www.w3.org/2000/svg" viewBox="0 0 512 512"><!-- Font Awesome Pro 6.0.0-alpha2 by @fontawesome - https://fontawesome.com License - https://fontawesome.com/license (Commercial License) --><path d="M497.846 430.059L81.941 14.154C72.164 4.377 60.141 0 48.348 0C23.67 0 0 19.16 0 48.096V464C0 490.51 21.49 512 48 512H463.904C506.668 512 528.084 460.297 497.846 430.059ZM478.688 470.123C477.457 473.092 473.555 480 463.904 480H48C39.178 480 32 472.822 32 464V48.096C32 36.369 42.027 32 48.348 32C52.451 32 56.141 33.609 59.314 36.781L95.955 73.42L68.688 100.688C62.438 106.938 62.438 117.063 68.688 123.312C71.812 126.438 75.906 128 80 128S88.188 126.438 91.312 123.312L118.58 96.045L175.955 153.42L148.688 180.688C142.438 186.938 142.438 197.063 148.688 203.312C151.812 206.438 155.906 208 160 208S168.188 206.438 171.312 203.312L198.58 176.045L255.955 233.42L228.688 260.688C222.438 266.938 222.438 277.063 228.688 283.312C231.812 286.438 235.906 288 240 288S248.188 286.438 251.312 283.312L278.58 256.045L335.955 313.42L308.688 340.688C302.438 346.938 302.438 357.063 308.688 363.312C311.812 366.438 315.906 368 320 368S328.188 366.438 331.312 363.312L358.58 336.045L415.955 393.42L388.688 420.688C382.438 426.938 382.438 437.063 388.688 443.312C391.812 446.438 395.906 448 400 448S408.188 446.438 411.312 443.312L438.58 416.045L475.219 452.686C482.041 459.508 479.916 467.152 478.688 470.123ZM139.312 250.344C134.734 245.766 127.875 244.391 121.875 246.875C115.891 249.344 112 255.188 112 261.656V384C112 392.844 119.156 400 128 400H250.344C256.812 400 262.656 396.109 265.125 390.125C267.609 384.141 266.234 377.266 261.656 372.687L139.312 250.344ZM144 368V300.281L211.719 368H144Z"/></svg>