<svg xmlns="http://www.w3.org/2000/svg" viewBox="0 0 512 512"><!-- Font Awesome Pro 6.0.0-alpha2 by @fontawesome - https://fontawesome.com License - https://fontawesome.com/license (Commercial License) --><path d="M194.327 340.297L219.435 315.187C225.693 318.184 232.611 320 239.999 320C266.468 320 287.999 298.469 287.999 272S266.468 224 239.999 224S191.999 245.531 191.999 272C191.999 279.391 193.816 286.305 196.81 292.562L171.704 317.672L50.915 196.844C47.665 193.594 43.318 192 39.029 192C33.454 192 27.976 194.691 25.134 199.941C-17.923 280.277 -5.677 382.277 62.003 449.977C103.345 491.332 157.544 512 211.732 512C246.253 512 280.761 503.621 311.964 486.859C321.376 481.699 322.665 468.547 315.06 461.066L194.327 340.297ZM239.999 256C248.827 256 255.999 263.188 255.999 272S248.827 288 239.999 288S223.999 280.812 223.999 272S231.171 256 239.999 256ZM211.732 480C163.71 480 118.573 461.305 84.634 427.352C33.411 376.117 18.294 301.195 44.03 235.219L276.663 467.918C256.056 475.863 233.968 480 211.732 480ZM207.999 0C199.155 0 191.999 7.156 191.999 16S199.155 32 207.999 32C357.984 32 479.999 154.031 479.999 304C479.999 312.844 487.155 320 495.999 320S511.999 312.844 511.999 304C511.999 136.375 375.624 0 207.999 0ZM207.999 96C199.155 96 191.999 103.156 191.999 112S199.155 128 207.999 128C305.046 128 383.999 206.969 383.999 304C383.999 312.844 391.155 320 399.999 320S415.999 312.844 415.999 304C415.999 189.312 322.687 96 207.999 96Z"/></svg>