<svg xmlns="http://www.w3.org/2000/svg" viewBox="0 0 576 512"><!-- Font Awesome Pro 6.0.0-alpha2 by @fontawesome - https://fontawesome.com License - https://fontawesome.com/license (Commercial License) --><path d="M560 96H432C423.156 96 416 103.156 416 112S423.156 128 432 128H560C568.844 128 576 120.844 576 112S568.844 96 560 96ZM432 64H560C568.844 64 576 56.844 576 48S568.844 32 560 32H432C423.156 32 416 39.156 416 48S423.156 64 432 64ZM560 192H432C423.156 192 416 199.156 416 208S423.156 224 432 224H560C568.844 224 576 216.844 576 208S568.844 192 560 192ZM304 32H114.076C51.074 32 0 82.605 0 145.027C0 195.965 34.23 238.525 80.975 252.65L6.432 376.912C-6.816 399.697 1.057 428.674 24.055 441.924L79.424 473.627C86.99 477.945 95.246 480 103.391 480C120.004 480 136.152 471.457 145.043 456.168L262.594 258.057H304C330.51 258.057 352 236.764 352 210.498V79.559C352 53.293 330.51 32 304 32ZM117.314 440.34C114.42 445.32 109.215 448.293 103.391 448.293C100.574 448.293 97.887 447.574 95.436 446.174L40.141 414.518C32.311 410.004 29.682 400.438 34.146 392.762L114.707 258.057H225.635L117.314 440.34ZM320 210.498C320 219.238 312.822 226.35 304 226.35H114.076C68.82 226.35 32 189.871 32 145.027C32 100.186 68.82 63.705 114.076 63.705H304C312.822 63.705 320 70.818 320 79.559V210.498ZM560 256H432C423.156 256 416 263.156 416 272S423.156 288 432 288H560C568.844 288 576 280.844 576 272S568.844 256 560 256ZM560 320H432C423.156 320 416 327.156 416 336S423.156 352 432 352H560C568.844 352 576 344.844 576 336S568.844 320 560 320ZM560 448H432C423.156 448 416 455.156 416 464S423.156 480 432 480H560C568.844 480 576 472.844 576 464S568.844 448 560 448Z"/></svg>