<svg xmlns="http://www.w3.org/2000/svg" viewBox="0 0 640 512"><!-- Font Awesome Pro 6.0.0-alpha2 by @fontawesome - https://fontawesome.com License - https://fontawesome.com/license (Commercial License) --><path d="M586.262 293.625C582.262 257.125 551.386 229.375 514.635 229.375C507.135 229.375 499.635 230.5 492.385 232.875C466.134 205.75 426.759 195.875 390.883 207.5C355.007 219.125 328.882 250.25 323.632 287.625C277.631 302.875 249.505 349.25 257.255 397C265.005 444.875 306.256 480 354.632 480H541.386C586.887 480 626.638 448.875 637.263 404.5C647.888 360.25 626.888 314.375 586.262 293.625ZM541.386 448H354.632C330.632 448.25 308.381 435.625 296.256 414.875C284.131 394.125 284.131 368.5 296.256 347.75C308.381 327 330.632 314.375 354.632 314.625C355.132 314.625 355.632 314.75 356.007 314.75C349.007 280.875 369.007 247.25 402.258 237.375C435.384 227.5 470.635 244.625 483.26 276.875C495.26 261.125 517.135 256.625 534.511 266.375C551.761 276.25 559.261 297.25 551.886 315.75C586.262 321.25 610.512 352.125 607.762 386.75C605.012 421.375 576.012 448 541.386 448ZM224.005 144V272C224.005 280.875 231.13 288 240.005 288C248.88 288 256.005 280.875 256.005 272V144C256.005 135.125 248.88 128 240.005 128C231.13 128 224.005 135.125 224.005 144ZM64.001 448C46.376 448 32.001 433.625 32.001 416V96C32.001 78.375 46.376 64 64.001 64H384.008C401.633 64 416.008 78.375 416.008 96V171.125C417.758 171 419.508 170.625 421.384 170.625C430.259 170.75 439.259 171.75 448.009 173.625V96C448.009 60.625 419.383 32 384.008 32H64.001C28.626 32 0 60.625 0 96V416C0 451.375 28.626 480 64.001 480H270.005C259.38 470.875 250.13 460 243.005 448H64.001ZM160.003 144V272C160.003 280.875 167.128 288 176.004 288C184.879 288 192.004 280.875 192.004 272V144C192.004 135.125 184.879 128 176.004 128C167.128 128 160.003 135.125 160.003 144ZM96.002 144V272C96.002 280.875 103.127 288 112.002 288S128.003 280.875 128.003 272V144C128.003 135.125 120.877 128 112.002 128S96.002 135.125 96.002 144Z"/></svg>