<svg xmlns="http://www.w3.org/2000/svg" viewBox="0 0 448 512"><!-- Font Awesome Pro 6.0.0-alpha2 by @fontawesome - https://fontawesome.com License - https://fontawesome.com/license (Commercial License) --><path d="M272 144V336C272 344.844 279.156 352 288 352S304 344.844 304 336V144C304 82.25 253.75 32 192 32H80C53.531 32 32 53.531 32 80V464C32 472.844 39.156 480 48 480S64 472.844 64 464V80C64 71.172 71.188 64 80 64H192C236.125 64 272 99.891 272 144ZM400 32C391.156 32 384 39.156 384 48V368C384 412.183 348.183 448 304 448H192C183.163 448 176 440.837 176 432V176C176 167.156 168.844 160 160 160S144 167.156 144 176V432C144 458.51 165.49 480 192 480H304C365.856 480 416 429.856 416 368V48C416 39.156 408.844 32 400 32Z"/></svg>