<svg xmlns="http://www.w3.org/2000/svg" viewBox="0 0 640 512"><!-- Font Awesome Pro 6.0.0-alpha2 by @fontawesome - https://fontawesome.com License - https://fontawesome.com/license (Commercial License) --><path d="M320.062 479.969C304.801 479.969 139.582 403.055 114.851 175.586L80.741 148.664C90.772 393.564 271.741 512 319.937 512C358.765 512 426.736 450.5 442.505 434.258L417.441 414.469C378.757 454.837 331.938 479.969 320.062 479.969ZM313.749 33.25C315.722 32.422 317.858 31.984 320.007 31.984C322.078 31.984 324.161 32.391 326.124 33.25L518.124 113.25C527.265 117.059 527.874 125.838 527.874 128.312C527.874 194.964 512.897 255.816 489.036 307.867L515.782 328.984C542.275 274.266 559.999 207.562 559.999 128C559.999 108.625 548.249 91.125 530.499 83.75L338.499 3.75C332.624 1.25 326.343 0 320.062 0S307.499 1.25 301.624 3.75L172.153 57.695L200.8 80.312L313.749 33.25ZM639.998 496.019C639.998 491.287 637.914 486.601 633.921 483.438L25.921 3.422C22.989 1.117 19.499 0.002 16.032 0.002C7.384 0.002 0 6.898 0 15.966C0 20.697 2.085 25.383 6.077 28.547L614.077 508.563C617.015 510.875 620.515 512 623.984 512C632.535 512 639.998 505.146 639.998 496.019Z "></path></svg>