<svg xmlns="http://www.w3.org/2000/svg" viewBox="0 0 640 512"><!-- Font Awesome Pro 6.0.0-alpha2 by @fontawesome - https://fontawesome.com License - https://fontawesome.com/license (Commercial License) --><path d="M337.5 272C302.5 272 261.25 286 232.75 306.25C208 323.875 188.25 340.625 128 340.625H64C28.625 340.625 0 371.25 0 409.125S28.625 480 64 480H128L185.5 494.875C217.375 504.25 250.125 512 293.25 512C403.875 512 512 456.875 512 374.875C512 306.25 427.875 272 337.5 272ZM112 448H64C47 448 32 429.875 32 409.125C32 389 46.375 372.625 64 372.625H112V448ZM193.5 463.875L144 451.125V372C199.375 369 224.75 351.25 247.125 335.375C338.375 270.375 480 316.75 480 374.875C480 437 358.5 512.75 193.5 463.875ZM421.25 0C377.875 0 345.125 7.75 313.5 17.125L256 32H192C156.625 32 128 65 128 102.875S156.625 171.375 192 171.375H256C316.25 171.375 336 188.125 360.75 205.75C389.25 226 430.5 240 465.5 240C555.875 240 640 205.75 640 137.125C640 55.875 533.125 0 421.25 0ZM240 139.375H192C174.375 139.375 160 123 160 102.875C160 82.125 175 64 192 64H240V139.375ZM465.5 208C437.875 208 403.25 196.625 379.25 179.625C355.5 162.75 330.5 143.125 272 140V60.875L322.625 47.875C352 39.125 381.75 32 421.25 32C473.375 32 608 58 608 137.125C608 183.625 536.25 208 465.5 208Z"/></svg>