<svg xmlns="http://www.w3.org/2000/svg" viewBox="0 0 512 512"><!-- Font Awesome Pro 6.0.0-alpha2 by @fontawesome - https://fontawesome.com License - https://fontawesome.com/license (Commercial License) --><path d="M501.499 86.125L425.87 10.5C418.869 3.5 409.744 0 400.618 0C391.493 0 382.242 3.5 375.367 10.5L346.115 39.625C329.239 56.625 319.988 79.25 319.988 102.625C319.988 127.25 329.739 144.5 335.989 153.375L208.606 280.75L152.103 224.125C145.852 217.875 137.602 214.75 129.476 214.75C121.226 214.75 113.1 217.875 106.85 224.125L38.971 292C-11.032 342 -6.282 473 16.344 495.625C26.22 505.5 56.722 512 92.099 512C137.852 512 191.73 501.25 219.982 473L287.861 405.125C300.362 392.625 300.362 372.375 287.861 359.875L231.233 303.375L358.616 176C367.491 182.25 384.867 192 409.369 192C432.745 192 455.372 182.75 472.373 165.875L501.499 136.625C515.5 122.75 515.5 100 501.499 86.125ZM197.356 450.375C160.728 487.125 62.972 483.125 39.221 472.625C28.47 450.5 25.595 350.625 61.597 314.625L129.476 246.75L265.235 382.5L197.356 450.375ZM478.873 114L449.746 143.25C396.993 196 315.613 115.375 368.741 62.25L397.993 33.125C399.368 31.625 401.743 31.625 403.243 33.125L478.873 108.75C480.373 110.25 480.373 112.625 478.873 114Z"/></svg>