<svg xmlns="http://www.w3.org/2000/svg" viewBox="0 0 512 512"><!-- Font Awesome Pro 6.0.0-alpha2 by @fontawesome - https://fontawesome.com License - https://fontawesome.com/license (Commercial License) --><path d="M427.312 292.688C421.062 286.438 410.937 286.438 404.688 292.688S398.438 309.063 404.688 315.312L457.375 368H336C331 368 326.219 365.594 323.219 361.594L284.812 310.406C279.5 303.312 269.437 301.906 262.406 307.188C255.344 312.5 253.906 322.531 259.188 329.594L297.594 380.781C306.594 392.812 320.969 400 336 400H457.375L404.688 452.688C398.438 458.938 398.438 469.063 404.688 475.312C407.812 478.438 411.906 480 416 480S424.188 478.438 427.312 475.312L507.312 395.312C513.562 389.062 513.562 378.937 507.312 372.688L427.312 292.688ZM336 144H457.375L404.688 196.688C398.438 202.938 398.438 213.063 404.688 219.312C407.812 222.438 411.906 224 416 224S424.188 222.438 427.312 219.312L507.312 139.312C513.562 133.062 513.562 122.937 507.312 116.688L427.312 36.688C421.062 30.438 410.937 30.438 404.688 36.688S398.438 53.063 404.688 59.312L457.375 112H336C320.969 112 306.594 119.188 297.594 131.219L124.781 361.594C121.781 365.594 117 368 112 368H16C7.156 368 0 375.156 0 384S7.156 400 16 400H112C127.031 400 141.406 392.812 150.406 380.781L323.219 150.406C326.219 146.406 331 144 336 144ZM16 144H112C117 144 121.781 146.406 124.781 150.406L163.188 201.594C166.344 205.781 171.156 208 176 208C179.344 208 182.719 206.969 185.594 204.812C192.656 199.5 194.094 189.469 188.812 182.406L150.406 131.219C141.406 119.188 127.031 112 112 112H16C7.156 112 0 119.156 0 128S7.156 144 16 144Z"/></svg>