<svg xmlns="http://www.w3.org/2000/svg" viewBox="0 0 576 512"><!-- Font Awesome Pro 6.0.0-alpha2 by @fontawesome - https://fontawesome.com License - https://fontawesome.com/license (Commercial License) --><path d="M288 192.008C252.625 192.008 224 220.632 224 256.006S252.625 320.004 288 320.004S352 291.38 352 256.006S323.375 192.008 288 192.008ZM288 288.005C270.375 288.005 256 273.63 256 256.006S270.375 224.007 288 224.007S320 238.381 320 256.006S305.625 288.005 288 288.005ZM32 256.006C32 193.82 56.172 135.353 100.047 91.292C106.297 85.042 106.266 74.918 100.016 68.668C93.766 62.481 83.641 62.449 77.391 68.73C27.484 118.791 0 185.321 0 256.006S27.484 393.22 77.391 443.281C80.516 446.438 84.609 448 88.719 448C92.797 448 96.891 446.438 100.016 443.344C106.266 437.094 106.297 426.969 100.047 420.72C56.172 376.658 32 318.191 32 256.006ZM498.609 68.73C492.359 62.418 482.234 62.449 475.984 68.668C469.734 74.918 469.703 85.042 475.953 91.292C519.828 135.353 544 193.82 544 256.006S519.828 376.658 475.953 420.72C469.703 426.969 469.734 437.094 475.984 443.344C479.109 446.438 483.188 448 487.281 448C491.391 448 495.484 446.438 498.609 443.281C548.516 393.22 576 326.691 576 256.006S548.516 118.791 498.609 68.73ZM167.484 132.385C161.047 126.291 150.922 126.635 144.875 133.01C113.359 166.384 96 210.07 96 256.006S113.359 345.628 144.875 379.002C148.016 382.315 152.25 384.002 156.5 384.002C160.438 384.002 164.391 382.564 167.484 379.627C173.906 373.565 174.203 363.44 168.125 357.003C142.25 329.629 128 293.755 128 256.006S142.25 182.383 168.125 155.009C174.203 148.572 173.906 138.447 167.484 132.385ZM431.125 133.01C425.062 126.635 414.969 126.291 408.516 132.385C402.094 138.447 401.797 148.572 407.875 155.009C433.75 182.383 448 218.257 448 256.006S433.75 329.629 407.875 357.003C401.797 363.44 402.094 373.565 408.516 379.627C411.609 382.564 415.562 384.002 419.5 384.002C423.75 384.002 427.984 382.315 431.125 379.002C462.641 345.628 480 301.942 480 256.006S462.641 166.384 431.125 133.01Z"/></svg>