<svg xmlns="http://www.w3.org/2000/svg" viewBox="0 0 640 512"><!-- Font Awesome Pro 6.0.0-alpha2 by @fontawesome - https://fontawesome.com License - https://fontawesome.com/license (Commercial License) --><path d="M450.109 280.049C447.281 284.987 447.297 291.081 450.156 296.019C453.031 300.957 458.297 303.989 464 303.989H624C632.844 303.989 640 296.832 640 287.987S632.844 271.986 624 271.986H491.578L541.891 183.918C545.094 178.324 544.609 171.324 540.672 166.198C536.75 161.135 530.125 158.885 523.844 160.542L341.922 209.42C347.922 172.949 351.391 140.572 351.922 118.226C352.906 76.005 324.281 39.377 285.328 33.065C261.812 29.252 238.109 35.784 220.203 51.003C202.281 66.254 192 88.474 192 111.976V175.98C192 184.824 199.156 191.981 208 191.981S224 184.824 224 175.98V111.976C224 97.881 230.172 84.537 240.938 75.38C251.828 66.098 265.766 62.379 280.188 64.629C303.469 68.442 320.547 91.131 319.922 117.476C319.375 141.165 315.125 177.762 307.875 218.545L217.016 242.985C182.906 253.204 160 284.018 160 319.615V422.402C160 454.155 185.844 480 217.594 480C237.359 480 255.406 470.281 265.859 453.998C296.25 406.62 320.688 320.927 335.656 244.235L495.047 201.388L450.109 280.049ZM238.922 436.685C234.453 443.654 226.281 447.998 217.594 447.998C203.484 447.998 192 436.528 192 422.402V319.615C192 298.238 205.75 279.768 225.766 273.737L301.141 253.485C286.75 322.49 265 396.088 238.922 436.685ZM123.312 180.668C117.062 174.418 106.937 174.418 100.688 180.668L64 217.358L27.312 180.668C21.062 174.418 10.937 174.418 4.688 180.668C-1.562 186.918 -1.562 197.044 4.688 203.294L41.375 239.984L4.688 276.674C-1.562 282.925 -1.562 293.05 4.688 299.301C7.812 302.426 11.906 303.989 16 303.989S24.188 302.426 27.312 299.301L64 262.611L100.688 299.301C103.812 302.426 107.906 303.989 112 303.989S120.188 302.426 123.312 299.301C129.562 293.05 129.562 282.925 123.312 276.674L86.625 239.984L123.312 203.294C129.562 197.044 129.562 186.918 123.312 180.668ZM112 351.992H16C7.156 351.992 0 359.148 0 367.993C0 376.837 7.156 383.994 16 383.994H112C120.844 383.994 128 376.837 128 367.993C128 359.148 120.844 351.992 112 351.992ZM624 351.992H352C343.156 351.992 336 359.148 336 367.993C336 376.837 343.156 383.994 352 383.994H624C632.844 383.994 640 376.837 640 367.993C640 359.148 632.844 351.992 624 351.992Z"/></svg>