<svg xmlns="http://www.w3.org/2000/svg" viewBox="0 0 384 512"><!-- Font Awesome Pro 6.0.0-alpha2 by @fontawesome - https://fontawesome.com License - https://fontawesome.com/license (Commercial License) --><path d="M365.254 109.254L274.746 18.744C262.742 6.742 246.465 0 229.49 0H64C28.801 0 0 28.799 0 64V448C0 483.199 28.801 512 64 512H320C355.199 512 384 483.199 384 448V154.51C384 137.535 377.258 121.256 365.254 109.254ZM352 448C352 465.6 337.6 480 320 480H64C46.4 480 32 465.6 32 448V64C32 46.4 46.4 32 64 32H229.496C237.982 32 246.121 35.371 252.123 41.373L342.627 131.877C348.629 137.879 352 146.018 352 154.504V448ZM272 192H112C85.5 192 64 213.5 64 240V400C64 426.5 85.5 448 112 448H272C298.5 448 320 426.5 320 400V240C320 213.5 298.5 192 272 192ZM168 224H216V264H168V224ZM96 240C96 231.25 103.25 224 112 224H136V264H96V240ZM136 416H112C103.25 416 96 408.75 96 400V376H136V416ZM216 416H168V376H216V416ZM288 400C288 408.75 280.75 416 272 416H248V376H288V400ZM288 344H96V296H288V344ZM288 264H248V224H272C280.75 224 288 231.25 288 240V264Z"/></svg>