<svg xmlns="http://www.w3.org/2000/svg" viewBox="0 0 512 512"><!-- Font Awesome Pro 6.0.0-alpha2 by @fontawesome - https://fontawesome.com License - https://fontawesome.com/license (Commercial License) --><path d="M272 160C298.51 160 320 138.51 320 112H496C504.844 112 512 104.844 512 96S504.844 80 496 80H320C320 53.49 298.51 32 272 32S224 53.49 224 80V112C224 138.51 245.49 160 272 160ZM256 80C256 71.178 263.178 64 272 64S288 71.178 288 80V112C288 120.822 280.822 128 272 128S256 120.822 256 112V80ZM16 112H176C184.844 112 192 104.844 192 96S184.844 80 176 80H16C7.156 80 0 87.156 0 96S7.156 112 16 112ZM496 240H448C448 213.49 426.51 192 400 192S352 213.49 352 240V272C352 298.51 373.49 320 400 320S448 298.51 448 272H496C504.844 272 512 264.844 512 256S504.844 240 496 240ZM416 272C416 280.822 408.822 288 400 288S384 280.822 384 272V240C384 231.178 391.178 224 400 224S416 231.178 416 240V272ZM496 400H224C224 373.49 202.51 352 176 352S128 373.49 128 400V432C128 458.51 149.49 480 176 480S224 458.51 224 432H496C504.844 432 512 424.844 512 416S504.844 400 496 400ZM192 432C192 440.822 184.822 448 176 448S160 440.822 160 432V400C160 391.178 167.178 384 176 384S192 391.178 192 400V432ZM16 272H304C312.844 272 320 264.844 320 256S312.844 240 304 240H16C7.156 240 0 247.156 0 256S7.156 272 16 272ZM80 400H16C7.156 400 0 407.156 0 416S7.156 432 16 432H80C88.844 432 96 424.844 96 416S88.844 400 80 400Z"/></svg>