<svg xmlns="http://www.w3.org/2000/svg" viewBox="0 0 640 512"><!-- Font Awesome Pro 6.0.0-alpha2 by @fontawesome - https://fontawesome.com License - https://fontawesome.com/license (Commercial License) --><path d="M488 352H48C21.5 352 0 373.5 0 400V464C0 490.5 21.5 512 48 512H488C501.25 512 512 501.25 512 488V376C512 362.75 501.25 352 488 352ZM192 480H48C39.25 480 32 472.75 32 464V400C32 391.25 39.25 384 48 384H192V480ZM480 480H224V384H480V480ZM560 352C551.199 352 544 359.199 544 368V496C544 504.799 551.199 512 560 512S576 504.799 576 496V368C576 359.199 568.801 352 560 352ZM624 352C615.199 352 608 359.199 608 368V496C608 504.799 615.199 512 624 512S640 504.799 640 496V368C640 359.199 632.801 352 624 352ZM473.609 131.188C437.531 104.156 416 61.062 416 16C416 7.156 408.844 0 400 0S384 7.156 384 16C384 71.094 410.312 123.719 454.391 156.812C490.469 183.844 512 226.938 512 272C512 280.844 519.156 288 528 288S544 280.844 544 272C544 216.906 517.688 164.281 473.609 131.188ZM550.391 156.812C586.469 183.844 608 226.938 608 272C608 280.844 615.156 288 624 288S640 280.844 640 272C640 216.906 613.688 164.281 569.609 131.188C533.531 104.156 512 61.062 512 16C512 7.156 504.844 0 496 0S480 7.156 480 16C480 71.094 506.312 123.719 550.391 156.812Z"/></svg>