<svg xmlns="http://www.w3.org/2000/svg" viewBox="0 0 320 512"><!-- Font Awesome Pro 6.0.0-alpha2 by @fontawesome - https://fontawesome.com License - https://fontawesome.com/license (Commercial License) --><path d="M287.954 288H32.046C3.682 288 -10.688 322.5 9.429 342.625L137.383 470.625C149.879 483.125 170.246 483.125 182.742 470.625L310.696 342.625C330.688 322.5 316.318 288 287.954 288ZM160 448L32.046 320H287.954L160 448ZM32.046 224H287.954C316.318 224 330.688 189.5 310.571 169.375L182.617 41.375C170.121 28.875 149.754 28.875 137.258 41.375L9.304 169.375C-10.688 189.5 3.682 224 32.046 224ZM160 64L287.954 192H32.046L160 64Z"/></svg>