<svg xmlns="http://www.w3.org/2000/svg" viewBox="0 0 512 512"><!-- Font Awesome Pro 6.0.0-alpha2 by @fontawesome - https://fontawesome.com License - https://fontawesome.com/license (Commercial License) --><path d="M208 152C194.75 152 184 162.75 184 176S194.75 200 208 200S232 189.25 232 176S221.25 152 208 152ZM208 88C159.375 88 120 127.375 120 176S159.375 264 208 264S296 224.625 296 176S256.625 88 208 88ZM208 232C177.125 232 152 206.875 152 176S177.125 120 208 120S264 145.125 264 176S238.875 232 208 232ZM256 16C123.42 16 16 123.418 16 256C16 388.58 123.42 496 256 496S496 388.58 496 256C496 123.418 388.58 16 256 16ZM256 464C167.582 464 92.076 408.449 62.027 330.492C125.746 344.721 190.74 352 256 352S386.254 344.721 449.973 330.492C419.924 408.449 344.418 464 256 464ZM51.867 295.48C49.396 282.684 48 269.508 48 256C48 141.309 141.309 48 256 48S464 141.309 464 256C464 269.508 462.604 282.684 460.133 295.48C333.426 326.834 178.574 326.834 51.867 295.48Z"/></svg>