<svg xmlns="http://www.w3.org/2000/svg" viewBox="0 0 512 512"><!-- Font Awesome Pro 6.0.0-alpha2 by @fontawesome - https://fontawesome.com License - https://fontawesome.com/license (Commercial License) --><path d="M481.722 30.266C462.003 10.5 434.222 0.031 401.284 0C351.706 0 294.628 25.047 255.862 63.812C255.628 64.047 255.409 64.281 255.206 64.516L255.175 64.5C254.941 64.75 254.675 65.031 254.394 65.328L254.378 65.312C219.284 101.219 208.909 155.672 226.675 206.641L13.753 406.625C5.191 414.781 0.175 426.234 0.003 438.078C-0.138 449.922 4.581 461.516 12.941 469.844L42.175 499.094C50.394 507.297 61.753 512 74.019 512C85.784 511.797 97.206 506.797 105.487 498.141L305.394 285.344C356.425 303.078 410.816 292.719 446.691 257.625C446.894 257.422 447.097 257.219 447.284 257.016L447.3 257.031C447.581 256.766 447.862 256.469 448.175 256.141L448.191 256.156C486.987 217.359 512.034 160.234 512.003 110.609C511.987 77.797 501.519 50.016 481.722 30.266ZM425.566 233.531C425.409 233.688 425.253 233.859 425.097 234.016L425.081 234C424.847 234.234 424.581 234.484 424.331 234.766L424.316 234.75C394.784 263.594 350.05 270.109 307.456 251.828C301.284 249.125 294.066 250.641 289.472 255.562L82.269 476.125C79.972 478.531 76.769 479.953 73.331 480C70.159 480 67.034 478.703 64.784 476.453L35.55 447.203C33.284 444.953 31.956 441.688 32.003 438.516C32.05 435.25 33.441 432.062 35.737 429.875L256.456 222.563C261.362 217.953 262.862 210.766 260.191 204.578C241.847 162.016 248.378 117.219 277.253 87.688C277.441 87.5 277.612 87.313 277.784 87.109L277.816 87.125C278.019 86.922 278.237 86.688 278.472 86.422L278.487 86.438C311.566 53.375 359.753 32 401.347 32C425.519 32.031 445.487 39.25 459.081 52.875C459.097 52.891 459.097 52.891 459.112 52.906C472.769 66.531 479.987 86.484 480.003 110.641C480.034 152.188 458.659 200.438 425.566 233.531Z"/></svg>