<svg xmlns="http://www.w3.org/2000/svg" viewBox="0 0 448 512"><!-- Font Awesome Pro 6.0.0-alpha2 by @fontawesome - https://fontawesome.com License - https://fontawesome.com/license (Commercial License) --><path d="M384 32H64C28.654 32 0 60.654 0 96V416C0 451.346 28.654 480 64 480H384C419.346 480 448 451.346 448 416V96C448 60.654 419.346 32 384 32ZM416 416C416 433.645 401.645 448 384 448H64C46.355 448 32 433.645 32 416V96C32 78.355 46.355 64 64 64H384C401.645 64 416 78.355 416 96V416ZM330.406 131.844C323.719 126.094 313.609 126.906 307.859 133.594L224 231.43L140.141 133.594C134.422 126.906 124.312 126.156 117.594 131.844C110.875 137.594 110.094 147.719 115.859 154.406L202.939 256L115.859 357.594C110.094 364.281 110.875 374.406 117.594 380.156C120.609 382.75 124.312 384 128 384C132.5 384 136.984 382.094 140.141 378.406L224 280.57L307.859 378.406C311.016 382.094 315.5 384 320 384C323.688 384 327.391 382.719 330.406 380.156C337.125 374.406 337.906 364.281 332.141 357.594L245.061 256L332.141 154.406C337.906 147.719 337.125 137.594 330.406 131.844Z"/></svg>