<svg xmlns="http://www.w3.org/2000/svg" viewBox="0 0 448 512"><!-- Font Awesome Pro 6.0.0-alpha2 by @fontawesome - https://fontawesome.com License - https://fontawesome.com/license (Commercial License) --><path d="M384 32H64C28.654 32 0 60.654 0 96V416C0 451.346 28.654 480 64 480H384C419.346 480 448 451.346 448 416V96C448 60.654 419.346 32 384 32ZM416 416C416 433.645 401.645 448 384 448H64C46.355 448 32 433.645 32 416V96C32 78.355 46.355 64 64 64H384C401.645 64 416 78.355 416 96V416ZM320 144C320 135.156 312.844 128 304 128H144C135.156 128 128 135.156 128 144S135.156 160 144 160H208.879C208.471 161.414 208 162.812 208 164.359V347.641C208 349.188 208.471 350.586 208.879 352H144C135.156 352 128 359.156 128 368S135.156 384 144 384H304C312.844 384 320 376.844 320 368S312.844 352 304 352H239.121C239.529 350.586 240 349.188 240 347.641V164.359C240 162.812 239.529 161.414 239.121 160H304C312.844 160 320 152.844 320 144Z"/></svg>