<svg xmlns="http://www.w3.org/2000/svg" viewBox="0 0 448 512"><!-- Font Awesome Pro 6.0.0-alpha2 by @fontawesome - https://fontawesome.com License - https://fontawesome.com/license (Commercial License) --><path d="M384 32H64C28.654 32 0 60.652 0 96V416C0 451.344 28.654 480 64 480H384C419.346 480 448 451.344 448 416V96C448 60.652 419.346 32 384 32ZM416 416C416 433.645 401.645 448 384 448H64C46.355 448 32 433.645 32 416V96C32 78.355 46.355 64 64 64H384C401.645 64 416 78.355 416 96V416ZM304 240H183.781L288.438 139.547C294.813 133.422 295 123.297 288.875 116.922C282.781 110.516 272.656 110.391 266.25 116.453L132.906 244.453C128.219 248.984 126.719 255.906 129.156 261.969S137.469 272 144 272H264.219L159.562 372.453C153.187 378.578 153 388.703 159.125 395.078C162.25 398.359 166.469 400 170.656 400C174.656 400 178.625 398.516 181.75 395.547L315.094 267.547C319.781 263.016 321.281 256.094 318.844 250.031S310.531 240 304 240Z"/></svg>