<svg xmlns="http://www.w3.org/2000/svg" viewBox="0 0 448 512"><!-- Font Awesome Pro 6.0.0-alpha2 by @fontawesome - https://fontawesome.com License - https://fontawesome.com/license (Commercial License) --><path d="M384 32H64C28.654 32 0 60.654 0 96V416C0 451.346 28.654 480 64 480H384C419.346 480 448 451.346 448 416V96C448 60.654 419.346 32 384 32ZM416 416C416 433.645 401.645 448 384 448H64C46.355 448 32 433.645 32 416V96C32 78.355 46.355 64 64 64H384C401.645 64 416 78.355 416 96V416ZM228.156 240.625C177.375 226.969 155.688 218.094 160.781 190.391C161.875 184.437 165.25 175.984 175.156 169.578C188.563 160.906 217.219 153.641 277.313 168.516C286.031 170.609 294.563 165.391 296.688 156.828C298.813 148.25 293.563 139.578 285 137.453C227.844 123.344 185.063 125.062 157.781 142.703C142.563 152.547 132.438 167.437 129.281 184.625C118.312 244.234 177 260 219.844 271.516C270.625 285.172 292.312 294.047 287.219 321.734C285.281 332.281 280.25 339.516 271.406 344.5C248.344 357.422 200.594 353.266 149.688 333.891C141.5 330.797 132.188 334.875 129.063 343.156C125.906 351.406 130.063 360.656 138.313 363.797C153.969 369.75 195.438 383.953 235.25 383.953C253.844 383.953 272.063 380.859 287.094 372.391C304.156 362.797 315.063 347.281 318.719 327.516C329.688 267.906 271 252.141 228.156 240.625Z"/></svg>