<svg xmlns="http://www.w3.org/2000/svg" viewBox="0 0 448 512"><!-- Font Awesome Pro 6.0.0-alpha2 by @fontawesome - https://fontawesome.com License - https://fontawesome.com/license (Commercial License) --><path d="M267.312 356.688L166.625 256L267.312 155.312C273.562 149.062 273.562 138.937 267.312 132.688S250.937 126.438 244.688 132.688L132.688 244.688C129.562 247.812 128 251.906 128 256S129.562 264.188 132.688 267.312L244.688 379.312C250.938 385.562 261.063 385.562 267.312 379.312S273.562 362.938 267.312 356.688ZM448 416V96C448 60.654 419.346 32 384 32H64C28.654 32 0 60.654 0 96V416C0 451.346 28.654 480 64 480H384C419.346 480 448 451.346 448 416ZM64 448C46.355 448 32 433.645 32 416V96C32 78.355 46.355 64 64 64H384C401.645 64 416 78.355 416 96V416C416 433.645 401.645 448 384 448H64Z"/></svg>