<svg xmlns="http://www.w3.org/2000/svg" viewBox="0 0 448 512"><!-- Font Awesome Pro 6.0.0-alpha2 by @fontawesome - https://fontawesome.com License - https://fontawesome.com/license (Commercial License) --><path d="M384 32H64C28.654 32 0 60.654 0 96V416C0 451.346 28.654 480 64 480H384C419.346 480 448 451.346 448 416V96C448 60.654 419.346 32 384 32ZM416 416C416 433.645 401.645 448 384 448H64C46.355 448 32 433.645 32 416V96C32 78.355 46.355 64 64 64H384C401.645 64 416 78.355 416 96V416ZM320 352H162.781L332.156 154.406C336.219 149.656 337.156 143 334.531 137.312C331.938 131.625 326.25 128 320 128H128C119.156 128 112 135.156 112 144S119.156 160 128 160H285.219L115.844 357.594C111.781 362.344 110.844 369 113.469 374.688C116.062 380.375 121.75 384 128 384H320C328.844 384 336 376.844 336 368S328.844 352 320 352Z"/></svg>