<svg xmlns="http://www.w3.org/2000/svg" viewBox="0 0 448 512"><!-- Font Awesome Pro 6.0.0-alpha2 by @fontawesome - https://fontawesome.com License - https://fontawesome.com/license (Commercial License) --><path d="M64 480H384C419.346 480 448 451.346 448 416V96C448 60.654 419.346 32 384 32H64C28.654 32 0 60.654 0 96V416C0 451.346 28.654 480 64 480ZM64 448C46.355 448 32 433.645 32 416V96C32 78.355 46.355 64 64 64H384C401.645 64 416 78.355 416 96V416C416 433.645 401.645 448 384 448H64ZM284.049 367.204C300.213 367.126 314.653 357.459 320.852 342.51C327.061 327.506 323.658 310.403 312.167 298.913L291.882 278.627L342.794 227.716C358.394 212.115 358.394 186.748 342.794 171.147L308.853 137.206C293.252 121.606 267.885 121.606 252.284 137.206L201.373 188.118L181.087 167.833C169.597 156.342 152.494 152.939 137.49 159.148C122.508 165.38 112.819 179.887 112.807 196.117L110.476 329.263C110.454 351.205 129.071 369.535 150.461 369.535L284.049 367.204ZM283.883 335.196L283.607 335.207L150.185 337.549C147.932 337.549 142.431 335.455 142.462 329.539L144.793 196.393C144.811 188.192 153.925 185.925 158.46 190.46L201.373 233.373L274.912 159.833C278.027 156.718 283.11 156.718 286.225 159.833L320.167 193.775C323.282 196.89 323.282 201.973 320.167 205.088L246.627 278.627L289.54 321.54C294.796 326.796 290.743 335.196 283.883 335.196Z"/></svg>