<svg xmlns="http://www.w3.org/2000/svg" viewBox="0 0 448 512"><!-- Font Awesome Pro 6.0.0-alpha2 by @fontawesome - https://fontawesome.com License - https://fontawesome.com/license (Commercial License) --><path d="M384 32H64C28.654 32 0 60.654 0 96V416C0 451.346 28.654 480 64 480H384C419.348 480 448 451.346 448 416V96C448 60.654 419.348 32 384 32ZM416 416C416 433.645 401.645 448 384 448H64C46.355 448 32 433.645 32 416V96C32 78.355 46.355 64 64 64H384C401.645 64 416 78.355 416 96V416ZM320 128C311.156 128 304 135.156 304 144V273.75C304 316.906 268.109 352 224 352S144 316.906 144 273.75V144C144 135.156 136.844 128 128 128S112 135.156 112 144V273.75C112 334.531 162.25 384 224 384S336 334.531 336 273.75V144C336 135.156 328.844 128 320 128Z"/></svg>