<svg xmlns="http://www.w3.org/2000/svg" viewBox="0 0 448 512"><!-- Font Awesome Pro 6.0.0-alpha2 by @fontawesome - https://fontawesome.com License - https://fontawesome.com/license (Commercial License) --><path d="M105.359 265.375C85.369 285.5 99.488 320 127.973 320H319.998C348.357 320 362.725 285.5 342.611 265.375L246.66 169.375C234.168 156.875 213.803 156.875 201.309 169.375L105.359 265.375ZM320 288H128L224 192L320 288ZM0 96V416C0 451.346 28.654 480 64 480H384C419.346 480 448 451.346 448 416V96C448 60.654 419.346 32 384 32H64C28.654 32 0 60.654 0 96ZM384 64C401.645 64 416 78.355 416 96V416C416 433.645 401.645 448 384 448H64C46.355 448 32 433.645 32 416V96C32 78.355 46.355 64 64 64H384Z"/></svg>