<svg xmlns="http://www.w3.org/2000/svg" viewBox="0 0 448 512"><!-- Font Awesome Pro 6.0.0-alpha2 by @fontawesome - https://fontawesome.com License - https://fontawesome.com/license (Commercial License) --><path d="M240 224H219.25L298.406 156.156C303.5 151.781 305.328 144.719 303 138.438C300.688 132.156 294.703 128 288 128H144C135.156 128 128 135.156 128 144S135.156 160 144 160H244.75L165.594 227.844C160.5 232.219 158.672 239.281 161 245.562C163.312 251.844 169.297 256 176 256H240C266.469 256 288 277.531 288 304S266.469 352 240 352H185.516C173.547 352 162.969 344.375 159.188 333C156.391 324.656 147.391 320.031 138.938 322.875C130.562 325.688 126.031 334.75 128.813 343.125C136.969 367.562 159.75 384 185.516 384H240C284.109 384 320 348.125 320 304S284.109 224 240 224ZM384 32H64C28.654 32 0 60.654 0 96V416C0 451.346 28.654 480 64 480H384C419.346 480 448 451.346 448 416V96C448 60.654 419.346 32 384 32ZM416 416C416 433.645 401.645 448 384 448H64C46.355 448 32 433.645 32 416V96C32 78.355 46.355 64 64 64H384C401.645 64 416 78.355 416 96V416Z"/></svg>