<svg xmlns="http://www.w3.org/2000/svg" viewBox="0 0 448 512"><!-- Font Awesome Pro 6.0.0-alpha2 by @fontawesome - https://fontawesome.com License - https://fontawesome.com/license (Commercial License) --><path d="M448 416V96C448 60.654 419.346 32 384 32H64C28.654 32 0 60.654 0 96V416C0 451.346 28.654 480 64 480H384C419.346 480 448 451.346 448 416ZM64 448C46.355 448 32 433.645 32 416V96C32 78.355 46.355 64 64 64H384C401.645 64 416 78.355 416 96V416C416 433.645 401.645 448 384 448H64ZM297.539 369.535C318.929 369.535 337.546 351.205 337.524 329.263L335.193 196.117C335.181 179.887 325.492 165.38 310.51 159.148C295.506 152.939 278.403 156.342 266.913 167.833L246.627 188.118L195.716 137.206C180.115 121.606 154.748 121.606 139.147 137.206L105.206 171.147C89.606 186.748 89.606 212.115 105.206 227.716L156.118 278.627L135.833 298.913C124.342 310.403 120.939 327.506 127.148 342.51C133.347 357.459 147.787 367.126 163.951 367.204L297.539 369.535ZM158.46 321.54L201.373 278.627L127.833 205.088C124.718 201.973 124.718 196.89 127.833 193.775L161.775 159.833C164.89 156.718 169.973 156.718 173.088 159.833L246.627 233.373L289.54 190.46C294.075 185.925 303.189 188.192 303.207 196.393L305.538 329.539C305.569 335.455 300.068 337.549 297.815 337.549L164.393 335.207L164.117 335.196C157.257 335.196 153.204 326.796 158.46 321.54Z"/></svg>