<svg xmlns="http://www.w3.org/2000/svg" viewBox="0 0 448 512"><!-- Font Awesome Pro 6.0.0-alpha2 by @fontawesome - https://fontawesome.com License - https://fontawesome.com/license (Commercial License) --><path d="M384 32H64C28.654 32 0 60.654 0 96V416C0 451.346 28.654 480 64 480H384C419.346 480 448 451.346 448 416V96C448 60.654 419.346 32 384 32ZM416 416C416 433.645 401.645 448 384 448H64C46.355 448 32 433.645 32 416V96C32 78.355 46.355 64 64 64H384C401.645 64 416 78.355 416 96V416ZM343.156 129.688C335.219 125.719 325.656 128.969 321.688 136.844L224 332.219L126.312 136.844C122.344 128.969 112.766 125.719 104.844 129.688C96.938 133.656 93.734 143.25 97.688 151.156L209.688 375.156C212.406 380.562 217.938 384 224 384S235.594 380.562 238.312 375.156L350.312 151.156C354.266 143.25 351.062 133.656 343.156 129.688Z"/></svg>