<svg xmlns="http://www.w3.org/2000/svg" viewBox="0 0 448 512"><!-- Font Awesome Pro 6.0.0-alpha2 by @fontawesome - https://fontawesome.com License - https://fontawesome.com/license (Commercial License) --><path d="M123.312 299.312L224 198.625L324.688 299.312C330.938 305.562 341.063 305.562 347.312 299.312S353.562 282.937 347.312 276.688L235.312 164.688C232.188 161.562 228.094 160 224 160S215.812 161.562 212.688 164.688L100.688 276.688C94.438 282.938 94.438 293.063 100.688 299.312S117.062 305.562 123.312 299.312ZM64 480H384C419.346 480 448 451.346 448 416V96C448 60.654 419.346 32 384 32H64C28.654 32 0 60.654 0 96V416C0 451.346 28.654 480 64 480ZM32 96C32 78.355 46.355 64 64 64H384C401.645 64 416 78.355 416 96V416C416 433.645 401.645 448 384 448H64C46.355 448 32 433.645 32 416V96Z"/></svg>