<svg xmlns="http://www.w3.org/2000/svg" viewBox="0 0 512 512"><!-- Font Awesome Pro 6.0.0-alpha2 by @fontawesome - https://fontawesome.com License - https://fontawesome.com/license (Commercial License) --><path d="M431.996 0H355.743C325.273 0 297.896 16.939 284.302 44.159L275.427 61.879C267.52 77.661 273.927 96.943 289.771 104.881L318.272 119.101C325.96 122.914 334.648 123.476 342.742 120.851C350.868 118.132 357.43 112.413 361.243 104.756L365.618 96.006H415.996V171.76L258.582 216.826C229.956 224.982 203.673 240.421 182.641 261.516L156.14 287.986H112.013C103.169 287.986 96.012 295.143 96.012 303.987V348.115L14.04 430.089C-4.68 448.809 -4.68 479.248 14.04 497.968C23.384 507.312 35.697 512 47.979 512S72.574 507.312 81.918 497.968L250.488 329.395C260.082 319.77 272.083 312.738 285.115 308.988L369.868 284.736L402.12 303.362C405.745 305.519 410.214 306.019 414.246 304.987C418.371 303.894 421.84 301.206 423.965 297.518L443.497 263.735L454.029 260.735C488.155 250.984 512 219.388 512 183.886V80.005C512 35.877 476.123 0 431.996 0ZM479.999 183.886C479.999 205.169 465.685 224.107 445.216 229.983L428.465 234.764C424.496 235.889 421.09 238.546 419.027 242.14L404.276 267.673L379.994 253.64C376.244 251.422 371.712 250.922 367.587 252.109L276.302 278.236C258.051 283.455 241.331 293.299 227.862 306.737L59.292 475.342C53.041 481.592 42.916 481.592 36.666 475.342C30.415 469.091 30.415 458.966 36.666 452.715L123.326 366.054C126.326 363.053 128.014 358.991 128.014 354.74V319.988H162.765C167.015 319.988 171.078 318.301 174.078 315.301L205.267 284.142C222.487 266.891 243.956 254.266 267.364 247.578L424.808 202.512C438.465 198.606 447.997 185.949 447.997 171.76V96.006C447.997 78.349 433.653 64.004 415.996 64.004H365.618C353.586 64.004 342.336 70.973 336.992 81.724L332.586 90.474L304.053 76.223L312.928 58.472C321.085 42.128 337.492 32.002 355.743 32.002H431.996C458.466 32.002 479.999 53.535 479.999 80.005V183.886Z"/></svg>