<svg xmlns="http://www.w3.org/2000/svg" viewBox="0 0 576 512"><!-- Font Awesome Pro 6.0.0-alpha2 by @fontawesome - https://fontawesome.com License - https://fontawesome.com/license (Commercial License) --><path d="M537.793 181.641H360.172L305.283 12.566C302.565 4.189 295.282 0 288 0S273.436 4.189 270.717 12.566L215.828 181.641H38.207C20.604 181.641 13.283 204.186 27.526 214.543L171.225 319.035L116.336 488.109C112.194 500.873 122.325 512 133.682 512C137.235 512 140.908 510.91 144.301 508.443L288 403.951L431.7 508.443C435.094 510.912 438.766 512 442.319 512C453.676 512 463.807 500.873 459.664 488.109L404.776 319.035L548.475 214.543C562.717 204.186 555.397 181.641 537.793 181.641ZM199.439 299.987L80.696 213.641H227.457C234.39 213.641 240.534 209.175 242.675 202.581L272 112.248V376.02L159.908 457.529L205.247 317.867C207.386 311.278 205.042 304.061 199.439 299.987ZM370.753 317.867L416.092 457.529L304 376.02V112.248L333.326 202.581C335.467 209.175 341.611 213.641 348.544 213.641H495.305L376.562 299.987C370.959 304.061 368.614 311.278 370.753 317.867Z"/></svg>