<svg xmlns="http://www.w3.org/2000/svg" viewBox="0 0 576 512"><!-- Font Awesome Pro 6.0.0-alpha2 by @fontawesome - https://fontawesome.com License - https://fontawesome.com/license (Commercial License) --><path d="M288.013 15.094C288.013 5.075 273.966 2.807 270.813 12.316L270.73 12.566L215.841 181.64H38.22C20.607 181.64 13.28 204.174 27.525 214.532L171.237 319.034L116.349 488.108C112.206 500.871 122.337 511.998 133.695 511.998C137.247 511.998 140.921 510.909 144.314 508.442L274.832 413.534C283.113 407.512 288.013 397.892 288.013 387.653V15.094ZM256.013 387.653L159.921 457.528L205.26 317.866C207.399 311.277 205.055 304.06 199.452 299.985L80.708 213.64H227.469C234.402 213.64 240.546 209.174 242.687 202.58L256.013 161.532V387.653Z"/></svg>