<svg xmlns="http://www.w3.org/2000/svg" viewBox="0 0 576 512"><!-- Font Awesome Pro 6.0.0-alpha2 by @fontawesome - https://fontawesome.com License - https://fontawesome.com/license (Commercial License) --><path d="M560 32C551.164 32 544 39.162 544 48V198.227L426.953 176.281C426.615 176.219 426.305 176.336 425.969 176.297C398.293 128.514 347.193 96 288 96C228.809 96 177.709 128.514 150.033 176.297C149.697 176.338 149.385 176.219 149.047 176.281L32 198.227V48C32 39.162 24.836 32 16 32S0 39.162 0 48V464C0 472.836 7.164 480 16 480S32 472.836 32 464V313.771L149.047 335.719C149.4 335.785 149.742 335.775 150.094 335.818C177.785 383.541 228.854 416 288 416S398.215 383.541 425.906 335.818C426.258 335.775 426.6 335.785 426.953 335.719L544 313.771V464C544 472.836 551.164 480 560 480S576 472.836 576 464V48C576 39.162 568.836 32 560 32ZM135.07 300.553L32 281.227V230.771L135.07 211.447C130.922 225.68 128 240.428 128 256S130.922 286.32 135.07 300.553ZM288 384C217.42 384 160 326.578 160 256C160 185.42 217.42 128 288 128S416 185.42 416 256C416 326.578 358.58 384 288 384ZM544 281.227L440.93 300.553C445.078 286.32 448 271.572 448 256S445.078 225.68 440.93 211.447L544 230.771V281.227ZM342.934 223.691L367.188 199.437C373.438 193.187 373.438 183.062 367.188 176.812S350.812 170.562 344.563 176.812L320.309 201.066C315.26 198.086 309.811 195.781 304 194.271V160C304 151.156 296.844 144 288 144S272 151.156 272 160V194.271C266.189 195.781 260.74 198.086 255.691 201.066L231.438 176.812C225.188 170.562 215.062 170.562 208.813 176.812S202.563 193.188 208.813 199.437L233.066 223.691C230.086 228.74 227.781 234.189 226.271 240H192C183.156 240 176 247.156 176 256S183.156 272 192 272H226.271C227.781 277.811 230.086 283.26 233.066 288.309L208.812 312.562C202.562 318.812 202.562 328.938 208.812 335.187C211.937 338.312 216.031 339.875 220.125 339.875S228.312 338.312 231.437 335.187L255.691 310.934C260.74 313.914 266.189 316.219 272 317.729V352C272 360.844 279.156 368 288 368S304 360.844 304 352V317.729C309.811 316.219 315.26 313.914 320.309 310.934L344.563 335.188C347.688 338.312 351.781 339.875 355.875 339.875S364.063 338.313 367.188 335.188C373.438 328.938 373.438 318.812 367.188 312.563L342.934 288.309C345.914 283.26 348.219 277.811 349.729 272H384C392.844 272 400 264.844 400 256S392.844 240 384 240H349.729C348.219 234.189 345.914 228.74 342.934 223.691ZM288 288C270.359 288 256 273.641 256 256S270.359 224 288 224S320 238.359 320 256S305.641 288 288 288Z"/></svg>