<svg xmlns="http://www.w3.org/2000/svg" viewBox="0 0 384 512"><!-- Font Awesome Pro 6.0.0-alpha2 by @fontawesome - https://fontawesome.com License - https://fontawesome.com/license (Commercial License) --><path d="M320 64H64C28.654 64 0 92.652 0 128V384C0 419.346 28.654 448 64 448H320C355.346 448 384 419.346 384 384V128C384 92.652 355.346 64 320 64ZM352 384C352 401.645 337.645 416 320 416H64C46.355 416 32 401.645 32 384V128C32 110.355 46.355 96 64 96H320C337.645 96 352 110.355 352 128V384Z"/></svg>