<svg xmlns="http://www.w3.org/2000/svg" viewBox="0 0 512 512"><!-- Font Awesome Pro 6.0.0-alpha2 by @fontawesome - https://fontawesome.com License - https://fontawesome.com/license (Commercial License) --><path d="M256 16C123.451 16 16 123.451 16 256S123.451 496 256 496S496 388.549 496 256S388.549 16 256 16ZM256 464C141.309 464 48 370.691 48 256S141.309 48 256 48S464 141.309 464 256S370.691 464 256 464ZM406.625 256L427.312 235.312C433.562 229.062 433.562 218.937 427.312 212.688S410.937 206.438 404.688 212.688L384 233.375L341.844 191.219L377.75 155.313C384 149.062 384 138.938 377.75 132.688S361.375 126.438 355.125 132.688L319.219 168.594L278.625 128L299.312 107.312C305.562 101.062 305.562 90.937 299.312 84.688S282.937 78.438 276.688 84.688L256 105.375L235.312 84.688C229.062 78.438 218.937 78.438 212.688 84.688S206.438 101.063 212.688 107.312L233.375 128L192 169.375L155.312 132.688C149.062 126.438 138.937 126.438 132.688 132.688S126.438 149.063 132.688 155.312L169.375 192L128 233.375L107.312 212.688C101.062 206.438 90.937 206.438 84.688 212.688S78.438 229.063 84.688 235.312L105.375 256L84.688 276.688C78.438 282.938 78.438 293.063 84.688 299.312C87.812 302.438 91.906 304 96 304S104.188 302.438 107.312 299.312L128 278.625L168.594 319.219L132.688 355.125C126.438 361.375 126.438 371.5 132.688 377.75C135.812 380.875 139.906 382.438 144 382.438S152.188 380.875 155.312 377.75L191.219 341.844L233.375 384L212.688 404.688C206.438 410.938 206.438 421.063 212.688 427.312C215.812 430.438 219.906 432 224 432S232.188 430.438 235.312 427.312L256 406.625L276.688 427.312C279.812 430.438 283.906 432 288 432S296.188 430.438 299.312 427.312C305.562 421.062 305.562 410.937 299.312 404.688L278.625 384L320 342.625L355.125 377.75C358.25 380.875 362.344 382.437 366.437 382.437S374.625 380.875 377.75 377.75C384 371.5 384 361.375 377.75 355.125L342.625 320L384 278.625L404.688 299.312C407.812 302.438 411.906 304 416 304S424.188 302.438 427.312 299.312C433.562 293.062 433.562 282.937 427.312 276.688L406.625 256ZM256 150.625L296.594 191.219L255.219 232.594L214.625 192L256 150.625ZM150.625 256L192 214.625L232.594 255.219L191.219 296.594L150.625 256ZM256 361.375L213.844 319.219L255.219 277.844L297.375 320L256 361.375ZM320 297.375L277.844 255.219L319.219 213.844L361.375 256L320 297.375Z"/></svg>