<svg xmlns="http://www.w3.org/2000/svg" viewBox="0 0 512 512"><!-- Font Awesome Pro 6.0.0-alpha2 by @fontawesome - https://fontawesome.com License - https://fontawesome.com/license (Commercial License) --><path d="M448 96H384V48C384 21.531 362.469 0 336 0H176C149.531 0 128 21.531 128 48V96H64C28.654 96 0 124.654 0 160V416C0 451.346 28.654 480 64 480H448C483.348 480 512 451.346 512 416V160C512 124.654 483.348 96 448 96ZM160 48C160 39.172 167.172 32 176 32H336C344.828 32 352 39.172 352 48V96H160V48ZM96 448H64C46.355 448 32 433.645 32 416V160C32 142.355 46.355 128 64 128H96V448ZM384 448H128V128H384V448ZM480 416C480 433.645 465.645 448 448 448H416V128H448C465.645 128 480 142.355 480 160V416Z"/></svg>