<svg xmlns="http://www.w3.org/2000/svg" viewBox="0 0 512 512"><!-- Font Awesome Pro 6.0.0-alpha2 by @fontawesome - https://fontawesome.com License - https://fontawesome.com/license (Commercial License) --><path d="M336 96C344.844 96 352 88.844 352 80S344.844 64 336 64H288C282.531 64 277.438 66.797 274.5 71.406L176 226.195L77.5 71.406C74.562 66.797 69.469 64 64 64H16C7.156 64 0 71.156 0 80S7.156 96 16 96H55.219L157.035 256L55.219 416H16C7.156 416 0 423.156 0 432S7.156 448 16 448H64C69.469 448 74.562 445.203 77.5 440.594L176 285.805L274.5 440.594C277.438 445.203 282.531 448 288 448H336C344.844 448 352 440.844 352 432S344.844 416 336 416H296.781L194.965 256L296.781 96H336ZM496 160H464V16C464 7.156 456.844 0 448 0H416C407.156 0 400 7.156 400 16S407.156 32 416 32H432V160H400C391.156 160 384 167.156 384 176S391.156 192 400 192H496C504.844 192 512 184.844 512 176S504.844 160 496 160Z"/></svg>