<svg xmlns="http://www.w3.org/2000/svg" viewBox="0 0 512 512"><!-- Font Awesome Pro 6.0.0-alpha2 by @fontawesome - https://fontawesome.com License - https://fontawesome.com/license (Commercial License) --><path d="M484.625 0C483.25 0 482 0.125 480.75 0.375L343.5 23.121C329.999 25.495 320 38.993 320 54.865V166.719C309.875 162.47 299 160.221 288 160.346C252.125 160.346 224 181.342 224 208.337C224 235.207 252.125 256.328 288 256.328S352 235.207 352 208.337V54.24L480 32.869V134.975C469.875 130.601 459 128.352 448 128.352C412.625 128.352 384 149.848 384 176.343S412.625 224.334 448 224.334S512 202.838 512 176.343V31.994C512 14.122 499.5 0 484.625 0ZM288 224.334C268.75 224.334 256 214.711 256 208.337C256 201.963 268.75 192.34 288 192.34S320 201.963 320 208.337C320 214.711 307.25 224.334 288 224.334ZM448 192.34C428.125 192.34 416 181.967 416 176.343C416 170.719 428.125 160.346 448 160.346S480 170.719 480 176.343C480 181.967 467.875 192.34 448 192.34ZM208 63.988H16C7.164 63.988 0 71.151 0 79.985S7.164 95.982 16 95.982H96V207.962C96 216.796 103.164 223.959 112 223.959C120.838 223.959 128 216.796 128 207.962V95.982H208C216.838 95.982 224 88.82 224 79.985S216.838 63.988 208 63.988ZM336 383.93C362.51 383.93 384 362.443 384 335.938S362.51 287.947 336 287.947S288 309.434 288 335.938S309.49 383.93 336 383.93ZM336 319.941C344.822 319.941 352 327.118 352 335.938S344.822 351.936 336 351.936S320 344.759 320 335.938S327.178 319.941 336 319.941ZM464 415.924C437.49 415.924 416 437.41 416 463.915C416 490.42 437.49 511.906 464 511.906S512 490.42 512 463.915C512 437.41 490.51 415.924 464 415.924ZM464 479.912C455.178 479.912 448 472.736 448 463.915C448 455.094 455.178 447.918 464 447.918S480 455.094 480 463.915C480 472.736 472.822 479.912 464 479.912ZM16 31.994H208C216.838 31.994 224 24.831 224 15.997S216.838 0 208 0H16C7.164 0 0 7.163 0 15.997S7.164 31.994 16 31.994ZM484.688 292.634L292.688 484.599C286.438 490.848 286.438 500.971 292.688 507.22C295.812 510.344 299.906 511.906 304 511.906S312.188 510.344 315.312 507.22L507.312 315.255C513.562 309.006 513.562 298.883 507.312 292.634C501.062 286.385 490.938 286.385 484.688 292.634ZM163.438 444.731L202.281 412.175C209.063 406.519 209.938 396.427 204.25 389.647S188.469 381.961 181.719 387.679L140.75 422.048L100.219 381.524L126.062 360.496C137.469 349.092 144 333.314 144 317.192C144 283.417 116.531 255.953 82.75 255.953H77.25C43.469 255.953 16 283.417 16 317.192C16 333.314 22.531 349.092 33.938 360.496L52.594 379.149L17.938 407.363C-5.938 431.234 -5.938 470.07 17.938 493.972C29.999 506.032 45.906 512 61.594 512C77 512 92.219 506.251 103.531 494.909L138.813 465.352L180.688 507.22C186.938 513.469 197.063 513.469 203.313 507.22S209.563 490.848 203.313 484.599L163.438 444.731ZM48 317.192C48 301.07 61.125 287.947 77.25 287.947H82.75C98.875 287.947 112 301.07 112 317.192C112 324.909 108.875 332.439 104.656 336.782L77.531 358.841L56.563 337.876C51.125 332.439 48 324.909 48 317.192ZM81.938 471.351C70.562 482.724 52 482.724 40.562 471.351C29.156 459.947 29.156 441.388 39.344 431.077L75.281 401.833L116.125 442.669L81.938 471.351Z"/></svg>