<svg xmlns="http://www.w3.org/2000/svg" viewBox="0 0 512 512"><!-- Font Awesome Pro 6.0.0-alpha2 by @fontawesome - https://fontawesome.com License - https://fontawesome.com/license (Commercial License) --><path d="M448 32H64C28.652 32 0 60.654 0 96V416C0 451.346 28.652 480 64 480H448C483.346 480 512 451.346 512 416V96C512 60.654 483.346 32 448 32ZM128 448H64C46.355 448 32 433.645 32 416V96C32 78.355 46.355 64 64 64H128V448ZM480 416C480 433.645 465.645 448 448 448H160V272H480V416ZM480 240H160V64H448C465.645 64 480 78.355 480 96V240Z"/></svg>