<svg xmlns="http://www.w3.org/2000/svg" viewBox="0 0 512 512"><!-- Font Awesome Pro 6.0.0-alpha2 by @fontawesome - https://fontawesome.com License - https://fontawesome.com/license (Commercial License) --><path d="M448 32H64C28.654 32 0 60.652 0 96V416C0 451.346 28.654 480 64 480H448C483.346 480 512 451.346 512 416V96C512 60.652 483.346 32 448 32ZM192 64H320V170.625H192V64ZM192 202.625H320V309.375H192V202.625ZM160 448H64C46.326 448 32 433.672 32 416V341.375H160V448ZM160 309.375H32V202.625H160V309.375ZM160 170.625H32V96C32 78.326 46.326 64 64 64H160V170.625ZM192 448V341.375H320V448H192ZM480 416C480 433.672 465.674 448 448 448H352V341.375H480V416ZM480 309.375H352V202.625H480V309.375ZM480 170.625H352V64H448C465.674 64 480 78.326 480 96V170.625Z"/></svg>