<svg xmlns="http://www.w3.org/2000/svg" viewBox="0 0 640 512"><!-- Font Awesome Pro 6.0.0-alpha2 by @fontawesome - https://fontawesome.com License - https://fontawesome.com/license (Commercial License) --><path d="M628.809 175.25L527.996 207.086V464C527.996 472.844 520.84 480 511.996 480S495.996 472.844 495.996 464V217.191L399.996 247.506V464C399.996 472.844 392.84 480 383.996 480S367.996 472.844 367.996 464V257.611L271.996 287.928V464C271.996 472.844 264.84 480 255.996 480S239.996 472.844 239.996 464V298.033L143.996 328.35V464C143.996 472.844 136.84 480 127.996 480S111.996 472.844 111.996 464V338.453L20.809 367.25C19.215 367.766 17.59 368 15.996 368C9.184 368 2.903 363.641 0.746 356.812C-1.91 348.391 2.746 339.406 11.184 336.75L111.996 304.914V48C111.996 39.156 119.153 32 127.996 32S143.996 39.156 143.996 48V294.809L239.996 264.494V48C239.996 39.156 247.153 32 255.996 32S271.996 39.156 271.996 48V254.389L367.996 224.072V48C367.996 39.156 375.153 32 383.996 32S399.996 39.156 399.996 48V213.967L495.996 183.65V48C495.996 39.156 503.153 32 511.996 32S527.996 39.156 527.996 48V173.547L619.184 144.75C627.621 142.078 636.59 146.766 639.246 155.188S637.246 172.594 628.809 175.25Z"/></svg>