<svg xmlns="http://www.w3.org/2000/svg" viewBox="0 0 512 512"><!-- Font Awesome Pro 6.0.0-alpha2 by @fontawesome - https://fontawesome.com License - https://fontawesome.com/license (Commercial License) --><path d="M223.987 79.955C223.987 35.855 188.118 0 144 0S64.014 35.855 64.014 79.955V321.697C20.895 365.674 21.395 436.135 65.139 479.486C108.756 522.838 179.245 522.838 222.862 479.486C266.606 436.135 267.106 365.674 223.987 321.697V79.955ZM219.864 425.141C208.991 457.748 178.37 479.736 144 479.736S79.01 457.748 68.137 425.141S68.512 356.678 96.008 336.064V79.955C96.008 53.471 117.504 31.982 144 31.982S191.993 53.471 191.993 79.955V336.064C219.489 356.678 230.737 392.533 219.864 425.141ZM159.998 354.68V79.955C159.998 71.086 152.873 63.965 144 63.965S128.002 71.086 128.002 79.955V354.68C106.006 362.551 92.758 385.037 96.758 408.025C100.633 431.137 120.629 447.879 144 447.879S187.368 431.137 191.243 408.025C195.243 385.037 181.995 362.551 159.998 354.68ZM507.313 132.688L411.313 36.688C405.063 30.438 394.938 30.438 388.688 36.688L292.688 132.688C286.438 138.938 286.438 149.063 292.688 155.312S309.063 161.562 315.313 155.312L384 86.625V464C384 472.844 391.157 480 400 480S416 472.844 416 464V86.625L484.688 155.312C487.813 158.438 491.907 160 496 160S504.188 158.438 507.313 155.312C513.563 149.062 513.563 138.938 507.313 132.688Z"/></svg>