<svg xmlns="http://www.w3.org/2000/svg" viewBox="0 0 640 512"><!-- Font Awesome Pro 6.0.0-alpha2 by @fontawesome - https://fontawesome.com License - https://fontawesome.com/license (Commercial License) --><path d="M160 240C160 292.875 203.125 336 256 336S352 292.875 352 240S308.875 144 256 144S160 187.125 160 240ZM320 240C320 275.25 291.25 304 256 304S192 275.25 192 240S220.75 176 256 176S320 204.75 320 240ZM384 99.678C384 89.686 374.867 82.188 365.066 84.133L316.625 93.75L269.25 23.125C263.25 14.25 248.75 14.25 242.75 23.125L195.375 93.75L112.125 77.25C106.75 76.125 101.375 77.75 97.75 81.625C93.875 85.375 92.25 90.75 93.25 96L109.75 179.375L39.125 226.75C34.75 229.75 32 234.75 32 240S34.75 250.25 39.125 253.25L109.75 300.625L93.25 384C92.25 389.25 93.875 394.75 97.75 398.375C101.5 402.25 106.75 403.875 112.125 402.75L195.375 386.25L242.75 457C245.75 461.5 250.75 464.125 256 464.125S266.25 461.375 269.25 457L316.625 386.25L335.75 390.035C344.543 391.775 352.902 385.865 354.371 377.021L354.424 376.705C355.84 368.281 350.334 360.283 341.953 358.625L312.25 352.75C305.75 351.375 299.5 354.25 295.875 359.625L256 419.25L216.125 359.5C212.5 354.125 206.125 351.25 199.75 352.75L129.25 366.75L143.25 296.25C144.5 289.955 141.838 283.527 136.504 279.961L76.75 240L136.42 200.178C141.807 196.584 144.5 190.102 143.25 183.75L129.375 113.25L199.75 127.25C206.25 128.625 212.625 125.875 216.25 120.5L256 60.75L295.875 120.5C299.5 125.875 305.75 128.625 312.25 127.25L371.24 115.533C378.656 114.061 384 107.553 384 99.99V99.678ZM512 354.875V80C512 71.25 504.75 64 496 64S480 71.25 480 80V354.875C461.375 361.5 448 379.125 448 400C448 426.5 469.5 448 496 448S544 426.5 544 400C544 379.125 530.625 361.5 512 354.875ZM576 321.875V80C576 35.875 540.125 0 496 0S416 35.875 416 80V321.875C395.75 342.75 384 370.75 384 400C384 461.75 434.25 512 496 512S608 461.75 608 400C608 370.75 596.25 342.625 576 321.875ZM496 480C451.875 480 416 444.125 416 400C416 374.5 428.25 351.125 448 336.25V80C448 53.5 469.5 32 496 32S544 53.5 544 80V336.25C563.75 351 576 374.5 576 400C576 444.125 540.125 480 496 480Z"/></svg>