<svg xmlns="http://www.w3.org/2000/svg" viewBox="0 0 320 512"><!-- Font Awesome Pro 6.0.0-alpha2 by @fontawesome - https://fontawesome.com License - https://fontawesome.com/license (Commercial License) --><path d="M208.001 384C208.001 410.5 186.501 432 160.001 432S112.001 410.5 112.001 384S133.501 336 160.001 336S208.001 357.5 208.001 384ZM256 299.375C275.875 321.875 288 351.5 288 384C288 454.75 230.75 512 160.001 512C159.751 512 159.376 512 159.126 512C88.751 511.5 31.627 453.625 32.002 383.375C32.127 351.125 44.252 321.75 64.002 299.375V96C64.002 43 107.001 0 160.001 0S256 43 256 96V299.375ZM256 384C256 344.125 233.125 321.875 224 311.5V96C224 60.75 195.251 32 160.001 32S96.001 60.75 96.001 96V311.5C86.501 322.125 64.252 344 64.002 383.5C63.752 436.25 106.626 479.625 159.376 480H160.001C212.876 480 256 436.875 256 384Z"/></svg>