<svg xmlns="http://www.w3.org/2000/svg" viewBox="0 0 512 512"><!-- Font Awesome Pro 6.0.0-alpha2 by @fontawesome - https://fontawesome.com License - https://fontawesome.com/license (Commercial License) --><path d="M256 16C123.451 16 16 123.453 16 256S123.451 496 256 496S496 388.547 496 256S388.549 16 256 16ZM247.557 48.43C243.197 156.375 156.377 243.199 48.428 247.555C52.795 139.617 139.615 52.797 247.557 48.43ZM49.42 279.48C174.406 274.609 274.615 174.406 279.48 49.422C378.266 60.586 456.121 141.184 463.246 241.117C344.174 249.387 249.387 344.172 241.117 463.246C141.18 456.117 60.584 378.266 49.42 279.48ZM273.174 463.129C281.385 361.977 361.975 281.383 463.129 273.172C454.816 374.16 374.164 454.812 273.174 463.129Z"/></svg>