<svg xmlns="http://www.w3.org/2000/svg" viewBox="0 0 640 512"><!-- Font Awesome Pro 6.0.0-alpha2 by @fontawesome - https://fontawesome.com License - https://fontawesome.com/license (Commercial License) --><path d="M0 48L0 144C0 152.844 7.156 160 16 160S32 152.844 32 144V64H176V448H112C103.156 448 96 455.156 96 464S103.156 480 112 480H272C280.844 480 288 472.844 288 464S280.844 448 272 448H208V64H352V144C352 152.844 359.156 160 368 160S384 152.844 384 144V48C384 39.156 376.844 32 368 32H16C7.156 32 0 39.156 0 48ZM320 240V304C320 312.844 327.156 320 336 320S352 312.844 352 304V256H464V448H416C407.156 448 400 455.156 400 464S407.156 480 416 480H544C552.844 480 560 472.844 560 464S552.844 448 544 448H496V256H608V304C608 312.844 615.156 320 624 320S640 312.844 640 304V240C640 231.156 632.844 224 624 224H336C327.156 224 320 231.156 320 240Z"/></svg>