<svg xmlns="http://www.w3.org/2000/svg" viewBox="0 0 448 512"><!-- Font Awesome Pro 6.0.0-alpha2 by @fontawesome - https://fontawesome.com License - https://fontawesome.com/license (Commercial License) --><path d="M448 48V112C448 120.8 440.8 128 432 128L432 128C423.2 128 416 120.8 416 112V64H240V448H304C312.8 448 320 455.2 320 464V464C320 472.8 312.8 480 304 480H144C135.2 480 128 472.8 128 464V464C128 455.2 135.2 448 144 448H208V64H32V112C32 120.8 24.8 128 16 128H16C7.2 128 0 120.8 0 112V48C0 39.163 7.163 32 16 32H432C440.837 32 448 39.163 448 48Z"/></svg>