<svg xmlns="http://www.w3.org/2000/svg" viewBox="0 0 384 512"><!-- Font Awesome Pro 6.0.0-alpha2 by @fontawesome - https://fontawesome.com License - https://fontawesome.com/license (Commercial License) --><path d="M48 32H336C344.822 32 352 24.822 352 16S344.822 0 336 0H48C39.178 0 32 7.178 32 16S39.178 32 48 32ZM301.053 193.777L293.75 79.075C293.354 70.49 286.344 63.188 276.342 64.073C271.648 64.274 261.187 69.11 261.809 80.821C270.315 216.734 269.746 207.659 270.172 214.471C347.821 250.503 352 295.688 352 313C352 316.859 348.859 320 345 320H208V232C208 223.178 200.822 216 192 216S176 223.178 176 232V320H39C35.141 320 32 316.859 32 313C32 295.719 36.154 250.515 113.828 214.471C114.279 207.26 113.783 215.155 122.188 80.881C122.666 71.845 115.783 64.436 107.021 64H106.881C97.258 63.998 90.676 70.527 90.244 79.17L82.947 193.777C30.912 220.922 0 265.209 0 313C0 334.504 17.496 352 39 352H176V496C176 504.822 183.178 512 192 512S208 504.822 208 496V352H345C366.504 352 384 334.504 384 313C384 265.209 353.088 220.922 301.053 193.777Z"/></svg>