<svg xmlns="http://www.w3.org/2000/svg" viewBox="0 0 640 512"><!-- Font Awesome Pro 6.0.0-alpha2 by @fontawesome - https://fontawesome.com License - https://fontawesome.com/license (Commercial License) --><path d="M512 224C503.164 224 496 231.162 496 240C496 248.836 503.164 256 512 256S528 248.836 528 240C528 231.162 520.836 224 512 224ZM512 288C503.164 288 496 295.162 496 304C496 312.836 503.164 320 512 320S528 312.836 528 304C528 295.162 520.836 288 512 288ZM512 160C503.164 160 496 167.162 496 176C496 184.836 503.164 192 512 192S528 184.836 528 176C528 167.162 520.836 160 512 160ZM512 96C503.164 96 496 103.162 496 112C496 120.836 503.164 128 512 128S528 120.836 528 112C528 103.162 520.836 96 512 96ZM624 165.812C632.844 165.812 640 158.656 640 149.812V96C640 60.719 611.297 32 576 32H160C124.703 32 96 60.719 96 96V320C96 355.281 124.703 384 160 384H576C611.297 384 640 355.281 640 320V266.188C640 257.344 632.844 250.188 624 250.188C600.734 250.188 581.812 231.25 581.812 208S600.734 165.812 624 165.812ZM608 280.438V320C608 337.656 593.641 352 576 352H160C142.359 352 128 337.656 128 320V96C128 78.344 142.359 64 160 64H576C593.641 64 608 78.344 608 96V135.562C574.75 142.875 549.812 172.594 549.812 208S574.75 273.125 608 280.438ZM528 448H96C60.641 448 32 419.375 32 384V112C32 103.156 24.828 96 16 96S0 103.156 0 112V384C0 437.031 42.969 480 96 480H528C536.828 480 544 472.844 544 464S536.828 448 528 448ZM441.102 189.562C429.1 175.844 411.785 168 393.594 168H360.742L323.844 107.281C319.984 100.531 312.172 96 304.404 96H278.354C271.369 96 264.68 99.344 260.477 104.906C256.227 110.562 254.912 117.719 256.945 124.75L270.145 168H254.635L235.318 148.688C232.318 145.688 228.256 144 224.006 144H208.002C199.158 144 192 151.156 192 160V256C192 264.844 199.158 272 208.002 272H224.006C228.256 272 232.318 270.312 235.318 267.312L254.635 248H270.137L256.867 291.438C254.928 298.156 256.289 305.5 260.492 311.094C264.695 316.656 271.369 320 278.354 320H304.404C312.422 320 319.859 315.688 323.611 309.094L360.74 248H393.594C411.785 248 429.1 240.156 441.133 226.438C450.289 215.906 450.289 200.094 441.133 189.562C441.117 189.562 441.117 189.562 441.102 189.562ZM393.594 216H342.742L333.395 231.381L298.998 288H291.377L300.74 257.35L313.371 216H241.381L232.008 225.371L224 233.377V182.621L232.008 190.629L241.381 200H313.367L300.75 158.66L291.391 128H298.99L333.396 184.617L342.744 200H393.594C401.352 200 408.793 202.9 414.449 207.992C408.742 213.119 401.324 216 393.594 216Z"/></svg>