<svg xmlns="http://www.w3.org/2000/svg" viewBox="0 0 576 512"><!-- Font Awesome Pro 6.0.0-alpha2 by @fontawesome - https://fontawesome.com License - https://fontawesome.com/license (Commercial License) --><path d="M416 96H160C71.635 96 0 167.635 0 256S71.635 416 160 416H416C504.365 416 576 344.365 576 256S504.365 96 416 96ZM416 384H160C89.42 384 32 326.58 32 256S89.42 128 160 128H416C486.58 128 544 185.42 544 256S486.58 384 416 384ZM416 160C362.98 160 320 202.98 320 256S362.98 352 416 352S512 309.02 512 256S469.02 160 416 160ZM416 320C380.711 320 352 291.289 352 256S380.711 192 416 192S480 220.711 480 256S451.289 320 416 320ZM416 224C398.326 224 384 238.326 384 256S398.326 288 416 288S448 273.674 448 256S433.674 224 416 224Z"/></svg>