<svg xmlns="http://www.w3.org/2000/svg" viewBox="0 0 448 512"><!-- Font Awesome Pro 6.0.0-alpha2 by @fontawesome - https://fontawesome.com License - https://fontawesome.com/license (Commercial License) --><path d="M416 213.037V80C416 71.162 408.836 64 400 64S384 71.162 384 80V198.986C298.816 170.041 149.184 170.041 64 198.986V80C64 71.162 56.836 64 48 64S32 71.162 32 80V213.037C12.061 224.582 0 238.867 0 256C0 308.166 24.475 355.475 64 390.111V464C64 490.469 85.531 512 112 512H336C362.469 512 384 490.469 384 464V390.111C423.525 355.475 448 308.166 448 256C448 238.867 435.939 224.582 416 213.037ZM352 464C352 472.812 344.812 480 336 480H112C103.188 480 96 472.812 96 464V413.336C132.324 435.115 176.41 448 224 448C271.588 448 315.676 435.115 352 413.338V464ZM224 416C138.209 416 65.414 368.859 40.873 304.041C83.604 325.139 154.051 336 224 336S364.396 325.139 407.127 304.041C382.586 368.859 309.791 416 224 416ZM224 304C104.906 304 32 272.938 32 256S104.906 208 224 208S416 239.062 416 256S343.094 304 224 304ZM16 32H432C440.836 32 448 24.836 448 16C448 7.162 440.836 0 432 0H16C7.164 0 0 7.162 0 16C0 24.836 7.164 32 16 32ZM112 64C103.164 64 96 71.162 96 80C96 88.836 103.164 96 112 96H144C152.836 96 160 88.836 160 80C160 71.162 152.836 64 144 64H112Z"/></svg>