<svg xmlns="http://www.w3.org/2000/svg" viewBox="0 0 640 512"><!-- Font Awesome Pro 6.0.0-alpha2 by @fontawesome - https://fontawesome.com License - https://fontawesome.com/license (Commercial License) --><path d="M633.921 483.438L25.921 3.436C18.999 -2.033 8.921 -0.846 3.437 6.092C-2.032 13.029 -0.845 23.092 6.077 28.561L614.077 508.562C617.015 510.875 620.515 512 623.984 512C628.718 512 633.405 509.906 636.562 505.906C642.03 498.969 640.843 488.906 633.921 483.438ZM175.98 32H433.302C403.36 66.117 383.989 124.457 383.989 192V224.967L415.991 250.23V192C415.991 105.281 452.618 32 495.995 32C539.37 32 575.997 105.281 575.997 192C575.997 256.41 555.751 313.266 527.581 338.328L552.706 358.164C585.993 325.242 607.999 263.9 607.999 192C607.999 84.344 558.81 0 495.995 0H175.98C157.765 0 140.622 7.615 125.423 20.836L151.4 41.342C159.495 35.602 167.814 32 175.98 32ZM360.989 480H70.226C96.759 411.016 95.978 377.213 95.978 364.125V192C95.978 181.588 96.677 171.672 97.644 162.006L68.407 138.926C65.577 155.801 63.976 173.568 63.976 192V364.125C63.976 405.25 54.226 426.875 32.849 491C29.349 501.25 37.099 512 47.976 512H360.864C374.739 512 386.864 503.25 391.239 490.125C399.485 465.568 408.847 437.225 413.308 411.215L383.046 387.324C380.378 422.281 371.782 446.418 360.989 480ZM495.995 112C468.618 112 447.991 146.406 447.991 192S468.618 272 495.995 272C523.37 272 543.997 237.594 543.997 192S523.37 112 495.995 112ZM495.995 240C486.868 240 479.993 219.355 479.993 192C479.993 164.643 486.868 144 495.995 144C505.12 144 511.995 164.643 511.995 192C511.995 219.355 505.12 240 495.995 240Z"/></svg>