<svg xmlns="http://www.w3.org/2000/svg" viewBox="0 0 448 512"><!-- Font Awesome Pro 6.0.0-alpha2 by @fontawesome - https://fontawesome.com License - https://fontawesome.com/license (Commercial License) --><path d="M432 480H16C7.164 480 0 487.162 0 496C0 504.836 7.164 512 16 512H432C440.836 512 448 504.836 448 496C448 487.162 440.836 480 432 480ZM48 448C56.844 448 64 440.844 64 432V192C64 103.781 135.781 32 224 32S384 103.781 384 192V432C384 440.844 391.156 448 400 448S416 440.844 416 432V192C416 86.125 329.875 0 224 0S32 86.125 32 192V432C32 440.844 39.156 448 48 448ZM224 352C232.844 352 240 344.844 240 336V208H304C312.844 208 320 200.844 320 192S312.844 176 304 176H240V112C240 103.156 232.844 96 224 96S208 103.156 208 112V176H144C135.156 176 128 183.156 128 192S135.156 208 144 208H208V336C208 344.844 215.156 352 224 352Z"/></svg>