<svg xmlns="http://www.w3.org/2000/svg" viewBox="0 0 512 512"><!-- Font Awesome Pro 6.0.0-alpha2 by @fontawesome - https://fontawesome.com License - https://fontawesome.com/license (Commercial License) --><path d="M493.256 173.254L466.746 146.744C454.744 134.742 438.465 128 421.49 128H384V80C384 53.531 362.469 32 336 32H176C149.531 32 128 53.531 128 80V128H90.51C73.537 128 57.258 134.742 45.256 146.744L18.746 173.254C6.744 185.256 0 201.535 0 218.51V416C0 451.346 28.654 480 64 480H448C483.348 480 512 451.346 512 416V218.51C512 201.535 505.258 185.256 493.256 173.254ZM160 80C160 71.172 167.172 64 176 64H336C344.828 64 352 71.172 352 80V128H160V80ZM41.373 195.883L67.883 169.371C73.928 163.328 81.963 160 90.51 160H421.49C430.039 160 438.074 163.328 444.117 169.371L470.629 195.883C476.672 201.926 480 209.961 480 218.51V304H368V272C368 263.156 360.844 256 352 256S336 263.156 336 272V304H176V272C176 263.156 168.844 256 160 256S144 263.156 144 272V304H32V218.51C32 209.961 35.33 201.926 41.373 195.883ZM448 448H64C46.355 448 32 433.645 32 416V336H144V368C144 376.844 151.156 384 160 384S176 376.844 176 368V336H336V368C336 376.844 343.156 384 352 384S368 376.844 368 368V336H480V416C480 433.645 465.645 448 448 448Z"/></svg>