<svg xmlns="http://www.w3.org/2000/svg" viewBox="0 0 384 512"><!-- Font Awesome Pro 6.0.0-alpha2 by @fontawesome - https://fontawesome.com License - https://fontawesome.com/license (Commercial License) --><path d="M192 64C165.49 64 144 85.49 144 112S165.49 160 192 160S240 138.51 240 112S218.51 64 192 64ZM192 192C165.49 192 144 213.49 144 240S165.49 288 192 288S240 266.51 240 240S218.51 192 192 192ZM192 256C183.178 256 176 248.822 176 240S183.178 224 192 224S208 231.178 208 240S200.822 256 192 256ZM192 320C165.49 320 144 341.49 144 368S165.49 416 192 416S240 394.51 240 368S218.51 320 192 320ZM192 384C183.178 384 176 376.822 176 368S183.178 352 192 352S208 359.178 208 368S200.822 384 192 384ZM384 96V80C384 71.156 376.844 64 368 64H320C320 28.654 291.346 0 256 0H128C92.654 0 64 28.654 64 64H16C7.156 64 0 71.156 0 80V96C0 134.645 27.521 166.951 64 174.383V192H16C7.156 192 0 199.156 0 208V224C0 262.645 27.521 294.951 64 302.383V320H16C7.156 320 0 327.156 0 336V352C0 393.824 32.344 427.848 73.281 431.322C92.123 478.539 138.059 512 192 512S291.877 478.539 310.719 431.322C351.656 427.848 384 393.824 384 352V336C384 327.156 376.844 320 368 320H320V302.383C356.479 294.951 384 262.645 384 224V208C384 199.156 376.844 192 368 192H320V174.383C356.479 166.951 384 134.645 384 96ZM320 96H352C352 116.832 338.584 134.426 320 141.053V96ZM32 96H64V141.053C45.416 134.426 32 116.832 32 96ZM32 224H64V269.053C45.416 262.426 32 244.832 32 224ZM32 352H64V384C64 388.615 64.881 392.984 65.357 397.475C46.076 391.242 32 373.33 32 352ZM288 384C288 436.936 244.936 480 192 480S96 436.936 96 384V64C96 46.355 110.355 32 128 32H256C273.645 32 288 46.355 288 64V384ZM352 352C352 373.33 337.924 391.242 318.643 397.475C319.119 392.984 320 388.615 320 384V352H352ZM352 224C352 244.832 338.584 262.426 320 269.053V224H352Z"/></svg>