<svg xmlns="http://www.w3.org/2000/svg" viewBox="0 0 384 512"><!-- Font Awesome Pro 6.0.0-alpha2 by @fontawesome - https://fontawesome.com License - https://fontawesome.com/license (Commercial License) --><path d="M379.314 484.688L318.747 424.121C338.96 406.521 352.001 380.906 352.001 352V192C352.001 138.98 309.021 96 256.001 96H208.001V32H290.939C306.782 32 322.126 36.641 335.314 45.438L359.126 61.313C361.845 63.125 364.939 64 368.001 64C373.157 64 378.22 61.5 381.314 56.875C386.22 49.516 384.22 39.594 376.876 34.688L353.064 18.812C334.595 6.5 313.126 0 290.939 0H93.064C70.876 0 49.407 6.5 30.939 18.812L7.126 34.688C-0.218 39.594 -2.218 49.516 2.689 56.875C7.595 64.25 17.532 66.156 24.876 61.313L48.689 45.438C61.876 36.641 77.22 32 93.064 32H176.001V96H128.001C74.982 96 32.001 138.98 32.001 192V352C32.001 380.906 45.042 406.521 65.255 424.121L4.689 484.688C-1.561 490.938 -1.561 501.063 4.689 507.312C7.814 510.438 11.907 512 16.001 512S24.189 510.438 27.314 507.312L91.314 443.312C91.962 442.664 92.257 441.842 92.771 441.119C103.7 445.445 115.532 448 128.001 448H256.001C268.47 448 280.302 445.445 291.232 441.119C291.745 441.842 292.04 442.664 292.689 443.312L356.689 507.312C359.814 510.438 363.907 512 368.001 512S376.189 510.438 379.314 507.312C385.564 501.062 385.564 490.938 379.314 484.688ZM64.001 192C64.001 156.711 92.712 128 128.001 128H256.001C291.292 128 320.001 156.711 320.001 192V256H64.001V192ZM256.001 416H128.001C92.712 416 64.001 387.289 64.001 352V288H320.001V352C320.001 387.289 291.292 416 256.001 416ZM128.001 328C114.747 328 104.001 338.744 104.001 352C104.001 365.254 114.747 376 128.001 376C141.257 376 152.001 365.254 152.001 352C152.001 338.744 141.257 328 128.001 328ZM256.001 328C242.747 328 232.001 338.744 232.001 352C232.001 365.254 242.747 376 256.001 376C269.257 376 280.001 365.254 280.001 352C280.001 338.744 269.257 328 256.001 328Z"/></svg>