<svg xmlns="http://www.w3.org/2000/svg" viewBox="0 0 512 512"><!-- Font Awesome Pro 6.0.0-alpha2 by @fontawesome - https://fontawesome.com License - https://fontawesome.com/license (Commercial License) --><path d="M112 288H400C409 288 416 281 416 272S409 256 400 256H112C103 256 96 263 96 272S103 288 112 288ZM176 221C191 202 213 192 237 192H275C299 192 321 202 336 221C340 225 344 227 349 227C352 227 356 225 359 223C366 217 367 207 361 200C340 175 308 160 275 160H237C204 160 172 175 151 200C145 207 146 217 153 223C160 229 170 228 176 221ZM256 128C291 128 320 99 320 64C320 29 291 0 256 0C221 0 192 29 192 64C192 99 221 128 256 128ZM256 32C274 32 288 46 288 64S274 96 256 96S224 82 224 64S238 32 256 32ZM336 320H176C167 320 160 327 160 336S167 352 176 352H336C345 352 352 345 352 336S345 320 336 320ZM80 32H64V16C64 7 57 0 48 0S32 7 32 16V32H16C7 32 0 39 0 48S7 64 16 64H32V80C32 89 39 96 48 96S64 89 64 80V64H80C89 64 96 57 96 48S89 32 80 32ZM496 352H480V336C480 327 473 320 464 320S448 327 448 336V352H432C423 352 416 359 416 368S423 384 432 384H448V400C448 409 455 416 464 416S480 409 480 400V384H496C505 384 512 377 512 368S505 352 496 352ZM368 448H144C118 448 96 470 96 496C96 505 103 512 112 512S128 505 128 496C128 487 135 480 144 480H368C377 480 384 487 384 496C384 505 391 512 400 512S416 505 416 496C416 470 394 448 368 448ZM336 384H176C167 384 160 391 160 400S167 416 176 416H336C345 416 352 409 352 400S345 384 336 384Z"/></svg>