<svg xmlns="http://www.w3.org/2000/svg" viewBox="0 0 512 512"><!-- Font Awesome Pro 6.0.0-alpha2 by @fontawesome - https://fontawesome.com License - https://fontawesome.com/license (Commercial License) --><path d="M124.297 282.25L175.516 220.781C180.301 215.039 185.977 210.377 192 206.254V272C192 280.844 199.156 288 208 288S224 280.844 224 272V193.426C228.277 192.723 232.559 192 236.969 192H275.031C279.441 192 283.723 192.723 288 193.426V272C288 280.844 295.156 288 304 288S320 280.844 320 272V206.258C326.023 210.383 331.699 215.049 336.484 220.797L387.703 282.25C390.875 286.047 395.422 288 400.016 288C403.625 288 407.25 286.781 410.25 284.297C417.031 278.641 417.953 268.547 412.297 261.75L361.078 200.312C339.734 174.688 308.375 160 275.031 160H236.969C203.625 160 172.266 174.688 150.922 200.297L99.703 261.75C94.047 268.547 94.969 278.641 101.75 284.297C108.578 289.922 118.641 289.031 124.297 282.25ZM336 320H176C167.156 320 160 327.156 160 336S167.156 352 176 352H336C344.844 352 352 344.844 352 336S344.844 320 336 320ZM496 160H480V144C480 135.156 472.844 128 464 128S448 135.156 448 144V160H432C423.156 160 416 167.156 416 176S423.156 192 432 192H448V208C448 216.844 455.156 224 464 224S480 216.844 480 208V192H496C504.844 192 512 184.844 512 176S504.844 160 496 160ZM256 128C291.348 128 320 99.346 320 64C320 28.652 291.348 0 256 0C220.654 0 192 28.652 192 64C192 99.346 220.654 128 256 128ZM256 32C273.645 32 288 46.355 288 64S273.645 96 256 96S224 81.645 224 64S238.355 32 256 32ZM368 448H144C117.531 448 96 469.531 96 496C96 504.844 103.156 512 112 512S128 504.844 128 496C128 487.172 135.172 480 144 480H368C376.828 480 384 487.172 384 496C384 504.844 391.156 512 400 512S416 504.844 416 496C416 469.531 394.469 448 368 448ZM336 384H176C167.156 384 160 391.156 160 400S167.156 416 176 416H336C344.844 416 352 408.844 352 400S344.844 384 336 384ZM80 352H64V336C64 327.156 56.844 320 48 320S32 327.156 32 336V352H16C7.156 352 0 359.156 0 368S7.156 384 16 384H32V400C32 408.844 39.156 416 48 416S64 408.844 64 400V384H80C88.844 384 96 376.844 96 368S88.844 352 80 352Z"/></svg>