<svg xmlns="http://www.w3.org/2000/svg" viewBox="0 0 576 512"><!-- Font Awesome Pro 6.0.0-alpha2 by @fontawesome - https://fontawesome.com License - https://fontawesome.com/license (Commercial License) --><path d="M304 192V247.453C313.568 237.297 324.268 228.256 336 220.6V192C336 183.156 328.844 176 320 176S304 183.156 304 192ZM384 144V198.797C394.324 195.873 404.996 193.799 416 192.807V144C416 135.156 408.844 128 400 128S384 135.156 384 144ZM448 80C448 71.199 440.801 64 432 64H336L302.375 19.25C293.375 7.125 279.125 0 264 0H184C168.875 0 154.625 7.125 145.625 19.25L112 64H16C7.201 64 0 71.199 0 80C0 88.799 7.201 96 16 96H432C440.801 96 448 88.799 448 80ZM152 64L171.25 38.375C174.25 34.375 179 32 184 32H264C269 32 273.75 34.375 276.75 38.375L296 64H152ZM296.234 480H112C85.531 480 64 458.469 64 432V144C64 135.156 56.844 128 48 128S32 135.156 32 144V432C32 476.109 67.891 512 112 512H331.002C318.047 502.896 306.297 492.184 296.234 480ZM112 192V416C112 424.844 119.156 432 128 432S144 424.844 144 416V192C144 183.156 136.844 176 128 176S112 183.156 112 192ZM208 192V416C208 424.844 215.156 432 224 432S240 424.844 240 416V192C240 183.156 232.844 176 224 176S208 183.156 208 192ZM432 224C352.375 224 288 288.375 288 368S352.375 512 432 512S576 447.625 576 368S511.625 224 432 224ZM432 480C370.25 480 320 429.75 320 368S370.25 256 432 256S544 306.25 544 368S493.75 480 432 480ZM480 352H448V304C448 295.162 440.836 288 432 288S416 295.162 416 304V374.25C416 379.635 420.365 384 425.75 384H480C488.836 384 496 376.836 496 368C496 359.162 488.836 352 480 352Z"/></svg>