<svg xmlns="http://www.w3.org/2000/svg" viewBox="0 0 640 512"><!-- Font Awesome Pro 6.0.0-alpha2 by @fontawesome - https://fontawesome.com License - https://fontawesome.com/license (Commercial License) --><path d="M527.999 96C536.8 96 543.999 88.799 543.999 80C543.999 71.199 536.8 64 527.999 64H431.999L398.374 19.25C389.374 7.125 375.124 0 359.999 0H279.999C264.874 0 250.624 7.125 241.624 19.25L207.999 64H180.114L220.648 96H527.999ZM267.249 38.375C270.249 34.375 274.999 32 279.999 32H359.999C364.999 32 369.749 34.375 372.749 38.375L391.999 64H247.999L267.249 38.375ZM480.839 142.576L467.583 290.955L497.595 314.648L512.71 145.422C513.548 136.061 506.173 128 496.775 128C488.489 128 481.575 134.324 480.839 142.576ZM451.999 465.375C451.374 473.625 444.374 480 436.124 480H203.874C195.624 480 188.624 473.625 187.999 465.375L165.696 215.721L131.13 188.43L156.124 468.25C158.374 493 178.999 512 203.874 512H436.124C460.999 512 481.624 493 483.874 468.25L483.985 467.01L453.97 443.312L451.999 465.375ZM633.921 483.436L25.921 3.42C18.984 -2.033 8.921 -0.83 3.437 6.061C-2.032 12.998 -0.845 23.061 6.077 28.545L614.077 508.562C617.015 510.875 620.515 512 623.984 512C628.718 512 633.405 509.906 636.562 505.922C642.03 498.984 640.843 488.92 633.921 483.436Z"/></svg>