<svg xmlns="http://www.w3.org/2000/svg" viewBox="0 0 640 512"><!-- Font Awesome Pro 6.0.0-alpha2 by @fontawesome - https://fontawesome.com License - https://fontawesome.com/license (Commercial License) --><path d="M625.938 203.312L564.688 142.062C555.625 133 543.562 128 530.75 128H480V80C480 53.531 458.469 32 432 32H48C21.531 32 0 53.531 0 80V400C0 444.182 35.818 480 80 480C106.293 480 129.416 467.146 144 447.562C158.584 467.146 181.709 480 208 480C252.184 480 288 444.182 288 400C288 394.52 287.438 389.172 286.387 384H449.613C448.562 389.172 448 394.52 448 400C448 444.182 483.818 480 528 480C572.184 480 608 444.182 608 400C608 393.699 607.096 387.643 605.719 381.762C625.477 375.814 640 357.67 640 336V237.25C640 224.438 635 212.375 625.938 203.312ZM530.75 160C534.953 160 539.078 161.703 542.062 164.688L601.375 224H480V160H530.75ZM80 448C53.533 448 32 426.467 32 400S53.533 352 80 352S128 373.533 128 400S106.467 448 80 448ZM208 448C181.533 448 160 426.467 160 400S181.533 352 208 352S256 373.533 256 400S234.467 448 208 448ZM448 352H271.639C257.035 332.678 234.088 320 208 320C181.709 320 158.584 332.854 144 352.438C129.416 332.854 106.293 320 80 320C61.906 320 45.402 326.232 32 336.361V80C32 71.172 39.172 64 48 64H432C440.828 64 448 71.172 448 80V352ZM528 448C501.533 448 480 426.467 480 400S501.533 352 528 352S576 373.533 576 400S554.467 448 528 448ZM608 336C608 344.828 600.828 352 592 352V352.438C577.416 332.854 554.293 320 528 320C509.906 320 493.402 326.232 480 336.361V256H608V336Z"/></svg>