<svg xmlns="http://www.w3.org/2000/svg" viewBox="0 0 640 512"><!-- Font Awesome Pro 6.0.0-alpha2 by @fontawesome - https://fontawesome.com License - https://fontawesome.com/license (Commercial License) --><path d="M3.031 325.75L24.404 394.5C29.777 411.25 47.652 420.75 64.402 415.5H64.527L320.015 336.125V302.625L55.027 385L33.652 316.25C29.652 303.375 36.777 290.125 49.402 286.25C62.027 282.25 75.527 289.375 79.402 302L91.275 340.25L305.265 273.75L293.265 235.5C289.39 222.875 296.39 209.375 309.14 205.375C312.765 204.25 316.39 204.125 319.89 204.75V159.375L317.765 152.375C304.64 110.25 259.767 86.75 217.771 99.75H217.646L64.902 147.25C22.779 160.375 -0.844 205.25 12.281 247.375L18.779 268C1.656 283.75 -3.094 306.125 3.031 325.75ZM74.402 177.875L227.269 130.375C252.517 122.625 279.392 136.75 287.265 162L292.265 178.125C267.642 189.875 254.517 218.25 262.767 245.125L265.267 252.75L112.4 300.25L110.025 292.625C101.775 265.75 74.777 249.875 47.777 254.125L42.777 238C34.902 212.625 49.152 185.75 74.402 177.875ZM528.005 288C477.382 288 435.259 321.875 421.259 368H384.011V64C384.011 46.4 398.411 32 416.011 32H623.999C632.835 32 639.999 24.836 639.999 16C639.999 7.162 632.835 0 623.999 0H416.009C380.81 0 352.013 28.799 352.013 63.998V372.297L11.167 480.75C2.73 483.438 -1.926 492.438 0.761 500.844C2.917 507.656 9.23 512 16.011 512C17.605 512 19.259 511.766 20.853 511.25L370.49 400H416.009C416.009 462.402 466.99 512.852 529.589 511.988C589.076 511.168 639.167 461.072 639.988 401.584C640.853 338.982 590.404 288 528.005 288ZM528.005 480C483.88 480 448.009 444.125 448.009 400S483.88 320 528.005 320C572.128 320 607.999 355.875 607.999 400S572.128 480 528.005 480Z"/></svg>