<svg xmlns="http://www.w3.org/2000/svg" viewBox="0 0 384 512"><!-- Font Awesome Pro 6.0.0-alpha2 by @fontawesome - https://fontawesome.com License - https://fontawesome.com/license (Commercial License) --><path d="M313.596 119.672L209.596 7.672C204.846 2.557 198.424 0 192.002 0S179.158 2.557 174.408 7.672L70.408 119.672C63.924 126.656 62.189 136.844 66.002 145.594S78.455 160 88.002 160H176V432C176 458.469 154.469 480 128 480H16C7.156 480 0 487.156 0 496S7.156 512 16 512H128C172.109 512 208 476.125 208 432V160H296.002C305.549 160 314.189 154.344 318.002 145.594S320.08 126.656 313.596 119.672ZM106.344 128L192.002 35.752L277.66 128H106.344Z"/></svg>