<svg xmlns="http://www.w3.org/2000/svg" viewBox="0 0 384 512"><!-- Font Awesome Pro 6.0.0-alpha2 by @fontawesome - https://fontawesome.com License - https://fontawesome.com/license (Commercial License) --><path d="M272 448V272H352C369.686 272 384 257.637 384 240.004C384 231.678 380.748 223.498 374.625 217.375L214.625 41.375C208.375 35.125 200.188 32 192 32S175.625 35.125 169.375 41.375L9.375 217.375C3.252 223.5 0 231.678 0 240.004C0 257.617 14.297 272 32 272H112V448C112 465.674 126.326 480 144 480H240C257.672 480 272 465.674 272 448ZM144 448V240L33.053 238.9L192 64.059L351.996 240H240V448H144Z"/></svg>