<svg xmlns="http://www.w3.org/2000/svg" viewBox="0 0 448 512"><!-- Font Awesome Pro 6.0.0-alpha2 by @fontawesome - https://fontawesome.com License - https://fontawesome.com/license (Commercial License) --><path d="M206.727 378.125C211.842 382.041 217.922 383.998 224 383.998C230.08 383.998 236.16 382.041 241.273 378.125C282.637 346.32 384 259.566 384 173.629C384 65.828 312.295 0 224 0C135.592 0 64 65.828 64 173.629C64 259.566 165.363 346.32 206.727 378.125ZM224 32C300.561 32 352 88.916 352 173.629C352 245.26 256.793 325.533 224 351.031C191.121 325.459 96 245.229 96 173.629C96 88.916 147.439 32 224 32ZM192 224C198.703 224 204.938 219.766 207.172 213.062C209.969 204.672 205.438 195.609 197.062 192.828L149.062 176.828C140.641 174 131.625 178.547 128.828 186.938S130.562 204.391 138.938 207.172L186.938 223.172C188.625 223.734 190.328 224 192 224ZM256 224C257.672 224 259.375 223.734 261.062 223.172L309.062 207.172C317.438 204.391 321.969 195.328 319.172 186.938S307.422 174 298.938 176.828L250.938 192.828C242.562 195.609 238.031 204.672 240.828 213.062C243.062 219.766 249.297 224 256 224ZM320 352C311.156 352 304 359.156 304 368S311.156 384 320 384C372.938 384 416 427.062 416 480H32C32 427.062 75.062 384 128 384C136.844 384 144 376.844 144 368S136.844 352 128 352C57.422 352 0 409.422 0 480C0 497.641 14.359 512 32 512H416C433.641 512 448 497.641 448 480C448 409.422 390.578 352 320 352Z"/></svg>