<svg xmlns="http://www.w3.org/2000/svg" viewBox="0 0 640 512"><!-- Font Awesome Pro 6.0.0-alpha2 by @fontawesome - https://fontawesome.com License - https://fontawesome.com/license (Commercial License) --><path d="M319.999 32C381.757 32 431.999 82.242 431.999 144C431.999 178.85 415.667 209.643 390.628 230.199L416.245 250.424C445.366 224.074 463.999 186.365 463.999 144C463.999 64.473 399.532 0 319.999 0C265.552 0 218.73 30.58 194.255 75.164L219.655 95.217C237.862 57.947 275.802 32 319.999 32ZM95.999 480C95.999 409.42 153.421 352 224.001 352H338.31L297.778 320H224.001C135.638 320 63.999 391.633 63.999 480C63.999 497.672 78.329 512 95.997 512H540.97L500.439 480H95.999ZM633.921 483.436L25.921 3.42C18.984 -2.033 8.921 -0.83 3.437 6.061C-2.032 12.998 -0.845 23.061 6.077 28.545L614.077 508.562C617.015 510.875 620.515 512 623.984 512C628.718 512 633.405 509.906 636.562 505.922C642.03 498.984 640.843 488.92 633.921 483.436Z"/></svg>