<svg xmlns="http://www.w3.org/2000/svg" viewBox="0 0 640 512"><!-- Font Awesome Pro 6.0.0-alpha2 by @fontawesome - https://fontawesome.com License - https://fontawesome.com/license (Commercial License) --><path d="M274.664 304H173.336C77.609 304 0 381.602 0 477.332C0 496.477 15.523 512 34.664 512H413.336C432.477 512 448 496.477 448 477.332C448 381.602 370.398 304 274.664 304ZM413.336 480H34.664C33.195 480 32 478.803 32 477.332C32 399.4 95.402 336 173.336 336H274.664C352.598 336 416 399.4 416 477.332C416 478.803 414.805 480 413.336 480ZM375.984 241C392.922 250.812 412.297 256 432 256C493.75 256 544 205.75 544 144S493.75 32 432 32C419.172 32 406.609 34.156 394.656 38.391C386.328 41.344 381.969 50.484 384.922 58.812C387.875 67.156 397.047 71.469 405.344 68.547C413.859 65.531 422.828 64 432 64C476.109 64 512 99.891 512 144S476.109 224 432 224C417.922 224 404.094 220.297 392.016 213.312C384.359 208.859 374.578 211.484 370.156 219.141C365.719 226.781 368.328 236.578 375.984 241ZM490.672 320H448C439.156 320 432 327.156 432 336S439.156 352 448 352H490.672C555.359 352 608 404.641 608 469.328C608 475.219 603.219 480 597.328 480H496C487.156 480 480 487.156 480 496S487.156 512 496 512H597.328C620.859 512 640 492.859 640 469.328C640 386.984 573.016 320 490.672 320ZM224 272C294.594 272 352 214.578 352 144V24C352 12.105 339.482 4.369 328.844 9.689L288 30.111L231.156 1.689C226.65 -0.564 221.35 -0.564 216.844 1.689L160 30.111L119.156 9.689C108.518 4.369 96 12.105 96 24V144C96 214.578 153.406 272 224 272ZM128 49.861L160 65.861L224 33.861L288 65.861L320 49.861V112H128V49.861ZM320 144C320 196.938 276.938 240 224 240S128 196.938 128 144H320Z"/></svg>