<svg xmlns="http://www.w3.org/2000/svg" viewBox="0 0 512 512"><!-- Font Awesome Pro 6.0.0-alpha2 by @fontawesome - https://fontawesome.com License - https://fontawesome.com/license (Commercial License) --><path d="M245.414 12.781C243.633 4.109 235.07 -1.328 226.508 0.328C217.851 2.094 212.288 10.562 214.039 19.219L237.664 134.422C246.852 182.031 229.227 217.234 186.694 236.219L176.819 240.625L185.256 466.656C185.35 470.562 184.038 474.344 181.694 477C180.475 478.359 178.412 480 175.381 480H145.036C142.536 480 140.349 478.953 138.536 476.891C136.192 474.266 134.88 470.5 134.942 467.078L143.349 240.703L133.63 236.25C90.535 216.516 73.253 182.562 82.316 135.531L106.16 19.219C107.91 10.562 102.348 2.094 93.691 0.328C85.128 -1.359 76.566 4.109 74.784 12.781L50.909 129.297C39.752 187.438 60.909 233.656 110.598 260.516L102.941 466.156C102.723 477.828 106.942 489.469 114.536 498.078C122.473 507.062 133.317 512 145.036 512H175.381C187.069 512 197.819 507.078 205.695 498.156C213.289 489.547 217.476 477.844 217.257 465.75L209.601 260.609C258.727 234.328 280.353 186.688 269.071 128.172L245.414 12.781ZM428.781 0C396.969 0 342.969 43.203 318.313 101.031C301.281 140.922 284.937 219.828 362.906 304.875L355.219 463.922C354.687 477.375 359.437 490.359 368.25 499.531C376 507.578 386.125 512 396.781 512H422.406C445.344 512 464 491.359 464 466V38.5C464 17.266 448.187 0 428.781 0ZM432 466C432 474.25 426.937 480 422.406 480H396.781C394.375 480 392.5 478.562 391.344 477.359C388.562 474.469 387.031 469.922 387.187 465.328L395.531 292.766L390.781 287.797C323.656 217.797 330.313 154.422 347.75 113.578C370.344 60.594 415.375 32 428.781 32C429.594 32 432 34.234 432 38.5V466ZM127.125 175.969C127.406 175.984 127.719 176 128 176C136.437 176 143.5 169.406 143.969 160.891L151.969 16.891C152.469 8.062 145.719 0.516 136.875 0.031C128.594 -0.406 120.531 6.312 120.031 15.109L112.031 159.109C111.531 167.938 118.281 175.484 127.125 175.969ZM192 176C192.281 176 192.594 175.984 192.875 175.969C201.719 175.484 208.469 167.938 207.969 159.109L199.969 15.109C199.5 6.312 192.094 -0.391 183.125 0.031C174.281 0.516 167.531 8.062 168.031 16.891L176.031 160.891C176.5 169.406 183.562 176 192 176Z"/></svg>