<svg xmlns="http://www.w3.org/2000/svg" viewBox="0 0 640 512"><!-- Font Awesome Pro 6.0.0-alpha2 by @fontawesome - https://fontawesome.com License - https://fontawesome.com/license (Commercial License) --><path d="M368 176C368 78.969 289.047 0 192 0S16 78.969 16 176C16 267.631 86.434 343.066 176 351.189V400H112C103.156 400 96 407.156 96 416S103.156 432 112 432H176V496C176 504.844 183.156 512 192 512S208 504.844 208 496V432H272C280.844 432 288 424.844 288 416S280.844 400 272 400H208V351.189C297.566 343.066 368 267.631 368 176ZM192 320C112.594 320 48 255.406 48 176S112.594 32 192 32S336 96.594 336 176S271.406 320 192 320ZM624 176C624 78.969 545.047 0 448 0C423.531 0 399.844 4.938 377.594 14.656C369.5 18.188 365.797 27.625 369.344 35.719C372.875 43.781 382.344 47.531 390.406 43.969C408.594 36.031 427.969 32 448 32C527.406 32 592 96.594 592 176S527.406 320 448 320C427.969 320 408.594 315.969 390.406 308.031C382.344 304.531 372.875 308.25 369.344 316.281C365.797 324.375 369.5 333.813 377.594 337.344C394.953 344.926 413.203 349.5 432 351.188V400H368C359.156 400 352 407.156 352 416S359.156 432 368 432H432V496C432 504.844 439.156 512 448 512S464 504.844 464 496V432H528C536.844 432 544 424.844 544 416S536.844 400 528 400H464V351.189C553.566 343.066 624 267.631 624 176Z"/></svg>