<svg xmlns="http://www.w3.org/2000/svg" viewBox="0 0 384 512"><!-- Font Awesome Pro 6.0.0-alpha2 by @fontawesome - https://fontawesome.com License - https://fontawesome.com/license (Commercial License) --><path d="M368 176C368 78.799 289.203 0 192 0C94.799 0 16 78.799 16 176C16 267.799 86.309 343.1 176 351.193V400H112C103.156 400 96 407.156 96 416S103.156 432 112 432H176V496C176 504.844 183.156 512 192 512S208 504.844 208 496V432H272C280.844 432 288 424.844 288 416S280.844 400 272 400H208V351.193C297.695 343.1 368 267.801 368 176ZM48 176C48 96.598 112.598 32 192 32S336 96.598 336 176S271.402 320 192 320S48 255.402 48 176Z"/></svg>