<svg xmlns="http://www.w3.org/2000/svg" viewBox="0 0 640 512"><!-- Font Awesome Pro 6.0.0-alpha2 by @fontawesome - https://fontawesome.com License - https://fontawesome.com/license (Commercial License) --><path d="M473.173 200L576.001 128.031V376.551L604.157 398.779C606.523 394.275 608.001 389.277 608.001 383.969V128.031C608.001 116.047 601.407 105.172 590.767 99.641C580.173 94.156 567.439 94.953 557.657 101.813L454.829 173.781C447.579 178.844 445.829 188.828 450.892 196.063C455.954 203.312 465.907 205.047 473.173 200ZM352.001 96C369.646 96 384.001 110.355 384.001 128V224.967L416.001 250.23V128C416.001 92.654 387.347 64 352.001 64H180.116L220.648 96H352.001ZM633.923 483.436L25.921 3.42C18.984 -2.033 8.921 -0.83 3.437 6.061C-2.032 12.998 -0.845 23.061 6.077 28.545L614.079 508.562C617.017 510.875 620.517 512 623.985 512C628.72 512 633.407 509.906 636.564 505.922C642.032 498.984 640.845 488.92 633.923 483.436ZM352.001 416H96.001C78.357 416 64.001 401.645 64.001 384V135.432L34.276 111.965C32.939 117.117 32.001 122.428 32.001 128V384C32.001 419.346 60.655 448 96.001 448H352.001C378.382 448 401.005 432.02 410.8 409.229L383.29 387.51C381.46 403.428 368.401 416 352.001 416Z"/></svg>