<svg xmlns="http://www.w3.org/2000/svg" viewBox="0 0 640 512"><!-- Font Awesome Pro 6.0.0-alpha2 by @fontawesome - https://fontawesome.com License - https://fontawesome.com/license (Commercial License) --><path d="M632.873 400.75L543.999 352V288L599.123 270.25C610.998 264.375 610.998 247.625 599.123 241.75L479.999 192V128L507.249 111.75C514.999 104 512.874 91 503.124 86.125L320 0L136.876 86.125C127.126 91 125.001 104 132.751 111.75L160.001 128V192L40.877 241.75C29.002 247.625 29.002 264.375 40.877 270.25L96.001 288V352L7.127 400.75C-3.123 407.5 -2.123 422.875 8.877 428.375L64.002 448V496C64.002 504.8 71.202 512 80.002 512H80.002C88.802 512 96.001 504.8 96.001 496V448H304V496C304 504.8 311.2 512 320 512H320C328.8 512 336 504.8 336 496V448H543.999V496C543.999 504.8 551.198 512 559.998 512H559.998C568.798 512 575.998 504.8 575.998 496V448L631.123 428.375C642.123 422.875 643.123 407.5 632.873 400.75ZM320 35.375L448.999 96H191.001L320 35.375ZM192.001 128H447.999V192H192.001V128ZM94.626 254L166.376 224H473.624L545.374 254L538.999 256H101.001L94.626 254ZM128.001 288H511.999V352H128.001V288ZM570.498 416H69.502L55.127 410.875L104.251 384H535.749L584.873 410.875L570.498 416Z"/></svg>