<svg xmlns="http://www.w3.org/2000/svg" viewBox="0 0 576 512"><!-- Font Awesome Pro 6.0.0-alpha2 by @fontawesome - https://fontawesome.com License - https://fontawesome.com/license (Commercial License) --><path d="M502.625 256L555.312 203.312C561.562 197.062 561.562 186.937 555.312 180.688S538.937 174.438 532.688 180.688L480 233.375L427.312 180.688C421.062 174.438 410.937 174.438 404.688 180.688S398.438 197.063 404.688 203.312L457.375 256L404.688 308.688C398.438 314.938 398.438 325.063 404.688 331.312C410.934 337.559 421.059 337.566 427.312 331.312L480 278.625L532.688 331.312C538.934 337.559 549.059 337.566 555.312 331.312C561.562 325.062 561.562 314.937 555.312 308.688L502.625 256ZM288.014 32C280.316 32 272.715 34.783 266.734 40.1L131.84 160.004H48C21.49 160.004 0 181.496 0 208.002V304.002C0 330.51 21.49 352 48 352H131.84L266.734 471.906C272.719 477.219 280.312 480 288 480C309.042 480 320 462.133 320 448V64.006C320 50.14 309.081 32 288.014 32ZM287.98 447.951L153.086 328.043L143.996 319.963H48C39.178 319.963 32 312.803 32 304.002V208.002C32 199.201 39.178 192.041 48 192.041H143.996L153.086 183.961L287.98 64.057C287.988 64.049 287.996 64.045 288 64.041L287.98 447.951Z"/></svg>