<svg xmlns="http://www.w3.org/2000/svg" viewBox="0 0 640 512"><!-- Font Awesome Pro 6.0.0-alpha2 by @fontawesome - https://fontawesome.com License - https://fontawesome.com/license (Commercial License) --><path d="M464 160C419.875 160 384 195.75 384 240C384 284.125 419.875 320 464 320S544 284.125 544 240S508.125 160 464 160ZM464 288C437.5 288 416 266.5 416 240S437.5 192 464 192S512 213.5 512 240S490.5 288 464 288ZM576 64H64C28.654 64 0 92.652 0 128V384C0 419.346 28.654 448 64 448H213.615C238.84 448 261.729 433.232 272.125 410.25L288.75 373.5C294.625 360.25 306.75 352 320 352S345.375 360.25 351.25 373.5L367.875 410.25C378.271 433.232 401.16 448 426.385 448H576C611.346 448 640 419.346 640 384V128C640 92.652 611.346 64 576 64ZM608 384C608 401.672 593.674 416 576 416H426.125C413.559 416 402.164 408.625 397.016 397.16L380.5 360.375C369.375 335.875 345.75 320 320 320S270.625 335.875 259.5 360.375L242.984 397.16C237.836 408.625 226.441 416 213.875 416H64C46.326 416 32 401.672 32 384V128C32 110.326 46.326 96 64 96H576C593.674 96 608 110.326 608 128V384ZM176 160C131.875 160 96 195.75 96 240C96 284.125 131.875 320 176 320S256 284.125 256 240S220.125 160 176 160ZM176 288C149.5 288 128 266.5 128 240S149.5 192 176 192S224 213.5 224 240S202.5 288 176 288Z"/></svg>