<svg xmlns="http://www.w3.org/2000/svg" viewBox="0 0 576 512"><!-- Font Awesome Pro 6.0.0-alpha2 by @fontawesome - https://fontawesome.com License - https://fontawesome.com/license (Commercial License) --><path d="M406.999 480C406.812 480 406.609 480 406.406 480C399.484 479.719 393.515 475.062 391.609 468.406L288 106.164L184.391 468.406C182.485 475.062 176.516 479.719 169.594 480C161.923 479.469 156.376 476.031 153.985 469.531L0.986 53.504C-2.061 45.191 2.189 36.003 10.486 32.941C18.767 30.003 27.97 34.159 31.017 42.441L167.094 412.465L272.61 43.566C276.547 29.815 299.453 29.815 303.391 43.566L408.906 412.465L544.983 42.441C548.045 34.159 557.28 30.003 565.514 32.941C573.811 36.003 578.061 45.191 575.014 53.504L422.015 469.531C419.687 475.843 413.687 480 406.999 480Z"/></svg>