<svg xmlns="http://www.w3.org/2000/svg" viewBox="0 0 576 512"><!-- Font Awesome Pro 6.0.0-alpha2 by @fontawesome - https://fontawesome.com License - https://fontawesome.com/license (Commercial License) --><path d="M224 64H240V80C240 88.844 247.156 96 256 96S272 88.844 272 80V64H288C296.844 64 304 56.844 304 48S296.844 32 288 32H272V16C272 7.156 264.844 0 256 0S240 7.156 240 16V32H224C215.156 32 208 39.156 208 48S215.156 64 224 64ZM64 144H112V192C112 200.844 119.156 208 128 208S144 200.844 144 192V144H192C200.844 144 208 136.844 208 128S200.844 112 192 112H144V64C144 55.156 136.844 48 128 48S112 55.156 112 64V112H64C55.156 112 48 119.156 48 128S55.156 144 64 144ZM512 368H464V320C464 311.156 456.844 304 448 304S432 311.156 432 320V368H384C375.156 368 368 375.156 368 384S375.156 400 384 400H432V448C432 456.844 439.156 464 448 464S464 456.844 464 448V400H512C520.844 400 528 392.844 528 384S520.844 368 512 368ZM529.944 48L496.02 14.061C486.649 4.688 474.362 0 462.076 0S437.51 4.686 428.137 14.059L46.061 396.109C27.315 414.854 27.313 445.244 46.057 463.99L79.99 497.938C89.362 507.311 101.649 512 113.934 512S138.5 507.314 147.873 497.941L529.942 115.879C548.686 97.135 548.686 66.746 529.944 48ZM125.246 475.314C121.168 479.391 116.408 480 113.934 480S106.698 479.391 102.623 475.314L68.686 441.363C64.61 437.287 64 432.525 64 430.051S64.61 422.814 68.688 418.738L312.408 175.033L368.969 231.594L125.246 475.314ZM507.315 93.252L391.596 208.971L335.033 152.408L450.764 36.686C454.842 32.607 459.602 32 462.076 32C464.553 32 469.315 32.607 473.387 36.682L507.313 70.625C513.551 76.863 513.551 87.014 507.315 93.252Z"/></svg>