<svg xmlns="http://www.w3.org/2000/svg" viewBox="0 0 512 512"><!-- Font Awesome Pro 6.0.0-alpha2 by @fontawesome - https://fontawesome.com License - https://fontawesome.com/license (Commercial License) --><path d="M497.944 48L464.02 14.061C454.649 4.688 442.362 0 430.076 0S405.51 4.686 396.137 14.059L14.061 396.109C-4.685 414.854 -4.687 445.244 14.057 463.99L47.99 497.938C57.362 507.311 69.649 512 81.934 512S106.5 507.314 115.873 497.941L497.942 115.879C516.686 97.135 516.686 66.746 497.944 48ZM93.246 475.314C89.168 479.391 84.408 480 81.934 480S74.698 479.391 70.623 475.314L36.686 441.363C32.61 437.287 32 432.525 32 430.051S32.61 422.814 36.688 418.738L280.408 175.033L336.969 231.594L93.246 475.314ZM475.315 93.252L359.596 208.971L303.033 152.408L418.764 36.686C422.842 32.607 427.602 32 430.076 32C432.553 32 437.315 32.607 441.387 36.682L475.313 70.625C481.551 76.863 481.551 87.014 475.315 93.252Z"/></svg>