<svg xmlns="http://www.w3.org/2000/svg" viewBox="0 0 512 512"><!-- Font Awesome Pro 6.0.0-alpha2 by @fontawesome - https://fontawesome.com License - https://fontawesome.com/license (Commercial License) --><path d="M502.777 8.875C491.34 -2.474 471.716 -3.069 459.67 7.843L186.64 255.873H144.017C135.174 255.873 128.018 263.033 128.018 271.881V308.774L10.494 414.858C3.947 420.798 0.229 428.959 0.01 437.744C-0.209 446.561 3.104 454.878 9.353 461.162L50.788 502.62C56.835 508.655 64.866 512 73.412 512C82.552 512 90.974 508.279 97.176 501.464L376.332 191.841H399.955C408.798 191.841 415.954 184.681 415.954 175.833V147.819L503.855 52.084C503.871 52.084 503.902 52.053 503.918 52.021C515.104 39.703 514.636 20.756 502.777 8.875ZM388.175 130.779C385.456 133.718 383.956 137.595 383.956 141.597V159.825H369.223C364.692 159.825 360.379 161.732 357.348 165.109L73.412 479.984L31.977 438.588L154.72 327.815C158.095 324.782 160.016 320.436 160.016 315.903V287.889H192.811C196.78 287.889 200.623 286.419 203.561 283.73L474.779 36.451L388.175 130.779Z"/></svg>