<svg xmlns="http://www.w3.org/2000/svg" viewBox="0 0 640 512"><!-- Font Awesome Pro 6.0.0-alpha2 by @fontawesome - https://fontawesome.com License - https://fontawesome.com/license (Commercial License) --><path d="M610.625 118.375L338.625 3.75C326.75 -1.25 313.25 -1.25 301.375 3.75L29.375 118.375C11.625 125.75 0 143.25 0 162.5V496C0 504.801 7.201 512 16 512C24.801 512 32 504.801 32 496V162.5C32 156.125 35.875 150.25 41.75 147.75L313.75 33.125C317.75 31.5 322.25 31.5 326.25 33.125L598.25 147.75C604.125 150.25 608 156.125 608 162.5V496C608 504.801 615.201 512 624 512C632.801 512 640 504.801 640 496V162.5C640 143.25 628.375 125.75 610.625 118.375ZM512 352H352V256C352 238.326 337.674 224 320 224H128C110.326 224 96 238.326 96 256V480C96 497.672 110.326 512 128 512H512C529.674 512 544 497.672 544 480V384C544 366.326 529.674 352 512 352ZM320 480H128V384H320V480ZM320 352H128V256H320V352ZM512 480H352V384H512V480Z"/></svg>