<svg xmlns="http://www.w3.org/2000/svg" viewBox="0 0 384 512"><!-- Font Awesome Pro 6.0.0-alpha2 by @fontawesome - https://fontawesome.com License - https://fontawesome.com/license (Commercial License) --><path d="M320 113.18V64C320 28.719 291.281 0 256 0H128C92.719 0 64 28.719 64 64V113.18C24.805 148.328 0 199.207 0 256S24.805 363.668 64 398.82V448C64 483.281 92.719 512 128 512H256C291.281 512 320 483.281 320 448V398.82C359.195 363.672 384 312.797 384 256S359.195 148.328 320 113.18ZM96 64C96 46.344 110.344 32 128 32H256C273.656 32 288 46.344 288 64V89.898C259.736 73.523 227.014 64 192 64S124.264 73.523 96 89.898V64ZM288 448C288 465.656 273.656 480 256 480H128C110.344 480 96 465.656 96 448V422.102C124.264 438.477 156.986 448 192 448S259.736 438.477 288 422.102V448ZM192 416C103.775 416 32 344.223 32 256S103.775 96 192 96S352 167.777 352 256S280.225 416 192 416ZM208 247.438V176C208 167.156 200.844 160 192 160S176 167.156 176 176V256C176 261.344 178.688 266.344 183.125 269.312L231.125 301.312C233.844 303.125 236.938 304 240 304C245.156 304 250.219 301.5 253.312 296.875C258.219 289.531 256.219 279.594 248.875 274.688L208 247.438Z"/></svg>