<svg xmlns="http://www.w3.org/2000/svg" viewBox="0 0 512 512"><!-- Font Awesome Pro 6.0.0-alpha2 by @fontawesome - https://fontawesome.com License - https://fontawesome.com/license (Commercial License) --><path d="M496 96C491.906 96 487.812 97.562 484.688 100.688L417.771 167.604C405.471 161.162 392.008 157.385 377.883 156.742L507.312 27.313C510.438 24.188 512 20.094 512 16C512 6.861 504.527 0 496 0C491.906 0 487.812 1.562 484.688 4.688L356.186 133.189C355.391 119.531 351.549 106.168 344.846 93.779L411.312 27.312C414.438 24.188 416 20.094 416 16C416 6.861 408.527 0 400 0C395.906 0 391.812 1.562 388.688 4.688L325.363 68.012L305.281 47.934C299.279 41.932 291.141 38.562 282.654 38.562H282.611C274.109 38.574 265.961 41.969 259.967 47.996L237.588 70.496C220.672 87.324 211.152 109.582 209.947 133.377L203.641 127.062C200.516 123.938 196.421 122.375 192.327 122.375S184.138 123.938 181.012 127.062L147.258 160.688C129.629 178.312 120.627 200.938 119.502 223.938L113.127 217.562C110.001 214.438 105.906 212.875 101.812 212.875S93.623 214.438 90.498 217.562L56.742 251.188C37.989 269.938 28.613 294.531 28.613 319.125S37.989 368.312 56.742 387.062L79.592 409.783L4.688 484.688C1.562 487.812 0 491.906 0 496C0 505.139 7.473 512 16 512C20.094 512 24.188 510.438 27.312 507.312L85.252 449.373L102.125 432.812L125.004 455.562C143.756 474.312 168.26 483.687 192.889 483.687C217.395 483.687 242.023 474.312 260.775 455.562L294.531 421.812C297.657 418.688 299.22 414.594 299.22 410.5S297.657 402.312 294.531 399.188L288.031 392.812C311.035 391.688 333.664 382.688 351.291 365.062L385.047 331.312C388.172 328.188 389.734 324.094 389.734 320S388.172 311.812 385.047 308.688L378.76 302.393C402.408 301.143 424.564 291.715 441.496 274.873L464.057 252.316C470.059 246.314 473.432 238.174 473.432 229.688C473.432 221.199 470.059 213.059 464.057 207.059L443.811 186.814L507.312 123.313C510.438 120.188 512 116.094 512 112C512 102.861 504.527 96 496 96ZM241.476 138.251C241.476 121.897 247.727 105.547 260.275 93.062L282.654 70.562L305.783 93.687C318.122 106.024 324.417 122.272 324.417 138.635C324.417 153.71 319.073 168.884 308.189 181.186L283.045 206.33L260.275 183.562C247.758 171.047 241.476 154.647 241.476 138.251ZM151.132 228.562C151.132 212.187 157.384 195.812 169.887 183.312L192.264 160.937L215.393 184.062C223.654 192.321 234.254 210.128 234.254 230.64C234.254 243.73 229.937 257.923 217.937 271.437L192.664 296.711L169.887 273.812C157.384 261.312 151.132 244.938 151.132 228.562ZM79.371 364.312C66.869 351.812 60.618 335.437 60.618 319.062S66.869 286.312 79.371 273.812L101.75 251.437L124.879 274.562C137.186 286.867 143.597 303.189 143.597 319.661C143.597 334.676 138.27 349.815 127.225 362.15L102.219 387.156L79.371 364.312ZM238.021 432.938C225.52 445.438 209.173 451.688 192.827 451.688S160.135 445.438 147.633 432.938L124.879 410.313L147.383 387.938C159.885 375.438 176.262 369.188 192.64 369.188S225.395 375.438 237.896 387.938L260.525 410.562L238.021 432.938ZM328.662 342.438C316.16 354.938 299.782 361.188 283.404 361.188S250.648 354.938 238.146 342.438L215.393 319.812L237.896 297.437C250.414 284.922 266.817 278.641 283.216 278.641C299.573 278.641 315.926 284.891 328.412 297.437L351.041 320.062L328.662 342.438ZM418.928 252.188C406.41 264.641 390.037 270.891 373.656 270.891C357.752 270.891 341.9 264.889 329.494 253.068L305.838 229.383L328.287 207.063C340.789 194.563 357.137 188.313 373.498 188.313S406.238 194.563 418.803 207.063L441.432 229.688L418.928 252.188Z "></path></svg>