<svg xmlns="http://www.w3.org/2000/svg" viewBox="0 0 448 512"><!-- Font Awesome Pro 6.0.0-alpha2 by @fontawesome - https://fontawesome.com License - https://fontawesome.com/license (Commercial License) --><path d="M415.997 56C415.997 25.125 390.872 0 359.997 0S303.998 25.125 303.998 56S329.123 112 359.997 112S415.997 86.875 415.997 56ZM335.997 56C335.997 42.766 346.763 32 359.997 32S383.997 42.766 383.997 56S373.232 80 359.997 80S335.997 69.234 335.997 56ZM159.999 192C71.634 192 0 263.635 0 352S71.634 512 159.999 512S319.998 440.365 319.998 352S248.363 192 159.999 192ZM159.999 480C89.419 480 32 422.578 32 352C32 281.42 89.419 224 159.999 224S287.998 281.42 287.998 352C287.998 422.578 230.578 480 159.999 480ZM137.296 141.016L162.889 122.734C176.999 112.703 195.467 110.984 211.092 118.297L276.529 148.844L260.686 164.687C254.436 170.937 254.436 181.062 260.686 187.312C263.811 190.438 267.904 192 271.998 192S280.185 190.438 283.31 187.312L315.31 155.312C318.998 151.625 320.654 146.359 319.748 141.219C318.857 136.078 315.498 131.703 310.763 129.5L224.623 89.297C198.53 77.141 167.718 79.937 144.296 96.703L118.702 114.984C111.515 120.109 109.843 130.109 114.984 137.297C120.108 144.484 130.124 146.172 137.296 141.016ZM428.481 261.984C425.434 258.203 420.856 256 415.997 256H351.997C343.154 256 335.997 263.156 335.997 272S343.154 288 351.997 288H396.044L368.372 412.531C366.466 421.156 371.903 429.703 380.528 431.625C381.7 431.875 382.857 432 384.013 432C391.341 432 397.966 426.922 399.622 419.469L431.622 275.469C432.669 270.734 431.512 265.781 428.481 261.984Z"/></svg>