<svg xmlns="http://www.w3.org/2000/svg" viewBox="0 0 512 512"><!-- Font Awesome Pro 6.0.0-alpha2 by @fontawesome - https://fontawesome.com License - https://fontawesome.com/license (Commercial License) --><path d="M404.976 395.531L326.961 232.25C324.164 225.719 324.008 218.281 326.476 212L391.289 51.344C398.742 32.281 389.414 10.438 370.351 2.625C354.351 -3.656 336.258 1.625 326.32 15.594L225.461 156C221.398 161.688 215.383 165.438 208.57 166.531L39.429 193.719C21.148 196.656 7.633 213.031 8.008 231.906C8.476 250.656 22.773 266.312 41.273 268.344L208.883 286.75C215.633 287.469 222.023 291.062 226.664 296.938L240.008 312.869V480H144.008C135.164 480 128.008 487.156 128.008 496S135.164 512 144.008 512H368.008C376.851 512 384.008 504.844 384.008 496S376.851 480 368.008 480H272.008V351.076L341.304 433.813C349.179 443.844 359.961 448 370.273 448C377.508 448 384.492 445.969 390.086 442.469C405.898 432.812 412.304 412.656 404.976 395.531ZM373.289 415.25C373.242 415.219 369.289 417.656 366.164 413.656L251.476 276.719C241.82 264.531 227.554 256.594 212.351 254.938L44.758 236.531C42.164 236.25 40.07 233.875 40.008 231.188C39.945 228.25 41.883 225.719 44.508 225.312L213.633 198.156C228.976 195.688 242.429 187.312 251.492 174.625L352.367 34.187C353.383 32.75 355.008 31.969 356.617 31.969C357.211 31.969 357.804 32.094 358.367 32.312C361.226 33.469 362.617 36.781 361.539 39.531L296.742 200.156C291.164 214.344 291.461 230.625 297.804 245.437L375.648 408.344C376.586 410.812 375.601 413.812 373.289 415.25ZM256.008 208C247.17 208 240.006 215.162 240.006 224C240.006 232.836 247.17 240 256.008 240C264.844 240 272.006 232.836 272.006 224C272.006 215.162 264.844 208 256.008 208Z"/></svg>