<svg xmlns="http://www.w3.org/2000/svg" viewBox="0 0 512 512"><!-- Font Awesome Pro 6.0.0-alpha2 by @fontawesome - https://fontawesome.com License - https://fontawesome.com/license (Commercial License) --><path d="M471.891 107.75L114.625 48.219C110.031 47.437 105.234 48.75 101.656 51.781C98.062 54.844 96 59.312 96 64V110.5H32V16C32 7.156 24.844 0 16 0S0 7.156 0 16V496C0 504.844 7.156 512 16 512S32 504.844 32 496V311.281H96V352C96 356.688 98.062 361.156 101.656 364.219C104.562 366.688 108.234 368 112 368C112.875 368 113.75 367.938 114.625 367.781L471.922 308.25C495.141 304.344 512 284.438 512 260.906V155.094C512 131.562 495.141 111.656 471.891 107.75ZM96 279.281H32V142.5H96V279.281ZM224 317.125L128 333.125V82.875L224 98.875V317.125ZM384 290.461L256 311.793V104.209L384 125.543V290.461ZM480 260.906C480 268.75 474.375 275.375 466.641 276.688L416 285.127V130.877L466.609 139.312C474.375 140.625 480 147.25 480 155.094V260.906Z"/></svg>