<svg xmlns="http://www.w3.org/2000/svg" viewBox="0 0 320 512"><!-- Font Awesome Pro 6.0.0-alpha2 by @fontawesome - https://fontawesome.com License - https://fontawesome.com/license (Commercial License) --><path d="M303.4 192.658L288.747 29.104C287.271 12.621 273.653 0 257.343 0H62.657C46.346 0 32.729 12.621 31.252 29.104L16.6 192.658C9.436 272.619 67.319 341.098 144 349.842V480H79.999C71.163 480 63.999 487.162 63.999 496C63.999 504.836 71.163 512 79.999 512H240.001C248.837 512 256.001 504.836 256.001 496C256.001 487.162 248.837 480 240.001 480H176V349.842C252.68 341.098 310.564 272.619 303.4 192.658ZM48.473 195.514L62.657 32H256.878L271.526 195.514C274.335 226.855 264.645 257.094 244.243 280.656C224.139 303.873 196.324 317.568 165.922 319.217C158.649 319.61 161.464 319.616 154.078 319.217C123.675 317.568 95.86 303.873 75.757 280.656C55.354 257.094 45.665 226.855 48.473 195.514Z"/></svg>