<svg xmlns="http://www.w3.org/2000/svg" viewBox="0 0 320 512"><!-- Font Awesome Pro 6.0.0-alpha2 by @fontawesome - https://fontawesome.com License - https://fontawesome.com/license (Commercial License) --><path d="M240.002 480H176V349.842C252.682 341.098 310.565 272.619 303.401 192.658L288.748 29.104C287.272 12.621 273.654 0 257.344 0H62.656C46.346 0 32.729 12.621 31.252 29.104L16.6 192.658C9.436 272.619 67.318 341.098 144 349.842V480H79.998C71.162 480 63.998 487.162 63.998 496C63.998 504.836 71.162 512 79.998 512H240.002C248.838 512 256.002 504.836 256.002 496C256.002 487.162 248.838 480 240.002 480ZM256.879 32L265.479 128H54.328L62.656 32H256.879ZM154.078 319.217C123.676 317.568 95.861 303.873 75.756 280.656C55.354 257.094 45.664 226.855 48.473 195.514L51.553 160H268.346L271.527 195.514C274.336 226.855 264.647 257.094 244.244 280.656C224.139 303.873 196.324 317.568 165.922 319.217C158.649 319.609 161.463 319.615 154.078 319.217Z"/></svg>