<svg xmlns="http://www.w3.org/2000/svg" viewBox="0 0 512 512"><!-- Font Awesome Pro 6.0.0-alpha2 by @fontawesome - https://fontawesome.com License - https://fontawesome.com/license (Commercial License) --><path d="M496 272.008H443.506L511.281 52.735C513.891 44.298 509.172 35.345 500.719 32.736C492.25 30.08 483.313 34.845 480.719 43.298L410.02 272.008H332.555L271.453 43.876C267.703 29.877 244.297 29.877 240.547 43.876L179.445 272.008H101.98L31.281 43.298C28.672 34.876 19.703 30.142 11.281 32.736C2.828 35.345 -1.891 44.298 0.719 52.735L68.494 272.008H16C7.156 272.008 0 279.164 0 288.007S7.156 304.007 16 304.007H78.385L129.297 468.719C131.391 475.516 137.188 479.859 144.875 480C152.016 479.859 158.188 475.031 160.031 468.141L203.996 304.007H308.004L351.969 468.141C353.812 475.031 359.984 479.859 367.125 480H367.422C374.422 480 380.641 475.438 382.703 468.719L433.615 304.007H496C504.844 304.007 512 296.851 512 288.007S504.844 272.008 496 272.008ZM143.484 406.268L111.873 304.007H170.873L143.484 406.268ZM212.566 272.008L256 109.858L299.434 272.008H212.566ZM368.516 406.268L341.127 304.007H400.127L368.516 406.268Z"/></svg>