<svg xmlns="http://www.w3.org/2000/svg" viewBox="0 0 512 512"><!-- Font Awesome Pro 6.0.0-alpha2 by @fontawesome - https://fontawesome.com License - https://fontawesome.com/license (Commercial License) --><path d="M496 448H480V64H496C504.836 64 512 56.836 512 48S504.836 32 496 32H16C7.164 32 0 39.164 0 48S7.164 64 16 64H32V448H16C7.164 448 0 455.164 0 464S7.164 480 16 480H496C504.836 480 512 472.836 512 464S504.836 448 496 448ZM448 448H64V64H448V448ZM112 224H240V256H144C135.201 256 128 263.199 128 272S135.201 288 144 288H240V320H170.666C145.107 320 129.863 348.484 144.041 369.75L165.377 401.752C171.311 410.652 181.303 416 192 416H319.998C330.699 416 340.689 410.652 346.625 401.75L367.959 369.75C382.137 348.484 366.893 320 341.334 320H272V288H368C376.801 288 384 280.801 384 272S376.801 256 368 256H272V224H400C408.801 224 416 216.801 416 208S408.801 192 400 192H272V160H368C376.801 160 384 152.801 384 144S376.801 128 368 128H272V112C272 103.199 264.801 96 256 96C247.201 96 240 103.199 240 112V128H144C135.201 128 128 135.199 128 144S135.201 160 144 160H240V192H112C103.201 192 96 199.199 96 208S103.201 224 112 224ZM341.334 352L319.998 384L192.002 384.002L170.666 352H341.334Z"/></svg>