<svg xmlns="http://www.w3.org/2000/svg" viewBox="0 0 384 512"><!-- Font Awesome Pro 6.0.0-alpha2 by @fontawesome - https://fontawesome.com License - https://fontawesome.com/license (Commercial License) --><path d="M380.219 453.655C385.922 460.405 385.079 470.5 378.329 476.219C375.329 478.75 371.657 480 368.016 480C363.469 480 358.954 478.062 355.782 474.343L192 280.772L28.218 474.343C25.046 478.062 20.531 480 15.984 480C12.343 480 8.671 478.75 5.671 476.219C-1.079 470.5 -1.922 460.405 3.781 453.655L171.029 255.99L3.781 58.324C-1.922 51.574 -1.079 41.479 5.671 35.76C12.421 30.073 22.5 30.948 28.218 37.636L192 231.207L355.782 37.636C361.485 30.948 371.579 30.073 378.329 35.76C385.079 41.479 385.922 51.574 380.219 58.324L212.971 255.99L380.219 453.655Z"/></svg>